<?xml version="1.0" encoding="utf-8"?>
<!-- Generator: Adobe Illustrator 17.1.0, SVG Export Plug-In . SVG Version: 6.00 Build 0)  -->
<!DOCTYPE svg PUBLIC "-//W3C//DTD SVG 1.1//EN" "http://www.w3.org/Graphics/SVG/1.1/DTD/svg11.dtd">
<svg version="1.1" id="Layer_1" xmlns="http://www.w3.org/2000/svg" xmlns:xlink="http://www.w3.org/1999/xlink" x="0px" y="0px"
	 viewBox="0 0 1136 640" enable-background="new 0 0 1136 640" xml:space="preserve">
<polygon fill="none" stroke="#00FF00" stroke-miterlimit="10" points="592.5,223.3 656.5,223.3 592.5,287.3 "/>
<polygon fill="none" stroke="#00FF00" stroke-miterlimit="10" points="632.5,247.3 720.5,247.3 720.5,287.3 592.5,287.3 "/>
<polygon fill="none" stroke="#00FF00" stroke-miterlimit="10" points="656.5,223.3 720.5,223.3 720.5,247.3 632.5,247.3 "/>
<polygon fill="none" stroke="#00FF00" stroke-miterlimit="10" points="656.5,159.3 656.5,223.3 688.5,223.3 688.5,95.3 656.5,95.3 
	"/>
<polygon fill="none" stroke="#00FF00" stroke-miterlimit="10" points="688.5,191.3 720.5,223.3 688.5,223.3 "/>
<polygon fill="none" stroke="#00FF00" stroke-miterlimit="10" points="688.5,191.3 720.5,159.3 720.5,223.3 "/>
<polygon fill="none" stroke="#00FF00" stroke-miterlimit="10" points="688.5,191.3 688.5,95.3 720.5,95.3 720.5,159.3 "/>
<rect x="720.5" y="127.3" fill="none" stroke="#00FF00" stroke-miterlimit="10" width="16" height="184"/>
<rect x="736.5" y="143.3" fill="none" stroke="#00FF00" stroke-miterlimit="10" width="16" height="184"/>
<polygon fill="none" stroke="#00FF00" stroke-miterlimit="10" points="752.5,159.3 784.5,159.3 752.5,223.3 "/>
<polygon fill="none" stroke="#00FF00" stroke-miterlimit="10" points="656.5,175.3 616.5,223.3 656.5,223.3 "/>
<polygon fill="none" stroke="#00FF00" stroke-miterlimit="10" points="768.5,191.3 768.5,311.3 752.5,311.3 752.5,223.3 "/>
<rect x="616.5" y="287.3" fill="none" stroke="#00FF00" stroke-miterlimit="10" width="104" height="16"/>
<rect x="632.5" y="303.3" fill="none" stroke="#00FF00" stroke-miterlimit="10" width="88" height="32"/>
<polygon fill="none" stroke="#00FF00" stroke-miterlimit="10" points="944.5,279.3 880.5,279.3 944.5,215.3 "/>
<polygon fill="none" stroke="#00FF00" stroke-miterlimit="10" points="904.5,255.3 816.5,255.3 816.5,215.3 944.5,215.3 "/>
<polygon fill="none" stroke="#00FF00" stroke-miterlimit="10" points="880.5,279.3 816.5,279.3 816.5,255.3 904.5,255.3 "/>
<polygon fill="none" stroke="#00FF00" stroke-miterlimit="10" points="880.5,343.3 880.5,279.3 848.5,279.3 848.5,407.3 
	880.5,407.3 "/>
<polygon fill="none" stroke="#00FF00" stroke-miterlimit="10" points="848.5,311.3 816.5,279.3 848.5,279.3 "/>
<polygon fill="none" stroke="#00FF00" stroke-miterlimit="10" points="848.5,311.3 816.5,343.3 816.5,279.3 "/>
<polygon fill="none" stroke="#00FF00" stroke-miterlimit="10" points="848.5,311.3 848.5,407.3 816.5,407.3 816.5,343.3 "/>
<rect x="800.5" y="191.3" fill="none" stroke="#00FF00" stroke-miterlimit="10" width="16" height="184"/>
<rect x="784.5" y="175.3" fill="none" stroke="#00FF00" stroke-miterlimit="10" width="16" height="184"/>
<polygon fill="none" stroke="#00FF00" stroke-miterlimit="10" points="784.5,343.3 752.5,343.3 784.5,279.3 "/>
<polygon fill="none" stroke="#00FF00" stroke-miterlimit="10" points="880.5,327.3 920.5,279.3 880.5,279.3 "/>
<polygon fill="none" stroke="#00FF00" stroke-miterlimit="10" points="768.5,311.3 768.5,191.3 784.5,191.3 784.5,279.3 "/>
<rect x="816.5" y="199.3" fill="none" stroke="#00FF00" stroke-miterlimit="10" width="104" height="16"/>
<rect x="816.5" y="167.3" fill="none" stroke="#00FF00" stroke-miterlimit="10" width="88" height="32"/>
<polygon fill="none" stroke="#00FF00" stroke-miterlimit="10" points="592.5,223.3 528.5,287.3 592.5,287.3 "/>
<circle fill="none" stroke="#00FF00" stroke-miterlimit="10" cx="579" cy="156" r="37.5"/>
<circle fill="none" stroke="#00FF00" stroke-miterlimit="10" cx="728.5" cy="393.7" r="37.5"/>
<circle fill="none" stroke="#00FF00" stroke-miterlimit="10" cx="832.5" cy="105.8" r="37.5"/>
</svg>
