<?xml version="1.0" encoding="utf-8"?>
<!-- Generator: Adobe Illustrator 17.1.0, SVG Export Plug-In . SVG Version: 6.00 Build 0)  -->
<!DOCTYPE svg PUBLIC "-//W3C//DTD SVG 1.1//EN" "http://www.w3.org/Graphics/SVG/1.1/DTD/svg11.dtd">
<svg version="1.1" id="Layer_1" xmlns="http://www.w3.org/2000/svg" xmlns:xlink="http://www.w3.org/1999/xlink" x="0px" y="0px"
	 viewBox="0 0 1000 1000" enable-background="new 0 0 1000 1000" xml:space="preserve">
<rect x="432.3" y="359.1" fill="#FFFFFF" stroke="#16B34C" stroke-miterlimit="10" width="7.5" height="134.5"/>
<rect x="724.5" y="408.4" fill="#FFFFFF" stroke="#16B34C" stroke-miterlimit="10" width="12" height="108.5"/>
<rect x="700.5" y="438.5" fill="#FFFFFF" stroke="#16B34C" stroke-miterlimit="10" width="12" height="78.4"/>
<rect x="417.4" y="359.1" fill="#FFFFFF" stroke="#16B34C" stroke-miterlimit="10" width="7.5" height="164.3"/>
<polygon fill="#FFFFFF" stroke="#16B34C" stroke-miterlimit="10" points="694.4,516.9 694.4,444.6 700.5,450.5 700.5,516.9 "/>
<polygon fill="#FFFFFF" stroke="#16B34C" stroke-miterlimit="10" points="694.4,444.6 694.4,396.4 700.5,402.3 700.5,450.5 "/>
<polygon fill="#FFFFFF" stroke="#16B34C" stroke-miterlimit="10" points="700.5,438.5 700.5,408.4 712.5,420.4 712.5,438.5 "/>
<rect x="712.5" y="444.6" fill="#FFFFFF" stroke="#16B34C" stroke-miterlimit="10" width="6.1" height="72.3"/>
<rect x="718.6" y="420.6" fill="#FFFFFF" stroke="#16B34C" stroke-miterlimit="10" width="6.1" height="96.3"/>
<polygon fill="#FFFFFF" stroke="#16B34C" stroke-miterlimit="10" points="357.6,441.3 357.6,471.2 409.9,418.9 409.9,403.9 
	365.1,448.8 365.1,433.8 "/>
<polygon fill="#FFFFFF" stroke="#16B34C" stroke-miterlimit="10" points="409.9,381.5 409.9,448.8 387.5,471.2 387.5,486.1 
	417.4,456.2 417.4,381.5 "/>
<polygon fill="#FFFFFF" stroke="#16B34C" stroke-miterlimit="10" points="402.4,426.3 402.4,448.8 365.1,486.1 365.1,493.6 
	409.9,448.8 409.9,418.9 "/>
<polygon fill="#FFFFFF" stroke="#16B34C" stroke-miterlimit="10" points="402.4,426.3 402.4,441.3 350.1,493.6 350.1,478.6 "/>
<polygon fill="#FFFFFF" stroke="#16B34C" stroke-miterlimit="10" points="357.6,486.1 365.1,478.6 365.1,545.9 357.6,545.9 "/>
<polygon fill="#FFFFFF" stroke="#16B34C" stroke-miterlimit="10" points="372.6,486.1 372.6,560.8 365.1,560.8 365.1,493.6 "/>
<polygon fill="#FFFFFF" stroke="#16B34C" stroke-miterlimit="10" points="387.5,471.2 372.6,486.1 372.6,560.8 387.5,560.8 "/>
<polygon fill="#FFFFFF" stroke="#16B34C" stroke-miterlimit="10" points="387.5,486.1 387.5,516 417.4,486.1 417.4,456.2 "/>
<polygon fill="#FFFFFF" stroke="#16B34C" stroke-miterlimit="10" points="387.5,516 387.5,538.4 417.4,508.5 417.4,486.1 "/>
<polygon fill="#FFFFFF" stroke="#16B34C" stroke-miterlimit="10" points="395,530.9 395,583.2 387.5,583.2 387.5,538.4 "/>
<polygon fill="#FFFFFF" stroke="#16B34C" stroke-miterlimit="10" points="417.4,508.5 417.4,553.3 395,575.8 395,530.9 "/>
<rect x="424.9" y="359.1" fill="#FFFFFF" stroke="#16B34C" stroke-miterlimit="10" width="7.5" height="164.3"/>
<polygon fill="#FFFFFF" stroke="#16B34C" stroke-miterlimit="10" points="736.5,426.5 754.6,444.6 754.6,522.8 736.5,522.8 "/>
<rect x="754.6" y="420.4" fill="#FFFFFF" stroke="#16B34C" stroke-miterlimit="10" width="6.1" height="102.4"/>
<polygon fill="#FFFFFF" stroke="#16B34C" stroke-miterlimit="10" points="760.7,462.6 766.7,468.6 766.6,534.8 760.7,534.8 "/>
<polygon fill="#FFFFFF" stroke="#16B34C" stroke-miterlimit="10" points="766.7,456.6 772.7,462.6 772.7,534.8 766.6,534.8 "/>
<rect x="772.7" y="468.6" fill="#FFFFFF" stroke="#16B34C" stroke-miterlimit="10" width="54.2" height="66.2"/>
<polygon fill="#FFFFFF" stroke="#16B34C" stroke-miterlimit="10" points="826.9,474.6 838.9,486.8 838.9,546.9 826.9,559.1 "/>
<polygon fill="#FFFFFF" stroke="#16B34C" stroke-miterlimit="10" points="387.5,605.6 342.7,605.6 335.2,598.2 417.4,598.2 
	417.4,605.6 "/>
<polygon fill="#FFFFFF" stroke="#16B34C" stroke-miterlimit="10" points="417.4,300.1 417.4,315 432.3,300.1 "/>
<polygon fill="#FFFFFF" stroke="#16B34C" stroke-miterlimit="10" points="417.4,300.1 417.4,240.3 432.3,225.4 432.3,300.1 "/>
<polygon fill="#FFFFFF" stroke="#16B34C" stroke-miterlimit="10" points="432.3,300.1 439.8,300.1 439.8,217.9 432.3,225.4 "/>
<polygon fill="#FFFFFF" stroke="#16B34C" stroke-miterlimit="10" points="402.4,329.9 439.8,329.9 469.7,300.1 432.3,300.1 "/>
<rect x="439.8" y="247.8" fill="#FFFFFF" stroke="#16B34C" stroke-miterlimit="10" width="29.9" height="52.3"/>
<rect x="462.2" y="247.8" fill="#FFFFFF" stroke="#16B34C" stroke-miterlimit="10" width="7.5" height="52.3"/>
<rect x="439.8" y="232.8" fill="#FFFFFF" stroke="#16B34C" stroke-miterlimit="10" width="22.4" height="14.9"/>
<polygon fill="#FFFFFF" stroke="#16B34C" stroke-miterlimit="10" points="462.2,232.8 462.2,210.4 469.7,217.9 469.7,247.8 
	462.2,247.8 "/>
<polygon fill="#FFFFFF" stroke="#16B34C" stroke-miterlimit="10" points="462.2,210.4 462.2,195.5 439.8,217.9 439.8,232.8 
	462.2,232.8 "/>
<polygon fill="#FFFFFF" stroke="#16B34C" stroke-miterlimit="10" points="417.4,210.4 447.3,180.5 447.3,210.4 417.4,240.3 "/>
<polygon fill="#FFFFFF" stroke="#16B34C" stroke-miterlimit="10" points="447.3,180.5 447.3,150.6 454.7,158.1 454.7,202.9 
	447.3,210.4 "/>
<polygon fill="#FFFFFF" stroke="#16B34C" stroke-miterlimit="10" points="582.6,300.1 582.6,315 567.7,300.1 "/>
<polygon fill="#FFFFFF" stroke="#16B34C" stroke-miterlimit="10" points="582.6,300.1 582.6,240.3 567.7,225.4 567.7,300.1 "/>
<polygon fill="#FFFFFF" stroke="#16B34C" stroke-miterlimit="10" points="567.7,300.1 560.2,300.1 560.2,217.9 567.7,225.4 "/>
<polygon fill="#FFFFFF" stroke="#16B34C" stroke-miterlimit="10" points="597.6,329.9 560.2,329.9 530.3,300.1 567.7,300.1 "/>
<rect x="530.3" y="247.8" fill="#FFFFFF" stroke="#16B34C" stroke-miterlimit="10" width="29.9" height="52.3"/>
<rect x="530.3" y="247.8" fill="#FFFFFF" stroke="#16B34C" stroke-miterlimit="10" width="7.5" height="52.3"/>
<rect x="537.8" y="232.8" fill="#FFFFFF" stroke="#16B34C" stroke-miterlimit="10" width="22.4" height="14.9"/>
<polygon fill="#FFFFFF" stroke="#16B34C" stroke-miterlimit="10" points="537.8,232.8 537.8,210.4 530.3,217.9 530.3,247.8 
	537.8,247.8 "/>
<polygon fill="#FFFFFF" stroke="#16B34C" stroke-miterlimit="10" points="537.8,210.4 537.8,195.5 560.2,217.9 560.2,232.8 
	537.8,232.8 "/>
<polygon fill="#FFFFFF" stroke="#16B34C" stroke-miterlimit="10" points="582.6,210.4 552.7,180.5 552.7,210.4 582.6,240.3 "/>
<polygon fill="#FFFFFF" stroke="#16B34C" stroke-miterlimit="10" points="552.7,180.5 552.7,150.6 545.3,158.1 545.3,202.9 
	552.7,210.4 "/>
<polygon fill="#FFFFFF" stroke="#16B34C" stroke-miterlimit="10" points="582.6,666.2 582.6,651.3 567.7,666.2 "/>
<polygon fill="#FFFFFF" stroke="#16B34C" stroke-miterlimit="10" points="582.6,666.2 582.6,726 567.7,740.9 567.7,666.2 "/>
<polygon fill="#FFFFFF" stroke="#16B34C" stroke-miterlimit="10" points="567.7,666.2 560.2,666.2 560.2,748.4 567.7,740.9 "/>
<polygon fill="#FFFFFF" stroke="#16B34C" stroke-miterlimit="10" points="597.6,636.4 560.2,636.4 530.3,666.2 567.7,666.2 "/>
<rect x="530.3" y="666.2" fill="#FFFFFF" stroke="#16B34C" stroke-miterlimit="10" width="29.9" height="52.3"/>
<rect x="530.3" y="666.2" fill="#FFFFFF" stroke="#16B34C" stroke-miterlimit="10" width="7.5" height="52.3"/>
<rect x="537.8" y="718.5" fill="#FFFFFF" stroke="#16B34C" stroke-miterlimit="10" width="22.4" height="14.9"/>
<polygon fill="#FFFFFF" stroke="#16B34C" stroke-miterlimit="10" points="537.8,733.5 537.8,755.9 530.3,748.4 530.3,718.5 
	537.8,718.5 "/>
<polygon fill="#FFFFFF" stroke="#16B34C" stroke-miterlimit="10" points="537.8,755.9 537.8,770.8 560.2,748.4 560.2,733.5 
	537.8,733.5 "/>
<polygon fill="#FFFFFF" stroke="#16B34C" stroke-miterlimit="10" points="582.6,755.9 552.7,785.8 552.7,755.9 582.6,726 "/>
<polygon fill="#FFFFFF" stroke="#16B34C" stroke-miterlimit="10" points="552.7,785.8 552.7,815.7 545.3,808.2 545.3,763.4 
	552.7,755.9 "/>
<polygon fill="#FFFFFF" stroke="#16B34C" stroke-miterlimit="10" points="417.4,666.2 417.4,651.3 432.3,666.2 "/>
<polygon fill="#FFFFFF" stroke="#16B34C" stroke-miterlimit="10" points="417.4,666.2 417.4,726 432.3,740.9 432.3,666.2 "/>
<polygon fill="#FFFFFF" stroke="#16B34C" stroke-miterlimit="10" points="432.3,666.2 439.8,666.2 439.8,748.4 432.3,740.9 "/>
<polygon fill="#FFFFFF" stroke="#16B34C" stroke-miterlimit="10" points="402.4,636.4 439.8,636.4 469.7,666.2 432.3,666.2 "/>
<rect x="439.8" y="666.2" fill="#FFFFFF" stroke="#16B34C" stroke-miterlimit="10" width="29.9" height="52.3"/>
<rect x="462.2" y="666.2" fill="#FFFFFF" stroke="#16B34C" stroke-miterlimit="10" width="7.5" height="52.3"/>
<rect x="439.8" y="718.5" fill="#FFFFFF" stroke="#16B34C" stroke-miterlimit="10" width="22.4" height="14.9"/>
<polygon fill="#FFFFFF" stroke="#16B34C" stroke-miterlimit="10" points="462.2,733.5 462.2,755.9 469.7,748.4 469.7,718.5 
	462.2,718.5 "/>
<polygon fill="#FFFFFF" stroke="#16B34C" stroke-miterlimit="10" points="462.2,755.9 462.2,770.8 439.8,748.4 439.8,733.5 
	462.2,733.5 "/>
<polygon fill="#FFFFFF" stroke="#16B34C" stroke-miterlimit="10" points="417.4,755.9 447.3,785.8 447.3,755.9 417.4,726 "/>
<polygon fill="#FFFFFF" stroke="#16B34C" stroke-miterlimit="10" points="447.3,785.8 447.3,815.7 454.7,808.2 454.7,763.4 
	447.3,755.9 "/>
<rect x="350.1" y="560.8" fill="#FFFFFF" stroke="#16B34C" stroke-miterlimit="10" width="37.4" height="7.5"/>
<rect x="357.6" y="545.9" fill="#FFFFFF" stroke="#16B34C" stroke-miterlimit="10" width="7.5" height="14.9"/>
<rect x="312.8" y="590.7" fill="#FFFFFF" stroke="#16B34C" stroke-miterlimit="10" width="104.6" height="7.5"/>
<rect x="320.3" y="575.8" fill="#FFFFFF" stroke="#16B34C" stroke-miterlimit="10" width="67.2" height="7.5"/>
<rect x="350.1" y="568.3" fill="#FFFFFF" stroke="#16B34C" stroke-miterlimit="10" width="37.4" height="7.5"/>
<polygon fill="#FFFFFF" stroke="#16B34C" stroke-miterlimit="10" points="395,575.8 395,590.7 417.4,590.7 417.4,553.3 "/>
<polygon fill="#FFFFFF" stroke="#16B34C" stroke-miterlimit="10" points="335.2,583.2 342.7,590.7 395,590.7 395,583.2 "/>
<rect x="417.4" y="538.4" fill="#FFFFFF" stroke="#16B34C" stroke-miterlimit="10" width="7.5" height="67.2"/>
<rect x="560.2" y="359.1" fill="#FFFFFF" stroke="#16B34C" stroke-miterlimit="10" width="7.5" height="134.5"/>
<rect x="575.1" y="359.1" fill="#FFFFFF" stroke="#16B34C" stroke-miterlimit="10" width="7.5" height="164.3"/>
<polygon fill="#FFFFFF" stroke="#16B34C" stroke-miterlimit="10" points="642.4,441.3 642.4,471.2 590.1,418.9 590.1,403.9 
	634.9,448.8 634.9,433.8 "/>
<polygon fill="#FFFFFF" stroke="#16B34C" stroke-miterlimit="10" points="590.1,381.5 590.1,448.8 612.5,471.2 612.5,486.1 
	582.6,456.2 582.6,381.5 "/>
<polygon fill="#FFFFFF" stroke="#16B34C" stroke-miterlimit="10" points="597.6,426.3 597.6,448.8 634.9,486.1 634.9,493.6 
	590.1,448.8 590.1,418.9 "/>
<polygon fill="#FFFFFF" stroke="#16B34C" stroke-miterlimit="10" points="597.6,426.3 597.6,441.3 649.9,493.6 649.9,478.6 "/>
<polygon fill="#FFFFFF" stroke="#16B34C" stroke-miterlimit="10" points="642.4,486.1 634.9,478.6 634.9,545.9 642.4,545.9 "/>
<polygon fill="#FFFFFF" stroke="#16B34C" stroke-miterlimit="10" points="627.4,486.1 627.4,560.8 634.9,560.8 634.9,493.6 "/>
<polygon fill="#FFFFFF" stroke="#16B34C" stroke-miterlimit="10" points="612.5,471.2 627.4,486.1 627.4,560.8 612.5,560.8 "/>
<polygon fill="#FFFFFF" stroke="#16B34C" stroke-miterlimit="10" points="612.5,486.1 612.5,516 582.6,486.1 582.6,456.2 "/>
<polygon fill="#FFFFFF" stroke="#16B34C" stroke-miterlimit="10" points="612.5,516 612.5,538.4 582.6,508.5 582.6,486.1 "/>
<polygon fill="#FFFFFF" stroke="#16B34C" stroke-miterlimit="10" points="605,530.9 605,583.2 612.5,583.2 612.5,538.4 "/>
<polygon fill="#FFFFFF" stroke="#16B34C" stroke-miterlimit="10" points="582.6,508.5 582.6,553.3 605,575.8 605,530.9 "/>
<rect x="567.7" y="359.1" fill="#FFFFFF" stroke="#16B34C" stroke-miterlimit="10" width="7.5" height="164.3"/>
<polygon fill="#FFFFFF" stroke="#16B34C" stroke-miterlimit="10" points="612.5,605.6 657.3,605.6 664.8,598.2 582.6,598.2 
	582.6,605.6 "/>
<rect x="612.5" y="560.8" fill="#FFFFFF" stroke="#16B34C" stroke-miterlimit="10" width="37.4" height="7.5"/>
<rect x="634.9" y="545.9" fill="#FFFFFF" stroke="#16B34C" stroke-miterlimit="10" width="7.5" height="14.9"/>
<rect x="582.6" y="590.7" fill="#FFFFFF" stroke="#16B34C" stroke-miterlimit="10" width="104.6" height="7.5"/>
<rect x="612.5" y="575.8" fill="#FFFFFF" stroke="#16B34C" stroke-miterlimit="10" width="67.2" height="7.5"/>
<rect x="612.5" y="568.3" fill="#FFFFFF" stroke="#16B34C" stroke-miterlimit="10" width="37.4" height="7.5"/>
<polygon fill="#FFFFFF" stroke="#16B34C" stroke-miterlimit="10" points="605,575.8 605,590.7 582.6,590.7 582.6,553.3 "/>
<polygon fill="#FFFFFF" stroke="#16B34C" stroke-miterlimit="10" points="664.8,583.2 657.3,590.7 605,590.7 605,583.2 "/>
<polygon fill="#FFFFFF" stroke="#16B34C" stroke-miterlimit="10" points="493.8,493.6 493.8,448.8 486.5,441.3 486.5,523.5 
	493.8,523.5 "/>
<rect x="449" y="456.2" fill="#FFFFFF" stroke="#16B34C" stroke-miterlimit="10" width="7.5" height="37.4"/>
<rect x="479" y="418.9" fill="#FFFFFF" stroke="#16B34C" stroke-miterlimit="10" width="7.5" height="104.6"/>
<rect x="464" y="426.4" fill="#FFFFFF" stroke="#16B34C" stroke-miterlimit="10" width="7.5" height="67.2"/>
<rect x="456.5" y="456.2" fill="#FFFFFF" stroke="#16B34C" stroke-miterlimit="10" width="7.5" height="37.4"/>
<polygon fill="#FFFFFF" stroke="#16B34C" stroke-miterlimit="10" points="471.5,441.3 479,448.8 479,501.1 471.5,501.1 "/>
<polygon fill="#FFFFFF" stroke="#16B34C" stroke-miterlimit="10" points="507.9,523.5 515.3,523.5 515.3,441.3 507.9,448.8 
	507.9,493.6 "/>
<rect x="545.2" y="456.2" fill="#FFFFFF" stroke="#16B34C" stroke-miterlimit="10" width="7.5" height="37.4"/>
<rect x="515.3" y="418.9" fill="#FFFFFF" stroke="#16B34C" stroke-miterlimit="10" width="7.5" height="104.6"/>
<rect x="530.2" y="426.4" fill="#FFFFFF" stroke="#16B34C" stroke-miterlimit="10" width="7.5" height="67.2"/>
<rect x="537.7" y="456.2" fill="#FFFFFF" stroke="#16B34C" stroke-miterlimit="10" width="7.5" height="37.4"/>
<polygon fill="#FFFFFF" stroke="#16B34C" stroke-miterlimit="10" points="530.3,501.1 522.8,501.1 522.8,448.8 530.3,441.3 "/>
<rect x="575.1" y="538.4" fill="#FFFFFF" stroke="#16B34C" stroke-miterlimit="10" width="7.5" height="67.2"/>
<rect x="772.7" y="474.7" fill="#FFFFFF" stroke="#16B34C" stroke-miterlimit="10" width="12" height="54.2"/>
<rect x="772.7" y="468.5" fill="#FFFFFF" stroke="#16B34C" stroke-miterlimit="10" width="54.2" height="6.1"/>
<polygon fill="#FFFFFF" stroke="#16B34C" stroke-miterlimit="10" points="784.8,510.8 790.9,504.7 790.9,474.6 784.8,474.6 "/>
<polygon fill="#FFFFFF" stroke="#16B34C" stroke-miterlimit="10" points="784.8,528.9 784.8,510.8 802.9,492.7 802.9,528.9 "/>
<polygon fill="#FFFFFF" stroke="#16B34C" stroke-miterlimit="10" points="790.9,504.7 802.9,492.7 802.9,474.6 790.9,474.6 "/>
<polygon fill="#FFFFFF" stroke="#16B34C" stroke-miterlimit="10" points="802.9,504.7 814.9,516.9 814.9,528.9 802.9,528.9 "/>
<polygon fill="#FFFFFF" stroke="#16B34C" stroke-miterlimit="10" points="814.9,516.9 826.9,528.9 826.9,510.8 802.9,486.8 
	802.9,504.7 "/>
<rect x="802.9" y="480.7" fill="#FFFFFF" stroke="#16B34C" stroke-miterlimit="10" width="24" height="6.1"/>
<rect x="258.7" y="408.4" fill="#FFFFFF" stroke="#16B34C" stroke-miterlimit="10" width="12" height="108.5"/>
<rect x="282.7" y="438.5" fill="#FFFFFF" stroke="#16B34C" stroke-miterlimit="10" width="12" height="78.4"/>
<polygon fill="#FFFFFF" stroke="#16B34C" stroke-miterlimit="10" points="294.8,516.9 294.8,450.5 300.9,444.6 300.9,516.9 "/>
<polygon fill="#FFFFFF" stroke="#16B34C" stroke-miterlimit="10" points="294.8,450.5 294.8,402.3 300.9,396.4 300.9,444.6 "/>
<polygon fill="#FFFFFF" stroke="#16B34C" stroke-miterlimit="10" points="282.7,438.5 282.7,420.4 294.8,408.4 294.8,438.5 "/>
<rect x="276.6" y="444.6" fill="#FFFFFF" stroke="#16B34C" stroke-miterlimit="10" width="6.1" height="72.3"/>
<rect x="270.6" y="420.6" fill="#FFFFFF" stroke="#16B34C" stroke-miterlimit="10" width="6.1" height="96.3"/>
<polygon fill="#FFFFFF" stroke="#16B34C" stroke-miterlimit="10" points="258.7,522.8 240.6,522.8 240.6,444.6 258.7,426.5 "/>
<rect x="234.5" y="420.4" fill="#FFFFFF" stroke="#16B34C" stroke-miterlimit="10" width="6.1" height="102.4"/>
<polygon fill="#FFFFFF" stroke="#16B34C" stroke-miterlimit="10" points="234.5,534.8 228.6,534.8 228.6,468.6 234.5,462.6 "/>
<polygon fill="#FFFFFF" stroke="#16B34C" stroke-miterlimit="10" points="228.6,534.8 222.5,534.8 222.5,462.6 228.6,456.6 "/>
<rect x="168.3" y="468.6" fill="#FFFFFF" stroke="#16B34C" stroke-miterlimit="10" width="54.2" height="66.2"/>
<polygon fill="#FFFFFF" stroke="#16B34C" stroke-miterlimit="10" points="168.3,559.1 156.3,546.9 156.3,486.8 168.3,474.6 "/>
<rect x="210.5" y="474.7" fill="#FFFFFF" stroke="#16B34C" stroke-miterlimit="10" width="12" height="54.2"/>
<rect x="168.3" y="468.5" fill="#FFFFFF" stroke="#16B34C" stroke-miterlimit="10" width="54.2" height="6.1"/>
<polygon fill="#FFFFFF" stroke="#16B34C" stroke-miterlimit="10" points="210.5,474.6 204.4,474.6 204.4,504.7 210.5,510.8 "/>
<polygon fill="#FFFFFF" stroke="#16B34C" stroke-miterlimit="10" points="192.3,528.9 192.3,492.7 210.5,510.8 210.5,528.9 "/>
<polygon fill="#FFFFFF" stroke="#16B34C" stroke-miterlimit="10" points="204.4,474.6 192.3,474.6 192.3,492.7 204.4,504.7 "/>
<polygon fill="#FFFFFF" stroke="#16B34C" stroke-miterlimit="10" points="192.3,528.9 180.3,528.9 180.3,516.9 192.3,504.7 "/>
<polygon fill="#FFFFFF" stroke="#16B34C" stroke-miterlimit="10" points="192.3,504.7 192.3,486.8 168.3,510.8 168.3,528.9 
	180.3,516.9 "/>
<rect x="168.3" y="480.7" fill="#FFFFFF" stroke="#16B34C" stroke-miterlimit="10" width="24" height="6.1"/>
<polygon fill="#FFFFFF" stroke="#16B34C" stroke-miterlimit="10" points="276.8,615 276.8,177.2 282.9,171.3 282.9,609.1 "/>
<polygon fill="#FFFFFF" stroke="#16B34C" stroke-miterlimit="10" points="264.8,603 264.8,195.3 276.8,183.3 276.8,603 "/>
<rect x="252.6" y="195.5" fill="#FFFFFF" stroke="#16B34C" stroke-miterlimit="10" width="6.1" height="590.3"/>
<polygon fill="#FFFFFF" stroke="#16B34C" stroke-miterlimit="10" points="712.4,609.1 712.4,171.3 718.5,177.2 718.5,615 "/>
<polygon fill="#FFFFFF" stroke="#16B34C" stroke-miterlimit="10" points="718.5,603 718.5,183.3 730.5,195.3 730.5,603 "/>
<rect x="736.6" y="195.5" fill="#FFFFFF" stroke="#16B34C" stroke-miterlimit="10" width="6.1" height="590.3"/>
</svg>
