<?xml version="1.0" encoding="utf-8"?>
<!-- Generator: Adobe Illustrator 17.1.0, SVG Export Plug-In . SVG Version: 6.00 Build 0)  -->
<!DOCTYPE svg PUBLIC "-//W3C//DTD SVG 1.1//EN" "http://www.w3.org/Graphics/SVG/1.1/DTD/svg11.dtd">
<svg version="1.1" id="Layer_1" xmlns="http://www.w3.org/2000/svg" xmlns:xlink="http://www.w3.org/1999/xlink" x="0px" y="0px"
	 viewBox="142 225.8 500 500" enable-background="new 142 225.8 500 500" xml:space="preserve">
<rect x="270.2" y="483.4" fill="#FFFFFF" stroke="#16B34C" stroke-miterlimit="10" width="7.5" height="134.5"/>
<rect x="330.1" y="360.2" fill="#FFFFFF" stroke="#16B34C" stroke-miterlimit="10" width="7.5" height="164.3"/>
<polygon fill="#FFFFFF" stroke="#16B34C" stroke-miterlimit="10" points="270.3,330.3 270.3,300.4 322.6,352.7 322.6,367.7 
	277.8,322.8 277.8,337.8 "/>
<polygon fill="#FFFFFF" stroke="#16B34C" stroke-miterlimit="10" points="322.6,390.1 322.6,322.8 300.2,300.4 300.2,285.5 
	330.1,315.4 330.1,390.1 "/>
<polygon fill="#FFFFFF" stroke="#16B34C" stroke-miterlimit="10" points="315.1,345.3 315.1,322.8 277.8,285.5 277.8,278 
	322.6,322.8 322.6,352.7 "/>
<polygon fill="#FFFFFF" stroke="#16B34C" stroke-miterlimit="10" points="315.1,345.3 315.1,330.3 262.8,278 262.8,293 "/>
<polygon fill="#FFFFFF" stroke="#16B34C" stroke-miterlimit="10" points="330.1,474.9 322.6,467.4 322.6,673.7 330.1,673.7 "/>
<polygon fill="#FFFFFF" stroke="#16B34C" stroke-miterlimit="10" points="233,588 233,513.3 225.5,513.3 225.5,580.5 "/>
<polygon fill="#FFFFFF" stroke="#16B34C" stroke-miterlimit="10" points="247.9,602.9 233,588 233,513.3 247.9,513.3 "/>
<polygon fill="#FFFFFF" stroke="#16B34C" stroke-miterlimit="10" points="367.5,487.2 367.5,517.1 337.6,487.2 337.6,457.3 "/>
<polygon fill="#FFFFFF" stroke="#16B34C" stroke-miterlimit="10" points="367.5,517.1 367.5,539.5 337.6,509.6 337.6,487.2 "/>
<polygon fill="#FFFFFF" stroke="#16B34C" stroke-miterlimit="10" points="360,532 360,584.3 367.5,584.3 367.5,539.5 "/>
<polygon fill="#FFFFFF" stroke="#16B34C" stroke-miterlimit="10" points="337.6,509.6 337.6,554.4 360,576.9 360,532 "/>
<rect x="277.7" y="528.2" fill="#FFFFFF" stroke="#16B34C" stroke-miterlimit="10" width="7.5" height="119.5"/>
<polygon fill="#FFFFFF" stroke="#16B34C" stroke-miterlimit="10" points="247.9,468.5 203.1,468.5 195.6,475.9 277.8,475.9 
	277.8,468.5 "/>
<rect x="210.5" y="505.8" fill="#FFFFFF" stroke="#16B34C" stroke-miterlimit="10" width="37.4" height="7.5"/>
<rect x="218" y="513.3" fill="#FFFFFF" stroke="#16B34C" stroke-miterlimit="10" width="7.5" height="14.9"/>
<rect x="173.2" y="475.9" fill="#FFFFFF" stroke="#16B34C" stroke-miterlimit="10" width="104.6" height="7.5"/>
<rect x="180.7" y="490.8" fill="#FFFFFF" stroke="#16B34C" stroke-miterlimit="10" width="67.2" height="7.5"/>
<rect x="210.5" y="498.3" fill="#FFFFFF" stroke="#16B34C" stroke-miterlimit="10" width="37.4" height="7.5"/>
<polygon fill="#FFFFFF" stroke="#16B34C" stroke-miterlimit="10" points="360,576.9 360,591.8 337.6,591.8 337.6,554.4 "/>
<polygon fill="#FFFFFF" stroke="#16B34C" stroke-miterlimit="10" points="195.6,490.9 203.1,483.4 255.4,483.4 255.4,490.9 "/>
<rect x="330.1" y="539.5" fill="#FFFFFF" stroke="#16B34C" stroke-miterlimit="10" width="7.5" height="67.2"/>
<rect x="285.2" y="430.4" fill="#FFFFFF" stroke="#16B34C" stroke-miterlimit="10" width="7.8" height="243.3"/>
<polygon fill="#FFFFFF" stroke="#16B34C" stroke-miterlimit="10" points="293,498.3 322.9,528.2 322.9,632.9 293,603 "/>
<rect x="506.3" y="483.4" fill="#FFFFFF" stroke="#16B34C" stroke-miterlimit="10" width="7.5" height="134.5"/>
<rect x="446.5" y="360.2" fill="#FFFFFF" stroke="#16B34C" stroke-miterlimit="10" width="7.5" height="164.3"/>
<polygon fill="#FFFFFF" stroke="#16B34C" stroke-miterlimit="10" points="506.3,337.8 506.3,322.8 461.5,367.7 461.5,352.7 
	513.8,300.4 513.8,330.3 "/>
<polygon fill="#FFFFFF" stroke="#16B34C" stroke-miterlimit="10" points="454,390.1 454,315.4 483.9,285.5 483.9,300.4 461.5,322.8 
	461.5,390.1 "/>
<polygon fill="#FFFFFF" stroke="#16B34C" stroke-miterlimit="10" points="461.5,352.7 461.5,322.8 506.3,278 506.3,285.5 469,322.8 
	469,345.3 "/>
<polygon fill="#FFFFFF" stroke="#16B34C" stroke-miterlimit="10" points="521.3,293 521.3,278 469,330.3 469,345.3 "/>
<polygon fill="#FFFFFF" stroke="#16B34C" stroke-miterlimit="10" points="454,673.7 461.5,673.7 461.5,467.4 454,474.9 "/>
<polygon fill="#FFFFFF" stroke="#16B34C" stroke-miterlimit="10" points="558.6,580.5 558.6,513.3 551.1,513.3 551.1,588 "/>
<polygon fill="#FFFFFF" stroke="#16B34C" stroke-miterlimit="10" points="536.2,513.3 551.1,513.3 551.1,588 536.2,602.9 "/>
<polygon fill="#FFFFFF" stroke="#16B34C" stroke-miterlimit="10" points="446.5,457.3 446.5,487.2 416.6,517.1 416.6,487.2 "/>
<polygon fill="#FFFFFF" stroke="#16B34C" stroke-miterlimit="10" points="446.5,487.2 446.5,509.6 416.6,539.5 416.6,517.1 "/>
<polygon fill="#FFFFFF" stroke="#16B34C" stroke-miterlimit="10" points="416.6,539.5 416.6,584.3 424.1,584.3 424.1,532 "/>
<polygon fill="#FFFFFF" stroke="#16B34C" stroke-miterlimit="10" points="424.1,532 424.1,576.9 446.5,554.4 446.5,509.6 "/>
<rect x="498.8" y="528.2" fill="#FFFFFF" stroke="#16B34C" stroke-miterlimit="10" width="7.5" height="119.5"/>
<polygon fill="#FFFFFF" stroke="#16B34C" stroke-miterlimit="10" points="506.3,468.5 506.3,475.9 588.5,475.9 581,468.5 
	536.2,468.5 "/>
<rect x="536.2" y="505.8" fill="#FFFFFF" stroke="#16B34C" stroke-miterlimit="10" width="37.4" height="7.5"/>
<rect x="558.6" y="513.3" fill="#FFFFFF" stroke="#16B34C" stroke-miterlimit="10" width="7.5" height="14.9"/>
<rect x="506.3" y="475.9" fill="#FFFFFF" stroke="#16B34C" stroke-miterlimit="10" width="104.6" height="7.5"/>
<rect x="536.2" y="490.8" fill="#FFFFFF" stroke="#16B34C" stroke-miterlimit="10" width="67.2" height="7.5"/>
<rect x="536.2" y="498.3" fill="#FFFFFF" stroke="#16B34C" stroke-miterlimit="10" width="37.4" height="7.5"/>
<polygon fill="#FFFFFF" stroke="#16B34C" stroke-miterlimit="10" points="446.5,554.4 446.5,591.8 424.1,591.8 424.1,576.9 "/>
<polygon fill="#FFFFFF" stroke="#16B34C" stroke-miterlimit="10" points="528.7,490.9 528.7,483.4 581,483.4 588.5,490.9 "/>
<rect x="446.5" y="539.5" fill="#FFFFFF" stroke="#16B34C" stroke-miterlimit="10" width="7.5" height="67.2"/>
<rect x="491.1" y="430.4" fill="#FFFFFF" stroke="#16B34C" stroke-miterlimit="10" width="7.8" height="243.3"/>
<polygon fill="#FFFFFF" stroke="#16B34C" stroke-miterlimit="10" points="491.1,498.3 461.2,528.2 461.2,632.9 491.1,603 "/>
</svg>
