<?xml version="1.0" encoding="utf-8"?>
<!-- Generator: Adobe Illustrator 17.1.0, SVG Export Plug-In . SVG Version: 6.00 Build 0)  -->
<!DOCTYPE svg PUBLIC "-//W3C//DTD SVG 1.1//EN" "http://www.w3.org/Graphics/SVG/1.1/DTD/svg11.dtd">
<svg version="1.1" id="Layer_1" xmlns="http://www.w3.org/2000/svg" xmlns:xlink="http://www.w3.org/1999/xlink" x="0px" y="0px"
	 viewBox="0 0 1000 1000" enable-background="new 0 0 1000 1000" xml:space="preserve">
<polygon fill="#231F20" points="102.2,849.2 301.1,504.7 500,849.2 "/>
<polygon fill="#414042" points="181.7,780.3 340.9,504.7 500,780.3 "/>
<polygon fill="#58595B" points="245.4,725.2 372.7,504.7 500,725.2 "/>
<polygon fill="#6D6E71" points="296.3,681.1 398.2,504.7 500,681.1 "/>
<polygon fill="#808285" points="337,645.8 418.5,504.7 500,645.8 "/>
<polygon fill="#231F20" points="102.2,150.8 301.1,495.3 500,150.8 "/>
<polygon fill="#414042" points="181.7,219.7 340.9,495.3 500,219.7 "/>
<polygon fill="#58595B" points="245.4,274.8 372.7,495.3 500,274.8 "/>
<polygon fill="#6D6E71" points="296.3,318.9 398.2,495.3 500,318.9 "/>
<polygon fill="#808285" points="337,354.2 418.5,495.3 500,354.2 "/>
<polygon fill="#231F20" points="897.8,849.2 698.9,504.7 500,849.2 "/>
<polygon fill="#414042" points="818.3,780.3 659.1,504.7 500,780.3 "/>
<polygon fill="#58595B" points="754.6,725.2 627.3,504.7 500,725.2 "/>
<polygon fill="#6D6E71" points="703.7,681.1 601.8,504.7 500,681.1 "/>
<polygon fill="#808285" points="663,645.8 581.5,504.7 500,645.8 "/>
<polygon fill="#231F20" points="897.8,150.8 698.9,495.3 500,150.8 "/>
<polygon fill="#414042" points="818.3,219.7 659.1,495.3 500,219.7 "/>
<polygon fill="#58595B" points="754.6,274.8 627.3,495.3 500,274.8 "/>
<polygon fill="#6D6E71" points="703.7,318.9 601.8,495.3 500,318.9 "/>
<polygon fill="#808285" points="663,354.2 581.5,495.3 500,354.2 "/>
<polygon fill="#231F20" points="701.1,150.8 502.1,495.3 303.2,150.8 "/>
<polygon fill="#414042" points="661.3,150.8 502.1,426.4 343,150.8 "/>
<polygon fill="#58595B" points="629.4,150.8 502.1,371.3 374.8,150.8 "/>
<polygon fill="#6D6E71" points="604,150.8 502.1,327.2 400.3,150.8 "/>
<polygon fill="#808285" points="583.6,150.8 502.1,291.9 420.7,150.8 "/>
<polygon fill="#231F20" points="701.1,849.2 502.1,504.7 303.2,849.2 "/>
<polygon fill="#414042" points="661.3,849.2 502.1,573.6 343,849.2 "/>
<polygon fill="#58595B" points="629.4,849.2 502.1,628.7 374.8,849.2 "/>
<polygon fill="#6D6E71" points="604,849.2 502.1,672.8 400.3,849.2 "/>
<polygon fill="#808285" points="583.6,849.2 502.1,708.1 420.7,849.2 "/>
</svg>
