<?xml version="1.0" encoding="utf-8"?>
<!-- Generator: Adobe Illustrator 17.1.0, SVG Export Plug-In . SVG Version: 6.00 Build 0)  -->
<!DOCTYPE svg PUBLIC "-//W3C//DTD SVG 1.1//EN" "http://www.w3.org/Graphics/SVG/1.1/DTD/svg11.dtd">
<svg version="1.1" id="Layer_1" xmlns="http://www.w3.org/2000/svg" xmlns:xlink="http://www.w3.org/1999/xlink" x="0px" y="0px"
	 viewBox="0 0 1000 1000" enable-background="new 0 0 1000 1000" xml:space="preserve">
<polygon fill="#00ADEF" points="474.2,609 483.1,519.5 516.4,540 516.4,589.7 528.9,578.8 534.1,636.4 "/>
<polygon fill="#00ADEF" points="503.5,626.1 548.7,659.3 561.2,709.7 466.3,689.9 474.2,612.3 "/>
<polyline fill="#00ADEF" points="546.6,401.7 527.7,405.1 499.3,310.5 "/>
<polygon fill="#00ADEF" points="522.2,398.1 488.3,427.7 448.9,344.1 496.5,312.6 "/>
<polygon fill="#00ADEF" points="398.2,472.9 387.3,461.6 419,415.5 413.2,448.4 "/>
<polygon fill="#00ADEF" points="387,636.1 416.3,449.4 423.3,409.4 426.6,361.4 442.5,345 445.6,345 402.8,678.3 "/>
<polygon fill="#00ADEF" points="448,348.6 488.3,434.1 481.3,508.9 415.6,601.7 "/>
<polygon fill="#00ADEF" points="531.9,576.3 543.8,565.9 547.2,605.9 534.4,605.9 "/>
<polygon fill="#00ADEF" points="546.3,563.5 575,537.9 598.5,606.2 593.6,622.7 549.9,606.5 "/>
<polygon fill="#00ADEF" points="519.7,583.3 519.7,542.1 519.7,516.2 547.2,478.7 577.1,531.8 "/>
<polygon fill="#00ADEF" points="517,514.7 516.7,515 516.7,536.3 483.7,516.2 491.3,433.8 491.3,433.5 489.8,430.1 523.4,400.8 
	525.5,407.8 547.8,404.2 565.8,448.4 "/>
<path fill="#00ADEF" d="M271.3,365.4"/>
<polygon fill="#00ADEF" points="359.2,681.3 359.2,681.3 342.7,666.1 391.5,656.3 402.2,684.7 399.5,718.2 "/>
<polygon fill="#00ADEF" points="408.3,730.8 401.6,731.7 401.6,721.3 404.7,684.4 414.4,608.1 480.4,515 462.6,690.2 "/>
<polygon fill="#00ADEF" points="414.7,729.8 464.8,692.9 555.1,711.5 447.1,730.8 "/>
<polygon fill="#00ADEF" points="450.7,733.2 470.6,729.5 475.5,753.6 "/>
<polygon fill="#00ADEF" points="478.8,756.4 473.3,729.2 562.5,713.4 606.7,780.2 "/>
<polygon fill="#00ADEF" points="569.2,717.9 604,743.6 606.1,773.5 "/>
<polygon fill="#00ADEF" points="609.8,779.3 609.5,778.7 607,743.6 653.1,704.5 "/>
</svg>
