<?xml version="1.0" encoding="utf-8"?>
<!-- Generator: Adobe Illustrator 17.1.0, SVG Export Plug-In . SVG Version: 6.00 Build 0)  -->
<!DOCTYPE svg PUBLIC "-//W3C//DTD SVG 1.1//EN" "http://www.w3.org/Graphics/SVG/1.1/DTD/svg11.dtd">
<svg version="1.1" id="Layer_1" xmlns="http://www.w3.org/2000/svg" xmlns:xlink="http://www.w3.org/1999/xlink" x="0px" y="0px"
	 viewBox="56 146 500 500" enable-background="new 56 146 500 500" xml:space="preserve">
<polygon fill="#FFFFFF" stroke="#8DC63F" stroke-width="3" stroke-miterlimit="10" points="100,192 100,592 300,592 "/>
<polygon fill="#FFFFFF" stroke="#8DC63F" stroke-width="3" stroke-miterlimit="10" points="150,192 150,592 350,592 "/>
<polygon fill="#FFFFFF" stroke="#8DC63F" stroke-width="3" stroke-miterlimit="10" points="250,192 250,592 450,592 "/>
<polygon fill="#FFFFFF" stroke="#8DC63F" stroke-width="3" stroke-miterlimit="10" points="500,392 100,592 500,592 "/>
<polygon fill="#FFFFFF" stroke="#8DC63F" stroke-width="3" stroke-miterlimit="10" points="500,354.5 100,554.5 500,554.5 "/>
<polygon fill="#FFFFFF" stroke="#8DC63F" stroke-width="3" stroke-miterlimit="10" points="500,317 100,517 500,517 "/>
<polygon fill="#FFFFFF" stroke="#8DC63F" stroke-width="3" stroke-miterlimit="10" points="500,279.5 100,479.5 500,479.5 "/>
<polygon fill="#FFFFFF" stroke="#8DC63F" stroke-width="3" stroke-miterlimit="10" points="500,242 100,442 500,442 "/>
<polygon fill="#FFFFFF" stroke="#8DC63F" stroke-width="3" stroke-miterlimit="10" points="300,192 300,592 500,592 "/>
<polygon fill="#FFFFFF" stroke="#8DC63F" stroke-width="3" stroke-miterlimit="10" points="200,192 200,592 400,592 "/>
<rect x="450" y="192" fill="#FFFFFF" stroke="#8DC63F" stroke-width="3" stroke-miterlimit="10" width="50" height="250"/>
<rect x="400" y="267" fill="#FFFFFF" stroke="#8DC63F" stroke-width="3" stroke-miterlimit="10" width="50" height="175"/>
<rect x="350" y="242" fill="#FFFFFF" stroke="#8DC63F" stroke-width="3" stroke-miterlimit="10" width="50" height="200"/>
<rect x="300" y="167" fill="#FFFFFF" stroke="#8DC63F" stroke-width="3" stroke-miterlimit="10" width="50" height="275"/>
</svg>
