<?xml version="1.0" encoding="utf-8"?>
<!-- Generator: Adobe Illustrator 15.1.0, SVG Export Plug-In . SVG Version: 6.00 Build 0)  -->
<!DOCTYPE svg PUBLIC "-//W3C//DTD SVG 1.1//EN" "http://www.w3.org/Graphics/SVG/1.1/DTD/svg11.dtd">
<svg version="1.1" id="Layer_1" xmlns="http://www.w3.org/2000/svg" xmlns:xlink="http://www.w3.org/1999/xlink" x="0px" y="0px"
	 width="1000px" height="1000px" viewBox="0 0 1000 1000" enable-background="new 0 0 1000 1000" xml:space="preserve">
<polygon fill="none" stroke="#00AEEF" stroke-miterlimit="10" points="270,207 270,279 342,207 "/>
<polygon fill="none" stroke="#00AEEF" stroke-miterlimit="10" points="306,243 621,243 585,279 270,279 "/>
<rect x="414" y="279" fill="none" stroke="#00AEEF" stroke-miterlimit="10" width="45" height="144"/>
<rect x="513" y="279" fill="none" stroke="#00AEEF" stroke-miterlimit="10" width="18" height="207"/>
<rect x="531" y="306" fill="none" stroke="#00AEEF" stroke-miterlimit="10" width="243" height="27"/>
<rect x="531" y="333" fill="none" stroke="#00AEEF" stroke-miterlimit="10" width="225" height="18"/>
<rect x="531" y="351" fill="none" stroke="#00AEEF" stroke-miterlimit="10" width="27" height="162"/>
<rect x="558" y="351" fill="none" stroke="#00AEEF" stroke-miterlimit="10" width="63" height="72"/>
<polygon fill="none" stroke="#00AEEF" stroke-miterlimit="10" points="621,423 666,468 666,351 621,351 "/>
<polygon fill="none" stroke="#00AEEF" stroke-miterlimit="10" points="621,423 621,594 648,594 648,450 "/>
<polygon fill="none" stroke="#00AEEF" stroke-miterlimit="10" points="666,468 666,540 648,540 648,450 "/>
<polygon fill="none" stroke="#00AEEF" stroke-miterlimit="10" points="666,468 828,468 801,441 666,441 "/>
<rect x="666" y="360" fill="none" stroke="#00AEEF" stroke-miterlimit="10" width="9" height="72"/>
<rect x="666" y="432" fill="none" stroke="#00AEEF" stroke-miterlimit="10" width="135" height="9"/>
<rect x="666" y="351" fill="none" stroke="#00AEEF" stroke-miterlimit="10" width="108" height="9"/>
<rect x="675" y="360" fill="none" stroke="#00AEEF" stroke-miterlimit="10" width="18" height="72"/>
<polygon fill="none" stroke="#00AEEF" stroke-miterlimit="10" points="693,360 693,396 729,360 "/>
<polygon fill="none" stroke="#00AEEF" stroke-miterlimit="10" points="702,387 702,432 693,432 693,396 "/>
<polygon fill="none" stroke="#00AEEF" stroke-miterlimit="10" points="702,387 702,432 720,432 720,369 "/>
<polygon fill="none" stroke="#00AEEF" stroke-miterlimit="10" points="729,423 801,423 801,432 720,432 720,423 "/>
<polygon fill="none" stroke="#00AEEF" stroke-miterlimit="10" points="558,423 558,477 612,423 "/>
<rect x="612" y="423" fill="none" stroke="#00AEEF" stroke-miterlimit="10" width="9" height="144"/>
<polygon fill="none" stroke="#00AEEF" stroke-miterlimit="10" points="603,432 612,423 612,495 603,495 "/>
<rect x="612" y="351" fill="none" stroke="#00AEEF" stroke-miterlimit="10" width="9" height="72"/>
<polygon fill="none" stroke="#00AEEF" stroke-miterlimit="10" points="558,477 558,540 585,540 585,450 "/>
<polygon fill="none" stroke="#00AEEF" stroke-miterlimit="10" points="603,432 585,450 585,558 603,558 "/>
<rect x="495" y="279" fill="none" stroke="#00AEEF" stroke-miterlimit="10" width="18" height="153"/>
<polygon fill="none" stroke="#00AEEF" stroke-miterlimit="10" points="495,432 513,450 513,432 "/>
<polygon fill="none" stroke="#00AEEF" stroke-miterlimit="10" points="621,594 675,648 702,648 648,594 "/>
<polygon fill="none" stroke="#00AEEF" stroke-miterlimit="10" points="666,540 774,540 756,558 648,558 648,540 "/>
<rect x="648" y="558" fill="none" stroke="#00AEEF" stroke-miterlimit="10" width="90" height="36"/>
<polygon fill="none" stroke="#00AEEF" stroke-miterlimit="10" points="648,594 684,594 747,657 711,657 "/>
<rect x="603" y="495" fill="none" stroke="#00AEEF" stroke-miterlimit="10" width="9" height="126"/>
<rect x="558" y="540" fill="none" stroke="#00AEEF" stroke-miterlimit="10" width="27" height="108"/>
<rect x="531" y="513" fill="none" stroke="#00AEEF" stroke-miterlimit="10" width="27" height="162"/>
<polygon fill="none" stroke="#00AEEF" stroke-miterlimit="10" points="495,432 414,432 414,450 513,450 "/>
<polygon fill="none" stroke="#00AEEF" stroke-miterlimit="10" points="513,450 531,450 513,468 "/>
<rect x="531" y="450" fill="none" stroke="#00AEEF" stroke-miterlimit="10" width="27" height="45"/>
<polygon fill="none" stroke="#00AEEF" stroke-miterlimit="10" points="342,207 306,243 414,243 450,207 "/>
<polygon fill="none" stroke="#00AEEF" stroke-miterlimit="10" points="450,207 477,207 441,243 414,243 "/>
<polygon fill="none" stroke="#00AEEF" stroke-miterlimit="10" points="414,279 387,279 342,324 369,324 "/>
<polygon fill="none" stroke="#00AEEF" stroke-miterlimit="10" points="369,324 414,369 414,396 342,324 "/>
<rect x="459" y="279" fill="none" stroke="#00AEEF" stroke-miterlimit="10" width="9" height="153"/>
<rect x="468" y="279" fill="none" stroke="#00AEEF" stroke-miterlimit="10" width="27" height="153"/>
<polygon fill="none" stroke="#00AEEF" stroke-miterlimit="10" points="594,279 531,279 531,288 702,288 711,279 "/>
<polygon fill="none" stroke="#00AEEF" stroke-miterlimit="10" points="531,288 756,288 738,306 531,306 "/>
<polygon fill="none" stroke="#00AEEF" stroke-miterlimit="10" points="360,279 315,324 342,324 387,279 "/>
<polygon fill="none" stroke="#00AEEF" stroke-miterlimit="10" points="360,279 288,351 261,351 333,279 "/>
<polygon fill="none" stroke="#00AEEF" stroke-miterlimit="10" points="315,324 315,423 333,441 333,324 "/>
<rect x="333" y="324" fill="none" stroke="#00AEEF" stroke-miterlimit="10" width="9" height="171"/>
<polygon fill="none" stroke="#00AEEF" stroke-miterlimit="10" points="342,477 414,405 414,432 342,504 "/>
<polygon fill="none" stroke="#00AEEF" stroke-miterlimit="10" points="360,342 360,459 342,477 342,324 "/>
<polygon fill="none" stroke="#00AEEF" stroke-miterlimit="10" points="360,342 396,378 396,396 360,360 "/>
<polygon fill="none" stroke="#00AEEF" stroke-miterlimit="10" points="396,378 396,423 405,414 405,387 "/>
<polygon fill="none" stroke="#00AEEF" stroke-miterlimit="10" points="360,387 396,423 396,396 360,360 "/>
<polygon fill="none" stroke="#00AEEF" stroke-miterlimit="10" points="396,423 396,450 405,441 405,414 "/>
<polygon fill="none" stroke="#00AEEF" stroke-miterlimit="10" points="360,414 378,432 378,405 360,387 "/>
<polygon fill="none" stroke="#00AEEF" stroke-miterlimit="10" points="378,405 387,414 387,432 378,441 "/>
<polygon fill="none" stroke="#00AEEF" stroke-miterlimit="10" points="360,414 378,432 378,441 360,459 "/>
<polygon fill="none" stroke="#00AEEF" stroke-miterlimit="10" points="405,387 405,414 414,405 414,396 "/>
<polygon fill="none" stroke="#00AEEF" stroke-miterlimit="10" points="414,432 414,522 405,522 405,441 "/>
<polygon fill="none" stroke="#00AEEF" stroke-miterlimit="10" points="288,351 288,468 261,441 261,351 "/>
<polygon fill="none" stroke="#00AEEF" stroke-miterlimit="10" points="342,324 342,297 315,324 "/>
<polygon fill="none" stroke="#00AEEF" stroke-miterlimit="10" points="270,279 270,342 288,324 288,279 "/>
<polygon fill="none" stroke="#00AEEF" stroke-miterlimit="10" points="270,279 261,279 261,351 270,342 "/>
<polygon fill="none" stroke="#00AEEF" stroke-miterlimit="10" points="261,351 243,351 243,423 261,441 "/>
<rect x="288" y="432" fill="none" stroke="#00AEEF" stroke-miterlimit="10" width="36" height="18"/>
<polygon fill="none" stroke="#00AEEF" stroke-miterlimit="10" points="324,432 288,396 288,432 "/>
<polygon fill="none" stroke="#00AEEF" stroke-miterlimit="10" points="306,333 306,414 315,423 315,324 "/>
<polygon fill="none" stroke="#00AEEF" stroke-miterlimit="10" points="297,342 297,405 306,414 306,333 "/>
<polygon fill="none" stroke="#00AEEF" stroke-miterlimit="10" points="288,351 297,342 297,405 288,396 "/>
<polygon fill="none" stroke="#00AEEF" stroke-miterlimit="10" points="324,432 324,567 333,558 333,441 "/>
<polygon fill="none" stroke="#00AEEF" stroke-miterlimit="10" points="342,504 342,549 360,531 360,486 "/>
<polygon fill="none" stroke="#00AEEF" stroke-miterlimit="10" points="360,522 405,477 405,441 360,486 "/>
<polygon fill="none" stroke="#00AEEF" stroke-miterlimit="10" points="414,522 486,594 486,612 396,522 "/>
<polygon fill="none" stroke="#00AEEF" stroke-miterlimit="10" points="441,450 441,549 450,558 450,450 "/>
<polygon fill="none" stroke="#00AEEF" stroke-miterlimit="10" points="423,450 423,486 441,468 441,450 "/>
<polygon fill="none" stroke="#00AEEF" stroke-miterlimit="10" points="450,450 450,495 495,450 "/>
<polygon fill="none" stroke="#00AEEF" stroke-miterlimit="10" points="477,468 477,549 504,549 504,450 495,450 "/>
<polygon fill="none" stroke="#00AEEF" stroke-miterlimit="10" points="468,477 468,576 477,585 477,468 "/>
<polygon fill="none" stroke="#00AEEF" stroke-miterlimit="10" points="450,495 468,477 468,576 450,558 "/>
<polygon fill="none" stroke="#00AEEF" stroke-miterlimit="10" points="423,486 423,531 441,549 441,468 "/>
<polygon fill="none" stroke="#00AEEF" stroke-miterlimit="10" points="423,450 414,450 414,522 423,531 "/>
<polygon fill="none" stroke="#00AEEF" stroke-miterlimit="10" points="396,522 360,522 405,477 405,522 "/>
<rect x="504" y="450" fill="none" stroke="#00AEEF" stroke-miterlimit="10" width="9" height="198"/>
<rect x="513" y="486" fill="none" stroke="#00AEEF" stroke-miterlimit="10" width="18" height="234"/>
<polygon fill="none" stroke="#00AEEF" stroke-miterlimit="10" points="486,549 486,594 504,612 504,549 "/>
<polygon fill="none" stroke="#00AEEF" stroke-miterlimit="10" points="477,549 477,585 486,594 486,549 "/>
<polygon fill="none" stroke="#00AEEF" stroke-miterlimit="10" points="396,522 378,522 486,630 486,612 "/>
<polygon fill="none" stroke="#00AEEF" stroke-miterlimit="10" points="360,522 342,522 342,549 360,531 "/>
<polygon fill="none" stroke="#00AEEF" stroke-miterlimit="10" points="333,495 342,495 342,675 324,693 324,567 333,558 "/>
<polygon fill="none" stroke="#00AEEF" stroke-miterlimit="10" points="342,675 423,675 405,693 324,693 "/>
<polygon fill="none" stroke="#00AEEF" stroke-miterlimit="10" points="423,675 423,567 441,585 441,693 "/>
<polygon fill="none" stroke="#00AEEF" stroke-miterlimit="10" points="441,693 423,675 405,693 459,747 477,729 "/>
<polygon fill="none" stroke="#00AEEF" stroke-miterlimit="10" points="477,729 513,693 513,657 459,711 "/>
<rect x="360" y="522" fill="none" stroke="#00AEEF" stroke-miterlimit="10" width="9" height="153"/>
<rect x="369" y="522" fill="none" stroke="#00AEEF" stroke-miterlimit="10" width="9" height="153"/>
<polygon fill="none" stroke="#00AEEF" stroke-miterlimit="10" points="387,531 387,675 378,675 378,522 "/>
<polygon fill="none" stroke="#00AEEF" stroke-miterlimit="10" points="387,531 387,675 396,675 396,540 "/>
<polygon fill="none" stroke="#00AEEF" stroke-miterlimit="10" points="486,630 486,684 495,675 495,603 486,594 "/>
<polygon fill="none" stroke="#00AEEF" stroke-miterlimit="10" points="495,603 504,612 504,666 495,675 "/>
<polygon fill="none" stroke="#00AEEF" stroke-miterlimit="10" points="450,594 450,702 459,711 459,603 "/>
<polygon fill="none" stroke="#00AEEF" stroke-miterlimit="10" points="468,612 468,702 486,684 486,630 "/>
<polygon fill="none" stroke="#00AEEF" stroke-miterlimit="10" points="531,675 531,756 558,729 558,675 "/>
<polygon fill="none" stroke="#00AEEF" stroke-miterlimit="10" points="558,648 558,693 675,693 630,648 "/>
<rect x="585" y="558" fill="none" stroke="#00AEEF" stroke-miterlimit="10" width="18" height="90"/>
<rect x="612" y="567" fill="none" stroke="#00AEEF" stroke-miterlimit="10" width="9" height="81"/>
<rect x="603" y="621" fill="none" stroke="#00AEEF" stroke-miterlimit="10" width="9" height="27"/>
<polygon fill="none" stroke="#00AEEF" stroke-miterlimit="10" points="666,468 810,468 783,495 666,495 "/>
<polygon fill="none" stroke="#00AEEF" stroke-miterlimit="10" points="666,495 666,513 765,513 783,495 "/>
<polygon fill="none" stroke="#00AEEF" stroke-miterlimit="10" points="666,513 765,513 747,531 666,531 "/>
<polygon fill="none" stroke="#00AEEF" stroke-miterlimit="10" points="666,531 747,531 738,540 666,540 "/>
<polygon fill="none" stroke="#00AEEF" stroke-miterlimit="10" points="720,594 783,657 747,657 684,594 "/>
<polygon fill="none" stroke="#00AEEF" stroke-miterlimit="10" points="621,594 621,621 675,675 675,648 "/>
<polygon fill="none" stroke="#00AEEF" stroke-miterlimit="10" points="621,621 621,639 675,693 675,675 "/>
<polygon fill="none" stroke="#00AEEF" stroke-miterlimit="10" points="621,639 621,648 630,648 "/>
<rect x="675" y="648" fill="none" stroke="#00AEEF" stroke-miterlimit="10" width="27" height="27"/>
<polygon fill="none" stroke="#00AEEF" stroke-miterlimit="10" points="711,657 711,729 702,729 702,648 "/>
<rect x="675" y="675" fill="none" stroke="#00AEEF" stroke-miterlimit="10" width="27" height="18"/>
<polygon fill="none" stroke="#00AEEF" stroke-miterlimit="10" points="558,693 558,711 693,711 675,693 "/>
<polygon fill="none" stroke="#00AEEF" stroke-miterlimit="10" points="675,693 702,720 702,693 "/>
<path fill="none" stroke="#00AEEF" stroke-miterlimit="10" d="M558,711"/>
<polygon fill="none" stroke="#00AEEF" stroke-miterlimit="10" points="612,666 639,693 558,693 558,666 "/>
<rect x="558" y="648" fill="none" stroke="#00AEEF" stroke-miterlimit="10" width="54" height="18"/>
<polygon fill="none" stroke="#00AEEF" stroke-miterlimit="10" points="612,648 621,648 621,675 612,666 "/>
<polygon fill="none" stroke="#00AEEF" stroke-miterlimit="10" points="621,648 630,648 630,684 621,675 "/>
<polygon fill="none" stroke="#00AEEF" stroke-miterlimit="10" points="630,684 639,693 639,657 630,648 "/>
<rect x="639" y="693" fill="none" stroke="#00AEEF" stroke-miterlimit="10" width="36" height="18"/>
<polygon fill="none" stroke="#00AEEF" stroke-miterlimit="10" points="639,657 639,693 675,693 "/>
</svg>
