<?xml version="1.0" encoding="utf-8"?>
<!-- Generator: Adobe Illustrator 15.1.0, SVG Export Plug-In . SVG Version: 6.00 Build 0)  -->
<!DOCTYPE svg PUBLIC "-//W3C//DTD SVG 1.1//EN" "http://www.w3.org/Graphics/SVG/1.1/DTD/svg11.dtd">
<svg version="1.1" id="Layer_1" xmlns="http://www.w3.org/2000/svg" xmlns:xlink="http://www.w3.org/1999/xlink" x="0px" y="0px"
	 width="800px" height="800px" viewBox="0 0 800 800" enable-background="new 0 0 800 800" xml:space="preserve">
<polygon fill="none" stroke="#E41B23" stroke-miterlimit="10" points="300,230 200,230 200,330 "/>
<polygon fill="none" stroke="#E41B23" stroke-miterlimit="10" points="200,230 100,230 100,330 "/>
<polygon fill="none" stroke="#E41B23" stroke-miterlimit="10" points="400,230 300,230 300,330 "/>
<polygon fill="none" stroke="#E41B23" stroke-miterlimit="10" points="500,230 400,230 400,330 "/>
<polygon fill="none" stroke="#E41B23" stroke-miterlimit="10" points="600,230 500,230 500,330 "/>
<polygon fill="none" stroke="#E41B23" stroke-miterlimit="10" points="700,230 600,230 600,330 "/>
<polygon fill="none" stroke="#E41B23" stroke-miterlimit="10" points="390,240 390,370 400,360 400,230 "/>
<polygon fill="none" stroke="#E41B23" stroke-miterlimit="10" points="400,230 400,180 450,230 "/>
<polygon fill="none" stroke="#E41B23" stroke-miterlimit="10" points="400,210 340,210 320,230 400,230 "/>
<polygon fill="none" stroke="#E41B23" stroke-miterlimit="10" points="380,250 380,340 390,330 390,240 "/>
<polygon fill="none" stroke="#E41B23" stroke-miterlimit="10" points="370,260 370,360 380,350 380,250 "/>
<polygon fill="none" stroke="#E41B23" stroke-miterlimit="10" points="360,270 360,300 370,300 370,260 "/>
<polygon fill="none" stroke="#E41B23" stroke-miterlimit="10" points="350,280 350,350 340,340 340,290 "/>
<polygon fill="none" stroke="#E41B23" stroke-miterlimit="10" points="350,280 350,380 360,370 360,270 "/>
<rect x="360" y="300" fill="none" stroke="#E41B23" stroke-miterlimit="10" width="10" height="80"/>
<polygon fill="none" stroke="#E41B23" stroke-miterlimit="10" points="330,300 330,410 340,400 340,290 "/>
<polygon fill="none" stroke="#E41B23" stroke-miterlimit="10" points="320,310 320,430 330,420 330,300 "/>
<polygon fill="none" stroke="#E41B23" stroke-miterlimit="10" points="310,320 310,450 320,440 320,310 "/>
<polygon fill="none" stroke="#E41B23" stroke-miterlimit="10" points="300,330 300,480 310,470 310,320 "/>
<rect x="376.36" y="402.929" transform="matrix(-0.7071 -0.7071 0.7071 -0.7071 461.2132 1011.0408)" fill="none" stroke="#E41B23" stroke-miterlimit="10" width="127.279" height="14.142"/>
<polygon fill="none" stroke="#E41B23" stroke-miterlimit="10" points="380,340 380,400 390,390 390,330 "/>
<rect x="370.503" y="422.929" transform="matrix(-0.7071 -0.7071 0.7071 -0.7071 412.9289 1031.0408)" fill="none" stroke="#E41B23" stroke-miterlimit="10" width="98.995" height="14.142"/>
<polygon fill="none" stroke="#E41B23" stroke-miterlimit="10" points="370,360 370,410 380,400 380,350 "/>
<rect x="362.574" y="427.929" transform="matrix(-0.7071 -0.7071 0.7071 -0.7071 383.7848 1028.9697)" fill="none" stroke="#E41B23" stroke-miterlimit="10" width="84.852" height="14.142"/>
<polygon fill="none" stroke="#E41B23" stroke-miterlimit="10" points="460,460 480,480 490,470 390,370 390,390 "/>
<polygon fill="none" stroke="#E41B23" stroke-miterlimit="10" points="410,320 410,370 400,360 400,330 "/>
<polygon fill="none" stroke="#E41B23" stroke-miterlimit="10" points="410,350 480,420 480,440 410,370 "/>
<polygon fill="none" stroke="#E41B23" stroke-miterlimit="10" points="420,310 420,360 410,350 410,320 "/>
<polygon fill="none" stroke="#E41B23" stroke-miterlimit="10" points="430,300 430,370 420,360 420,310 "/>
<polygon fill="none" stroke="#E41B23" stroke-miterlimit="10" points="480,420 600,300 600,320 480,440 "/>
<polygon fill="none" stroke="#E41B23" stroke-miterlimit="10" points="480,440 480,460 490,450 "/>
<polygon fill="none" stroke="#E41B23" stroke-miterlimit="10" points="480,460 480,480 490,470 "/>
<polygon fill="none" stroke="#E41B23" stroke-miterlimit="10" points="480,440 490,450 560,380 560,360 "/>
<polygon fill="none" stroke="#E41B23" stroke-miterlimit="10" points="480,460 570,370 570,390 490,470 "/>
<polygon fill="none" stroke="#E41B23" stroke-miterlimit="10" points="560,380 600,340 600,320 560,360 "/>
<polygon fill="none" stroke="#E41B23" stroke-miterlimit="10" points="490,240 490,410 500,400 500,230 "/>
<polygon fill="none" stroke="#E41B23" stroke-miterlimit="10" points="480,250 480,350 490,360 490,240 "/>
<polygon fill="none" stroke="#E41B23" stroke-miterlimit="10" points="470,260 470,380 460,390 460,270 "/>
<polygon fill="none" stroke="#E41B23" stroke-miterlimit="10" points="460,390 460,400 470,410 470,380 "/>
<polygon fill="none" stroke="#E41B23" stroke-miterlimit="10" points="470,260 470,360 480,370 480,250 "/>
<polygon fill="none" stroke="#E41B23" stroke-miterlimit="10" points="450,280 450,390 460,400 460,270 "/>
<polygon fill="none" stroke="#E41B23" stroke-miterlimit="10" points="440,290 440,370 450,370 450,280 "/>
<polygon fill="none" stroke="#E41B23" stroke-miterlimit="10" points="430,300 430,370 440,380 440,290 "/>
<polygon fill="none" stroke="#E41B23" stroke-miterlimit="10" points="440,370 450,370 450,390 440,380 "/>
<polygon fill="none" stroke="#E41B23" stroke-miterlimit="10" points="470,360 470,410 480,420 480,370 "/>
<polygon fill="none" stroke="#E41B23" stroke-miterlimit="10" points="480,350 490,360 490,410 480,420 "/>
<polygon fill="none" stroke="#E41B23" stroke-miterlimit="10" points="350,350 340,340 340,460 350,450 "/>
<polygon fill="none" stroke="#E41B23" stroke-miterlimit="10" points="360,370 360,420 350,430 350,380 "/>
<polygon fill="none" stroke="#E41B23" stroke-miterlimit="10" points="370,380 370,410 360,420 360,380 "/>
<rect x="392.929" y="400.503" transform="matrix(0.7071 -0.7071 0.7071 0.7071 -201.0399 414.6302)" fill="none" stroke="#E41B23" stroke-miterlimit="10" width="14.142" height="98.995"/>
<rect x="344.645" y="442.929" transform="matrix(-0.7071 -0.7071 0.7071 -0.7071 330.5025 1036.8987)" fill="none" stroke="#E41B23" stroke-miterlimit="10" width="70.711" height="14.142"/>
<polygon fill="none" stroke="#E41B23" stroke-miterlimit="10" points="350,430 350,450 410,510 420,500 "/>
<polygon fill="none" stroke="#E41B23" stroke-miterlimit="10" points="330,410 330,500 340,490 340,400 "/>
<rect x="334.645" y="472.929" transform="matrix(-0.7071 -0.7071 0.7071 -0.7071 292.2183 1081.0408)" fill="none" stroke="#E41B23" stroke-miterlimit="10" width="70.711" height="14.142"/>
<polygon fill="none" stroke="#E41B23" stroke-miterlimit="10" points="450,470 480,500 480,480 460,460 "/>
<polygon fill="none" stroke="#E41B23" stroke-miterlimit="10" points="430,470 480,520 480,500 440,460 "/>
<polygon fill="none" stroke="#E41B23" stroke-miterlimit="10" points="430,490 480,540 480,520 440,480 "/>
<polygon fill="none" stroke="#E41B23" stroke-miterlimit="10" points="400,480 480,560 480,540 410,470 "/>
<polygon fill="none" stroke="#E41B23" stroke-miterlimit="10" points="480,480 530,430 530,450 480,500 "/>
<polygon fill="none" stroke="#E41B23" stroke-miterlimit="10" points="480,500 550,430 550,450 480,520 "/>
<polygon fill="none" stroke="#E41B23" stroke-miterlimit="10" points="480,520 520,480 520,500 480,540 "/>
<polygon fill="none" stroke="#E41B23" stroke-miterlimit="10" points="480,540 550,470 550,490 480,560 "/>
<polygon fill="none" stroke="#E41B23" stroke-miterlimit="10" points="340,490 440,590 440,610 330,500 "/>
<polygon fill="none" stroke="#E41B23" stroke-miterlimit="10" points="380,500 380,530 340,490 340,460 "/>
<polygon fill="none" stroke="#E41B23" stroke-miterlimit="10" points="380,500 440,560 440,590 380,530 "/>
<polygon fill="none" stroke="#E41B23" stroke-miterlimit="10" points="440,560 460,540 480,560 440,600 "/>
<polygon fill="none" stroke="#E41B23" stroke-miterlimit="10" points="410,510 450,550 440,560 390,510 400,500 "/>
<polygon fill="none" stroke="#E41B23" stroke-miterlimit="10" points="440,600 500,540 500,560 440,620 "/>
<polygon fill="none" stroke="#E41B23" stroke-miterlimit="10" points="480,560 480,580 500,560 500,540 "/>
<polygon fill="none" stroke="#E41B23" stroke-miterlimit="10" points="290,240 290,420 270,440 270,260 "/>
<polygon fill="none" stroke="#E41B23" stroke-miterlimit="10" points="250,280 250,420 270,400 270,260 "/>
<path fill="none" stroke="#E41B23" stroke-miterlimit="10" d="M290,240"/>
<polygon fill="none" stroke="#E41B23" stroke-miterlimit="10" points="300,230 290,240 290,360 300,350 "/>
<polygon fill="none" stroke="#E41B23" stroke-miterlimit="10" points="290,360 300,350 300,470 290,460 "/>
<polygon fill="none" stroke="#E41B23" stroke-miterlimit="10" points="310,450 330,430 330,460 310,480 "/>
<polygon fill="none" stroke="#E41B23" stroke-miterlimit="10" points="320,430 320,440 330,430 330,420 "/>
<polygon fill="none" stroke="#E41B23" stroke-miterlimit="10" points="290,420 240,470 240,500 290,450 "/>
<polygon fill="none" stroke="#E41B23" stroke-miterlimit="10" points="220,310 220,360 190,390 190,340 "/>
<polygon fill="none" stroke="#E41B23" stroke-miterlimit="10" points="220,320 250,290 250,330 220,360 "/>
<polygon fill="none" stroke="#E41B23" stroke-miterlimit="10" points="220,310 220,320 250,290 250,280 "/>
<polygon fill="none" stroke="#E41B23" stroke-miterlimit="10" points="250,330 160,420 160,450 250,360 "/>
<polygon fill="none" stroke="#E41B23" stroke-miterlimit="10" points="120,310 190,380 190,390 115,315 "/>
<polygon fill="none" stroke="#E41B23" stroke-miterlimit="10" points="190,390 190,420 210,400 210,370 "/>
<polygon fill="none" stroke="#E41B23" stroke-miterlimit="10" points="170,260 200,290 200,260 185,245 "/>
<rect x="134.645" y="302.929" transform="matrix(-0.7071 -0.7071 0.7071 -0.7071 71.0049 649.4117)" fill="none" stroke="#E41B23" stroke-miterlimit="10" width="70.711" height="14.142"/>
<polygon fill="none" stroke="#E41B23" stroke-miterlimit="10" points="170,260 160,270 190,300 190,280 "/>
<polygon fill="none" stroke="#E41B23" stroke-miterlimit="10" points="190,280 190,320 200,330 200,290 "/>
<polygon fill="none" stroke="#E41B23" stroke-miterlimit="10" points="110,320 185,395 170,410 100,340 100,330 "/>
<polygon fill="none" stroke="#E41B23" stroke-miterlimit="10" points="160,420 120,380 120,420 160,460 "/>
<polygon fill="none" stroke="#E41B23" stroke-miterlimit="10" points="160,450 160,510 170,500 170,440 "/>
<polygon fill="none" stroke="#E41B23" stroke-miterlimit="10" points="170,500 250,420 250,400 170,480 "/>
<polygon fill="none" stroke="#E41B23" stroke-miterlimit="10" points="170,440 230,380 230,400 170,460 "/>
<polygon fill="none" stroke="#E41B23" stroke-miterlimit="10" points="170,460 250,380 250,400 170,480 "/>
<polygon fill="none" stroke="#E41B23" stroke-miterlimit="10" points="230,380 230,400 250,380 250,360 "/>
<polygon fill="none" stroke="#E41B23" stroke-miterlimit="10" points="120,420 100,400 100,340 120,360 "/>
<polygon fill="none" stroke="#E41B23" stroke-miterlimit="10" points="220,450 240,470 240,500 205,465 "/>
<polygon fill="none" stroke="#E41B23" stroke-miterlimit="10" points="220,450 270,400 270,440 240,470 "/>
<polygon fill="none" stroke="#E41B23" stroke-miterlimit="10" points="350,190 350,210 300,210 280,190 "/>
<rect x="350" y="200" fill="none" stroke="#E41B23" stroke-miterlimit="10" width="50" height="10"/>
<rect x="350" y="190" fill="none" stroke="#E41B23" stroke-miterlimit="10" width="50" height="10"/>
<polygon fill="none" stroke="#E41B23" stroke-miterlimit="10" points="430,210 500,210 500,230 450,230 "/>
<polygon fill="none" stroke="#E41B23" stroke-miterlimit="10" points="300,210 220,210 200,230 300,230 320,210 "/>
<polygon fill="none" stroke="#E41B23" stroke-miterlimit="10" points="500,380 600,280 600,300 500,400 "/>
<polygon fill="none" stroke="#E41B23" stroke-miterlimit="10" points="500,360 500,380 600,280 600,260 "/>
<polygon fill="none" stroke="#E41B23" stroke-miterlimit="10" points="500,360 550,310 550,290 500,340 "/>
</svg>
