<?xml version="1.0" encoding="utf-8"?>
<!-- Generator: Adobe Illustrator 15.1.0, SVG Export Plug-In . SVG Version: 6.00 Build 0)  -->
<!DOCTYPE svg PUBLIC "-//W3C//DTD SVG 1.1//EN" "http://www.w3.org/Graphics/SVG/1.1/DTD/svg11.dtd">
<svg version="1.1" id="Layer_1" xmlns="http://www.w3.org/2000/svg" xmlns:xlink="http://www.w3.org/1999/xlink" x="0px" y="0px"
	 width="800px" height="800px" viewBox="0 0 800 800" enable-background="new 0 0 800 800" xml:space="preserve">
<g>
	<rect x="300" y="250" fill="none" stroke="#16B34C" stroke-miterlimit="10" width="200" height="40"/>
	<rect x="370" y="290" fill="none" stroke="#16B34C" stroke-miterlimit="10" width="50" height="110"/>
	<rect x="360" y="290" fill="none" stroke="#16B34C" stroke-miterlimit="10" width="10" height="180"/>
	<rect x="370" y="450" fill="none" stroke="#16B34C" stroke-miterlimit="10" width="180" height="20"/>
	<rect x="370" y="410" fill="none" stroke="#16B34C" stroke-miterlimit="10" width="130" height="20"/>
	<rect x="340" y="290" fill="none" stroke="#16B34C" stroke-miterlimit="10" width="10" height="220"/>
	<rect x="200" y="290" fill="none" stroke="#16B34C" stroke-miterlimit="10" width="140" height="30"/>
	<polygon fill="none" stroke="#16B34C" stroke-miterlimit="10" points="370,400 490,400 480,410 370,410 	"/>
	<rect x="470" y="290" fill="none" stroke="#16B34C" stroke-miterlimit="10" width="10" height="110"/>
	<rect x="420" y="290" fill="none" stroke="#16B34C" stroke-miterlimit="10" width="50" height="40"/>
	<rect x="420" y="330" fill="none" stroke="#16B34C" stroke-miterlimit="10" width="20" height="70"/>
	<polygon fill="none" stroke="#16B34C" stroke-miterlimit="10" points="440,330 440,400 450,400 450,340 	"/>
	<rect x="440" y="290" fill="none" stroke="#16B34C" stroke-miterlimit="10" width="10" height="40"/>
	<polygon fill="none" stroke="#16B34C" stroke-miterlimit="10" points="440,330 470,360 470,330 	"/>
	<polygon fill="none" stroke="#16B34C" stroke-miterlimit="10" points="450,340 450,400 470,400 470,360 	"/>
	<rect x="370" y="330" fill="none" stroke="#16B34C" stroke-miterlimit="10" width="50" height="20"/>
	<rect x="400" y="290" fill="none" stroke="#16B34C" stroke-miterlimit="10" width="20" height="40"/>
	<rect x="390" y="290" fill="none" stroke="#16B34C" stroke-miterlimit="10" width="10" height="40"/>
	<rect x="380" y="290" fill="none" stroke="#16B34C" stroke-miterlimit="10" width="10" height="40"/>
	<rect x="450" y="290" fill="none" stroke="#16B34C" stroke-miterlimit="10" width="10" height="40"/>
	<polygon fill="none" stroke="#16B34C" stroke-miterlimit="10" points="480,330 500,330 530,360 480,360 	"/>
	<rect x="480" y="290" fill="none" stroke="#16B34C" stroke-miterlimit="10" width="20" height="40"/>
	<rect x="480" y="360" fill="none" stroke="#16B34C" stroke-miterlimit="10" width="20" height="40"/>
	<polygon fill="none" stroke="#16B34C" stroke-miterlimit="10" points="500,330 500,250 530,280 530,360 	"/>
	<polygon fill="none" stroke="#16B34C" stroke-miterlimit="10" points="500,360 550,360 510,400 500,400 	"/>
	<polygon fill="none" stroke="#16B34C" stroke-miterlimit="10" points="530,360 530,380 550,360 	"/>
	<polygon fill="none" stroke="#16B34C" stroke-miterlimit="10" points="530,360 530,280 550,260 550,360 	"/>
	<polygon fill="none" stroke="#16B34C" stroke-miterlimit="10" points="550,360 560,360 560,250 550,260 	"/>
	<polygon fill="none" stroke="#16B34C" stroke-miterlimit="10" points="490,400 570,400 560,410 480,410 	"/>
	<polygon fill="none" stroke="#16B34C" stroke-miterlimit="10" points="500,410 550,410 530,430 500,430 	"/>
	<rect x="370" y="430" fill="none" stroke="#16B34C" stroke-miterlimit="10" width="120" height="10"/>
	<rect x="370" y="440" fill="none" stroke="#16B34C" stroke-miterlimit="10" width="160" height="10"/>
	<polygon fill="none" stroke="#16B34C" stroke-miterlimit="10" points="510,400 560,400 600,360 550,360 	"/>
	<rect x="560" y="290" fill="none" stroke="#16B34C" stroke-miterlimit="10" width="40" height="70"/>
	<rect x="590" y="290" fill="none" stroke="#16B34C" stroke-miterlimit="10" width="10" height="70"/>
	<rect x="560" y="270" fill="none" stroke="#16B34C" stroke-miterlimit="10" width="30" height="20"/>
	<polygon fill="none" stroke="#16B34C" stroke-miterlimit="10" points="590,270 590,240 600,250 600,290 590,290 	"/>
	<polygon fill="none" stroke="#16B34C" stroke-miterlimit="10" points="590,240 590,220 560,250 560,270 590,270 	"/>
	<rect x="300" y="250" fill="none" stroke="#16B34C" stroke-miterlimit="10" width="180" height="20"/>
	<rect x="480" y="250" fill="none" stroke="#16B34C" stroke-miterlimit="10" width="20" height="40"/>
	<rect x="300" y="270" fill="none" stroke="#16B34C" stroke-miterlimit="10" width="140" height="10"/>
	<rect x="300" y="280" fill="none" stroke="#16B34C" stroke-miterlimit="10" width="180" height="10"/>
	<rect x="440" y="270" fill="none" stroke="#16B34C" stroke-miterlimit="10" width="40" height="10"/>
	<polygon fill="none" stroke="#16B34C" stroke-miterlimit="10" points="500,250 500,210 530,240 530,280 	"/>
	<polygon fill="none" stroke="#16B34C" stroke-miterlimit="10" points="530,240 570,200 570,240 530,280 	"/>
	<polygon fill="none" stroke="#16B34C" stroke-miterlimit="10" points="570,200 570,160 580,170 580,230 570,240 	"/>
	<polygon fill="none" stroke="#16B34C" stroke-miterlimit="10" points="300,320 240,380 240,420 320,340 320,320 	"/>
	<polygon fill="none" stroke="#16B34C" stroke-miterlimit="10" points="270,390 270,410 330,350 330,320 320,320 320,340 	"/>
	<polygon fill="none" stroke="#16B34C" stroke-miterlimit="10" points="260,400 260,440 330,370 330,350 270,410 270,390 	"/>
	<polygon fill="none" stroke="#16B34C" stroke-miterlimit="10" points="330,320 330,410 300,440 300,460 340,420 340,320 	"/>
	<polygon fill="none" stroke="#16B34C" stroke-miterlimit="10" points="320,380 320,410 270,460 270,470 330,410 330,370 	"/>
	<polygon fill="none" stroke="#16B34C" stroke-miterlimit="10" points="320,380 320,400 250,470 250,450 	"/>
	<polygon fill="none" stroke="#16B34C" stroke-miterlimit="10" points="250,410 250,450 260,440 260,400 	"/>
	<polygon fill="none" stroke="#16B34C" stroke-miterlimit="10" points="280,320 200,400 200,430 240,390 240,380 300,320 	"/>
	<polygon fill="none" stroke="#16B34C" stroke-miterlimit="10" points="230,320 230,370 280,320 	"/>
	<polygon fill="none" stroke="#16B34C" stroke-miterlimit="10" points="210,320 210,390 230,370 230,320 	"/>
	<polygon fill="none" stroke="#16B34C" stroke-miterlimit="10" points="230,400 230,540 240,540 240,390 	"/>
	<polygon fill="none" stroke="#16B34C" stroke-miterlimit="10" points="240,420 240,580 250,580 250,410 	"/>
	<polygon fill="none" stroke="#16B34C" stroke-miterlimit="10" points="200,430 200,550 230,550 230,400 	"/>
	<polygon fill="none" stroke="#16B34C" stroke-miterlimit="10" points="260,460 260,560 250,560 250,470 	"/>
	<polygon fill="none" stroke="#16B34C" stroke-miterlimit="10" points="260,460 270,450 270,540 260,540 	"/>
	<polygon fill="none" stroke="#16B34C" stroke-miterlimit="10" points="280,460 280,560 270,560 270,470 	"/>
	<polygon fill="none" stroke="#16B34C" stroke-miterlimit="10" points="300,440 280,460 280,560 300,560 	"/>
	<polygon fill="none" stroke="#16B34C" stroke-miterlimit="10" points="300,460 300,500 340,460 340,420 	"/>
	<polygon fill="none" stroke="#16B34C" stroke-miterlimit="10" points="300,500 300,530 340,490 340,460 	"/>
	<polygon fill="none" stroke="#16B34C" stroke-miterlimit="10" points="310,520 310,590 300,590 300,530 	"/>
	<polygon fill="none" stroke="#16B34C" stroke-miterlimit="10" points="340,490 340,550 310,580 310,520 	"/>
	<rect x="350" y="290" fill="none" stroke="#16B34C" stroke-miterlimit="10" width="10" height="220"/>
	<polygon fill="none" stroke="#16B34C" stroke-miterlimit="10" points="520,470 490,500 360,500 360,470 	"/>
	<rect x="360" y="500" fill="none" stroke="#16B34C" stroke-miterlimit="10" width="170" height="10"/>
	<polygon fill="none" stroke="#16B34C" stroke-miterlimit="10" points="460,510 450,520 340,520 340,510 	"/>
	<polygon fill="none" stroke="#16B34C" stroke-miterlimit="10" points="470,520 460,530 340,530 340,520 	"/>
	<rect x="340" y="530" fill="none" stroke="#16B34C" stroke-miterlimit="10" width="110" height="90"/>
	<polygon fill="none" stroke="#16B34C" stroke-miterlimit="10" points="440,620 420,640 320,640 300,620 	"/>
	<polygon fill="none" stroke="#16B34C" stroke-miterlimit="10" points="300,620 240,620 230,610 340,610 340,620 	"/>
	<polygon fill="none" stroke="#16B34C" stroke-miterlimit="10" points="210,550 230,570 240,570 240,550 	"/>
	<rect x="230" y="540" fill="none" stroke="#16B34C" stroke-miterlimit="10" width="10" height="10"/>
	<rect x="250" y="560" fill="none" stroke="#16B34C" stroke-miterlimit="10" width="50" height="10"/>
	<rect x="260" y="540" fill="none" stroke="#16B34C" stroke-miterlimit="10" width="10" height="20"/>
	<rect x="200" y="600" fill="none" stroke="#16B34C" stroke-miterlimit="10" width="140" height="10"/>
	<rect x="210" y="580" fill="none" stroke="#16B34C" stroke-miterlimit="10" width="90" height="10"/>
	<rect x="250" y="570" fill="none" stroke="#16B34C" stroke-miterlimit="10" width="50" height="10"/>
	<polygon fill="none" stroke="#16B34C" stroke-miterlimit="10" points="310,580 310,600 340,600 340,550 	"/>
	<polygon fill="none" stroke="#16B34C" stroke-miterlimit="10" points="230,590 240,600 310,600 310,590 	"/>
	<rect x="340" y="530" fill="none" stroke="#16B34C" stroke-miterlimit="10" width="10" height="90"/>
	<rect x="350" y="530" fill="none" stroke="#16B34C" stroke-miterlimit="10" width="90" height="20"/>
	<rect x="440" y="530" fill="none" stroke="#16B34C" stroke-miterlimit="10" width="10" height="90"/>
	<polygon fill="none" stroke="#16B34C" stroke-miterlimit="10" points="380,550 390,560 440,560 440,550 	"/>
	<polygon fill="none" stroke="#16B34C" stroke-miterlimit="10" points="350,550 380,550 410,580 350,580 	"/>
	<polygon fill="none" stroke="#16B34C" stroke-miterlimit="10" points="390,560 410,580 440,580 440,560 	"/>
	<polygon fill="none" stroke="#16B34C" stroke-miterlimit="10" points="390,580 370,600 350,600 350,580 	"/>
	<polygon fill="none" stroke="#16B34C" stroke-miterlimit="10" points="370,600 350,620 380,620 420,580 390,580 	"/>
	<rect x="420" y="580" fill="none" stroke="#16B34C" stroke-miterlimit="10" width="10" height="40"/>
</g>
</svg>
