<?xml version="1.0" encoding="utf-8"?>
<!-- Generator: Adobe Illustrator 17.1.0, SVG Export Plug-In . SVG Version: 6.00 Build 0)  -->
<!DOCTYPE svg PUBLIC "-//W3C//DTD SVG 1.1//EN" "http://www.w3.org/Graphics/SVG/1.1/DTD/svg11.dtd">
<svg version="1.1" id="Layer_1" xmlns="http://www.w3.org/2000/svg" xmlns:xlink="http://www.w3.org/1999/xlink" x="0px" y="0px"
	 viewBox="0 0 1000 1000" enable-background="new 0 0 1000 1000" xml:space="preserve">
<g id="Layer_1_1_">
</g>
<path fill="#F6CCD8" d="M478.978,350.542c-3.152-5.856-9.784-9.353-17.741-9.353c-4.982,0-10.121,1.348-14.861,3.899
	c-6.008,3.233-10.733,8.058-13.305,13.583c-0.176,0.378-0.34,0.757-0.493,1.136c-3.883-4.62-9.551-6.618-13.407-7.024
	c-0.056-0.006-0.112-0.01-0.169-0.013c-30.033-1.419-58.803,1.564-85.511,8.869c-21.394,5.852-41.517,14.473-59.81,25.624
	c-17.24,10.509-29.491,21.176-37.12,28.768c5.332-13.896,12.571-27.246,20.489-34.373c10.072-9.064,13.91-21.539,8.929-29.018
	c-0.42-0.631-1.015-1.373-1.819-2.113c0.842,0.083,1.699,0.133,2.576,0.133c4.982,0,10.121-1.348,14.861-3.899
	c12.683-6.827,18.697-20.382,13.404-30.215c-3.152-5.856-9.784-9.352-17.741-9.352c-4.982,0-10.121,1.348-14.861,3.9
	c-12.684,6.827-18.697,20.381-13.405,30.215c1.17,2.174,2.822,4.021,4.841,5.486c-4.86-0.137-11.428,1.193-20.258,5.376
	c-27.808,13.172-44.544,60.059-50.279,78.895c-4.641-8.382-10.39-12.932-17.106-13.506c-1.466-0.125-2.903-0.045-4.303,0.185
	c4.554-9.103,3.005-20.594-4.649-28.36c-4.747-4.816-11.052-7.469-17.753-7.469c-6.394,0-12.401,2.451-16.915,6.9
	c-9.539,9.402-9.51,24.956,0.067,34.673c4.747,4.816,11.052,7.469,17.752,7.469c0.696,0,1.386-0.034,2.072-0.092
	c-0.673,1.153-8.377,15.083-0.142,34.299c2.252,5.254,4.237,8.052,5.686,10.095c3.464,4.883,4.51,6.357,2.009,41.371l-0.069,0.957
	c-0.624,8.733-1.27,17.764-1.639,26.682c-0.494,11.921-0.693,25.749,3.216,38.995c1.129,3.824,2.702,7.383,4.223,10.825
	c0.895,2.024,1.82,4.118,2.623,6.202l0.498,1.295c3.225,8.392,6.881,17.903,12.159,25.564c4.875,7.074,13.26,15.875,25.526,17.629
	c3.071,0.439,6.069,0.656,8.983,0.656c9.555-0.001,18.173-2.345,25.274-6.93c9.76-6.3,16.109-16.534,18.361-29.594
	c2.218-12.866,0.981-21.052-0.215-28.968c-1.242-8.22-2.416-15.985,0.201-29.07c0.513-2.565,0.989-5.065,1.454-7.507
	c4.357-22.88,7.505-39.411,30.361-58.622c21.463-18.04,50.515-25.839,69.738-31c3.818-1.025,7.116-1.91,9.999-2.776
	c7.908-2.372,16.636-6.87,22.449-12.604c0.198,6.442,2.841,12.988,7.885,18.106c5.129,5.203,12.104,8.188,19.136,8.188
	c6.301,0,12.162-2.356,16.502-6.635c4.654-4.587,7.09-10.847,6.861-17.627c-0.227-6.689-3.032-13.092-7.898-18.03
	c-5.129-5.203-12.104-8.188-19.136-8.188c-6.301,0-12.161,2.356-16.502,6.634c-0.239,0.236-0.467,0.478-0.693,0.722
	c-0.716-2.582-2.334-5.395-5.501-8.166c-3.992-3.493-9.272-5.809-15.572-6.92c7.437-1.925,14.155-3.599,20.242-5.115
	c16.812-4.187,27.918-6.953,35.412-10.363c6.69-3.044,10.482-6.672,12.076-11.72c3.567,3.443,8.781,5.403,14.739,5.403
	c4.982,0,10.121-1.348,14.861-3.9c6.007-3.234,10.732-8.058,13.304-13.583C481.585,361.357,481.621,355.45,478.978,350.542z"/>
<path fill="#D4003B" d="M478.978,350.542c-3.152-5.856-9.784-9.353-17.741-9.353c-4.982,0-10.121,1.348-14.861,3.899
	c-6.008,3.233-10.733,8.058-13.305,13.583c-0.176,0.378-0.34,0.757-0.493,1.136c-3.883-4.62-9.551-6.618-13.407-7.024
	c-0.056-0.006-0.112-0.01-0.169-0.013c-30.033-1.419-58.803,1.564-85.511,8.869c-21.394,5.852-41.517,14.473-59.81,25.624
	c-17.24,10.509-29.491,21.176-37.12,28.768c5.332-13.896,12.571-27.246,20.489-34.373c10.072-9.064,13.91-21.539,8.929-29.018
	c-0.42-0.631-1.015-1.373-1.819-2.113c0.842,0.083,1.699,0.133,2.576,0.133c4.982,0,10.121-1.348,14.861-3.899
	c12.683-6.827,18.697-20.382,13.404-30.215c-3.152-5.856-9.784-9.352-17.741-9.352c-4.982,0-10.121,1.348-14.861,3.9
	c-12.684,6.827-18.697,20.381-13.405,30.215c1.17,2.174,2.822,4.021,4.841,5.486c-4.86-0.137-11.428,1.193-20.258,5.376
	c-27.808,13.172-44.544,60.059-50.279,78.895c-4.641-8.382-10.39-12.932-17.106-13.506c-1.466-0.125-2.903-0.045-4.303,0.185
	c4.554-9.103,3.005-20.594-4.649-28.36c-4.747-4.816-11.052-7.469-17.753-7.469c-6.394,0-12.401,2.451-16.915,6.9
	c-9.539,9.402-9.51,24.956,0.067,34.673c4.747,4.816,11.052,7.469,17.752,7.469c0.696,0,1.386-0.034,2.072-0.092
	c-0.673,1.153-8.377,15.083-0.142,34.299c2.252,5.254,4.237,8.052,5.686,10.095c3.464,4.883,4.51,6.357,2.009,41.371l-0.069,0.957
	c-0.624,8.733-1.27,17.764-1.639,26.682c-0.494,11.921-0.693,25.749,3.216,38.995c1.129,3.824,2.702,7.383,4.223,10.825
	c0.895,2.024,1.82,4.118,2.623,6.202l0.498,1.295c3.225,8.392,6.881,17.903,12.159,25.564c4.875,7.074,13.26,15.875,25.526,17.629
	c3.071,0.439,6.069,0.656,8.983,0.656c9.555-0.001,18.173-2.345,25.274-6.93c9.76-6.3,16.109-16.534,18.361-29.594
	c2.218-12.866,0.981-21.052-0.215-28.968c-1.242-8.22-2.416-15.985,0.201-29.07c0.513-2.565,0.989-5.065,1.454-7.507
	c4.357-22.88,7.505-39.411,30.361-58.622c21.463-18.04,50.515-25.839,69.738-31c3.818-1.025,7.116-1.91,9.999-2.776
	c7.908-2.372,16.636-6.87,22.449-12.604c0.198,6.442,2.841,12.988,7.885,18.106c5.129,5.203,12.104,8.188,19.136,8.188
	c6.301,0,12.162-2.356,16.502-6.635c4.654-4.587,7.09-10.847,6.861-17.627c-0.227-6.689-3.032-13.092-7.898-18.03
	c-5.129-5.203-12.104-8.188-19.136-8.188c-6.301,0-12.161,2.356-16.502,6.634c-0.239,0.236-0.467,0.478-0.693,0.722
	c-0.716-2.582-2.334-5.395-5.501-8.166c-3.992-3.493-9.272-5.809-15.572-6.92c7.437-1.925,14.155-3.599,20.242-5.115
	c16.812-4.187,27.918-6.953,35.412-10.363c6.69-3.044,10.482-6.672,12.076-11.72c3.567,3.443,8.781,5.403,14.739,5.403
	c4.982,0,10.121-1.348,14.861-3.9c6.007-3.234,10.732-8.058,13.304-13.583C481.585,361.357,481.621,355.45,478.978,350.542z
	 M265.182,316.262c3.888-2.092,8.064-3.198,12.079-3.198c5.761,0,10.461,2.342,12.572,6.264c3.758,6.983-1.184,16.971-11.018,22.264
	c-3.887,2.092-8.064,3.198-12.079,3.198c-5.761,0-10.461-2.342-12.572-6.264C250.406,331.542,255.348,321.555,265.182,316.262z
	 M126.822,419.367c-7.304-7.411-7.361-19.241-0.127-26.371c3.409-3.36,7.953-5.211,12.795-5.211c5.117,0,9.936,2.031,13.572,5.719
	c7.304,7.411,7.361,19.241,0.127,26.371c-3.409,3.36-7.953,5.21-12.795,5.21C135.277,425.087,130.457,423.055,126.822,419.367z
	 M394.13,424.995c3.236-3.189,7.632-4.945,12.381-4.945c5.471,0,10.922,2.347,14.955,6.438c3.829,3.885,6.036,8.895,6.212,14.108
	c0.173,5.121-1.643,9.826-5.115,13.247c-3.235,3.189-7.632,4.945-12.381,4.945c-5.471,0-10.922-2.347-14.955-6.438
	C387.388,444.397,386.897,432.125,394.13,424.995z M430.912,374.783c-0.975,9.756-10.603,12.577-43.846,20.856
	c-13.156,3.277-29.213,7.278-49.261,12.999c-21.374,5.469-46.675,18.231-75.292,37.985c-1.334,0.921-1.669,2.749-0.748,4.083
	c0.921,1.334,2.749,1.669,4.083,0.748c25.007-17.263,47.324-29.046,66.529-35.149c0.024-0.007,0.049-0.007,0.073-0.014
	c2.343-0.684,4.622-1.34,6.863-1.98c1.325-0.338,2.635-0.648,3.927-0.927c16.384-3.537,29.422-1.974,36.708,4.403
	c3.241,2.835,4.482,5.754,3.794,8.923c-1.485,6.842-12.111,14.854-24.717,18.636c-2.802,0.841-6.061,1.716-9.835,2.729
	c-19.724,5.295-49.533,13.298-71.993,32.176c-24.455,20.555-27.94,38.852-32.351,62.018c-0.462,2.425-0.934,4.906-1.444,7.454
	c-2.819,14.095-1.513,22.739-0.249,31.098c1.179,7.798,2.292,15.162,0.235,27.093c-3.905,22.65-21.535,34.546-46.002,31.053
	c-10.163-1.453-17.314-9.039-21.523-15.148c-4.883-7.087-8.406-16.253-11.514-24.339l-0.5-1.299
	c-0.854-2.217-1.808-4.377-2.731-6.466c-1.512-3.421-2.941-6.654-3.962-10.113c-3.656-12.386-3.456-25.64-2.981-37.091
	c0.366-8.83,1.008-17.817,1.629-26.507l0.069-0.957c2.554-35.752,1.557-38.655-3.077-45.186c-1.369-1.93-3.072-4.331-5.078-9.011
	c-6.866-16.021-1.038-27.487-0.256-28.9c2.612-3.3,10.598-11.2,18.23-10.543c4.802,0.41,9.121,4.164,12.836,11.158
	c1,1.883,1.868,3.899,2.626,6.014c0.006,0.016,0.011,0.032,0.017,0.048c10.028,28.087-0.16,74.186-0.272,74.684
	c-0.357,1.581,0.636,3.152,2.217,3.509c1.583,0.36,3.152-0.635,3.509-2.216c0.128-0.566,3.145-14.064,4.357-31.258
	c1.33-18.858-0.013-34.234-3.988-45.869c2.131-7.886,19.212-67.848,49.095-82.003c12.216-5.786,21.796-6.393,25.002-1.58
	c2.912,4.372,0.728,13.573-7.97,21.4c-17.927,16.134-32.083,59.927-31.474,78.882c0.051,1.588,1.354,2.841,2.932,2.841
	c0.032,0,0.064-0.001,0.096-0.001c1.62-0.052,2.891-1.408,2.839-3.028c-0.203-6.321,1.442-15.844,4.405-26.129
	c2.134-2.699,16.787-20.498,44.815-37.584c17.824-10.865,37.44-19.267,58.303-24.974c26.084-7.135,54.209-10.052,83.59-8.672
	C419.827,358.776,432.327,360.638,430.912,374.783z M473.556,364.696c-2.041,4.386-5.864,8.254-10.764,10.891
	c-3.887,2.092-8.064,3.198-12.079,3.198c-5.761,0-10.461-2.342-12.572-6.264c-1.742-3.238-1.652-7.276,0.253-11.372
	c2.041-4.386,5.864-8.254,10.765-10.891c3.887-2.092,8.064-3.198,12.079-3.198c5.761,0,10.461,2.342,12.572,6.264
	C475.552,356.561,475.462,360.6,473.556,364.696z"/>
<path fill="#D4003B" d="M139.787,396.124c-2.696,0-5.231,1.035-7.137,2.914c-4.019,3.961-4.018,10.503,0.003,14.582
	c1.988,2.017,4.632,3.128,7.443,3.128c2.696,0,5.231-1.035,7.137-2.914c1.955-1.927,3.027-4.511,3.018-7.277
	c-0.009-2.743-1.082-5.337-3.021-7.305C145.242,397.235,142.599,396.124,139.787,396.124z M143.112,409.653
	c-0.801,0.79-1.872,1.225-3.016,1.225c-1.227,0-2.386-0.49-3.262-1.379c-1.748-1.774-1.777-4.591-0.063-6.28
	c0.801-0.79,1.873-1.225,3.016-1.225c1.227,0,2.386,0.49,3.262,1.379c0.855,0.868,1.328,2.005,1.332,3.203
	C144.385,407.75,143.934,408.843,143.112,409.653z"/>
<path fill="#D4003B" d="M270.437,339.239c2.696,0,5.231-1.035,7.137-2.914c4.019-3.961,4.018-10.503-0.003-14.582
	c-1.988-2.017-4.632-3.128-7.443-3.128c-2.696,0-5.23,1.035-7.137,2.914c-1.955,1.927-3.027,4.511-3.018,7.277
	c0.009,2.743,1.082,5.337,3.021,7.305C264.983,338.128,267.626,339.239,270.437,339.239z M267.112,325.71
	c0.801-0.79,1.873-1.225,3.016-1.225c1.227,0,2.386,0.49,3.263,1.379c1.748,1.774,1.777,4.591,0.063,6.28
	c-0.801,0.79-1.873,1.225-3.017,1.225c-1.227,0-2.386-0.49-3.262-1.379c-0.855-0.868-1.328-2.005-1.332-3.203
	C265.84,327.613,266.29,326.52,267.112,325.71z"/>
<path fill="#D4003B" d="M455.82,352.61c-2.696,0-5.231,1.035-7.137,2.914c-1.955,1.927-3.027,4.511-3.018,7.277
	c0.009,2.743,1.082,5.337,3.021,7.304c1.988,2.018,4.632,3.129,7.443,3.129c2.696,0,5.231-1.035,7.137-2.914
	c4.019-3.961,4.018-10.503-0.003-14.582C461.275,353.721,458.632,352.61,455.82,352.61z M459.146,366.139
	c-0.801,0.79-1.872,1.225-3.017,1.225c-1.227,0-2.385-0.49-3.262-1.379c-0.855-0.867-1.328-2.005-1.332-3.202
	c-0.004-1.174,0.447-2.267,1.269-3.078c0.801-0.79,1.872-1.225,3.016-1.225c1.227,0,2.386,0.49,3.262,1.379
	C460.831,361.633,460.86,364.451,459.146,366.139z"/>
<path fill="#D4003B" d="M406.095,449.732c2.696,0,5.231-1.035,7.137-2.914c1.955-1.927,3.027-4.511,3.018-7.277
	c-0.009-2.743-1.082-5.337-3.021-7.305c-1.989-2.017-4.632-3.128-7.444-3.128c-2.696,0-5.231,1.035-7.137,2.914
	c-4.019,3.961-4.018,10.502,0.003,14.582C400.64,448.621,403.283,449.732,406.095,449.732z M402.77,436.202
	c0.801-0.79,1.872-1.225,3.016-1.225c1.227,0,2.386,0.49,3.263,1.379c0.855,0.867,1.328,2.005,1.332,3.202
	c0.004,1.174-0.447,2.267-1.269,3.077c-0.801,0.79-1.873,1.225-3.017,1.225c-1.227,0-2.386-0.49-3.262-1.378
	C401.084,440.709,401.056,437.891,402.77,436.202z"/>
<path fill="#F6CCD8" d="M521.146,367.173c2.572,5.526,7.296,10.35,13.304,13.583c4.74,2.551,9.879,3.9,14.861,3.9
	c5.957,0,11.171-1.96,14.739-5.403c1.594,5.049,5.386,8.676,12.076,11.72c7.494,3.41,18.601,6.176,35.412,10.363
	c6.087,1.516,12.805,3.19,20.242,5.115c-6.299,1.111-11.58,3.427-15.572,6.92c-3.167,2.771-4.785,5.584-5.501,8.166
	c-0.226-0.244-0.454-0.486-0.693-0.722c-4.341-4.278-10.201-6.634-16.502-6.634c-7.033,0-14.008,2.985-19.136,8.188
	c-4.867,4.937-7.671,11.34-7.898,18.03c-0.229,6.78,2.207,13.041,6.861,17.627c4.34,4.278,10.201,6.635,16.502,6.635
	c7.032,0,14.008-2.985,19.136-8.188c5.044-5.118,7.687-11.663,7.885-18.106c5.813,5.734,14.541,10.232,22.449,12.604
	c2.884,0.865,6.181,1.751,9.999,2.776c19.223,5.161,48.275,12.96,69.738,31c22.856,19.211,26.004,35.742,30.361,58.622
	c0.465,2.442,0.941,4.941,1.454,7.507c2.617,13.085,1.443,20.85,0.201,29.07c-1.196,7.916-2.434,16.101-0.215,28.968
	c2.252,13.059,8.601,23.293,18.361,29.594c7.101,4.585,15.72,6.929,25.274,6.93c2.913,0,5.911-0.218,8.983-0.656
	c12.266-1.753,20.652-10.554,25.526-17.629c5.279-7.661,8.934-17.172,12.159-25.564l0.498-1.295
	c0.803-2.084,1.728-4.178,2.623-6.202c1.521-3.442,3.094-7.001,4.223-10.825c3.91-13.246,3.71-27.074,3.216-38.995
	c-0.369-8.918-1.015-17.949-1.639-26.682l-0.068-0.957c-2.501-35.014-1.456-36.488,2.009-41.371
	c1.449-2.043,3.434-4.841,5.686-10.095c8.235-19.216,0.531-33.146-0.142-34.299c0.686,0.057,1.376,0.092,2.072,0.092
	c6.701,0,13.005-2.652,17.752-7.469c9.576-9.716,9.606-25.27,0.067-34.673c-4.514-4.45-10.522-6.9-16.915-6.9
	c-6.701,0-13.006,2.653-17.753,7.469c-7.654,7.765-9.203,19.257-4.649,28.36c-1.399-0.23-2.837-0.311-4.303-0.185
	c-6.716,0.574-12.465,5.124-17.106,13.506c-5.734-18.836-22.47-65.723-50.279-78.895c-8.83-4.183-15.398-5.512-20.258-5.376
	c2.019-1.465,3.671-3.312,4.841-5.486c5.293-9.834-0.721-23.388-13.405-30.215c-4.74-2.551-9.879-3.9-14.861-3.9
	c-7.957,0-14.589,3.496-17.741,9.352c-5.293,9.834,0.721,23.388,13.404,30.215c4.74,2.551,9.879,3.899,14.861,3.899
	c0.877,0,1.734-0.05,2.576-0.133c-0.804,0.74-1.399,1.483-1.819,2.113c-4.982,7.479-1.143,19.954,8.929,29.018
	c7.918,7.127,15.157,20.477,20.489,34.373c-7.629-7.592-19.88-18.259-37.12-28.768c-18.294-11.151-38.417-19.772-59.81-25.624
	c-26.708-7.305-55.478-10.287-85.511-8.869c-0.056,0.003-0.112,0.007-0.169,0.013c-3.856,0.406-9.524,2.404-13.407,7.024
	c-0.154-0.379-0.317-0.758-0.493-1.136c-2.572-5.526-7.297-10.35-13.305-13.583c-4.739-2.551-9.878-3.899-14.861-3.899
	c-7.957,0-14.589,3.496-17.741,9.353C518.403,355.45,518.438,361.357,521.146,367.173z"/>
<path fill="#D4003B" d="M521.146,367.173c2.572,5.526,7.296,10.35,13.304,13.583c4.74,2.551,9.879,3.9,14.861,3.9
	c5.957,0,11.171-1.96,14.739-5.403c1.594,5.049,5.386,8.676,12.076,11.72c7.494,3.41,18.601,6.176,35.412,10.363
	c6.087,1.516,12.805,3.19,20.242,5.115c-6.299,1.111-11.58,3.427-15.572,6.92c-3.167,2.771-4.785,5.584-5.501,8.166
	c-0.226-0.244-0.454-0.486-0.693-0.722c-4.341-4.278-10.201-6.634-16.502-6.634c-7.033,0-14.008,2.985-19.136,8.188
	c-4.867,4.937-7.671,11.34-7.898,18.03c-0.229,6.78,2.207,13.041,6.861,17.627c4.34,4.278,10.201,6.635,16.502,6.635
	c7.032,0,14.008-2.985,19.136-8.188c5.044-5.118,7.687-11.663,7.885-18.106c5.813,5.734,14.541,10.232,22.449,12.604
	c2.884,0.865,6.181,1.751,9.999,2.776c19.223,5.161,48.275,12.96,69.738,31c22.856,19.211,26.004,35.742,30.361,58.622
	c0.465,2.442,0.941,4.941,1.454,7.507c2.617,13.085,1.443,20.85,0.201,29.07c-1.196,7.916-2.434,16.101-0.215,28.968
	c2.252,13.059,8.601,23.293,18.361,29.594c7.101,4.585,15.72,6.929,25.274,6.93c2.913,0,5.911-0.218,8.983-0.656
	c12.266-1.753,20.652-10.554,25.526-17.629c5.279-7.661,8.934-17.172,12.159-25.564l0.498-1.295
	c0.803-2.084,1.728-4.178,2.623-6.202c1.521-3.442,3.094-7.001,4.223-10.825c3.91-13.246,3.71-27.074,3.216-38.995
	c-0.369-8.918-1.015-17.949-1.639-26.682l-0.068-0.957c-2.501-35.014-1.456-36.488,2.009-41.371
	c1.449-2.043,3.434-4.841,5.686-10.095c8.235-19.216,0.531-33.146-0.142-34.299c0.686,0.057,1.376,0.092,2.072,0.092
	c6.701,0,13.005-2.652,17.752-7.469c9.576-9.716,9.606-25.27,0.067-34.673c-4.514-4.45-10.522-6.9-16.915-6.9
	c-6.701,0-13.006,2.653-17.753,7.469c-7.654,7.765-9.203,19.257-4.649,28.36c-1.399-0.23-2.837-0.311-4.303-0.185
	c-6.716,0.574-12.465,5.124-17.106,13.506c-5.734-18.836-22.47-65.723-50.279-78.895c-8.83-4.183-15.398-5.512-20.258-5.376
	c2.019-1.465,3.671-3.312,4.841-5.486c5.293-9.834-0.721-23.388-13.405-30.215c-4.74-2.551-9.879-3.9-14.861-3.9
	c-7.957,0-14.589,3.496-17.741,9.352c-5.293,9.834,0.721,23.388,13.404,30.215c4.74,2.551,9.879,3.899,14.861,3.899
	c0.877,0,1.734-0.05,2.576-0.133c-0.804,0.74-1.399,1.483-1.819,2.113c-4.982,7.479-1.143,19.954,8.929,29.018
	c7.918,7.127,15.157,20.477,20.489,34.373c-7.629-7.592-19.88-18.259-37.12-28.768c-18.294-11.151-38.417-19.772-59.81-25.624
	c-26.708-7.305-55.478-10.287-85.511-8.869c-0.056,0.003-0.112,0.007-0.169,0.013c-3.856,0.406-9.524,2.404-13.407,7.024
	c-0.154-0.379-0.317-0.758-0.493-1.136c-2.572-5.526-7.297-10.35-13.305-13.583c-4.739-2.551-9.878-3.899-14.861-3.899
	c-7.957,0-14.589,3.496-17.741,9.353C518.403,355.45,518.438,361.357,521.146,367.173z M745.859,338.526
	c-2.111,3.922-6.811,6.264-12.572,6.264c-4.015,0-8.191-1.106-12.079-3.198c-9.834-5.293-14.776-15.28-11.018-22.264
	c2.111-3.922,6.811-6.264,12.572-6.264c4.015,0,8.191,1.106,12.079,3.198C744.675,321.555,749.618,331.542,745.859,338.526z
	 M859.63,425.087c-4.842,0-9.386-1.85-12.795-5.21c-7.234-7.13-7.177-18.96,0.127-26.371c3.635-3.688,8.455-5.719,13.572-5.719
	c4.842,0,9.386,1.851,12.795,5.211c7.234,7.13,7.177,18.96-0.127,26.371C869.566,423.055,864.747,425.087,859.63,425.087z
	 M604.795,452.351c-4.032,4.092-9.483,6.438-14.955,6.438c-4.749,0-9.146-1.756-12.381-4.945c-3.472-3.422-5.288-8.126-5.115-13.247
	c0.177-5.212,2.383-10.223,6.212-14.108c4.033-4.092,9.484-6.438,14.955-6.438c4.749,0,9.146,1.756,12.381,4.945
	C613.127,432.125,612.635,444.397,604.795,452.351z M581.394,358.631c29.38-1.381,57.506,1.537,83.59,8.672
	c20.863,5.706,40.479,14.109,58.303,24.974c28.029,17.085,42.681,34.885,44.815,37.584c2.963,10.285,4.608,19.808,4.405,26.129
	c-0.052,1.62,1.219,2.976,2.839,3.028c0.032,0.001,0.064,0.001,0.096,0.001c1.578,0,2.881-1.253,2.932-2.841
	c0.609-18.954-13.548-62.748-31.474-78.882c-8.697-7.828-10.882-17.028-7.97-21.4c3.206-4.813,12.786-4.207,25.002,1.58
	c29.882,14.155,46.964,74.117,49.095,82.003c-3.975,11.635-5.318,27.011-3.988,45.869c1.213,17.195,4.229,30.692,4.357,31.258
	c0.357,1.581,1.927,2.576,3.509,2.216c1.581-0.357,2.574-1.928,2.217-3.509c-0.112-0.498-10.3-46.597-0.272-74.684
	c0.006-0.016,0.012-0.032,0.017-0.048c0.757-2.115,1.625-4.131,2.626-6.014c3.716-6.994,8.034-10.748,12.836-11.158
	c7.632-0.657,15.619,7.243,18.231,10.543c0.782,1.414,6.611,12.879-0.256,28.9c-2.006,4.68-3.709,7.081-5.078,9.011
	c-4.634,6.531-5.63,9.434-3.077,45.186l0.069,0.957c0.621,8.69,1.263,17.677,1.629,26.507c0.474,11.451,0.674,24.705-2.981,37.091
	c-1.021,3.459-2.45,6.691-3.962,10.113c-0.923,2.089-1.878,4.249-2.731,6.466l-0.5,1.299c-3.108,8.086-6.631,17.252-11.514,24.339
	c-4.209,6.109-11.36,13.695-21.523,15.148c-24.467,3.492-42.097-8.403-46.002-31.053c-2.057-11.931-0.944-19.295,0.235-27.093
	c1.264-8.359,2.57-17.004-0.249-31.098c-0.509-2.548-0.982-5.029-1.444-7.454c-4.411-23.165-7.896-41.463-32.351-62.018
	c-22.46-18.878-52.268-26.881-71.993-32.176c-3.773-1.013-7.033-1.888-9.835-2.729c-12.607-3.782-23.232-11.793-24.717-18.636
	c-0.688-3.169,0.553-6.088,3.794-8.923c7.286-6.377,20.324-7.94,36.708-4.403c1.292,0.279,2.602,0.589,3.927,0.927
	c2.242,0.64,4.52,1.295,6.863,1.98c0.024,0.007,0.049,0.007,0.073,0.014c19.205,6.103,41.521,17.886,66.529,35.149
	c1.334,0.921,3.162,0.586,4.083-0.748c0.921-1.334,0.586-3.162-0.748-4.083c-28.617-19.754-53.918-32.516-75.292-37.985
	c-20.049-5.721-36.105-9.722-49.261-12.999c-33.243-8.279-42.87-11.1-43.846-20.856
	C567.697,360.638,580.197,358.776,581.394,358.631z M526.214,353.324c2.111-3.922,6.811-6.264,12.572-6.264
	c4.015,0,8.191,1.106,12.079,3.198c4.9,2.637,8.724,6.505,10.765,10.891c1.906,4.096,1.996,8.134,0.253,11.372
	c-2.111,3.922-6.811,6.264-12.572,6.264c-4.015,0-8.191-1.106-12.079-3.198c-4.901-2.637-8.723-6.505-10.764-10.891
	C524.562,360.6,524.472,356.561,526.214,353.324z"/>
<path fill="#D4003B" d="M852.793,399.253c-1.94,1.968-3.013,4.562-3.021,7.305c-0.009,2.766,1.063,5.35,3.018,7.277
	c1.906,1.879,4.441,2.914,7.137,2.914c2.811,0,5.455-1.111,7.443-3.128c4.02-4.08,4.022-10.621,0.003-14.582
	c-1.906-1.879-4.441-2.914-7.137-2.914C857.425,396.124,854.782,397.235,852.793,399.253z M855.642,406.576
	c0.004-1.198,0.477-2.335,1.332-3.203c0.876-0.889,2.035-1.379,3.262-1.379c1.144,0,2.215,0.435,3.016,1.225
	c1.714,1.689,1.685,4.506-0.063,6.28c-0.876,0.889-2.035,1.379-3.262,1.379c-1.144,0-2.215-0.435-3.016-1.225
	C856.089,408.843,855.639,407.75,855.642,406.576z"/>
<path fill="#D4003B" d="M737.029,336.111c1.939-1.968,3.013-4.562,3.021-7.305c0.009-2.766-1.063-5.35-3.018-7.277
	c-1.907-1.879-4.441-2.914-7.137-2.914c-2.811,0-5.455,1.111-7.443,3.128c-4.021,4.079-4.023,10.621-0.003,14.582
	c1.907,1.879,4.441,2.914,7.137,2.914C732.398,339.239,735.041,338.128,737.029,336.111z M734.18,328.787
	c-0.004,1.198-0.477,2.335-1.332,3.203c-0.876,0.889-2.035,1.379-3.262,1.379c-1.144,0-2.215-0.435-3.017-1.225
	c-1.714-1.689-1.685-4.506,0.063-6.28c0.877-0.889,2.035-1.379,3.263-1.379c1.144,0,2.215,0.435,3.016,1.225
	C733.733,326.52,734.184,327.613,734.18,328.787z"/>
<path fill="#D4003B" d="M536.76,355.738c-4.021,4.08-4.023,10.621-0.003,14.582c1.907,1.879,4.441,2.914,7.137,2.914
	c2.811,0,5.455-1.111,7.443-3.129c1.939-1.968,3.013-4.562,3.021-7.304c0.009-2.766-1.063-5.35-3.018-7.277
	c-1.906-1.879-4.441-2.914-7.137-2.914C541.392,352.61,538.748,353.721,536.76,355.738z M540.941,359.859
	c0.876-0.889,2.035-1.379,3.262-1.379c1.144,0,2.215,0.435,3.016,1.225c0.822,0.81,1.273,1.903,1.269,3.078
	c-0.004,1.198-0.477,2.335-1.332,3.202c-0.877,0.889-2.035,1.379-3.262,1.379c-1.144,0-2.215-0.435-3.017-1.225
	C539.164,364.451,539.193,361.633,540.941,359.859z"/>
<path fill="#D4003B" d="M601.372,446.604c4.02-4.08,4.022-10.621,0.003-14.582c-1.906-1.879-4.441-2.914-7.137-2.914
	c-2.811,0-5.455,1.111-7.444,3.128c-1.939,1.968-3.013,4.562-3.021,7.305c-0.009,2.766,1.063,5.35,3.018,7.277
	c1.907,1.879,4.441,2.914,7.137,2.914C596.74,449.732,599.384,448.621,601.372,446.604z M597.191,442.483
	c-0.876,0.889-2.035,1.378-3.262,1.378c-1.144,0-2.215-0.435-3.017-1.225c-0.822-0.81-1.273-1.903-1.269-3.077
	c0.004-1.198,0.477-2.335,1.332-3.202c0.877-0.889,2.035-1.379,3.263-1.379c1.144,0,2.215,0.435,3.016,1.225
	C598.967,437.891,598.939,440.709,597.191,442.483z"/>
</svg>
