<?xml version="1.0" encoding="utf-8"?>
<!-- Generator: Adobe Illustrator 17.1.0, SVG Export Plug-In . SVG Version: 6.00 Build 0)  -->
<!DOCTYPE svg PUBLIC "-//W3C//DTD SVG 1.1//EN" "http://www.w3.org/Graphics/SVG/1.1/DTD/svg11.dtd">
<svg version="1.1" id="Layer_1" xmlns="http://www.w3.org/2000/svg" xmlns:xlink="http://www.w3.org/1999/xlink" x="0px" y="0px"
	 viewBox="0 0 1000 1000" enable-background="new 0 0 1000 1000" xml:space="preserve">
<g id="Layer_1_1_">
</g>
<path fill="#FFCCD0" d="M669.221,413.142c-1.486-1.447-3.717-2.845-6.584-4.063c10.728-2.09,25.932-7.167,28.092-19.285
	c1.042-5.838-0.507-11.167-4.477-15.411c-6.958-7.438-21.22-11.351-41.086-11.485c3.322-3.684,6.946-9.241,6.161-15.415
	c-0.879-6.911-6.961-12.651-18.079-17.063c-5.523-2.188-13.149-3.644-23.051-2.233c-2.232-5.341-5.692-9.021-10.311-10.945
	c-7.175-2.988-15.119-0.808-18.91,0.598c-1.576-2.786-3.575-5.343-6.152-7.374c-4.98-3.926-11.29-5.182-18.755-3.738
	c-0.618,0.12-1.24,0.263-1.862,0.418c-5.123-6.666-11.337-10.431-18.485-11.195c-6.195-0.663-12.131,1.044-17.009,3.31
	c-2.66-2.79-9.006-8.324-17.8-8.714c-7.668-0.339-15.201,3.303-22.406,10.804c-7.506-0.53-14.554,1.518-20.626,4.499
	c-5.79-3.142-31.488-14.894-50.337,11.973c-1.678-0.219-3.504-0.286-5.483-0.191c-9.199,0.443-17.223,4.175-21.464,9.983
	c-2.975,4.074-4.003,9.015-3.026,14.386c-1.156,0.643-2.332,1.382-3.522,2.192c-4.231-0.455-20.848-1.564-29.134,7.867
	c-4.651,5.295-5.778,12.796-3.374,22.3c-1.336,1.698-2.546,3.636-3.593,5.869c-0.919,1.96-1.582,3.931-1.996,5.907
	c-6.369,1.83-28.586,9.909-26.905,33.156c0.012,0.162,0.039,0.322,0.082,0.479c1.276,4.668,5.821,12.404,14.802,15.118
	c1.98,0.599,4.179,0.95,6.603,0.973c0.6,2.388,1.595,4.893,3.113,7.511c11.861,20.457,37.803,13.817,41.101,12.873
	c3.76-0.16,46.151-1.265,67.853,27.691c0.331,0.442,0.782,0.743,1.274,0.892c0.728,0.22,1.546,0.107,2.205-0.375
	c0.094-0.068,9.285-6.68,24.671-10.451c0.257,0.047,0.521,0.067,0.793,0.029c0.438-0.062,0.826-0.243,1.155-0.493
	c14.921-3.298,38.258-4.314,65.831,8.941c0.901,0.432,1.982,0.286,2.736-0.378c0.488-0.43,49.28-42.914,88.809-31.463
	c19.239,5.573,34.257,1.92,41.205-10.021C676.495,431.65,675.572,419.325,669.221,413.142z"/>
<path fill="#FF0015" d="M669.221,413.142c-1.486-1.447-3.717-2.845-6.584-4.063c10.728-2.09,25.932-7.167,28.092-19.285
	c1.042-5.838-0.507-11.167-4.477-15.411c-6.958-7.438-21.22-11.351-41.086-11.485c3.322-3.684,6.946-9.241,6.161-15.415
	c-0.879-6.911-6.961-12.651-18.079-17.063c-5.523-2.188-13.149-3.644-23.051-2.233c-2.232-5.341-5.692-9.021-10.311-10.945
	c-7.175-2.988-15.119-0.808-18.91,0.598c-1.576-2.786-3.575-5.343-6.152-7.374c-4.98-3.926-11.29-5.182-18.755-3.738
	c-0.618,0.12-1.24,0.263-1.862,0.418c-5.123-6.666-11.337-10.431-18.485-11.195c-6.195-0.663-12.131,1.044-17.009,3.31
	c-2.66-2.79-9.006-8.324-17.8-8.714c-7.668-0.339-15.201,3.303-22.406,10.804c-7.506-0.53-14.554,1.518-20.626,4.499
	c-5.79-3.142-31.488-14.894-50.337,11.973c-1.678-0.219-3.504-0.286-5.483-0.191c-9.199,0.443-17.223,4.175-21.464,9.983
	c-2.975,4.074-4.003,9.015-3.026,14.386c-1.156,0.643-2.332,1.382-3.522,2.192c-4.231-0.455-20.848-1.564-29.134,7.867
	c-4.651,5.295-5.778,12.796-3.374,22.3c-1.336,1.698-2.546,3.636-3.593,5.869c-0.919,1.96-1.582,3.931-1.996,5.907
	c-6.369,1.83-28.586,9.909-26.905,33.156c0.012,0.162,0.039,0.322,0.082,0.479c1.276,4.668,5.821,12.404,14.802,15.118
	c1.98,0.599,4.179,0.95,6.603,0.973c0.6,2.388,1.595,4.893,3.113,7.511c11.861,20.457,37.803,13.817,41.101,12.873
	c3.76-0.16,46.151-1.265,67.853,27.691c0.331,0.442,0.782,0.743,1.274,0.892c0.728,0.22,1.546,0.107,2.205-0.375
	c0.094-0.068,9.285-6.68,24.671-10.451c0.257,0.047,0.521,0.067,0.793,0.029c0.438-0.062,0.826-0.243,1.155-0.493
	c14.921-3.298,38.258-4.314,65.831,8.941c0.901,0.432,1.982,0.286,2.736-0.378c0.488-0.43,49.28-42.914,88.809-31.463
	c19.239,5.573,34.257,1.92,41.205-10.021C676.495,431.65,675.572,419.325,669.221,413.142z M631.404,335.069
	c9.29,3.686,14.324,8.071,14.962,13.035c0.866,6.738-6.465,13.208-8.564,14.909c-5.064,0.185-10.43,0.583-16.09,1.208
	c-23.654,2.612-47.775,15.095-67.922,35.15c-19.663,19.574-33.486,44.241-39.014,69.541c-0.582-0.129-1.154-0.24-1.729-0.357
	c1.311-6.635,13.055-60.873,50.876-88.039c1.122-0.805,1.378-2.367,0.572-3.489c-0.805-1.122-2.367-1.378-3.489-0.572
	c-39.886,28.647-51.521,84.004-52.885,91.214c-0.217-0.034-0.435-0.07-0.651-0.103c2.804-21.306,6.149-40.676,16.056-60.281
	c13.147-26.02,32.727-47.842,55.134-61.444c2.004-1.217,4.137-2.436,6.364-3.618c0.035-0.016,0.067-0.036,0.101-0.053
	c7.115-3.766,15.222-7.123,23.472-8.669c0.262-0.001,0.528-0.042,0.79-0.13c0.017-0.006,0.032-0.016,0.049-0.022
	C616.878,332.069,624.409,332.296,631.404,335.069z M494.9,466.454l-3.311-107.733c-0.042-1.38-1.191-2.464-2.576-2.422
	c-1.38,0.042-2.464,1.196-2.422,2.576l3.13,101.827l-14.675-97.748c-0.006-0.04-0.013-0.081-0.021-0.12
	c-1.31-6.533-1.738-12.211-1.572-17.157c0-0.035,0.004-0.069,0.003-0.104c0.809-22.895,14.62-29.779,15.323-30.113
	c0.052-0.024,0.102-0.049,0.152-0.077c20.249-11.08,33.441,3.061,37.322,8.158c-4.668,4.305-8.388,8.724-10.478,12.365
	c-6.684,11.643-10.264,25.547-13.138,38.839c-5.63,26.047-8.061,55.222-7.649,91.71C494.957,466.454,494.929,466.454,494.9,466.454z
	 M483.74,466.808c-0.424-6.212-1.919-23.313-6.456-43.28c-9.56-42.071-25.066-64.408-36.391-75.738
	c-0.976-0.978-2.559-0.978-3.535-0.001c-0.977,0.976-0.977,2.559-0.001,3.535c34.259,34.278,40.517,103.016,41.407,116.042
	c-0.151,0.021-0.292,0.047-0.442,0.069c-1.222-30.952-9.48-46.066-10.145-47.234c-7.737-14.734-17.566-29.07-29.216-42.612
	c-2.574-2.992-5.623-5.886-8.852-8.95c-5.75-5.456-11.695-11.098-14.617-17.184c-1.249-2.601-2.158-6.304-2.559-10.431
	c-0.519-5.312,0.393-9.486,2.709-12.404c2.068-2.605,6.503-5.309,10.062-5.136c24.553,1.194,39.851,19.271,42.717,22.949
	c-0.093,5.085,0.391,10.828,1.689,17.324l15.45,102.906C484.944,466.704,484.341,466.755,483.74,466.808z M473.172,468.326
	c-1.081-5.653-4.145-18.99-11.302-34.803c-8.616-19.038-25.041-45.269-54.356-62.114c-1.198-0.687-2.725-0.274-3.413,0.922
	c-0.688,1.197-0.275,2.725,0.922,3.413c43.251,24.852,58.045,71.342,62.248,89.057l-9.71-19.034
	c-6.288-12.181-19.859-25.429-40.338-39.377c-15.127-10.303-28.642-17.199-28.776-17.267c-0.004-0.002-0.008-0.004-0.012-0.006
	c-2.653-1.825-17.96-17.106-18.194-29.344c-0.086-4.496,1.836-8.077,5.877-10.949c16.65-11.835,29.528-4.427,32.592-2.304
	c0.482,2.351,1.195,4.85,2.275,7.098c3.321,6.915,9.605,12.879,15.682,18.646c3.134,2.974,6.094,5.784,8.503,8.584
	c11.414,13.269,21.036,27.304,28.601,41.717c0.015,0.029,0.033,0.062,0.049,0.09c0.085,0.147,8.432,15.006,9.532,45.635
	C473.293,468.302,473.232,468.313,473.172,468.326z M464.267,470.596c-3.41-5.899-25.383-41.146-75.462-63.623
	c-1.257-0.564-2.74-0.002-3.305,1.257s-0.003,2.739,1.257,3.305c46.101,20.692,68.103,53.298,72.65,60.701
	c-0.618,0.228-1.22,0.457-1.805,0.687c-11.937-25.502-34.695-35.665-35.633-36.072c-9.88-4.531-20.406-7.235-30.586-9.85
	c-9.337-2.399-18.994-4.879-27.848-8.74c-8.179-3.566-18.195-10.762-21.777-20.261c-1.959-5.194-1.719-10.46,0.714-15.649
	c2.602-5.549,6.192-9.014,10.67-10.3c7.362-2.113,15.28,2.075,17.196,3.188c5.453,9.262,13.627,16.955,15.858,18.311l-0.016,0.031
	c0.526,0.267,52.774,27.043,66.931,54.469l11.456,22.455C464.469,470.536,464.366,470.565,464.267,470.596z M489.417,309.547
	c-0.928,0.426-1.869,0.893-2.823,1.414c-1.411,0.68-14.731,7.641-17.629,28.395c-4.636-4.991-13.171-12.63-25.235-17.171
	C450.481,315.476,469.527,299.506,489.417,309.547z M597.963,321.858c3.067,1.277,5.459,3.729,7.159,7.267
	c-5.646,1.279-11.938,3.461-18.91,6.871c-0.406-4.039-1.281-8.937-3.094-13.616C586.339,321.234,592.578,319.62,597.963,321.858z
	 M571.729,314.393c7.271,5.731,9.205,17.056,9.679,24.095c-1.742,0.952-3.521,1.975-5.342,3.08
	c-23.195,14.082-43.44,36.62-57.002,63.463c-9.632,19.062-13.242,37.7-16.018,57.927c0.605-16.487,4.128-66.635,24.633-94.098
	c0.826-1.107,0.599-2.673-0.508-3.499c-1.106-0.827-2.671-0.599-3.499,0.507c-13.837,18.532-20.239,46.08-23.202,67.969
	c0.968-21.663,3.279-40.581,7.053-58.037c2.788-12.897,6.242-26.355,12.587-37.406c5.166-8.998,22.112-23.895,36.908-26.757
	C562.993,310.482,567.944,311.41,571.729,314.393z M535.189,300.923c5.221,0.557,9.883,3.202,13.895,7.858
	c-6.715,2.587-13.383,6.828-19.082,11.498c-2.619-3.29-8.244-9.27-16.403-12.252c1.492-1.056,3.39-2.275,5.572-3.41
	c0.026-0.012,0.05-0.026,0.076-0.039C523.738,302.253,529.409,300.305,535.189,300.923z M500.649,295.541
	c6.101,0.253,10.879,3.8,13.432,6.188c-3.192,1.922-5.55,3.801-6.681,4.761c-3.602-0.48-7.565-0.311-11.862,0.833
	c-3.669-2.412-7.32-4.008-10.902-4.952C489.963,297.62,495.335,295.32,500.649,295.541z M452.628,308.782
	c-6.951,4.346-12.044,9.395-14.193,11.693c-3.864-1.053-8.026-1.77-12.489-1.986c-3.328-0.162-6.786,1.112-9.645,2.963
	c-1.028-0.912-2.216-1.667-3.57-2.257C427.062,300.303,444.961,305.339,452.628,308.782z M384.634,330.563
	c3.308-4.53,10.077-7.571,17.666-7.937c3.236-0.155,7.333,0.143,10.091,2.106c-0.234,0.258-0.459,0.517-0.665,0.778
	c-2.958,3.726-4.234,8.715-3.844,14.812c-1.812-0.865-4.099-1.741-6.792-2.324c-4.648-1.008-11.201-1.247-18.784,1.759
	C381.944,336.284,382.711,333.197,384.634,330.563z M348.664,355.368c4.906-5.594,14.21-6.504,20.161-6.451
	c-3.034,3.913-4.174,8.689-3.292,14.082c0.282,1.727,0.766,3.467,1.403,5.195c-4.096-1.446-9.619-2.532-15.138-0.958
	c-2.191,0.625-4.205,1.619-6.041,2.966C344.654,363.819,345.622,358.837,348.664,355.368z M314.015,418.664
	c-0.588-9.276,3.252-16.774,11.418-22.289c3.662-2.474,7.438-4.003,10.015-4.863c0.059,2.754,0.599,5.509,1.634,8.253
	c1.134,3.006,2.863,5.939,5.072,8.709c-4.254,3.285-12.601,11.192-12.316,22.371C318.195,430.327,314.537,420.31,314.015,418.664z
	 M445.15,479.075c-24.558-30.341-69.061-27.927-70.98-27.807c-0.208,0.013-0.413,0.052-0.61,0.115
	c-0.249,0.081-24.972,7.792-35.588-10.518c-8.657-14.933,3.012-25.394,7.527-28.696c4.314,4.253,9.798,7.953,16.04,10.675
	c9.221,4.02,19.074,6.552,28.603,8.999c9.965,2.56,20.272,5.207,29.79,9.572c0.222,0.097,21.887,9.766,33.071,33.468
	c-0.575,0.265-1.123,0.527-1.65,0.785c-0.029-0.049-0.048-0.101-0.08-0.149c-1.047-1.545-26.368-37.866-89.61-39.596
	c-1.38-0.038-2.53,1.051-2.568,2.431c-0.038,1.381,1.05,2.531,2.431,2.568c57.539,1.571,82.815,33.618,85.388,37.099
	C446.24,478.409,445.648,478.765,445.15,479.075z M519.631,470.111c5.305-24.419,18.663-48.258,37.688-67.197
	c19.347-19.26,42.411-31.236,64.943-33.724c30.116-3.326,52.112-0.188,60.34,8.608c2.892,3.091,3.971,6.832,3.207,11.117
	c-1.324,7.424-10.255,11.522-17.515,13.653c-8.364,2.455-16.53,2.921-16.611,2.925c-0.42,0.023-0.804,0.157-1.141,0.359
	c-4.975-0.738-10.699-1.014-17.059-0.582c-49.234,3.345-87.435,43.072-106.001,66.741c2.528-7.815,17.428-49.867,48.789-62.233
	c1.284-0.506,1.915-1.958,1.409-3.243c-0.506-1.284-1.959-1.914-3.243-1.409c-15.257,6.016-29.12,19.496-40.092,38.984
	c-7.039,12.5-10.753,23.567-11.771,26.82C521.583,470.638,520.606,470.374,519.631,470.111z M666.957,438.102
	c-5.699,9.797-18.636,12.616-35.492,7.733c-17.531-5.078-39.298-1.029-62.949,11.709c-14.669,7.9-25.679,16.704-29.297,19.731
	c-0.395-0.184-0.785-0.349-1.179-0.527c3.546-5.953,15.631-22.764,44.503-34.594c1.277-0.523,1.888-1.984,1.365-3.261
	c-0.524-1.278-1.982-1.89-3.262-1.366c-31.268,12.811-43.732,30.989-47.253,37.224c-0.429-0.174-0.862-0.362-1.289-0.53
	c41.453-52.42,81.464-62.584,101.717-63.959c17.332-1.178,28.579,3.219,31.912,6.463
	C669.945,420.825,671.442,430.393,666.957,438.102z"/>
<path fill="#FFCCD0" d="M671.279,559.384c-6.948-11.941-21.966-15.594-41.205-10.021c-39.529,11.45-88.321-31.033-88.809-31.463
	c-0.754-0.664-1.835-0.81-2.736-0.378c-27.573,13.255-50.91,12.238-65.831,8.941c-0.329-0.25-0.717-0.431-1.155-0.492
	c-0.272-0.039-0.536-0.018-0.793,0.029c-15.387-3.772-24.578-10.383-24.671-10.451c-0.659-0.482-1.478-0.595-2.205-0.375
	c-0.492,0.149-0.942,0.45-1.274,0.892c-21.702,28.956-64.093,27.852-67.853,27.691c-3.299-0.945-29.241-7.584-41.101,12.873
	c-1.518,2.618-2.512,5.122-3.113,7.511c-2.424,0.024-4.623,0.375-6.603,0.973c-8.981,2.715-13.526,10.45-14.802,15.118
	c-0.043,0.156-0.07,0.317-0.082,0.479c-1.681,23.247,20.536,31.326,26.905,33.156c0.415,1.976,1.077,3.947,1.996,5.907
	c1.047,2.233,2.257,4.171,3.593,5.869c-2.404,9.503-1.277,17.005,3.374,22.3c8.285,9.431,24.902,8.323,29.134,7.867
	c1.189,0.81,2.366,1.549,3.522,2.192c-0.977,5.37,0.051,10.311,3.026,14.386c4.241,5.808,12.265,9.54,21.464,9.983
	c1.979,0.095,3.805,0.028,5.483-0.191c18.848,26.867,44.547,15.115,50.337,11.973c6.072,2.981,13.119,5.029,20.626,4.499
	c7.206,7.501,14.738,11.142,22.406,10.804c8.794-0.389,15.141-5.924,17.8-8.714c4.878,2.266,10.814,3.973,17.009,3.31
	c7.148-0.764,13.363-4.529,18.485-11.195c0.622,0.155,1.244,0.298,1.862,0.418c7.465,1.444,13.775,0.188,18.755-3.738
	c2.577-2.031,4.577-4.588,6.152-7.374c3.791,1.406,11.735,3.586,18.91,0.598c4.619-1.924,8.079-5.604,10.311-10.945
	c9.902,1.41,17.528-0.045,23.051-2.233c11.118-4.411,17.201-10.152,18.079-17.063c0.785-6.174-2.839-11.731-6.161-15.415
	c19.866-0.134,34.128-4.048,41.086-11.485c3.97-4.244,5.519-9.573,4.477-15.411c-2.16-12.118-17.364-17.195-28.092-19.285
	c2.866-1.218,5.098-2.616,6.584-4.063C675.572,580.675,676.495,568.351,671.279,559.384z"/>
<path fill="#FF0015" d="M671.279,559.384c-6.948-11.941-21.966-15.594-41.205-10.021c-39.529,11.45-88.321-31.033-88.809-31.463
	c-0.754-0.664-1.835-0.81-2.736-0.378c-27.573,13.255-50.91,12.238-65.831,8.941c-0.329-0.25-0.717-0.431-1.155-0.492
	c-0.272-0.039-0.536-0.018-0.793,0.029c-15.387-3.772-24.578-10.383-24.671-10.451c-0.659-0.482-1.478-0.595-2.205-0.375
	c-0.492,0.149-0.942,0.45-1.274,0.892c-21.702,28.956-64.093,27.852-67.853,27.691c-3.299-0.945-29.241-7.584-41.101,12.873
	c-1.518,2.618-2.512,5.122-3.113,7.511c-2.424,0.024-4.623,0.375-6.603,0.973c-8.981,2.715-13.526,10.45-14.802,15.118
	c-0.043,0.156-0.07,0.317-0.082,0.479c-1.681,23.247,20.536,31.326,26.905,33.156c0.415,1.976,1.077,3.947,1.996,5.907
	c1.047,2.233,2.257,4.171,3.593,5.869c-2.404,9.503-1.277,17.005,3.374,22.3c8.285,9.431,24.902,8.323,29.134,7.867
	c1.189,0.81,2.366,1.549,3.522,2.192c-0.977,5.37,0.051,10.311,3.026,14.386c4.241,5.808,12.265,9.54,21.464,9.983
	c1.979,0.095,3.805,0.028,5.483-0.191c18.848,26.867,44.547,15.115,50.337,11.973c6.072,2.981,13.119,5.029,20.626,4.499
	c7.206,7.501,14.738,11.142,22.406,10.804c8.794-0.389,15.141-5.924,17.8-8.714c4.878,2.266,10.814,3.973,17.009,3.31
	c7.148-0.764,13.363-4.529,18.485-11.195c0.622,0.155,1.244,0.298,1.862,0.418c7.465,1.444,13.775,0.188,18.755-3.738
	c2.577-2.031,4.577-4.588,6.152-7.374c3.791,1.406,11.735,3.586,18.91,0.598c4.619-1.924,8.079-5.604,10.311-10.945
	c9.902,1.41,17.528-0.045,23.051-2.233c11.118-4.411,17.201-10.152,18.079-17.063c0.785-6.174-2.839-11.731-6.161-15.415
	c19.866-0.134,34.128-4.048,41.086-11.485c3.97-4.244,5.519-9.573,4.477-15.411c-2.16-12.118-17.364-17.195-28.092-19.285
	c2.866-1.218,5.098-2.616,6.584-4.063C675.572,580.675,676.495,568.351,671.279,559.384z M609.436,666.65
	c-0.017-0.006-0.031-0.016-0.049-0.022c-0.262-0.088-0.528-0.129-0.79-0.13c-8.25-1.546-16.358-4.903-23.472-8.669
	c-0.034-0.017-0.066-0.037-0.101-0.053c-2.227-1.182-4.36-2.401-6.364-3.618c-22.408-13.602-41.988-35.423-55.134-61.444
	c-9.906-19.605-13.252-38.976-16.056-60.281c0.216-0.032,0.434-0.069,0.651-0.103c1.365,7.21,13,62.567,52.885,91.214
	c1.121,0.806,2.683,0.55,3.489-0.572c0.806-1.121,0.55-2.684-0.572-3.489c-37.821-27.166-49.565-81.404-50.876-88.039
	c0.576-0.117,1.148-0.229,1.729-0.357c5.528,25.301,19.351,49.967,39.014,69.541c20.147,20.055,44.269,32.538,67.922,35.15
	c5.659,0.625,11.026,1.023,16.09,1.208c2.099,1.701,9.43,8.171,8.564,14.909c-0.638,4.963-5.672,9.349-14.962,13.035
	C624.409,667.704,616.878,667.931,609.436,666.65z M494.986,533.546c-0.412,36.488,2.019,65.662,7.649,91.71
	c2.874,13.292,6.454,27.196,13.138,38.839c2.091,3.642,5.81,8.06,10.478,12.365c-3.881,5.097-17.074,19.238-37.322,8.158
	c-0.05-0.027-0.1-0.053-0.152-0.077c-0.703-0.334-14.514-7.217-15.323-30.113c0.001-0.035-0.002-0.069-0.003-0.104
	c-0.166-4.947,0.262-10.624,1.572-17.157c0.008-0.04,0.015-0.08,0.021-0.12l14.675-97.748l-3.13,101.827
	c-0.042,1.38,1.042,2.533,2.422,2.576c1.386,0.041,2.534-1.043,2.576-2.422l3.311-107.732
	C494.929,533.546,494.957,533.546,494.986,533.546z M485.559,533.338l-15.45,102.906c-1.298,6.496-1.782,12.239-1.689,17.324
	c-2.866,3.679-18.164,21.755-42.717,22.949c-3.559,0.173-7.994-2.531-10.062-5.136c-2.316-2.918-3.228-7.092-2.709-12.404
	c0.402-4.126,1.311-7.83,2.559-10.431c2.923-6.086,8.868-11.727,14.617-17.184c3.229-3.064,6.278-5.958,8.852-8.95
	c11.65-13.543,21.479-27.878,29.216-42.612c0.665-1.168,8.924-16.282,10.145-47.234c0.15,0.022,0.291,0.048,0.442,0.069
	c-0.89,13.026-7.148,81.764-41.407,116.042c-0.976,0.977-0.976,2.559,0.001,3.535c0.976,0.977,2.56,0.977,3.535-0.001
	c11.324-11.33,26.83-33.667,36.391-75.738c4.537-19.967,6.032-37.068,6.456-43.28C484.341,533.245,484.944,533.296,485.559,533.338z
	 M473.353,531.71c-1.101,30.629-9.447,45.488-9.532,45.635c-0.016,0.028-0.035,0.061-0.049,0.09
	c-7.565,14.413-17.187,28.448-28.601,41.717c-2.409,2.8-5.369,5.61-8.503,8.584c-6.077,5.768-12.362,11.731-15.682,18.646
	c-1.08,2.249-1.793,4.747-2.275,7.098c-3.064,2.123-15.942,9.531-32.592-2.304c-4.041-2.872-5.963-6.453-5.877-10.949
	c0.234-12.238,15.541-27.519,18.194-29.344c0.004-0.002,0.008-0.004,0.012-0.006c0.134-0.069,13.65-6.965,28.776-17.267
	c20.479-13.948,34.05-27.197,40.338-39.377l9.71-19.034c-4.202,17.715-18.997,64.204-62.248,89.057
	c-1.197,0.688-1.61,2.216-0.922,3.413s2.216,1.609,3.413,0.922c29.315-16.845,45.739-43.076,54.356-62.114
	c7.157-15.813,10.22-29.15,11.302-34.803C473.232,531.687,473.293,531.698,473.353,531.71z M464.569,529.495l-11.456,22.455
	c-14.157,27.426-66.405,54.202-66.931,54.469l0.016,0.031c-2.231,1.355-10.405,9.049-15.858,18.31
	c-1.916,1.113-9.834,5.302-17.196,3.188c-4.478-1.286-8.068-4.751-10.67-10.3c-2.432-5.189-2.673-10.454-0.714-15.649
	c3.582-9.499,13.597-16.694,21.777-20.261c8.854-3.862,18.51-6.341,27.848-8.74c10.18-2.615,20.706-5.318,30.586-9.85
	c0.937-0.407,23.695-10.57,35.633-36.072c0.585,0.23,1.188,0.459,1.805,0.687c-4.547,7.403-26.549,40.009-72.65,60.701
	c-1.26,0.566-1.823,2.045-1.257,3.305c0.565,1.26,2.048,1.821,3.305,1.257c50.078-22.478,72.052-57.724,75.462-63.623
	C464.366,529.435,464.469,529.464,464.569,529.495z M443.73,677.816c12.064-4.542,20.598-12.18,25.235-17.171
	c2.898,20.754,16.218,27.715,17.629,28.395c0.955,0.52,1.895,0.988,2.823,1.414C469.527,700.494,450.481,684.524,443.73,677.816z
	 M583.118,677.618c1.812-4.679,2.688-9.577,3.094-13.616c6.971,3.41,13.264,5.592,18.91,6.872c-1.7,3.538-4.092,5.99-7.159,7.267
	C592.578,680.38,586.339,678.766,583.118,677.618z M557.018,688.363c-14.796-2.862-31.742-17.759-36.908-26.757
	c-6.344-11.051-9.799-24.509-12.587-37.406c-3.773-17.455-6.084-36.374-7.053-58.037c2.963,21.889,9.365,49.437,23.202,67.969
	c0.827,1.106,2.393,1.334,3.499,0.507c1.107-0.826,1.335-2.392,0.508-3.499c-20.505-27.463-24.029-77.612-24.633-94.098
	c2.776,20.227,6.386,38.865,16.018,57.927c13.562,26.844,33.807,49.382,57.002,63.463c1.821,1.105,3.6,2.128,5.342,3.08
	c-0.475,7.039-2.409,18.364-9.679,24.095C567.944,688.59,562.993,689.518,557.018,688.363z M519.247,695.422
	c-0.025-0.013-0.05-0.027-0.076-0.039c-2.182-1.135-4.08-2.354-5.572-3.41c8.159-2.982,13.783-8.962,16.403-12.252
	c5.699,4.671,12.366,8.911,19.082,11.498c-4.012,4.656-8.674,7.302-13.895,7.858C529.409,699.695,523.738,697.747,519.247,695.422z
	 M484.636,697.629c3.583-0.944,7.234-2.54,10.902-4.952c4.297,1.144,8.26,1.314,11.862,0.833c1.131,0.96,3.489,2.839,6.681,4.761
	c-2.553,2.388-7.332,5.935-13.432,6.188C495.335,704.68,489.963,702.38,484.636,697.629z M412.731,680.805
	c1.353-0.589,2.541-1.345,3.57-2.257c2.86,1.852,6.318,3.125,9.645,2.963c4.463-0.216,8.625-0.933,12.489-1.986
	c2.148,2.298,7.242,7.346,14.193,11.693C444.961,694.661,427.062,699.697,412.731,680.805z M382.305,660.242
	c7.583,3.006,14.136,2.767,18.784,1.759c2.693-0.583,4.98-1.458,6.792-2.324c-0.39,6.097,0.886,11.085,3.844,14.812
	c0.207,0.26,0.431,0.52,0.665,0.778c-2.758,1.964-6.855,2.261-10.091,2.106c-7.589-0.366-14.358-3.407-17.666-7.937
	C382.711,666.803,381.944,663.716,382.305,660.242z M345.757,629.798c1.836,1.346,3.85,2.341,6.041,2.966
	c5.52,1.574,11.042,0.487,15.138-0.958c-0.636,1.728-1.12,3.469-1.403,5.195c-0.882,5.393,0.258,10.168,3.292,14.082
	c-5.952,0.053-15.255-0.856-20.161-6.451C345.622,641.163,344.654,636.181,345.757,629.798z M329.838,569.156
	c-0.285,11.179,8.063,19.086,12.316,22.371c-2.21,2.77-3.939,5.703-5.072,8.709c-1.035,2.744-1.575,5.499-1.634,8.253
	c-2.577-0.861-6.353-2.39-10.015-4.863c-8.166-5.515-12.006-13.013-11.418-22.289C314.537,579.69,318.195,569.673,329.838,569.156z
	 M446.912,521.979c-2.573,3.481-27.849,35.529-85.388,37.099c-1.381,0.036-2.469,1.187-2.431,2.568
	c0.038,1.38,1.188,2.469,2.568,2.431c63.242-1.73,88.563-38.05,89.61-39.596c0.032-0.048,0.052-0.1,0.08-0.149
	c0.527,0.258,1.075,0.519,1.65,0.785c-11.183,23.702-32.849,33.371-33.071,33.468c-9.518,4.365-19.824,7.012-29.79,9.572
	c-9.529,2.447-19.382,4.979-28.603,8.999c-6.241,2.722-11.726,6.422-16.04,10.675c-4.515-3.302-16.184-13.763-7.527-28.696
	c10.616-18.311,35.339-10.599,35.588-10.518c0.198,0.064,0.403,0.102,0.61,0.115c1.919,0.12,46.422,2.534,70.98-27.807
	C445.648,521.235,446.24,521.591,446.912,521.979z M522.574,529.067c1.018,3.254,4.733,14.32,11.771,26.82
	c10.972,19.487,24.835,32.968,40.092,38.984c1.284,0.505,2.737-0.125,3.243-1.409c0.506-1.285-0.124-2.736-1.409-3.243
	c-31.361-12.366-46.262-54.418-48.789-62.233c18.565,23.67,56.766,63.396,106.001,66.741c6.36,0.432,12.083,0.156,17.059-0.582
	c0.337,0.202,0.721,0.336,1.141,0.359c0.081,0.005,8.247,0.47,16.611,2.925c7.259,2.131,16.191,6.23,17.515,13.653
	c0.764,4.286-0.315,8.026-3.207,11.117c-8.227,8.796-30.223,11.934-60.34,8.608c-22.532-2.488-45.595-14.464-64.943-33.724
	c-19.024-18.938-32.383-42.778-37.688-67.197C520.606,529.626,521.583,529.362,522.574,529.067z M665.734,583.275
	c-3.333,3.244-14.58,7.641-31.912,6.463c-20.253-1.375-60.263-11.539-101.717-63.959c0.427-0.168,0.86-0.356,1.289-0.53
	c3.521,6.235,15.985,24.412,47.253,37.224c1.28,0.525,2.738-0.088,3.262-1.366c0.523-1.277-0.088-2.738-1.365-3.261
	c-28.872-11.829-40.957-28.64-44.503-34.594c0.394-0.179,0.783-0.343,1.179-0.527c3.618,3.027,14.629,11.831,29.297,19.731
	c23.651,12.738,45.418,16.787,62.949,11.709c16.856-4.883,29.793-2.064,35.492,7.733
	C671.442,569.607,669.945,579.175,665.734,583.275z"/>
</svg>
