<?xml version="1.0" encoding="utf-8"?>
<!-- Generator: Adobe Illustrator 17.1.0, SVG Export Plug-In . SVG Version: 6.00 Build 0)  -->
<!DOCTYPE svg PUBLIC "-//W3C//DTD SVG 1.1//EN" "http://www.w3.org/Graphics/SVG/1.1/DTD/svg11.dtd">
<svg version="1.1" id="Layer_1" xmlns="http://www.w3.org/2000/svg" xmlns:xlink="http://www.w3.org/1999/xlink" x="0px" y="0px"
	 viewBox="0 0 1000 1000" enable-background="new 0 0 1000 1000" xml:space="preserve">
<g>
	<path d="M493.4,589c0.4,2,0.9,4.1,1.3,6.1c-0.2,0.1-0.5,0.2-0.7,0.3c-0.5-0.4-1.1-0.7-1.5-1.3c-2.2-3.2-4.4-6.4-6.6-9.6
		c-1.6-2.3-3.4-4.5-5.1-6.7c-0.2,0.1-0.4,0.2-0.6,0.3c-0.2,3.6-0.4,7.2-0.6,10.8c-0.2,0-0.4,0-0.6,0c0-9.9,0-19.8,0-30.3
		c-1.2,0.9-1.8,1.2-2.2,1.7c-10.5,11.2-19.4,23.5-27.1,36.7c-6.2,10.7-11.9,21.6-15.4,33.5c-2.4,8.1-3.7,16.2-1,24.4
		c2.9,8.7,9.4,14,17.7,17.4c6.9,2.9,14.1,4.4,21.6,4.6c5.7,0.2,11.4-0.1,17-0.5c11.7-0.8,23.1-3.4,34.2-6.8
		c12.7-3.9,25.3-8.1,37.9-12.6c10-3.5,20-7.4,29.8-11.4c13.9-5.8,27.7-11.8,41.4-17.9c6.1-2.7,12-6,17.9-9c0.2-0.1,0.5-0.1,1,0.4
		c-1.9,1.1-3.7,2.3-5.6,3.3c-7.2,3.6-14.3,7.4-21.6,10.8c-10.9,5-22,9.6-33.1,14.3c-1.2,0.5-1.7,1.1-2,2.4c-0.6,2.4-1.6,4.6-2.4,6.9
		c-0.2,0.6-0.2,1.2-0.4,2.4c-7.5,2.7-15.6,5.7-23.7,8.6c-3.5,1.3-3.5,1.4-3,4.9c0.3,2.6,0.3,5.3,0.4,8c0.5,10.9,2.6,21.5,6.1,31.9
		c3,8.9,7.1,17.1,13.4,24.1c4.9,5.4,10.5,9.9,17.5,12.2c8.1,2.6,16.4,2.4,24.7,0.9c8.4-1.5,16.2-4.6,23.6-8.8
		c8.3-4.6,16.3-9.8,23.6-15.8c5.8-4.7,11.7-9.2,17.5-13.9c2.4-1.9,4.5-4,6.8-6c0.5-0.5,1.2-0.9,1.7-1.3c0.2,0.2,0.3,0.3,0.5,0.5
		c-0.4,0.6-0.8,1.2-1.3,1.7c-6.3,5.7-12.5,11.4-19,16.9c-9.1,7.7-19.1,14.3-29.6,20.1c-11.1,6.1-22.8,9.7-35.6,9.9
		c-13.7,0.2-24.4-5.8-33-16c-1.2-1.5-2.4-3-3.7-4.6c-1,1.7-1.8,3.2-2.7,4.7c-0.9,1.5-2,2.3-4.1,2c-1.5-0.2-3.2,0.3-4.8,0.7
		c-3.8,0.9-7.3-0.5-10.7-1.8c-2.5-0.9-4.8-2.3-7.1-3.6c-0.5-0.2-1-0.7-1.2-1.2c-2.9-8.3-6-16.5-8.7-24.8c-2.9-9-4.2-18.3-4.4-28.2
		c-1.2,0.4-2.4,0.6-3.5,1c-9.3,3.7-18.6,7.4-27.8,11.1c-0.9,0.3-1.8,0.9-2.6,0.9c-3.2,0-4.2,1.9-5,4.7c-1.9,7.2-4.2,14.2-6.3,21.3
		c-0.9,3.2-1.9,6.3-2.8,9.5c-0.3,0.9-0.4,1.9-0.7,3.3c4.5-1.1,8.6-2.1,12.7-3.1c0.1,0.3,0.2,0.5,0.3,0.8c-0.6,0.4-1.1,0.9-1.7,1.1
		c-3.6,1-7.2,1.9-10.7,3.1c-0.9,0.3-1.8,1.5-2.1,2.5c-0.7,2-1,4-1.5,6.1c-0.3,1.3-0.2,2.8-2,3.3c-0.3,0.1-0.5,1.5-0.3,2.1
		c0.9,1.9-0.1,3.2-1.4,4c-5.1,3.3-10.3,6.5-15.6,9.6c-4.9,2.9-9.9,5.6-14.8,8.4c-0.6,0.3-1.3,0.5-2.1,0.4c4.7-2.9,9.6-5.7,14.2-8.8
		c5.2-3.5,10.2-7.3,15.3-10.9c1.7-1.2,2.4-2.9,2.5-5c0-1.3,0.5-2.6,0.8-3.8c0.3,0,0.5,0,0.8,0c0.3,0.9,0.6,1.7,1.1,3.2
		c0.8-3.5,1.4-6.4,2.1-9.7c-1,0.1-1.7,0.1-2.3,0.3c-6.4,1.8-12.8,3.7-19.3,5.4c-6.4,1.7-12.8,3.2-19.2,4.7c-4.3,1-8.6,2.3-13,2.8
		c-6.2,0.8-12.5,2.1-18.8,1c-2-0.4-3.8-1.8-5.7-2.8c-2.4-1.2-2.9-0.9-3.3,1.8c-0.5,3.5-1.2,6.9-1.7,10.4c-0.1,0.9,0.1,2,0.6,2.8
		c3.9,5.6,9.1,9.9,15.3,12.6c4.4,2,9.2,3.3,13.7,5c2.3,0.8,4.4,0.2,6.4-0.9c5.6-2.9,11.1-6,16.7-9c1.1-0.6,2.2-1,3.3-1.5
		c0.2,0.3,0.3,0.7,0.5,1c-6.5,3.9-13,7.7-19.9,11.8c1.7,0.4,3.1,0.6,4.4,0.9c0,0.2,0,0.5,0,0.7c-0.7,0.1-1.5,0.4-2.2,0.4
		c-6.3-0.3-12.5-1.6-18.4-3.9c-5.4-2.2-10.8-4.5-15.3-8.4c-2.9-2.5-5.5-5.5-8.1-8.3c-0.3-0.4-0.1-1.3,0-2c0.4-1.5,1.2-2.9,1.4-4.3
		c0.5-3.6,0.7-7.2,0.9-10.7c0-0.5-0.2-1.2-0.5-1.5c-4.2-3.4-8.4-6.7-12.5-10c-1.3-1-2.4-1-3.6,0.2c-6.4,6.6-13,13-19.2,19.9
		c-9,10.1-17.6,20.5-26.5,30.7c-1.5,1.8-3.2,3.5-5,5.1c-1,0.9-2.2,1-3-0.6c-0.3-0.6-1.2-1.1-1.8-1.2c-5.2-0.7-9.7-2.2-13.7-6.1
		c-2.8-2.8-6.8-4.3-10-6.8c-6.2-4.7-12.3-9.7-18.4-14.6c-1.6-1.3-3.2-2.5-4.7-3.8c-0.9-0.7-1.5-1.4-0.7-2.7c0.4-0.7,0.2-1.8,0.1-2.7
		c-0.7-6.7-1.6-13.4-2.3-20.1c-0.3-2.8-0.7-3.2-3.3-2.1c-11.3,4.6-22.6,9.3-33.9,13.9c-2.4,1-4.8,1.9-7.3,2.5
		c-2.5,0.7-4.6-1.2-4.8-4.4c0.7,0.5,1.3,0.7,1.6,1.2c1.1,1.6,2.5,1.7,4.1,1c6.3-2.6,12.6-5.4,18.9-7.8c6.8-2.6,13.8-5.1,20.7-7.5
		c3.6-1.2,3.6-1.1,3.7-4.9c0.2-8.3,0.5-16.7,0.7-25c0-1.6,0-3.1,0-4.7c-0.2,0-0.4-0.1-0.5-0.1c-1.8,5.1-3.7,10.1-5.6,15.5
		c1.9,0.2,3.2,0.3,5,0.5c-0.7,0.5-1,0.9-1.3,1c-4.1,1-8.3,1.4-12.5,0.3c-1.6-0.4-3.3-0.6-5-0.8c-0.1,0.3-0.3,0.5-0.4,0.8
		c-2.5-5.2-5.1-10.4-7.8-15.9c-0.6,0.9-1.1,1.4-1.3,2c-2.1,4.9-4.3,9.7-6.2,14.7c-0.3,0.8-0.1,2,0.3,2.8c1.6,2.9,3.4,5.7,5,8.5
		c1.1,1.9,2.1,3.9,3.2,5.8c-8.6,3-16.2,7.2-23.9,11.4c-16.1,8.6-31.3,18.6-45.1,30.6c-0.6,0.5-1,1.3-1.7,1.6
		c-0.5,0.3-1.2,0.2-1.9,0.2c0.1-0.6,0-1.5,0.3-1.8c2.6-2.3,5.2-4.8,8.1-6.8c9.8-6.8,19.5-13.6,29.5-19.9c6.4-4,13.5-7.1,20.3-10.5
		c3.8-1.9,7.8-3.6,12-5.4c-0.7-1.3-1.3-2.4-1.9-3.4c-1.5-2.3-3.1-4.5-4.5-6.9c-0.8-1.4-1.6-2.7-3.7-2.1c2.4-4.7-0.2-8.6-1.1-12.7
		c-1.9-8.4-3.9-16.7-5.9-25c-0.1-0.6-0.4-1.2-0.7-1.7c-4.8-6.5-9.6-12.9-14.4-19.3c-0.1-0.2-0.3-0.3-0.7-0.5
		c-2.3,5.7-1.8,11.7-3,17.4c-0.2,0-0.4,0-0.6,0c-0.1-1.3-0.2-2.6-0.2-4c-0.1-1.9-0.6-2.2-2.2-1.5c-5.9,2.5-11.6,5.3-17.7,7.3
		c-4.9,1.6-10,2.7-15.1,3.2c-7.4,0.7-13-3.1-15.8-10.3c-4.6-12-3.7-23.5,4.1-34c0.9-1.3,2.8-1.9,4.3-2.6c0.3-0.2,1,0.5,1.5,0.8
		c-0.4,0.4-0.8,0.8-1.3,1.1c-1.1,0.8-2.7,1.2-3.4,2.2c-6,7.7-7.1,16.5-5.3,25.8c0.4,2.2,1.2,4.3,2,6.4c3,7.1,7.7,9.3,14.8,9.3
		c8.1,0,15.5-3,22.8-6c3.2-1.3,6.4-2.7,9.5-4c1.4-0.6,2.1-1.5,2.1-3.1c0.1-2.1,0.5-4.3,0.8-6.4c0.1-0.4,0-1,0.2-1.3
		c2.2-2.2,0.4-4-0.6-5.9c-6.8-12.7-13.6-25.4-20.4-38c-0.6-1.1-1.2-2.2-1.6-3.3c-0.7-1.9-0.4-3.7,1.5-4.9c9.6-6.3,19-12.7,28.7-18.8
		c6.9-4.3,14.2-8,21.3-11.9c1.4-0.8,2.8-1.6,4.3-2c0.7-0.2,2,0.2,2.5,0.8c2.6,3,5.2,6.1,7.6,9.4c2.6,3.6,4.8,7.5,7.2,11.2
		c0.2,0.3,0.3,0.7,0.5,1.1c-0.2,0.1-0.3,0.3-0.5,0.4c-1-1.2-2.1-2.4-3-3.6c-3.4-4.5-6.7-9-10.1-13.4c-0.9-1.2-2.2-2.1-3.2-3.2
		c-1.2-1.3-2.2-1.4-3.7-0.4c-10.9,6.6-22,12.8-32.8,19.5c-5.8,3.6-11.1,7.9-16.8,11.8c-1.2,0.8-1.6,1.6-0.9,3
		c3.2,6.9,6.2,13.9,9.6,20.7c3.2,6.5,6.6,13,10.5,19.1c5,8,10.6,15.7,16,23.5c0.6,0.8,1.2,1.6,1.9,2.4c0.7,0.9,1.3,2.2,2.9,1.1
		c0.1-0.1,0.4-0.1,0.6,0c5,2.1,10.1,0.9,15.1-0.2c3.3-0.7,6.6-1.6,9.9-2.4c1-0.2,1.6-0.6,1.7-1.9c0.1-1.3,1-2.7,1.9-3.8
		c4.9-5.8,9.6-11.7,14.9-17c9-9.2,18.1-18.4,27.8-26.9c8.7-7.7,18.3-14.4,27.5-21.5c0.4-0.3,0.7-0.7,1.2-1.2c-1.3-1.1-2.6-1.9-3.7-3
		c-0.5-0.5-0.6-1.5-0.8-2.3c0.7,0.3,1.5,0.4,2.1,0.8c1.5,0.8,2.9,1.8,4.4,2.6c0.4,0.2,1,0.2,1.4-0.1c3.5-2.2,7-4.5,10.5-6.8
		c1.8-0.9,3.6-1.7,5.4-2.7c1.5-0.8,2.1-0.3,2.4,1.2c0.1,0.6,0.2,1.1,0.3,1.7c0.6,5.8,1.3,11.6,1.8,17.4c0.3,2.7,0.4,5.5,0.6,8.2
		c-0.8-1.9-1.2-3.8-1.5-5.8c-1-6.3-1.9-12.7-2.9-19c-0.3-2.2-0.9-2.5-2.6-1.5c-15.5,9.3-30.4,19.5-43.9,31.6
		c-9,8.1-17.7,16.5-26.2,25.1c-5.5,5.6-10.5,11.8-15.6,17.9c-1.5,1.7-2.6,3.8-4.1,6.2c11.1-4,21.7-7.2,32.8-8.5
		c11.1-1.3,22.2-1.2,33.4-0.5c14.2,0.9,28.8,3.6,32.7,5.9c-3.3-0.5-6.5-0.9-9.7-1.4c3,20.5,6.2,40.7,10.7,60.7
		c0.4,0.2,0.7,0.4,1.1,0.6c0.4-0.7,0.8-1.6,1.3-2.2c7.2-7.9,14.4-15.8,21.6-23.8c0.8-0.9,1.6-2,1.8-3.1c1.6-9.4,3.2-18.7,4.7-28.1
		c0.4-2.2,0.4-4.5,3.6-3.8c0.2,0,0.6-0.1,0.8-0.3c2.5-1,5-1.9,7.3-3.2c0.9-0.5,1.7-1.6,1.8-2.6c1.3-7.6,2.3-15.2,3.5-22.8
		c1.5-9.2,3.1-18.4,4.7-27.7c0.5-3,0-5.8-2.3-8.5c-3,2.5-6,4.8-8.8,7.4c-1.5,1.4-2.5,1.4-3.7-0.1c-0.6-0.8-1.2-1.6-1.9-2.4
		c-1.4-1.7-2.8-3.4-4.4-5.3c-1.4,2.5-3.4,4.2-2.8,7.2c0.9,4.6,1.5,9.2,2.3,13.8c0.2,1.2,0.5,2.5,0.7,3.7c-0.2,0-0.3,0.1-0.5,0.1
		c-3.5-16.5-7.1-33-10.7-49.9c-0.9,0.7-1.3,1-1.6,1.4c-4.1,4.5-8.2,9.1-12.2,13.6c-0.4,0.4-0.6,1.3-0.5,1.9
		c1.2,6.4,2.6,12.8,3.8,19.2c1.3,6.4,2.5,12.8,3.7,19.3c0.3,1.6,0.5,3.3,0.8,4.9c-0.3,0-0.5,0.1-0.8,0.1c-1.9-8.9-3.9-17.9-5.9-27.3
		c-3.5,4.6-6.6,8.6-9.8,12.7c-0.3-0.1-0.6-0.3-0.9-0.4c0.2-0.8,0.2-1.7,0.6-2.3c2.1-2.6,4.2-5.3,6.5-7.7c2.6-2.7,3.6-5.6,2.1-9.1
		c-1.3-3-0.7-6.8-3.8-9.2c0.3-0.4,0.6-0.9,1-1.3c2.6-2.7,5-5.6,7.8-8.1c2.7-2.4,3.4-5.1,3-8.6c-1.6-14.7-3-29.5-4.5-44.2
		c-0.3-3-0.6-6.1-1-9.4c-1.9,1.1-3.5,2-5.1,2.9c-6.4,3.8-12.6,7.8-17.9,13c-2.7,2.7-2.8,2.9-1,6.3c0.4,0.7,0.6,1.5,0.9,2.2
		c1.5,3.5,3.1,7.1,4.8,11c2-5.3,2.9-10.5,6.3-14.7c0.1,0.7-0.1,1.4-0.3,2c-1.5,4.7-3.4,9.2-4.4,14c-1.7,8.1-2.9,16.3-4.3,24.4
		c-0.4,2.6-0.9,5.2-1.3,7.8c-1.9,0-1.8-1.3-1.6-2.6c1-6.2,2-12.4,3.1-18.5c0.2-1.5,0.4-3,0.9-4.4c1.3-3.5,0.6-6.7-1-9.9
		c-2-3.9-3.7-7.9-5.6-11.9c-0.3-0.6-0.8-1.3-1.3-1.5c-7.3-2.8-13.9-6.9-19.8-12c-0.2-0.2-0.5-0.2-1.5-0.7c1.5,17.8,4.1,35,6.3,52.2
		c-0.2,0-0.4,0.1-0.6,0.1c-0.4-2.3-0.9-4.7-1.2-7c-1.7-11.9-3.4-23.8-5.1-35.7c-0.6-4.4-2-8.8-2-13.2c0-4.7-2.8-7.8-4.7-11.4
		c-3.7-7.2-7.5-14.2-11.4-21.3c-2.3-4.2-4.7-8.4-7.1-12.5c-0.3-0.5-1.5-1-1.9-0.8c-10.6,6-21.1,12-31.7,18.1
		c-1.2,0.7-2.3,1.7-3.5,2.5c-0.2,0.1-0.7,0-1.6-0.1c0.8-1,1.3-1.8,1.9-2.2c4-2.6,7.9-5.3,12-7.6c6.9-3.9,13.9-7.7,20.8-11.5
		c0.9-0.5,1.7-0.7,1.6-2.1c-0.1-1.1,0.8-1.7,2.1-1.1c0.6,0.3,1.6,0.3,2.2,0c2.5-1.4,4.8-3,7.4-4.3c2.5-1.3,5.1-2.1,7.6-3.3
		c13-6.2,26-12.7,39.1-18.8c12-5.6,24.2-11.1,36.3-16.5c8.3-3.7,16.7-7,25.1-10.5c0.6-0.3,1.3-0.5,2.1-0.7c5.3,9.5,5.6,19.8,6,30.5
		c0.8-1.1,1.6-2,2.2-3c12.3-17.8,27.2-33.2,44.3-46.3c6.9-5.2,14-10.1,21.1-14.9c7.8-5.3,16.6-8.9,25.4-12.2
		c1.3-0.5,2.5-1.1,3.8-1.5c2.2-0.7,3.6,0.2,3.6,2.5c0,2.6,0,5.2,0,7.9c2.2,0.2,4.8,0.5,7.3,0.5c0.4,0,1-1.1,1-1.7
		c0.3-3.1,0.4-6.2,0.6-9.3c0.1-2.7-0.1-5.5,0.1-8.2c0.1-0.9,0.9-1.7,1.3-2.6c0.4-1,1-2.1,1-3.1c-0.1-4.1-0.5-8.1-0.8-12.5
		c-1.2,0.3-2.3,0.5-3.2,0.9c-7.4,3.4-14.7,6.8-22.1,10.2c-0.5,0.2-1.2,0.1-1.7,0.1c0.3-0.6,0.4-1.4,0.8-1.7c2.1-1.1,4.2-2.2,6.4-3.1
		c1.7-0.7,2.5-1.3,2.6-3.4c0.2-4.6,1.1-9.3,1.6-13.9c0.1-1,0-2.1,0-3.6c-2.4,1.6-4.4,2.8-6.3,4.2c-7.1,5-14.3,10-21.4,14.9
		c-1.9,1.3-2.2,2.6-1.4,4.9c2.2,6.4,4,12.9,6,19.3c0.1,0.2,0,0.5-0.5,1c-0.4-0.6-1-1.2-1.3-1.9c-1.7-5-3.3-9.9-5-14.9
		c-0.6-1.8-1.4-3.6-1.9-5.5c-0.2-0.6,0-1.6,0.4-1.9c9.7-8.3,20.8-14.6,31.4-21.6c0.4-0.3,0.9-0.4,1.4-0.6c1.9,7.2-0.9,14-1.9,21.3
		c2.3-0.9,4.3-1.8,6.2-2.5c2.3-0.9,4.7-1.8,7-2.7c3-1.2,3-1.4,2.3-4.4c-0.2-0.8-0.2-2.1,0.2-2.6c0.8-0.9,2-1.3,3.3-0.3
		c0.5,0.4,1.2,0.5,1.8,0.7c5.9,1.5,7.3,0.7,9.4-5c2.5-6.7,3.8-13.5,3.2-20.7c-0.9-10.7-5.2-19.3-15.4-23.9c-5.8-2.6-12.1-3-18.4-2.3
		c-6.9,0.7-13.5,2.5-20.1,4.5c-8.4,2.5-16.1,6.2-23.6,10.3c-10.9,5.8-20.3,13.4-27.3,23.7c-3.8,5.5-7.2,11.3-10.2,17.2
		c-1.9,3.8-2.9,8.1-4.1,12.2c-0.4,1.3-0.1,2.9-0.1,5c23.1-14.7,46.6-26.9,71.4-36.9c-43.1,18.9-82.5,43.7-118.8,73.5
		c-0.2-0.1-0.4-0.3-0.6-0.4c0.4-0.8,0.7-1.7,1.4-2.2c2.3-2,4.7-3.8,7-5.8c0.4-0.4,1-1.4,0.8-1.6c-1.6-2-3.3-3.9-5.2-6.2
		c-0.6,2.9-1.1,5.4-1.6,7.9c-0.1,0-0.3,0-0.4,0c0-0.7-0.1-1.4,0-2.1c1.6-10.2,3.3-20.4,4.8-30.7c1.3-9.4,2.9-18.8,2.6-28.4
		c0-0.6-0.1-1.1-0.1-1.9c-3.8,0.7-7.5,1.3-11.1,2c-7.3,1.5-14.5,3-21.7,4.7c-2.5,0.6-4.9,1.8-7.4,2.6c-1.6,0.5-3.4,0.2-4.9,0.7
		c-9.2,2.8-18.4,5.6-27.6,8.7c-16.9,5.7-33.3,12.8-49.3,20.7c-15.6,7.7-31,15.8-46.4,24.1c-11.6,6.3-23,13.2-34.4,19.8
		c-1.6,0.9-3.1,2.1-4.7,3.1c-0.5,0.3-1.2,0-1.9,0c0.3-0.6,0.4-1.4,0.9-1.7c1.2-0.9,2.5-1.8,3.8-2.4c1.5-0.8,1.5-1.7,1-3.2
		c-1.8-4.6-3.5-9.3-5.1-14c-1.3-3.7-2.4-7.5-3.7-11.4c-0.9,4,0.7,25.6,2.4,37.1c1.8,12.3,3.1,24.6,4.7,37.2c3.3-1.9,6.6-3.9,10-5.9
		c3.7-2.2,7.4-4.4,11.1-6.6c2.4-1.4,3.9-0.7,3.9,2.2c0,4.4-0.1,8.8-0.2,13.2c-0.1,6.4-0.1,12.8-0.1,19.2c0,1.2,0,2.4,0,4
		c0.8-0.4,1.7-0.8,2.4-1.3c6-3.8,11.9-7.5,17.8-11.4c0.6-0.4,1.2-1.5,1.1-2.2c-0.8-13.2-0.5-26.4,0.6-39.6c0.1-0.7-0.1-1.4-0.1-2.2
		c0-0.7,0.2-1.4,0.3-1.9c2.8-0.5,5.4-1.3,8-1.2c3.6,0.1,5.8-1.7,8.4-3.8c10.2-8.7,20.6-17,31-25.5c1.4-1.1,2.5-2.6,3.9-3.7
		c0.8-0.6,2-0.9,3-1.3c0,2.1-0.1,3.8,0,5.5c0.3,7.9,0.7,15.8,1.1,23.6c0,0.8,0.1,1.5,0.2,2.6c3-1.7,5.6-3.2,8.3-4.7
		c3.3-1.9,6.6-3.8,10-5.5c0.8-0.4,2-0.4,2.7-0.1c0.4,0.2,0.3,1.6,0.3,2.4c0,0.7-0.4,1.5-0.8,2.9c5.4-3.5,10.4-6.7,15.5-10
		c-1.6-1.5-3-2.9-4.3-4.2c-0.4-0.4-1-1-1-1.4c0.2-4.6,0.4-9.3,0.7-13.9c0.2-3.3,0.3-6.6,0.5-9.9c0.1-0.7,0.7-1.4,1.1-2.2
		c0.9,0.6,2.1,0.9,2.5,1.7c1.2,2.2,2,4.5,3.1,7c0.7-3.6-0.7-7.3,1-10.6c0.2,0,0.5-0.1,0.7-0.1c0.2,0.8,0.6,1.6,0.6,2.4
		c-0.5,8-1.1,15.9-1.6,23.9c0,0.6-0.4,1.2-1.1,1.7c0.2-3,0-6,0.5-8.9c0.6-3.7-0.9-6.7-2.5-9.8c-0.8-1.5-1.4-3.2-2.1-4.9
		c-0.3,0-0.6,0.1-0.9,0.1c0,3.6,0.1,7.3,0,10.9c-0.1,3.1-0.4,6.2-0.8,9.2c-0.2,1.9,0.2,3.3,1.8,4.5c1.2,0.9,2.2,2.1,3.4,3.3
		c0.4-0.5,0.6-0.7,0.7-0.9c0.5-1.8,1.4-2.1,2.5-0.7c1.5,1.9,2.7,4.1,4,6.1c2,3.2,3.9,6.3,6,9.8c1.7-1.4,3.2-2.6,4.6-3.8
		c3.5-2.8,7.2-5.6,10.6-8.5c1-0.8,1.8-2.3,2-3.5c2-12.6,3.9-25.3,5.8-38c0.3-2,0.8-3.9,1.4-6.6c-11.7,4.6-22.8,8.9-34.7,13.5
		c0.9-1,1.4-1.8,2.1-2.2c2.4-1.2,4.9-2.5,7.4-3.4c8.3-3,16.7-5.9,25-8.8c0.7-0.2,1.6,0,2.4,0c0,0.7,0,1.5-0.1,2.2
		c-2.6,12.9-5.2,25.8-7.8,38.7c-0.4,2-0.7,4.1-1,6.2c-0.4,3.6,1.6,6.8,2.3,10.2c0.3,1.4,0.8,2.7,1.3,4.3c2.2-1.4,4-2.7,5.8-3.9
		c0.3,0.3,0.5,0.6,0.8,0.9c-0.9,0.7-1.7,1.6-2.7,2.1c-6.3,3.6-12.6,7.2-18.9,10.7c-1.8,1-2.5-0.6-2.9-1.8c-0.6-1.5-0.8-3.1-1.4-4.5
		c-0.3-0.8-1.3-1.3-1.9-2c-0.3-0.3-0.8-0.6-1-1c-2.9-4.1-5.7-8.3-8.5-12.5c-1.7-2.5-2-2.5-4.5-0.8c-5.8,3.9-11.6,7.8-17.5,11.5
		c-15.1,9.4-30.4,18.7-45.5,28.1c-2.2,1.4-4.5,2.6-6.6,4.1c-1,0.7-1.8,1.9-2.9,3.1c-0.6-0.1-1.7-0.4-2.9-0.6
		c0.2-0.1,0.3-0.2,0.5-0.3c-0.6-1.4-1.1-2.9-1.9-4.2c-2.5-4.1-5.2-8.1-7.8-12.2c-0.2-0.3-0.4-0.6-0.6-0.9c-0.8-1-2.5-2.1-2.3-2.8
		c0.4-1.6,1.7-2.9,2.7-4.3c0.7-0.9,1.5-1.7,2.3-2.5c-0.1-0.2-0.2-0.4-0.3-0.6c-1.4,0.2-2.9,0.4-4.3,0.7c-0.6,0.1-1.1,0.4-1.6,0.6
		c-3.3,1.1-3.4,1.1-3.3,4.7c0.2,12.6,0.5,25.1,0.7,37.7c0,0.8-0.4,2-1.1,2.4c-6.4,4.3-12.8,8.5-19.3,12.7c-1.4,0.9-2.7,1.9-4.4,3.1
		c-0.7-13.8,0-27.6-1.2-41.9c-3.1,2-5.8,3.6-8.4,5.3c-8.9,5.8-17.7,11.6-26.6,17.3c-2.5,1.6-3.4,3.4-3.1,6.4
		c0.7,6.9,0.7,13.8,1.5,20.6c0.9,8.2,2.3,16.4,3.5,24.6c0.2,1.1,0.6,2.2,0.9,3.2c1.3,0.2,2.5,0.3,3.7,0.6c3.6,1,6.4-0.7,9.2-2.3
		c10.4-6.1,20.7-12.2,31.1-18.2c7-4.1,14.1-8.1,21.2-12.1c1.4-0.8,1.9-1.8,1.7-3.4c-0.6-5.3-1.3-10.6-1.7-15.8
		c-0.1-1.3,0.4-2.7,0.9-3.9c0.1-0.3,1.8-0.4,2.2,0c1.7,1.5,3.3,3.2,4.9,4.8c0.5,0.5,1.1,1,1.9,1.8c-0.3-6.9-0.6-13.3-0.9-19.7
		c0-0.1,0.3-0.2,0.9-0.6c0.3,1,0.7,1.8,0.8,2.6c0.9,12.6,1.7,25.3,2.5,37.9c0.1,1.1,0,2.2,0,3.3c-0.3,0.1-0.5,0.1-0.8,0.2
		c-0.2-0.6-0.6-1.1-0.7-1.7c-0.4-5.5-0.8-10.9-1.2-16.4c0-0.4,0.1-0.9-0.1-1.3c-2.1-3.2-4.8-5.8-7.6-8.3c-0.3,0.1-0.6,0.2-0.9,0.3
		c1.2,14.9,2.4,29.9,3.5,44.8c-0.2,0-0.4,0-0.7,0.1c-1-8-1.9-16-2.9-24.4c-3.4,1.9-6.6,3.7-9.6,5.5c-11.9,6.9-23.7,13.9-35.5,20.9
		c-3.5,2.1-7.1,4.1-10.6,6.3c-2.5,1.6-5.1,2.1-8,1.6c-1.1-0.2-2.2,0.1-3.9,0.7c-1-4.7-2.4-9.5-3-14.3c-1.5-10.3-2.6-20.7-3.9-31.1
		c-0.3-2.7-0.6-5.4-1.2-8.1c-0.4-1.8,0.3-2.8,1.7-3.8c4.4-2.8,8.8-5.7,13.3-8.5c1.4-0.9,2.1-1.9,1.8-3.7
		c-1.3-10.4-2.4-20.9-3.9-31.3c-2-13.6-3.5-27.2-3.5-41c0-2.6,0-5.3,0.1-7.9c0-0.4,0.5-1.1,0.7-1.1c0.4,0,1.2,0.3,1.3,0.7
		c0.7,2.1,1.3,4.2,2,6.4c2.5,8,4.9,15.9,7.4,23.9c0.4,1.3,0.9,2.5,1.4,3.9c5.6-3.2,10.9-6.5,16.4-9.5c15.3-8.2,30.5-16.6,45.9-24.5
		c11.2-5.7,22.6-11.2,34.1-16.2c19.6-8.6,39.7-15.9,60.4-21.2c3.6-0.9,5.5-2.4,6.6-5.9c3.6-11.3,5.1-22.6,2.3-34.2
		c-1.6-6.8-6-11.4-12.6-14c-13.5-5.4-27.3-5.1-41.2-2.2c-9.3,1.9-18.1,5.1-26.4,9.7c-2.3,1.3-4.2,2.9-5.4,5.6
		c-4.9,10.9-10.1,21.6-15,32.4c-1.1,2.5-1.6,5.2-2.3,7.9c0.2,0.1,0.4,0.2,0.6,0.3c6.7-3.7,13.4-7.4,20.1-11.2
		c0.2,0.1,0.5,0.2,0.7,0.3c-0.6,6.6-1.2,13.2-1.8,20c3.3-1.7,6.5-3.4,9.7-5c8.7-4.2,17.5-8.4,26.2-12.6c1.6-0.8,3.2-1.7,4.8-2.5
		c0.5-0.2,1.2-0.1,1.8-0.1c0,0.6,0.1,1.2-0.1,1.8c-0.3,0.9-0.7,1.7-1.4,3.1c2.1-0.9,3.8-1.6,5.4-2.3c0.1,0.2,0.2,0.5,0.3,0.7
		c-3.3,2-6.6,4.1-10.3,5.4c-3.6,1.3-6.7,3.7-10.9,4.7c0.9-2,1.4-3.2,2-4.5c-0.1-0.2-0.3-0.3-0.4-0.5c-13.4,6.6-26.9,13.1-39.4,21.2
		c1.1,4,2.1,8,3.1,11.9c-0.3,0.1-0.6,0.2-0.9,0.3c-2.3-3.2-2.4-7.3-4.6-10.9c-1.8,3.3-1.5,7.3-4.1,10c-0.3-0.1-0.5-0.1-0.8-0.2
		c0.8-3.3,1.5-6.5,2.3-10.1c-0.6,0.2-1.1,0.3-1.5,0.5c-8,4.6-16,9.2-23.9,13.9c-4.1,2.5-8.1,5.2-12,8c-0.6,0.4-1,1.4-1.1,2.2
		c-0.8,3.7-1.4,7.3-2.2,11c-0.1,0.7-0.6,1.3-1.3,1.9c-0.2-8.5,2.8-16.5,3.1-25.4c-1.2,1.3-2.1,2.4-3,3.4c-3,3.5-6.1,6.9-8.9,10.6
		c-1.4,1.9-2.4,4.2-3.2,6.4c-1.5,4-2.7,8.2-4,12.3c-0.2,0.6-0.6,1.1-0.9,1.7c-0.2-0.1-0.4-0.1-0.7-0.2c0-0.8,0-1.6,0.2-2.3
		c1.5-5.3,3-10.7,4.7-15.9c0.5-1.7,0.2-2.8-1.1-4.2c-4.3-4.6-8.3-9.5-12.4-14.3c-0.4-0.5-0.5-1.3-0.8-2c-0.7-1.9-1.3-3.7-2.1-5.9
		c0.5-0.5,1.3-1.2,2.2-2.1c-5.1-2.3-9.9-4.5-15.2-6.8c0.6-0.7,1-1.4,1.6-1.9c11.2-9.2,22.4-18.3,33.5-27.5c1.6-1.3,3.1-2.8,4.8-3.9
		c1.9-1.3,3.6-0.5,3.5,1.9c-0.3,5.9-0.7,11.9-1.1,18.1c1.9-1.2,3.5-2.4,5.3-3.4c1.7-0.9,3.6-1.5,5.4-2.1c0.3-0.1,1.3,0.6,1.2,0.7
		c-0.7,1.9,1,2.3,2.2,3.8c-0.2-2.9-0.4-5.1-0.6-7.4c-0.7-6.3-1.3-12.6-2.3-18.8c-0.9-5.9-2.1-11.8-6-16.6c-3.1-3.8-7.1-5.2-11.8-5
		c-5.4,0.2-9.9,2.5-14.5,5c-8.7,4.8-17.5,9.4-25.1,15.9c-7,6-14,12.3-20.3,19c-5.1,5.4-9.8,11.4-13.8,17.6
		c-7.8,12-12,25.3-13.4,39.5c-1.1,11.2-0.8,22.4,1.6,33.3c2.7,12.4,6,24.6,9.3,36.8c1.3,4.8,2.8,9.5,4.5,14.2c0.7,2,2.1,3.7,3.2,5.6
		c0.4,0.8,0.6,1.6,0.6,2.6c-2.9-1.5-4.5-4-5.3-7c-3.4-11.9-7.3-23.7-10.1-35.7c-2.9-12.7-5.8-25.4-5.8-38.5
		c-0.1-18.5,4.2-36,14.1-51.8c5.3-8.4,11.6-16.2,18.8-23c6-5.6,12-11.1,18.6-16.1c5.4-4.1,11.4-7.4,17.3-10.9c4-2.3,8-4.7,12.3-6.2
		c7.4-2.6,16.1-3.3,21.8,3.9c2.9,3.6,4.4,8,5,12.5c1.2,8.8,2.4,17.7,3,26.6c0.4,5.2,1.5,10,4.2,14.4c1,1.6,3,2.3,4.6,1.3
		c3.9-2.2,7.7-4.4,11.5-6.8c0.8-0.5,1.3-1.7,1.6-2.7c1.3-3.7,2.1-7.7,3.7-11.2c5.1-10.8,10.4-21.5,15.8-32.1c0.8-1.6,2.7-3,4.4-3.9
		c10.2-5.3,21-9.1,32.5-10.3c6.6-0.7,13.4-1.1,20-0.7c7.6,0.4,15.1,1.9,21.8,6.3c5.5,3.6,8.3,8.9,9.2,15.2
		c1.8,11.8,0.3,23.2-4.4,34.2c-0.1,0.3-0.2,0.7-0.3,1.3c1-0.2,1.9-0.3,2.7-0.4c11.6-2.4,23.2-4.8,34.8-7.2c2.2-0.4,2.7,0.2,2.8,2.3
		c0.2,12.8-2.3,25.3-4.6,37.8c-0.7,4-1.4,7.9-2,11.9c-0.1,0.6-0.1,1.4,0.2,1.9c1.9,2.8,3.9,5.5,5.8,8.2c12.1-8.7,24-17.1,36-25.7
		c-1.6-2.6-0.9-5.3,0-8.1c4.3-13.9,11.5-26,21.6-36.4c7.2-7.4,15.6-13,24.9-17.3c5.7-2.7,11.9-4.5,17.4-7.4c9.6-4.9,19.7-6,30.2-5.8
		c7.5,0.2,14.4,2.4,19.9,7.7c5.1,5,7.7,11.2,8.3,18.2c0.8,9-0.9,17.5-4.9,25.5c-0.3,0.5-0.5,1.1-0.7,1.7c0.1,0.2,0.2,0.4,0.4,0.6
		c3.7-0.9,7.6-1.5,11.2-2.8c10.7-4.1,21.3-8.3,31.8-12.8c11.5-5,22.3-11.3,32.6-18.5c2.2-1.6,4.3-3.3,6.5-5c0.4-0.3,1-0.4,1.5-0.7
		c0.1,0.6,0.5,1.2,0.4,1.7c-1.3,3.7-2.6,7.3-4,10.9c-0.3,0.9-0.8,1.8-1.3,3.1c1.6,0,2.8,0,4,0c0,0.3,0.1,0.6,0.1,0.8
		c-0.8,0.1-1.7,0.5-2.5,0.4c-1.6-0.1-2.6,0.3-3.2,1.9c-2,5.5-4.1,11.1-6.1,16.6c-0.1,0.2,0,0.5,0,1.1c1.2-0.2,2.4-0.2,3.5-0.5
		c0.4-0.1,0.9-0.8,1-1.3c4.3-15.1,13.2-26.4,28.1-32.3c10.2-4,20.8-5.6,31.7-5.5c4.2,0,8.3,0.9,12.1,2.6c1.1,0.5,2.2,0.8,3.8,1.3
		c-3.1,4.3-6,8.5-9.2,13.1c1.2,0.1,1.9,0.3,2.6,0.3c11.7-1.2,23.4-1.9,35.1-0.2c11,1.6,20.1,7,28.2,14.4c1.9,1.7,3.5,3.8,5.5,5.9
		c3-5.4,6.8-9.3,11.1-12.5c5.6-4,11.4-7.8,17.4-11.2c9.5-5.3,19.7-9.1,30.5-11.1c12.7-2.3,24.9-0.9,36.8,4
		c9.2,3.7,17.5,8.8,24.9,15.3c4.7,4.1,8.9,8.9,12.8,13.8c2.5,3.2,4.1,7.1,5.9,10.8c1.4,3,2.2,6.3,3.6,9.2c2.5,5.1,2.1,10.7,2.8,16.1
		c0.1,0.4-0.1,0.9,0,1.3c0.1,0.4,0.4,0.7,0.7,1.3c-0.9,0.7-1.9,1.3-2.6,2.2c-0.5,0.7-1,1.7-0.9,2.4c0.3,3.2-2.1,4.5-4.2,5.5
		c-5.4,2.7-10.9,5.2-16.5,7.6c-1.4,0.6-3,0.7-5,1.2c2.3,2.1,4.2,3.7,5.9,5.4c5.1,5,7.4,11.3,7.3,18.4c-0.1,4.8-0.2,9.7-1.2,14.3
		c-1.1,5.4-3,10.7-4.8,16c-3.1,9-7,17.6-12.8,25.3c-3,4-5.9,8.2-9.1,12.1c-3.7,4.4-8.1,8-14.1,8.9c-1.4,0.2-2,0.9-2,2.4
		c-0.1,4.7-0.4,9.4-0.6,14.6c2.4-1.5,4.5-2.8,6.7-4c5.4-3.2,11-5.9,17.4-6.5c8.8-0.9,13.7,3.3,15.6,10.9c3.1,11.9,1.8,23.5-2.7,34.9
		c-0.8,1.9-1.8,3.8-2.7,5.7c-0.3,0.6-0.5,1.3-0.9,2.3c1.9-0.5,3.5-0.9,5-1.3c3.6-1.1,7.3-2.2,10.9-3.2c0.4-0.1,0.9-0.3,1.3-0.1
		c2.8,1.3,5.5,2.7,8.3,4.1c0.6,0.3,1.1,0.5,2,0.9c-1.4,2.4-4.5,1.8-5.6,3.2c3.3,9.3,6.4,18.3,9.7,27.6c3.7-3.6,7.1-7,10.5-10.4
		c0.3,0.2,0.5,0.3,0.8,0.5c-0.4,0.8-0.6,1.8-1.2,2.4c-4.4,4.6-8.8,9.2-13.3,13.8c-2.3,2.4-4.7,4.8-7.1,7.1c-0.6,0.6-1.4,1.1-2.2,1.3
		c-1.8,0.4-1.8,1.5-1.7,2.9c0.3,4.9,0.5,9.8,0.8,14.8c0.3,4,0.7,8,1,12c0.4,5,0.5,10,1.1,15c0.4,4.1,1.2,8.3,1.9,12.4
		c0.1,0.6,0.9,1.2,1.4,1.6c0.5,0.5,1.1,0.8,1.9,1.4c-1.2,0.8-2.1,1.5-3.2,2.2c-1.9-3.8-6.2-2.9-9.2-4.6c-0.9-0.5-2-0.8-3.1-1.2
		c-4,19.3-8,38.8-12,58.2c0.1,0,0.6-0.3,1.2-0.4c0.9-0.1,2.4-0.5,2.7-0.1c0.6,0.8,0.9,2.2,0.6,3.1c-1.1,3.7-2.5,7.3-3.6,10.6
		c8-3.9,15.8-9,24.5-12.5c0.2,0.2,0.4,0.4,0.6,0.6c-0.3,0.7-0.7,1.4-1.1,2.3c3.7,1.6,7.4,3.3,11.6,5.1c-2.3,1.4-4.3,2.8-4.4,5.9
		c-3.5-2-6.1-0.3-8.8,1.4c-3.9,2.3-8,4.4-11.9,6.6c-5,2.9-9.9,5.9-15,8.7c-3.2,1.8-6.6,3.3-9.7,5.1c-3.3,1.9-6.5,4.1-9.8,6
		c-2.7,1.6-5.6,3-8.3,4.5c-3.6,2-7.2,4.1-10.9,6.1c-3.6,2-7.3,3.9-10.9,6c-1.9,1.1-3.6,2.4-5.4,3.4c-0.7,0.4-1.5,0.4-2.2,0.8
		c-4.6,2.4-9.2,4.9-13.8,7.3c-1.4,0.7-2.5,2.3-4.5,2.1c-0.5-0.1-1.2,0.8-1.8,1.3c-1.1-0.1-2.4-0.2-3.7-0.4c-1.2-0.2-2.7-0.2-1.9-2.2
		c0.1-0.4-0.2-1.1-0.6-1.4c-3.6-3.9-6.2-8.4-8.2-13.3c-0.5-1.2-0.7-2.3,0.8-3.1c0.5-0.2,0.9-0.8,1.1-1.2c0.6-2.2,1.1-4.4,1.9-7.3
		c-5.2,2.9-10,5.6-14.7,8.2c-0.1-0.2-0.3-0.4-0.4-0.6c0.6-0.5,1.3-1,1.9-1.4c4.3-2.5,8.6-5,12.7-7.6c0.8-0.5,1.2-1.8,1.9-2.9
		c-1.2-0.2-2-0.3-2.7-0.4c0.8-0.6,1.5-1.4,2.4-1.7c3.5-1.2,7.3-1.7,10.6-3.4c5-2.6,9.7-5.8,14.4-8.9c4.7-3.1,9.4-6.4,13.9-9.8
		c7.3-5.4,14.7-10.7,21.6-16.4c6.1-5,11.7-10.6,17.4-16.1c7.1-6.8,12.8-14.8,17.1-23.6c0.6-1.3,0.5-2.9,1.2-4
		c2.6-4,3.1-8.5,3.5-12.9c0.5-5.8,0.4-11.5-1-17.3c-1.3-5.3-3-10.3-5.6-15.1c-3.2-5.9-7.2-11.2-12.3-15.6
		c-5.4-4.7-11.2-8.8-17.8-11.6c-7.3-3.1-15-4.6-22.7-5.9c-2.7-0.5-5.4-0.3-8.1-0.4c-1.5,0-3.1,0.2-4.6,0.1c-3.1-0.1-6.2-0.8-9.2-0.6
		c-10.9,0.6-21.6,1.9-32.3,4.4c-12.5,3-24.7,6.6-35.9,13.1c-0.6,0.4-1.6,0.1-2.4,0.1c-0.3-1.2,0.1-2.1,1.3-2.6
		c1.6-0.6,3.1-1.5,4.7-2.1c7.8-2.8,15.6-5.9,23.5-8.4c6.2-1.9,12.6-3,18.6-4.4c0.5-1,0.9-1.8,1.4-2.6c2.6-3.5,5.4-6.9,8-10.4
		c1.1-1.5,2-3.2,3.2-4.6c0.4-0.5,1.5-0.4,2.3-0.6c0,0.7,0.1,1.5-0.2,2.1c-0.8,1.3-1.7,2.7-2.8,3.8c-1.8,1.7-1.8,3.3-0.8,5.5
		c1.8,3.7,4,5.2,8,4.9c0.9-0.1,1.9-0.2,2.8-0.2c1.4-0.1,2.7-0.2,4.7-0.3c-4.9-6.3-4.7-13.2-4.9-20.1c-3.5,1.2-6.7,2.3-10.5,3.6
		c-0.8-1.8-2.1-3.9-2.8-6.1c-3.4-10.8-4.2-22-4-33.2c0.1-7.3,0.7-14.6,1-22c0-1-0.6-2.1-1-3.1c-0.2,0-0.4,0.1-0.6,0.1
		c0.2-0.7,0.4-1.5,0.7-2.2c-5.1,3-9.9,6.2-14.4,9.7c-8.9,6.9-17.7,14-26.5,21.1c-13.7,11.2-27.1,22.7-38.5,36.4
		c-1,1.2-1.3,2-0.3,3.3c4.4,5.6,8.4,11.5,13,16.9c4.5,5.3,9.4,10.3,14.1,15.4c3.5,3.2,6.9,6.4,10.5,9.5c6.9,6,14.6,10.7,23.3,13.6
		c1.9,0.7,3.2,0.3,4.5-1.2c2.6-3.1,5.4-6.1,8.1-9.2c1.1-1.3,2.1-2.7,3.3-4c0.5-0.5,1.3-1.2,1.8-1.1c0.5,0.1,1.2,1,1.2,1.7
		c0.4,4.1,0.6,8.2,0.9,12.2c0.1,2-0.5,4.4,0.4,5.9c1.2,1.9,0.8,3.5,0.5,5.3c-0.1,0.6-0.2,1.2-0.4,1.9c11.3-8.1,21.2-17.8,33.2-24.6
		c0.1,0.2,0.3,0.3,0.4,0.5c-0.9,1-1.9,2-2.7,2.8c1.4,2.6,2.7,4.9,4.1,7.5c-0.3,1.1-0.3,3-2.7,2.3c-0.3-0.1-0.8,0.3-1.1,0.5
		c-3.9,2.2-7.7,4.4-11.6,6.6c-1.9,1.1-2.8,2.6-3,4.8c-0.9,8.1-2,16.1-3.2,24.1c-0.5,3.4-1.5,6.8-2.3,10.1c-0.3,0-0.6-0.1-1-0.1
		c0-0.8-0.1-1.7,0-2.5c0.9-5.8,2-11.6,2.9-17.5c0.6-4.4,1-8.9,1.4-13.3c0-0.5-0.1-1.3-0.4-1.5c-0.3-0.2-1,0.1-1.5,0.3
		c-0.4,0.1-0.7,0.4-1.1,0.7c-6.8,4.8-13.7,9.5-20.5,14.4c-4.1,2.9-7.2,6.5-7,12.1c0.3,6.8,0.3,13.7,0.4,20.5
		c0.1,3.6,0.6,4.1,4.3,4.1c4.3,0,8.1-1.8,11.8-3.7c1.3-0.6,2.6-1,3.9-1.5c0.1,0.3,0.3,0.5,0.4,0.8c-0.5,0.4-1,0.9-1.5,1.2
		c-1.2,0.7-2.5,1.3-3.8,2c-4,2.1-8.1,3.5-12.7,3.4c-1.1,0-2.2,0.2-3.5,0.3c-1.7-1.8-0.6-4.3-0.7-6.5c-0.3-6.4-0.6-12.8-0.8-19.2
		c-0.1-3.8-0.1-3.8-3.9-4.5c-3.1-0.6-6.2-1.2-9.2-2c-3.5-0.8-6.9-1.8-9.8-2.5c-0.5,1.1-0.7,2.4-1.3,2.6c-4.4,1.2-6.4,5-8.3,8.4
		c-6.7,12-11.7,24.7-13.6,38.4c-1,7.2-1.3,14.4,1.4,21.3c3.3,8.4,9.1,14.5,17.6,17.9c1,0.4,2,1.1,2.9,1.8c3.3,2.7,7.1,4.3,11.4,4.5
		c7,0.2,13.9-0.5,20.6-2.5c1.9-0.5,3.9-0.7,5.9-1c-0.9,0.5-1.7,1.3-2.6,1.6c-2.9,0.9-5.9,1.9-8.9,2.4c-8.3,1.3-17,3.4-24.8-1.4
		c-3.9-2.4-7.9-4.5-11.7-7.1c-11.3-7.7-15.5-18.8-14.6-32.1c0.9-12.8,4.5-24.9,10.1-36.4c2.3-4.8,4.9-9.4,7.9-13.8
		c1.4-2.1,3.8-3.4,5.7-5.1c0-0.2,0-0.4,0-0.7c-1,0.1-2.2-0.1-2.9,0.3c-4.2,2.8-8.2,5.8-12.4,8.6c-0.5,0.4-1.5,0.4-2.2,0.3
		c-0.7-0.1-1.3-0.5-2.3-0.9c-1.8,3.1-3.6,6.1-5.3,9.2c-1.4,2.6-2.4,5.4-3.7,8c-1.2,2.6-2.8,2.7-4.7,0.6c-1.1-1.3-2.3-2.5-3.8-4.3
		c-0.7,3.1-1.4,5.6-1.8,8.2c-2,14-3.1,28-2.8,42.2c0.1,3.1,0.1,6.3,0.9,9.2c0.8,2.9,2.3,5.7,3.9,8.3c1.7,2.8,3.8,5.4,6,8.4
		c4.9-4.3,9.6-8.6,14.4-12.8c0.2,0.1,0.4,0.3,0.5,0.4c-0.2,0.5-0.4,1.1-0.7,1.5c-3.2,3.4-6.5,6.7-9.7,10.1c-0.6,0.6-1.3,1.2-1.9,1.8
		c-1.7,1.7-3.2,1.7-4.7-0.2c-2.9-3.6-5.7-7.2-8.5-10.9c-0.6-0.8-1.3-1.5-1.9-2.3c-0.3-0.4-0.6-0.9-0.6-1.3c0-4.1,0.1-8.2,0.2-12.4
		c0.1-4.5,0-8.9,0.3-13.4c0.5-7.7,1.2-15.4,2.1-23c0.7-5.6,1.2-11.3,3-16.5c2-6.2,5.3-11.9,8.1-17.8c0.9-1.9,2.2-3.6,3.3-5.3
		c0.3-0.5,0.8-0.9,1.2-1.4c0.2,0.1,0.4,0.2,0.7,0.3c-0.3,0.8-0.6,1.7-1,2.5c-3.7,6.1-7.1,12.3-9.5,19.1c-0.6,1.8-0.5,3.3,0.8,4.7
		c1.2,1.3,2.2,2.8,3.7,4.7c4.5-10.9,10.4-20.3,17.9-28.7c0.2,0.1,0.5,0.2,0.7,0.3c-0.2,0.6-0.2,1.2-0.5,1.7
		c-1.1,1.7-2.4,3.3-3.5,4.9c-0.4,0.6-0.7,1.3-0.8,2.1c4.9-1.2,8.7-4.1,12.6-7.3c-0.4-0.4-0.7-0.7-0.9-0.8
		c-15.3-5.5-28.6-14.2-40.4-25.4c-13.1-12.4-23.1-26.9-31.1-43c-9.5-19.1-15.2-39.4-18.9-60.4c-2.7-15.2-4-30.5-4.3-46
		c-0.3-13.3,0.3-26.5,2.7-39.5c0.9-5.1,2.2-10.1,3.2-15.2c0.2-0.8,0-1.8,0.3-2.6c0.3-0.7,0.9-1.3,1.3-1.9c0.4,0.7,1.3,1.5,1.2,2.1
		c-0.2,1.8-0.7,3.7-1.2,5.5c-2.6,9.1-4.3,18.3-5.2,27.7c-1.2,13.4-1.3,26.8-0.3,40.1c1.5,19.9,4.7,39.4,10.5,58.5
		c3.4,11.6,7.8,22.7,13.3,33.4c9.3,18,21.4,33.8,37.1,46.7c8.3,6.8,17.4,12.2,27.3,16.3c1.2,0.5,2.4,1,3.5,1.6
		c2,1.1,4.1,1.6,6.5-0.4c-0.4,2.7,1,3.1,2.5,3.6c4,1.1,8,2.2,12,3.3c0.3,0.1,0.7,0,1.1,0c1.4-0.1,2.6-0.3,4,0.9c1.2,1,3.4,0.7,5.1,1
		c0.2-0.2,0.4-0.3,0.4-0.4c0.7-3.2,2.2-5.5,5.3-7.3c2-1.1,3.1-3.7,4.9-5.4c3.3-3.2,5.6-7,6.2-11.5c0.4-2.6,0.3-5.2,0.1-7.9
		c-0.3-4.4-0.8-8.8-1.3-13.9c-2.7,2.5-5,4.5-6.3,7.4c-0.3,0.8-0.7,1.6-1.2,2.2c-5.1,5.7-10.2,11.5-15.4,17.2
		c-0.8,0.8-1.7,1.6-2.7,2.2c-0.4,0.3-1.1,0.1-1.7,0.1c0.1-0.6,0.1-1.3,0.4-1.7c2.7-2.9,5.4-5.7,8.1-8.6c1.3-1.3,2.5-2.7,4-4.4
		c-15.7-4.2-27.2-14.3-38.2-24.6c-2,2.7-3.8,5.5-5.9,8c-0.8,1-2.3,1.4-3.5,1.9c-0.4,0.1-1.3-0.3-1.5-0.7
		c-4.1-6.9-8.3-13.6-12.1-20.6c-4.6-8.4-8.8-17-13.2-25.5c-0.6-1.2-1.2-2.4-3-2.5c-0.5,0-1.1-1.7-1.2-2.6c-0.7-5.3-1.4-10.5-2-15.8
		c0-0.1,0-0.2,0-0.2c-2.2-3.6-0.1-6.6,1.6-9.5c2.1-3.7,4.5-7.2,6.9-10.7c1-1.4,1.3-2.6,0.2-4.2c-1.6-2.1-2.9-4.5-4.2-6.8
		c-0.8-1.4-2.2-2.5-1.6-4.5c0.1-0.4-0.3-1.1-0.5-1.6c-1.5-3.4-2.9-6.9-4.5-10.3c-0.4-0.8-1.3-1.9-1.9-1.8c-1.4,0.1-2.9,0.6-3,2.5
		c-0.1,1-0.2,2-0.3,3c-0.1,0.7-0.4,1.4-0.6,2c-0.2,0-0.4-0.1-0.7-0.1c0-1,0.1-2,0-3c-0.1-0.9-0.3-1.9-0.5-2.8
		c-0.1-0.3-0.3-0.8-0.1-1c1.8-2.4,1.3-5.2,1.6-7.9c2.1-15.9,4.1-31.8,6.1-47.7c0.9-6.6,1.7-13.2,2.2-20.1c-1.4,2-2.8,4-4.2,6
		c-3.1,4.3-6.3,8.4-9.2,12.8c-2,3.2-3.9,6.6-5,10.2c-0.5,1.7,1,4,1.6,6c0.1,0.3,0.3,0.5,0.5,0.9c-5.9,3.3-11.8,6.5-17.7,9.7
		c-0.1-0.1-0.3-0.2-0.4-0.3c0.5-0.6,1-1.5,1.6-1.8c3.8-2.2,7.7-4.5,11.7-6.5c3-1.5,3.3-1.8,1.5-4.6c-1.1-1.8-2.5-3.3-1.6-5.6
		c0.2-0.4-0.3-1.1-0.6-1.6c-8.5-14-15.2-28.9-21.4-44c-0.3-0.8-0.4-1.7-0.6-2.5c0.2-0.1,0.5-0.3,0.7-0.4c0.5,0.7,1.1,1.3,1.4,2
		c2.6,5.8,5.1,11.8,7.8,17.5c3.2,6.7,6.5,13.3,9.8,19.9c1.3,2.6,2.7,5.2,4.2,8c2.2-3.6,4.1-6.9,6.3-10.1c2.3-3.2,4.9-6.2,7.3-9.3
		c2.2-2.8,4.5-5.6,6.6-8.5c0.5-0.7,0.4-1.8,0.7-2.7c0.2-0.4,0.8-1,1.2-1c0.4,0,1,0.6,1.1,1c0.2,0.9,0.2,1.9,0,2.8
		c-2.4,16-4.9,32-7.3,48c-0.9,6.3-1.7,12.5-2.5,18.8c0,0.2,0.1,0.4,0.3,0.9c3.3-1.5,6.5-3,9.7-4.6c9.4-4.4,18.7-9,28.1-13.3
		c8.3-3.7,16.6-7.2,25-10.6c10.1-4.1,20.4-7.9,30.6-11.8c1-0.4,2.3-0.5,2-2.2c-0.1-0.4,0.7-1,1.2-1.3c5.2-3.2,10.4-6.5,15.6-9.5
		c2.5-1.5,5.3-2.6,7.8-4.1c0.8-0.4,1.5-1.5,1.7-2.3c1-4.4,1.9-8.9,2.8-13.2c-1.4,1.1-2.9,2.2-4.3,3.3c-4.6,3.6-9.3,7.2-13.9,10.9
		c-1.2,0.9-2.1,1.5-2.4-0.7c0-0.3-0.4-0.5-0.7-0.7c-3-1.4-6-2.8-8.9-4.3c-1.3-0.6-2.1-0.4-2.7,1c-2.6,6.4-5.3,12.7-7.9,19.1
		c-0.3,0.7-0.8,1.4-1.2,2.1c-0.2-0.1-0.4-0.1-0.6-0.2c0.1-0.8,0.1-1.8,0.4-2.5c4.1-10.6,8.5-21.1,12.4-31.7c2.2-6,3.9-12.3,5.8-18.5
		c0.3-1,0.2-2.1,0.4-3.5c-3.1,1.3-6,2.3-8.8,3.6c-7.7,3.7-15.4,7.4-23,11.4c-4.8,2.5-9.6,5.3-14,8.4c-1.3,0.9-1.7,3.3-2.5,5
		c-1.5,3.6-2.8,7.4-4.4,11c-0.8,1.8-0.9,3.2,0.1,5.2c2.6,5.1,4.7,10.5,7,15.7c0.1,0.2,0,0.5-0.6,1.1c-0.8-1.2-1.9-2.4-2.5-3.7
		c-1.7-3.4-3.2-6.9-4.8-10.4c-0.3-0.7-0.5-1.5-1-1.9c-2.3-1.4-1.2-3-0.4-4.6c5.4-10.6,8-21.8,8.1-33.6c0-10.6-2.7-20.7-8.1-29.9
		c-4.8-8.1-11.4-14.6-19.3-19.8c-11.6-7.6-24.6-11.1-38.1-12.8c-14.8-1.9-29.6-1.5-44.3,0.3c-9.4,1.1-18.9,2.2-28.2,4.2
		c-12.5,2.7-24.9,5.9-37.2,9.6c-8,2.4-15.7,6-23.5,9.2c-1.9,0.8-3.5,2.2-5.1,3.6c-0.6,0.5-0.9,1.5-1,2.2c-0.4,6.2-0.6,12.5-1.2,18.7
		c-0.6,6.3-1.6,12.5-2.5,18.8c-0.9,6.7-2,13.4-2.8,20.1c-0.2,1.8,0.2,3.6-0.2,5.7c-0.5-0.8-1-1.5-1.3-2.3
		c-1.7-5.1-3.4-10.2-5.1-15.4c-0.4-1.1-0.8-2.3-1.5-3.4c-0.8,8.1-2.3,16.1-1.7,24.4c0-2.5,1.8-2.1,3-2c0.5,0,1,0.8,1.9,1.6
		c5.6,0,11.8,0,18,0c17.7,0.2,34.4,4.2,50,13c8.1,4.6,15.8,9.7,22.3,16.5c11.5,11.9,20.2,25.5,23,42.2c1.8,10.6,0.9,21.1-2.3,31.4
		c-2.8,9.2-6.4,18-11,26.4c-2.2,4.1-4.3,8.3-6.4,12.4c-0.2-0.1-0.4-0.2-0.6-0.3c0.7-1.5,1.4-2.9,2.1-4.4c8-15.4,15.4-31,17.3-48.5
		c0.8-7.8,0-15.5-2.2-23.1c-4.5-15.6-13.9-28.1-25.6-39c-5.9-5.5-12.8-9.5-19.8-13.4c-13-7.5-27.2-10.9-42.1-11.4
		c-8.8-0.3-17.6-0.5-26.3,0.2c-7.7,0.6-15.3,2.7-23,3.7c-3.1,0.4-4.6,2.2-5.5,4.7c-0.7,2.1-3,3.8-1.7,6.5c0.1,0.3-0.3,0.9-0.6,1.3
		c-2.6,3.8-5.2,7.6-7.7,11.4c-0.6,0.9-1.2,1.9-2,3.3c-0.6-0.6-1.3-1.1-1.7-1.8c-1.1-1.9-2.2-3.9-3.2-5.9c-1.3-2.6-1.5-2.9-4-1.6
		c-9.6,4.8-19.2,9.8-28.8,14.7c-4.5,2.3-8.9,4.8-13.4,7c-1.2,0.6-2.9,0.3-4.3,0.5c-0.9,0.1-1.9,0.5-2.8,0.6c-1,0.1-2,0.2-3,0.2
		c-0.1-0.4-0.1-0.7-0.2-1.1c2.3-0.6,4.5-1.3,7-2c2.4-2.3,5-4.7,7.6-7.2c0.3,0.3,0.6,0.5,0.8,0.8c-1.6,1.9-3.3,3.7-4.9,5.6
		c0.1,0.1,0.1,0.2,0.2,0.4c2.6-1.3,5.2-2.6,7.9-3.9c10.7-5.3,21.4-10.7,32-16c1.4-0.7,2.9-1.3,4.3-2c0.3-0.2,0.7-0.5,0.8-0.9
		c3.7-10.6,7.4-21.2,11-31.8c0.1-0.4,0.1-0.8,0.1-1.7c-4.4,3-8.7,5.3-12.3,8.6c-3.2,3-5.2,7.2-8.2,10.4
		c-6.3,6.8-12.9,13.3-19.5,19.9c-0.3,0.3-0.7,0.4-1.3,0.3c2-2,4-4,5.9-6.1c5.8-6.7,11.8-13.2,17.2-20.2c2.2-2.9,4.8-5,7.7-7.2
		c5.6-4.4,10.9-9.1,16.3-13.7c1.8-1.6,3.6-3.2,6-5.2c-2.6-0.3-4.5-0.7-6.4-0.8c-0.4,0-0.8,0.7-1.2,1.2c-5.2,5.7-10.4,11.5-15.7,17.2
		c-0.3,0.4-0.9,0.5-1.3,0.8c-0.2-0.1-0.4-0.3-0.5-0.4c0.4-0.7,0.7-1.6,1.2-2.1c3.6-3.6,7.3-7.1,10.9-10.8c1.4-1.4,2.8-2.9,3.9-4.6
		c2.1-3.2,5.2-4.5,8.7-5.4c6.8-1.7,13.6-3.6,20.4-5.4c2.8-0.7,3.5-2.5,3.5-5.2c0.1-5.4,0.6-10.7,0.9-16.4
		c-23.9,8.3-44,21.8-62.2,38.3c-18.1,16.4-34,34.6-43.9,57.5c4.1,2.5,8.6,0.6,12.6,1.7c-4,2.1-8.3,1.5-13,1c0.8,2.5,1.6,5,2.4,7.4
		c-0.3,0.1-0.6,0.2-1,0.3c-6.5-16.7-13-33.5-19.6-50.4c-6.2,2.7-11.9,5.2-17.6,7.8c-5.6,2.5-11.1,5.2-16.7,7.7
		c-1.2,0.5-1.6,1-1.4,2.4c0.5,4,0.5,8,1.1,12c1.2,9.2,2.6,18.4,3.9,27.5c0,0.1,0.2,0.2,0.3,0.3c0.1-0.1,0.3-0.1,0.3-0.2
		c-0.5-5.4,4.3-7.9,6.5-11.8c0.3-0.5,1.7-0.8,2.5-0.6c0.5,0.1,1,1.2,1.1,2c1,7,1.9,14.1,2.8,21.1c0.2,1.8,0.7,3.5,1.1,5.2
		c-6.3-1.6-12.6-3.1-18.8-4.9c-5.9-1.7-11.7-3.5-17.5-5.4c-1.8-0.6-2.5-0.1-2.6,1.8c-0.3,6.7-0.8,13.3-1.2,20
		c-0.1,1.1-0.2,2.3-0.7,3.4c-0.3-21,1.8-41.8,2.8-63.2c-3.1,1.4-5.7,2.6-8.3,3.9c-7.9,3.9-15.8,7.9-23.8,11.8
		c-3.3,1.6-3.3,1.9-3.2,5.5c0.1,3.7,0.7,7.5-0.1,11c-1.2,5,0.8,8.8,3,12.8c4.4,8.1,8.6,16.3,13.2,24.3c1.5,2.6,4,4.9,6.5,6.7
		c4.1,2.9,8.5,5.4,12.8,7.9c0.5,0.3,1.8,0.2,2.2-0.2c6.4-7.2,14.5-12.4,22.8-16.9c11.8-6.4,23.6-12.7,35.8-18.2
		c10.7-4.8,21.9-8.7,33.1-12.4c8.5-2.8,17.3-5,26-7c11.5-2.6,23.2-4,35-4.5c11.1-0.5,22,0.2,32.8,2.7c7.9,1.8,15.4,4.5,22.2,9.1
		c9,6.1,13.9,14.5,14.7,25.3c0.4,5.5,0.1,10.9-1.2,16.3c-0.1,0.3-0.2,0.5-0.5,0.7c0.3-3.8,0.7-7.6,0.8-11.5c0.2-5.9-1-11.4-3.6-16.9
		c-2.5-5.4-6.1-9.7-11-12.7c-4.3-2.7-9.2-4.7-14-6.6c-3.7-1.4-7.6-2.1-11.4-3.2c-2-0.5-3.3-0.2-3.8,2.1c-0.4,1.7-1.2,3.2-1.9,4.8
		c-0.3,0.6-0.7,1.1-1,1.7c-0.2-0.1-0.5-0.2-0.7-0.3c0.9-2.9,1.8-5.8,2.8-9c-1.7-0.2-3.3-0.5-4.9-0.7c-13.3-1.2-26.6-0.6-39.8,1.6
		c-8.7,1.5-17.5,3-26,5.3c-9.5,2.5-18.8,5.8-28.1,9c-4.9,1.7-9.6,3.9-14.5,5.6c-1.9,0.7-2.3,1.7-1.9,3.6c1.1,4.7,2,9.4,3,14.1
		c0.2,0.9,0.3,1.8,0.8,2.9c1.3-2.8,2.6-5.5,3.8-8.3c0.6-1.5,1.4-2.2,3.1-1.8c7.3,1.6,14.4-0.4,21.5-1.6c0.6-0.1,1.2-0.2,1.2-0.2
		c0.6,1.5,1,2.5,1.5,3.5c1.2,2.7,2.5,5.3,3.7,8c0.6,1.3,1,1.8,2.5,1c18.5-9.6,37.8-17.3,57.6-23.8c3.5-1.2,6.9-2.3,10.4-3.5
		c1.7-0.6,2.7-0.1,2.4,1.6c-0.4,2.6-1.1,5.1-1.7,7.6c-0.3-0.1-0.6-0.1-0.9-0.2c0.4-2.5,0.8-5.1,1.3-8.2c-2.9,0.9-5.4,1.7-7.9,2.6
		c-7.2,2.6-14.4,5.1-21.5,7.9c-8,3.2-15.9,6.6-23.8,10.1c-4.9,2.2-9.6,4.6-14.3,7.1c-1.3,0.7-2.2,1.9-3.5,3c-0.4,0-1.7-0.5-2-0.1
		c-0.5,0.6-0.6,1.7-0.5,2.6c0.8,7.1,1.7,14.1,2.5,21.2c0.7,5.9,1.3,11.8,1.9,17.7c0.2,0,0.4,0.1,0.6,0.1c0.3-0.8,0.6-1.6,0.8-2.5
		c2.7-9,5.4-18.1,8.1-27.1c0.5-1.6,1.4-2.6,3.2-3.1c8.6-2.4,17.1-5.1,25.7-7.6c2.6-0.8,5.2-1.3,7.8-1.9c0.1,0.3,0.2,0.5,0.3,0.8
		c-0.6,0.3-1.2,0.7-1.9,0.9c-10.3,3.1-20.7,6.1-31,9.3c-0.9,0.3-2,1.3-2.3,2.2c-2.3,6.2-4.4,12.5-6.5,18.8
		c-1.3,3.9-3.1,7.7-3.5,11.7c-0.4,3.9,0.4,8,1.1,11.9c0.2,1,2.1,1.8,3.3,2.6c0.8,0.6,1.7,1.2,2.4,1.8c0.2,0.2,0.2,0.7,0.3,1.1
		c-0.4,0.1-0.9,0.3-1.2,0.2c-2.3-1.4-4.5-2.8-6.7-4.3c-0.3-0.2-0.5-0.7-0.5-0.9c1.1-4.3-0.8-8.3-1.3-12.5c-1.5-13.5-3.3-27-5-40.5
		c-0.6-4.8-1.3-9.5-1.9-14.3c-0.4-2.7-1.4-3.4-4-2.8c-5.8,1.4-11.5,2.5-17.5,1.5c-0.7-0.1-1.9,0.5-2.2,1.1
		c-5,11.3-12.7,20.9-19.9,30.7c-0.6,0.8-1.1,1.8-1,2.7c0.4,8.4,0.9,16.8,1.3,25.2c0.3,5.9,0.9,11.8,0.5,17.7c-0.4,6,2.1,10.3,6,14.4
		c3.1-2.4,6.1-4.9,9.3-7.2c3.5-2.6,7.2-5,10.8-7.4c2.4-1.6,4.9-3.3,7.5-4.7c0.7-0.4,1.9-0.5,2.8-0.2c2,0.6,4,1.6,6,2.4
		c0.6,0.2,1.3,0.1,2.1,0.1c-0.3,0.4-0.5,0.8-0.9,1c-6.4,4.4-12.9,8.7-19.3,13c-1.4,0.9-2.2,1.9-2.6,3.7c-1.7,9.3-3.6,18.7-5.3,28
		c-1.3,7.4-2.5,14.9-3.7,22.4c-0.1,0.8-0.1,1.5-0.2,2.6c6.5-2.2,12.6-4.3,18.8-6.4c0.1,0.3,0.2,0.6,0.3,0.9
		c-1.7,0.7-3.4,1.5-5.1,2.2c-8.4,3.5-16.9,7-25.3,10.6c-0.8,0.3-1.5,1.4-1.6,2.3c-2,11.3-4.2,22.6-5.9,34c-1,7.1-1.2,14.3-1.8,21.5
		c-0.3,3.9,2.1,6.3,4.7,8.3c4.7,3.6,9.6,7.2,14.8,10c3.7,2.1,8.2,2.5,12.6,2.2c10.7-0.8,21-3.4,31.3-6c10.3-2.6,20.5-5.6,30.8-8.3
		c2.2-0.6,3-1.8,3.5-3.9c2.6-9.6,5.6-19.2,8.3-28.8c1.9-6.9,3.6-13.8,5.5-20.6c0.5-1.7-0.2-2.3-1.8-2.2c-2.6,0.2-5.1,0.7-7.7,0.6
		c-6.5-0.1-13-0.4-19.5-0.8c-6.8-0.4-13.2-2.5-19.2-5.8c-8-4.6-13.9-10.9-15.5-20.4c0-0.2-0.2-0.4-0.5-0.9c-0.9,2-1.8,3.7-2.3,5.5
		c-3.3,11-6.5,22.1-9.7,33.1c-0.2,0.7,0,1.7,0.4,2.2c4.8,7,9.8,13.9,16.7,19c5.5,4,11.7,6.9,18.5,8c6.2,1,12.5,1.4,18.8,2.1
		c0.8,0.1,1.5,0.2,2.3,0.3c0,0.2,0,0.5,0,0.7c-5.3-0.3-10.6-0.3-15.9-0.9c-4.4-0.5-8.9-1.3-13.2-2.7c-5.5-1.7-10.7-4.5-14.8-8.6
		c-4.9-4.9-9.4-10.2-14-15.5c-0.6-0.7-1.1-2.1-0.9-3.1c1-4.8,2-9.6,3.3-14.3c2.2-7.6,4.6-15.1,6.9-22.7c0.5-1.6,1.1-3.1,1.6-4.7
		c0.1-0.3,0.1-0.8,0.4-1c2.7-2,2-5,2.4-7.7c1.2-8,3.8-15.6,7.1-23c6.3-14.3,14.3-27.6,23.5-40.2c5.3-7.3,11.5-14,17.3-21
		c0.4-0.5,1.3-0.7,1.9-1c0.3,0.8,0.8,1.7,0.8,2.5c-0.2,5.2-0.7,10.3-0.8,15.5c0,1.1,0.7,2.6,1.5,3.4c3.8,3.3,5.9,7.7,8.6,11.7
		c0.8,1.2,1.7,2.3,3.2,3.3C493.4,590.9,493.4,589.9,493.4,589L493.4,589z M694,566.1c-0.7-1.3-1.6-2.6-2.2-3.9
		c-0.3-0.8-0.6-1.8-0.4-2.6c2.4-7.2,4.9-14.4,7.2-21.7c1.3-4.2,2.2-8.5,3.3-12.8c-0.2-0.1-0.5-0.3-0.7-0.4c-1.4,1.3-3.1,2.4-4.1,3.9
		c-3.1,4.5-6.1,9-8.8,13.7c-1.9,3.2-3.6,6.6-1,10.4c0.3,0.4,0.3,1.1,0.4,1.7c0.7,4.5,1.4,8.9,2,12.9
		C690.8,567,692.4,566.5,694,566.1c-0.5,1.2-1.5,2.1-0.7,3.7c1.5,2.9,2.6,5.9,3.9,8.9c5.2,12.3,11.8,23.8,18.2,35.4
		c1.3,2.4,3.2,2.6,5,0.5c1.5-1.7,2.6-3.8,4.1-5.5c1.6-1.8,0.8-3.1-0.5-4.6c-4-4.6-8.2-9-12-13.9C705.9,582.6,700,574.3,694,566.1z
		 M512.5,406.6c-5.3,2.5-10.7,5.1-16.2,7.7c6.6,4.1,13.6,10.9,13.5,13.7c-2.6-2.3-4.9-4.4-7.3-6.4c-2.4-2-4.6-4.3-8.1-5.2
		c-0.3,2.1-0.6,4.1-0.8,6.1c-0.2,1.8-0.8,3.2-2.6,3.9c-1.9,0.7-3.3,1.7-3.7,3.9c-0.4,2.4-1,4.8-1.5,7.4c1,0,1.4,0.1,1.8,0
		c6.2-1.1,12.4-2.3,18.6-3.5c1.5-0.3,3.4-0.1,4.2-1c0.8-0.9,0.4-2.9,0.5-4.4C511.4,421.4,512,414,512.5,406.6
		c0.3-2.3,0.7-4.6,1.1-7.1c-6.2,2.5-11.9,4.9-17.7,7.2c-3.2,1.3-3.2,1.2-2.3,4.7c1.1-0.8,2.1-1.5,3.2-2.2c0.2,0.1,0.3,0.3,0.5,0.4
		c-0.6,0.9-1.2,1.9-2,3.2c0.8-0.2,1.1-0.3,1.3-0.4c4.2-1.8,8.4-3.7,12.6-5.4C510.2,406.6,511.4,406.7,512.5,406.6z M619.2,336.5
		c0.6,0.2,0.7,0.3,0.8,0.3c0.6,0,1.1-0.1,1.7-0.1c16-1.6,32-2.5,48-0.2c14.3,2,27.8,6.1,39.7,14.5c13.2,9.3,21.4,21.9,24.4,37.8
		c0.8,4.2,1.1,8.5,1.7,12.9c0.5-0.2,1.3-0.2,1.9-0.6c3.3-1.7,6.6-3.5,9.9-5.3c7.2-3.8,14.2-7.8,21.6-11.3
		c9.3-4.4,18.7-8.4,28.2-12.4c6-2.5,12-4.7,18.1-7c4.3-1.6,8.6-3.2,13.2-4.9c0.1,0.3,0.5,1,0.5,1.7c-1.3,12.6-2.6,25.3-3.9,37.9
		c-0.4,0-0.7,0-1.1-0.1c-1-6.2,0.4-12.3,1-18.5c0.7-6.2,1.4-12.4,2.2-19.1c-4.4,1.6-8.3,2.9-12.2,4.5c-10.3,4.3-20.7,8.7-30.9,13.3
		c-9.7,4.4-19.2,9.1-28.7,13.9c-6.7,3.4-13.2,7.2-20.2,11c-0.3,2.6-0.7,5.8-1.1,9.4c3.2-1.9,5.8-3.7,8.7-5.2
		c6-3.2,12.1-6.3,18.2-9.4c2.7-1.4,5.4-2.6,8.2-3.8c3.8-1.5,7.6-3,11.5-4.4c0.8-0.3,1.7-0.3,2.5-0.5c0,0.9,0.2,1.8,0.1,2.7
		c-0.4,2-0.9,4-1.5,6.6c3.6-1.9,6.5-3.6,9.4-5.2c3.2-1.7,6.4-3.6,9.7-5.1c2-0.9,2.9-0.2,2.6,2c-0.6,5-1.5,10.1-2.3,15.1
		c-0.5,3.2-1.1,6.3-1.8,9.9c1.4-0.6,2.5-1,3.5-1.5c5.9-3,11.7-6.1,17.6-8.9c7.1-3.4,14.2-6.5,21.4-9.7c5-2.2,10-4.4,15.1-6.3
		c6.2-2.4,12.5-4.7,18.9-6.7c2.3-0.7,3-3.6,5.7-3.8c1.4-0.1,2.7-1,4-1.6c3.7-1.9,7.2-4,11-5.6c1.6-0.7,1.8-1.4,1.8-2.8
		c0-6.2-1.6-12-3.6-17.8c-1.4-4.1-3.6-7.9-5.5-11.8c-4.1-8.1-10.2-14.6-17-20.4c-7-6-14.8-10.6-23.4-13.9
		c-6.2-2.4-12.5-4.3-19.2-4.7c-11.3-0.6-22.2,1.8-32.7,6c-10.4,4.2-20.3,9.4-29,16.5c-3.4,2.8-6.4,6.2-9.1,9.7
		c-1.9,2.5-1.6,4.2-0.1,5.9c9.3,10.7,16.3,22.8,20.1,36.6c0.2,0.8,0.2,1.7,0.2,2.6c-0.2,0.1-0.4,0.1-0.6,0.2
		c-0.3-0.6-0.6-1.2-0.8-1.8c-2-6.2-4.4-12.3-7.5-18.1c-4.4-8.1-9.9-15.3-16-22.2c-6.7-7.6-14.3-14.1-23.8-17.7
		c-8.1-3.1-16.6-3.7-25.1-3.3c-6.6,0.3-13.2,1.7-19.8,1.6c-4.3-0.1-5.3,2.5-6.7,5.3c-0.4,0.8-0.8,1.7-1.3,2.5
		c-0.2,0.3-0.7,0.5-1,0.8c-0.2-0.2-0.4-0.3-0.6-0.5c3.4-8.4,9.3-15.4,14.4-23.6c-2.9-0.8-5.4-1.8-8.1-2.2
		c-8.4-1.2-16.7-0.1-24.8,1.7c-8.6,1.9-16.9,4.9-23.7,10.8c-5.2,4.5-9,10.1-11.6,16.4C620.8,331.2,620.1,333.9,619.2,336.5z
		 M382.5,704.5c-0.2-0.1-0.3-0.2-0.5-0.4c-1.7,1.7-3.5,3.3-5,5.2c-5.3,6.2-10.6,12.5-15.8,18.8c-1.9,2.2-3.9,2-5.1-0.7
		c-0.3-0.7-0.5-1.5-0.7-2.3c-2.2-10.9-4.4-21.8-6.5-32.7c-1.4-7.3-2.8-14.5-4-21.8c-0.2-1.3,0-2.6,0-4.2c-1.8-0.3-3.8-0.8-5.8-1
		c-6.4-0.6-12.7-1.1-19.1-1.5c-11-0.8-22-0.3-32.9,1.2c-1.5,0.2-2.4,0.9-3.1,2.5c-2.3,5.6-5,11-7.3,16.6c-0.7,1.8-1,3.8-1.1,5.7
		c-0.1,1.1,0.7,2.3,0.6,3.5c-0.3,6.9-0.8,13.8-1.1,20.7c-0.6,12.7,0.1,25.3,2.1,37.9c0.2,1.5,1.2,3.1,2.4,4.1
		c5.3,4.7,10.6,9.5,16.3,13.8c6,4.6,12.1,9,18.6,12.8c3.7,2.2,8.1,3.1,12.6,4.7c1.8-2.1,3.7-4.2,5.6-6.4c7.9-9,15.6-18.1,23.6-27
		c7.3-8.1,14.6-16.1,23-23c1.4-1.2,1.9-2.5,2-4.3c0.2-4.4,0.4-8.8,0.7-13.1C381.9,710.6,382.3,707.6,382.5,704.5z M776.9,478.4
		c-0.2,0-0.5-0.1-0.7-0.1c1-6.7,2.6-13.4,2.6-20.7c-21.8,7.8-42.7,16.5-62.6,25.8c0.7,1.8,1.4,3.2,1.7,4.7c0.3,1.3,0,2.7,0,4.1
		c-0.4,9.9-0.8,19.8-1.1,29.8c-0.2,7.5-0.2,15.1-0.1,22.7c0,2.7,0.3,5.3,0.4,8.4c0.8-0.6,1.2-0.9,1.6-1.3
		c7.7-6.6,15.3-13.3,23.2-19.7c8.1-6.6,16.4-13.1,24.8-19.3c5.6-4.2,11.5-7.9,17.2-11.8c0.3-0.2,0.8-0.5,1-0.8
		c2.5-4.8,4.7-9.6,5.6-15.1c-2.4-0.8-4.7-1.4-6.8-2.3c-3.3-1.5-6.3-1.3-9.2,1c-1.1,0.8-2.3,1.4-3.5,2.1c-6.8,4.1-13.7,8.1-20.5,12.3
		c-8.6,5.3-17,10.8-25.5,16.1c-1.4,0.9-3.2,1.3-4.8,1.8c-0.5,0.1-1.2-0.5-1.8-0.8c0.5-0.5,0.8-1.1,1.4-1.4c2.4-1.2,4.9-2,7.2-3.4
		c14.3-8.7,28.6-17.5,43-26.1c3.7-2.3,7.7-4.1,11.6-6.2c0.3-0.1,0.6,0,1.1,0c-0.1,0.8-0.2,1.3-0.3,2.2c3.6,1.1,7.1,2.1,10.5,3.2
		c0.4,0.1,0.8,0.9,0.8,1.3c-0.1,0.9-0.4,1.8-0.7,2.7c-1.6,3.6-3.2,7.2-4.9,10.8c-1.3,2.6-1.6,5.2-1.2,8.4
		c15.7-15.6,33.8-27.2,51.6-39.3c-8.5-5.8-16.6-11.3-24.7-16.8c-1.9,3.1-1.9,3.1-4,1.1c-6.6,3.5-13.2,7.1-19.8,10.7
		c-3,1.6-6,2.9-9,4.4c-0.4,0.2-0.6,0.7-0.8,1.2c-0.4,1.2-0.6,2.5-0.9,3.8C778.2,473.9,777.5,476.1,776.9,478.4z M716.1,480.7
		c3.1-1.2,5.9-2.4,8.7-3.6c9.3-4,18.5-8.1,27.8-11.9c8-3.3,16.1-6.2,24.2-9.2c1.6-0.6,2.4-1.5,2.7-3.2c0.1-0.7,1-1.4,1.5-2.1
		c0.5,0.7,1,1.4,1.5,2c0.1,0.2,0.2,0.5,0.4,0.9c2.4-1,4.7-1.9,7.1-2.8c7.4-2.9,14.7-5.7,22-8.7c0.8-0.3,1.5-1.3,1.9-2.2
		c0.6-1.1,1.1-1.8,2.5-1.1c0.9,0.4,1.9,0.7,3,1.2c-0.6,0.4-1.2,0.9-1.9,1.3c-2.2,1.2-2.6,3.4-3,5.5c-0.4,2.1,1.4,3.1,3,4
		c2.4,1.3,4.7,2.8,6.9,4.4c6.1,4.3,11.7,9.3,19,11.7c1,0.3,1.9,1.1,2.9,1.6c-0.1,0.2-0.1,0.5-0.2,0.7c-2.5,1-4.6-2-7.5-1
		c2.1,1.7,1.3,3.3,0.5,5c-0.8,1.8-1.3,3.9-2.1,6.3c1.7-0.7,3-1.2,4.2-1.6c1.1-0.4,1.8,0.1,1.6,1.2c-0.3,2-0.8,4.1-1,6.1
		c-0.1,1.1-0.3,2.8,0.3,3.3c0.7,0.6,2.2,0.2,3.4,0.1c0.4,0,0.8-0.3,1.2-0.5c4.6-2.2,8-5.7,11.1-9.7c6.9-8.7,12.9-18,16.8-28.4
		c1.8-4.9,3.5-9.8,5-14.8c1.2-4,2.1-8.2,2.7-12.3c0.4-2.9,0-6,0.1-9c0.3-6.6-2.7-11.9-6.9-16.7c-1-1.2-1.9-1.1-3.2-0.6
		c-3.8,1.7-7.6,3.2-11.4,4.8c-9.3,4.1-18.7,8.2-27.9,12.6c-9.2,4.4-18.2,9.2-27.4,13.8c-1.8,0.9-2.3,2.3-2.1,4.5
		c2-0.9,3.8-1.7,5.6-2.6c1.2-0.6,2.2-0.9,3.3,0.3c1.5,1.8,3.2,3.5,4.7,5.3c0.4,0.4,0.3,1.2,0.4,1.9c-0.6-0.2-1.5-0.1-1.9-0.5
		c-1.3-1.2-2.3-2.5-3.5-3.8c-1-1.1-2-2.4-3.8-1.5c-2.5,1.3-5,2.5-7.4,3.9c-6.4,3.7-12.8,7.5-19.1,11.2c-0.7,0.4-1.7,1.1-1.6,1.6
		c0.1,2.1-1.5,2.4-2.8,2.9c-9.7,3.9-19.4,7.6-29,11.5c-9.5,3.9-18.8,8-28.3,11.9C717.3,475.8,716.5,477.7,716.1,480.7z M827.6,555.9
		c-1.1,0.4-1.9,1-2.8,1c-1.4,0.1-2.9-0.4-4.3-0.3c-2.1,0.2-4.4,0.2-6.2,1.1c-3,1.5-5.6,3.7-8.4,5.5c-2.2,1.5-4.2,3.2-4.2,6.2
		c0,3-0.2,6.1,0.4,9c0.5,2.5,1.9,4.9,3.3,7.1c0.7,1,2.3,1.9,3.6,1.9c11.2,0.5,22.2,1.5,32.8,5.5c0.5,0.2,1.3,0,1.7-0.3
		c4.3-2.6,8.5-5.3,12.8-8c1.4-0.8,2.9-2.9,3.8,0.4c0,0.1,0.2,0.2,0.3,0.2c7.9,5.6,15.8,11.2,23.8,16.7c1.6,1.1,3.3,2.1,5.2,3.3
		c0.1-0.6,0.1-0.9,0.1-1.2c-0.3-4.6-0.6-9.2-0.8-13.7c-0.3-4.5-0.4-9-0.8-13.6c-0.4-5.1-1-10.1-1.4-15.2c0-0.6,0.8-1.3,1.3-1.9
		c0.5,0.5,1.2,0.8,1.5,1.4c0.3,0.6,0.3,1.4,0.4,2.1c0.3,7.3,0.6,14.6,0.9,21.9c0.2,3.3,0.5,6.5,0.7,9.8c0.3,0.1,0.5,0.3,0.8,0.4
		c4-3.6,8-7.2,12-10.7c-0.6-1.1-1-1.8-1.3-2.6c-3.3-8.4-5.1-17.4-10.9-24.9c-0.8,0.2-2,0.5-3.2,0.9c-7.6,3.1-15.3,6.3-22.8,9.5
		c-0.8,0.3-1.7,1.1-2,1.8c-1.3,3.6-2.5,7.2-3.6,10.8c-0.3,1.1-0.6,2-2.3,1.9c0.9-4.5,1.8-8.9,2.8-13.7c-0.7,0.3-1,0.3-1.2,0.5
		c-7.1,5.3-14.2,10.7-21.4,16c-1.7,1.3-3.6,2.4-5.5,3.5c-0.5,0.3-1.3-0.1-1.9-0.2c0.3-0.5,0.6-1.1,1-1.4c3.5-2.2,7.2-4.3,10.5-6.7
		c4.3-3,8.4-6.3,12.5-9.6c9-7.2,16.1-16,20.6-26.7c2.5-5.8,4-11.8,4-18.1c0-2.8-0.3-5.7-0.3-8.5c0-3.9-0.7-7.6-2.6-10.9
		c-0.9-1.6-2.2-3.4-3.8-4.3c-3.6-2-7.6-2.2-11.7-1.1c-5.4,1.5-10,4.4-14.6,7.3c-1.9,1.2-3.7,2.6-5.8,4c0,1.5,0,3.4,0,5.6
		c1.8-0.9,3.6-1.3,4.9-2.3c3.9-3.1,8.5-4.3,13.2-5.1c1.7-0.3,3.6-0.2,5.3,0.1c2.5,0.5,4.2,2.6,4,5.1c-0.3,2.8-0.9,5.6-1.7,8.3
		c-2.9,10.5-9.3,18.6-18.5,24.3c-3.6,2.2-7.9,3.3-12,4.8c-1.4,0.5-2.8,0.8-4.5,1.3c0.6,0.3,0.8,0.4,1,0.5c0.5,0.3,1,0.6,1.6,0.8
		c-0.5,0.5-1,1.3-1.6,1.4C830.5,557.6,828.7,557.3,827.6,555.9z M789.5,568.3c0.7-0.3,1.3-0.6,1.8-0.8c1.9-0.6,3.9-0.8,5.7-1.7
		c5.2-2.7,10.3-5.8,15.4-8.5c2.9-1.5,4.3-3.6,4.7-7c1-7.5,2.6-14.9,4-22.3c0.1-0.7,0.8-1.3,0.9-1.5c2.1,0.2,3.8,0.4,5.4,0.6
		c2.7-18.9,5.3-37.4,7.9-56c-4.2,3-8.5,6-12.9,9.1c-11.7,8.1-23,16.8-33.4,26.6c-1.2,1.2-3,2.5-3.2,3.9c-1,7.7-1.9,15.5-2.3,23.3
		c-0.3,4.4,0.3,8.8,0.6,13.1C784.9,554.4,786.2,561.6,789.5,568.3z M873.8,714.6c-0.2-0.1-0.3-0.3-0.5-0.4c-2.3,1-4.6,2.1-7,3.1
		c-7.7,3.1-15.5,6.2-23.2,9.4c-1.6,0.6-3.2,1.3-4.7,2c-3.5,1.6-6.9,3.4-10.4,5c-3.1,1.4-6.3,2.6-9.4,4c-4.2,2-8.2,4.2-12.3,6.1
		c-4.1,1.8-7.7,4.5-11.9,6c-2.7,1-5.2,2.4-7.6,4c-1.3,0.8-2.8,2-3.4,3.4c-1.5,3.3-2.6,6.7-3.7,10.1c-0.3,0.9-0.4,2.3,0,3.1
		c2.4,4.2,4.4,8.8,8.3,11.9c0.6,0.5,1.9,0.9,2.5,0.6c3.2-1.2,6.4-2.5,9.5-4c5.2-2.6,10.4-5.4,15.6-8.2c2.8-1.6,5.3-3.6,8.1-5.1
		c4.1-2.3,8.4-4.3,12.6-6.5c4-2.2,8-4.5,12-6.8c3.8-2.2,7.7-4.2,11.5-6.4c1.7-1,4.2-1.7,2.3-4.6c-0.1-0.2,0-0.6,0.1-0.8
		c0.4-3.7,1.5-7,4.6-9.4c0.8-0.6,1.7-1.5,2.1-2.4C870.5,723.9,872.1,719.2,873.8,714.6z M695.6,526.6c2.2-1.6,3.8-2.8,5.4-3.8
		c0.6-0.4,1.7-0.7,2-0.5c0.6,0.6,1.1,1.6,1,2.3c-0.4,2.8-0.9,5.6-1.8,8.2c-2.7,8.1-5.7,16.1-8.5,24.2c-0.3,0.7-0.3,1.8,0,2.4
		c1.6,3.2,3.4,6.3,5,9.5c0.8,1.5,1.6,1.3,2.6,0.3c4.2-4.4,8.3-8.7,12.5-13.1c1.3-1.4,1.9-2.9,1.8-5c-0.5-6.6-0.8-13.2-0.8-19.8
		c0-13.7,0.2-27.5,0.3-41.2c0-3.3,0-3.3-3-3.6c-0.1,0-0.1-0.2-0.2-0.3c0.2,0,0.3,0,0.5,0.1c0.4-2.7,0.8-5.3,1.2-8.7
		c-2.8,1.3-5,2.2-7.1,3.2c-8.2,4-16.4,8-24.7,11.9c-3.1,1.5-4.3,3.6-3.3,6.9c9.7-3.9,18.8-9,29-11.6c-0.4,0.6-0.9,0.9-1.4,1.1
		c-6.8,3.1-13.6,6.2-20.4,9.2c-1.3,0.6-1.7,1.2-1.2,2.6c1.5,4,2.7,8.2,4.4,12.2C691,517.7,693.4,522,695.6,526.6z M398.2,506.3
		c-0.4,0.1-0.7,0.1-0.9,0.2c-8.8,4.3-17.6,8.8-26.5,13c-2,0.9-2.5,2.3-2.4,4.3c0.4,4.9,0.7,9.8,1.1,14.6c1,12.8,2.1,25.7,3.1,38.5
		c0.1,0.7,0.2,1.4,0.5,2.8c2-2.2,3.6-4,5.7-6.4c3.5,10.1,3.8,20.1,6.5,29.6c1.6-1.5,2.9-2.8,4.6-4.5c-0.5-9.6-1.1-19.9-1.6-30.2
		c-0.3-5.9-0.7-11.8-1-17.7c-0.1-1.3-0.3-2.9,2-2.6c0.4,0,0.9-0.6,1.2-1.1c4.2-6.4,8.3-12.8,12.4-19.2c0.3-0.4,0.4-1.1,0.2-1.6
		C401.5,519.6,399.9,513.1,398.2,506.3z M534.5,681c-1.9,2.1-2.2,4.6-1.9,7.1c0.8,5.7,1.3,11.5,2.7,17c2.1,8,4.9,15.9,7.6,23.8
		c0.4,1.2,1.5,2.3,2.5,3.1c1.3,1,2.8,1.7,4.2,2.5c4,2.2,8.2,3.8,12.9,3.3c3.9-0.4,7.3-1.1,8.7-5.6c0.4-1.3,0.8-2.2,0.1-3.5
		c-7.3-12.9-10.9-27-12.4-41.6c-0.4-4.2-1-8.4-1.6-12.6c-0.6-3.9-1.4-4.3-5-2.8c-0.8,0.3-1.6,0.6-2.4,0.9c-4.9,1.8-9.8,3.7-14.7,5.6
		C533.6,678.7,533.1,679.6,534.5,681z M538.9,343.7c-3.4-0.5-6.4-1-9.2-1.4c0.3,6.3,0.6,12.4,0.9,18.8c0.5-0.2,0.9-0.3,1.3-0.5
		c17.1-8.3,35.1-13.5,53.6-17.6c7.8-1.7,15.7-3.1,23.5-4.5c1.4-0.3,2.1-0.9,2.4-2.3c0.5-2.4,1.1-4.8,2-7.1
		c2.6-6.7,5.5-13.3,8.2-19.9c0.7-1.7,1.2-3.5,1.8-5.3c-0.8,0.1-1.1,0.3-1.4,0.6c-9.5,7.3-19.5,13.9-30.2,19.1
		c-9.6,4.7-19.4,9.1-29.4,13c-6.5,2.6-13.5,4-20.2,6C540.7,343,539.5,343.5,538.9,343.7z M269.9,434c-0.6-1.7-1.2-3.1-1.7-4.5
		c-0.9-2.5-0.9-2.6,1.7-3c0.3,0,0.6-0.1,0.8-0.3c3.2-1.9,6.4-3.8,9.7-5.6c1.8-1,2.4-2.3,2.2-4.2c-0.7-7.7-1.2-15.3-1.9-23
		c-0.1-0.9-0.5-1.7-0.8-2.5c-0.8,0.4-1.7,0.6-2.4,1.2c-5,3.9-9.9,7.8-14.8,11.9c-8.4,7-16.8,13.9-24.3,22c-2.6,2.9-2.6,2.9-0.6,6
		c3,4.7,5.9,9.4,8.8,14.1c0.9,1.5,1.7,1.7,3.1,0.7c1.3-0.9,2.6-1.8,4-2.6C259,440.7,264.4,437.3,269.9,434z M213.6,374.5
		c3.4-3.1,7.9-3.9,9-9.2c1.2-5.8,3.6-11.4,5.4-17.1c0.2-0.6,0.3-1.5,0-2.1c-2.8-4.8-5.8-9.6-8.7-14.4c-0.7-1.2-1.6-1-2.5-0.5
		c-2.1,1.3-4.3,2.4-6.3,3.8c-9.2,6.5-18.3,13-27.4,19.5c-1.2,0.9-1.4,1.7-0.9,3.1c2.3,6.2,6.5,11.1,10.6,16.1c1.6,2,3.5,3.7,5.4,5.5
		c5.1-6,10-11.6,15.5-16.7c0.3,0.1,0.5,0.3,0.8,0.4C214.2,366.7,213.9,370.3,213.6,374.5z M841,523.7c-0.2,0-0.4-0.1-0.6-0.1
		c0,5.2,0,10.5,0,15.7c0,0.7-0.5,1.3-0.8,2c-0.3-0.1-0.6-0.2-0.9-0.3c0-19.8,0-39.6,0-59.5c-0.8,0.3-1.6,0.6-2.4,0.8
		c-0.3,1.6-0.7,3.1-0.9,4.7c-1.1,7.2-2.3,14.5-3.2,21.7c-1.1,8.1-2.1,16.2-3,24.4c-0.5,4.7-0.1,5.1,4.6,6.2c0.8,0.2,1.7,0.2,2.6,0.3
		c0.6,0.1,1.2,0.4,2.2,0.7c-3.5,2.6-6.4,0.8-9.6,0c-0.2,3.7,0.4,7,1.8,10.2c0.6,1.5,2,1.7,3.5,1.3c8.5-2.7,16.1-6.3,21.8-13.8
		c4.9-6.5,7.7-13.6,9-21.5c0.4-2.4-1-4-3.4-3.7c-2.4,0.3-4.9,0.8-7.1,1.7c-4.3,1.8-8.5,3.9-12.4,5.8c0.3,0.8,0.9,1.7,0.8,2.3
		C842.8,523.1,841.7,523.4,841,523.7z M894.5,655.6c-0.3-1.4-0.5-2.1-0.6-2.9c-0.8-5.1-1.9-10.2-2.4-15.3
		c-0.8-9.1-1.1-18.2-1.6-27.3c-0.1-1.5-0.7-2.5-2.1-3.2c-2.6-1.4-5.2-2.8-7.6-4.5c-6.3-4.4-12.6-8.9-18.8-13.3
		c-2.6-1.8-5.5-1.9-8.1-0.1c-0.8,0.5-1.6,1-2.4,1.5c-2,1.2-3.9,2.5-5.9,3.8c24.8,11.5,38.1,30.5,39.1,57.5
		C887.4,652.9,890.6,654.1,894.5,655.6z M587.2,649.2c-2.5,1-4.9,1.9-7.3,2.8c-10.1,3.7-20.2,7.4-30.4,11
		c-8.3,2.9-16.5,5.9-24.9,8.2c-8.3,2.3-16.8,3.9-25.2,5.8c-1.4,0.3-2.3,0.9-2.7,2.3c-0.8,2.8-1.9,5.4-2.7,8.2
		c-0.4,1.3-0.6,2.7-1.1,4.9c5.3-1.9,10.1-3.5,14.7-5.3c8.8-3.4,17.5-7,26.3-10.4c2.1-0.8,4.4-1,6.4-1.8c4.1-1.6,8-3.6,12.1-5.1
		c10.4-3.7,20.8-7.1,31.2-10.7c0.5-0.2,1.2-0.5,1.3-0.9C585.7,655.3,586.4,652.3,587.2,649.2z M360.6,498.7
		c-2.9-12.5-4.5-24.8-6.4-37.6c-1.6,1.4-2.6,2.3-3.7,3.3c-3.7,3.5-6.9,7.9-13.1,7.4c-0.4,6.2-0.9,12.1-1.2,18.1c0,0.7,0.7,2,1.4,2.2
		c3.1,1.2,6.2,2.3,9.3,3.3c7.5,2.2,15,4.4,22.6,6.5c2.2,0.6,2.5,0.2,2.1-2.1c-0.5-2.8-1-5.7-1.5-8.5c-0.6-3.8-1.2-7.6-1.8-11.4
		c-0.2-0.1-0.3-0.1-0.5-0.2c-1.1,2.2-4.4,2.3-4.6,5.2c-0.2,4.4-2.7,8.4-2,12.9C361.3,497.9,361,498.1,360.6,498.7z M809.6,738.6
		c0.1,0.2,0.2,0.4,0.4,0.6c0.5-0.1,1-0.2,1.4-0.4c9.3-4.3,18.6-8.7,27.9-13c4.6-2.1,9.4-3.9,14.1-6c3.4-1.6,6.8-3.3,10.1-5.2
		c2.1-1.2,4-2.8,5.9-4.2c0.4-0.3,0.7-0.7,0.8-1.2c1-4,1.9-8.1,2.8-12.1c0.8-3.8,1.6-7.7,2.4-11.6c0.4-2.1,0.7-4.3,1-6.4
		c-0.2-0.1-0.4-0.1-0.6-0.2c-1.3,1.9-2.5,3.8-3.9,5.6c-2.2,3-4.1,6.1-6.6,8.7c-5.2,5.3-10.6,10.4-16.1,15.5
		c-3.6,3.3-7.4,6.4-11.3,9.4c-4.6,3.6-9.5,7-14.2,10.5c-3.7,2.7-7.4,5.4-11.1,8.1C811.6,737.3,810.6,737.9,809.6,738.6z
		 M267.2,326.2c-1.3,0.6-2,0.9-2.7,1.3c-10.9,6.3-21.7,12.6-32.6,19c-0.8,0.5-1.5,1.3-1.9,2.2c-1.6,4.1-3.2,8.2-4.7,12.3
		c-0.8,2.2-1.4,4.4-2.3,7.1c7.6-4.2,14.5-8.1,21.4-12.1c2.7-1.5,5.1-3.3,7.8-5c0.5-0.3,1.2-0.4,1.9-0.5c0.9-0.1,1.9,0.1,2.6-0.3
		c2.3-1.2,4.5-2.6,6.8-3.8c1.6-0.8,2.2-1.9,2.4-3.5c0.5-4.3,1-8.6,1.4-12.9C267.6,328.9,267.3,327.7,267.2,326.2z M780.9,402.4
		c-2.4,6.5-5.1,13.6-7.6,20.7c-0.2,0.5,0,1.6,0.4,1.9c2.8,1.6,5.6,3.2,8.5,4.6c1.3,0.6,2.7,1.5,4.2,0.2c3-2.5,6.1-4.9,9.1-7.3
		c0.5-0.4,1-0.9,1.1-1.5c1.4-8.5,2.8-17,4.1-25.5c0.1-0.9-0.4-2-0.6-3.2c-5.6,3.2-10.7,6.2-15.9,9.2
		C783.4,401.9,782.3,402,780.9,402.4z M407.3,469.7c2.8-5,5.4-9.7,7.9-14.5c0.3-0.7,0.4-1.5,0.4-2.3c-0.2-3.9-0.2-7.8-0.9-11.6
		c-1-5.3-2.5-10.6-3.9-15.8c-0.5-1.8-1.7-2.4-3.7-1.5c-4.2,2-8.6,3.7-12.9,5.5c-1.5,0.6-1.7,1.2-1.1,2.7c3.2,8.2,6.3,16.3,9.4,24.5
		C404,461,405.6,465.2,407.3,469.7z M283.5,666.6c-0.2-0.2-0.4-0.4-0.5-0.6c-1,0.2-2,0.2-2.9,0.5c-4.9,1.5-9.7,3.2-14.6,4.6
		c-1.7,0.5-2.6,1.4-3,3c-2.4,10.2-4.7,20.5-7.1,30.7c-0.3,1.5,0.1,2.6,1.7,3c1.9,0.5,3.9,0.9,5.9,1.2c1.7,0.3,2.7-0.6,3.3-2.2
		c1.3-3.6,2.7-7.1,4.2-10.6c3-7.2,6.1-14.4,9.2-21.6C280.8,672,282.2,669.3,283.5,666.6z M208.1,315.3c-13.2,10.5-26,20.7-38.9,30.9
		c4.8,2.3,9.5,4.6,14.3,6.9c2.5-1.9,5.2-4,7.9-6c5.1-3.8,10.3-7.6,15.4-11.5c0.5-0.4,1-1.1,0.9-1.7C207,328,207,322,208.1,315.3z
		 M883.2,384.5c-0.1-0.2-0.2-0.3-0.3-0.5c-1.1,0.3-2.2,0.6-3.3,1c-9.3,3.4-18.6,6.7-27.8,10.4c-6.9,2.7-13.7,5.8-20.5,8.9
		c-7.7,3.6-15.2,7.5-22.8,11.3c-0.4,0.2-1,0.8-0.9,1c0.5,1.7-0.3,3-1,4.4c-0.7,1.3-1,2.9-1.6,4.9c22-11.7,44-22.3,67-30.8
		c-0.4-0.7-0.7-1.2-1-1.8c-1.6-2.7-1.3-3.3,1.7-4.5c3-1.1,6-2.3,9-3.4C882.3,385.1,882.7,384.8,883.2,384.5z M253.6,704.5
		c0.4-2.4,1.4-4.8,1-7c-1.2-6.6-2.9-13.2-4.5-19.7c-0.4-1.7-1.6-2.2-3.5-1.7c-2.6,0.7-5.3,1.2-8,1.5c-3,0.2-6.1,0.1-9.6,0.1
		c2.3,10.2,4.7,20.8,7.1,31.4c0.3,0,0.6,0,0.9,0c2.6-5.8,5.2-11.6,8-17.8C249.4,695,250.3,700.3,253.6,704.5z M482.2,421.9
		c-1.2,1.7-2.3,2.7-2.8,4c-1.6,4-2.9,8.1-4.5,12.1c-2.2,5.6-4.4,11.2-6.5,16.3c1.6,2.9,2.9,5.6,4.5,8.6c2.1-2.7,4.1-5,5.7-7.5
		c1.2-1.8,2.4-3.7,2.9-5.7c1.6-7,2.9-14.2,4.3-21.2c0.1-0.3,0-0.6-0.2-0.8C484.6,426,483.6,424.3,482.2,421.9z M903.4,721.8
		c-1.9-0.9-3.5-1.9-5.2-2.4c-2.6-0.7-4.8-2.5-8.2-0.5c-5.9,3.4-11.6,7-17,11.1c-0.8,0.6-1.6,1.6-2.5,1.8c-4.5,1.2-4.9,5-5.7,8.5
		c-0.1,0.5,0.2,1.3,0.5,1.8c0.2,0.2,1,0.2,1.3,0c3.4-1.9,6.7-3.8,10.1-5.7c3.4-2,6.8-4,10.2-5.9
		C892.2,727.5,897.7,724.8,903.4,721.8z M520.6,421.9c0.2,0,0.4,0,0.6,0c1.5-11.6,3-23.3,4.5-35c-1.5-0.2-2.6-0.4-3.6-0.4
		c-5.3-0.3-5.6,0-5.9,5.2c-0.1,1,0.3,2,0.5,3.3c-0.2,0.4-0.9,1.1-1.1,2c-0.4,1.8-0.6,3.7-0.8,5.5c-0.1,0.9-0.1,1.9,0.2,2.7
		c0.7,2,1.7,3.8,2.3,5.8C518.4,414.6,519.5,418.3,520.6,421.9z M777.1,652.6c0.8-0.5,1.5-0.9,2.3-1.4c2.4-1.6,4.7-3.4,7.1-4.9
		c9-5.5,18-11,27-16.5c2.7-1.6,2.8-2.2,1.1-5c-0.3-0.5-0.6-1-1-1.4c-0.9-0.9-1.8-1.4-3-0.4c-1.7,1.4-3.6,2.7-5.4,4
		C794.8,634.4,785.1,642.4,777.1,652.6z M812.8,444c-1.9,0.7-3.2,1.1-4.5,1.7c-3.5,1.4-7,2.9-10.5,4.3c-4.9,1.9-9.8,3.8-14.6,5.8
		c-0.6,0.2-1.4,0.8-1.5,1.4c-0.5,2.3-0.8,4.7-1.3,7.5c2.1-1,3.9-1.8,5.6-2.7c7.7-4,15.3-8.1,23.1-12
		C811.4,448.7,812.1,446.9,812.8,444z M897.4,552.6c-2-0.9-4.1-1.9-6.2-2.7c-0.7-0.3-1.7-0.4-2.3-0.2c-5.6,1.8-11.2,3.7-16.7,5.5
		c-0.3,0.1-0.7,0.3-0.9,0.6c-2.6,3.2-5.1,6.5-7.7,9.7c0,0.1,0.1,0.3,0.1,0.4C875,561.4,886.3,557,897.4,552.6z M351.2,405.2
		c-4.5,3.9-8.6,7.3-12.6,10.8c-0.4,0.3-1,1-0.9,1.3c0.8,2.6,1.8,5.1,2.9,7.9c5-2.7,9.8-5.2,14.4-7.7
		C353.6,413.2,352.5,409.4,351.2,405.2z M303.5,408.6c-5.5,3.2-10.5,6.2-15.6,9.2c-5.4,3.2-10.8,6.4-16.1,9.6
		c-0.6,0.4-1.3,1.4-1.3,2.1c0,1.1,0.5,2.3,0.9,3.6c9.3-5.7,18.4-11.5,27.8-16.8C302.5,414.6,303.1,412.2,303.5,408.6z M827,530
		c-4.2-0.6-4.4-0.4-4.8,3.7c0,0.3-0.1,0.6-0.2,0.8c-1,6-2,12-2.8,18.1c-0.1,0.5,0.7,1.5,1.2,1.7c1.9,0.5,3.8,0.7,5.5,0.9
		c0.6-0.7,0.9-1.6,1.5-1.8c1.7-0.7,1.5-1.7,1.1-3.1c-0.6-2.1-1.3-4.2-1.4-6.4C826.8,539.3,827,534.7,827,530z M431.6,593.1
		c-4.8-3.2-6.8-3.3-10.7-0.5c-0.4,0.3-0.8,0.5-1.3,0.8c-3,2.1-6,4.2-8.9,6.4c-1.9,1.5-0.3,2.8,0.4,4.1c0.7,1.3,1.6,0.7,2.5,0.1
		c3.9-2.4,7.9-4.7,11.9-7C427.5,595.8,429.4,594.5,431.6,593.1z M261.5,672.6c-3.1,0.6-5.5,1.2-7.9,1.6c-1.7,0.3-2,1.2-1.7,2.6
		c0.7,3.3,1.4,6.6,2.1,9.9c0.4,2.1,0.9,4.2,1.4,6.8C257.5,686.3,259.4,679.7,261.5,672.6z M338.4,455.2c0.3,1.3,0.6,2.2,0.6,3
		c-0.2,3-0.7,6-0.9,9c0,0.7,0.4,1.7,1,2.1c1.7,1.1,5.5-0.8,5.6-2.8c0.1-4.7,0-9.4,0-14.3C342.5,453.2,340.3,454.3,338.4,455.2z
		 M346.7,451.3c0,4.7,0,9.3,0,14.3c1.2-1,2-1.7,2.9-2.2c3.9-2.2,5.2-5.4,3.9-9.8c-0.5-1.6-0.5-3.3-0.8-5.2
		C350.4,449.5,348.6,450.4,346.7,451.3z M299.5,491.5c0-5.7,0-11.3,0-17.1c-2.1,1.1-3.9,2-5.5,3c-0.4,0.3-0.8,1.4-0.6,1.8
		C295.4,483.3,297.4,487.3,299.5,491.5z M492.4,414.8c-0.2-0.1-0.4-0.2-0.5-0.3c-1.7,1.3-3.3,2.7-5,3.9c-3.2,2.4-3.3,2.5-1.2,5.6
		c0.5,0.8,1.6,1.8,2.2,1.7c1.6-0.4,3.5-0.6,3.8-2.9C491.9,420.1,492.2,417.4,492.4,414.8z M490.5,408.3c-0.7,0.6-1.2,1.1-1.7,1.6
		c-1.6,1.6-3.2,3.3-4.8,4.9c-1.9,1.8-1.9,1.8-0.5,4.3c1.9-1.4,3.7-2.9,5.7-4.3C491.3,413.3,491.8,411.3,490.5,408.3z M789.7,588.4
		c-1.3-2.1-2.5-4-3.8-6.1c-2.2,2.3-4.4,4.6-6.5,6.8c0.1,0.1,0.2,0.3,0.3,0.4C782.9,589.2,786,588.8,789.7,588.4z M297,333.2
		c0.2,0.2,0.5,0.4,0.7,0.6c2.2-1,4.4-2,6.6-3c2.4-1,3.1-1.9,2.8-4.7c-2.8,1.5-5.7,3-8.4,4.6C297.9,331.1,297.5,332.3,297,333.2z
		 M489.2,404.6c0,0.3,0,0.6,0.1,0.9c1.3,0,2.7,0.3,4-0.1c3.4-1,6.8-2.2,10.2-3.4c1.6-0.6,3.1-1.3,4.6-2c0-0.1-0.1-0.3-0.1-0.4
		C501.6,401.3,495.4,403,489.2,404.6z M884.2,384.2c6.7-2.6,7.2-2.9,8.3-6C889.8,380.5,885.7,380.2,884.2,384.2z M437,527.9
		c1.5-1.3,1.3-2.4-1-5.8C436.3,524.2,436.6,525.9,437,527.9z"/>
	<path d="M208.7,700.5c-0.2,0.6-0.4,1.2-0.7,1.7c-3.3,5.8-6.5,11.7-10,17.4c-3.4,5.7-7,11.2-10.6,16.8c-6.2,9.4-12.5,18.7-18.7,28
		c-0.7,1-0.6,1.5,0.4,2.3c1.4,1.2,2.7,2.6,4,3.9c-0.2,0.3-0.5,0.6-0.7,0.9c-2.2-1.2-4.3-2.5-6.7-3.9c0.8-1.2,1.9-2.9,3-4.6
		c4.3-6.5,8.5-13,12.8-19.5c0.5-0.7,0.6-1.7,0.9-2.5c-0.8,0-1.6,0-2.4,0.1c-5.2,0.2-10.5,0.8-15.7,0.6c-6.8-0.3-13.7-0.7-20.4-1.9
		c-25.7-4.6-44.2-21.3-50.3-47.7c-3.1-13.4-3.4-26.8,0.5-40.1c2.8-9.5,7.1-18.4,11.5-27.2c6.7-13.1,13.6-26,20.3-39.1
		c4.2-8.3,7.9-16.8,10.2-25.9c0.1-0.5,0.3-1,0.3-1.5c0.2-1.1,0.3-2.3,0.1-3.6c-1.1,1.6-2.2,3.2-3.4,4.9c-1.3-1.7-0.2-2.9,0.5-4
		c2.2-3.5,4.4-7,6.7-10.3c4.7-6.7,9.5-13.4,14.2-20.1c0.4-0.6,0.5-1.9,0.1-2.4c-1.5-2.1-3.3-4-5.1-6.1c-1.1,1.1-2.1,2-3,3
		c-6.1,7.2-12.2,14.4-18.1,21.7c-0.7,0.8-0.9,2.4-0.6,3.5c0.8,3.8,2,7.5,2.9,11.3c0.2,0.8,0,1.7,0,2.5c-0.2,0-0.5,0.1-0.7,0.1
		c-1.4-4.4-2.9-8.9-4.5-13.9c-4.2,5.3-7.9,10.1-11.7,14.9c-1.4,1.8-3,3.6-4.5,5.4c-0.2,0.3-1,0.3-1.4,0.2c-2.9-1.1-5.8-2.2-8.6-3.4
		c-1-0.4-1.8-1-1-2.3c0.2-0.4,0-1.2-0.2-1.7c-9-17.5-14.8-36-17.2-55.6c-1.6-13.3-1.7-26.4,1.2-39.5c3.3-14.9,9.2-28.6,18.6-40.7
		c1.8-2.4,4-4.4,7.2-4.5c0.8,0,1.5,0.5,2.3,0.8c0.1,0-0.1,1-0.3,1.1c-0.7,0.2-1.4,0.1-2.1,0.2c-0.8,0.2-1.7,0.3-2.3,0.7
		c-3.5,2.4-6,5.7-8,9.4c-2.4,4.3-5.3,8.4-7.3,12.9c-4.3,9.9-7,20.2-8.2,30.9c-1.5,13.1-0.3,26,2.2,38.9c2,10.5,4.9,20.7,8.9,30.6
		c1.8,4.4,4.1,8.6,5.4,13.1c1.3,4.5,4.6,5.5,8.3,6.5c0.6,0.1,1.1,0.4,1.6,0.5c2.6-5,38.8-47.6,42.1-49.4c0.4,2.1,5.3,7.7,7.4,8.2
		c-0.7,1.1-1.3,2.1-2,3.1c-1.7,2.5-3.5,4.9-5.3,7.4c-0.9,1.2-1,2.2,0.2,3.2c3.7,2.9,7.1,6.4,11.2,8.7c4.6,2.6,9.7,4.3,14.7,6
		c11.2,3.7,22.9,4.2,34.6,3.8c19.7-0.6,39-4,58.1-9.1c2.4-0.6,4.7-1.3,7.1-1.9c1.5-0.4,2.3-1,2.1-2.8c-0.3-2.8-0.4-5.6-0.5-8.4
		c0-0.7,0.5-1.5,0.9-2.2c0-0.1,0.9,0,0.9,0.2c0.2,0.8,0.4,1.6,0.4,2.4c0,3.1-0.2,6.1-0.2,9.2c0.1,5.7,0.4,11.3,0.7,17
		c-0.2,0-0.4,0.1-0.6,0.1c-0.2-1.8-0.6-3.6-0.7-5.4c-0.2-2.3-0.3-4.6-0.5-6.9c-0.1-2.5-0.4-2.7-2.9-2c-3.9,1.1-7.9,2.4-11.8,3.3
		c-16.2,4-32.4,7.2-49.1,7.9c-3.2,0.1-6.3,0.4-9.5,0.4c-2.1,0-2.2,1.4-2.3,2.9c-0.4,4.9-0.8,9.9-1.3,14.8c-0.1,0.9-0.3,1.8-0.9,2.6
		c0.1-2.8,0.3-5.5,0.4-8.3c0.1-3.4,0-6.8,0.1-10.2c0.1-1.8-0.7-2.2-2.3-2.2c-8.9-0.3-17.6-1.7-26.1-4.4c-9-2.9-17.1-7.4-23.7-14.4
		c-0.2-0.2-0.4-0.4-0.7-0.6c-0.1-0.1-0.3-0.1-0.6-0.2c-1.9,2.9-3.9,5.9-5.9,8.8c-1.9,2.8-2.5,5.9-3.2,9.1
		c-1.5,6.8-3.3,13.7-6.3,19.9c-7.8,16-16.3,31.6-24.4,47.4c-5.2,10.1-10.1,20.2-13.1,31.2c-2.9,10.7-3.1,21.4-1.5,32.3
		c1.4,9.3,4.2,18.1,9.2,26.1c6.8,11,16.4,19,28.6,23.6c14.3,5.4,29.1,6.4,44.2,5.5c1.1-0.1,2.2-0.3,3.2-0.1c4.1,0.5,6.3-1.7,8.1-5
		c4.8-8.7,9.9-17.2,14.7-25.9c1.3-2.3,1.9-4.9,2.8-7.3C205,700.9,207.2,700,208.7,700.5z"/>
	<path d="M552.3,530c-3,0.8-6,1.6-9.1,2.3c3.2,7.4,6.2,14.6,9.4,22c2.4-5.1,4.6-9.9,6.8-14.6c0.3,0,0.5,0.1,0.8,0.1
		c-0.1,1,0,2-0.3,2.9c-2.1,7.3-6,13.6-10.2,19.9c-0.6,1-1.3,1.9-2,2.8c-1.6,1.9-3.1,2.1-5.2,0.3c-2.9,2.9-5.8,5.9-8.8,8.7
		c-2,1.9-4.2,3.7-6.3,5.5c-1.3,1.1-2.2,0.7-2.7-0.9c-0.9-2.9-1.9-5.7-2.8-8.6c-0.3-0.8-0.7-1.6-1.6-2.5c-0.5,1.3-1.2,2.6-1.5,3.9
		c-3.2,11.6-6.4,23.3-9.6,35c-1.2,4.6-2.4,9.2-3.7,13.7c-0.6,1.9-0.2,3.3,1.3,4.6c2.3,1.8,4.6,3.7,6.9,5.5c0.6,0.5,1.1,1,1.6,1.5
		c-0.1,0.2-0.2,0.4-0.3,0.6c-0.6-0.1-1.4,0-1.8-0.3c-3.2-2.5-6.4-5-9.6-7.7c-1-0.8-0.9-1.7-0.1-3c1-1.7,1.4-3.9,1.9-5.9
		c2.6-10.2,5.2-20.3,7.9-30.5c0.5-1.9-0.1-3.2-1-4.8c-3.6-6.5-6.1-13.4-7.2-20.7c-1.4-9.2-2.3-18.5-3.4-27.8c-0.2-1.5,0.1-3,0.3-4.5
		c0.1-0.5,0.7-0.9,1-1.4c0.2,0.5,0.5,1.1,0.6,1.6c0.1,3.4,0.2,6.9,0.3,10.3c0,1.7,0.8,2.2,2.3,1.8c5.1-1.3,10.1-2.8,15.2-4
		c9.9-2.3,19.9-4.5,29.9-6.7c0.2,0,0.4,0,0.6,0.1C552.1,529.5,552.2,529.7,552.3,530z M544,564.8c0.1,0.2,0.2,0.4,0.3,0.5
		c0.7-0.4,1.6-0.7,2.1-1.3c1.7-2.4,3.2-4.9,4.8-7.4c0.3-0.5,0.3-1.3,0.1-1.8c-3.1-6.8-6.2-13.6-9.3-20.4c-0.6-1.4-1.6-1.8-2.9-1.4
		c-5.2,1.3-10.5,2.6-15.7,4c-6.2,1.7-12.4,3.5-18.8,5.2c0,0.2-0.1,0.7-0.1,1.2c1.1,10.1,2.7,20.1,5.7,29.8c0.8,2.8,2.3,5.4,3.4,8.1
		c0.2-0.1,0.5-0.1,0.7-0.2c0.3-0.9,0.6-1.9,0.9-2.8c1.1-3.6,2.1-7.2,3.4-10.7c0.8-2.2,2.9-2.2,4.1-0.3c0.7,1.1,1,2.4,1.4,3.6
		c0.8,2.4,1.5,4.8,2.4,7.8c7-6.3,13.6-12.3,20.1-18.2c0.2,0.2,0.4,0.4,0.6,0.6C546.1,562.4,545,563.6,544,564.8z"/>
	<path d="M158.9,547.3c0.2,1.1,0.4,2,0.5,2.8c1.5,12,3.1,24,4.3,36c0.4,3.6,2.6,5.7,4.9,7.7c4.8,4.1,9.9,7.9,14.8,11.9
		c0.3,0.2,0.5,0.4,0.7,0.7c-0.1,0.2-0.2,0.4-0.3,0.6c-0.9-0.4-2-0.6-2.8-1.2c-4.3-3.2-8.6-6.5-12.9-9.8c-0.6-0.4-1.1-0.9-2.1-1.8
		c1.5,19.6,3,38.6,4.4,57.7c-0.2,0-0.5,0-0.7,0.1c-2.6-24.8-4.6-49.6-8.4-74.2c-0.3-0.1-0.5-0.1-0.8-0.2c-1.3,1.7-2.6,3.5-3.9,5.2
		c-5.9,8.5-12.1,16.8-17.7,25.5c-7.7,12.1-13.3,25.2-15.3,39.6c-2,14.5,0.1,28.3,7.7,41c6.5,10.9,16.4,16.7,28.8,18.7
		c12.9,2,25.2-0.6,37.4-4c1.2-0.3,2.5-0.7,3.8-1c0.2,0,0.4,0.1,1.1,0.3c-2.8,0.9-5,1.7-7.3,2.4c-11.2,3.2-22.5,5.2-34.2,3.7
		c-9.4-1.2-17.8-4.7-24.6-11.4c-5.8-5.8-9.5-13-11.8-20.8c-4.1-13.9-3.6-27.7,0.7-41.5c2.9-9.2,7-17.8,12.2-25.9
		c6.8-10.8,13.9-21.4,20.8-32c4.2-3,1.8-7,1.5-10.6c-0.5-5.1-1.5-10.2-2.2-15.4C157.5,550,156.9,548.5,158.9,547.3z"/>
	<path d="M115.2,529.6c1.7-3.3,3.3-6.5,4.9-9.8c0.2-0.5,0.3-1.1,0.3-1.7c-0.4-6.2-0.7-12.4-1.2-18.5c-0.2-2.7-0.2-4.8,2.1-7
		c4.3-4.1,7.9-9,11.8-13.5c3.9-4.5,7.9-9,11.9-13.4c1.1-1.2,2-2.4,1.9-4.2c0-0.5,0.5-1,0.8-1.6c0.4,0.4,1,0.9,1,1.3
		c0.4,3.3,0.8,6.7,1,10c0.6,10.2,1.2,20.4,1.7,30.6c0.1,1.4,0,2.8,0,4.2c-0.4,0.1-0.6,0.2-0.7,0.2c-2.5-1.1-4.3-0.4-6,1.8
		c-6.4,8.2-13,16.3-19.5,24.5c-0.3,0.4-0.6,0.9-1,1.1c-0.8,0.4-1.7,1-2.5,0.8c-0.4-0.1-0.9-1.4-0.9-2.1c-0.1-3,0-6.1,0-9.1
		c-0.2,0-0.5,0-0.7,0c-1.7,3.5-3.4,7-5,10.5c-0.2,0-0.4,0-0.6-0.1c-0.2-0.5-0.6-0.9-0.6-1.4c-0.6-5.9-1.2-11.9-1.7-17.8
		c-0.6-6.4-1.2-12.7-1.7-19.1c-0.6-7.2-1.2-14.3-1.8-21.5c-0.4-5.2-0.8-10.3-1.2-15.5c0-0.4-0.2-0.8-0.1-1.1
		c0.2-0.6,0.6-1.1,0.9-1.6c0.5,0.3,1.2,0.5,1.4,1c1.3,2.6,2.4,5.2,3.6,7.8c1,2.1,1.9,4.3,3,6.8c2.1-2.7,3.9-5,5.7-7.2
		c0.3,0.2,0.6,0.4,0.9,0.6c-3.2,5.4-7,10.4-10.8,15.5c-0.3-0.1-0.6-0.3-0.8-0.4c0.3-0.8,0.4-1.7,0.9-2.3c3.3-3.4,2.9-6.8,0.6-10.5
		c-1-1.6-1.7-3.4-2.7-5.1c0.4,22.6,2.6,45.1,4.4,67.5C114.7,529.6,114.9,529.6,115.2,529.6z M147.2,465.2c-0.8,0.8-1.2,1-1.4,1.4
		c-7.9,9.2-15.8,18.3-23.5,27.6c-0.9,1-1.2,2.7-1.2,4.1c0.1,4.2,0.6,8.5,0.7,12.7c0.1,6.7,0.1,13.4,0.1,20.1c0,0.7,0.1,1.3,0.2,2.7
		c2.4-2.9,4.3-5.4,6.4-7.8c5.9-6.8,11.9-13.6,17.9-20.4c0.4-0.5,1.2-1.2,1.7-1.1c2.8,0.5,2.5-1.3,2.4-3c-0.9-10.5-1.7-21.1-2.6-31.6
		C147.6,468.4,147.4,467.1,147.2,465.2z"/>
	<path d="M676.3,396.4c-2.9,0.5-5.7,1.1-8.6,1.6c-12.8,2.3-25.7,4.7-38.5,7.1c-5,0.9-10,2.1-15,3.2c-0.6,0.1-1.1,1-1.4,1.6
		c-0.8,1.5-1.3,3-2.1,4.5c-0.2,0.3-0.8,0.5-1.2,0.5c-1.2,0.1-2.6-0.2-3.7,0.1c-7.3,2-14.7,4.2-22,6.3c-2.1,0.6-4.2,1.1-6.6,1.7
		c0.4-1.8,0.7-3.2,1.1-5c-1.4,0.3-2.5,0.5-3.5,0.8c-3.1,1-6.3,2.1-9.4,3.2c-2.1,0.7-3.3,0.5-4.4-0.7
		C568.2,416.1,669.9,393.7,676.3,396.4z M580.2,420.5c1.3-0.1,2.3-0.1,3.2-0.4c8-2.3,15.9-4.8,24-6.9c2.1-0.6,2.8-1.5,3-3.6
		c-0.4,0-0.8-0.1-1.1-0.1c-8.9,2.3-17.8,4.6-26.7,7C580.8,417,580.5,418.6,580.2,420.5z"/>
	<path d="M917.6,659.6c-0.5-5.2-1-10-1.4-14.8c-0.3-4.3-0.4-8.6-0.4-12.9c0-7.7,0.2-15.4,0.3-23.1c0.1-8.8,0.2-17.5,0.2-26.3
		c0-1.4-0.4-2.8-0.7-4.2c-0.2-1.3,0.3-2.5,1.7-2.4c0.6,0,1.6,1.3,1.7,2c0.3,4.3,0.2,8.6-0.2,13c-0.5,5.6-0.4,11.3-0.5,17
		c-0.1,4.4-0.3,8.7-0.4,13.1c-0.1,5.3-0.2,10.6,0.1,15.9c0.3,6.9,1,13.7,1.5,20.6c0.1,1.3,0.6,2.5,0.7,3.8c0,0.6-0.3,1.4-0.7,1.8
		c-0.2,0.2-1.2,0-1.6-0.3c-4.9-3.5-9.8-7.1-14.7-10.6c-2.2-1.5-4.5-2.9-6.7-4.4c-0.5-0.4-0.7-1.2-1-1.9c0.7-0.2,1.6-0.7,2.1-0.5
		c1.4,0.6,2.8,1.5,4,2.5C906.9,651.6,912.1,655.5,917.6,659.6z"/>
	<path d="M619.4,606.3c-1.7,0.5-3.5,1-5.2,1.5c-7.7,2.2-15.3,4.3-23,6.6c-5.2,1.5-10.3,3.1-15.5,4.7c-5.8,1.8-11.7,3.7-17.5,5.6
		c-7.4,2.4-14.7,5-22.1,7.4c-3.3,1.1-6.5,2.2-9.8,3.2c-0.6,0.2-1.3,0.3-1.9,0.1c-0.3-0.1-0.6-0.7-0.7-1.2c0-0.2,0.5-0.6,0.9-0.7
		c1.4-0.5,2.8-0.8,4.2-1.2c4.2-1.4,8.3-2.8,12.5-4.1c8.5-2.8,17.1-5.7,25.7-8.3c9.5-2.9,19-5.6,28.6-8.3c7.1-2,14.3-4,21.4-5.9
		c0.7-0.2,1.5-0.1,2.2-0.2C619.3,605.7,619.4,606,619.4,606.3z"/>
	<path d="M724.7,466.9c-1-2.8-2-5.5-2.9-8.3c-2.9-9.9-5.7-19.9-8.7-29.8c-0.9-3-2.1-6-3.1-9c-0.2-0.8,0-1.7-0.1-2.5
		c1,0.1,2.1-0.2,2.8,0.3c1.2,0.8,2.1,2.1,3.1,3.2c0.5,0.6,1.1,1.1,2.2,1.6c0.1-2.3,0.1-4.6,0.4-6.9c0.1-1.1,1-3,1.1-3
		c1.7,0.4,1.3,1.9,1.2,3.1c-0.3,3.6-0.7,7.3-1.1,10.9c-0.1,0.8-0.5,1.6-1.3,2.4c0.2-4.1-3.5-5.5-5.4-8c4.1,15.2,8.1,30.5,12.2,45.7
		C725.2,466.8,724.9,466.8,724.7,466.9z"/>
	<path d="M680,511.7c-6.1,2.1-12.5,3.1-19.3,4.2c-0.7-2-1.8-4.5-2.5-7.1c-2-7.6-4.2-15.1-5.7-22.8c-0.8-4-1.5-7.9-3.1-11.5
		c-0.2-0.4,0.2-1.1,0.3-1.7c0.6,0.3,1.5,0.5,1.6,0.9c0.8,2.6,1.4,5.3,2,7.9c1.9,8,3.7,16.1,5.6,24.1c0.4,1.8,1.1,3.6,1.5,5.4
		c0.4,1.6,1.3,2.5,2.9,2.3c3.5-0.4,7.1-1,10.6-1.5c1.7-0.3,3.4-0.7,5.1-1c0.3-0.1,0.6,0.2,0.9,0.3C680,511.2,680,511.5,680,511.7z"
		/>
	<path d="M493.4,589c-0.4-3-1-6.1-1.2-9.1c-0.6-10-1-20-1.5-30c-0.5-9.5-1.1-19-1.5-28.4c-0.1-1.1,0.4-2.2,0.7-3.3
		c1.9,0.4,1.3,2.1,1.3,3.2c0.3,11.1,0.3,22.3,0.7,33.4c0.3,9.5,1,18.9,1.5,28.4C493.5,585.1,493.4,587.1,493.4,589
		C493.4,589,493.4,589,493.4,589z"/>
	<path d="M627.4,590.8c-1.3,0.2-2.2,0.4-3.1,0.6c-6.4,1.2-12.7,2.2-19.1,3.5c-1.6,0.4-3,1.8-4.5,2.7c-1.1,0.6-2.2,1.2-3.3,1.8
		c-0.2-0.3-0.4-0.6-0.6-0.8c1.1-0.8,2.1-1.6,3.3-2.4c0.5-0.3,1.1-0.4,1.6-0.7c2.9-2.3,6.4-2.9,10-3.4c5.6-0.8,11.2-2,16.7-3
		c0.5-0.1,1.1,0,1.9,0c-2.3,4.8-1.7,10.2-4.5,14.4c-0.3-0.1-0.6-0.1-0.9-0.2C625.8,599.3,626.6,595.3,627.4,590.8z"/>
	<path d="M284.8,584.3c-1.7,1.6-2.2,1.4-3.2,0.2c-2.5-2.9-5.2-5.5-8-8c-1.4-1.2-2.2,0.1-2.7,1.3c-2.1,4.7-4.1,9.3-6.2,14
		c-0.5,1-1.1,2-1.8,2.9c-0.2,0.3-0.9,0.2-1.4,0.3c0-0.5-0.3-1.1-0.1-1.5c3-5.9,6.1-11.9,9.1-17.8c1.5-2.9,2.2-3.1,4.6-0.8
		C278.4,577.8,281.5,581,284.8,584.3z"/>
	<path d="M202.6,312.9c-1,2-2,4-2.9,6.1c-0.2,0-0.4-0.1-0.7-0.1c-0.2-0.6-0.4-1.1-0.6-1.7c-0.2,0.1-0.6,0.1-0.7,0.3
		c-6.3,5.3-12.7,10.6-18.9,16c-0.8,0.7-1.1,1.9-1.7,2.9c-0.3,0.5-0.5,0.9-0.8,1.5c-2-2.6-2-3.4,0.1-5.2c7-5.7,14.2-11.3,21.2-16.9
		c1.4-1.1,2.8-2.2,4.2-3.3C202,312.5,202.3,312.7,202.6,312.9z"/>
	<path d="M270.5,584.7c7.2,12.5,16.9,23,26.1,34.5C292,618.3,269.8,588.7,270.5,584.7z"/>
	<path d="M252.6,501.2c-0.2,0.2-0.4,0.6-0.5,0.6c-0.6-0.2-1.3-0.3-1.6-0.7c-1.7-1.9-3.3-4-4.9-6c-1-1.2-2.1-2.3-3.1-3.6
		c-0.3-0.4-0.4-0.9-0.6-1.4c0.6-0.1,1.2-0.2,1.7-0.1c0.4,0.1,0.8,0.6,1.1,0.9c2.4,3.1,4.8,6.1,7.3,9.2
		C252.1,500.5,252.3,500.8,252.6,501.2z"/>
	<path d="M497.6,326.3c1.7,4.5,1.5,9,1.5,13.6C497.4,338.6,496.3,328.1,497.6,326.3z"/>
	<path d="M488.5,517.6c-1.9,4-3.9,8-5.8,12c-0.2-0.1-0.5-0.2-0.7-0.3c2.2-3.9,2.7-8.5,5.5-12.1C487.9,517.3,488.2,517.5,488.5,517.6
		z"/>
	<path d="M477.1,591.9c-2.1-3-4.2-6-6.6-9.3c2.3,0.3,7,6.7,7.1,8.9C477.5,591.7,477.3,591.8,477.1,591.9z"/>
	<path d="M502.5,524c-2.8,3.4-5.3,6.4-8,9.7C495.1,530.5,500.1,524.2,502.5,524z"/>
	<path d="M523.4,636.5c-2.8,0.9-5.1,0.1-7.2-1.2c-0.4-0.2-0.6-0.8-0.9-1.2c0.5-0.1,1.1-0.3,1.5-0.2
		C518.9,634.6,521,635.5,523.4,636.5z"/>
	<path d="M281.4,576.5c-0.3-4.2-0.7-8.5-1-12.7c0.2,0,0.4-0.1,0.5-0.1c0.2,1.4,0.5,2.8,0.6,4.1c0.1,1.4,0.2,2.9,0.2,4.3
		c0,1.5,0,3,0,4.4C281.6,576.5,281.5,576.5,281.4,576.5z"/>
	<path d="M394.6,630.6c-0.7,0.4-1.5,0.9-2.2,1.2c-5.8,2.9-11.6,5.7-17.3,8.6c-1.1,0.6-2.3,1.6-2.8,2.7c-2.5,5.1-4.7,10.3-7.1,15.5
		c-2.9,6.3-5.9,12.5-8.9,18.7c-0.2,0.4-0.4,0.7-1,0.8c1.6-3.7,3.2-7.5,4.8-11.2c2.9-6.7,5.9-13.3,8.7-20c0.7-1.8,0.4-3.9,1-5.8
		c0.3-1,1.6-2.5,2.1-2.4c3,0.8,5.3-1,7.7-2.1c4.4-2,8.6-4.4,12.8-6.6c0.4-0.2,0.9-0.3,1.3-0.4C394,630,394.3,630.3,394.6,630.6z"/>
</g>
</svg>
