<?xml version="1.0" encoding="utf-8"?>
<!-- Generator: Adobe Illustrator 17.1.0, SVG Export Plug-In . SVG Version: 6.00 Build 0)  -->
<!DOCTYPE svg PUBLIC "-//W3C//DTD SVG 1.1//EN" "http://www.w3.org/Graphics/SVG/1.1/DTD/svg11.dtd">
<svg version="1.1" id="Layer_1" xmlns="http://www.w3.org/2000/svg" xmlns:xlink="http://www.w3.org/1999/xlink" x="0px" y="0px"
	 viewBox="-194 -104 1000 1000" enable-background="new -194 -104 1000 1000" xml:space="preserve">
<rect x="56.1" y="35.8" fill="#FFFFFF" stroke="#8DC63F" stroke-width="3" stroke-miterlimit="10" width="53.8" height="86"/>
<rect x="34.6" y="35.8" fill="#FFFFFF" stroke="#8DC63F" stroke-width="3" stroke-miterlimit="10" width="21.5" height="344.1"/>
<rect x="13.1" y="35.8" fill="#FFFFFF" stroke="#8DC63F" stroke-width="3" stroke-miterlimit="10" width="21.5" height="258.1"/>
<rect x="-8.4" y="35.8" fill="#FFFFFF" stroke="#8DC63F" stroke-width="3" stroke-miterlimit="10" width="21.5" height="311.9"/>
<rect x="-30" y="35.8" fill="#FFFFFF" stroke="#8DC63F" stroke-width="3" stroke-miterlimit="10" width="21.5" height="236.6"/>
<rect x="56.1" y="121.9" fill="#FFFFFF" stroke="#8DC63F" stroke-width="3" stroke-miterlimit="10" width="86" height="86"/>
<rect x="56.1" y="207.9" fill="#FFFFFF" stroke="#8DC63F" stroke-width="3" stroke-miterlimit="10" width="258.1" height="86"/>
<rect x="56.1" y="207.9" fill="#FFFFFF" stroke="#8DC63F" stroke-width="3" stroke-miterlimit="10" width="258.1" height="43"/>
<rect x="56.1" y="164.9" fill="#FFFFFF" stroke="#8DC63F" stroke-width="3" stroke-miterlimit="10" width="258.1" height="43"/>
<rect x="56.1" y="250.9" fill="#FFFFFF" stroke="#8DC63F" stroke-width="3" stroke-miterlimit="10" width="258.1" height="43"/>
<rect x="56.1" y="293.9" fill="#FFFFFF" stroke="#8DC63F" stroke-width="3" stroke-miterlimit="10" width="258.1" height="43"/>
<polygon fill="#FFFFFF" stroke="#8DC63F" stroke-width="3" stroke-miterlimit="10" points="314.2,35.8 314.2,164.9 228.2,164.9 "/>
<polygon fill="#FFFFFF" stroke="#8DC63F" stroke-width="3" stroke-miterlimit="10" points="314.2,78.8 314.2,207.9 228.2,207.9 "/>
<polygon fill="#FFFFFF" stroke="#8DC63F" stroke-width="3" stroke-miterlimit="10" points="314.2,121.9 314.2,250.9 228.2,250.9 "/>
<polygon fill="#FFFFFF" stroke="#8DC63F" stroke-width="3" stroke-miterlimit="10" points="314.2,164.9 314.2,293.9 228.2,293.9 "/>
<polygon fill="#FFFFFF" stroke="#8DC63F" stroke-width="3" stroke-miterlimit="10" points="314.2,207.9 314.2,337 228.2,337 "/>
<rect x="518.5" y="35.8" fill="#FFFFFF" stroke="#8DC63F" stroke-width="3" stroke-miterlimit="10" width="53.8" height="86"/>
<rect x="572.3" y="35.8" fill="#FFFFFF" stroke="#8DC63F" stroke-width="3" stroke-miterlimit="10" width="21.5" height="344.1"/>
<rect x="593.8" y="35.8" fill="#FFFFFF" stroke="#8DC63F" stroke-width="3" stroke-miterlimit="10" width="21.5" height="258.1"/>
<rect x="615.3" y="35.8" fill="#FFFFFF" stroke="#8DC63F" stroke-width="3" stroke-miterlimit="10" width="21.5" height="311.9"/>
<rect x="636.8" y="35.8" fill="#FFFFFF" stroke="#8DC63F" stroke-width="3" stroke-miterlimit="10" width="21.5" height="236.6"/>
<rect x="486.3" y="121.9" fill="#FFFFFF" stroke="#8DC63F" stroke-width="3" stroke-miterlimit="10" width="86" height="86"/>
<rect x="314.2" y="207.9" fill="#FFFFFF" stroke="#8DC63F" stroke-width="3" stroke-miterlimit="10" width="258.1" height="86"/>
<rect x="314.2" y="207.9" fill="#FFFFFF" stroke="#8DC63F" stroke-width="3" stroke-miterlimit="10" width="258.1" height="43"/>
<rect x="314.2" y="164.9" fill="#FFFFFF" stroke="#8DC63F" stroke-width="3" stroke-miterlimit="10" width="258.1" height="43"/>
<rect x="314.2" y="250.9" fill="#FFFFFF" stroke="#8DC63F" stroke-width="3" stroke-miterlimit="10" width="258.1" height="43"/>
<rect x="314.2" y="293.9" fill="#FFFFFF" stroke="#8DC63F" stroke-width="3" stroke-miterlimit="10" width="258.1" height="43"/>
<polygon fill="#FFFFFF" stroke="#8DC63F" stroke-width="3" stroke-miterlimit="10" points="400.2,164.9 314.2,164.9 314.2,35.8 "/>
<polygon fill="#FFFFFF" stroke="#8DC63F" stroke-width="3" stroke-miterlimit="10" points="400.2,207.9 314.2,207.9 314.2,78.8 "/>
<polygon fill="#FFFFFF" stroke="#8DC63F" stroke-width="3" stroke-miterlimit="10" points="400.2,250.9 314.2,250.9 314.2,121.9 "/>
<polygon fill="#FFFFFF" stroke="#8DC63F" stroke-width="3" stroke-miterlimit="10" points="400.2,293.9 314.2,293.9 314.2,164.9 "/>
<polygon fill="#FFFFFF" stroke="#8DC63F" stroke-width="3" stroke-miterlimit="10" points="400.2,337 314.2,337 314.2,207.9 "/>
<rect x="56.1" y="638.1" fill="#FFFFFF" stroke="#8DC63F" stroke-width="3" stroke-miterlimit="10" width="53.8" height="86"/>
<rect x="34.6" y="380" fill="#FFFFFF" stroke="#8DC63F" stroke-width="3" stroke-miterlimit="10" width="21.5" height="344.1"/>
<rect x="13.1" y="466" fill="#FFFFFF" stroke="#8DC63F" stroke-width="3" stroke-miterlimit="10" width="21.5" height="258.1"/>
<rect x="-8.4" y="412.2" fill="#FFFFFF" stroke="#8DC63F" stroke-width="3" stroke-miterlimit="10" width="21.5" height="311.9"/>
<rect x="-30" y="487.5" fill="#FFFFFF" stroke="#8DC63F" stroke-width="3" stroke-miterlimit="10" width="21.5" height="236.6"/>
<rect x="56.1" y="552" fill="#FFFFFF" stroke="#8DC63F" stroke-width="3" stroke-miterlimit="10" width="86" height="86"/>
<rect x="56.1" y="466" fill="#FFFFFF" stroke="#8DC63F" stroke-width="3" stroke-miterlimit="10" width="258.1" height="86"/>
<rect x="56.1" y="509" fill="#FFFFFF" stroke="#8DC63F" stroke-width="3" stroke-miterlimit="10" width="258.1" height="43"/>
<rect x="56.1" y="552" fill="#FFFFFF" stroke="#8DC63F" stroke-width="3" stroke-miterlimit="10" width="258.1" height="43"/>
<rect x="56.1" y="466" fill="#FFFFFF" stroke="#8DC63F" stroke-width="3" stroke-miterlimit="10" width="258.1" height="43"/>
<rect x="56.1" y="423" fill="#FFFFFF" stroke="#8DC63F" stroke-width="3" stroke-miterlimit="10" width="258.1" height="43"/>
<polygon fill="#FFFFFF" stroke="#8DC63F" stroke-width="3" stroke-miterlimit="10" points="228.2,595.1 314.2,595.1 314.2,724.1 "/>
<polygon fill="#FFFFFF" stroke="#8DC63F" stroke-width="3" stroke-miterlimit="10" points="228.2,552 314.2,552 314.2,681.1 "/>
<polygon fill="#FFFFFF" stroke="#8DC63F" stroke-width="3" stroke-miterlimit="10" points="228.2,509 314.2,509 314.2,638.1 "/>
<polygon fill="#FFFFFF" stroke="#8DC63F" stroke-width="3" stroke-miterlimit="10" points="228.2,466 314.2,466 314.2,595.1 "/>
<polygon fill="#FFFFFF" stroke="#8DC63F" stroke-width="3" stroke-miterlimit="10" points="228.2,423 314.2,423 314.2,552 "/>
<rect x="518.5" y="638.1" fill="#FFFFFF" stroke="#8DC63F" stroke-width="3" stroke-miterlimit="10" width="53.8" height="86"/>
<rect x="572.3" y="380" fill="#FFFFFF" stroke="#8DC63F" stroke-width="3" stroke-miterlimit="10" width="21.5" height="344.1"/>
<rect x="593.8" y="466" fill="#FFFFFF" stroke="#8DC63F" stroke-width="3" stroke-miterlimit="10" width="21.5" height="258.1"/>
<rect x="615.3" y="412.2" fill="#FFFFFF" stroke="#8DC63F" stroke-width="3" stroke-miterlimit="10" width="21.5" height="311.9"/>
<rect x="636.8" y="487.5" fill="#FFFFFF" stroke="#8DC63F" stroke-width="3" stroke-miterlimit="10" width="21.5" height="236.6"/>
<rect x="486.3" y="552" fill="#FFFFFF" stroke="#8DC63F" stroke-width="3" stroke-miterlimit="10" width="86" height="86"/>
<rect x="314.2" y="466" fill="#FFFFFF" stroke="#8DC63F" stroke-width="3" stroke-miterlimit="10" width="258.1" height="86"/>
<rect x="314.2" y="509" fill="#FFFFFF" stroke="#8DC63F" stroke-width="3" stroke-miterlimit="10" width="258.1" height="43"/>
<rect x="314.2" y="552" fill="#FFFFFF" stroke="#8DC63F" stroke-width="3" stroke-miterlimit="10" width="258.1" height="43"/>
<rect x="314.2" y="466" fill="#FFFFFF" stroke="#8DC63F" stroke-width="3" stroke-miterlimit="10" width="258.1" height="43"/>
<rect x="314.2" y="423" fill="#FFFFFF" stroke="#8DC63F" stroke-width="3" stroke-miterlimit="10" width="258.1" height="43"/>
<polygon fill="#FFFFFF" stroke="#8DC63F" stroke-width="3" stroke-miterlimit="10" points="314.2,724.1 314.2,595.1 400.2,595.1 "/>
<polygon fill="#FFFFFF" stroke="#8DC63F" stroke-width="3" stroke-miterlimit="10" points="314.2,681.1 314.2,552 400.2,552 "/>
<polygon fill="#FFFFFF" stroke="#8DC63F" stroke-width="3" stroke-miterlimit="10" points="314.2,638.1 314.2,509 400.2,509 "/>
<polygon fill="#FFFFFF" stroke="#8DC63F" stroke-width="3" stroke-miterlimit="10" points="314.2,595.1 314.2,466 400.2,466 "/>
<polygon fill="#FFFFFF" stroke="#8DC63F" stroke-width="3" stroke-miterlimit="10" points="314.2,552 314.2,423 400.2,423 "/>
</svg>
