<?xml version="1.0" encoding="utf-8"?>
<!-- Generator: Adobe Illustrator 17.1.0, SVG Export Plug-In . SVG Version: 6.00 Build 0)  -->
<!DOCTYPE svg PUBLIC "-//W3C//DTD SVG 1.1//EN" "http://www.w3.org/Graphics/SVG/1.1/DTD/svg11.dtd">
<svg version="1.1" id="Layer_1" xmlns="http://www.w3.org/2000/svg" xmlns:xlink="http://www.w3.org/1999/xlink" x="0px" y="0px"
	 viewBox="0 0 1000 1000" enable-background="new 0 0 1000 1000" xml:space="preserve">
<path fill="#E6FF2A" d="M578.397,413.987c-14.873-51.476-40.103-94.084-74.986-126.643c-1.92-1.793-4.902-1.793-6.823,0
	c-34.884,32.558-60.113,75.167-74.986,126.643c-11.837,40.97-17.17,87.616-15.851,138.642
	c2.242,86.671,23.25,157.116,23.462,157.817c0.637,2.11,2.582,3.554,4.786,3.554h132c2.204,0,4.148-1.443,4.786-3.554
	c0.212-0.701,21.221-71.146,23.462-157.817C595.568,501.604,590.235,454.957,578.397,413.987z"/>
<path fill="#00AEEF" d="M126.02,344.648"/>
<path fill="#007F2B" d="M578.397,413.987c-14.873-51.476-40.103-94.084-74.986-126.643c-1.92-1.793-4.902-1.793-6.823,0
	c-34.884,32.558-60.113,75.167-74.986,126.643c-11.837,40.97-17.17,87.616-15.851,138.642
	c2.242,86.671,23.25,157.116,23.462,157.817c0.637,2.11,2.582,3.554,4.786,3.554h132c2.204,0,4.148-1.443,4.786-3.554
	c0.212-0.701,21.221-71.146,23.462-157.817C595.568,501.604,590.235,454.957,578.397,413.987z M584.258,552.135
	c-1.895,74.402-17.832,136.644-22.034,151.865H505V384c0-2.761-2.238-5-5-5c-2.761,0-5,2.239-5,5v320h-57.224
	c-4.202-15.222-20.139-77.463-22.034-151.865c-1.272-49.959,3.944-95.546,15.503-135.495c13.876-47.96,36.997-87.88,68.754-118.735
	c31.758,30.855,54.878,70.775,68.755,118.735C580.313,456.589,585.529,502.176,584.258,552.135z"/>
</svg>
