<?xml version="1.0" encoding="utf-8"?>
<!-- Generator: Adobe Illustrator 17.1.0, SVG Export Plug-In . SVG Version: 6.00 Build 0)  -->
<!DOCTYPE svg PUBLIC "-//W3C//DTD SVG 1.1//EN" "http://www.w3.org/Graphics/SVG/1.1/DTD/svg11.dtd">
<svg version="1.1" id="Layer_1" xmlns="http://www.w3.org/2000/svg" xmlns:xlink="http://www.w3.org/1999/xlink" x="0px" y="0px"
	 viewBox="0 0 1000 1000" enable-background="new 0 0 1000 1000" xml:space="preserve">
<polygon points="313.4,864.3 313.3,864 313.1,864.3 "/>
<path d="M692,733.7c0.3-0.3,0.6-0.7,0.9-1c0.5-0.9,1.1-1.7,1.6-2.6c1.9-1.6,3.9-3.1,5.6-4.9c4.5-4.8,8.9-9.8,13.4-14.6
	c8.4-9.1,17-18,25.4-27.1c2.1-2.3,4-4.7,5.9-7.1c-2.4,0.5-4.5,1.3-6.5,2.3c-10.5,5.1-20.9,10.3-31.6,15.2c-2.9,1.3-4,2.9-4.4,5.9
	c-1.3,9.4-3.1,18.6-7,27.3c-0.5,1-0.5,2.2-0.8,3.3c-0.5,0.9-1,1.7-1.6,2.6C692.7,733.1,692.4,733.3,692,733.7L692,733.7L692,733.7z"
	/>
<path d="M388,408.4c-2.6,3.2-5.2,6.4-8.1,10c1.7,1.3,2.9,2.2,4.6,3.4C385.8,416.9,388.1,413,388,408.4v-0.2
	C388,408.2,388,408.4,388,408.4z"/>
<path d="M248.2,673.5L248.2,673.5c0.2,3.1,0.6,3.7,3.4,4.1c4.7,0.7,9.5,1.2,14.2,1.6c1.8,0.2,3.7,0,5.4-0.4c0.8-0.2,1.6-1.1,1.9-1.8
	c0.1-0.4-0.7-1.5-1.4-1.8c-1.4-0.6-2.9-1.1-4.4-1.2C261,673.8,254.6,674.8,248.2,673.5z"/>
<path d="M403.2,289.8L403.2,289.8c0.4,1.7,0.4,3.6,1,5.2c5.6,14,8,28.5,7.7,43.4c-0.1,5.6-0.7,11.3-1,16.9c-0.1,1,0.1,2,0.3,3.4
	c8.4-7.7,10.5-16.8,9.2-27c-1.3-10.1-4.3-19.9-8.7-29C409.4,298.1,406.1,294.1,403.2,289.8z"/>
<path d="M242.3,803.9C242.3,803.9,242.4,803.8,242.3,803.9c1.3,0.7,2.4,1.6,3.7,2c4.7,1.6,9.3,3.2,14.1,4.3c9,2.2,18.1,4.4,27.2,6.1
	c3.5,0.7,6.7-1.3,9.7-4.1c-2-1.2-3.7-2.2-5.3-3.2c-3.1-1.9-6.1-4-9.2-5.8c-3.4-2-6.9-3.8-10.4-5.4c-1-0.5-2.5-0.6-3.6-0.4
	C259.7,799.5,251,801.7,242.3,803.9z"/>
<path d="M291.5,217.9c-2.6-0.2-4.2-1.9-5.9-3.6c-6.4-6.4-12.9-12.6-19.4-18.8c-1-1-2.4-1.6-3.9-2.5c-1.1,3.4-0.5,6.2,0.2,8.9
	c2.9,11.8,5.9,23.5,8.9,35.2c0.2,0.7,0.8,1.3,1.4,2.4c3.7-4.1,7.1-7.8,10.4-11.6C286,224.7,288.7,221.2,291.5,217.9L291.5,217.9z"/>
<path d="M596.4,600.9c-1.1,0.5-2.4,0.8-3.2,1.6c-5.2,4.9-10.4,9.9-15.5,15c-8.2,8.1-16.5,16.2-24.7,24.4c-1.6,1.5-3,3.2-4.9,5.3
	c4.1,2.8,7.8,5.3,11.5,7.9c1.2-1.1,2.1-1.7,2.8-2.6c9.9-10.9,19.7-21.7,29.5-32.6c1.3-1.5,2.2-3.6,2.6-5.6
	C595.3,609.7,595.8,605.3,596.4,600.9v-0.3V600.9z"/>
<path d="M247.2,731.2c-0.2-0.3-0.4-0.6-0.6-0.9C246.9,730.6,247.1,730.9,247.2,731.2c0.8,1,1.4,2.1,2.2,3
	c5.5,6.6,12.1,12.1,18.6,17.6c5.1,4.3,10.3,8.3,16.3,11.1c1.4,0.7,2.9,1.4,4.3,1.4c4.6,0.2,9.3,0.5,13.9,0c8.5-0.8,17-2.1,25.5-3.3
	c1.1-0.2,2.9-0.8,3.1-1.6c0.3-0.9-0.7-2.3-0.9-2.8c-2.8,0.1-4.9,0.5-6.9,0.2c-11.5-1.8-23.2-2.3-34.1-7.2c-0.6-0.3-1.3-0.4-2-0.7
	c-2.9-1-6-1.6-8.8-2.9c-7.5-3.5-14.8-7.2-22.2-11c-2-1-4.7-1-5.9-3.6C250.1,731.2,248.3,731.4,247.2,731.2z"/>
<path d="M257.5,691.2L257.5,691.2c-2.1-1.9-4.3-3.8-6.5-5.8c-4.9-4.2-9.7-8.5-14.7-12.6c-3.8-3.1-7.8-6-11.5-9.2
	c-1.7-1.4-3-3.4-4.7-4.9c-0.6-0.5-2.2-0.9-2.5-0.5c-0.6,0.7-1,1.9-0.9,2.9c0.1,0.9,0.9,1.8,1.4,2.5c5.5,7.5,10.8,15.1,16.5,22.5
	c2.8,3.6,6.3,6.8,9.6,10.1c5.4,5.6,11.6,10.3,17.8,15c1.8,1.3,3.3,3.1,5.2,4.3c4.2,2.7,8.6,5.3,13,7.8c1.5,0.8,3.3,1.2,4.9,1.8
	c0.2-0.3,0.3-0.5,0.5-0.8C277.3,712.2,267,702,257.5,691.2z"/>
<path d="M559.9,302.4L559.9,302.4c-0.6-1.5-1-3.2-1.7-4.7c-8-17.3-12.6-35.5-13.9-54.5c-0.2-3-1.1-6-1.7-9.1
	c-0.1-0.8-0.1-1.6-0.1-2.5c0.1-1.5,0.4-3.1,0.3-4.6c-0.4-4.9-1.3-9.8-1.5-14.7c-0.6-14.4-4.5-28.1-9.9-41.3
	c-3.8-9.2-8.2-18.2-12.4-27.3c-0.8-1.7-1.8-3.3-2.8-4.9c-0.3,0.1-0.6,0.3-0.8,0.4c0.1,0.8,0.2,1.6,0.4,2.3c1.6,5,3.3,9.9,4.7,14.8
	c3.7,12.7,4.9,25.7,4.1,38.9c-0.5,8.4-1.9,16.8-2.7,25.2c-0.2,2.5-0.9,5.5,2.4,7c4.8,2.1,6.2,6.1,5.9,10.9c-0.4,5.9,0.9,11.5,3,16.9
	c0.7,1.7,1.4,3.4,1.9,5.1c4.1,13,10.8,24.7,18.5,35.8C555.3,298.6,557.8,300.4,559.9,302.4z"/>
<path d="M398,179c-0.1-0.4-0.1-1-0.3-1.2c-3.4-3.2-6.8-6.2-10.1-9.4c-2.6-2.5-5.1-2.3-8-0.6c-3.9,2.3-7.9,4.2-11.8,6.4
	c-0.9,0.5-2,1.4-2.3,2.3c-1.7,5-0.8,9.8,1,14.5c7.9-3.2,15.4-6.5,23.1-9.2C392.3,180.7,394.7,178.2,398,179c0.7,1.6-0.2,2.6-1.6,3.3
	c-4.4,1.9-8.8,3.8-13.1,5.7c-1.7,0.8-3.4,1.6-5.5,2.6c0.9,1.6,1.3,2.8,2.1,3.7c3.9,4.3,7.7,8.6,11.8,12.6c8.1,8,16.4,15.7,24.6,23.6
	c7.2,6.9,14.4,13.9,21.6,20.7c0.8,0.7,2.3,1.2,3.3,1c1.4-0.4,1.1-1.9,1.1-3.2c-0.3-8.9-0.5-17.7-0.7-26.6c-0.1-3.6-0.7-6.9-3.8-9.4
	c-3.2-2.6-6-5.5-9.1-8.2c-8.2-7.3-16.4-14.6-24.7-21.8C402.3,181.4,400.9,179.1,398,179z"/>
<path d="M455.7,101.7c-4.4,4.1-8.7,8.3-12.2,13.4c-2,2.8-4.6,5.2-7,7.8c-1.2,1.4-2.5,2.7-3.6,4.1c-4.2,5.8-8.8,11.2-14.3,15.8
	c-5.7,4.8-11.4,9.6-17.9,13.4c-4.1,2.4-7.9,5.2-11.9,7.8c0,2.2,1.3,3.5,2.9,4.9c7.7,6.6,15.3,13.3,22.9,20
	c4.9,4.3,9.7,8.6,14.6,12.8c0.9,0.8,2,1.3,3.1,2c0.3-0.9,0.6-1.3,0.6-1.7c0-1.1,0-2.3-0.1-3.4c-1.5-19.4,1.6-38.2,7.1-56.6
	c3.4-11.4,8.6-22,13.5-32.8C454.4,106.8,456.2,104.6,455.7,101.7L455.7,101.7z"/>
<path d="M250.6,741.9L250.6,741.9c-0.1-0.2-0.2-0.5-0.4-0.6c-4.1-4-8.8-7.4-12-12.3c-0.6-0.9-2-1.2-3-1.7c0.2,2.1,0.8,3.6,1.6,5.1
	c2.7,5.5,6.4,10.3,10.4,14.9c5.2,5.9,9.8,12.4,15.5,17.9c10.9,10.7,23.4,19.4,37.1,26.3c9.8,4.9,19.7,9.8,30.3,12.7
	c6.1,1.7,12.3,3.1,18.4,4.8c8.7,2.5,17.7,3.3,26.7,3.9c7.8,0.5,15.5-0.3,23.2-0.5c9.1-0.2,17.4-3.2,26-5.4c0.9-0.2,1.8-0.8,2.6-1.4
	c0.6-0.5,1.3-1.3,1.3-2c0.3-4.6,0.5-9.2-0.2-14.2c-3.6,0.4-6.5,1.7-9.6,2.6c-2.8,0.8-5.7,2.1-8.6,2c-9.7-0.3-19.5,0.5-29-1.5
	c-4.7-1-9.3-2-13.4-4.7c-1.7-1.1-3.9-1.7-5.9-2c-7.5-1-15.1-1.6-22.6-2.5c-3.1-0.4-6.1-0.9-9.1-1.4c-3.3-0.6-6.6-1.1-9.8-2
	c-8.3-2.3-16.4-5.1-24.7-7.2c-4.6-1.2-8.6-3.2-12.7-5.6c-5.2-3.1-10.6-5.9-15-10c-0.9-0.9-2.1-1.3-3.2-2.1c-1.2-0.9-2.5-1.8-3.5-2.8
	C257.4,748.5,254.9,744.3,250.6,741.9z"/>
<path d="M320.3,597.4c0.6,0.7,1.6,1.4,1.9,2.3c4.9,12.5,12.1,23.8,18.7,35.5c6.9,12.2,13.1,24.7,17.4,38c5.4,16.3,9.5,33.1,9.2,50.5
	c0,0.6,0.3,1.3,0.7,2.5c2.2-1.3,4.3-2.1,6-3.5c4.2-3.3,8.3-6.8,12.3-10.3c2.8-2.4,5.6-4.8,7.9-7.6c4.4-5.3,8.6-10.8,12.5-16.5
	c5.2-7.6,10.1-15.3,14.8-23.1c3.4-5.5,6.4-11.3,9.4-17c4.8-9.3,9.4-18.6,14.1-27.9c1.1-2.2,0.9-4-0.6-5.9c-1.7-2.1-3.5-4.1-4.8-6.5
	c-3.7-7.1-9.2-11.6-17-13c-0.8-0.2-1.6-0.5-2.4-0.8c-9.9-2.8-19.8-5.7-29.7-8.3c-11.2-2.9-22.4-5.6-33.6-8.5
	c-3.9-1-7.2-0.3-10.5,1.6c-2.5,1.5-5,3.2-7.7,4.5c-9.9,4.8-19.8,9.4-29.7,14.3c-6.6,3.2-13,6.7-19.4,10.2c-3,1.7-3.2,2.6-0.7,5.1
	c7.2,7.3,14.5,14.5,21.9,21.8c0.4,0.4,1.2,0.5,2.1,0.9c0.3-1,0.6-1.8,0.7-2.6c1.2-10.1,2.4-20.1,3.7-30.2
	C317.8,601,317.9,598.9,320.3,597.4z"/>
<path d="M508.3,305.9c0.2,2.5,0,4.5,0.4,6.3c2.6,11.8,5.4,23.6,7.9,35.5c0.6,2.8,1.9,5.1,3.1,7.7c1.1,2.4,0.5,5.5,1.1,8.2
	c2.8,11.9,5.9,23.8,8.8,35.7c0.4,1.6,1.6,4.1-1,4.6c-2.4,0.4-2.5-2.3-2.7-4c-1.8-13.9-5.7-27.3-9.5-40.7c-0.8-2.9-2.6-4.8-4.9-6.5
	c-6-4.4-11.8-9.1-17.8-13.5c-2.4-1.7-5.1-3-7.6-4.4c-0.7-0.4-1.4-0.8-2.1-1.4c-1.8-1.5-3.5-3.2-5.3-4.7c-3.7-3.1-7.4-6.1-11.1-9.1
	c-0.6-0.5-1.3-0.9-2.1-1.5c-13.5,18.4-18.1,40.1-25,61.1c1.1,0.5,1.7,0.9,2.4,1c15.3,1.8,29.1,8.6,43.7,12.8c9.1,2.6,18,5.5,27,8.3
	c7.1,2.2,14.3,4.2,21.4,6.5c4,1.3,8,2.8,11.9,4.3c3,1.1,5.4,0.4,7.7-1.8c3.9-3.9,8-7.5,11.9-11.4c5.7-5.6,11.3-11.4,17-17.1
	c1.2-1.2,1.6-2.5,1.6-4.2c-0.3-8.6-0.5-17.2-0.7-25.8c-0.1-6.9,0-13.8-0.2-20.7c0-1.4-0.6-3.1-1.5-4.1c-2.5-2.9-5.8-5-9.6-5.9
	c-10.9-2.6-21.9-5-32.9-7.4c-8.5-1.9-17.2-3.2-25.4-6.3C512.8,306.7,510.8,306.5,508.3,305.9z"/>
<path d="M416.3,455.5c-0.7,0.3-1.6,0.4-2.3,0.9c-4,2.9-8,5.8-11.9,8.8c-1.8,1.4-1.3,3.1-0.6,4.9c2.9,7.3,7.4,13.7,12.3,19.6
	c5.9,7.3,10.9,15.2,15.4,23.2c6.4,11.3,13.3,22.2,21.1,32.6c2.5,3.4,4.8,7,7.5,10.3c12,14.6,24.1,29.1,36,43.7
	c7.7,9.4,16.6,17.6,26.1,25.2c4.4,3.5,8.9,6.9,13.2,10.5c3.8,3.2,4.9,3.2,8.5-0.3c3.5-3.5,7.1-6.8,10.8-10.1
	c9.5-8.6,19.2-17,28.7-25.6c1.7-1.5,3.2-3.4,5-5.5c-2-1.1-3.4-2-4.9-2.8c-4.8-2.6-9.6-5.2-14.4-7.9c-3.4-1.9-6.8-3.9-10.2-5.9
	c-5.9-3.4-12-6.4-17.5-10.3c-11.5-7.9-22.8-16-33.8-24.6c-12.3-9.6-24.2-19.9-36.2-29.9c-3.6-3-7.3-5.7-10.6-8.9
	c-4.2-4.1-8.1-8.5-12.1-12.9c-6.8-7.5-13.7-15-20.3-22.7C422.7,464,419.7,459.7,416.3,455.5z"/>
<path d="M232.7,374.4c-0.7,1.2-1.1,1.6-1.2,2.1c-2,8.8-4.3,17.5-5.9,26.4c-1.5,8.7-3,17.5-3.3,26.3c-0.4,11.1,0.3,22.3,0.8,33.4
	c0.2,4.5,0.8,9,1.7,13.4c1.3,6.8,2.9,13.5,4.7,20.2c2.6,9.6,5.3,19.3,8.4,28.8c4,12.2,9.7,23.7,15.5,35.2
	c5.9,11.6,12.8,22.5,20.6,32.9c0.5,0.7,1.5,1.2,2.2,1.7c8.9-6.6,17.6-13.1,26.4-19.5c4.2-3,4.7-6.7,3.5-11.4
	c-3.7-14.3-7.4-28.6-10.7-43c-2.4-10.7-7.3-20.4-12-30.1c-4.7-9.6-10.3-18.7-14.4-28.7c-4.1-10.2-8.7-20.2-13-30.3
	c-1.4-3.2-2.3-6.7-3.6-9.9c-4.9-11.7-9.9-23.3-14.8-35c-1.2-2.9-2-5.9-3.1-8.8C234.3,376.8,233.6,375.8,232.7,374.4z"/>
<path d="M468,506.6c7.4,6.7,14.1,12.7,21.2,17.4c9.6-5.9,18.5-11.5,27.5-17c8.3-5,16.8-9.8,25.1-14.8c1.7-1,2.7-3.6,4.4-4.1
	c2.1-0.6,4.3-0.9,6.3-2c2.7-1.5,5.4-3.1,8.2-4.3c10.9-4.6,21-10.9,31.9-15.4c14.1-5.8,28-11.9,42-17.8c4.3-1.8,8.7-3.3,13-5
	c1.1-0.4,2.2-1.1,3.4-1.7c-10.9-19.3-23.4-37.1-35.5-55.4c-1.2,0.6-2.2,0.9-2.9,1.4c-7.7,6-15.3,12-22.9,18
	c-3.5,2.8-7.1,5.6-10.7,8.3c-8.1,6.1-16.2,12.2-24.3,18.3c-1.2,0.9-2.7,1.4-4,2.1c-1.6,0.8-3.4,1.4-4.7,2.6
	c-9,8.1-17.8,16.4-26.9,24.4c-9.6,8.5-19.6,16.6-29.4,24.9c-3.8,3.2-7.8,6.1-11.4,9.4C474.8,499.1,471.7,502.7,468,506.6z"/>
<path d="M647.5,736.3c1.5,0.1,3,0.3,4.5,0.4c4.6,0.2,9.3,0.3,13.9,0.5c5.1,0.1,10.1,0.4,15.2,0.3c1.5,0,3.5-0.7,4.5-1.8
	c2.3-2.6,4.6-5.4,6.1-8.5c4.3-9.1,6.8-18.8,7.8-28.8c0.6-5.7,0.8-11.5,0.5-17.3c-0.5-9.3-1.1-18.6-2.6-27.7
	c-1.4-8.3-3.5-16.4-6.5-24.3c-3.7-9.8-8.1-19.2-13-28.4c-1.2-2.3-2.3-4.9-5.2-6.4c-0.8,0.9-1.7,1.8-2.3,2.8
	c-2.1,3.2-4.3,6.3-6.1,9.6c-3.6,6.2-7,12.5-10.3,18.9c-0.5,1-0.9,2.9-0.4,3.5c2.2,2.5,0.8,4.4-0.6,6.4c-3.7,5.3-7.3,10.7-11.2,15.9
	c-1.9,2.5-2.2,5-1.3,7.9c1.2,3.9,2.4,7.8,3.3,11.8c1.7,8,3.5,16,4.5,24.1c1.4,11.4,0.5,22.8-0.7,34.2
	C647.3,731.5,647.5,733.7,647.5,736.3z"/>
<path d="M614.5,689c-3.9-1.6-7.3-2.9-10.6-4.4c-14.9-6.9-29.1-14.9-42.7-24c-13.5-9-26.3-19-39.1-28.9c-4.2-3.3-8.4-6.7-12.2-10.4
	c-5.1-4.9-10.1-9.9-14.7-15.1c-7.6-8.7-14.9-17.6-22.4-26.4c-0.5-0.6-1.3-1-2-1.5c-0.2,1.2,0,2,0.5,2.6c2,2.4,4.2,4.7,6,7.2
	c3.7,5,7.6,9.8,10.8,15.1c6.6,10.7,10.8,22.3,10.3,35.2c-0.1,1.6,0.3,3.4,0.9,4.9c4.8,12.6,13,23.1,21.7,33c7.9,9,16.7,17.2,27,23.6
	c5.7,3.6,11.2,7.7,17.2,10.7c10,5,20.8,7.9,31.4,11.2c1.8,0.6,3.1,0.1,4-1.4c1.8-2.9,3.7-5.7,5.2-8.7c2.3-4.5,4.4-9.1,6.3-13.8
	C613.2,695.1,613.7,692.1,614.5,689z"/>
<path d="M304.8,479.8c1.7-0.4,3.1-0.5,4.4-1c10-3.5,19.9-7,29.9-10.5c0.9-0.3,1.9-0.5,2.8-0.8c4.8-1.7,9.5-3.4,14.3-5.1
	c2-0.7,2.9-2,2.7-4.2c-0.2-3.1-0.1-6.2-0.5-9.3c-1.3-12.5-2.7-24.9-4-37.4c-0.2-1.9-0.9-3-2.6-3.9c-9.8-4.9-19.5-10-29.2-15
	c-2.5-1.3-5-2.6-7.5-3.8c-8.5-4.1-17-8.1-25.5-12.2c-1.9-0.9-3.8-2.7-5.8-1.3c-2,1.5-0.7,3.9-0.3,5.9c1.1,5.2,2.2,10.4,3.5,15.6
	c0.6,2.6,1.6,5,2.4,7.6c0.3,0.9,0.6,1.9,0.6,2.8c-0.3,6.6,0.8,13,2.8,19.2c2.5,7.9,3.6,16.2,5.5,24.2
	C300.5,460.3,302.6,469.8,304.8,479.8z"/>
<path d="M587.5,722.6c-3.5-1.2-6.6-2.4-9.8-3.4c-12.3-4-23.4-10.2-33.9-17.8c-2.8-2-6.1-3.6-9.3-4.8c-11.5-4.4-22.6-9.3-32-17.6
	c-1.1-1-2.4-1.7-3.7-2.6c-1.3,4.2-2.2,7.9-3.6,11.5c-0.8,2.1-1.1,3.8-0.6,6.1c1.6,6.6,2.9,13.2,2.2,20c-0.6,5.9-1.6,11.7-3.8,17.3
	c-4.4,11-9.2,21.8-19,29.4c-0.3,0.2-0.3,0.7-0.7,1.5c1.7,0.3,3.2,0.6,4.7,0.8c2.5,0.2,5.1,0,7.6,0.4c11.9,1.6,23.6,0.6,35.2-1.9
	c7.4-1.6,14.8-3.6,21.6-7.2c4.8-2.6,9.6-5.3,14.5-7.8C568.4,740.3,578.4,732.5,587.5,722.6z"/>
<path d="M388.8,443.1c-6.3,7.3-10.4,15.2-13.1,23.7c-5.3,16.8-11,33.5-17.2,50c-2.3,6.2-4.2,12.5-6.4,18.8c-0.6,1.7-0.7,3.2,0.5,4.8
	c3.3,4.1,6.3,8.3,9.7,12.3c7.4,8.7,15.1,17.1,22.4,25.8c1.3,1.5,2.6,2.4,4.4,2.9c7.7,2.3,15.4,4.6,23.1,6.9c1,0.3,2.1,0,3.1,0
	c0.1-0.9,0.2-1.3,0.1-1.7c-2.4-13.4-4.8-26.9-7.3-40.3c-1.8-10-3.8-19.9-5.6-29.9c-1.4-7.8-2.5-15.6-3.8-23.4
	c-2.1-12.4-4.1-24.7-6.3-37.1C391.9,451.6,391.3,447.4,388.8,443.1z"/>
<path d="M468.1,758.9c3.8-2.4,7-4.7,9.3-8c4.8-6.8,9.2-13.9,11.6-21.9c2-6.7,4.2-13.5,3.5-20.7c-1-12.3-4.2-24.1-9.5-35.3
	c-5.5-11.6-11.4-22.9-20.3-32.4c-1-1-2.2-1.8-3.9-3.2c-9.2,24.3-19.3,47.3-36.1,67.1c10.8,6.3,17.6,16.1,25.6,24.7
	C456.3,737.9,462.4,748.1,468.1,758.9z"/>
<path d="M341.2,331.3c-0.8-0.6-1.5-1.2-2.3-1.7c-6-3.3-12.1-6.6-18.1-10c-10.5-6-21-12-31.5-18c-2.4-1.4-4.8-3-7.2-4.4
	c-1.4-0.8-2.7-1.2-4.2,0.1c-6.1,5.2-12.4,10.2-18.4,15.5c-3.3,2.9-5.6,6.6-5.1,11.5c0.4,3.2,0.4,6.5,0.6,9.7
	c0.2,6,0.3,12.1,0.6,18.1c0.5,7.2,2.1,14,7.2,19.7c5.9,6.6,11.1,13.8,16.7,20.7c0.6,0.7,1.6,1.1,3.1,2.2c-0.4-2.1-0.5-3.2-0.8-4.3
	c-1.3-5.2-2.7-10.3-4-15.5c-0.4-1.6-0.8-3.3-0.8-5c-0.1-2.1,0.9-2.8,3-2.3c1.4,0.3,2.7,0.8,4.2,1.2c1.2-2.2,2.3-4.3,3.5-6.4
	c1-1.7,2.3-2.4,4.2-1.2c1.3,0.8,2.7,1.5,4.1,2.2c1.9,1,3.5,0.8,4.9-0.9c0.4-0.5,0.9-1,1.4-1.6c1.3-1.6,2.8-2,4.8-1
	c3.2,1.5,6.4,2.9,9.7,4.2c2.8,1.1,3.7,0.8,5.3-1.6c0.6-0.8,1-1.7,1.5-2.6c4-7,7.9-14,13.1-20.2C338.7,337.5,340.7,334.8,341.2,331.3
	z"/>
<path d="M584.7,494.8c-7.1,3.3-14.1,6.2-20.8,9.8c-10,5.4-19.9,11.1-30.4,15.7c-9.4,4.1-18.8,8.4-28.1,12.7c-1.1,0.5-2,1.3-3.1,2.1
	c0.6,0.8,0.9,1.4,1.3,1.7c10.4,9.1,21.3,17.7,33.2,24.7c14.8,8.6,30,16.8,45,25.1c1.9,1,3.9,2.4,6.2,1.8
	C590.8,581.2,588.1,502.2,584.7,494.8z"/>
<path d="M454,270.9c-1.1-0.4-1.6-0.7-2.2-0.8c-10.5-2-21-3.8-31.5-5.9c-12-2.4-24-4.9-36-7.4c-2.7-0.6-5.5-1.4-8.2-2
	c-4.4-1-5.5-0.4-6.6,4c-0.4,1.4-0.5,2.8-0.8,4.1c-2.3,11.3-4.4,22.7-6.9,33.9c-0.6,2.7-0.7,4.9,0.6,7.3c0.6,1.1,1.2,2.2,1.7,3.4
	c4.6,10.9,9.3,21.7,13.9,32.6c0.4,0.9,1,1.8,1.5,2.7c0.7-5.1,0.4-10,0.8-14.9c0.7-8,1.9-15.9,2.8-23.9c1.3-12.1,2.1-24.1-1-36.1
	c-0.3-1.3,0-2.7,0-4c3.2-0.1,3.3-0.2,4.6,1.5c2.3,3,4.5,6.1,6.8,9.1c0.6,0.8,1.2,1.6,2,2.2c5.8,5,11.1,10.4,15.2,16.8
	c5.3,8.3,8.6,17.5,10.9,26.9c1.7,6.9,2.8,14.1,2.1,21.4c0,0.5,0.2,1,0.3,1.7c0.8-0.5,1.3-0.7,1.7-1c10.2-9.3,21.2-17.6,33.5-24.1
	c1.2-0.6,2.2-1.6,3.6-2.7c-7.5-7.9-14.3-15.7-23-21.7c-1-0.7-1.8-1.8-2.7-2.8C444.7,285.6,448.1,277.6,454,270.9z"/>
<path d="M418.8,836.8c0.3,0.3,0.5,0.6,0.8,0.9c1.2-0.6,2.5-1.1,3.7-1.7c2.5-1.3,4.9-2.8,7.4-4c6.3-2.9,12.1-6.3,17.3-11.1
	c8.1-7.5,14.1-16,17.1-26.6c2.5-9.1,3.4-18.3,0.3-27.5c-2-5.9-4.5-11.4-7.6-16.9c-6-10.9-14.1-20-22.4-29.1
	c-1.7-1.9-3.4-3.8-5.3-5.5c-2.2-1.9-4.5-3.9-7-5.3c-3.2-1.8-4-1.4-6.5,1.4c-5,5.5-10.1,11-15.1,16.6c-0.3,0.4-0.5,1-0.7,1.4
	c2.3,3,4.4,6,6.8,8.7c9,10.4,16.7,21.6,21.1,34.7c2.8,8.4,4.6,16.9,4.1,25.7c-0.2,4.5-1,8.9-1.5,13.4c-0.8,7.2-3.8,13.4-8.5,18.9
	C421.6,833,420.2,834.9,418.8,836.8z"/>
<path d="M336.7,759.3c3.8-1.2,8.2-2.3,12.2-4.1c6.9-3.1,13.6-6.7,20.4-10.1c3.2-1.6,3.1-2.2,1.7-5.7c-2.5-6.1-8.5-10-10.3-16.5
	c-0.1-0.3-0.3-0.5-0.5-0.7c-1.6-2.3-3.4-4.5-4.9-6.9c-8-12.7-17.1-24.5-26.7-35.9c-2.6-3.1-5.9-5.6-8.9-8.4
	c-5.6-5.4-10.9-11-16.6-16.2c-2.1-1.9-4-4.3-7.2-5.2c-0.1,1.1-0.4,1.9-0.3,2.7c0.7,4.5,1.3,8.9,2.2,13.3
	c3.6,16.7,8.2,33.1,15.2,48.7c4.2,9.4,8.8,18.6,13.4,27.7c2,3.9,4.4,7.6,6.6,11.3C334.3,755.2,335.4,757,336.7,759.3z"/>
<path d="M600.8,590.1c1.4-0.3,2.2-0.4,2.9-0.7c5.7-2.1,11.3-4.3,17-6.5c1.7-0.7,2.6-1.8,2.8-3.8c0.5-6.3,1.1-12.6,1.8-18.9
	c1.5-11.9,3.3-23.7,4.6-35.6c1-9.1,1.1-18.3,1.8-27.4c0.7-8.8,1.6-17.7,2.4-26.5c0.1-0.9-0.2-1.8-0.4-2.9c-0.8,0.1-1.5-0.1-1.9,0.2
	c-5.8,3.7-11.6,7.5-17.3,11.2c-1.4,0.9-2.8,1.8-4.3,2.6c-3.7,1.9-7.5,3.8-11.3,5.7c-1.8,0.9-2.7,2.4-2.6,4.4c0.1,3.4,0,6.8,0.3,10.1
	c1,14.6,2.4,29.2,3.1,43.9c0.6,12.9,0.6,25.9,0.9,38.9C600.7,586.5,600.8,588.1,600.8,590.1z"/>
<path d="M619.6,690.4c-3.7,7.9-6.8,15.1-10.3,22.2c-4.6,9.2-9.6,18.2-17.8,24.9c-3.5,2.9-6.7,6.1-10,9.2c-0.5,0.5-0.9,1.2-1.7,2.2
	c2.6,0.8,4.7,1.6,6.8,2.2c12.8,3.2,25.4,7.1,37.3,13c1.5,0.7,3.1,1.2,4.7,1.9c1.8,0.8,3.3,0.6,4.3-1.3c1.3-2.5,2.8-4.9,3.8-7.5
	c1.4-3.4,2.8-6.8,3.7-10.3c1.5-5.6,2.9-11.2,3.7-16.9c0.8-5.3,1-10.6,1.3-16c0.3-5.2,0.4-10.4-0.5-15.1
	C636.8,694.4,628,693.1,619.6,690.4z"/>
<path d="M355.2,516.2c-2.3-0.9-3.9-1.4-5.3-2.2s-2.6-2.2-4.1-3c-10.7-5.9-21.4-11.9-32.1-17.7c-6.1-3.3-12.3-6.2-18.4-9.3
	c-1.2-0.6-2.5-0.8-4.6-1.4c0.3,2.7,0.3,4.7,0.7,6.5c1.9,7.7,4,15.4,5.9,23.2c4.1,16.2,8.2,32.5,12.3,48.7c0.5,1.8,1.3,3.6,2.1,5.8
	c2-1.4,3.5-2.4,4.8-3.6c2.1-1.7,3.8-3.8,6.1-5.2c8.9-5.5,16.2-12.9,24.3-19.5c0.5-0.4,1-1.1,1.2-1.7
	C350.5,529.9,352.8,523,355.2,516.2z"/>
<path d="M626.8,804.1c-4.8-5.3-5.9-3.2-8.3,0.3c-1.8,2.6-3.4,5.2-5.3,7.6c-10.1,12.8-23.3,21.1-38.4,26.7
	c-14.5,5.4-29.6,7.1-44.9,5.8c-9.7-0.8-19.2-2.6-28-7.2c-1-0.5-2.4-0.6-3.6-0.4c-1.6,0.3-3.2,0.9-4.8,1.6
	c-7.5,2.9-14.9,5.9-22.4,8.9c-1.4,0.6-2.7,1.3-4.8,2.3c1.7,1.3,2.8,2.1,3.9,2.8c5.4,3.5,11.7,5,17.7,6.9c10.1,3.2,20.4,5.3,31.1,5.4
	c2,0,4-0.2,5.9-0.1c16.7,0.6,32.7-2.6,48.3-8.7c12.2-4.8,22.3-12.4,31-22c4.7-5.2,9.3-10.6,13.7-16
	C621.4,813.8,624.3,809.1,626.8,804.1z"/>
<path d="M617,113.6c-0.3-0.2-0.5-0.4-0.8-0.7c-6.5,1.7-12.9,4.2-18.6,7.6c-9.5,5.7-18.9,11.5-26.8,19.7
	c-9.8,10.2-17.5,21.6-22.3,34.9c-1,2.8-1.4,5.7-2.2,8.6c-1.8,6.4-2.3,13-1.7,19.6c0.5,5,0.3,10.1,0.7,15.1c0.3,3.5,0,7.2,2.1,11.2
	c3-3,5.6-5.7,8.3-8.3c2.1-2,2.9-4.4,2.8-7.2c-0.1-4.4-0.3-8.7-0.1-13.1c0.1-2,0.6-4.2,1.5-6c1.4-3.1,3-6,4.7-9
	c2.1-3.7,4.3-7.3,6.6-10.8c1.6-2.5,3.7-3.5,6.8-2.6c2.4,0.7,5,0.6,7.5,0.8c1.6,0.2,2.7-0.5,3.4-1.9c2.3-4.5,4.9-8.9,6.8-13.6
	c4.6-12,10.1-23.5,16.3-34.7C613.8,120.1,615.3,116.8,617,113.6z"/>
<path d="M525.6,260.4c-0.5,0.2-1.4,0.3-2,0.7c-4.8,2.7-9.4,5.6-14.3,8.2c-8.3,4.5-16.7,8.7-24.9,13.4c-3.2,1.8-7.1,3-9.3,6.4
	c-0.2,0.4-1,0.7-1.5,0.6c-2.7-0.4-4.5,1.3-6.5,2.5c-3.5,2.1-7,4.2-10.5,6.4c-0.9,0.6-1.8,1.3-2.6,1.9c2.1,6,24.4,26,31.7,28.4
	c0.2-0.3,0.5-0.8,0.8-1.2c5-8.3,10.1-16.5,15.1-24.8c0.8-1.3,1.5-2.4,3.3-1.9c3.1,0.9,6.2,1.7,9.3,2.6c4.3,1.3,8.6,2.7,13,3.8
	c3.8,0.9,7.5,2.4,12.1,1.5c-1.5-8.4-5.6-15.8-7.7-23.8C529.5,277,527.6,268.8,525.6,260.4z"/>
<path d="M382.4,444.2c0.2,0.1,0.4,0.2,0.6,0.3c1-1.3,2.3-2.5,3.1-3.9c3.6-6.3,8.4-11.7,13.5-16.7c6.4-6.4,13.2-12.3,19.7-18.6
	c7.2-7,12.8-15.1,16.5-24.3c3.9-9.7,7.2-19.6,10.2-29.5c2.5-8.3,5.6-16.2,9.8-23.8c0.6-1.1,1-2.4,1.6-3.8c-0.9-0.1-1.2-0.2-1.4-0.1
	c-0.6,0.3-1.3,0.6-1.9,1c-13.1,8-25.2,17.1-34.8,29.2c-4.8,6.1-9.6,12.1-12.2,19.7c-1.5,4.5-3.7,8.8-6,13c-3.9,7.4-7.6,14.8-9.3,23
	c-0.7,3.3-1.8,6.5-2.7,9.8C387,427.7,384.7,435.9,382.4,444.2z"/>
<path d="M279.9,266c-0.4-2.8-2.1-4.2-4.5-5.1c-2.5-1-4.9-2-7.3-3.1c-3.7-1.7-5.3-0.7-5.2,3.4c0,0.6,0.1,1.1,0.2,1.7
	c1.3,6,2.7,12.1,4.1,18.1c0.5,2.3,1.7,4,3.7,5.4c6.3,4.2,12.3,8.9,18.8,12.7c13.3,8,26.8,15.6,40.2,23.2c3.3,1.9,6.9,3.2,10.4,4.8
	c0.6,0.3,1.3,0.2,2.4,0.3c-0.9-5.2-1.6-10-2.6-14.8c-1.7-8.1-2.5-16.4-5.5-24.3c-1.2-3.2-3-4.9-6-5.9c-2.5-0.8-5.2-1.3-7.7-2.3
	c-10.1-4.1-20.3-8.3-30.3-12.7C287.2,266,283.9,264.8,279.9,266z"/>
<path d="M653.4,380c1.4,1.2,1.9,1.7,2.4,2c5.2,3.3,10.5,6.5,15.8,9.8c3.2,2,6.4,4.1,9.6,6.2c0.5,0.4,0.6,1.3,0.9,2
	c-0.9,0.2-1.7,0.6-2.6,0.7c-0.3,0-0.7-0.4-1.1-0.6c-3-2-6.1-4-9.1-6.1c-9.7-6.6-20.2-11.8-30.7-17c-0.8-0.4-1.8-0.5-2.9-0.7
	c-0.4,0.8-1,1.4-1,2c-0.9,8.5-1.7,17.1-2.5,25.7c-0.1,0.7,0.3,1.7,0.8,2.3c4.7,7.2,9.6,14.2,14.3,21.4c2.1,3.2,3.6,6.7,5.6,9.9
	c1.5,2.5,2.2,2.7,4.9,1.6c5.2-2.1,10.4-4.4,15.6-6.4c2.5-1,3.7-2.6,4.2-5.3c2.3-11.9,4.9-23.7,7.3-35.6c0.8-4,1.5-8,2-12.1
	c0.5-4.5-1.6-6.4-6-5.6c-6,1-11.9,2.3-17.8,3.5C660.1,378.4,657.2,379.1,653.4,380z"/>
<path d="M359.6,99.7c-22.7,13.6-38.2,32.4-50.5,54.3c-8.5,15.2-13.9,50.3-12.6,59.5c4.6-1.8,21.4-16,23.1-19.7
	c-4.8-1.6-10.3-0.6-15.1-4.5c1.3-1.1,2.1-1.9,3.1-2.6c1.7-1.2,3.6-2.3,5.3-3.4c7.4-4.7,14.7-9.5,22.1-14c2-1.2,3.1-2.6,3.4-4.9
	c1.1-8.8,2.2-17.6,3.3-26.4c0.1-1.1,0.1-2.3,0.3-3.4c1.1-4.5,4.4-5.7,8.1-3c1.4,1,2.9,1.9,5,3.2C358.8,123.2,361.3,112.3,359.6,99.7
	z"/>
<path d="M704.2,500.2c-4.6,2.9-8.4,5.2-12.2,7.6c-7.5,4.7-15,9.4-22.4,14.2c-5.8,3.7-11.6,7.5-17.4,11.1c-3,1.8-4,4.4-4.2,7.7
	c-0.6,9.8-1.5,19.6-2.2,29.5c-0.1,0.9,0.2,1.9,0.3,3.3c2-0.5,3.8-0.8,5.5-1.4c7.1-2.8,14.1-5.7,21.1-8.6c3.5-1.4,6.9-3.4,10.5-4.2
	c2.4-0.5,3.7-1.5,4.7-3.5c6.5-13,13-25.9,19.4-38.9c0.8-1.7,1.9-3.9,1.5-5.6C707.8,507.8,706,504.5,704.2,500.2z"/>
<path d="M467.7,585.4c-0.3-0.1-0.6-0.2-0.9-0.3c-0.7,1.1-1.6,2.2-2.2,3.4c-3,5.8-6,11.5-8.8,17.3c-3.6,7.6-6.8,15.5-10.5,23.1
	c-3.8,7.7-7.8,15.3-12.1,22.8c-6.8,11.9-13.6,23.7-20.9,35.3c-4.6,7.3-9.6,14.4-15.2,20.8c-6.6,7.5-14.3,14-22.8,19.3
	c-3.6,2.3-4,3.1-1.8,6.7c1.4,2.3,2.8,4.4,4.4,6.9c2.4-1.5,4.7-2.7,6.8-4.3c3.6-2.8,8.2-4.5,10.5-8.9c0.3-0.5,1-1,1.7-1.2
	c4.9-1.4,8-5.2,11.1-8.7c4.6-5.1,8.8-10.6,13.3-15.9c9.2-11,16.9-22.9,22.9-35.9c4-8.6,8.4-16.9,10.9-26.1
	c3.8-13.6,7.6-27.1,11.2-40.7C466.4,594.5,466.9,589.9,467.7,585.4z"/>
<path d="M339.9,287.5c-0.4,0.3-0.7,0.6-1.1,0.9c0.7,3.1,1.4,6.2,2,9.3c3.3,19.1,6.8,38.2,9.9,57.4c1.7,10.4,2.4,21,3.8,31.4
	c0.5,3.6,1.6,7.2,2.6,11.6c1.5-1.8,2.4-2.8,3.3-3.9c5.6-7.4,11.2-14.8,16.8-22.2c1.9-2.5,3.9-4.8,5.8-7.3c1.2-1.6,2.2-3.1,1.1-5.4
	c-4-8.1-8.1-16.1-11.4-24.5c-4.5-11.4-10.2-22.2-15.1-33.4c-2.3-5.2-5.3-9.1-10.8-11C344.3,289.6,342.1,288.4,339.9,287.5z"/>
<path d="M654.2,783.6c-2.1,2.3-4,4-5.5,5.9c-4.1,5-8.1,10.1-12.1,15.2c-1,1.3-2,2.5-3.8,1.6c-2.1-1-3.1,0.2-4,1.8
	c-1.6,2.8-3,5.8-5,8.3c-5.5,7-11,13.9-16.8,20.6c-2.9,3.3-4.7,6.2-4.1,11.1c1.1,11,1,22.2,1.5,33.3c0,0.6,0.3,1.3,0.7,2.8
	c1.3-1.9,2.1-3.2,2.9-4.4c2.5-3.8,4.7-7.7,7.5-11.2c8.2-10.4,16.7-20.5,24.9-30.9c4.9-6.3,9.5-13,14.1-19.5
	c2.5-3.4,4.9-6.9,7.3-10.4c1.1-1.5,1.3-2.9,0.6-4.7c-2-5-3.7-10-5.6-15C656.1,786.8,655.2,785.6,654.2,783.6z"/>
<path d="M500.3,418.3c-2.8-0.8-5.2-1.6-7.6-2.3c-10.8-2.9-21.7-5.9-32.5-8.7c-9.4-2.4-18.8-4.7-28.3-6.9c-2.2-0.5-3.9-0.1-5.6,1.8
	c-3.6,4.1-7.6,7.9-11.5,11.7c-2.9,2.9-6,5.6-8.8,8.5c-1.9,2-1.5,3.5,1,4.5c3.9,1.5,7.9,2.9,11.9,4.2c3.4,1,6.8,1.8,10.2,2.6
	c3,0.7,6,1.8,9,1.9c7.7,0.2,15.5,0,23.2-0.3c12.3-0.5,23.2-5.4,33.5-11.6C496.9,422.5,499,421.3,500.3,418.3z"/>
<path d="M404,779.9c-0.4-1.7-0.6-2.7-0.9-3.7c-2.6-7.6-5.9-15-10-21.9c-2.2-3.7-5-7.1-7.8-10.4c-1.9-2.2-2.5-2.1-5.1-0.6
	c-6,3.5-11.8,7.3-18,10.2c-8,3.8-16.3,7.1-24.6,10.1c-3.5,1.3-7.4,2.2-11.2,2.1c-7.4-0.2-14.5,1.9-21.8,2.8
	c-0.8,0.1-1.5,0.8-2.9,1.6C335.5,781.9,369.2,783.7,404,779.9z"/>
<path d="M275,601.6c-3.8,3-7.2,5.7-10.7,8.3c-3.3,2.5-4,5.5-2.7,9.3c2.2,6.8,4.3,13.7,6.4,20.6c2.2,7.4,4.4,14.8,6.5,22.3
	c1.3,4.7,2.6,9.5,3.9,14.2c0.4,1.4,1.1,2.7,2.8,2.7c4.2-0.2,8.4-0.5,12.6-0.7c1.8-0.1,2.5-1.1,2.3-2.8c-0.1-0.8-0.3-1.7-0.5-2.5
	c-1.7-8.7-3.5-17.4-5.1-26.1c-0.3-1.9-0.8-4,1.7-5.8c9.7,5.1,16,14.7,25.7,21.1c-0.1-1.3,0-1.8-0.1-2.3c-0.9-4.3-2.1-8.5-2.8-12.8
	c-0.5-3.1-1.6-5.5-3.9-7.7c-6.2-5.9-12.4-11.9-18.3-18c-4.3-4.4-9.2-8.3-12.3-13.8C279.2,605.4,277.1,603.8,275,601.6z"/>
<path d="M446.5,484.5c2.1,3.7,11.1,12.5,14,13.6c6.4-4.4,85.8-78.4,86.9-82.2c-4.3-2.3-5-2.3-8.1,0.7c-3.3,3.2-6.7,6.5-10,9.7
	c-5.7,5.6-12,10.3-19.3,13.5c-10.5,4.6-21.3,8.3-32.8,9.3c-3.4,0.3-6.7,0.6-10.1,0.9c-1.6,0.1-2.4,0.8-2.8,2.5
	c-2,8.1-4.9,15.9-10.3,22.5C451.5,478,449.1,481.2,446.5,484.5z"/>
<path d="M667.9,484.8c2-0.7,3.4-1.1,4.8-1.7c4.9-2.1,9.7-4.5,14.6-6.4c2.1-0.8,3.6-1.9,4.4-4c4.4-10.8,9.1-21.5,13.4-32.3
	c0.9-2.2,0.9-5,0.6-7.4c-1.2-7.5-2.6-15-4.2-22.4c-2-9.9-4.2-19.8-6.4-29.7c-0.4-2-1.3-3.8-2.4-6.7c-0.8,1.8-1.3,2.6-1.5,3.5
	c-1.1,4.8-2.1,9.6-3.1,14.4c-2,9.5-4.1,19-5.9,28.5c-1.5,7.8-2,15.9-5.2,23.3c-0.2,0.5-0.2,1.1-0.3,1.7c-2.8,11.8-5.7,23.5-8.5,35.3
	C668.1,481.9,668.1,483,667.9,484.8z"/>
<path d="M639,311.8c-1.2,0.6-1.8,0.8-2.2,1.1c-6.8,5.9-13.6,11.8-20.4,17.7c-4.5,4-7.8,9.3-13.5,12c-3.5,1.6-5.5,4.1-4.4,8.3
	c0.2,0.6-0.1,1.4-0.1,2.1c-0.1,13.2-0.3,26.5-0.4,39.7c0,0.6,0.4,1.2,0.7,2.3c1.7-1.2,3.2-2,4.4-3c8.4-7,16.7-14.3,25.2-21.1
	c3.4-2.7,6-5.5,5-10.2c-0.1-0.4,0.1-0.8,0.1-1.3c1.8-14.5,3.7-29.1,5.5-43.6C639.1,314.6,639,313.5,639,311.8z"/>
<path d="M717,486.5c0.2-2.7-0.1-4.9,0.5-6.8c1.3-4.3,1-8.6,1-13c0-1.1-0.1-2.3,0.1-3.4c0.7-6.8,1.3-13.7,2.1-20.5
	c1-8.5,2.8-17,1.4-25.6c-0.2-0.9,0.2-2,0.1-2.9c-0.1-0.8-0.6-1.6-1.2-3.2c-1.1,1.9-2,3-2.5,4.2c-1.8,4.4-3.4,9-5.2,13.4
	c-3.7,8.8-7.6,17.6-11.3,26.4c-3.3,7.9-6.2,16-9.6,23.9c-4.2,9.7-8.9,19.1-13.4,28.7c-0.7,1.6-1.3,3.2-2.3,5.6
	c1.8-0.6,2.8-0.8,3.6-1.3c8.9-5.7,17.8-11.4,26.7-17.1c4.4-2.8,8.5-5.9,13.8-7.1c1.8-0.4,3.7-1.5,5.1-2.8c1.1-0.9,2.2-2.5,2.2-3.8
	c0.2-9.3,0.2-18.6,0.1-27.9c0-2-1.7-3.3-3.6-3.3c-2.1-0.1-2.5,1.4-2.8,3c-0.1,0.7-0.1,1.4-0.2,2.1c-0.6,8.9-1.2,17.7-1.8,26.6
	C719.7,483.3,719.9,485.2,717,486.5z"/>
<path d="M378.2,198.5c0,7.3-0.5,13.5,0.1,19.6c1,10.8,2.6,21.5,3.9,32.3c0.2,1.8,1,2.8,2.7,3.3c1.2,0.3,2.4,0.7,3.7,1
	c5.5,1.2,11,2.5,16.5,3.6c12.6,2.4,25.2,4.7,37.8,6.9c1.1,0.2,2.4-0.1,4.6-0.2c-1.7-2-2.6-3.3-3.8-4.4c-2.7-2.6-5.5-5.2-8.3-7.8
	c-8.9-8.4-17.8-16.8-26.7-25.2C398.7,218.1,388.8,208.6,378.2,198.5z"/>
<path d="M226.8,378.6c-0.2-0.1-0.4-0.1-0.7-0.2c-0.5,1.1-1.2,2.2-1.6,3.3c-1.8,4.9-3.5,9.8-5.2,14.7c-3.7,11.2-5.9,22.7-6.4,34.4
	c-0.5,13.1-0.5,26.2,0.1,39.3c0.5,11,2.5,21.8,5.3,32.5c1.8,6.8,4.1,13.5,6.1,20.2c2.7,9,5,18.2,8,27.1c2.4,7.1,4.9,14.2,8.4,20.7
	C246.5,581,253,591,259.2,601c1,1.6,2.5,2.9,3.8,4.5c2.5-1.9,4.7-3.4,6.8-5c2.6-2.2,2.7-3.7,0.7-6.5c-5.2-7-10.2-14.1-14.6-21.6
	c-6.2-10.4-12.1-20.9-16.5-32.2c-3.5-9-7.1-18.1-9.9-27.4c-2.8-9-4.8-18.2-7.1-27.3c-0.5-1.9-1-3.8-1.3-5.8
	c-2.4-12.7-2.6-25.5-3-38.3c-0.5-16.7,1.9-33.2,5.9-49.4C224.9,387.6,225.8,383.1,226.8,378.6z"/>
<path d="M635.8,768.5c2.9,1,5.5,2,8.2,2.8c5.2,1.7,10.3,3.5,15.5,5.1c0.8,0.3,2,0.1,2.8-0.3c3.2-1.4,6.4-2.9,9.6-4.4
	c11.6-5.7,23.2-11.5,34.9-17.1c4.5-2.2,4.6-2,4.5-6.8c0-0.8,0-1.7-0.1-2.5c-0.3-2.1-1.3-3.3-3.6-3.3c-2,0-3.9-0.5-5.9-0.6
	c-12.2-0.5-24.5-1.1-36.7-1.5c-5.1-0.2-10.1-0.3-15.2-0.2c-2.9,0-3.7,0.7-4.7,3.4c-2.8,7.9-4.8,16.2-9,23.6
	C636,767.1,636,767.5,635.8,768.5z"/>
<path d="M321.6,608.7c-2.6,9.1-4.2,17.7-3.9,26.7c0.3,10.7,3.3,20.8,6.5,30.9c1.1,3.5,3.1,6.5,5.7,9.3c4.4,4.7,8.4,9.8,12.6,14.8
	c6.8,8.1,12.9,16.7,18.7,25.6c0.5,0.7,1.2,1.3,1.9,2c0.4-3.7,0.3-7.2-0.3-10.5c-2.3-12-4-24.2-8.8-35.6c-2.9-6.9-5.4-13.9-8.8-20.6
	c-5.4-10.7-11.3-21.1-17.1-31.6C325.9,615.8,323.7,612.3,321.6,608.7z"/>
<path d="M362.9,210.9c-0.9,0.2-1.4,0.2-1.7,0.4c-9.2,5.8-18.3,11.5-27.4,17.5c-4.3,2.8-5.2,5.9-3,10.4c5.2,11.1,10.5,22.1,15.9,33.2
	c2.5,5.2,5,10.4,7.5,15.6c1,2,1.9,4.1,4.6,3.9c0.3-0.4,0.6-0.6,0.7-0.8c2.1-9.9,4.2-19.8,6.2-29.8c0.7-3.6,0.7-7.3,1.6-10.8
	c0.7-2.7,0.9-5.2,0.5-7.9c-1.2-6.9-2.2-13.9-3.3-20.9C363.9,218.1,363.5,214.5,362.9,210.9z"/>
<path d="M626,648.9c1.1-1,2-1.7,2.8-2.5c2.4-2.8,4.4-5.9,7.2-8.3c2.8-2.5,3-5.1,2.3-8.3c-0.2-1.1-0.4-2.2-0.7-3.3
	c-3.5-12.6-7.1-25.2-10.6-37.8c-1-3.5-1.5-4-5.1-2.8c-5.8,2-11.6,4.4-17.4,6.5c-2.5,0.9-3.2,2.9-3.6,5.3c-1.6,9.1-2,18.4-4.3,27.4
	c-1,4.1-0.3,5.1,3.2,7.3c5.6,3.5,11.3,6.9,16.9,10.4C619.8,644.8,622.8,646.8,626,648.9z"/>
<path d="M377.4,415.6c9.7-11.3,17.2-23.3,23.4-36.2c2.4-5.1,4.5-10.4,5.9-15.8c1.2-4.6,1.4-9.5,1.8-14.2c1.4-13.9,0-27.6-3.2-41.1
	c-0.7-3.2-1.8-6.3-3.9-9.1c-0.4,5.5-0.5,11-0.4,16.5c0.1,10.7-2.1,21-5.4,31.1c-3.3,10.2-9.3,18.9-15.8,27.3
	c-4,5.2-8.1,10.5-12,15.8c-2.8,3.7-5.5,7.4-8.4,11.4C365.3,406,371.3,410.7,377.4,415.6z"/>
<path d="M348.8,542c-1.3,1-2,1.5-2.7,2.1c-4,3.4-7.8,6.9-11.9,10.1c-3.1,2.4-6.6,4.3-9.6,6.8c-6.2,5-12.1,10.4-18.3,15.5
	c-4.1,3.4-8.4,6.6-12.7,9.8c-4.3,3.4-8.7,6.7-12.9,10.2c-2.4,2-2.4,2.7-0.8,5.4c2,3.3,2.9,3.8,6.5,2.5c3.7-1.3,7.2-3.2,10.7-4.9
	c9.5-4.6,19-9.2,28.5-13.8c2.3-1.1,4.7-1.8,7-3c8.8-4.6,17.7-9.3,26.4-14.1c2.5-1.4,4.8-3.1,7.6-4.9C361,556,355.2,549,348.8,542z"
	/>
<path d="M322.5,743.3c-1.9,0.1-3.3,0.6-4.4,0.3c-5.9-1.9-11.8-3.7-17.5-6.1c-4.4-1.8-9-3.2-12.7-6.6c-0.6-0.5-1.5-0.6-2.3-1
	c-3.8-1.8-7.7-3.5-11.4-5.6c-3.7-2.1-7.3-4.6-10.8-7.2c-4.5-3.3-9.1-6.6-13.3-10.2c-6.6-5.6-13.1-11.5-18.6-18.3
	c-1.2-1.5-2.9-2.8-4.5-4.4c-2.9,0.5-5.1-1.8-7.5-3.3c-1.5-1-3.1-2-4.5-3.1c-1.3-1-2.8-1.2-3.7,0.1c-0.5,0.7-0.2,2-0.2,3
	c0,0.4,0.3,0.8,0.4,1.2c5.4,10.8,12.4,20.4,20.7,29c1.2,1.2,2.5,2.3,3.7,3.5c6.3,6.3,13.2,11.8,21,16.3c9.2,5.2,18.9,9.4,28.5,13.6
	c12,5.3,24.5,7.1,37.3,8.5c1.3,0.1,2.6-0.3,4.7-0.6C325.5,748.9,324,746.1,322.5,743.3z"/>
<path d="M479,95.1c-0.3-0.2-0.6-0.3-0.9-0.5c-0.6,0.2-1.4,0.4-1.9,0.8c-4.4,2.8-8.7,5.7-13.1,8.6c-5.2,3.5-8.6,8.4-10.7,14.3
	c-0.9,2.5-2.3,4.9-3.2,7.3c-2.2,5.6-4.6,11.2-6.4,17c-6.3,20.9-8.4,42.2-5.7,64c0.3,2.5,0.9,3.1,4.5,3.8c0.1-1.6,0.3-3,0.3-4.5
	c0-11,0-22-0.1-33c0-1,0-2,0.2-3c0.4-2,1.6-2.7,3.3-1.5c4.4,3.2,8.8,6.5,13.1,9.8c2.5,1.9,4.3,4.7,8.2,6.1
	c-2.8-15.6-3.8-30.6-2.1-45.9C466.2,122.9,473.4,109.3,479,95.1z"/>
<path d="M507.8,768.1c1.3,0.8,1.8,1.2,2.5,1.4c5.7,2.4,11.5,4.6,17.1,7.1c7.5,3.3,14.7,7.1,22.2,10.3c8.5,3.6,17.3,6.8,25.9,10.3
	c5.3,2.1,5.5,2.1,9.3-2.2c0.6-0.6,1.1-1.3,1.7-1.9c2.8-3.1,5.7-6.1,8.9-9.6c-3.1-1.9-5.9-3.7-8.8-5.4c-10.8-6.6-21.6-13.2-32.3-20
	c-3.4-2.2-6.3-2.3-9.7-0.3c-7,3.9-14.6,5.8-22.3,7.6C517.7,766.4,513.1,767.1,507.8,768.1z"/>
<path d="M485.3,200.1c3.5,1,6.7,2,10,2.7c6.9,1.4,13.8,2.8,20.7,3.9c3.6,0.6,4.4,0,4.6-3.6c0.4-7.9,0.6-15.7,0.7-23.6
	c0-2-0.6-4.1-1-6.8c-3.1,1.2-5.8,2-8.2,3.2c-2.4,1.2-4.5,2.9-6.9,4.1c-5.5,2.7-11.4,4.9-16.7,7.9c-10.9,6.1-21.7,12.5-32.5,18.9
	c-3.3,2-6.4,4.5-9.7,6.9c2.3,5.6,6.2,9.4,9.2,13.9c2.1-0.8,3.8-1.5,5.5-2.1c7.1-2.6,14.2-5.3,21.4-7.8c1.9-0.7,2.7-1.8,2.5-3.8
	c-0.4-3.2-0.5-6.5-1-9.6C483.6,202.4,483.8,201.2,485.3,200.1z"/>
<path d="M516.6,837.5c0,0.3,0.1,0.7,0.1,1c0.8,0.2,1.5,0.5,2.3,0.7c13.4,3.3,26.9,2.9,40.2,0.2c19.9-4,37.1-13.2,50.2-29
	c2.6-3.1,4.8-6.6,7-10c0.9-1.3,1.5-2.9-0.4-4c-5-3.1-10-6.3-15-9.4c-1.7-1-2.9-0.5-4.1,0.8c-2.7,2.9-5.3,5.8-8.1,8.6
	c-5.4,5.4-10.8,10.7-16.2,16c-1.1,1.1-2.2,2.3-3.7,3.9c2.8,1.2,5,2.2,7.1,3.1c1.4,0.6,2.9,1,4.3,1.7c0.6,0.3,1.5,1.4,1.3,1.9
	c-0.2,0.8-1.1,1.5-1.8,2c-0.4,0.3-1.1,0.2-1.6,0.3c-11,1.7-22,3.4-33,5.1c-4,0.6-8.3,0.9-11.9,2.5c-4.4,1.9-8.9,2.5-13.4,3.4
	C518.9,836.7,517.7,837.2,516.6,837.5z"/>
<path d="M655.4,301.4c0.5,0.4,0.7,0.7,1,0.7c4.4,0.8,4.8,1.3,4.4,5.7c-0.1,1-0.4,1.9-0.5,2.9c0,1.6,0.1,3.2,0.2,4.9
	c2.5-0.3,4.4-0.6,6.4-0.7c3.6-0.1,4,0.5,4.5,4c0.7,5.7,1.6,11.4,2.5,17.5c1.1-0.4,1.9-0.5,2.4-1c0.6-0.7,0.8-1.8,1.5-2.4
	c8.8-7.6,13.8-17.2,16.4-28.3c0.5-1.9,0.8-3.9,0.9-5.8c0.7-7.9-1.4-15.4-4.7-22.5c-2-4.2-5.4-7.5-10.3-8.8c-2.8-0.7-5.3,0.1-7.8,1.2
	c-2.2,1-1.4,3.4-2,5.2c-1.4,4.1-2.7,8.3-4.8,12C662.6,291.3,658.9,296.2,655.4,301.4z"/>
<path d="M374.3,460.2c-1.6,0.3-2.3,0.4-2.9,0.6c-9.7,4.1-19.6,7.7-29.6,11c-9,2.9-17.8,6.1-26.7,9.3c-2.7,1-5.4,2.1-9.1,3.5
	c9,5.3,17.5,9.2,25.7,13.8c8.3,4.6,16.4,9.5,24.8,14.3C363.6,495.7,368.4,478.2,374.3,460.2z"/>
<path d="M675,436.4c-1.7,0.1-2.7-0.1-3.5,0.2c-11.1,4.5-22.1,9-32.9,13.5c0,3.9,0.2,7.3,0,10.6c-0.7,8.8-1.8,17.7-2.5,26.5
	c-0.3,3.7,0,7.4,0,11.6c2.7-1,5.1-1.9,7.4-2.9c4.5-1.9,8.9-4.3,13.5-5.9c5.1-1.7,7.6-4.9,8.7-10.1c2.5-11.9,5.4-23.6,8.1-35.4
	C674.2,442.1,674.5,439.6,675,436.4z"/>
<path d="M688,481.2c-0.3-0.3-0.5-0.6-0.8-0.9c-2.2,0.8-4.5,1.4-6.7,2.3c-7.3,3.3-14.4,6.8-21.7,10.1c-7.3,3.3-14.7,6.5-22.1,9.6
	c-1.6,0.7-2.3,1.6-2.3,3.1c-0.1,8.7-1.7,17.3-0.6,26.1c0.1,1.1-0.4,2.5-0.9,3.5c-0.9,1.7-1,3.4-0.6,5.4c0.8-0.2,1.3-0.3,1.8-0.6
	c11.7-7.1,23.4-14.1,35-21.3c1.2-0.8,2.2-2.2,2.9-3.5c3.2-6.3,6.4-12.5,9.4-18.9C683.8,491.3,685.9,486.2,688,481.2z"/>
<path d="M205.6,193.8c1,10.3,4.6,19.7,8.1,29.2c3.5,9.6,5.6,19.6,9.7,29.1c1-0.3,1.6-0.4,2-0.7c8.3-5.8,16.6-11.6,24.9-17.4
	c1.7-1.2,2.5-3,2.1-5.2c-0.5-3.2-1-6.4-1.3-9.6c-0.3-2.9-1.6-4.9-4.3-6.3c-7.9-3.9-15.6-8.4-24.1-11.1c-0.9-0.3-1.7-0.9-2.6-1.4
	c-3.2-1.6-6.2-3.5-9.5-4.5C209,195.4,207.1,195.6,205.6,193.8z"/>
<path d="M448.4,612.5c0.4-0.7,0.7-1,0.8-1.4c5.4-10.7,10.9-21.3,16.2-32c1.6-3.2,1.4-6.3-1-9.4c-5-6.4-9.7-13.1-14.6-19.6
	c-1.3-1.7-2.7-3.3-4.3-5.3c-0.8,1.2-1.4,1.9-1.7,2.6c-5.1,10-10.2,20-15.3,30.1c-0.8,1.5-1.2,3.2-1.9,4.7c-0.8,2-0.2,3.3,1.2,4.9
	c3.8,4.3,7.3,8.9,10.9,13.4C441.7,604.4,444.4,608.7,448.4,612.5z"/>
<path d="M348.8,287.7c0.3-0.3,0.6-0.6,0.9-0.9c-2.6-5.7-5.4-11.3-8.3-16.9c-3-5.8-5.5-11.7-8.7-17.4c-3.1-5.4-4.6-11.7-8.5-17.1
	c-12.5,8.9-24.5,17.5-37.2,26.5c1.9,1.2,3,2.1,4.3,2.8c1.8,0.9,3.6,1.6,5.4,2.3c7.6,3.3,15.2,6.7,22.9,9.8c7.6,3,15.3,5.7,22.9,8.6
	C344.7,286.1,346.7,286.9,348.8,287.7z"/>
<path d="M610.5,234.4c-3.7,0-5.8,2.4-8.2,4c-5.8,3.9-11.6,7.9-17.4,12c-2.6,1.9-2.7,2.6-1.8,5.4c4.4,13.4,8.9,26.7,13.3,40.1
	c0.4,1.1,1,2.2,1.6,3.6c1.5-0.7,2.6-1.2,3.8-1.7c2.8-1.3,5.6-2.7,8.4-3.9c4.6-1.9,5.3-3.1,4.9-8c-1.4-15.7-2.7-31.4-4.1-47.2
	C611.1,237.3,610.8,235.8,610.5,234.4z"/>
<path d="M209.2,482.6c0-1.3,0.1-2.7,0-4c-0.4-9.3-0.9-18.5-1.3-27.8c-0.4-11.4,0.4-22.8,2.3-34c2.6-15.6,7.6-30.5,13.9-45.1
	c4.8-11.3,4.7-8.9-1.8-18.6c-0.1-0.1-0.1-0.3-0.2-0.4c-1.6-2.2-3.1-2.2-4.6-0.1c-0.9,1.3-1.6,2.7-2.3,4c-6.7,12.7-11.4,26-13.4,40.3
	c-1.3,8.8-2.9,17.6-3.2,26.4c-0.5,15.1,1.5,30.1,5.1,44.8C204.9,473,206.1,478.1,209.2,482.6z"/>
<path d="M530.8,91.2c-0.4,0-0.8,0-1.2-0.1c-2.3,5.1-4.2,10.3-5.3,15.8c-2.6,12.5-1.9,24.9,0.4,37.4c0.6,3.4,1.5,6.9,2.9,10.1
	c4.7,10.6,8.9,21.3,12.2,32.4c0.2,0.8,0.9,1.5,1.3,2.2c2.2-6.1,4.1-12.1,4.7-18.1c1.3-13.8-0.1-27.6-3.1-41.1
	c-1.7-7.7-4.2-15.2-6.5-22.7C534.4,101.8,532.5,96.5,530.8,91.2z"/>
<path d="M498.2,831.1c-0.8-1-1.4-1.7-2-2.5c-5-5.5-10-11-15.1-16.5c-3-3.2-6-6.4-9.1-9.4c-2.6-2.5-3.6-2.2-5.3,1.1
	c-3.3,6.8-7.4,13-13,18.1c-2.1,1.9-3.6,3.7-2.8,6.8c0.3,1.2-0.5,2.7-0.9,4.1c-1.3,5.3-2.8,10.6-4,15.9c-0.3,1.1,0,2.3,0,3.6
	C457.5,849,493.9,834.3,498.2,831.1z"/>
<path d="M571,662.5c0.8,0.7,1.1,1.1,1.6,1.4c8.2,5.8,17.1,10.3,26.1,14.7c2.2,1.1,3.8,0.6,5.1-1.3c2.6-3.5,5.2-7,8-10.4
	c3.4-4.2,6.9-8.2,10.3-12.3c1.9-2.3,1.8-3-0.7-4.7c-2.5-1.8-5.2-3.4-7.8-5.1c-5-3.2-9.9-6.5-14.9-9.6c-3.4-2.2-4.7-2-6.9,0.6
	c-5.1,6.4-10.3,12.7-15.4,19.1C574.6,657.3,573,659.8,571,662.5z"/>
<path d="M404.3,493.9c-0.3,0.1-0.6,0.2-0.9,0.3c0,1.4-0.2,2.8,0,4.2c2.3,13.8,4.5,27.5,6.9,41.2c2.1,11.9,4.2,23.8,6.6,35.7
	c0.7,3.6,1.1,7.4,3.5,11.1c1.1-2.4,2-4.2,2.9-6.1c1.5-3.2,2.9-6.4,4.5-9.6c3-6,6.1-12.1,9.3-18c1-1.8,0.9-3.5-0.2-5.2
	c-0.6-1-1.1-2-1.7-2.9c-7.4-12.1-14.9-24.3-22.3-36.4C410,503.5,407.2,498.7,404.3,493.9z"/>
<path d="M240.2,376.1c0,1.9-0.2,2.9,0,3.7c1,3.2,1.9,6.5,3.2,9.6c5.4,13.3,10.7,26.6,16.3,39.8c6.2,14.6,12.7,29.2,19.2,43.7
	c1.7,3.7,4.1,7.1,6.2,10.6c-1.5-8.7-2.6-17.4-6.4-25.3c1.6-2.1,3.6-3.6,3.1-6.7c-1.6-10-2.7-20.1-4.2-30.1c-0.2-1.3-0.7-2.8-1.5-3.8
	c-2.1-2.8-4.4-5.4-6.7-8.1c-4.9-5.8-9.8-11.6-14.6-17.5c-3.6-4.3-7.2-8.7-10.8-13C243,378.1,241.9,377.5,240.2,376.1z"/>
<path d="M431.1,396.6c2.1,0.8,3.8,1.5,5.5,1.9c5.9,1.5,11.7,3,17.6,4.4c12.6,3.1,25.1,6.3,37.7,9.4c5.7,1.4,11.5,2.5,17.3,3.6
	c1.1,0.2,2.5,0.4,3.3-0.2c3.3-2.1,6.3-4.6,8.5-8.6c-2.1-0.8-3.7-1.6-5.4-2c-15.8-4.3-31.2-9.5-46.6-15.1c-8.7-3.2-17.7-5.7-26.9-6.9
	c-3.2-0.4-4-0.1-5.5,2.6C434.8,389.1,433.1,392.5,431.1,396.6z"/>
<path d="M217.5,272c0,1.9-0.2,2.9,0,3.8c2.4,12.6,5,25.1,7.4,37.8c0.7,3.7,2.3,6.9,4.4,10c1.4,2.1,2.8,4.2,4.3,6.3
	c5.2,7.4,10.4,14.7,15.7,22.1c0.4,0.6,1.2,1,2.2,1.8c0.3-1.2,0.6-2,0.5-2.8c-0.4-10.3-1.1-20.6-1.2-30.8c-0.1-5.6-1.1-10.6-5.5-14.4
	c-0.6-0.5-0.9-1.4-1.4-2.1c-3.8-5-6.5-10.9-11.6-14.9c-0.9-0.7-1.5-2-2.1-3.1C227.5,280,223.2,276.1,217.5,272z"/>
<path d="M485.2,794.3c-0.2,0.4-0.4,0.8-0.5,1.3c2,1.7,4,3.4,6.1,5c4.9,3.8,9.9,7.5,14.8,11.2c6.8,5.2,13.7,10.4,20.5,15.6
	c1.8,1.4,3.7,1.7,5.9,1.4c12-1.8,23.9-3.5,35.9-5.3c1-0.2,2-0.6,4-1.1c-2.2-1.1-3.5-2-4.8-2.5c-8.6-3.4-17.2-6.9-25.9-10.1
	c-3.7-1.3-7.6-2-11.3-3.1c-1.6-0.5-3.6-1-4.4-2.2c-2-2.8-4.9-3.5-7.7-4.9c-1.9-0.9-3.5-1-5.5-0.1c-3.1,1.5-6.4,1.7-9.8,0.3
	s-6.9-2.5-10.4-3.6C489.7,795.4,487.4,794.9,485.2,794.3z"/>
<path d="M673.5,824.2c2.9-3.8,5.5-7,7.9-10.2c3.9-5.3,7.9-10.6,11.6-16.1c0.9-1.3,1.7-3.2,1.4-4.6c-1.7-8.3-4-16.4-8.4-24.1
	c-1.3,0.3-2.6,0.3-3.7,0.9c-8,4-15.9,8.1-23.9,12.2C663.5,796.5,668.4,810.1,673.5,824.2z"/>
<path d="M416.3,434.4c-0.1,0.1-0.1,0.3-0.2,0.4c0.6,0.3,1.1,0.7,1.7,0.9c7.6,2.4,15.2,5,23,7.1c11.9,3.2,23.8,4.9,36.3,2.9
	c10.8-1.7,21.2-4.6,31.1-9.1c4.6-2,8.9-4.9,12.8-8.1c5.1-4.1,9.8-8.9,14.6-13.4c0.7-0.7,1.2-1.7,2.1-3c-3.5-1.2-6.6-2.3-9.6-3.3
	c-1.5-0.5-2.7,0-3.8,1.2c-2.3,2.4-4.9,4.7-7.2,7.2c-2,2.1-4.2,3.1-7.1,2.6c-2.4-0.4-4.6,0.2-6.6,1.8c-3.6,2.9-7.3,5.8-11.3,8
	c-6.6,3.6-13.4,7.2-21.2,7.9c-6.3,0.6-12.6,1.9-18.9,2c-6.6,0.1-13.2-0.6-19.7-1.5C426.9,437.2,421.6,435.6,416.3,434.4z"/>
<path d="M291.9,208.5c0.3-0.2,0.6-0.4,0.7-0.6c0.2-0.7,0.3-1.4,0.4-2.1c1.7-12.1,2.9-24.3,6.7-36.1c1.5-4.6,0.6-9-0.9-13.2
	c-2.9-8.1-6.2-16-9.4-24c-1-2.5-2.5-4.6-4.8-6.7c-0.5,1.4-1.1,2.4-1.3,3.4c-2.2,10.9-5.1,21.6-4.4,33c0.4,6.8,0.7,13.5,2.8,20
	c2.9,8.5,6.1,16.9,9.3,25.4C291.2,208,291.6,208.2,291.9,208.5z"/>
<path d="M442.4,481c8.3-4.2,18.3-21.3,17.8-30.9c-16.4-2.9-32.6-7.1-48.7-12.3C419.4,454.1,429.6,468.5,442.4,481z"/>
<path d="M319.3,738.4c-0.9-2.3-1.3-3.9-2.1-5.3c-7-12.9-12.5-26.4-16.3-40.7c-0.6-2.4-1.8-4.6-2.9-7.4c-9.1,4.3-16.8,9.7-23.7,16.7
	c3.4,4,6.7,7.8,9.8,11.7c4.8,5.9,9.5,11.8,14.3,17.7c0.7,0.8,1.6,1.7,2.5,2.1c4.2,1.6,8.4,3.2,12.7,4.6
	C315.1,738.3,316.8,738.1,319.3,738.4z"/>
<path d="M683.5,563.7c-0.2-0.3-0.5-0.5-0.7-0.8c-0.8,0.2-1.6,0.2-2.3,0.5c-11.4,4.5-22.8,9-34.1,13.6c-2.7,1.1-3,1.9-2.4,5.1
	c2.1,11.3,4.2,22.7,6.4,34c0.3,1.4,0.9,2.8,1.5,4.8C664.2,602.2,674.5,583.3,683.5,563.7z"/>
<path d="M648.1,377.8c0.5-2.3,1.1-3.9,1.3-5.5c1.2-9.2,2.2-18.4,3.4-27.6c1-8.4,2.2-16.7,3.2-25.1c0.4-3.6,0.7-7.3,1-10.9
	c0.1-1.5-0.2-3.2-2-3.1c-3.2,0.3-6.5,0.5-9.4,1.7c-2.8,1.2-3,4.5-3.3,7.3c-0.5,5-1.2,10.1-1.8,15.1c-1.6,13.4-3.2,26.8-4.7,40.2
	c-0.1,1,0.3,2.6,1,2.9C640.2,374.5,643.9,376,648.1,377.8z"/>
<path d="M242.2,347.6c-3.4,2.3-3.8,5.7-5.1,8.6c-1.8,4-1.6,7.5,1.8,10.7c1.2,1.1,2,2.7,3,4.1c3.3,4.4,6.5,8.8,10,13
	c4.8,5.7,9.8,11.3,14.6,16.9c5.4,6.3,10.7,12.7,16,19c1.3,1.5,2.9,2.7,4.3,4.1c0.2-0.2,0.5-0.4,0.8-0.5c-0.7-4.5-1.5-9.1-2.1-13.6
	c-0.6-5.3-3.5-9.4-6.8-13.3c-5.1-6.2-10.3-12.2-15.2-18.6c-4.9-6.5-9.5-13.2-14.2-19.8C247,354.7,244.7,351.3,242.2,347.6z"/>
<path d="M664.6,810.4c-1.4,1.6-2.4,2.6-3.2,3.6c-6.1,8.3-12.1,16.7-18.1,24.9c-1.2,1.6-1.6,3.3-1.1,5.2c1.8,6.3,3.7,12.7,5.6,19
	c0.3,1,0.9,1.9,1.5,3.2c1.6-1.2,2.9-1.9,4-3c6.7-6.7,13.2-13.5,19.9-20.1c2.1-2.1,2.4-4,1.3-6.7c-2.8-6.9-5.2-14-7.8-21
	C666.2,814.1,665.5,812.6,664.6,810.4z"/>
<path d="M235.8,658.3c1.4,0.3,2.3,0.6,3.3,0.6c8.1,0.6,16.3,1.1,24.4,1.6c0.8,0.1,1.7,0,2.5-0.1c1.8-0.1,2.5-1.2,2.3-2.9
	c-0.1-0.8-0.4-1.6-0.6-2.5c-3-10.4-6-20.8-9-31.2c-0.6-2-1.5-3.9-2.3-6c-1.2,0.5-2,0.6-2.7,1.1c-3.5,2.4-6.8,5-10.4,7.2
	c-3.8,2.3-5.3,5.5-5.4,9.8c-0.1,3.9-0.7,7.8-1,11.7C236.6,651.2,236.2,654.6,235.8,658.3z"/>
<path d="M235.6,272c3.4-0.3,6.6-0.8,9.7-0.8c2.4,0,4-0.8,5.2-2.9c1.6-2.6,3.4-5.2,5.3-7.7c1.3-1.8,1.9-3.7,1.5-6
	c-0.8-4.6-1.6-9.2-2.4-13.7c-0.1-0.7-0.3-1.4-0.6-2c-0.5-1.3-1.6-1.7-2.7-0.9c-4.7,3.3-9.3,6.8-14,10.2c-3,2.1-6,4.2-8.9,6.3
	c-1.2,0.9-2.8,1.7-3.6,2.9c-1.5,2.3-3.4,4-6.2,4.4c0.3,3.5,2.4,5.7,4.3,7.9c2.5,2.9,5.4,5.5,7.6,8.5c5.6,7.7,11,15.7,16.5,23.5
	c0.4,0.6,1.1,1,1.9,1.7c0.7-2.3,0.2-4-0.7-5.6c-3.4-5.8-6.8-11.7-10.3-17.4C236.8,278,235.8,275.7,235.6,272z"/>
<path d="M684.8,605.9c1-1.3,1.7-2.1,2.3-3c5-8,10.1-15.9,15-23.9c1.2-1.9,2.6-3.9,2.8-6c0.1-1.9,0.8-2.7,2-3.8
	c4.9-4.3,7.2-10.3,10.1-15.9c0.2-0.5,0.1-1.1,0.1-1.7c0-3.8,0.1-7.6,0.1-11.4c-0.1-3.7-0.3-7.4-0.5-11.2c-0.3-0.1-0.5-0.2-0.8-0.3
	c-0.9,1.3-2,2.5-2.8,3.8c-1.9,3.1-3.6,6.4-5.5,9.5c-7.9,12.9-15.1,26.1-21.8,39.6c-2,4-4.1,8.1-6,12.1c-0.5,1-1,2.4-0.6,3.2
	C680.6,599.8,681.6,603.2,684.8,605.9z"/>
<path d="M652,376.1c1.5,0,2.1,0.1,2.6,0c8.6-1.5,17.2-3,25.7-4.5c3.2-0.6,3.7-1.4,3-4.7c-1.7-8-3.6-15.9-5.4-23.9
	c-0.7-3.1-1.5-3.8-4.7-3.6c-4.6,0.3-9.2,1-13.9,1.3c-2.5,0.2-3.5,1.4-3.7,3.7c-0.1,1.3-0.4,2.5-0.6,3.8c-0.8,6-1.7,12-2.4,18
	C652.3,369.2,652.3,372.4,652,376.1z"/>
<path d="M412.2,789.2c4.2-1.6,8.1-2.9,11.9-4.6c1.8-0.8,2.9-2.4,2.2-4.5c-1.4-4.4-2.6-8.9-4.4-13.2c-4.1-9.7-10.4-18-17-26.1
	c-2.5-3.1-5.4-6-8.3-9.2c-3.4,2.5-6.4,4.7-9.4,6.9C398.8,756,402.7,759,412.2,789.2z"/>
<path d="M519.9,211.2c-1.3-0.4-2.1-0.7-2.9-0.9c-7.1-1.5-14.3-2.8-21.4-4.6c-6.9-1.7-7.8-1.1-7.4,5.8c0.5,9.1,1,18.3,1.8,27.4
	c0.2,2.7,0,5.6,2.3,8.4c3-2.4,5.9-4.6,8.6-7c5-4.5,9.9-9.1,14.7-13.9c1.4-1.4,2.6-3.4,3.1-5.3C519.4,218.1,519.5,214.8,519.9,211.2z
	"/>
<path d="M232.2,563.1c-0.9,0.4-1.2,0.4-1.4,0.6c-5.1,6.3-10.2,12.7-15.4,19c-1.6,2-1.7,3.9-0.9,6.3c2.4,7.9,4.6,16,6.9,23.9
	c0.7,2.3,1.3,4.6,2.2,7.8c4.1-7.5,7.9-13.9,11.3-20.6c2.3-4.5,4-9.3,5.9-14c1-2.5,0.8-5-0.2-7.4c-1.3-3.1-2.6-6.3-4.1-9.3
	C235.2,567.3,233.7,565.3,232.2,563.1z"/>
<path d="M565.1,499.4c-1.9-0.9-3-1.5-4.1-1.9c-2.8-1.1-5.7-1.7-8.3-3.2c-3-1.7-5.5-1.1-8.2,0.5c-11.4,6.8-22.8,13.4-34.1,20.3
	c-4.8,2.9-9.5,6.1-14,9.5c-3.4,2.6-2.9,5.6,1.3,6.9c1.1,0.4,2.7-0.2,3.9-0.8c10.2-4.4,20.4-8.8,30.5-13.5
	c8.4-3.9,16.6-8.2,24.8-12.5C559.5,503.3,561.8,501.5,565.1,499.4z"/>
<path d="M694,738.1c4.5,0.2,8.8,0.3,13.1,0.6c2.9,0.2,5-0.8,6.9-3.1c4.8-5.8,9.9-11.5,14.9-17.2c3.6-4.1,7.2-8.3,10.8-12.4
	c2.1-2.4,3.6-5,4-8.2c0.7-5,1.6-10,2.3-15c0.1-0.5-0.1-1-0.2-2c-1.2,0.9-2.2,1.5-2.9,2.3c-16.2,17.7-32.4,35.5-48.5,53.3
	C694.2,736.8,694.2,737.3,694,738.1z"/>
<path d="M627.8,231.6c-0.4,1.8-0.7,2.8-0.8,3.9c-0.3,8.3-0.7,16.6-0.7,24.9c0.1,9.6,1.8,19,3.8,28.4c0.2,1.1,0.5,2.3,1.2,3.1
	c2.8,3.3,5.5,6.7,8.7,9.7c1.1,1.1,3.3,1.3,5.1,1.5c1.6,0.2,2.7-0.7,2.6-2.5c-0.1-1.8-0.1-3.7-0.2-5.5c-0.7-7.7-2.3-15.3-4.5-22.7
	c-1.7-5.7-3-11.5-5-17c-2.5-7.1-5.6-14.1-8.4-21.2C629.4,233.5,628.8,232.9,627.8,231.6z"/>
<path d="M331.5,224.5c0.3,0.1,0.6,0.3,1,0.4c9.2-5.7,18.4-11.4,27.5-17.2c1.9-1.2,2.8-2.9,2.5-5.4c-0.4-3.8-0.5-7.6-0.8-11.3
	c-0.4-4.1-0.8-8.2-1.3-12.4c-3.9,0.8-17,6.4-19.1,8.1c-0.6,0.5-1.3,1.2-1.6,1.9c-1.7,4.8-3.4,9.5-4.8,14.3c-0.9,3.1-1.2,6.3-1.7,9.5
	C332.6,216.6,332.1,220.5,331.5,224.5z"/>
<path d="M588.4,320.6c-7.6-18.8-15-37.2-22.7-56.1c-4.3,3.1-8,5.8-11.7,8.5c-1.5,1.1-0.9,2.5-0.5,3.9c3.8,12.3,9,23.9,15.8,34.9
	c2.5,4,5.8,6.5,10.1,7.7C582.2,320.2,585,321.7,588.4,320.6z"/>
<path d="M295.3,220.3c-1.3,1.2-2,1.6-2.6,2.3c-4.9,5.4-9.5,11.1-14.7,16.2c-4.2,4.1-5.1,8.4-3.5,13.8c0.3,0.9,0.4,1.9,0.7,2.9
	c1.3,4.3,6.9,6.5,10.5,3.9c7.8-5.6,15.4-11.3,23-17.1c1.1-0.9,1.8-2.4,2.8-3.8C306,232.3,300.7,226.4,295.3,220.3z"/>
<path d="M486.6,277.4c-0.7-1-1.2-2-1.9-2.9c-4.4-5.7-8.8-11.4-13.1-17.1c-3.3-4.4-6.5-8.9-9.8-13.2c-2-2.6-2.7-2.7-5.1-0.7
	c-3.2,2.7-6.3,5.6-9.3,8.5c-1.3,1.2-3.3,2.8-3.1,4c0.2,1.7,2.1,3.1,3.3,4.7c0.2,0.2,0.4,0.4,0.6,0.6c6.3,5.9,12.5,11.7,18.8,17.6
	c1.6,1.5,3.2,3.2,4.9,4.7c1.1,1,2.4,1.3,3.9,0.5c3-1.6,6-3.1,8.9-4.8C485.4,279,485.9,278.2,486.6,277.4z"/>
<path d="M360.7,817.5c0-0.5,0-1,0-1.5c-3-0.6-6-1-8.9-1.8c-6.7-1.8-13.3-3.7-20-5.5c-1.4-0.4-3.1-0.4-4.5,0
	c-5.8,1.7-11.5,3.5-17.2,5.5c-4.8,1.7-9.4,3.7-14.1,5.6c-1.5,0.6-2.8,1.7-2.5,3.5c0.4,2.7,1.1,5.4,1.6,8.1c1.5,0,2.3,0.1,3.1,0
	c6.8-1.4,13.5-2.7,20.3-4.3c9.6-2.3,19-5,28.8-6.6C351.8,819.8,356.2,818.5,360.7,817.5z"/>
<path d="M387.3,356.2c0.6-0.5,1.1-0.6,1.2-0.9c1.2-2.6,2.5-5.1,3.4-7.7c6.2-17.6,7-35.7,4.9-54.1c-0.8-7-4-12.7-6.8-18.8
	c-0.3-0.7-1-1.2-2.2-2.5c-0.1,3.4-0.6,6-0.3,8.4c1.3,9.8-0.1,19.4-1.4,29c-1.3,9.8-2.9,19.5-2.5,29.4
	C383.9,344.8,385.9,350.3,387.3,356.2z"/>
<path d="M517.2,230.6c-0.3-0.1-0.6-0.3-0.9-0.4c-3.5,3.1-7.1,6.3-10.6,9.4c-3.6,3.2-7.1,6.3-10.8,9.4c-4.3,3.6-8.7,7.2-13,10.7
	c-1.7,1.4-2,3-0.6,4.8c2.9,3.8,5.8,7.6,8.8,11.6c6-3.3,12-6.4,17.8-9.8c1.6-0.9,3.1-2.2,3.5-4.5c1.5-8.3,3.3-16.5,5-24.8
	C516.9,235,517,232.8,517.2,230.6z"/>
<path d="M490.3,779.5c0.8,1,0.9,1.2,1.2,1.4c11.1,7.2,23,13.1,34.9,18.7c1.1,0.5,3,0.8,4,0.2c5-2.9,9.6-6.2,13-11.2
	c-0.7-0.5-1.2-0.8-1.7-1c-9.5-5.1-19.4-9-29.4-12.9c-3.4-1.3-6.9-2.5-10.4-3.6c-1.6-0.5-3.3-0.9-4.7,0.6
	C495,774.2,492.7,776.8,490.3,779.5z"/>
<path d="M492.6,681.6c0.5-2.9,1.5-5.8,1.4-8.7c-0.3-9.1-2.9-17.8-6.2-26.2c-3.6-9.2-9-17.5-15.2-25.2c-2.1-2.6-4.2-5.1-7.8-7
	c-2.4,6.3-3.7,12.6-4.7,18.4C474.9,646.8,484.9,663.2,492.6,681.6z"/>
<path d="M576.9,252.3c4.3-3.2,7.7-6,11.4-8.6c4.9-3.4,9.8-6.6,14.8-9.8c2-1.3,2.7-2.8,2-5c-1.5-4.8-3-9.7-4.5-14.5
	c-0.5-1.5-1.3-2.4-3.1-1.8c-5.8,1.8-11.6,3.4-17.4,5.3c-3.9,1.3-4.3,2.2-4.2,6.3c0.1,7.6,0.2,15.2,0.3,22.8
	C576.2,248.5,576.6,250,576.9,252.3z"/>
<path d="M597.6,779.9c1.6-3.3,3.1-6.2,4.4-9.1c0.4-0.9,0.8-1.8,1.1-2.7c2-8.2,3.6-7.9-5.6-10.9c-8.6-2.7-17.2-5.3-25.9-7.9
	c-0.9-0.3-1.9-0.6-2.9-0.8c-5.4-1.4-10.1,0.1-14.5,5C568.5,762.4,582.4,771.5,597.6,779.9z"/>
<path d="M653.9,778.2c-2.8-1.1-4.9-2-7.1-2.8c-7.2-2.7-14.5-5.4-21.8-8.1c-3.5-1.3-4.4-0.7-5.5,2.9c-0.6,1.9-1.2,3.8-1.8,5.6
	c-1.7,4.7-3.4,9.5-5.2,14.4c5.3,3.3,10.4,6.5,15.3,9.5c2.6-1.5,3-3.7,3.6-5.7c1.6-5.7,3.2-11.4,4.7-17.1c0.4-1.5,1.1-2.6,3.1-2.3
	c1.5,3.2-0.3,6.2-1,9.2c-0.8,3.3-1.8,6.5-2.8,9.7c-0.9,3-2.1,5.8-3.1,8.8c0.3,0.2,0.7,0.4,1,0.5
	C640.3,795.3,646.4,786.7,653.9,778.2z"/>
<path d="M558.9,222.7c-1.8,1.8-3.2,3.1-4.6,4.5c-1.5,1.5-2.8,3.2-4.6,4.3c-2.9,1.7-3.4,4.1-3,7.2c1.1,8.4,2.2,16.7,3.3,25.1
	c0.3,2,0.4,4.2,2.5,5.9c5.9-4.2,11.7-8.3,17.5-12.5c1.5-1.1,1.2-2.6,0.7-4.2c-2.1-6-4.1-12-6.3-17.9
	C562.8,231,560.9,227.2,558.9,222.7z"/>
<path d="M485.2,220.6c-1.5,0.3-2.3,0.3-3.1,0.6c-7.3,2.6-14.5,5.2-21.7,8c-2.6,1-2.8,2.2-1.1,5c2.8,4.4,5.6,8.8,8.5,13.1
	c2.4,3.5,4.9,6.8,7.6,10.1c1.8,2.2,2.2,2.1,4.4,0.3c1.7-1.4,3.4-3,5.2-4.4c2.1-1.6,2.8-3.6,2.6-6.3c-0.7-7.4-1.1-14.9-1.7-22.3
	C485.8,223.5,485.5,222.3,485.2,220.6z"/>
<path d="M307.4,834.8c0.5,0.7,0.6,1.2,0.9,1.4c0.6,0.4,1.2,0.7,1.9,1c5.1,2.1,10.3,3,16,2.3c10.4-1.1,20.7-2.4,30.8-5.1
	c8.3-2.2,16.6-4.4,24.9-6.6c0.8-0.2,1.5-1,2.6-1.7c-1.9-1.7-3.3-3.2-5.1-4.4c-1.1-0.7-2.6-1.1-3.8-1c-6.3,0.8-12.6,1.6-18.8,2.8
	c-10.9,2.1-21.8,4.4-32.6,6.8C318.6,831.6,313.2,833.3,307.4,834.8z"/>
<path d="M491.7,643.7c0.8-2.1,1.3-3.4,1.6-4.7c1.2-4.8,0.4-9.5-0.4-14.2c-1.5-8.5-5.2-16.1-9.9-23.1c-3.1-4.6-6.9-8.8-10.4-13.1
	c-0.3-0.3-0.9-0.4-1.9-0.8c-1.5,7.8-3.7,15.1-4.8,22.1C477.1,619.5,484.8,630.6,491.7,643.7z"/>
<path d="M579.5,255.4c-1.7,1.1-2.6,1.7-3.5,2.3c-1,0.6-1.9,1.1-2.9,1.6c-3.8,2-4.1,2.6-2.8,6.6c0.3,0.9,0.6,1.9,1,2.8
	c3,7.6,6.1,15.2,9.2,22.7c3.1,7.7,6.3,15.3,9.6,22.9c1.2,2.8,2.7,5.4,4.1,8.1c2-0.8,1.8-2.4,2-4c0.7-9.6-1.3-18.7-4.5-27.7
	c-2.6-7.3-4.7-14.7-7.2-22.1C582.9,264.5,581.3,260.3,579.5,255.4z"/>
<path d="M598.8,342c3.3-2.4,6-4.2,8.3-6.3c3.5-3.2,6.8-6.7,10-10.2c0.7-0.8,1.4-2.2,1.3-3.2c-0.6-7-1.4-14-2.1-21
	c-0.2-1.8-0.6-3.5-1-5.6c-5.8,1.5-10.5,3.8-14.7,7.1c-0.6,0.4-0.9,1.5-0.9,2.2c-0.5,10.9-0.9,21.9-1.3,32.8
	C598.3,338.8,598.5,339.7,598.8,342z"/>
<path d="M502.9,122.6c-0.3,0.1-0.7,0.2-1,0.3c-0.9,3.9-2.1,7.8-1.9,11.9c0.5,9.7,1,19.4,1.9,29c0.3,3.2,1.4,6.3,2.2,9.4
	c0.5,1.9,1.7,2.5,3.5,1.6c3.3-1.6,6.6-3.2,9.8-4.8c1.7-0.9,2.2-2.1,1.8-4.2c-2.3-12.8-6.6-25-12.3-36.6
	C505.9,126.8,504.3,124.8,502.9,122.6z"/>
<path d="M704,369.5c-5.7,3.5-6.5,5.6-5.2,11.2c1.5,6.3,2.9,12.6,4.1,19c1.7,8.6,3.1,17.2,4.7,25.8c0.2,1.2,0.7,2.3,1.1,3.4
	c0.3,0,0.6,0.1,0.9,0.1c0.6-1,1.3-2,1.8-3c2.5-6,4.8-12.1,7.4-18c1.3-3,0.9-5.6-0.5-8.4c-4.4-9.1-8.6-18.3-12.9-27.5
	C705,371.2,704.6,370.5,704,369.5z"/>
<path d="M552,489.9c0.9,0.9,1.2,1.3,1.5,1.4c4.7,1.9,9.4,3.8,14.1,5.5c1.1,0.4,2.6,0.4,3.7,0c3.8-1.7,7.8-3.4,11.2-5.8
	c2.2-1.5,3.7-3.6,6.8-3.1c0.5,0.1,1.4-0.5,1.8-1c1.4-1.9,3.4-2.2,5.5-2.7c3.1-0.7,5.8-2.2,8.9-4.9c-6.1-2.3-11.4-4.5-16.8-6.2
	c-1.4-0.4-3.4,0.1-4.8,0.8c-8.3,3.8-16.5,7.7-24.7,11.7C556.8,486.9,554.7,488.4,552,489.9z"/>
<path d="M324.6,366.6c2.6,3,20.6,12.4,24.7,13c1.3-4.9-0.6-9.7-1-14.5c-0.3-4.8-0.9-9.5-1.6-14.2s-0.6-9.6-3.2-14.3
	C335.4,346,329.9,356.3,324.6,366.6z"/>
<path d="M464.3,502.2c2.9-0.8,4.7-2.6,6.6-4.4c3.5-3.2,6.9-6.6,10.6-9.7c12.7-10.5,25.7-20.7,38.2-31.3c8.7-7.4,16.8-15.4,25.3-23
	c4.1-3.7,6.5-7.8,4.7-14.1c-1.3,1.1-2.4,2-3.3,2.9c-4.5,4.3-9,8.5-13.5,12.8c-9.8,9.4-19.5,18.8-29.3,28.1
	c-10.1,9.6-20.3,19.1-30.4,28.7c-2.7,2.5-5.3,5.1-7.8,7.7C465,500.6,464.7,501.5,464.3,502.2z"/>
<path d="M554.5,427.9c2.2-1.3,3.8-2.1,5.2-3.1c2.6-2,4.9-4.2,7.5-6.1c6-4.4,12.2-8.6,18.1-13c2.4-1.8,4.6-4,6.9-6.2
	c-2.9-4.2-5.5-8.1-8.3-12.1c-0.7,0.5-1.4,0.9-2,1.4c-5.2,4.9-10.4,9.9-15.5,14.8c-3.4,3.2-6.8,6.3-10.1,9.6c-0.9,0.9-2,2-2,3
	C554.2,419.8,554.4,423.4,554.5,427.9z"/>
<path d="M471.5,792.7c-1.4,1.5-0.7,2.7,0.5,4c2.3,2.3,4.6,4.6,6.8,6.9c6.2,6.7,12.4,13.4,18.5,20.2c2.4,2.7,4.8,5.5,7.1,8.4
	c2.3,3,3.5,3.5,7.3,2.5c3.8-1,7.6-2,11.4-3c0.5-0.1,0.9-0.5,1.4-0.8C521,826.7,475.8,794.1,471.5,792.7z"/>
<path d="M691,620.4c2.7-3.6,5.1-6.6,7.2-9.6c6-8.5,11.9-17.1,17.9-25.6c4.5-6.4,4.1-8-2.5-12.3c-1.4-0.9-2.7-0.9-3.8,0.2
	c-1,0.9-1.9,2-2.7,3.2c-1.8,2.8-3.6,5.7-5.3,8.6c-4.5,7.6-8.9,15.3-13.4,22.9c-1.6,2.7-1.4,5.4,0,8C689,617.1,689.8,618.4,691,620.4
	z"/>
<path d="M383.7,818.6c9.2,8.3,18.6,14.1,30,16.2c5.8-6.8,11.9-13.1,12.9-23.2c-2.2,0.3-3.9,0.4-5.4,0.8c-10.3,2.6-20.7,4-31.2,4.5
	C388.2,817,386.5,817.8,383.7,818.6z"/>
<path d="M261.7,252.7c1.8-2.2,2.9-3.6,4.1-4.9c2.3-2.7,2.9-5.6,2-9c-1.2-4.5-2-9.1-3-13.6c-2.7-12.2-6.8-24.1-8.4-36.6
	c-0.5-4-3.5-6.1-7.6-7.3C252.8,204.8,255.5,228.5,261.7,252.7z"/>
<path d="M346.4,133.6c-0.6,2.6-1.1,4.3-1.4,6.1c-1.5,11-2.9,22-4.2,33.1c-0.4,3.2-1.4,6.5-0.3,10.4c6.2-2.5,12.2-4.8,17.7-8.1
	c1.6-1,1.9-2.4,1.4-4c-1-3.1-1.9-6.2-2.9-9.2c-2.8-8.4-5.7-16.8-8.6-25.1C347.8,135.8,347.3,135.2,346.4,133.6z"/>
<path d="M642.5,633c6.9-1.5,7.7-2.4,6.8-7.5c-2.3-12.4-4.7-24.8-7.2-37.2c-0.5-2.7-1.7-5.2-2.7-8c-3.8,0.6-7.1,1.5-10,3.9
	C632.8,600.9,638.1,616.9,642.5,633z"/>
<path d="M637,658.9c-1.2,1.4-2,2.2-2.7,3.1c-3,4.2-6,8.5-9,12.7c-2,2.9-4.3,5.6-6.1,8.6c-1.6,2.6-1.1,3.9,1.7,4.8
	c6.4,2,12.9,3.9,19.4,5.6c3.8,1,4.4,0.3,4-3.7c-0.9-9.1-3-18-5.6-26.8C638.4,661.9,637.8,660.8,637,658.9z"/>
<path d="M232.1,801.7c4.1-1.3,7.5-2.6,11-3.5c5.3-1.4,10.7-2.4,16-3.6c1-0.2,1.9-0.5,2.8-0.9c1.8-0.8,2.7-2.1,2-4
	c-0.9-2.4-1.9-4.8-2.9-7.3c-3,0.3-5.6,1-8,0.6c-8-1-16,0.3-23.9,0.9c-2.9,0.2-3.7,1.3-2.6,4.2C228.1,792.6,230.1,797,232.1,801.7z"
	/>
<path d="M530.4,258.8c-0.7,3.2-0.3,6.4,0.3,9.5c2.7,13.7,7.8,26.8,12.5,39.9c0.8,2.2,2.2,3.7,4.8,4.2c5.2,1,10.4,2.3,15.6,3.4
	c1,0.2,2.1,0,3.1,0c0.1-0.3,0.3-0.5,0.4-0.8c-8.5-7.4-15.9-15.7-21.6-25.5C539.7,279.7,534.9,269.5,530.4,258.8z"/>
<path d="M588.4,325.1c-0.4,2.9-1,5.2-1.1,7.5c-0.1,7.2-0.2,14.4-0.1,21.6c0.2,10.1,0.5,20.3,0.8,30.4c0.1,4.2,2.6,7.1,6.2,10.7
	c0.3-2,0.7-3.2,0.7-4.3c0-6.9-0.2-13.8-0.1-20.7c0.1-12.8,0.4-25.6,0.6-38.5c0-1.4-0.3-2.4-1.6-3.1c-0.9-0.5-1.6-1.5-2.5-2.1
	C590.6,326.1,589.7,325.7,588.4,325.1z"/>
<path d="M644.3,538.3c-5,2.5-9,4.8-12.5,7.8c-0.8,0.7-1.1,2.2-1.3,3.4c-0.6,3.5-1,6.9-1.4,10.4c-0.6,5.6-1.2,11.2-1.8,16.8
	c-0.3,2.8,1,3.7,3.5,2.8c1.3-0.5,2.5-1.4,3.9-1.6c6.2-1,7.7-5.3,7.9-10.7c0-0.6,0-1.1,0-1.7c0.6-6.8,1.1-13.7,1.7-20.5
	C644.4,543.1,644.3,541.2,644.3,538.3z"/>
<path d="M472.6,192c3.3-0.9,6.2-2.2,7.4-5.3c1.3-3.4,2.6-6.9,3.3-10.4c2-9.8,0.5-19.6-1.4-29.2c-0.1-0.7-0.6-1.4-1.1-2.4
	c-5.3,6.7-8.5,13.9-10.9,21.6c-1.1,3.6-1.3,7-0.5,10.7c0.9,4.1,1.3,8.3,2,12.4C471.6,190.2,472.2,191,472.6,192z"/>
<path d="M513.4,350.3c-1.1-8-3.2-14.8-4.7-21.7c-1.5-6.9-1.9-14-4.7-21.3c-5.8,7.7-10.1,15.4-14.6,23c-0.9,1.5-0.2,2.6,1.1,3.6
	c2.5,1.8,5,3.6,7.5,5.5c3.9,3,7.7,6.1,11.7,9C510.5,349,511.5,349.4,513.4,350.3z"/>
<path d="M593.3,469.6c0.9,0.8,1.3,1.5,2,1.9c4.2,1.9,8.4,3.9,12.7,5.6c1.1,0.4,2.9,0,3.9-0.6c6.5-3.9,12.8-8.1,19.3-12
	c3.2-1.9,4.1-4.6,3.9-8.1c-0.2-3.8-1.2-4.6-4.7-3.2c-10,4.2-19.9,8.5-29.8,12.8C598.2,467,595.9,468.3,593.3,469.6z"/>
<path d="M469,194.5c-1.8-3.3-13.3-15.1-18.3-18.9c-1.3-1-2.8-1.6-5-2.8c-2,12.4,0.4,24-0.3,36.6C453.9,204.1,461.4,199.4,469,194.5z
	"/>
<path d="M352.8,403.7c0.8-3.3,0-5.2-2.7-6.6c-10.3-5.5-20.6-10.9-30.6-17c-8.2-5-16.9-8.8-25.6-12.8c-2.6-1.2-3.3-1.1-4.9,1.2
	c-0.5,0.8-0.9,1.7-1.6,3.3c0.8,0.5,1.6,1.1,2.5,1.5c20,9.9,40.1,19.9,60.1,29.8C350.7,403.4,351.6,403.4,352.8,403.7z"/>
<path d="M231.3,357.2c0.4-0.2,0.9-0.4,1.3-0.6c0.6-1.4,1.1-2.8,1.7-4.2c0.7-1.5,1.4-3.1,2.3-4.5c2.2-3.8,2.1-5.4-0.9-8.6
	c-6.5-6.8-11.4-14.9-17.2-22.3c-1.4-1.8-2.3-4.2-5.1-4.7c-0.1,0.7-0.3,1.1-0.3,1.5c0.9,7,1.8,13.9,2.9,20.9c0.3,1.7,1.1,3.5,2.1,4.9
	c3.3,4.7,6.9,9.2,10.4,13.8C229.4,354.8,230.3,356,231.3,357.2z"/>
<path d="M221.4,566.8c1.8-1.7,3.3-2.8,4.4-4.2c2.7-3.5,4.2-7,2-11.7c-1.9-3.9-2.9-8.2-3.9-12.4c-0.7-3.1-2.1-5.1-5.4-5.6
	c-1.4-0.2-3.4,0-4-0.9c-1.9-2.4-4-1-6-0.9c-2,0.2-2.7,1.4-2.1,3.3c0.2,0.8,0.4,1.6,0.8,2.4c3.9,8.9,7.9,17.8,11.9,26.6
	C219.6,564.6,220.5,565.5,221.4,566.8z"/>
<path d="M605.2,681.6c2.5,1.2,4.3,2,6,2.8c1.5,0.7,2.6,0.3,3.6-1.1c2-2.9,4.1-5.7,6.2-8.6c8.2-11.5,16.4-22.9,24.5-34.4
	c0.9-1.3,2.1-2.5,1.8-4.7c-5.6,1.7-9.6,5.2-13,9.4c-6.6,8-13.3,16.1-19.8,24.2C611.4,673,608.6,677,605.2,681.6z"/>
<path d="M697.1,370.6c3-3.1,5.3-6.2,7.5-9.4c3.2-4.5,2.9-9.4,0.8-14.1c-0.8-1.8-2.3-3.6-4-4.7c-2.9-2-6.4-0.9-8.2,2
	c-1.6,2.5-3.3,4.9-5.2,7.2c-4.2,5.3-4.3,10.5-0.1,16.3C692.5,365.7,692.7,363.8,697.1,370.6z"/>
<path d="M241.1,174.7c-5.9,7.4-10.4,14.8-15.2,22c-1.1,1.6,0.2,2.6,1.6,3.2c2.6,1.2,5.1,2.3,7.7,3.5c3.3,1.6,6.5,3.4,9.8,4.9
	c1.2,0.5,2.6,0.5,4.7,0.9c-2.3-10.7-4.4-20.6-6.5-30.5C242.8,177.7,242,176.5,241.1,174.7z"/>
<path d="M619.6,298.3c2.2-0.8,3.5-1.3,4.8-1.8c3.9-1.6,3.8-1.6,3-5.9c-2-11.1-3.8-22.2-3.9-33.5c0-4.2,0.2-8.4,0.1-12.6
	c0-2.6-1.2-3.3-3.4-2.1c-0.8,0.5-1.7,1.1-2.2,1.9c-1.5,2.6-2.8,5.2-2.4,8.3c0.4,3.2,0.8,6.4,1,9.6c0.7,10.2,1.3,20.4,2,30.7
	C618.7,294.6,619.2,296.2,619.6,298.3z"/>
<path d="M400.5,427.7c-1.8,2-3.2,3.6-4.7,5.1c-2.7,2.8-3.3,5.9-2.5,9.7c1.4,6.2,2.3,12.4,3.5,18.6c0.1,0.7,0.8,1.3,1.2,1.9
	c6.2-3,12.4-7.8,15.5-12.2C409.5,443.5,405.2,435.9,400.5,427.7z"/>
<path d="M650.9,292.3c0.4,0,0.9-0.1,1.3-0.1c0.4-2.6,0.8-5.2,1.3-7.8c1.9-9.9,0.5-19.7-2-29.2c-0.8-3.2-2.5-6.3-4.2-9.2
	c-0.9-1.6-2.5-3.1-4.1-4.1c-1.6-1.1-3.7-1.7-5.5-0.2c-1.7,1.4-0.5,3.1-0.1,4.7c0.2,0.7,0.5,1.3,0.7,2c1.4,3.4,3.1,6.7,4,10.2
	c2.6,9.6,4.8,19.4,7.2,29.1C650,289.2,650.5,290.8,650.9,292.3z"/>
<path d="M372.8,193.1c-5.3,1.3-6.6,2.8-6.4,7.2c0.1,3.6,0.2,7.3,0.7,10.9c1.6,12.3,3.4,24.5,5.1,36.8c0.5,3.6,2.6,4.7,6.8,3
	c-0.7-6.2-1.5-12.7-2.3-19.1c-0.8-6.4-1.9-12.8-2.2-19.3C374.1,206.2,373.9,199.8,372.8,193.1z"/>
<path d="M654.6,296.6c5-5,9.3-10.4,11.5-17.1c2.7-8.1,2.9-16.4-0.7-24.3c-2.5-5.5-4.9-6.1-9.6-2.5c-0.2,0.2-0.3,0.4-0.5,0.7
	c-0.5,7.3,3.1,14.2,2,21.7C656,282.2,655.4,289.5,654.6,296.6z"/>
<path d="M710.9,517.5c-0.9,1.4-1.9,2.7-2.6,4.1c-1.5,2.9-2.8,5.9-4.2,8.8c-4.4,8.7-8.9,17.3-13.2,26c-3.6,7-7,14.1-10.5,21.2
	c-1.7,3.4-3.3,6.8-5,10.3c-0.8,1.7-0.7,3,1.7,3.2c0.6-1,1.3-1.9,1.8-2.9c5.1-9.7,10.2-19.4,15.4-29.1c3.5-6.4,7.3-12.7,11-19
	c2.8-4.9,5.8-9.7,8.3-14.7C715.2,522.1,714.4,520.5,710.9,517.5z"/>
<path d="M311.5,206.6c-4,3.2-7.3,5.8-10.5,8.5c-3,2.6-3.1,3.7-0.5,6.6c3.5,4,7.1,8,10.7,11.9c4,4.4,4.7,4.4,9,0.3
	c2.3-2.1,2.5-3,1.2-5.9c-1.1-2.6-2.2-5.2-3.4-7.7C316,215.8,313.8,211.4,311.5,206.6z"/>
<path d="M364.4,171.7c5-1.3,11.1-4.7,15.7-8.7c-3,0.5-3.8-0.8-3.6-3c0-0.8-0.7-1.7-1.3-2.4c-1.8-2-3.6-4-5.6-5.8
	c-3.7-3.4-7.6-6.7-11.5-9.9c-1-0.8-2.4-1.2-4.6-2.2C356.1,151.5,360,161.7,364.4,171.7z"/>
<path d="M594.7,590.7c0.5,0,1-0.1,1.5-0.1c0.1-2.2,0.4-4.3,0.4-6.5c0.1-6.1,0.3-12.1,0.2-18.2c-0.1-6.8-0.6-13.5-0.8-20.3
	c-0.1-4.2,0.1-8.5-0.2-12.7c-1-13.4-2.2-26.7-3.3-40c0-0.3-0.4-0.7-0.6-1c-2.6,0-3.2,1.3-3,3.5c0.4,3.1,0.7,6.2,0.8,9.3
	c0.5,8.7,0.8,17.4,1.4,26.1c0.2,3.5,0.8,7,1.1,10.5c1.2,15,1.9,30.1,1.3,45.2C593.6,587.9,594.3,589.3,594.7,590.7z"/>
<path d="M254.7,310.6c4.5-1.7,17.4-13.2,20-17.9c-2.6-1.5-5.2-3-7.8-4.6c-1.5-0.9-3.3-1.7-4.5-3c-2.2-2.3-5-3.3-7.8-4.5
	C252.9,283.9,253,304.2,254.7,310.6z"/>
<path d="M720.7,613c0-9,0-17.9,0-27.9c-1.7,2-2.9,3.2-3.9,4.6c-5.9,8.4-11.8,16.8-17.6,25.2c-0.9,1.3-2.1,2.6-1.7,4.7
	C705.3,617.4,712.8,615.2,720.7,613z"/>
<path d="M239.5,623.1c0.8-0.1,1.3,0.1,1.6-0.1c5.5-4,11-7.9,16.3-12.1c2.1-1.7,1.9-2.4,0.2-5.1c-3.2-4.8-6.5-9.6-9.8-14.3
	c-0.7-1-1.6-1.8-2.9-3.3C241.7,600.1,240.8,611.6,239.5,623.1z"/>
<path d="M456.2,273.1c-1.6,2.3-2.8,4.1-4.1,5.9c-2.6,3.5-5.3,6.9-7.9,10.4c-1.2,1.6-1.3,3,0.4,4.4c1.3,1.1,2.6,2.1,3.9,3.3
	c1.2,1.1,2.4,1.4,3.8,0.6c3.7-2,7.4-4,11-6.1c2.4-1.4,4.6-3.1,7.2-4.8C466,281.3,461.1,277.4,456.2,273.1z"/>
<path d="M599.6,885.7c1.5-5.1,0-35.1-1.9-39.6c-3.6,2.7-7.1,5.4-10.5,8.1c0.7,2.7,1.3,5.2,1.8,7.6c1.5,6.9,2.9,13.8,4.3,20.7
	c0.3,1.5,1.1,2.5,2.8,2.7C597.2,885.2,598.3,885.5,599.6,885.7z"/>
<path d="M683.4,352.4c1.1-0.8,1.7-1.1,2.2-1.5c5-4.9,8.3-11,10.9-17.3c1-2.5,1.3-5.5,1.3-8.2c0-1.9-0.6-3.9-1.5-5.6
	c-1.8-3.2-3.8-3.1-5.6,0c-1.3,2.2-2.3,4.5-3.7,6.6c-2.3,3.3-4.9,6.5-7.2,9.5C681,341.4,682.2,346.7,683.4,352.4z"/>
<path d="M350.4,841.1c1.9,4.8,4.1,6.3,8.1,5.5c2.9-0.5,5.7-1.4,8.6-2.2c9-2.6,18.1-5.2,27.1-7.9c0.8-0.3,1.5-1,2.6-1.6
	c-1.7-1.3-3-2.6-4.6-3.5c-0.7-0.5-1.9-0.6-2.7-0.4c-4,0.8-8,1.7-11.9,2.8C368.6,836.1,359.7,838.5,350.4,841.1z"/>
<path d="M325.7,227.8c0.4,0,0.8,0,1.2,0c1.8-10.4,4.3-20.6,4.9-31.3c-2.6-0.8-4.7-2.1-6.9-0.5c-2.6,1.9-5,4-7.7,5.9
	c-2.4,1.7-2.6,4-1.5,6.4C319,214.8,322.4,221.2,325.7,227.8z"/>
<path d="M440,544.7c3-3.3,2.9-3.2,1.1-6c-3.1-4.8-6.4-9.6-9.2-14.6c-8.1-14.5-17.2-28.4-27.3-41.6c-1.4-1.9-2.7-3.9-4.5-6.5
	c0.3,3.2,0.4,5.4,2,7.5c3,4.1,5.8,8.3,8.4,12.6c8,13.4,15.8,26.9,23.8,40.4C435.9,539.2,437.9,541.8,440,544.7z"/>
<path d="M526.9,688.6c-12.5-12.3-22.7-26.2-30.7-41.8c-2.5,1.9-2.3,3.8-1.6,5.9c1.1,3.2,2.2,6.4,2.8,9.7c0.9,5.4,3.7,9.7,7.6,13.3
	c1.9,1.7,3.8,3.4,5.9,4.7C515.9,683.6,521,686.8,526.9,688.6z"/>
<path d="M256.2,683c1.5,1.8,2.5,3,3.5,4.2c2.5,2.7,5,5.3,7.5,8c3,3.2,3.5,3.4,7.1,0.9c4.9-3.3,9.6-6.8,14.4-10.3
	c0.8-0.6,1.3-1.6,2.4-3c-2.2,0-3.6-0.2-4.9,0c-5.2,0.7-10.3,1-15.5-0.2c-3.5-0.8-7.3-0.6-10.9-0.7C258.9,682,258,682.5,256.2,683z"
	/>
<path d="M748.5,613.6c-2-4.6-2.2-4.7-5.5-3.8c-4.5,1.2-8.9,2.6-13.4,3.9c-3.6,1-7.3,1.9-10.9,3.1c-8,2.6-16,5.3-24,8
	c-1.4,0.5-2.1,1.4-1.4,2.9c0.6,1.3,1.6,1.2,2.8,0.9c4.7-1.4,9.4-2.7,14.2-4c10-2.7,20.1-5.4,30.1-8.2
	C743,615.6,745.6,614.6,748.5,613.6z"/>
<path d="M351.6,392.7c-0.1-2-0.1-3.9-0.5-5.8c-0.2-0.8-1-1.7-1.7-2.1c-6.3-3.2-12.5-6.4-18.9-9.3c-7-3.3-14.1-6.3-21.1-9.6
	c-1.7-0.8-3.1-0.6-4.5,0.6C309.2,371.1,346.8,392.2,351.6,392.7z"/>
<path d="M622.2,320.9c2.1-1.7,4-3.3,5.9-4.9c2.9-2.5,5.8-4.9,8.5-7.6c2.6-2.5,2.5-3.3,0.1-6c-5-5.7-5.6-5.8-12.6-2.7
	c-0.5,0.2-1,0.5-1.5,0.7c-2.5,0.9-3.6,2.6-3.2,5.2c0.6,4.5,1.1,8.9,1.8,13.4C621.3,319.5,621.7,320,622.2,320.9z"/>
<path d="M358.8,406c-1.7,3.9,1.4,32,4,37.4c1.5-0.7,3.1-1.2,4.5-2.2c0.8-0.5,1.5-1.8,1.5-2.7c-0.5-7.1-1.3-14.2-1.6-21.4
	C366.9,411.2,362.9,408.8,358.8,406z"/>
<path d="M297,465.2c-0.1-1.4-0.2-2.2-0.3-3.1c-1.4-6.7-3.1-13.4-4.3-20.2c-1-5.7-4.2-10-7.8-14.1c-0.2-0.2-0.7-0.2-1.6-0.5
	c0.1,2.6,0.1,5,0.4,7.3c1,7.5,2.1,15,3.2,22.5c0.1,0.7,0.1,1.6,0.6,1.9C290.1,461.3,292.5,464.5,297,465.2z"/>
<path d="M392.8,157.8c2.7-1.8,4.9-3.3,7.2-4.6c6.1-3.4,11.1-8.1,16.4-12.5c1.2-1,2.9-2.2,1.8-4.3c-0.8-1.5-1.7-3-2.8-4.1
	c-2.5-2.5-4.3-2.3-6.5,0.7c-4.7,6.4-9,13.3-15.3,18.5C391.8,152.9,392,154.9,392.8,157.8z"/>
<path d="M544.5,643.8c1-0.7,1.6-1,2.1-1.5c6.2-6.1,12.4-12.2,18.6-18.4c2-2,4-4,6-5.9c6.6-6.4,13.2-12.7,19.7-19.1
	c0.7-0.7,1-1.6,1.5-2.5c-0.3-0.3-0.6-0.5-0.9-0.8c-1.4,1.1-2.8,2-4.1,3.2c-7.2,6.5-14.4,13-21.5,19.6c-7.9,7.2-15.7,14.5-23.6,21.8
	c-0.3,0.2-0.3,0.7-0.5,1.3C542.6,642.2,543.5,642.9,544.5,643.8z"/>
<path d="M472.3,785.9c8.4-4.2,15.8-8.4,20.5-17.2c-7.4-0.7-14.4-1.4-21.5-2.1C471.7,773.1,472,779.1,472.3,785.9z"/>
<path d="M311.5,188.7c1.6,0.8,2.8,1.6,4,1.8c2.9,0.5,5.9,0.7,8.8,1c0.7,0.1,1.5,0.1,2.1-0.3c2.7-1.5,5.4-3,8-4.7
	c0.7-0.5,1.5-1.5,1.6-2.4c0.5-3.1,0.7-6.3,1-9.5C332.3,174.2,318.8,181.7,311.5,188.7z"/>
<path d="M562.6,213.8c4.1-3,7.3-6.4,9.4-10.7c0.7-1.5,1.1-3.2,1.2-4.8c0.3-4.9,0.4-9.8,0.5-14.7c0-1.3-0.2-2.6-0.3-3.9
	c-0.3-0.1-0.6-0.1-1-0.2c-0.9,1.4-1.8,2.7-2.5,4.1c-2,3.9-3.7,7.9-5.8,11.7C560.7,201.3,561.9,207.4,562.6,213.8z"/>
<path d="M726.2,584.8c-0.4,0.1-0.9,0.2-1.3,0.3c-1.2,8.6-1.7,17.3-0.4,26.1c0.8,0.1,1.4,0.2,1.9,0.1c8-1.5,9.2-3,8.8-11.2
	c-0.1-2.2-0.2-4.7-1.4-6.4C731.6,590.5,728.8,587.7,726.2,584.8z"/>
<path d="M572.9,209.6c-0.3-0.2-0.6-0.4-0.8-0.6c-0.9,0.8-1.8,1.5-2.6,2.3c-1.7,1.9-3.1,4-5,5.7s-2.1,3.5-1.7,5.7
	c0.2,1.1,0.5,2.2,1,3.2c2.6,6.2,5.2,12.4,7.8,18.6c0.2,0.4,0.6,0.7,1.4,1.5C572.9,233.4,572.9,221.5,572.9,209.6z"/>
<path d="M534.3,802.9c3.6,1.4,6.5,2.5,9.3,3.7c1.9,0.9,3.4,0.7,5-0.8c3.5-3.3,7.1-6.4,10.6-9.6c0.2-0.1,0.1-0.5,0.2-0.8
	c-3.1-2.5-8.3-4.7-12.6-5.4C544.2,795.4,539,798.3,534.3,802.9z"/>
<path d="M236.9,606.9c-0.3,0-0.5,0-0.8-0.1c-4.5,7.9-9,15.8-13.5,23.6c2.2,3.6,7.3,8.3,10.2,9.2c1.1-2.2,0.8-4.6,0.6-6.9
	c-0.1-1.1-0.6-2.5-0.1-3.3c2.1-3.4,1.9-7.3,2.5-11C236.3,614.7,236.5,610.8,236.9,606.9z"/>
<path d="M669.9,336.6c-0.7-6-1.3-11.2-2-16.5c-0.1-0.6-0.6-1.3-1.1-1.7c-2.2-1.4-7.1,0.4-7.7,3c-1,4.7-1.6,9.4-2.3,14.1
	c-0.1,0.6,0.4,1.3,0.8,2.3C661.5,337.5,665.4,337.1,669.9,336.6z"/>
<path d="M631.8,372.3c-1.4,0.8-2.4,1.2-3.2,1.9c-2.9,2.5-5.7,5-8.5,7.6c-2.2,2-2.2,2.4-0.5,5c1.5,2.2,2.8,4.6,4.5,6.6
	c1.4,1.7,2.2,4.2,5.1,4.9C631.3,389.8,631.9,381.5,631.8,372.3z"/>
<path d="M526.5,235.2c-4.7,1-7.3,3-7.8,7.5c-0.7,5.3-2,10.5-3,15.7c-0.1,0.7,0,1.5,0,3.1c3.2-1.8,5.6-3.3,8.2-4.6
	c1.8-0.9,2.6-2.1,2.6-4C526.5,247.2,526.5,241.4,526.5,235.2z"/>
<path d="M590.4,723.6c-1.8,2.5-2.9,4.4-4.4,5.9c-2.9,2.8-6.1,5.4-9.2,8.1c-2.6,2.2-5.2,4.4-8.1,6.9c3.8,2.1,6.7,2.6,9.7-0.3
	c4.5-4.3,9.2-8.3,13.7-12.5c1.5-1.4,2.6-3.2,3.8-4.6C594.5,724.2,592.5,723.3,590.4,723.6z"/>
<path d="M446.2,220.5c-1.6,4.3-1.2,22.9,0.4,26.9c3.1-2.7,6.2-5.3,9.2-8.1c1.3-1.2,1-2.7,0-4.2c-1.8-2.7-3.3-5.6-5.1-8.3
	C449.4,224.8,448,222.9,446.2,220.5z"/>
<path d="M592,627.3c-0.4-0.2-0.7-0.4-1.1-0.6c-9.5,9.9-18.8,19.9-27.3,30.7c3,2.6,3.3,2.8,5.1,0.5c7.3-8.8,14.5-17.6,21.6-26.5
	C591.3,630.3,591.5,628.7,592,627.3z"/>
<path d="M363.4,459.3c3.2-1.3,5.5-2.7,8-3.1c3.3-0.6,4.8-2.4,5.3-5.4c0.3-1.8,1.1-3.5,1.5-5.3c0.2-0.9,0-1.8-0.1-2.9
	c-4.1,0-7.2,2-10.5,3.4c-5.3,2.2-5.6,2.8-5,8.5C362.7,455.8,363,457.1,363.4,459.3z"/>
<path d="M371.5,416.7c-0.5,8-0.2,14.8,1.6,21.6c6.2-0.6,9.7-4.5,9.5-10c0-0.7-0.1-1.5-0.6-2C379.2,422.9,375.8,420,371.5,416.7z"/>
<path d="M445.8,830.5c-0.2-0.2-0.4-0.5-0.6-0.7c-2.6,1.6-5,3.6-7.9,4.8c-3.1,1.2-4.6,3.5-5.8,6.2c-1.7,3.6-3.3,7.2-4.9,10.7
	c-0.4,0.8-0.6,1.7-0.8,2.6C435.5,848.6,441.5,840.3,445.8,830.5z"/>
<path d="M748.6,540.1c-3.4,0.9-5.1,2.4-5.7,5.2c-1.4,6.5-2.8,12.9-4.2,19.3c-0.2,1-0.3,2-0.3,2.9c0,0.4,0.3,0.7,0.5,1.2
	c0.6,0,1.1,0.2,1.7,0.1c0.5-0.1,1-0.3,1.4-0.4C744.6,559.1,747.9,550.2,748.6,540.1z"/>
<path d="M236.8,665c2.3,2.9,2.3,2.9,4.2,3.1c2.7,0.3,5.3,0.7,8,0.9c5.9,0.3,11.8,0.5,17.7,0.6c1.3,0,3.6,0.5,3.7-1.7
	s-2.2-2.1-3.7-2.8c-0.4-0.2-0.8-0.1-1.2-0.1c-5.2,0-10.4,0.1-15.5,0.1c-2.5,0-5.1-0.3-7.6-0.3C240.7,664.6,239.1,664.8,236.8,665z"
	/>
<path d="M319.9,805c-2.5-1.2-4.2-2.1-5.9-2.8c-2.9-1.3-5.9-2.7-8.9-3.8c-2.7-1-4.1,0.3-3.4,3c0.6,2.3,1.3,4.6,2,6.9
	c0.4,1.4,1.1,2.3,2.7,2.1C311,809.7,315.2,807.8,319.9,805z"/>
<path d="M481.4,787.3c0.9,0.6,1.4,1,2,1.3c6.7,2.5,13.4,5.1,20.2,7.5c1.2,0.4,2.6,0.2,4,0.2c0.1-0.3,0.2-0.6,0.2-0.8
	c-2.7-1.7-5.3-3.5-8.1-5c-3.7-2-7.5-3.8-11.4-5.5C485.8,783.8,483.5,784.5,481.4,787.3z"/>
<path d="M486.6,151.4c0.4,5.6,1.3,11.2,1.1,16.8c-0.2,5.6-1.5,11.2-2.3,16.9c3.5-0.3,5.4-2.1,5.5-5.4c0.1-4.4,0.4-8.8,0-13.1
	C490.2,161.4,489.8,156,486.6,151.4z"/>
<path d="M577.1,194.4c3.9-5.1,7.3-10.4,9-17c-3.2-0.8-5.8-1.4-8.7-0.5C576.1,182.8,576.2,188.5,577.1,194.4z"/>
<path d="M592,211.2c-2.8-5.5-3.1-5.6-8-4.2c-1.1,0.3-2.2,0.5-3.3,0.8c-4.7,1-5.7,2.9-4,8.3C581.8,214.8,586.8,213.4,592,211.2z"/>
<path d="M215.8,513.4c-3.8,3.5-6.7,6.9-9.9,11.1c4.3,0.9,7.8,1.7,11.4,2.3c1.6,0.3,2.4-1,2.1-2.4
	C218.7,520.8,218.1,517.2,215.8,513.4z"/>
<path d="M378.6,577.7c-3.1-3.8-6-7.3-8.8-10.6c-5.8,3-6.7,3.7-8.6,6.4C365.6,575.9,373.7,578,378.6,577.7z"/>
<path d="M748.1,691.7c4.9-4.6,9.4-17.4,8.1-21.9c-3.9,1.3-5,1.9-5.3,3.5c-1,4.5-1.9,9-2.8,13.6C747.9,688.3,748.1,689.8,748.1,691.7
	z"/>
<path d="M381.4,786c0,0.3-0.1,0.6-0.1,0.9c7.5,2.4,15.4,2.4,23.2,2.3c0.7,0,1.8-1.2,1.8-1.8c-0.1-0.9-0.7-2.1-1.5-2.7
	c-0.7-0.5-1.9-0.3-2.9-0.3c-6.3,0.3-12.6,0.7-19,1.1C382.4,785.7,381.9,785.9,381.4,786z"/>
<path d="M734.8,547.3c-0.5,4.2-0.9,7.8-1.5,11.4c-0.3,2.4-1,4.7-1.2,7c-0.1,0.7,0.8,1.5,1.3,2.2c0.7-0.5,1.5-0.9,2.2-1.5
	c0.3-0.2,0.3-0.8,0.4-1.2c0.8-3.3,1.7-6.5,2.3-9.8c0.5-3.1,1.8-6.2,0.5-9.9C737.1,546.3,735.6,547,734.8,547.3z"/>
<path d="M259.4,262.6c-2.7,3.7-5.6,6.1-5.2,10.1c0.3,2.7,5,6,8.8,6.4C261.8,273.8,260.7,268.7,259.4,262.6z"/>
<path d="M576.8,802.4c-2.9-1.9-3.3-2.1-4.8-1c-4.1,3.2-7.8,6.7-10.8,11.1c1.9,2.1,3.7,1.6,5.3,0.2c2.2-1.9,4.3-4,6.4-6.1
	C574.3,805.4,575.5,803.9,576.8,802.4z"/>
<path d="M723,555.7c-4.6,1.1-9,6.6-9.8,12.7c2.1-0.3,4.2-0.4,6.2-0.8c0.8-0.2,2-1,2.2-1.7C722.1,562.5,723.4,559.2,723,555.7z"/>
<path d="M724.3,567c2.9,0.9,4.3,0.3,4.8-2.3c0.7-3.4,1.7-6.8,2.3-10.2c0.3-1.3,0-2.7,0-4.1c-3.7,1-4.7,1.6-5.2,4
	C725.6,558.4,725,562.6,724.3,567z"/>
<path d="M251.2,777.1c3.1,0,5.9,0,8.7,0c2.8-0.1,4.7-1.3,5.2-4.2c-2.3-1.9-2.4-2-4.5-1.8c-1.2,0.1-2.5,0.3-3.7,0.2
	C253,770.9,251.4,772.4,251.2,777.1z"/>
<path d="M567.3,798.9c-1.5-1.2-2.8-1-4-0.2c-1.6,1.1-3.4,2-4.9,3.4c-1.7,1.5-3.2,3.2-4.5,5c-0.4,0.6-0.3,2.1,0.1,2.5
	c0.5,0.6,1.8,0.7,2.7,0.6c0.7-0.1,1.4-0.9,2-1.5c2.5-2.5,4.9-5,7.3-7.6C566.5,800.5,566.8,799.7,567.3,798.9z"/>
<path d="M231.8,777.5c4.2,0,8.1,0,12,0c0.7,0,1.5-0.3,1.9-0.7c0.6-0.7,1.1-1.8,1-2.6c-0.1-0.6-1.3-1.4-2.1-1.5
	c-2.4-0.3-4.8-0.5-7.1-0.5C233.6,772.2,232.2,773.6,231.8,777.5z"/>
<path d="M277.6,783c-1.7-1.4-3.2-2.7-4.7-3.9c-1.1-0.9-2.5-1.9-3.7-0.7c-1,1-1.9,2.5-2,3.9c-0.2,2.2,0.8,4.3,2.4,6.5
	C272.2,786.6,275.9,786.5,277.6,783z"/>
<path d="M425.2,105.4c-0.5,7.7,0,15.3,1.3,23.5C429.3,125.3,428.6,112.8,425.2,105.4z"/>
<path d="M607,787.3c3.5-1.5,4.3-3.3,9.3-19.2c0.3-1.1,1.7-2.4-0.6-3.8C612.5,771.7,609.4,778.9,607,787.3z"/>
<path d="M611.1,762.9c-0.5-0.2-0.9-0.4-1.4-0.7c-0.5,0.9-1.1,1.7-1.5,2.6c-1.2,3-2.4,6-3.6,9c-0.8,2.1-1.8,4.1-2.6,6.2
	c-0.5,1.2-0.7,2.5,1.7,3.3C606.7,776.7,609.6,770,611.1,762.9z"/>
<path d="M278.1,790.9c5.4,2.2,10.7,3.5,16.4,3c-0.8-0.9-1.7-1.3-2.6-1.8c-1.5-0.8-3-1.4-4.4-2.3
	C283.7,787.1,282.2,787.2,278.1,790.9z"/>
<path d="M421.9,133.9c1.9-0.5,1.9-1.7,1.8-3c-0.3-3.6-0.6-7.3-1-10.9c-0.2-1.9,0.1-3.9-1.5-6.4C418.8,120.9,422.2,127.2,421.9,133.9
	z"/>
<path d="M292.6,476.4c2.1,2.4,4,4.6,7.7,4.5c-0.2-2.5,0.3-4.9-2.1-6.4C295.9,473.1,294.2,474.3,292.6,476.4z"/>
<path d="M297.5,806.3c-0.3-5.8-4.4-7.9-11.5-6.2C290,802.2,293.6,804.2,297.5,806.3z"/>
<path d="M739.5,599.9c-1.5,3.4-2.3,5.6-0.3,8.2c1.5-0.7,2.9-1.4,4.9-2.3C742.5,603.7,741.3,602.1,739.5,599.9z"/>
<path d="M416.9,122.4c-1.8,2-3.2,3.6-2.5,5.9c0.5,1.5,1.5,2.8,3.9,2.1C418.3,127.9,418.6,125.3,416.9,122.4z"/>
<path d="M287,465.8c-0.5,2.7-0.1,4.8,1.9,7.3c0.9-1.4,2.2-2.4,2.2-3.4C291,467.4,289.1,466.6,287,465.8z"/>
<path d="M388.2,156.3c-1.5,1.1-2.7,1.8-3.7,2.7c-0.4,0.3-0.5,1.6-0.2,1.8c0.5,0.4,1.6,0.7,2.1,0.5
	C388,160.4,389.2,159.1,388.2,156.3z"/>
<path d="M422.5,591.3c2,0.5,3.3,0.8,4.6,1.1c0.2-0.3,0.4-0.7,0.6-1c-1-1.1-2-2.1-3.3-3.4C423.7,589.2,423.3,589.9,422.5,591.3z"/>
<path d="M270.1,250.1c-0.3-0.1-0.7-0.1-1-0.2c-0.5,1.1-1.2,2.2-1.2,3.4c0,0.5,1.5,1,2.3,1.5c0.3-0.2,0.5-0.4,0.8-0.6
	C270.6,252.8,270.3,251.5,270.1,250.1z"/>
<path d="M520.2,233.8c3.5-1.9,3.5-1.9,1.2-3.4C521.1,231.3,520.8,232.1,520.2,233.8z"/>
<path d="M248.5,282.6c-0.9,1.3-2.3,2.6,0,4.2C248.5,285.1,248.5,283.8,248.5,282.6z"/>
<path d="M243.6,278.8c0.3,0,0.6,0,0.9,0c0.1-1,0.2-1.9,0.3-3.3C242.5,276.5,243.1,277.7,243.6,278.8z"/>
<path d="M413.5,433.3c0-0.1,0-0.2,0-0.3c-0.1-0.1-0.2-0.1-0.3-0.1c0,0.2,0,0.3,0,0.5C413.2,433.4,413.4,433.4,413.5,433.3z"/>
<polygon points="313.4,864.3 313.1,864.3 313.3,864 "/>
<path d="M229.5,728.4C229.5,728.4,229.6,728.5,229.5,728.4C229.6,728.5,229.5,728.4,229.5,728.4z"/>
<path d="M587.5,722.6c-9,9.9-19.1,17.7-30.5,23.8c-4.8,2.6-9.7,5.2-14.5,7.8c-6.8,3.7-14.1,5.6-21.6,7.2
	c-11.6,2.5-23.4,3.5-35.2,1.9c-2.5-0.3-5.1-0.2-7.6-0.4c-1.5-0.1-2.9-0.5-4.7-0.8c0.4-0.8,0.4-1.3,0.7-1.5
	c9.7-7.6,14.6-18.4,19-29.4c2.2-5.5,3.2-11.4,3.8-17.3c0.6-6.8-0.6-13.5-2.2-20c-0.5-2.2-0.3-4,0.6-6.1c1.4-3.5,2.3-7.2,3.6-11.5
	c1.4,0.9,2.7,1.6,3.7,2.6c9.3,8.3,20.5,13.2,32,17.6c3.2,1.2,6.5,2.8,9.3,4.8c10.5,7.5,21.6,13.8,33.9,17.8
	C580.9,720.1,584,721.3,587.5,722.6z"/>
<path d="M341.2,331.3c-0.5,3.6-2.5,6.2-4.5,8.6c-5.2,6.2-9.1,13.2-13.1,20.2c-0.5,0.9-0.9,1.7-1.5,2.6c-1.7,2.4-2.5,2.7-5.3,1.6
	c-3.3-1.3-6.5-2.6-9.7-4.2c-2-1-3.5-0.6-4.8,1c-0.4,0.5-1,1-1.4,1.6c-1.4,1.7-3,1.9-4.9,0.9c-1.4-0.7-2.8-1.4-4.1-2.2
	c-1.9-1.2-3.2-0.5-4.2,1.2c-1.2,2.1-2.3,4.2-3.5,6.4c-1.5-0.5-2.9-0.9-4.2-1.2c-2-0.5-3,0.2-3,2.3c0,1.7,0.4,3.4,0.8,5
	c1.3,5.2,2.7,10.4,4,15.5c0.3,1.1,0.4,2.2,0.8,4.3c-1.5-1.1-2.5-1.5-3.1-2.2c-5.6-6.9-10.8-14.1-16.7-20.7
	c-5.1-5.8-6.8-12.5-7.2-19.7c-0.4-6-0.4-12.1-0.6-18.1c-0.1-3.2-0.2-6.5-0.6-9.7c-0.5-4.9,1.7-8.5,5.1-11.5
	c6-5.3,12.3-10.3,18.4-15.5c1.5-1.3,2.9-0.9,4.2-0.1c2.4,1.4,4.8,3,7.2,4.4c10.5,6,21,12.1,31.5,18c6,3.4,12.1,6.6,18.1,10
	C339.7,330,340.4,330.7,341.2,331.3z"/>
<path d="M619.6,690.4c8.5,2.7,17.2,4,25.5,8.5c1,4.7,0.8,9.9,0.5,15.1c-0.3,5.3-0.5,10.7-1.3,16c-0.9,5.7-2.3,11.3-3.7,16.9
	c-0.9,3.5-2.3,7-3.7,10.3c-1.1,2.6-2.6,5-3.8,7.5c-1,1.9-2.4,2.1-4.3,1.3c-1.5-0.7-3.2-1.2-4.7-1.9c-11.9-5.9-24.5-9.8-37.3-13
	c-2.2-0.5-4.2-1.3-6.8-2.2c0.8-1,1.1-1.7,1.7-2.2c3.3-3.1,6.5-6.3,10-9.2c8.2-6.7,13.2-15.7,17.8-24.9
	C612.8,705.5,615.9,698.3,619.6,690.4z"/>
<path d="M404,779.9c-34.8,3.8-68.5,2-102.2-9.8c1.4-0.8,2.1-1.6,2.9-1.6c7.3-0.9,14.3-3,21.8-2.8c3.7,0.1,7.6-0.8,11.2-2.1
	c8.3-3.1,16.6-6.4,24.6-10.1c6.2-2.9,12-6.7,18-10.2c2.6-1.5,3.2-1.6,5.1,0.6c2.8,3.3,5.6,6.7,7.8,10.4c4.1,6.9,7.5,14.2,10,21.9
	C403.4,777.1,403.6,778.2,404,779.9z"/>
<path d="M639,311.8c0,1.8,0.1,2.9,0,3.9c-1.8,14.5-3.6,29.1-5.5,43.6c-0.1,0.4-0.2,0.9-0.1,1.3c1,4.7-1.6,7.5-5,10.2
	c-8.5,6.9-16.8,14.1-25.2,21.1c-1.3,1.1-2.7,1.9-4.4,3c-0.4-1.1-0.8-1.7-0.7-2.3c0.1-13.2,0.2-26.5,0.4-39.7c0-0.7,0.3-1.5,0.1-2.1
	c-1.1-4.2,0.9-6.7,4.4-8.3c5.7-2.6,9-8,13.5-12c6.8-5.9,13.6-11.8,20.4-17.7C637.2,312.5,637.8,312.4,639,311.8z"/>
<path d="M362.9,210.9c0.5,3.7,1,7.2,1.5,10.8c1.1,7,2.1,13.9,3.3,20.9c0.5,2.7,0.3,5.2-0.5,7.9c-1,3.5-0.9,7.2-1.6,10.8
	c-2,9.9-4.1,19.9-6.2,29.8c-0.1,0.2-0.3,0.4-0.7,0.8c-2.7,0.2-3.6-1.9-4.6-3.9c-2.5-5.2-5-10.4-7.5-15.6
	c-5.3-11-10.7-22.1-15.9-33.2c-2.1-4.5-1.2-7.6,3-10.4c9.1-5.9,18.3-11.7,27.4-17.5C361.6,211,362,211,362.9,210.9z"/>
<path d="M348.8,542c6.4,7,12.1,14,17.8,21.7c-2.7,1.8-5,3.5-7.6,4.9c-8.8,4.8-17.6,9.5-26.4,14.1c-2.2,1.2-4.7,1.9-7,3
	c-9.5,4.6-19,9.2-28.5,13.8c-3.5,1.7-7,3.6-10.7,4.9c-3.7,1.3-4.5,0.8-6.5-2.5c-1.6-2.7-1.6-3.4,0.8-5.4c4.2-3.5,8.6-6.9,12.9-10.2
	c4.2-3.3,8.5-6.4,12.7-9.8c6.2-5.1,12.1-10.4,18.3-15.5c3-2.5,6.6-4.4,9.6-6.8c4.1-3.2,7.9-6.7,11.9-10.1
	C346.8,543.5,347.5,543,348.8,542z"/>
<path d="M507.8,768.1c5.4-1,9.9-1.8,14.4-2.8c7.7-1.8,15.4-3.8,22.3-7.6c3.5-1.9,6.3-1.8,9.7,0.3c10.7,6.8,21.5,13.3,32.3,20
	c2.8,1.7,5.7,3.5,8.8,5.4c-3.2,3.5-6.1,6.5-8.9,9.6c-0.6,0.6-1.1,1.3-1.7,1.9c-3.7,4.4-4,4.4-9.3,2.2c-8.6-3.5-17.3-6.7-25.9-10.3
	c-7.5-3.2-14.8-7-22.2-10.3c-5.6-2.5-11.4-4.7-17.1-7.1C509.6,769.3,509.1,768.9,507.8,768.1z"/>
<path d="M374.3,460.2c-5.9,18-10.7,35.5-17.9,52.5c-8.3-4.8-16.5-9.6-24.8-14.3c-8.2-4.6-16.7-8.5-25.7-13.8
	c3.7-1.4,6.4-2.5,9.1-3.5c8.9-3.1,17.8-6.3,26.7-9.3c10-3.3,19.9-6.9,29.6-11C372,460.5,372.7,460.5,374.3,460.2z"/>
<path d="M530.8,91.2c1.7,5.3,3.6,10.6,5.2,15.9c2.3,7.5,4.8,15,6.5,22.7c3,13.5,4.5,27.2,3.1,41.1c-0.6,6.1-2.5,12-4.7,18.1
	c-0.4-0.7-1.1-1.4-1.3-2.2c-3.3-11.1-7.5-21.8-12.2-32.4c-1.4-3.2-2.3-6.7-2.9-10.1c-2.2-12.4-2.9-24.9-0.4-37.4
	c1.1-5.5,3.1-10.7,5.3-15.8C530,91.1,530.4,91.2,530.8,91.2z"/>
<path d="M217.5,272c5.7,4.1,10,8,12.6,13.4c0.5,1.1,1.1,2.4,2.1,3.1c5.1,4,7.8,9.9,11.6,14.9c0.5,0.7,0.8,1.6,1.4,2.1
	c4.4,3.9,5.4,8.8,5.5,14.4c0.1,10.3,0.8,20.6,1.2,30.8c0,0.8-0.3,1.5-0.5,2.8c-1-0.8-1.7-1.2-2.2-1.8c-5.3-7.3-10.5-14.7-15.7-22.1
	c-1.5-2.1-2.8-4.2-4.3-6.3c-2.1-3-3.7-6.2-4.4-10c-2.3-12.6-4.9-25.2-7.4-37.8C217.3,274.9,217.5,273.9,217.5,272z"/>
<path d="M648.1,377.8c-4.2-1.8-7.9-3.3-11.5-5c-0.7-0.3-1.1-2-1-2.9c1.5-13.4,3.1-26.8,4.7-40.2c0.6-5,1.2-10.1,1.8-15.1
	c0.3-2.9,0.5-6.1,3.3-7.3c2.9-1.2,6.2-1.4,9.4-1.7c1.8-0.1,2.1,1.6,2,3.1c-0.3,3.7-0.5,7.3-1,10.9c-1,8.4-2.2,16.7-3.2,25.1
	c-1.1,9.2-2.2,18.4-3.4,27.6C649.2,373.9,648.7,375.5,648.1,377.8z"/>
<path d="M652,376.1c0.2-3.6,0.3-6.8,0.7-10c0.7-6,1.6-12,2.4-18c0.2-1.3,0.4-2.5,0.6-3.8c0.3-2.3,1.3-3.5,3.7-3.7
	c4.6-0.3,9.2-1,13.9-1.3c3.2-0.2,4,0.4,4.7,3.6c1.8,8,3.7,15.9,5.4,23.9c0.7,3.3,0.2,4.1-3,4.7c-8.6,1.6-17.2,3-25.7,4.5
	C654.1,376.1,653.5,376.1,652,376.1z"/>
<path d="M490.3,779.5c2.4-2.7,4.6-5.3,7-7.9c1.4-1.5,3.1-1.1,4.7-0.6c3.5,1.2,7,2.3,10.4,3.6c10,3.9,19.9,7.8,29.4,12.9
	c0.5,0.3,0.9,0.6,1.7,1c-3.4,5-8,8.3-13,11.2c-1,0.6-2.9,0.4-4-0.2c-12-5.7-23.8-11.5-34.9-18.7
	C491.3,780.7,491.1,780.5,490.3,779.5z"/>
<path d="M597.6,779.9c-15.2-8.4-29.1-17.5-43.3-26.4c4.4-4.9,9.1-6.4,14.5-5c1,0.3,1.9,0.5,2.9,0.8c8.6,2.6,17.3,5.1,25.9,7.9
	c9.3,3,7.7,2.7,5.6,10.9c-0.2,0.9-0.6,1.9-1.1,2.7C600.7,773.7,599.2,776.6,597.6,779.9z"/>
<path d="M598.8,342c-0.3-2.2-0.5-3.2-0.5-4.1c0.4-11,0.8-21.9,1.3-32.8c0-0.8,0.4-1.8,0.9-2.2c4.3-3.2,9-5.6,14.7-7.1
	c0.4,2.2,0.8,3.9,1,5.6c0.8,7,1.6,14,2.1,21c0.1,1-0.6,2.4-1.3,3.2c-3.2,3.5-6.5,7-10,10.2C604.8,337.8,602.1,339.5,598.8,342z"/>
<path d="M502.9,122.6c1.4,2.2,3,4.2,4.1,6.5c5.7,11.7,10,23.8,12.3,36.6c0.4,2-0.1,3.3-1.8,4.2c-3.3,1.7-6.6,3.2-9.8,4.8
	c-1.8,0.9-3,0.3-3.5-1.6c-0.8-3.1-1.9-6.2-2.2-9.4c-0.8-9.7-1.4-19.4-1.9-29c-0.2-4.1,1-8,1.9-11.9
	C502.3,122.8,502.6,122.7,502.9,122.6z"/>
<path d="M637,658.9c0.8,1.9,1.4,3,1.8,4.2c2.6,8.8,4.7,17.6,5.6,26.8c0.4,4.1-0.2,4.7-4,3.7c-6.5-1.7-13-3.6-19.4-5.6
	c-2.8-0.9-3.3-2.1-1.7-4.8c1.8-3,4.1-5.7,6.1-8.6c3-4.2,6-8.5,9-12.7C635,661.1,635.8,660.3,637,658.9z"/>
<path d="M364.4,171.7c-4.4-10-8.3-20.1-11-31.9c2.2,1,3.6,1.4,4.6,2.2c3.9,3.2,7.7,6.5,11.5,9.9c2,1.8,3.8,3.8,5.6,5.8
	c0.6,0.7,1.4,1.6,1.3,2.4c-0.1,2.3,0.6,3.5,3.6,3C375.5,166.9,369.4,170.3,364.4,171.7z"/>
<path d="M456.2,273.1c4.9,4.4,9.8,8.2,14.2,13.6c-2.6,1.8-4.8,3.4-7.2,4.8c-3.6,2.1-7.3,4.1-11,6.1c-1.4,0.8-2.6,0.5-3.8-0.6
	c-1.2-1.2-2.5-2.2-3.9-3.3c-1.7-1.4-1.6-2.8-0.4-4.4c2.7-3.4,5.3-6.9,7.9-10.4C453.4,277.2,454.6,275.3,456.2,273.1z"/>
<path d="M622.2,320.9c-0.5-0.9-0.9-1.4-1-1.9c-0.6-4.5-1.2-8.9-1.8-13.4c-0.4-2.6,0.7-4.3,3.2-5.2c0.5-0.2,1-0.5,1.5-0.7
	c7-3.1,7.5-3,12.6,2.7c2.3,2.7,2.4,3.5-0.1,6c-2.7,2.7-5.7,5.1-8.5,7.6C626.2,317.6,624.2,319.1,622.2,320.9z"/>
<path d="M669.9,336.6c-4.5,0.5-8.4,0.9-12.3,1.3c-0.4-1-0.8-1.7-0.8-2.3c0.7-4.7,1.3-9.5,2.3-14.1c0.6-2.7,5.5-4.4,7.7-3
	c0.5,0.3,1.1,1.1,1.1,1.7C668.6,325.4,669.2,330.6,669.9,336.6z"/>
<path d="M631.8,372.3c0,9.2-0.5,17.5-2.5,26c-3-0.7-3.7-3.2-5.1-4.9c-1.7-2-3-4.4-4.5-6.6c-1.7-2.6-1.7-2.9,0.5-5
	c2.8-2.6,5.6-5.1,8.5-7.6C629.4,373.6,630.4,373.2,631.8,372.3z"/>
<path d="M363.4,459.3c-0.4-2.2-0.7-3.5-0.8-4.8c-0.6-5.7-0.3-6.3,5-8.5c3.3-1.3,6.4-3.4,10.5-3.4c0,1,0.3,2,0.1,2.9
	c-0.4,1.8-1.1,3.5-1.5,5.3c-0.5,3.1-2,4.8-5.3,5.4C368.9,456.7,366.6,458,363.4,459.3z"/>
<path d="M481.4,787.3c2-2.9,4.4-3.5,7-2.4c3.9,1.7,7.7,3.5,11.4,5.5c2.8,1.5,5.4,3.3,8.1,5c-0.1,0.3-0.2,0.6-0.2,0.8
	c-1.3-0.1-2.8,0.2-4-0.2c-6.8-2.4-13.5-4.9-20.2-7.5C482.8,788.4,482.3,787.9,481.4,787.3z"/>
<path d="M378.6,577.7c-4.9,0.3-13-1.8-17.4-4.2c2-2.7,2.9-3.4,8.6-6.4C372.6,570.4,375.4,573.9,378.6,577.7z"/>
<path d="M381.4,786c0.5-0.1,1-0.4,1.5-0.4c6.3-0.4,12.6-0.8,19-1.1c1-0.1,2.2-0.2,2.9,0.3c0.8,0.5,1.5,1.7,1.5,2.7
	c0,0.6-1.2,1.7-1.8,1.8c-7.8,0.1-15.6,0.1-23.2-2.3C381.3,786.6,381.3,786.3,381.4,786z"/>
<path d="M607,787.3c2.4-8.4,5.5-15.6,8.7-23c2.3,1.4,0.9,2.8,0.6,3.8C611.3,784,610.5,785.8,607,787.3z"/>
<path d="M611.1,762.9c-1.5,7.2-4.4,13.8-7.3,20.5c-2.4-0.8-2.2-2.1-1.7-3.3c0.8-2.1,1.8-4.1,2.6-6.2c1.2-3,2.3-6,3.6-9
	c0.4-0.9,1-1.7,1.5-2.6C610.1,762.4,610.6,762.6,611.1,762.9z"/>
<path d="M694.5,730.1c-0.5,0.9-1.1,1.7-1.6,2.6l0.1,0.1C693.5,731.9,694,731,694.5,730.1C694.6,730.2,694.5,730.1,694.5,730.1z"/>
</svg>
