<?xml version="1.0" encoding="utf-8"?>
<!-- Generator: Adobe Illustrator 17.1.0, SVG Export Plug-In . SVG Version: 6.00 Build 0)  -->
<!DOCTYPE svg PUBLIC "-//W3C//DTD SVG 1.1//EN" "http://www.w3.org/Graphics/SVG/1.1/DTD/svg11.dtd">
<svg version="1.1" id="Layer_1" xmlns="http://www.w3.org/2000/svg" xmlns:xlink="http://www.w3.org/1999/xlink" x="0px" y="0px"
	 viewBox="0 0 1000 1000" enable-background="new 0 0 1000 1000" xml:space="preserve">
<rect x="150" y="500" fill="#FFFFFF" stroke="#16B34C" stroke-miterlimit="10" width="250" height="200"/>
<polygon fill="#FFFFFF" stroke="#16B34C" stroke-miterlimit="10" points="400,200 400,500 100,500 "/>
<polygon fill="#FFFFFF" stroke="#16B34C" stroke-miterlimit="10" points="400,500 362.5,500 100,700 150,700 "/>
<rect x="237.5" y="500" fill="#FFFFFF" stroke="#16B34C" stroke-miterlimit="10" width="250" height="200"/>
<polygon fill="#FFFFFF" stroke="#16B34C" stroke-miterlimit="10" points="487.5,200 487.5,500 187.5,500 "/>
<polygon fill="#FFFFFF" stroke="#16B34C" stroke-miterlimit="10" points="487.5,500 450,500 187.5,700 237.5,700 "/>
<rect x="325" y="500" fill="#FFFFFF" stroke="#16B34C" stroke-miterlimit="10" width="250" height="200"/>
<polygon fill="#FFFFFF" stroke="#16B34C" stroke-miterlimit="10" points="575,200 575,500 275,500 "/>
<polygon fill="#FFFFFF" stroke="#16B34C" stroke-miterlimit="10" points="575,500 537.5,500 275,700 325,700 "/>
<rect x="412.5" y="500" fill="#FFFFFF" stroke="#16B34C" stroke-miterlimit="10" width="250" height="200"/>
<polygon fill="#FFFFFF" stroke="#16B34C" stroke-miterlimit="10" points="662.5,200 662.5,500 362.5,500 "/>
<polygon fill="#FFFFFF" stroke="#16B34C" stroke-miterlimit="10" points="662.5,500 625,500 362.5,700 412.5,700 "/>
<rect x="512.5" y="500" fill="#FFFFFF" stroke="#16B34C" stroke-miterlimit="10" width="250" height="200"/>
<polygon fill="#FFFFFF" stroke="#16B34C" stroke-miterlimit="10" points="762.5,200 762.5,500 462.5,500 "/>
<polygon fill="#FFFFFF" stroke="#16B34C" stroke-miterlimit="10" points="762.5,500 725,500 462.5,700 512.5,700 "/>
<rect x="625" y="500" fill="#FFFFFF" stroke="#16B34C" stroke-miterlimit="10" width="250" height="200"/>
<polygon fill="#FFFFFF" stroke="#16B34C" stroke-miterlimit="10" points="875,200 875,500 575,500 "/>
<polygon fill="#FFFFFF" stroke="#16B34C" stroke-miterlimit="10" points="875,500 837.5,500 575,700 625,700 "/>
</svg>
