<?xml version="1.0" encoding="utf-8"?>
<!-- Generator: Adobe Illustrator 17.1.0, SVG Export Plug-In . SVG Version: 6.00 Build 0)  -->
<!DOCTYPE svg PUBLIC "-//W3C//DTD SVG 1.1//EN" "http://www.w3.org/Graphics/SVG/1.1/DTD/svg11.dtd">
<svg version="1.1" id="Layer_1" xmlns="http://www.w3.org/2000/svg" xmlns:xlink="http://www.w3.org/1999/xlink" x="0px" y="0px"
	 viewBox="0 0 1000 1000" enable-background="new 0 0 1000 1000" xml:space="preserve">
<rect x="500" y="209.4" fill="#FFFFFF" stroke="#16B34C" stroke-miterlimit="10" width="150" height="187.5"/>
<polygon fill="#FFFFFF" stroke="#16B34C" stroke-miterlimit="10" points="875,396.9 650,396.9 650,171.9 "/>
<polygon fill="#FFFFFF" stroke="#16B34C" stroke-miterlimit="10" points="650,396.9 650,368.8 500,171.9 500,209.4 "/>
<rect x="500" y="275" fill="#FFFFFF" stroke="#16B34C" stroke-miterlimit="10" width="150" height="187.5"/>
<polygon fill="#FFFFFF" stroke="#16B34C" stroke-miterlimit="10" points="875,462.5 650,462.5 650,237.5 "/>
<polygon fill="#FFFFFF" stroke="#16B34C" stroke-miterlimit="10" points="650,462.5 650,434.4 500,237.5 500,275 "/>
<rect x="500" y="340.6" fill="#FFFFFF" stroke="#16B34C" stroke-miterlimit="10" width="150" height="187.5"/>
<polygon fill="#FFFFFF" stroke="#16B34C" stroke-miterlimit="10" points="875,528.1 650,528.1 650,303.1 "/>
<polygon fill="#FFFFFF" stroke="#16B34C" stroke-miterlimit="10" points="650,528.1 650,500 500,303.1 500,340.6 "/>
<rect x="500" y="406.2" fill="#FFFFFF" stroke="#16B34C" stroke-miterlimit="10" width="150" height="187.5"/>
<polygon fill="#FFFFFF" stroke="#16B34C" stroke-miterlimit="10" points="875,593.8 650,593.8 650,368.8 "/>
<polygon fill="#FFFFFF" stroke="#16B34C" stroke-miterlimit="10" points="650,593.8 650,565.6 500,368.8 500,406.2 "/>
<rect x="500" y="481.2" fill="#FFFFFF" stroke="#16B34C" stroke-miterlimit="10" width="150" height="187.5"/>
<polygon fill="#FFFFFF" stroke="#16B34C" stroke-miterlimit="10" points="875,668.8 650,668.8 650,443.8 "/>
<polygon fill="#FFFFFF" stroke="#16B34C" stroke-miterlimit="10" points="650,668.8 650,640.6 500,443.8 500,481.2 "/>
<rect x="500" y="565.6" fill="#FFFFFF" stroke="#16B34C" stroke-miterlimit="10" width="150" height="187.5"/>
<polygon fill="#FFFFFF" stroke="#16B34C" stroke-miterlimit="10" points="875,753.1 650,753.1 650,528.1 "/>
<polygon fill="#FFFFFF" stroke="#16B34C" stroke-miterlimit="10" points="650,753.1 650,725 500,528.1 500,565.6 "/>
<rect x="350" y="209.4" fill="#FFFFFF" stroke="#16B34C" stroke-miterlimit="10" width="150" height="187.5"/>
<polygon fill="#FFFFFF" stroke="#16B34C" stroke-miterlimit="10" points="125,396.9 350,396.9 350,171.9 "/>
<polygon fill="#FFFFFF" stroke="#16B34C" stroke-miterlimit="10" points="350,396.9 350,368.8 500,171.9 500,209.4 "/>
<rect x="350" y="275" fill="#FFFFFF" stroke="#16B34C" stroke-miterlimit="10" width="150" height="187.5"/>
<polygon fill="#FFFFFF" stroke="#16B34C" stroke-miterlimit="10" points="125,462.5 350,462.5 350,237.5 "/>
<polygon fill="#FFFFFF" stroke="#16B34C" stroke-miterlimit="10" points="350,462.5 350,434.4 500,237.5 500,275 "/>
<rect x="350" y="340.6" fill="#FFFFFF" stroke="#16B34C" stroke-miterlimit="10" width="150" height="187.5"/>
<polygon fill="#FFFFFF" stroke="#16B34C" stroke-miterlimit="10" points="125,528.1 350,528.1 350,303.1 "/>
<polygon fill="#FFFFFF" stroke="#16B34C" stroke-miterlimit="10" points="350,528.1 350,500 500,303.1 500,340.6 "/>
<rect x="350" y="406.2" fill="#FFFFFF" stroke="#16B34C" stroke-miterlimit="10" width="150" height="187.5"/>
<polygon fill="#FFFFFF" stroke="#16B34C" stroke-miterlimit="10" points="125,593.8 350,593.8 350,368.8 "/>
<polygon fill="#FFFFFF" stroke="#16B34C" stroke-miterlimit="10" points="350,593.8 350,565.6 500,368.8 500,406.2 "/>
<rect x="350" y="481.2" fill="#FFFFFF" stroke="#16B34C" stroke-miterlimit="10" width="150" height="187.5"/>
<polygon fill="#FFFFFF" stroke="#16B34C" stroke-miterlimit="10" points="125,668.8 350,668.8 350,443.8 "/>
<polygon fill="#FFFFFF" stroke="#16B34C" stroke-miterlimit="10" points="350,668.8 350,640.6 500,443.8 500,481.2 "/>
<rect x="350" y="565.6" fill="#FFFFFF" stroke="#16B34C" stroke-miterlimit="10" width="150" height="187.5"/>
<polygon fill="#FFFFFF" stroke="#16B34C" stroke-miterlimit="10" points="125,753.1 350,753.1 350,528.1 "/>
<polygon fill="#FFFFFF" stroke="#16B34C" stroke-miterlimit="10" points="350,753.1 350,725 500,528.1 500,565.6 "/>
</svg>
