<?xml version="1.0" encoding="utf-8"?>
<!-- Generator: Adobe Illustrator 17.1.0, SVG Export Plug-In . SVG Version: 6.00 Build 0)  -->
<!DOCTYPE svg PUBLIC "-//W3C//DTD SVG 1.1//EN" "http://www.w3.org/Graphics/SVG/1.1/DTD/svg11.dtd">
<svg version="1.1" id="Layer_1" xmlns="http://www.w3.org/2000/svg" xmlns:xlink="http://www.w3.org/1999/xlink" x="0px" y="0px"
	 viewBox="0 0 1000 1000" enable-background="new 0 0 1000 1000" xml:space="preserve">
<rect x="458.2" y="209.4" fill="#FFFFFF" stroke="#16B34C" stroke-miterlimit="10" width="150" height="187.5"/>
<polygon fill="#FFFFFF" stroke="#16B34C" stroke-miterlimit="10" points="889.3,396.9 664.3,396.9 664.3,171.9 "/>
<polygon fill="#FFFFFF" stroke="#16B34C" stroke-miterlimit="10" points="586.1,396.9 586.1,368.8 436.1,171.9 436.1,209.4 "/>
<rect x="502.5" y="275" fill="#FFFFFF" stroke="#16B34C" stroke-miterlimit="10" width="150" height="187.5"/>
<polygon fill="#FFFFFF" stroke="#16B34C" stroke-miterlimit="10" points="911.4,462.5 686.4,462.5 686.4,237.5 "/>
<polygon fill="#FFFFFF" stroke="#16B34C" stroke-miterlimit="10" points="630.4,462.5 630.4,434.4 480.4,237.5 480.4,275 "/>
<rect x="546.8" y="340.6" fill="#FFFFFF" stroke="#16B34C" stroke-miterlimit="10" width="150" height="187.5"/>
<polygon fill="#FFFFFF" stroke="#16B34C" stroke-miterlimit="10" points="933.6,528.1 708.6,528.1 708.6,303.1 "/>
<polygon fill="#FFFFFF" stroke="#16B34C" stroke-miterlimit="10" points="674.6,528.1 674.6,500 524.6,303.1 524.6,340.6 "/>
<rect x="591.1" y="406.2" fill="#FFFFFF" stroke="#16B34C" stroke-miterlimit="10" width="150" height="187.5"/>
<polygon fill="#FFFFFF" stroke="#16B34C" stroke-miterlimit="10" points="955.7,593.8 730.7,593.8 730.7,368.8 "/>
<polygon fill="#FFFFFF" stroke="#16B34C" stroke-miterlimit="10" points="718.9,593.8 718.9,565.6 568.9,368.8 568.9,406.2 "/>
<rect x="635.4" y="481.2" fill="#FFFFFF" stroke="#16B34C" stroke-miterlimit="10" width="150" height="187.5"/>
<polygon fill="#FFFFFF" stroke="#16B34C" stroke-miterlimit="10" points="977.9,668.8 752.9,668.8 752.9,443.8 "/>
<polygon fill="#FFFFFF" stroke="#16B34C" stroke-miterlimit="10" points="763.2,668.8 763.2,640.6 613.2,443.8 613.2,481.2 "/>
<rect x="679.6" y="565.6" fill="#FFFFFF" stroke="#16B34C" stroke-miterlimit="10" width="150" height="187.5"/>
<polygon fill="#FFFFFF" stroke="#16B34C" stroke-miterlimit="10" points="1000,753.1 775,753.1 775,528.1 "/>
<polygon fill="#FFFFFF" stroke="#16B34C" stroke-miterlimit="10" points="807.5,753.1 807.5,725 657.5,528.1 657.5,565.6 "/>
<rect x="170.4" y="209.4" fill="#FFFFFF" stroke="#16B34C" stroke-miterlimit="10" width="150" height="187.5"/>
<polygon fill="#FFFFFF" stroke="#16B34C" stroke-miterlimit="10" points="0,396.9 225,396.9 225,171.9 "/>
<polygon fill="#FFFFFF" stroke="#16B34C" stroke-miterlimit="10" points="236.8,396.9 236.8,368.8 386.8,171.9 386.8,209.4 "/>
<rect x="192.5" y="275" fill="#FFFFFF" stroke="#16B34C" stroke-miterlimit="10" width="150" height="187.5"/>
<polygon fill="#FFFFFF" stroke="#16B34C" stroke-miterlimit="10" points="22.1,462.5 247.1,462.5 247.1,237.5 "/>
<polygon fill="#FFFFFF" stroke="#16B34C" stroke-miterlimit="10" points="281.1,462.5 281.1,434.4 431.1,237.5 431.1,275 "/>
<rect x="214.6" y="340.6" fill="#FFFFFF" stroke="#16B34C" stroke-miterlimit="10" width="150" height="187.5"/>
<polygon fill="#FFFFFF" stroke="#16B34C" stroke-miterlimit="10" points="44.3,528.1 269.3,528.1 269.3,303.1 "/>
<polygon fill="#FFFFFF" stroke="#16B34C" stroke-miterlimit="10" points="325.4,528.1 325.4,500 475.4,303.1 475.4,340.6 "/>
<rect x="258.9" y="406.2" fill="#FFFFFF" stroke="#16B34C" stroke-miterlimit="10" width="150" height="187.5"/>
<polygon fill="#FFFFFF" stroke="#16B34C" stroke-miterlimit="10" points="66.4,593.8 291.4,593.8 291.4,368.8 "/>
<polygon fill="#FFFFFF" stroke="#16B34C" stroke-miterlimit="10" points="369.6,593.8 369.6,565.6 519.6,368.8 519.6,406.2 "/>
<rect x="303.2" y="481.2" fill="#FFFFFF" stroke="#16B34C" stroke-miterlimit="10" width="150" height="187.5"/>
<polygon fill="#FFFFFF" stroke="#16B34C" stroke-miterlimit="10" points="88.6,668.8 313.6,668.8 313.6,443.8 "/>
<polygon fill="#FFFFFF" stroke="#16B34C" stroke-miterlimit="10" points="391.8,668.8 391.8,640.6 541.8,443.8 541.8,481.2 "/>
<rect x="347.5" y="565.6" fill="#FFFFFF" stroke="#16B34C" stroke-miterlimit="10" width="150" height="187.5"/>
<polygon fill="#FFFFFF" stroke="#16B34C" stroke-miterlimit="10" points="110.7,753.1 335.7,753.1 335.7,528.1 "/>
<polygon fill="#FFFFFF" stroke="#16B34C" stroke-miterlimit="10" points="413.9,753.1 413.9,725 563.9,528.1 563.9,565.6 "/>
</svg>
