<?xml version="1.0" encoding="utf-8"?>
<!-- Generator: Adobe Illustrator 17.1.0, SVG Export Plug-In . SVG Version: 6.00 Build 0)  -->
<!DOCTYPE svg PUBLIC "-//W3C//DTD SVG 1.1//EN" "http://www.w3.org/Graphics/SVG/1.1/DTD/svg11.dtd">
<svg version="1.1" id="Layer_1" xmlns="http://www.w3.org/2000/svg" xmlns:xlink="http://www.w3.org/1999/xlink" x="0px" y="0px"
	 viewBox="0 0 1000 1000" enable-background="new 0 0 1000 1000" xml:space="preserve">
<path fill="#EC008C" stroke="#FFFFFF" stroke-width="20" stroke-linecap="round" stroke-miterlimit="10" d="M819.5,487.3
	c-27.6,0-50-22.4-50-50V269.8c0-8-3.1-15.5-8.8-21.2s-13.2-8.8-21.2-8.8h-479c-8,0-15.5,3.1-21.2,8.8s-8.8,13.2-8.8,21.2v167.5
	c0,27.6-22.4,50-50,50s-50-22.4-50-50V269.8c0-34.7,13.5-67.4,38.1-91.9c24.6-24.6,57.2-38.1,91.9-38.1h479
	c34.7,0,67.4,13.5,91.9,38.1c24.6,24.6,38.1,57.2,38.1,91.9v167.5C869.5,464.9,847.1,487.3,819.5,487.3z"/>
<path fill="#EC008C" stroke="#FFFFFF" stroke-width="20" stroke-linecap="round" stroke-miterlimit="10" d="M180.5,512.7
	c27.6,0,50,22.4,50,50v167.5c0,8,3.1,15.5,8.8,21.2s13.2,8.8,21.2,8.8h479c8,0,15.5-3.1,21.2-8.8s8.8-13.2,8.8-21.2V562.7
	c0-27.6,22.4-50,50-50s50,22.4,50,50v167.5c0,34.7-13.5,67.4-38.1,91.9c-24.6,24.6-57.2,38.1-91.9,38.1h-479
	c-34.7,0-67.4-13.5-91.9-38.1c-24.6-24.6-38.1-57.2-38.1-91.9V562.7C130.5,535.1,152.9,512.7,180.5,512.7z"/>
<path fill="#FFFFFF" stroke="#EC008C" stroke-width="20" stroke-linecap="round" stroke-miterlimit="10" d="M505,361.4
	c0,13.1-10.6,23.7-23.7,23.7H402c-3.8,0-7.4,1.5-10,4.2c-2.7,2.7-4.2,6.3-4.2,10v226.9c0,3.8,1.5,7.4,4.2,10c2.7,2.7,6.3,4.2,10,4.2
	h79.3c13.1,0,23.7,10.6,23.7,23.7c0,13.1-10.6,23.7-23.7,23.7H402c-16.4,0-31.9-6.4-43.5-18s-18-27.1-18-43.5v-227
	c0-16.4,6.4-31.9,18-43.5s27.1-18,43.5-18h79.3C494.4,337.7,505,348.3,505,361.4z"/>
<path fill="#FFFFFF" stroke="#EC008C" stroke-width="20" stroke-linecap="round" stroke-miterlimit="10" d="M517.1,664
	c0-13.1,10.6-23.7,23.7-23.7h79.3c3.8,0,7.4-1.5,10-4.2c2.7-2.7,4.2-6.3,4.2-10V399.3c0-3.8-1.5-7.4-4.2-10c-2.7-2.7-6.3-4.2-10-4.2
	h-79.3c-13.1,0-23.7-10.6-23.7-23.7s10.6-23.7,23.7-23.7h79.3c16.4,0,31.9,6.4,43.5,18s18,27.1,18,43.5v226.9
	c0,16.4-6.4,31.9-18,43.5s-27.1,18-43.5,18h-79.3C527.7,687.7,517.1,677.1,517.1,664z"/>
</svg>
