<?xml version="1.0" encoding="utf-8"?>
<!-- Generator: Adobe Illustrator 17.1.0, SVG Export Plug-In . SVG Version: 6.00 Build 0)  -->
<!DOCTYPE svg PUBLIC "-//W3C//DTD SVG 1.1//EN" "http://www.w3.org/Graphics/SVG/1.1/DTD/svg11.dtd">
<svg version="1.1" id="Layer_1" xmlns="http://www.w3.org/2000/svg" xmlns:xlink="http://www.w3.org/1999/xlink" x="0px" y="0px"
	 viewBox="0 0 1000 1000" enable-background="new 0 0 1000 1000" xml:space="preserve">
<path fill="#EC008C" d="M743.5,254.8c-41.6,0-63.1-20.4-80.5-36.9c-14.7-13.9-24.4-23.1-46-23.1c-21.7,0-31.4,9.2-46,23.1
	c-17.3,16.4-38.9,36.9-80.5,36.9s-63.1-20.4-80.5-36.9c-14.7-13.9-24.4-23.1-46-23.1c-21.7,0-31.4,9.2-46,23.1
	c-17.3,16.4-38.9,36.9-80.5,36.9S174.4,234.4,157,218c-14.7-13.9-24.4-23.1-46-23.1c-13.8,0-25-11.2-25-25s11.2-25,25-25
	c41.6,0,63.1,20.4,80.5,36.9c14.7,13.9,24.4,23.1,46,23.1c21.7,0,31.4-9.2,46-23.1c17.3-16.4,38.9-36.9,80.5-36.9
	s63.1,20.4,80.5,36.9c14.7,13.9,24.4,23.1,46,23.1c21.7,0,31.4-9.2,46-23.1c17.3-16.4,38.9-36.9,80.5-36.9s63.1,20.4,80.5,36.9
	c14.7,13.9,24.4,23.1,46,23.1s31.4-9.2,46-23.1c17.3-16.4,38.9-36.9,80.5-36.9c13.8,0,25,11.2,25,25s-11.2,25-25,25
	c-21.7,0-31.4,9.2-46,23.1C806.6,234.4,785.1,254.8,743.5,254.8z"/>
<path fill="#EC008C" d="M743.5,369.4c-41.6,0-63.1-20.4-80.5-36.9c-14.7-13.9-24.4-23.1-46-23.1c-21.7,0-31.4,9.2-46,23.1
	c-17.3,16.4-38.9,36.9-80.5,36.9S427.4,349,410,332.5c-14.7-13.9-24.4-23.1-46-23.1c-21.7,0-31.4,9.2-46,23.1
	c-17.3,16.4-38.9,36.9-80.5,36.9S174.4,349,157,332.6c-14.7-13.9-24.4-23.1-46-23.1c-13.8,0-25-11.2-25-25s11.2-25,25-25
	c41.6,0,63.1,20.4,80.5,36.9c14.7,13.9,24.4,23.1,46,23.1c21.7,0,31.4-9.2,46-23.1c17.3-16.4,38.9-36.9,80.5-36.9
	s63.1,20.4,80.5,36.9c14.7,13.9,24.4,23.1,46,23.1c21.7,0,31.4-9.2,46-23.1c17.3-16.4,38.9-36.9,80.5-36.9s63.1,20.4,80.5,36.9
	c14.7,13.9,24.4,23.1,46,23.1s31.4-9.2,46-23.1c17.3-16.4,38.9-36.9,80.5-36.9c13.8,0,25,11.2,25,25s-11.2,25-25,25
	c-21.7,0-31.4,9.2-46,23.1C806.6,349,785.1,369.4,743.5,369.4z"/>
<path fill="#EC008C" d="M743.5,484c-41.6,0-63.1-20.4-80.5-36.9c-14.7-13.9-24.4-23.1-46-23.1c-21.7,0-31.4,9.2-46,23.1
	c-17.3,16.4-38.9,36.9-80.5,36.9s-63.1-20.4-80.5-36.9c-14.7-13.9-24.4-23.1-46-23.1c-21.7,0-31.4,9.2-46,23.1
	c-17.3,16.4-38.9,36.9-80.5,36.9s-63.1-20.4-80.5-36.9c-14.7-13.9-24.4-23.1-46-23.1c-13.8,0-25-11.2-25-25s11.2-25,25-25
	c41.6,0,63.1,20.4,80.5,36.9c14.7,13.9,24.4,23.1,46,23.1c21.7,0,31.4-9.2,46-23.1c17.3-16.4,38.9-36.9,80.5-36.9
	s63.1,20.4,80.5,36.9c14.7,13.9,24.4,23.1,46,23.1c21.7,0,31.4-9.2,46-23.1c17.3-16.4,38.9-36.9,80.5-36.9s63.1,20.4,80.5,36.9
	c14.7,13.9,24.4,23.1,46,23.1s31.4-9.2,46-23.1c17.3-16.4,38.9-36.9,80.5-36.9c13.8,0,25,11.2,25,25s-11.2,25-25,25
	c-21.7,0-31.4,9.2-46,23.1C806.6,463.6,785.1,484,743.5,484z"/>
<path fill="#EC008C" d="M743.5,598.6c-41.6,0-63.1-20.4-80.5-36.9c-14.7-13.9-24.4-23.1-46-23.1c-21.7,0-31.4,9.2-46,23.1
	c-17.3,16.4-38.9,36.9-80.5,36.9s-63.1-20.4-80.5-36.9c-14.7-13.9-24.4-23.1-46-23.1c-21.7,0-31.4,9.2-46,23.1
	c-17.3,16.4-38.9,36.9-80.5,36.9s-63.1-20.4-80.5-36.9c-14.7-13.9-24.4-23.1-46-23.1c-13.8,0-25-11.2-25-25s11.2-25,25-25
	c41.6,0,63.1,20.4,80.5,36.9c14.7,13.9,24.4,23.1,46,23.1c21.7,0,31.4-9.2,46-23.1c17.3-16.4,38.9-36.9,80.5-36.9
	s63.1,20.4,80.5,36.9c14.7,13.9,24.4,23.1,46,23.1c21.7,0,31.4-9.2,46-23.1c17.3-16.4,38.9-36.9,80.5-36.9s63.1,20.4,80.5,36.9
	c14.7,13.9,24.4,23.1,46,23.1s31.4-9.2,46-23.1c17.3-16.4,38.9-36.9,80.5-36.9c13.8,0,25,11.2,25,25c0,13.8-11.2,25-25,25
	c-21.7,0-31.4,9.2-46,23.1C806.6,578.2,785.1,598.6,743.5,598.6z"/>
<path fill="#EC008C" d="M743.5,713.2c-41.6,0-63.1-20.4-80.5-36.9c-14.7-13.9-24.4-23.1-46-23.1c-21.7,0-31.4,9.2-46,23.1
	c-17.3,16.4-38.9,36.9-80.5,36.9s-63.1-20.4-80.5-36.9c-14.7-13.9-24.4-23.1-46-23.1c-21.7,0-31.4,9.2-46,23.1
	c-17.3,16.4-38.9,36.9-80.5,36.9s-63.1-20.4-80.5-36.9c-14.7-13.9-24.4-23.1-46-23.1c-13.8,0-25-11.2-25-25s11.2-25,25-25
	c41.6,0,63.1,20.4,80.5,36.9c14.7,13.9,24.4,23.1,46,23.1c21.7,0,31.4-9.2,46-23.1c17.3-16.4,38.9-36.9,80.5-36.9
	s63.1,20.4,80.5,36.9c14.7,13.9,24.4,23.1,46,23.1c21.7,0,31.4-9.2,46-23.1c17.3-16.4,38.9-36.9,80.5-36.9s63.1,20.4,80.5,36.9
	c14.7,13.9,24.4,23.1,46,23.1s31.4-9.2,46-23.1c17.3-16.4,38.9-36.9,80.5-36.9c13.8,0,25,11.2,25,25s-11.2,25-25,25
	c-21.7,0-31.4,9.2-46,23.1C806.6,692.8,785.1,713.2,743.5,713.2z"/>
<path fill="#EC008C" d="M743.5,827.8c-41.6,0-63.1-20.4-80.5-36.9c-14.7-13.9-24.4-23.1-46-23.1c-21.7,0-31.4,9.2-46,23.1
	c-17.3,16.4-38.9,36.9-80.5,36.9s-63.1-20.4-80.5-36.9c-14.7-13.9-24.4-23.1-46-23.1c-21.7,0-31.4,9.2-46,23.1
	c-17.3,16.4-38.9,36.9-80.5,36.9S174.4,807.4,157,791c-14.7-13.9-24.4-23.1-46-23.1c-13.8,0-25-11.2-25-25s11.2-25,25-25
	c41.6,0,63.1,20.4,80.5,36.9c14.7,13.9,24.4,23.1,46,23.1c21.7,0,31.4-9.2,46-23.1c17.3-16.4,38.9-36.9,80.5-36.9
	s63.1,20.4,80.5,36.9c14.7,13.9,24.4,23.1,46,23.1c21.7,0,31.4-9.2,46-23.1c17.3-16.4,38.9-36.9,80.5-36.9s63.1,20.4,80.5,36.9
	c14.7,13.9,24.4,23.1,46,23.1s31.4-9.2,46-23.1c17.3-16.4,38.9-36.9,80.5-36.9c13.8,0,25,11.2,25,25s-11.2,25-25,25
	c-21.7,0-31.4,9.2-46,23.1C806.6,807.4,785.1,827.8,743.5,827.8z"/>
</svg>
