<?xml version="1.0" encoding="utf-8"?>
<!-- Generator: Adobe Illustrator 17.1.0, SVG Export Plug-In . SVG Version: 6.00 Build 0)  -->
<!DOCTYPE svg PUBLIC "-//W3C//DTD SVG 1.1//EN" "http://www.w3.org/Graphics/SVG/1.1/DTD/svg11.dtd">
<svg version="1.1" id="Layer_1" xmlns="http://www.w3.org/2000/svg" xmlns:xlink="http://www.w3.org/1999/xlink" x="0px" y="0px"
	 viewBox="0 0 1000 1000" enable-background="new 0 0 1000 1000" xml:space="preserve">
<g>
	<g>
		<path fill="#FFFFFF" stroke="#EC008C" stroke-width="20" stroke-miterlimit="10" d="M725,355c0,46.4-18.1,90.1-50.9,123
			c-32.8,32.8-76.5,50.9-123,50.9c-16.4,0-29.6-13.3-29.6-29.6c0-16.4,13.3-29.6,29.6-29.6c63.2,0,114.6-51.4,114.6-114.6
			s-51.4-114.6-114.6-114.6c-16.4,0-29.6-13.3-29.6-29.6s13.3-29.6,29.6-29.6c46.4,0,90.1,18.1,123,50.9
			C706.9,264.9,725,308.6,725,355z"/>
	</g>
	<g>
		<path fill="#FFFFFF" stroke="#EC008C" stroke-width="20" stroke-miterlimit="10" d="M725,645c0,46.4-18.1,90.1-50.9,123
			c-32.8,32.8-76.5,50.9-123,50.9c-16.4,0-29.6-13.3-29.6-29.6s13.3-29.6,29.6-29.6c63.2,0,114.6-51.4,114.6-114.6
			s-51.4-114.6-114.6-114.6c-16.4,0-29.6-13.3-29.6-29.6s13.3-29.6,29.6-29.6c46.4,0,90.1,18.1,123,50.9
			C706.9,554.9,725,598.6,725,645z"/>
	</g>
	<g>
		<path fill="#FFFFFF" stroke="#EC008C" stroke-width="20" stroke-miterlimit="10" d="M275,355c0,46.4,18.1,90.1,50.9,123
			c32.8,32.8,76.5,50.9,123,50.9c16.4,0,29.6-13.3,29.6-29.6c0-16.4-13.3-29.6-29.6-29.6c-63.2,0-114.6-51.4-114.6-114.6
			s51.4-114.6,114.6-114.6c16.4,0,29.6-13.3,29.6-29.6s-13.3-29.6-29.6-29.6c-46.4,0-90.1,18.1-123,50.9S275,308.6,275,355z"/>
	</g>
	<g>
		<path fill="#FFFFFF" stroke="#EC008C" stroke-width="20" stroke-miterlimit="10" d="M275,645c0,46.4,18.1,90.1,50.9,123
			c32.8,32.8,76.5,50.9,123,50.9c16.4,0,29.6-13.3,29.6-29.6s-13.3-29.6-29.6-29.6c-63.2,0-114.6-51.4-114.6-114.6
			s51.4-114.6,114.6-114.6c16.4,0,29.6-13.3,29.6-29.6s-13.3-29.6-29.6-29.6c-46.4,0-90.1,18.1-123,50.9S275,598.6,275,645z"/>
	</g>
</g>
</svg>
