<?xml version="1.0" encoding="utf-8"?>
<!-- Generator: Adobe Illustrator 17.1.0, SVG Export Plug-In . SVG Version: 6.00 Build 0)  -->
<!DOCTYPE svg PUBLIC "-//W3C//DTD SVG 1.1//EN" "http://www.w3.org/Graphics/SVG/1.1/DTD/svg11.dtd">
<svg version="1.1" id="Layer_1" xmlns="http://www.w3.org/2000/svg" xmlns:xlink="http://www.w3.org/1999/xlink" x="0px" y="0px"
	 viewBox="0 0 612 792" enable-background="new 0 0 612 792" xml:space="preserve">
<rect x="306.7" y="399.9" fill="#FFFFFF" stroke="#16B34C" stroke-miterlimit="10" width="11.4" height="207.1"/>
<polygon fill="#FFFFFF" stroke="#16B34C" stroke-miterlimit="10" points="249.3,561.1 249.3,446.2 237.6,446.2 237.6,549.4 "/>
<polygon fill="#FFFFFF" stroke="#16B34C" stroke-miterlimit="10" points="272.1,583.9 249.3,561.1 249.3,446.2 272.1,446.2 "/>
<polygon fill="#FFFFFF" stroke="#16B34C" stroke-miterlimit="10" points="272.1,377.1 203.1,377.1 191.7,388.5 318.4,388.5 
	318.4,377.1 "/>
<rect x="214.5" y="434.4" fill="#FFFFFF" stroke="#16B34C" stroke-miterlimit="10" width="57.6" height="11.4"/>
<rect x="226.2" y="446.2" fill="#FFFFFF" stroke="#16B34C" stroke-miterlimit="10" width="11.4" height="22.8"/>
<rect x="157.2" y="388.5" fill="#FFFFFF" stroke="#16B34C" stroke-miterlimit="10" width="161.2" height="11.4"/>
<rect x="168.6" y="411.3" fill="#FFFFFF" stroke="#16B34C" stroke-miterlimit="10" width="103.6" height="11.4"/>
<rect x="214.5" y="423" fill="#FFFFFF" stroke="#16B34C" stroke-miterlimit="10" width="57.6" height="11.4"/>
<polygon fill="#FFFFFF" stroke="#16B34C" stroke-miterlimit="10" points="191.7,411.6 203.1,399.9 283.9,399.9 283.9,411.6 "/>
<rect x="328.1" y="399.9" fill="#FFFFFF" stroke="#16B34C" stroke-miterlimit="10" width="11.4" height="207.1"/>
<polygon fill="#FFFFFF" stroke="#16B34C" stroke-miterlimit="10" points="408.5,549.4 408.5,446.2 396.8,446.2 396.8,561.1 "/>
<polygon fill="#FFFFFF" stroke="#16B34C" stroke-miterlimit="10" points="374,446.2 396.8,446.2 396.8,561.1 374,583.9 "/>
<polygon fill="#FFFFFF" stroke="#16B34C" stroke-miterlimit="10" points="327.8,377.1 327.8,388.5 454.5,388.5 443.1,377.1 
	374,377.1 "/>
<rect x="374" y="434.4" fill="#FFFFFF" stroke="#16B34C" stroke-miterlimit="10" width="57.6" height="11.4"/>
<rect x="408.5" y="446.2" fill="#FFFFFF" stroke="#16B34C" stroke-miterlimit="10" width="11.4" height="22.8"/>
<rect x="327.8" y="388.5" fill="#FFFFFF" stroke="#16B34C" stroke-miterlimit="10" width="161.2" height="11.4"/>
<rect x="374" y="411.3" fill="#FFFFFF" stroke="#16B34C" stroke-miterlimit="10" width="103.6" height="11.4"/>
<rect x="374" y="423" fill="#FFFFFF" stroke="#16B34C" stroke-miterlimit="10" width="57.6" height="11.4"/>
<polygon fill="#FFFFFF" stroke="#16B34C" stroke-miterlimit="10" points="362.3,411.6 362.3,399.9 443.1,399.9 454.5,411.6 "/>
<rect x="328.1" y="135.5" fill="#FFFFFF" stroke="#16B34C" stroke-miterlimit="10" width="11.4" height="207.1"/>
<polygon fill="#FFFFFF" stroke="#16B34C" stroke-miterlimit="10" points="396.8,181.4 396.8,296.7 408.5,296.7 408.5,193.1 "/>
<polygon fill="#FFFFFF" stroke="#16B34C" stroke-miterlimit="10" points="374,158.6 396.8,181.4 396.8,296.7 374,296.7 "/>
<polygon fill="#FFFFFF" stroke="#16B34C" stroke-miterlimit="10" points="374,365.7 443.1,365.7 454.5,354.3 327.8,354.3 
	327.8,365.7 "/>
<rect x="374" y="296.7" fill="#FFFFFF" stroke="#16B34C" stroke-miterlimit="10" width="57.6" height="11.4"/>
<rect x="408.5" y="273.6" fill="#FFFFFF" stroke="#16B34C" stroke-miterlimit="10" width="11.4" height="22.8"/>
<rect x="327.8" y="342.6" fill="#FFFFFF" stroke="#16B34C" stroke-miterlimit="10" width="161.2" height="11.4"/>
<rect x="374" y="319.8" fill="#FFFFFF" stroke="#16B34C" stroke-miterlimit="10" width="103.6" height="11.4"/>
<rect x="374" y="308.1" fill="#FFFFFF" stroke="#16B34C" stroke-miterlimit="10" width="57.6" height="11.4"/>
<polygon fill="#FFFFFF" stroke="#16B34C" stroke-miterlimit="10" points="454.5,331.2 443.1,342.6 362.3,342.6 362.3,331.2 "/>
<rect x="306.7" y="135.5" fill="#FFFFFF" stroke="#16B34C" stroke-miterlimit="10" width="11.4" height="207.1"/>
<polygon fill="#FFFFFF" stroke="#16B34C" stroke-miterlimit="10" points="237.6,193.1 237.6,296.7 249.3,296.7 249.3,181.4 "/>
<polygon fill="#FFFFFF" stroke="#16B34C" stroke-miterlimit="10" points="272.1,296.7 249.3,296.7 249.3,181.4 272.1,158.6 "/>
<polygon fill="#FFFFFF" stroke="#16B34C" stroke-miterlimit="10" points="318.4,365.7 318.4,354.3 191.7,354.3 203.1,365.7 
	272.1,365.7 "/>
<rect x="214.5" y="296.7" fill="#FFFFFF" stroke="#16B34C" stroke-miterlimit="10" width="57.6" height="11.4"/>
<rect x="226.2" y="273.6" fill="#FFFFFF" stroke="#16B34C" stroke-miterlimit="10" width="11.4" height="22.8"/>
<rect x="157.2" y="342.6" fill="#FFFFFF" stroke="#16B34C" stroke-miterlimit="10" width="161.2" height="11.4"/>
<rect x="168.6" y="319.8" fill="#FFFFFF" stroke="#16B34C" stroke-miterlimit="10" width="103.6" height="11.4"/>
<rect x="214.5" y="308.1" fill="#FFFFFF" stroke="#16B34C" stroke-miterlimit="10" width="57.6" height="11.4"/>
<polygon fill="#FFFFFF" stroke="#16B34C" stroke-miterlimit="10" points="283.9,331.2 283.9,342.6 203.1,342.6 191.7,331.2 "/>
</svg>
