<?xml version="1.0" encoding="utf-8"?>
<!-- Generator: Adobe Illustrator 17.1.0, SVG Export Plug-In . SVG Version: 6.00 Build 0)  -->
<!DOCTYPE svg PUBLIC "-//W3C//DTD SVG 1.1//EN" "http://www.w3.org/Graphics/SVG/1.1/DTD/svg11.dtd">
<svg version="1.1" id="Layer_1" xmlns="http://www.w3.org/2000/svg" xmlns:xlink="http://www.w3.org/1999/xlink" x="0px" y="0px"
	 viewBox="0 206 451 448" enable-background="new 0 206 451 448" xml:space="preserve">
<rect x="197.9" y="326" fill="#FFFFFF" stroke="#16B34C" stroke-miterlimit="10" width="6.9" height="154"/>
<polygon fill="#FFFFFF" stroke="#16B34C" stroke-miterlimit="10" points="190.9,354.2 190.9,290.9 169.9,269.9 169.9,256.1 
	197.9,284 197.9,354.2 "/>
<polygon fill="#FFFFFF" stroke="#16B34C" stroke-miterlimit="10" points="184,312.2 184,290.9 148.9,256.1 148.9,248.9 190.9,290.9 
	190.9,319.1 "/>
<polygon fill="#FFFFFF" stroke="#16B34C" stroke-miterlimit="10" points="184,312.2 184,298.1 134.8,248.9 134.8,263 "/>
<polygon fill="#FFFFFF" stroke="#16B34C" stroke-miterlimit="10" points="197.9,433.5 190.9,426.6 190.9,620 197.9,620 "/>
<polygon fill="#FFFFFF" stroke="#16B34C" stroke-miterlimit="10" points="233,445.2 233,473.1 205,445.2 205,417 "/>
<polygon fill="#FFFFFF" stroke="#16B34C" stroke-miterlimit="10" points="233,473.1 233,494.1 205,466.2 205,445.2 "/>
<polygon fill="#FFFFFF" stroke="#16B34C" stroke-miterlimit="10" points="226,487.2 226,536.1 233,536.1 233,494.1 "/>
<polygon fill="#FFFFFF" stroke="#16B34C" stroke-miterlimit="10" points="205,466.2 205,508.2 226,529.2 226,487.2 "/>
<rect x="148.9" y="483.5" fill="#FFFFFF" stroke="#16B34C" stroke-miterlimit="10" width="6.9" height="112"/>
<polygon fill="#FFFFFF" stroke="#16B34C" stroke-miterlimit="10" points="226,529.2 226,543.3 205,543.3 205,508.2 "/>
<rect x="197.9" y="494.1" fill="#FFFFFF" stroke="#16B34C" stroke-miterlimit="10" width="6.9" height="63"/>
<rect x="155.9" y="391.9" fill="#FFFFFF" stroke="#16B34C" stroke-miterlimit="10" width="7.3" height="228.1"/>
<polygon fill="#FFFFFF" stroke="#16B34C" stroke-miterlimit="10" points="163.2,455.6 191.1,483.5 191.1,581.6 163.2,553.7 "/>
<rect x="106.5" y="483.5" fill="#FFFFFF" stroke="#16B34C" stroke-miterlimit="10" width="6.9" height="112"/>
<rect x="113.4" y="391.9" fill="#FFFFFF" stroke="#16B34C" stroke-miterlimit="10" width="7.3" height="228.1"/>
<polygon fill="#FFFFFF" stroke="#16B34C" stroke-miterlimit="10" points="120.8,455.6 148.9,483.5 148.9,581.6 120.8,553.7 "/>
<rect x="64.1" y="483.5" fill="#FFFFFF" stroke="#16B34C" stroke-miterlimit="10" width="6.9" height="112"/>
<rect x="71.2" y="391.9" fill="#FFFFFF" stroke="#16B34C" stroke-miterlimit="10" width="7.3" height="228.1"/>
<polygon fill="#FFFFFF" stroke="#16B34C" stroke-miterlimit="10" points="78.3,455.6 106.5,483.5 106.5,581.6 78.3,553.7 "/>
<rect x="266.2" y="326" fill="#FFFFFF" stroke="#16B34C" stroke-miterlimit="10" width="6.9" height="154"/>
<polygon fill="#FFFFFF" stroke="#16B34C" stroke-miterlimit="10" points="273.4,354.2 273.4,284 301.3,256.1 301.3,269.9 
	280.3,290.9 280.3,354.2 "/>
<polygon fill="#FFFFFF" stroke="#16B34C" stroke-miterlimit="10" points="280.3,319.1 280.3,290.9 322.3,248.9 322.3,256.1 
	287.2,290.9 287.2,312.2 "/>
<polygon fill="#FFFFFF" stroke="#16B34C" stroke-miterlimit="10" points="336.4,263 336.4,248.9 287.2,298.1 287.2,312.2 "/>
<polygon fill="#FFFFFF" stroke="#16B34C" stroke-miterlimit="10" points="273.4,620 280.3,620 280.3,426.6 273.4,433.5 "/>
<polygon fill="#FFFFFF" stroke="#16B34C" stroke-miterlimit="10" points="266.2,417 266.2,445.2 238.3,473.1 238.3,445.2 "/>
<polygon fill="#FFFFFF" stroke="#16B34C" stroke-miterlimit="10" points="266.2,445.2 266.2,466.2 238.3,494.1 238.3,473.1 "/>
<polygon fill="#FFFFFF" stroke="#16B34C" stroke-miterlimit="10" points="238.3,494.1 238.3,536.1 245.2,536.1 245.2,487.2 "/>
<polygon fill="#FFFFFF" stroke="#16B34C" stroke-miterlimit="10" points="245.2,487.2 245.2,529.2 266.2,508.2 266.2,466.2 "/>
<rect x="315.4" y="483.5" fill="#FFFFFF" stroke="#16B34C" stroke-miterlimit="10" width="6.9" height="112"/>
<polygon fill="#FFFFFF" stroke="#16B34C" stroke-miterlimit="10" points="266.2,508.2 266.2,543.3 245.2,543.3 245.2,529.2 "/>
<rect x="266.2" y="494.1" fill="#FFFFFF" stroke="#16B34C" stroke-miterlimit="10" width="6.9" height="63"/>
<rect x="308" y="391.9" fill="#FFFFFF" stroke="#16B34C" stroke-miterlimit="10" width="7.3" height="228.1"/>
<polygon fill="#FFFFFF" stroke="#16B34C" stroke-miterlimit="10" points="308,553.7 280.1,581.6 280.1,483.5 308,455.6 "/>
<rect x="357.8" y="483.5" fill="#FFFFFF" stroke="#16B34C" stroke-miterlimit="10" width="6.9" height="112"/>
<rect x="350.5" y="391.9" fill="#FFFFFF" stroke="#16B34C" stroke-miterlimit="10" width="7.3" height="228.1"/>
<polygon fill="#FFFFFF" stroke="#16B34C" stroke-miterlimit="10" points="350.5,553.7 322.3,581.6 322.3,483.5 350.5,455.6 "/>
<rect x="400" y="483.5" fill="#FFFFFF" stroke="#16B34C" stroke-miterlimit="10" width="6.9" height="112"/>
<rect x="392.9" y="391.9" fill="#FFFFFF" stroke="#16B34C" stroke-miterlimit="10" width="7.3" height="228.1"/>
<polygon fill="#FFFFFF" stroke="#16B34C" stroke-miterlimit="10" points="392.9,553.7 364.8,581.6 364.8,483.5 392.9,455.6 "/>
</svg>
