<?xml version="1.0" encoding="utf-8"?>
<!-- Generator: Adobe Illustrator 17.1.0, SVG Export Plug-In . SVG Version: 6.00 Build 0)  -->
<!DOCTYPE svg PUBLIC "-//W3C//DTD SVG 1.1//EN" "http://www.w3.org/Graphics/SVG/1.1/DTD/svg11.dtd">
<svg version="1.1" id="Layer_1" xmlns="http://www.w3.org/2000/svg" xmlns:xlink="http://www.w3.org/1999/xlink" x="0px" y="0px"
	 viewBox="0 261 612 407" enable-background="new 0 261 612 407" xml:space="preserve">
<rect x="141.2" y="590.8" fill="#FFFFFF" stroke="#16B34C" stroke-miterlimit="10" width="72.2" height="8"/>
<rect x="141.2" y="574.9" fill="#FFFFFF" stroke="#16B34C" stroke-miterlimit="10" width="52.2" height="8"/>
<polygon fill="#FFFFFF" stroke="#16B34C" stroke-miterlimit="10" points="141.2,570.8 189.3,570.8 185.2,574.9 141.2,574.9 "/>
<polygon fill="#FFFFFF" stroke="#16B34C" stroke-miterlimit="10" points="189.3,570.8 221.3,570.8 217.5,574.9 185.2,574.9 "/>
<polygon fill="#FFFFFF" stroke="#16B34C" stroke-miterlimit="10" points="193.2,574.9 213.4,574.9 205.4,582.9 193.2,582.9 "/>
<rect x="141.2" y="582.9" fill="#FFFFFF" stroke="#16B34C" stroke-miterlimit="10" width="48.1" height="4.1"/>
<rect x="141.2" y="586.9" fill="#FFFFFF" stroke="#16B34C" stroke-miterlimit="10" width="64.1" height="4.1"/>
<polygon fill="#FFFFFF" stroke="#16B34C" stroke-miterlimit="10" points="201.3,598.8 189.3,610.8 137.1,610.8 137.1,598.8 "/>
<rect x="137.1" y="610.8" fill="#FFFFFF" stroke="#16B34C" stroke-miterlimit="10" width="68.1" height="4.1"/>
<polygon fill="#FFFFFF" stroke="#16B34C" stroke-miterlimit="10" points="177.3,614.9 173.2,619 129.1,619 129.1,614.9 "/>
<polygon fill="#FFFFFF" stroke="#16B34C" stroke-miterlimit="10" points="181.2,619 177.3,623.1 129.1,623.1 129.1,619 "/>
<polygon fill="#FFFFFF" stroke="#16B34C" stroke-miterlimit="10" points="79.8,582.7 298,582.7 294.2,586.7 75.9,586.7 "/>
<polygon fill="#FFFFFF" stroke="#16B34C" stroke-miterlimit="10" points="83.8,586.7 290.1,586.7 282.1,594.7 83.8,594.7 "/>
<rect x="53.4" y="598.8" fill="#FFFFFF" stroke="#16B34C" stroke-miterlimit="10" width="228.5" height="4.1"/>
<polygon fill="#FFFFFF" stroke="#16B34C" stroke-miterlimit="10" points="177.3,562.9 173.2,566.7 129.1,566.7 129.1,562.9 "/>
<polygon fill="#FFFFFF" stroke="#16B34C" stroke-miterlimit="10" points="181.2,566.7 177.3,570.8 129.1,570.8 129.1,566.7 "/>
<rect x="87.5" y="546.1" fill="#FFFFFF" stroke="#16B34C" stroke-miterlimit="10" width="218.9" height="16.7"/>
<polygon fill="#FFFFFF" stroke="#16B34C" stroke-miterlimit="10" points="169.3,474.3 241.3,546.1 241.3,546.1 169.3,546.1 "/>
<rect x="161.2" y="474.3" fill="#FFFFFF" stroke="#16B34C" stroke-miterlimit="10" width="8.2" height="71.8"/>
<rect x="77.9" y="494.7" fill="#FFFFFF" stroke="#16B34C" stroke-miterlimit="10" width="83.2" height="13.1"/>
<rect x="112" y="507.8" fill="#FFFFFF" stroke="#16B34C" stroke-miterlimit="10" width="49.2" height="38.4"/>
<rect x="416.5" y="590.8" fill="#FFFFFF" stroke="#16B34C" stroke-miterlimit="10" width="72.2" height="8"/>
<rect x="436.5" y="574.9" fill="#FFFFFF" stroke="#16B34C" stroke-miterlimit="10" width="52.2" height="8"/>
<polygon fill="#FFFFFF" stroke="#16B34C" stroke-miterlimit="10" points="488.7,574.9 444.6,574.9 440.5,570.8 488.7,570.8 "/>
<polygon fill="#FFFFFF" stroke="#16B34C" stroke-miterlimit="10" points="444.6,574.9 412.4,574.9 408.5,570.8 440.5,570.8 "/>
<polygon fill="#FFFFFF" stroke="#16B34C" stroke-miterlimit="10" points="436.7,582.9 424.4,582.9 416.5,574.9 436.7,574.9 "/>
<rect x="440.5" y="582.9" fill="#FFFFFF" stroke="#16B34C" stroke-miterlimit="10" width="48.1" height="4.1"/>
<rect x="424.6" y="586.9" fill="#FFFFFF" stroke="#16B34C" stroke-miterlimit="10" width="64.1" height="4.1"/>
<polygon fill="#FFFFFF" stroke="#16B34C" stroke-miterlimit="10" points="492.8,598.8 492.8,610.8 440.5,610.8 428.5,598.8 "/>
<rect x="424.6" y="610.8" fill="#FFFFFF" stroke="#16B34C" stroke-miterlimit="10" width="68.1" height="4.1"/>
<polygon fill="#FFFFFF" stroke="#16B34C" stroke-miterlimit="10" points="500.7,614.9 500.7,619 456.7,619 452.6,614.9 "/>
<polygon fill="#FFFFFF" stroke="#16B34C" stroke-miterlimit="10" points="500.7,619 500.7,623.1 452.6,623.1 448.7,619 "/>
<polygon fill="#FFFFFF" stroke="#16B34C" stroke-miterlimit="10" points="554,586.7 335.7,586.7 331.8,582.7 550.1,582.7 "/>
<polygon fill="#FFFFFF" stroke="#16B34C" stroke-miterlimit="10" points="546,594.7 347.7,594.7 339.8,586.7 546,586.7 "/>
<rect x="347.9" y="598.8" fill="#FFFFFF" stroke="#16B34C" stroke-miterlimit="10" width="228.5" height="4.1"/>
<polygon fill="#FFFFFF" stroke="#16B34C" stroke-miterlimit="10" points="500.7,562.9 500.7,566.7 456.7,566.7 452.6,562.9 "/>
<polygon fill="#FFFFFF" stroke="#16B34C" stroke-miterlimit="10" points="500.7,566.7 500.7,570.8 452.6,570.8 448.7,566.7 "/>
<rect x="323.4" y="546.1" fill="#FFFFFF" stroke="#16B34C" stroke-miterlimit="10" width="218.9" height="16.7"/>
<polygon fill="#FFFFFF" stroke="#16B34C" stroke-miterlimit="10" points="460.5,546.1 388.5,546.1 388.5,546.1 460.5,474.3 "/>
<rect x="460.5" y="474.3" fill="#FFFFFF" stroke="#16B34C" stroke-miterlimit="10" width="8.2" height="71.8"/>
<rect x="468.7" y="494.7" fill="#FFFFFF" stroke="#16B34C" stroke-miterlimit="10" width="83.2" height="13.1"/>
<rect x="468.7" y="507.8" fill="#FFFFFF" stroke="#16B34C" stroke-miterlimit="10" width="49.2" height="38.4"/>
<rect x="416.5" y="344.9" fill="#FFFFFF" stroke="#16B34C" stroke-miterlimit="10" width="72.2" height="8"/>
<rect x="436.5" y="360.8" fill="#FFFFFF" stroke="#16B34C" stroke-miterlimit="10" width="52.2" height="8"/>
<polygon fill="#FFFFFF" stroke="#16B34C" stroke-miterlimit="10" points="488.7,372.8 440.5,372.8 444.6,368.8 488.7,368.8 "/>
<polygon fill="#FFFFFF" stroke="#16B34C" stroke-miterlimit="10" points="440.5,372.8 408.5,372.8 412.4,368.8 444.6,368.8 "/>
<polygon fill="#FFFFFF" stroke="#16B34C" stroke-miterlimit="10" points="436.7,368.8 416.5,368.8 424.4,360.8 436.7,360.8 "/>
<rect x="440.5" y="356.7" fill="#FFFFFF" stroke="#16B34C" stroke-miterlimit="10" width="48.1" height="4.1"/>
<rect x="424.6" y="352.6" fill="#FFFFFF" stroke="#16B34C" stroke-miterlimit="10" width="64.1" height="4.1"/>
<polygon fill="#FFFFFF" stroke="#16B34C" stroke-miterlimit="10" points="428.5,344.9 440.5,332.9 492.8,332.9 492.8,344.9 "/>
<rect x="424.6" y="328.8" fill="#FFFFFF" stroke="#16B34C" stroke-miterlimit="10" width="68.1" height="4.1"/>
<polygon fill="#FFFFFF" stroke="#16B34C" stroke-miterlimit="10" points="452.6,328.8 456.7,324.7 500.7,324.7 500.7,328.8 "/>
<polygon fill="#FFFFFF" stroke="#16B34C" stroke-miterlimit="10" points="448.7,324.7 452.6,320.6 500.7,320.6 500.7,324.7 "/>
<polygon fill="#FFFFFF" stroke="#16B34C" stroke-miterlimit="10" points="550.1,361 331.8,361 335.7,356.9 554,356.9 "/>
<polygon fill="#FFFFFF" stroke="#16B34C" stroke-miterlimit="10" points="546,356.9 339.8,356.9 347.7,349 546,349 "/>
<rect x="347.9" y="340.8" fill="#FFFFFF" stroke="#16B34C" stroke-miterlimit="10" width="228.5" height="4.1"/>
<polygon fill="#FFFFFF" stroke="#16B34C" stroke-miterlimit="10" points="452.6,380.8 456.7,376.9 500.7,376.9 500.7,380.8 "/>
<polygon fill="#FFFFFF" stroke="#16B34C" stroke-miterlimit="10" points="448.7,376.9 452.6,372.8 500.7,372.8 500.7,376.9 "/>
<rect x="323.4" y="380.8" fill="#FFFFFF" stroke="#16B34C" stroke-miterlimit="10" width="218.9" height="16.7"/>
<polygon fill="#FFFFFF" stroke="#16B34C" stroke-miterlimit="10" points="460.5,469.3 388.5,397.5 388.5,397.5 460.5,397.5 "/>
<rect x="460.5" y="397.5" fill="#FFFFFF" stroke="#16B34C" stroke-miterlimit="10" width="8.2" height="71.8"/>
<rect x="468.7" y="435.9" fill="#FFFFFF" stroke="#16B34C" stroke-miterlimit="10" width="83.2" height="13.1"/>
<rect x="468.7" y="397.5" fill="#FFFFFF" stroke="#16B34C" stroke-miterlimit="10" width="49.2" height="38.4"/>
<rect x="141.2" y="344.9" fill="#FFFFFF" stroke="#16B34C" stroke-miterlimit="10" width="72.2" height="8"/>
<rect x="141.2" y="360.8" fill="#FFFFFF" stroke="#16B34C" stroke-miterlimit="10" width="52.2" height="8"/>
<polygon fill="#FFFFFF" stroke="#16B34C" stroke-miterlimit="10" points="141.2,368.8 185.2,368.8 189.3,372.8 141.2,372.8 "/>
<polygon fill="#FFFFFF" stroke="#16B34C" stroke-miterlimit="10" points="185.2,368.8 217.5,368.8 221.3,372.8 189.3,372.8 "/>
<polygon fill="#FFFFFF" stroke="#16B34C" stroke-miterlimit="10" points="193.2,360.8 205.4,360.8 213.4,368.8 193.2,368.8 "/>
<rect x="141.2" y="356.7" fill="#FFFFFF" stroke="#16B34C" stroke-miterlimit="10" width="48.1" height="4.1"/>
<rect x="141.2" y="352.6" fill="#FFFFFF" stroke="#16B34C" stroke-miterlimit="10" width="64.1" height="4.1"/>
<polygon fill="#FFFFFF" stroke="#16B34C" stroke-miterlimit="10" points="137.1,344.9 137.1,332.9 189.3,332.9 201.3,344.9 "/>
<rect x="137.1" y="328.8" fill="#FFFFFF" stroke="#16B34C" stroke-miterlimit="10" width="68.1" height="4.1"/>
<polygon fill="#FFFFFF" stroke="#16B34C" stroke-miterlimit="10" points="129.1,328.8 129.1,324.7 173.2,324.7 177.3,328.8 "/>
<polygon fill="#FFFFFF" stroke="#16B34C" stroke-miterlimit="10" points="129.1,324.7 129.1,320.6 177.3,320.6 181.2,324.7 "/>
<polygon fill="#FFFFFF" stroke="#16B34C" stroke-miterlimit="10" points="75.9,356.9 294.2,356.9 298,361 79.8,361 "/>
<polygon fill="#FFFFFF" stroke="#16B34C" stroke-miterlimit="10" points="83.8,349 282.1,349 290.1,356.9 83.8,356.9 "/>
<rect x="53.4" y="340.8" fill="#FFFFFF" stroke="#16B34C" stroke-miterlimit="10" width="228.5" height="4.1"/>
<polygon fill="#FFFFFF" stroke="#16B34C" stroke-miterlimit="10" points="129.1,380.8 129.1,376.9 173.2,376.9 177.3,380.8 "/>
<polygon fill="#FFFFFF" stroke="#16B34C" stroke-miterlimit="10" points="129.1,376.9 129.1,372.8 177.3,372.8 181.2,376.9 "/>
<rect x="87.5" y="380.8" fill="#FFFFFF" stroke="#16B34C" stroke-miterlimit="10" width="218.9" height="16.7"/>
<polygon fill="#FFFFFF" stroke="#16B34C" stroke-miterlimit="10" points="169.3,397.5 241.3,397.5 241.3,397.5 169.3,469.3 "/>
<rect x="161.2" y="397.5" fill="#FFFFFF" stroke="#16B34C" stroke-miterlimit="10" width="8.2" height="71.8"/>
<rect x="77.9" y="435.9" fill="#FFFFFF" stroke="#16B34C" stroke-miterlimit="10" width="83.2" height="13.1"/>
<rect x="112" y="397.5" fill="#FFFFFF" stroke="#16B34C" stroke-miterlimit="10" width="49.2" height="38.4"/>
</svg>
