<?xml version="1.0" encoding="utf-8"?>
<!-- Generator: Adobe Illustrator 17.1.0, SVG Export Plug-In . SVG Version: 6.00 Build 0)  -->
<!DOCTYPE svg PUBLIC "-//W3C//DTD SVG 1.1//EN" "http://www.w3.org/Graphics/SVG/1.1/DTD/svg11.dtd">
<svg version="1.1" id="Layer_1" xmlns="http://www.w3.org/2000/svg" xmlns:xlink="http://www.w3.org/1999/xlink" x="0px" y="0px"
	 viewBox="0 0 1000 1000" enable-background="new 0 0 1000 1000" xml:space="preserve">
<g id="Layer_1_1_">
</g>
<path fill="#F6CCD8" d="M485.2,301.1c-2.2-4.1-6.9-6.6-12.5-6.6c-3.5,0-7.1,0.9-10.4,2.7c-4.2,2.3-7.5,5.7-9.3,9.5
	c-0.1,0.3-0.2,0.5-0.3,0.8c-2.7-3.2-6.7-4.6-9.4-4.9c0,0-0.1,0-0.1,0c-21.1-1-41.3,1.1-60,6.2c-15,4.1-29.1,10.2-42,18
	c-12.1,7.4-20.7,14.9-26.1,20.2c3.7-9.8,8.8-19.1,14.4-24.1c7.1-6.4,9.8-15.1,6.3-20.4c-0.3-0.4-0.7-1-1.3-1.5
	c0.6,0.1,1.2,0.1,1.8,0.1c3.5,0,7.1-0.9,10.4-2.7c8.9-4.8,13.1-14.3,9.4-21.2c-2.2-4.1-6.9-6.6-12.5-6.6c-3.5,0-7.1,0.9-10.4,2.7
	c-8.9,4.8-13.1,14.3-9.4,21.2c0.8,1.5,2,2.8,3.4,3.9c-3.4-0.1-8,0.8-14.2,3.8c-19.5,9.2-31.3,42.2-35.3,55.4
	c-3.3-5.9-7.3-9.1-12-9.5c-1-0.1-2,0-3,0.1c3.2-6.4,2.1-14.5-3.3-19.9c-3.3-3.4-7.8-5.2-12.5-5.2c-4.5,0-8.7,1.7-11.9,4.8
	c-6.7,6.6-6.7,17.5,0,24.3c3.3,3.4,7.8,5.2,12.5,5.2c0.5,0,1,0,1.5-0.1c-0.5,0.8-5.9,10.6-0.1,24.1c1.6,3.7,3,5.7,4,7.1
	c2.4,3.4,3.2,4.5,1.4,29l0,0.7c-0.4,6.1-0.9,12.5-1.2,18.7c-0.3,8.4-0.5,18.1,2.3,27.4c0.8,2.7,1.9,5.2,3,7.6
	c0.6,1.4,1.3,2.9,1.8,4.4l0.3,0.9c2.3,5.9,4.8,12.6,8.5,17.9c3.4,5,9.3,11.1,17.9,12.4c2.2,0.3,4.3,0.5,6.3,0.5
	c6.7,0,12.8-1.6,17.7-4.9c6.9-4.4,11.3-11.6,12.9-20.8c1.6-9,0.7-14.8-0.2-20.3c-0.9-5.8-1.7-11.2,0.1-20.4c0.4-1.8,0.7-3.6,1-5.3
	c3.1-16.1,5.3-27.7,21.3-41.1c15.1-12.7,35.5-18.1,48.9-21.8c2.7-0.7,5-1.3,7-1.9c5.6-1.7,11.7-4.8,15.8-8.8c0.1,4.5,2,9.1,5.5,12.7
	c3.6,3.7,8.5,5.7,13.4,5.7c4.4,0,8.5-1.7,11.6-4.7c3.3-3.2,5-7.6,4.8-12.4c-0.2-4.7-2.1-9.2-5.5-12.7c-3.6-3.7-8.5-5.7-13.4-5.7
	c-4.4,0-8.5,1.7-11.6,4.7c-0.2,0.2-0.3,0.3-0.5,0.5c-0.5-1.8-1.6-3.8-3.9-5.7c-2.8-2.5-6.5-4.1-10.9-4.9c5.2-1.4,9.9-2.5,14.2-3.6
	c11.8-2.9,19.6-4.9,24.9-7.3c4.7-2.1,7.4-4.7,8.5-8.2c2.5,2.4,6.2,3.8,10.3,3.8c3.5,0,7.1-0.9,10.4-2.7c4.2-2.3,7.5-5.7,9.3-9.5
	C487.1,308.7,487.1,304.5,485.2,301.1z"/>
<path fill="#D4003B" d="M485.2,301.1c-2.2-4.1-6.9-6.6-12.5-6.6c-3.5,0-7.1,0.9-10.4,2.7c-4.2,2.3-7.5,5.7-9.3,9.5
	c-0.1,0.3-0.2,0.5-0.3,0.8c-2.7-3.2-6.7-4.6-9.4-4.9c0,0-0.1,0-0.1,0c-21.1-1-41.3,1.1-60,6.2c-15,4.1-29.1,10.2-42,18
	c-12.1,7.4-20.7,14.9-26.1,20.2c3.7-9.8,8.8-19.1,14.4-24.1c7.1-6.4,9.8-15.1,6.3-20.4c-0.3-0.4-0.7-1-1.3-1.5
	c0.6,0.1,1.2,0.1,1.8,0.1c3.5,0,7.1-0.9,10.4-2.7c8.9-4.8,13.1-14.3,9.4-21.2c-2.2-4.1-6.9-6.6-12.5-6.6c-3.5,0-7.1,0.9-10.4,2.7
	c-8.9,4.8-13.1,14.3-9.4,21.2c0.8,1.5,2,2.8,3.4,3.9c-3.4-0.1-8,0.8-14.2,3.8c-19.5,9.2-31.3,42.2-35.3,55.4
	c-3.3-5.9-7.3-9.1-12-9.5c-1-0.1-2,0-3,0.1c3.2-6.4,2.1-14.5-3.3-19.9c-3.3-3.4-7.8-5.2-12.5-5.2c-4.5,0-8.7,1.7-11.9,4.8
	c-6.7,6.6-6.7,17.5,0,24.3c3.3,3.4,7.8,5.2,12.5,5.2c0.5,0,1,0,1.5-0.1c-0.5,0.8-5.9,10.6-0.1,24.1c1.6,3.7,3,5.7,4,7.1
	c2.4,3.4,3.2,4.5,1.4,29l0,0.7c-0.4,6.1-0.9,12.5-1.2,18.7c-0.3,8.4-0.5,18.1,2.3,27.4c0.8,2.7,1.9,5.2,3,7.6
	c0.6,1.4,1.3,2.9,1.8,4.4l0.3,0.9c2.3,5.9,4.8,12.6,8.5,17.9c3.4,5,9.3,11.1,17.9,12.4c2.2,0.3,4.3,0.5,6.3,0.5
	c6.7,0,12.8-1.6,17.7-4.9c6.9-4.4,11.3-11.6,12.9-20.8c1.6-9,0.7-14.8-0.2-20.3c-0.9-5.8-1.7-11.2,0.1-20.4c0.4-1.8,0.7-3.6,1-5.3
	c3.1-16.1,5.3-27.7,21.3-41.1c15.1-12.7,35.5-18.1,48.9-21.8c2.7-0.7,5-1.3,7-1.9c5.6-1.7,11.7-4.8,15.8-8.8c0.1,4.5,2,9.1,5.5,12.7
	c3.6,3.7,8.5,5.7,13.4,5.7c4.4,0,8.5-1.7,11.6-4.7c3.3-3.2,5-7.6,4.8-12.4c-0.2-4.7-2.1-9.2-5.5-12.7c-3.6-3.7-8.5-5.7-13.4-5.7
	c-4.4,0-8.5,1.7-11.6,4.7c-0.2,0.2-0.3,0.3-0.5,0.5c-0.5-1.8-1.6-3.8-3.9-5.7c-2.8-2.5-6.5-4.1-10.9-4.9c5.2-1.4,9.9-2.5,14.2-3.6
	c11.8-2.9,19.6-4.9,24.9-7.3c4.7-2.1,7.4-4.7,8.5-8.2c2.5,2.4,6.2,3.8,10.3,3.8c3.5,0,7.1-0.9,10.4-2.7c4.2-2.3,7.5-5.7,9.3-9.5
	C487.1,308.7,487.1,304.5,485.2,301.1z M335.2,277c2.7-1.5,5.7-2.2,8.5-2.2c4,0,7.3,1.6,8.8,4.4c2.6,4.9-0.8,11.9-7.7,15.6
	c-2.7,1.5-5.7,2.2-8.5,2.2c-4,0-7.3-1.6-8.8-4.4C324.8,287.8,328.3,280.7,335.2,277z M238.1,349.4c-5.1-5.2-5.2-13.5-0.1-18.5
	c2.4-2.4,5.6-3.7,9-3.7c3.6,0,7,1.4,9.5,4c5.1,5.2,5.2,13.5,0.1,18.5c-2.4,2.4-5.6,3.7-9,3.7C244,353.4,240.6,352,238.1,349.4z
	 M425.7,353.3c2.3-2.2,5.4-3.5,8.7-3.5c3.8,0,7.7,1.6,10.5,4.5c2.7,2.7,4.2,6.2,4.4,9.9c0.1,3.6-1.2,6.9-3.6,9.3
	c-2.3,2.2-5.4,3.5-8.7,3.5c-3.8,0-7.7-1.6-10.5-4.5C421,367,420.6,358.4,425.7,353.3z M451.5,318.1c-0.7,6.8-7.4,8.8-30.8,14.6
	c-9.2,2.3-20.5,5.1-34.6,9.1c-15,3.8-32.8,12.8-52.8,26.7c-0.9,0.6-1.2,1.9-0.5,2.9c0.6,0.9,1.9,1.2,2.9,0.5
	c17.6-12.1,33.2-20.4,46.7-24.7c0,0,0,0,0.1,0c1.6-0.5,3.2-0.9,4.8-1.4c0.9-0.2,1.8-0.5,2.8-0.7c11.5-2.5,20.7-1.4,25.8,3.1
	c2.3,2,3.1,4,2.7,6.3c-1,4.8-8.5,10.4-17.3,13.1c-2,0.6-4.3,1.2-6.9,1.9c-13.8,3.7-34.8,9.3-50.5,22.6
	c-17.2,14.4-19.6,27.3-22.7,43.5c-0.3,1.7-0.7,3.4-1,5.2c-2,9.9-1.1,16-0.2,21.8c0.8,5.5,1.6,10.6,0.2,19
	c-2.7,15.9-15.1,24.2-32.3,21.8c-7.1-1-12.2-6.3-15.1-10.6c-3.4-5-5.9-11.4-8.1-17.1l-0.4-0.9c-0.6-1.6-1.3-3.1-1.9-4.5
	c-1.1-2.4-2.1-4.7-2.8-7.1c-2.6-8.7-2.4-18-2.1-26c0.3-6.2,0.7-12.5,1.1-18.6l0-0.7c1.8-25.1,1.1-27.1-2.2-31.7
	c-1-1.4-2.2-3-3.6-6.3c-4.8-11.2-0.7-19.3-0.2-20.3c1.8-2.3,7.4-7.9,12.8-7.4c3.4,0.3,6.4,2.9,9,7.8c0.7,1.3,1.3,2.7,1.8,4.2
	c0,0,0,0,0,0c7,19.7-0.1,52.1-0.2,52.4c-0.3,1.1,0.4,2.2,1.6,2.5c1.1,0.3,2.2-0.4,2.5-1.6c0.1-0.4,2.2-9.9,3.1-21.9
	c0.9-13.2,0-24-2.8-32.2c1.5-5.5,13.5-47.6,34.5-57.6c8.6-4.1,15.3-4.5,17.5-1.1c2,3.1,0.5,9.5-5.6,15
	c-12.6,11.3-22.5,42.1-22.1,55.4c0,1.1,1,2,2.1,2c0,0,0,0,0.1,0c1.1,0,2-1,2-2.1c-0.1-4.4,1-11.1,3.1-18.3
	c1.5-1.9,11.8-14.4,31.5-26.4c12.5-7.6,26.3-13.5,40.9-17.5c18.3-5,38-7.1,58.7-6.1C443.7,306.9,452.5,308.2,451.5,318.1z
	 M481.4,311c-1.4,3.1-4.1,5.8-7.6,7.6c-2.7,1.5-5.7,2.2-8.5,2.2c-4,0-7.3-1.6-8.8-4.4c-1.2-2.3-1.2-5.1,0.2-8
	c1.4-3.1,4.1-5.8,7.6-7.6c2.7-1.5,5.7-2.2,8.5-2.2c4,0,7.3,1.6,8.8,4.4C482.8,305.3,482.8,308.2,481.4,311z"/>
<path fill="#D4003B" d="M247.2,333.1c-1.9,0-3.7,0.7-5,2c-2.8,2.8-2.8,7.4,0,10.2c1.4,1.4,3.3,2.2,5.2,2.2c1.9,0,3.7-0.7,5-2
	c1.4-1.4,2.1-3.2,2.1-5.1c0-1.9-0.8-3.7-2.1-5.1C251,333.9,249.1,333.1,247.2,333.1z M249.5,342.6c-0.6,0.6-1.3,0.9-2.1,0.9
	c-0.9,0-1.7-0.3-2.3-1c-1.2-1.2-1.2-3.2,0-4.4c0.6-0.6,1.3-0.9,2.1-0.9c0.9,0,1.7,0.3,2.3,1c0.6,0.6,0.9,1.4,0.9,2.2
	C250.4,341.2,250.1,342,249.5,342.6z"/>
<path fill="#D4003B" d="M338.9,293.2c1.9,0,3.7-0.7,5-2c2.8-2.8,2.8-7.4,0-10.2c-1.4-1.4-3.3-2.2-5.2-2.2c-1.9,0-3.7,0.7-5,2
	c-1.4,1.4-2.1,3.2-2.1,5.1c0,1.9,0.8,3.7,2.1,5.1C335,292.4,336.9,293.2,338.9,293.2z M336.5,283.7c0.6-0.6,1.3-0.9,2.1-0.9
	c0.9,0,1.7,0.3,2.3,1c1.2,1.2,1.2,3.2,0,4.4c-0.6,0.6-1.3,0.9-2.1,0.9c-0.9,0-1.7-0.3-2.3-1c-0.6-0.6-0.9-1.4-0.9-2.2
	C335.6,285,336,284.2,336.5,283.7z"/>
<path fill="#D4003B" d="M469,302.5c-1.9,0-3.7,0.7-5,2c-1.4,1.4-2.1,3.2-2.1,5.1c0,1.9,0.8,3.7,2.1,5.1c1.4,1.4,3.3,2.2,5.2,2.2
	c1.9,0,3.7-0.7,5-2c2.8-2.8,2.8-7.4,0-10.2C472.8,303.3,471,302.5,469,302.5z M471.3,312c-0.6,0.6-1.3,0.9-2.1,0.9
	c-0.9,0-1.7-0.3-2.3-1c-0.6-0.6-0.9-1.4-0.9-2.2c0-0.8,0.3-1.6,0.9-2.2c0.6-0.6,1.3-0.9,2.1-0.9c0.9,0,1.7,0.3,2.3,1
	C472.5,308.9,472.5,310.9,471.3,312z"/>
<path fill="#D4003B" d="M434.1,370.7c1.9,0,3.7-0.7,5-2c1.4-1.4,2.1-3.2,2.1-5.1c0-1.9-0.8-3.7-2.1-5.1c-1.4-1.4-3.3-2.2-5.2-2.2
	c-1.9,0-3.7,0.7-5,2c-2.8,2.8-2.8,7.4,0,10.2C430.3,369.9,432.1,370.7,434.1,370.7z M431.7,361.2c0.6-0.6,1.3-0.9,2.1-0.9
	c0.9,0,1.7,0.3,2.3,1c0.6,0.6,0.9,1.4,0.9,2.2c0,0.8-0.3,1.6-0.9,2.2c-0.6,0.6-1.3,0.9-2.1,0.9c-0.9,0-1.7-0.3-2.3-1
	C430.6,364.4,430.5,362.4,431.7,361.2z"/>
<path fill="#F6CCD8" d="M514.8,312.8c1.8,3.9,5.1,7.3,9.3,9.5c3.3,1.8,6.9,2.7,10.4,2.7c4.2,0,7.8-1.4,10.3-3.8
	c1.1,3.5,3.8,6.1,8.5,8.2c5.3,2.4,13.1,4.3,24.9,7.3c4.3,1.1,9,2.2,14.2,3.6c-4.4,0.8-8.1,2.4-10.9,4.9c-2.2,1.9-3.4,3.9-3.9,5.7
	c-0.2-0.2-0.3-0.3-0.5-0.5c-3-3-7.2-4.7-11.6-4.7c-4.9,0-9.8,2.1-13.4,5.7c-3.4,3.5-5.4,8-5.5,12.7c-0.2,4.8,1.5,9.2,4.8,12.4
	c3,3,7.2,4.7,11.6,4.7c4.9,0,9.8-2.1,13.4-5.7c3.5-3.6,5.4-8.2,5.5-12.7c4.1,4,10.2,7.2,15.8,8.8c2,0.6,4.3,1.2,7,1.9
	c13.5,3.6,33.9,9.1,48.9,21.8c16,13.5,18.3,25.1,21.3,41.1c0.3,1.7,0.7,3.5,1,5.3c1.8,9.2,1,14.6,0.1,20.4
	c-0.8,5.6-1.7,11.3-0.2,20.3c1.6,9.2,6,16.3,12.9,20.8c5,3.2,11,4.9,17.7,4.9c2,0,4.1-0.2,6.3-0.5c8.6-1.2,14.5-7.4,17.9-12.4
	c3.7-5.4,6.3-12.1,8.5-17.9l0.3-0.9c0.6-1.5,1.2-2.9,1.8-4.4c1.1-2.4,2.2-4.9,3-7.6c2.7-9.3,2.6-19,2.3-27.4
	c-0.3-6.3-0.7-12.6-1.2-18.7l0-0.7c-1.8-24.6-1-25.6,1.4-29c1-1.4,2.4-3.4,4-7.1c5.8-13.5,0.4-23.3-0.1-24.1c0.5,0,1,0.1,1.5,0.1
	c4.7,0,9.1-1.9,12.5-5.2c6.7-6.8,6.7-17.7,0-24.3c-3.2-3.1-7.4-4.8-11.9-4.8c-4.7,0-9.1,1.9-12.5,5.2c-5.4,5.5-6.5,13.5-3.3,19.9
	c-1-0.2-2-0.2-3-0.1c-4.7,0.4-8.7,3.6-12,9.5c-4-13.2-15.8-46.1-35.3-55.4c-6.2-2.9-10.8-3.9-14.2-3.8c1.4-1,2.6-2.3,3.4-3.9
	c3.7-6.9-0.5-16.4-9.4-21.2c-3.3-1.8-6.9-2.7-10.4-2.7c-5.6,0-10.2,2.5-12.5,6.6c-3.7,6.9,0.5,16.4,9.4,21.2
	c3.3,1.8,6.9,2.7,10.4,2.7c0.6,0,1.2,0,1.8-0.1c-0.6,0.5-1,1-1.3,1.5c-3.5,5.2-0.8,14,6.3,20.4c5.6,5,10.6,14.4,14.4,24.1
	c-5.4-5.3-14-12.8-26.1-20.2c-12.8-7.8-27-13.9-42-18c-18.7-5.1-38.9-7.2-60-6.2c0,0-0.1,0-0.1,0c-2.7,0.3-6.7,1.7-9.4,4.9
	c-0.1-0.3-0.2-0.5-0.3-0.8c-1.8-3.9-5.1-7.3-9.3-9.5c-3.3-1.8-6.9-2.7-10.4-2.7c-5.6,0-10.2,2.5-12.5,6.6
	C512.9,304.5,512.9,308.7,514.8,312.8z"/>
<path fill="#D4003B" d="M514.8,312.8c1.8,3.9,5.1,7.3,9.3,9.5c3.3,1.8,6.9,2.7,10.4,2.7c4.2,0,7.8-1.4,10.3-3.8
	c1.1,3.5,3.8,6.1,8.5,8.2c5.3,2.4,13.1,4.3,24.9,7.3c4.3,1.1,9,2.2,14.2,3.6c-4.4,0.8-8.1,2.4-10.9,4.9c-2.2,1.9-3.4,3.9-3.9,5.7
	c-0.2-0.2-0.3-0.3-0.5-0.5c-3-3-7.2-4.7-11.6-4.7c-4.9,0-9.8,2.1-13.4,5.7c-3.4,3.5-5.4,8-5.5,12.7c-0.2,4.8,1.5,9.2,4.8,12.4
	c3,3,7.2,4.7,11.6,4.7c4.9,0,9.8-2.1,13.4-5.7c3.5-3.6,5.4-8.2,5.5-12.7c4.1,4,10.2,7.2,15.8,8.8c2,0.6,4.3,1.2,7,1.9
	c13.5,3.6,33.9,9.1,48.9,21.8c16,13.5,18.3,25.1,21.3,41.1c0.3,1.7,0.7,3.5,1,5.3c1.8,9.2,1,14.6,0.1,20.4
	c-0.8,5.6-1.7,11.3-0.2,20.3c1.6,9.2,6,16.3,12.9,20.8c5,3.2,11,4.9,17.7,4.9c2,0,4.1-0.2,6.3-0.5c8.6-1.2,14.5-7.4,17.9-12.4
	c3.7-5.4,6.3-12.1,8.5-17.9l0.3-0.9c0.6-1.5,1.2-2.9,1.8-4.4c1.1-2.4,2.2-4.9,3-7.6c2.7-9.3,2.6-19,2.3-27.4
	c-0.3-6.3-0.7-12.6-1.2-18.7l0-0.7c-1.8-24.6-1-25.6,1.4-29c1-1.4,2.4-3.4,4-7.1c5.8-13.5,0.4-23.3-0.1-24.1c0.5,0,1,0.1,1.5,0.1
	c4.7,0,9.1-1.9,12.5-5.2c6.7-6.8,6.7-17.7,0-24.3c-3.2-3.1-7.4-4.8-11.9-4.8c-4.7,0-9.1,1.9-12.5,5.2c-5.4,5.5-6.5,13.5-3.3,19.9
	c-1-0.2-2-0.2-3-0.1c-4.7,0.4-8.7,3.6-12,9.5c-4-13.2-15.8-46.1-35.3-55.4c-6.2-2.9-10.8-3.9-14.2-3.8c1.4-1,2.6-2.3,3.4-3.9
	c3.7-6.9-0.5-16.4-9.4-21.2c-3.3-1.8-6.9-2.7-10.4-2.7c-5.6,0-10.2,2.5-12.5,6.6c-3.7,6.9,0.5,16.4,9.4,21.2
	c3.3,1.8,6.9,2.7,10.4,2.7c0.6,0,1.2,0,1.8-0.1c-0.6,0.5-1,1-1.3,1.5c-3.5,5.2-0.8,14,6.3,20.4c5.6,5,10.6,14.4,14.4,24.1
	c-5.4-5.3-14-12.8-26.1-20.2c-12.8-7.8-27-13.9-42-18c-18.7-5.1-38.9-7.2-60-6.2c0,0-0.1,0-0.1,0c-2.7,0.3-6.7,1.7-9.4,4.9
	c-0.1-0.3-0.2-0.5-0.3-0.8c-1.8-3.9-5.1-7.3-9.3-9.5c-3.3-1.8-6.9-2.7-10.4-2.7c-5.6,0-10.2,2.5-12.5,6.6
	C512.9,304.5,512.9,308.7,514.8,312.8z M672.6,292.7c-1.5,2.8-4.8,4.4-8.8,4.4c-2.8,0-5.7-0.8-8.5-2.2c-6.9-3.7-10.4-10.7-7.7-15.6
	c1.5-2.8,4.8-4.4,8.8-4.4c2.8,0,5.7,0.8,8.5,2.2C671.7,280.7,675.2,287.8,672.6,292.7z M752.4,353.4c-3.4,0-6.6-1.3-9-3.7
	c-5.1-5-5-13.3,0.1-18.5c2.6-2.6,5.9-4,9.5-4c3.4,0,6.6,1.3,9,3.7c5.1,5,5,13.3-0.1,18.5C759.4,352,756,353.4,752.4,353.4z
	 M573.5,372.6c-2.8,2.9-6.7,4.5-10.5,4.5c-3.3,0-6.4-1.2-8.7-3.5c-2.4-2.4-3.7-5.7-3.6-9.3c0.1-3.7,1.7-7.2,4.4-9.9
	c2.8-2.9,6.7-4.5,10.5-4.5c3.3,0,6.4,1.2,8.7,3.5C579.4,358.4,579,367,573.5,372.6z M557.1,306.8c20.6-1,40.4,1.1,58.7,6.1
	c14.6,4,28.4,9.9,40.9,17.5c19.7,12,30,24.5,31.5,26.4c2.1,7.2,3.2,13.9,3.1,18.3c0,1.1,0.9,2.1,2,2.1c0,0,0,0,0.1,0
	c1.1,0,2-0.9,2.1-2c0.4-13.3-9.5-44-22.1-55.4c-6.1-5.5-7.6-12-5.6-15c2.3-3.4,9-3,17.5,1.1c21,9.9,33,52,34.5,57.6
	c-2.8,8.2-3.7,19-2.8,32.2c0.9,12.1,3,21.5,3.1,21.9c0.3,1.1,1.4,1.8,2.5,1.6c1.1-0.3,1.8-1.4,1.6-2.5c-0.1-0.3-7.2-32.7-0.2-52.4
	c0,0,0,0,0,0c0.5-1.5,1.1-2.9,1.8-4.2c2.6-4.9,5.6-7.5,9-7.8c5.4-0.5,11,5.1,12.8,7.4c0.5,1,4.6,9-0.2,20.3c-1.4,3.3-2.6,5-3.6,6.3
	c-3.3,4.6-4,6.6-2.2,31.7l0,0.7c0.4,6.1,0.9,12.4,1.1,18.6c0.3,8,0.5,17.3-2.1,26c-0.7,2.4-1.7,4.7-2.8,7.1c-0.6,1.5-1.3,3-1.9,4.5
	l-0.4,0.9c-2.2,5.7-4.7,12.1-8.1,17.1c-3,4.3-8,9.6-15.1,10.6c-17.2,2.5-29.5-5.9-32.3-21.8c-1.4-8.4-0.7-13.5,0.2-19
	c0.9-5.9,1.8-11.9-0.2-21.8c-0.4-1.8-0.7-3.5-1-5.2c-3.1-16.3-5.5-29.1-22.7-43.5c-15.8-13.3-36.7-18.9-50.5-22.6
	c-2.6-0.7-4.9-1.3-6.9-1.9c-8.8-2.7-16.3-8.3-17.3-13.1c-0.5-2.2,0.4-4.3,2.7-6.3c5.1-4.5,14.3-5.6,25.8-3.1
	c0.9,0.2,1.8,0.4,2.8,0.7c1.6,0.4,3.2,0.9,4.8,1.4c0,0,0,0,0.1,0c13.5,4.3,29.1,12.6,46.7,24.7c0.9,0.6,2.2,0.4,2.9-0.5
	c0.6-0.9,0.4-2.2-0.5-2.9c-20.1-13.9-37.8-22.8-52.8-26.7c-14.1-4-25.3-6.8-34.6-9.1c-23.3-5.8-30.1-7.8-30.8-14.6
	C547.5,308.2,556.3,306.9,557.1,306.8z M518.4,303c1.5-2.8,4.8-4.4,8.8-4.4c2.8,0,5.7,0.8,8.5,2.2c3.4,1.9,6.1,4.6,7.6,7.6
	c1.3,2.9,1.4,5.7,0.2,8c-1.5,2.8-4.8,4.4-8.8,4.4c-2.8,0-5.7-0.8-8.5-2.2c-3.4-1.9-6.1-4.6-7.6-7.6
	C517.2,308.2,517.2,305.3,518.4,303z"/>
<path fill="#D4003B" d="M747.6,335.3c-1.4,1.4-2.1,3.2-2.1,5.1c0,1.9,0.7,3.8,2.1,5.1c1.3,1.3,3.1,2,5,2c2,0,3.8-0.8,5.2-2.2
	c2.8-2.9,2.8-7.5,0-10.2c-1.3-1.3-3.1-2-5-2C750.9,333.1,749,333.9,747.6,335.3z M749.6,340.4c0-0.8,0.3-1.6,0.9-2.2
	c0.6-0.6,1.4-1,2.3-1c0.8,0,1.6,0.3,2.1,0.9c1.2,1.2,1.2,3.2,0,4.4c-0.6,0.6-1.4,1-2.3,1c-0.8,0-1.6-0.3-2.1-0.9
	C749.9,342,749.6,341.2,749.6,340.4z"/>
<path fill="#D4003B" d="M666.4,291c1.4-1.4,2.1-3.2,2.1-5.1c0-1.9-0.7-3.8-2.1-5.1c-1.3-1.3-3.1-2-5-2c-2,0-3.8,0.8-5.2,2.2
	c-2.8,2.9-2.8,7.5,0,10.2c1.3,1.3,3.1,2,5,2C663.1,293.2,665,292.4,666.4,291z M664.4,285.8c0,0.8-0.3,1.6-0.9,2.2
	c-0.6,0.6-1.4,1-2.3,1c-0.8,0-1.6-0.3-2.1-0.9c-1.2-1.2-1.2-3.2,0-4.4c0.6-0.6,1.4-1,2.3-1c0.8,0,1.6,0.3,2.1,0.9
	C664,284.2,664.4,285,664.4,285.8z"/>
<path fill="#D4003B" d="M525.8,304.7c-2.8,2.9-2.8,7.5,0,10.2c1.3,1.3,3.1,2,5,2c2,0,3.8-0.8,5.2-2.2c1.4-1.4,2.1-3.2,2.1-5.1
	c0-1.9-0.7-3.8-2.1-5.1c-1.3-1.3-3.1-2-5-2C529,302.5,527.2,303.3,525.8,304.7z M528.7,307.6c0.6-0.6,1.4-1,2.3-1
	c0.8,0,1.6,0.3,2.1,0.9c0.6,0.6,0.9,1.3,0.9,2.2c0,0.8-0.3,1.6-0.9,2.2c-0.6,0.6-1.4,1-2.3,1c-0.8,0-1.6-0.3-2.1-0.9
	C527.5,310.9,527.5,308.9,528.7,307.6z"/>
<path fill="#D4003B" d="M571.1,368.5c2.8-2.9,2.8-7.5,0-10.2c-1.3-1.3-3.1-2-5-2c-2,0-3.8,0.8-5.2,2.2c-1.4,1.4-2.1,3.2-2.1,5.1
	c0,1.9,0.7,3.8,2.1,5.1c1.3,1.3,3.1,2,5,2C567.9,370.7,569.7,369.9,571.1,368.5z M568.2,365.6c-0.6,0.6-1.4,1-2.3,1
	c-0.8,0-1.6-0.3-2.1-0.9c-0.6-0.6-0.9-1.3-0.9-2.2c0-0.8,0.3-1.6,0.9-2.2c0.6-0.6,1.4-1,2.3-1c0.8,0,1.6,0.3,2.1,0.9
	C569.5,362.4,569.4,364.4,568.2,365.6z"/>
<path fill="#F6CCD8" d="M508.2,230.6c1.2,2.3,3.8,3.7,7,3.7c2,0,4-0.5,5.8-1.5c2.4-1.3,4.2-3.2,5.2-5.3c0.1-0.1,0.1-0.3,0.2-0.4
	c1.5,1.8,3.7,2.6,5.3,2.8c0,0,0,0,0.1,0c11.8,0.6,23.1-0.6,33.5-3.5c8.4-2.3,16.3-5.7,23.5-10.1c6.8-4.1,11.6-8.3,14.6-11.3
	c-2.1,5.5-4.9,10.7-8,13.5c-4,3.6-5.5,8.4-3.5,11.4c0.2,0.2,0.4,0.5,0.7,0.8c-0.3,0-0.7-0.1-1-0.1c-2,0-4,0.5-5.8,1.5
	c-5,2.7-7.3,8-5.3,11.9c1.2,2.3,3.8,3.7,7,3.7c2,0,4-0.5,5.8-1.5c5-2.7,7.3-8,5.3-11.9c-0.5-0.9-1.1-1.6-1.9-2.2
	c1.9,0.1,4.5-0.5,7.9-2.1c10.9-5.2,17.5-23.6,19.7-30.9c1.8,3.3,4.1,5.1,6.7,5.3c0.6,0,1.1,0,1.7-0.1c-1.8,3.6-1.2,8.1,1.8,11.1
	c1.9,1.9,4.3,2.9,7,2.9c2.5,0,4.9-1,6.6-2.7c3.7-3.7,3.7-9.8,0-13.6c-1.9-1.9-4.3-2.9-7-2.9c-0.3,0-0.5,0-0.8,0
	c0.3-0.5,3.3-5.9,0.1-13.5c-0.9-2.1-1.7-3.2-2.2-4c-1.4-1.9-1.8-2.5-0.8-16.2l0-0.4c0.2-3.4,0.5-7,0.6-10.5
	c0.2-4.7,0.3-10.1-1.3-15.3c-0.4-1.5-1.1-2.9-1.7-4.2c-0.4-0.8-0.7-1.6-1-2.4l-0.2-0.5c-1.3-3.3-2.7-7-4.8-10
	c-1.9-2.8-5.2-6.2-10-6.9c-1.2-0.2-2.4-0.3-3.5-0.3c-3.7,0-7.1,0.9-9.9,2.7c-3.8,2.5-6.3,6.5-7.2,11.6c-0.9,5-0.4,8.3,0.1,11.4
	c0.5,3.2,0.9,6.3-0.1,11.4c-0.2,1-0.4,2-0.6,2.9c-1.7,9-2.9,15.5-11.9,23c-8.4,7.1-19.8,10.1-27.4,12.2c-1.5,0.4-2.8,0.7-3.9,1.1
	c-3.1,0.9-6.5,2.7-8.8,4.9c-0.1-2.5-1.1-5.1-3.1-7.1c-2-2-4.7-3.2-7.5-3.2c-2.5,0-4.8,0.9-6.5,2.6c-1.8,1.8-2.8,4.3-2.7,6.9
	c0.1,2.6,1.2,5.1,3.1,7.1c2,2,4.7,3.2,7.5,3.2c2.5,0,4.8-0.9,6.5-2.6c0.1-0.1,0.2-0.2,0.3-0.3c0.3,1,0.9,2.1,2.2,3.2
	c1.6,1.4,3.6,2.3,6.1,2.7c-2.9,0.8-5.6,1.4-7.9,2c-6.6,1.6-11,2.7-13.9,4.1c-2.6,1.2-4.1,2.6-4.7,4.6c-1.4-1.4-3.4-2.1-5.8-2.1
	c-2,0-4,0.5-5.8,1.5c-2.4,1.3-4.2,3.2-5.2,5.3C507.2,226.4,507.2,228.7,508.2,230.6z"/>
<path fill="#D4003B" d="M508.2,230.6c1.2,2.3,3.8,3.7,7,3.7c2,0,4-0.5,5.8-1.5c2.4-1.3,4.2-3.2,5.2-5.3c0.1-0.1,0.1-0.3,0.2-0.4
	c1.5,1.8,3.7,2.6,5.3,2.8c0,0,0,0,0.1,0c11.8,0.6,23.1-0.6,33.5-3.5c8.4-2.3,16.3-5.7,23.5-10.1c6.8-4.1,11.6-8.3,14.6-11.3
	c-2.1,5.5-4.9,10.7-8,13.5c-4,3.6-5.5,8.4-3.5,11.4c0.2,0.2,0.4,0.5,0.7,0.8c-0.3,0-0.7-0.1-1-0.1c-2,0-4,0.5-5.8,1.5
	c-5,2.7-7.3,8-5.3,11.9c1.2,2.3,3.8,3.7,7,3.7c2,0,4-0.5,5.8-1.5c5-2.7,7.3-8,5.3-11.9c-0.5-0.9-1.1-1.6-1.9-2.2
	c1.9,0.1,4.5-0.5,7.9-2.1c10.9-5.2,17.5-23.6,19.7-30.9c1.8,3.3,4.1,5.1,6.7,5.3c0.6,0,1.1,0,1.7-0.1c-1.8,3.6-1.2,8.1,1.8,11.1
	c1.9,1.9,4.3,2.9,7,2.9c2.5,0,4.9-1,6.6-2.7c3.7-3.7,3.7-9.8,0-13.6c-1.9-1.9-4.3-2.9-7-2.9c-0.3,0-0.5,0-0.8,0
	c0.3-0.5,3.3-5.9,0.1-13.5c-0.9-2.1-1.7-3.2-2.2-4c-1.4-1.9-1.8-2.5-0.8-16.2l0-0.4c0.2-3.4,0.5-7,0.6-10.5
	c0.2-4.7,0.3-10.1-1.3-15.3c-0.4-1.5-1.1-2.9-1.7-4.2c-0.4-0.8-0.7-1.6-1-2.4l-0.2-0.5c-1.3-3.3-2.7-7-4.8-10
	c-1.9-2.8-5.2-6.2-10-6.9c-1.2-0.2-2.4-0.3-3.5-0.3c-3.7,0-7.1,0.9-9.9,2.7c-3.8,2.5-6.3,6.5-7.2,11.6c-0.9,5-0.4,8.3,0.1,11.4
	c0.5,3.2,0.9,6.3-0.1,11.4c-0.2,1-0.4,2-0.6,2.9c-1.7,9-2.9,15.5-11.9,23c-8.4,7.1-19.8,10.1-27.4,12.2c-1.5,0.4-2.8,0.7-3.9,1.1
	c-3.1,0.9-6.5,2.7-8.8,4.9c-0.1-2.5-1.1-5.1-3.1-7.1c-2-2-4.7-3.2-7.5-3.2c-2.5,0-4.8,0.9-6.5,2.6c-1.8,1.8-2.8,4.3-2.7,6.9
	c0.1,2.6,1.2,5.1,3.1,7.1c2,2,4.7,3.2,7.5,3.2c2.5,0,4.8-0.9,6.5-2.6c0.1-0.1,0.2-0.2,0.3-0.3c0.3,1,0.9,2.1,2.2,3.2
	c1.6,1.4,3.6,2.3,6.1,2.7c-2.9,0.8-5.6,1.4-7.9,2c-6.6,1.6-11,2.7-13.9,4.1c-2.6,1.2-4.1,2.6-4.7,4.6c-1.4-1.4-3.4-2.1-5.8-2.1
	c-2,0-4,0.5-5.8,1.5c-2.4,1.3-4.2,3.2-5.2,5.3C507.2,226.4,507.2,228.7,508.2,230.6z M592.1,244c-1.5,0.8-3.2,1.3-4.7,1.3
	c-2.3,0-4.1-0.9-4.9-2.5c-1.5-2.7,0.5-6.7,4.3-8.7c1.5-0.8,3.2-1.3,4.7-1.3c2.3,0,4.1,0.9,4.9,2.5C597.9,238.1,596,242,592.1,244z
	 M646.4,203.6c2.9,2.9,2.9,7.5,0,10.3c-1.3,1.3-3.1,2-5,2c-2,0-3.9-0.8-5.3-2.2c-2.9-2.9-2.9-7.5,0-10.3c1.3-1.3,3.1-2,5-2
	C643.1,201.4,645,202.2,646.4,203.6z M541.5,201.4c-1.3,1.3-3,1.9-4.9,1.9c-2.1,0-4.3-0.9-5.9-2.5c-1.5-1.5-2.4-3.5-2.4-5.5
	c-0.1-2,0.6-3.9,2-5.2c1.3-1.3,3-1.9,4.9-1.9c2.1,0,4.3,0.9,5.9,2.5C544.2,193.8,544.4,198.6,541.5,201.4z M527.1,221.1
	c0.4-3.8,4.2-4.9,17.2-8.2c5.2-1.3,11.5-2.9,19.3-5.1c8.4-2.1,18.3-7.2,29.5-14.9c0.5-0.4,0.7-1.1,0.3-1.6c-0.4-0.5-1.1-0.7-1.6-0.3
	c-9.8,6.8-18.6,11.4-26.1,13.8c0,0,0,0,0,0c-0.9,0.3-1.8,0.5-2.7,0.8c-0.5,0.1-1,0.3-1.5,0.4c-6.4,1.4-11.5,0.8-14.4-1.7
	c-1.3-1.1-1.8-2.3-1.5-3.5c0.6-2.7,4.8-5.8,9.7-7.3c1.1-0.3,2.4-0.7,3.9-1.1c7.7-2.1,19.4-5.2,28.2-12.6c9.6-8.1,11-15.2,12.7-24.3
	c0.2-1,0.4-1.9,0.6-2.9c1.1-5.5,0.6-8.9,0.1-12.2c-0.5-3.1-0.9-5.9-0.1-10.6c1.5-8.9,8.4-13.6,18-12.2c4,0.6,6.8,3.5,8.4,5.9
	c1.9,2.8,3.3,6.4,4.5,9.5l0.2,0.5c0.3,0.9,0.7,1.7,1.1,2.5c0.6,1.3,1.2,2.6,1.6,4c1.4,4.9,1.4,10.1,1.2,14.5
	c-0.1,3.5-0.4,7-0.6,10.4l0,0.4c-1,14-0.6,15.2,1.2,17.7c0.5,0.8,1.2,1.7,2,3.5c2.7,6.3,0.4,10.8,0.1,11.3c-1,1.3-4.2,4.4-7.2,4.1
	c-1.9-0.2-3.6-1.6-5-4.4c-0.4-0.7-0.7-1.5-1-2.4c0,0,0,0,0,0c-3.9-11,0.1-29.1,0.1-29.3c0.1-0.6-0.2-1.2-0.9-1.4
	c-0.6-0.1-1.2,0.2-1.4,0.9c-0.1,0.2-1.2,5.5-1.7,12.3c-0.5,7.4,0,13.4,1.6,18c-0.8,3.1-7.5,26.6-19.3,32.2c-4.8,2.3-8.5,2.5-9.8,0.6
	c-1.1-1.7-0.3-5.3,3.1-8.4c7-6.3,12.6-23.5,12.3-30.9c0-0.6-0.5-1.1-1.2-1.1c0,0,0,0,0,0c-0.6,0-1.1,0.6-1.1,1.2
	c0.1,2.5-0.6,6.2-1.7,10.2c-0.8,1.1-6.6,8-17.6,14.7c-7,4.3-14.7,7.6-22.9,9.8c-10.2,2.8-21.3,3.9-32.8,3.4
	C531.5,227.4,526.5,226.6,527.1,221.1z M510.4,225.1c0.8-1.7,2.3-3.2,4.2-4.3c1.5-0.8,3.2-1.3,4.7-1.3c2.3,0,4.1,0.9,4.9,2.5
	c0.7,1.3,0.6,2.9-0.1,4.5c-0.8,1.7-2.3,3.2-4.2,4.3c-1.5,0.8-3.2,1.3-4.7,1.3c-2.3,0-4.1-0.9-4.9-2.5
	C509.6,228.2,509.6,226.7,510.4,225.1z"/>
<path fill="#D4003B" d="M641.3,212.7c1.1,0,2.1-0.4,2.8-1.1c1.6-1.6,1.6-4.1,0-5.7c-0.8-0.8-1.8-1.2-2.9-1.2c-1.1,0-2.1,0.4-2.8,1.1
	c-0.8,0.8-1.2,1.8-1.2,2.9c0,1.1,0.4,2.1,1.2,2.9C639.2,212.3,640.2,212.7,641.3,212.7z M640,207.4c0.3-0.3,0.7-0.5,1.2-0.5
	c0.5,0,0.9,0.2,1.3,0.5c0.7,0.7,0.7,1.8,0,2.5c-0.3,0.3-0.7,0.5-1.2,0.5c-0.5,0-0.9-0.2-1.3-0.5c-0.3-0.3-0.5-0.8-0.5-1.3
	C639.5,208.2,639.7,207.7,640,207.4z"/>
<path fill="#D4003B" d="M590,235c-1.1,0-2.1,0.4-2.8,1.1c-1.6,1.6-1.6,4.1,0,5.7c0.8,0.8,1.8,1.2,2.9,1.2c1.1,0,2.1-0.4,2.8-1.1
	c0.8-0.8,1.2-1.8,1.2-2.9c0-1.1-0.4-2.1-1.2-2.9C592.2,235.5,591.1,235,590,235z M591.4,240.3c-0.3,0.3-0.7,0.5-1.2,0.5
	c-0.5,0-0.9-0.2-1.3-0.5c-0.7-0.7-0.7-1.8,0-2.5c0.3-0.3,0.7-0.5,1.2-0.5c0.5,0,0.9,0.2,1.3,0.5c0.3,0.3,0.5,0.8,0.5,1.3
	C591.8,239.6,591.7,240,591.4,240.3z"/>
<path fill="#D4003B" d="M517.3,229.8c1.1,0,2.1-0.4,2.8-1.1c0.8-0.8,1.2-1.8,1.2-2.9c0-1.1-0.4-2.1-1.2-2.9
	c-0.8-0.8-1.8-1.2-2.9-1.2c-1.1,0-2.1,0.4-2.8,1.1c-1.6,1.6-1.6,4.1,0,5.7C515.2,229.4,516.2,229.8,517.3,229.8z M516,224.5
	c0.3-0.3,0.7-0.5,1.2-0.5c0.5,0,0.9,0.2,1.3,0.5c0.3,0.3,0.5,0.8,0.5,1.3c0,0.5-0.2,0.9-0.5,1.2c-0.3,0.3-0.7,0.5-1.2,0.5
	c-0.5,0-0.9-0.2-1.3-0.5C515.4,226.3,515.4,225.1,516,224.5z"/>
<path fill="#D4003B" d="M536.8,191.7c-1.1,0-2.1,0.4-2.8,1.1c-0.8,0.8-1.2,1.8-1.2,2.9c0,1.1,0.4,2.1,1.2,2.9
	c0.8,0.8,1.8,1.2,2.9,1.2c1.1,0,2.1-0.4,2.8-1.1c1.6-1.6,1.6-4.1,0-5.7C539,192.1,537.9,191.7,536.8,191.7z M538.1,197
	c-0.3,0.3-0.7,0.5-1.2,0.5c-0.5,0-0.9-0.2-1.3-0.5c-0.3-0.3-0.5-0.8-0.5-1.3c0-0.5,0.2-0.9,0.5-1.2c0.3-0.3,0.7-0.5,1.2-0.5
	c0.5,0,0.9,0.2,1.3,0.5C538.8,195.2,538.8,196.3,538.1,197z"/>
<path fill="#F6CCD8" d="M491.7,224.1c-1-2.2-2.9-4.1-5.2-5.3c-1.9-1-3.9-1.5-5.8-1.5c-2.3,0-4.4,0.8-5.8,2.1c-0.6-2-2.1-3.4-4.7-4.6
	c-2.9-1.3-7.3-2.4-13.9-4.1c-2.4-0.6-5-1.3-7.9-2c2.5-0.4,4.5-1.3,6.1-2.7c1.2-1.1,1.9-2.2,2.2-3.2c0.1,0.1,0.2,0.2,0.3,0.3
	c1.7,1.7,4,2.6,6.5,2.6c2.8,0,5.5-1.2,7.5-3.2c1.9-1.9,3-4.4,3.1-7.1c0.1-2.7-0.9-5.1-2.7-6.9c-1.7-1.7-4-2.6-6.5-2.6
	c-2.8,0-5.5,1.2-7.5,3.2c-2,2-3,4.6-3.1,7.1c-2.3-2.2-5.7-4-8.8-4.9c-1.1-0.3-2.4-0.7-3.9-1.1c-7.5-2-18.9-5.1-27.4-12.2
	c-9-7.5-10.2-14-11.9-23c-0.2-1-0.4-1.9-0.6-2.9c-1-5.1-0.6-8.2-0.1-11.4c0.5-3.1,1-6.3,0.1-11.4c-0.9-5.1-3.4-9.1-7.2-11.6
	c-2.8-1.8-6.2-2.7-9.9-2.7c-1.1,0-2.3,0.1-3.5,0.3c-4.8,0.7-8.1,4.1-10,6.9c-2.1,3-3.5,6.7-4.8,10l-0.2,0.5c-0.3,0.8-0.7,1.6-1,2.4
	c-0.6,1.4-1.2,2.7-1.7,4.2c-1.5,5.2-1.5,10.6-1.3,15.3c0.1,3.5,0.4,7,0.6,10.5l0,0.4c1,13.7,0.6,14.3-0.8,16.2
	c-0.6,0.8-1.3,1.9-2.2,4c-3.2,7.5-0.2,13,0.1,13.5c-0.3,0-0.5,0-0.8,0c-2.6,0-5.1,1-7,2.9c-3.8,3.8-3.8,9.9,0,13.6
	c1.8,1.7,4.1,2.7,6.6,2.7c2.6,0,5.1-1,7-2.9c3-3,3.6-7.6,1.8-11.1c0.5,0.1,1.1,0.1,1.7,0.1c2.6-0.2,4.9-2,6.7-5.3
	c2.2,7.4,8.8,25.8,19.7,30.9c3.5,1.6,6,2.2,7.9,2.1c-0.8,0.6-1.4,1.3-1.9,2.2c-2.1,3.9,0.3,9.2,5.3,11.9c1.9,1,3.9,1.5,5.8,1.5
	c3.1,0,5.7-1.4,7-3.7c2.1-3.9-0.3-9.2-5.3-11.9c-1.9-1-3.9-1.5-5.8-1.5c-0.3,0-0.7,0-1,0.1c0.3-0.3,0.5-0.6,0.7-0.8
	c2-2.9,0.4-7.8-3.5-11.4c-3.1-2.8-5.9-8-8-13.5c3,3,7.8,7.2,14.6,11.3c7.2,4.4,15.1,7.8,23.5,10.1c10.5,2.9,21.8,4,33.5,3.5
	c0,0,0,0,0.1,0c1.5-0.2,3.7-0.9,5.3-2.8c0.1,0.1,0.1,0.3,0.2,0.4c1,2.2,2.9,4.1,5.2,5.3c1.9,1,3.9,1.5,5.8,1.5c3.1,0,5.7-1.4,7-3.7
	C492.8,228.7,492.8,226.4,491.7,224.1z"/>
<path fill="#D4003B" d="M491.7,224.1c-1-2.2-2.9-4.1-5.2-5.3c-1.9-1-3.9-1.5-5.8-1.5c-2.3,0-4.4,0.8-5.8,2.1c-0.6-2-2.1-3.4-4.7-4.6
	c-2.9-1.3-7.3-2.4-13.9-4.1c-2.4-0.6-5-1.3-7.9-2c2.5-0.4,4.5-1.3,6.1-2.7c1.2-1.1,1.9-2.2,2.2-3.2c0.1,0.1,0.2,0.2,0.3,0.3
	c1.7,1.7,4,2.6,6.5,2.6c2.8,0,5.5-1.2,7.5-3.2c1.9-1.9,3-4.4,3.1-7.1c0.1-2.7-0.9-5.1-2.7-6.9c-1.7-1.7-4-2.6-6.5-2.6
	c-2.8,0-5.5,1.2-7.5,3.2c-2,2-3,4.6-3.1,7.1c-2.3-2.2-5.7-4-8.8-4.9c-1.1-0.3-2.4-0.7-3.9-1.1c-7.5-2-18.9-5.1-27.4-12.2
	c-9-7.5-10.2-14-11.9-23c-0.2-1-0.4-1.9-0.6-2.9c-1-5.1-0.6-8.2-0.1-11.4c0.5-3.1,1-6.3,0.1-11.4c-0.9-5.1-3.4-9.1-7.2-11.6
	c-2.8-1.8-6.2-2.7-9.9-2.7c-1.1,0-2.3,0.1-3.5,0.3c-4.8,0.7-8.1,4.1-10,6.9c-2.1,3-3.5,6.7-4.8,10l-0.2,0.5c-0.3,0.8-0.7,1.6-1,2.4
	c-0.6,1.4-1.2,2.7-1.7,4.2c-1.5,5.2-1.5,10.6-1.3,15.3c0.1,3.5,0.4,7,0.6,10.5l0,0.4c1,13.7,0.6,14.3-0.8,16.2
	c-0.6,0.8-1.3,1.9-2.2,4c-3.2,7.5-0.2,13,0.1,13.5c-0.3,0-0.5,0-0.8,0c-2.6,0-5.1,1-7,2.9c-3.8,3.8-3.8,9.9,0,13.6
	c1.8,1.7,4.1,2.7,6.6,2.7c2.6,0,5.1-1,7-2.9c3-3,3.6-7.6,1.8-11.1c0.5,0.1,1.1,0.1,1.7,0.1c2.6-0.2,4.9-2,6.7-5.3
	c2.2,7.4,8.8,25.8,19.7,30.9c3.5,1.6,6,2.2,7.9,2.1c-0.8,0.6-1.4,1.3-1.9,2.2c-2.1,3.9,0.3,9.2,5.3,11.9c1.9,1,3.9,1.5,5.8,1.5
	c3.1,0,5.7-1.4,7-3.7c2.1-3.9-0.3-9.2-5.3-11.9c-1.9-1-3.9-1.5-5.8-1.5c-0.3,0-0.7,0-1,0.1c0.3-0.3,0.5-0.6,0.7-0.8
	c2-2.9,0.4-7.8-3.5-11.4c-3.1-2.8-5.9-8-8-13.5c3,3,7.8,7.2,14.6,11.3c7.2,4.4,15.1,7.8,23.5,10.1c10.5,2.9,21.8,4,33.5,3.5
	c0,0,0,0,0.1,0c1.5-0.2,3.7-0.9,5.3-2.8c0.1,0.1,0.1,0.3,0.2,0.4c1,2.2,2.9,4.1,5.2,5.3c1.9,1,3.9,1.5,5.8,1.5c3.1,0,5.7-1.4,7-3.7
	C492.8,228.7,492.8,226.4,491.7,224.1z M403.6,235.3c0.8-1.5,2.7-2.5,4.9-2.5c1.6,0,3.2,0.4,4.7,1.3c3.9,2.1,5.8,6,4.3,8.7
	c-0.8,1.5-2.7,2.5-4.9,2.5c-1.6,0-3.2-0.4-4.7-1.3C404,242,402.1,238.1,403.6,235.3z M358.9,201.4c1.9,0,3.7,0.7,5,2
	c2.8,2.8,2.8,7.4,0,10.3c-1.4,1.4-3.3,2.2-5.3,2.2c-1.9,0-3.7-0.7-5-2c-2.8-2.8-2.8-7.4,0-10.3C355,202.2,356.9,201.4,358.9,201.4z
	 M458.9,190.7c1.6-1.6,3.7-2.5,5.9-2.5c1.9,0,3.6,0.7,4.9,1.9c1.4,1.3,2.1,3.2,2,5.2c-0.1,2-0.9,4-2.4,5.5c-1.6,1.6-3.7,2.5-5.9,2.5
	c-1.9,0-3.6-0.7-4.9-1.9C455.6,198.6,455.8,193.8,458.9,190.7z M468.1,227.4c-11.5,0.5-22.6-0.6-32.8-3.4
	c-8.2-2.2-15.9-5.5-22.9-9.8c-11-6.7-16.7-13.7-17.6-14.7c-1.2-4-1.8-7.8-1.7-10.2c0-0.6-0.5-1.2-1.1-1.2c0,0,0,0,0,0
	c-0.6,0-1.1,0.5-1.2,1.1c-0.2,7.4,5.3,24.6,12.3,30.9c3.4,3.1,4.3,6.7,3.1,8.4c-1.3,1.9-5,1.7-9.8-0.6
	c-11.7-5.6-18.4-29.1-19.3-32.2c1.6-4.6,2.1-10.6,1.6-18c-0.5-6.7-1.7-12-1.7-12.3c-0.1-0.6-0.8-1-1.4-0.9c-0.6,0.1-1,0.8-0.9,1.4
	c0,0.2,4,18.3,0.1,29.3c0,0,0,0,0,0c-0.3,0.8-0.6,1.6-1,2.4c-1.5,2.7-3.2,4.2-5,4.4c-3,0.3-6.1-2.8-7.2-4.1
	c-0.3-0.6-2.6-5.1,0.1-11.3c0.8-1.8,1.5-2.8,2-3.5c1.8-2.6,2.2-3.7,1.2-17.7l0-0.4c-0.2-3.4-0.5-6.9-0.6-10.4
	c-0.2-4.5-0.3-9.7,1.2-14.5c0.4-1.4,1-2.6,1.6-4c0.4-0.8,0.7-1.7,1.1-2.5l0.2-0.5c1.2-3.2,2.6-6.8,4.5-9.5c1.7-2.4,4.5-5.4,8.4-5.9
	c9.6-1.4,16.5,3.3,18,12.2c0.8,4.7,0.4,7.6-0.1,10.6c-0.5,3.3-1,6.7,0.1,12.2c0.2,1,0.4,2,0.6,2.9c1.7,9.1,3.1,16.3,12.7,24.3
	c8.8,7.4,20.5,10.5,28.2,12.6c1.5,0.4,2.8,0.7,3.9,1.1c4.9,1.5,9.1,4.6,9.7,7.3c0.3,1.2-0.2,2.4-1.5,3.5c-2.9,2.5-8,3.1-14.4,1.7
	c-0.5-0.1-1-0.2-1.5-0.4c-0.9-0.3-1.8-0.5-2.7-0.8c0,0,0,0,0,0c-7.5-2.4-16.3-7-26.1-13.8c-0.5-0.4-1.2-0.2-1.6,0.3
	c-0.4,0.5-0.2,1.2,0.3,1.6c11.2,7.7,21.1,12.8,29.5,14.9c7.9,2.2,14.2,3.8,19.3,5.1c13,3.2,16.8,4.4,17.2,8.2
	C473.5,226.6,468.5,227.4,468.1,227.4z M489.7,229.5c-0.8,1.5-2.7,2.5-4.9,2.5c-1.6,0-3.2-0.4-4.7-1.3c-1.9-1-3.4-2.6-4.2-4.3
	c-0.7-1.6-0.8-3.2-0.1-4.5c0.8-1.5,2.7-2.5,4.9-2.5c1.6,0,3.2,0.4,4.7,1.3c1.9,1,3.4,2.6,4.2,4.3
	C490.4,226.7,490.4,228.2,489.7,229.5z"/>
<path fill="#D4003B" d="M361.6,211.5c0.8-0.8,1.2-1.8,1.2-2.9c0-1.1-0.4-2.1-1.2-2.9c-0.7-0.7-1.7-1.1-2.8-1.1
	c-1.1,0-2.1,0.4-2.9,1.2c-1.6,1.6-1.6,4.2,0,5.7c0.7,0.7,1.7,1.1,2.8,1.1C359.8,212.7,360.8,212.3,361.6,211.5z M360.5,208.6
	c0,0.5-0.2,0.9-0.5,1.3c-0.3,0.3-0.8,0.5-1.3,0.5c-0.4,0-0.9-0.2-1.2-0.5c-0.7-0.7-0.7-1.8,0-2.5c0.3-0.3,0.8-0.5,1.3-0.5
	c0.4,0,0.9,0.2,1.2,0.5C360.3,207.7,360.5,208.2,360.5,208.6z"/>
<path fill="#D4003B" d="M407,236.3c-0.8,0.8-1.2,1.8-1.2,2.9c0,1.1,0.4,2.1,1.2,2.9c0.7,0.7,1.7,1.1,2.8,1.1c1.1,0,2.1-0.4,2.9-1.2
	c1.6-1.6,1.6-4.2,0-5.7c-0.7-0.7-1.7-1.1-2.8-1.1C408.8,235,407.8,235.5,407,236.3z M408.2,239.1c0-0.5,0.2-0.9,0.5-1.3
	c0.3-0.3,0.8-0.5,1.3-0.5c0.4,0,0.9,0.2,1.2,0.5c0.7,0.7,0.7,1.8,0,2.5c-0.3,0.3-0.8,0.5-1.3,0.5c-0.4,0-0.9-0.2-1.2-0.5
	C408.3,240,408.1,239.6,408.2,239.1z"/>
<path fill="#D4003B" d="M485.6,228.6c1.6-1.6,1.6-4.2,0-5.7c-0.7-0.7-1.7-1.1-2.8-1.1c-1.1,0-2.1,0.4-2.9,1.2
	c-0.8,0.8-1.2,1.8-1.2,2.9c0,1.1,0.4,2.1,1.2,2.9c0.7,0.7,1.7,1.1,2.8,1.1C483.8,229.8,484.8,229.4,485.6,228.6z M483.9,226.9
	c-0.3,0.3-0.8,0.5-1.3,0.5c-0.4,0-0.9-0.2-1.2-0.5c-0.3-0.3-0.5-0.7-0.5-1.2c0-0.5,0.2-0.9,0.5-1.3c0.3-0.3,0.8-0.5,1.3-0.5
	c0.4,0,0.9,0.2,1.2,0.5C484.6,225.1,484.6,226.3,483.9,226.9z"/>
<path fill="#D4003B" d="M460.2,192.9c-1.6,1.6-1.6,4.2,0,5.7c0.7,0.7,1.7,1.1,2.8,1.1c1.1,0,2.1-0.4,2.9-1.2
	c0.8-0.8,1.2-1.8,1.2-2.9c0-1.1-0.4-2.1-1.2-2.9c-0.7-0.7-1.7-1.1-2.8-1.1C462.1,191.7,461,192.1,460.2,192.9z M461.9,194.5
	c0.3-0.3,0.8-0.5,1.3-0.5c0.4,0,0.9,0.2,1.2,0.5c0.3,0.3,0.5,0.7,0.5,1.2c0,0.5-0.2,0.9-0.5,1.3c-0.3,0.3-0.8,0.5-1.3,0.5
	c-0.4,0-0.9-0.2-1.2-0.5C461.2,196.3,461.2,195.2,461.9,194.5z"/>
<path fill="#F6CCD8" d="M491.8,794.4c-1.2-2.3-3.8-3.7-7-3.7c-2,0-4,0.5-5.8,1.5c-2.4,1.3-4.2,3.2-5.2,5.3c-0.1,0.1-0.1,0.3-0.2,0.4
	c-1.5-1.8-3.7-2.6-5.3-2.8c0,0,0,0-0.1,0c-11.8-0.6-23.1,0.6-33.5,3.5c-8.4,2.3-16.3,5.7-23.5,10.1c-6.8,4.1-11.6,8.3-14.6,11.3
	c2.1-5.5,4.9-10.7,8-13.5c4-3.6,5.5-8.4,3.5-11.4c-0.2-0.2-0.4-0.5-0.7-0.8c0.3,0,0.7,0.1,1,0.1c2,0,4-0.5,5.8-1.5
	c5-2.7,7.3-8,5.3-11.9c-1.2-2.3-3.8-3.7-7-3.7c-2,0-4,0.5-5.8,1.5c-5,2.7-7.3,8-5.3,11.9c0.5,0.9,1.1,1.6,1.9,2.2
	c-1.9-0.1-4.5,0.5-7.9,2.1c-10.9,5.2-17.5,23.6-19.7,30.9c-1.8-3.3-4.1-5.1-6.7-5.3c-0.6,0-1.1,0-1.7,0.1c1.8-3.6,1.2-8.1-1.8-11.1
	c-1.9-1.9-4.3-2.9-7-2.9c-2.5,0-4.9,1-6.6,2.7c-3.7,3.7-3.7,9.8,0,13.6c1.9,1.9,4.3,2.9,7,2.9c0.3,0,0.5,0,0.8,0
	c-0.3,0.5-3.3,5.9-0.1,13.5c0.9,2.1,1.7,3.2,2.2,4c1.4,1.9,1.8,2.5,0.8,16.2l0,0.4c-0.2,3.4-0.5,7-0.6,10.5
	c-0.2,4.7-0.3,10.1,1.3,15.3c0.4,1.5,1.1,2.9,1.7,4.2c0.4,0.8,0.7,1.6,1,2.4l0.2,0.5c1.3,3.3,2.7,7,4.8,10c1.9,2.8,5.2,6.2,10,6.9
	c1.2,0.2,2.4,0.3,3.5,0.3c3.7,0,7.1-0.9,9.9-2.7c3.8-2.5,6.3-6.5,7.2-11.6c0.9-5,0.4-8.3-0.1-11.4c-0.5-3.2-0.9-6.3,0.1-11.4
	c0.2-1,0.4-2,0.6-2.9c1.7-9,2.9-15.5,11.9-23c8.4-7.1,19.8-10.1,27.4-12.2c1.5-0.4,2.8-0.7,3.9-1.1c3.1-0.9,6.5-2.7,8.8-4.9
	c0.1,2.5,1.1,5.1,3.1,7.1c2,2,4.7,3.2,7.5,3.2c2.5,0,4.8-0.9,6.5-2.6c1.8-1.8,2.8-4.3,2.7-6.9c-0.1-2.6-1.2-5.1-3.1-7.1
	c-2-2-4.7-3.2-7.5-3.2c-2.5,0-4.8,0.9-6.5,2.6c-0.1,0.1-0.2,0.2-0.3,0.3c-0.3-1-0.9-2.1-2.2-3.2c-1.6-1.4-3.6-2.3-6.1-2.7
	c2.9-0.8,5.6-1.4,7.9-2c6.6-1.6,11-2.7,13.9-4.1c2.6-1.2,4.1-2.6,4.7-4.6c1.4,1.4,3.4,2.1,5.8,2.1c2,0,4-0.5,5.8-1.5
	c2.4-1.3,4.2-3.2,5.2-5.3C492.8,798.6,492.8,796.3,491.8,794.4z"/>
<path fill="#D4003B" d="M491.8,794.4c-1.2-2.3-3.8-3.7-7-3.7c-2,0-4,0.5-5.8,1.5c-2.4,1.3-4.2,3.2-5.2,5.3c-0.1,0.1-0.1,0.3-0.2,0.4
	c-1.5-1.8-3.7-2.6-5.3-2.8c0,0,0,0-0.1,0c-11.8-0.6-23.1,0.6-33.5,3.5c-8.4,2.3-16.3,5.7-23.5,10.1c-6.8,4.1-11.6,8.3-14.6,11.3
	c2.1-5.5,4.9-10.7,8-13.5c4-3.6,5.5-8.4,3.5-11.4c-0.2-0.2-0.4-0.5-0.7-0.8c0.3,0,0.7,0.1,1,0.1c2,0,4-0.5,5.8-1.5
	c5-2.7,7.3-8,5.3-11.9c-1.2-2.3-3.8-3.7-7-3.7c-2,0-4,0.5-5.8,1.5c-5,2.7-7.3,8-5.3,11.9c0.5,0.9,1.1,1.6,1.9,2.2
	c-1.9-0.1-4.5,0.5-7.9,2.1c-10.9,5.2-17.5,23.6-19.7,30.9c-1.8-3.3-4.1-5.1-6.7-5.3c-0.6,0-1.1,0-1.7,0.1c1.8-3.6,1.2-8.1-1.8-11.1
	c-1.9-1.9-4.3-2.9-7-2.9c-2.5,0-4.9,1-6.6,2.7c-3.7,3.7-3.7,9.8,0,13.6c1.9,1.9,4.3,2.9,7,2.9c0.3,0,0.5,0,0.8,0
	c-0.3,0.5-3.3,5.9-0.1,13.5c0.9,2.1,1.7,3.2,2.2,4c1.4,1.9,1.8,2.5,0.8,16.2l0,0.4c-0.2,3.4-0.5,7-0.6,10.5
	c-0.2,4.7-0.3,10.1,1.3,15.3c0.4,1.5,1.1,2.9,1.7,4.2c0.4,0.8,0.7,1.6,1,2.4l0.2,0.5c1.3,3.3,2.7,7,4.8,10c1.9,2.8,5.2,6.2,10,6.9
	c1.2,0.2,2.4,0.3,3.5,0.3c3.7,0,7.1-0.9,9.9-2.7c3.8-2.5,6.3-6.5,7.2-11.6c0.9-5,0.4-8.3-0.1-11.4c-0.5-3.2-0.9-6.3,0.1-11.4
	c0.2-1,0.4-2,0.6-2.9c1.7-9,2.9-15.5,11.9-23c8.4-7.1,19.8-10.1,27.4-12.2c1.5-0.4,2.8-0.7,3.9-1.1c3.1-0.9,6.5-2.7,8.8-4.9
	c0.1,2.5,1.1,5.1,3.1,7.1c2,2,4.7,3.2,7.5,3.2c2.5,0,4.8-0.9,6.5-2.6c1.8-1.8,2.8-4.3,2.7-6.9c-0.1-2.6-1.2-5.1-3.1-7.1
	c-2-2-4.7-3.2-7.5-3.2c-2.5,0-4.8,0.9-6.5,2.6c-0.1,0.1-0.2,0.2-0.3,0.3c-0.3-1-0.9-2.1-2.2-3.2c-1.6-1.4-3.6-2.3-6.1-2.7
	c2.9-0.8,5.6-1.4,7.9-2c6.6-1.6,11-2.7,13.9-4.1c2.6-1.2,4.1-2.6,4.7-4.6c1.4,1.4,3.4,2.1,5.8,2.1c2,0,4-0.5,5.8-1.5
	c2.4-1.3,4.2-3.2,5.2-5.3C492.8,798.6,492.8,796.3,491.8,794.4z M407.9,780.9c1.5-0.8,3.2-1.3,4.7-1.3c2.3,0,4.1,0.9,4.9,2.5
	c1.5,2.7-0.5,6.7-4.3,8.7c-1.5,0.8-3.2,1.3-4.7,1.3c-2.3,0-4.1-0.9-4.9-2.5C402.1,786.9,404,783,407.9,780.9z M353.6,821.4
	c-2.9-2.9-2.9-7.5,0-10.3c1.3-1.3,3.1-2,5-2c2,0,3.9,0.8,5.3,2.2c2.9,2.9,2.9,7.5,0,10.3c-1.3,1.3-3.1,2-5,2
	C356.9,823.6,355,822.8,353.6,821.4z M458.5,823.6c1.3-1.3,3-1.9,4.9-1.9c2.1,0,4.3,0.9,5.9,2.5c1.5,1.5,2.4,3.5,2.4,5.5
	c0.1,2-0.6,3.9-2,5.2c-1.3,1.3-3,1.9-4.9,1.9c-2.1,0-4.3-0.9-5.9-2.5C455.8,831.2,455.6,826.4,458.5,823.6z M472.9,803.9
	c-0.4,3.8-4.2,4.9-17.2,8.2c-5.2,1.3-11.5,2.9-19.3,5.1c-8.4,2.1-18.3,7.2-29.5,14.9c-0.5,0.4-0.7,1.1-0.3,1.6s1.1,0.7,1.6,0.3
	c9.8-6.8,18.6-11.4,26.1-13.8c0,0,0,0,0,0c0.9-0.3,1.8-0.5,2.7-0.8c0.5-0.1,1-0.3,1.5-0.4c6.4-1.4,11.5-0.8,14.4,1.7
	c1.3,1.1,1.8,2.3,1.5,3.5c-0.6,2.7-4.8,5.8-9.7,7.3c-1.1,0.3-2.4,0.7-3.9,1.1c-7.7,2.1-19.4,5.2-28.2,12.6
	c-9.6,8.1-11,15.2-12.7,24.3c-0.2,1-0.4,1.9-0.6,2.9c-1.1,5.5-0.6,8.9-0.1,12.2c0.5,3.1,0.9,5.9,0.1,10.6c-1.5,8.9-8.4,13.6-18,12.2
	c-4-0.6-6.8-3.5-8.4-5.9c-1.9-2.8-3.3-6.4-4.5-9.5l-0.2-0.5c-0.3-0.9-0.7-1.7-1.1-2.5c-0.6-1.3-1.2-2.6-1.6-4
	c-1.4-4.9-1.4-10.1-1.2-14.5c0.1-3.5,0.4-7,0.6-10.4l0-0.4c1-14,0.6-15.2-1.2-17.7c-0.5-0.8-1.2-1.7-2-3.5
	c-2.7-6.3-0.4-10.8-0.1-11.3c1-1.3,4.2-4.4,7.2-4.1c1.9,0.2,3.6,1.6,5,4.4c0.4,0.7,0.7,1.5,1,2.4c0,0,0,0,0,0
	c3.9,11-0.1,29.1-0.1,29.3c-0.1,0.6,0.2,1.2,0.9,1.4c0.6,0.1,1.2-0.2,1.4-0.9c0.1-0.2,1.2-5.5,1.7-12.3c0.5-7.4,0-13.4-1.6-18
	c0.8-3.1,7.5-26.6,19.3-32.2c4.8-2.3,8.5-2.5,9.8-0.6c1.1,1.7,0.3,5.3-3.1,8.4c-7,6.3-12.6,23.5-12.3,30.9c0,0.6,0.5,1.1,1.2,1.1
	c0,0,0,0,0,0c0.6,0,1.1-0.6,1.1-1.2c-0.1-2.5,0.6-6.2,1.7-10.2c0.8-1.1,6.6-8,17.6-14.7c7-4.3,14.7-7.6,22.9-9.8
	c10.2-2.8,21.3-3.9,32.8-3.4C468.5,797.6,473.5,798.3,472.9,803.9z M489.6,799.9c-0.8,1.7-2.3,3.2-4.2,4.3c-1.5,0.8-3.2,1.3-4.7,1.3
	c-2.3,0-4.1-0.9-4.9-2.5c-0.7-1.3-0.6-2.9,0.1-4.5c0.8-1.7,2.3-3.2,4.2-4.3c1.5-0.8,3.2-1.3,4.7-1.3c2.3,0,4.1,0.9,4.9,2.5
	C490.4,796.7,490.4,798.3,489.6,799.9z"/>
<path fill="#D4003B" d="M358.7,812.3c-1.1,0-2.1,0.4-2.8,1.1c-1.6,1.6-1.6,4.1,0,5.7c0.8,0.8,1.8,1.2,2.9,1.2c1.1,0,2.1-0.4,2.8-1.1
	c0.8-0.8,1.2-1.8,1.2-2.9c0-1.1-0.4-2.1-1.2-2.9C360.8,812.7,359.8,812.3,358.7,812.3z M360,817.6c-0.3,0.3-0.7,0.5-1.2,0.5
	c-0.5,0-0.9-0.2-1.3-0.5c-0.7-0.7-0.7-1.8,0-2.5c0.3-0.3,0.7-0.5,1.2-0.5c0.5,0,0.9,0.2,1.3,0.5c0.3,0.3,0.5,0.8,0.5,1.3
	C360.5,816.8,360.3,817.3,360,817.6z"/>
<path fill="#D4003B" d="M482.7,795.2c-1.1,0-2.1,0.4-2.8,1.1c-0.8,0.8-1.2,1.8-1.2,2.9c0,1.1,0.4,2.1,1.2,2.9
	c0.8,0.8,1.8,1.2,2.9,1.2c1.1,0,2.1-0.4,2.8-1.1c1.6-1.6,1.6-4.1,0-5.7C484.8,795.6,483.8,795.2,482.7,795.2z M484,800.5
	c-0.3,0.3-0.7,0.5-1.2,0.5c-0.5,0-0.9-0.2-1.3-0.5c-0.3-0.3-0.5-0.8-0.5-1.3c0-0.5,0.2-0.9,0.5-1.2c0.3-0.3,0.7-0.5,1.2-0.5
	c0.5,0,0.9,0.2,1.3,0.5C484.6,798.7,484.6,799.8,484,800.5z"/>
<path fill="#D4003B" d="M463.2,833.3c1.1,0,2.1-0.4,2.8-1.1c0.8-0.8,1.2-1.8,1.2-2.9c0-1.1-0.4-2.1-1.2-2.9
	c-0.8-0.8-1.8-1.2-2.9-1.2c-1.1,0-2.1,0.4-2.8,1.1c-1.6,1.6-1.6,4.1,0,5.7C461,832.9,462.1,833.3,463.2,833.3z M461.9,828
	c0.3-0.3,0.7-0.5,1.2-0.5c0.5,0,0.9,0.2,1.3,0.5c0.3,0.3,0.5,0.8,0.5,1.3c0,0.5-0.2,0.9-0.5,1.2c-0.3,0.3-0.7,0.5-1.2,0.5
	c-0.5,0-0.9-0.2-1.3-0.5C461.2,829.8,461.2,828.6,461.9,828z"/>
<path fill="#F6CCD8" d="M508.3,800.9c1,2.2,2.9,4.1,5.2,5.3c1.9,1,3.9,1.5,5.8,1.5c2.3,0,4.4-0.8,5.8-2.1c0.6,2,2.1,3.4,4.7,4.6
	c2.9,1.3,7.3,2.4,13.9,4.1c2.4,0.6,5,1.3,7.9,2c-2.5,0.4-4.5,1.3-6.1,2.7c-1.2,1.1-1.9,2.2-2.2,3.2c-0.1-0.1-0.2-0.2-0.3-0.3
	c-1.7-1.7-4-2.6-6.5-2.6c-2.8,0-5.5,1.2-7.5,3.2c-1.9,1.9-3,4.4-3.1,7.1c-0.1,2.7,0.9,5.1,2.7,6.9c1.7,1.7,4,2.6,6.5,2.6
	c2.8,0,5.5-1.2,7.5-3.2c2-2,3-4.6,3.1-7.1c2.3,2.2,5.7,4,8.8,4.9c1.1,0.3,2.4,0.7,3.9,1.1c7.5,2,18.9,5.1,27.4,12.2
	c9,7.5,10.2,14,11.9,23c0.2,1,0.4,1.9,0.6,2.9c1,5.1,0.6,8.2,0.1,11.4c-0.5,3.1-1,6.3-0.1,11.4c0.9,5.1,3.4,9.1,7.2,11.6
	c2.8,1.8,6.2,2.7,9.9,2.7c1.1,0,2.3-0.1,3.5-0.3c4.8-0.7,8.1-4.1,10-6.9c2.1-3,3.5-6.7,4.8-10l0.2-0.5c0.3-0.8,0.7-1.6,1-2.4
	c0.6-1.4,1.2-2.7,1.7-4.2c1.5-5.2,1.5-10.6,1.3-15.3c-0.1-3.5-0.4-7-0.6-10.5l0-0.4c-1-13.7-0.6-14.3,0.8-16.2
	c0.6-0.8,1.3-1.9,2.2-4c3.2-7.5,0.2-13-0.1-13.5c0.3,0,0.5,0,0.8,0c2.6,0,5.1-1,7-2.9c3.8-3.8,3.8-9.9,0-13.6
	c-1.8-1.7-4.1-2.7-6.6-2.7c-2.6,0-5.1,1-7,2.9c-3,3-3.6,7.6-1.8,11.1c-0.5-0.1-1.1-0.1-1.7-0.1c-2.6,0.2-4.9,2-6.7,5.3
	c-2.2-7.4-8.8-25.8-19.7-30.9c-3.5-1.6-6-2.2-7.9-2.1c0.8-0.6,1.4-1.3,1.9-2.2c2.1-3.9-0.3-9.2-5.3-11.9c-1.9-1-3.9-1.5-5.8-1.5
	c-3.1,0-5.7,1.4-7,3.7c-2.1,3.9,0.3,9.2,5.3,11.9c1.9,1,3.9,1.5,5.8,1.5c0.3,0,0.7,0,1-0.1c-0.3,0.3-0.5,0.6-0.7,0.8
	c-2,2.9-0.4,7.8,3.5,11.4c3.1,2.8,5.9,8,8,13.5c-3-3-7.8-7.2-14.6-11.3c-7.2-4.4-15.1-7.8-23.5-10.1c-10.5-2.9-21.8-4-33.5-3.5
	c0,0,0,0-0.1,0c-1.5,0.2-3.7,0.9-5.3,2.8c-0.1-0.1-0.1-0.3-0.2-0.4c-1-2.2-2.9-4.1-5.2-5.3c-1.9-1-3.9-1.5-5.8-1.5
	c-3.1,0-5.7,1.4-7,3.7C507.2,796.3,507.2,798.6,508.3,800.9z"/>
<path fill="#D4003B" d="M508.3,800.9c1,2.2,2.9,4.1,5.2,5.3c1.9,1,3.9,1.5,5.8,1.5c2.3,0,4.4-0.8,5.8-2.1c0.6,2,2.1,3.4,4.7,4.6
	c2.9,1.3,7.3,2.4,13.9,4.1c2.4,0.6,5,1.3,7.9,2c-2.5,0.4-4.5,1.3-6.1,2.7c-1.2,1.1-1.9,2.2-2.2,3.2c-0.1-0.1-0.2-0.2-0.3-0.3
	c-1.7-1.7-4-2.6-6.5-2.6c-2.8,0-5.5,1.2-7.5,3.2c-1.9,1.9-3,4.4-3.1,7.1c-0.1,2.7,0.9,5.1,2.7,6.9c1.7,1.7,4,2.6,6.5,2.6
	c2.8,0,5.5-1.2,7.5-3.2c2-2,3-4.6,3.1-7.1c2.3,2.2,5.7,4,8.8,4.9c1.1,0.3,2.4,0.7,3.9,1.1c7.5,2,18.9,5.1,27.4,12.2
	c9,7.5,10.2,14,11.9,23c0.2,1,0.4,1.9,0.6,2.9c1,5.1,0.6,8.2,0.1,11.4c-0.5,3.1-1,6.3-0.1,11.4c0.9,5.1,3.4,9.1,7.2,11.6
	c2.8,1.8,6.2,2.7,9.9,2.7c1.1,0,2.3-0.1,3.5-0.3c4.8-0.7,8.1-4.1,10-6.9c2.1-3,3.5-6.7,4.8-10l0.2-0.5c0.3-0.8,0.7-1.6,1-2.4
	c0.6-1.4,1.2-2.7,1.7-4.2c1.5-5.2,1.5-10.6,1.3-15.3c-0.1-3.5-0.4-7-0.6-10.5l0-0.4c-1-13.7-0.6-14.3,0.8-16.2
	c0.6-0.8,1.3-1.9,2.2-4c3.2-7.5,0.2-13-0.1-13.5c0.3,0,0.5,0,0.8,0c2.6,0,5.1-1,7-2.9c3.8-3.8,3.8-9.9,0-13.6
	c-1.8-1.7-4.1-2.7-6.6-2.7c-2.6,0-5.1,1-7,2.9c-3,3-3.6,7.6-1.8,11.1c-0.5-0.1-1.1-0.1-1.7-0.1c-2.6,0.2-4.9,2-6.7,5.3
	c-2.2-7.4-8.8-25.8-19.7-30.9c-3.5-1.6-6-2.2-7.9-2.1c0.8-0.6,1.4-1.3,1.9-2.2c2.1-3.9-0.3-9.2-5.3-11.9c-1.9-1-3.9-1.5-5.8-1.5
	c-3.1,0-5.7,1.4-7,3.7c-2.1,3.9,0.3,9.2,5.3,11.9c1.9,1,3.9,1.5,5.8,1.5c0.3,0,0.7,0,1-0.1c-0.3,0.3-0.5,0.6-0.7,0.8
	c-2,2.9-0.4,7.8,3.5,11.4c3.1,2.8,5.9,8,8,13.5c-3-3-7.8-7.2-14.6-11.3c-7.2-4.4-15.1-7.8-23.5-10.1c-10.5-2.9-21.8-4-33.5-3.5
	c0,0,0,0-0.1,0c-1.5,0.2-3.7,0.9-5.3,2.8c-0.1-0.1-0.1-0.3-0.2-0.4c-1-2.2-2.9-4.1-5.2-5.3c-1.9-1-3.9-1.5-5.8-1.5
	c-3.1,0-5.7,1.4-7,3.7C507.2,796.3,507.2,798.6,508.3,800.9z M596.4,789.7c-0.8,1.5-2.7,2.5-4.9,2.5c-1.6,0-3.2-0.4-4.7-1.3
	c-3.9-2.1-5.8-6-4.3-8.7c0.8-1.5,2.7-2.5,4.9-2.5c1.6,0,3.2,0.4,4.7,1.3C596,783,597.9,786.9,596.4,789.7z M641.1,823.6
	c-1.9,0-3.7-0.7-5-2c-2.8-2.8-2.8-7.4,0-10.3c1.4-1.4,3.3-2.2,5.3-2.2c1.9,0,3.7,0.7,5,2c2.8,2.8,2.8,7.4,0,10.3
	C645,822.8,643.1,823.6,641.1,823.6z M541.1,834.3c-1.6,1.6-3.7,2.5-5.9,2.5c-1.9,0-3.6-0.7-4.9-1.9c-1.4-1.3-2.1-3.2-2-5.2
	c0.1-2,0.9-4,2.4-5.5c1.6-1.6,3.7-2.5,5.9-2.5c1.9,0,3.6,0.7,4.9,1.9C544.4,826.4,544.2,831.2,541.1,834.3z M531.9,797.6
	c11.5-0.5,22.6,0.6,32.8,3.4c8.2,2.2,15.9,5.5,22.9,9.8c11,6.7,16.7,13.7,17.6,14.7c1.2,4,1.8,7.8,1.7,10.2c0,0.6,0.5,1.2,1.1,1.2
	c0,0,0,0,0,0c0.6,0,1.1-0.5,1.2-1.1c0.2-7.4-5.3-24.6-12.3-30.9c-3.4-3.1-4.3-6.7-3.1-8.4c1.3-1.9,5-1.7,9.8,0.6
	c11.7,5.6,18.4,29.1,19.3,32.2c-1.6,4.6-2.1,10.6-1.6,18c0.5,6.7,1.7,12,1.7,12.3c0.1,0.6,0.8,1,1.4,0.9c0.6-0.1,1-0.8,0.9-1.4
	c0-0.2-4-18.3-0.1-29.3c0,0,0,0,0,0c0.3-0.8,0.6-1.6,1-2.4c1.5-2.7,3.2-4.2,5-4.4c3-0.3,6.1,2.8,7.2,4.1c0.3,0.6,2.6,5.1-0.1,11.3
	c-0.8,1.8-1.5,2.8-2,3.5c-1.8,2.6-2.2,3.7-1.2,17.7l0,0.4c0.2,3.4,0.5,6.9,0.6,10.4c0.2,4.5,0.3,9.7-1.2,14.5c-0.4,1.4-1,2.6-1.6,4
	c-0.4,0.8-0.7,1.7-1.1,2.5l-0.2,0.5c-1.2,3.2-2.6,6.8-4.5,9.5c-1.7,2.4-4.5,5.4-8.4,5.9c-9.6,1.4-16.5-3.3-18-12.2
	c-0.8-4.7-0.4-7.6,0.1-10.6c0.5-3.3,1-6.7-0.1-12.2c-0.2-1-0.4-2-0.6-2.9c-1.7-9.1-3.1-16.3-12.7-24.3c-8.8-7.4-20.5-10.5-28.2-12.6
	c-1.5-0.4-2.8-0.7-3.9-1.1c-4.9-1.5-9.1-4.6-9.7-7.3c-0.3-1.2,0.2-2.4,1.5-3.5c2.9-2.5,8-3.1,14.4-1.7c0.5,0.1,1,0.2,1.5,0.4
	c0.9,0.3,1.8,0.5,2.7,0.8c0,0,0,0,0,0c7.5,2.4,16.3,7,26.1,13.8c0.5,0.4,1.2,0.2,1.6-0.3c0.4-0.5,0.2-1.2-0.3-1.6
	c-11.2-7.7-21.1-12.8-29.5-14.9c-7.9-2.2-14.2-3.8-19.3-5.1c-13-3.2-16.8-4.4-17.2-8.2C526.5,798.3,531.5,797.6,531.9,797.6z
	 M510.3,795.5c0.8-1.5,2.7-2.5,4.9-2.5c1.6,0,3.2,0.4,4.7,1.3c1.9,1,3.4,2.6,4.2,4.3c0.7,1.6,0.8,3.2,0.1,4.5
	c-0.8,1.5-2.7,2.5-4.9,2.5c-1.6,0-3.2-0.4-4.7-1.3c-1.9-1-3.4-2.6-4.2-4.3C509.6,798.3,509.6,796.7,510.3,795.5z"/>
<path fill="#D4003B" d="M638.4,813.5c-0.8,0.8-1.2,1.8-1.2,2.9c0,1.1,0.4,2.1,1.2,2.9c0.7,0.7,1.7,1.1,2.8,1.1
	c1.1,0,2.1-0.4,2.9-1.2c1.6-1.6,1.6-4.2,0-5.7c-0.7-0.7-1.7-1.1-2.8-1.1C640.2,812.3,639.2,812.7,638.4,813.5z M639.5,816.4
	c0-0.5,0.2-0.9,0.5-1.3c0.3-0.3,0.8-0.5,1.3-0.5c0.4,0,0.9,0.2,1.2,0.5c0.7,0.7,0.7,1.8,0,2.5c-0.3,0.3-0.8,0.5-1.3,0.5
	c-0.4,0-0.9-0.2-1.2-0.5C639.7,817.3,639.5,816.8,639.5,816.4z"/>
<path fill="#D4003B" d="M514.4,796.4c-1.6,1.6-1.6,4.2,0,5.7c0.7,0.7,1.7,1.1,2.8,1.1c1.1,0,2.1-0.4,2.9-1.2
	c0.8-0.8,1.2-1.8,1.2-2.9c0-1.1-0.4-2.1-1.2-2.9c-0.7-0.7-1.7-1.1-2.8-1.1C516.2,795.2,515.2,795.6,514.4,796.4z M516.1,798
	c0.3-0.3,0.8-0.5,1.3-0.5c0.4,0,0.9,0.2,1.2,0.5c0.3,0.3,0.5,0.7,0.5,1.2c0,0.5-0.2,0.9-0.5,1.3c-0.3,0.3-0.8,0.5-1.3,0.5
	c-0.4,0-0.9-0.2-1.2-0.5C515.4,799.8,515.4,798.7,516.1,798z"/>
<path fill="#D4003B" d="M539.8,832.1c1.6-1.6,1.6-4.2,0-5.7c-0.7-0.7-1.7-1.1-2.8-1.1c-1.1,0-2.1,0.4-2.9,1.2
	c-0.8,0.8-1.2,1.8-1.2,2.9c0,1.1,0.4,2.1,1.2,2.9c0.7,0.7,1.7,1.1,2.8,1.1C537.9,833.3,539,832.9,539.8,832.1z M538.1,830.4
	c-0.3,0.3-0.8,0.5-1.3,0.5c-0.4,0-0.9-0.2-1.2-0.5c-0.3-0.3-0.5-0.7-0.5-1.2c0-0.5,0.2-0.9,0.5-1.3c0.3-0.3,0.8-0.5,1.3-0.5
	c0.4,0,0.9,0.2,1.2,0.5C538.8,828.6,538.8,829.8,538.1,830.4z"/>
<path fill="#F6CCD8" d="M514.8,734.1c2.2,4.1,6.9,6.6,12.5,6.6c3.5,0,7.1-0.9,10.4-2.7c4.2-2.3,7.5-5.7,9.3-9.5
	c0.1-0.3,0.2-0.5,0.3-0.8c2.7,3.2,6.7,4.6,9.4,4.9c0,0,0.1,0,0.1,0c21.1,1,41.3-1.1,60-6.2c15-4.1,29.1-10.2,42-18
	c12.1-7.4,20.7-14.9,26.1-20.2c-3.7,9.8-8.8,19.1-14.4,24.1c-7.1,6.4-9.8,15.1-6.3,20.4c0.3,0.4,0.7,1,1.3,1.5
	c-0.6-0.1-1.2-0.1-1.8-0.1c-3.5,0-7.1,0.9-10.4,2.7c-8.9,4.8-13.1,14.3-9.4,21.2c2.2,4.1,6.9,6.6,12.5,6.6c3.5,0,7.1-0.9,10.4-2.7
	c8.9-4.8,13.1-14.3,9.4-21.2c-0.8-1.5-2-2.8-3.4-3.9c3.4,0.1,8-0.8,14.2-3.8c19.5-9.2,31.3-42.2,35.3-55.4c3.3,5.9,7.3,9.1,12,9.5
	c1,0.1,2,0,3-0.1c-3.2,6.4-2.1,14.5,3.3,19.9c3.3,3.4,7.8,5.2,12.5,5.2c4.5,0,8.7-1.7,11.9-4.8c6.7-6.6,6.7-17.5,0-24.3
	c-3.3-3.4-7.8-5.2-12.5-5.2c-0.5,0-1,0-1.5,0.1c0.5-0.8,5.9-10.6,0.1-24.1c-1.6-3.7-3-5.7-4-7.1c-2.4-3.4-3.2-4.5-1.4-29l0-0.7
	c0.4-6.1,0.9-12.5,1.2-18.7c0.3-8.4,0.5-18.1-2.3-27.4c-0.8-2.7-1.9-5.2-3-7.6c-0.6-1.4-1.3-2.9-1.8-4.4l-0.3-0.9
	c-2.3-5.9-4.8-12.6-8.5-17.9c-3.4-5-9.3-11.1-17.9-12.4c-2.2-0.3-4.3-0.5-6.3-0.5c-6.7,0-12.8,1.6-17.7,4.9
	c-6.9,4.4-11.3,11.6-12.9,20.8c-1.6,9-0.7,14.8,0.2,20.3c0.9,5.8,1.7,11.2-0.1,20.4c-0.4,1.8-0.7,3.6-1,5.3
	c-3.1,16.1-5.3,27.7-21.3,41.1c-15.1,12.7-35.5,18.1-48.9,21.8c-2.7,0.7-5,1.3-7,1.9c-5.6,1.7-11.7,4.8-15.8,8.8
	c-0.1-4.5-2-9.1-5.5-12.7c-3.6-3.7-8.5-5.7-13.4-5.7c-4.4,0-8.5,1.7-11.6,4.7c-3.3,3.2-5,7.6-4.8,12.4c0.2,4.7,2.1,9.2,5.5,12.7
	c3.6,3.7,8.5,5.7,13.4,5.7c4.4,0,8.5-1.7,11.6-4.7c0.2-0.2,0.3-0.3,0.5-0.5c0.5,1.8,1.6,3.8,3.9,5.7c2.8,2.5,6.5,4.1,10.9,4.9
	c-5.2,1.4-9.9,2.5-14.2,3.6c-11.8,2.9-19.6,4.9-24.9,7.3c-4.7,2.1-7.4,4.7-8.5,8.2c-2.5-2.4-6.2-3.8-10.3-3.8
	c-3.5,0-7.1,0.9-10.4,2.7c-4.2,2.3-7.5,5.7-9.3,9.5C512.9,726.5,512.9,730.7,514.8,734.1z"/>
<path fill="#D4003B" d="M514.8,734.1c2.2,4.1,6.9,6.6,12.5,6.6c3.5,0,7.1-0.9,10.4-2.7c4.2-2.3,7.5-5.7,9.3-9.5
	c0.1-0.3,0.2-0.5,0.3-0.8c2.7,3.2,6.7,4.6,9.4,4.9c0,0,0.1,0,0.1,0c21.1,1,41.3-1.1,60-6.2c15-4.1,29.1-10.2,42-18
	c12.1-7.4,20.7-14.9,26.1-20.2c-3.7,9.8-8.8,19.1-14.4,24.1c-7.1,6.4-9.8,15.1-6.3,20.4c0.3,0.4,0.7,1,1.3,1.5
	c-0.6-0.1-1.2-0.1-1.8-0.1c-3.5,0-7.1,0.9-10.4,2.7c-8.9,4.8-13.1,14.3-9.4,21.2c2.2,4.1,6.9,6.6,12.5,6.6c3.5,0,7.1-0.9,10.4-2.7
	c8.9-4.8,13.1-14.3,9.4-21.2c-0.8-1.5-2-2.8-3.4-3.9c3.4,0.1,8-0.8,14.2-3.8c19.5-9.2,31.3-42.2,35.3-55.4c3.3,5.9,7.3,9.1,12,9.5
	c1,0.1,2,0,3-0.1c-3.2,6.4-2.1,14.5,3.3,19.9c3.3,3.4,7.8,5.2,12.5,5.2c4.5,0,8.7-1.7,11.9-4.8c6.7-6.6,6.7-17.5,0-24.3
	c-3.3-3.4-7.8-5.2-12.5-5.2c-0.5,0-1,0-1.5,0.1c0.5-0.8,5.9-10.6,0.1-24.1c-1.6-3.7-3-5.7-4-7.1c-2.4-3.4-3.2-4.5-1.4-29l0-0.7
	c0.4-6.1,0.9-12.5,1.2-18.7c0.3-8.4,0.5-18.1-2.3-27.4c-0.8-2.7-1.9-5.2-3-7.6c-0.6-1.4-1.3-2.9-1.8-4.4l-0.3-0.9
	c-2.3-5.9-4.8-12.6-8.5-17.9c-3.4-5-9.3-11.1-17.9-12.4c-2.2-0.3-4.3-0.5-6.3-0.5c-6.7,0-12.8,1.6-17.7,4.9
	c-6.9,4.4-11.3,11.6-12.9,20.8c-1.6,9-0.7,14.8,0.2,20.3c0.9,5.8,1.7,11.2-0.1,20.4c-0.4,1.8-0.7,3.6-1,5.3
	c-3.1,16.1-5.3,27.7-21.3,41.1c-15.1,12.7-35.5,18.1-48.9,21.8c-2.7,0.7-5,1.3-7,1.9c-5.6,1.7-11.7,4.8-15.8,8.8
	c-0.1-4.5-2-9.1-5.5-12.7c-3.6-3.7-8.5-5.7-13.4-5.7c-4.4,0-8.5,1.7-11.6,4.7c-3.3,3.2-5,7.6-4.8,12.4c0.2,4.7,2.1,9.2,5.5,12.7
	c3.6,3.7,8.5,5.7,13.4,5.7c4.4,0,8.5-1.7,11.6-4.7c0.2-0.2,0.3-0.3,0.5-0.5c0.5,1.8,1.6,3.8,3.9,5.7c2.8,2.5,6.5,4.1,10.9,4.9
	c-5.2,1.4-9.9,2.5-14.2,3.6c-11.8,2.9-19.6,4.9-24.9,7.3c-4.7,2.1-7.4,4.7-8.5,8.2c-2.5-2.4-6.2-3.8-10.3-3.8
	c-3.5,0-7.1,0.9-10.4,2.7c-4.2,2.3-7.5,5.7-9.3,9.5C512.9,726.5,512.9,730.7,514.8,734.1z M664.8,758.2c-2.7,1.5-5.7,2.2-8.5,2.2
	c-4,0-7.3-1.6-8.8-4.4c-2.6-4.9,0.8-11.9,7.7-15.6c2.7-1.5,5.7-2.2,8.5-2.2c4,0,7.3,1.6,8.8,4.4
	C675.2,747.5,671.7,754.5,664.8,758.2z M761.9,685.8c5.1,5.2,5.2,13.5,0.1,18.5c-2.4,2.4-5.6,3.7-9,3.7c-3.6,0-7-1.4-9.5-4
	c-5.1-5.2-5.2-13.5-0.1-18.5c2.4-2.4,5.6-3.7,9-3.7C756,681.8,759.4,683.2,761.9,685.8z M574.3,681.9c-2.3,2.2-5.4,3.5-8.7,3.5
	c-3.8,0-7.7-1.6-10.5-4.5c-2.7-2.7-4.2-6.2-4.4-9.9c-0.1-3.6,1.2-6.9,3.6-9.3c2.3-2.2,5.4-3.5,8.7-3.5c3.8,0,7.7,1.6,10.5,4.5
	C579,668.3,579.4,676.9,574.3,681.9z M548.5,717.1c0.7-6.8,7.4-8.8,30.8-14.6c9.2-2.3,20.5-5.1,34.6-9.1c15-3.8,32.8-12.8,52.8-26.7
	c0.9-0.6,1.2-1.9,0.5-2.9c-0.6-0.9-1.9-1.2-2.9-0.5c-17.6,12.1-33.2,20.4-46.7,24.7c0,0,0,0-0.1,0c-1.6,0.5-3.2,0.9-4.8,1.4
	c-0.9,0.2-1.8,0.5-2.8,0.7c-11.5,2.5-20.7,1.4-25.8-3.1c-2.3-2-3.1-4-2.7-6.3c1-4.8,8.5-10.4,17.3-13.1c2-0.6,4.3-1.2,6.9-1.9
	c13.8-3.7,34.8-9.3,50.5-22.6c17.2-14.4,19.6-27.3,22.7-43.5c0.3-1.7,0.7-3.4,1-5.2c2-9.9,1.1-16,0.2-21.8c-0.8-5.5-1.6-10.6-0.2-19
	c2.7-15.9,15.1-24.2,32.3-21.8c7.1,1,12.2,6.3,15.1,10.6c3.4,5,5.9,11.4,8.1,17.1l0.4,0.9c0.6,1.6,1.3,3.1,1.9,4.5
	c1.1,2.4,2.1,4.7,2.8,7.1c2.6,8.7,2.4,18,2.1,26c-0.3,6.2-0.7,12.5-1.1,18.6l0,0.7c-1.8,25.1-1.1,27.1,2.2,31.7c1,1.4,2.2,3,3.6,6.3
	c4.8,11.2,0.7,19.3,0.2,20.3c-1.8,2.3-7.4,7.9-12.8,7.4c-3.4-0.3-6.4-2.9-9-7.8c-0.7-1.3-1.3-2.7-1.8-4.2c0,0,0,0,0,0
	c-7-19.7,0.1-52.1,0.2-52.4c0.3-1.1-0.4-2.2-1.6-2.5c-1.1-0.3-2.2,0.4-2.5,1.6c-0.1,0.4-2.2,9.9-3.1,21.9c-0.9,13.2,0,24,2.8,32.2
	c-1.5,5.5-13.5,47.6-34.5,57.6c-8.6,4.1-15.3,4.5-17.5,1.1c-2-3.1-0.5-9.5,5.6-15c12.6-11.3,22.5-42.1,22.1-55.4c0-1.1-1-2-2.1-2
	c0,0,0,0-0.1,0c-1.1,0-2,1-2,2.1c0.1,4.4-1,11.1-3.1,18.3c-1.5,1.9-11.8,14.4-31.5,26.4c-12.5,7.6-26.3,13.5-40.9,17.5
	c-18.3,5-38,7.1-58.7,6.1C556.3,728.4,547.5,727.1,548.5,717.1z M518.6,724.2c1.4-3.1,4.1-5.8,7.6-7.6c2.7-1.5,5.7-2.2,8.5-2.2
	c4,0,7.3,1.6,8.8,4.4c1.2,2.3,1.2,5.1-0.2,8c-1.4,3.1-4.1,5.8-7.6,7.6c-2.7,1.5-5.7,2.2-8.5,2.2c-4,0-7.3-1.6-8.8-4.4
	C517.2,729.9,517.2,727.1,518.6,724.2z"/>
<path fill="#D4003B" d="M752.8,702.1c1.9,0,3.7-0.7,5-2c2.8-2.8,2.8-7.4,0-10.2c-1.4-1.4-3.3-2.2-5.2-2.2c-1.9,0-3.7,0.7-5,2
	c-1.4,1.4-2.1,3.2-2.1,5.1c0,1.9,0.8,3.7,2.1,5.1C749,701.4,750.9,702.1,752.8,702.1z M750.5,692.6c0.6-0.6,1.3-0.9,2.1-0.9
	c0.9,0,1.7,0.3,2.3,1c1.2,1.2,1.2,3.2,0,4.4c-0.6,0.6-1.3,0.9-2.1,0.9c-0.9,0-1.7-0.3-2.3-1c-0.6-0.6-0.9-1.4-0.9-2.2
	C749.6,694,749.9,693.2,750.5,692.6z"/>
<path fill="#D4003B" d="M661.1,742.1c-1.9,0-3.7,0.7-5,2c-2.8,2.8-2.8,7.4,0,10.2c1.4,1.4,3.3,2.2,5.2,2.2c1.9,0,3.7-0.7,5-2
	c1.4-1.4,2.1-3.2,2.1-5.1c0-1.9-0.8-3.7-2.1-5.1C665,742.9,663.1,742.1,661.1,742.1z M663.5,751.6c-0.6,0.6-1.3,0.9-2.1,0.9
	c-0.9,0-1.7-0.3-2.3-1c-1.2-1.2-1.2-3.2,0-4.4c0.6-0.6,1.3-0.9,2.1-0.9c0.9,0,1.7,0.3,2.3,1c0.6,0.6,0.9,1.4,0.9,2.2
	C664.4,750.2,664,751,663.5,751.6z"/>
<path fill="#D4003B" d="M531,732.7c1.9,0,3.7-0.7,5-2c1.4-1.4,2.1-3.2,2.1-5.1c0-1.9-0.8-3.7-2.1-5.1c-1.4-1.4-3.3-2.2-5.2-2.2
	c-1.9,0-3.7,0.7-5,2c-2.8,2.8-2.8,7.4,0,10.2C527.2,731.9,529,732.7,531,732.7z M528.7,723.2c0.6-0.6,1.3-0.9,2.1-0.9
	c0.9,0,1.7,0.3,2.3,1c0.6,0.6,0.9,1.4,0.9,2.2c0,0.8-0.3,1.6-0.9,2.2c-0.6,0.6-1.3,0.9-2.1,0.9c-0.9,0-1.7-0.3-2.3-1
	C527.5,726.4,527.5,724.4,528.7,723.2z"/>
<path fill="#D4003B" d="M565.9,664.5c-1.9,0-3.7,0.7-5,2c-1.4,1.4-2.1,3.2-2.1,5.1c0,1.9,0.8,3.7,2.1,5.1c1.4,1.4,3.3,2.2,5.2,2.2
	c1.9,0,3.7-0.7,5-2c2.8-2.8,2.8-7.4,0-10.2C569.7,665.3,567.9,664.5,565.9,664.5z M568.3,674c-0.6,0.6-1.3,0.9-2.1,0.9
	c-0.9,0-1.7-0.3-2.3-1c-0.6-0.6-0.9-1.4-0.9-2.2c0-0.8,0.3-1.6,0.9-2.2c0.6-0.6,1.3-0.9,2.1-0.9c0.9,0,1.7,0.3,2.3,1
	C569.4,670.9,569.5,672.8,568.3,674z"/>
<path fill="#F6CCD8" d="M485.2,722.5c-1.8-3.9-5.1-7.3-9.3-9.5c-3.3-1.8-6.9-2.7-10.4-2.7c-4.2,0-7.8,1.4-10.3,3.8
	c-1.1-3.5-3.8-6.1-8.5-8.2c-5.3-2.4-13.1-4.3-24.9-7.3c-4.3-1.1-9-2.2-14.2-3.6c4.4-0.8,8.1-2.4,10.9-4.9c2.2-1.9,3.4-3.9,3.9-5.7
	c0.2,0.2,0.3,0.3,0.5,0.5c3,3,7.2,4.7,11.6,4.7c4.9,0,9.8-2.1,13.4-5.7c3.4-3.5,5.4-8,5.5-12.7c0.2-4.8-1.5-9.2-4.8-12.4
	c-3-3-7.2-4.7-11.6-4.7c-4.9,0-9.8,2.1-13.4,5.7c-3.5,3.6-5.4,8.2-5.5,12.7c-4.1-4-10.2-7.2-15.8-8.8c-2-0.6-4.3-1.2-7-1.9
	c-13.5-3.6-33.9-9.1-48.9-21.8c-16-13.5-18.3-25.1-21.3-41.1c-0.3-1.7-0.7-3.5-1-5.3c-1.8-9.2-1-14.6-0.1-20.4
	c0.8-5.6,1.7-11.3,0.2-20.3c-1.6-9.2-6-16.3-12.9-20.8c-5-3.2-11-4.9-17.7-4.9c-2,0-4.1,0.2-6.3,0.5c-8.6,1.2-14.5,7.4-17.9,12.4
	c-3.7,5.4-6.3,12.1-8.5,17.9l-0.3,0.9c-0.6,1.5-1.2,2.9-1.8,4.4c-1.1,2.4-2.2,4.9-3,7.6c-2.7,9.3-2.6,19-2.3,27.4
	c0.3,6.3,0.7,12.6,1.2,18.7l0,0.7c1.8,24.6,1,25.6-1.4,29c-1,1.4-2.4,3.4-4,7.1c-5.8,13.5-0.4,23.3,0.1,24.1c-0.5,0-1-0.1-1.5-0.1
	c-4.7,0-9.1,1.9-12.5,5.2c-6.7,6.8-6.7,17.7,0,24.3c3.2,3.1,7.4,4.8,11.9,4.8c4.7,0,9.1-1.9,12.5-5.2c5.4-5.5,6.5-13.5,3.3-19.9
	c1,0.2,2,0.2,3,0.1c4.7-0.4,8.7-3.6,12-9.5c4,13.2,15.8,46.1,35.3,55.4c6.2,2.9,10.8,3.9,14.2,3.8c-1.4,1-2.6,2.3-3.4,3.9
	c-3.7,6.9,0.5,16.4,9.4,21.2c3.3,1.8,6.9,2.7,10.4,2.7c5.6,0,10.2-2.5,12.5-6.6c3.7-6.9-0.5-16.4-9.4-21.2
	c-3.3-1.8-6.9-2.7-10.4-2.7c-0.6,0-1.2,0-1.8,0.1c0.6-0.5,1-1,1.3-1.5c3.5-5.2,0.8-14-6.3-20.4c-5.6-5-10.6-14.4-14.4-24.1
	c5.4,5.3,14,12.8,26.1,20.2c12.8,7.8,27,13.9,42,18c18.7,5.1,38.9,7.2,60,6.2c0,0,0.1,0,0.1,0c2.7-0.3,6.7-1.7,9.4-4.9
	c0.1,0.3,0.2,0.5,0.3,0.8c1.8,3.9,5.1,7.3,9.3,9.5c3.3,1.8,6.9,2.7,10.4,2.7c5.6,0,10.2-2.5,12.5-6.6
	C487.1,730.7,487.1,726.5,485.2,722.5z"/>
<path fill="#D4003B" d="M485.2,722.5c-1.8-3.9-5.1-7.3-9.3-9.5c-3.3-1.8-6.9-2.7-10.4-2.7c-4.2,0-7.8,1.4-10.3,3.8
	c-1.1-3.5-3.8-6.1-8.5-8.2c-5.3-2.4-13.1-4.3-24.9-7.3c-4.3-1.1-9-2.2-14.2-3.6c4.4-0.8,8.1-2.4,10.9-4.9c2.2-1.9,3.4-3.9,3.9-5.7
	c0.2,0.2,0.3,0.3,0.5,0.5c3,3,7.2,4.7,11.6,4.7c4.9,0,9.8-2.1,13.4-5.7c3.4-3.5,5.4-8,5.5-12.7c0.2-4.8-1.5-9.2-4.8-12.4
	c-3-3-7.2-4.7-11.6-4.7c-4.9,0-9.8,2.1-13.4,5.7c-3.5,3.6-5.4,8.2-5.5,12.7c-4.1-4-10.2-7.2-15.8-8.8c-2-0.6-4.3-1.2-7-1.9
	c-13.5-3.6-33.9-9.1-48.9-21.8c-16-13.5-18.3-25.1-21.3-41.1c-0.3-1.7-0.7-3.5-1-5.3c-1.8-9.2-1-14.6-0.1-20.4
	c0.8-5.6,1.7-11.3,0.2-20.3c-1.6-9.2-6-16.3-12.9-20.8c-5-3.2-11-4.9-17.7-4.9c-2,0-4.1,0.2-6.3,0.5c-8.6,1.2-14.5,7.4-17.9,12.4
	c-3.7,5.4-6.3,12.1-8.5,17.9l-0.3,0.9c-0.6,1.5-1.2,2.9-1.8,4.4c-1.1,2.4-2.2,4.9-3,7.6c-2.7,9.3-2.6,19-2.3,27.4
	c0.3,6.3,0.7,12.6,1.2,18.7l0,0.7c1.8,24.6,1,25.6-1.4,29c-1,1.4-2.4,3.4-4,7.1c-5.8,13.5-0.4,23.3,0.1,24.1c-0.5,0-1-0.1-1.5-0.1
	c-4.7,0-9.1,1.9-12.5,5.2c-6.7,6.8-6.7,17.7,0,24.3c3.2,3.1,7.4,4.8,11.9,4.8c4.7,0,9.1-1.9,12.5-5.2c5.4-5.5,6.5-13.5,3.3-19.9
	c1,0.2,2,0.2,3,0.1c4.7-0.4,8.7-3.6,12-9.5c4,13.2,15.8,46.1,35.3,55.4c6.2,2.9,10.8,3.9,14.2,3.8c-1.4,1-2.6,2.3-3.4,3.9
	c-3.7,6.9,0.5,16.4,9.4,21.2c3.3,1.8,6.9,2.7,10.4,2.7c5.6,0,10.2-2.5,12.5-6.6c3.7-6.9-0.5-16.4-9.4-21.2
	c-3.3-1.8-6.9-2.7-10.4-2.7c-0.6,0-1.2,0-1.8,0.1c0.6-0.5,1-1,1.3-1.5c3.5-5.2,0.8-14-6.3-20.4c-5.6-5-10.6-14.4-14.4-24.1
	c5.4,5.3,14,12.8,26.1,20.2c12.8,7.8,27,13.9,42,18c18.7,5.1,38.9,7.2,60,6.2c0,0,0.1,0,0.1,0c2.7-0.3,6.7-1.7,9.4-4.9
	c0.1,0.3,0.2,0.5,0.3,0.8c1.8,3.9,5.1,7.3,9.3,9.5c3.3,1.8,6.9,2.7,10.4,2.7c5.6,0,10.2-2.5,12.5-6.6
	C487.1,730.7,487.1,726.5,485.2,722.5z M327.4,742.6c1.5-2.8,4.8-4.4,8.8-4.4c2.8,0,5.7,0.8,8.5,2.2c6.9,3.7,10.4,10.7,7.7,15.6
	c-1.5,2.8-4.8,4.4-8.8,4.4c-2.8,0-5.7-0.8-8.5-2.2C328.3,754.5,324.8,747.5,327.4,742.6z M247.6,681.8c3.4,0,6.6,1.3,9,3.7
	c5.1,5,5,13.3-0.1,18.5c-2.6,2.6-5.9,4-9.5,4c-3.4,0-6.6-1.3-9-3.7c-5.1-5-5-13.3,0.1-18.5C240.6,683.2,244,681.8,247.6,681.8z
	 M426.5,662.7c2.8-2.9,6.7-4.5,10.5-4.5c3.3,0,6.4,1.2,8.7,3.5c2.4,2.4,3.7,5.7,3.6,9.3c-0.1,3.7-1.7,7.2-4.4,9.9
	c-2.8,2.9-6.7,4.5-10.5,4.5c-3.3,0-6.4-1.2-8.7-3.5C420.6,676.9,421,668.3,426.5,662.7z M442.9,728.5c-20.6,1-40.4-1.1-58.7-6.1
	c-14.6-4-28.4-9.9-40.9-17.5c-19.7-12-30-24.5-31.5-26.4c-2.1-7.2-3.2-13.9-3.1-18.3c0-1.1-0.9-2.1-2-2.1c0,0,0,0-0.1,0
	c-1.1,0-2,0.9-2.1,2c-0.4,13.3,9.5,44,22.1,55.4c6.1,5.5,7.6,12,5.6,15c-2.3,3.4-9,3-17.5-1.1c-21-9.9-33-52-34.5-57.6
	c2.8-8.2,3.7-19,2.8-32.2c-0.9-12.1-3-21.5-3.1-21.9c-0.3-1.1-1.4-1.8-2.5-1.6c-1.1,0.3-1.8,1.4-1.6,2.5c0.1,0.3,7.2,32.7,0.2,52.4
	c0,0,0,0,0,0c-0.5,1.5-1.1,2.9-1.8,4.2c-2.6,4.9-5.6,7.5-9,7.8c-5.4,0.5-11-5.1-12.8-7.4c-0.5-1-4.6-9,0.2-20.3
	c1.4-3.3,2.6-5,3.6-6.3c3.3-4.6,4-6.6,2.2-31.7l0-0.7c-0.4-6.1-0.9-12.4-1.1-18.6c-0.3-8-0.5-17.3,2.1-26c0.7-2.4,1.7-4.7,2.8-7.1
	c0.6-1.5,1.3-3,1.9-4.5l0.4-0.9c2.2-5.7,4.7-12.1,8.1-17.1c3-4.3,8-9.6,15.1-10.6c17.2-2.5,29.5,5.9,32.3,21.8
	c1.4,8.4,0.7,13.5-0.2,19c-0.9,5.9-1.8,11.9,0.2,21.8c0.4,1.8,0.7,3.5,1,5.2c3.1,16.3,5.5,29.1,22.7,43.5
	c15.8,13.3,36.7,18.9,50.5,22.6c2.6,0.7,4.9,1.3,6.9,1.9c8.8,2.7,16.3,8.3,17.3,13.1c0.5,2.2-0.4,4.3-2.7,6.3
	c-5.1,4.5-14.3,5.6-25.8,3.1c-0.9-0.2-1.8-0.4-2.8-0.7c-1.6-0.4-3.2-0.9-4.8-1.4c0,0,0,0-0.1,0c-13.5-4.3-29.1-12.6-46.7-24.7
	c-0.9-0.6-2.2-0.4-2.9,0.5c-0.6,0.9-0.4,2.2,0.5,2.9c20.1,13.9,37.8,22.8,52.8,26.7c14.1,4,25.3,6.8,34.6,9.1
	c23.3,5.8,30.1,7.8,30.8,14.6C452.5,727.1,443.7,728.4,442.9,728.5z M481.6,732.2c-1.5,2.8-4.8,4.4-8.8,4.4c-2.8,0-5.7-0.8-8.5-2.2
	c-3.4-1.9-6.1-4.6-7.6-7.6c-1.3-2.9-1.4-5.7-0.2-8c1.5-2.8,4.8-4.4,8.8-4.4c2.8,0,5.7,0.8,8.5,2.2c3.4,1.9,6.1,4.6,7.6,7.6
	C482.8,727.1,482.8,729.9,481.6,732.2z"/>
<path fill="#D4003B" d="M252.4,699.9c1.4-1.4,2.1-3.2,2.1-5.1c0-1.9-0.7-3.8-2.1-5.1c-1.3-1.3-3.1-2-5-2c-2,0-3.8,0.8-5.2,2.2
	c-2.8,2.9-2.8,7.5,0,10.2c1.3,1.3,3.1,2,5,2C249.1,702.1,251,701.4,252.4,699.9z M250.4,694.8c0,0.8-0.3,1.6-0.9,2.2
	c-0.6,0.6-1.4,1-2.3,1c-0.8,0-1.6-0.3-2.1-0.9c-1.2-1.2-1.2-3.2,0-4.4c0.6-0.6,1.4-1,2.3-1c0.8,0,1.6,0.3,2.1,0.9
	C250.1,693.2,250.4,694,250.4,694.8z"/>
<path fill="#D4003B" d="M333.6,744.3c-1.4,1.4-2.1,3.2-2.1,5.1c0,1.9,0.7,3.8,2.1,5.1c1.3,1.3,3.1,2,5,2c2,0,3.8-0.8,5.2-2.2
	c2.8-2.9,2.8-7.5,0-10.2c-1.3-1.3-3.1-2-5-2C336.9,742.1,335,742.9,333.6,744.3z M335.6,749.4c0-0.8,0.3-1.6,0.9-2.2
	c0.6-0.6,1.4-1,2.3-1c0.8,0,1.6,0.3,2.1,0.9c1.2,1.2,1.2,3.2,0,4.4c-0.6,0.6-1.4,1-2.3,1c-0.8,0-1.6-0.3-2.1-0.9
	C336,751,335.6,750.2,335.6,749.4z"/>
<path fill="#D4003B" d="M474.2,730.5c2.8-2.9,2.8-7.5,0-10.2c-1.3-1.3-3.1-2-5-2c-2,0-3.8,0.8-5.2,2.2c-1.4,1.4-2.1,3.2-2.1,5.1
	c0,1.9,0.7,3.8,2.1,5.1c1.3,1.3,3.1,2,5,2C471,732.7,472.8,731.9,474.2,730.5z M471.3,727.6c-0.6,0.6-1.4,1-2.3,1
	c-0.8,0-1.6-0.3-2.1-0.9c-0.6-0.6-0.9-1.3-0.9-2.2c0-0.8,0.3-1.6,0.9-2.2c0.6-0.6,1.4-1,2.3-1c0.8,0,1.6,0.3,2.1,0.9
	C472.5,724.4,472.5,726.4,471.3,727.6z"/>
<path fill="#D4003B" d="M428.9,666.7c-2.8,2.9-2.8,7.5,0,10.2c1.3,1.3,3.1,2,5,2c2,0,3.8-0.8,5.2-2.2c1.4-1.4,2.1-3.2,2.1-5.1
	c0-1.9-0.7-3.8-2.1-5.1c-1.3-1.3-3.1-2-5-2C432.1,664.5,430.3,665.3,428.9,666.7z M431.8,669.6c0.6-0.6,1.4-1,2.3-1
	c0.8,0,1.6,0.3,2.1,0.9c0.6,0.6,0.9,1.3,0.9,2.2c0,0.8-0.3,1.6-0.9,2.2c-0.6,0.6-1.4,1-2.3,1c-0.8,0-1.6-0.3-2.1-0.9
	C430.5,672.8,430.6,670.9,431.8,669.6z"/>
</svg>
