<?xml version="1.0" encoding="utf-8"?>
<!-- Generator: Adobe Illustrator 17.1.0, SVG Export Plug-In . SVG Version: 6.00 Build 0)  -->
<!DOCTYPE svg PUBLIC "-//W3C//DTD SVG 1.1//EN" "http://www.w3.org/Graphics/SVG/1.1/DTD/svg11.dtd">
<svg version="1.1" id="Layer_1" xmlns="http://www.w3.org/2000/svg" xmlns:xlink="http://www.w3.org/1999/xlink" x="0px" y="0px"
	 viewBox="0 0 1000 1000" enable-background="new 0 0 1000 1000" xml:space="preserve">
<g id="Layer_1_1_">
</g>
<path fill="#FFCCD0" d="M575.3,390.8c0,25.5,24,65.5,29,73.5c-1,4-1.5,8.1-1.2,12.3c1.2,17.9,15.7,28.1,24.2,32.6
	c-1.7,20.6,5.8,34.4,12.7,42.4c4.9,5.8,10.1,9.4,13.4,11.3c0,7.4,4,21,25.9,41.2c0.7,0.7,1.6,1,2.5,1c1,8.3,5.9,22.7,26,37.4
	c1.4,3.8,6.3,16,18.2,30.9c12.9,16.2,36.8,38.9,77.6,55c0.4,0.2,0.8,0.2,1.3,0.3c0.5,0,11.8,0.1,27.1-9.2
	c5.6-3.4,10.8-7.5,15.5-12.1c0.1-0.1,0.2-0.2,0.3-0.3c3.2-3.1,6.2-6.4,9.1-9.8c0.2-0.2,0.4-0.5,0.6-0.7c2.3-2.8,4.4-5.6,6.4-8.5
	l0.1-0.1c0.2-0.2,0.3-0.5,0.5-0.7c3.2-4.7,6.1-9.5,8.7-14.2c0.1-0.2,0.2-0.4,0.3-0.6c3.4-6.1,6.2-12.1,8.6-17.6c0.6-1.4,0.3-3-0.7-4
	c-2-2.1-45.8-46.5-81.8-57.8c0.4-0.5,0.8-1,0.9-1.7c0.2-1.1,0-2.2-0.7-3l-16.8-22L770.9,545c-3.3-10.1-9.8-17.9-19.1-23.1
	c1-0.6,1.8-1.6,1.9-2.9c1.2-13.5-3.8-29.1-12.7-39.6c-2.1-2.5-4.7-4.7-7.7-6.4c-4.2-2.4-8.8-4-13.4-4.9c-0.5-17-8.5-32.1-23.2-44.3
	c-3.2-19.7-11.3-46-32.1-62.3c-9.6-7.6-18.5-10.3-22.7-11.2l-12.5-41.7c-0.5-1.5-1.9-2.6-3.5-2.6c-14.5,0-35.4,9.4-36.2,9.8
	c-1.7,0.8-2.5,2.7-2,4.4l11,35.4C591.2,358.7,575.3,368,575.3,390.8z"/>
<path fill="#FF0015" d="M575.3,390.8c0,25.5,24,65.5,29,73.5c-1,4-1.5,8.1-1.2,12.3c1.2,17.9,15.7,28.1,24.2,32.6
	c-1.7,20.6,5.8,34.4,12.7,42.4c4.9,5.8,10.1,9.4,13.4,11.3c0,7.4,4,21,25.9,41.2c0.7,0.7,1.6,1,2.5,1c1,8.3,5.9,22.7,26,37.4
	c1.4,3.8,6.3,16,18.2,30.9c12.9,16.2,36.8,38.9,77.6,55c0.4,0.2,0.8,0.2,1.3,0.3c0.5,0,11.8,0.1,27.1-9.2
	c5.6-3.4,10.8-7.5,15.5-12.1c0.1-0.1,0.2-0.2,0.3-0.3c3.2-3.1,6.2-6.4,9.1-9.8c0.2-0.2,0.4-0.5,0.6-0.7c2.3-2.8,4.4-5.6,6.4-8.5
	l0.1-0.1c0.2-0.2,0.3-0.5,0.5-0.7c3.2-4.7,6.1-9.5,8.7-14.2c0.1-0.2,0.2-0.4,0.3-0.6c3.4-6.1,6.2-12.1,8.6-17.6c0.6-1.4,0.3-3-0.7-4
	c-2-2.1-45.8-46.5-81.8-57.8c0.4-0.5,0.8-1,0.9-1.7c0.2-1.1,0-2.2-0.7-3l-16.8-22L770.9,545c-3.3-10.1-9.8-17.9-19.1-23.1
	c1-0.6,1.8-1.6,1.9-2.9c1.2-13.5-3.8-29.1-12.7-39.6c-2.1-2.5-4.7-4.7-7.7-6.4c-4.2-2.4-8.8-4-13.4-4.9c-0.5-17-8.5-32.1-23.2-44.3
	c-3.2-19.7-11.3-46-32.1-62.3c-9.6-7.6-18.5-10.3-22.7-11.2l-12.5-41.7c-0.5-1.5-1.9-2.6-3.5-2.6c-14.5,0-35.4,9.4-36.2,9.8
	c-1.7,0.8-2.5,2.7-2,4.4l11,35.4C591.2,358.7,575.3,368,575.3,390.8z M610.4,476.1c-1-14.8,9.8-29.3,16-36.4c0.5,1.5,1,3,1.6,4.6
	c4.2,10.8,10.5,19.5,18.8,25.8c-0.6,5.9-3.2,24.2-13,34.1C627.9,501.5,611.4,492.6,610.4,476.1z M648.3,435.8c1-0.4,1.8-1.3,2.1-2.4
	c0.1-0.4,1.8-6.3,2.8-14.7c25.9,29.1,17.2,47.9,13.5,53.4c-5.2-1.6-9.8-3.8-13.9-6.7l0,0c-7.9-5.5-13.9-13.4-17.9-23.6
	c-2.2-5.7-3.4-11.2-4.1-15.5c4.2,3.2,9,6.3,14.3,9.3C646.1,436.2,647.3,436.3,648.3,435.8z M707.5,520.3c0.2,0.3,0.3,0.6,0.6,0.9
	c4,6,7,13.8,6,23.4c-0.1,1.1-0.3,5.8,2.7,19.8c-9.1-1.3-30-7.8-40-40.1c0.4-2.2,0.7-4.2,1-5.9c8.6,4.2,15,3.9,15.5,3.9
	c1.8-0.1,3.2-1.5,3.4-3.2c0.4-3.2,0.5-6.2,0.6-9.1C700.4,512.3,704.3,515.8,707.5,520.3z M766.9,602.6c5.2,6.6,7.9,13.3,8.4,21.2
	c-0.2,1.2-0.4,3.1,0,5.3c0,0.2,0,0.3,0,0.5c-0.1,2.5-0.3,4.5-0.5,5.9c-29.1-10.5-38.5-22.8-41.5-30c5.6,2.5,11.1,4.2,16.1,5.3
	c1.8,0.4,3.5-0.5,4.2-2.2c0.1-0.4,1.9-5.1,1.3-14.2C759.2,595.3,763.5,598.2,766.9,602.6z M860.3,679.9l-49.2-41
	c5.4-0.3,8.2,0.3,15.3,4.3c10.5,5.9,31.8,22.7,38.9,28.4C863.8,674.4,862.1,677.2,860.3,679.9z M800.6,639.7l55.5,46.2
	c-1,1.3-1.9,2.6-3,3.9c-29.4-13.5-50.5-38.4-59-49.8c0.2,0,0.5,0,0.7,0C797,640,798.9,639.9,800.6,639.7z M784.2,638.8
	c3.8,5.8,27,39.2,64.1,56.9c-1.3,1.4-2.6,2.8-3.9,4.2c-29.7-15.8-54.8-42-67.1-56.2c0.7,0,1.4-0.3,2-0.7c1-0.7,1.9-1.6,2.5-5.3
	C782.6,638.1,783.4,638.5,784.2,638.8z M831.7,710.6l-63.1-52.8c0,0-0.1,0-0.1-0.1c0.1-2.3,0.1-4.6-0.1-6.9
	c-0.2-2.8-0.6-5.4-1.2-7.8c9.8,12,37.1,43.1,71.6,62.1C836.5,707.1,834.1,708.9,831.7,710.6z M818.8,717.7
	c-18.5-7-33.4-17.5-43.1-30.5c-2.5-3.4-7.8-10.5-8.8-16.2c-0.2-1.1,0.2-2.9,0.6-4.6l57.8,48.3C822.9,715.9,820.8,716.9,818.8,717.7z
	 M738,563.9c10,20.2,10.1,33.2,9.4,38.7c-6.9-1.9-12.5-4.3-17.1-7c-0.1-0.1-0.2-0.1-0.3-0.2c-2.2-1.3-4.1-2.7-5.9-4
	c-0.2-0.2-0.4-0.4-0.7-0.5c-8.7-7.2-12.2-15.3-13.6-20.5c6.8,1.9,11.6,1.6,11.9,1.6c1.1-0.1,2.1-0.6,2.7-1.5c0.6-0.9,0.9-2,0.6-3
	c-1.3-5.8-2.2-10.1-2.7-13.4C727.4,558.3,732.7,561.5,738,563.9z M682,475.3c0.1,0.4,0.3,0.7,0.6,1c4.5,8.2,8.6,20.8,7.3,38.5
	c-2.9-0.5-7.5-1.7-12.8-5.1c0,0,0,0-0.1,0c-7.5-4.7-16.4-13.5-24.2-30c0.4-1.9,0.7-3.6,0.9-5.1c4.2,2.3,8.7,4.1,13.6,5.3
	c1.3,0.3,2.7-0.1,3.6-1c0.2-0.2,3.7-4,5.9-11C678.3,469.7,680.2,472.1,682,475.3z M634.4,512.1c0.9,0,1.8-0.3,2.4-0.9
	c6.5-5.5,10.5-13.5,13.1-21.1c6.8,12,14.2,19.6,21,24.3c-0.7,6.3-3.5,26.1-14.2,41.9C650.1,552.3,633.1,539.3,634.4,512.1z
	 M660.7,563.4C660.7,563.3,660.8,563.3,660.7,563.4c6.4-8.5,10.5-18,13.1-26.5c6.5,14.6,15.4,23,23,27.8c-1.3,17.4-9,26.8-13.6,30.9
	c-0.2,0.1-0.3,0.3-0.5,0.4c-0.3,0.2-0.5,0.4-0.7,0.6C664.1,579.5,660.9,568.6,660.7,563.4z M688.8,600.3c4.8-4.5,11.5-13,14.2-27
	c0.9,3.1,2.4,6.9,4.9,10.8c2.8,4.6,6.2,8.4,10,11.7c1.6,26.5-4.3,36.4-7.2,39.6C689.2,619.2,688.6,604.4,688.8,600.3z M731.9,669
	c-10-12.5-14.9-23.1-16.7-27.6c3.9-3.6,10.2-13,10.4-35.9c2.1,7.2,8.9,18.8,30,29.6c3.2,3.7,5,9.2,5.6,16.4
	c0.2,3.3,0.2,6.7-0.2,10.1c-0.1,0.9-0.3,1.9-0.6,3c-0.5,2.4-1.1,5.1-0.7,7.7c1.2,6.5,5.6,13.1,10.2,19.3c8.9,12,21.8,22,37.7,29.3
	c-0.9,0.1-1.6,0.2-2,0.2C766.8,705.7,744.1,684.3,731.9,669z M868.9,665.1c-8.1-6.5-28.2-22.4-38.9-28.3c-10.8-6-14.6-5.7-23.8-4.9
	c-3,0.3-6.7,0.6-11.6,0.8c-5.6,0.2-9.4-0.8-11.1-2.9c-0.4-0.5-0.6-1-0.8-1.5c0-1.3,0-2.7,0-4c0.1-0.6,0.1-1.1-0.1-1.7
	c-0.7-8.2-3.4-15.6-8.4-22.6c3.9,0,8.6-0.6,14.1-2.3c31.2,3.8,76.7,47,86.1,56.3C872.7,657.6,870.9,661.3,868.9,665.1z M786.6,590.6
	L786.6,590.6c-14,4.5-21.2,0.5-21.6,0.3l0,0c-3.5-2.3-7.3-3.7-11.2-4.1c-1-5.4-2.9-11.7-6-19.1c13.7,4.3,25.7,4.5,30.4,4.4
	l12.9,16.8C789.5,589.6,788,590.1,786.6,590.6z M764,547.6c0.1,0.2,0.2,0.5,0.3,0.7l9.3,16.5c-11-0.4-34.8-3.5-52.2-21.1
	c0.6-8.5-1.4-15.8-4.5-21.7C729.1,521.5,756.3,523.5,764,547.6z M735.3,484.2c6.9,8.1,11.1,20.1,11.2,30.8l-24.7-0.4
	c-0.7,0-1.5,0-2.1,0c-3,0-5.4,0.2-7.1,0.3c-5.6-7.3-12.3-11.9-15.4-13.8c-0.8-10.1-3.3-18.3-6.3-24.7c21.1-4.6,33.2-0.2,38.7,3
	C731.8,480.7,733.8,482.3,735.3,484.2z M712.4,467.3c-1.4-0.1-2.8-0.1-4.2-0.1c-7.9,0-15.3,1.3-21,2.6c-3.5-5.5-6.9-8.9-8.8-10.6
	c0-0.1,0-0.1,0-0.2c1-15.3-6.6-31.5-22.5-48.3c6.2,1.9,16.2,5.7,26.1,11.7c3.2,2,6.2,4,8.9,6.2c0.1,0.1,0.2,0.1,0.3,0.2
	C704.5,439.5,711.6,452.4,712.4,467.3z M603.9,361.4c1-0.2,1.8-0.9,2.3-1.8s0.6-1.9,0.3-2.9l-11.1-35.6c5.6-2.3,17.9-7,27.6-7.8
	l12.3,41.1c0.4,1.4,1.6,2.4,3.1,2.6c0.4,0,37.5,5,49.5,60.4c-0.8-0.5-1.6-1-2.4-1.5c-13-7.9-25.8-12-31.3-13.5
	c-0.5-18.2-6.6-30.9-18-36.9c-0.5-0.3-1.1-0.4-1.7-0.4c-1.3,0-2.6,0.7-3.2,1.9c-0.9,1.8-0.3,4,1.5,4.9c19,10,14.2,42.5,11.7,54.7
	c-6-3.7-11.1-7.5-15.3-11.4c-0.1-0.1-0.2-0.2-0.2-0.2c-6.6-6.3-10.8-12.9-12.6-19.9c-3-11.5,2-19.7,2.2-20.1c1.1-1.7,0.6-3.9-1.1-5
	c-1.7-1.1-4-0.6-5.1,1.1c-0.3,0.4-6.9,10.9-3.2,25.6c2,8,6.6,15.5,13.6,22.5c0.1,2.2,0.4,6.5,1.4,11.8c-3.4,3.4-11.7,12.5-16.8,24
	c-7.8-13.4-24.8-44.7-24.8-64.5C582.6,367.1,603.1,361.7,603.9,361.4z"/>
<path fill="#FFCCD0" d="M428,355.6l11-35.4c0.5-1.8-0.3-3.6-2-4.4c-0.9-0.4-21.7-9.8-36.2-9.8c-1.6,0-3,1.1-3.5,2.6l-12.5,41.7
	c-4.2,0.9-13.1,3.7-22.7,11.2c-20.8,16.3-28.9,42.6-32.1,62.3c-14.7,12.2-22.7,27.3-23.2,44.3c-4.7,0.9-9.2,2.4-13.4,4.9
	c-3,1.8-5.6,3.9-7.7,6.4c-8.9,10.5-13.9,26-12.7,39.6c0.1,1.2,0.8,2.3,1.9,2.9c-9.3,5.2-15.8,13-19.1,23.1l-12.1,21.4L227,588.1
	c-0.7,0.9-0.9,2-0.7,3c0.1,0.6,0.5,1.2,0.9,1.7c-36,11.4-79.8,55.7-81.8,57.8c-1,1.1-1.3,2.6-0.7,4c2.4,5.5,5.2,11.5,8.6,17.6
	c0.1,0.2,0.2,0.4,0.3,0.6c2.6,4.7,5.5,9.5,8.7,14.2c0.1,0.3,0.3,0.5,0.5,0.7c0,0.1,0.1,0.1,0.1,0.1c2,2.9,4.1,5.7,6.4,8.5
	c0.2,0.3,0.4,0.5,0.6,0.7c2.8,3.4,5.9,6.7,9.1,9.8c0.1,0.1,0.2,0.2,0.3,0.3c4.7,4.5,9.9,8.6,15.5,12.1c15.3,9.3,26.6,9.2,27.1,9.2
	c0.4,0,0.9-0.1,1.3-0.3c40.8-16.2,64.7-38.8,77.6-55c11.9-14.9,16.8-27.1,18.2-30.9c20-14.7,25-29.1,26-37.4c0.9,0,1.8-0.3,2.5-1
	c21.9-20.1,25.9-33.8,25.9-41.2c3.2-1.9,8.4-5.5,13.4-11.3c6.8-8,14.4-21.7,12.7-42.4c8.5-4.5,23.1-14.8,24.2-32.6
	c0.3-4.2-0.2-8.3-1.2-12.3c5-8,29-48,29-73.5C451.3,368,435.4,358.7,428,355.6z"/>
<path fill="#FF0015" d="M428,355.6l11-35.4c0.5-1.8-0.3-3.6-2-4.4c-0.9-0.4-21.7-9.8-36.2-9.8c-1.6,0-3,1.1-3.5,2.6l-12.5,41.7
	c-4.2,0.9-13.1,3.7-22.7,11.2c-20.8,16.3-28.9,42.6-32.1,62.3c-14.7,12.2-22.7,27.3-23.2,44.3c-4.7,0.9-9.2,2.4-13.4,4.9
	c-3,1.8-5.6,3.9-7.7,6.4c-8.9,10.5-13.9,26-12.7,39.6c0.1,1.2,0.8,2.3,1.9,2.9c-9.3,5.2-15.8,13-19.1,23.1l-12.1,21.4L227,588.1
	c-0.7,0.9-0.9,2-0.7,3c0.1,0.6,0.5,1.2,0.9,1.7c-36,11.4-79.8,55.7-81.8,57.8c-1,1.1-1.3,2.6-0.7,4c2.4,5.5,5.2,11.5,8.6,17.6
	c0.1,0.2,0.2,0.4,0.3,0.6c2.6,4.7,5.5,9.5,8.7,14.2c0.1,0.3,0.3,0.5,0.5,0.7c0,0.1,0.1,0.1,0.1,0.1c2,2.9,4.1,5.7,6.4,8.5
	c0.2,0.3,0.4,0.5,0.6,0.7c2.8,3.4,5.9,6.7,9.1,9.8c0.1,0.1,0.2,0.2,0.3,0.3c4.7,4.5,9.9,8.6,15.5,12.1c15.3,9.3,26.6,9.2,27.1,9.2
	c0.4,0,0.9-0.1,1.3-0.3c40.8-16.2,64.7-38.8,77.6-55c11.9-14.9,16.8-27.1,18.2-30.9c20-14.7,25-29.1,26-37.4c0.9,0,1.8-0.3,2.5-1
	c21.9-20.1,25.9-33.8,25.9-41.2c3.2-1.9,8.4-5.5,13.4-11.3c6.8-8,14.4-21.7,12.7-42.4c8.5-4.5,23.1-14.8,24.2-32.6
	c0.3-4.2-0.2-8.3-1.2-12.3c5-8,29-48,29-73.5C451.3,368,435.4,358.7,428,355.6z M392.8,504.2c-9.8-10-12.4-28.2-13-34.1
	c8.3-6.3,14.6-15,18.8-25.8c0.6-1.5,1.1-3.1,1.6-4.6c6.3,7.1,17,21.6,16,36.4C415.1,492.6,398.6,501.5,392.8,504.2z M381.4,435.6
	c5.3-3,10.1-6.1,14.3-9.3c-0.6,4.3-1.8,9.8-4.1,15.5c-4,10.2-10,18-17.9,23.6l0,0c-4.1,2.9-8.8,5.1-13.9,6.7
	c-3.7-5.5-12.4-24.3,13.5-53.4c1.1,8.4,2.7,14.4,2.8,14.7c0.3,1.1,1.1,2,2.1,2.4C379.3,436.3,380.5,436.2,381.4,435.6z M329.2,510.1
	c0.1,2.9,0.2,5.9,0.6,9.1c0.2,1.8,1.6,3.1,3.4,3.2c0.5,0,6.9,0.3,15.5-3.9c0.2,1.7,0.5,3.6,1,5.9c-10,32.4-30.9,38.9-40,40.1
	c3-14.1,2.9-18.7,2.7-19.8c-1-9.6,2-17.4,6-23.4c0.2-0.3,0.4-0.5,0.6-0.9C322.3,515.8,326.2,512.3,329.2,510.1z M271.7,594.4
	c-0.7,9,1.1,13.8,1.3,14.2c0.7,1.7,2.5,2.6,4.2,2.2c4.9-1.1,10.5-2.8,16.1-5.3c-3,7.2-12.4,19.5-41.5,30c-0.2-1.4-0.4-3.4-0.5-5.9
	c0-0.2,0-0.3,0-0.5c0.4-2.2,0.2-4.1,0-5.3c0.5-7.8,3.2-14.5,8.4-21.2C263.1,598.2,267.4,595.3,271.7,594.4z M161.2,671.7
	c7.1-5.7,28.4-22.6,38.9-28.4c7.2-4,9.9-4.6,15.3-4.3l-49.2,41C164.5,677.2,162.8,674.4,161.2,671.7z M231.7,640c0.2,0,0.5,0,0.7,0
	c-8.6,11.4-29.6,36.3-59,49.8c-1-1.3-2-2.6-3-3.9l55.5-46.2C227.7,639.9,229.6,640,231.7,640z M244.8,637.7c0.6,3.7,1.5,4.6,2.5,5.3
	c0.6,0.4,1.3,0.6,2,0.7c-12.3,14.2-37.3,40.4-67.1,56.2c-1.4-1.4-2.7-2.8-3.9-4.2c37-17.7,60.3-51.2,64.1-56.9
	C243.2,638.5,244,638.1,244.8,637.7z M187.8,705.2c34.5-19,61.8-50.1,71.6-62.1c-0.6,2.4-1,5-1.2,7.8c-0.2,2.2-0.2,4.5-0.1,6.9
	c0,0-0.1,0-0.1,0.1l-63.1,52.8C192.4,708.9,190.1,707.1,187.8,705.2z M201.4,714.7l57.8-48.3c0.4,1.7,0.8,3.5,0.6,4.6
	c-1,5.7-6.3,12.8-8.8,16.2c-9.7,13-24.6,23.5-43.1,30.5C205.8,716.9,203.7,715.9,201.4,714.7z M304.3,554.2
	c-0.5,3.3-1.4,7.6-2.7,13.4c-0.2,1,0,2.1,0.6,3s1.6,1.4,2.7,1.5c0.3,0,5.1,0.3,11.9-1.6c-1.4,5.2-4.9,13.3-13.6,20.5
	c-0.2,0.1-0.5,0.3-0.7,0.5c-1.8,1.4-3.7,2.8-5.9,4c-0.1,0.1-0.2,0.1-0.3,0.2c-4.6,2.7-10.3,5.1-17.1,7c-0.7-5.5-0.7-18.5,9.4-38.7
	C293.8,561.5,299.2,558.3,304.3,554.2z M349.9,467.9c2.2,6.9,5.7,10.7,5.9,11c0.9,1,2.3,1.4,3.6,1c4.9-1.3,9.4-3.1,13.6-5.3
	c0.2,1.5,0.5,3.2,0.9,5.1c-7.8,16.4-16.7,25.3-24.2,30c0,0,0,0-0.1,0c-5.4,3.4-10,4.7-12.8,5.1c-1.3-17.8,2.8-30.3,7.3-38.5
	c0.2-0.3,0.4-0.6,0.6-1C346.4,472.1,348.3,469.7,349.9,467.9z M369.8,556.4c-10.7-15.8-13.5-35.6-14.2-41.9
	c6.8-4.7,14.2-12.3,21-24.3c2.6,7.6,6.6,15.6,13.1,21.1c0.7,0.6,1.6,0.9,2.4,0.9C393.5,539.3,376.4,552.3,369.8,556.4z M344.6,596.6
	c-0.2-0.2-0.5-0.4-0.7-0.6c-0.1-0.2-0.3-0.3-0.5-0.4c-4.6-4.1-12.3-13.4-13.6-30.9c7.7-4.8,16.5-13.2,23-27.8
	c2.6,8.5,6.7,18,13,26.4c0,0.1,0.1,0.1,0.1,0.1C365.7,568.6,362.5,579.5,344.6,596.6z M315.9,635.4c-2.9-3.2-8.9-13.1-7.2-39.6
	c3.8-3.2,7.2-7.1,10-11.7c2.4-4,3.9-7.7,4.9-10.8c2.7,14,9.4,22.5,14.2,27C338,604.4,337.3,619.2,315.9,635.4z M221.1,721.2
	c-0.4,0-1.1-0.1-2-0.2c15.8-7.3,28.7-17.3,37.7-29.3c4.6-6.2,9-12.8,10.2-19.3c0.5-2.6-0.1-5.3-0.7-7.7c-0.2-1.1-0.5-2.1-0.6-3
	c-0.4-3.5-0.4-6.9-0.2-10.1c0.5-7.2,2.4-12.7,5.6-16.4c21-10.8,27.8-22.4,30-29.6c0.2,22.9,6.5,32.3,10.4,35.9
	c-1.8,4.5-6.7,15.1-16.7,27.6C282.5,684.3,259.8,705.7,221.1,721.2z M152.3,654c9.4-9.3,54.9-52.5,86.1-56.3
	c5.5,1.7,10.2,2.3,14.1,2.3c-5,7-7.7,14.4-8.4,22.6c-0.2,0.5-0.2,1.1-0.1,1.7c-0.1,1.3-0.1,2.6,0,4c-0.2,0.5-0.4,1.1-0.8,1.5
	c-1.7,2.1-5.5,3.1-11.1,2.9c-4.9-0.2-8.6-0.5-11.6-0.8c-9.2-0.8-13-1.1-23.8,4.9c-10.7,5.9-30.8,21.8-38.9,28.3
	C155.7,661.3,153.9,657.6,152.3,654z M235.5,588.9l12.9-16.8c4.7,0.1,16.7-0.1,30.4-4.4c-3.1,7.3-4.9,13.7-6,19.1
	c-3.9,0.4-7.7,1.8-11.2,4.1l0,0c-0.3,0.2-7.6,4.2-21.5-0.3H240C238.5,590.1,237.1,589.6,235.5,588.9z M309.5,521.9
	c-3.1,6-5,13.2-4.5,21.7c-17.3,17.6-41.2,20.7-52.2,21.1l9.3-16.5c0.1-0.2,0.2-0.5,0.3-0.7C270.2,523.5,297.5,521.5,309.5,521.9z
	 M297.1,479.4c5.5-3.2,17.6-7.6,38.7-3c-3,6.4-5.5,14.5-6.3,24.7c-3.1,1.9-9.8,6.4-15.4,13.8c-1.6-0.1-4.1-0.3-7.1-0.3
	c-0.7,0-1.4,0-2.1,0l-24.7,0.4c0-10.7,4.3-22.7,11.2-30.8C292.8,482.3,294.8,480.7,297.1,479.4z M335.5,428.8
	c0.1-0.1,0.2-0.1,0.3-0.2c2.7-2.1,5.7-4.2,8.9-6.2c9.9-6.1,19.9-9.8,26.1-11.7c-15.9,16.8-23.5,33-22.5,48.3c0,0.1,0,0.1,0,0.2
	c-1.9,1.7-5.3,5.1-8.8,10.6c-5.7-1.3-13.2-2.6-21-2.6c-1.4,0-2.8,0-4.2,0.1C314.9,452.4,322.1,439.5,335.5,428.8z M444,390.8
	c0,19.8-17,51.1-24.8,64.5c-5.2-11.6-13.4-20.6-16.8-24c1-5.3,1.3-9.6,1.4-11.8c7.1-7,11.6-14.6,13.6-22.5
	c3.7-14.6-2.9-25.2-3.2-25.6c-1.1-1.7-3.4-2.2-5.1-1.1s-2.2,3.3-1.1,5c0.2,0.4,5.2,8.5,2.2,20.1c-1.8,6.9-6,13.6-12.6,19.9
	c-0.1,0.1-0.2,0.2-0.2,0.2c-4.2,4-9.3,7.8-15.3,11.4c-2.5-12.2-7.3-44.7,11.7-54.7c1.8-0.9,2.5-3.2,1.5-4.9
	c-0.7-1.2-1.9-1.9-3.2-1.9c-0.6,0-1.2,0.1-1.7,0.4c-11.4,6-17.6,18.7-18,36.9c-5.5,1.5-18.4,5.6-31.3,13.5c-0.8,0.5-1.6,1-2.4,1.5
	c11.9-55.5,49.1-60.4,49.5-60.4c1.5-0.2,2.7-1.2,3.1-2.6l12.3-41.1c9.7,0.8,22,5.5,27.6,7.8L420,356.8c-0.3,1-0.2,2,0.3,2.9
	s1.3,1.5,2.3,1.8C423.5,361.7,444,367.1,444,390.8z"/>
</svg>
