<?xml version="1.0" encoding="utf-8"?>
<!-- Generator: Adobe Illustrator 17.1.0, SVG Export Plug-In . SVG Version: 6.00 Build 0)  -->
<!DOCTYPE svg PUBLIC "-//W3C//DTD SVG 1.1//EN" "http://www.w3.org/Graphics/SVG/1.1/DTD/svg11.dtd">
<svg version="1.1" id="Layer_1" xmlns="http://www.w3.org/2000/svg" xmlns:xlink="http://www.w3.org/1999/xlink" x="0px" y="0px"
	 viewBox="0 0 1000 1000" enable-background="new 0 0 1000 1000" xml:space="preserve">
<g id="Layer_1_1_">
</g>
<path fill="#FAE3E3" d="M339.3,623.7c-4.1,14.1,6.6,23.1,13,26.1c10.7,7.3,21.1,10.9,31,10.9c4.1,0,8.2-0.6,12.1-1.9
	c10.8-3.4,21.1-11.9,29.5-24.4c4.4-6.5,7.2-12.5,8.6-15.6c3.1,1.1,6.2,1.7,9.3,1.8c0.3,0,0.7,0,1,0c1.8,0,3.5-0.2,5.2-0.6
	c1.2,5.9,9.3,38.7,53.6,53.1c5.9,1.9,12.2,2.9,18.5,2.9c14.8,0,30.4-5.3,45.9-15.6c16.6-11,27.2-23.8,27.6-24.3
	c0.6-0.8,0.7-1.9,0.2-2.8c-5-8.7-12.3-14.4-18.9-18c5.2-1,10.5-3,15.7-6.1c8.3-4.9,13.5-10.7,13.7-10.9c0.9-0.9,0.8-2.5-0.1-3.4
	c-9.6-9.6-10.5-15.2-10.2-17.7c0.2-1.2,0.7-2.1,1.1-2.6c4,1.1,7.8,0.5,11.1-1.5c8.9-5.5,11.5-20.2,11.7-21.7
	c8.8-39.1-48.9-150.4-54.2-160.5c1.1-21.8-24.9-40.3-26-41.1c-0.5-0.4-1-0.5-1.6-0.5c-0.7,0.1-3.4,0.2-7.7,0.5
	c-4.6-5.8-27.5-33.8-58.1-56.3c-20.1-14.8-39.6-24.4-58-28.5c-23.2-5.2-44.5-1.6-63.4,10.6c-1.1,0.7-27.4,17.5-32.7,46.9
	c-3.1,17.5,1.8,35.6,14.7,53.8c-10.1,2.2-13.4,11.1-14,12.9c-11.7,23.5,22.1,57.3,26.2,61.3c1.7,4,15.3,37.1,1.5,68.2
	c-6.5,14.7-7.7,26-3.7,33.8c3,5.8,8.1,7.6,9.6,8c4.3,2.3,8.7,3.4,12.8,3.4l0,0c1.3,0,2.6-0.2,3.9-0.4c-3.3,18.4-11.4,30.4-18.6,41
	C345,611.3,341.1,617.1,339.3,623.7z"/>
<g>
	<path fill="#BF001A" d="M339.3,623.7c-4.1,14.1,6.6,23.1,13,26.1c10.7,7.3,21.1,10.9,31,10.9c4.1,0,8.2-0.6,12.1-1.9
		c10.8-3.4,21.1-11.9,29.5-24.4c4.4-6.5,7.2-12.5,8.6-15.6c3.1,1.1,6.2,1.7,9.3,1.8c0.3,0,0.7,0,1,0c1.8,0,3.5-0.2,5.2-0.6
		c1.2,5.9,9.3,38.7,53.6,53.1c5.9,1.9,12.2,2.9,18.5,2.9c14.8,0,30.4-5.3,45.9-15.6c16.6-11,27.2-23.8,27.6-24.3
		c0.6-0.8,0.7-1.9,0.2-2.8c-5-8.7-12.3-14.4-18.9-18c5.2-1,10.5-3,15.7-6.1c8.3-4.9,13.5-10.7,13.7-10.9c0.9-0.9,0.8-2.5-0.1-3.4
		c-9.6-9.6-10.5-15.2-10.2-17.7c0.2-1.2,0.7-2.1,1.1-2.6c4,1.1,7.8,0.5,11.1-1.5c8.9-5.5,11.5-20.2,11.7-21.7
		c8.8-39.1-48.9-150.4-54.2-160.5c1.1-21.8-24.9-40.3-26-41.1c-0.5-0.4-1-0.5-1.6-0.5c-0.7,0.1-3.4,0.2-7.7,0.5
		c-4.6-5.8-27.5-33.8-58.1-56.3c-20.1-14.8-39.6-24.4-58-28.5c-23.2-5.2-44.5-1.6-63.4,10.6c-1.1,0.7-27.4,17.5-32.7,46.9
		c-3.1,17.5,1.8,35.6,14.7,53.8c-10.1,2.2-13.4,11.1-14,12.9c-11.7,23.5,22.1,57.3,26.2,61.3c1.7,4,15.3,37.1,1.5,68.2
		c-6.5,14.7-7.7,26-3.7,33.8c3,5.8,8.1,7.6,9.6,8c4.3,2.3,8.7,3.4,12.8,3.4l0,0c1.3,0,2.6-0.2,3.9-0.4c-3.3,18.4-11.4,30.4-18.6,41
		C345,611.3,341.1,617.1,339.3,623.7z M349.6,450.7l23.7-5.7l0,0l0,0l8.4-2c6.7,25.1,12.9,51.8,10.1,78c-1,8.7-4.2,18.1-8.6,25.1
		c-3.6,5.8-9.9,12.7-18.9,12.7l0,0c-3.4,0-7.1-1-10.8-3c-0.2-0.1-0.5-0.2-0.7-0.2c-0.1-0.1-4.2-1-6.6-5.7c-2.2-4.3-3.3-13,3.9-29.3
		C363.4,490.6,353.3,460,349.6,450.7z M326.4,384.4c2.6-2.5,5.9-3.8,10-3.9l0,0l0,0c0.7,0,1.4,0,2.2,0.1c-3.6,8-2.8,18.1-1.2,24.2
		c0.3,1.2,1.3,1.9,2.4,1.9c0.2,0,0.4,0,0.6-0.1c1.3-0.3,2.1-1.7,1.8-3c-0.1-0.2-3.6-14.3,2-22.9c0.3-0.2,0.5-0.6,0.7-1
		c1.6-2.1,3.7-3.7,6.7-4.7c1.7-0.2,15.9-1.9,22.8,4.1c0.1,0,0.1,0.1,0.2,0.1c-1.9,1.8-3.6,3.8-5.1,5.9c-7.5,10.6-9.8,28.7-0.6,40.4
		c0.5,0.7,1.2,1,2,1c0.2,0,0.3,0,0.5,0l12.1-2.2c0.4,4-0.1,13-11.5,15.8l-25.2,6.1c-2.6-2.6-9.8-10.2-16.1-19.5
		c-6.8-10.2-13.8-24.7-8.3-35.5c0.1-0.1,0.2-0.3,0.2-0.5C322.7,390.6,323.6,387.3,326.4,384.4z M523.6,350
		c-34.1,2.4-120.4,9.8-141.8,23.8c-1.1,0.7-2.1,1.4-3.1,2.2c-0.2-0.2-0.4-0.5-0.6-0.7c-9.1-7.8-26.3-5.3-27-5.2
		c-0.2,0-0.3,0.1-0.4,0.1c-3.9,1.2-6.8,3.2-8.9,5.8c-1.4-0.2-2.7-0.4-3.9-0.4c-13.4-17.9-18.6-35.5-15.6-52.3
		c4.9-27.2,30.1-43.4,30.4-43.6c17.7-11.5,37.8-14.9,59.6-10c17.6,4,36.5,13.3,56.1,27.7C495.1,317.1,515.9,341.1,523.6,350z
		 M559.7,388.5c-6.1-0.8-20.9-2.1-39-0.6c-16.5,1.4-38.1,5.5-56.9,16.4l-91.6,17c-5.4-8.1-6.2-22.1,1.6-33.2
		c2.8-3.9,6.3-7.3,10.5-10c24-15.7,140.7-23.2,152.2-23.9C540.3,357.1,559,372,559.7,388.5z M453.6,618.3c6.3-2.7,12.1-8,17.3-15.6
		c5.4-7.9,4.9-20.6-1.3-32.3c-6.5-12.4-17.4-20-28.4-20c-5.7,0-11.4,1.9-16.8,5.8c-3.4,2.4-6.8,5.2-9.8,8.5
		c-5.5-30.8,0.1-75.1,1.4-84.3l33.9-7c0.8-0.2,1.5-0.7,1.8-1.4s0.3-1.5-0.1-2.2c-16.6-31.2-1.3-49.2-0.4-50.2
		c36-33.9,99.5-27.2,109.1-26c6.4,12.3,61.8,120.4,53.5,156.6c0,0.1,0,0.1,0,0.2c0,0.2-2.1,13.9-9.3,18.3c-2.4,1.5-5.1,1.7-8.3,0.6
		c-0.6-0.2-1.4-0.2-2,0.2c-0.3,0.2-3.6,2.2-4.2,6.9c-0.7,5.6,2.6,12.4,9.9,20.1c-4.8,4.6-19.4,16.7-35.7,13.8c-2.2-0.7-3.7-1-3.9-1
		c-1.3-0.2-2.6,0.6-2.9,1.9s0.4,2.6,1.7,3c1.2,0.3,2.5,0.7,3.7,0.9c6.1,1.8,19.1,6.9,26.8,19c-7,7.9-44.9,47.3-85.5,34.1
		c-23.6-7.7-36-20.9-42.3-30.7C455.2,627.1,453.8,618.5,453.6,618.3z M418.1,601.9c-3.1-3.9-5.2-8.2-6-12.4
		c-2.1-11.3,2.5-20,15.3-29.2c4.6-3.3,9.2-4.9,13.9-4.9c11,0,19.6,8.9,24,17.3c5.3,10,6,20.7,1.6,27.1c-7,10.3-14.8,15.5-23.1,15.5
		c-0.3,0-0.5,0-0.8,0C434.2,615,424.4,609.7,418.1,601.9z M344.2,624.6c1.6-5.6,5.3-11.2,9.7-17.6c7.3-10.8,16.4-24.3,19.7-44.9
		c0-0.2,0-0.4,0-0.6c13.7-6.2,21.8-25.7,23.3-40.3c3-27.9-3.8-55.9-10.9-82.2c-0.2-0.6-0.5-1.1-1-1.4c3.8-5.1,3.9-11.3,3.6-14.5
		l65-12.1c-1.9,1.5-3.8,3.1-5.6,4.8l-0.1,0.1c-0.8,0.8-18.1,19.8-1.9,53.1l-32.4,6.7c-1.1,0.2-1.8,1.1-2,2.1
		c0,0.2-2.2,14.4-3.4,32.8c-1.6,24.7-0.7,44.6,2.6,59.4c-3.3,5.5-5.1,12.1-3.5,20.4c1,5,3.4,10.1,7,14.6c3.9,5,9,9,14.5,11.6
		c-3.2,7.3-14.9,30.8-35,37.2c-11.9,3.8-25,0.9-38.9-8.5c-0.1-0.1-0.3-0.1-0.4-0.2C353.9,644.8,340.2,638.4,344.2,624.6z"/>
	<path fill="#BF001A" d="M477.1,441.3c39.4-22.8,88.7,1,89.2,1.2c0.4,0.2,0.7,0.3,1.1,0.3c0.9,0,1.8-0.5,2.2-1.4
		c0.6-1.2,0.1-2.7-1.1-3.3c-2.1-1.1-52.1-25.2-93.9-1.1c-1.2,0.7-1.6,2.2-0.9,3.4C474.3,441.6,475.9,442,477.1,441.3z"/>
	<path fill="#BF001A" d="M561.5,542c-2.5,9.7,0,13.7,1.2,15c1.2,1.8,6.1,9.1,12.8,9.3c0.1,0,0.2,0,0.3,0c3.7,0,7-2.2,9.9-6.5
		c2.4-3.7,5-5.6,7.6-5.8c3.6-0.3,6.5,3,6.5,3c0.9,1,2.5,1.1,3.5,0.2c1.1-0.9,1.2-2.5,0.3-3.5c-0.2-0.2-4.5-5.2-10.6-4.8
		c-4.3,0.2-8.1,2.9-11.5,8c-1.9,2.8-3.8,4.3-5.8,4.2c-3.8-0.1-7.6-5.1-8.8-7.1c-0.2-0.4-0.2-0.5-0.5-0.7c-0.4-0.5-1.9-3,0-10.3
		c0.3-1.3-0.5-2.7-1.8-3C563.3,539.6,561.9,540.4,561.5,542z"/>
	<path fill="#BF001A" d="M484.8,488.5c-0.3,0.6-0.4,1.2-0.2,1.9c0.2,0.6,0.6,1.2,1.2,1.5c3.8,2.1,8.7,2.6,13,3.1
		c1.2,0.1,2.3,0.2,3.4,0.4c2.6,0.3,5.4,0.5,8.3,0.5c22.1,0,52.6-9.5,62.9-12.9c-2.7,15.8-31.1,31.3-43.1,36.4
		c-1.2,0.6-1.8,2-1.3,3.3c0.4,0.9,1.3,1.5,2.3,1.5c0.4,0,0.7-0.1,1-0.2c2.1-0.9,51.6-22.2,45.9-47.3c-5.6-24.7-48.1-32.9-49.9-33.2
		c-1.3-0.3-2.6,0.6-2.9,2c-0.3,1.3,0.6,2.6,2,2.9c0.4,0,30.7,5.9,42.1,21.3c-14.3-2.4-28.2-2.7-41.4-0.9
		C515.1,470.5,492.3,475.4,484.8,488.5z M528.8,473.7c3-0.4,6.1-0.7,9.3-0.9c1.5,1,5.3,4,6.2,7.9c0.4,1.9,0.1,3.7-0.8,5.5
		c-7.7,1.8-15.9,3.3-23.6,4.1c-7.6-7-6.4-12.1-5.6-13.8C519.9,475.1,525.2,474.2,528.8,473.7z M572.6,475.4c0.3,0.8,0.5,1.6,0.7,2.4
		l0,0c-3.9,1.3-13.1,4.3-24.1,7.1c0.4-1.8,0.3-3.5-0.1-5.3c-0.7-2.7-2.2-5.1-3.8-6.9C554.1,472.7,563.2,473.5,572.6,475.4z
		 M490.6,488.5c4.1-4.7,11-8.1,18.1-10.4c-0.3,3.2,0.4,7.6,4.7,12.7c-3.8,0.2-7.4,0.1-10.6-0.4c-1.1-0.1-2.3-0.3-3.6-0.4
		C496.4,489.7,493.3,489.3,490.6,488.5z"/>
	<path fill="#BF001A" d="M449.1,505.7c-2.4-8-10.4-14.7-17.4-14.7c-1.1,0-2.1,0.1-3,0.4c-9.9,2.8-10.1,13.3-8.7,19
		c-3.5,14.7,0.5,23.9,4.5,29c4.7,6,11.3,8.8,15.4,8.8l0,0c3.3,0,4.3-1.7,4.6-2.5c0.5-1.2,0.5-3.1-2-5.4c-6.1-5.5-7.1-14-7.2-17.7
		l7.8-1.5c0.3-0.1,0.6-0.2,0.9-0.4C449.1,517.3,451,511.8,449.1,505.7z M441.6,516.2l-9.3,1.8c-1.1,0.2-1.9,1.2-2,2.3
		c0,0.6-0.9,13.6,7.6,22.5c-2.6-0.7-6.4-2.7-9.4-6.6c-3.3-4.3-6.7-12.2-3.4-25.3c0.1-0.4,0.1-0.9,0-1.3s-2.9-11.2,5.1-13.5
		c0.5-0.1,1-0.2,1.6-0.2c4.8,0,10.8,5.4,12.6,11.2C445.2,509.8,445.3,513.6,441.6,516.2z"/>
	<path fill="#BF001A" d="M425.9,577.8c-2.3,3.2-2.9,7.5-1.5,11.8c0.1,0.3,0.2,0.6,0.4,0.8c3.1,4,9,8.6,15.6,8.6l0,0
		c3.2,0,6.1-1.2,8.5-3.3c3.1-2.8,4.3-6.3,3.5-10c-1.3-5.8-7.3-10.5-12.2-12c-1.5-0.5-3-0.7-4.5-0.7
		C431.6,573,428.1,574.8,425.9,577.8z M429.8,580.7c1.3-1.7,3.4-2.7,5.8-2.7c1,0,2.1,0.2,3.1,0.5c3.5,1,7.9,4.7,8.7,8.3
		c0.5,2-0.2,3.6-1.9,5.2c-1.5,1.3-3.2,2-5.1,2l0,0c-4.3,0-8.8-3.2-11.4-6.3C428.2,585,428.6,582.6,429.8,580.7z"/>
</g>
</svg>
