<?xml version="1.0" encoding="utf-8"?>
<!-- Generator: Adobe Illustrator 17.1.0, SVG Export Plug-In . SVG Version: 6.00 Build 0)  -->
<!DOCTYPE svg PUBLIC "-//W3C//DTD SVG 1.1//EN" "http://www.w3.org/Graphics/SVG/1.1/DTD/svg11.dtd">
<svg version="1.1" id="Layer_1" xmlns="http://www.w3.org/2000/svg" xmlns:xlink="http://www.w3.org/1999/xlink" x="0px" y="0px"
	 viewBox="0 0 1000 1000" enable-background="new 0 0 1000 1000" xml:space="preserve">
<g id="Layer_1_1_">
</g>
<path fill="#FAE3E3" d="M585.7,604.5c-7.2-10.6-15.3-22.6-18.6-41c1.3,0.2,2.6,0.4,3.9,0.4l0,0c4.1,0,8.5-1.1,12.8-3.4
	c1.5-0.4,6.6-2.2,9.6-8c4-7.8,2.8-19.1-3.7-33.8c-13.8-31.1-0.2-64.2,1.5-68.2c4.1-4,37.9-37.8,26.2-61.3c-0.6-1.8-3.9-10.7-14-12.9
	c12.9-18.2,17.8-36.3,14.7-53.8c-5.3-29.4-31.6-46.2-32.7-46.9c-18.9-12.2-40.2-15.8-63.4-10.6c-18.4,4.1-37.9,13.7-58,28.5
	c-30.6,22.5-53.5,50.5-58.1,56.3c-4.3-0.3-7-0.4-7.7-0.5c-0.6,0-1.1,0.1-1.6,0.5c-1.1,0.8-27.1,19.3-26,41.1
	c-5.3,10.1-63,121.4-54.2,160.5c0.2,1.5,2.8,16.2,11.7,21.7c3.3,2,7.1,2.6,11.1,1.5c0.4,0.5,0.9,1.4,1.1,2.6
	c0.3,2.5-0.6,8.1-10.2,17.7c-0.9,0.9-1,2.5-0.1,3.4c0.2,0.2,5.4,6,13.7,10.9c5.2,3.1,10.5,5.1,15.7,6.1c-6.6,3.6-13.9,9.3-18.9,18
	c-0.5,0.9-0.4,2,0.2,2.8c0.4,0.5,11,13.3,27.6,24.3c15.5,10.3,31.1,15.6,45.9,15.6c6.3,0,12.6-1,18.5-2.9
	c44.3-14.4,52.4-47.2,53.6-53.1c1.7,0.4,3.4,0.6,5.2,0.6c0.3,0,0.7,0,1,0c3.1-0.1,6.2-0.7,9.3-1.8c1.4,3.1,4.2,9.1,8.6,15.6
	c8.4,12.5,18.7,21,29.5,24.4c3.9,1.3,8,1.9,12.1,1.9c9.9,0,20.3-3.6,31-10.9c6.4-3,17.1-12,13-26.1
	C594.2,617.1,590.3,611.3,585.7,604.5z"/>
<g>
	<path fill="#BF001A" d="M585.7,604.5c-7.2-10.6-15.3-22.6-18.6-41c1.3,0.2,2.6,0.4,3.9,0.4l0,0c4.1,0,8.5-1.1,12.8-3.4
		c1.5-0.4,6.6-2.2,9.6-8c4-7.8,2.8-19.1-3.7-33.8c-13.8-31.1-0.2-64.2,1.5-68.2c4.1-4,37.9-37.8,26.2-61.3
		c-0.6-1.8-3.9-10.7-14-12.9c12.9-18.2,17.8-36.3,14.7-53.8c-5.3-29.4-31.6-46.2-32.7-46.9c-18.9-12.2-40.2-15.8-63.4-10.6
		c-18.4,4.1-37.9,13.7-58,28.5c-30.6,22.5-53.5,50.5-58.1,56.3c-4.3-0.3-7-0.4-7.7-0.5c-0.6,0-1.1,0.1-1.6,0.5
		c-1.1,0.8-27.1,19.3-26,41.1c-5.3,10.1-63,121.4-54.2,160.5c0.2,1.5,2.8,16.2,11.7,21.7c3.3,2,7.1,2.6,11.1,1.5
		c0.4,0.5,0.9,1.4,1.1,2.6c0.3,2.5-0.6,8.1-10.2,17.7c-0.9,0.9-1,2.5-0.1,3.4c0.2,0.2,5.4,6,13.7,10.9c5.2,3.1,10.5,5.1,15.7,6.1
		c-6.6,3.6-13.9,9.3-18.9,18c-0.5,0.9-0.4,2,0.2,2.8c0.4,0.5,11,13.3,27.6,24.3c15.5,10.3,31.1,15.6,45.9,15.6
		c6.3,0,12.6-1,18.5-2.9c44.3-14.4,52.4-47.2,53.6-53.1c1.7,0.4,3.4,0.6,5.2,0.6c0.3,0,0.7,0,1,0c3.1-0.1,6.2-0.7,9.3-1.8
		c1.4,3.1,4.2,9.1,8.6,15.6c8.4,12.5,18.7,21,29.5,24.4c3.9,1.3,8,1.9,12.1,1.9c9.9,0,20.3-3.6,31-10.9c6.4-3,17.1-12,13-26.1
		C594.2,617.1,590.3,611.3,585.7,604.5z M585.2,520.6c7.2,16.3,6.1,25,3.9,29.3c-2.4,4.7-6.5,5.6-6.6,5.7c-0.2,0-0.5,0.1-0.7,0.2
		c-3.7,2-7.4,3-10.8,3l0,0c-9,0-15.3-6.9-18.9-12.7c-4.4-7-7.6-16.4-8.6-25.1c-2.8-26.2,3.4-52.9,10.1-78l8.4,2l0,0l0,0l23.7,5.7
		C582,460,571.9,490.6,585.2,520.6z M612.7,390.7c0,0.2,0.1,0.4,0.2,0.5c5.5,10.8-1.5,25.3-8.3,35.5c-6.3,9.3-13.5,16.9-16.1,19.5
		l-25.2-6.1c-11.4-2.8-11.9-11.8-11.5-15.8l12.1,2.2c0.2,0,0.3,0,0.5,0c0.8,0,1.5-0.3,2-1c9.2-11.7,6.9-29.8-0.6-40.4
		c-1.5-2.1-3.2-4.1-5.1-5.9c0.1,0,0.1-0.1,0.2-0.1c6.9-6,21.1-4.3,22.8-4.1c3,1,5.1,2.6,6.7,4.7c0.2,0.4,0.4,0.8,0.7,1
		c5.6,8.6,2.1,22.7,2,22.9c-0.3,1.3,0.5,2.7,1.8,3c0.2,0.1,0.4,0.1,0.6,0.1c1.1,0,2.1-0.7,2.4-1.9c1.6-6.1,2.4-16.2-1.2-24.2
		c0.8-0.1,1.5-0.1,2.2-0.1l0,0l0,0c4.1,0.1,7.4,1.4,10,3.9C611.7,387.3,612.6,390.6,612.7,390.7z M466.9,297.4
		c19.6-14.4,38.5-23.7,56.1-27.7c21.8-4.9,41.9-1.5,59.6,10c0.3,0.2,25.5,16.4,30.4,43.6c3,16.8-2.2,34.4-15.6,52.3
		c-1.2,0-2.5,0.2-3.9,0.4c-2.1-2.6-5-4.6-8.9-5.8c-0.1,0-0.2-0.1-0.4-0.1c-0.7-0.1-17.9-2.6-27,5.2c-0.2,0.2-0.4,0.5-0.6,0.7
		c-1-0.8-2-1.5-3.1-2.2c-21.4-14-107.7-21.4-141.8-23.8C419.4,341.1,440.2,317.1,466.9,297.4z M398.8,354.2
		c11.5,0.7,128.2,8.2,152.2,23.9c4.2,2.7,7.7,6.1,10.5,10c7.8,11.1,7,25.1,1.6,33.2l-91.6-17c-18.8-10.9-40.4-15-56.9-16.4
		c-18.1-1.5-32.9-0.2-39,0.6C376.3,372,395,357.1,398.8,354.2z M473.5,637.5c-6.3,9.8-18.7,23-42.3,30.7
		c-40.6,13.2-78.5-26.2-85.5-34.1c7.7-12.1,20.7-17.2,26.8-19c1.2-0.2,2.5-0.6,3.7-0.9c1.3-0.4,2-1.7,1.7-3s-1.6-2.1-2.9-1.9
		c-0.2,0-1.7,0.3-3.9,1c-16.3,2.9-30.9-9.2-35.7-13.8c7.3-7.7,10.6-14.5,9.9-20.1c-0.6-4.7-3.9-6.7-4.2-6.9c-0.6-0.4-1.4-0.4-2-0.2
		c-3.2,1.1-5.9,0.9-8.3-0.6c-7.2-4.4-9.3-18.1-9.3-18.3c0-0.1,0-0.1,0-0.2c-8.3-36.2,47.1-144.3,53.5-156.6
		c9.6-1.2,73.1-7.9,109.1,26c0.9,1,16.2,19-0.4,50.2c-0.4,0.7-0.4,1.5-0.1,2.2s1,1.2,1.8,1.4l33.9,7c1.3,9.2,6.9,53.5,1.4,84.3
		c-3-3.3-6.4-6.1-9.8-8.5c-5.4-3.9-11.1-5.8-16.8-5.8c-11,0-21.9,7.6-28.4,20c-6.2,11.7-6.7,24.4-1.3,32.3
		c5.2,7.6,11,12.9,17.3,15.6C481.5,618.5,480.1,627.1,473.5,637.5z M492.3,615.3c-0.3,0-0.5,0-0.8,0c-8.3,0-16.1-5.2-23.1-15.5
		c-4.4-6.4-3.7-17.1,1.6-27.1c4.4-8.4,13-17.3,24-17.3c4.7,0,9.3,1.6,13.9,4.9c12.8,9.2,17.4,17.9,15.3,29.2
		c-0.8,4.2-2.9,8.5-6,12.4C510.9,609.7,501.1,615,492.3,615.3z M580.8,645.1c-0.1,0.1-0.3,0.1-0.4,0.2c-13.9,9.4-27,12.3-38.9,8.5
		c-20.1-6.4-31.8-29.9-35-37.2C512,614,517.1,610,521,605c3.6-4.5,6-9.6,7-14.6c1.6-8.3-0.2-14.9-3.5-20.4
		c3.3-14.8,4.2-34.7,2.6-59.4c-1.2-18.4-3.4-32.6-3.4-32.8c-0.2-1-0.9-1.9-2-2.1l-32.4-6.7c16.2-33.3-1.1-52.3-1.9-53.1l-0.1-0.1
		c-1.8-1.7-3.7-3.3-5.6-4.8l65,12.1c-0.3,3.2-0.2,9.4,3.6,14.5c-0.5,0.3-0.8,0.8-1,1.4c-7.1,26.3-13.9,54.3-10.9,82.2
		c1.5,14.6,9.6,34.1,23.3,40.3c0,0.2,0,0.4,0,0.6c3.3,20.6,12.4,34.1,19.7,44.9c4.4,6.4,8.1,12,9.7,17.6
		C595.1,638.4,581.4,644.8,580.8,645.1z"/>
	<path fill="#BF001A" d="M461.6,440.4c0.7-1.2,0.3-2.7-0.9-3.4c-41.8-24.1-91.8,0-93.9,1.1c-1.2,0.6-1.7,2.1-1.1,3.3
		c0.4,0.9,1.3,1.4,2.2,1.4c0.4,0,0.7-0.1,1.1-0.3c0.5-0.2,49.8-24,89.2-1.2C459.4,442,461,441.6,461.6,440.4z"/>
	<path fill="#BF001A" d="M370.7,540c-1.3,0.3-2.1,1.7-1.8,3c1.9,7.3,0.4,9.8,0,10.3c-0.3,0.2-0.3,0.3-0.5,0.7c-1.2,2-5,7-8.8,7.1
		c-2,0.1-3.9-1.4-5.8-4.2c-3.4-5.1-7.2-7.8-11.5-8c-6.1-0.4-10.4,4.6-10.6,4.8c-0.9,1-0.8,2.6,0.3,3.5c1,0.9,2.6,0.8,3.5-0.2
		c0,0,2.9-3.3,6.5-3c2.6,0.2,5.2,2.1,7.6,5.8c2.9,4.3,6.2,6.5,9.9,6.5c0.1,0,0.2,0,0.3,0c6.7-0.2,11.6-7.5,12.8-9.3
		c1.2-1.3,3.7-5.3,1.2-15C373.4,540.4,372,539.6,370.7,540z"/>
	<path fill="#BF001A" d="M407.2,468.8c-13.2-1.8-27.1-1.5-41.4,0.9c11.4-15.4,41.7-21.3,42.1-21.3c1.4-0.3,2.3-1.6,2-2.9
		c-0.3-1.4-1.6-2.3-2.9-2c-1.8,0.3-44.3,8.5-49.9,33.2c-5.7,25.1,43.8,46.4,45.9,47.3c0.3,0.1,0.6,0.2,1,0.2c1,0,1.9-0.6,2.3-1.5
		c0.5-1.3-0.1-2.7-1.3-3.3c-12-5.1-40.4-20.6-43.1-36.4c10.3,3.4,40.8,12.9,62.9,12.9c2.9,0,5.7-0.2,8.3-0.5
		c1.1-0.2,2.2-0.3,3.4-0.4c4.3-0.5,9.2-1,13-3.1c0.6-0.3,1-0.9,1.2-1.5c0.2-0.7,0.1-1.3-0.2-1.9C443,475.4,420.2,470.5,407.2,468.8z
		 M421,476.5c0.8,1.7,2,6.8-5.6,13.8c-7.7-0.8-15.9-2.3-23.6-4.1c-0.9-1.8-1.2-3.6-0.8-5.5c0.9-3.9,4.7-6.9,6.2-7.9
		c3.2,0.2,6.3,0.5,9.3,0.9C410.1,474.2,415.4,475.1,421,476.5z M390,472.7c-1.6,1.8-3.1,4.2-3.8,6.9c-0.4,1.8-0.5,3.5-0.1,5.3
		c-11-2.8-20.2-5.8-24.1-7.1l0,0c0.2-0.8,0.4-1.6,0.7-2.4C372.1,473.5,381.2,472.7,390,472.7z M436.1,490c-1.3,0.1-2.5,0.3-3.6,0.4
		c-3.2,0.5-6.8,0.6-10.6,0.4c4.3-5.1,5-9.5,4.7-12.7c7.1,2.3,14,5.7,18.1,10.4C442,489.3,438.9,489.7,436.1,490z"/>
	<path fill="#BF001A" d="M491.3,520.7c0.3,0.2,0.6,0.3,0.9,0.4l7.8,1.5c-0.1,3.7-1.1,12.2-7.2,17.7c-2.5,2.3-2.5,4.2-2,5.4
		c0.3,0.8,1.3,2.5,4.6,2.5l0,0c4.1,0,10.7-2.8,15.4-8.8c4-5.1,8-14.3,4.5-29c1.4-5.7,1.2-16.2-8.7-19c-0.9-0.3-1.9-0.4-3-0.4
		c-7,0-15,6.7-17.4,14.7C484.3,511.8,486.2,517.3,491.3,520.7z M490.9,507.1c1.8-5.8,7.8-11.2,12.6-11.2c0.6,0,1.1,0.1,1.6,0.2
		c8,2.3,5.2,13.1,5.1,13.5s-0.1,0.9,0,1.3c3.3,13.1-0.1,21-3.4,25.3c-3,3.9-6.8,5.9-9.4,6.6c8.5-8.9,7.6-21.9,7.6-22.5
		c-0.1-1.1-0.9-2.1-2-2.3l-9.3-1.8C490,513.6,490.1,509.8,490.9,507.1z"/>
	<path fill="#BF001A" d="M499.6,573c-1.5,0-3,0.2-4.5,0.7c-4.9,1.5-10.9,6.2-12.2,12c-0.8,3.7,0.4,7.2,3.5,10
		c2.4,2.1,5.3,3.3,8.5,3.3l0,0c6.6,0,12.5-4.6,15.6-8.6c0.2-0.2,0.3-0.5,0.4-0.8c1.4-4.3,0.8-8.6-1.5-11.8
		C507.2,574.8,503.7,573,499.6,573z M506.3,587.7c-2.6,3.1-7.1,6.3-11.4,6.3l0,0c-1.9,0-3.6-0.7-5.1-2c-1.7-1.6-2.4-3.2-1.9-5.2
		c0.8-3.6,5.2-7.3,8.7-8.3c1-0.3,2.1-0.5,3.1-0.5c2.4,0,4.5,1,5.8,2.7C506.7,582.6,507.1,585,506.3,587.7z"/>
</g>
</svg>
