<?xml version="1.0" encoding="utf-8"?>
<!-- Generator: Adobe Illustrator 17.1.0, SVG Export Plug-In . SVG Version: 6.00 Build 0)  -->
<!DOCTYPE svg PUBLIC "-//W3C//DTD SVG 1.1//EN" "http://www.w3.org/Graphics/SVG/1.1/DTD/svg11.dtd">
<svg version="1.1" id="Layer_1" xmlns="http://www.w3.org/2000/svg" xmlns:xlink="http://www.w3.org/1999/xlink" x="0px" y="0px"
	 viewBox="0 0 1000 1000" enable-background="new 0 0 1000 1000" xml:space="preserve">
<g id="Layer_1_1_">
</g>
<path fill="#FFCCD0" d="M451.5,643.9c0-25.5-24-65.5-29-73.5c1-4,1.5-8.1,1.2-12.3c-1.2-17.9-15.7-28.1-24.2-32.6
	c1.7-20.6-5.8-34.4-12.7-42.4c-4.9-5.8-10.1-9.4-13.4-11.3c0-7.4-4-21-25.9-41.2c-0.7-0.7-1.6-1-2.5-1c-1-8.3-5.9-22.7-26-37.4
	c-1.4-3.8-6.3-16-18.2-30.9c-12.9-16.2-36.8-38.9-77.6-55c-0.4-0.2-0.8-0.2-1.3-0.3c-0.5,0-11.8-0.1-27.1,9.2
	c-5.6,3.4-10.8,7.5-15.5,12.1c-0.1,0.1-0.2,0.2-0.3,0.3c-3.2,3.1-6.2,6.4-9.1,9.8c-0.2,0.2-0.4,0.5-0.6,0.7
	c-2.3,2.8-4.4,5.6-6.4,8.5l-0.1,0.1c-0.2,0.2-0.3,0.5-0.5,0.7c-3.2,4.7-6.1,9.5-8.7,14.2c-0.1,0.2-0.2,0.4-0.3,0.6
	c-3.4,6.1-6.2,12.1-8.6,17.6c-0.6,1.4-0.3,3,0.7,4c2,2.1,45.8,46.5,81.8,57.8c-0.4,0.5-0.8,1-0.9,1.7c-0.2,1.1,0,2.2,0.7,3l16.8,22
	l12.1,21.4c3.3,10.1,9.8,17.9,19.1,23.1c-1,0.6-1.8,1.6-1.9,2.9c-1.2,13.5,3.8,29.1,12.7,39.6c2.1,2.5,4.7,4.7,7.7,6.4
	c4.2,2.4,8.8,4,13.4,4.9c0.5,17,8.5,32.1,23.2,44.3c3.2,19.7,11.3,46,32.1,62.3c9.6,7.6,18.5,10.3,22.7,11.2l12.5,41.7
	c0.5,1.5,1.9,2.6,3.5,2.6c14.5,0,35.4-9.4,36.2-9.8c1.7-0.8,2.5-2.7,2-4.4l-11-35.4C435.6,676,451.5,666.7,451.5,643.9z"/>
<path fill="#FF0015" d="M451.5,643.9c0-25.5-24-65.5-29-73.5c1-4,1.5-8.1,1.2-12.3c-1.2-17.9-15.7-28.1-24.2-32.6
	c1.7-20.6-5.8-34.4-12.7-42.4c-4.9-5.8-10.1-9.4-13.4-11.3c0-7.4-4-21-25.9-41.2c-0.7-0.7-1.6-1-2.5-1c-1-8.3-5.9-22.7-26-37.4
	c-1.4-3.8-6.3-16-18.2-30.9c-12.9-16.2-36.8-38.9-77.6-55c-0.4-0.2-0.8-0.2-1.3-0.3c-0.5,0-11.8-0.1-27.1,9.2
	c-5.6,3.4-10.8,7.5-15.5,12.1c-0.1,0.1-0.2,0.2-0.3,0.3c-3.2,3.1-6.2,6.4-9.1,9.8c-0.2,0.2-0.4,0.5-0.6,0.7
	c-2.3,2.8-4.4,5.6-6.4,8.5l-0.1,0.1c-0.2,0.2-0.3,0.5-0.5,0.7c-3.2,4.7-6.1,9.5-8.7,14.2c-0.1,0.2-0.2,0.4-0.3,0.6
	c-3.4,6.1-6.2,12.1-8.6,17.6c-0.6,1.4-0.3,3,0.7,4c2,2.1,45.8,46.5,81.8,57.8c-0.4,0.5-0.8,1-0.9,1.7c-0.2,1.1,0,2.2,0.7,3l16.8,22
	l12.1,21.4c3.3,10.1,9.8,17.9,19.1,23.1c-1,0.6-1.8,1.6-1.9,2.9c-1.2,13.5,3.8,29.1,12.7,39.6c2.1,2.5,4.7,4.7,7.7,6.4
	c4.2,2.4,8.8,4,13.4,4.9c0.5,17,8.5,32.1,23.2,44.3c3.2,19.7,11.3,46,32.1,62.3c9.6,7.6,18.5,10.3,22.7,11.2l12.5,41.7
	c0.5,1.5,1.9,2.6,3.5,2.6c14.5,0,35.4-9.4,36.2-9.8c1.7-0.8,2.5-2.7,2-4.4l-11-35.4C435.6,676,451.5,666.7,451.5,643.9z
	 M416.4,558.6c1,14.8-9.8,29.3-16,36.4c-0.5-1.5-1-3-1.6-4.6c-4.2-10.8-10.5-19.5-18.8-25.8c0.6-5.9,3.2-24.2,13-34.1
	C398.9,533.2,415.4,542.1,416.4,558.6z M378.5,598.9c-1,0.4-1.8,1.3-2.1,2.4c-0.1,0.4-1.8,6.3-2.8,14.7
	c-25.9-29.1-17.2-47.9-13.5-53.4c5.2,1.6,9.8,3.8,13.9,6.7l0,0c7.9,5.5,13.9,13.4,17.9,23.6c2.2,5.7,3.4,11.2,4.1,15.5
	c-4.2-3.2-9-6.3-14.3-9.3C380.7,598.5,379.5,598.4,378.5,598.9z M319.3,514.4c-0.2-0.3-0.3-0.6-0.6-0.9c-4-6-7-13.8-6-23.4
	c0.1-1.1,0.3-5.8-2.7-19.8c9.1,1.3,30,7.8,40,40.1c-0.4,2.2-0.7,4.2-1,5.9c-8.6-4.2-15-3.9-15.5-3.9c-1.8,0.1-3.2,1.5-3.4,3.2
	c-0.4,3.2-0.5,6.2-0.6,9.1C326.4,522.4,322.5,518.9,319.3,514.4z M259.9,432.1c-5.2-6.6-7.9-13.3-8.4-21.2c0.2-1.2,0.4-3.1,0-5.3
	c0-0.2,0-0.3,0-0.5c0.1-2.5,0.3-4.5,0.5-5.9c29.1,10.5,38.5,22.8,41.5,30c-5.6-2.5-11.1-4.2-16.1-5.3c-1.8-0.4-3.5,0.5-4.2,2.2
	c-0.1,0.4-1.9,5.1-1.3,14.2C267.6,439.4,263.3,436.5,259.9,432.1z M166.5,354.8l49.2,41c-5.4,0.3-8.2-0.3-15.3-4.3
	c-10.5-5.9-31.8-22.7-38.9-28.4C163,360.3,164.7,357.5,166.5,354.8z M226.2,395l-55.5-46.2c1-1.3,1.9-2.6,3-3.9
	c29.4,13.5,50.5,38.4,59,49.8c-0.2,0-0.5,0-0.7,0C229.8,394.7,227.9,394.8,226.2,395z M242.6,395.9c-3.8-5.8-27-39.2-64.1-56.9
	c1.3-1.4,2.6-2.8,3.9-4.2c29.7,15.8,54.8,42,67.1,56.2c-0.7,0-1.4,0.3-2,0.7c-1,0.7-1.9,1.6-2.5,5.3
	C244.2,396.6,243.4,396.2,242.6,395.9z M195.1,324.1l63.1,52.8c0,0,0.1,0,0.1,0.1c-0.1,2.3-0.1,4.6,0.1,6.9c0.2,2.8,0.6,5.4,1.2,7.8
	c-9.8-12-37.1-43.1-71.6-62.1C190.3,327.6,192.7,325.8,195.1,324.1z M208,317c18.5,7,33.4,17.5,43.1,30.5c2.5,3.4,7.8,10.5,8.8,16.2
	c0.2,1.1-0.2,2.9-0.6,4.6L201.5,320C203.9,318.8,206,317.8,208,317z M288.8,470.8c-10-20.2-10.1-33.2-9.4-38.7
	c6.9,1.9,12.5,4.3,17.1,7c0.1,0.1,0.2,0.1,0.3,0.2c2.2,1.3,4.1,2.7,5.9,4c0.2,0.2,0.4,0.4,0.7,0.5c8.7,7.2,12.2,15.3,13.6,20.5
	c-6.8-1.9-11.6-1.6-11.9-1.6c-1.1,0.1-2.1,0.6-2.7,1.5c-0.6,0.9-0.9,2-0.6,3c1.3,5.8,2.2,10.1,2.7,13.4
	C299.4,476.4,294.1,473.2,288.8,470.8z M344.8,559.4c-0.1-0.4-0.3-0.7-0.6-1c-4.5-8.2-8.6-20.8-7.3-38.5c2.9,0.5,7.5,1.7,12.8,5.1
	c0,0,0,0,0.1,0c7.5,4.7,16.4,13.5,24.2,30c-0.4,1.9-0.7,3.6-0.9,5.1c-4.2-2.3-8.7-4.1-13.6-5.3c-1.3-0.3-2.7,0.1-3.6,1
	c-0.2,0.2-3.7,4-5.9,11C348.5,565,346.6,562.6,344.8,559.4z M392.4,522.6c-0.9,0-1.8,0.3-2.4,0.9c-6.5,5.5-10.5,13.5-13.1,21.1
	c-6.8-12-14.2-19.6-21-24.3c0.7-6.3,3.5-26.1,14.2-41.9C376.7,482.4,393.7,495.4,392.4,522.6z M366.1,471.3
	C366.1,471.4,366,471.4,366.1,471.3c-6.4,8.5-10.5,18-13.1,26.5c-6.5-14.6-15.4-23-23-27.8c1.3-17.4,9-26.8,13.6-30.9
	c0.2-0.1,0.3-0.3,0.5-0.4c0.3-0.2,0.5-0.4,0.7-0.6C362.7,455.2,365.9,466.1,366.1,471.3z M338,434.4c-4.8,4.5-11.5,13-14.2,27
	c-0.9-3.1-2.4-6.9-4.9-10.8c-2.8-4.6-6.2-8.4-10-11.7c-1.6-26.5,4.3-36.4,7.2-39.6C337.6,415.5,338.2,430.3,338,434.4z M294.9,365.7
	c10,12.5,14.9,23.1,16.7,27.6c-3.9,3.6-10.2,13-10.4,35.9c-2.1-7.2-8.9-18.8-30-29.6c-3.2-3.7-5-9.2-5.6-16.4
	c-0.2-3.3-0.2-6.7,0.2-10.1c0.1-0.9,0.3-1.9,0.6-3c0.5-2.4,1.1-5.1,0.7-7.7c-1.2-6.5-5.6-13.1-10.2-19.3c-8.9-12-21.8-22-37.7-29.3
	c0.9-0.1,1.6-0.2,2-0.2C260,329,282.7,350.4,294.9,365.7z M157.9,369.6c8.1,6.5,28.2,22.4,38.9,28.3c10.8,6,14.6,5.7,23.8,4.9
	c3-0.3,6.7-0.6,11.6-0.8c5.6-0.2,9.4,0.8,11.1,2.9c0.4,0.5,0.6,1,0.8,1.5c0,1.3,0,2.7,0,4c-0.1,0.6-0.1,1.1,0.1,1.7
	c0.7,8.2,3.4,15.6,8.4,22.6c-3.9,0-8.6,0.6-14.1,2.3c-31.2-3.8-76.7-47-86.1-56.3C154.1,377.1,155.9,373.4,157.9,369.6z
	 M240.2,444.1L240.2,444.1c14-4.5,21.2-0.5,21.6-0.3l0,0c3.5,2.3,7.3,3.7,11.2,4.1c1,5.4,2.9,11.7,6,19.1
	c-13.7-4.3-25.7-4.5-30.4-4.4l-12.9-16.8C237.3,445.1,238.8,444.6,240.2,444.1z M262.8,487.1c-0.1-0.2-0.2-0.5-0.3-0.7l-9.3-16.5
	c11,0.4,34.8,3.5,52.2,21.1c-0.6,8.5,1.4,15.8,4.5,21.7C297.7,513.2,270.5,511.2,262.8,487.1z M291.5,550.5
	c-6.9-8.1-11.1-20.1-11.2-30.8l24.7,0.4c0.7,0,1.5,0,2.1,0c3,0,5.4-0.2,7.1-0.3c5.6,7.3,12.3,11.9,15.4,13.8
	c0.8,10.1,3.3,18.3,6.3,24.7c-21.1,4.6-33.2,0.2-38.7-3C295,554,293,552.4,291.5,550.5z M314.4,567.4c1.4,0.1,2.8,0.1,4.2,0.1
	c7.9,0,15.3-1.3,21-2.6c3.5,5.5,6.9,8.9,8.8,10.6c0,0.1,0,0.1,0,0.2c-1,15.3,6.6,31.5,22.5,48.3c-6.2-1.9-16.2-5.7-26.1-11.7
	c-3.2-2-6.2-4-8.9-6.2c-0.1-0.1-0.2-0.1-0.3-0.2C322.3,595.2,315.2,582.3,314.4,567.4z M422.9,673.3c-1,0.2-1.8,0.9-2.3,1.8
	c-0.5,0.9-0.6,1.9-0.3,2.9l11.1,35.6c-5.6,2.3-17.9,7-27.6,7.8l-12.3-41.1c-0.4-1.4-1.6-2.4-3.1-2.6c-0.4,0-37.5-5-49.5-60.4
	c0.8,0.5,1.6,1,2.4,1.5c13,7.9,25.8,12,31.3,13.5c0.5,18.2,6.6,30.9,18,36.9c0.5,0.3,1.1,0.4,1.7,0.4c1.3,0,2.6-0.7,3.2-1.9
	c0.9-1.8,0.3-4-1.5-4.9c-19-10-14.2-42.5-11.7-54.7c6,3.7,11.1,7.5,15.3,11.4c0.1,0.1,0.2,0.2,0.2,0.2c6.6,6.3,10.8,12.9,12.6,19.9
	c3,11.5-2,19.7-2.2,20.1c-1.1,1.7-0.6,3.9,1.1,5c1.7,1.1,4,0.6,5.1-1.1c0.3-0.4,6.9-10.9,3.2-25.6c-2-8-6.6-15.5-13.6-22.5
	c-0.1-2.2-0.4-6.5-1.4-11.8c3.4-3.4,11.7-12.5,16.8-24c7.8,13.4,24.8,44.7,24.8,64.5C444.2,667.6,423.7,673,422.9,673.3z"/>
<path fill="#FFCCD0" d="M598.8,679.1l-11,35.4c-0.5,1.8,0.3,3.6,2,4.4c0.9,0.4,21.7,9.8,36.2,9.8c1.6,0,3-1.1,3.5-2.6l12.5-41.7
	c4.2-0.9,13.1-3.7,22.7-11.2c20.8-16.3,28.9-42.6,32.1-62.3c14.7-12.2,22.7-27.3,23.2-44.3c4.7-0.9,9.2-2.4,13.4-4.9
	c3-1.8,5.6-3.9,7.7-6.4c8.9-10.5,13.9-26,12.7-39.6c-0.1-1.2-0.8-2.3-1.9-2.9c9.3-5.2,15.8-13,19.1-23.1l12.1-21.4l16.7-21.7
	c0.7-0.9,0.9-2,0.7-3c-0.1-0.6-0.5-1.2-0.9-1.7c36-11.4,79.8-55.7,81.8-57.8c1-1.1,1.3-2.6,0.7-4c-2.4-5.5-5.2-11.5-8.6-17.6
	c-0.1-0.2-0.2-0.4-0.3-0.6c-2.6-4.7-5.5-9.5-8.7-14.2c-0.1-0.3-0.3-0.5-0.5-0.7c0-0.1-0.1-0.1-0.1-0.1c-2-2.9-4.1-5.7-6.4-8.5
	c-0.2-0.3-0.4-0.5-0.6-0.7c-2.8-3.4-5.9-6.7-9.1-9.8c-0.1-0.1-0.2-0.2-0.3-0.3c-4.7-4.5-9.9-8.6-15.5-12.1
	c-15.3-9.3-26.6-9.2-27.1-9.2c-0.4,0-0.9,0.1-1.3,0.3c-40.8,16.2-64.7,38.8-77.6,55c-11.9,14.9-16.8,27.1-18.2,30.9
	c-20,14.7-25,29.1-26,37.4c-0.9,0-1.8,0.3-2.5,1c-21.9,20.1-25.9,33.8-25.9,41.2c-3.2,1.9-8.4,5.5-13.4,11.3
	c-6.8,8-14.4,21.7-12.7,42.4c-8.5,4.5-23.1,14.8-24.2,32.6c-0.3,4.2,0.2,8.3,1.2,12.3c-5,8-29,48-29,73.5
	C575.5,666.7,591.4,676,598.8,679.1z"/>
<path fill="#FF0015" d="M598.8,679.1l-11,35.4c-0.5,1.8,0.3,3.6,2,4.4c0.9,0.4,21.7,9.8,36.2,9.8c1.6,0,3-1.1,3.5-2.6l12.5-41.7
	c4.2-0.9,13.1-3.7,22.7-11.2c20.8-16.3,28.9-42.6,32.1-62.3c14.7-12.2,22.7-27.3,23.2-44.3c4.7-0.9,9.2-2.4,13.4-4.9
	c3-1.8,5.6-3.9,7.7-6.4c8.9-10.5,13.9-26,12.7-39.6c-0.1-1.2-0.8-2.3-1.9-2.9c9.3-5.2,15.8-13,19.1-23.1l12.1-21.4l16.7-21.7
	c0.7-0.9,0.9-2,0.7-3c-0.1-0.6-0.5-1.2-0.9-1.7c36-11.4,79.8-55.7,81.8-57.8c1-1.1,1.3-2.6,0.7-4c-2.4-5.5-5.2-11.5-8.6-17.6
	c-0.1-0.2-0.2-0.4-0.3-0.6c-2.6-4.7-5.5-9.5-8.7-14.2c-0.1-0.3-0.3-0.5-0.5-0.7c0-0.1-0.1-0.1-0.1-0.1c-2-2.9-4.1-5.7-6.4-8.5
	c-0.2-0.3-0.4-0.5-0.6-0.7c-2.8-3.4-5.9-6.7-9.1-9.8c-0.1-0.1-0.2-0.2-0.3-0.3c-4.7-4.5-9.9-8.6-15.5-12.1
	c-15.3-9.3-26.6-9.2-27.1-9.2c-0.4,0-0.9,0.1-1.3,0.3c-40.8,16.2-64.7,38.8-77.6,55c-11.9,14.9-16.8,27.1-18.2,30.9
	c-20,14.7-25,29.1-26,37.4c-0.9,0-1.8,0.3-2.5,1c-21.9,20.1-25.9,33.8-25.9,41.2c-3.2,1.9-8.4,5.5-13.4,11.3
	c-6.8,8-14.4,21.7-12.7,42.4c-8.5,4.5-23.1,14.8-24.2,32.6c-0.3,4.2,0.2,8.3,1.2,12.3c-5,8-29,48-29,73.5
	C575.5,666.7,591.4,676,598.8,679.1z M634,530.5c9.8,10,12.4,28.2,13,34.1c-8.3,6.3-14.6,15-18.8,25.8c-0.6,1.5-1.1,3.1-1.6,4.6
	c-6.3-7.1-17-21.6-16-36.4C611.7,542.1,628.2,533.2,634,530.5z M645.4,599.1c-5.3,3-10.1,6.1-14.3,9.3c0.6-4.3,1.8-9.8,4.1-15.5
	c4-10.2,10-18,17.9-23.6l0,0c4.1-2.9,8.8-5.1,13.9-6.7c3.7,5.5,12.4,24.3-13.5,53.4c-1.1-8.4-2.7-14.4-2.8-14.7
	c-0.3-1.1-1.1-2-2.1-2.4C647.5,598.4,646.3,598.5,645.4,599.1z M697.6,524.6c-0.1-2.9-0.2-5.9-0.6-9.1c-0.2-1.8-1.6-3.1-3.4-3.2
	c-0.5,0-6.9-0.3-15.5,3.9c-0.2-1.7-0.5-3.6-1-5.9c10-32.4,30.9-38.9,40-40.1c-3,14.1-2.9,18.7-2.7,19.8c1,9.6-2,17.4-6,23.4
	c-0.2,0.3-0.4,0.5-0.6,0.9C704.5,518.9,700.6,522.4,697.6,524.6z M755.1,440.3c0.7-9-1.1-13.8-1.3-14.2c-0.7-1.7-2.5-2.6-4.2-2.2
	c-4.9,1.1-10.5,2.8-16.1,5.3c3-7.2,12.4-19.5,41.5-30c0.2,1.4,0.4,3.4,0.5,5.9c0,0.2,0,0.3,0,0.5c-0.4,2.2-0.2,4.1,0,5.3
	c-0.5,7.8-3.2,14.5-8.4,21.2C763.7,436.5,759.4,439.4,755.1,440.3z M865.6,363c-7.1,5.7-28.4,22.6-38.9,28.4
	c-7.2,4-9.9,4.6-15.3,4.3l49.2-41C862.3,357.5,864,360.3,865.6,363z M795.1,394.7c-0.2,0-0.5,0-0.7,0c8.6-11.4,29.6-36.3,59-49.8
	c1,1.3,2,2.6,3,3.9L800.9,395C799.1,394.8,797.2,394.7,795.1,394.7z M782,397c-0.6-3.7-1.5-4.6-2.5-5.3c-0.6-0.4-1.3-0.6-2-0.7
	c12.3-14.2,37.3-40.4,67.1-56.2c1.4,1.4,2.7,2.8,3.9,4.2c-37,17.7-60.3,51.2-64.1,56.9C783.6,396.2,782.8,396.6,782,397z M839,329.5
	c-34.5,19-61.8,50.1-71.6,62.1c0.6-2.4,1-5,1.2-7.8c0.2-2.2,0.2-4.5,0.1-6.9c0,0,0.1,0,0.1-0.1l63.1-52.8
	C834.4,325.8,836.7,327.6,839,329.5z M825.4,320l-57.8,48.3c-0.4-1.7-0.8-3.5-0.6-4.6c1-5.7,6.3-12.8,8.8-16.2
	c9.7-13,24.6-23.5,43.1-30.5C821,317.8,823.1,318.8,825.4,320z M722.5,480.5c0.5-3.3,1.4-7.6,2.7-13.4c0.2-1,0-2.1-0.6-3
	c-0.6-0.9-1.6-1.4-2.7-1.5c-0.3,0-5.1-0.3-11.9,1.6c1.4-5.2,4.9-13.3,13.6-20.5c0.2-0.1,0.5-0.3,0.7-0.5c1.8-1.4,3.7-2.8,5.9-4
	c0.1-0.1,0.2-0.1,0.3-0.2c4.6-2.7,10.3-5.1,17.1-7c0.7,5.5,0.7,18.5-9.4,38.7C733,473.2,727.6,476.4,722.5,480.5z M676.9,566.8
	c-2.2-6.9-5.7-10.7-5.9-11c-0.9-1-2.3-1.4-3.6-1c-4.9,1.3-9.4,3.1-13.6,5.3c-0.2-1.5-0.5-3.2-0.9-5.1c7.8-16.4,16.7-25.3,24.2-30
	c0,0,0,0,0.1,0c5.4-3.4,10-4.7,12.8-5.1c1.3,17.8-2.8,30.3-7.3,38.5c-0.2,0.3-0.4,0.6-0.6,1C680.4,562.6,678.5,565,676.9,566.8z
	 M657,478.3c10.7,15.8,13.5,35.6,14.2,41.9c-6.8,4.7-14.2,12.3-21,24.3c-2.6-7.6-6.6-15.6-13.1-21.1c-0.7-0.6-1.6-0.9-2.4-0.9
	C633.3,495.4,650.4,482.4,657,478.3z M682.2,438.1c0.2,0.2,0.5,0.4,0.7,0.6c0.1,0.2,0.3,0.3,0.5,0.4c4.6,4.1,12.3,13.4,13.6,30.9
	c-7.7,4.8-16.5,13.2-23,27.8c-2.6-8.5-6.7-18-13-26.4c0-0.1-0.1-0.1-0.1-0.1C661.1,466.1,664.3,455.2,682.2,438.1z M710.9,399.3
	c2.9,3.2,8.9,13.1,7.2,39.6c-3.8,3.2-7.2,7.1-10,11.7c-2.4,4-3.9,7.7-4.9,10.8c-2.7-14-9.4-22.5-14.2-27
	C688.8,430.3,689.5,415.5,710.9,399.3z M805.7,313.5c0.4,0,1.1,0.1,2,0.2C791.9,321,779,331,770,343c-4.6,6.2-9,12.8-10.2,19.3
	c-0.5,2.6,0.1,5.3,0.7,7.7c0.2,1.1,0.5,2.1,0.6,3c0.4,3.5,0.4,6.9,0.2,10.1c-0.5,7.2-2.4,12.7-5.6,16.4c-21,10.8-27.8,22.4-30,29.6
	c-0.2-22.9-6.5-32.3-10.4-35.9c1.8-4.5,6.7-15.1,16.7-27.6C744.3,350.4,767,329,805.7,313.5z M874.5,380.7
	c-9.4,9.3-54.9,52.5-86.1,56.3c-5.5-1.7-10.2-2.3-14.1-2.3c5-7,7.7-14.4,8.4-22.6c0.2-0.5,0.2-1.1,0.1-1.7c0.1-1.3,0.1-2.6,0-4
	c0.2-0.5,0.4-1.1,0.8-1.5c1.7-2.1,5.5-3.1,11.1-2.9c4.9,0.2,8.6,0.5,11.6,0.8c9.2,0.8,13,1.1,23.8-4.9c10.7-5.9,30.8-21.8,38.9-28.3
	C871.1,373.4,872.9,377.1,874.5,380.7z M791.3,445.8l-12.9,16.8c-4.7-0.1-16.7,0.1-30.4,4.4c3.1-7.3,4.9-13.7,6-19.1
	c3.9-0.4,7.7-1.8,11.2-4.1l0,0c0.3-0.2,7.6-4.2,21.5,0.3h0.1C788.3,444.6,789.7,445.1,791.3,445.8z M717.3,512.8
	c3.1-6,5-13.2,4.5-21.7c17.3-17.6,41.2-20.7,52.2-21.1l-9.3,16.5c-0.1,0.2-0.2,0.5-0.3,0.7C756.6,511.2,729.3,513.2,717.3,512.8z
	 M729.7,555.3c-5.5,3.2-17.6,7.6-38.7,3c3-6.4,5.5-14.5,6.3-24.7c3.1-1.9,9.8-6.4,15.4-13.8c1.6,0.1,4.1,0.3,7.1,0.3
	c0.7,0,1.4,0,2.1,0l24.7-0.4c0,10.7-4.3,22.7-11.2,30.8C734,552.4,732,554,729.7,555.3z M691.3,605.9c-0.1,0.1-0.2,0.1-0.3,0.2
	c-2.7,2.1-5.7,4.2-8.9,6.2c-9.9,6.1-19.9,9.8-26.1,11.7c15.9-16.8,23.5-33,22.5-48.3c0-0.1,0-0.1,0-0.2c1.9-1.7,5.3-5.1,8.8-10.6
	c5.7,1.3,13.2,2.6,21,2.6c1.4,0,2.8,0,4.2-0.1C711.9,582.3,704.7,595.2,691.3,605.9z M582.8,643.9c0-19.8,17-51.1,24.8-64.5
	c5.2,11.6,13.4,20.6,16.8,24c-1,5.3-1.3,9.6-1.4,11.8c-7.1,7-11.6,14.6-13.6,22.5c-3.7,14.6,2.9,25.2,3.2,25.6
	c1.1,1.7,3.4,2.2,5.1,1.1c1.7-1.1,2.2-3.3,1.1-5c-0.2-0.4-5.2-8.5-2.2-20.1c1.8-6.9,6-13.6,12.6-19.9c0.1-0.1,0.2-0.2,0.2-0.2
	c4.2-4,9.3-7.8,15.3-11.4c2.5,12.2,7.3,44.7-11.7,54.7c-1.8,0.9-2.5,3.2-1.5,4.9c0.7,1.2,1.9,1.9,3.2,1.9c0.6,0,1.2-0.1,1.7-0.4
	c11.4-6,17.6-18.7,18-36.9c5.5-1.5,18.4-5.6,31.3-13.5c0.8-0.5,1.6-1,2.4-1.5c-11.9,55.5-49.1,60.4-49.5,60.4
	c-1.5,0.2-2.7,1.2-3.1,2.6l-12.3,41.1c-9.7-0.8-22-5.5-27.6-7.8l11.2-35.4c0.3-1,0.2-2-0.3-2.9c-0.5-0.9-1.3-1.5-2.3-1.8
	C603.3,673,582.8,667.6,582.8,643.9z"/>
</svg>
