<?xml version="1.0" encoding="utf-8"?>
<!-- Generator: Adobe Illustrator 17.1.0, SVG Export Plug-In . SVG Version: 6.00 Build 0)  -->
<!DOCTYPE svg PUBLIC "-//W3C//DTD SVG 1.1//EN" "http://www.w3.org/Graphics/SVG/1.1/DTD/svg11.dtd">
<svg version="1.1" id="Layer_2" xmlns="http://www.w3.org/2000/svg" xmlns:xlink="http://www.w3.org/1999/xlink" x="0px" y="0px"
	 viewBox="0 0 1000 1000" enable-background="new 0 0 1000 1000" xml:space="preserve">
<polygon fill="none" stroke="#EC008C" stroke-miterlimit="10" points="290,371.334 261,400.334 275.5,400.334 289.25,386.584 "/>
<polyline fill="none" stroke="#EC008C" stroke-miterlimit="10" points="275.5,400.334 275.5,414.5 261.167,400.167 "/>
<polyline fill="none" stroke="#EC008C" stroke-miterlimit="10" points="275.5,414.5 275.5,428.75 304.583,399.667 304.583,385.834 
	289.25,385.834 "/>
<polyline fill="none" stroke="#EC008C" stroke-miterlimit="10" points="290,371.334 304.583,371.334 304.583,385.834 "/>
<polygon fill="none" stroke="#EC008C" stroke-miterlimit="10" points="289.833,456.834 261.167,485.5 275.5,485.5 304.375,456.625 
	"/>
<polyline fill="none" stroke="#EC008C" stroke-miterlimit="10" points="289.833,456.834 318,442.75 290.25,414.5 290.25,457.25 
	275.5,442.5 275.5,428.75 "/>
<polyline fill="none" stroke="#EC008C" stroke-miterlimit="10" points="261.167,485.5 261.167,500 275.583,485.584 "/>
<polyline fill="none" stroke="#EC008C" stroke-miterlimit="10" points="261.167,500 247.458,513.709 261.167,513.709 
	289.709,485.167 290.042,471.062 "/>
<polygon fill="none" stroke="#EC008C" stroke-miterlimit="10" points="318.21,456.731 289.375,484.725 317.789,485.145 
	332.227,471.128 332.438,456.942 "/>
<polyline fill="none" stroke="#EC008C" stroke-miterlimit="10" points="275.583,499.293 275.583,513.709 296.939,492.354 
	289.343,484.758 "/>
<polyline fill="none" stroke="#EC008C" stroke-miterlimit="10" points="247.458,513.709 261.625,527.875 261.625,513.709 "/>
<polyline fill="none" stroke="#EC008C" stroke-miterlimit="10" points="275.583,513 275.583,527.875 304.3,499.158 296.939,492.354 
	"/>
<polyline fill="none" stroke="#EC008C" stroke-miterlimit="10" points="304.3,499.158 318.425,513.283 318.425,527.875 
	290.042,527.875 275.583,527.875 275.583,541.5 261.792,527.708 "/>
<line fill="none" stroke="#EC008C" stroke-miterlimit="10" x1="290.042" y1="527.875" x2="311.529" y2="506.387"/>
<polyline fill="none" stroke="#EC008C" stroke-miterlimit="10" points="275.136,541.052 318.425,584.625 318.425,527.875 
	275.583,527.875 318.425,570.125 "/>
<polyline fill="none" stroke="#EC008C" stroke-miterlimit="10" points="304.207,513.709 318.399,527.901 332.515,513.786 
	318.425,513.786 "/>
<line fill="none" stroke="#EC008C" stroke-miterlimit="10" x1="297.124" y1="520.792" x2="318.116" y2="541.783"/>
<line fill="none" stroke="#EC008C" stroke-miterlimit="10" x1="290.108" y1="527.808" x2="318.225" y2="555.924"/>
<polyline fill="none" stroke="#EC008C" stroke-miterlimit="10" points="317.789,485.145 332.196,499.552 332.196,513.786 
	360.526,541.354 360.526,527.41 "/>
<polyline fill="none" stroke="#EC008C" stroke-miterlimit="10" points="304.583,428.75 304.583,399.667 332.375,400.019 
	346.565,414.209 346.565,442.815 332.438,456.942 346.473,470.978 346.473,456.625 "/>
<polyline fill="none" stroke="#EC008C" stroke-miterlimit="10" points="318.345,456.97 346.635,428.68 317.978,399.837 318,428.75 
	332.196,428.75 "/>
<line fill="none" stroke="#EC008C" stroke-miterlimit="10" x1="332.196" y1="414.242" x2="332.196" y2="442.75"/>
<polyline fill="none" stroke="#EC008C" stroke-miterlimit="10" points="318,428.75 318,442.75 318,456.625 304.375,456.625 "/>
<line fill="none" stroke="#EC008C" stroke-miterlimit="10" x1="317.978" y1="399.837" x2="331.988" y2="385.828"/>
<polyline fill="none" stroke="#EC008C" stroke-miterlimit="10" points="304.583,371.334 332.015,343.902 346.147,358.035 "/>
<polyline fill="none" stroke="#EC008C" stroke-miterlimit="10" points="332.015,343.902 332.196,372.054 332.196,400.019 "/>
<polyline fill="none" stroke="#EC008C" stroke-miterlimit="10" points="317.978,386.272 317.978,357.938 332.105,357.938 "/>
<line fill="none" stroke="#EC008C" stroke-miterlimit="10" x1="332.196" y1="372.054" x2="360.375" y2="372.054"/>
<polyline fill="none" stroke="#EC008C" stroke-miterlimit="10" points="304.739,399.875 360.111,343.667 375.167,357.618 
	375.167,414.209 346.565,414.209 "/>
<line fill="none" stroke="#EC008C" stroke-miterlimit="10" x1="360.375" y1="413.987" x2="374.931" y2="399.431"/>
<path fill="none" stroke="#EC008C" stroke-miterlimit="10" d="M360.12,344.832"/>
<polyline fill="none" stroke="#EC008C" stroke-miterlimit="10" points="360.111,343.667 360.533,399.958 374.915,385.575 "/>
<polyline fill="none" stroke="#EC008C" stroke-miterlimit="10" points="360.533,399.958 346.711,413.987 346.512,371.856 "/>
<polyline fill="none" stroke="#EC008C" stroke-miterlimit="10" points="360.325,372.211 374.931,371.856 388.746,371.856 
	388.746,344.038 375.167,357.618 360.574,372.211 "/>
<polygon fill="none" stroke="#EC008C" stroke-miterlimit="10" points="388.746,371.856 388.746,400.019 374.862,413.903 
	388.746,413.903 402.866,399.783 402.866,385.828 416.93,371.764 "/>
<line fill="none" stroke="#EC008C" stroke-miterlimit="10" x1="388.746" y1="400.019" x2="402.902" y2="385.863"/>
<polyline fill="none" stroke="#EC008C" stroke-miterlimit="10" points="346.711,413.987 360.798,428.073 375.167,428.073 
	375.167,414.209 "/>
<polyline fill="none" stroke="#EC008C" stroke-miterlimit="10" points="360.798,428.073 360.798,456.625 346.512,456.625 
	346.512,442.815 "/>
<polyline fill="none" stroke="#EC008C" stroke-miterlimit="10" points="332.196,485.145 360.612,514.113 360.673,499.768 "/>
<polyline fill="none" stroke="#EC008C" stroke-miterlimit="10" points="346.218,527.808 332.52,541.506 318.657,527.644 "/>
<polyline fill="none" stroke="#EC008C" stroke-miterlimit="10" points="318.425,584.625 332.66,598.86 332.52,541.506 
	360.526,570.184 "/>
<polyline fill="none" stroke="#EC008C" stroke-miterlimit="10" points="375.167,428.073 375.167,442.349 389.034,428.481 "/>
<polyline fill="none" stroke="#EC008C" stroke-miterlimit="10" points="389.141,456.323 375.167,442.349 375.167,470.758 "/>
<line fill="none" stroke="#EC008C" stroke-miterlimit="10" x1="360.722" y1="470.547" x2="346.185" y2="485.085"/>
<polyline fill="none" stroke="#EC008C" stroke-miterlimit="10" points="360.516,513.564 360.603,527.791 332.227,499.552 
	332.227,471.128 360.716,499.976 360.798,456.625 388.838,484.666 388.838,456.625 403.008,442.455 388.686,428.133 
	388.686,413.903 "/>
<line fill="none" stroke="#EC008C" stroke-miterlimit="10" x1="332.438" y1="570.184" x2="346.645" y2="555.977"/>
<line fill="none" stroke="#EC008C" stroke-miterlimit="10" x1="332.624" y1="584.312" x2="353.73" y2="563.207"/>
<polyline fill="none" stroke="#EC008C" stroke-miterlimit="10" points="375.167,470.758 374.798,513.698 360.206,499.466 "/>
<polyline fill="none" stroke="#EC008C" stroke-miterlimit="10" points="374.798,513.698 374.798,527.25 360.526,541.354 
	360.526,570.184 332.255,598.455 "/>
<polyline fill="none" stroke="#EC008C" stroke-miterlimit="10" points="374.798,527.25 403.008,498.461 403.008,484.25 
	388.812,498.785 388.812,484.25 "/>
<polyline fill="none" stroke="#EC008C" stroke-miterlimit="10" points="403.008,498.461 403.008,513.249 360.43,555.827 
	403.145,598.543 403.145,612.562 360.43,570.058 "/>
<polyline fill="none" stroke="#EC008C" stroke-miterlimit="10" points="353.526,577.184 388.838,612.495 388.838,598.326 "/>
<polyline fill="none" stroke="#EC008C" stroke-miterlimit="10" points="360.43,555.827 374.3,556.103 389.087,541.538 "/>
<path fill="none" stroke="#EC008C" stroke-miterlimit="10" d="M374.3,556.103"/>
<polyline fill="none" stroke="#EC008C" stroke-miterlimit="10" points="403.018,513.259 417.16,498.961 417.16,513.249 
	389.087,541.538 389.087,556.076 374.3,556.103 374.3,541.957 "/>
<polyline fill="none" stroke="#EC008C" stroke-miterlimit="10" points="403.145,598.787 416.984,598.787 374.3,556.103 "/>
<polyline fill="none" stroke="#EC008C" stroke-miterlimit="10" points="403.008,484.25 403.008,442.455 402.866,399.783 
	417.16,399.783 "/>
<polyline fill="none" stroke="#EC008C" stroke-miterlimit="10" points="388.746,357.618 402.781,343.582 416.93,343.582 
	417.16,371.764 417.16,428.303 403.008,442.455 "/>
<polyline fill="none" stroke="#EC008C" stroke-miterlimit="10" points="388.746,371.856 416.975,343.627 430.732,357.385 
	416.256,371.861 "/>
<polyline fill="none" stroke="#EC008C" stroke-miterlimit="10" points="417.316,513.333 431.75,513.333 445.333,526.916 
	459,513.249 459,399.536 417.029,399.536 430.732,385.834 430.732,357.385 444.917,357.385 459.234,343.067 459.234,371.084 
	444.906,385.412 "/>
<path fill="none" stroke="#EC008C" stroke-miterlimit="10" d="M389.087,556.076"/>
<path fill="none" stroke="#EC008C" stroke-miterlimit="10" d="M417.316,513.249"/>
<line fill="none" stroke="#EC008C" stroke-miterlimit="10" x1="417.029" y1="399.536" x2="459.255" y2="441.762"/>
<path fill="none" stroke="#EC008C" stroke-miterlimit="10" d="M417.029,413.903"/>
<line fill="none" stroke="#EC008C" stroke-miterlimit="10" x1="417.029" y1="413.903" x2="445.688" y2="442.562"/>
<polyline fill="none" stroke="#EC008C" stroke-miterlimit="10" points="417.029,442.017 445.538,470.525 417.16,498.961 
	417.16,428.303 445.742,456.884 "/>
<line fill="none" stroke="#EC008C" stroke-miterlimit="10" x1="417.16" y1="456.554" x2="438.342" y2="477.735"/>
<line fill="none" stroke="#EC008C" stroke-miterlimit="10" x1="417.029" y1="470.758" x2="431.181" y2="484.91"/>
<polyline fill="none" stroke="#EC008C" stroke-miterlimit="10" points="431.75,484.199 431.75,513.333 445.796,498.961 
	445.796,428.303 "/>
<polygon fill="none" stroke="#EC008C" stroke-miterlimit="10" points="431.75,513.333 431.75,570.184 418.06,583.873 
	389.087,556.076 "/>
<polyline fill="none" stroke="#EC008C" stroke-miterlimit="10" points="417.578,527.531 431.667,541.621 417.382,555.906 
	417.382,568.991 "/>
<polyline fill="none" stroke="#EC008C" stroke-miterlimit="10" points="404.317,540.817 411.083,547.584 424.357,534.31 "/>
<line fill="none" stroke="#EC008C" stroke-miterlimit="10" x1="411.083" y1="547.584" x2="395.974" y2="562.693"/>
<line fill="none" stroke="#EC008C" stroke-miterlimit="10" x1="403.529" y1="555.139" x2="425.162" y2="576.771"/>
<polyline fill="none" stroke="#EC008C" stroke-miterlimit="10" points="418.06,583.873 432.987,598.8 431.75,598.787 
	416.984,598.787 "/>
<polyline fill="none" stroke="#EC008C" stroke-miterlimit="10" points="403.292,598.787 417.613,612.495 417.613,627.02 
	403.156,612.562 403.156,639.572 347.147,583.562 "/>
<polyline fill="none" stroke="#EC008C" stroke-miterlimit="10" points="431.667,541.621 445.874,555.828 431.705,570.229 
	417.382,555.906 431.75,555.906 438.705,548.951 "/>
<polyline fill="none" stroke="#EC008C" stroke-miterlimit="10" points="431.222,598.056 460.06,569.218 460.06,541.188 "/>
<line fill="none" stroke="#EC008C" stroke-miterlimit="10" x1="445.333" y1="526.916" x2="460.06" y2="541.643"/>
<line fill="none" stroke="#EC008C" stroke-miterlimit="10" x1="438.773" y1="506.147" x2="452.438" y2="519.812"/>
<polyline fill="none" stroke="#EC008C" stroke-miterlimit="10" points="445.626,485.587 459,498.961 445.605,512.979 
	438.501,520.083 "/>
<polyline fill="none" stroke="#EC008C" stroke-miterlimit="10" points="452.016,506.265 459,513.249 488.05,484.199 459,456.554 
	445.283,470.271 "/>
<line fill="none" stroke="#EC008C" stroke-miterlimit="10" x1="459" y1="470.758" x2="480.245" y2="492.004"/>
<line fill="none" stroke="#EC008C" stroke-miterlimit="10" x1="459" y1="484.25" x2="473.499" y2="498.75"/>
<line fill="none" stroke="#EC008C" stroke-miterlimit="10" x1="459" y1="498.961" x2="466.144" y2="506.105"/>
<polyline fill="none" stroke="#EC008C" stroke-miterlimit="10" points="445.874,555.828 488.102,513.601 488.05,484.199 
	517.667,513.601 488.102,513.601 "/>
<polyline fill="none" stroke="#EC008C" stroke-miterlimit="10" points="430.732,385.834 459,385.834 459,399.536 473.234,413.903 
	473.234,441.616 459,456.554 "/>
<path fill="none" stroke="#EC008C" stroke-miterlimit="10" d="M444.917,357.385v28.449c-0.333,0,14.083,0,14.083,0l14.388,14.388"/>
<line fill="none" stroke="#EC008C" stroke-miterlimit="10" x1="430.732" y1="357.385" x2="445.06" y2="371.712"/>
<path fill="none" stroke="#EC008C" stroke-miterlimit="10" d="M459.234,343.067l14,14c0,0-14.016,14-14.008,14.008"/>
<path fill="none" stroke="#EC008C" stroke-miterlimit="10" d="M473.234,357.067"/>
<line fill="none" stroke="#EC008C" stroke-miterlimit="10" x1="473.234" y1="357.067" x2="473.234" y2="413.903"/>
<path fill="none" stroke="#EC008C" stroke-miterlimit="10" d="M460.934,625.076"/>
<path fill="none" stroke="#EC008C" stroke-miterlimit="10" d="M460.934,639.984"/>
<polyline fill="none" stroke="#EC008C" stroke-miterlimit="10" points="465.828,463.031 473.234,455.625 473.234,441.616 "/>
<polyline fill="none" stroke="#EC008C" stroke-miterlimit="10" points="473.234,455.625 500.98,427.879 500.98,371.075 
	487.107,371.075 487.243,441.616 "/>
<polyline fill="none" stroke="#EC008C" stroke-miterlimit="10" points="473.234,385.834 487.107,371.075 500.965,384.933 "/>
<line fill="none" stroke="#EC008C" stroke-miterlimit="10" x1="487.1" y1="385.485" x2="473.142" y2="399.443"/>
<polyline fill="none" stroke="#EC008C" stroke-miterlimit="10" points="500.98,427.879 500.98,456.554 480.528,477.006 "/>
<line fill="none" stroke="#EC008C" stroke-miterlimit="10" x1="481.891" y1="519.812" x2="495.679" y2="533.6"/>
<line fill="none" stroke="#EC008C" stroke-miterlimit="10" x1="474.081" y1="527.621" x2="487.868" y2="541.409"/>
<line fill="none" stroke="#EC008C" stroke-miterlimit="10" x1="466.977" y1="534.726" x2="480.764" y2="548.513"/>
<line fill="none" stroke="#EC008C" stroke-miterlimit="10" x1="460.083" y1="541.619" x2="473.871" y2="555.406"/>
<line fill="none" stroke="#EC008C" stroke-miterlimit="10" x1="460.06" y1="556.25" x2="466.544" y2="562.734"/>
<polyline fill="none" stroke="#EC008C" stroke-miterlimit="10" points="439.141,590.137 474.081,625.076 474.081,583.604 
	517.667,541.643 517.667,554.5 488.563,583.604 474.081,583.604 460.06,569.218 502.26,527.018 "/>
<polyline fill="none" stroke="#EC008C" stroke-miterlimit="10" points="453.556,575.722 474.082,596.248 517,639.166 517,653.833 
	473.957,610.79 "/>
<line fill="none" stroke="#EC008C" stroke-miterlimit="10" x1="460.06" y1="569.218" x2="489.259" y2="569.218"/>
<line fill="none" stroke="#EC008C" stroke-miterlimit="10" x1="474.082" y1="569.218" x2="509.426" y2="533.875"/>
<polyline fill="none" stroke="#EC008C" stroke-miterlimit="10" points="500.98,371.075 528.911,343.145 528.911,357.067 
	514.924,371.054 514.924,385.485 500.973,399.436 "/>
<path fill="none" stroke="#EC008C" stroke-miterlimit="10" d="M514.924,385.485"/>
<path fill="none" stroke="#EC008C" stroke-miterlimit="10" d="M500.98,456.554"/>
<polyline fill="none" stroke="#EC008C" stroke-miterlimit="10" points="488.05,469.484 516.991,498.425 502.38,498.425 "/>
<polyline fill="none" stroke="#EC008C" stroke-miterlimit="10" points="514.924,385.485 514.924,441.616 500.98,456.554 
	516.991,470.818 516.991,498.425 601.613,583.047 601.66,597.594 517.667,513.601 517.667,541.643 488.102,513.601 "/>
<polyline fill="none" stroke="#EC008C" stroke-miterlimit="10" points="517.667,527.018 546.917,554.967 546.917,583.604 
	488.563,583.604 544.793,639.833 544.793,611.567 516.833,583.604 531.801,568.635 "/>
<line fill="none" stroke="#EC008C" stroke-miterlimit="10" x1="517.667" y1="541.643" x2="546.893" y2="570.869"/>
<line fill="none" stroke="#EC008C" stroke-miterlimit="10" x1="517.667" y1="554.5" x2="546.844" y2="583.678"/>
<line fill="none" stroke="#EC008C" stroke-miterlimit="10" x1="500.98" y1="583.604" x2="523.875" y2="560.709"/>
<polyline fill="none" stroke="#EC008C" stroke-miterlimit="10" points="474.081,625.076 503.419,654.414 488.75,654.414 
	488.75,639.745 "/>
<polyline fill="none" stroke="#EC008C" stroke-miterlimit="10" points="417.613,612.495 431.405,626.287 431.807,597.471 
	488.75,654.414 "/>
<polyline fill="none" stroke="#EC008C" stroke-miterlimit="10" points="431.61,611.567 460.043,640 474.336,640 "/>
<line fill="none" stroke="#EC008C" stroke-miterlimit="10" x1="460.043" y1="640" x2="460.043" y2="625.707"/>
<line fill="none" stroke="#EC008C" stroke-miterlimit="10" x1="503.016" y1="598.056" x2="503.016" y2="625.076"/>
<polyline fill="none" stroke="#EC008C" stroke-miterlimit="10" points="503.016,611.566 531.725,640.275 531.725,626.765 "/>
<polyline fill="none" stroke="#EC008C" stroke-miterlimit="10" points="516.991,470.818 531.815,485.642 531.815,485.904 
	531.815,513.249 533.617,515.051 "/>
<polyline fill="none" stroke="#EC008C" stroke-miterlimit="10" points="531.815,513.249 544.881,513.249 559.685,498.444 
	544.749,498.575 531.815,485.642 "/>
<path fill="none" stroke="#EC008C" stroke-miterlimit="10" d="M544.749,498.575"/>
</svg>
