<?xml version="1.0" encoding="utf-8"?>
<!-- Generator: Adobe Illustrator 17.1.0, SVG Export Plug-In . SVG Version: 6.00 Build 0)  -->
<!DOCTYPE svg PUBLIC "-//W3C//DTD SVG 1.1//EN" "http://www.w3.org/Graphics/SVG/1.1/DTD/svg11.dtd">
<svg version="1.1" id="Layer_1" xmlns="http://www.w3.org/2000/svg" xmlns:xlink="http://www.w3.org/1999/xlink" x="0px" y="0px"
	 viewBox="0 0 1000 1000" enable-background="new 0 0 1000 1000" xml:space="preserve">
<g>
	
		<path fill="#FFFFFF" stroke="#231F20" stroke-width="4" stroke-linecap="round" stroke-linejoin="round" stroke-miterlimit="10" d="
		M422.4,877.1H258v-363h164.3L422.4,877.1L422.4,877.1z M442.9,493.6l-20.5,20.6v363l20.6-20.6L442.9,493.6L442.9,493.6z
		 M422.4,514.2l20.6-20.6H278.5L258,514.2H422.4z"/>
	
		<path fill="#FFFFFF" stroke="#231F20" stroke-width="4" stroke-linecap="round" stroke-linejoin="round" stroke-miterlimit="10" d="
		M389.5,913.7H225.2v-363h164.3V913.7z M410.1,530.1l-20.6,20.6v363l20.6-20.6V530.1z M389.5,550.7l20.6-20.6H245.8l-20.6,20.6
		H389.5z"/>
	
		<path fill="#FFFFFF" stroke="#231F20" stroke-width="4" stroke-linecap="round" stroke-linejoin="round" stroke-miterlimit="10" d="
		M305.1,877.4v36.3H123.7v-36.3H305.1z M103.1,856.8l20.6,20.6h181.4l-20.6-20.6H103.1z M123.7,877.4l-20.6-20.6v36.3l20.6,20.6
		V877.4z"/>
	
		<path fill="#FFFFFF" stroke="#231F20" stroke-width="4" stroke-linecap="round" stroke-linejoin="round" stroke-miterlimit="10" d="
		M305.1,826.6v36.3H123.7v-36.3H305.1z M103.1,806.1l20.6,20.6h181.4l-20.6-20.6H103.1z M123.7,826.6l-20.6-20.6v36.3l20.6,20.6
		V826.6z"/>
	
		<path fill="#FFFFFF" stroke="#231F20" stroke-width="4" stroke-linecap="round" stroke-linejoin="round" stroke-miterlimit="10" d="
		M305.1,775.8v36.3H123.7v-36.3H305.1z M103.1,755.2l20.6,20.6h181.4l-20.6-20.6H103.1z M123.7,775.8l-20.6-20.6v36.3l20.6,20.6
		V775.8z"/>
	
		<path fill="#FFFFFF" stroke="#231F20" stroke-width="4" stroke-linecap="round" stroke-linejoin="round" stroke-miterlimit="10" d="
		M261.5,775.7h-36.3V594.3h36.3V775.7z M282.1,573.7l-20.6,20.6v181.4l20.6-20.6V573.7z M261.5,594.3l20.6-20.6h-36.3l-20.6,20.6
		H261.5z"/>
	
		<path fill="#FFFFFF" stroke="#231F20" stroke-width="4" stroke-linecap="round" stroke-linejoin="round" stroke-miterlimit="10" d="
		M341.4,812h-36.3V630.6h36.3V812z M362,610l-20.6,20.6V812l20.6-20.6V610z M341.4,630.6L362,610h-36.3l-20.6,20.6H341.4z"/>
	
		<path fill="#FFFFFF" stroke="#231F20" stroke-width="4" stroke-linecap="round" stroke-linejoin="round" stroke-miterlimit="10" d="
		M261.5,644.9v-36.3h181.4v36.3H261.5z M463.4,665.5l-20.6-20.6H261.5l20.6,20.6H463.4z M442.9,644.9l20.6,20.6v-36.3l-20.6-20.6
		V644.9z"/>
	
		<path fill="#FFFFFF" stroke="#231F20" stroke-width="4" stroke-linecap="round" stroke-linejoin="round" stroke-miterlimit="10" d="
		M341.4,913.7h-36.3V732.3h36.3V913.7z M362,711.7l-20.6,20.6v181.4l20.6-20.6V711.7z M341.4,732.3l20.6-20.6h-36.3l-20.6,20.6
		H341.4z"/>
	
		<path fill="#FFFFFF" stroke="#231F20" stroke-width="4" stroke-linecap="round" stroke-linejoin="round" stroke-miterlimit="10" d="
		M341.4,665.2h-36.3V483.9h36.3V665.2z M362,463.3l-20.6,20.6v181.4l20.6-20.6V463.3z M341.4,483.9l20.6-20.6h-36.3l-20.6,20.6
		H341.4z"/>
	
		<path fill="#FFFFFF" stroke="#231F20" stroke-width="4" stroke-linecap="round" stroke-linejoin="round" stroke-miterlimit="10" d="
		M422.5,913.7h-36.3V732.3h36.3V913.7z M443.1,711.7l-20.6,20.6v181.4l20.6-20.6V711.7z M422.5,732.3l20.6-20.6h-36.3l-20.6,20.6
		H422.5z"/>
	
		<path fill="#FFFFFF" stroke="#231F20" stroke-width="4" stroke-linecap="round" stroke-linejoin="round" stroke-miterlimit="10" d="
		M479.4,891.9h-36.3V710.5h36.3V891.9z M500,689.9l-20.6,20.6v181.4l20.6-20.6V689.9z M479.4,710.5l20.6-20.6h-36.3l-20.6,20.6
		H479.4z"/>
	
		<path fill="#FFFFFF" stroke="#231F20" stroke-width="4" stroke-linecap="round" stroke-linejoin="round" stroke-miterlimit="10" d="
		M479.4,695.8h-36.3V514.4h36.3V695.8z M500,493.8l-20.6,20.6v181.4l20.6-20.6V493.8z M479.4,514.4l20.6-20.6h-36.3l-20.6,20.6
		H479.4z"/>
	
		<path fill="#FFFFFF" stroke="#231F20" stroke-width="4" stroke-linecap="round" stroke-linejoin="round" stroke-miterlimit="10" d="
		M577.7,877.1v-363H742v363H577.7L577.7,877.1z M557.1,493.6v363l20.6,20.6v-363L557.1,493.6L557.1,493.6z M742,514.2l-20.6-20.6
		H557.1l20.6,20.6H742z"/>
	
		<path fill="#FFFFFF" stroke="#231F20" stroke-width="4" stroke-linecap="round" stroke-linejoin="round" stroke-miterlimit="10" d="
		M610.5,550.7h164.3v363H610.5V550.7z M589.9,893.1l20.6,20.6v-363l-20.6-20.6V893.1z M774.8,550.7l-20.6-20.6H589.9l20.6,20.6
		H774.8z"/>
	
		<path fill="#FFFFFF" stroke="#231F20" stroke-width="4" stroke-linecap="round" stroke-linejoin="round" stroke-miterlimit="10" d="
		M876.3,877.4v36.3H694.9v-36.3H876.3z M715.5,856.8l-20.6,20.6h181.4l20.6-20.6H715.5z M876.3,913.7l20.6-20.6v-36.3l-20.6,20.6
		V913.7z"/>
	
		<path fill="#FFFFFF" stroke="#231F20" stroke-width="4" stroke-linecap="round" stroke-linejoin="round" stroke-miterlimit="10" d="
		M876.3,826.6v36.3H694.9v-36.3H876.3z M715.5,806.1l-20.6,20.6h181.4l20.6-20.6H715.5z M876.3,862.9l20.6-20.6v-36.3l-20.6,20.6
		V862.9z"/>
	
		<path fill="#FFFFFF" stroke="#231F20" stroke-width="4" stroke-linecap="round" stroke-linejoin="round" stroke-miterlimit="10" d="
		M876.3,775.8v36.3H694.9v-36.3H876.3z M715.5,755.2l-20.6,20.6h181.4l20.6-20.6H715.5z M876.3,812.1l20.6-20.6v-36.3l-20.6,20.6
		V812.1z"/>
	
		<path fill="#FFFFFF" stroke="#231F20" stroke-width="4" stroke-linecap="round" stroke-linejoin="round" stroke-miterlimit="10" d="
		M738.5,594.3h36.3v181.4h-36.3V594.3z M717.9,755.1l20.6,20.6V594.3l-20.6-20.6V755.1z M774.8,594.3l-20.6-20.6h-36.3l20.6,20.6
		H774.8z"/>
	
		<path fill="#FFFFFF" stroke="#231F20" stroke-width="4" stroke-linecap="round" stroke-linejoin="round" stroke-miterlimit="10" d="
		M658.6,630.6h36.3V812h-36.3V630.6z M638,791.4l20.6,20.6V630.6L638,610V791.4z M694.9,630.6L674.3,610H638l20.6,20.6H694.9z"/>
	
		<path fill="#FFFFFF" stroke="#231F20" stroke-width="4" stroke-linecap="round" stroke-linejoin="round" stroke-miterlimit="10" d="
		M557.1,644.9v-36.3h181.4v36.3H557.1z M717.9,665.5l20.6-20.6H557.1l-20.6,20.6H717.9z M557.1,608.6l-20.6,20.6v36.3l20.6-20.6
		V608.6z"/>
	
		<path fill="#FFFFFF" stroke="#231F20" stroke-width="4" stroke-linecap="round" stroke-linejoin="round" stroke-miterlimit="10" d="
		M658.6,732.3h36.3v181.4h-36.3V732.3z M638,893.1l20.6,20.6V732.3L638,711.7V893.1z M694.9,732.3l-20.6-20.6H638l20.6,20.6H694.9z"
		/>
	
		<path fill="#FFFFFF" stroke="#231F20" stroke-width="4" stroke-linecap="round" stroke-linejoin="round" stroke-miterlimit="10" d="
		M658.6,483.9h36.3v181.4h-36.3V483.9z M638,644.7l20.6,20.6V483.9L638,463.3V644.7z M694.9,483.9l-20.6-20.6H638l20.6,20.6H694.9z"
		/>
	
		<path fill="#FFFFFF" stroke="#231F20" stroke-width="4" stroke-linecap="round" stroke-linejoin="round" stroke-miterlimit="10" d="
		M577.5,732.3h36.3v181.4h-36.3V732.3z M556.9,893.1l20.6,20.6V732.3l-20.6-20.6V893.1z M613.8,732.3l-20.6-20.6h-36.3l20.6,20.6
		H613.8z"/>
	
		<path fill="#FFFFFF" stroke="#231F20" stroke-width="4" stroke-linecap="round" stroke-linejoin="round" stroke-miterlimit="10" d="
		M520.6,710.5h36.3v181.4h-36.3V710.5z M500,871.3l20.6,20.6V710.5L500,689.9V871.3z M556.9,710.5l-20.6-20.6H500l20.6,20.6H556.9z"
		/>
	
		<path fill="#FFFFFF" stroke="#231F20" stroke-width="4" stroke-linecap="round" stroke-linejoin="round" stroke-miterlimit="10" d="
		M520.6,514.4h36.3v181.4h-36.3V514.4z M500,675.2l20.6,20.6V514.4L500,493.8V675.2z M556.9,514.4l-20.6-20.6H500l20.6,20.6H556.9z"
		/>
	
		<path fill="#FFFFFF" stroke="#231F20" stroke-width="4" stroke-linecap="round" stroke-linejoin="round" stroke-miterlimit="10" d="
		M422.4,500.1H258v-363h164.3L422.4,500.1L422.4,500.1z M442.9,116.6l-20.5,20.6v363l20.6-20.6L442.9,116.6L442.9,116.6z
		 M422.4,137.2l20.6-20.6H278.5L258,137.2H422.4z"/>
	
		<path fill="#FFFFFF" stroke="#231F20" stroke-width="4" stroke-linecap="round" stroke-linejoin="round" stroke-miterlimit="10" d="
		M389.5,536.7H225.2v-363h164.3V536.7z M410.1,153.2l-20.6,20.6v363l20.6-20.6V153.2z M389.5,173.7l20.6-20.6H245.8l-20.6,20.6
		H389.5z"/>
	
		<path fill="#FFFFFF" stroke="#231F20" stroke-width="4" stroke-linecap="round" stroke-linejoin="round" stroke-miterlimit="10" d="
		M305.1,500.4v36.3H123.7v-36.3H305.1z M103.1,479.8l20.6,20.6h181.4l-20.6-20.6H103.1z M123.7,500.4l-20.6-20.6v36.3l20.6,20.6
		V500.4z"/>
	
		<path fill="#FFFFFF" stroke="#231F20" stroke-width="4" stroke-linecap="round" stroke-linejoin="round" stroke-miterlimit="10" d="
		M305.1,449.6V486H123.7v-36.3H305.1z M103.1,429.1l20.6,20.6h181.4l-20.6-20.6H103.1z M123.7,449.6l-20.6-20.6v36.3l20.6,20.6
		V449.6z"/>
	
		<path fill="#FFFFFF" stroke="#231F20" stroke-width="4" stroke-linecap="round" stroke-linejoin="round" stroke-miterlimit="10" d="
		M305.1,398.8v36.3H123.7v-36.3H305.1z M103.1,378.2l20.6,20.6h181.4l-20.6-20.6H103.1z M123.7,398.8l-20.6-20.6v36.3l20.6,20.6
		V398.8z"/>
	
		<path fill="#FFFFFF" stroke="#231F20" stroke-width="4" stroke-linecap="round" stroke-linejoin="round" stroke-miterlimit="10" d="
		M261.5,398.7h-36.3V217.3h36.3V398.7z M282.1,196.7l-20.6,20.6v181.4l20.6-20.6V196.7z M261.5,217.3l20.6-20.6h-36.3l-20.6,20.6
		H261.5z"/>
	
		<path fill="#FFFFFF" stroke="#231F20" stroke-width="4" stroke-linecap="round" stroke-linejoin="round" stroke-miterlimit="10" d="
		M341.4,435h-36.3V253.6h36.3V435z M362,233.1l-20.6,20.6V435l20.6-20.6V233.1z M341.4,253.6l20.6-20.6h-36.3l-20.6,20.6H341.4z"/>
	
		<path fill="#FFFFFF" stroke="#231F20" stroke-width="4" stroke-linecap="round" stroke-linejoin="round" stroke-miterlimit="10" d="
		M261.5,267.9v-36.3h181.4v36.3H261.5z M463.4,288.5l-20.6-20.6H261.5l20.6,20.6H463.4z M442.9,267.9l20.6,20.6v-36.3l-20.6-20.6
		V267.9z"/>
	
		<path fill="#FFFFFF" stroke="#231F20" stroke-width="4" stroke-linecap="round" stroke-linejoin="round" stroke-miterlimit="10" d="
		M341.4,536.7h-36.3V355.3h36.3V536.7z M362,334.8l-20.6,20.6v181.4l20.6-20.6V334.8z M341.4,355.3l20.6-20.6h-36.3l-20.6,20.6
		H341.4z"/>
	
		<path fill="#FFFFFF" stroke="#231F20" stroke-width="4" stroke-linecap="round" stroke-linejoin="round" stroke-miterlimit="10" d="
		M341.4,288.3h-36.3V106.9h36.3V288.3z M362,86.3l-20.6,20.6v181.4l20.6-20.6V86.3z M341.4,106.9L362,86.3h-36.3l-20.6,20.6H341.4z"
		/>
	
		<path fill="#FFFFFF" stroke="#231F20" stroke-width="4" stroke-linecap="round" stroke-linejoin="round" stroke-miterlimit="10" d="
		M422.5,536.7h-36.3V355.3h36.3V536.7z M443.1,334.8l-20.6,20.6v181.4l20.6-20.6V334.8z M422.5,355.3l20.6-20.6h-36.3l-20.6,20.6
		H422.5z"/>
	
		<path fill="#FFFFFF" stroke="#231F20" stroke-width="4" stroke-linecap="round" stroke-linejoin="round" stroke-miterlimit="10" d="
		M479.4,514.9h-36.3V333.5h36.3V514.9z M500,313l-20.6,20.6v181.4l20.6-20.6V313z M479.4,333.5L500,313h-36.3l-20.6,20.6H479.4z"/>
	
		<path fill="#FFFFFF" stroke="#231F20" stroke-width="4" stroke-linecap="round" stroke-linejoin="round" stroke-miterlimit="10" d="
		M479.4,318.8h-36.3V137.4h36.3V318.8z M500,116.8l-20.6,20.6v181.4l20.6-20.6V116.8z M479.4,137.4l20.6-20.6h-36.3l-20.6,20.6
		H479.4z"/>
	
		<path fill="#FFFFFF" stroke="#231F20" stroke-width="4" stroke-linecap="round" stroke-linejoin="round" stroke-miterlimit="10" d="
		M577.7,500.1v-363H742v363H577.7L577.7,500.1z M557.1,116.6v363l20.6,20.6v-363L557.1,116.6L557.1,116.6z M742,137.2l-20.6-20.6
		H557.1l20.6,20.6H742z"/>
	
		<path fill="#FFFFFF" stroke="#231F20" stroke-width="4" stroke-linecap="round" stroke-linejoin="round" stroke-miterlimit="10" d="
		M610.5,173.7h164.3v363H610.5V173.7z M589.9,516.1l20.6,20.6v-363l-20.6-20.6V516.1z M774.8,173.7l-20.6-20.6H589.9l20.6,20.6
		H774.8z"/>
	
		<path fill="#FFFFFF" stroke="#231F20" stroke-width="4" stroke-linecap="round" stroke-linejoin="round" stroke-miterlimit="10" d="
		M876.3,500.4v36.3H694.9v-36.3H876.3z M715.5,479.8l-20.6,20.6h181.4l20.6-20.6H715.5z M876.3,536.7l20.6-20.6v-36.3l-20.6,20.6
		V536.7z"/>
	
		<path fill="#FFFFFF" stroke="#231F20" stroke-width="4" stroke-linecap="round" stroke-linejoin="round" stroke-miterlimit="10" d="
		M876.3,449.6V486H694.9v-36.3H876.3z M715.5,429.1l-20.6,20.6h181.4l20.6-20.6H715.5z M876.3,486l20.6-20.6v-36.3l-20.6,20.6V486z"
		/>
	
		<path fill="#FFFFFF" stroke="#231F20" stroke-width="4" stroke-linecap="round" stroke-linejoin="round" stroke-miterlimit="10" d="
		M876.3,398.8v36.3H694.9v-36.3H876.3z M715.5,378.2l-20.6,20.6h181.4l20.6-20.6H715.5z M876.3,435.1l20.6-20.6v-36.3l-20.6,20.6
		V435.1z"/>
	
		<path fill="#FFFFFF" stroke="#231F20" stroke-width="4" stroke-linecap="round" stroke-linejoin="round" stroke-miterlimit="10" d="
		M738.5,217.3h36.3v181.4h-36.3V217.3z M717.9,378.1l20.6,20.6V217.3l-20.6-20.6V378.1z M774.8,217.3l-20.6-20.6h-36.3l20.6,20.6
		H774.8z"/>
	
		<path fill="#FFFFFF" stroke="#231F20" stroke-width="4" stroke-linecap="round" stroke-linejoin="round" stroke-miterlimit="10" d="
		M658.6,253.6h36.3V435h-36.3V253.6z M638,414.4l20.6,20.6V253.6L638,233.1V414.4z M694.9,253.6l-20.6-20.6H638l20.6,20.6H694.9z"/>
	
		<path fill="#FFFFFF" stroke="#231F20" stroke-width="4" stroke-linecap="round" stroke-linejoin="round" stroke-miterlimit="10" d="
		M557.1,267.9v-36.3h181.4v36.3H557.1z M717.9,288.5l20.6-20.6H557.1l-20.6,20.6H717.9z M557.1,231.6l-20.6,20.6v36.3l20.6-20.6
		V231.6z"/>
	
		<path fill="#FFFFFF" stroke="#231F20" stroke-width="4" stroke-linecap="round" stroke-linejoin="round" stroke-miterlimit="10" d="
		M658.6,355.3h36.3v181.4h-36.3V355.3z M638,516.1l20.6,20.6V355.3L638,334.8V516.1z M694.9,355.3l-20.6-20.6H638l20.6,20.6H694.9z"
		/>
	
		<path fill="#FFFFFF" stroke="#231F20" stroke-width="4" stroke-linecap="round" stroke-linejoin="round" stroke-miterlimit="10" d="
		M658.6,106.9h36.3v181.4h-36.3V106.9z M638,267.7l20.6,20.6V106.9L638,86.3V267.7z M694.9,106.9l-20.6-20.6H638l20.6,20.6H694.9z"
		/>
	
		<path fill="#FFFFFF" stroke="#231F20" stroke-width="4" stroke-linecap="round" stroke-linejoin="round" stroke-miterlimit="10" d="
		M577.5,355.3h36.3v181.4h-36.3V355.3z M556.9,516.1l20.6,20.6V355.3l-20.6-20.6V516.1z M613.8,355.3l-20.6-20.6h-36.3l20.6,20.6
		H613.8z"/>
	
		<path fill="#FFFFFF" stroke="#231F20" stroke-width="4" stroke-linecap="round" stroke-linejoin="round" stroke-miterlimit="10" d="
		M520.6,333.5h36.3v181.4h-36.3V333.5z M500,494.3l20.6,20.6V333.5L500,313V494.3z M556.9,333.5L536.3,313H500l20.6,20.6H556.9z"/>
	
		<path fill="#FFFFFF" stroke="#231F20" stroke-width="4" stroke-linecap="round" stroke-linejoin="round" stroke-miterlimit="10" d="
		M520.6,137.4h36.3v181.4h-36.3V137.4z M500,298.2l20.6,20.6V137.4L500,116.8V298.2z M556.9,137.4l-20.6-20.6H500l20.6,20.6H556.9z"
		/>
</g>
</svg>
