<?xml version="1.0" encoding="utf-8"?>
<!-- Generator: Adobe Illustrator 17.1.0, SVG Export Plug-In . SVG Version: 6.00 Build 0)  -->
<!DOCTYPE svg PUBLIC "-//W3C//DTD SVG 1.1//EN" "http://www.w3.org/Graphics/SVG/1.1/DTD/svg11.dtd">
<svg version="1.1" id="Layer_1" xmlns="http://www.w3.org/2000/svg" xmlns:xlink="http://www.w3.org/1999/xlink" x="0px" y="0px"
	 viewBox="-194 -104 1000 1000" enable-background="new -194 -104 1000 1000" xml:space="preserve">
<polygon fill="#FFFFFF" stroke="#8DC63F" stroke-width="3" stroke-miterlimit="10" points="-65.6,24.1 -65.6,395.7 120.2,395.7 "/>
<polygon fill="#FFFFFF" stroke="#8DC63F" stroke-width="3" stroke-miterlimit="10" points="-19.1,24.1 -19.1,395.7 166.7,395.7 "/>
<polygon fill="#FFFFFF" stroke="#8DC63F" stroke-width="3" stroke-miterlimit="10" points="73.8,24.1 73.8,395.7 259.5,395.7 "/>
<polygon fill="#FFFFFF" stroke="#8DC63F" stroke-width="3" stroke-miterlimit="10" points="306,209.9 -65.6,395.7 306,395.7 "/>
<polygon fill="#FFFFFF" stroke="#8DC63F" stroke-width="3" stroke-miterlimit="10" points="306,175.1 -65.6,360.9 306,360.9 "/>
<polygon fill="#FFFFFF" stroke="#8DC63F" stroke-width="3" stroke-miterlimit="10" points="306,140.2 -65.6,326 306,326 "/>
<polygon fill="#FFFFFF" stroke="#8DC63F" stroke-width="3" stroke-miterlimit="10" points="306,105.4 -65.6,291.2 306,291.2 "/>
<polygon fill="#FFFFFF" stroke="#8DC63F" stroke-width="3" stroke-miterlimit="10" points="306,70.6 -65.6,256.4 306,256.4 "/>
<polygon fill="#FFFFFF" stroke="#8DC63F" stroke-width="3" stroke-miterlimit="10" points="120.2,24.1 120.2,395.7 306,395.7 "/>
<polygon fill="#FFFFFF" stroke="#8DC63F" stroke-width="3" stroke-miterlimit="10" points="27.3,24.1 27.3,395.7 213.1,395.7 "/>
<rect x="259.5" y="24.1" fill="#FFFFFF" stroke="#8DC63F" stroke-width="3" stroke-miterlimit="10" width="46.4" height="232.2"/>
<rect x="213.1" y="93.8" fill="#FFFFFF" stroke="#8DC63F" stroke-width="3" stroke-miterlimit="10" width="46.4" height="162.6"/>
<rect x="166.6" y="70.6" fill="#FFFFFF" stroke="#8DC63F" stroke-width="3" stroke-miterlimit="10" width="46.4" height="185.8"/>
<rect x="120.2" y="0.9" fill="#FFFFFF" stroke="#8DC63F" stroke-width="3" stroke-miterlimit="10" width="46.4" height="255.5"/>
<polygon fill="#FFFFFF" stroke="#8DC63F" stroke-width="3" stroke-miterlimit="10" points="491.8,395.7 677.6,395.7 677.6,24.1 "/>
<polygon fill="#FFFFFF" stroke="#8DC63F" stroke-width="3" stroke-miterlimit="10" points="445.4,395.7 631.1,395.7 631.1,24.1 "/>
<polygon fill="#FFFFFF" stroke="#8DC63F" stroke-width="3" stroke-miterlimit="10" points="352.5,395.7 538.2,395.7 538.2,24.1 "/>
<polygon fill="#FFFFFF" stroke="#8DC63F" stroke-width="3" stroke-miterlimit="10" points="306,395.7 677.6,395.7 306,209.9 "/>
<polygon fill="#FFFFFF" stroke="#8DC63F" stroke-width="3" stroke-miterlimit="10" points="306,360.9 677.6,360.9 306,175.1 "/>
<polygon fill="#FFFFFF" stroke="#8DC63F" stroke-width="3" stroke-miterlimit="10" points="306,326 677.6,326 306,140.2 "/>
<polygon fill="#FFFFFF" stroke="#8DC63F" stroke-width="3" stroke-miterlimit="10" points="306,291.2 677.6,291.2 306,105.4 "/>
<polygon fill="#FFFFFF" stroke="#8DC63F" stroke-width="3" stroke-miterlimit="10" points="306,256.4 677.6,256.4 306,70.6 "/>
<polygon fill="#FFFFFF" stroke="#8DC63F" stroke-width="3" stroke-miterlimit="10" points="306,395.7 491.8,395.7 491.8,24.1 "/>
<polygon fill="#FFFFFF" stroke="#8DC63F" stroke-width="3" stroke-miterlimit="10" points="398.9,395.7 584.7,395.7 584.7,24.1 "/>
<rect x="306" y="24.1" fill="#FFFFFF" stroke="#8DC63F" stroke-width="3" stroke-miterlimit="10" width="46.4" height="232.2"/>
<rect x="352.4" y="93.8" fill="#FFFFFF" stroke="#8DC63F" stroke-width="3" stroke-miterlimit="10" width="46.4" height="162.6"/>
<rect x="398.9" y="70.6" fill="#FFFFFF" stroke="#8DC63F" stroke-width="3" stroke-miterlimit="10" width="46.4" height="185.8"/>
<rect x="445.3" y="0.9" fill="#FFFFFF" stroke="#8DC63F" stroke-width="3" stroke-miterlimit="10" width="46.4" height="255.5"/>
<polygon fill="#FFFFFF" stroke="#8DC63F" stroke-width="3" stroke-miterlimit="10" points="120.2,396.3 -65.6,396.3 -65.6,767.9 "/>
<polygon fill="#FFFFFF" stroke="#8DC63F" stroke-width="3" stroke-miterlimit="10" points="166.7,396.3 -19.1,396.3 -19.1,767.9 "/>
<polygon fill="#FFFFFF" stroke="#8DC63F" stroke-width="3" stroke-miterlimit="10" points="259.5,396.3 73.8,396.3 73.8,767.9 "/>
<polygon fill="#FFFFFF" stroke="#8DC63F" stroke-width="3" stroke-miterlimit="10" points="306,396.3 -65.6,396.3 306,582.1 "/>
<polygon fill="#FFFFFF" stroke="#8DC63F" stroke-width="3" stroke-miterlimit="10" points="306,431.1 -65.6,431.1 306,616.9 "/>
<polygon fill="#FFFFFF" stroke="#8DC63F" stroke-width="3" stroke-miterlimit="10" points="306,466 -65.6,466 306,651.8 "/>
<polygon fill="#FFFFFF" stroke="#8DC63F" stroke-width="3" stroke-miterlimit="10" points="306,500.8 -65.6,500.8 306,686.6 "/>
<polygon fill="#FFFFFF" stroke="#8DC63F" stroke-width="3" stroke-miterlimit="10" points="306,535.6 -65.6,535.6 306,721.4 "/>
<polygon fill="#FFFFFF" stroke="#8DC63F" stroke-width="3" stroke-miterlimit="10" points="306,396.3 120.2,396.3 120.2,767.9 "/>
<polygon fill="#FFFFFF" stroke="#8DC63F" stroke-width="3" stroke-miterlimit="10" points="213.1,396.3 27.3,396.3 27.3,767.9 "/>
<rect x="259.5" y="535.6" fill="#FFFFFF" stroke="#8DC63F" stroke-width="3" stroke-miterlimit="10" width="46.4" height="232.2"/>
<rect x="213.1" y="535.6" fill="#FFFFFF" stroke="#8DC63F" stroke-width="3" stroke-miterlimit="10" width="46.4" height="162.6"/>
<rect x="166.6" y="535.6" fill="#FFFFFF" stroke="#8DC63F" stroke-width="3" stroke-miterlimit="10" width="46.4" height="185.8"/>
<rect x="120.2" y="535.6" fill="#FFFFFF" stroke="#8DC63F" stroke-width="3" stroke-miterlimit="10" width="46.4" height="255.5"/>
<polygon fill="#FFFFFF" stroke="#8DC63F" stroke-width="3" stroke-miterlimit="10" points="677.6,767.9 677.6,396.3 491.8,396.3 "/>
<polygon fill="#FFFFFF" stroke="#8DC63F" stroke-width="3" stroke-miterlimit="10" points="631.1,767.9 631.1,396.3 445.4,396.3 "/>
<polygon fill="#FFFFFF" stroke="#8DC63F" stroke-width="3" stroke-miterlimit="10" points="538.2,767.9 538.2,396.3 352.5,396.3 "/>
<polygon fill="#FFFFFF" stroke="#8DC63F" stroke-width="3" stroke-miterlimit="10" points="306,582.1 677.6,396.3 306,396.3 "/>
<polygon fill="#FFFFFF" stroke="#8DC63F" stroke-width="3" stroke-miterlimit="10" points="306,616.9 677.6,431.1 306,431.1 "/>
<polygon fill="#FFFFFF" stroke="#8DC63F" stroke-width="3" stroke-miterlimit="10" points="306,651.8 677.6,466 306,466 "/>
<polygon fill="#FFFFFF" stroke="#8DC63F" stroke-width="3" stroke-miterlimit="10" points="306,686.6 677.6,500.8 306,500.8 "/>
<polygon fill="#FFFFFF" stroke="#8DC63F" stroke-width="3" stroke-miterlimit="10" points="306,721.4 677.6,535.6 306,535.6 "/>
<polygon fill="#FFFFFF" stroke="#8DC63F" stroke-width="3" stroke-miterlimit="10" points="491.8,767.9 491.8,396.3 306,396.3 "/>
<polygon fill="#FFFFFF" stroke="#8DC63F" stroke-width="3" stroke-miterlimit="10" points="584.7,767.9 584.7,396.3 398.9,396.3 "/>
<rect x="306" y="535.6" fill="#FFFFFF" stroke="#8DC63F" stroke-width="3" stroke-miterlimit="10" width="46.4" height="232.2"/>
<rect x="352.4" y="535.6" fill="#FFFFFF" stroke="#8DC63F" stroke-width="3" stroke-miterlimit="10" width="46.4" height="162.6"/>
<rect x="398.9" y="535.6" fill="#FFFFFF" stroke="#8DC63F" stroke-width="3" stroke-miterlimit="10" width="46.4" height="185.8"/>
<rect x="445.3" y="535.6" fill="#FFFFFF" stroke="#8DC63F" stroke-width="3" stroke-miterlimit="10" width="46.4" height="255.5"/>
</svg>
