<?xml version="1.0" encoding="utf-8"?>
<!-- Generator: Adobe Illustrator 17.1.0, SVG Export Plug-In . SVG Version: 6.00 Build 0)  -->
<!DOCTYPE svg PUBLIC "-//W3C//DTD SVG 1.1//EN" "http://www.w3.org/Graphics/SVG/1.1/DTD/svg11.dtd">
<svg version="1.1" id="Layer_1" xmlns="http://www.w3.org/2000/svg" xmlns:xlink="http://www.w3.org/1999/xlink" x="0px" y="0px"
	 viewBox="-194 -104 1000 1000" enable-background="new -194 -104 1000 1000" xml:space="preserve">
<g>
	<rect x="263.4" y="374.7" fill="#FFFFFF" stroke="#8DC63F" stroke-width="3" stroke-miterlimit="10" width="42.6" height="341.1"/>
	<rect x="220.7" y="374.7" fill="#FFFFFF" stroke="#8DC63F" stroke-width="3" stroke-miterlimit="10" width="42.6" height="341.1"/>
	<rect x="178.1" y="374.7" fill="#FFFFFF" stroke="#8DC63F" stroke-width="3" stroke-miterlimit="10" width="42.6" height="341.1"/>
	<rect x="-35.1" y="545.3" fill="#FFFFFF" stroke="#8DC63F" stroke-width="3" stroke-miterlimit="10" width="341.1" height="21.3"/>
	<rect x="-35.1" y="566.6" fill="#FFFFFF" stroke="#8DC63F" stroke-width="3" stroke-miterlimit="10" width="341.1" height="21.3"/>
	<rect x="-35.1" y="587.9" fill="#FFFFFF" stroke="#8DC63F" stroke-width="3" stroke-miterlimit="10" width="341.1" height="21.3"/>
	<rect x="-35.1" y="609.2" fill="#FFFFFF" stroke="#8DC63F" stroke-width="3" stroke-miterlimit="10" width="341.1" height="21.3"/>
	<polygon fill="#FFFFFF" stroke="#8DC63F" stroke-width="3" stroke-miterlimit="10" points="50.1,545.3 306,545.3 306,460 	"/>
	<polygon fill="#FFFFFF" stroke="#8DC63F" stroke-width="3" stroke-miterlimit="10" points="28.8,529.2 284.7,529.2 284.7,443.9 	
		"/>
	<polygon fill="#FFFFFF" stroke="#8DC63F" stroke-width="3" stroke-miterlimit="10" points="7.5,513.3 263.4,513.3 263.4,428 	"/>
	<polygon fill="#FFFFFF" stroke="#8DC63F" stroke-width="3" stroke-miterlimit="10" points="-13.8,491.9 242,491.9 242,406.7 	"/>
	<polygon fill="#FFFFFF" stroke="#8DC63F" stroke-width="3" stroke-miterlimit="10" points="178.1,609.2 178.1,715.8 28.8,662.5 	
		"/>
	<polygon fill="#FFFFFF" stroke="#8DC63F" stroke-width="3" stroke-miterlimit="10" points="178.1,587.9 178.1,694.5 28.8,641.2 	
		"/>
	<polygon fill="#FFFFFF" stroke="#8DC63F" stroke-width="3" stroke-miterlimit="10" points="178.1,566.6 178.1,673.2 28.8,619.9 	
		"/>
	<polygon fill="#FFFFFF" stroke="#8DC63F" stroke-width="3" stroke-miterlimit="10" points="178.1,417.3 178.1,523.9 28.8,470.6 	
		"/>
	<polygon fill="#FFFFFF" stroke="#8DC63F" stroke-width="3" stroke-miterlimit="10" points="178.1,396 178.1,502.6 28.8,449.3 	"/>
	<polygon fill="#FFFFFF" stroke="#8DC63F" stroke-width="3" stroke-miterlimit="10" points="178.1,374.7 178.1,481.3 28.8,428 	"/>
	<rect x="306" y="374.7" fill="#FFFFFF" stroke="#8DC63F" stroke-width="3" stroke-miterlimit="10" width="42.6" height="341.1"/>
	<rect x="348.6" y="374.7" fill="#FFFFFF" stroke="#8DC63F" stroke-width="3" stroke-miterlimit="10" width="42.6" height="341.1"/>
	<rect x="391.3" y="374.7" fill="#FFFFFF" stroke="#8DC63F" stroke-width="3" stroke-miterlimit="10" width="42.6" height="341.1"/>
	<rect x="306" y="545.3" fill="#FFFFFF" stroke="#8DC63F" stroke-width="3" stroke-miterlimit="10" width="341.1" height="21.3"/>
	<rect x="306" y="566.6" fill="#FFFFFF" stroke="#8DC63F" stroke-width="3" stroke-miterlimit="10" width="341.1" height="21.3"/>
	<rect x="306" y="587.9" fill="#FFFFFF" stroke="#8DC63F" stroke-width="3" stroke-miterlimit="10" width="341.1" height="21.3"/>
	<rect x="306" y="609.2" fill="#FFFFFF" stroke="#8DC63F" stroke-width="3" stroke-miterlimit="10" width="341.1" height="21.3"/>
	<polygon fill="#FFFFFF" stroke="#8DC63F" stroke-width="3" stroke-miterlimit="10" points="306,460 306,545.3 561.9,545.3 	"/>
	<polygon fill="#FFFFFF" stroke="#8DC63F" stroke-width="3" stroke-miterlimit="10" points="327.3,443.9 327.3,529.2 583.2,529.2 	
		"/>
	<polygon fill="#FFFFFF" stroke="#8DC63F" stroke-width="3" stroke-miterlimit="10" points="348.6,428 348.6,513.3 604.5,513.3 	"/>
	<polygon fill="#FFFFFF" stroke="#8DC63F" stroke-width="3" stroke-miterlimit="10" points="370,406.7 370,491.9 625.8,491.9 	"/>
	<polygon fill="#FFFFFF" stroke="#8DC63F" stroke-width="3" stroke-miterlimit="10" points="583.2,662.5 433.9,715.8 433.9,609.2 	
		"/>
	<polygon fill="#FFFFFF" stroke="#8DC63F" stroke-width="3" stroke-miterlimit="10" points="583.2,641.2 433.9,694.5 433.9,587.9 	
		"/>
	<polygon fill="#FFFFFF" stroke="#8DC63F" stroke-width="3" stroke-miterlimit="10" points="583.2,619.9 433.9,673.2 433.9,566.6 	
		"/>
	<polygon fill="#FFFFFF" stroke="#8DC63F" stroke-width="3" stroke-miterlimit="10" points="583.2,470.6 433.9,523.9 433.9,417.3 	
		"/>
	<polygon fill="#FFFFFF" stroke="#8DC63F" stroke-width="3" stroke-miterlimit="10" points="583.2,449.3 433.9,502.6 433.9,396 	"/>
	<polygon fill="#FFFFFF" stroke="#8DC63F" stroke-width="3" stroke-miterlimit="10" points="583.2,428 433.9,481.3 433.9,374.7 	"/>
</g>
<g>
	<rect x="263.4" y="33.5" fill="#FFFFFF" stroke="#8DC63F" stroke-width="3" stroke-miterlimit="10" width="42.6" height="341.1"/>
	<rect x="220.7" y="33.5" fill="#FFFFFF" stroke="#8DC63F" stroke-width="3" stroke-miterlimit="10" width="42.6" height="341.1"/>
	<rect x="178.1" y="33.5" fill="#FFFFFF" stroke="#8DC63F" stroke-width="3" stroke-miterlimit="10" width="42.6" height="341.1"/>
	<rect x="-35.1" y="204.1" fill="#FFFFFF" stroke="#8DC63F" stroke-width="3" stroke-miterlimit="10" width="341.1" height="21.3"/>
	<rect x="-35.1" y="225.4" fill="#FFFFFF" stroke="#8DC63F" stroke-width="3" stroke-miterlimit="10" width="341.1" height="21.3"/>
	<rect x="-35.1" y="246.7" fill="#FFFFFF" stroke="#8DC63F" stroke-width="3" stroke-miterlimit="10" width="341.1" height="21.3"/>
	<rect x="-35.1" y="268.1" fill="#FFFFFF" stroke="#8DC63F" stroke-width="3" stroke-miterlimit="10" width="341.1" height="21.3"/>
	<polygon fill="#FFFFFF" stroke="#8DC63F" stroke-width="3" stroke-miterlimit="10" points="50.1,204.1 306,204.1 306,118.8 	"/>
	<polygon fill="#FFFFFF" stroke="#8DC63F" stroke-width="3" stroke-miterlimit="10" points="28.8,188.1 284.7,188.1 284.7,102.8 	
		"/>
	<polygon fill="#FFFFFF" stroke="#8DC63F" stroke-width="3" stroke-miterlimit="10" points="7.5,172.1 263.4,172.1 263.4,86.8 	"/>
	<polygon fill="#FFFFFF" stroke="#8DC63F" stroke-width="3" stroke-miterlimit="10" points="-13.8,150.8 242,150.8 242,65.5 	"/>
	<polygon fill="#FFFFFF" stroke="#8DC63F" stroke-width="3" stroke-miterlimit="10" points="178.1,268.1 178.1,374.7 28.8,321.4 	
		"/>
	<polygon fill="#FFFFFF" stroke="#8DC63F" stroke-width="3" stroke-miterlimit="10" points="178.1,246.7 178.1,353.4 28.8,300.1 	
		"/>
	<polygon fill="#FFFFFF" stroke="#8DC63F" stroke-width="3" stroke-miterlimit="10" points="178.1,225.4 178.1,332 28.8,278.7 	"/>
	<polygon fill="#FFFFFF" stroke="#8DC63F" stroke-width="3" stroke-miterlimit="10" points="178.1,76.2 178.1,182.8 28.8,129.5 	"/>
	<polygon fill="#FFFFFF" stroke="#8DC63F" stroke-width="3" stroke-miterlimit="10" points="178.1,54.9 178.1,161.5 28.8,108.2 	"/>
	<polygon fill="#FFFFFF" stroke="#8DC63F" stroke-width="3" stroke-miterlimit="10" points="178.1,33.5 178.1,140.1 28.8,86.8 	"/>
	<rect x="306" y="33.5" fill="#FFFFFF" stroke="#8DC63F" stroke-width="3" stroke-miterlimit="10" width="42.6" height="341.1"/>
	<rect x="348.6" y="33.5" fill="#FFFFFF" stroke="#8DC63F" stroke-width="3" stroke-miterlimit="10" width="42.6" height="341.1"/>
	<rect x="391.3" y="33.5" fill="#FFFFFF" stroke="#8DC63F" stroke-width="3" stroke-miterlimit="10" width="42.6" height="341.1"/>
	<rect x="306" y="204.1" fill="#FFFFFF" stroke="#8DC63F" stroke-width="3" stroke-miterlimit="10" width="341.1" height="21.3"/>
	<rect x="306" y="225.4" fill="#FFFFFF" stroke="#8DC63F" stroke-width="3" stroke-miterlimit="10" width="341.1" height="21.3"/>
	<rect x="306" y="246.7" fill="#FFFFFF" stroke="#8DC63F" stroke-width="3" stroke-miterlimit="10" width="341.1" height="21.3"/>
	<rect x="306" y="268.1" fill="#FFFFFF" stroke="#8DC63F" stroke-width="3" stroke-miterlimit="10" width="341.1" height="21.3"/>
	<polygon fill="#FFFFFF" stroke="#8DC63F" stroke-width="3" stroke-miterlimit="10" points="306,118.8 306,204.1 561.9,204.1 	"/>
	<polygon fill="#FFFFFF" stroke="#8DC63F" stroke-width="3" stroke-miterlimit="10" points="327.3,102.8 327.3,188.1 583.2,188.1 	
		"/>
	<polygon fill="#FFFFFF" stroke="#8DC63F" stroke-width="3" stroke-miterlimit="10" points="348.6,86.8 348.6,172.1 604.5,172.1 	
		"/>
	<polygon fill="#FFFFFF" stroke="#8DC63F" stroke-width="3" stroke-miterlimit="10" points="370,65.5 370,150.8 625.8,150.8 	"/>
	<polygon fill="#FFFFFF" stroke="#8DC63F" stroke-width="3" stroke-miterlimit="10" points="583.2,321.4 433.9,374.7 433.9,268.1 	
		"/>
	<polygon fill="#FFFFFF" stroke="#8DC63F" stroke-width="3" stroke-miterlimit="10" points="583.2,300.1 433.9,353.4 433.9,246.7 	
		"/>
	<polygon fill="#FFFFFF" stroke="#8DC63F" stroke-width="3" stroke-miterlimit="10" points="583.2,278.7 433.9,332 433.9,225.4 	"/>
	<polygon fill="#FFFFFF" stroke="#8DC63F" stroke-width="3" stroke-miterlimit="10" points="583.2,129.5 433.9,182.8 433.9,76.2 	
		"/>
	<polygon fill="#FFFFFF" stroke="#8DC63F" stroke-width="3" stroke-miterlimit="10" points="583.2,108.2 433.9,161.5 433.9,54.9 	
		"/>
	<polygon fill="#FFFFFF" stroke="#8DC63F" stroke-width="3" stroke-miterlimit="10" points="583.2,86.8 433.9,140.1 433.9,33.5 	"/>
</g>
</svg>
