<?xml version="1.0" encoding="utf-8"?>
<!-- Generator: Adobe Illustrator 17.1.0, SVG Export Plug-In . SVG Version: 6.00 Build 0)  -->
<!DOCTYPE svg PUBLIC "-//W3C//DTD SVG 1.1//EN" "http://www.w3.org/Graphics/SVG/1.1/DTD/svg11.dtd">
<svg version="1.1" id="Layer_1" xmlns="http://www.w3.org/2000/svg" xmlns:xlink="http://www.w3.org/1999/xlink" x="0px" y="0px"
	 viewBox="0 0 1000 1000" enable-background="new 0 0 1000 1000" xml:space="preserve">
<rect x="432.3" y="359.1" fill="#FFFFFF" stroke="#16B34C" stroke-miterlimit="10" width="7.5" height="134.5"/>
<rect x="709.5" y="484.3" fill="#FFFFFF" stroke="#16B34C" stroke-miterlimit="10" width="62.3" height="6.9"/>
<rect x="709.5" y="470.5" fill="#FFFFFF" stroke="#16B34C" stroke-miterlimit="10" width="45" height="6.9"/>
<rect x="417.4" y="359.1" fill="#FFFFFF" stroke="#16B34C" stroke-miterlimit="10" width="7.5" height="164.3"/>
<polygon fill="#FFFFFF" stroke="#16B34C" stroke-miterlimit="10" points="709.5,467 751,467 747.6,470.5 709.5,470.5 "/>
<polygon fill="#FFFFFF" stroke="#16B34C" stroke-miterlimit="10" points="751,467 778.7,467 775.3,470.5 747.6,470.5 "/>
<polygon fill="#FFFFFF" stroke="#16B34C" stroke-miterlimit="10" points="754.5,470.5 771.8,470.5 764.9,477.4 754.5,477.4 "/>
<rect x="709.5" y="477.4" fill="#FFFFFF" stroke="#16B34C" stroke-miterlimit="10" width="41.5" height="3.5"/>
<rect x="709.5" y="480.9" fill="#FFFFFF" stroke="#16B34C" stroke-miterlimit="10" width="55.3" height="3.5"/>
<polygon fill="#FFFFFF" stroke="#16B34C" stroke-miterlimit="10" points="357.6,441.3 357.6,471.2 409.9,418.9 409.9,403.9 
	365.1,448.8 365.1,433.8 "/>
<polygon fill="#FFFFFF" stroke="#16B34C" stroke-miterlimit="10" points="409.9,381.5 409.9,448.8 387.5,471.2 387.5,486.1 
	417.4,456.2 417.4,381.5 "/>
<polygon fill="#FFFFFF" stroke="#16B34C" stroke-miterlimit="10" points="402.4,426.3 402.4,448.8 365.1,486.1 365.1,493.6 
	409.9,448.8 409.9,418.9 "/>
<polygon fill="#FFFFFF" stroke="#16B34C" stroke-miterlimit="10" points="402.4,426.3 402.4,441.3 350.1,493.6 350.1,478.6 "/>
<polygon fill="#FFFFFF" stroke="#16B34C" stroke-miterlimit="10" points="357.6,486.1 365.1,478.6 365.1,545.9 357.6,545.9 "/>
<polygon fill="#FFFFFF" stroke="#16B34C" stroke-miterlimit="10" points="372.6,486.1 372.6,560.8 365.1,560.8 365.1,493.6 "/>
<polygon fill="#FFFFFF" stroke="#16B34C" stroke-miterlimit="10" points="387.5,471.2 372.6,486.1 372.6,560.8 387.5,560.8 "/>
<polygon fill="#FFFFFF" stroke="#16B34C" stroke-miterlimit="10" points="387.5,486.1 387.5,516 417.4,486.1 417.4,456.2 "/>
<polygon fill="#FFFFFF" stroke="#16B34C" stroke-miterlimit="10" points="387.5,516 387.5,538.4 417.4,508.5 417.4,486.1 "/>
<polygon fill="#FFFFFF" stroke="#16B34C" stroke-miterlimit="10" points="395,530.9 395,583.2 387.5,583.2 387.5,538.4 "/>
<polygon fill="#FFFFFF" stroke="#16B34C" stroke-miterlimit="10" points="417.4,508.5 417.4,553.3 395,575.8 395,530.9 "/>
<rect x="424.9" y="359.1" fill="#FFFFFF" stroke="#16B34C" stroke-miterlimit="10" width="7.5" height="164.3"/>
<polygon fill="#FFFFFF" stroke="#16B34C" stroke-miterlimit="10" points="761.4,491.2 751,501.6 706.1,501.6 706.1,491.2 "/>
<rect x="706.1" y="501.6" fill="#FFFFFF" stroke="#16B34C" stroke-miterlimit="10" width="58.8" height="3.5"/>
<polygon fill="#FFFFFF" stroke="#16B34C" stroke-miterlimit="10" points="740.7,505.1 737.2,508.5 699.2,508.5 699.2,505.1 "/>
<polygon fill="#FFFFFF" stroke="#16B34C" stroke-miterlimit="10" points="744.1,508.5 740.7,512 699.2,512 699.2,508.5 "/>
<rect x="699.2" y="512" fill="#FFFFFF" stroke="#16B34C" stroke-miterlimit="10" width="38" height="31.1"/>
<polygon fill="#FFFFFF" stroke="#16B34C" stroke-miterlimit="10" points="733.8,543.1 726.8,550 692.3,550 685.3,543.1 "/>
<polygon fill="#FFFFFF" stroke="#16B34C" stroke-miterlimit="10" points="387.5,605.6 342.7,605.6 335.2,598.2 417.4,598.2 
	417.4,605.6 "/>
<rect x="245.6" y="217.9" fill="#FFFFFF" stroke="#16B34C" stroke-miterlimit="10" width="149.4" height="29.9"/>
<rect x="297.9" y="247.8" fill="#FFFFFF" stroke="#16B34C" stroke-miterlimit="10" width="37.4" height="82.2"/>
<rect x="170.9" y="247.8" fill="#FFFFFF" stroke="#16B34C" stroke-miterlimit="10" width="104.6" height="22.4"/>
<rect x="372.6" y="247.8" fill="#FFFFFF" stroke="#16B34C" stroke-miterlimit="10" width="7.5" height="82.2"/>
<rect x="335.2" y="247.8" fill="#FFFFFF" stroke="#16B34C" stroke-miterlimit="10" width="37.4" height="29.9"/>
<rect x="335.2" y="277.6" fill="#FFFFFF" stroke="#16B34C" stroke-miterlimit="10" width="14.9" height="52.3"/>
<polygon fill="#FFFFFF" stroke="#16B34C" stroke-miterlimit="10" points="350.1,277.6 350.1,329.9 357.6,329.9 357.6,285.1 "/>
<rect x="350.1" y="247.8" fill="#FFFFFF" stroke="#16B34C" stroke-miterlimit="10" width="7.5" height="29.9"/>
<polygon fill="#FFFFFF" stroke="#16B34C" stroke-miterlimit="10" points="350.1,277.6 372.6,300.1 372.6,277.6 "/>
<polygon fill="#FFFFFF" stroke="#16B34C" stroke-miterlimit="10" points="357.6,285.1 357.6,329.9 372.6,329.9 372.6,300.1 "/>
<rect x="297.9" y="277.6" fill="#FFFFFF" stroke="#16B34C" stroke-miterlimit="10" width="37.4" height="14.9"/>
<rect x="320.3" y="247.8" fill="#FFFFFF" stroke="#16B34C" stroke-miterlimit="10" width="14.9" height="29.9"/>
<rect x="312.8" y="247.8" fill="#FFFFFF" stroke="#16B34C" stroke-miterlimit="10" width="7.5" height="29.9"/>
<rect x="305.3" y="247.8" fill="#FFFFFF" stroke="#16B34C" stroke-miterlimit="10" width="7.5" height="29.9"/>
<rect x="357.6" y="247.8" fill="#FFFFFF" stroke="#16B34C" stroke-miterlimit="10" width="7.5" height="29.9"/>
<polygon fill="#FFFFFF" stroke="#16B34C" stroke-miterlimit="10" points="380,277.6 395,277.6 417.4,300.1 380,300.1 "/>
<rect x="380" y="247.8" fill="#FFFFFF" stroke="#16B34C" stroke-miterlimit="10" width="14.9" height="29.9"/>
<rect x="380" y="300.1" fill="#FFFFFF" stroke="#16B34C" stroke-miterlimit="10" width="14.9" height="29.9"/>
<polygon fill="#FFFFFF" stroke="#16B34C" stroke-miterlimit="10" points="395,277.6 395,217.9 417.4,240.3 417.4,300.1 "/>
<polygon fill="#FFFFFF" stroke="#16B34C" stroke-miterlimit="10" points="395,300.1 432.3,300.1 402.4,329.9 395,329.9 "/>
<polygon fill="#FFFFFF" stroke="#16B34C" stroke-miterlimit="10" points="417.4,300.1 417.4,315 432.3,300.1 "/>
<polygon fill="#FFFFFF" stroke="#16B34C" stroke-miterlimit="10" points="417.4,300.1 417.4,240.3 432.3,225.4 432.3,300.1 "/>
<polygon fill="#FFFFFF" stroke="#16B34C" stroke-miterlimit="10" points="432.3,300.1 439.8,300.1 439.8,217.9 432.3,225.4 "/>
<polygon fill="#FFFFFF" stroke="#16B34C" stroke-miterlimit="10" points="402.4,329.9 439.8,329.9 469.7,300.1 432.3,300.1 "/>
<rect x="439.8" y="247.8" fill="#FFFFFF" stroke="#16B34C" stroke-miterlimit="10" width="29.9" height="52.3"/>
<rect x="462.2" y="247.8" fill="#FFFFFF" stroke="#16B34C" stroke-miterlimit="10" width="7.5" height="52.3"/>
<rect x="439.8" y="232.8" fill="#FFFFFF" stroke="#16B34C" stroke-miterlimit="10" width="22.4" height="14.9"/>
<polygon fill="#FFFFFF" stroke="#16B34C" stroke-miterlimit="10" points="462.2,232.8 462.2,210.4 469.7,217.9 469.7,247.8 
	462.2,247.8 "/>
<polygon fill="#FFFFFF" stroke="#16B34C" stroke-miterlimit="10" points="462.2,210.4 462.2,195.5 439.8,217.9 439.8,232.8 
	462.2,232.8 "/>
<rect x="245.6" y="217.9" fill="#FFFFFF" stroke="#16B34C" stroke-miterlimit="10" width="134.5" height="14.9"/>
<rect x="380" y="217.9" fill="#FFFFFF" stroke="#16B34C" stroke-miterlimit="10" width="14.9" height="29.9"/>
<rect x="245.6" y="232.8" fill="#FFFFFF" stroke="#16B34C" stroke-miterlimit="10" width="104.6" height="7.5"/>
<rect x="245.6" y="240.3" fill="#FFFFFF" stroke="#16B34C" stroke-miterlimit="10" width="134.5" height="7.5"/>
<rect x="350.1" y="232.8" fill="#FFFFFF" stroke="#16B34C" stroke-miterlimit="10" width="29.9" height="7.5"/>
<polygon fill="#FFFFFF" stroke="#16B34C" stroke-miterlimit="10" points="395,217.9 395,188 417.4,210.4 417.4,240.3 "/>
<polygon fill="#FFFFFF" stroke="#16B34C" stroke-miterlimit="10" points="417.4,210.4 447.3,180.5 447.3,210.4 417.4,240.3 "/>
<polygon fill="#FFFFFF" stroke="#16B34C" stroke-miterlimit="10" points="447.3,180.5 447.3,150.6 454.7,158.1 454.7,202.9 
	447.3,210.4 "/>
<polygon fill="#FFFFFF" stroke="#16B34C" stroke-miterlimit="10" points="245.6,270.2 200.7,315 200.7,344.9 260.5,285.1 
	260.5,270.2 "/>
<polygon fill="#FFFFFF" stroke="#16B34C" stroke-miterlimit="10" points="223.2,322.5 223.2,337.4 268,292.6 268,270.2 260.5,270.2 
	260.5,285.1 "/>
<polygon fill="#FFFFFF" stroke="#16B34C" stroke-miterlimit="10" points="208.2,337.4 208.2,367.3 215.7,359.8 215.7,329.9 "/>
<polygon fill="#FFFFFF" stroke="#16B34C" stroke-miterlimit="10" points="230.6,270.2 170.9,329.9 170.9,352.3 200.7,322.5 
	200.7,315 245.6,270.2 "/>
<polygon fill="#FFFFFF" stroke="#16B34C" stroke-miterlimit="10" points="193.3,270.2 193.3,307.5 230.6,270.2 "/>
<polygon fill="#FFFFFF" stroke="#16B34C" stroke-miterlimit="10" points="178.3,270.2 178.3,322.5 193.3,307.5 193.3,270.2 "/>
<polygon fill="#FFFFFF" stroke="#16B34C" stroke-miterlimit="10" points="193.3,329.9 193.3,434.5 200.7,434.5 200.7,322.5 "/>
<polygon fill="#FFFFFF" stroke="#16B34C" stroke-miterlimit="10" points="200.7,344.9 200.7,464.4 208.2,464.4 208.2,337.4 "/>
<polygon fill="#FFFFFF" stroke="#16B34C" stroke-miterlimit="10" points="170.9,352.3 170.9,442 193.3,442 193.3,329.9 "/>
<polygon fill="#FFFFFF" stroke="#16B34C" stroke-miterlimit="10" points="215.7,374.8 215.7,449.5 208.2,449.5 208.2,382.2 "/>
<polygon fill="#FFFFFF" stroke="#16B34C" stroke-miterlimit="10" points="178.3,442 193.3,456.9 200.7,456.9 200.7,442 "/>
<rect x="193.3" y="434.5" fill="#FFFFFF" stroke="#16B34C" stroke-miterlimit="10" width="7.5" height="7.5"/>
<rect x="605" y="217.9" fill="#FFFFFF" stroke="#16B34C" stroke-miterlimit="10" width="149.4" height="29.9"/>
<rect x="664.8" y="247.8" fill="#FFFFFF" stroke="#16B34C" stroke-miterlimit="10" width="37.4" height="82.2"/>
<rect x="724.6" y="247.8" fill="#FFFFFF" stroke="#16B34C" stroke-miterlimit="10" width="104.6" height="22.4"/>
<rect x="620" y="247.8" fill="#FFFFFF" stroke="#16B34C" stroke-miterlimit="10" width="7.5" height="82.2"/>
<rect x="627.4" y="247.8" fill="#FFFFFF" stroke="#16B34C" stroke-miterlimit="10" width="37.4" height="29.9"/>
<rect x="649.9" y="277.6" fill="#FFFFFF" stroke="#16B34C" stroke-miterlimit="10" width="14.9" height="52.3"/>
<polygon fill="#FFFFFF" stroke="#16B34C" stroke-miterlimit="10" points="649.9,277.6 649.9,329.9 642.4,329.9 642.4,285.1 "/>
<rect x="642.4" y="247.8" fill="#FFFFFF" stroke="#16B34C" stroke-miterlimit="10" width="7.5" height="29.9"/>
<polygon fill="#FFFFFF" stroke="#16B34C" stroke-miterlimit="10" points="649.9,277.6 627.4,300.1 627.4,277.6 "/>
<polygon fill="#FFFFFF" stroke="#16B34C" stroke-miterlimit="10" points="642.4,285.1 642.4,329.9 627.4,329.9 627.4,300.1 "/>
<rect x="664.8" y="277.6" fill="#FFFFFF" stroke="#16B34C" stroke-miterlimit="10" width="37.4" height="14.9"/>
<rect x="664.8" y="247.8" fill="#FFFFFF" stroke="#16B34C" stroke-miterlimit="10" width="14.9" height="29.9"/>
<rect x="679.7" y="247.8" fill="#FFFFFF" stroke="#16B34C" stroke-miterlimit="10" width="7.5" height="29.9"/>
<rect x="687.2" y="247.8" fill="#FFFFFF" stroke="#16B34C" stroke-miterlimit="10" width="7.5" height="29.9"/>
<rect x="634.9" y="247.8" fill="#FFFFFF" stroke="#16B34C" stroke-miterlimit="10" width="7.5" height="29.9"/>
<polygon fill="#FFFFFF" stroke="#16B34C" stroke-miterlimit="10" points="620,277.6 605,277.6 582.6,300.1 620,300.1 "/>
<rect x="605" y="247.8" fill="#FFFFFF" stroke="#16B34C" stroke-miterlimit="10" width="14.9" height="29.9"/>
<rect x="605" y="300.1" fill="#FFFFFF" stroke="#16B34C" stroke-miterlimit="10" width="14.9" height="29.9"/>
<polygon fill="#FFFFFF" stroke="#16B34C" stroke-miterlimit="10" points="605,277.6 605,217.9 582.6,240.3 582.6,300.1 "/>
<polygon fill="#FFFFFF" stroke="#16B34C" stroke-miterlimit="10" points="605,300.1 567.7,300.1 597.6,329.9 605,329.9 "/>
<polygon fill="#FFFFFF" stroke="#16B34C" stroke-miterlimit="10" points="582.6,300.1 582.6,315 567.7,300.1 "/>
<polygon fill="#FFFFFF" stroke="#16B34C" stroke-miterlimit="10" points="582.6,300.1 582.6,240.3 567.7,225.4 567.7,300.1 "/>
<polygon fill="#FFFFFF" stroke="#16B34C" stroke-miterlimit="10" points="567.7,300.1 560.2,300.1 560.2,217.9 567.7,225.4 "/>
<polygon fill="#FFFFFF" stroke="#16B34C" stroke-miterlimit="10" points="597.6,329.9 560.2,329.9 530.3,300.1 567.7,300.1 "/>
<rect x="530.3" y="247.8" fill="#FFFFFF" stroke="#16B34C" stroke-miterlimit="10" width="29.9" height="52.3"/>
<rect x="530.3" y="247.8" fill="#FFFFFF" stroke="#16B34C" stroke-miterlimit="10" width="7.5" height="52.3"/>
<rect x="537.8" y="232.8" fill="#FFFFFF" stroke="#16B34C" stroke-miterlimit="10" width="22.4" height="14.9"/>
<polygon fill="#FFFFFF" stroke="#16B34C" stroke-miterlimit="10" points="537.8,232.8 537.8,210.4 530.3,217.9 530.3,247.8 
	537.8,247.8 "/>
<polygon fill="#FFFFFF" stroke="#16B34C" stroke-miterlimit="10" points="537.8,210.4 537.8,195.5 560.2,217.9 560.2,232.8 
	537.8,232.8 "/>
<rect x="620" y="217.9" fill="#FFFFFF" stroke="#16B34C" stroke-miterlimit="10" width="134.5" height="14.9"/>
<rect x="605" y="217.9" fill="#FFFFFF" stroke="#16B34C" stroke-miterlimit="10" width="14.9" height="29.9"/>
<rect x="649.9" y="232.8" fill="#FFFFFF" stroke="#16B34C" stroke-miterlimit="10" width="104.6" height="7.5"/>
<rect x="620" y="240.3" fill="#FFFFFF" stroke="#16B34C" stroke-miterlimit="10" width="134.5" height="7.5"/>
<rect x="620" y="232.8" fill="#FFFFFF" stroke="#16B34C" stroke-miterlimit="10" width="29.9" height="7.5"/>
<polygon fill="#FFFFFF" stroke="#16B34C" stroke-miterlimit="10" points="605,217.9 605,188 582.6,210.4 582.6,240.3 "/>
<polygon fill="#FFFFFF" stroke="#16B34C" stroke-miterlimit="10" points="582.6,210.4 552.7,180.5 552.7,210.4 582.6,240.3 "/>
<polygon fill="#FFFFFF" stroke="#16B34C" stroke-miterlimit="10" points="552.7,180.5 552.7,150.6 545.3,158.1 545.3,202.9 
	552.7,210.4 "/>
<polygon fill="#FFFFFF" stroke="#16B34C" stroke-miterlimit="10" points="515.4,193.6 515.4,163.7 507.9,171.2 507.9,828.8 
	515.4,836.3 "/>
<polygon fill="#FFFFFF" stroke="#16B34C" stroke-miterlimit="10" points="484.6,193.6 484.6,163.7 492.1,171.2 492.1,828.8 
	484.6,836.3 "/>
<polygon fill="#FFFFFF" stroke="#16B34C" stroke-miterlimit="10" points="754.4,270.2 799.3,315 799.3,344.9 739.5,285.1 
	739.5,270.2 "/>
<polygon fill="#FFFFFF" stroke="#16B34C" stroke-miterlimit="10" points="776.8,322.5 776.8,337.4 732,292.6 732,270.2 739.5,270.2 
	739.5,285.1 "/>
<polygon fill="#FFFFFF" stroke="#16B34C" stroke-miterlimit="10" points="791.8,337.4 791.8,367.3 784.3,359.8 784.3,329.9 "/>
<polygon fill="#FFFFFF" stroke="#16B34C" stroke-miterlimit="10" points="769.4,270.2 829.1,329.9 829.1,352.3 799.3,322.5 
	799.3,315 754.4,270.2 "/>
<polygon fill="#FFFFFF" stroke="#16B34C" stroke-miterlimit="10" points="806.7,270.2 806.7,307.5 769.4,270.2 "/>
<polygon fill="#FFFFFF" stroke="#16B34C" stroke-miterlimit="10" points="821.7,270.2 821.7,322.5 806.7,307.5 806.7,270.2 "/>
<polygon fill="#FFFFFF" stroke="#16B34C" stroke-miterlimit="10" points="806.7,329.9 806.7,434.5 799.3,434.5 799.3,322.5 "/>
<polygon fill="#FFFFFF" stroke="#16B34C" stroke-miterlimit="10" points="799.3,344.9 799.3,464.4 791.8,464.4 791.8,337.4 "/>
<polygon fill="#FFFFFF" stroke="#16B34C" stroke-miterlimit="10" points="829.1,352.3 829.1,442 806.7,442 806.7,329.9 "/>
<polygon fill="#FFFFFF" stroke="#16B34C" stroke-miterlimit="10" points="784.3,374.8 784.3,449.5 791.8,449.5 791.8,382.2 "/>
<polygon fill="#FFFFFF" stroke="#16B34C" stroke-miterlimit="10" points="821.7,442 806.7,456.9 799.3,456.9 799.3,442 "/>
<rect x="799.3" y="434.5" fill="#FFFFFF" stroke="#16B34C" stroke-miterlimit="10" width="7.5" height="7.5"/>
<rect x="605" y="752.2" fill="#FFFFFF" stroke="#16B34C" stroke-miterlimit="10" width="149.4" height="29.9"/>
<rect x="664.8" y="670.1" fill="#FFFFFF" stroke="#16B34C" stroke-miterlimit="10" width="37.4" height="82.2"/>
<rect x="724.6" y="729.8" fill="#FFFFFF" stroke="#16B34C" stroke-miterlimit="10" width="104.6" height="22.4"/>
<rect x="620" y="670.1" fill="#FFFFFF" stroke="#16B34C" stroke-miterlimit="10" width="7.5" height="82.2"/>
<rect x="627.4" y="722.4" fill="#FFFFFF" stroke="#16B34C" stroke-miterlimit="10" width="37.4" height="29.9"/>
<rect x="649.9" y="670.1" fill="#FFFFFF" stroke="#16B34C" stroke-miterlimit="10" width="14.9" height="52.3"/>
<polygon fill="#FFFFFF" stroke="#16B34C" stroke-miterlimit="10" points="649.9,722.4 649.9,670.1 642.4,670.1 642.4,714.9 "/>
<rect x="642.4" y="722.4" fill="#FFFFFF" stroke="#16B34C" stroke-miterlimit="10" width="7.5" height="29.9"/>
<polygon fill="#FFFFFF" stroke="#16B34C" stroke-miterlimit="10" points="649.9,722.4 627.4,699.9 627.4,722.4 "/>
<polygon fill="#FFFFFF" stroke="#16B34C" stroke-miterlimit="10" points="642.4,714.9 642.4,670.1 627.4,670.1 627.4,699.9 "/>
<rect x="664.8" y="707.4" fill="#FFFFFF" stroke="#16B34C" stroke-miterlimit="10" width="37.4" height="14.9"/>
<rect x="664.8" y="722.4" fill="#FFFFFF" stroke="#16B34C" stroke-miterlimit="10" width="14.9" height="29.9"/>
<rect x="679.7" y="722.4" fill="#FFFFFF" stroke="#16B34C" stroke-miterlimit="10" width="7.5" height="29.9"/>
<rect x="687.2" y="722.4" fill="#FFFFFF" stroke="#16B34C" stroke-miterlimit="10" width="7.5" height="29.9"/>
<rect x="634.9" y="722.4" fill="#FFFFFF" stroke="#16B34C" stroke-miterlimit="10" width="7.5" height="29.9"/>
<polygon fill="#FFFFFF" stroke="#16B34C" stroke-miterlimit="10" points="620,722.4 605,722.4 582.6,699.9 620,699.9 "/>
<rect x="605" y="722.4" fill="#FFFFFF" stroke="#16B34C" stroke-miterlimit="10" width="14.9" height="29.9"/>
<rect x="605" y="670.1" fill="#FFFFFF" stroke="#16B34C" stroke-miterlimit="10" width="14.9" height="29.9"/>
<polygon fill="#FFFFFF" stroke="#16B34C" stroke-miterlimit="10" points="605,722.4 605,782.1 582.6,759.7 582.6,699.9 "/>
<polygon fill="#FFFFFF" stroke="#16B34C" stroke-miterlimit="10" points="605,699.9 567.7,699.9 597.6,670.1 605,670.1 "/>
<polygon fill="#FFFFFF" stroke="#16B34C" stroke-miterlimit="10" points="582.6,699.9 582.6,685 567.7,699.9 "/>
<polygon fill="#FFFFFF" stroke="#16B34C" stroke-miterlimit="10" points="582.6,699.9 582.6,759.7 567.7,774.6 567.7,699.9 "/>
<polygon fill="#FFFFFF" stroke="#16B34C" stroke-miterlimit="10" points="567.7,699.9 560.2,699.9 560.2,782.1 567.7,774.6 "/>
<polygon fill="#FFFFFF" stroke="#16B34C" stroke-miterlimit="10" points="597.6,670.1 560.2,670.1 530.3,699.9 567.7,699.9 "/>
<rect x="530.3" y="699.9" fill="#FFFFFF" stroke="#16B34C" stroke-miterlimit="10" width="29.9" height="52.3"/>
<rect x="530.3" y="699.9" fill="#FFFFFF" stroke="#16B34C" stroke-miterlimit="10" width="7.5" height="52.3"/>
<rect x="537.8" y="752.2" fill="#FFFFFF" stroke="#16B34C" stroke-miterlimit="10" width="22.4" height="14.9"/>
<polygon fill="#FFFFFF" stroke="#16B34C" stroke-miterlimit="10" points="537.8,767.2 537.8,789.6 530.3,782.1 530.3,752.2 
	537.8,752.2 "/>
<polygon fill="#FFFFFF" stroke="#16B34C" stroke-miterlimit="10" points="537.8,789.6 537.8,804.5 560.2,782.1 560.2,767.2 
	537.8,767.2 "/>
<rect x="620" y="767.2" fill="#FFFFFF" stroke="#16B34C" stroke-miterlimit="10" width="134.5" height="14.9"/>
<rect x="605" y="752.2" fill="#FFFFFF" stroke="#16B34C" stroke-miterlimit="10" width="14.9" height="29.9"/>
<rect x="649.9" y="759.7" fill="#FFFFFF" stroke="#16B34C" stroke-miterlimit="10" width="104.6" height="7.5"/>
<rect x="620" y="752.2" fill="#FFFFFF" stroke="#16B34C" stroke-miterlimit="10" width="134.5" height="7.5"/>
<rect x="620" y="759.7" fill="#FFFFFF" stroke="#16B34C" stroke-miterlimit="10" width="29.9" height="7.5"/>
<polygon fill="#FFFFFF" stroke="#16B34C" stroke-miterlimit="10" points="605,782.1 605,812 582.6,789.6 582.6,759.7 "/>
<polygon fill="#FFFFFF" stroke="#16B34C" stroke-miterlimit="10" points="582.6,789.6 552.7,819.5 552.7,789.6 582.6,759.7 "/>
<polygon fill="#FFFFFF" stroke="#16B34C" stroke-miterlimit="10" points="552.7,819.5 552.7,849.4 545.3,841.9 545.3,797.1 
	552.7,789.6 "/>
<polygon fill="#FFFFFF" stroke="#16B34C" stroke-miterlimit="10" points="754.4,729.8 799.3,685 799.3,655.1 739.5,714.9 
	739.5,729.8 "/>
<polygon fill="#FFFFFF" stroke="#16B34C" stroke-miterlimit="10" points="776.8,677.5 776.8,662.6 732,707.4 732,729.8 739.5,729.8 
	739.5,714.9 "/>
<polygon fill="#FFFFFF" stroke="#16B34C" stroke-miterlimit="10" points="791.8,662.6 791.8,632.7 784.3,640.2 784.3,670.1 "/>
<polygon fill="#FFFFFF" stroke="#16B34C" stroke-miterlimit="10" points="769.4,729.8 829.1,670.1 829.1,647.7 799.3,677.5 
	799.3,685 754.4,729.8 "/>
<polygon fill="#FFFFFF" stroke="#16B34C" stroke-miterlimit="10" points="806.7,729.8 806.7,692.5 769.4,729.8 "/>
<polygon fill="#FFFFFF" stroke="#16B34C" stroke-miterlimit="10" points="821.7,729.8 821.7,677.5 806.7,692.5 806.7,729.8 "/>
<polygon fill="#FFFFFF" stroke="#16B34C" stroke-miterlimit="10" points="806.7,670.1 806.7,565.5 799.3,565.5 799.3,677.5 "/>
<polygon fill="#FFFFFF" stroke="#16B34C" stroke-miterlimit="10" points="799.3,655.1 799.3,535.6 791.8,535.6 791.8,662.6 "/>
<polygon fill="#FFFFFF" stroke="#16B34C" stroke-miterlimit="10" points="829.1,647.7 829.1,558 806.7,558 806.7,670.1 "/>
<polygon fill="#FFFFFF" stroke="#16B34C" stroke-miterlimit="10" points="784.3,625.2 784.3,550.5 791.8,550.5 791.8,617.8 "/>
<polygon fill="#FFFFFF" stroke="#16B34C" stroke-miterlimit="10" points="821.7,558 806.7,543.1 799.3,543.1 799.3,558 "/>
<rect x="799.3" y="558" fill="#FFFFFF" stroke="#16B34C" stroke-miterlimit="10" width="7.5" height="7.5"/>
<rect x="245.6" y="752.2" fill="#FFFFFF" stroke="#16B34C" stroke-miterlimit="10" width="149.4" height="29.9"/>
<rect x="297.9" y="670.1" fill="#FFFFFF" stroke="#16B34C" stroke-miterlimit="10" width="37.4" height="82.2"/>
<rect x="170.9" y="729.8" fill="#FFFFFF" stroke="#16B34C" stroke-miterlimit="10" width="104.6" height="22.4"/>
<rect x="372.6" y="670.1" fill="#FFFFFF" stroke="#16B34C" stroke-miterlimit="10" width="7.5" height="82.2"/>
<rect x="335.2" y="722.4" fill="#FFFFFF" stroke="#16B34C" stroke-miterlimit="10" width="37.4" height="29.9"/>
<rect x="335.2" y="670.1" fill="#FFFFFF" stroke="#16B34C" stroke-miterlimit="10" width="14.9" height="52.3"/>
<polygon fill="#FFFFFF" stroke="#16B34C" stroke-miterlimit="10" points="350.1,722.4 350.1,670.1 357.6,670.1 357.6,714.9 "/>
<rect x="350.1" y="722.4" fill="#FFFFFF" stroke="#16B34C" stroke-miterlimit="10" width="7.5" height="29.9"/>
<polygon fill="#FFFFFF" stroke="#16B34C" stroke-miterlimit="10" points="350.1,722.4 372.6,699.9 372.6,722.4 "/>
<polygon fill="#FFFFFF" stroke="#16B34C" stroke-miterlimit="10" points="357.6,714.9 357.6,670.1 372.6,670.1 372.6,699.9 "/>
<rect x="297.9" y="707.4" fill="#FFFFFF" stroke="#16B34C" stroke-miterlimit="10" width="37.4" height="14.9"/>
<rect x="320.3" y="722.4" fill="#FFFFFF" stroke="#16B34C" stroke-miterlimit="10" width="14.9" height="29.9"/>
<rect x="312.8" y="722.4" fill="#FFFFFF" stroke="#16B34C" stroke-miterlimit="10" width="7.5" height="29.9"/>
<rect x="305.3" y="722.4" fill="#FFFFFF" stroke="#16B34C" stroke-miterlimit="10" width="7.5" height="29.9"/>
<rect x="357.6" y="722.4" fill="#FFFFFF" stroke="#16B34C" stroke-miterlimit="10" width="7.5" height="29.9"/>
<polygon fill="#FFFFFF" stroke="#16B34C" stroke-miterlimit="10" points="380,722.4 395,722.4 417.4,699.9 380,699.9 "/>
<rect x="380" y="722.4" fill="#FFFFFF" stroke="#16B34C" stroke-miterlimit="10" width="14.9" height="29.9"/>
<rect x="380" y="670.1" fill="#FFFFFF" stroke="#16B34C" stroke-miterlimit="10" width="14.9" height="29.9"/>
<polygon fill="#FFFFFF" stroke="#16B34C" stroke-miterlimit="10" points="395,722.4 395,782.1 417.4,759.7 417.4,699.9 "/>
<polygon fill="#FFFFFF" stroke="#16B34C" stroke-miterlimit="10" points="395,699.9 432.3,699.9 402.4,670.1 395,670.1 "/>
<polygon fill="#FFFFFF" stroke="#16B34C" stroke-miterlimit="10" points="417.4,699.9 417.4,685 432.3,699.9 "/>
<polygon fill="#FFFFFF" stroke="#16B34C" stroke-miterlimit="10" points="417.4,699.9 417.4,759.7 432.3,774.6 432.3,699.9 "/>
<polygon fill="#FFFFFF" stroke="#16B34C" stroke-miterlimit="10" points="432.3,699.9 439.8,699.9 439.8,782.1 432.3,774.6 "/>
<polygon fill="#FFFFFF" stroke="#16B34C" stroke-miterlimit="10" points="402.4,670.1 439.8,670.1 469.7,699.9 432.3,699.9 "/>
<rect x="439.8" y="699.9" fill="#FFFFFF" stroke="#16B34C" stroke-miterlimit="10" width="29.9" height="52.3"/>
<rect x="462.2" y="699.9" fill="#FFFFFF" stroke="#16B34C" stroke-miterlimit="10" width="7.5" height="52.3"/>
<rect x="439.8" y="752.2" fill="#FFFFFF" stroke="#16B34C" stroke-miterlimit="10" width="22.4" height="14.9"/>
<polygon fill="#FFFFFF" stroke="#16B34C" stroke-miterlimit="10" points="462.2,767.2 462.2,789.6 469.7,782.1 469.7,752.2 
	462.2,752.2 "/>
<polygon fill="#FFFFFF" stroke="#16B34C" stroke-miterlimit="10" points="462.2,789.6 462.2,804.5 439.8,782.1 439.8,767.2 
	462.2,767.2 "/>
<rect x="245.6" y="767.2" fill="#FFFFFF" stroke="#16B34C" stroke-miterlimit="10" width="134.5" height="14.9"/>
<rect x="380" y="752.2" fill="#FFFFFF" stroke="#16B34C" stroke-miterlimit="10" width="14.9" height="29.9"/>
<rect x="245.6" y="759.7" fill="#FFFFFF" stroke="#16B34C" stroke-miterlimit="10" width="104.6" height="7.5"/>
<rect x="245.6" y="752.2" fill="#FFFFFF" stroke="#16B34C" stroke-miterlimit="10" width="134.5" height="7.5"/>
<rect x="350.1" y="759.7" fill="#FFFFFF" stroke="#16B34C" stroke-miterlimit="10" width="29.9" height="7.5"/>
<polygon fill="#FFFFFF" stroke="#16B34C" stroke-miterlimit="10" points="395,782.1 395,812 417.4,789.6 417.4,759.7 "/>
<polygon fill="#FFFFFF" stroke="#16B34C" stroke-miterlimit="10" points="417.4,789.6 447.3,819.5 447.3,789.6 417.4,759.7 "/>
<polygon fill="#FFFFFF" stroke="#16B34C" stroke-miterlimit="10" points="447.3,819.5 447.3,849.4 454.7,841.9 454.7,797.1 
	447.3,789.6 "/>
<polygon fill="#FFFFFF" stroke="#16B34C" stroke-miterlimit="10" points="245.6,729.8 200.7,685 200.7,655.1 260.5,714.9 
	260.5,729.8 "/>
<polygon fill="#FFFFFF" stroke="#16B34C" stroke-miterlimit="10" points="223.2,677.5 223.2,662.6 268,707.4 268,729.8 260.5,729.8 
	260.5,714.9 "/>
<polygon fill="#FFFFFF" stroke="#16B34C" stroke-miterlimit="10" points="208.2,662.6 208.2,632.7 215.7,640.2 215.7,670.1 "/>
<polygon fill="#FFFFFF" stroke="#16B34C" stroke-miterlimit="10" points="230.6,729.8 170.9,670.1 170.9,647.7 200.7,677.5 
	200.7,685 245.6,729.8 "/>
<polygon fill="#FFFFFF" stroke="#16B34C" stroke-miterlimit="10" points="193.3,729.8 193.3,692.5 230.6,729.8 "/>
<polygon fill="#FFFFFF" stroke="#16B34C" stroke-miterlimit="10" points="178.3,729.8 178.3,677.5 193.3,692.5 193.3,729.8 "/>
<polygon fill="#FFFFFF" stroke="#16B34C" stroke-miterlimit="10" points="193.3,670.1 193.3,565.5 200.7,565.5 200.7,677.5 "/>
<polygon fill="#FFFFFF" stroke="#16B34C" stroke-miterlimit="10" points="200.7,655.1 200.7,535.6 208.2,535.6 208.2,662.6 "/>
<polygon fill="#FFFFFF" stroke="#16B34C" stroke-miterlimit="10" points="170.9,647.7 170.9,558 193.3,558 193.3,670.1 "/>
<polygon fill="#FFFFFF" stroke="#16B34C" stroke-miterlimit="10" points="215.7,625.2 215.7,550.5 208.2,550.5 208.2,617.8 "/>
<polygon fill="#FFFFFF" stroke="#16B34C" stroke-miterlimit="10" points="178.3,558 193.3,543.1 200.7,543.1 200.7,558 "/>
<rect x="193.3" y="558" fill="#FFFFFF" stroke="#16B34C" stroke-miterlimit="10" width="7.5" height="7.5"/>
<rect x="350.1" y="560.8" fill="#FFFFFF" stroke="#16B34C" stroke-miterlimit="10" width="37.4" height="7.5"/>
<rect x="357.6" y="545.9" fill="#FFFFFF" stroke="#16B34C" stroke-miterlimit="10" width="7.5" height="14.9"/>
<rect x="312.8" y="590.7" fill="#FFFFFF" stroke="#16B34C" stroke-miterlimit="10" width="104.6" height="7.5"/>
<rect x="320.3" y="575.8" fill="#FFFFFF" stroke="#16B34C" stroke-miterlimit="10" width="67.2" height="7.5"/>
<rect x="350.1" y="568.3" fill="#FFFFFF" stroke="#16B34C" stroke-miterlimit="10" width="37.4" height="7.5"/>
<polygon fill="#FFFFFF" stroke="#16B34C" stroke-miterlimit="10" points="395,575.8 395,590.7 417.4,590.7 417.4,553.3 "/>
<polygon fill="#FFFFFF" stroke="#16B34C" stroke-miterlimit="10" points="335.2,583.2 342.7,590.7 395,590.7 395,583.2 "/>
<rect x="417.4" y="538.4" fill="#FFFFFF" stroke="#16B34C" stroke-miterlimit="10" width="7.5" height="67.2"/>
<rect x="560.2" y="359.1" fill="#FFFFFF" stroke="#16B34C" stroke-miterlimit="10" width="7.5" height="134.5"/>
<rect x="575.1" y="359.1" fill="#FFFFFF" stroke="#16B34C" stroke-miterlimit="10" width="7.5" height="164.3"/>
<polygon fill="#FFFFFF" stroke="#16B34C" stroke-miterlimit="10" points="642.4,441.3 642.4,471.2 590.1,418.9 590.1,403.9 
	634.9,448.8 634.9,433.8 "/>
<polygon fill="#FFFFFF" stroke="#16B34C" stroke-miterlimit="10" points="590.1,381.5 590.1,448.8 612.5,471.2 612.5,486.1 
	582.6,456.2 582.6,381.5 "/>
<polygon fill="#FFFFFF" stroke="#16B34C" stroke-miterlimit="10" points="597.6,426.3 597.6,448.8 634.9,486.1 634.9,493.6 
	590.1,448.8 590.1,418.9 "/>
<polygon fill="#FFFFFF" stroke="#16B34C" stroke-miterlimit="10" points="597.6,426.3 597.6,441.3 649.9,493.6 649.9,478.6 "/>
<polygon fill="#FFFFFF" stroke="#16B34C" stroke-miterlimit="10" points="642.4,486.1 634.9,478.6 634.9,545.9 642.4,545.9 "/>
<polygon fill="#FFFFFF" stroke="#16B34C" stroke-miterlimit="10" points="627.4,486.1 627.4,560.8 634.9,560.8 634.9,493.6 "/>
<polygon fill="#FFFFFF" stroke="#16B34C" stroke-miterlimit="10" points="612.5,471.2 627.4,486.1 627.4,560.8 612.5,560.8 "/>
<polygon fill="#FFFFFF" stroke="#16B34C" stroke-miterlimit="10" points="612.5,486.1 612.5,516 582.6,486.1 582.6,456.2 "/>
<polygon fill="#FFFFFF" stroke="#16B34C" stroke-miterlimit="10" points="612.5,516 612.5,538.4 582.6,508.5 582.6,486.1 "/>
<polygon fill="#FFFFFF" stroke="#16B34C" stroke-miterlimit="10" points="605,530.9 605,583.2 612.5,583.2 612.5,538.4 "/>
<polygon fill="#FFFFFF" stroke="#16B34C" stroke-miterlimit="10" points="582.6,508.5 582.6,553.3 605,575.8 605,530.9 "/>
<rect x="567.7" y="359.1" fill="#FFFFFF" stroke="#16B34C" stroke-miterlimit="10" width="7.5" height="164.3"/>
<polygon fill="#FFFFFF" stroke="#16B34C" stroke-miterlimit="10" points="612.5,605.6 657.3,605.6 664.8,598.2 582.6,598.2 
	582.6,605.6 "/>
<rect x="612.5" y="560.8" fill="#FFFFFF" stroke="#16B34C" stroke-miterlimit="10" width="37.4" height="7.5"/>
<rect x="634.9" y="545.9" fill="#FFFFFF" stroke="#16B34C" stroke-miterlimit="10" width="7.5" height="14.9"/>
<rect x="582.6" y="590.7" fill="#FFFFFF" stroke="#16B34C" stroke-miterlimit="10" width="104.6" height="7.5"/>
<rect x="612.5" y="575.8" fill="#FFFFFF" stroke="#16B34C" stroke-miterlimit="10" width="67.2" height="7.5"/>
<rect x="612.5" y="568.3" fill="#FFFFFF" stroke="#16B34C" stroke-miterlimit="10" width="37.4" height="7.5"/>
<polygon fill="#FFFFFF" stroke="#16B34C" stroke-miterlimit="10" points="605,575.8 605,590.7 582.6,590.7 582.6,553.3 "/>
<polygon fill="#FFFFFF" stroke="#16B34C" stroke-miterlimit="10" points="664.8,583.2 657.3,590.7 605,590.7 605,583.2 "/>
<rect x="575.1" y="538.4" fill="#FFFFFF" stroke="#16B34C" stroke-miterlimit="10" width="7.5" height="67.2"/>
<rect x="702.6" y="512" fill="#FFFFFF" stroke="#16B34C" stroke-miterlimit="10" width="31.1" height="6.9"/>
<rect x="733.8" y="512" fill="#FFFFFF" stroke="#16B34C" stroke-miterlimit="10" width="3.5" height="31.1"/>
<polygon fill="#FFFFFF" stroke="#16B34C" stroke-miterlimit="10" points="713,518.9 716.5,522.4 733.8,522.4 733.8,518.9 "/>
<polygon fill="#FFFFFF" stroke="#16B34C" stroke-miterlimit="10" points="702.6,518.9 713,518.9 723.4,529.3 702.6,529.3 "/>
<polygon fill="#FFFFFF" stroke="#16B34C" stroke-miterlimit="10" points="716.5,522.4 723.4,529.3 733.8,529.3 733.8,522.4 "/>
<polygon fill="#FFFFFF" stroke="#16B34C" stroke-miterlimit="10" points="716.5,529.3 709.5,536.2 702.6,536.2 702.6,529.3 "/>
<polygon fill="#FFFFFF" stroke="#16B34C" stroke-miterlimit="10" points="709.5,536.2 702.6,543.1 713,543.1 726.8,529.3 
	716.5,529.3 "/>
<rect x="726.8" y="529.3" fill="#FFFFFF" stroke="#16B34C" stroke-miterlimit="10" width="3.5" height="13.8"/>
<rect x="229" y="484.3" fill="#FFFFFF" stroke="#16B34C" stroke-miterlimit="10" width="62.3" height="6.9"/>
<rect x="246.3" y="470.5" fill="#FFFFFF" stroke="#16B34C" stroke-miterlimit="10" width="45" height="6.9"/>
<polygon fill="#FFFFFF" stroke="#16B34C" stroke-miterlimit="10" points="291.3,467 249.8,467 253.2,470.5 291.3,470.5 "/>
<polygon fill="#FFFFFF" stroke="#16B34C" stroke-miterlimit="10" points="249.8,467 222.1,467 225.6,470.5 253.2,470.5 "/>
<polygon fill="#FFFFFF" stroke="#16B34C" stroke-miterlimit="10" points="246.3,470.5 229,470.5 235.9,477.4 246.3,477.4 "/>
<rect x="249.8" y="477.4" fill="#FFFFFF" stroke="#16B34C" stroke-miterlimit="10" width="41.5" height="3.5"/>
<rect x="235.9" y="480.9" fill="#FFFFFF" stroke="#16B34C" stroke-miterlimit="10" width="55.3" height="3.5"/>
<polygon fill="#FFFFFF" stroke="#16B34C" stroke-miterlimit="10" points="239.4,491.2 249.8,501.6 294.7,501.6 294.7,491.2 "/>
<rect x="235.9" y="501.6" fill="#FFFFFF" stroke="#16B34C" stroke-miterlimit="10" width="58.8" height="3.5"/>
<polygon fill="#FFFFFF" stroke="#16B34C" stroke-miterlimit="10" points="260.2,505.1 263.6,508.5 301.7,508.5 301.7,505.1 "/>
<polygon fill="#FFFFFF" stroke="#16B34C" stroke-miterlimit="10" points="256.7,508.5 260.2,512 301.7,512 301.7,508.5 "/>
<rect x="263.6" y="512" fill="#FFFFFF" stroke="#16B34C" stroke-miterlimit="10" width="38" height="31.1"/>
<polygon fill="#FFFFFF" stroke="#16B34C" stroke-miterlimit="10" points="267.1,543.1 274,550 308.6,550 315.5,543.1 "/>
<rect x="267.1" y="512" fill="#FFFFFF" stroke="#16B34C" stroke-miterlimit="10" width="31.1" height="6.9"/>
<rect x="263.6" y="512" fill="#FFFFFF" stroke="#16B34C" stroke-miterlimit="10" width="3.5" height="31.1"/>
<polygon fill="#FFFFFF" stroke="#16B34C" stroke-miterlimit="10" points="287.8,518.9 284.4,522.4 267.1,522.4 267.1,518.9 "/>
<polygon fill="#FFFFFF" stroke="#16B34C" stroke-miterlimit="10" points="298.2,518.9 287.8,518.9 277.4,529.3 298.2,529.3 "/>
<polygon fill="#FFFFFF" stroke="#16B34C" stroke-miterlimit="10" points="284.4,522.4 277.4,529.3 267.1,529.3 267.1,522.4 "/>
<polygon fill="#FFFFFF" stroke="#16B34C" stroke-miterlimit="10" points="284.4,529.3 291.3,536.2 298.2,536.2 298.2,529.3 "/>
<polygon fill="#FFFFFF" stroke="#16B34C" stroke-miterlimit="10" points="291.3,536.2 298.2,543.1 287.8,543.1 274,529.3 
	284.4,529.3 "/>
<rect x="270.5" y="529.3" fill="#FFFFFF" stroke="#16B34C" stroke-miterlimit="10" width="3.5" height="13.8"/>
</svg>
