<?xml version="1.0" encoding="utf-8"?>
<!-- Generator: Adobe Illustrator 17.1.0, SVG Export Plug-In . SVG Version: 6.00 Build 0)  -->
<!DOCTYPE svg PUBLIC "-//W3C//DTD SVG 1.1//EN" "http://www.w3.org/Graphics/SVG/1.1/DTD/svg11.dtd">
<svg version="1.1" id="Layer_1" xmlns="http://www.w3.org/2000/svg" xmlns:xlink="http://www.w3.org/1999/xlink" x="0px" y="0px"
	 viewBox="0 0 1000 1000" enable-background="new 0 0 1000 1000" xml:space="preserve">
<path fill="#FFFFFF" stroke="#231F20" stroke-width="4" stroke-linecap="round" stroke-linejoin="round" stroke-miterlimit="10" d="
	M476.9,615H292.7V430.7h184.2L476.9,615L476.9,615z M499.9,407.7l-23.1,23.1V615l23.1-23.1V407.7z M476.9,430.7l23.1-23.1H315.7
	l-23.1,23.1H476.9z"/>
<path fill="#FFFFFF" stroke="#231F20" stroke-width="4" stroke-linecap="round" stroke-linejoin="round" stroke-miterlimit="10" d="
	M442.4,649.5H258.1V465.3h184.2L442.4,649.5L442.4,649.5z M465.4,442.2l-23.1,23.1v184.2l23.1-23.1V442.2z M442.4,465.3l23.1-23.1
	H281.2l-23.1,23.1H442.4z"/>
<path fill="#FFFFFF" stroke="#231F20" stroke-width="4" stroke-linecap="round" stroke-linejoin="round" stroke-miterlimit="10" d="
	M407.8,684H223.6V499.8h184.2L407.8,684L407.8,684z M430.9,476.8l-23.1,23.1V684l23.1-23.1V476.8z M407.8,499.8l23.1-23.1H246.6
	l-23.1,23.1H407.8z"/>
<path fill="#FFFFFF" stroke="#231F20" stroke-width="4" stroke-linecap="round" stroke-linejoin="round" stroke-miterlimit="10" d="
	M373.2,718.7H189V534.5h184.2V718.7z M396.2,511.5l-23.1,23.1v184.2l23.1-23.1V511.5z M373.2,534.5l23.1-23.1H212l-23.1,23.1H373.2z
	"/>
<path fill="#FFFFFF" stroke="#231F20" stroke-width="4" stroke-linecap="round" stroke-linejoin="round" stroke-miterlimit="10" d="
	M309.8,676.3h-86.6v-86.6h86.5L309.8,676.3L309.8,676.3z M320.6,578.9l-10.8,10.8v86.5l10.8-10.8V578.9z M309.8,589.7l10.8-10.8H234
	l-10.8,10.8H309.8z"/>
<path fill="#FFFFFF" stroke="#231F20" stroke-width="4" stroke-linecap="round" stroke-linejoin="round" stroke-miterlimit="10" d="
	M293.5,692.5H207V606h86.5V692.5z M304.4,595.1l-10.8,10.8v86.5l10.8-10.8V595.1z M293.5,606l10.8-10.8h-86.5L207,606H293.5z"/>
<path fill="#FFFFFF" stroke="#231F20" stroke-width="4" stroke-linecap="round" stroke-linejoin="round" stroke-miterlimit="10" d="
	M277.3,708.7h-86.5v-86.5h86.5V708.7z M288.1,611.4l-10.8,10.8v86.5l10.8-10.8V611.4z M277.3,622.2l10.8-10.8h-86.5l-10.8,10.8
	H277.3z"/>
<path fill="#FFFFFF" stroke="#231F20" stroke-width="4" stroke-linecap="round" stroke-linejoin="round" stroke-miterlimit="10" d="
	M261,725h-86.5v-86.5H261V725z M271.8,627.7L261,638.5V725l10.8-10.8V627.7z M261,638.5l10.8-10.8h-86.5l-10.8,10.8H261z"/>
<path fill="#FFFFFF" stroke="#231F20" stroke-width="4" stroke-linecap="round" stroke-linejoin="round" stroke-miterlimit="10" d="
	M476.9,430.5H292.7V246.2h184.2L476.9,430.5L476.9,430.5z M499.9,223.2l-23.1,23.1v184.2l23.1-23.1V223.2z M476.9,246.2l23.1-23.1
	H315.7l-23.1,23.1H476.9z"/>
<path fill="#FFFFFF" stroke="#231F20" stroke-width="4" stroke-linecap="round" stroke-linejoin="round" stroke-miterlimit="10" d="
	M442.4,465H258.1V280.8h184.2L442.4,465L442.4,465z M465.4,257.7l-23.1,23.1V465l23.1-23.1V257.7z M442.4,280.8l23.1-23.1H281.2
	l-23.1,23.1H442.4z"/>
<path fill="#FFFFFF" stroke="#231F20" stroke-width="4" stroke-linecap="round" stroke-linejoin="round" stroke-miterlimit="10" d="
	M407.8,499.5H223.6V315.3h184.2L407.8,499.5L407.8,499.5z M430.9,292.3l-23.1,23.1v184.2l23.1-23.1V292.3z M407.8,315.3l23.1-23.1
	H246.6l-23.1,23.1H407.8z"/>
<path fill="#FFFFFF" stroke="#231F20" stroke-width="4" stroke-linecap="round" stroke-linejoin="round" stroke-miterlimit="10" d="
	M373.2,534.2H189V350h184.2V534.2z M396.2,327L373.1,350v184.2l23.1-23.1V327z M373.2,350l23.1-23.1H212L188.9,350H373.2z"/>
<path fill="#FFFFFF" stroke="#231F20" stroke-width="4" stroke-linecap="round" stroke-linejoin="round" stroke-miterlimit="10" d="
	M309.8,491.8h-86.6v-86.6h86.5L309.8,491.8L309.8,491.8z M320.6,394.4l-10.8,10.8v86.5l10.8-10.8V394.4z M309.8,405.2l10.8-10.8H234
	l-10.8,10.8H309.8z"/>
<path fill="#FFFFFF" stroke="#231F20" stroke-width="4" stroke-linecap="round" stroke-linejoin="round" stroke-miterlimit="10" d="
	M293.5,508H207v-86.5h86.5V508z M304.4,410.6l-10.8,10.8v86.5l10.8-10.8V410.6z M293.5,421.5l10.8-10.8h-86.5L207,421.5H293.5z"/>
<path fill="#FFFFFF" stroke="#231F20" stroke-width="4" stroke-linecap="round" stroke-linejoin="round" stroke-miterlimit="10" d="
	M277.3,524.2h-86.5v-86.5h86.5V524.2z M288.1,426.9l-10.8,10.8v86.5l10.8-10.8V426.9z M277.3,437.7l10.8-10.8h-86.5l-10.8,10.8
	H277.3z"/>
<path fill="#FFFFFF" stroke="#231F20" stroke-width="4" stroke-linecap="round" stroke-linejoin="round" stroke-miterlimit="10" d="
	M261,540.5h-86.5V454H261V540.5z M271.8,443.2L261,454v86.5l10.8-10.8V443.2z M261,454l10.8-10.8h-86.5L174.5,454H261z"/>
<path fill="#FFFFFF" stroke="#231F20" stroke-width="4" stroke-linecap="round" stroke-linejoin="round" stroke-miterlimit="10" d="
	M523.1,615V430.7h184.2V615H523.1L523.1,615z M500.1,591.9l23.1,23.1V430.8l-23.1-23.1V591.9z M707.3,430.7l-23.1-23.1H500
	l23.1,23.1H707.3z"/>
<path fill="#FFFFFF" stroke="#231F20" stroke-width="4" stroke-linecap="round" stroke-linejoin="round" stroke-miterlimit="10" d="
	M557.6,649.5V465.3h184.2v184.2H557.6L557.6,649.5z M534.6,626.4l23.1,23.1V465.3l-23.1-23.1V626.4z M741.9,465.3l-23.1-23.1H534.6
	l23.1,23.1H741.9z"/>
<path fill="#FFFFFF" stroke="#231F20" stroke-width="4" stroke-linecap="round" stroke-linejoin="round" stroke-miterlimit="10" d="
	M592.2,684V499.8h184.2V684H592.2L592.2,684z M569.1,661l23.1,23.1V499.8l-23.1-23.1V661z M776.5,499.8l-23.1-23.1H569.1l23.1,23.1
	H776.5z"/>
<path fill="#FFFFFF" stroke="#231F20" stroke-width="4" stroke-linecap="round" stroke-linejoin="round" stroke-miterlimit="10" d="
	M626.8,534.5H811v184.2H626.8V534.5z M603.8,695.7l23.1,23.1V534.5l-23.1-23.1V695.7z M811.1,534.5L788,511.4H603.8l23.1,23.1H811.1
	z"/>
<path fill="#FFFFFF" stroke="#231F20" stroke-width="4" stroke-linecap="round" stroke-linejoin="round" stroke-miterlimit="10" d="
	M690.3,676.3v-86.6h86.5v86.6H690.3L690.3,676.3z M679.4,665.4l10.8,10.8v-86.5l-10.8-10.8V665.4z M776.8,589.7L766,578.9h-86.6
	l10.8,10.8H776.8z"/>
<path fill="#FFFFFF" stroke="#231F20" stroke-width="4" stroke-linecap="round" stroke-linejoin="round" stroke-miterlimit="10" d="
	M706.5,606H793v86.5h-86.5V606z M695.6,681.6l10.8,10.8v-86.5l-10.8-10.8V681.6z M793,606l-10.8-10.8h-86.5l10.8,10.8H793z"/>
<path fill="#FFFFFF" stroke="#231F20" stroke-width="4" stroke-linecap="round" stroke-linejoin="round" stroke-miterlimit="10" d="
	M722.7,622.2h86.5v86.5h-86.5V622.2z M711.9,697.9l10.8,10.8v-86.5l-10.8-10.8V697.9z M809.2,622.2l-10.8-10.8h-86.5l10.8,10.8
	H809.2z"/>
<path fill="#FFFFFF" stroke="#231F20" stroke-width="4" stroke-linecap="round" stroke-linejoin="round" stroke-miterlimit="10" d="
	M739,638.5h86.5V725H739V638.5z M728.2,714.2L739,725v-86.5l-10.8-10.8V714.2z M825.5,638.5l-10.8-10.8h-86.5l10.8,10.8H825.5z"/>
<path fill="#FFFFFF" stroke="#231F20" stroke-width="4" stroke-linecap="round" stroke-linejoin="round" stroke-miterlimit="10" d="
	M523.1,430.5V246.2h184.2v184.3H523.1L523.1,430.5z M500.1,407.4l23.1,23.1V246.3l-23.1-23.1V407.4z M707.3,246.2l-23.1-23.1H500
	l23.1,23.1H707.3z"/>
<path fill="#FFFFFF" stroke="#231F20" stroke-width="4" stroke-linecap="round" stroke-linejoin="round" stroke-miterlimit="10" d="
	M557.6,465V280.8h184.2V465H557.6L557.6,465z M534.6,442l23.1,23.1V280.8l-23.1-23.1V442z M741.9,280.8l-23.1-23.1H534.6l23.1,23.1
	H741.9z"/>
<path fill="#FFFFFF" stroke="#231F20" stroke-width="4" stroke-linecap="round" stroke-linejoin="round" stroke-miterlimit="10" d="
	M592.2,499.5V315.3h184.2v184.2H592.2L592.2,499.5z M569.1,476.5l23.1,23.1V315.3l-23.1-23.1V476.5z M776.5,315.3l-23.1-23.1H569.1
	l23.1,23.1H776.5z"/>
<path fill="#FFFFFF" stroke="#231F20" stroke-width="4" stroke-linecap="round" stroke-linejoin="round" stroke-miterlimit="10" d="
	M626.8,350H811v184.2H626.8V350z M603.8,511.2l23.1,23.1V350L603.8,327V511.2z M811.1,350L788,326.9H603.8l23.1,23.1H811.1z"/>
<path fill="#FFFFFF" stroke="#231F20" stroke-width="4" stroke-linecap="round" stroke-linejoin="round" stroke-miterlimit="10" d="
	M690.3,491.8v-86.6h86.5v86.6H690.3L690.3,491.8z M679.4,480.9l10.8,10.8v-86.5l-10.8-10.8V480.9z M776.8,405.2L766,394.4h-86.6
	l10.8,10.8H776.8z"/>
<path fill="#FFFFFF" stroke="#231F20" stroke-width="4" stroke-linecap="round" stroke-linejoin="round" stroke-miterlimit="10" d="
	M706.5,421.5H793V508h-86.5V421.5z M695.6,497.1l10.8,10.8v-86.5l-10.8-10.8V497.1z M793,421.5l-10.8-10.8h-86.5l10.8,10.8H793z"/>
<path fill="#FFFFFF" stroke="#231F20" stroke-width="4" stroke-linecap="round" stroke-linejoin="round" stroke-miterlimit="10" d="
	M722.7,437.7h86.5v86.5h-86.5V437.7z M711.9,513.4l10.8,10.8v-86.5l-10.8-10.8V513.4z M809.2,437.7l-10.8-10.8h-86.5l10.8,10.8
	H809.2z"/>
<path fill="#FFFFFF" stroke="#231F20" stroke-width="4" stroke-linecap="round" stroke-linejoin="round" stroke-miterlimit="10" d="
	M739,454h86.5v86.5H739V454z M728.2,529.7l10.8,10.8V454l-10.8-10.8V529.7z M825.5,454l-10.8-10.8h-86.5L739,454H825.5z"/>
</svg>
