<?xml version="1.0" encoding="utf-8"?>
<!-- Generator: Adobe Illustrator 17.1.0, SVG Export Plug-In . SVG Version: 6.00 Build 0)  -->
<!DOCTYPE svg PUBLIC "-//W3C//DTD SVG 1.1//EN" "http://www.w3.org/Graphics/SVG/1.1/DTD/svg11.dtd">
<svg version="1.1" id="Layer_1" xmlns="http://www.w3.org/2000/svg" xmlns:xlink="http://www.w3.org/1999/xlink" x="0px" y="0px"
	 viewBox="150 150 200 200" enable-background="new 150 150 200 200" xml:space="preserve">
<path fill="#231F20" d="M294.5,240c-0.2,0.1-0.4,0.2-0.6,0.2c-1.4,19.9-0.9,39.8,1.7,59.7c1.2-0.1,2.1-0.2,2.9-0.3
	c2.5-0.5,4.8-1.2,7.3-1.5c3.4-0.5,6.8-0.8,10.3-1.2c0.3-0.1,0.9-0.4,1-0.7c0.2-1,0.5-2.1,0.4-3.1c-0.2-7-0.4-14.1-0.8-21.1
	c-0.1-1.6-0.3-3.7-1.4-4.7c-7.2-7-13-14.9-18.1-23.4C296.3,242.6,295.4,241.3,294.5,240z"/>
<path fill="#231F20" d="M243.7,249.1c-0.3-1-0.7-1.6-0.6-2.1c0.5-3,1.3-6,1.5-9c0.4-4.4,0.6-8.8,0.7-13.3c0.1-1.7-1.5-3.1-2.6-2.5
	c-2.5,1.4-5.6,1.8-7.2,4.7c-0.2,0.2-0.6,0.6-0.8,0.5c-2.7-0.6-4.4,1.4-6.4,2.5c-0.9,0.5-1.8,1.2-2.2,2.1c-1.1,2.5-2.1,5.2-2.9,7.9
	c-1,3.7-1.9,7.6-2.8,11.4c-1.5,6.3-3.1,12.6-4.5,18.8c-0.1,0.5,0,1,0,1.8C226.9,265.7,234.2,255.9,243.7,249.1z"/>
<path fill="#231F20" d="M251.3,306.9c0.5-0.1,0.8,0,1-0.2c3.7-2.5,7.4-4.8,10.9-7.4c2-1.5,3.7-3.5,5.6-5.2c1-0.9,1.3-1.7,0.8-2.9
	c-1-2.4-1.8-4.8-2.8-7.3c-2.1-5.7-4.4-11.4-6.5-17.2c-0.6-1.6-2-2-3.1-2.9c-1.9-1.6-2.6,0.4-3.8,0.8c-0.4,0.2-0.9,0.3-1.2,0.6
	c-1.2,1-2.9,1.7-3.4,3c-0.6,1.4-0.4,3.3-0.4,4.9c0.1,2.7,0.4,5.3,0.6,8c0.2,4.1,0.4,8.1,0.8,12.1c0.3,4,0.9,8,1.4,12
	C251.1,305.8,251.2,306.2,251.3,306.9z"/>
<path fill="#231F20" d="M265.9,207c-0.2,3.5-0.2,3.5,3.3,2.9c0.2,0,0.4,0,0.6-0.1c2-0.9,4.4-1.4,5.9-2.8c1.6-1.5,2.5-3.7,3.6-5.8
	c2.1-4.1,3.9-8.3,5.9-12.3c0.9-1.7,1.4-3.3-0.2-5.2c-1.2-1.5-1.9-3.4-3.1-5c-3.1-4.2-6.3-8.3-9.5-12.4c-0.4-0.5-1.2-0.7-1.8-1
	c-0.3,0.7-0.7,1.4-0.8,2.1c-0.5,4.4-0.9,8.8-1.4,13.2C267.6,189.4,266.8,198.1,265.9,207z"/>
<path fill="#231F20" d="M247.9,248.5c-0.2-0.1-0.5-0.2-0.6-0.2c-2,1.8-4.1,3.6-6,5.4c-5.4,5.2-10.4,10.9-16.1,15.7
	c-3.7,3.1-6,6.1-4.6,11.1c0.4,1.5,0.4,3.2,0.6,4.7c0.2,0.1,0.4,0.2,0.6,0.3c8.6-6.4,17.2-12.7,25.5-18.8c-0.2-1.4-0.4-2.5-0.3-3.7
	C247.1,258.2,247.5,253.4,247.9,248.5z"/>
<path fill="#231F20" d="M288.7,263.3c-4,1.1-7.8,2.1-11.6,3.3c-0.3,0.1-0.8,0.9-0.7,1.3c0.2,1.5,0.6,3.1,1,4.6
	c1.8,8.2,3.7,16.5,5.6,24.6c0.6,2.6,1.2,5.3,1.9,8.6c1.5-2,2.7-3.6,4-5.1c0.7-0.9,1.6-1.5,2.4-2.3c0.4-0.4,1-0.9,1-1.3
	c-0.3-2.7-0.8-5.4-1.1-8.1c-0.6-4.7-1-9.3-1.5-14C289.2,271.1,288.9,267.1,288.7,263.3z"/>
<path fill="#231F20" d="M200.9,327.5c4.1-2.5,7.9-4.5,11.5-6.8c0.6-0.3,0.9-1.3,1-1.9c0.1-3.3,0.1-6.5,0-9.8
	c-0.1-3.5-0.1-7-0.5-10.5c-0.2-1.9,0.8-4.2-1.2-5.9c-0.2-0.2,0.3-1.1,0.6-1.7c0.4-1.4,1.1-2.6,1.1-4c0.1-2.6-0.2-5.2-0.3-7.8
	c-0.1-1.6-0.8-2.3-2.3-2.3c-2.2,0-2.9,0.6-2.9,2.5c0,2.1,0.2,4.3-0.1,6.4c-0.8,7.6-1.7,15-2.7,22.5c-0.6,4.1-1.7,8-2.5,12
	C201.9,322.5,201.5,324.7,200.9,327.5z"/>
<path fill="#231F20" d="M238.5,274.9c-1.4,1-2.5,1.7-3.4,2.5c-2.5,2.1-5,4.5-7.6,6.6c-1.9,1.7-3.8,3.3-5.8,4.8
	c-0.4,0.3-0.9,0.5-1.4,0.6c-1.7,0.5-3.6,2.2-3.7,3.5c-0.2,2.1-0.5,4.3-0.6,6.4c-0.1,1.6,0,3.2,0,4.8c0.2,0.1,0.5,0.2,0.7,0.3
	c1.8-1.1,3.7-2.1,5.4-3.3c4.8-3.5,9.5-7.1,14.2-10.7c0.6-0.5,1.3-1.3,1.3-2C237.9,284.2,238.1,279.8,238.5,274.9z"/>
<path fill="#231F20" d="M270.8,213.5c-0.2-0.3-0.4-0.6-0.6-0.9c-1.4,0.4-2.9,0.7-4.4,1.3c-4.9,1.9-9.9,4.1-14.9,5.9
	c-1.9,0.6-2.5,1.7-2.6,3.5c-0.5,5.3-1.2,10.6-1.7,15.9c-0.1,1.1-0.1,2.2-0.2,3.3c0.2,0.1,0.4,0.2,0.6,0.2
	C255,233,262.9,223.3,270.8,213.5z"/>
<path fill="#231F20" d="M271.2,261.5c-2.1,0.6-3.8,1.2-5.6,1.6c-1.4,0.3-1.8,1-1.4,2.4c1.1,3,2.1,6,3.2,9c1.8,5.1,3.6,10.2,5.5,15.3
	c1.6,4.2,3.3,8.3,4.9,12.6c1,2.7,2,5.4,2.9,8.1c0.2,0,0.4,0,0.6,0c0.2-0.6,0.6-1.3,0.6-1.7c-0.7-3.1-1.7-6.1-2.5-9.1
	c-1-4.2-1.6-8.4-2.5-12.6c-1-5-2.1-9.9-3.2-14.9C273.2,268.4,272.2,265.1,271.2,261.5z"/>
<path fill="#231F20" d="M270.2,247.3c0.6-0.5,1-0.9,1.6-1.1c3.7-1.8,7.5-3.7,11.3-5.3c3.5-1.5,4.5-2.8,4.3-5.9
	c-0.2-2.5-1.2-4.6-2.6-6.6c-0.9-1.2-1.9-1.4-3-0.6c-4,2.7-8,5.3-11.8,8.3c-1.1,0.9-1.7,3-1.6,4.5C268.4,242.8,269.5,245,270.2,247.3
	z"/>
<path fill="#231F20" d="M204,250c-0.7,0.7-1,1-1.1,1.2c-2.8,4.1-5.6,8.1-8.3,12.2c-0.5,0.6-0.7,1.6-0.8,2.4c-0.1,3.7,0,7.4,0,11.4
	c2.6-0.9,5.2-1.7,7.9-2.5c2.8-0.9,3.6-2.1,3.4-4.8c-0.2-3.7-0.2-7.3-0.3-10.9C204.5,256.1,204.2,253.3,204,250z"/>
<path fill="#231F20" d="M282.4,223.7c-2.3-3.7-4.5-7.4-6.8-11.1c-0.6,0.5-0.9,0.6-1,0.8c-3.3,4.1-6.6,8.2-9.9,12.4
	c-0.4,0.5-0.9,1.2-0.7,1.7c0.5,2.4,1.1,4.8,1.8,7.5C271.3,231.2,276.7,227.5,282.4,223.7z"/>
<path fill="#231F20" d="M217.1,228c-0.5,0.3-1.2,0.6-1.7,1.1c-1.2,1-2.3,2.1-3.6,2.9c-2.5,1.5-5.5,2.6-7.9,4.4
	c-5.6,4.1-11.6,7.3-17.7,10.4c-3.1,1.6-3.2,1.9-2,5.3c0.5-0.1,1-0.2,1.5-0.3c4.5-2.3,9.1-4.6,13.6-7c0.5-0.2,0.8-1.1,1-1.7
	c0.6-1.4,1.7-2.3,3-1.7c1.5,0.6,2.5,0,3.6-0.6c3.4-2,6.9-3.9,10.3-6c1.4-0.9,2.5-2.1,4-3.2C219.6,230.1,218.5,229.1,217.1,228z"/>
<path fill="#231F20" d="M264.3,240.7c-4.3,1.4-8.3,2.7-12.4,4c1.8,4,3.7,8,5.4,11.9c1.4,3,3.9,4.2,7.1,3.2c0.5-0.2,1-1.1,1-1.7
	c0-1.5-0.3-3.1-0.5-4.6C264.7,249.3,264.5,245.1,264.3,240.7z"/>
<path fill="#231F20" d="M202.9,246.2c-0.2-0.2-0.3-0.3-0.5-0.6c-0.6,0.2-1.1,0.5-1.7,0.7c-5,2.9-9.9,5.8-14.9,8.5
	c-1.2,0.6-1.6,1.3-1.5,2.5c0.2,2.3,0.2,4.5,0.4,6.8c0.2,1.7,0.5,3.3,0.7,5c0.2,0,0.5,0,0.7,0C192.2,262,198,254.4,202.9,246.2z"/>
<path fill="#231F20" d="M221.3,234.9c-2.5,1.6-4.5,3-6.6,4.1c-1.7,0.9-2.3,2.1-2.3,3.9c0,2.6,0,5.2-0.2,7.8
	c-0.2,4.6-0.3,9.1,1.3,13.7C217.3,255.1,219.2,245.3,221.3,234.9z"/>
<path fill="#231F20" d="M288.1,249.3c-4.3,2.2-8.3,4.2-12.2,6.3c-0.4,0.2-0.8,0.9-0.8,1.3c0.2,1.8,0.3,3.7,0.8,5.4
	c0.2,0.6,1.4,1.4,2,1.4c2.9-0.4,5.9-1,8.7-1.8c0.8-0.2,1.7-1.4,1.7-2.2C288.6,256.2,288.3,253,288.1,249.3z"/>
<path fill="#231F20" d="M261.5,212.7c-2.5-2-4.5-3.6-6.4-5.3c-3.7-3.5-7.3-7.2-11.1-10.7c-1-1-2-2.3-3.8-2c1.4,2.1,2.5,3.8,3.7,5.6
	c2.9,4.7,5.6,9.4,8.6,14c0.3,0.5,1.2,1,1.7,0.8C256.4,214.5,258.7,213.6,261.5,212.7z"/>
<path fill="#231F20" d="M243.9,271.5c-0.3-0.1-0.6-0.2-1-0.2c-0.5,0.6-1.4,1.1-1.4,1.7c-0.2,3.5-0.1,7.1-0.2,10.7
	c0,0.5,0.1,1.1-0.2,1.5c-1,1.4-0.5,2.5,0.2,3.8c1.6,3.3,3,6.6,4.6,9.9c0.4,0.8,1,1.5,1.4,2.3c0.2-0.1,0.3-0.2,0.5-0.2
	C246.6,291.1,245.3,281.4,243.9,271.5z"/>
<path fill="#231F20" d="M226.6,211.7c-1,1.7-1.7,3.2-2.7,4.5c-0.9,1.2-1,2.3-0.3,3.7c1.4,2.9,2.7,5.7,4.1,8.9c1-0.6,2-1.2,3-1.7
	c1.5-0.6,1.6-1.7,1-3c-0.6-1.4-1.2-2.8-1.7-4.1C229,217.4,227.9,214.7,226.6,211.7z"/>
<path fill="#231F20" d="M287.4,241.2c-0.4,0-0.6,0-0.7,0.1c-4.2,2.4-8.4,4.8-12.6,7.3c-1.3,0.7-1.1,2.7,0.3,3.3
	c0.7,0.3,1.8,0.2,2.6,0c2.9-1.1,5.7-2.5,8.6-3.7c2.5-1.1,2.8-1.6,2.4-4.3C287.8,243,287.6,242.2,287.4,241.2z"/>
<path fill="#231F20" d="M245.2,218.4c0.9-0.3,1.4-0.5,1.8-0.6c2.5-0.6,2.8-1.3,1.5-3.4c-2.1-3.5-4.2-6.9-6.3-10.3
	c-1.3-2.1-2.6-4.1-3.8-6.1c-1.7,0.6-1.4,1.4-1,2.3c1.5,3.5,2.9,7,4.4,10.5C242.8,213.2,243.9,215.7,245.2,218.4z"/>
<path fill="#231F20" d="M212.4,272.3c-2.8-1.7-2-3.9-2.1-5.9c-0.4-6.5-0.8-13-1.3-19.5c-0.1-0.8-0.3-1.5-0.6-2.3
	c-0.3,0.6-0.7,1.3-1,2c-0.2,0.5-0.3,1-0.3,1.5c0.2,6.9,0.5,13.8,0.6,20.7c0.1,1.7,0,3.6,0,5.3c0.2,0.2,0.4,0.2,0.6,0.4
	C209.5,273.9,210.7,273.3,212.4,272.3z"/>
<path fill="#231F20" d="M234.9,201.9c-2,1.2-2.2,2.3-1.6,3.8c1.6,3.8,3.1,7.7,4.8,11.5c0.6,1.5,1.5,2.9,2.4,4.6
	c0.9-0.6,1.6-1.1,2.2-1.6C240,214.1,237.4,208.1,234.9,201.9z"/>
<path fill="#231F20" d="M251.3,251.2c-0.2,0.1-0.3,0.1-0.5,0.2c-0.4,4.6-2.5,9.1-1.5,14.1c1.6-1.1,3.1-2,4.4-3.2
	c2.6-2.5,2.4-1.3,0.9-4.6c-0.6-1.5-1.3-3-2-4.5C252.2,252.4,251.7,251.8,251.3,251.2z"/>
<path fill="#231F20" d="M252.4,240.6c0.7,0.2,1.1,0.5,1.4,0.4c3-0.9,6-1.8,8.9-2.9c0.3-0.1,0.6-0.7,0.6-1c-0.5-2.1-1.1-4.3-1.8-6.9
	C258.2,233.9,255.4,237.2,252.4,240.6z"/>
<path fill="#231F20" d="M230.6,207.7c-0.2,0-0.3,0.1-0.5,0.1c-0.1,0.3-0.4,0.7-0.3,1c1,5.2,2.4,10.1,5,14.7c0.2,0.3,1.3,0.6,1.7,0.3
	c0.4-0.2,0.9-1.2,0.7-1.6c-0.6-1.8-1.5-3.6-2.3-5.4C233.4,213.8,232,210.8,230.6,207.7z"/>
<path fill="#231F20" d="M267.5,259.7c3.1-0.2,3.3-0.5,2.5-3.4c-0.6-1.9-1.1-3.9-1.7-5.8c-0.2-0.6-0.6-1.1-0.8-1.7
	c-0.2,0.1-0.5,0.2-0.6,0.2C267.1,252.6,267.2,256.2,267.5,259.7z"/>
<path fill="#231F20" d="M216.4,288.3c1.8-0.4,2.6-1,2.3-2.6c-0.5-2.4-0.7-4.8-1.1-7.3c-0.2-1-0.6-1.7-1-2.7
	c-0.1,0.1-0.2,0.1-0.2,0.2C216.4,279.9,216.4,284,216.4,288.3z"/>
<path fill="#231F20" d="M294.5,240c0.9,1.4,1.9,2.6,2.7,4c5.1,8.5,11,16.5,18.1,23.4c1,1,1.3,3.1,1.4,4.7c0.4,7,0.6,14.1,0.8,21.1
	c0,1-0.2,2.1-0.4,3.1c-0.1,0.3-0.6,0.7-1,0.7c-3.4,0.4-6.8,0.7-10.3,1.2c-2.5,0.4-4.8,1-7.3,1.5c-0.9,0.2-1.7,0.2-2.9,0.3
	c-2.6-20-3.2-39.8-1.7-59.7C294,240.2,294.3,240.1,294.5,240z"/>
<path fill="#231F20" d="M243.7,249.1c-9.5,6.8-16.8,16.6-27.7,22.7c0-1-0.1-1.4,0-1.8c1.5-6.3,3-12.6,4.5-18.8
	c1-3.8,1.7-7.6,2.8-11.4c0.8-2.7,1.7-5.3,2.9-7.9c0.4-0.9,1.4-1.6,2.2-2.1c2-1.1,3.7-3.1,6.4-2.5c0.2,0.1,0.6-0.2,0.8-0.5
	c1.5-2.9,4.7-3.3,7.2-4.7c1.1-0.6,2.7,0.8,2.6,2.5c-0.2,4.5-0.3,8.9-0.7,13.3c-0.3,3-1.1,6-1.5,9
	C243.1,247.5,243.5,248.1,243.7,249.1z"/>
<path fill="#231F20" d="M251.3,306.9c-0.1-0.6-0.2-1.1-0.2-1.5c-0.5-4-1-8-1.4-12c-0.3-4.1-0.5-8-0.8-12.1c-0.2-2.7-0.5-5.3-0.6-8
	c-0.1-1.7-0.2-3.5,0.4-4.9c0.6-1.3,2.2-2.1,3.4-3c0.3-0.3,0.8-0.5,1.2-0.6c1.2-0.4,1.9-2.3,3.8-0.8c1.1,0.9,2.5,1.3,3.1,2.9
	c2.1,5.7,4.4,11.4,6.5,17.2c1,2.5,1.7,4.9,2.8,7.3c0.5,1.3,0.2,2.1-0.8,2.9c-1.9,1.7-3.6,3.7-5.6,5.2c-3.5,2.6-7.2,5-10.9,7.4
	C252.1,306.8,251.7,306.8,251.3,306.9z"/>
<path fill="#231F20" d="M265.9,207c0.9-8.9,1.7-17.6,2.6-26.4c0.5-4.4,0.9-8.8,1.4-13.2c0.1-0.7,0.6-1.4,0.8-2.1
	c0.6,0.3,1.4,0.5,1.8,1c3.2,4.1,6.4,8.2,9.5,12.4c1.2,1.6,1.8,3.5,3.1,5c1.5,1.8,1,3.4,0.2,5.2c-2,4.1-3.8,8.3-5.9,12.3
	c-1,2.1-2,4.3-3.6,5.8c-1.5,1.4-3.9,1.9-5.9,2.8c-0.2,0.1-0.4,0.1-0.6,0.1C265.7,210.5,265.7,210.5,265.9,207z"/>
<path fill="#231F20" d="M247.9,248.5c-0.3,4.8-0.7,9.7-1,14.5c-0.1,1.1,0.2,2.3,0.3,3.7c-8.3,6.1-16.9,12.5-25.5,18.8
	c-0.2-0.1-0.4-0.2-0.6-0.3c-0.2-1.6-0.2-3.2-0.6-4.7c-1.4-4.9,0.8-8,4.6-11.1c5.7-4.8,10.8-10.4,16.1-15.7c1.9-1.9,4-3.7,6-5.4
	C247.4,248.4,247.7,248.5,247.9,248.5z"/>
<path fill="#231F20" d="M288.7,263.3c0.2,3.8,0.5,7.8,0.9,11.7c0.4,4.7,1,9.3,1.5,14c0.3,2.7,0.8,5.4,1.1,8.1c0.1,0.4-0.6,0.9-1,1.3
	c-0.8,0.8-1.7,1.4-2.4,2.3c-1.3,1.5-2.5,3.1-4,5.1c-0.7-3.3-1.4-6-1.9-8.6c-1.8-8.2-3.7-16.5-5.6-24.6c-0.3-1.5-0.7-3-1-4.6
	c-0.1-0.4,0.4-1.2,0.7-1.3C280.8,265.5,284.6,264.4,288.7,263.3z"/>
<path fill="#231F20" d="M200.9,327.5c0.6-2.8,1-5,1.5-7.2c0.9-4,2-8,2.5-12c1.1-7.5,1.9-15,2.7-22.5c0.2-2.1,0.1-4.3,0.1-6.4
	c0-1.8,0.6-2.5,2.9-2.5c1.5,0,2.2,0.7,2.3,2.3c0.1,2.6,0.4,5.2,0.3,7.8c0,1.4-0.7,2.6-1.1,4c-0.2,0.6-0.7,1.6-0.6,1.7
	c2.1,1.7,1,3.9,1.2,5.9c0.4,3.5,0.4,7,0.5,10.5c0.1,3.3,0.1,6.5,0,9.8c0,0.6-0.4,1.6-1,1.9C208.8,322.9,205.1,325.1,200.9,327.5z"/>
<path fill="#231F20" d="M238.5,274.9c-0.3,4.8-0.6,9.1-1,13.5c-0.1,0.7-0.7,1.5-1.3,2c-4.7,3.7-9.4,7.2-14.2,10.7
	c-1.7,1.3-3.6,2.2-5.4,3.3c-0.2-0.1-0.5-0.2-0.7-0.3c0-1.6-0.1-3.2,0-4.8c0.2-2.1,0.4-4.3,0.6-6.4c0.1-1.3,2-3,3.7-3.5
	c0.5-0.2,1-0.2,1.4-0.6c2-1.6,3.9-3.2,5.8-4.8c2.5-2.2,5-4.5,7.6-6.6C235.9,276.7,236.9,276,238.5,274.9z"/>
<path fill="#231F20" d="M270.8,213.5c-8,9.8-15.8,19.5-23.8,29.3c-0.2-0.1-0.4-0.2-0.6-0.2c0.1-1.1,0.1-2.2,0.2-3.3
	c0.6-5.3,1.3-10.6,1.7-15.9c0.2-1.8,0.8-2.9,2.6-3.5c5-1.8,9.9-3.9,14.9-5.9c1.4-0.6,2.9-0.9,4.4-1.3
	C270.4,212.9,270.7,213.2,270.8,213.5z"/>
<path fill="#231F20" d="M271.2,261.5c1,3.6,1.9,7,2.7,10.4c1.1,4.9,2.2,9.9,3.2,14.9c0.9,4.2,1.5,8.4,2.5,12.6
	c0.7,3.1,1.7,6.1,2.5,9.1c0.2,0.5-0.3,1.2-0.6,1.7c-0.2,0-0.4,0-0.6,0c-1-2.7-1.9-5.4-2.9-8.1c-1.6-4.2-3.4-8.3-4.9-12.6
	c-1.9-5.1-3.7-10.2-5.5-15.3c-1-3-2.1-6-3.2-9c-0.5-1.4-0.1-2.1,1.4-2.4C267.5,262.6,269.1,262,271.2,261.5z"/>
<path fill="#231F20" d="M270.2,247.3c-0.7-2.4-1.7-4.5-1.9-6.8c-0.1-1.5,0.6-3.7,1.6-4.5c3.7-3,7.8-5.6,11.8-8.3
	c1.1-0.8,2.1-0.6,3,0.6c1.4,2,2.5,4.1,2.6,6.6c0.2,3.1-0.8,4.3-4.3,5.9c-3.8,1.7-7.6,3.5-11.3,5.3
	C271.2,246.5,270.8,246.9,270.2,247.3z"/>
<path fill="#231F20" d="M204,250c0.2,3.3,0.6,6,0.6,8.8c0.2,3.7,0.2,7.3,0.3,10.9c0.2,2.8-0.6,4-3.4,4.8c-2.6,0.8-5.2,1.7-7.9,2.5
	c0-4.1-0.1-7.7,0-11.4c0-0.8,0.3-1.7,0.8-2.4c2.7-4.1,5.6-8.2,8.3-12.2C203,250.9,203.2,250.8,204,250z"/>
<path fill="#231F20" d="M282.4,223.7c-5.7,3.8-11.1,7.5-16.6,11.2c-0.6-2.7-1.4-5-1.8-7.5c-0.1-0.5,0.3-1.2,0.7-1.7
	c3.3-4.1,6.6-8.3,9.9-12.4c0.2-0.2,0.4-0.3,1-0.8C277.9,216.3,280.1,220,282.4,223.7z"/>
<path fill="#231F20" d="M217.1,228c1.4,1.1,2.5,2.1,3.9,3.3c-1.4,1.1-2.5,2.3-4,3.2c-3.3,2.1-6.8,4.1-10.3,6
	c-1.1,0.6-2.1,1.3-3.6,0.6c-1.3-0.6-2.5,0.3-3,1.7c-0.2,0.6-0.5,1.5-1,1.7c-4.5,2.4-9,4.7-13.6,7c-0.5,0.2-1,0.2-1.5,0.3
	c-1.2-3.5-1.1-3.8,2-5.3c6.1-3,12.2-6.4,17.7-10.4c2.4-1.7,5.3-2.8,7.9-4.4c1.3-0.8,2.4-1.9,3.6-2.9
	C216,228.7,216.6,228.3,217.1,228z"/>
<path fill="#231F20" d="M264.3,240.7c0.2,4.5,0.5,8.6,0.7,12.7c0.1,1.6,0.5,3.1,0.5,4.6c0,0.6-0.6,1.5-1,1.7
	c-3.2,1.1-5.7-0.2-7.1-3.2c-1.7-4-3.6-7.9-5.4-11.9C255.9,243.4,260,242.1,264.3,240.7z"/>
<path fill="#231F20" d="M202.9,246.2c-4.9,8.2-10.7,15.7-16.8,23.1c-0.2,0-0.5,0-0.7,0c-0.2-1.7-0.6-3.3-0.7-5
	c-0.2-2.3-0.2-4.5-0.4-6.8c-0.1-1.3,0.3-1.9,1.5-2.5c5-2.7,9.9-5.6,14.9-8.5c0.6-0.3,1.1-0.5,1.7-0.7
	C202.6,245.9,202.8,246.1,202.9,246.2z"/>
<path fill="#231F20" d="M221.3,234.9c-2.1,10.4-3.9,20.2-7.8,29.5c-1.6-4.5-1.5-9.1-1.3-13.7c0.1-2.6,0.2-5.2,0.2-7.8
	c0-1.8,0.6-3,2.3-3.9C216.8,238,218.8,236.4,221.3,234.9z"/>
<path fill="#231F20" d="M288.1,249.3c0.2,3.7,0.5,6.9,0.4,10.2c0,0.8-1,2-1.7,2.2c-2.9,0.8-5.8,1.4-8.7,1.8c-0.6,0.1-1.8-0.7-2-1.4
	c-0.5-1.7-0.6-3.6-0.8-5.4c0-0.4,0.4-1,0.8-1.3C279.9,253.5,283.8,251.6,288.1,249.3z"/>
<path fill="#231F20" d="M261.5,212.7c-2.9,1-5.1,1.7-7.3,2.4c-0.5,0.2-1.4-0.3-1.7-0.8c-2.9-4.6-5.7-9.3-8.6-14
	c-1.1-1.8-2.4-3.6-3.7-5.6c1.8-0.2,2.8,1.1,3.8,2c3.7,3.5,7.3,7.2,11.1,10.7C257,209.2,259,210.7,261.5,212.7z"/>
<path fill="#231F20" d="M243.9,271.5c1.4,9.9,2.7,19.6,4.1,29.5c-0.2,0.1-0.3,0.2-0.5,0.2c-0.5-0.8-1-1.5-1.4-2.3
	c-1.6-3.3-3-6.6-4.6-9.9c-0.6-1.3-1.1-2.5-0.2-3.8c0.2-0.4,0.2-1,0.2-1.5c0-3.6,0-7.1,0.2-10.7c0-0.6,0.9-1.1,1.4-1.7
	C243.4,271.4,243.7,271.5,243.9,271.5z"/>
<path fill="#231F20" d="M226.6,211.7c1.3,3,2.4,5.6,3.4,8.2c0.6,1.4,1.1,2.8,1.7,4.1c0.6,1.4,0.5,2.4-1,3c-1,0.5-2,1.1-3,1.7
	c-1.4-3.2-2.8-6-4.1-8.9c-0.6-1.4-0.6-2.5,0.3-3.7C224.9,214.9,225.6,213.5,226.6,211.7z"/>
<path fill="#231F20" d="M287.4,241.2c0.2,1,0.4,1.7,0.6,2.6c0.4,2.7,0.2,3.2-2.4,4.3c-2.9,1.3-5.6,2.5-8.6,3.7
	c-0.8,0.3-1.8,0.3-2.6,0c-1.4-0.6-1.6-2.5-0.3-3.3c4.2-2.5,8.4-4.8,12.6-7.3C286.8,241.1,287,241.2,287.4,241.2z"/>
<path fill="#231F20" d="M245.2,218.4c-1.2-2.7-2.4-5.2-3.5-7.8c-1.5-3.5-2.9-7-4.4-10.5c-0.4-1-0.6-1.7,1-2.3c1.3,2,2.5,4.1,3.8,6.1
	c2.1,3.4,4.2,6.9,6.3,10.3c1.3,2.1,1,2.9-1.5,3.4C246.6,217.9,246.1,218.1,245.2,218.4z"/>
<path fill="#231F20" d="M212.4,272.3c-1.7,1-2.8,1.6-4,2.2c-0.2-0.2-0.4-0.2-0.6-0.4c0-1.7,0.1-3.6,0-5.3
	c-0.2-6.9-0.5-13.8-0.6-20.7c0-0.5,0.2-1,0.3-1.5c0.3-0.7,0.6-1.4,1-2c0.2,0.8,0.5,1.5,0.6,2.3c0.5,6.5,0.9,13,1.3,19.5
	C210.4,268.4,209.5,270.6,212.4,272.3z"/>
<path fill="#231F20" d="M234.9,201.9c2.6,6.2,5.1,12.2,7.7,18.4c-0.6,0.5-1.4,1-2.2,1.6c-0.9-1.7-1.7-3.1-2.4-4.6
	c-1.6-3.8-3.1-7.7-4.8-11.5C232.7,204.3,232.9,203.1,234.9,201.9z"/>
<path fill="#231F20" d="M251.3,251.2c0.4,0.6,1,1.3,1.3,2c0.7,1.4,1.4,2.9,2,4.5c1.4,3.3,1.7,2.1-0.9,4.6c-1.3,1.2-2.8,2.1-4.4,3.2
	c-1-5.1,1.1-9.5,1.5-14.1C250.9,251.2,251.1,251.2,251.3,251.2z"/>
<path fill="#231F20" d="M252.4,240.6c3-3.4,5.8-6.7,9-10.3c0.7,2.6,1.4,4.8,1.8,6.9c0.1,0.3-0.3,1-0.6,1c-2.9,1-6,1.9-8.9,2.9
	C253.5,241.1,253.2,240.8,252.4,240.6z"/>
<path fill="#231F20" d="M230.6,207.7c1.4,3,2.9,6.1,4.3,9.1c0.8,1.7,1.7,3.6,2.3,5.4c0.2,0.4-0.2,1.4-0.7,1.6
	c-0.4,0.2-1.5,0-1.7-0.3c-2.7-4.5-4.1-9.5-5-14.7c-0.1-0.3,0.2-0.7,0.3-1C230.3,207.7,230.4,207.7,230.6,207.7z"/>
<path fill="#231F20" d="M267.5,259.7c-0.2-3.6-0.5-7.2-0.6-10.7c0.2-0.1,0.5-0.2,0.6-0.2c0.2,0.6,0.6,1.1,0.8,1.7
	c0.6,1.9,1.2,3.8,1.7,5.8C270.8,259.2,270.6,259.5,267.5,259.7z"/>
<path fill="#231F20" d="M216.4,288.3c0-4.3,0-8.3,0-12.4c0.1-0.1,0.2-0.1,0.2-0.2c0.3,0.9,0.8,1.7,1,2.7c0.4,2.4,0.6,4.8,1.1,7.3
	C218.9,287.3,218.2,287.9,216.4,288.3z"/>
</svg>
