<?xml version="1.0" encoding="utf-8"?>
<!-- Generator: Adobe Illustrator 17.1.0, SVG Export Plug-In . SVG Version: 6.00 Build 0)  -->
<!DOCTYPE svg PUBLIC "-//W3C//DTD SVG 1.1//EN" "http://www.w3.org/Graphics/SVG/1.1/DTD/svg11.dtd">
<svg version="1.1" id="Layer_1" xmlns="http://www.w3.org/2000/svg" xmlns:xlink="http://www.w3.org/1999/xlink" x="0px" y="0px"
	 viewBox="0 0 1000 1000" enable-background="new 0 0 1000 1000" xml:space="preserve">
<polygon fill="#231F20" points="701.1,284.9 502.1,629.4 303.2,284.9 "/>
<polygon fill="#414042" points="661.3,266.9 502.1,542.5 343,266.9 "/>
<polygon fill="#58595B" points="629.4,242 502.1,462.5 374.8,242 "/>
<polygon fill="#6D6E71" points="604,211.7 502.1,388.1 400.3,211.7 "/>
<polygon fill="#808285" points="583.5,176.9 502.1,318 420.7,176.9 "/>
<polygon fill="#231F20" points="81.3,639.6 280.2,295.1 479.2,639.6 "/>
<polygon fill="#414042" points="121.1,657.6 280.2,382 439.4,657.6 "/>
<polygon fill="#58595B" points="152.9,682.5 280.2,462 407.5,682.5 "/>
<polygon fill="#6D6E71" points="178.4,712.9 280.2,536.5 382.1,712.9 "/>
<polygon fill="#808285" points="198.7,747.6 280.1,606.5 361.6,747.6 "/>
<polygon fill="#231F20" points="528.2,639.6 727.1,295.1 926.1,639.6 "/>
<polygon fill="#414042" points="568,657.6 727.1,382 886.3,657.6 "/>
<polygon fill="#58595B" points="599.8,682.5 727.1,462 854.4,682.5 "/>
<polygon fill="#6D6E71" points="625.3,712.9 727.1,536.5 829,712.9 "/>
<polygon fill="#808285" points="645.7,747.6 727.1,606.5 808.6,747.6 "/>
</svg>
