<?xml version="1.0" encoding="utf-8"?>
<!-- Generator: Adobe Illustrator 17.1.0, SVG Export Plug-In . SVG Version: 6.00 Build 0)  -->
<!DOCTYPE svg PUBLIC "-//W3C//DTD SVG 1.1//EN" "http://www.w3.org/Graphics/SVG/1.1/DTD/svg11.dtd">
<svg version="1.1" id="Layer_1" xmlns="http://www.w3.org/2000/svg" xmlns:xlink="http://www.w3.org/1999/xlink" x="0px" y="0px"
	 viewBox="0 0 1000 1000" enable-background="new 0 0 1000 1000" xml:space="preserve">
<g id="Layer_2">
	<path fill="#00ADEF" d="M840.8,470.4l0.4-22.6l-19.4,10.6l4-25.8l-16.6,1v1l-1-0.2l-9.2,36.2l-60.2,27.8v-25l-28.4,14.4l3-43.6h-1
		l-0.4-1l-66.6,24l-0.2-1.4h-2l2.4-11.6H631v-13.8l4.6-3.8L594,337.8l5.6-4.8l18.4-15.4l12.6,17.6v-8.6L641,340l4-31l18.6,30.2
		l19.8-23.2v0.2l27.6-39.8l5.8,8.2l0.8-0.6l1,0.2L752,174.8L699.6,200l-4.6-35.4l-73.2,37.2l-20-22.8L571,264l-9.4-5.2l-5.6-16
		l-9.8,4.6l11-25l7.4,5.4l20.8-61.8l-22.8-23.6l-78,26.2l-35,22l-16-61l-74.4,23.8v12.2l-23.6,14l-31.4-27.2l-4.6,18.8l-8.6-6.6
		l-6.8,29.4l-41.8-26l-14,43l11-39.2h-48l-12.8,10.8l35.2,72.4v0.2l0.2,0.4l1,2.2l0.2-0.8l7.6,8.8l-8.8,17.6l-20.6,11.8L222,339
		l15.4-12l2.8,8.8l45.2-30.4l-1.6,42.4l11.6,11.6l-4,4.4l-32.6-37.4l-10,51.6l-55,43.4V452l36.4-3.4l29,77L193.8,685l14.6,28.4
		l23.8-4.6l4.8,21.8l12,29.6l23.4,19.8l28.6-12l23.8,31.2L374,717l27,25v8.8l10.4-1.4l21,0.6l20,16.6l87.6,16.2l32.4-56.2l1.4-24.4
		L700,645l6.4,41l35,47.4l5-8.8l4.4,12.2l22.8-25l3.8,6l3.6,69l10.4-30.2l2.8-64.6l13-18.4l-8.6-11.8l-5.4,8.2l-27.6-28.8l-1.4-49.4
		l39.2-6.6l-0.2-1l0.2,1l22-6.6v-17.8l28-9.2v-37.2l5-39.6l6.4-18L840.8,470.4z M810.2,435.8l13.4-0.8l-4,24.8l-18,9.8L810.2,435.8z
		 M800.6,472.4l38.8-21l-0.4,20.4l-25,21.6l-41,18.8l3.2,6.8l-18.8,14.2l4.6-43L800.6,472.4z M739.2,500.8l20.8-9.6l-6.6,62h-15
		L739.2,500.8z M737.2,476.8v23.4l-0.8,53.4l-9.6,5l-54.4-22.4v-5.4h0.2l-2.6-14.6V511L737.2,476.8z M670.2,529.4l-14.4,6V521
		l12.2-3.4L670.2,529.4z M711.8,445.6l-3,43.2L668,509.4v5.8l-12.6,3.6l-9-49.8L711.8,445.6z M450.6,668l5.8-58.6l21.8,13.4v32.6
		l8.2-7.2l3.4,37.8L450.6,668z M469.8,679.2l29.6,21.8l8.2,33l-62.2-13l5.2-50.8L469.8,679.2z M312.8,333.2l37.6,5.2l2.4,7.4
		l-22.4,15.6l-11.2-23.6l0.4-0.4L312.8,333.2z M355.4,346l21.8-35.6l0.4,56L355.4,346z M377.2,368.8l-24,18L331.6,363l22.4-15.6
		L377.2,368.8z M354.4,343.8l-2.2-6.6l-2.6-8.2l18.4-34.2l9-1.4l0.2,13.4L354.4,343.8z M348.8,326.4l-8.6-27.4l25.6-3.8L348.8,326.4
		z M350,336.4l-41-5.8l-18.2-41.2l47.4,9.6L350,336.4z M351.6,388l-18.2,13.8l11.2,4.6l-12.8,6.6l-20.4-24.8l18.8-23.8L351.6,388z
		 M349.4,406l-12-4.8l41.8-31.6l17.2-9l0.2,0.2L412,349l35.8-26.8V361l-15.2-9.2l-33.4,36v13.8l-47.6,34.8l6.6,4.8l13.8-8.8h30v-0.6
		l31-37.2l14.6,8l7.4,22.6l-106.2,29.4l-0.6-15L333,414.2L349.4,406z M395.2,359.2l-15.4,8l-0.6-75v-31.4l9.4,27.4V352L395.2,359.2z
		 M417.2,287.6v-21.4l44.6-15.2l-3.2,23.6v14l-42.8,17.6l0,0L417.2,287.6L417.2,287.6z M531.8,364.4l-57,51.2L434,392.8v-38
		l14.2,8.6l20.6,37l61-60.4l-1.2,19l-0.4,0.4L531.8,364.4z M542.8,436.2l0.6,9.8l-11.2,0.8L542.8,436.2z M534.4,441.6l-0.2-7.2
		l29.2-28.8v7.2L534.4,441.6z M572.4,406.6l10.8,8l7.2,40l8.4,10.6l-6.4-45L613,446l6.4,47.2l-0.8,0.8l-0.2-0.8l-1,2L592,519.6
		l-7.4-26.4l-14,19.4l-18.2-15.8l-7-50.2l-0.8-12.4L572.4,406.6z M576.6,407.2l-4.2-3.2l-6.8,6.6v-7.2l11-10.8V407.2z M534.2,431.6
		L532,367l40.2-36l4.4,59L534.2,431.6z M533.2,363l-2.4-3.4l47-44.2l-5.8,12.8L533.2,363z M530.6,357l1.2-19l10.2-7.4l1.4,14.4
		L530.6,357z M460.6,287.8v-11l9.6,7L460.6,287.8z M498,270.6l3-20.2l6.8-2.6V266L498,270.6z M509.8,265v-20.2l-9.6,3.8l-13.2-5.8
		l34.4-22.6l-8.2,43.2L509.8,265z M499,250.2l-3.2,21.4L472.2,283l-5.4-3.8l2.8-16.4l8.8-18.6h6L499,250.2z M465.2,277.6l-4.6-3.4
		l1-8l5.8-2.4L465.2,277.6z M431.4,332l-18.8,14.2l3-38L431.4,332z M410.6,347.6L397,358l-6.4-7v-63l1.2-26l23.4,26.4L410.6,347.6z
		 M431.8,355.8v37.4l-30,35.8l-0.8-26.8v-13.6L431.8,355.8z M399.6,415l0.4,15.6h-25L399.6,415z M371.2,430.6h-0.4v0.2L358,439
		l-3.2-2.4l44.4-32.4l0.2,8.4L371.2,430.6z M467,472.4l4.2-6.4l26.8,66.2l-12.4,2.2L467,472.4z M482,529.8l-22.2,19.4L434,494.4
		l31.2-20.6L482,529.8z M465.2,471.4l-31.8,21l-1-2L432,493h-3l-11.6,12l-2.2,31.6l-29.4,42.6l-6.8-8l-4-111l15,15.6l34-28.4V436
		l31.2-8.6l14.6,36.2L465.2,471.4z M369.4,451.2l53-14.6v9.8l-32,26.6L369.4,451.2z M376.4,550.8l0.8,21.2l8.8,10.6l6.4-9.4l8.6,8.8
		l8.6-14l-3.6,23l-20,29.4l-7.8-13.6l-16.8-35.2L376.4,550.8z M400.8,578.8l-7.2-7.4l20.8-30.2l-3.8,21.6L400.8,578.8z M347.6,494
		l-16.8,26.8l-7.4-8.2L347,472L347.6,494z M346,440.4l0.8,18.4l0,0l0.2,9.4h-0.2l-38.4,66l-6-31l41.6-65.8L346,440.4z M322.4,514.4
		l7.2,8.2l-11.8,19l-8.4-5L322.4,514.4z M347.8,497.4l4.4,70.2L335,588l-8.4,5.6l-25.2-22.2L347.8,497.4z M353.4,569.2l6,3.2
		l16,33.2L349.2,595l-11.8-6.6L353.4,569.2z M350.2,611.6l-13.8,15.8L323.2,639l-7-5l6.8-9.6l25-26.4L350.2,611.6z M350.2,614.6
		l-1.4,51.2l-10.6-37.4L350.2,614.6z M393.4,685.8l19.2-122.4l4.6-26.2l2.2-31.4l10.4-10.8h2l-28,218.4L393.4,685.8z M433.4,497.4
		l26.4,56l-4.6,49l-43,60.8L433.4,497.4z M488.4,646.6l7.8-6.8l2.2,26.2H490L488.4,646.6z M497.8,638.2l18.8-16.8l15.4,44.8
		l-3.2,10.8l-28.6-10.6L497.8,638.2z M480.4,651.2v-27v-17l18-24.6l19.6,34.8L480.4,651.2z M478.6,606.2l-0.2,0.2v14l-21.6-13.2
		l5-54V553l-1-2.2l22-19.2l1.4,4.6l14.6-2.4l11.8,29L478.6,606.2z M457.2,425.8l-7-21.6l23.8,13.2l10.2,34.4l59.4-4l7,49.4
		l-38.8,63.6L457.2,425.8z M551.8,499l17.8,15.2l-14,17.6l-16.2-12.6L551.8,499z M556.6,534l14.4-18.4l0,0l12.8-17.8l6.8,24
		l2.2,15.2l-46,41.8l-7.4-19.8L556.6,534z M593,539.4l0.6,3.8l0,0l0.2,1.4l-44,42.4l-2.2-6.2L593,539.4z M594.2,547l7,49L565,628.2
		L550.6,589L594.2,547z M594.8,537.6L594.8,537.6v-0.2l-2.2-15.6l22.2-21.2l-19.6,39.2L594.8,537.6z M618,498.6l19.2,52.4l1,6.6h0.2
		l2.6,12l-44.8-27L618,498.6z M619.4,496.4l8.8-8.4l7.6,53.4L619.4,496.4z M640,555.8l14.8-13l1.8,2l-14.8,19.6L640,555.8z
		 M575.6,351.2l-1.6-22l10-22l-38.6,36.4l-1.2-14.2l0,0l-4-35L607,252l-8.8,22.2L576.4,289l21.4,43L575.6,351.2z M663.6,335.8
		l-20.2-32.6l-4,31.8l-11-14.2v8.2l-10.2-14.4L599,330.4l-20.4-41l20.6-14l55.6-24.8l27.4,63.2L663.6,335.8z M698,203l50.6-24.2
		l-31.4,103l-6.4-8.8l-27.2,39L656,248l-28.4,12.6l-8.2-25.8l15.8-7L698,203L698,203z M572,267l30.4-84.2l17.6,20l-20,15l32,9.4
		l-15,6.6l9,27.6l-25.2,11.2l10.2-25.8l-59,37.4l2.6-24h6.2L572,267z M555,245.6l4.6,13h-6.8l-3,27.2l-6.2,4l-8.8-34.4L555,245.6z
		 M485.4,192.2l0.4-22l76-25.6l21.2,21.8l-19.4,58.2l-5.6-4.2l13-43.4l-47.2,12.6v-11l-37.2,15.8l-2.6-2.2L485.4,192.2z M488.2,196
		l33.6-14.2v8.6l-30.8,8.2L488.2,196z M488.8,199l-9.8,2.6v-11.4L488.8,199z M449.4,193l34.4-21.6l-0.4,20.4L477,186v16.2
		l-39.2,10.4l-3.6-3.4L449.4,193z M568,180l-12.2,40.6l-12.4,28.2l-28.2,13.4l8.8-46.4l-39.8,26H477l-9.2,19.6L462,264l2.2-15.8
		l-49,16.8v20.6L390,257l-1.2,25.8l-11.6-34v42.4l-37.2,5.6l2.8-56.8L568,180z M350,236.2l-7.2,2l0.8-16.4L350,236.2z M343.8,217.4
		l0.8-15.4l14.8,0.6V234l-7.2,2L343.8,217.4z M336.6,181.4l22.6-13.4v32.6l-15.4-0.6l-7.2-2.4V181.4z M342.4,201.6l-4.6,95.4
		l-50.4-10.2l8.2-47l1-0.6l-0.8-1.2l5-27.8l34.4-10.8L342.4,201.6z M301.2,173l4.2-17l29,25.2v16.2l-35.2,11.2l-4.8,27l-1-1.6
		L301.2,173z M216,254.6l27.4-83.6l40.4,25l-12.4,58l-13.4,4.2l-15-22l-18.8,27.4L216,254.6z M225,266l17.8-26l13.2,19.2l-38.8,22.4
		L225,266z M285.4,303l-44.2,29.6l-2.2-7l46.4-36.2V303z M222.4,336l-26.2-40.2l61.6-35.4l15.2-4.8l0.6-2.4l20-12l-8,45.8L222.4,336
		z M285.8,347.2l1.6-43v-15.4l0.8,0.2l19,43.2l9.2,5.6l-19.8,20.4L285.8,347.2z M297.6,360.2l20.4-21l11.2,23.4l-18.8,23.8l-17.4-21
		L297.6,360.2z M230,446.6l-34.2,3.2v-27l52.2-41.2L230,446.6z M287.4,567.4l-4.6-81.2l0.2-0.2l-3.2-5.2V460h4.2l15.2,111.4l-1.6,3
		L287.4,567.4z M296.6,576.2L286.4,604l-14-49l11.8,5.6l0.6-1.2l0.4,8.8L296.6,576.2z M237,461.2l12.2,22.8h30.2l1.2,2l-20.4,37.2
		L237,461.2z M209.4,711L196,684.8L261.2,526l20-36.6l3.8,69.4l-15.4-7.2l10.4,36.2h-10l7.6,31.6l-6.4,13.4l-3.8-4.6l-35,78.8
		L209.4,711z M233.8,707.6l33.6-75.8l2.2,2.8l-15.4,31.8v17.2l-17,40L233.8,707.6z M238.8,730l-0.6-3l18.2-42.8V667l23-47.6
		l-7.2-29.8h8l6,21l12.4-34.4l1.8-3.2l26,23l9.2-6.4l11.2,6.2L322.6,622l-7.6-22.2L245.6,747L238.8,730z M246.8,749.4l68-144.4
		l6.4,18.6l-7.6,10.8l9.8,7l10.2-9l-28.8,84.2L250.2,758L246.8,749.4z M301,766l-28,11.6l-21.4-18.2l54-40.8l15.4,27L301,766z
		 M324.8,795.8l-22-28.8l19.2-19.4l16.4,25.2L324.8,795.8z M339.6,770.8L323,745.4l-16.2-28.2l29.6-86.8l0.2-0.2l11,38.8l1-0.4
		l-1.2,40l14.4-3l10.6,9.8L339.6,770.8z M375.2,715.4L375.2,715.4l-10.8-10l32-6.4l7,18.6l-1.8,22L375.2,715.4z M407.4,747.8
		l-4.4,0.6v-6.8l2-24.2l6.4-50l43.2-61L443,721.2L407.4,747.8z M411.6,747.2l32.8-24.2l59.2,12.2l-70.8,12.6L411.6,747.2z
		 M435.2,749.4l13-2.4l3.2,15.8L435.2,749.4z M453.6,764.6l-3.6-17.8l58.4-10.4l29,43.8L453.6,764.6z M512.8,739.4l22.8,16.8
		l1.4,19.6L512.8,739.4z M539.4,779.6l-0.2-0.4l-1.6-23l30.2-25.6L539.4,779.6z M669.2,656.8l3.8-12.2L545,697l-26.6-77.2l2.2-2
		l-21-37l11.6-15.8v0.2l27-44.2l16,12.4L537,558.2l27,73.2l25.8-23l8.4,27.6l48.8-16.2l10.6,11l38.8-14l3.4,25.8L669.2,656.8z
		 M741.4,729.6l-33-44.6l-6.6-41.8l-3.6-27l49-17.6l-0.6-1.8l-88.4,31.8l-9-9.4l111.2-37l2,8.6l1.2,48.2L744,620.2L731.8,698v0.4
		l13.8,23.6L741.4,729.6z M789.8,756l-7,20.2l-3-58.6l12.4-22.2L789.8,756z M793.4,673L793.4,673l5.4-7.6l6,8.2L792.6,691
		l-13.8,24.6l-4.4-7l-0.2,0.2l-8-8.4L793.4,673z M823.8,577.2l-20.6,6.2l-39,6.6l-2-8l61.6-20.4V577.2z M852,513.4l-66,20.8
		l-10.2-21l81-37L852,513.4z M857,473.6l-36.6,16.8l20-17.4l21-12L857,473.6z"/>
</g>
</svg>
