<?xml version="1.0" encoding="utf-8"?>
<!-- Generator: Adobe Illustrator 17.1.0, SVG Export Plug-In . SVG Version: 6.00 Build 0)  -->
<!DOCTYPE svg PUBLIC "-//W3C//DTD SVG 1.1//EN" "http://www.w3.org/Graphics/SVG/1.1/DTD/svg11.dtd">
<svg version="1.1" id="Layer_1" xmlns="http://www.w3.org/2000/svg" xmlns:xlink="http://www.w3.org/1999/xlink" x="0px" y="0px"
	 viewBox="0 0 1000 1000" enable-background="new 0 0 1000 1000" xml:space="preserve">
<path fill="#FFFFFF" d="M309.7,646.6c-2.5,0-4,0.5-4.5,3.5c-0.5,3.5,1,5.5,4,7c2.5,1.5,4.5,0.5,6.5-1.5c3-3.5,3.5-7.5,0.5-10.5
	c-1-1-3.5-1-5.5-1.5C310.7,643.1,310.2,645.1,309.7,646.6L309.7,646.6z"/>
<path fill="#FFFFFF" d="M306.2,628.6c0.5-0.5,1.5-0.5,2.5-1c-2.5-9.5-5.5-19.5-8.5-29.5c-2.5-9-7-17.5-8.5-27c-3-17-1-34.5,2.5-51
	c2-9.5,7.5-17,18.5-18.5c5.5-0.5,12-2,16-5.5c5.5-5,9.5-11.5,13-18c3.5-6.5,5-13.5,8-20c0.5-2,2.5-3.5,4.5-4.5c6.5-3,13.5-2,19.5,1
	c9.5,5,16,13,20.5,22.5c4.5,9,7.5,19.5,9.5,29.5c2.5,12.5,4.5,25,5.5,38c1,12,1,24.5,1,37c0,8-1,16.5-1.5,25c0,12,1.5,24,8.5,34.5
	c4,6.5,10.5,7.5,16,2.5c3.5-3.5,6.5-7.5,9.5-11c2-2.5,1-4.5-1-7.5c-1,1.5-2,3-3,4c-2.5,4-5.5,7.5-8,11c-2,2-4,2-7,1
	c-4.5-2-6-6-7.5-9.5c-5-12.5-5-25.5-4.5-38.5c0.5-15,2-30.5,0.5-45.5c-1.5-18-3-36-8.5-53.5c-3.5-11-7.5-21.5-14.5-30.5
	c-7-8.5-15.5-15-26.5-16c-8-0.5-15,1.5-18.5,9c-3,6.5-5,13-7.5,19c-3.5,8.5-7.5,16.5-17.5,19.5c-3,0.5-6,1.5-8.5,2
	c-9.5,2-16,8-19.5,17c-4.5,13.5-5,27.5-5.5,41.5c0,10,0.5,19.5,4,28.5c4.5,12.5,10,25,12,38.5C303.7,625.1,305.2,626.6,306.2,628.6z
	"/>
<path fill="#FFFFFF" d="M220.7,390.1c0.5-8.5,0.5-18.5,6.5-27.5c5.5-8.5,8.5-9.5,18.5-7.5c4.5,1,9,1,13.5,1c2.5,0,6-0.5,7.5-2
	c5-6,10-12,14.5-18.5c3-4,4.5-9,7-13.5c2-4.5,7.5-7.5,12-7.5c12,0,18,11,16,21c-0.5,3-1,6-1.5,9c-1,6,1,9.5,7,11.5
	c7,2.5,12.5,0,18.5-3.5c1-0.5,1-2.5,2-3.5c-1.5,0-3-0.5-4,0c-2.5,0.5-5.5,2-8,3c-7,1.5-11.5-2.5-10.5-8.5c0.5-2,1-4,1-6
	c1.5-8.5-1-22.5-12-25.5c-7.5-2-17-0.5-21,5c-3.5,5.5-6.5,11.5-9.5,17c-1.5,3-3,6-5.5,8.5c-2,3-5,6-8,8c-1.5,1-3.5,2-5.5,2
	c-6.5,0-12.5-1-18.5-1.5c-5-0.5-10,0-13,4.5c-3.5,5.5-7,11.5-8.5,17.5c-4,16-3,32,1,48c4,15.5,12.5,29,20,43c5,8.5,6,18.5,6.5,28
	c0.5,10-1.5,20-5,30c-1.5,6-5.5,10.5-10.5,14c-7,4.5-13,2.5-17-3c-0.5-1-2.5-1-4.5-1.5c-0.5,0-1.5,1-1.5,1.5c0,1,0.5,2.5,1.5,3.5
	c2.5,1.5,5,3.5,8,5c4,2.5,8,2.5,12,0.5c5-3,10.5-5.5,12.5-11c2.5-7,5.5-13.5,6.5-20.5c1.5-9,1.5-18.5,1-28c-0.5-12-7.5-22-13-32
	C226.7,430.6,220.7,412.1,220.7,390.1z"/>
<path fill="#FFFFFF" d="M430.7,598.1c0.5-2,2-4,2-6c0.5-7,1-14,0.5-21c-1-11.5-2.5-23-4-34.5c-2-16.5-3.5-33.5-5.5-50.5
	c-1-8-1-15.5,5-21.5c3.5-3.5,7.5-7,11-11c4-4,9-8,10.5-13.5c3-8.5,3-17.5,1.5-26.5c-1.5-9-4.5-17.5-9.5-25c-7-10.5-13-22-21-32
	c-8-10.5-15.5-21-17-34.5c-1-7,1-11.5,7.5-13.5c3.5-1,7.5-1,11-0.5c9,1.5,18,3.5,27,5c1.5,0,3.5-1,5-1.5c-1-1-2.5-2.5-3.5-3.5
	c-1-0.5-2.5-0.5-3.5-1c-8.5-1.5-17-2.5-25-4c-5-1-9-0.5-13.5,1c-6,2.5-9.5,7-9.5,14c0,13,5,24,13,34.5c8,11,16.5,22.5,24,34
	c9,14,13,29,11,45.5c-0.5,5.5-2.5,10-7,13.5c-3.5,3-7.5,6-10.5,9c-6.5,6-11.5,13-11.5,22c0,9.5,0.5,19.5,1.5,29
	c2.5,20.5,5.5,40.5,7.5,61.5c0.5,8,0,15.5,0,23.5C428.7,593.6,427.2,596.1,430.7,598.1z"/>
<path fill="#FFFFFF" d="M256.2,646.6c-2,3-2,4,3,5.5c10.5,3.5,19,8.5,24.5,18.5c3,5.5,6,11,9,16c5.5,9.5,11,19,21,25
	c4,2.5,8.5,6,13,7c8,1.5,19-7,22.5-16c3.5-8,5-16.5,5-25.5c0-8.5,0-17-2.5-25.5c-3.5-13-8-25.5-12.5-38.5c-5-15.5-6-31-4-47
	c0.5-4.5,2.5-5.5,6.5-3c5.5,4,9,9.5,9.5,16c0.5,3.5,1.5,7,2,10c0.5,3.5,3,5,6.5,4.5c7.5-0.5,12-5.5,15.5-11c4.5-7,3-14.5,2.5-22
	c0-0.5-1-1-1.5-2c-0.5,0.5-1.5,1-1.5,2c0,2.5-0.5,5-0.5,7.5c1,8-2,14-8,18c-2,1.5-5,3-7,2.5c-1.5-0.5-2.5-4-3-6.5c0-10-3.5-18-12-24
	c-2-1.5-6-1.5-8.5-1.5c-3.5,0-4,3-4,6c0,8.5-0.5,17-0.5,25.5c0,11.5,3.5,22,7.5,32.5c3.5,10,8,20.5,10,31c3,13,3,26,0,39
	c-1.5,8.5-6.5,15-13.5,20c-3.5,2.5-8,2.5-11.5,0c-5.5-3.5-12-7-16-12c-6.5-8-12-17.5-17-26.5c-5-8.5-10.5-16.5-19-21.5
	C266.2,650.1,261.2,648.6,256.2,646.6z"/>
<path fill="#FFFFFF" d="M514.2,540.6c3,2.5,6,4,7,6.5c4.5,8.5,9.5,16.5,12,26c3.5,13,5,26.5,7.5,39.5c2.5,15,4.5,30,6.5,45
	c1,7,1,14,1,21c0,1.5-1.5,4-2.5,4c-1.5,0-4-0.5-5-1.5c-3.5-3-7-6.5-8-11c0-1-1.5-1.5-2.5-2c-0.5,1-1,2-1.5,3c0,0.5,0,1.5,0,2.5
	c2,7,8,10.5,13.5,13.5c5.5,2.5,10-0.5,11-6.5c0.5-4,0.5-8,0-11.5c-2.5-19-5-38.5-8-57.5c-3-17.5-3.5-35.5-11.5-51.5
	c-3-6.5-7-13-11.5-18.5c-3.5-5-10-4.5-12,0c-2,5-3.5,10-4,15c-0.5,8,0,16,0,24c0.5,9.5,2,19,7,28c2.5,5,5.5,6,10,2
	c3.5-3,6-16,3.5-20.5c0-0.5-1-1-2-1c-1,0-1.5,0.5-1.5,1.5c-0.5,2-0.5,4.5-1,6.5c0,2.5,0,5.5-0.5,8c0,1-1,2.5-2,2.5c-1,0-2.5-1-3-1.5
	c-1-2.5-2.5-5-3-8c-3.5-15.5-4-30.5-3-46C510.7,548.1,512.7,545.1,514.2,540.6z"/>
<path fill="#FFFFFF" d="M768.2,380.6c0.5,0,1,0.5,1.5,0.5c0.5-0.5,1.5-1,2.5-2c4-5,8.5-10,11.5-15.5c6.5-11,12-23,17.5-34
	c3-6,7.5-11,14-12.5c5.5-1,11-1,17-1c8,0,16-1,20.5-9c3-5,5.5-10.5,8-16c1.5-3.5,3.5-4.5,7-3.5c5,1.5,8.5,4,12,8
	c8,11,14.5,22.5,18.5,35.5c0.5,1.5,1.5,3,1.5,4.5c-1,8-1,17-8,23.5c2.5,4.5,4.5,4.5,6.5,0c2-4.5,4-9,5.5-14c1.5-6,2.5-12.5-0.5-18.5
	c-3.5-7-5.5-15-9.5-21.5c-6-9-9.5-20.5-22.5-23.5c-7-1.5-10-1.5-13.5,5c-2,4-3.5,8.5-5.5,13c-3.5,7.5-9,11.5-17.5,10.5
	c-6-0.5-12-1-17.5,0c-8.5,2-14.5,8-18.5,16c-2,4-4,8-5.5,12.5c-5.5,13-13.5,24.5-21.5,35.5C769.2,377.1,768.7,379.1,768.2,380.6z"/>
<path fill="#FFFFFF" d="M185.2,518.1c0-14,1.5-21,6.5-26c0.5-1,3-1.5,4-1c2.5,1,5,2.5,7,4.5c3.5,3.5,7,7.5,10.5,11c7,7.5,14,7,18-1
	c0.5-1,0-2.5,0-3.5c-1,0-2.5,0-3,1c-5.5,6-6,6-11.5,0c-1-1-1.5-2-2.5-3c-4.5-4-9-8.5-14.5-12.5c-5-3.5-9-2.5-12,2.5
	c-3,5.5-5,11.5-6,17.5c-2,16.5,2.5,33,6,49c2,10,3.5,20.5,2.5,30.5c-1,10.5-5.5,19.5-15,25c-4,2-7.5,5-11,7.5c-6,4-10.5,9.5-11.5,17
	c-1.5,11-0.5,21.5,6,31c4,5.5,8,10,12,15c0.5,0.5,2.5,0.5,4,0.5c0-1,0-2.5-1-3.5c-1.5-2-4-4.5-6-6.5c-8-9-13-19-11.5-31.5
	c0.5-6.5,2-12.5,8-16c4.5-3,9-6.5,13.5-9.5c11-7.5,16-18,17-30.5c1-14-1.5-27.5-5-41C187.7,534.1,186.2,524.6,185.2,518.1z"/>
<path fill="#FFFFFF" d="M116.7,646.6c0,0,0.5-0.5,1-0.5c1.5-5,2.5-9.5,4.5-14.5c2.5-5.5,6.5-10.5,8.5-16c4.5-9,8-18,8-28.5
	c-0.5-20-5.5-39-12.5-57c-5.5-14-12-27.5-18.5-41c-6-12-9-25-9-38.5c0-3.5,1-7,1.5-10c0.5-2.5,2.5-3.5,4.5-2.5c3,1,6,3.5,9,5
	c1.5,0.5,3,1,4.5,1.5c0-1.5,0-4-0.5-5.5c-3-4.5-8-6-13-7c-4.5-0.5-7,1.5-8,6c-2,6.5-1,13.5-1,20c0.5,15.5,7,29,13,42.5
	c3.5,8.5,8.5,17,12,25.5c4,11,8,22,10.5,33.5c2,9.5,3.5,19.5,3.5,29c0.5,12-5.5,22.5-11,33c-3,5.5-8,10.5-8,17.5
	C115.7,642.1,116.2,644.1,116.7,646.6z"/>
<path fill="#FFFFFF" d="M641.7,675.1c1,1.5,2.5,2.5,3,3.5c1.5,4.5,3.5,8.5,4,13c1,6.5,0.5,12.5-2.5,18c-1.5,3.5-5,5-7,3
	c-4-4-8-7.5-11-12c-5.5-9-9.5-19-14-28.5c-3-6.5-5.5-13.5-12-17.5c-5.5-3-11-5.5-16-9c-3.5-2.5-7-6-8.5-10c-3-7.5-5-16-8-23.5
	c0-1-1.5-1.5-2.5-2.5c-0.5,1-1.5,2-1.5,3.5c0.5,10,4,19.5,8.5,28c2,4,6.5,7,10.5,9.5c5,3.5,11,6,16,9.5c2.5,2,4.5,5,6,8
	c6,11.5,11,23.5,17.5,34.5c3,5.5,8.5,9.5,13.5,14c2.5,2,5.5,1.5,8.5,0c5-3,6.5-8,8-13.5c2-10,0-19-4.5-28c-1.5-3-4-5-8-4.5
	c-1.5,0-4.5,1.5-4.5,3c-1,4-1,8.5-1,12.5c0,0.5,0.5,2,1,2.5c1.5,0.5,3,0.5,5,1c0-1,0-2.5-0.5-4C640.2,683.1,639.2,679.6,641.7,675.1
	z"/>
<path fill="#FFFFFF" d="M407.2,696.6c-1-10-1-20.5-3-30.5c-2.5-10.5-6-21-10-31c-3-7-8-13-15.5-16.5c-1-0.5-3.5,0-4.5,0.5
	c-5.5,4-8,10-7,16.5c1.5,8.5,5,16,11,22.5c5,5,8.5,10.5,8,18c-0.5,7-1.5,14-2.5,20.5c-2.5,11.5,0,21,8,29c4.5,4.5,8.5,3.5,10-2.5
	C403.7,714.6,405.2,705.6,407.2,696.6z"/>
<path fill="#FFFFFF" d="M757.7,585.6c-2.5-3-5-3-7-0.5c-4.5,6.5-9.5,16.5-4,26c3.5,6.5,10,8,16,3.5c2-1.5,3.5-3,5.5-4.5
	c6.5-5.5,13.5-8,22-7c2,0.5,4,0.5,6.5,0.5c5.5,0,11,0.5,16-4c8-8,11.5-17,10.5-28.5c-1-8.5-7-15-15.5-14c-6.5,0.5-12.5,2.5-18.5,4.5
	c-7,2.5-14.5,4.5-19,11C765.7,577.6,761.7,581.1,757.7,585.6z"/>
<path fill="#FFFFFF" d="M226.7,641.6c0-4.5-0.5-8.5-0.5-13.5c0-13.5-4-25.5-10-37.5c-1-2-5-3-7.5-3.5c-3-0.5-4,2-4.5,5
	c-1,6-2.5,12-4,18c-2.5,9.5-5.5,19-12,27c-4.5,5-9,10.5-7.5,18c1,5.5,3.5,10.5,5.5,15.5s9.5,8,14.5,7
	C217.2,674.1,227.7,656.6,226.7,641.6z"/>
<path fill="#FFFFFF" d="M678.7,314.6c-1,2-2.5,3.5-3,6c-3,11.5-3,23,0,34.5c3,13,8.5,24,19.5,32c5.5,4,13.5,3.5,18-1.5
	c4.5-4.5,4.5-10,3.5-15.5c-0.5-5.5-2.5-10.5-3.5-16c-1.5-8-4-15.5-8.5-22c-4-5.5-8-11-12-16c-3.5-4.5-9-7-13-5c-1,0.5-2,1-2,2
	C677.2,313.1,678.2,314.1,678.7,314.6z"/>
<path fill="#FFFFFF" d="M186.7,429.1c-0.5,0-0.5,0-1,0c1,9,2.5,18,3.5,27c0,2,1,4.5,2.5,6c4,4.5,8,8,12.5,12.5
	c2.5,2.5,5,4.5,8.5,3.5c4-1,6.5-4.5,6-8.5c-0.5-5.5-1.5-11.5-3.5-16.5c-2-6-6-11.5-8-17.5c-3.5-8.5-4.5-18-4-27.5
	c0-4.5-4.5-10.5-7.5-11c-5.5,0-5.5,4.5-6,8C187.7,412.1,184.2,420.1,186.7,429.1z"/>
<path fill="#FFFFFF" d="M188.7,372.1c-0.5-0.5-1.5-2-2-2c-1,0-3.5,0.5-4,1.5c-3.5,7.5-7.5,14.5-10,22c-5,13.5-3.5,28-4,42.5
	c-0.5,13.5,0,26.5,0,39.5c0,12.5-4,24-9.5,34.5c-4,7.5-7,15.5-10,23c-0.5,1,0,2.5,0,4c1-0.5,3-1,3.5-2c7.5-14,14-28,18-43
	c5-17.5,3-36,3-54c0-14,0.5-27.5,2.5-41c1.5-8,4-16.5,10.5-22.5C187.7,374.1,188.2,373.6,188.7,372.1z"/>
<path fill="#FFFFFF" d="M272.7,419.6c-5-1.5-4.5,3-6,5c-5,7-4.5,14-2.5,21.5c1,3.5,2.5,7.5,5,10c8.5,9,13,19,10,32c-1,5,2,9,7,10
	c8.5,1,17.5-5.5,19.5-14c3-11,0.5-21-4-30.5c-4.5-9-10-17.5-16-25.5C282.7,424.1,278.2,421.6,272.7,419.6z"/>
<path fill="#FFFFFF" d="M312.2,530.6c1,8,4,12,10.5,12.5c2,0,4.5-1.5,7-1.5c7.5,0,12-5,16.5-10c3.5-4.5,8-4.5,12.5-3.5
	c2,0.5,4,1,6.5,1.5c4,0.5,7.5,0.5,10.5-2c10.5-11,2-27.5-7-33c-4-2.5-8-0.5-12.5,0c-10,1-17.5,7-25,12.5c-6,4.5-10.5,11-16,16.5
	C313.7,525.1,313.2,528.1,312.2,530.6z"/>
<path fill="#FFFFFF" d="M496.7,562.1c1-6.5,2-16,4.5-25.5c1.5-6,4-12,9-16c1.5-1,3.5-2,5-2c6.5,0,10,5,13.5,9.5c2,3,3,7,5,10
	c0.5,1,3,1.5,5,2c0-1,1-2,0.5-3c-3.5-8-8-16-15.5-21c-7-4.5-13-4.5-17,0.5c-2.5,3-5,7-7,10.5c-6.5,12-7.5,24.5-7.5,38
	c0,15-2,29.5-8,43.5c-1,2.5-3,5-4.5,7.5c-0.5,1-2,3.5-1.5,4c1.5,2.5,3.5,0.5,5-0.5c1-0.5,2-1.5,2.5-3c2.5-5,5-10.5,7-16
	C496.2,589.1,497.7,577.1,496.7,562.1z"/>
<path fill="#FFFFFF" d="M275.7,710.1c0-2,0-4-1-5.5c-2.5-4.5-9-6-13.5-4c-2.5,1-5,2-8,3c-7,2-9.5,1.5-13.5-4.5c-4-6-9.5-9-16-10.5
	c-3-0.5-8,0-10,1.5c-6,4-11.5,9.5-16.5,14.5c-5.5,5.5-10.5,11-16,16.5c-6.5,6-13,6-19-0.5c-4.5-4.5-8-9.5-12.5-14.5
	c-0.5-1-2.5-1-3.5-1.5c0,1-0.5,3,0,4c4.5,6,9,11.5,14,17c5,5.5,14,6.5,20,2c3.5-2.5,7-5.5,10-8.5c7.5-7.5,15-15.5,22.5-23
	c3-3,6.5-3.5,10.5-2.5c6,1.5,10,5,14,9.5c4,5.5,9,9,16,5.5c1-0.5,2-0.5,3-1c3-0.5,6-2.5,9-2C268.2,705.6,271.7,707.6,275.7,710.1z"
	/>
<path fill="#FFFFFF" d="M241.2,774.1c5,3,6,7.5,8,11.5c0,0.5,1.5,1,2.5,1.5c0.5-1,1.5-2,1.5-3c-2-4.5-3.5-8.5-6.5-12.5
	c-3-4-8-3-10.5,1.5c-1,2.5-2,5-3.5,7.5c-3,6-6,12-10,17.5c-4.5,6-8,5-11.5-1c-0.5-1.5-1.5-3-2-4.5c-1.5-7-3-14.5-5-21.5
	c-3-10.5-11-16.5-20.5-20.5c-3-1.5-7.5,0-11.5,0.5c-0.5,0-1,1.5-1.5,2.5c0.5,0,1.5,1,2,1c10.5-2.5,16.5,4,22.5,11
	c5.5,6.5,5,14.5,7.5,22c1.5,5,3.5,10,6,15c2.5,4.5,5,5,10,3.5c7.5-2.5,11-8.5,14-15.5C235.7,785.1,238.2,779.6,241.2,774.1z"/>
<path fill="#FFFFFF" d="M129.7,731.6h-0.5c0-2-0.5-4.5-1-6.5c-1.5-10-3.5-20-8-29.5c-6-11.5-11-23.5-14-36c-4-16-4-32,8-46
	c0.5-0.5,1-1,1-1.5c0-1,0-2,0-3.5c-1,0-3,0-3.5,1c-2,2-4,4.5-5.5,7.5c-5.5,10-7.5,21-6,32c2,18,9.5,34,16.5,50.5
	c4.5,9.5,7,20,8,30.5c0,3.5-1,7-2,10.5c0,1,0,2,0,3.5c1-0.5,2.5-0.5,3-1.5C127.2,739.1,128.7,735.6,129.7,731.6z"/>
<path fill="#FFFFFF" d="M158.2,388.6c-3.5-1.5-5,0.5-6,3c-3,7.5-4,15.5-4,23c0.5,13.5,2,27.5,2.5,41c0,5.5,0,11.5-0.5,17
	c-1.5,15.5-7,29.5-14,43c-0.5,1,0.5,2.5,1,3.5c1-0.5,3-0.5,3.5-1.5c1.5-2,2-5,3-7.5c6.5-14,11-28.5,11-44c0-12.5-1.5-25-2-37.5
	c-0.5-13-2.5-26,4.5-38.5C158.7,390.1,158.2,389.6,158.2,388.6z"/>
<path fill="#FFFFFF" d="M808.7,426.1c0,11.5,3.5,16.5,11,19s23.5-3,27.5-13.5c3.5-9.5,2-18.5-2-27c-1.5-4-12-9.5-15.5-8.5
	c-6,1.5-11.5,4.5-15.5,9.5C809.2,411.6,809.2,419.6,808.7,426.1z"/>
<path fill="#FFFFFF" d="M497.7,355.1c-0.5,0-1.5,0-2,0c0,1.5-1,3.5-0.5,5c5.5,17,12.5,33,21.5,48.5c5.5,8.5,12,15.5,22,19
	c10.5,3.5,21.5,5.5,33,5c1.5,0,2.5-1,4-1.5c-0.5-1-1.5-2.5-2.5-3.5c-1-0.5-2-1-3.5-1c-4.5,0-9,0-13.5,0c-16-1-29-8-37-22
	c-7.5-13-14.5-26.5-18.5-41C500.2,359.6,498.7,357.6,497.7,355.1z"/>
<path fill="#FFFFFF" d="M180.7,580.6c0,0-0.5,0-1-0.5c-0.5-2.5-0.5-5-1-8c-1-8-3.5-15-9.5-20.5c-2.5-2-5-3.5-8.5-2
	c-8.5,4-12,11-10.5,20.5c0.5,3.5,0.5,7,1,10c1.5,8,2,16.5,9,22.5c4,3.5,9.5,3,12-1.5C175.7,594.1,177.7,587.1,180.7,580.6z"/>
<path fill="#FFFFFF" d="M567.7,410.1c5.5-0.5,9-0.5,13-1.5c1,0,2-2,3-3.5c-1.5-0.5-3-1.5-4.5-1.5c-7.5,0-14.5,0.5-22,0
	c-4.5,0-9-1-12.5-3c-13.5-8.5-22.5-21.5-28-36.5c-2-5.5-5-10.5-7.5-15.5c-0.5-1-2-1.5-3.5-2c0,1.5-0.5,3.5,0,4.5c2,4.5,4.5,9,6.5,14
	c2.5,5.5,4.5,11,7.5,16c2.5,4,6,8,8.5,11.5c6.5,8,14,15.5,25,16C558.7,408.6,564.2,409.6,567.7,410.1z"/>
<path fill="#FFFFFF" d="M274.2,520.1c-0.5,0-1,0-2,0c-0.5,1.5-1,2.5-1,4c-1,9-1.5,17.5-4.5,26.5c-3,8-8,10.5-16,8.5
	c-13-2.5-28.5,2-26.5,19.5c0.5,7,4.5,12.5,12.5,10c3-1,5.5,0.5,6.5,3c1,2,1,5,1.5,7.5c0,1,1,2.5,1.5,3.5c1-1,2.5-2,2.5-3
	c1-5-0.5-9-3.5-13c-2.5-3.5-6.5-3.5-10-2.5c-3,0.5-5.5,0-6.5-3.5c-3-11,2.5-18,13.5-18c3,0,6.5,0.5,9.5,1c6.5,0.5,13.5-3,16-8
	c4.5-9.5,6.5-20.5,6.5-31C275.2,523.6,274.7,521.6,274.2,520.1z"/>
<path fill="#FFFFFF" d="M729.2,585.6c1-5-2.5-10-5.5-15c-1.5-2.5-4-5-7-6.5c-2-1-6-0.5-7.5,0.5c-5.5,5-9,11.5-9,19.5
	c0,6-1,12.5-2.5,18c-0.5,3.5,2,10.5,6,10.5c5,0,10.5-1,14.5-3.5C725.7,604.6,729.7,596.6,729.2,585.6z"/>
<path fill="#FFFFFF" d="M667.7,403.1c-1-10.5-3-20-14-25.5c-7.5-4-11.5-1-14,6.5c-2,7.5-2.5,15,0,22.5c2,6,5,11.5,11.5,14
	c4,1.5,8.5,1,11.5-2C667.2,414.1,668.2,408.6,667.7,403.1z"/>
<path fill="#FFFFFF" d="M235.7,389.1c0,2.5,0.5,4.5,0.5,7c0.5,5.5,2.5,10.5,7.5,13s9.5,1.5,15-1.5c6-3.5,8.5-14.5,7.5-20
	c-2-7.5-8-10.5-14.5-12.5c-1-0.5-2.5-0.5-3.5-1c-0.5,0-1.5,0-2,0.5C241.7,376.6,235.2,382.6,235.7,389.1z"/>
<path fill="#FFFFFF" d="M136.7,434.6c0-3,0-6.5-0.5-10c0-1.5-1.5-4-2.5-4c-2.5,0-3,2-2.5,4c0.5,6,1.5,12,2,17.5
	c1,12,2.5,23.5,3,35.5c0,6,0,12.5-4,17.5c-0.5,0.5,1,3,1.5,4.5c1-0.5,2.5-1.5,3-2.5c4-12.5,6.5-25.5,3.5-39
	C137.7,451.1,137.7,443.1,136.7,434.6z"/>
<path fill="#FFFFFF" d="M671.7,687.6c-1.5-5-5-14-8-23.5c0-0.5-1-1.5-2-2c-1-0.5-2,0-3,0c0,1-0.5,2.5,0,3.5c6.5,9,7,20,8,30.5
	c1.5,12.5,3.5,25,5,37.5c0,0.5,0,1.5,0.5,2c1,0.5,2,1,3.5,1.5c0-1,1-2,1-3c0-3-0.5-6-1-8.5C672.7,714.1,672.2,703.1,671.7,687.6z"/>
<path fill="#FFFFFF" d="M744.7,336.6c-1-8-5.5-14.5-14-17c-1.5-0.5-4-1.5-5-1c-1.5,1-2,3.5-2.5,5.5c0,0.5,0,1.5,0,2.5
	c0.5,8,2,15,6.5,21.5c2,3,4,5,7.5,4c4.5-1,7.5-4,7.5-8C744.7,342.1,744.7,340.1,744.7,336.6z"/>
<path fill="#FFFFFF" d="M378.7,426.6c2.5-1,5.5-1.5,8-3c3.5-1.5,6-7,5.5-9c-1.5-4-3-8-5-11.5c-2.5-5-7.5-8-12.5-8c-4,0-6,4-8,7.5
	C359.7,411.6,367.7,425.1,378.7,426.6z"/>
<path fill="#FFFFFF" d="M355.2,368.6c-3.5,4.5-4,10-1.5,13.5c3,4.5,6.5,6,11,5c7-1.5,9-4,10-10c1-6.5,0-12-6-15
	c-5-2.5-10-0.5-15,2.5C352.2,366.1,351.7,367.6,355.2,368.6z"/>
<path fill="#FFFFFF" d="M834.7,360.1c-5.5-1.5-10,5-11,11.5c-0.5,6.5,3,11.5,8,12c8,0.5,13.5-4.5,14.5-12.5
	C846.7,365.6,842.2,361.1,834.7,360.1z"/>
<path fill="#FFFFFF" d="M327.7,368.1c-3.5,1-3,2.5-2,4.5c7,15.5,14,31,21,46.5c0.5,1.5,1,3.5,3,2c1-0.5,1-3,1-4c-1.5-3.5-4-7-5.5-10
	c-5-11.5-10-23-15-34C329.2,371.1,328.2,369.6,327.7,368.1z"/>
<path fill="#FFFFFF" d="M314.7,432.6c0-1.5-0.5-2.5-0.5-3.5c-4-8-8-16-12-24c-3.5-7.5-6.5-15-10-22c-0.5-1-2.5-2-3.5-3
	c0,1.5-0.5,3.5,0,4.5c5.5,12.5,11,25,16.5,37.5c1.5,3.5,3,7,5,10.5c0.5,0.5,2,1,3,1C313.7,434.1,314.2,432.6,314.7,432.6z"/>
<path fill="#FFFFFF" d="M768.7,640.1c5.5,0.5,8-4,11-6.5c4.5-3.5,4-8-1-11.5c-0.5-0.5-1.5-1-2-2c-1.5-3.5-4-2.5-6.5-1
	c-5.5,3-6.5,8.5-8,14C761.2,638.6,762.7,639.6,768.7,640.1z"/>
<path fill="#FFFFFF" d="M651.2,451.1L651.2,451.1c0,2.5,0,6,0.5,8s2.5,4,4.5,4.5s5.5,0,7-1.5c6.5-6,6.5-12,2-19
	c-2.5-4-5.5-5-10.5-2.5c-1.5,0.5-2.5,4-3.5,6.5C651.2,448.6,651.2,450.1,651.2,451.1z"/>
<path fill="#FFFFFF" d="M303.2,370.6c3,6,5.5,11.5,8,16.5c5,10,9.5,20,14.5,30.5c0.5,1,2.5,1.5,3.5,2c0-1.5,1-3,0.5-4
	c-1.5-3.5-4-6.5-5.5-9.5c-5.5-11-10.5-22.5-15.5-33.5C307.2,370.1,306.2,368.6,303.2,370.6z"/>
<path fill="#FFFFFF" d="M262.2,527.6c4-2.5,2.5-5.5,2.5-8.5c0-11.5-0.5-23,3.5-34c0.5-1.5,0-3.5,0-5.5c-1.5,1.5-3,2.5-4.5,4v0.5
	c-3.5,11.5-3.5,23.5-3.5,35C260.7,522.6,261.7,525.1,262.2,527.6z"/>
<path fill="#FFFFFF" d="M596.2,402.6c0,5.5,2.5,9,6,9c5,0,10.5-5.5,10.5-9c0-4-3-7.5-6.5-7.5C598.7,394.6,596.2,396.6,596.2,402.6z"
	/>
<path fill="#FFFFFF" d="M445.7,326.6c0,0.5,0,0.5,0.5,1c1-1,2.5-1.5,3.5-2.5c-0.5-1-1-2.5-2-2.5c-9-1-17.5-2-26.5-2.5
	c-1,0-2,1.5-3.5,2.5c1,0.5,1.5,2.5,2.5,2.5C428.7,325.6,437.2,326.1,445.7,326.6z"/>
<path fill="#FFFFFF" d="M422.2,338.6c1.5,0,2.5,0,4,0c5-0.5,10-1.5,15-2c2,0,4-0.5,5.5-0.5c2,0,3.5-1.5,2.5-3.5c-0.5-1-2.5-2-4-1.5
	c-6.5,0.5-12.5,2-18.5,3C423.2,333.1,421.7,334.6,422.2,338.6z"/>
<path fill="#FFFFFF" d="M452.7,346.6c-0.5-0.5-1-1-1.5-1c-7,0-14,0.5-21,0.5c-0.5,0-1.5,1-1.5,1.5c0,0.5,1,2,1.5,2
	c3.5,0.5,7.5,2,11,1.5C444.7,351.1,449.7,351.1,452.7,346.6z"/>
<path fill="#FFFFFF" d="M327.7,676.6c-1.5-1.5-3.5-3.5-5.5-5.5c-1.5,1.5-3,3.5-4,5.5c-0.5,1,0,3,0.5,4.5c0.5,1.5,1.5,2.5,2.5,4
	c1.5-1,3.5-2,5-3.5C327.2,680.6,327.2,679.1,327.7,676.6z"/>
<path fill="#FFFFFF" d="M269.7,608.1c-7.5,2.5-8.5,9-13,14.5c1.5,0,3,1,3.5,0.5c3.5-4,7-8.5,10-12.5
	C270.2,610.1,269.7,609.1,269.7,608.1z"/>
<path fill="#FFFFFF" d="M442.2,366.6c3-0.5,5-1,7.5-2c1-0.5,1.5-1.5,2.5-2.5c-1-0.5-2.5-2-4-2c-2,0-3.5,0.5-5.5,1.5
	c-1.5,0.5-2.5,1.5-4,2.5C439.7,365.1,441.2,366.1,442.2,366.6z"/>
<path fill="#FFFFFF" d="M266.2,628.1c0,0.5,0.5,1,0.5,1c1,0,2.5,0,3.5-1c3-2,6-4.5,9-7.5c0.5-0.5,0.5-2,0.5-3c-1,0-2.5,0-3.5,0
	c-2.5,2-5,4-7.5,6.5C268.2,625.6,267.2,627.1,266.2,628.1z"/>
<path fill="#FFFFFF" d="M291.7,632.6c-0.5,0-1.5-1-2-1c-2.5,1-5.5,2.5-8,4.5c0,0,0,2,0,2.5C283.7,639.1,291.7,635.6,291.7,632.6z"/>
<path d="M849.7,571.6c-3.5,1-5-1-6.5-4c-3-6-6-11.5-9-17c-4-7.5-10-12.5-18.5-14c-6.5-1-12.5,1-18,4.5c-6.5,4-12.5,8-19,12
	c-5.5,3.5-10.5,7.5-15.5,11c-8,6-20.5,8-27,1c-3-3-5-6.5-7.5-10c-4-6-8-13-16-14.5c-1,0-2.5-1-3.5-0.5c-7,3.5-13.5,7.5-16.5,16
	c-3,8.5-6.5,16.5-7.5,25.5c-1,9.5-0.5,20-3,29c-2.5,10-3.5,21-11.5,29c-3.5,3.5-7.5,7-13,7c-0.5,0-1,0.5-1.5,0.5
	c-3,1.5-5.5,4.5-8.5,5c-7,1-15,5.5-21-1.5c-2-2-4-5-4-8c0-6,1-12.5,1.5-18.5c-12-4-17-14.5-22-25.5c-2.5-5.5-3-5.5-8-2
	c-7,5-16.5,2.5-21.5-5c-6-9.5-8.5-20.5-10.5-32c-2.5-14.5-6-29-12-42c-6-13-15.5-23-29.5-28c-7-2.5-12.5-0.5-17.5,4
	c-8.5,8-15,17-20,28c-6,14-9.5,29-11.5,44c-1.5,11.5-4,23-5,34c-0.5,8.5-2.5,16.5-6,24.5c-5,12.5-13.5,23.5-21.5,34c-4,5-8,10-14,13
	c-0.5,0.5-2,0.5-3,0.5c0-1,0-2.5,0.5-3.5c1.5-2,4-3,5.5-5c10.5-12,20-24.5,27-39c4.5-9.5,6.5-20.5,7.5-31c1-11.5,2.5-23,4.5-34
	c2-11,4-22,8-32c5-14,11.5-27,23.5-36.5c14.5-11.5,20-9,32-1.5c14.5,8.5,23.5,21.5,28,37c4,12.5,6.5,25.5,9,38.5c0,0.5,0,1,0,1
	c9-5.5,17.5-11.5,26.5-16.5c5.5-3,12-5.5,18-7.5c8-2.5,16.5-4,25-5.5c4-0.5,8.5-0.5,13-1c6.5-0.5,12-4,17-8c9-7,16-16,21.5-26
	c4.5-7.5,10-15,16.5-20.5c4.5-4,11-7,18.5-4.5c9.5,2.5,19,5,29,2.5c9-2,17-6.5,24-13c6.5-6,13.5-8,21.5-4.5c4.5,2,7.5,5.5,9.5,9.5
	c3,5,5.5,10,8.5,14.5c1.5,2,4.5,4,7,4c6,0,11.5-1.5,14-7c3-7,5-14,8-21.5c0.5-1.5,1-3,1.5-4.5c1-3.5,1.5-8,3.5-11
	c3.5-6.5,9-9.5,16-11c9-1.5,18-4,23.5-13c5-7.5,4.5-23-1-28.5c-3.5-3.5-5-3-6.5,1.5c-3,8.5-10,12-18.5,11c-6-0.5-10.5-7.5-11.5-15
	c-1.5-11,3.5-18.5,12-24c6.5-4.5,10.5-11,13-18.5c0.5-2.5,0-5,0-8c-3,3-5.5,5.5-8.5,7.5c-6.5,5-13,3.5-19.5,0
	c-1.5-0.5-2.5-1.5-4-2.5c-7.5-5-10-5-17,0.5c-10.5,8-17.5,18.5-22.5,31.5c-4.5,13.5-10,26.5-15.5,39.5c-4,9-9.5,16.5-20,18.5
	c-4,0.5-7,0-9-2.5c-4-5.5-7.5-11-11.5-16c-3-4-6-8.5-9-12.5c-2.5-3.5-8.5-4-14.5,0c-5.5,3.5-11,7.5-14,12.5
	c-7.5,12.5-14,26-19.5,39.5c-5.5,12-8.5,25.5-16,36.5c-7,9.5-15.5,16-27,18.5c-1,0-3.5-0.5-4.5-1.5c-3-4-6-8-7.5-12.5
	c-3-8-6-16-8-24c-2-8-8-12-14-16c-10-8-21.5-9.5-33.5-8.5c-2.5,0-5,1-7.5,2c-10,4-19.5,6-30.5,4c-11.5-2-19-8.5-27-16.5
	c-10-9.5-16-22-23-33.5c-4-6.5-6-13.5-8.5-20.5c-0.5-1,0.5-3,1-4.5c1,1,2,1.5,3,2.5c6,11,10.5,23,17,33.5c5.5,8.5,12.5,16,19.5,24
	c8.5,9,20,10.5,31.5,10c5,0,9.5-3.5,14.5-4.5c6-1,11.5-2,17.5-2.5c5.5,0,11.5,0,16,2.5c6,2.5,11,7,16.5,10c9,6,11.5,16,15,25
	c2,6.5,4.5,13,7.5,19c2.5,5.5,5,6.5,10.5,4c8.5-3.5,15.5-9.5,20.5-18c5.5-10,8.5-21,13-31.5c6-14,13-27,20-40.5
	c4.5-8.5,12-14.5,21.5-17.5c7-2,10-1.5,14.5,3.5c4,5,8,10,11.5,15.5c3,4.5,5.5,9,8.5,13.5c0.5,0.5,1.5,1.5,2.5,1.5
	c5.5,0,11-1,14-6.5c4.5-9,8.5-18,12-27.5c6.5-17,13-34,25-48c5.5-6,13-9.5,20.5-11.5c3-0.5,7.5,2.5,10.5,4.5c10.5,8,18,5,23.5-5.5
	c1-1.5,2.5-4,4.5-4c2.5,0,3.5,2,4,4.5c3.5,13.5-1.5,24-12,32c-2.5,2-5.5,4.5-8,7c-6.5,6-5.5,18,1,23.5c3,2,5.5,2.5,9,1
	c3.5-1.5,5-4,5.5-7.5c0-2,1-5.5,2.5-5.5c3.5-0.5,8-4.5,11.5,0c2.5,3,5,6.5,6.5,10.5c2,7.5,4,15.5-0.5,22.5c-6.5,10.5-16,17-28.5,18
	c-8.5,0.5-13.5,6.5-15.5,16c-2,10.5-4.5,21.5-10.5,30.5c-3.5,5.5-9,9.5-16.5,9.5c-6,0-10.5-2-13.5-8c-3.5-6-7-12-11-17.5
	c-3.5-5.5-12-6.5-17.5-2.5s-10.5,8-16,11c-6,3.5-12.5,6.5-20,6c-8-0.5-16.5-1-24.5-3c-7.5-1.5-12.5,1.5-17,6
	c-7.5,6.5-11.5,15.5-16.5,23.5c-7,11.5-17,20.5-29,26.5c-3.5,1.5-8,2-12,3c-8,1.5-16.5,2-24,4c-7.5,1.5-14.5,4-21,7.5
	c-9.5,5-19,11-28.5,17c-4.5,3-4.5,4.5-1.5,10c8-6,16.5-11,27-13c10-2,19.5-2,29.5,2c0.5-2,1.5-4.5,2-6.5c1.5-4,5-6,9-6.5
	c2,0,5,1,6.5,3c4,6,8,12,10.5,18c3.5,9.5,7.5,19.5,8.5,30c1,7.5-1.5,16-3,23.5c-0.5,4-2,8-3,12.5c5.5-1,8-4.5,10-8.5
	c4.5-10,7.5-20.5,8-31.5c0.5-12,3.5-24,5.5-36.5c1-6,1.5-12.5,3-18.5c2.5-11.5,9-21,17-29.5c8-9,17.5-9,28-7c7,1.5,14,3.5,21,4
	c4,0.5,8.5,0,12.5-1c8-2.5,16.5-6,24-9.5c7-3.5,13.5-3,20-0.5c6.5,2,9,13.5,4.5,18.5c-3,3.5-6.5,7-10.5,11c3-0.5,5.5-1,8-1
	c11,0,20,4.5,26,13.5c4.5,7.5,8,15.5,12,23.5C849.7,569.1,849.7,570.6,849.7,571.6L849.7,571.6z M691.7,546.6c3-2.5,5.5-5.5,8.5-7.5
	c4-2,8.5-4.5,12.5-4.5c5.5,0,10.5,3,14,8c2.5,4,5,7.5,7.5,11.5c7,9.5,13.5,14,24.5,7c12-8,24-16.5,35.5-25.5c6-5,11-11,15.5-17.5
	c3-4,0-10.5-5-11.5c-7-1.5-13,0.5-19,3.5c-11,6-22.5,10-35,8c-10-1-20-2.5-30-4.5c-5-0.5-9.5,1-13,4.5
	C701.2,526.6,694.2,535.1,691.7,546.6z M627.2,618.6c6.5,0,13-5.5,13.5-11c1.5-8.5,0-17-4-25c-5-9.5-12.5-14.5-23-15
	c-5.5,0-11,1-16,2.5c-8,2-15.5,5-21,11c-0.5,0.5-1,2-1,2.5c2,8.5,10,11.5,17,6.5c6-4.5,13.5-2,15,5.5c1.5,6.5,5,12,8.5,17.5
	C619.7,617.1,623.2,618.6,627.2,618.6z M662.7,615.1c-1-21.5-7.5-38-16.5-53c-1-1.5-4-3-5-2.5c-1.5,0.5-4,3-4,5c0,4,1,8,2,11.5
	c1,3.5,3.5,6.5,5,10c3,8,4,16,1.5,23.5c-2,6-6,11.5-12.5,14c-1.5,0.5-3,3-3.5,5c-1,4-1,8-1,12c0,6,4,10.5,12,8.5
	c6.5-1.5,14-2.5,16.5-10C659.2,629.6,661.2,621.1,662.7,615.1z"/>
<path d="M306.2,628.6c-1-2-3-4-3-6c-2-13.5-8-25.5-12-38.5c-3-9-4.5-19-4-28.5c0.5-14,1-28,5.5-41.5c3-9.5,9.5-15.5,19.5-17
	c3-0.5,6-1.5,8.5-2c10-2.5,14-11,17.5-19.5c2.5-6.5,4.5-13,7.5-19c3.5-8,10-10,18.5-9c11.5,1,20,7,26.5,16c7.5,9,11,20,14.5,30.5
	c5.5,17.5,7.5,35.5,8.5,53.5c1,15,0,30-0.5,45.5c-0.5,13-0.5,26,4.5,38.5c1.5,3.5,3,8,7.5,9.5c2.5,1,5,1,7-1c3-3.5,5.5-7.5,8-11
	c1-1,1.5-2.5,3-4c2,2.5,3,5,1,7.5c-3,4-6.5,8-9.5,11c-5.5,5.5-12,4-16-2.5c-7-10.5-8.5-22.5-8.5-34.5c0-8,1-16.5,1.5-25
	c0-12.5,0-24.5-1-37s-2.5-25.5-5.5-38c-2-10-5.5-20-9.5-29.5c-4.5-9.5-11-17.5-20.5-22.5c-6.5-3-13-4-19.5-1c-2,1-4,2.5-4.5,4.5
	c-2.5,6.5-4.5,14-8,20c-3.5,6.5-7.5,13.5-13,18c-4,3.5-10,5-16,5.5c-11.5,1.5-16,9-18.5,18.5c-4,16.5-5.5,34-2.5,51
	c1.5,9,5.5,18,8.5,27c3,9.5,5.5,19.5,8.5,29.5C308.2,628.1,307.2,628.1,306.2,628.6z"/>
<path d="M220.7,390.1c0,22,6,40.5,16,58c6,10,12.5,20,13,32c0.5,9,0,19-1,28c-1,7-4,14-6.5,20.5c-2,5.5-8,8-12.5,11c-4,2-8,2-12-0.5
	c-2.5-1.5-5.5-3-8-5c-1-0.5-1.5-2-1.5-3.5c0,0,1-1.5,1.5-1.5c1.5,0,3.5,0.5,4.5,1.5c4,5.5,10,7.5,17,3c5-3.5,8.5-8,10.5-14
	c3-9.5,5.5-19.5,5-30c-0.5-9.5-1.5-19-6.5-28c-7.5-14-16-27-20-43s-5.5-32-1-48c1.5-6.5,5-12.5,8.5-17.5c2.5-4,8-5,13-4.5
	c6,0.5,12.5,1.5,18.5,1.5c2,0,4-0.5,5.5-2c3-2.5,5.5-5,8-8c2-2.5,3.5-6,5.5-8.5c3-5.5,6-11.5,9.5-17c3.5-5.5,13.5-7,21-5
	c11,3.5,13.5,17,12,25.5c0,2-0.5,4-1,6c-1,6.5,4,10.5,10.5,8.5c2.5-0.5,5.5-2,8-3c1,0,2.5,0,4,0c-0.5,1-1,3-2,3.5
	c-6,3-11.5,6-18.5,3.5c-5.5-2-8-6-7-11.5c0.5-3,1-6,1.5-9c2-10-4-21-16-21c-4.5,0-9.5,3-12,7.5c-2,4.5-4,9.5-7,13.5
	c-4.5,6.5-9,12.5-14.5,18.5c-1.5,1.5-5,2-7.5,2c-4.5,0-9,0-13.5-1c-9.5-2.5-13-1-18.5,7.5C221.7,371.6,221.2,381.6,220.7,390.1z"/>
<path d="M430.7,598.1c-4-2-2-4.5-2-7c0-8,1-16,0-23.5c-2-20.5-5.5-40.5-7.5-61.5c-1-9.5-1-19.5-1.5-29c0-9.5,5-16,11.5-22
	c3.5-3,7.5-6,10.5-9c4-3.5,6.5-8,7-13.5c2-16.5-2-32-11-45.5c-7.5-11.5-16-23-24-34c-7.5-10-13-21.5-13-34.5c0-7,3.5-11.5,9.5-14
	c4-1.5,8.5-2,13.5-1c8,2,16.5,3,25,4c1,0,2.5,0,3.5,1c1.5,1,2.5,2.5,3.5,3.5c-1.5,0.5-3.5,1.5-5,1.5c-9-1.5-18-3.5-27-5
	c-3.5-0.5-7.5-0.5-11,0.5c-6.5,2-8.5,6.5-7.5,13.5c1.5,13.5,9,24,17,34.5c8,10,14.5,21,21,32c5,8,8,16,9.5,25s1,18-1.5,26.5
	c-1.5,5-7,9-10.5,13.5c-3.5,4-7.5,7.5-11,11c-6.5,6-6,13.5-5,21.5c2,16.5,3.5,33.5,5.5,50.5c1,11.5,3,23,4,34.5c0.5,7,0,14-0.5,21
	C432.7,594.1,431.7,596.1,430.7,598.1z"/>
<path d="M256.2,646.6c5.5,2,10.5,3.5,15,6.5c8.5,5,14.5,13,19,21.5c5.5,9,10.5,18.5,17,26.5c4,5,10.5,8,16,12
	c3.5,2.5,7.5,2.5,11.5,0c7-5,11.5-11.5,13.5-20c2.5-13,2.5-26,0-39c-2.5-10.5-6.5-20.5-10-31c-3.5-10.5-7.5-21.5-7.5-32.5
	c0-8.5,0-17,0.5-25.5c0-2.5,0.5-6,4-6c3,0,6.5,0,8.5,1.5c8,6,11.5,14,12,24c0,2,1.5,6,3,6.5c2,0.5,5-1,7-2.5c6-4.5,9.5-10.5,8-18
	c0-2.5,0-5,0.5-7.5c0-0.5,1-1,1.5-2c0.5,0.5,1.5,1,1.5,2c0.5,7.5,2,15-2.5,22c-4,5.5-8,10.5-15.5,11c-3.5,0-5.5-1-6.5-4.5
	c-0.5-3.5-1.5-7-2-10c-1-7-4.5-12-9.5-16c-3.5-3-6-2-6.5,3c-2,16-1,31.5,4,47c4.5,13,9,25.5,12.5,38.5c2,8,2,17,2.5,25.5
	c0,8.5-1.5,17-5,25.5c-3.5,8.5-14.5,17.5-22.5,16c-4.5-1-8.5-4-13-7c-9.5-6-15.5-15.5-21-25c-3-5.5-6-11-9-16
	c-5.5-9.5-14.5-15.5-24.5-18.5C254.2,650.6,253.7,649.6,256.2,646.6z"/>
<path d="M514.2,540.6c-1.5,4.5-3.5,7.5-3.5,10.5c-1,15.5-0.5,31,3,46c0.5,2.5,1.5,5.5,3,8c0.5,1,2,2,3,1.5c0.5,0,1.5-1.5,2-2.5
	c0.5-2.5,0.5-5.5,0.5-8c0-2,0.5-4.5,1-6.5c0-0.5,1-1.5,1.5-1.5c0.5,0,1.5,0.5,2,1c2.5,4.5,0,17-3.5,20.5c-4.5,4-7.5,3-10-2
	c-4.5-8.5-6.5-18.5-7-28c-0.5-8-0.5-16,0-24c0-5,2-10,4-15c1.5-4.5,8-5,12,0c4.5,6,8,12,11.5,18.5c8,16,8.5,34,11.5,51.5
	c3,19,6,38.5,8,57.5c0.5,4,0,8,0,11.5c-1,6-5.5,9-11,6.5c-6-2.5-11.5-6.5-13.5-13.5c0-0.5-0.5-1.5,0-2.5c0-1,1-2,1.5-3
	c1,0.5,2.5,1,2.5,2c1,5,5,8,8,11c1,1,3.5,2,5,1.5c1,0,2.5-2.5,2.5-4c0-7,0-14-1-21c-2-15-4-30-6.5-45c-2-13.5-4-26.5-7.5-39.5
	c-2.5-9-7.5-17.5-12-26C520.2,544.6,517.2,543.1,514.2,540.6z"/>
<path d="M768.2,380.6c0.5-1.5,0.5-3.5,1.5-5c8-11,16.5-22.5,21.5-35.5c1.5-4,3.5-8.5,5.5-12.5c4-8,10-14,18.5-16
	c5.5-1,12-0.5,17.5,0c8.5,0.5,14.5-3.5,17.5-10.5c2-4,3.5-8.5,5.5-13c3.5-6.5,6.5-6.5,13.5-5c13,3,16.5,14,22.5,23.5
	c4,6.5,6,14.5,9.5,21.5c3,6.5,2,12.5,0.5,18.5c-1,5-3,9.5-5.5,14c-2,4-3.5,4-6.5,0c6.5-6.5,7-15,8-23.5c0-1.5-1-3-1.5-4.5
	c-3.5-13-10.5-24.5-18.5-35.5c-3-4.5-7-7-12-8c-3.5-1-5.5,0-7,3.5c-2.5,5.5-5,10.5-8,16c-4.5,8-12,9.5-20.5,9c-5.5,0-11.5,0-17,1
	c-6.5,1.5-11,6.5-14,12.5c-6,11.5-11,23-17.5,34c-3,5.5-8,10.5-11.5,15.5c-0.5,0.5-1.5,1-2.5,2C769.7,381.1,768.7,381.1,768.2,380.6
	z"/>
<path d="M185.2,518.1c1,6,2.5,16,5,25.5c3,13.5,6,27,5,41c-1,12.5-6,23.5-17,30.5c-4.5,3-9,6.5-13.5,9.5c-6,4-7.5,10-8,16
	c-1,12.5,4,22.5,11.5,31.5c2,2,4,4,6,6.5c0.5,1,0.5,2.5,1,3.5c-1.5,0-3.5,0-4-0.5c-4.5-5-8.5-10-12-15c-7-9-7.5-20-6-31
	c1-7.5,5.5-13,11.5-17c3.5-2.5,7.5-5.5,11-7.5c9.5-5.5,14-14.5,15-25c1-10,0-20-2.5-30.5c-3.5-16-8-32-6-49c0.5-6,3-12,6-17.5
	s7-6.5,12-2.5c5,3.5,9.5,8,14.5,12.5c1,1,1.5,2,2.5,3c5.5,5.5,6,5.5,11.5,0c0.5-0.5,2-0.5,3-1c0,1,0.5,2.5,0,3.5
	c-4.5,8-11.5,8.5-18,1c-3.5-3.5-7-7.5-10.5-11c-2-2-4.5-3.5-7-4.5c-1-0.5-3,0-4,1C186.7,497.6,185.2,504.6,185.2,518.1z"/>
<path d="M116.7,646.6c-0.5-2.5-1-4.5-1.5-7c0-7,4.5-12,8-17.5c5.5-10.5,11.5-21,11-33c-0.5-9.5-1.5-19.5-3.5-29
	c-2.5-11.5-6.5-22.5-10.5-33.5c-3.5-8.5-8-17-12-25.5c-6-14-12.5-27-13-42.5c0-7-1-13.5,1-20c1-4.5,3.5-6.5,8-6c5,0.5,10,2,13,7
	c1,1.5,0.5,3.5,0.5,5.5c-1.5-0.5-3-1-4.5-1.5c-3-1.5-6-3.5-9-5c-2-0.5-4,0-4.5,2.5c-0.5,3.5-1.5,7-1.5,10c0,13.5,3.5,26,9,38.5
	c6.5,13.5,13,27,18.5,41c7.5,18.5,12,37.5,12.5,57c0,10.5-3.5,19.5-8,28.5c-2.5,5.5-6.5,10.5-8.5,16c-2,4.5-3,9.5-4.5,14.5
	C117.7,646.1,117.2,646.1,116.7,646.6z"/>
<path d="M641.7,675.1c-2.5,4.5-1.5,8-0.5,11.5c0.5,1,0,2.5,0.5,4c-1.5,0-3.5-0.5-5-1c-0.5,0-1-1.5-1-2.5c0-4.5,0-8.5,1-12.5
	c0-1,3-3,4.5-3c3.5-0.5,6.5,1.5,8,4.5c4,8.5,6.5,18,4.5,28c-1,5.5-2.5,10-8,13.5c-3,1.5-6,2.5-8.5,0c-5-4.5-10.5-8.5-13.5-14
	c-6.5-11-11.5-23.5-17.5-34.5c-1.5-3-3.5-6-6-8c-5-3.5-10.5-6.5-16-9.5c-4-2.5-8-5.5-10.5-9.5c-5-8.5-8-18-8.5-28c0-1,1-2,1.5-3.5
	c1,0.5,2.5,1.5,2.5,2.5c2.5,8,4.5,16,8,23.5c1.5,4,5.5,7.5,8.5,10c5,3.5,11,6,16,9c6.5,4,9,11,12,17.5c4.5,9.5,8.5,19.5,14,28.5
	c2.5,4.5,7,8,11,12c2,2,5.5,0.5,7-3c3-6,3.5-12,2.5-18c-0.5-4.5-2.5-8.5-4-13C644.2,677.6,643.2,676.6,641.7,675.1z"/>
<path d="M407.2,696.6c-1.5,9-3,18-5,27c-1.5,6.5-5.5,7-10,2.5c-8.5-8-10.5-18-8-29c1.5-7,2-13.5,2.5-20.5c1-7.5-3-13-8-18
	c-6.5-6.5-9.5-14-11-22.5c-1-6.5,1.5-12.5,7-16.5c1-1,3.5-1,4.5-0.5c7,3.5,12.5,9.5,15.5,16.5c4,10,8,20.5,10,31
	C406.2,676.1,406.2,686.1,407.2,696.6z M397.2,724.6c0.5-1.5,1.5-2.5,2-3.5c2.5-14,4-27.5,2.5-42c-1.5-12.5-5-24-9-35.5
	c-2.5-8-7.5-14.5-13.5-19.5c-2.5-2-4.5-2-6,1c-3,6-1.5,12,0.5,17s5.5,9.5,9,13.5c6.5,7.5,8.5,16,7.5,25c-1,6.5-2.5,13-3.5,19.5
	C385.7,710.6,389.2,718.6,397.2,724.6z"/>
<path d="M757.7,585.6c4-4,8-8,11.5-12c5-6.5,12.5-8,19-11c6-2,12.5-4,18.5-4.5c8.5-1,14.5,5,15.5,14c1,11-2,20.5-10.5,28.5
	c-4.5,4.5-10,4-16,4c-2,0-4,0-6.5-0.5c-8.5-1.5-16,1-22,7c-1.5,1.5-3.5,3-5.5,4.5c-5.5,4.5-12.5,2.5-16-3.5c-5.5-9.5-0.5-20,4-26
	C752.7,582.6,755.2,582.6,757.7,585.6z M817.2,576.1c0-1,0-2,0-3c0-6.5-5.5-12.5-11-11c-7,1.5-14.5,3.5-21,6.5
	c-5.5,2-10.5,5.5-14.5,10.5c-4.5,5-8.5,12.5-17,12.5c-0.5,0-1,0.5-1.5,1.5c-3.5,4.5-3.5,12-1,16.5c3,4.5,5,5,9.5,1.5c1-1,2.5-2,4-3
	c8-8,17-11.5,28.5-8c5,1.5,10.5,1.5,15-2C814.2,592.1,817.7,585.1,817.2,576.1z"/>
<path d="M226.7,641.6c0.5,15-9.5,32.5-27,36.5c-5,1-12.5-2-14.5-7s-4.5-10-5.5-15.5c-1.5-7.5,3-13,7.5-18c6.5-8,9.5-17,12-27
	c1.5-6,3-12,4-18c0.5-3,1.5-5.5,4.5-5c2.5,0.5,6.5,1.5,7.5,3.5c6.5,11.5,10,24,10,37.5C226.2,633.1,226.7,637.1,226.7,641.6z
	 M223.2,639.1c-1-10-1-22.5-6-34c-1.5-3.5-3.5-7.5-5.5-10.5c-0.5-0.5-2-1.5-3-1c-0.5,0-1.5,1.5-1.5,2.5c-1,5.5-2.5,10.5-3.5,16
	c-1.5,12-7,22-14,31c-5,6.5-6.5,12.5-3.5,20c0.5,1.5,1,3,1.5,4.5c2.5,6,7,9,12.5,7.5c4.5-1.5,9-3,12-6
	C219.2,660.6,223.7,652.1,223.2,639.1z"/>
<path d="M678.7,314.6c-0.5-0.5-1.5-1.5-1.5-2s1-1.5,2-2c4-1.5,9.5,0.5,13,5c4,5.5,8,10.5,12,16c5,6.5,7,14.5,8.5,22
	c1,5.5,2.5,10.5,3.5,16c1,5.5,1,11-3.5,15.5c-5,5-12.5,5.5-18,1.5c-11-8-16.5-19.5-19.5-32c-2.5-11.5-3-23,0-34.5
	C676.7,318.6,677.7,316.6,678.7,314.6z M682.7,314.1c-0.5,2.5-0.5,4-1,5.5c-1,5-3,9.5-3,14.5c0,6,0.5,12,1.5,17.5c2,13,7.5,24,18,32
	c6,4.5,12.5,2,13.5-5.5c0.5-3,0-6.5-0.5-10c-1-5.5-2.5-11.5-4-16.5c-1.5-4.5-2.5-9.5-5.5-13.5c-4-7-9-13-13.5-19
	C686.7,317.1,684.7,315.6,682.7,314.1z"/>
<path d="M186.7,429.1c-3-8.5,1-16.5,2.5-25c0.5-3.5,0.5-8,6-8c3,0,8,6.5,7.5,11c0,9.5,0.5,19,4,27.5c2.5,6,6,11.5,8,17.5
	c2,5.5,3,11,3.5,16.5c0.5,4-2,7.5-6,8.5c-3.5,1-6.5-0.5-8.5-3.5c-4-4-8.5-8-12.5-12.5c-1.5-1.5-2-4-2.5-6c-1.5-9-2.5-18-3.5-27
	C186.2,429.1,186.7,429.1,186.7,429.1z M190.2,432.6c1,6,2,13,3.5,20c0.5,3,2,6.5,4.5,9c3.5,4,7.5,7,11.5,10.5c0.5,0.5,3.5,0,4-0.5
	c0.5-2.5,1.5-5.5,1-8c-1-5.5-2.5-11-5.5-15.5c-7-12-10-24.5-10-38c0-2-0.5-4.5-1.5-7c0-1-1.5-1.5-2-2c-0.5,1-1.5,2-2,3
	C192.7,413.1,191.7,422.1,190.2,432.6z"/>
<path d="M188.7,372.1c-0.5,1-0.5,2-1.5,2.5c-6.5,6-9.5,14.5-10.5,22.5c-2,13.5-2.5,27.5-2.5,41c0,18,1.5,36-3,54c-4,15-11,29-18,43
	c-0.5,1-2,1.5-3.5,2c0-1.5-0.5-3,0-4c3-8,6.5-15.5,10-23c5.5-11,9-22.5,9.5-34.5c0.5-13.5,0-26.5,0-39.5c0.5-14-0.5-28.5,4-42.5
	c2.5-7.5,6.5-14.5,10-22c0.5-1,2.5-1.5,4-1.5C187.2,370.1,188.2,371.6,188.7,372.1z"/>
<path d="M272.7,419.6c5,1.5,10,4.5,13,8.5c6,8,11.5,16.5,16,25.5c4.5,9.5,7,19.5,4,30.5c-2,8.5-11,15-19.5,14c-5-0.5-8-5-7-10
	c3-12.5-1.5-23-10-32c-2.5-2.5-4-6.5-5-10c-2-7.5-2-15,2.5-21.5C268.2,422.6,267.7,418.6,272.7,419.6z M303.2,473.1c0-1.5,0-3-1-5
	c-4-8.5-7.5-17.5-12-25.5c-3.5-6-8.5-11-13.5-16c-3.5-3.5-5-3-7.5,1.5c-4,7-3,18.5,3,25.5c7,7.5,11.5,16,12,26.5c0,2,0,4,0,6
	c0,2.5,0,6.5,1,6.5c2.5,1,6,1,8,0C301.7,489.1,302.7,481.6,303.2,473.1z"/>
<path d="M312.2,530.6c1-2.5,1.5-5,3-7c5-6,9.5-12,16-16.5c7.5-6,15-11.5,25-12.5c4-0.5,8-2,12.5,0c9,5.5,17.5,22,7,33
	c-3,3-7,3-10.5,2c-2-0.5-4-1-6.5-1.5c-5-1-9-0.5-12.5,3.5c-4.5,5-9,9.5-16.5,10c-2,0-4.5,1.5-7,1.5
	C316.2,542.6,313.2,538.6,312.2,530.6z M375.7,514.6c0.5-6.5-4-10.5-8-15c-2-1.5-6-2.5-8.5-2c-7.5,0.5-14,4.5-20.5,8
	c-8.5,5-13.5,13.5-20,20.5c-2.5,3-1.5,6,0,8c1,1.5,3.5,3,5.5,3c8,0,14.5-4,19.5-10c2.5-3,5-6,9-5.5c3.5,0,7.5,0.5,11,1.5
	C372.2,526.1,375.7,523.6,375.7,514.6z"/>
<path d="M496.7,562.1c0.5,15.5-0.5,27-5,39c-2,5.5-4.5,10.5-7,16c-0.5,1-1.5,2-2.5,3c-1.5,1-3.5,3-5,0.5c-0.5-0.5,1-2.5,1.5-4
	c1.5-2.5,3.5-5,4.5-7.5c6-14,8-28.5,8-43.5c0-13,1-26,7.5-38c2-3.5,4.5-7.5,7-10.5c4-5,10.5-5,17-0.5c8,5,12,13,15.5,21
	c0,0.5-0.5,2-0.5,3c-1.5-0.5-4-1-5-2c-2-3-3-7-5-10c-3-4.5-7-9-13.5-9.5c-1.5,0-4,0.5-5,2c-5,4-8,10-9,16
	C499.2,545.6,497.7,555.1,496.7,562.1z"/>
<path d="M275.7,710.1c-4-2-7-4.5-10.5-5c-3-0.5-6,1-9,2c-1,0-2,0.5-3,1c-7.5,3.5-12,0-16-5.5c-3.5-4.5-8-8-14-9.5c-4-1-8,0-10.5,2.5
	c-7.5,7.5-15,15.5-22.5,23c-3,3-6.5,6.5-10,8.5c-6,4.5-15,3.5-20-2c-5-5.5-9.5-11-14-17c-0.5-0.5,0-2.5,0-4c1,0.5,2.5,0.5,3.5,1.5
	c4.5,4.5,8,9.5,12.5,14.5c6.5,6.5,12.5,7,19,0.5c5.5-5.5,10.5-11,16-16.5c5.5-5,10.5-10.5,16.5-14.5c2.5-1.5,7-2,10-1.5
	c6.5,1,12,4.5,16,10.5c4,6.5,6.5,7,13.5,4.5c2.5-0.5,5-2,8-3c4.5-2,11,0,13.5,4C275.2,706.1,275.2,708.1,275.7,710.1z"/>
<path d="M241.2,774.1c-3,6-5.5,11-8,16.5c-3,6.5-6.5,13-14,15.5c-5,1.5-7.5,1-10-3.5s-4.5-9.5-6-15c-2-7.5-2-15.5-7.5-22
	c-6-7-12-13.5-22.5-11c-0.5,0-1.5-0.5-2-1c0.5-1,1-2.5,1.5-2.5c4-0.5,8-2,11.5-0.5c9,4,17,10,20.5,20.5c2,7,3.5,14.5,5,21.5
	c0.5,1.5,1,3,2,4.5c3.5,6.5,7.5,7,11.5,1c4-5.5,7-11.5,10-17.5c1-2.5,2-5,3.5-7.5c2.5-4.5,7.5-5.5,10.5-1.5c3,3.5,4.5,8,6.5,12.5
	c0,0.5-1,2-1.5,3c-1-0.5-2.5-1-2.5-1.5C247.2,781.1,246.2,777.1,241.2,774.1z"/>
<path d="M129.7,731.6c-1.5,3.5-2.5,7.5-4.5,10.5c-0.5,0.5-2,1-3,1.5c0-1,0-2,0-3.5c0.5-3.5,2-7,2-10.5c-0.5-10.5-3.5-20.5-8-30.5
	c-7.5-16-15-32.5-16.5-50.5c-1-11.5,0.5-22,6-32c1.5-2.5,3.5-5,5.5-7.5c0.5-0.5,2.5-0.5,3.5-1c0,1,0.5,2,0,3.5c0,0.5-0.5,1-1,1.5
	c-12,13.5-11.5,29.5-8,46c3,12.5,8,24.5,14,36c4.5,9,7,19,8,29.5C128.7,727.1,129.2,729.1,129.7,731.6L129.7,731.6z"/>
<path d="M158.2,388.6c0,0.5,0,1.5,0,2c-7,12-5.5,25.5-4.5,38.5c0.5,12.5,2.5,25,2,37.5c0,15.5-4.5,30-11,44c-1,2.5-1.5,5-3,7.5
	c-0.5,1-2.5,1-3.5,1.5c-0.5-1-1.5-3-1-3.5c7-13.5,12.5-27.5,14-43c0.5-5.5,0.5-11.5,0.5-17c-0.5-13.5-2.5-27.5-2.5-41
	c0-8,0.5-16,4-23C153.2,389.1,154.7,387.1,158.2,388.6z"/>
<path d="M808.7,426.1c1-6.5,0.5-14,6-21c4-5,9-8,15.5-9.5c3.5-0.5,13.5,5,15.5,8.5c4,8.5,5.5,17.5,2,27c-4,10.5-20,16-27.5,13.5
	C812.2,442.6,808.7,437.6,808.7,426.1z M844.2,422.6c-0.5-4-1.5-8-2.5-12c-0.5-3.5-2.5-6.5-6.5-7.5c-1-0.5-2-1.5-3.5-2
	c-1.5-0.5-3-0.5-4.5,0c-11,4.5-14.5,14.5-14,28.5c0,5,2,9,7,10.5c3,0.5,7,0,10.5-0.5C839.7,437.1,843.7,431.6,844.2,422.6z"/>
<path d="M497.7,355.1c1,2.5,2,5,3,7.5c4.5,14.5,11,28,18.5,41c8,14,21,21,37,22c4.5,0,9,0,13.5,0c1,0,2.5,0.5,3.5,1
	c1,1,1.5,2,2.5,3.5c-1,0.5-2.5,1-4,1.5c-11,0.5-22.5-1-33-5c-10-3.5-16.5-10-22-19c-9-15.5-16-31.5-21.5-48.5c-0.5-1.5,0-3,0.5-5
	C496.2,355.1,497.2,355.1,497.7,355.1z"/>
<path d="M180.7,580.6c-2.5,7-5,14-8,20.5c-2.5,5-8,5-12,1.5c-7.5-6-7.5-14.5-9-22.5c-0.5-3.5-0.5-7-1-10c-1.5-9.5,2-16.5,10.5-20.5
	c3.5-1.5,6,0,8.5,2c6,5.5,8.5,13,9.5,20.5c0,2.5,0.5,5,1,8C179.7,580.1,180.2,580.1,180.7,580.6z M156.2,573.6c0,7.5,0,15,5,21.5
	c4,6,6.5,6,10,0c6-11,3.5-31-5-39.5c-0.5-0.5-2-1-3-1c-4,0-8.5,5-8,9C155.7,566.6,155.7,570.6,156.2,573.6z"/>
<path d="M567.7,410.1c-4-0.5-9-1.5-14.5-1.5c-11.5-0.5-18.5-8-25-16c-3-4-6.5-7.5-8.5-11.5c-3-5-5-10.5-7.5-16c-2-4.5-4.5-9-6.5-14
	c-0.5-1,0-3,0-4.5c1,0.5,3,1,3.5,2c2.5,5,5.5,10,7.5,15.5c6,15,15,27.5,28,36.5c3.5,2,8,3,12.5,3c7.5,0.5,14.5,0,22,0
	c1.5,0,3,1,4.5,1.5c-1,1-2,3-3,3.5C577.2,409.6,573.2,409.6,567.7,410.1z"/>
<path d="M274.2,520.1c0,1.5,0.5,3.5,0.5,5c0,10.5-2,21-6.5,31c-2.5,5-9.5,8.5-16,8c-3,0-6.5-1-9.5-1c-11,0-16.5,6.5-13.5,18
	c1,3.5,3.5,4,6.5,3.5c4-0.5,7.5-1,10,2.5c3,4,4.5,8,3.5,13c0,1-1.5,2-2.5,3c-0.5-1-1.5-2.5-1.5-3.5c-0.5-2.5-0.5-5.5-1.5-7.5
	c-1-2.5-3.5-4-6.5-3c-8,2.5-12-3-12.5-10c-1.5-17,14-22,26.5-19.5c8,1.5,13-0.5,16-8.5c3-8.5,3.5-17.5,4.5-26.5c0-1.5,0.5-3,1-4
	C273.2,519.6,273.7,520.1,274.2,520.1z"/>
<path d="M729.2,585.6c0.5,11-3,19-11,24c-4,2.5-9.5,3-14.5,3.5c-4,0-7-6.5-6-10.5c1.5-6,2.5-12,2.5-18c0-8,3.5-14.5,9-19.5
	c1.5-1.5,5-1.5,7.5-0.5c2.5,1,5.5,3.5,7,6.5C726.7,575.6,730.2,580.6,729.2,585.6z M724.7,588.6c0-8-3-14-8-19c-2.5-3-5-2-6.5,0
	c-2,3.5-4,8-4.5,12c-1,6.5-1.5,13-2.5,19c-1,4.5,1,7.5,6,7c4.5,0,8-2,10.5-5.5C723.2,598.6,724.2,593.1,724.7,588.6z"/>
<path d="M667.7,403.1c0,5.5-0.5,11-5,15c-3,3-7.5,3.5-11.5,2c-6.5-2.5-9-8-11.5-14c-2.5-7.5-2-15.5,0-22.5s6.5-10,14-6.5
	C664.7,382.6,666.7,392.6,667.7,403.1z M662.7,404.6h0.5c-1.5-5.5-2.5-11-5-15.5c-1.5-3-5-5.5-8-7.5c-2-1.5-5,0-5.5,2.5
	c-2,8.5-3.5,17.5,1.5,26c2,3.5,8,7.5,10.5,7c3-0.5,5-4,5.5-10C662.7,405.6,662.7,405.1,662.7,404.6z"/>
<path d="M235.7,389.1c-0.5-7,6-12.5,10.5-15c0.5,0,1.5-0.5,2-0.5c1,0,2.5,0.5,3.5,1c6.5,2,12.5,5.5,14.5,12.5c1.5,5.5-1,16-7.5,20
	c-5.5,3-10,4-15,1.5s-7-7.5-7.5-13C236.2,394.1,235.7,391.6,235.7,389.1z M239.7,390.1c1,3.5,1.5,7,2.5,10c1.5,4.5,7,7,11.5,5.5
	c5-1.5,9-7.5,9-13.5s-3-9.5-8.5-11.5c-1,0-2.5-0.5-3-1.5c-2.5-4-4.5-1.5-7,0.5C241.2,382.6,239.2,385.6,239.7,390.1z"/>
<path d="M136.7,434.6c1,8.5,1.5,16.5,3,24c2.5,13.5,0.5,26-3.5,39c0,1-2,1.5-3,2.5c-0.5-1.5-2-3.5-1.5-4.5c3.5-5.5,4-12,4-17.5
	c0-12-1.5-24-3-35.5c-0.5-6-1.5-12-2-17.5c0-2,0-4.5,2.5-4c1,0,2.5,2.5,2.5,4C136.2,428.1,136.2,431.6,136.7,434.6z"/>
<path d="M671.7,687.6c0.5,16,1,26.5,4,37.5c0.5,2.5,1,6,1,8.5c0,1-0.5,2-1,3c-1-0.5-2.5-1-3.5-1.5c-0.5,0-0.5-1-0.5-2
	c-1.5-12.5-3.5-25-5-37.5c-1-10.5-1.5-21.5-8-30.5c-0.5-0.5,0-2,0-3.5c1,0,2,0,3,0c0.5,0.5,1.5,1,2,2
	C667.2,673.6,670.2,682.6,671.7,687.6z"/>
<path d="M744.7,336.6c0,3,0,5.5,0,8c0,4-2.5,7-7.5,8c-3.5,1-5.5-1-7.5-4c-4.5-6.5-6-14-6.5-21.5c0-0.5,0-1.5,0-2.5
	c0.5-2,1-4,2.5-5.5c0.5-0.5,3,0.5,5,1C739.7,322.6,743.7,328.6,744.7,336.6z M727.2,324.6c0,8,2.5,15,6.5,21.5c0.5,1,2,2,3,1.5
	c1-0.5,2.5-1.5,2.5-3c0.5-2.5,0.5-5.5,0-8C739.2,331.1,733.2,325.6,727.2,324.6z"/>
<path d="M378.7,426.6c-11-1.5-19-15-12.5-24c2.5-3,4-7.5,8-7.5c5.5,0,10,3,12.5,8c2,3.5,3.5,7.5,5,11.5c1,2.5-2,7.5-5.5,9
	C384.2,424.6,381.2,425.6,378.7,426.6z M378.2,421.1c1.5,0,3-0.5,4.5-0.5c4-0.5,6-3.5,4.5-7.5c-2-5.5-5-11-10.5-14c-2.5-1-4-0.5-6,1
	c-0.5,1-1.5,2.5-2,3.5C366.2,410.6,371.7,421.1,378.2,421.1z"/>
<path d="M355.2,368.6c-3.5-1-3-2.5-0.5-4c4.5-3,10-5,15-2.5c5.5,3,7,8.5,6,15c-1,6-3,8-10,10c-5,1-8,0-11-5
	C351.2,379.1,351.7,373.6,355.2,368.6z M361.2,383.6c7.5-0.5,11.5-5.5,9.5-12c-0.5-2-3-5-5-6s-5-0.5-5.5,3c0,0.5-1.5,0.5-2,1
	c-1,3-2.5,6-2,8.5C356.7,381.1,359.7,382.1,361.2,383.6z"/>
<path d="M834.7,360.1c7.5,0.5,12.5,5,11.5,11c-0.5,8-7,13-14.5,12.5c-5-0.5-9-6-8-12C824.2,365.1,828.7,358.6,834.7,360.1z
	 M833.7,379.1c4,0,7.5-3,7.5-7.5c0-4-3-7.5-8-7.5c-2.5,0-5,3.5-5,7.5C828.2,375.6,830.7,379.1,833.7,379.1z"/>
<path d="M327.7,368.1c0.5,1.5,2,3,2.5,5c5,11.5,10,23,15,34c1.5,3.5,4,7,5.5,10c0.5,1,0,3.5-1,4c-2,1.5-2.5-0.5-3-2
	c-7-15.5-14-31-21-46.5C324.7,370.6,324.2,369.1,327.7,368.1z"/>
<path d="M314.7,432.6c-0.5,0.5-1,1.5-1.5,1.5c-1,0-2.5-0.5-3-1c-1.5-3.5-3-7-5-10.5c-5.5-12.5-11.5-25-16.5-37.5c-0.5-1,0-3,0-4.5
	c1,1,3,1.5,3.5,3c3.5,7.5,6.5,15,10,22c4,8,8,16,12,24C314.2,429.6,314.2,430.6,314.7,432.6z"/>
<path d="M768.7,640.1c-6,0-7.5-1.5-6-7.5c1-5.5,2-11,8-14c2.5-1,4.5-2.5,6.5,1c0,0.5,1.5,1,2,2c5,3.5,5.5,8,1,11.5
	C776.2,636.1,773.7,640.6,768.7,640.1z M772.7,621.6c-0.5,0-1,0-1.5,0c-1.5,4.5-3.5,9-5,14c4,0,11-4,11-6.5c0-2-2-3.5-3.5-5.5
	C772.7,622.6,772.7,622.1,772.7,621.6z"/>
<path d="M651.2,451.1c0-1,0-2.5,0-3.5c1-2.5,1.5-5.5,3.5-6.5c5-2,8-1,10.5,2.5c5,7,4.5,13-2,19c-1.5,1.5-5,2-7,1.5s-4-2.5-4.5-4.5
	C651.2,456.6,651.2,453.6,651.2,451.1L651.2,451.1z M657.2,442.6c-3,3.5-3,5.5-1.5,13c0,1.5,1.5,3.5,3,4c0.5,0,3-1.5,3.5-2.5
	C665.7,451.6,664.2,448.1,657.2,442.6z"/>
<path d="M303.2,370.6c3-1.5,4.5,0,5.5,2c5,11,10,22.5,15.5,33.5c1.5,3.5,4,6.5,5.5,9.5c0.5,1,0,2.5-0.5,4c-1-0.5-3-1-3.5-2
	c-5-10-9.5-20-14.5-30.5C308.2,382.1,305.7,376.1,303.2,370.6z"/>
<path d="M262.2,527.6c-0.5-3-1.5-5.5-1.5-8c-0.5-12,0-24,3.5-35v-0.5c1.5-1.5,3-3,4.5-4c0,1.5,0,4,0,5.5c-4,11-4,23-3.5,34
	C264.7,522.1,266.2,525.1,262.2,527.6z"/>
<path d="M596.2,402.6c0-6,2.5-8,10-8c3.5,0,6.5,3.5,6.5,7.5s-5.5,8.5-10.5,9C598.7,411.6,596.2,407.6,596.2,402.6z M609.2,402.6
	c-2-1.5-3-3.5-4-3c-1.5,0.5-3,2-4.5,3c1,1,2,3.5,2.5,3.5C605.2,405.6,606.2,404.6,609.2,402.6z"/>
<path d="M445.7,326.6c-8.5-0.5-16.5-0.5-25-1.5c-1,0-2-1.5-2.5-2.5c1-1,2-2.5,3.5-2.5c9,0.5,17.5,1.5,26.5,2.5c0.5,0,1,1.5,2,2.5
	c-1,1-2.5,1.5-3.5,2.5C445.7,327.1,445.7,326.6,445.7,326.6z"/>
<path d="M422.2,338.6c0-4,1-5.5,4.5-5.5c6.5-0.5,12.5-2,18.5-3c1,0,3.5,0.5,4,1.5c1,2-0.5,3-2.5,3.5c-2,0-4,0.5-5.5,0.5
	c-5,0.5-10,1.5-15,2C424.7,338.1,423.2,338.1,422.2,338.6z"/>
<path d="M309.7,646.1c0.5-1,1-3,1-3c2,0,4.5,0,5.5,1.5c3,3.5,2.5,7.5-0.5,10.5c-2,2-4,3-6.5,1.5c-3-1.5-4.5-4-4-7
	C305.7,647.1,307.2,646.1,309.7,646.1c0,1,0,2,0,3c0,1,0,2.5,1,3c0.5,0.5,2.5,0.5,2.5,0c0.5-0.5,1-2.5,0.5-3
	C312.7,648.1,311.2,647.6,309.7,646.1z"/>
<path d="M452.7,346.6c-3,5-7.5,4.5-11.5,5c-3.5,0-7.5-0.5-11-1.5c-0.5,0-1-1-1.5-2c0,0,1-1.5,1.5-1.5c7,0,14-0.5,21-0.5
	C451.2,345.6,451.7,346.1,452.7,346.6z"/>
<path d="M327.7,676.6c-0.5,2.5-0.5,4-1.5,5c-1,1.5-3,2-5,3.5c-0.5-1-2-2.5-2.5-4c-0.5-1.5-1-3-0.5-4.5c1-2,2.5-3.5,4-5.5
	C324.2,673.1,326.2,675.1,327.7,676.6z"/>
<path d="M269.7,608.1c0,1.5,0.5,2,0.5,2.5c-3,4.5-6.5,8.5-10,12.5c0,0-2,0-3.5-0.5C261.2,617.1,262.2,610.6,269.7,608.1z"/>
<path d="M442.2,366.6c-1-0.5-2-1.5-3.5-2.5c1-0.5,2.5-1.5,4-2.5c1.5-0.5,3.5-1.5,5.5-1.5c1,0,2.5,1,4,2c-0.5,1-1.5,2-2.5,2.5
	C447.2,366.1,445.2,366.1,442.2,366.6z"/>
<path d="M266.2,628.1c1-1,2-2.5,3-3.5c2.5-2,5-4.5,7.5-6.5c0.5-0.5,2,0,3.5,0c0,1,0,2.5-0.5,3c-3,2.5-6,5-9,7.5
	c-1,0.5-2.5,0.5-3.5,1C266.7,628.6,266.7,628.1,266.2,628.1z"/>
<path d="M291.7,632.6c0,3-8,7-9.5,5.5c-0.5-0.5-0.5-2,0-2.5c2.5-1.5,5-3,8-4.5C290.2,631.1,291.2,632.1,291.7,632.6z"/>
<path fill="#FFFFFF" d="M542.2,312.1c-4-7-7.5-13-10.5-19.5c-6-10.5-12-21-17-31.5c-4-7.5-7.5-15.5-10.5-23.5c-3.5-8-7.5-16-10.5-24
	c-0.5-1.5,0-4,0.5-5c3.5-4.5,7.5-8.5,11.5-13c22.5,25.5,44.5,51,66,76C561.2,285.1,551.7,298.1,542.2,312.1z"/>
<path fill="#FFFFFF" d="M568.7,285.1c5,17,9.5,34,14.5,51.5c1,3.5,2.5,7,3.5,10c0.5,2,0.5,4.5,0,6.5c-3,6.5-6,13-9.5,19.5
	c-0.5,1-3,2.5-4,2c-11-1-22-2-31.5-6.5c-1.5-0.5-2.5-2-3-3.5c-1-3-1-6.5-1.5-9.5c-1.5-7-4-13.5-5.5-19.5c2-2.5,4.5-5.5,7-8
	c7-9.5,13.5-19.5,20-29c2.5-3.5,5.5-7.5,8-11c0.5-1,0.5-2,1-3.5C566.7,284.1,567.7,284.6,568.7,285.1z"/>
<path fill="#FFFFFF" d="M510.7,193.1c3.5,0.5,7.5,0.5,11,1.5c7.5,2,14.5,2.5,22,2c6.5-0.5,13,0,19.5-0.5c3.5,0,6,1,8,3.5
	c3.5,5.5,6,11.5,10,16.5c5.5,8,3,16,2.5,24c-0.5,9.5-1,18.5-2,28c0,1.5-0.5,3.5-0.5,6.5c-24-27.5-47-54-70.5-80.5
	C510.7,194.1,510.7,193.6,510.7,193.1z"/>
<path fill="#FFFFFF" d="M617.2,281.1c-3.5,0-6,0-8-0.5c-7-1.5-14-3.5-21-5c-2.5-0.5-3-1-3-3.5c1-11,2-22,3-33c0.5-5,0.5-10,0.5-15
	s3-8,7-12c1,3,2.5,5.5,3.5,8c2,7.5,3.5,15.5,5.5,23c3,10,7,20.5,10.5,30.5C615.7,276.6,616.2,278.6,617.2,281.1z"/>
<path fill="#FFFFFF" d="M571.7,279.1c15-1,28.5,5,43,7.5c-11.5,8-23,15.5-34.5,23.5C577.7,300.1,574.7,289.6,571.7,279.1z"/>
<path fill="#FFFFFF" d="M616.7,292.6c-8.5,16.5-17,33-26,50.5c-3-10-5.5-20-8-29.5c11-7.5,22.5-15,33.5-22
	C616.2,292.1,616.2,292.6,616.7,292.6z"/>
<path fill="#FFFFFF" d="M508.7,260.1c10,19,20,38,30,56.5c-2.5,4-5,8-8,13c-1-1.5-2-2.5-2.5-4c-5.5-15.5-11-30.5-16.5-45.5
	c-2-5.5-3.5-10.5-5-16c0-1,0-2.5,0-4C507.7,260.6,508.2,260.6,508.7,260.1z"/>
<path fill="#FFFFFF" d="M348.7,775.6c-5-7-9.5-13-15-20c4.5-5,9.5-10,15-16C348.7,751.6,348.7,763.1,348.7,775.6z"/>
<path fill="#FFFFFF" d="M592.2,208.6c-2,2.5-4,4.5-6,7c-2-4-3.5-7-5-10.5c0,0,0.5-0.5,0.5-1C585.2,206.1,588.2,207.6,592.2,208.6z"
	/>
<path fill="#FFFFFF" d="M691.7,546.6c2.5-11,9-20,16.5-28c3-3.5,7.5-5.5,13-4.5c10,1.5,20,3,30,4.5c12.5,1.5,24-2.5,35-8
	c6-3,12-5.5,19-3.5c4.5,1,8,8,5,11.5c-5,6-9.5,12.5-15.5,17.5c-11.5,9-23.5,17.5-35.5,25.5c-11,7.5-17.5,3-24.5-7
	c-2.5-3.5-5-7.5-7.5-11.5c-3.5-5-8.5-8-14-8c-4,0-8.5,2-12.5,4.5C697.2,541.1,694.7,544.1,691.7,546.6z M754.7,531.1
	c0,0,0.5,0.5,0.5,1c4-1.5,4.5,1.5,5.5,3.5c1,3-2,8-5.5,9c-1.5,0.5-4-0.5-5-2c-1.5-2,0-6.5,4.5-9.5c-0.5-1-1.5-2.5-3-4.5
	c-2,3-3.5,5-4.5,7.5c-2,3.5-2.5,7,0.5,10.5c3,3,6.5,3.5,11.5,1c6-3,8.5-13,4-17.5c-1-1-3.5-1.5-5.5-1.5
	C756.2,528.1,755.7,530.1,754.7,531.1z M789.2,522.6c-1.5-2-2.5-4-4-4.5c-1.5-0.5-5,0-5.5,1c-1.5,3.5-3,7.5-3,11s4,5,6.5,2
	C785.7,530.1,787.2,526.1,789.2,522.6z"/>
<path fill="#FFFFFF" d="M627.2,618.6c-4.5,0-8-1.5-10-5c-4-5.5-7.5-11-8.5-17.5c-1.5-7.5-9-10-15-5.5c-7,5-15,2-17-6.5
	c0-0.5,0.5-2,1-2.5c5.5-6,13-9,21-11c5.5-1,10.5-2.5,16-2.5c10.5,0,18,5.5,23,15c4,8,5.5,16,4,25
	C640.2,613.1,633.7,619.1,627.2,618.6z"/>
<path fill="#FFFFFF" d="M662.7,615.1c-1.5,6-3.5,14.5-6.5,23c-2.5,7.5-10,8.5-16.5,10c-8,2-12-2.5-12-8.5c0-4,0-8,1-12
	c0.5-2,2-4,3.5-5c6.5-2.5,10-8,12.5-14c2.5-8,1.5-16-1.5-23.5c-1-3.5-3.5-6.5-5-10c-1-3.5-2-8-2-11.5c0-1.5,2.5-4,4-5
	c1.5-0.5,4.5,1,5,2.5C655.2,577.6,661.7,594.1,662.7,615.1z"/>
<path fill="#FFFFFF" d="M397.2,724.6c-8-6.5-11.5-14.5-10-24c1-6.5,2.5-13,3.5-19.5c1-9.5-1-17.5-7.5-25c-3.5-4-7-8.5-9-13.5
	c-2.5-5.5-3.5-11.5-0.5-17c1.5-3,3.5-3,6-1c6.5,5.5,11,12,13.5,19.5c4,11.5,8,23.5,9,35.5c1.5,14.5,0,28-2.5,42
	C399.2,722.6,398.2,723.6,397.2,724.6z"/>
<path fill="#FFFFFF" d="M817.2,576.1c0.5,9-2.5,16-9,21c-4.5,3.5-9.5,3.5-15,2c-11.5-3.5-20.5,0.5-28.5,8c-1,1-2.5,2-4,3
	c-4.5,3.5-6.5,3-9.5-1.5c-3-4.5-2.5-12,1-16.5c0.5-0.5,1-1,1.5-1.5c8.5-0.5,12.5-7.5,17-12.5s9-8,14.5-10.5c7-2.5,14-4.5,21-6.5
	c5.5-1.5,11,4.5,11,11C817.2,574.1,817.2,575.1,817.2,576.1z"/>
<path fill="#FFFFFF" d="M223.2,639.1c0.5,13-4,21.5-11,28.5c-3,3-8,4.5-12,6c-5.5,1.5-9.5-1.5-12.5-7.5c-0.5-1.5-1-3-1.5-4.5
	c-3-7.5-1.5-13.5,3.5-20c7.5-9,12.5-19,14-31c0.5-5.5,2-10.5,3.5-16c0-1,1-2.5,1.5-2.5c1,0,2.5,0.5,3,1c2,3.5,4,7,5.5,10.5
	C222.2,616.6,221.7,629.1,223.2,639.1z"/>
<path fill="#FFFFFF" d="M682.7,314.1c2,1.5,4,3,5.5,4.5c5,6.5,9.5,12.5,13.5,19c2.5,4,4,8.5,5.5,13.5c1.5,5.5,3,11,4,16.5
	c0.5,3,1,6.5,0.5,10c-1,7-8,9.5-13.5,5.5c-10.5-8-16-19-18-32c-1-6-1.5-12-1.5-17.5c0-5,2-9.5,3-14.5
	C682.2,318.1,682.2,316.6,682.7,314.1z"/>
<path fill="#FFFFFF" d="M190.2,432.6c1-10.5,2-19.5,3-29c0-1,1-2,2-3c0.5,0.5,2,1,2,2c0.5,2,1.5,4.5,1.5,7c0,13.5,3,26,10,38
	c2.5,4.5,4,10,5.5,15.5c0.5,2.5,0,5.5-1,8c0,0.5-3,1-4,0.5c-4-3-8-6.5-11.5-10.5c-2-2.5-3.5-6-4.5-9
	C192.7,445.6,191.2,438.6,190.2,432.6z"/>
<path fill="#FFFFFF" d="M303.2,473.1c-0.5,8-1.5,16-9.5,19c-2.5,1-6,1-8,0c-1-0.5-1-4.5-1-6.5s0-4,0-6c0-10.5-5-19-12-26.5
	c-6-7-7.5-18-3-25.5c2.5-4.5,4-5,7.5-1.5c5,5,9.5,10,13.5,16c5,8,8,17,12,25.5C302.7,470.1,303.2,472.1,303.2,473.1z"/>
<path fill="#FFFFFF" d="M375.7,514.6c0.5,9-3,12-11.5,9.5c-3.5-1-7.5-1-11-1.5c-4.5-0.5-7,2.5-9,5.5c-5,6-11.5,10-19.5,10
	c-2,0-4.5-1.5-5.5-3c-1.5-2.5-2.5-5.5,0-8c6.5-7,11.5-15.5,20-20.5c6.5-3.5,13-7.5,20.5-8c3,0,6.5,0,8.5,2
	C371.7,503.6,375.7,508.6,375.7,514.6z"/>
<path fill="#FFFFFF" d="M844.2,422.6c0,9-4.5,14.5-13,16c-3.5,0.5-7,1.5-10.5,0.5c-5-1-7-5.5-7-10.5c-0.5-14,3-24,14-28.5
	c1-0.5,3,0,4.5,0c1,0.5,2.5,1.5,3.5,2c3.5,1,5.5,4,6.5,7.5C842.7,414.1,843.2,418.6,844.2,422.6z"/>
<path fill="#FFFFFF" d="M156.2,573.6c0-3.5-0.5-7-1-10.5c-0.5-4,4-9,8-9c1,0,2,0.5,3,1c8.5,8.5,11,29,5,39.5c-3.5,6-6,6.5-10,0
	C156.7,588.6,156.2,581.6,156.2,573.6z"/>
<path fill="#FFFFFF" d="M724.7,588.6c0,4.5-1.5,9.5-5,14c-2.5,3.5-6,5.5-10.5,5.5c-5,0.5-7-2.5-6-7c1-6.5,1.5-13,2.5-19
	c1-4,2.5-8,4.5-12c1-2.5,3.5-3,6.5,0C721.7,574.6,724.7,581.1,724.7,588.6z"/>
<path fill="#FFFFFF" d="M662.7,404.6c0,0.5,0,1,0,1.5c0,6-2,9.5-5.5,10c-3,0.5-8.5-3-10.5-7c-5-8.5-3.5-17-1.5-26
	c0.5-2.5,3-4,5.5-2.5c3,2,7,4.5,8,7.5c2.5,5,3.5,10.5,5,15.5C663.7,404.1,663.2,404.6,662.7,404.6z"/>
<path fill="#FFFFFF" d="M239.7,390.1c-0.5-4.5,1.5-7.5,4.5-10c2-2,4-4.5,7-0.5c0.5,0.5,2,1,3,1.5c6,1.5,8.5,5.5,8.5,11.5
	c0,6.5-3.5,12-9,13.5c-4.5,1.5-10-1-11.5-5.5C240.7,397.1,240.7,393.6,239.7,390.1z"/>
<path fill="#FFFFFF" d="M727.2,324.6c6,1,11.5,6.5,12,12c0,2.5,0,5.5,0,8c0,1-1.5,2.5-2.5,3c-0.5,0-2-0.5-3-1.5
	C729.7,339.6,727.7,332.6,727.2,324.6z"/>
<path fill="#FFFFFF" d="M378.2,421.1c-7,0-12.5-10.5-9-17c0.5-1,1-2.5,2-3.5c1.5-2,3-2.5,6-1c5.5,3,8.5,8,10.5,14
	c1.5,4,0,6.5-4.5,7.5C381.2,420.6,379.7,421.1,378.2,421.1z"/>
<path fill="#FFFFFF" d="M361.2,383.6c-1.5-1.5-5-3-5-5c0-2.5,1-6,2-8.5c0-0.5,2-0.5,2-1c0.5-3.5,3.5-4,5.5-3c2,1,4.5,3.5,5,6
	C372.7,378.6,368.7,383.1,361.2,383.6z"/>
<path fill="#FFFFFF" d="M833.7,379.1c-3,0-5.5-3.5-5.5-7.5s2.5-7.5,5-7.5c4.5,0,8,3,8,7.5C841.2,376.1,838.2,379.1,833.7,379.1z"/>
<path fill="#FFFFFF" d="M772.7,621.6c0,0.5,0.5,1,1,1.5c1,2,3.5,4,3.5,5.5c0,2.5-7,6.5-11,6.5c1.5-5,3.5-9.5,5-14
	C771.7,621.1,772.2,621.6,772.7,621.6z"/>
<path fill="#FFFFFF" d="M657.2,442.6c7,5.5,8.5,9,5.5,14c-0.5,1-3,3-3.5,2.5c-1.5-0.5-3-2.5-3-4
	C654.2,448.1,654.7,445.6,657.2,442.6z"/>
<path fill="#FFFFFF" d="M609.2,402.6c-2.5,1.5-4,3-6,3.5c-0.5,0-1.5-2-2.5-3.5c1.5-1,3-2.5,4.5-3
	C605.7,399.1,607.2,401.1,609.2,402.6z"/>
<path fill="#FFFFFF" d="M309.7,646.1c1.5,1,3,2,4,3c0.5,0.5,0,2.5-0.5,3s-2,0.5-2.5,0s-1-2-1-3C309.7,648.6,309.7,647.6,309.7,646.1
	C309.7,646.6,309.7,646.1,309.7,646.1z"/>
<path d="M754.7,531.1c0.5-1,1.5-3,2-3c2,0,4.5,0,5.5,1.5c4.5,5,2,15-4,17.5c-5,2-8.5,2-11.5-1c-3-3.5-2-7-0.5-10.5
	c1-2,3-4.5,4.5-7.5c1,2,2,3.5,3,4.5c-4,3-6,7.5-4.5,9.5c1,1,3.5,2,5,2c3.5-1,6.5-6.5,5.5-9c-0.5-2-1.5-5-5.5-3.5
	C755.2,532.1,755.2,531.6,754.7,531.1z"/>
<path d="M789.2,522.6c-2,3.5-3.5,7.5-6,10c-2.5,3-6.5,1.5-6.5-2c0-4,1.5-8,3-11c0.5-1,4-1.5,5.5-1
	C786.7,518.6,787.7,520.6,789.2,522.6z"/>
</svg>
