<?xml version="1.0" encoding="utf-8"?>
<!-- Generator: Adobe Illustrator 17.1.0, SVG Export Plug-In . SVG Version: 6.00 Build 0)  -->
<!DOCTYPE svg PUBLIC "-//W3C//DTD SVG 1.1//EN" "http://www.w3.org/Graphics/SVG/1.1/DTD/svg11.dtd">
<svg version="1.1" id="Layer_1" xmlns="http://www.w3.org/2000/svg" xmlns:xlink="http://www.w3.org/1999/xlink" x="0px" y="0px"
	 viewBox="0 0 1000 1000" enable-background="new 0 0 1000 1000" xml:space="preserve">
<path fill="#00ADEF" d="M623.7,467.2"/>
<polyline fill="#00ADEF" points="777.3,470.6 717.1,498.4 717.1,473.4 688.7,487.8 "/>
<path fill="#00ADEF" d="M804.1,432.6"/>
<path fill="#00ADEF" d="M779.9,469.6"/>
<polyline fill="#00ADEF" points="817.7,451.4 817.3,471.8 792.3,493.4 751.3,512.2 754.5,519 735.7,533.2 740.3,490.2 778.9,472.4 
	"/>
<polygon fill="#00ADEF" points="717.5,500.8 738.3,491.2 731.7,553.2 716.7,553.2 "/>
<polygon fill="#00ADEF" points="715.5,476.8 715.5,500.2 714.7,553.6 705.1,558.6 650.7,536.2 650.7,530.8 650.9,530.8 648.3,516.2 
	648.3,511 "/>
<polygon fill="#00ADEF" points="648.5,529.4 634.1,535.4 634.1,521 646.3,517.6 "/>
<polyline fill="#00ADEF" points="687.1,488.8 646.3,509.4 646.3,515.2 633.7,518.8 624.7,469 "/>
<polygon fill="#00ADEF" points="428.9,668 434.7,609.4 456.5,622.8 456.5,655.4 464.7,648.2 468.1,686 "/>
<polygon fill="#00ADEF" points="448.1,679.2 477.7,701 485.9,734 423.7,721 428.9,670.2 "/>
<polyline fill="#00ADEF" points="597.7,493.2 596.9,494 596.7,493.2 595.7,495.2 570.3,519.6 562.9,493.2 548.9,512.6 530.7,496.8 
	"/>
<polyline fill="#00ADEF" points="476.3,532.2 463.9,534.4 445.3,472.4 "/>
<polygon fill="#00ADEF" points="460.3,529.8 438.1,549.2 412.3,494.4 443.5,473.8 "/>
<path fill="#00ADEF" d="M368.3,475.8"/>
<polyline fill="#00ADEF" points="443.5,471.4 411.7,492.4 410.7,490.4 410.3,493 407.3,493 395.7,505 393.5,536.6 364.1,579.2 
	357.3,571.2 "/>
<path fill="#00ADEF" d="M368.7,473"/>
<polygon fill="#00ADEF" points="354.7,550.8 355.5,572 364.3,582.6 370.7,573.2 379.3,582 387.9,568 384.3,591 364.3,620.4 
	356.5,606.8 339.7,571.6 "/>
<polygon fill="#00ADEF" points="379.1,578.8 371.9,571.4 392.7,541.2 388.9,562.8 "/>
<polygon fill="#00ADEF" points="325.9,494 309.1,520.8 301.7,512.6 325.3,472 "/>
<polyline fill="#00ADEF" points="325.3,468.2 325.1,468.2 286.7,534.2 280.7,503.2 "/>
<polygon fill="#00ADEF" points="300.7,514.4 307.9,522.6 296.1,541.6 287.7,536.6 "/>
<polygon fill="#00ADEF" points="326.1,497.4 330.5,567.6 313.3,588 304.9,593.6 279.7,571.4 "/>
<polygon fill="#00ADEF" points="331.7,569.2 337.7,572.4 353.7,605.6 327.5,595 315.7,588.4 "/>
<polygon fill="#00ADEF" points="328.5,611.6 314.7,627.4 301.5,639 294.5,634 301.3,624.4 326.3,598 "/>
<polygon fill="#00ADEF" points="328.5,614.6 327.1,665.8 316.5,628.4 "/>
<polygon fill="#00ADEF" points="371.7,685.8 390.9,563.4 395.5,537.2 397.7,505.8 408.1,495 410.1,495 382.1,713.4 "/>
<polygon fill="#00ADEF" points="411.7,497.4 438.1,553.4 433.5,602.4 390.5,663.2 "/>
<polygon fill="#00ADEF" points="466.7,646.6 474.5,639.8 476.7,666 468.3,666 "/>
<polygon fill="#00ADEF" points="476.1,638.2 494.9,621.4 510.3,666.2 507.1,677 478.5,666.4 "/>
<polygon fill="#00ADEF" points="458.7,651.2 458.7,624.2 458.7,607.2 476.7,582.6 496.3,617.4 "/>
<polygon fill="#00ADEF" points="456.9,606.2 456.7,606.4 456.7,620.4 435.1,607.2 440.1,553.2 440.1,553 439.1,550.8 461.1,531.6 
	462.5,536.2 477.1,533.8 488.9,562.8 "/>
<line fill="#00ADEF" x1="528.9" y1="497.2" x2="490.1" y2="560.8"/>
<polygon fill="#00ADEF" points="530.1,499 547.9,514.2 533.9,531.8 517.7,519.2 "/>
<polygon fill="#00ADEF" points="534.9,534 549.3,515.6 549.3,515.6 562.1,497.8 568.9,521.8 571.1,537 525.1,578.8 517.7,559 "/>
<polygon fill="#00ADEF" points="571.3,539.4 571.9,543.2 571.9,543.2 572.1,544.6 528.1,587 525.9,580.8 "/>
<polygon fill="#00ADEF" points="572.5,547 579.5,596 543.3,628.2 528.9,589 "/>
<polygon fill="#00ADEF" points="573.1,537.6 573.1,537.6 573.1,537.4 570.9,521.8 593.1,500.6 573.5,539.8 "/>
<polygon fill="#00ADEF" points="596.3,498.6 615.5,551 616.5,557.6 616.7,557.6 619.3,569.6 574.5,542.6 "/>
<polygon fill="#00ADEF" points="597.7,496.4 606.5,488 614.1,541.4 "/>
<polygon fill="#00ADEF" points="618.3,555.8 633.1,542.8 634.9,544.8 620.1,564.4 "/>
<path fill="#00ADEF" d="M271.3,365.4"/>
<polygon fill="#00ADEF" points="265.7,567.4 261.1,486.2 261.3,486 258.1,480.8 258.1,460 262.3,460 277.5,571.4 275.9,574.4 "/>
<polygon fill="#00ADEF" points="274.9,576.2 264.7,604 250.7,555 262.5,560.6 263.1,559.4 263.5,568.2 "/>
<polygon fill="#00ADEF" points="215.3,461.2 227.5,484 257.7,484 258.9,486 238.5,523.2 "/>
<polygon fill="#00ADEF" points="187.7,711 174.3,684.8 239.5,526 259.5,489.4 263.3,558.8 247.9,551.6 258.3,587.8 248.3,587.8 
	255.9,619.4 249.5,632.8 245.7,628.2 210.7,707 "/>
<polygon fill="#00ADEF" points="212.1,707.6 245.7,631.8 247.9,634.6 232.5,666.4 232.5,683.6 215.5,723.6 "/>
<polygon fill="#00ADEF" points="217.1,730 216.5,727 234.7,684.2 234.7,667 257.7,619.4 250.5,589.6 258.5,589.6 264.5,610.6 
	276.9,576.2 278.7,573 304.7,596 313.9,589.6 325.1,595.8 300.9,622 293.3,599.8 223.9,747 "/>
<polygon fill="#00ADEF" points="225.1,749.4 293.1,605 299.5,623.6 291.9,634.4 301.7,641.4 311.9,632.4 283.1,716.6 228.5,758 "/>
<polygon fill="#00ADEF" points="279.3,766 251.3,777.6 229.9,759.4 283.9,718.6 299.3,745.6 "/>
<polygon fill="#00ADEF" points="303.1,795.8 281.1,767 300.3,747.6 316.7,772.8 "/>
<polygon fill="#00ADEF" points="317.9,770.8 301.3,745.4 285.1,717.2 314.7,630.4 314.9,630.2 325.9,669 326.9,668.6 325.7,708.6 
	340.1,705.6 350.7,715.4 "/>
<polygon fill="#00ADEF" points="353.5,715.4 353.5,715.4 342.7,705.4 374.7,699 381.7,717.6 379.9,739.6 "/>
<polygon fill="#00ADEF" points="385.7,747.8 381.3,748.4 381.3,741.6 383.3,717.4 389.7,667.4 432.9,606.4 421.3,721.2 "/>
<polygon fill="#00ADEF" points="389.9,747.2 422.7,723 481.9,735.2 411.1,747.8 "/>
<polygon fill="#00ADEF" points="413.5,749.4 426.5,747 429.7,762.8 "/>
<polygon fill="#00ADEF" points="431.9,764.6 428.3,746.8 486.7,736.4 515.7,780.2 "/>
<polygon fill="#00ADEF" points="491.1,739.4 513.9,756.2 515.3,775.8 "/>
<polygon fill="#00ADEF" points="517.7,779.6 517.5,779.2 515.9,756.2 546.1,730.6 "/>
<polygon fill="#00ADEF" points="647.5,656.8 651.3,644.6 523.3,697 496.7,619.8 498.9,617.8 477.9,580.8 489.5,565 489.5,565.2 
	516.5,521 532.5,533.4 515.3,558.2 542.3,631.4 568.1,608.4 576.5,636 625.3,619.8 635.9,630.8 674.7,616.8 678.1,642.6 "/>
<polygon fill="#00ADEF" points="719.7,729.6 686.7,685 680.1,643.2 676.5,616.2 725.5,598.6 724.9,596.8 636.5,628.6 627.5,619.2 
	738.7,582.2 740.7,590.8 741.9,639 722.3,620.2 710.1,698 710.1,698.4 723.9,722 "/>
<polygon fill="#00ADEF" points="802.1,577.2 781.5,583.4 742.5,590 740.5,582 802.1,561.6 "/>
<polygon fill="#00ADEF" points="830.3,513.4 764.3,534.2 754.1,513.2 835.1,476.2 "/>
<polygon fill="#00ADEF" points="835.3,473.6 798.7,490.4 818.7,473 839.7,461 "/>
</svg>
