<?xml version="1.0" encoding="utf-8"?>
<!-- Generator: Adobe Illustrator 17.1.0, SVG Export Plug-In . SVG Version: 6.00 Build 0)  -->
<!DOCTYPE svg PUBLIC "-//W3C//DTD SVG 1.1//EN" "http://www.w3.org/Graphics/SVG/1.1/DTD/svg11.dtd">
<svg version="1.1" id="Layer_1" xmlns="http://www.w3.org/2000/svg" xmlns:xlink="http://www.w3.org/1999/xlink" x="0px" y="0px"
	 viewBox="0 0 1000 1000" enable-background="new 0 0 1000 1000" xml:space="preserve">
<g id="Layer_1_1_" display="none">
	<g display="inline">
	</g>
</g>
<g id="Layer_2">
	<path fill="#00ADEF" d="M178.6,456.8l6.4,18l5,39.6v37.2l28,9.2v17.8l22,6.6l0.2-1l-0.2,1l39.2,6.6l-1.4,49.4L250.2,670l-5.4-8.2
		l-8.6,11.8l13,18.4l2.8,64.6l10.4,30.2l3.6-69l3.8-6l22.8,25l4.4-12.2l5,8.8l35-47.4l6.4-41l126.2,57.2l1.4,24.4l32.4,56.2
		l87.6-16.2l20-16.6l21-0.6l10.4,1.4V742l27-25l49.2,82.2l23.8-31.2l28.6,12l23.4-19.8l12-29.6l4.8-21.8l23.8,4.6l14.6-28.4
		l-65.4-159.4l29-77l36.4,3.4v-30.6l-55-43.4l-10-51.6L752,363.8l-4-4.4l11.6-11.6l-1.6-42.4l45.2,30.4l2.8-8.8l15.4,12l28.6-43.8
		l-20.6-11.8l-8.8-17.6l7.6-8.8l0.2,0.8l1-2.2l0.2-0.4V255l35.2-72.4L852,171.8h-48l11,39.2l-14-43l-41.8,26l-6.8-29.4l-8.6,6.6
		l-4.6-18.8l-31.4,27.2l-23.6-14v-12.2l-74.4-23.8l-16,61l-35-22l-78-26.2L458,166l20.8,61.8l7.4-5.4l11,25l-9.8-4.6l-5.6,16
		l-9.4,5.2l-30.8-85l-20,22.8l-73.2-37.2l-4.6,35.4l-52.4-25.2l33.4,109.4l1-0.2l0.8,0.6l5.8-8.2l27.6,39.8V316l19.8,23.2l18.6-30.2
		l4,31l10.4-13.4v8.6l12.6-17.6l18.4,15.4l5.6,4.8l-41.6,98.8l4.6,3.8v13.8h-14.6l2.4,11.6h-2l-0.2,1.4l-66.6-24l-0.4,1h-1l3,43.6
		l-28.4-14.4v25l-60.2-27.8l-9.2-36.2l-1,0.2v-1l-16.6-1l4,25.8l-19.4-10.6l0.4,22.6L178.6,456.8z M241.8,469.6l-18-9.8l-4-24.8
		l13.4,0.8L241.8,469.6z M281.4,490.2l4.6,43L267.2,519l3.2-6.8l-41-18.8l-25-21.6l-0.4-20.4l38.8,21L281.4,490.2z M305,553.2h-15
		l-6.6-62l20.8,9.6L305,553.2z M373.4,511v5.2l-2.6,14.6h0.2v5.4l-54.4,22.4l-9.6-5l-0.8-53.4v-23.4L373.4,511z M375.4,517.6
		l12.2,3.4v14.4l-14.4-6L375.4,517.6z M397,469l-9,49.8l-12.6-3.6v-5.8l-40.8-20.6l-3-43.2L397,469z M553.6,686l3.4-37.8l8.2,7.2
		v-32.6l21.8-13.4l5.8,58.6L553.6,686z M592.8,670.2L598,721l-62.2,13l8.2-33l29.6-21.8L592.8,670.2z M723.8,337.4l0.4,0.4
		L713,361.4l-22.4-15.6l2.4-7.4l37.6-5.2L723.8,337.4z M665.8,366.4l0.4-56L688,346L665.8,366.4z M689.4,347.4l22.4,15.6l-21.6,23.8
		l-24-18L689.4,347.4z M666.2,306.8l0.2-13.4l9,1.4l18.4,34.2l-2.6,8.2l-2.2,6.6L666.2,306.8z M677.6,295.2l25.6,3.8l-8.6,27.4
		L677.6,295.2z M705.2,299l47.4-9.6l-18.2,41.2l-41,5.8L705.2,299z M713.2,364.4l18.8,23.8L711.6,413l-12.8-6.6l11.2-4.6L691.8,388
		L713.2,364.4z M710.4,414.2l-15.2,25.4l-0.6,15l-106.2-29.4l7.4-22.6l14.6-8l31,37.2v0.6h30l13.8,8.8l6.6-4.8l-47.6-34.8v-13.8
		l-33.4-36l-15.2,9.2v-38.8l35.8,26.8l15.4,11.8l0.2-0.2l17.2,9l41.8,31.6l-12,4.8L710.4,414.2z M654.8,352v-63.8l9.4-27.4v31.4
		l-0.6,75l-15.4-8L654.8,352z M626.2,287.6l1.4,18.6l0,0l-42.8-17.6v-14l-3.2-23.6l44.6,15.2V287.6L626.2,287.6z M515.2,359.4
		l-0.4-0.4l-1.2-19l61,60.4l20.6-37l14.2-8.6v38l-40.8,22.8l-57-51.2L515.2,359.4z M511.2,446.8L500,446l0.6-9.8L511.2,446.8z
		 M480,412.8v-7.2l29.2,28.8l-0.2,7.2L480,412.8z M498.8,434.2l-0.8,12.4l-7,50.2l-18.2,15.8l-14-19.4l-7.4,26.4L426,495.2l-1-2
		l-0.2,0.8l-0.8-0.8l6.4-47.2l20.6-25.8l-6.4,45l8.4-10.6l7.2-40l10.8-8L498.8,434.2z M466.8,392.6l11,10.8v7.2L471,404l-4.2,3.2
		V392.6z M466.8,390l4.4-59l40.2,36l-2.2,64.6L466.8,390z M471.4,328.2l-5.8-12.8l47,44.2l-2.4,3.4L471.4,328.2z M500,345l1.4-14.4
		l10.2,7.4l1.2,19L500,345z M573.2,283.8l9.6-7v11L573.2,283.8z M535.6,266v-18.2l6.8,2.6l3,20.2L535.6,266z M530.2,263.4l-8.2-43.2
		l34.4,22.6l-13.2,5.8l-9.6-3.8V265L530.2,263.4z M559,244.2h6l8.8,18.6l2.8,16.4l-5.4,3.8l-23.6-11.4l-3.2-21.4L559,244.2z
		 M576,263.8l5.8,2.4l1,8l-4.6,3.4L576,263.8z M627.8,308.2l3,38L612,332L627.8,308.2z M628.2,288.4l23.4-26.4l1.2,26v63l-6.4,7
		l-13.6-10.4L628.2,288.4z M642.4,388.6v13.6l-0.8,26.8l-30-35.8v-37.4L642.4,388.6z M668.4,430.6h-25l0.4-15.6L668.4,430.6z
		 M644,412.6l0.2-8.4l44.4,32.4l-3.2,2.4l-12.8-8.2v-0.2h-0.4L644,412.6z M557.8,534.4l-12.4-2.2l26.8-66.2l4.2,6.4L557.8,534.4z
		 M578.2,473.8l31.2,20.6l-25.8,54.8l-22.2-19.4L578.2,473.8z M573.6,463.6l14.6-36.2l31.2,8.6v11.4l34,28.4l15-15.6l-4,111l-6.8,8
		l-29.4-42.6L626,505l-11.6-12h-3l-0.4-2.6l-1,2l-31.8-21L573.6,463.6z M653,473l-32-26.6v-9.8l53,14.6L653,473z M682,571.6
		l-16.8,35.2l-7.8,13.6l-20-29.4l-3.6-23l8.6,14l8.6-8.8l6.4,9.4l8.8-10.6l0.8-21.2L682,571.6z M632.8,562.8l-3.8-21.6l20.8,30.2
		l-7.2,7.4L632.8,562.8z M696.4,472l23.6,40.6l-7.4,8.2L695.8,494L696.4,472z M699.4,437.4l41.6,65.8l-6,31l-38.4-66h-0.2l0.2-9.4
		l0,0l0.8-18.4L699.4,437.4z M734,536.6l-8.4,5l-11.8-19l7.2-8.2L734,536.6z M742,571.4l-25.2,22.2l-8.4-5.6l-17.2-20.4l4.4-70.2
		L742,571.4z M706,588.4l-11.8,6.6L668,605.6l16-33.2l6-3.2L706,588.4z M695.4,598l25,26.4l6.8,9.6l-7,5L707,627.4l-13.8-15.8
		L695.4,598z M705.2,628.4l-10.6,37.4l-1.4-51.2L705.2,628.4z M639.6,713.4l-28-218.4h2l10.4,10.8l2.2,31.4l4.6,26.2L650,685.8
		L639.6,713.4z M631.2,663.2l-43-60.8l-4.6-49l26.4-56L631.2,663.2z M553.4,666H545l2.2-26.2l7.8,6.8L553.4,666z M543.2,666.4
		L514.6,677l-3.2-10.8l15.4-44.8l18.8,16.8L543.2,666.4z M525.4,617.4l19.6-34.8l18,24.6v17v27L525.4,617.4z M532.8,562.8l11.8-29
		l14.6,2.4l1.4-4.6l22,19.2l-1,2.2v0.2l5,54L565,620.4v-14l-0.2-0.2L532.8,562.8z M531.6,560.8l-38.8-63.6l7-49.4l59.4,4l10.2-34.4
		l23.8-13.2l-7,21.6L531.6,560.8z M504,519.2l-16.2,12.6l-14-17.6l17.8-15.2L504,519.2z M504,559l-7.4,19.8l-46-41.8l2.2-15.2
		l6.8-24l12.8,17.8l0,0l14.4,18.4L504,559z M495.8,580.8l-2.2,6.2l-44-42.4l0.2-1.4l0,0l0.6-3.8L495.8,580.8z M492.8,589l-14.4,39.2
		L442.2,596l7-49L492.8,589z M448.2,539.8l-19.6-39.2l22.2,21.2l-2.2,15.6v0.2l0,0L448.2,539.8z M447.2,542.6l-44.8,27l2.6-12h0.2
		l1-6.6l19.2-52.4L447.2,542.6z M407.6,541.4l7.6-53.4l8.8,8.4L407.6,541.4z M401.6,564.4l-14.8-19.6l1.8-2l14.8,13L401.6,564.4z
		 M445.6,332l21.4-43l-21.8-14.8l-8.8-22.2l66.8,42.4l-4,35l0,0l-1.2,14.2l-38.6-36.4l10,22l-1.6,22L445.6,332z M361.2,313.8
		l27.4-63.2l55.6,24.8l20.6,14l-20.4,41l-19.2-15.8L415,329v-8.2L404,335l-4-31.8l-20.2,32.6L361.2,313.8z M345.4,203l62.8,24.8
		l15.8,7l-8.2,25.8L387.4,248l-27.6,64l-27.2-39l-6.4,8.8l-31.4-103L345.4,203L345.4,203z M482.6,260.2h6.2l2.6,24l-59-37.4
		l10.2,25.8l-25.2-11.2l9-27.6l-15-6.6l32-9.4l-20-15l17.6-20l30.4,84.2L482.6,260.2z M508.6,255.4l-8.8,34.4l-6.2-4l-3-27.2h-6.8
		l4.6-13L508.6,255.4z M559.4,192.2l-2.6,2.2l-37.2-15.8v11L472.4,177l13,43.4l-5.6,4.2l-19.4-58.2l21.2-21.8l76,25.6l0.4,22
		L559.4,192.2z M552.4,198.6l-30.8-8.2v-8.6l33.6,14.2L552.4,198.6z M564.4,190.2v11.4l-9.8-2.6L564.4,190.2z M609.2,209.2l-3.6,3.4
		l-39.2-10.4V186l-6.4,5.8l-0.4-20.4L594,193L609.2,209.2z M700.6,240l2.8,56.8l-37.2-5.6v-42.4l-11.6,34l-1.2-25.8l-25.2,28.6V265
		l-49-16.8l2.2,15.8l-5.8-2.6l-9.2-19.6h-7.2l-39.8-26l8.8,46.4L500,248.8l-12.4-28.2L475.4,180L700.6,240z M699.8,221.8l0.8,16.4
		l-7.2-2L699.8,221.8z M691.2,236l-7.2-2v-31.4l14.8-0.6l0.8,15.4L691.2,236z M706.8,197.6l-7.2,2.4l-15.4,0.6V168l22.6,13.4V197.6z
		 M708.2,199.4l34.4,10.8l5,27.8l-0.8,1.2l1,0.6l8.2,47L705.6,297l-4.6-95.4L708.2,199.4z M750,234l-1,1.6l-4.8-27L709,197.4v-16.2
		l29-25.2l4.2,17L750,234z M819.2,263.6l-18.8-27.4l-15,22L772,254l-12.4-58l40.4-25l27.4,83.6L819.2,263.6z M826.2,281.6
		l-38.8-22.4l13.2-19.2l17.8,26L826.2,281.6z M758,289.4l46.4,36.2l-2.2,7L758,303V289.4z M757.8,287l-8-45.8l20,12l0.6,2.4
		l15.2,4.8l61.6,35.4L821,336L757.8,287z M746.8,358.2L727,337.8l9.2-5.6l19-43.2l0.8-0.2v15.4l1.6,43L746.8,358.2z M750.4,365.4
		l-17.4,21l-18.8-23.8l11.2-23.4l20.4,21L750.4,365.4z M795.4,381.6l52.2,41.2v27l-34.2-3.2L795.4,381.6z M745.8,574.4l-1.6-3
		L759.4,460h4.2v20.8l-3.2,5.2l0.2,0.2l-4.6,81.2L745.8,574.4z M758.2,568.2l0.4-8.8l0.6,1.2L771,555l-14,49l-10.2-27.8L758.2,568.2
		z M783.2,523.2L762.8,486l1.2-2h30.2l12.2-22.8L783.2,523.2z M811,707l-35-78.8l-3.8,4.6l-6.4-13.4l7.6-31.6h-10l10.4-36.2
		l-15.4,7.2l3.8-69.4l20,36.6l65.2,158.8L834,711L811,707z M806.2,723.6l-17-40v-17.2l-15.4-31.8l2.2-2.8l33.6,75.8L806.2,723.6z
		 M797.8,747l-69.4-147.2l-7.6,22.2l-24.2-26.2l11.2-6.2l9.2,6.4l26-23l1.8,3.2l12.4,34.4l6-21h8l-7.2,29.8l23,47.6v17.2l18.2,42.8
		l-0.6,3L797.8,747z M793.2,758l-54.6-41.4l-28.8-84.2l10.2,9l9.8-7l-7.6-10.8l6.4-18.6l68,144.4L793.2,758z M722.4,745.6l15.4-27
		l54,40.8l-21.4,18.2l-28-11.6L722.4,745.6z M705,772.8l16.4-25.2l19.2,19.4l-22,28.8L705,772.8z M671,715.4l10.6-9.8l14.4,3
		l-1.2-40l1,0.4l11-38.8l0.2,0.2l29.6,86.8l-16.2,28.2l-16.6,25.4L671,715.4z M641.8,739.6l-1.8-22l7-18.6l32,6.4l-10.8,10l0,0
		L641.8,739.6z M600.4,721.2l-11.6-114.8l43.2,61l6.4,50l2,24.2v6.8l-4.4-0.6L600.4,721.2z M610.6,747.8l-70.8-12.6L599,723
		l32.8,24.2L610.6,747.8z M592,762.8l3.2-15.8l13,2.4L592,762.8z M506,780.2l29-43.8l58.4,10.4l-3.6,17.8L506,780.2z M506.4,775.8
		l1.4-19.6l22.8-16.8L506.4,775.8z M475.6,730.6l30.2,25.6l-1.6,23l-0.2,0.4L475.6,730.6z M343.6,642.6l3.4-25.8l38.8,14l10.6-11
		l48.8,16.2l8.4-27.6l25.8,23l27-73.2l-17.2-24.8l16-12.4l27,44.2V565l11.6,15.8l-21,37l2.2,2L498.4,697l-128-52.4l3.8,12.2
		L343.6,642.6z M297.8,722l13.8-23.6V698l-12.2-77.8L279.8,639l1.2-48.2l2-8.6l111.2,37l-9,9.4l-88.4-31.8l-0.6,1.8l49,17.6l-3.6,27
		L335,685l-33,44.6L297.8,722z M251.2,695.4l12.4,22.2l-3,58.6l-7-20.2L251.2,695.4z M277.2,700.4l-8,8.4l-0.2-0.2l-4.4,7L250.8,691
		l-12.2-17.4l6-8.2l5.4,7.6l0,0L277.2,700.4z M219.6,561.6l61.6,20.4l-2,8l-39-6.6l-20.6-6.2V561.6z M186.6,476.2l81,37l-10.2,21
		l-66-20.8L186.6,476.2z M182,461l21,12l20,17.4l-36.6-16.8L182,461z"/>
</g>
</svg>
