<?xml version="1.0" encoding="utf-8"?>
<!-- Generator: Adobe Illustrator 17.1.0, SVG Export Plug-In . SVG Version: 6.00 Build 0)  -->
<!DOCTYPE svg PUBLIC "-//W3C//DTD SVG 1.1//EN" "http://www.w3.org/Graphics/SVG/1.1/DTD/svg11.dtd">
<svg version="1.1" id="Layer_1" xmlns="http://www.w3.org/2000/svg" xmlns:xlink="http://www.w3.org/1999/xlink" x="0px" y="0px"
	 viewBox="0 0 300 300" enable-background="new 0 0 300 300" xml:space="preserve">
<rect x="69.2" y="139.2" fill="#FFFFFF" stroke="#16B34C" stroke-miterlimit="10" width="35.4" height="3.9"/>
<rect x="69.2" y="131.4" fill="#FFFFFF" stroke="#16B34C" stroke-miterlimit="10" width="25.6" height="3.9"/>
<polygon fill="#FFFFFF" stroke="#16B34C" stroke-miterlimit="10" points="69.2,129.3 92.8,129.3 90.8,131.3 69.2,131.3 "/>
<polygon fill="#FFFFFF" stroke="#16B34C" stroke-miterlimit="10" points="92.8,129.3 108.5,129.3 106.6,131.3 90.8,131.3 "/>
<polygon fill="#FFFFFF" stroke="#16B34C" stroke-miterlimit="10" points="94.7,131.3 104.6,131.3 100.7,135.3 94.7,135.3 "/>
<rect x="69.2" y="135.3" fill="#FFFFFF" stroke="#16B34C" stroke-miterlimit="10" width="23.6" height="2"/>
<rect x="69.2" y="137.2" fill="#FFFFFF" stroke="#16B34C" stroke-miterlimit="10" width="31.4" height="2"/>
<polygon fill="#FFFFFF" stroke="#16B34C" stroke-miterlimit="10" points="98.7,143.1 92.8,149 67.2,149 67.2,143.1 "/>
<rect x="67.2" y="149" fill="#FFFFFF" stroke="#16B34C" stroke-miterlimit="10" width="33.4" height="2"/>
<polygon fill="#FFFFFF" stroke="#16B34C" stroke-miterlimit="10" points="86.9,151 84.9,152.9 63.3,152.9 63.3,151 "/>
<polygon fill="#FFFFFF" stroke="#16B34C" stroke-miterlimit="10" points="88.8,152.9 86.9,154.9 63.3,154.9 63.3,152.9 "/>
<polygon fill="#FFFFFF" stroke="#16B34C" stroke-miterlimit="10" points="39.1,135.2 146.1,135.2 144.2,137.2 37.2,137.2 "/>
<polygon fill="#FFFFFF" stroke="#16B34C" stroke-miterlimit="10" points="41.1,137.2 142.2,137.2 138.3,141.1 41.1,141.1 "/>
<rect x="26.2" y="143.1" fill="#FFFFFF" stroke="#16B34C" stroke-miterlimit="10" width="112" height="2"/>
<polygon fill="#FFFFFF" stroke="#16B34C" stroke-miterlimit="10" points="86.9,125.4 84.9,127.3 63.3,127.3 63.3,125.4 "/>
<polygon fill="#FFFFFF" stroke="#16B34C" stroke-miterlimit="10" points="88.8,127.3 86.9,129.3 63.3,129.3 63.3,127.3 "/>
<rect x="42.9" y="117.2" fill="#FFFFFF" stroke="#16B34C" stroke-miterlimit="10" width="107.3" height="8.2"/>
<polygon fill="#FFFFFF" stroke="#16B34C" stroke-miterlimit="10" points="164.1,68.4 150.5,82 101,82 101,68.4 "/>
<polygon fill="#FFFFFF" stroke="#16B34C" stroke-miterlimit="10" points="83,82 118.3,117.2 118.3,117.2 83,117.2 "/>
<rect x="21.7" y="73.2" fill="#FFFFFF" stroke="#16B34C" stroke-miterlimit="10" width="79.3" height="3.4"/>
<rect x="24.9" y="76.6" fill="#FFFFFF" stroke="#16B34C" stroke-miterlimit="10" width="76.1" height="5.4"/>
<rect x="79" y="82" fill="#FFFFFF" stroke="#16B34C" stroke-miterlimit="10" width="4" height="35.2"/>
<rect x="38.2" y="92" fill="#FFFFFF" stroke="#16B34C" stroke-miterlimit="10" width="40.8" height="6.4"/>
<rect x="54.9" y="98.4" fill="#FFFFFF" stroke="#16B34C" stroke-miterlimit="10" width="24.1" height="18.8"/>
<rect x="44.4" y="38.7" fill="#FFFFFF" stroke="#16B34C" stroke-miterlimit="10" width="4.6" height="34.4"/>
<rect x="49" y="57.8" fill="#FFFFFF" stroke="#16B34C" stroke-miterlimit="10" width="51.9" height="15.4"/>
<rect x="69.2" y="245.5" fill="#FFFFFF" stroke="#16B34C" stroke-miterlimit="10" width="35.4" height="3.9"/>
<rect x="69.2" y="237.7" fill="#FFFFFF" stroke="#16B34C" stroke-miterlimit="10" width="25.6" height="3.9"/>
<polygon fill="#FFFFFF" stroke="#16B34C" stroke-miterlimit="10" points="69.2,235.7 92.8,235.7 90.8,237.7 69.2,237.7 "/>
<polygon fill="#FFFFFF" stroke="#16B34C" stroke-miterlimit="10" points="92.8,235.7 108.5,235.7 106.6,237.7 90.8,237.7 "/>
<polygon fill="#FFFFFF" stroke="#16B34C" stroke-miterlimit="10" points="94.7,237.7 104.6,237.7 100.7,241.6 94.7,241.6 "/>
<rect x="69.2" y="241.6" fill="#FFFFFF" stroke="#16B34C" stroke-miterlimit="10" width="23.6" height="2"/>
<rect x="69.2" y="243.6" fill="#FFFFFF" stroke="#16B34C" stroke-miterlimit="10" width="31.4" height="2"/>
<polygon fill="#FFFFFF" stroke="#16B34C" stroke-miterlimit="10" points="98.7,249.4 92.8,255.3 67.2,255.3 67.2,249.4 "/>
<rect x="67.2" y="255.3" fill="#FFFFFF" stroke="#16B34C" stroke-miterlimit="10" width="33.4" height="2"/>
<polygon fill="#FFFFFF" stroke="#16B34C" stroke-miterlimit="10" points="86.9,257.3 84.9,259.3 63.3,259.3 63.3,257.3 "/>
<polygon fill="#FFFFFF" stroke="#16B34C" stroke-miterlimit="10" points="88.8,259.3 86.9,261.3 63.3,261.3 63.3,259.3 "/>
<polygon fill="#FFFFFF" stroke="#16B34C" stroke-miterlimit="10" points="39.1,241.5 146.1,241.5 144.2,243.5 37.2,243.5 "/>
<polygon fill="#FFFFFF" stroke="#16B34C" stroke-miterlimit="10" points="41.1,243.5 142.2,243.5 138.3,247.4 41.1,247.4 "/>
<rect x="26.2" y="249.4" fill="#FFFFFF" stroke="#16B34C" stroke-miterlimit="10" width="112" height="2"/>
<polygon fill="#FFFFFF" stroke="#16B34C" stroke-miterlimit="10" points="86.9,231.8 84.9,233.7 63.3,233.7 63.3,231.8 "/>
<polygon fill="#FFFFFF" stroke="#16B34C" stroke-miterlimit="10" points="88.8,233.7 86.9,235.7 63.3,235.7 63.3,233.7 "/>
<rect x="42.9" y="223.6" fill="#FFFFFF" stroke="#16B34C" stroke-miterlimit="10" width="107.3" height="8.2"/>
<polygon fill="#FFFFFF" stroke="#16B34C" stroke-miterlimit="10" points="164.1,174.8 150.5,188.4 101,188.4 101,174.8 "/>
<polygon fill="#FFFFFF" stroke="#16B34C" stroke-miterlimit="10" points="83,188.4 118.3,223.6 118.3,223.6 83,223.6 "/>
<rect x="21.7" y="179.5" fill="#FFFFFF" stroke="#16B34C" stroke-miterlimit="10" width="79.3" height="3.4"/>
<rect x="24.9" y="183" fill="#FFFFFF" stroke="#16B34C" stroke-miterlimit="10" width="76.1" height="5.4"/>
<rect x="79" y="188.4" fill="#FFFFFF" stroke="#16B34C" stroke-miterlimit="10" width="4" height="35.2"/>
<rect x="38.2" y="198.4" fill="#FFFFFF" stroke="#16B34C" stroke-miterlimit="10" width="40.8" height="6.4"/>
<rect x="54.9" y="204.8" fill="#FFFFFF" stroke="#16B34C" stroke-miterlimit="10" width="24.1" height="18.8"/>
<rect x="44.4" y="145.1" fill="#FFFFFF" stroke="#16B34C" stroke-miterlimit="10" width="4.6" height="34.4"/>
<rect x="49" y="164.1" fill="#FFFFFF" stroke="#16B34C" stroke-miterlimit="10" width="51.9" height="15.4"/>
<rect x="195.4" y="139.2" fill="#FFFFFF" stroke="#16B34C" stroke-miterlimit="10" width="35.4" height="3.9"/>
<rect x="205.3" y="131.4" fill="#FFFFFF" stroke="#16B34C" stroke-miterlimit="10" width="25.6" height="3.9"/>
<polygon fill="#FFFFFF" stroke="#16B34C" stroke-miterlimit="10" points="230.8,131.3 209.2,131.3 207.2,129.3 230.8,129.3 "/>
<polygon fill="#FFFFFF" stroke="#16B34C" stroke-miterlimit="10" points="209.2,131.3 193.4,131.3 191.5,129.3 207.2,129.3 "/>
<polygon fill="#FFFFFF" stroke="#16B34C" stroke-miterlimit="10" points="205.3,135.3 199.3,135.3 195.4,131.3 205.3,131.3 "/>
<rect x="207.2" y="135.3" fill="#FFFFFF" stroke="#16B34C" stroke-miterlimit="10" width="23.6" height="2"/>
<rect x="199.4" y="137.2" fill="#FFFFFF" stroke="#16B34C" stroke-miterlimit="10" width="31.4" height="2"/>
<polygon fill="#FFFFFF" stroke="#16B34C" stroke-miterlimit="10" points="232.8,143.1 232.8,149 207.2,149 201.3,143.1 "/>
<rect x="199.3" y="149" fill="#FFFFFF" stroke="#16B34C" stroke-miterlimit="10" width="33.4" height="2"/>
<polygon fill="#FFFFFF" stroke="#16B34C" stroke-miterlimit="10" points="236.7,151 236.7,152.9 215.1,152.9 213.1,151 "/>
<polygon fill="#FFFFFF" stroke="#16B34C" stroke-miterlimit="10" points="236.7,152.9 236.7,154.9 213.1,154.9 211.2,152.9 "/>
<polygon fill="#FFFFFF" stroke="#16B34C" stroke-miterlimit="10" points="262.8,137.2 155.8,137.2 153.9,135.2 260.9,135.2 "/>
<polygon fill="#FFFFFF" stroke="#16B34C" stroke-miterlimit="10" points="258.9,141.1 161.7,141.1 157.8,137.2 258.9,137.2 "/>
<rect x="161.8" y="143.1" fill="#FFFFFF" stroke="#16B34C" stroke-miterlimit="10" width="112" height="2"/>
<polygon fill="#FFFFFF" stroke="#16B34C" stroke-miterlimit="10" points="236.7,125.4 236.7,127.3 215.1,127.3 213.1,125.4 "/>
<polygon fill="#FFFFFF" stroke="#16B34C" stroke-miterlimit="10" points="236.7,127.3 236.7,129.3 213.1,129.3 211.2,127.3 "/>
<rect x="149.8" y="117.2" fill="#FFFFFF" stroke="#16B34C" stroke-miterlimit="10" width="107.3" height="8.2"/>
<polygon fill="#FFFFFF" stroke="#16B34C" stroke-miterlimit="10" points="135.9,68.4 149.5,82 199,82 199,68.4 "/>
<polygon fill="#FFFFFF" stroke="#16B34C" stroke-miterlimit="10" points="217,82 181.7,117.2 181.7,117.2 217,117.2 "/>
<rect x="199" y="73.2" fill="#FFFFFF" stroke="#16B34C" stroke-miterlimit="10" width="79.3" height="3.4"/>
<rect x="199" y="76.6" fill="#FFFFFF" stroke="#16B34C" stroke-miterlimit="10" width="76.1" height="5.4"/>
<rect x="217" y="82" fill="#FFFFFF" stroke="#16B34C" stroke-miterlimit="10" width="4" height="35.2"/>
<rect x="221" y="92" fill="#FFFFFF" stroke="#16B34C" stroke-miterlimit="10" width="40.8" height="6.4"/>
<rect x="221" y="98.4" fill="#FFFFFF" stroke="#16B34C" stroke-miterlimit="10" width="24.1" height="18.8"/>
<rect x="251" y="38.7" fill="#FFFFFF" stroke="#16B34C" stroke-miterlimit="10" width="4.6" height="34.4"/>
<rect x="199" y="57.8" fill="#FFFFFF" stroke="#16B34C" stroke-miterlimit="10" width="51.9" height="15.4"/>
<rect x="195.4" y="245.5" fill="#FFFFFF" stroke="#16B34C" stroke-miterlimit="10" width="35.4" height="3.9"/>
<rect x="205.3" y="237.7" fill="#FFFFFF" stroke="#16B34C" stroke-miterlimit="10" width="25.6" height="3.9"/>
<polygon fill="#FFFFFF" stroke="#16B34C" stroke-miterlimit="10" points="230.8,237.7 209.2,237.7 207.2,235.7 230.8,235.7 "/>
<polygon fill="#FFFFFF" stroke="#16B34C" stroke-miterlimit="10" points="209.2,237.7 193.4,237.7 191.5,235.7 207.2,235.7 "/>
<polygon fill="#FFFFFF" stroke="#16B34C" stroke-miterlimit="10" points="205.3,241.6 199.3,241.6 195.4,237.7 205.3,237.7 "/>
<rect x="207.2" y="241.6" fill="#FFFFFF" stroke="#16B34C" stroke-miterlimit="10" width="23.6" height="2"/>
<rect x="199.4" y="243.6" fill="#FFFFFF" stroke="#16B34C" stroke-miterlimit="10" width="31.4" height="2"/>
<polygon fill="#FFFFFF" stroke="#16B34C" stroke-miterlimit="10" points="232.8,249.4 232.8,255.3 207.2,255.3 201.3,249.4 "/>
<rect x="199.3" y="255.3" fill="#FFFFFF" stroke="#16B34C" stroke-miterlimit="10" width="33.4" height="2"/>
<polygon fill="#FFFFFF" stroke="#16B34C" stroke-miterlimit="10" points="236.7,257.3 236.7,259.3 215.1,259.3 213.1,257.3 "/>
<polygon fill="#FFFFFF" stroke="#16B34C" stroke-miterlimit="10" points="236.7,259.3 236.7,261.3 213.1,261.3 211.2,259.3 "/>
<polygon fill="#FFFFFF" stroke="#16B34C" stroke-miterlimit="10" points="262.8,243.5 155.8,243.5 153.9,241.5 260.9,241.5 "/>
<polygon fill="#FFFFFF" stroke="#16B34C" stroke-miterlimit="10" points="258.9,247.4 161.7,247.4 157.8,243.5 258.9,243.5 "/>
<rect x="161.8" y="249.4" fill="#FFFFFF" stroke="#16B34C" stroke-miterlimit="10" width="112" height="2"/>
<polygon fill="#FFFFFF" stroke="#16B34C" stroke-miterlimit="10" points="236.7,231.8 236.7,233.7 215.1,233.7 213.1,231.8 "/>
<polygon fill="#FFFFFF" stroke="#16B34C" stroke-miterlimit="10" points="236.7,233.7 236.7,235.7 213.1,235.7 211.2,233.7 "/>
<rect x="149.8" y="223.6" fill="#FFFFFF" stroke="#16B34C" stroke-miterlimit="10" width="107.3" height="8.2"/>
<polygon fill="#FFFFFF" stroke="#16B34C" stroke-miterlimit="10" points="135.9,174.8 149.5,188.4 199,188.4 199,174.8 "/>
<polygon fill="#FFFFFF" stroke="#16B34C" stroke-miterlimit="10" points="217,188.4 181.7,223.6 181.7,223.6 217,223.6 "/>
<rect x="199" y="179.5" fill="#FFFFFF" stroke="#16B34C" stroke-miterlimit="10" width="79.3" height="3.4"/>
<rect x="199" y="183" fill="#FFFFFF" stroke="#16B34C" stroke-miterlimit="10" width="76.1" height="5.4"/>
<rect x="217" y="188.4" fill="#FFFFFF" stroke="#16B34C" stroke-miterlimit="10" width="4" height="35.2"/>
<rect x="221" y="198.4" fill="#FFFFFF" stroke="#16B34C" stroke-miterlimit="10" width="40.8" height="6.4"/>
<rect x="221" y="204.8" fill="#FFFFFF" stroke="#16B34C" stroke-miterlimit="10" width="24.1" height="18.8"/>
<rect x="251" y="145.1" fill="#FFFFFF" stroke="#16B34C" stroke-miterlimit="10" width="4.6" height="34.4"/>
<rect x="199" y="164.1" fill="#FFFFFF" stroke="#16B34C" stroke-miterlimit="10" width="51.9" height="15.4"/>
</svg>
