<?xml version="1.0" encoding="utf-8"?>
<!-- Generator: Adobe Illustrator 17.1.0, SVG Export Plug-In . SVG Version: 6.00 Build 0)  -->
<!DOCTYPE svg PUBLIC "-//W3C//DTD SVG 1.1//EN" "http://www.w3.org/Graphics/SVG/1.1/DTD/svg11.dtd">
<svg version="1.1" id="Layer_1" xmlns="http://www.w3.org/2000/svg" xmlns:xlink="http://www.w3.org/1999/xlink" x="0px" y="0px"
	 viewBox="100 100 100 100" enable-background="new 100 100 100 100" xml:space="preserve">
<polygon fill="#FFFFFF" stroke="#16B34C" stroke-miterlimit="10" points="117.9,147.9 117.9,131.8 146.2,160.1 146.2,168.2 
	121.9,143.9 121.9,152 "/>
<polygon fill="#FFFFFF" stroke="#16B34C" stroke-miterlimit="10" points="146.2,180.4 146.2,143.9 134.1,131.8 134.1,123.8 
	150.3,139.9 150.3,180.4 "/>
<polygon fill="#FFFFFF" stroke="#16B34C" stroke-miterlimit="10" points="142.1,156.1 142.1,143.9 121.9,123.8 121.9,119.6 
	146.2,143.9 146.2,160.1 "/>
<polygon fill="#FFFFFF" stroke="#16B34C" stroke-miterlimit="10" points="142.1,156.1 142.1,147.9 113.8,119.6 113.8,127.8 "/>
<polygon fill="#FFFFFF" stroke="#16B34C" stroke-miterlimit="10" points="178.1,152 178.1,143.9 153.8,168.2 153.8,160.1 
	182.1,131.8 182.1,147.9 "/>
<polygon fill="#FFFFFF" stroke="#16B34C" stroke-miterlimit="10" points="149.7,180.4 149.7,139.9 165.9,123.8 165.9,131.8 
	153.8,143.9 153.8,180.4 "/>
<polygon fill="#FFFFFF" stroke="#16B34C" stroke-miterlimit="10" points="153.8,160.1 153.8,143.9 178.1,119.6 178.1,123.8 
	157.9,143.9 157.9,156.1 "/>
<polygon fill="#FFFFFF" stroke="#16B34C" stroke-miterlimit="10" points="186.2,127.8 186.2,119.6 157.9,147.9 157.9,156.1 "/>
</svg>
