<?xml version="1.0" encoding="utf-8"?>
<!-- Generator: Adobe Illustrator 17.1.0, SVG Export Plug-In . SVG Version: 6.00 Build 0)  -->
<!DOCTYPE svg PUBLIC "-//W3C//DTD SVG 1.1//EN" "http://www.w3.org/Graphics/SVG/1.1/DTD/svg11.dtd">
<svg version="1.1" id="Layer_1" xmlns="http://www.w3.org/2000/svg" xmlns:xlink="http://www.w3.org/1999/xlink" x="0px" y="0px"
	 viewBox="0 0 1000 1000" enable-background="new 0 0 1000 1000" xml:space="preserve">
<g>
	<rect x="512.1" y="448.7" fill="#FFFFFF" stroke="#16B34C" stroke-miterlimit="10" width="7.5" height="134.5"/>
	<rect x="522.6" y="446.5" fill="#FFFFFF" stroke="#16B34C" stroke-miterlimit="10" width="7.8" height="133.1"/>
	<rect x="533" y="444.2" fill="#FFFFFF" stroke="#16B34C" stroke-miterlimit="10" width="8" height="131.6"/>
	<rect x="543.5" y="442" fill="#FFFFFF" stroke="#16B34C" stroke-miterlimit="10" width="8.2" height="130.2"/>
	<rect x="554" y="439.8" fill="#FFFFFF" stroke="#16B34C" stroke-miterlimit="10" width="8.5" height="128.7"/>
	<rect x="564.4" y="437.5" fill="#FFFFFF" stroke="#16B34C" stroke-miterlimit="10" width="8.8" height="127.3"/>
	<rect x="574.9" y="435.3" fill="#FFFFFF" stroke="#16B34C" stroke-miterlimit="10" width="9" height="125.8"/>
	<rect x="585.4" y="433" fill="#FFFFFF" stroke="#16B34C" stroke-miterlimit="10" width="9.2" height="124.4"/>
	<rect x="595.8" y="430.8" fill="#FFFFFF" stroke="#16B34C" stroke-miterlimit="10" width="9.5" height="122.9"/>
	<rect x="606.3" y="428.6" fill="#FFFFFF" stroke="#16B34C" stroke-miterlimit="10" width="9.8" height="121.5"/>
	<rect x="616.8" y="426.3" fill="#FFFFFF" stroke="#16B34C" stroke-miterlimit="10" width="10" height="120.1"/>
	<rect x="627.2" y="424.1" fill="#FFFFFF" stroke="#16B34C" stroke-miterlimit="10" width="10.2" height="118.6"/>
	<rect x="637.7" y="421.8" fill="#FFFFFF" stroke="#16B34C" stroke-miterlimit="10" width="10.5" height="117.2"/>
	<rect x="648.2" y="419.6" fill="#FFFFFF" stroke="#16B34C" stroke-miterlimit="10" width="10.8" height="115.7"/>
	<rect x="658.6" y="417.4" fill="#FFFFFF" stroke="#16B34C" stroke-miterlimit="10" width="11" height="114.3"/>
	<rect x="669.1" y="415.1" fill="#FFFFFF" stroke="#16B34C" stroke-miterlimit="10" width="11.2" height="112.8"/>
	<rect x="679.6" y="412.9" fill="#FFFFFF" stroke="#16B34C" stroke-miterlimit="10" width="11.5" height="111.4"/>
	<rect x="690" y="410.6" fill="#FFFFFF" stroke="#16B34C" stroke-miterlimit="10" width="11.8" height="109.9"/>
	<rect x="700.5" y="408.4" fill="#FFFFFF" stroke="#16B34C" stroke-miterlimit="10" width="12" height="108.5"/>
	<rect x="688.5" y="423.4" fill="#FFFFFF" stroke="#16B34C" stroke-miterlimit="10" width="12" height="93.5"/>
	<rect x="676.5" y="438.5" fill="#FFFFFF" stroke="#16B34C" stroke-miterlimit="10" width="12" height="78.4"/>
	<rect x="666" y="439.1" fill="#FFFFFF" stroke="#16B34C" stroke-miterlimit="10" width="11.7" height="83.5"/>
	<rect x="655.4" y="439.7" fill="#FFFFFF" stroke="#16B34C" stroke-miterlimit="10" width="11.5" height="88.5"/>
	<rect x="644.9" y="440.3" fill="#FFFFFF" stroke="#16B34C" stroke-miterlimit="10" width="11.2" height="93.6"/>
	<rect x="634.3" y="440.9" fill="#FFFFFF" stroke="#16B34C" stroke-miterlimit="10" width="10.9" height="98.6"/>
	<rect x="623.8" y="441.5" fill="#FFFFFF" stroke="#16B34C" stroke-miterlimit="10" width="10.7" height="103.7"/>
	<rect x="613.2" y="442.1" fill="#FFFFFF" stroke="#16B34C" stroke-miterlimit="10" width="10.4" height="108.7"/>
	<rect x="602.7" y="442.7" fill="#FFFFFF" stroke="#16B34C" stroke-miterlimit="10" width="10.1" height="113.8"/>
	<rect x="592.1" y="443.3" fill="#FFFFFF" stroke="#16B34C" stroke-miterlimit="10" width="9.9" height="118.8"/>
	<rect x="581.6" y="443.9" fill="#FFFFFF" stroke="#16B34C" stroke-miterlimit="10" width="9.6" height="123.9"/>
	<rect x="571" y="444.5" fill="#FFFFFF" stroke="#16B34C" stroke-miterlimit="10" width="9.4" height="128.9"/>
	<rect x="560.5" y="445.1" fill="#FFFFFF" stroke="#16B34C" stroke-miterlimit="10" width="9.1" height="134"/>
	<rect x="549.9" y="445.7" fill="#FFFFFF" stroke="#16B34C" stroke-miterlimit="10" width="8.8" height="139"/>
	<rect x="539.4" y="446.3" fill="#FFFFFF" stroke="#16B34C" stroke-miterlimit="10" width="8.6" height="144.1"/>
	<rect x="528.8" y="446.9" fill="#FFFFFF" stroke="#16B34C" stroke-miterlimit="10" width="8.3" height="149.1"/>
	<rect x="518.3" y="447.5" fill="#FFFFFF" stroke="#16B34C" stroke-miterlimit="10" width="8" height="154.2"/>
	<rect x="507.7" y="448.1" fill="#FFFFFF" stroke="#16B34C" stroke-miterlimit="10" width="7.8" height="159.2"/>
	<rect x="497.2" y="448.7" fill="#FFFFFF" stroke="#16B34C" stroke-miterlimit="10" width="7.5" height="164.3"/>
	<polygon fill="#FFFFFF" stroke="#16B34C" stroke-miterlimit="10" points="505.1,448.5 512.5,448.8 512.5,608.7 505.1,608.7 	"/>
	<polygon fill="#FFFFFF" stroke="#16B34C" stroke-miterlimit="10" points="512.9,448.4 520.3,448.9 520.3,604.3 512.9,604.3 	"/>
	<polygon fill="#FFFFFF" stroke="#16B34C" stroke-miterlimit="10" points="520.8,448.2 528.1,449 528.1,599.9 520.8,599.9 	"/>
	<polygon fill="#FFFFFF" stroke="#16B34C" stroke-miterlimit="10" points="528.7,448 535.9,449 535.9,595.5 528.7,595.5 	"/>
	<polygon fill="#FFFFFF" stroke="#16B34C" stroke-miterlimit="10" points="536.6,447.8 543.7,449.1 543.7,591.2 536.6,591.2 	"/>
	<polygon fill="#FFFFFF" stroke="#16B34C" stroke-miterlimit="10" points="544.4,447.6 551.6,449.2 551.6,586.8 544.4,586.8 	"/>
	<polygon fill="#FFFFFF" stroke="#16B34C" stroke-miterlimit="10" points="552.3,447.4 559.4,449.3 559.4,582.4 552.3,582.4 	"/>
	<polygon fill="#FFFFFF" stroke="#16B34C" stroke-miterlimit="10" points="560.2,447.2 567.2,449.4 567.2,578.1 560.2,578.1 	"/>
	<polygon fill="#FFFFFF" stroke="#16B34C" stroke-miterlimit="10" points="568.1,447 575,449.5 575,573.7 568.1,573.7 	"/>
	<polygon fill="#FFFFFF" stroke="#16B34C" stroke-miterlimit="10" points="575.9,446.9 582.8,449.5 582.8,569.3 575.9,569.3 	"/>
	<polygon fill="#FFFFFF" stroke="#16B34C" stroke-miterlimit="10" points="583.8,446.7 590.6,449.6 590.6,565 583.8,565 	"/>
	<polygon fill="#FFFFFF" stroke="#16B34C" stroke-miterlimit="10" points="591.7,446.5 598.4,449.7 598.4,560.6 591.7,560.6 	"/>
	<polygon fill="#FFFFFF" stroke="#16B34C" stroke-miterlimit="10" points="599.5,446.3 606.2,449.8 606.2,556.2 599.5,556.2 	"/>
	<polygon fill="#FFFFFF" stroke="#16B34C" stroke-miterlimit="10" points="607.4,446.1 614,449.9 614,551.9 607.4,551.9 	"/>
	<polygon fill="#FFFFFF" stroke="#16B34C" stroke-miterlimit="10" points="615.3,445.9 621.8,449.9 621.8,547.5 615.3,547.5 	"/>
	<polygon fill="#FFFFFF" stroke="#16B34C" stroke-miterlimit="10" points="623.2,445.7 629.6,450 629.6,543.1 623.2,543.1 	"/>
	<polygon fill="#FFFFFF" stroke="#16B34C" stroke-miterlimit="10" points="631,445.5 637.5,450.1 637.5,538.7 631,538.7 	"/>
	<polygon fill="#FFFFFF" stroke="#16B34C" stroke-miterlimit="10" points="638.9,445.4 645.3,450.2 645.3,534.4 638.9,534.4 	"/>
	<polygon fill="#FFFFFF" stroke="#16B34C" stroke-miterlimit="10" points="646.8,445.2 653.1,450.3 653.1,530 646.8,530 	"/>
	<polygon fill="#FFFFFF" stroke="#16B34C" stroke-miterlimit="10" points="654.7,445 660.9,450.3 660.9,525.6 654.7,525.6 	"/>
	<polygon fill="#FFFFFF" stroke="#16B34C" stroke-miterlimit="10" points="662.5,444.8 668.7,450.4 668.7,521.3 662.5,521.3 	"/>
	<polygon fill="#FFFFFF" stroke="#16B34C" stroke-miterlimit="10" points="670.4,516.9 670.4,444.6 676.5,450.5 676.5,516.9 	"/>
	<polygon fill="#FFFFFF" stroke="#16B34C" stroke-miterlimit="10" points="670.4,480.8 670.4,420.5 676.5,426.4 676.5,483.7 	"/>
	<polygon fill="#FFFFFF" stroke="#16B34C" stroke-miterlimit="10" points="670.4,444.6 670.4,396.4 676.5,402.3 676.5,450.5 	"/>
	<polygon fill="#FFFFFF" stroke="#16B34C" stroke-miterlimit="10" points="673.5,441.5 673.5,402.4 682.5,411.3 682.5,444.5 	"/>
	<polygon fill="#FFFFFF" stroke="#16B34C" stroke-miterlimit="10" points="676.5,438.5 676.5,408.4 688.5,420.4 688.5,438.5 	"/>
	<polygon fill="#FFFFFF" stroke="#16B34C" stroke-miterlimit="10" points="682.5,426.5 691.5,432.5 691.5,477.7 682.5,477.7 	"/>
	<rect x="688.5" y="444.6" fill="#FFFFFF" stroke="#16B34C" stroke-miterlimit="10" width="6.1" height="72.3"/>
	<polygon fill="#FFFFFF" stroke="#16B34C" stroke-miterlimit="10" points="695.7,450.1 698.7,450.1 701.8,450.1 701.8,487.2 
		701.8,524.4 698.7,524.4 695.7,524.4 695.7,487.2 	"/>
	<polygon fill="#FFFFFF" stroke="#16B34C" stroke-miterlimit="10" points="702.8,455.5 705.9,455.5 708.9,455.5 708.9,493.7 
		708.9,531.8 705.9,531.8 702.8,531.8 702.8,493.7 	"/>
	<polygon fill="#FFFFFF" stroke="#16B34C" stroke-miterlimit="10" points="710,461 713,461 716.1,461 716.1,500.2 716.1,539.3 
		713,539.3 710,539.3 710,500.2 	"/>
	<polygon fill="#FFFFFF" stroke="#16B34C" stroke-miterlimit="10" points="717.1,466.5 720.2,466.5 723.2,466.5 723.2,506.6 
		723.2,546.8 720.2,546.8 717.1,546.8 717.1,506.6 	"/>
	<polygon fill="#FFFFFF" stroke="#16B34C" stroke-miterlimit="10" points="724.3,471.9 727.3,471.9 730.4,471.9 730.4,513.1 
		730.4,554.2 727.3,554.2 724.3,554.2 724.3,513.1 	"/>
	<polygon fill="#FFFFFF" stroke="#16B34C" stroke-miterlimit="10" points="731.5,477.4 734.5,477.4 737.5,477.4 737.5,519.6 
		737.5,561.7 734.5,561.7 731.5,561.7 731.5,519.6 	"/>
	<polygon fill="#FFFFFF" stroke="#16B34C" stroke-miterlimit="10" points="738.6,482.9 741.7,482.9 744.7,482.9 744.7,526 
		744.7,569.2 741.7,569.2 738.6,569.2 738.6,526 	"/>
	<polygon fill="#FFFFFF" stroke="#16B34C" stroke-miterlimit="10" points="745.8,488.4 748.8,488.4 751.9,488.4 751.9,532.5 
		751.9,576.7 748.8,576.7 745.8,576.7 745.8,532.5 	"/>
	<polygon fill="#FFFFFF" stroke="#16B34C" stroke-miterlimit="10" points="752.9,493.8 756,493.8 759,493.8 759,539 759,584.1 
		756,584.1 752.9,584.1 752.9,539 	"/>
	<polygon fill="#FFFFFF" stroke="#16B34C" stroke-miterlimit="10" points="760.1,499.3 763.1,499.3 766.2,499.3 766.2,545.4 
		766.2,591.6 763.1,591.6 760.1,591.6 760.1,545.4 	"/>
	<polygon fill="#FFFFFF" stroke="#16B34C" stroke-miterlimit="10" points="767.2,504.8 770.3,504.8 773.3,504.8 773.3,551.9 
		773.3,599.1 770.3,599.1 767.2,599.1 767.2,551.9 	"/>
	<polygon fill="#FFFFFF" stroke="#16B34C" stroke-miterlimit="10" points="774.4,510.2 777.4,510.2 780.5,510.2 780.5,558.4 
		780.5,606.5 777.4,606.5 774.4,606.5 774.4,558.4 	"/>
	<polygon fill="#FFFFFF" stroke="#16B34C" stroke-miterlimit="10" points="728,481.7 731.5,480.9 732,480.7 734.3,481.5 
		734.3,485.3 739.2,537.1 739.2,537.5 744.1,587.4 744.1,594.3 741.1,593.5 738.1,592.8 733.4,547.5 732.4,537.5 728,496.7 	"/>
	<polygon fill="#FFFFFF" stroke="#16B34C" stroke-miterlimit="10" points="681.6,453.1 685.5,451.6 686.2,451.2 688.1,452.7 
		688.1,457.3 697.9,516.3 698,516.7 707.8,574 707.8,582 704.8,580.4 701.9,579 692.4,527.9 690.3,516.6 681.6,470.2 	"/>
	<polygon fill="#FFFFFF" stroke="#16B34C" stroke-miterlimit="10" points="635.3,424.6 639.5,422.3 640.3,421.8 641.9,424 
		641.9,429.3 656.7,495.5 656.7,495.9 671.5,560.6 671.5,569.8 668.5,567.4 665.6,565.2 651.4,508.2 648.3,495.6 635.3,443.8 	"/>
	<polygon fill="#FFFFFF" stroke="#16B34C" stroke-miterlimit="10" points="588.9,396 593.5,392.9 594.4,392.3 595.7,395.3 
		595.7,401.3 615.4,474.7 615.4,475 635.1,547.2 635.1,557.5 632.2,554.3 629.4,551.4 610.5,488.6 606.3,474.7 588.9,417.4 	"/>
	<polygon fill="#FFFFFF" stroke="#16B34C" stroke-miterlimit="10" points="542.5,367.5 547.5,363.6 548.5,362.8 549.5,366.5 
		549.5,373.3 574.1,453.9 574.2,454.2 598.8,533.8 598.8,545.3 595.9,541.3 593.1,537.7 569.5,469 564.3,453.8 542.5,391 	"/>
	<polygon fill="#FFFFFF" stroke="#16B34C" stroke-miterlimit="10" points="496.1,338.9 501.5,334.3 502.6,333.3 503.3,337.8 
		503.3,345.3 532.8,433 532.9,433.4 562.4,520.4 562.4,533 559.5,528.3 556.9,523.9 528.5,449.4 522.2,432.9 496.1,364.5 	"/>
	<polygon fill="#FFFFFF" stroke="#16B34C" stroke-miterlimit="10" points="449.7,310.4 455.5,305 456.7,303.8 457.1,309 
		457.1,317.3 491.6,412.2 491.6,412.5 526,506.9 526,520.8 523.2,515.2 520.6,510.1 487.5,429.7 480.2,412 449.7,338.1 	"/>
	<polygon fill="#FFFFFF" stroke="#16B34C" stroke-miterlimit="10" points="403.4,281.8 403.4,311.7 446.5,410.1 489.7,508.5 
		489.7,493.5 450.3,391.4 410.9,289.3 410.9,274.3 	"/>
	<polygon fill="#FFFFFF" stroke="#16B34C" stroke-miterlimit="10" points="418.3,294.9 418.3,317.3 493.5,525.3 493.5,480.5 
		450.3,378.3 450.3,404.5 	"/>
	<polygon fill="#FFFFFF" stroke="#16B34C" stroke-miterlimit="10" points="489.7,471.1 489.7,538.4 433.2,311.7 433.2,326.6 
		497.2,545.8 497.2,471.1 	"/>
	<polygon fill="#FFFFFF" stroke="#16B34C" stroke-miterlimit="10" points="491.6,491.6 491.6,540.2 423.9,324.7 423.9,321 
		491.6,536.5 491.6,488 	"/>
	<polygon fill="#FFFFFF" stroke="#16B34C" stroke-miterlimit="10" points="482.2,515.9 482.2,538.4 410.9,326.6 410.9,334.1 
		489.7,538.4 489.7,508.5 	"/>
	<polygon fill="#FFFFFF" stroke="#16B34C" stroke-miterlimit="10" points="482.2,527.2 460.6,489.2 403.4,334.1 403.4,330.3 
		464.4,481.7 486,516 	"/>
	<polygon fill="#FFFFFF" stroke="#16B34C" stroke-miterlimit="10" points="482.2,515.9 482.2,530.9 439,432.5 395.9,334.1 
		395.9,319.1 439,417.5 	"/>
	<polygon fill="#FFFFFF" stroke="#16B34C" stroke-miterlimit="10" points="403.2,319.1 413.6,423.4 413.8,426 424.2,527.2 
		423.5,534.7 419.7,538.4 409.4,435.1 409.4,434.1 399,332.2 399.4,328.3 	"/>
	<polygon fill="#FFFFFF" stroke="#16B34C" stroke-miterlimit="10" points="403.4,326.6 410.9,319.1 388,432.5 365.1,545.9 
		357.6,545.9 380.5,436.2 	"/>
	<polygon fill="#FFFFFF" stroke="#16B34C" stroke-miterlimit="10" points="414.6,322.8 391.7,438.1 368.9,553.3 361.4,553.3 
		384.2,441.9 407.1,330.3 	"/>
	<polygon fill="#FFFFFF" stroke="#16B34C" stroke-miterlimit="10" points="418.4,326.6 395.5,443.7 372.6,560.8 365.1,560.8 
		388,447.4 410.9,334.1 	"/>
	<polygon fill="#FFFFFF" stroke="#16B34C" stroke-miterlimit="10" points="425.8,319.1 403.1,438.9 402.8,440.6 380.6,558.2 
		377.3,560.8 368.9,560.8 391.4,447.4 392,444 413.8,334.5 417.7,327.2 	"/>
	<polygon fill="#FFFFFF" stroke="#16B34C" stroke-miterlimit="10" points="433.2,311.7 418.4,326.6 395.5,443.7 372.6,560.8 
		387.5,560.8 410.4,436.2 	"/>
	<polygon fill="#FFFFFF" stroke="#16B34C" stroke-miterlimit="10" points="433,319.1 425.5,336.8 424.6,346.1 429.5,453.1 
		429.8,456.4 434.6,568.3 442.1,561.2 443.5,545.3 438.6,439.8 438.2,432.7 	"/>
	<polygon fill="#FFFFFF" stroke="#16B34C" stroke-miterlimit="10" points="433.2,326.6 433.2,356.5 465.2,466.1 497.2,575.7 
		497.2,545.8 465.2,436.2 	"/>
	<polygon fill="#FFFFFF" stroke="#16B34C" stroke-miterlimit="10" points="433.2,341.5 410.4,447.5 497.2,586.9 497.2,560.8 	"/>
	<polygon fill="#FFFFFF" stroke="#16B34C" stroke-miterlimit="10" points="433.2,356.5 387.5,538.4 497.2,598.1 497.2,575.7 	"/>
	<polygon fill="#FFFFFF" stroke="#16B34C" stroke-miterlimit="10" points="486,598.1 486,635.5 387.5,560.8 410.4,447.5 	"/>
	<polygon fill="#FFFFFF" stroke="#16B34C" stroke-miterlimit="10" points="474.8,620.5 474.8,672.8 387.5,583.2 387.5,538.4 	"/>
	<polygon fill="#FFFFFF" stroke="#16B34C" stroke-miterlimit="10" points="486,631.7 474.8,669.1 431.2,601.9 442.4,568.3 	"/>
	<polygon fill="#FFFFFF" stroke="#16B34C" stroke-miterlimit="10" points="497.2,598.1 497.2,642.9 474.8,665.4 474.8,620.5 	"/>
	<polygon fill="#FFFFFF" stroke="#16B34C" stroke-miterlimit="10" points="504.7,523.4 504.7,628 489.8,639.2 489.8,534.6 	"/>
	<rect x="504.7" y="448.7" fill="#FFFFFF" stroke="#16B34C" stroke-miterlimit="10" width="7.5" height="164.3"/>
	<polygon fill="#FFFFFF" stroke="#16B34C" stroke-miterlimit="10" points="517.7,447.3 525.9,448.5 525.9,607.4 517.7,607.4 	"/>
	<polygon fill="#FFFFFF" stroke="#16B34C" stroke-miterlimit="10" points="530.7,445.9 539.5,448.2 539.5,601.7 530.7,601.7 	"/>
	<polygon fill="#FFFFFF" stroke="#16B34C" stroke-miterlimit="10" points="543.7,444.6 553.2,448 553.2,596.1 543.7,596.1 	"/>
	<polygon fill="#FFFFFF" stroke="#16B34C" stroke-miterlimit="10" points="556.7,443.2 566.8,447.7 566.8,590.5 556.7,590.5 	"/>
	<polygon fill="#FFFFFF" stroke="#16B34C" stroke-miterlimit="10" points="569.6,441.8 580.5,447.4 580.5,584.8 569.6,584.8 	"/>
	<polygon fill="#FFFFFF" stroke="#16B34C" stroke-miterlimit="10" points="582.6,440.4 594.1,447.2 594.1,579.2 582.6,579.2 	"/>
	<polygon fill="#FFFFFF" stroke="#16B34C" stroke-miterlimit="10" points="595.6,439 607.8,446.9 607.8,573.6 595.6,573.6 	"/>
	<polygon fill="#FFFFFF" stroke="#16B34C" stroke-miterlimit="10" points="608.6,437.6 621.4,446.7 621.4,567.9 608.6,567.9 	"/>
	<polygon fill="#FFFFFF" stroke="#16B34C" stroke-miterlimit="10" points="621.6,436.2 635,446.4 635,562.3 621.6,562.3 	"/>
	<polygon fill="#FFFFFF" stroke="#16B34C" stroke-miterlimit="10" points="634.6,434.8 648.7,446.1 648.7,556.6 634.6,556.6 	"/>
	<polygon fill="#FFFFFF" stroke="#16B34C" stroke-miterlimit="10" points="647.6,433.4 662.3,445.9 662.3,551 647.6,551 	"/>
	<polygon fill="#FFFFFF" stroke="#16B34C" stroke-miterlimit="10" points="660.5,432.1 676,445.6 676,545.4 660.5,545.4 	"/>
	<polygon fill="#FFFFFF" stroke="#16B34C" stroke-miterlimit="10" points="673.5,430.7 689.6,445.4 689.6,539.7 673.5,539.7 	"/>
	<polygon fill="#FFFFFF" stroke="#16B34C" stroke-miterlimit="10" points="686.5,429.3 703.3,445.1 703.3,534.1 686.5,534.1 	"/>
	<polygon fill="#FFFFFF" stroke="#16B34C" stroke-miterlimit="10" points="699.5,427.9 716.9,444.9 716.9,528.4 699.5,528.4 	"/>
	<polygon fill="#FFFFFF" stroke="#16B34C" stroke-miterlimit="10" points="712.5,426.5 730.6,444.6 730.6,522.8 712.5,522.8 	"/>
	<polygon fill="#FFFFFF" stroke="#16B34C" stroke-miterlimit="10" points="721.5,423.5 733.6,432.5 733.6,522.8 721.5,522.8 	"/>
	<rect x="730.6" y="420.4" fill="#FFFFFF" stroke="#16B34C" stroke-miterlimit="10" width="6.1" height="102.4"/>
	<polygon fill="#FFFFFF" stroke="#16B34C" stroke-miterlimit="10" points="733.7,441.5 739.7,444.5 739.6,528.8 733.7,528.8 	"/>
	<polygon fill="#FFFFFF" stroke="#16B34C" stroke-miterlimit="10" points="736.7,462.6 742.7,468.6 742.6,534.8 736.7,534.8 	"/>
	<polygon fill="#FFFFFF" stroke="#16B34C" stroke-miterlimit="10" points="739.7,459.6 745.7,465.6 745.7,534.8 739.7,534.8 	"/>
	<polygon fill="#FFFFFF" stroke="#16B34C" stroke-miterlimit="10" points="742.7,456.6 748.7,462.6 748.7,534.8 742.6,534.8 	"/>
	<polygon fill="#FFFFFF" stroke="#16B34C" stroke-miterlimit="10" points="745.8,462.6 775.8,465.6 775.8,534.8 745.7,534.8 	"/>
	<rect x="748.8" y="468.6" fill="#FFFFFF" stroke="#16B34C" stroke-miterlimit="10" width="54.2" height="66.2"/>
	<polygon fill="#FFFFFF" stroke="#16B34C" stroke-miterlimit="10" points="782.3,492.5 804.1,494 825.9,495.6 825.9,527.9 
		825.9,560.2 804.1,561.8 782.3,563.3 782.3,527.9 	"/>
	<polygon fill="#FFFFFF" stroke="#16B34C" stroke-miterlimit="10" points="815.8,516.4 832.3,519.5 848.9,522.5 848.9,554.1 
		848.9,585.7 832.3,588.7 815.8,591.8 815.8,554.1 	"/>
	<polygon fill="#FFFFFF" stroke="#16B34C" stroke-miterlimit="10" points="849.2,540.3 860.5,544.9 871.8,549.5 871.8,580.3 
		871.8,611.1 860.5,615.7 849.2,620.2 849.2,580.3 	"/>
	<polygon fill="#FFFFFF" stroke="#16B34C" stroke-miterlimit="10" points="882.7,564.2 888.7,570.3 894.7,576.4 894.7,606.5 
		894.7,636.5 888.7,642.6 882.7,648.7 882.7,606.5 	"/>
	<polygon fill="#FFFFFF" stroke="#16B34C" stroke-miterlimit="10" points="791.5,571.5 795.1,575.1 799.7,577.8 808.2,582.9 
		810.2,586.4 818.7,614.9 819.3,616.2 828.5,647.9 826.3,648.9 822.2,651.1 814.9,654.9 805,619.1 803.3,613.3 	"/>
	<polygon fill="#FFFFFF" stroke="#16B34C" stroke-miterlimit="10" points="700.2,578.8 704.6,583.2 710.7,585.3 721.7,589.4 
		725.6,592.1 742.7,623.4 743.9,625 762.2,659.3 760.5,658.6 755.7,659.5 747,661 727.2,625.8 724,620.1 	"/>
	<polygon fill="#FFFFFF" stroke="#16B34C" stroke-miterlimit="10" points="609,584.3 614.1,589.4 621.7,591 635.2,594.1 
		641.1,596.2 666.7,630 668.5,632 696,668.9 694.6,666.6 689.2,666.2 679.2,665.4 649.5,630.7 644.6,625.1 	"/>
	<polygon fill="#FFFFFF" stroke="#16B34C" stroke-miterlimit="10" points="517.7,588.9 523.6,594.8 532.7,595.9 548.7,597.9 
		556.6,599.3 590.7,635.8 593.1,638.1 629.7,677.7 628.8,673.6 622.7,672 611.4,668.9 571.7,634.8 565.3,629.3 	"/>
	<polygon fill="#FFFFFF" stroke="#16B34C" stroke-miterlimit="10" points="426.5,593.6 433.2,600.2 443.6,600.7 462.3,601.8 
		472,602.5 514.8,641.7 517.7,644.3 563.5,686.5 563,680.7 556.2,677.8 543.5,672.4 494,638.9 485.9,633.5 	"/>
	<polygon fill="#FFFFFF" stroke="#16B34C" stroke-miterlimit="10" points="387.5,605.6 342.7,605.6 335.2,598.2 416.2,643 
		497.2,687.8 497.2,695.2 442.4,650.4 	"/>
	<polygon fill="#FFFFFF" stroke="#16B34C" stroke-miterlimit="10" points="385.1,553.4 445.9,588.8 445.9,588.9 506.6,624.3 
		506.6,629.9 490.8,615.2 475.4,601 467.8,594 459.2,586 443,571.1 426.8,558.9 416,558.9 391.1,558.9 	"/>
	<polygon fill="#FFFFFF" stroke="#16B34C" stroke-miterlimit="10" points="435.1,508.6 475.6,534.7 475.6,534.7 516.1,560.8 
		516.1,564.5 506.7,553.5 497.7,542.8 493.2,537.5 488.2,531.6 478.6,520.4 466.1,512.3 458.2,512.3 439.4,512.3 	"/>
	<polygon fill="#FFFFFF" stroke="#16B34C" stroke-miterlimit="10" points="485,463.7 505.3,480.5 505.3,480.5 525.5,497.2 
		525.5,499.2 522.7,491.8 520.1,484.6 518.7,481.1 517.1,477.1 514.2,469.7 505.4,465.6 500.3,465.6 487.8,465.6 	"/>
	<polygon fill="#FFFFFF" stroke="#16B34C" stroke-miterlimit="10" points="527.5,418.9 527.5,426.4 527.5,433.8 531.2,430.1 
		535,426.4 538.7,422.6 542.4,418.9 535,418.9 	"/>
	<polygon fill="#FFFFFF" stroke="#16B34C" stroke-miterlimit="10" points="511.5,389 519,387.5 526.4,386.1 523.5,393.4 
		521.2,398.8 520.5,400.4 517.5,408.1 516.5,410.9 514,411.9 511.5,412.9 511.5,401 	"/>
	<polygon fill="#FFFFFF" stroke="#16B34C" stroke-miterlimit="10" points="495.6,359.2 503,356.2 510.5,353.2 508.2,364.1 
		506.5,372.1 506,374.5 503.8,386.1 503,390.5 499.3,391.3 495.6,392 495.6,375.6 	"/>
	<polygon fill="#FFFFFF" stroke="#16B34C" stroke-miterlimit="10" points="479.6,329.3 487.1,324.8 494.5,320.3 493,334.9 
		491.9,345.4 491.5,348.6 490.1,364.1 489.6,370.1 484.6,370.6 479.6,371.1 479.6,350.2 	"/>
	<polygon fill="#FFFFFF" stroke="#16B34C" stroke-miterlimit="10" points="463.7,299.4 471.1,293.4 478.6,287.5 477.8,305.6 
		477.2,318.7 477.1,322.7 476.3,342.1 476.1,349.7 469.9,350 463.7,350.2 463.7,324.8 	"/>
	<polygon fill="#FFFFFF" stroke="#16B34C" stroke-miterlimit="10" points="447.7,329.3 447.7,299.4 447.7,269.5 455.2,262 
		462.6,254.6 462.6,292 462.6,329.3 455.2,329.3 	"/>
	<polygon fill="#FFFFFF" stroke="#16B34C" stroke-miterlimit="10" points="455.2,329.3 455.2,262 466.4,250.9 466.4,329.3 	"/>
	<polygon fill="#FFFFFF" stroke="#16B34C" stroke-miterlimit="10" points="462.6,329.3 470.1,329.3 470.1,247.1 462.6,254.6 	"/>
	<polygon fill="#FFFFFF" stroke="#16B34C" stroke-miterlimit="10" points="487.6,389 510,389 485,288.2 462.6,292 	"/>
	<polygon fill="#FFFFFF" stroke="#16B34C" stroke-miterlimit="10" points="512.5,448.7 549.9,448.7 500,329.3 462.6,329.3 	"/>
	<polygon fill="#FFFFFF" stroke="#16B34C" stroke-miterlimit="10" points="466.4,303.1 500,303.1 525,389 491.3,389 	"/>
	<rect x="470.1" y="277" fill="#FFFFFF" stroke="#16B34C" stroke-miterlimit="10" width="29.9" height="52.3"/>
	<rect x="481.3" y="277" fill="#FFFFFF" stroke="#16B34C" stroke-miterlimit="10" width="18.7" height="52.3"/>
	<rect x="492.5" y="277" fill="#FFFFFF" stroke="#16B34C" stroke-miterlimit="10" width="7.5" height="52.3"/>
	<rect x="481.3" y="269.5" fill="#FFFFFF" stroke="#16B34C" stroke-miterlimit="10" width="14.9" height="33.6"/>
	<rect x="470.1" y="262" fill="#FFFFFF" stroke="#16B34C" stroke-miterlimit="10" width="22.4" height="14.9"/>
	<polygon fill="#FFFFFF" stroke="#16B34C" stroke-miterlimit="10" points="481.3,250.8 496.2,254.6 496.2,277 481.3,277 
		481.3,266.8 	"/>
	<polygon fill="#FFFFFF" stroke="#16B34C" stroke-miterlimit="10" points="492.5,262 492.5,239.6 500,247.1 500,277 492.5,277 	"/>
	<polygon fill="#FFFFFF" stroke="#16B34C" stroke-miterlimit="10" points="496.2,243.4 496.2,269.5 481.3,269.5 481.3,254.6 
		492.5,232.1 	"/>
	<polygon fill="#FFFFFF" stroke="#16B34C" stroke-miterlimit="10" points="492.5,239.6 492.5,224.7 470.1,247.1 470.1,262 
		492.5,262 	"/>
	<polygon fill="#FFFFFF" stroke="#16B34C" stroke-miterlimit="10" points="485,217.2 485,239.6 477.6,258.3 458.9,265.8 
		458.9,243.4 	"/>
	<polygon fill="#FFFFFF" stroke="#16B34C" stroke-miterlimit="10" points="447.7,239.6 477.6,209.7 477.6,239.6 447.7,269.5 	"/>
	<polygon fill="#FFFFFF" stroke="#16B34C" stroke-miterlimit="10" points="481.3,196.6 481.3,222.8 471.4,243.9 467,248.3 
		462.7,252.7 462.7,237.7 462.7,222.8 473.5,196.9 477.4,196.8 	"/>
	<polygon fill="#FFFFFF" stroke="#16B34C" stroke-miterlimit="10" points="477.6,209.7 477.6,179.8 481.3,183.6 485,187.3 
		485,209.7 485,232.1 481.3,235.9 477.6,239.6 477.6,224.6 	"/>
	<polygon fill="#FFFFFF" stroke="#16B34C" stroke-miterlimit="10" points="489.6,209.9 494,212.9 498.5,215.9 498.5,235.3 
		498.5,254.7 495.3,257.5 492.2,260.3 491.8,252.4 491.6,247.8 491.1,237.4 491,235.2 490.3,223.2 	"/>
	<polygon fill="#FFFFFF" stroke="#16B34C" stroke-miterlimit="10" points="501.5,240 506.7,242.2 511.9,244.5 511.9,260.9 
		511.9,277.3 509.4,279.2 506.8,281.1 506,274.6 505.6,271 504.5,262.5 504.4,260.8 503,250.9 	"/>
	<polygon fill="#FFFFFF" stroke="#16B34C" stroke-miterlimit="10" points="513.5,270 519.4,271.5 525.4,273 525.4,286.5 
		525.4,299.9 523.4,300.9 521.3,301.8 520.2,296.9 519.6,294.1 518,287.5 517.8,286.3 515.7,278.6 	"/>
	<polygon fill="#FFFFFF" stroke="#16B34C" stroke-miterlimit="10" points="525.4,300.1 532.1,300.8 538.8,301.6 538.8,312 
		538.8,322.5 537.5,322.6 535.9,322.5 534.4,319.1 533.6,317.3 531.4,312.6 531.2,311.8 528.4,306.2 	"/>
	<polygon fill="#FFFFFF" stroke="#16B34C" stroke-miterlimit="10" points="552.3,329.3 552.3,336.8 552.3,344.2 548.6,340.5 
		544.8,336.8 541.1,333 537.4,329.3 544.8,329.3 	"/>
	<polygon fill="#FFFFFF" stroke="#16B34C" stroke-miterlimit="10" points="537.4,292 544.8,295.7 552.3,299.4 552.3,318.1 
		552.3,336.8 548.1,336.3 543.8,335.7 543,330.2 541.1,317.5 540.8,314 539.3,304 	"/>
	<polygon fill="#FFFFFF" stroke="#16B34C" stroke-miterlimit="10" points="552.3,329.3 552.3,299.4 552.3,269.5 544.8,262 
		537.4,254.6 537.4,292 537.4,329.3 544.8,329.3 	"/>
	<polygon fill="#FFFFFF" stroke="#16B34C" stroke-miterlimit="10" points="544.8,329.3 533.7,329.3 533.7,250.9 544.8,262 	"/>
	<polygon fill="#FFFFFF" stroke="#16B34C" stroke-miterlimit="10" points="537.4,329.3 529.9,329.3 529.9,247.1 537.4,254.6 	"/>
	<polygon fill="#FFFFFF" stroke="#16B34C" stroke-miterlimit="10" points="592.2,389 569.8,389 515,288.2 537.4,292 	"/>
	<polygon fill="#FFFFFF" stroke="#16B34C" stroke-miterlimit="10" points="647.1,448.7 609.7,448.7 500,329.3 537.4,329.3 	"/>
	<polygon fill="#FFFFFF" stroke="#16B34C" stroke-miterlimit="10" points="500,303.1 533.7,303.1 588.5,389 554.9,389 	"/>
	<rect x="500" y="277" fill="#FFFFFF" stroke="#16B34C" stroke-miterlimit="10" width="29.9" height="52.3"/>
	<rect x="500" y="277" fill="#FFFFFF" stroke="#16B34C" stroke-miterlimit="10" width="18.7" height="52.3"/>
	<rect x="500" y="277" fill="#FFFFFF" stroke="#16B34C" stroke-miterlimit="10" width="7.5" height="52.3"/>
	<rect x="503.8" y="269.5" fill="#FFFFFF" stroke="#16B34C" stroke-miterlimit="10" width="15" height="33.6"/>
	<rect x="507.5" y="262" fill="#FFFFFF" stroke="#16B34C" stroke-miterlimit="10" width="22.4" height="14.9"/>
	<polygon fill="#FFFFFF" stroke="#16B34C" stroke-miterlimit="10" points="503.8,254.6 518.7,250.8 518.7,266.8 518.7,277 
		503.8,277 	"/>
	<polygon fill="#FFFFFF" stroke="#16B34C" stroke-miterlimit="10" points="507.5,262 507.5,239.6 500,247.1 500,277 507.5,277 	"/>
	<polygon fill="#FFFFFF" stroke="#16B34C" stroke-miterlimit="10" points="503.8,243.4 507.5,232.1 518.7,254.6 518.7,269.5 
		503.8,269.5 	"/>
	<polygon fill="#FFFFFF" stroke="#16B34C" stroke-miterlimit="10" points="507.5,239.6 507.5,224.7 529.9,247.1 529.9,262 
		507.5,262 	"/>
	<polygon fill="#FFFFFF" stroke="#16B34C" stroke-miterlimit="10" points="515,217.2 541.1,243.4 541.1,265.8 522.4,258.3 
		515,239.6 	"/>
	<polygon fill="#FFFFFF" stroke="#16B34C" stroke-miterlimit="10" points="552.3,239.6 522.4,209.7 522.4,239.6 552.3,269.5 	"/>
	<polygon fill="#FFFFFF" stroke="#16B34C" stroke-miterlimit="10" points="518.7,196.6 518.7,222.8 528.6,243.9 533,248.3 
		537.3,252.7 537.3,237.7 537.3,222.8 526.5,196.9 522.6,196.8 	"/>
	<polygon fill="#FFFFFF" stroke="#16B34C" stroke-miterlimit="10" points="522.4,209.7 522.4,179.8 518.7,183.6 515,187.3 
		515,209.7 515,232.1 518.7,235.9 522.4,239.6 522.4,224.6 	"/>
	<polygon fill="#FFFFFF" stroke="#16B34C" stroke-miterlimit="10" points="516.1,224.6 516.1,245.6 516.1,266.6 520.2,270 
		524.2,273.4 523.9,259.5 523.9,259.3 523.6,245.6 523.5,244.6 523.2,226.8 523,217.9 519.6,221.2 	"/>
	<polygon fill="#FFFFFF" stroke="#16B34C" stroke-miterlimit="10" points="517.3,261.8 517.3,281.5 517.3,301.2 521.7,304.2 
		526,307.3 525.4,294.4 525.4,294.2 524.8,281.6 524.7,280.6 524,264.2 523.7,256 520.5,258.9 	"/>
	<polygon fill="#FFFFFF" stroke="#16B34C" stroke-miterlimit="10" points="518.4,299.1 518.4,317.4 518.4,335.7 523.1,338.4 
		527.9,341.1 526.9,329.3 526.8,329.1 525.9,317.5 525.8,316.6 524.8,301.6 524.3,294.2 521.4,296.6 	"/>
	<polygon fill="#FFFFFF" stroke="#16B34C" stroke-miterlimit="10" points="519.5,336.3 519.5,353.3 519.5,370.2 524.6,372.6 
		529.7,375 528.4,364.2 528.3,364 527.1,353.4 527,352.6 525.6,339 525,332.3 522.3,334.3 	"/>
	<polygon fill="#FFFFFF" stroke="#16B34C" stroke-miterlimit="10" points="520.7,373.6 520.7,389.2 520.7,404.8 526.1,406.8 
		531.5,408.8 529.9,399.1 529.8,398.9 528.3,389.3 528.1,388.6 526.4,376.4 525.6,370.4 523.2,372 	"/>
	<polygon fill="#FFFFFF" stroke="#16B34C" stroke-miterlimit="10" points="521.8,410.8 521.8,425.1 521.8,439.3 527.6,441 
		533.3,442.7 531.4,434 531.3,433.8 529.5,425.3 529.2,424.5 527.2,413.8 526.3,408.5 524,409.7 	"/>
	<polygon fill="#FFFFFF" stroke="#16B34C" stroke-miterlimit="10" points="523,448.1 523,461 523,473.8 529,475.2 535.1,476.5 
		532.9,468.9 532.8,468.7 530.6,461.2 530.4,460.5 528,451.2 526.9,446.6 524.9,447.4 	"/>
	<polygon fill="#FFFFFF" stroke="#16B34C" stroke-miterlimit="10" points="524.1,485.4 524.1,496.9 524.1,508.3 530.5,509.4 
		536.9,510.4 534.4,503.8 534.2,503.6 531.8,497.1 531.5,496.5 528.8,488.6 527.6,484.8 525.8,485.1 	"/>
	<polygon fill="#FFFFFF" stroke="#16B34C" stroke-miterlimit="10" points="525.2,522.7 525.2,532.9 525.2,543 532,543.7 
		538.8,544.4 535.9,538.8 535.7,538.6 533,533.2 532.7,532.7 529.6,526.2 528.2,523 526.7,522.9 	"/>
	<polygon fill="#FFFFFF" stroke="#16B34C" stroke-miterlimit="10" points="526.4,560.4 526.4,569.2 526.4,578 533.5,578.3 
		540.6,578.6 537.4,574.1 537.2,573.9 534.2,569.5 533.8,569.1 530.4,564 528.8,561.6 527.6,561 	"/>
	<polygon fill="#FFFFFF" stroke="#16B34C" stroke-miterlimit="10" points="542.4,612.9 538.7,609.2 535,605.5 531.2,601.8 
		527.5,598.1 527.5,605.5 527.5,612.9 535,612.9 	"/>
	<polygon fill="#FFFFFF" stroke="#16B34C" stroke-miterlimit="10" points="527.5,605.5 531.7,606 536,606.6 536.8,612.1 
		538.7,624.8 539,628.3 540.5,638.3 542.4,650.3 535,646.6 527.5,642.9 527.5,624.2 	"/>
	<polygon fill="#FFFFFF" stroke="#16B34C" stroke-miterlimit="10" points="542.4,612.9 542.4,650.3 542.4,687.7 535,680.3 
		527.5,672.8 527.5,642.9 527.5,612.9 535,612.9 	"/>
	<polygon fill="#FFFFFF" stroke="#16B34C" stroke-miterlimit="10" points="535,680.3 535,612.9 546.2,612.9 546.2,691.5 	"/>
	<polygon fill="#FFFFFF" stroke="#16B34C" stroke-miterlimit="10" points="542.4,687.7 549.9,695.2 549.9,612.9 542.4,612.9 	"/>
	<polygon fill="#FFFFFF" stroke="#16B34C" stroke-miterlimit="10" points="542.4,650.3 564.9,654.1 549.9,598.1 527.5,598.1 	"/>
	<polygon fill="#FFFFFF" stroke="#16B34C" stroke-miterlimit="10" points="542.4,612.9 579.8,612.9 549.9,583.2 512.5,583.2 	"/>
	<polygon fill="#FFFFFF" stroke="#16B34C" stroke-miterlimit="10" points="531.2,598.1 564.9,598.1 579.8,639.1 546.2,639.1 	"/>
	<rect x="549.9" y="612.9" fill="#FFFFFF" stroke="#16B34C" stroke-miterlimit="10" width="29.9" height="52.3"/>
	<rect x="561.1" y="612.9" fill="#FFFFFF" stroke="#16B34C" stroke-miterlimit="10" width="18.7" height="52.3"/>
	<rect x="572.3" y="612.9" fill="#FFFFFF" stroke="#16B34C" stroke-miterlimit="10" width="7.5" height="52.3"/>
	<rect x="561.1" y="639.2" fill="#FFFFFF" stroke="#16B34C" stroke-miterlimit="10" width="14.9" height="33.6"/>
	<rect x="549.9" y="665.4" fill="#FFFFFF" stroke="#16B34C" stroke-miterlimit="10" width="22.4" height="14.9"/>
	<polygon fill="#FFFFFF" stroke="#16B34C" stroke-miterlimit="10" points="561.1,665.4 576.1,665.4 576.1,687.8 561.1,691.5 
		561.1,675.5 	"/>
	<polygon fill="#FFFFFF" stroke="#16B34C" stroke-miterlimit="10" points="572.3,665.3 579.8,665.3 579.8,695.2 572.3,702.7 
		572.3,680.3 	"/>
	<polygon fill="#FFFFFF" stroke="#16B34C" stroke-miterlimit="10" points="572.3,674.7 576.1,685.9 576.1,708.3 561.1,700.8 
		561.1,682.2 	"/>
	<polygon fill="#FFFFFF" stroke="#16B34C" stroke-miterlimit="10" points="572.3,680.3 549.9,680.3 549.9,695.2 572.3,717.6 
		572.3,702.7 	"/>
	<polygon fill="#FFFFFF" stroke="#16B34C" stroke-miterlimit="10" points="538.7,676.6 557.4,684 564.9,702.7 564.9,725.1 
		538.7,699 	"/>
	<polygon fill="#FFFFFF" stroke="#16B34C" stroke-miterlimit="10" points="527.5,672.8 557.4,702.7 557.4,732.6 527.5,702.7 	"/>
	<polygon fill="#FFFFFF" stroke="#16B34C" stroke-miterlimit="10" points="542.5,689.5 546.5,693.6 550.7,697.8 561.1,719.4 
		561.1,745.5 557.6,745.7 553.9,745.8 542.5,719.4 542.5,704.5 	"/>
	<polygon fill="#FFFFFF" stroke="#16B34C" stroke-miterlimit="10" points="557.4,702.7 561.1,706.5 564.8,710.2 564.8,732.6 
		564.8,754.9 561.1,758.7 557.4,762.4 557.4,732.6 557.4,717.7 	"/>
	<polygon fill="#FFFFFF" stroke="#16B34C" stroke-miterlimit="10" points="578.3,687.6 578.3,707 578.3,726.3 573.8,729.3 
		569.4,732.3 570.1,717.9 570.7,707.1 570.9,704.1 571.3,694.5 571.6,689.6 571.9,682 575.1,684.8 	"/>
	<polygon fill="#FFFFFF" stroke="#16B34C" stroke-miterlimit="10" points="591.7,665 591.7,681.3 591.7,697.7 586.5,700 
		581.3,702.2 582.8,690.5 584,681.7 584.3,679.2 585.3,671.4 585.8,667.4 586.5,661.3 589.1,663.1 	"/>
	<polygon fill="#FFFFFF" stroke="#16B34C" stroke-miterlimit="10" points="605.2,642.4 605.2,655.7 605.2,669.1 599.2,670.6 
		593.3,672.1 595.5,663.1 597.3,656.2 597.8,654.3 599.2,648.3 600,645.2 601,640.6 603.1,641.5 	"/>
	<polygon fill="#FFFFFF" stroke="#16B34C" stroke-miterlimit="10" points="618.6,619.8 618.6,630.2 618.6,640.6 611.9,641.3 
		605.2,642.1 608.2,635.7 610.6,630.8 611.2,629.5 613.2,625.2 614.2,623.1 615.5,619.9 617.1,619.9 	"/>
	<polygon fill="#FFFFFF" stroke="#16B34C" stroke-miterlimit="10" points="617.2,612.9 620.9,609.2 624.7,605.5 628.4,601.8 
		632.1,598.1 632.1,605.5 632.1,612.9 624.7,612.9 	"/>
	<polygon fill="#FFFFFF" stroke="#16B34C" stroke-miterlimit="10" points="632.1,605.5 632.1,624.2 632.1,642.9 624.7,646.6 
		617.2,650.3 619.1,637.6 620.5,628.3 620.9,625.5 622.8,612 623.4,606.8 627.8,606.1 	"/>
	<polygon fill="#FFFFFF" stroke="#16B34C" stroke-miterlimit="10" points="617.2,612.9 617.2,650.3 617.2,687.7 624.7,680.3 
		632.1,672.8 632.1,642.9 632.1,612.9 624.7,612.9 	"/>
	<polygon fill="#FFFFFF" stroke="#16B34C" stroke-miterlimit="10" points="624.7,680.3 613.5,691.5 613.5,612.9 624.7,612.9 	"/>
	<polygon fill="#FFFFFF" stroke="#16B34C" stroke-miterlimit="10" points="617.2,687.7 609.7,695.2 609.7,612.9 617.2,612.9 	"/>
	<polygon fill="#FFFFFF" stroke="#16B34C" stroke-miterlimit="10" points="617.2,650.3 594.8,654.1 609.7,598.1 632.2,598.1 	"/>
	<polygon fill="#FFFFFF" stroke="#16B34C" stroke-miterlimit="10" points="617.2,612.9 579.8,612.9 609.7,583.2 647.1,583.2 	"/>
	<polygon fill="#FFFFFF" stroke="#16B34C" stroke-miterlimit="10" points="594.8,598.1 628.4,598.1 613.5,639.1 579.8,639.1 	"/>
	<rect x="579.8" y="612.9" fill="#FFFFFF" stroke="#16B34C" stroke-miterlimit="10" width="29.9" height="52.3"/>
	<rect x="579.8" y="612.9" fill="#FFFFFF" stroke="#16B34C" stroke-miterlimit="10" width="18.7" height="52.3"/>
	<rect x="579.8" y="612.9" fill="#FFFFFF" stroke="#16B34C" stroke-miterlimit="10" width="7.5" height="52.3"/>
	<rect x="583.6" y="639.2" fill="#FFFFFF" stroke="#16B34C" stroke-miterlimit="10" width="15" height="33.6"/>
	<rect x="587.3" y="665.4" fill="#FFFFFF" stroke="#16B34C" stroke-miterlimit="10" width="22.4" height="14.9"/>
	<polygon fill="#FFFFFF" stroke="#16B34C" stroke-miterlimit="10" points="583.6,665.4 598.5,665.4 598.5,675.5 598.5,691.5 
		583.6,687.8 	"/>
	<polygon fill="#FFFFFF" stroke="#16B34C" stroke-miterlimit="10" points="587.3,665.3 579.8,665.3 579.8,695.2 587.3,702.7 
		587.3,680.3 	"/>
	<polygon fill="#FFFFFF" stroke="#16B34C" stroke-miterlimit="10" points="587.3,674.7 598.5,682.2 598.5,700.8 583.6,708.3 
		583.6,685.9 	"/>
	<polygon fill="#FFFFFF" stroke="#16B34C" stroke-miterlimit="10" points="587.3,680.3 609.7,680.3 609.7,695.2 587.3,717.6 
		587.3,702.7 	"/>
	<polygon fill="#FFFFFF" stroke="#16B34C" stroke-miterlimit="10" points="620.9,676.6 620.9,699 607.8,712 594.8,725.1 
		594.8,713.9 594.8,702.7 602.2,684 	"/>
	<polygon fill="#FFFFFF" stroke="#16B34C" stroke-miterlimit="10" points="632.1,672.8 617.2,687.8 602.2,702.7 602.2,717.7 
		602.2,732.6 617.2,717.7 632.1,702.7 	"/>
	<polygon fill="#FFFFFF" stroke="#16B34C" stroke-miterlimit="10" points="607.8,699 604.6,702.3 598.5,719.5 598.5,732.6 
		598.5,745.7 607.8,740 610.7,740.9 617.2,719.5 617.2,704.6 617.2,689.7 	"/>
	<polygon fill="#FFFFFF" stroke="#16B34C" stroke-miterlimit="10" points="602.2,702.7 598.5,706.5 594.8,710.2 594.8,732.6 
		594.8,754.9 598.5,758.7 602.2,762.4 602.2,732.6 602.2,717.7 	"/>
	<polygon fill="#FFFFFF" stroke="#16B34C" stroke-miterlimit="10" points="570.3,695.3 580.7,688.5 580.7,715.8 580.7,743 
		570.3,736.3 	"/>
	<polygon fill="#FFFFFF" stroke="#16B34C" stroke-miterlimit="10" points="545.9,680.3 559.3,674.3 559.3,699 559.3,723.6 
		545.9,717.6 	"/>
	<polygon fill="#FFFFFF" stroke="#16B34C" stroke-miterlimit="10" points="521.4,665.4 537.8,660.1 537.8,682.2 537.8,704.2 
		521.4,698.9 	"/>
	<polygon fill="#FFFFFF" stroke="#16B34C" stroke-miterlimit="10" points="496.9,650.5 516.3,646 516.3,665.4 516.3,684.8 
		496.9,680.3 	"/>
	<polygon fill="#FFFFFF" stroke="#16B34C" stroke-miterlimit="10" points="472.5,635.5 494.9,631.8 494.9,648.6 494.9,665.4 
		472.5,661.6 	"/>
	<polygon fill="#FFFFFF" stroke="#16B34C" stroke-miterlimit="10" points="448,620.6 473.4,617.6 473.4,631.8 473.4,646 448,643 	
		"/>
	<polygon fill="#FFFFFF" stroke="#16B34C" stroke-miterlimit="10" points="423.5,605.6 451.9,603.4 451.9,615 451.9,626.5 
		423.5,624.3 	"/>
	<polygon fill="#FFFFFF" stroke="#16B34C" stroke-miterlimit="10" points="399,590.7 430.4,589.2 430.4,598.2 430.4,607.1 
		399,605.6 	"/>
	<polygon fill="#FFFFFF" stroke="#16B34C" stroke-miterlimit="10" points="374.6,575.7 409,575 409,581.4 409,587.7 374.6,587 	"/>
	<rect x="350.1" y="560.8" fill="#FFFFFF" stroke="#16B34C" stroke-miterlimit="10" width="37.4" height="7.5"/>
	<rect x="353.9" y="553.3" fill="#FFFFFF" stroke="#16B34C" stroke-miterlimit="10" width="22.4" height="11.2"/>
	<rect x="357.6" y="545.9" fill="#FFFFFF" stroke="#16B34C" stroke-miterlimit="10" width="7.5" height="14.9"/>
	<polygon fill="#FFFFFF" stroke="#16B34C" stroke-miterlimit="10" points="335.2,568.3 431.2,613.1 431.2,624.3 335.2,579.5 	"/>
	<polygon fill="#FFFFFF" stroke="#16B34C" stroke-miterlimit="10" points="312.8,590.7 497.2,680.3 497.2,687.8 312.8,598.2 	"/>
	<polygon fill="#FFFFFF" stroke="#16B34C" stroke-miterlimit="10" points="316.5,583.2 442.4,628.1 442.4,635.6 316.5,590.8 	"/>
	<rect x="320.3" y="575.8" fill="#FFFFFF" stroke="#16B34C" stroke-miterlimit="10" width="67.2" height="7.5"/>
	<polygon fill="#FFFFFF" stroke="#16B34C" stroke-miterlimit="10" points="335.2,572 361.4,572 387.5,572 387.5,575.8 387.5,579.5 
		361.4,579.5 335.2,579.5 335.2,575.8 	"/>
	<polygon fill="#FFFFFF" stroke="#16B34C" stroke-miterlimit="10" points="350.1,568.3 368.8,568.3 387.5,568.3 387.5,572 
		387.5,575.8 368.8,575.8 350.1,575.8 350.1,572 	"/>
	<polygon fill="#FFFFFF" stroke="#16B34C" stroke-miterlimit="10" points="398.1,589.8 414.9,587 414.9,594.4 414.9,601.9 
		398.1,601.9 381.3,601.9 381.3,595.4 381.7,592.1 	"/>
	<polygon fill="#FFFFFF" stroke="#16B34C" stroke-miterlimit="10" points="427.4,611.2 442.4,605.6 442.4,616.8 442.4,628.1 
		427.4,628.1 412.5,628.1 412.5,618.7 413.3,616 	"/>
	<polygon fill="#FFFFFF" stroke="#16B34C" stroke-miterlimit="10" points="456.7,632.7 469.8,624.3 469.8,639.2 469.8,654.2 
		456.7,654.2 443.6,654.2 443.6,642.1 444.9,639.8 	"/>
	<polygon fill="#FFFFFF" stroke="#16B34C" stroke-miterlimit="10" points="474.8,665.4 474.8,680.3 486,680.3 497.2,680.3 
		497.2,661.6 497.2,642.9 486,654.2 	"/>
	<polygon fill="#FFFFFF" stroke="#16B34C" stroke-miterlimit="10" points="480.4,680.3 480.4,676 446.3,645.3 445.5,644.8 
		410.6,613.1 412.8,618.4 420.4,630.3 430.9,646.9 436.2,653.2 445.9,664.5 463.2,672.4 	"/>
	<polygon fill="#FFFFFF" stroke="#16B34C" stroke-miterlimit="10" points="335.2,583.2 342.7,590.7 408.8,635.5 474.8,680.3 
		474.8,672.8 405,628 	"/>
	<polygon fill="#FFFFFF" stroke="#16B34C" stroke-miterlimit="10" points="416.2,605.6 489.8,650.4 489.8,687.8 420,643 	"/>
	<rect x="497.2" y="628" fill="#FFFFFF" stroke="#16B34C" stroke-miterlimit="10" width="7.5" height="67.2"/>
	<rect x="505.6" y="617.5" fill="#FFFFFF" stroke="#16B34C" stroke-miterlimit="10" width="7.5" height="71.2"/>
	<rect x="514" y="606.9" fill="#FFFFFF" stroke="#16B34C" stroke-miterlimit="10" width="7.5" height="75.1"/>
	<rect x="522.4" y="596.4" fill="#FFFFFF" stroke="#16B34C" stroke-miterlimit="10" width="7.5" height="79.1"/>
	<rect x="530.8" y="585.8" fill="#FFFFFF" stroke="#16B34C" stroke-miterlimit="10" width="7.5" height="83"/>
	<rect x="539.2" y="575.3" fill="#FFFFFF" stroke="#16B34C" stroke-miterlimit="10" width="7.5" height="87"/>
	<rect x="547.6" y="564.7" fill="#FFFFFF" stroke="#16B34C" stroke-miterlimit="10" width="7.5" height="91"/>
	<rect x="556" y="554.2" fill="#FFFFFF" stroke="#16B34C" stroke-miterlimit="10" width="7.5" height="94.9"/>
	<rect x="564.4" y="543.6" fill="#FFFFFF" stroke="#16B34C" stroke-miterlimit="10" width="7.5" height="98.9"/>
	<rect x="572.8" y="533.1" fill="#FFFFFF" stroke="#16B34C" stroke-miterlimit="10" width="7.5" height="102.8"/>
	<rect x="581.2" y="522.6" fill="#FFFFFF" stroke="#16B34C" stroke-miterlimit="10" width="7.5" height="106.8"/>
	<rect x="589.6" y="512" fill="#FFFFFF" stroke="#16B34C" stroke-miterlimit="10" width="7.5" height="110.7"/>
	<rect x="598" y="501.5" fill="#FFFFFF" stroke="#16B34C" stroke-miterlimit="10" width="7.5" height="114.7"/>
	<rect x="606.4" y="490.9" fill="#FFFFFF" stroke="#16B34C" stroke-miterlimit="10" width="7.5" height="118.7"/>
	<rect x="614.8" y="480.4" fill="#FFFFFF" stroke="#16B34C" stroke-miterlimit="10" width="7.5" height="122.6"/>
	<rect x="623.2" y="469.8" fill="#FFFFFF" stroke="#16B34C" stroke-miterlimit="10" width="7.5" height="126.6"/>
	<rect x="631.6" y="459.3" fill="#FFFFFF" stroke="#16B34C" stroke-miterlimit="10" width="7.5" height="130.5"/>
	<rect x="640" y="448.7" fill="#FFFFFF" stroke="#16B34C" stroke-miterlimit="10" width="7.5" height="134.5"/>
	<polygon fill="#FFFFFF" stroke="#16B34C" stroke-miterlimit="10" points="647.5,448.7 651.2,448.7 655,448.7 655,523.4 655,598.1 
		651.2,598.1 647.5,598.1 647.5,523.4 	"/>
	<polygon fill="#FFFFFF" stroke="#16B34C" stroke-miterlimit="10" points="654.9,448.7 658.7,448.7 662.4,448.7 662.4,530.9 
		662.4,613 658.7,613 654.9,613 654.9,530.9 	"/>
	<polygon fill="#FFFFFF" stroke="#16B34C" stroke-miterlimit="10" points="644.9,441.3 646.8,442.1 648.7,442.9 648.7,460.3 
		657.4,499.8 657.6,501.2 666.2,538.9 666.2,560.8 657.4,551.4 655.5,551.4 648.7,501 648.7,456.2 	"/>
	<polygon fill="#FFFFFF" stroke="#16B34C" stroke-miterlimit="10" points="642.4,441.3 642.4,471.2 656.2,489.9 669.9,508.5 
		669.9,493.5 652.4,471.2 634.9,448.8 634.9,433.8 	"/>
	<polygon fill="#FFFFFF" stroke="#16B34C" stroke-miterlimit="10" points="648.7,452.5 652.4,454.7 652.4,467.5 656.4,482 
		661.2,498.1 664.3,508.8 673.3,518.7 679.4,525.5 681.1,529.1 681.1,542.1 666.8,525.3 656.7,514.3 652.4,489.8 652.4,461.3 	"/>
	<polygon fill="#FFFFFF" stroke="#16B34C" stroke-miterlimit="10" points="669.9,471.1 669.9,504.8 669.9,538.4 681.1,549.6 
		692.3,560.8 692.3,575.7 677.3,560.8 662.4,545.8 662.4,508.5 662.4,471.1 	"/>
	<polygon fill="#FFFFFF" stroke="#16B34C" stroke-miterlimit="10" points="648.7,478.6 653.8,480.3 657.7,496.2 659.4,504.1 
		663,518.4 665.4,528.2 673.9,537.5 673.9,537.5 682.3,546.5 684.8,557.1 677.4,538.3 670.4,531.4 666.2,533.8 666.2,534.4 
		666.2,534.5 658.7,513.9 657.4,510.8 648.7,486 	"/>
	<polygon fill="#FFFFFF" stroke="#16B34C" stroke-miterlimit="10" points="677.4,515.9 677.4,538.4 666.8,525.3 656.2,512.3 
		645.5,499.2 634.9,486.1 634.9,493.6 652.4,516 669.9,538.4 669.9,523.5 669.9,508.5 	"/>
	<polygon fill="#FFFFFF" stroke="#16B34C" stroke-miterlimit="10" points="642.4,482.4 652.1,494.9 657.5,501.8 662.1,507.7 
		672.1,520.6 672.1,520.6 677.4,534.7 674.3,519.2 669.2,513.7 666.8,518 666.8,517.9 664.5,522.3 651.7,505.5 650.1,503.5 
		642.4,487.9 	"/>
	<polygon fill="#FFFFFF" stroke="#16B34C" stroke-miterlimit="10" points="677.4,515.9 677.4,530.9 663.7,512.3 649.9,493.6 
		649.9,478.6 663.7,497.3 	"/>
	<polygon fill="#FFFFFF" stroke="#16B34C" stroke-miterlimit="10" points="659.9,501 659.9,538.4 642.4,519.8 642.4,478.6 	"/>
	<polygon fill="#FFFFFF" stroke="#16B34C" stroke-miterlimit="10" points="642.4,486.1 634.9,478.6 634.9,545.9 642.4,545.9 	"/>
	<polygon fill="#FFFFFF" stroke="#16B34C" stroke-miterlimit="10" points="631.2,482.4 631.2,553.3 638.7,553.3 638.7,489.9 	"/>
	<polygon fill="#FFFFFF" stroke="#16B34C" stroke-miterlimit="10" points="627.4,486.1 627.4,560.8 634.9,560.8 634.9,493.6 	"/>
	<polygon fill="#FFFFFF" stroke="#16B34C" stroke-miterlimit="10" points="627.4,486.1 627.4,560.8 663.6,605.6 663.6,527.2 	"/>
	<polygon fill="#FFFFFF" stroke="#16B34C" stroke-miterlimit="10" points="692.3,560.8 627.4,486.1 627.4,560.8 692.3,650.4 	"/>
	<polygon fill="#FFFFFF" stroke="#16B34C" stroke-miterlimit="10" points="692.3,568.3 692.3,628 644.9,568.3 644.9,516 	"/>
	<polygon fill="#FFFFFF" stroke="#16B34C" stroke-miterlimit="10" points="692.3,575.7 692.3,605.6 662.4,575.7 662.4,545.8 	"/>
	<polygon fill="#FFFFFF" stroke="#16B34C" stroke-miterlimit="10" points="692.3,590.7 692.3,616.8 662.4,586.9 662.4,560.8 	"/>
	<polygon fill="#FFFFFF" stroke="#16B34C" stroke-miterlimit="10" points="692.3,605.6 692.3,628 662.4,598.1 662.4,575.7 	"/>
	<polygon fill="#FFFFFF" stroke="#16B34C" stroke-miterlimit="10" points="673.6,598.1 692.3,616.8 692.3,650.4 673.6,635.5 	"/>
	<polygon fill="#FFFFFF" stroke="#16B34C" stroke-miterlimit="10" points="684.8,620.5 684.8,672.8 692.3,672.8 692.3,628 	"/>
	<polygon fill="#FFFFFF" stroke="#16B34C" stroke-miterlimit="10" points="673.6,609.3 673.6,657.9 688.6,669.1 688.6,624.3 	"/>
	<polygon fill="#FFFFFF" stroke="#16B34C" stroke-miterlimit="10" points="662.4,598.1 662.4,642.9 684.8,665.4 684.8,620.5 	"/>
	<polygon fill="#FFFFFF" stroke="#16B34C" stroke-miterlimit="10" points="655,523.4 662.4,529 669.9,534.6 669.9,586.9 
		669.9,639.2 667.8,639 665.8,638.8 655,586.9 	"/>
	<polygon fill="#FFFFFF" stroke="#16B34C" stroke-miterlimit="10" points="647.5,448.7 651.2,448.7 655,448.7 655,530.9 655,613 
		651.2,613 647.5,613 647.5,530.9 	"/>
	<polygon fill="#FFFFFF" stroke="#16B34C" stroke-miterlimit="10" points="652.4,525.3 654.5,526 656.7,526.7 664.9,587.8 
		665,588.9 673.7,652.3 664.3,652.3 655,652.3 655,642.8 655.5,585.1 656.2,529.3 	"/>
	<polygon fill="#FFFFFF" stroke="#16B34C" stroke-miterlimit="10" points="692.3,695.2 674.8,650.4 657.3,605.6 664.8,598.2 
		663.6,643 662.4,687.8 662.4,695.2 677.3,695.2 	"/>
	<polygon fill="#FFFFFF" stroke="#16B34C" stroke-miterlimit="10" points="653.6,581.3 657.3,581.4 664.1,619.3 667.1,636.2 
		671.2,658 672.4,664.2 682.3,669.5 692.3,674.7 691.2,668.2 673.5,627.4 672.6,625.3 	"/>
	<polygon fill="#FFFFFF" stroke="#16B34C" stroke-miterlimit="10" points="692.3,650.4 671.1,605.6 649.9,560.8 649.9,568.3 
		671.1,613.1 692.3,657.9 	"/>
	<polygon fill="#FFFFFF" stroke="#16B34C" stroke-miterlimit="10" points="642.4,553.3 648.3,561.8 653.9,569.6 656.8,577 
		661.5,589.4 667.4,605.2 667.4,609.4 661.5,600.9 655.9,593.1 653,585.7 648.3,573.3 642.4,557.5 	"/>
	<polygon fill="#FFFFFF" stroke="#16B34C" stroke-miterlimit="10" points="634.9,545.9 638.7,545.9 642.4,545.9 642.4,553.4 
		642.4,560.8 638.7,560.8 634.9,560.8 634.9,553.4 	"/>
	<polygon fill="#FFFFFF" stroke="#16B34C" stroke-miterlimit="10" points="657.3,560.8 657.3,564 654.9,577.1 653.2,586.4 
		652,592.4 648,597.8 644.1,603.1 644.1,600 646.5,586.9 648.2,577.6 649.4,571.5 653.4,566.2 	"/>
	<polygon fill="#FFFFFF" stroke="#16B34C" stroke-miterlimit="10" points="672.3,575.8 672.3,581.1 667.4,600.8 664,614.7 
		661.7,624.1 657.4,634.8 653.2,645.5 653.2,640.2 658.1,620.4 661.5,606.6 663.8,597.2 668.1,586.5 	"/>
	<polygon fill="#FFFFFF" stroke="#16B34C" stroke-miterlimit="10" points="662.4,680.3 674.8,635.5 687.2,590.7 687.2,598.2 
		674.8,643 662.4,687.8 	"/>
	<polygon fill="#FFFFFF" stroke="#16B34C" stroke-miterlimit="10" points="683.4,583.2 683.9,590.4 681.3,628.6 680.8,634.7 
		678.3,673.3 677.3,680.4 676.9,673.3 679.5,635 680,628.9 682.5,590.3 	"/>
	<polygon fill="#FFFFFF" stroke="#16B34C" stroke-miterlimit="10" points="692.3,665.4 686,620.6 679.7,575.8 679.7,583.3 
		686,628.1 692.3,672.9 	"/>
	<polygon fill="#FFFFFF" stroke="#16B34C" stroke-miterlimit="10" points="664.8,572 664.8,579.5 678.6,624.4 692.3,669.2 
		692.3,661.7 678.6,616.9 	"/>
	<polygon fill="#FFFFFF" stroke="#16B34C" stroke-miterlimit="10" points="692.3,657.9 671.1,613.1 649.9,568.3 649.9,575.8 
		671.1,620.6 692.3,665.4 	"/>
	<polygon fill="#FFFFFF" stroke="#16B34C" stroke-miterlimit="10" points="656.2,605.6 669.4,627.4 674.2,635.5 683,649.9 
		688.6,667.4 688.6,672.9 678.5,663.5 668.8,654.8 666.8,647.7 661.9,630.8 656.2,611.4 	"/>
	<polygon fill="#FFFFFF" stroke="#16B34C" stroke-miterlimit="10" points="684.8,665.4 684.8,680.3 673.6,680.3 662.4,680.3 
		662.4,661.6 662.4,642.9 673.6,654.2 	"/>
	<polygon fill="#FFFFFF" stroke="#16B34C" stroke-miterlimit="10" points="663.6,613.1 672.8,634.9 675.9,642.8 682.2,657.7 
		684.8,674.7 684.8,680.3 676.2,670.6 667.8,661.5 666.7,655.7 663,636.4 659.8,620.1 	"/>
	<polygon fill="#FFFFFF" stroke="#16B34C" stroke-miterlimit="10" points="664.8,583.2 657.3,590.7 671,635.5 684.8,680.3 
		684.8,672.8 674.8,628 	"/>
	<polygon fill="#FFFFFF" stroke="#16B34C" stroke-miterlimit="10" points="648.4,574.5 642.1,582.3 651.2,617.2 653.6,626.3 
		663,662.6 664.7,665.9 666.3,669.1 666.3,661.8 661.4,636.3 657.9,617.9 656.7,611.3 652,586.4 650.2,580.5 	"/>
	<polygon fill="#FFFFFF" stroke="#16B34C" stroke-miterlimit="10" points="632,565.8 627,573.9 634.2,608.2 636.1,617.1 
		643.7,652.7 645.7,655.3 647.7,657.9 647.7,650.8 643.9,625.7 641.1,607.7 640.1,601.2 636.3,576.8 634.1,571.3 	"/>
	<polygon fill="#FFFFFF" stroke="#16B34C" stroke-miterlimit="10" points="615.5,557.1 611.8,565.4 617.3,599.2 618.7,607.9 
		624.3,642.8 626.8,644.8 629.2,646.7 629.2,639.7 626.3,615.1 624.2,597.6 623.5,591.1 620.6,567.2 618.1,562.1 	"/>
	<polygon fill="#FFFFFF" stroke="#16B34C" stroke-miterlimit="10" points="599.1,548.3 596.6,557 600.3,590.1 601.2,598.7 
		605,632.9 607.8,634.2 610.7,635.5 610.7,628.7 608.7,604.4 607.3,587.4 606.8,581 605,557.6 602,553 	"/>
	<polygon fill="#FFFFFF" stroke="#16B34C" stroke-miterlimit="10" points="582.7,539.6 581.5,548.6 583.3,581.1 583.8,589.4 
		585.6,623 588.9,623.7 592.1,624.3 592.1,617.7 591.2,593.8 590.5,577.3 590.2,570.9 589.3,548 586,543.8 	"/>
	<polygon fill="#FFFFFF" stroke="#16B34C" stroke-miterlimit="10" points="573.6,583.2 573.6,560.8 573.6,538.4 570,534.7 
		566.3,530.9 566.3,572 566.3,613.1 570,613.1 573.6,613.1 	"/>
	<polygon fill="#FFFFFF" stroke="#16B34C" stroke-miterlimit="10" points="556.9,534.7 564.3,540.3 564.3,579.3 564.3,605.7 
		556.9,605.7 	"/>
	<polygon fill="#FFFFFF" stroke="#16B34C" stroke-miterlimit="10" points="547.6,538.4 555,542.1 555,575.4 555,598.2 547.6,598.2 	
		"/>
	<polygon fill="#FFFFFF" stroke="#16B34C" stroke-miterlimit="10" points="538.2,542.1 545.6,544 545.6,571.5 545.6,590.7 
		538.2,590.7 	"/>
	<rect x="528.8" y="545.8" fill="#FFFFFF" stroke="#16B34C" stroke-miterlimit="10" width="7.5" height="37.4"/>
	<rect x="536.3" y="536.5" fill="#FFFFFF" stroke="#16B34C" stroke-miterlimit="10" width="7.5" height="54.2"/>
	<rect x="543.8" y="527.2" fill="#FFFFFF" stroke="#16B34C" stroke-miterlimit="10" width="7.5" height="71"/>
	<rect x="551.3" y="517.8" fill="#FFFFFF" stroke="#16B34C" stroke-miterlimit="10" width="7.5" height="87.8"/>
	<rect x="558.8" y="508.5" fill="#FFFFFF" stroke="#16B34C" stroke-miterlimit="10" width="7.5" height="104.6"/>
	<rect x="551.3" y="512.3" fill="#FFFFFF" stroke="#16B34C" stroke-miterlimit="10" width="7.5" height="85.9"/>
	<rect x="543.8" y="516" fill="#FFFFFF" stroke="#16B34C" stroke-miterlimit="10" width="7.5" height="67.2"/>
	<rect x="540.1" y="530.9" fill="#FFFFFF" stroke="#16B34C" stroke-miterlimit="10" width="7.5" height="52.3"/>
	<rect x="536.3" y="545.8" fill="#FFFFFF" stroke="#16B34C" stroke-miterlimit="10" width="7.5" height="37.4"/>
	<polygon fill="#FFFFFF" stroke="#16B34C" stroke-miterlimit="10" points="543.8,538.4 551.3,542.1 551.3,587 543.8,587 	"/>
	<polygon fill="#FFFFFF" stroke="#16B34C" stroke-miterlimit="10" points="551.3,530.9 558.8,538.4 558.8,590.7 551.3,590.7 	"/>
	<polygon fill="#FFFFFF" stroke="#16B34C" stroke-miterlimit="10" points="560.4,531.9 567.9,535.6 567.9,595.4 560.4,595.4 
		560.4,570.7 	"/>
	<polygon fill="#FFFFFF" stroke="#16B34C" stroke-miterlimit="10" points="569.5,532.8 577,532.8 577,600 569.5,600 569.5,573.6 	
		"/>
	<polygon fill="#FFFFFF" stroke="#16B34C" stroke-miterlimit="10" points="578.6,535.6 586,531.9 586,606.6 578.6,606.6 
		578.6,578.4 	"/>
	<polygon fill="#FFFFFF" stroke="#16B34C" stroke-miterlimit="10" points="587.7,613.1 595.1,613.1 595.1,530.9 587.7,538.4 
		587.7,583.2 	"/>
	<polygon fill="#FFFFFF" stroke="#16B34C" stroke-miterlimit="10" points="597,540.3 604.5,534.7 604.5,605.7 597,605.7 597,579.3 	
		"/>
	<polygon fill="#FFFFFF" stroke="#16B34C" stroke-miterlimit="10" points="606.4,542.1 613.8,538.4 613.8,598.2 606.4,598.2 
		606.4,575.4 	"/>
	<polygon fill="#FFFFFF" stroke="#16B34C" stroke-miterlimit="10" points="615.7,544 623.2,542.1 623.2,590.7 615.7,590.7 
		615.7,571.5 	"/>
	<rect x="625" y="545.8" fill="#FFFFFF" stroke="#16B34C" stroke-miterlimit="10" width="7.5" height="37.4"/>
	<rect x="617.5" y="536.5" fill="#FFFFFF" stroke="#16B34C" stroke-miterlimit="10" width="7.5" height="54.2"/>
	<rect x="610.1" y="527.2" fill="#FFFFFF" stroke="#16B34C" stroke-miterlimit="10" width="7.5" height="71"/>
	<rect x="602.6" y="517.8" fill="#FFFFFF" stroke="#16B34C" stroke-miterlimit="10" width="7.5" height="87.8"/>
	<rect x="595.1" y="508.5" fill="#FFFFFF" stroke="#16B34C" stroke-miterlimit="10" width="7.5" height="104.6"/>
	<rect x="602.6" y="512.3" fill="#FFFFFF" stroke="#16B34C" stroke-miterlimit="10" width="7.5" height="85.9"/>
	<rect x="610" y="516" fill="#FFFFFF" stroke="#16B34C" stroke-miterlimit="10" width="7.5" height="67.2"/>
	<rect x="613.8" y="530.9" fill="#FFFFFF" stroke="#16B34C" stroke-miterlimit="10" width="7.5" height="52.3"/>
	<rect x="617.5" y="545.8" fill="#FFFFFF" stroke="#16B34C" stroke-miterlimit="10" width="7.5" height="37.4"/>
	<polygon fill="#FFFFFF" stroke="#16B34C" stroke-miterlimit="10" points="617.6,587 610.1,587 610.1,542.1 617.6,538.4 	"/>
	<polygon fill="#FFFFFF" stroke="#16B34C" stroke-miterlimit="10" points="610.1,590.7 602.6,590.7 602.6,538.4 610.1,530.9 	"/>
	<polygon fill="#FFFFFF" stroke="#16B34C" stroke-miterlimit="10" points="611.3,553.4 618.8,547.1 618.8,608.1 611.3,608.1 	"/>
	<polygon fill="#FFFFFF" stroke="#16B34C" stroke-miterlimit="10" points="620,568.3 627.5,563.3 627.5,625.6 620,625.6 	"/>
	<polygon fill="#FFFFFF" stroke="#16B34C" stroke-miterlimit="10" points="628.8,583.2 636.2,579.5 636.2,643 628.8,643 	"/>
	<polygon fill="#FFFFFF" stroke="#16B34C" stroke-miterlimit="10" points="637.5,598.2 645,595.7 645,660.4 637.5,660.4 	"/>
	<polygon fill="#FFFFFF" stroke="#16B34C" stroke-miterlimit="10" points="646.2,613.1 653.7,611.8 653.7,677.8 646.2,677.8 	"/>
	<rect x="654.9" y="628" fill="#FFFFFF" stroke="#16B34C" stroke-miterlimit="10" width="7.5" height="67.2"/>
	<rect x="665.3" y="611" fill="#FFFFFF" stroke="#16B34C" stroke-miterlimit="10" width="8" height="65.8"/>
	<rect x="675.7" y="594" fill="#FFFFFF" stroke="#16B34C" stroke-miterlimit="10" width="8.5" height="64.3"/>
	<rect x="686.2" y="576.9" fill="#FFFFFF" stroke="#16B34C" stroke-miterlimit="10" width="9" height="62.9"/>
	<rect x="696.6" y="559.9" fill="#FFFFFF" stroke="#16B34C" stroke-miterlimit="10" width="9.5" height="61.4"/>
	<rect x="707" y="542.8" fill="#FFFFFF" stroke="#16B34C" stroke-miterlimit="10" width="10" height="60"/>
	<rect x="717.4" y="525.8" fill="#FFFFFF" stroke="#16B34C" stroke-miterlimit="10" width="10.5" height="58.5"/>
	<rect x="727.9" y="508.8" fill="#FFFFFF" stroke="#16B34C" stroke-miterlimit="10" width="11" height="57.1"/>
	<rect x="738.3" y="491.7" fill="#FFFFFF" stroke="#16B34C" stroke-miterlimit="10" width="11.5" height="55.6"/>
	<rect x="748.7" y="474.7" fill="#FFFFFF" stroke="#16B34C" stroke-miterlimit="10" width="12" height="54.2"/>
	<rect x="748.8" y="471.6" fill="#FFFFFF" stroke="#16B34C" stroke-miterlimit="10" width="33.1" height="30.2"/>
	<rect x="748.8" y="468.5" fill="#FFFFFF" stroke="#16B34C" stroke-miterlimit="10" width="54.2" height="6.1"/>
	<polygon fill="#FFFFFF" stroke="#16B34C" stroke-miterlimit="10" points="754.8,471.5 769.9,471.5 785,471.5 785,480.6 785,489.7 
		769.9,491.2 754.8,492.7 754.8,482.1 	"/>
	<polygon fill="#FFFFFF" stroke="#16B34C" stroke-miterlimit="10" points="760.8,510.8 763.8,507.8 766.9,504.7 766.9,489.7 
		766.9,474.6 763.8,474.6 760.8,474.6 760.8,492.7 	"/>
	<polygon fill="#FFFFFF" stroke="#16B34C" stroke-miterlimit="10" points="766.8,488.2 772.9,483.7 772.9,500.2 772.9,516.8 
		766.8,518.3 760.8,519.8 760.8,510.8 760.8,501.8 764.7,488.8 	"/>
	<polygon fill="#FFFFFF" stroke="#16B34C" stroke-miterlimit="10" points="760.8,528.9 760.8,519.8 760.8,510.8 769.8,501.8 
		778.9,492.7 778.9,510.8 778.9,528.9 769.8,528.9 	"/>
	<polygon fill="#FFFFFF" stroke="#16B34C" stroke-miterlimit="10" points="771.4,488.2 778.9,483.7 778.9,492.7 778.9,501.8 
		776.7,513 771.4,513.8 763.8,516.8 763.8,508.5 763.8,500.2 767,489.5 	"/>
	<polygon fill="#FFFFFF" stroke="#16B34C" stroke-miterlimit="10" points="766.9,504.7 772.9,498.7 778.9,492.7 778.9,483.7 
		778.9,474.6 772.9,474.6 766.9,474.6 766.9,489.7 	"/>
	<polygon fill="#FFFFFF" stroke="#16B34C" stroke-miterlimit="10" points="772.9,489.7 778.9,492.7 782.4,493.2 783.6,499 
		784.9,504.8 782.7,513 778.9,513.8 772.9,516.8 772.9,503.2 	"/>
	<polygon fill="#FFFFFF" stroke="#16B34C" stroke-miterlimit="10" points="778.9,504.7 784.9,510.8 790.9,516.9 790.9,528.9 
		784.9,528.9 778.9,528.9 778.9,516.8 	"/>
	<polygon fill="#FFFFFF" stroke="#16B34C" stroke-miterlimit="10" points="778.9,495.8 787.9,504.8 796.9,513.8 796.9,528.9 
		787.9,522.9 782.8,520.8 778.9,510.8 	"/>
	<polygon fill="#FFFFFF" stroke="#16B34C" stroke-miterlimit="10" points="790.9,516.9 802.9,528.9 802.9,510.8 790.9,498.8 
		778.9,486.8 778.9,504.7 	"/>
	<polygon fill="#FFFFFF" stroke="#16B34C" stroke-miterlimit="10" points="805.5,514.6 817.5,522.6 827.9,529 829.5,531.7 
		829.5,544.7 817.5,536.7 807.1,530.2 805.5,527.6 	"/>
	<polygon fill="#FFFFFF" stroke="#16B34C" stroke-miterlimit="10" points="832.1,542.5 844.1,546.5 855.3,549.7 856.1,552.5 
		856.1,560.6 844.1,556.6 832.9,553.3 832.1,550.5 	"/>
	<polygon fill="#FFFFFF" stroke="#16B34C" stroke-miterlimit="10" points="858.7,570.3 870.7,570.3 882.7,570.3 882.7,573.4 
		882.7,576.4 870.7,576.4 858.7,576.4 858.7,573.4 	"/>
	<polygon fill="#FFFFFF" stroke="#16B34C" stroke-miterlimit="10" points="821.6,551 844.6,551 840.8,578.9 817.8,578.9 	"/>
	<polygon fill="#FFFFFF" stroke="#16B34C" stroke-miterlimit="10" points="784.5,531.7 806.5,531.7 798.9,581.4 776.9,581.4 	"/>
	<polygon fill="#FFFFFF" stroke="#16B34C" stroke-miterlimit="10" points="747.4,512.4 768.4,512.4 756.9,584 735.9,584 	"/>
	<polygon fill="#FFFFFF" stroke="#16B34C" stroke-miterlimit="10" points="710.3,493.1 730.3,493.1 715,586.5 695,586.5 	"/>
	<polygon fill="#FFFFFF" stroke="#16B34C" stroke-miterlimit="10" points="673.1,473.7 692.1,473.7 673.1,589 654.1,589 	"/>
	<polygon fill="#FFFFFF" stroke="#16B34C" stroke-miterlimit="10" points="636,454.4 654,454.4 631.2,591.5 613.2,591.5 	"/>
	<polygon fill="#FFFFFF" stroke="#16B34C" stroke-miterlimit="10" points="598.9,435.1 615.9,435.1 589.2,594 572.2,594 	"/>
	<polygon fill="#FFFFFF" stroke="#16B34C" stroke-miterlimit="10" points="561.8,415.8 577.8,415.8 547.3,596.5 531.3,596.5 	"/>
	<polygon fill="#FFFFFF" stroke="#16B34C" stroke-miterlimit="10" points="524.7,396.5 539.7,396.5 505.4,599 490.4,599 	"/>
	<polygon fill="#FFFFFF" stroke="#16B34C" stroke-miterlimit="10" points="487.6,377.2 501.6,377.2 463.5,601.5 449.5,601.5 	"/>
	<polygon fill="#FFFFFF" stroke="#16B34C" stroke-miterlimit="10" points="450.5,357.8 463.5,357.8 421.5,604 408.5,604 	"/>
	<polygon fill="#FFFFFF" stroke="#16B34C" stroke-miterlimit="10" points="413.4,338.5 425.4,338.5 379.6,606.5 367.6,606.5 	"/>
	<polygon fill="#FFFFFF" stroke="#16B34C" stroke-miterlimit="10" points="385.5,308.8 397.5,308.8 374.6,482 362.6,482 	"/>
	<rect x="357.5" y="279" fill="#FFFFFF" stroke="#16B34C" stroke-miterlimit="10" width="12" height="78.4"/>
	<polygon fill="#FFFFFF" stroke="#16B34C" stroke-miterlimit="10" points="363.6,285 372.7,282 372.7,357.4 363.6,357.4 	"/>
	<polygon fill="#FFFFFF" stroke="#16B34C" stroke-miterlimit="10" points="369.7,357.4 369.7,291 375.8,285.1 375.8,357.4 	"/>
	<polygon fill="#FFFFFF" stroke="#16B34C" stroke-miterlimit="10" points="369.7,324.2 369.7,266.9 375.8,261 375.8,321.2 	"/>
	<polygon fill="#FFFFFF" stroke="#16B34C" stroke-miterlimit="10" points="369.7,291 369.7,242.8 375.8,236.9 375.8,285.1 	"/>
	<polygon fill="#FFFFFF" stroke="#16B34C" stroke-miterlimit="10" points="363.6,285 363.6,251.8 372.7,242.9 372.7,282 	"/>
	<polygon fill="#FFFFFF" stroke="#16B34C" stroke-miterlimit="10" points="357.5,279 357.5,260.9 369.7,248.9 369.7,279 	"/>
	<polygon fill="#FFFFFF" stroke="#16B34C" stroke-miterlimit="10" points="354.5,273 363.6,267 363.6,318.2 354.5,318.2 	"/>
	<rect x="351.5" y="285.1" fill="#FFFFFF" stroke="#16B34C" stroke-miterlimit="10" width="6.1" height="72.3"/>
	<rect x="348.5" y="273.1" fill="#FFFFFF" stroke="#16B34C" stroke-miterlimit="10" width="6.1" height="84.3"/>
	<rect x="345.5" y="261.1" fill="#FFFFFF" stroke="#16B34C" stroke-miterlimit="10" width="6.1" height="96.3"/>
	<polygon fill="#FFFFFF" stroke="#16B34C" stroke-miterlimit="10" points="342.6,360.3 330.5,360.3 330.5,273.1 342.6,264 	"/>
	<polygon fill="#FFFFFF" stroke="#16B34C" stroke-miterlimit="10" points="333.5,363.3 315.5,363.3 315.5,285.1 333.5,267 	"/>
	<polygon fill="#FFFFFF" stroke="#16B34C" stroke-miterlimit="10" points="312.4,273 324.5,263.9 324.5,363.3 312.4,363.3 	"/>
	<rect x="309.4" y="260.9" fill="#FFFFFF" stroke="#16B34C" stroke-miterlimit="10" width="6.1" height="102.4"/>
	<polygon fill="#FFFFFF" stroke="#16B34C" stroke-miterlimit="10" points="289.5,449 283.5,449 306.4,285 312.4,282 	"/>
	<polygon fill="#FFFFFF" stroke="#16B34C" stroke-miterlimit="10" points="263.6,534.8 257.7,534.8 303.5,309.1 309.4,303.1 	"/>
	<polygon fill="#FFFFFF" stroke="#16B34C" stroke-miterlimit="10" points="260.7,534.8 254.7,534.8 300.4,306.1 306.4,300.1 	"/>
	<polygon fill="#FFFFFF" stroke="#16B34C" stroke-miterlimit="10" points="257.7,534.8 251.6,534.8 297.4,303.1 303.5,297.1 	"/>
	<polygon fill="#FFFFFF" stroke="#16B34C" stroke-miterlimit="10" points="270.2,306.1 300.4,303.1 254.6,534.8 224.5,534.8 	"/>
	<polygon fill="#FFFFFF" stroke="#16B34C" stroke-miterlimit="10" points="243.2,309.1 297.4,309.1 251.6,534.8 197.4,534.8 	"/>
	<polygon fill="#FFFFFF" stroke="#16B34C" stroke-miterlimit="10" points="224.5,546.9 191.4,540.8 214.3,397.9 270.2,312.1 	"/>
	<polygon fill="#FFFFFF" stroke="#16B34C" stroke-miterlimit="10" points="197.4,559.1 185.4,546.9 185.4,486.8 243.2,315.1 	"/>
	<polygon fill="#FFFFFF" stroke="#16B34C" stroke-miterlimit="10" points="218.7,429.6 261.2,315.1 230.7,495.9 218.7,487.7 	"/>
	<polygon fill="#FFFFFF" stroke="#16B34C" stroke-miterlimit="10" points="252,372.4 279.3,315.2 264,432.6 252,428.6 	"/>
	<rect x="285.4" y="315.2" fill="#FFFFFF" stroke="#16B34C" stroke-miterlimit="10" width="12" height="54.2"/>
	<rect x="264.3" y="312.1" fill="#FFFFFF" stroke="#16B34C" stroke-miterlimit="10" width="33.1" height="30.2"/>
	<rect x="243.1" y="309" fill="#FFFFFF" stroke="#16B34C" stroke-miterlimit="10" width="54.2" height="6.1"/>
	<polygon fill="#FFFFFF" stroke="#16B34C" stroke-miterlimit="10" points="261.2,312 276.3,312 291.4,312 291.4,322.6 291.4,333.2 
		276.3,331.7 261.2,330.1 261.2,321.1 	"/>
	<polygon fill="#FFFFFF" stroke="#16B34C" stroke-miterlimit="10" points="285.4,315.1 282.3,315.1 279.2,315.1 279.2,330.1 
		279.2,345.2 282.3,348.2 285.4,351.3 285.4,333.2 	"/>
	<polygon fill="#FFFFFF" stroke="#16B34C" stroke-miterlimit="10" points="273.2,324.1 279.3,328.7 281.4,329.3 285.4,342.2 
		285.4,351.3 285.4,360.3 279.3,358.8 273.2,357.3 273.2,340.7 	"/>
	<polygon fill="#FFFFFF" stroke="#16B34C" stroke-miterlimit="10" points="267.2,369.4 267.2,351.3 267.2,333.2 276.2,342.2 
		285.4,351.3 285.4,360.3 285.4,369.4 276.2,369.4 	"/>
	<polygon fill="#FFFFFF" stroke="#16B34C" stroke-miterlimit="10" points="267.2,324.1 274.7,328.7 279.1,330 282.3,340.7 
		282.3,349 282.3,357.3 274.7,354.3 269.4,353.5 267.2,342.2 267.2,333.2 	"/>
	<polygon fill="#FFFFFF" stroke="#16B34C" stroke-miterlimit="10" points="279.2,315.1 273.2,315.1 267.2,315.1 267.2,324.1 
		267.2,333.2 273.2,339.2 279.2,345.2 279.2,330.1 	"/>
	<polygon fill="#FFFFFF" stroke="#16B34C" stroke-miterlimit="10" points="267.2,333.2 273.2,330.1 273.2,343.7 273.2,357.3 
		267.2,354.3 263.4,353.5 261.2,345.3 262.1,339.8 263.4,333.9 	"/>
	<polygon fill="#FFFFFF" stroke="#16B34C" stroke-miterlimit="10" points="267.2,369.4 261.2,369.4 255.2,369.4 255.2,357.4 
		261.2,351.3 267.2,345.2 267.2,357.3 	"/>
	<polygon fill="#FFFFFF" stroke="#16B34C" stroke-miterlimit="10" points="258.2,345.3 267.2,336.2 267.2,351.2 263.3,361.3 
		258.2,363.4 249.2,369.4 249.2,354.3 	"/>
	<polygon fill="#FFFFFF" stroke="#16B34C" stroke-miterlimit="10" points="267.2,345.2 267.2,327.3 255.2,339.3 243.2,351.3 
		243.2,369.4 255.2,357.4 	"/>
	<polygon fill="#FFFFFF" stroke="#16B34C" stroke-miterlimit="10" points="255.2,330.2 267.2,324.2 267.2,334.7 265.9,337.5 
		255.2,342.4 243.2,348.4 243.2,337.8 244.4,335 	"/>
	<polygon fill="#FFFFFF" stroke="#16B34C" stroke-miterlimit="10" points="243.2,321.2 255.2,321.2 267.2,321.2 267.2,324.2 
		267.2,327.3 255.2,327.3 243.2,327.3 243.2,324.2 	"/>
</g>
</svg>
