<?xml version="1.0" encoding="utf-8"?>
<!-- Generator: Adobe Illustrator 17.1.0, SVG Export Plug-In . SVG Version: 6.00 Build 0)  -->
<!DOCTYPE svg PUBLIC "-//W3C//DTD SVG 1.1//EN" "http://www.w3.org/Graphics/SVG/1.1/DTD/svg11.dtd">
<svg version="1.1" id="Layer_1" xmlns="http://www.w3.org/2000/svg" xmlns:xlink="http://www.w3.org/1999/xlink" x="0px" y="0px"
	 viewBox="0 0 1000 1000" enable-background="new 0 0 1000 1000" xml:space="preserve">
<g>
	<rect x="312.5" y="549.2" fill="#FFFFFF" stroke="#16B34C" stroke-miterlimit="10" width="14.1" height="253.4"/>
	<polygon fill="#FFFFFF" stroke="#16B34C" stroke-miterlimit="10" points="328.6,516 335.7,516 342.7,516 342.7,646.8 342.7,777.5 
		335.7,777.5 328.6,777.5 328.6,646.8 	"/>
	<polygon fill="#FFFFFF" stroke="#16B34C" stroke-miterlimit="10" points="344.7,482.9 351.8,482.9 358.8,482.9 358.8,617.6 
		358.8,752.3 351.8,752.3 344.7,752.3 344.7,617.6 	"/>
	<polygon fill="#FFFFFF" stroke="#16B34C" stroke-miterlimit="10" points="360.8,449.7 367.9,449.7 374.9,449.7 374.9,588.5 
		374.9,727.2 367.9,727.2 360.8,727.2 360.8,588.5 	"/>
	<polygon fill="#FFFFFF" stroke="#16B34C" stroke-miterlimit="10" points="377,416.6 384,416.6 391.1,416.6 391.1,559.3 391.1,702 
		384,702 377,702 377,559.3 	"/>
	<polygon fill="#FFFFFF" stroke="#16B34C" stroke-miterlimit="10" points="393.1,383.4 400.1,383.4 407.2,383.4 407.2,530.1 
		407.2,676.9 400.1,676.9 393.1,676.9 393.1,530.1 	"/>
	<polygon fill="#FFFFFF" stroke="#16B34C" stroke-miterlimit="10" points="409.2,350.3 416.2,350.3 423.3,350.3 423.3,501 
		423.3,651.7 416.2,651.7 409.2,651.7 409.2,501 	"/>
	<polygon fill="#FFFFFF" stroke="#16B34C" stroke-miterlimit="10" points="425.3,317.1 432.3,317.1 439.4,317.1 439.4,471.8 
		439.4,626.6 432.3,626.6 425.3,626.6 425.3,471.8 	"/>
	<polygon fill="#FFFFFF" stroke="#16B34C" stroke-miterlimit="10" points="369,260.8 373.5,261.7 378,262.7 400.7,346.6 406.9,369 
		425.3,437.7 425.3,478.9 410.2,486.3 393.8,468.5 389.8,468 376,373.4 369,346.2 	"/>
	<polygon fill="#FFFFFF" stroke="#16B34C" stroke-miterlimit="10" points="312.7,260.8 312.7,204.4 362,253.7 411.2,303 
		411.2,331.2 383.5,346 355.2,310.5 326.8,274.9 	"/>
	<polygon fill="#FFFFFF" stroke="#16B34C" stroke-miterlimit="10" points="340.9,192.6 365.9,217.7 390.6,242.4 393.6,250.6 
		409.5,296.5 418.2,321.9 418.2,354.5 405.6,357.5 397.4,351.2 386,315.9 383.2,307.6 369,262.9 353.9,247.9 351.4,242.4 
		340.9,218.6 	"/>
	<polygon fill="#FFFFFF" stroke="#16B34C" stroke-miterlimit="10" points="411.2,373.4 411.2,310 411.2,246.6 390.1,225.5 
		369,204.4 369,176.4 397.1,204.5 425.3,232.7 425.3,303 425.3,373.4 	"/>
	<polygon fill="#FFFFFF" stroke="#16B34C" stroke-miterlimit="10" points="347.9,169.3 383.1,204.5 404.8,226.2 418.2,274.8 
		418.2,338.2 407.2,334.2 404.2,325.9 404.2,279.1 404.2,277.7 387.2,229.7 386,228.5 368.4,210.8 350.1,192.6 347.9,185.8 	"/>
	<polygon fill="#FFFFFF" stroke="#16B34C" stroke-miterlimit="10" points="397.1,289 397.1,246.6 362,211.5 326.8,176.4 
		326.8,162.2 369,204.4 411.2,246.6 411.2,303 	"/>
	<polygon fill="#FFFFFF" stroke="#16B34C" stroke-miterlimit="10" points="308.9,158.8 351.5,201.2 361.6,211.3 393.9,243.5 
		404.2,268.1 404.2,296 389.6,281.6 374.5,245.4 366.6,237.5 339,210 314.2,185.3 308.9,172.7 	"/>
	<polygon fill="#FFFFFF" stroke="#16B34C" stroke-miterlimit="10" points="397.1,289 397.1,260.8 344,208.1 291,155.4 291,183.7 
		344,236.3 	"/>
	<polygon fill="#FFFFFF" stroke="#16B34C" stroke-miterlimit="10" points="411.2,397 351.1,337.2 351.1,545.6 411.2,598.3 	"/>
	<polygon fill="#FFFFFF" stroke="#16B34C" stroke-miterlimit="10" points="425.3,533.2 411.2,519 411.2,907.6 425.3,907.6 	"/>
	<polygon fill="#FFFFFF" stroke="#16B34C" stroke-miterlimit="10" points="410.1,539.2 396,526.2 396,893 410.1,894.1 	"/>
	<polygon fill="#FFFFFF" stroke="#16B34C" stroke-miterlimit="10" points="394.8,545.2 380.7,533.4 380.7,878.3 394.8,880.7 	"/>
	<polygon fill="#FFFFFF" stroke="#16B34C" stroke-miterlimit="10" points="379.6,551.3 365.5,540.6 365.5,863.7 379.6,867.2 	"/>
	<polygon fill="#FFFFFF" stroke="#16B34C" stroke-miterlimit="10" points="364.3,557.3 350.2,547.8 350.2,849.1 364.3,853.8 	"/>
	<polygon fill="#FFFFFF" stroke="#16B34C" stroke-miterlimit="10" points="349.1,563.3 335,555 335,834.5 349.1,840.3 	"/>
	<polygon fill="#FFFFFF" stroke="#16B34C" stroke-miterlimit="10" points="333.8,569.3 319.8,562.2 319.8,819.8 333.8,826.9 	"/>
	<polygon fill="#FFFFFF" stroke="#16B34C" stroke-miterlimit="10" points="318.6,575.4 304.5,569.5 304.5,805.2 318.6,813.5 	"/>
	<polygon fill="#FFFFFF" stroke="#16B34C" stroke-miterlimit="10" points="303.4,581.4 289.3,576.7 289.3,790.6 303.4,800 	"/>
	<polygon fill="#FFFFFF" stroke="#16B34C" stroke-miterlimit="10" points="288.1,587.4 274,583.9 274,776 288.1,786.5 	"/>
	<polygon fill="#FFFFFF" stroke="#16B34C" stroke-miterlimit="10" points="272.9,593.5 258.8,591.1 258.8,761.3 272.9,773.1 	"/>
	<polygon fill="#FFFFFF" stroke="#16B34C" stroke-miterlimit="10" points="257.6,599.5 243.5,598.3 243.5,746.7 257.6,759.7 	"/>
	<polygon fill="#FFFFFF" stroke="#16B34C" stroke-miterlimit="10" points="242.4,746.2 242.4,605.5 228.3,605.5 228.3,732.1 	"/>
	<polygon fill="#FFFFFF" stroke="#16B34C" stroke-miterlimit="10" points="256.5,760.2 235.4,739.2 235.4,605.5 256.5,605.5 	"/>
	<polygon fill="#FFFFFF" stroke="#16B34C" stroke-miterlimit="10" points="270.5,774.3 242.4,746.2 242.4,605.5 270.5,605.5 	"/>
	<polygon fill="#FFFFFF" stroke="#16B34C" stroke-miterlimit="10" points="315.6,742 281.8,708.2 281.8,584.4 315.6,595.7 	"/>
	<polygon fill="#FFFFFF" stroke="#16B34C" stroke-miterlimit="10" points="360.6,709.6 321.2,670.2 321.2,563.3 360.6,585.8 	"/>
	<polygon fill="#FFFFFF" stroke="#16B34C" stroke-miterlimit="10" points="405.7,677.3 360.6,632.3 360.6,542.2 405.7,576 	"/>
	<polygon fill="#FFFFFF" stroke="#16B34C" stroke-miterlimit="10" points="450.7,644.9 400,594.3 400,521.1 450.7,566.1 	"/>
	<polygon fill="#FFFFFF" stroke="#16B34C" stroke-miterlimit="10" points="495.8,556.3 495.8,612.6 439.4,556.3 439.4,500 	"/>
	<polygon fill="#FFFFFF" stroke="#16B34C" stroke-miterlimit="10" points="495.8,584.4 495.8,633.7 439.4,577.4 439.4,528.2 	"/>
	<polygon fill="#FFFFFF" stroke="#16B34C" stroke-miterlimit="10" points="495.8,612.6 495.8,654.8 439.4,598.5 439.4,556.3 	"/>
	<polygon fill="#FFFFFF" stroke="#16B34C" stroke-miterlimit="10" points="460.5,598.5 495.8,633.7 495.8,697 460.5,668.8 	"/>
	<polygon fill="#FFFFFF" stroke="#16B34C" stroke-miterlimit="10" points="481.6,640.7 481.6,739.2 495.8,739.2 495.8,654.8 	"/>
	<polygon fill="#FFFFFF" stroke="#16B34C" stroke-miterlimit="10" points="460.5,619.6 460.5,711.1 488.7,732.2 488.7,647.8 	"/>
	<polygon fill="#FFFFFF" stroke="#16B34C" stroke-miterlimit="10" points="439.4,598.5 439.4,682.9 481.6,725.3 481.6,640.7 	"/>
	<polygon fill="#FFFFFF" stroke="#16B34C" stroke-miterlimit="10" points="416.8,605.5 453.4,639.3 453.4,752 416.8,718.1 	"/>
	<polygon fill="#FFFFFF" stroke="#16B34C" stroke-miterlimit="10" points="394.3,612.5 425.2,637.9 425.2,778.7 394.3,753.2 	"/>
	<polygon fill="#FFFFFF" stroke="#16B34C" stroke-miterlimit="10" points="371.7,619.6 397.1,636.4 397.1,805.3 371.7,788.4 	"/>
	<polygon fill="#FFFFFF" stroke="#16B34C" stroke-miterlimit="10" points="349.2,626.6 368.9,635 368.9,832 349.2,823.5 	"/>
	<rect x="326.6" y="633.6" fill="#FFFFFF" stroke="#16B34C" stroke-miterlimit="10" width="14.1" height="225.1"/>
	<polygon fill="#FFFFFF" stroke="#16B34C" stroke-miterlimit="10" points="279.8,596.1 314,596.1 336.1,596.1 336.1,750.8 
		275,750.8 	"/>
	<polygon fill="#FFFFFF" stroke="#16B34C" stroke-miterlimit="10" points="232.9,558.6 292.2,558.6 331.4,558.6 331.4,642.9 
		223.5,642.9 	"/>
	<polygon fill="#FFFFFF" stroke="#16B34C" stroke-miterlimit="10" points="270.5,521.1 186.1,521.1 171.9,535 326.8,535 
		326.8,521.1 	"/>
	<polygon fill="#FFFFFF" stroke="#16B34C" stroke-miterlimit="10" points="188.9,535.2 264.8,535.2 315.5,535.2 315.5,549.1 
		177.5,549.1 	"/>
	<polygon fill="#FFFFFF" stroke="#16B34C" stroke-miterlimit="10" points="191.7,549.2 259.2,549.2 304.3,549.2 304.3,563.2 
		183.1,563.2 	"/>
	<polygon fill="#FFFFFF" stroke="#16B34C" stroke-miterlimit="10" points="194.4,563.3 253.5,563.3 293,563.3 293,577.3 
		188.8,577.3 	"/>
	<polygon fill="#FFFFFF" stroke="#16B34C" stroke-miterlimit="10" points="197.2,577.3 247.9,577.3 281.8,577.3 281.8,591.4 
		194.4,591.4 	"/>
	<rect x="200" y="591.4" fill="#FFFFFF" stroke="#16B34C" stroke-miterlimit="10" width="70.5" height="14.1"/>
	<rect x="207.1" y="598.5" fill="#FFFFFF" stroke="#16B34C" stroke-miterlimit="10" width="42.3" height="21.1"/>
	<rect x="214.1" y="605.5" fill="#FFFFFF" stroke="#16B34C" stroke-miterlimit="10" width="14.1" height="28.1"/>
	<rect x="193" y="587.9" fill="#FFFFFF" stroke="#16B34C" stroke-miterlimit="10" width="59.8" height="24.6"/>
	<rect x="172" y="570.2" fill="#FFFFFF" stroke="#16B34C" stroke-miterlimit="10" width="105.5" height="21.1"/>
	<rect x="150.9" y="552.6" fill="#FFFFFF" stroke="#16B34C" stroke-miterlimit="10" width="151.3" height="17.6"/>
	<rect x="129.8" y="535" fill="#FFFFFF" stroke="#16B34C" stroke-miterlimit="10" width="197" height="14.1"/>
	<rect x="136.9" y="549" fill="#FFFFFF" stroke="#16B34C" stroke-miterlimit="10" width="161.8" height="14.1"/>
	<rect x="143.9" y="563.1" fill="#FFFFFF" stroke="#16B34C" stroke-miterlimit="10" width="126.6" height="14.1"/>
	<rect x="172" y="570.2" fill="#FFFFFF" stroke="#16B34C" stroke-miterlimit="10" width="98.6" height="14.1"/>
	<rect x="200" y="577.2" fill="#FFFFFF" stroke="#16B34C" stroke-miterlimit="10" width="70.5" height="14.1"/>
	<polygon fill="#FFFFFF" stroke="#16B34C" stroke-miterlimit="10" points="323.3,614.2 323.3,631.8 259.9,631.8 259.9,603.6 	"/>
	<polygon fill="#FFFFFF" stroke="#16B34C" stroke-miterlimit="10" points="376,651.2 376,672.3 319.7,672.3 319.7,630.1 	"/>
	<polygon fill="#FFFFFF" stroke="#16B34C" stroke-miterlimit="10" points="428.8,688.3 428.8,712.9 379.5,712.9 379.5,656.5 	"/>
	<polygon fill="#FFFFFF" stroke="#16B34C" stroke-miterlimit="10" points="481.6,725.3 481.6,753.4 439.4,753.4 439.4,682.9 	"/>
	<polygon fill="#FFFFFF" stroke="#16B34C" stroke-miterlimit="10" points="372.5,705.9 376.1,649.5 432.4,681.3 432.4,705.9 	"/>
	<polygon fill="#FFFFFF" stroke="#16B34C" stroke-miterlimit="10" points="305.6,658.3 312.8,616.1 383.1,637.2 383.1,658.3 	"/>
	<polygon fill="#FFFFFF" stroke="#16B34C" stroke-miterlimit="10" points="238.8,610.8 249.4,582.6 333.9,593.2 333.9,610.8 	"/>
	<polygon fill="#FFFFFF" stroke="#16B34C" stroke-miterlimit="10" points="171.9,563.3 186.1,549.2 284.6,549.2 284.6,563.3 	"/>
	<polygon fill="#FFFFFF" stroke="#16B34C" stroke-miterlimit="10" points="245.9,575.6 323.3,575.6 323.3,617.8 235.2,617.8 	"/>
	<polygon fill="#FFFFFF" stroke="#16B34C" stroke-miterlimit="10" points="305.7,602 362,602 362,672.3 298.6,672.3 	"/>
	<polygon fill="#FFFFFF" stroke="#16B34C" stroke-miterlimit="10" points="365.5,628.4 400.7,628.4 400.7,726.9 361.9,726.9 	"/>
	<rect x="425.3" y="654.8" fill="#FFFFFF" stroke="#16B34C" stroke-miterlimit="10" width="14.1" height="126.6"/>
	<rect x="408.4" y="613.7" fill="#FFFFFF" stroke="#16B34C" stroke-miterlimit="10" width="14.2" height="192.9"/>
	<rect x="391.5" y="572.6" fill="#FFFFFF" stroke="#16B34C" stroke-miterlimit="10" width="14.3" height="259.3"/>
	<rect x="374.5" y="531.5" fill="#FFFFFF" stroke="#16B34C" stroke-miterlimit="10" width="14.5" height="325.6"/>
	<rect x="357.6" y="490.4" fill="#FFFFFF" stroke="#16B34C" stroke-miterlimit="10" width="14.6" height="392"/>
	<rect x="340.7" y="449.3" fill="#FFFFFF" stroke="#16B34C" stroke-miterlimit="10" width="14.7" height="458.3"/>
	<polygon fill="#FFFFFF" stroke="#16B34C" stroke-miterlimit="10" points="348,513.2 383.6,541.4 383.6,869.2 348,841 	"/>
	<polygon fill="#FFFFFF" stroke="#16B34C" stroke-miterlimit="10" points="355.4,577.2 411.7,633.6 411.7,830.8 355.4,774.5 	"/>
	<polygon fill="#FFFFFF" stroke="#16B34C" stroke-miterlimit="10" points="390.7,574.1 442.3,624.2 442.3,827.7 390.7,777.6 	"/>
	<polygon fill="#FFFFFF" stroke="#16B34C" stroke-miterlimit="10" points="426,571 472.9,614.8 472.9,824.5 426,780.7 	"/>
	<polygon fill="#FFFFFF" stroke="#16B34C" stroke-miterlimit="10" points="461.3,567.9 503.6,605.5 503.6,821.4 461.3,783.9 	"/>
	<polygon fill="#FFFFFF" stroke="#16B34C" stroke-miterlimit="10" points="496.6,564.8 534.2,596.1 534.2,818.3 496.6,787 	"/>
	<polygon fill="#FFFFFF" stroke="#16B34C" stroke-miterlimit="10" points="532,561.6 564.8,586.7 564.8,815.1 532,790.1 	"/>
	<polygon fill="#FFFFFF" stroke="#16B34C" stroke-miterlimit="10" points="567.3,558.5 595.4,577.3 595.4,812 567.3,793.2 	"/>
	<polygon fill="#FFFFFF" stroke="#16B34C" stroke-miterlimit="10" points="602.6,555.4 626.1,568 626.1,808.9 602.6,796.4 	"/>
	<polygon fill="#FFFFFF" stroke="#16B34C" stroke-miterlimit="10" points="637.9,552.3 656.7,558.6 656.7,805.7 637.9,799.5 	"/>
	<rect x="673.2" y="549.2" fill="#FFFFFF" stroke="#16B34C" stroke-miterlimit="10" width="14.1" height="253.4"/>
	<polygon fill="#FFFFFF" stroke="#16B34C" stroke-miterlimit="10" points="657.1,516 664.2,516 671.2,516 671.2,646.8 671.2,777.5 
		664.2,777.5 657.1,777.5 657.1,646.8 	"/>
	<polygon fill="#FFFFFF" stroke="#16B34C" stroke-miterlimit="10" points="641,482.9 648.1,482.9 655.1,482.9 655.1,617.6 
		655.1,752.3 648.1,752.3 641,752.3 641,617.6 	"/>
	<polygon fill="#FFFFFF" stroke="#16B34C" stroke-miterlimit="10" points="624.9,449.7 632,449.7 639,449.7 639,588.5 639,727.2 
		632,727.2 624.9,727.2 624.9,588.5 	"/>
	<polygon fill="#FFFFFF" stroke="#16B34C" stroke-miterlimit="10" points="608.9,416.6 615.9,416.6 623,416.6 623,559.3 623,702 
		615.9,702 608.9,702 608.9,559.3 	"/>
	<polygon fill="#FFFFFF" stroke="#16B34C" stroke-miterlimit="10" points="592.8,383.4 599.8,383.4 606.9,383.4 606.9,530.1 
		606.9,676.9 599.8,676.9 592.8,676.9 592.8,530.1 	"/>
	<polygon fill="#FFFFFF" stroke="#16B34C" stroke-miterlimit="10" points="576.7,350.3 583.7,350.3 590.8,350.3 590.8,501 
		590.8,651.7 583.7,651.7 576.7,651.7 576.7,501 	"/>
	<polygon fill="#FFFFFF" stroke="#16B34C" stroke-miterlimit="10" points="560.6,317.1 567.6,317.1 574.7,317.1 574.7,471.8 
		574.7,626.6 567.6,626.6 560.6,626.6 560.6,471.8 	"/>
	<polygon fill="#FFFFFF" stroke="#16B34C" stroke-miterlimit="10" points="627.5,260.8 680.2,255.6 686.8,393.6 693.3,531.7 
		685.2,525.3 676.9,518.9 651.6,465.3 616.9,392.3 574.7,407.7 574.7,387.4 622.1,262.6 	"/>
	<polygon fill="#FFFFFF" stroke="#16B34C" stroke-miterlimit="10" points="812,436.8 742.6,341.7 673.2,246.6 588.8,331.2 
		588.8,303 687.3,204.4 785.8,194 798.9,315.4 	"/>
	<polygon fill="#FFFFFF" stroke="#16B34C" stroke-miterlimit="10" points="650.8,204.5 714.1,185.2 715.8,214 706.9,240.4 
		698.1,267.3 699.6,293.6 701.8,332.7 705.4,398 699.1,405.1 664.4,346.8 629.7,288.1 587.5,319.6 587.5,303 619,236.3 	"/>
	<polygon fill="#FFFFFF" stroke="#16B34C" stroke-miterlimit="10" points="574.7,373.4 574.7,303 574.7,232.7 602.8,204.5 
		631,176.4 631,204.4 609.9,225.5 588.8,246.6 588.8,310 588.8,373.4 	"/>
	<polygon fill="#FFFFFF" stroke="#16B34C" stroke-miterlimit="10" points="616.9,204.5 652.1,169.3 652.1,185.4 649.6,192.9 
		630.6,211.9 615.2,227.3 612.2,230.3 595.8,277 595.8,279 595.8,325.8 593,334 581.8,338.2 581.8,274.8 595.2,226.2 	"/>
	<polygon fill="#FFFFFF" stroke="#16B34C" stroke-miterlimit="10" points="588.8,303 588.8,246.6 631,204.4 673.2,162.2 
		673.2,176.4 638.1,211.5 602.9,246.6 602.9,289 	"/>
	<polygon fill="#FFFFFF" stroke="#16B34C" stroke-miterlimit="10" points="687.3,162.2 687.3,175.9 681.5,189.3 658.3,212.5 
		631.4,239.4 623.9,246.8 609.6,282.3 595.8,296 595.8,266.8 604.7,244.8 636.9,212.6 645.9,203.6 	"/>
	<polygon fill="#FFFFFF" stroke="#16B34C" stroke-miterlimit="10" points="701.5,190.5 701.5,162.2 652.2,211.5 602.9,260.8 
		602.9,289 652.2,239.8 	"/>
	<polygon fill="#FFFFFF" stroke="#16B34C" stroke-miterlimit="10" points="645.2,549 645.2,340.6 588.8,397 588.8,598.3 	"/>
	<polygon fill="#FFFFFF" stroke="#16B34C" stroke-miterlimit="10" points="574.7,907.6 588.8,907.6 588.8,519 574.7,533.2 	"/>
	<polygon fill="#FFFFFF" stroke="#16B34C" stroke-miterlimit="10" points="604,893 604,526.2 589.9,539.2 589.9,894.1 	"/>
	<polygon fill="#FFFFFF" stroke="#16B34C" stroke-miterlimit="10" points="619.3,878.3 619.3,533.4 605.2,545.2 605.2,880.7 	"/>
	<polygon fill="#FFFFFF" stroke="#16B34C" stroke-miterlimit="10" points="634.5,863.7 634.5,540.6 620.4,551.3 620.4,867.2 	"/>
	<polygon fill="#FFFFFF" stroke="#16B34C" stroke-miterlimit="10" points="649.8,849.1 649.8,547.8 635.7,557.3 635.7,853.8 	"/>
	<polygon fill="#FFFFFF" stroke="#16B34C" stroke-miterlimit="10" points="665,834.5 665,555 650.9,563.3 650.9,840.3 	"/>
	<polygon fill="#FFFFFF" stroke="#16B34C" stroke-miterlimit="10" points="680.2,819.8 680.2,562.2 666.2,569.3 666.2,826.9 	"/>
	<polygon fill="#FFFFFF" stroke="#16B34C" stroke-miterlimit="10" points="695.5,805.2 695.5,569.5 681.4,575.4 681.4,813.5 	"/>
	<polygon fill="#FFFFFF" stroke="#16B34C" stroke-miterlimit="10" points="710.7,790.6 710.7,576.7 696.6,581.4 696.6,800 	"/>
	<polygon fill="#FFFFFF" stroke="#16B34C" stroke-miterlimit="10" points="726,776 726,583.9 711.9,587.4 711.9,786.5 	"/>
	<polygon fill="#FFFFFF" stroke="#16B34C" stroke-miterlimit="10" points="741.2,761.3 741.2,591.1 727.1,593.5 727.1,773.1 	"/>
	<polygon fill="#FFFFFF" stroke="#16B34C" stroke-miterlimit="10" points="756.5,746.7 756.5,598.3 742.4,599.5 742.4,759.7 	"/>
	<polygon fill="#FFFFFF" stroke="#16B34C" stroke-miterlimit="10" points="771.7,732.1 771.7,605.5 757.6,605.5 757.6,746.2 	"/>
	<polygon fill="#FFFFFF" stroke="#16B34C" stroke-miterlimit="10" points="743.5,605.5 764.7,605.5 764.7,739.2 743.5,760.2 	"/>
	<polygon fill="#FFFFFF" stroke="#16B34C" stroke-miterlimit="10" points="729.5,605.5 757.6,605.5 757.6,746.2 729.5,774.3 	"/>
	<polygon fill="#FFFFFF" stroke="#16B34C" stroke-miterlimit="10" points="718.2,584.4 718.2,708.2 684.4,742 684.4,595.7 	"/>
	<polygon fill="#FFFFFF" stroke="#16B34C" stroke-miterlimit="10" points="678.8,563.3 678.8,670.2 639.4,709.6 639.4,585.8 	"/>
	<polygon fill="#FFFFFF" stroke="#16B34C" stroke-miterlimit="10" points="639.4,542.2 639.4,632.3 594.3,677.3 594.3,576 	"/>
	<polygon fill="#FFFFFF" stroke="#16B34C" stroke-miterlimit="10" points="600,521.1 600,594.3 549.3,644.9 549.3,566.1 	"/>
	<polygon fill="#FFFFFF" stroke="#16B34C" stroke-miterlimit="10" points="560.6,500 560.6,556.3 504.2,612.6 504.2,556.3 	"/>
	<polygon fill="#FFFFFF" stroke="#16B34C" stroke-miterlimit="10" points="560.6,528.2 560.6,577.4 504.2,633.7 504.2,584.4 	"/>
	<polygon fill="#FFFFFF" stroke="#16B34C" stroke-miterlimit="10" points="560.6,556.3 560.6,598.5 504.2,654.8 504.2,612.6 	"/>
	<polygon fill="#FFFFFF" stroke="#16B34C" stroke-miterlimit="10" points="504.2,633.7 539.5,598.5 539.5,668.8 504.2,697 	"/>
	<polygon fill="#FFFFFF" stroke="#16B34C" stroke-miterlimit="10" points="504.2,654.8 504.2,739.2 518.4,739.2 518.4,640.7 	"/>
	<polygon fill="#FFFFFF" stroke="#16B34C" stroke-miterlimit="10" points="511.3,647.8 511.3,732.2 539.5,711.1 539.5,619.6 	"/>
	<polygon fill="#FFFFFF" stroke="#16B34C" stroke-miterlimit="10" points="518.4,640.7 518.4,725.3 560.6,682.9 560.6,598.5 	"/>
	<polygon fill="#FFFFFF" stroke="#16B34C" stroke-miterlimit="10" points="546.5,639.3 583.1,605.5 583.1,718.1 546.5,752 	"/>
	<polygon fill="#FFFFFF" stroke="#16B34C" stroke-miterlimit="10" points="574.7,637.9 605.6,612.5 605.6,753.2 574.7,778.7 	"/>
	<polygon fill="#FFFFFF" stroke="#16B34C" stroke-miterlimit="10" points="602.8,636.4 628.2,619.6 628.2,788.4 602.8,805.3 	"/>
	<polygon fill="#FFFFFF" stroke="#16B34C" stroke-miterlimit="10" points="631,635 650.7,626.6 650.7,823.5 631,832 	"/>
	<rect x="659.1" y="633.6" fill="#FFFFFF" stroke="#16B34C" stroke-miterlimit="10" width="14.1" height="225.1"/>
	<polygon fill="#FFFFFF" stroke="#16B34C" stroke-miterlimit="10" points="663.8,596.1 685.9,596.1 720.1,596.1 724.8,750.8 
		663.8,750.8 	"/>
	<polygon fill="#FFFFFF" stroke="#16B34C" stroke-miterlimit="10" points="668.5,558.6 707.7,558.6 767,558.6 776.5,642.9 
		668.5,642.9 	"/>
	<polygon fill="#FFFFFF" stroke="#16B34C" stroke-miterlimit="10" points="673.2,521.1 673.2,535 828.1,535 813.9,521.1 
		729.5,521.1 	"/>
	<polygon fill="#FFFFFF" stroke="#16B34C" stroke-miterlimit="10" points="684.5,535.2 735.2,535.2 811.1,535.2 822.5,549.1 
		684.5,549.1 	"/>
	<polygon fill="#FFFFFF" stroke="#16B34C" stroke-miterlimit="10" points="695.7,549.2 740.8,549.2 808.3,549.2 816.9,563.2 
		695.7,563.2 	"/>
	<polygon fill="#FFFFFF" stroke="#16B34C" stroke-miterlimit="10" points="707,563.3 746.5,563.3 805.6,563.3 811.2,577.3 
		707,577.3 	"/>
	<polygon fill="#FFFFFF" stroke="#16B34C" stroke-miterlimit="10" points="718.2,577.3 752.1,577.3 802.8,577.3 805.6,591.4 
		718.2,591.4 	"/>
	<rect x="729.5" y="591.4" fill="#FFFFFF" stroke="#16B34C" stroke-miterlimit="10" width="70.5" height="14.1"/>
	<rect x="750.6" y="598.5" fill="#FFFFFF" stroke="#16B34C" stroke-miterlimit="10" width="42.3" height="21.1"/>
	<rect x="771.7" y="605.5" fill="#FFFFFF" stroke="#16B34C" stroke-miterlimit="10" width="14.1" height="28.1"/>
	<rect x="747.1" y="587.9" fill="#FFFFFF" stroke="#16B34C" stroke-miterlimit="10" width="59.8" height="24.6"/>
	<rect x="722.4" y="570.2" fill="#FFFFFF" stroke="#16B34C" stroke-miterlimit="10" width="105.5" height="21.1"/>
	<rect x="697.8" y="552.6" fill="#FFFFFF" stroke="#16B34C" stroke-miterlimit="10" width="151.3" height="17.6"/>
	<rect x="673.2" y="535" fill="#FFFFFF" stroke="#16B34C" stroke-miterlimit="10" width="197" height="14.1"/>
	<rect x="701.3" y="549" fill="#FFFFFF" stroke="#16B34C" stroke-miterlimit="10" width="161.8" height="14.1"/>
	<rect x="729.5" y="563.1" fill="#FFFFFF" stroke="#16B34C" stroke-miterlimit="10" width="126.6" height="14.1"/>
	<rect x="729.5" y="570.2" fill="#FFFFFF" stroke="#16B34C" stroke-miterlimit="10" width="98.5" height="14.1"/>
	<rect x="729.5" y="577.2" fill="#FFFFFF" stroke="#16B34C" stroke-miterlimit="10" width="70.5" height="14.1"/>
	<polygon fill="#FFFFFF" stroke="#16B34C" stroke-miterlimit="10" points="740.2,603.6 740.2,631.8 676.7,631.8 676.7,614.2 	"/>
	<polygon fill="#FFFFFF" stroke="#16B34C" stroke-miterlimit="10" points="680.3,630.1 680.3,672.3 624,672.3 624,651.2 	"/>
	<polygon fill="#FFFFFF" stroke="#16B34C" stroke-miterlimit="10" points="620.4,656.5 620.4,712.9 571.2,712.9 571.2,688.3 	"/>
	<polygon fill="#FFFFFF" stroke="#16B34C" stroke-miterlimit="10" points="560.6,682.9 560.6,753.4 518.4,753.4 518.4,725.3 	"/>
	<polygon fill="#FFFFFF" stroke="#16B34C" stroke-miterlimit="10" points="567.7,705.9 567.7,681.3 623.9,649.5 627.5,705.9 	"/>
	<polygon fill="#FFFFFF" stroke="#16B34C" stroke-miterlimit="10" points="616.9,658.3 616.9,637.2 687.2,616.1 694.3,658.3 	"/>
	<polygon fill="#FFFFFF" stroke="#16B34C" stroke-miterlimit="10" points="666.2,610.8 666.2,593.2 750.6,582.6 761.2,610.8 	"/>
	<polygon fill="#FFFFFF" stroke="#16B34C" stroke-miterlimit="10" points="715.4,563.3 715.4,549.2 813.9,549.2 828.1,563.3 	"/>
	<polygon fill="#FFFFFF" stroke="#16B34C" stroke-miterlimit="10" points="676.7,575.6 754.1,575.6 764.8,617.8 676.7,617.8 	"/>
	<polygon fill="#FFFFFF" stroke="#16B34C" stroke-miterlimit="10" points="638,602 694.3,602 701.4,672.3 638,672.3 	"/>
	<polygon fill="#FFFFFF" stroke="#16B34C" stroke-miterlimit="10" points="599.3,628.4 634.5,628.4 638,726.9 599.3,726.9 	"/>
	<rect x="560.6" y="654.8" fill="#FFFFFF" stroke="#16B34C" stroke-miterlimit="10" width="14.1" height="126.6"/>
	<rect x="577.4" y="613.7" fill="#FFFFFF" stroke="#16B34C" stroke-miterlimit="10" width="14.2" height="192.9"/>
	<rect x="594.2" y="572.6" fill="#FFFFFF" stroke="#16B34C" stroke-miterlimit="10" width="14.3" height="259.3"/>
	<rect x="611" y="531.5" fill="#FFFFFF" stroke="#16B34C" stroke-miterlimit="10" width="14.5" height="325.6"/>
	<rect x="627.8" y="490.4" fill="#FFFFFF" stroke="#16B34C" stroke-miterlimit="10" width="14.6" height="392"/>
	<rect x="644.6" y="449.3" fill="#FFFFFF" stroke="#16B34C" stroke-miterlimit="10" width="14.7" height="458.3"/>
	<polygon fill="#FFFFFF" stroke="#16B34C" stroke-miterlimit="10" points="651.9,513.2 651.9,841 616.4,869.2 616.4,541.4 	"/>
	<polygon fill="#FFFFFF" stroke="#16B34C" stroke-miterlimit="10" points="644.6,577.2 588.3,633.6 588.3,830.8 644.6,774.5 	"/>
	<polygon fill="#FFFFFF" stroke="#16B34C" stroke-miterlimit="10" points="557.7,620.3 609.3,570.2 609.3,773.7 557.7,823.8 	"/>
	<polygon fill="#FFFFFF" stroke="#16B34C" stroke-miterlimit="10" points="527,607.1 573.9,563.2 573.9,773 527,816.8 	"/>
	<polygon fill="#FFFFFF" stroke="#16B34C" stroke-miterlimit="10" points="496.4,593.8 538.6,556.2 538.6,772.2 496.4,809.7 	"/>
	<polygon fill="#FFFFFF" stroke="#16B34C" stroke-miterlimit="10" points="465.7,580.5 503.3,549.2 503.3,771.4 465.7,802.7 	"/>
	<polygon fill="#FFFFFF" stroke="#16B34C" stroke-miterlimit="10" points="435.1,567.3 467.9,542.2 467.9,770.7 435.1,795.7 	"/>
	<polygon fill="#FFFFFF" stroke="#16B34C" stroke-miterlimit="10" points="404.4,554 432.6,535.2 432.6,769.9 404.4,788.7 	"/>
	<polygon fill="#FFFFFF" stroke="#16B34C" stroke-miterlimit="10" points="373.8,540.7 397.3,528.2 397.3,769.1 373.8,781.6 	"/>
	<polygon fill="#FFFFFF" stroke="#16B34C" stroke-miterlimit="10" points="343.1,527.5 361.9,521.2 361.9,768.4 343.1,774.6 	"/>
	<rect x="312.5" y="514.2" fill="#FFFFFF" stroke="#16B34C" stroke-miterlimit="10" width="14.1" height="253.4"/>
	<polygon fill="#FFFFFF" stroke="#16B34C" stroke-miterlimit="10" points="328.6,481 335.7,481 342.7,481 342.7,611.8 342.7,742.5 
		335.7,742.5 328.6,742.5 328.6,611.8 	"/>
	<polygon fill="#FFFFFF" stroke="#16B34C" stroke-miterlimit="10" points="344.7,447.9 351.8,447.9 358.8,447.9 358.8,582.6 
		358.8,717.3 351.8,717.3 344.7,717.3 344.7,582.6 	"/>
	<polygon fill="#FFFFFF" stroke="#16B34C" stroke-miterlimit="10" points="360.8,414.7 367.9,414.7 374.9,414.7 374.9,553.5 
		374.9,692.2 367.9,692.2 360.8,692.2 360.8,553.5 	"/>
	<polygon fill="#FFFFFF" stroke="#16B34C" stroke-miterlimit="10" points="377,381.6 384,381.6 391.1,381.6 391.1,524.3 391.1,667 
		384,667 377,667 377,524.3 	"/>
	<polygon fill="#FFFFFF" stroke="#16B34C" stroke-miterlimit="10" points="393.1,348.4 400.1,348.4 407.2,348.4 407.2,495.1 
		407.2,641.9 400.1,641.9 393.1,641.9 393.1,495.1 	"/>
	<polygon fill="#FFFFFF" stroke="#16B34C" stroke-miterlimit="10" points="409.2,315.3 416.2,315.3 423.3,315.3 423.3,466 
		423.3,616.7 416.2,616.7 409.2,616.7 409.2,466 	"/>
	<polygon fill="#FFFFFF" stroke="#16B34C" stroke-miterlimit="10" points="425.3,282.1 432.3,282.1 439.4,282.1 439.4,436.8 
		439.4,591.6 432.3,591.6 425.3,591.6 425.3,436.8 	"/>
	<polygon fill="#FFFFFF" stroke="#16B34C" stroke-miterlimit="10" points="369,225.8 373.5,226.8 378,227.8 400.7,311.6 406.9,334 
		425.3,402.6 425.3,443.9 419.4,441.5 413.4,439.1 397.1,399.7 376,348.1 376,348.6 369,331.3 	"/>
	<polygon fill="#FFFFFF" stroke="#16B34C" stroke-miterlimit="10" points="312.7,225.8 312.7,169.5 362,218.8 411.2,268 
		411.2,296.3 369,254 326.8,211.7 326.8,239.9 	"/>
	<polygon fill="#FFFFFF" stroke="#16B34C" stroke-miterlimit="10" points="340.9,155.4 366,180.6 390.6,205.3 393.6,213.4 
		409.6,259.4 418.2,284.7 418.2,317.4 406.2,312.4 390.1,273.3 383.8,258.2 369,221.8 369,221.2 365.5,222.3 351.4,208.2 
		340.9,182.9 	"/>
	<polygon fill="#FFFFFF" stroke="#16B34C" stroke-miterlimit="10" points="411.2,338.5 411.2,275.1 411.2,211.7 390.1,190.6 
		369,169.5 369,141.4 397.1,169.6 425.3,197.8 425.3,268.1 425.3,338.5 	"/>
	<polygon fill="#FFFFFF" stroke="#16B34C" stroke-miterlimit="10" points="347.9,134.4 383.1,169.6 404.8,191.3 418.2,239.9 
		418.2,303.2 407.2,299.3 404.2,291 404.2,244.1 404.2,242.9 387.3,194.8 385.9,193.5 368.4,175.9 350.2,157.8 347.9,150.8 	"/>
	<polygon fill="#FFFFFF" stroke="#16B34C" stroke-miterlimit="10" points="397.1,254.1 397.1,211.7 362,176.5 326.8,141.4 
		326.8,127.3 369,169.5 411.2,211.7 411.2,268 	"/>
	<polygon fill="#FFFFFF" stroke="#16B34C" stroke-miterlimit="10" points="308.9,123.9 351.5,166.4 361.6,176.4 394,208.6 
		404.2,233 404.2,261 389.7,246.7 374.5,210.5 366.6,202.6 339,175.1 314.2,150.4 308.9,137.7 	"/>
	<polygon fill="#FFFFFF" stroke="#16B34C" stroke-miterlimit="10" points="397.1,254.1 397.1,225.8 344,173.1 291,120.5 291,148.8 
		344,201.4 	"/>
	<polygon fill="#FFFFFF" stroke="#16B34C" stroke-miterlimit="10" points="411.2,362 351.1,302.3 351.1,510.7 411.2,563.4 	"/>
	<polygon fill="#FFFFFF" stroke="#16B34C" stroke-miterlimit="10" points="425.3,498.2 411.2,484.1 411.2,872.7 425.3,872.7 	"/>
	<polygon fill="#FFFFFF" stroke="#16B34C" stroke-miterlimit="10" points="410.1,504.2 396,491.3 396,858.1 410.1,859.2 	"/>
	<polygon fill="#FFFFFF" stroke="#16B34C" stroke-miterlimit="10" points="394.8,510.2 380.7,498.5 380.7,843.4 394.8,845.8 	"/>
	<polygon fill="#FFFFFF" stroke="#16B34C" stroke-miterlimit="10" points="379.6,516.3 365.5,505.7 365.5,828.8 379.6,832.3 	"/>
	<polygon fill="#FFFFFF" stroke="#16B34C" stroke-miterlimit="10" points="364.3,522.3 350.2,512.9 350.2,814.2 364.3,818.9 	"/>
	<polygon fill="#FFFFFF" stroke="#16B34C" stroke-miterlimit="10" points="349.1,528.3 335,520.1 335,799.5 349.1,805.5 	"/>
	<polygon fill="#FFFFFF" stroke="#16B34C" stroke-miterlimit="10" points="333.8,534.3 319.8,527.3 319.8,784.9 333.8,792 	"/>
	<polygon fill="#FFFFFF" stroke="#16B34C" stroke-miterlimit="10" points="318.6,540.4 304.5,534.5 304.5,770.3 318.6,778.5 	"/>
	<polygon fill="#FFFFFF" stroke="#16B34C" stroke-miterlimit="10" points="303.4,546.4 289.3,541.7 289.3,755.6 303.4,765.1 	"/>
	<polygon fill="#FFFFFF" stroke="#16B34C" stroke-miterlimit="10" points="288.1,552.4 274,548.9 274,741 288.1,751.7 	"/>
	<polygon fill="#FFFFFF" stroke="#16B34C" stroke-miterlimit="10" points="272.9,558.5 258.8,556.1 258.8,726.4 272.9,738.2 	"/>
	<polygon fill="#FFFFFF" stroke="#16B34C" stroke-miterlimit="10" points="257.6,564.5 243.5,563.3 243.5,711.7 257.6,724.8 	"/>
	<polygon fill="#FFFFFF" stroke="#16B34C" stroke-miterlimit="10" points="242.4,711.3 242.4,570.5 228.3,570.5 228.3,697.1 	"/>
	<polygon fill="#FFFFFF" stroke="#16B34C" stroke-miterlimit="10" points="256.5,725.3 235.4,704.2 235.4,570.5 256.5,570.5 	"/>
	<polygon fill="#FFFFFF" stroke="#16B34C" stroke-miterlimit="10" points="270.5,739.3 242.4,711.3 242.4,570.5 270.5,570.5 	"/>
	<polygon fill="#FFFFFF" stroke="#16B34C" stroke-miterlimit="10" points="315.6,707 281.8,673.3 281.8,549.4 315.6,560.7 	"/>
	<polygon fill="#FFFFFF" stroke="#16B34C" stroke-miterlimit="10" points="360.6,674.7 321.2,635.3 321.2,528.3 360.6,550.9 	"/>
	<polygon fill="#FFFFFF" stroke="#16B34C" stroke-miterlimit="10" points="405.7,642.3 360.6,597.4 360.6,507.3 405.7,541 	"/>
	<polygon fill="#FFFFFF" stroke="#16B34C" stroke-miterlimit="10" points="450.7,610 400,559.4 400,486.2 450.7,531.2 	"/>
	<polygon fill="#FFFFFF" stroke="#16B34C" stroke-miterlimit="10" points="495.8,521.4 495.8,577.7 439.4,521.4 439.4,465.1 	"/>
	<polygon fill="#FFFFFF" stroke="#16B34C" stroke-miterlimit="10" points="495.8,549.6 495.8,598.8 439.4,542.5 439.4,493.2 	"/>
	<polygon fill="#FFFFFF" stroke="#16B34C" stroke-miterlimit="10" points="495.8,577.7 495.8,619.9 439.4,563.6 439.4,521.4 	"/>
	<polygon fill="#FFFFFF" stroke="#16B34C" stroke-miterlimit="10" points="460.5,563.6 495.8,598.8 495.8,662.1 460.5,633.9 	"/>
	<polygon fill="#FFFFFF" stroke="#16B34C" stroke-miterlimit="10" points="481.6,605.8 481.6,704.3 495.8,704.3 495.8,619.9 	"/>
	<polygon fill="#FFFFFF" stroke="#16B34C" stroke-miterlimit="10" points="460.5,584.7 460.5,676.2 488.7,697.3 488.7,612.8 	"/>
	<polygon fill="#FFFFFF" stroke="#16B34C" stroke-miterlimit="10" points="439.4,563.6 439.4,648 481.6,690.4 481.6,605.8 	"/>
	<polygon fill="#FFFFFF" stroke="#16B34C" stroke-miterlimit="10" points="416.8,570.6 453.4,604.4 453.4,717.1 416.8,683.1 	"/>
	<polygon fill="#FFFFFF" stroke="#16B34C" stroke-miterlimit="10" points="394.3,577.6 425.2,602.9 425.2,743.7 394.3,718.3 	"/>
	<polygon fill="#FFFFFF" stroke="#16B34C" stroke-miterlimit="10" points="371.7,584.6 397.1,601.5 397.1,770.4 371.7,753.4 	"/>
	<polygon fill="#FFFFFF" stroke="#16B34C" stroke-miterlimit="10" points="349.2,591.6 368.9,600 368.9,797 349.2,788.6 	"/>
	<rect x="326.6" y="598.6" fill="#FFFFFF" stroke="#16B34C" stroke-miterlimit="10" width="14.1" height="225.1"/>
	<polygon fill="#FFFFFF" stroke="#16B34C" stroke-miterlimit="10" points="279.8,561.1 314,561.1 336.1,561.1 336.1,715.8 
		275,715.8 	"/>
	<polygon fill="#FFFFFF" stroke="#16B34C" stroke-miterlimit="10" points="232.9,523.7 292.2,523.7 331.4,523.7 331.4,608 
		223.5,608 	"/>
	<polygon fill="#FFFFFF" stroke="#16B34C" stroke-miterlimit="10" points="270.5,486.2 186.1,486.2 171.9,500.1 326.8,500.1 
		326.8,486.2 	"/>
	<polygon fill="#FFFFFF" stroke="#16B34C" stroke-miterlimit="10" points="188.9,500.2 264.8,500.2 315.5,500.2 315.5,514.2 
		177.5,514.2 	"/>
	<polygon fill="#FFFFFF" stroke="#16B34C" stroke-miterlimit="10" points="191.7,514.3 259.2,514.3 304.3,514.3 304.3,528.3 
		183.1,528.3 	"/>
	<polygon fill="#FFFFFF" stroke="#16B34C" stroke-miterlimit="10" points="194.4,528.3 253.5,528.3 293,528.3 293,542.3 
		188.8,542.3 	"/>
	<polygon fill="#FFFFFF" stroke="#16B34C" stroke-miterlimit="10" points="197.2,542.4 247.9,542.4 281.8,542.4 281.8,556.4 
		194.4,556.4 	"/>
	<rect x="200" y="556.4" fill="#FFFFFF" stroke="#16B34C" stroke-miterlimit="10" width="70.5" height="14.1"/>
	<rect x="207.1" y="563.5" fill="#FFFFFF" stroke="#16B34C" stroke-miterlimit="10" width="42.3" height="21.1"/>
	<rect x="214.1" y="570.5" fill="#FFFFFF" stroke="#16B34C" stroke-miterlimit="10" width="14.1" height="28.1"/>
	<rect x="193" y="552.9" fill="#FFFFFF" stroke="#16B34C" stroke-miterlimit="10" width="59.8" height="24.6"/>
	<rect x="172" y="535.3" fill="#FFFFFF" stroke="#16B34C" stroke-miterlimit="10" width="105.5" height="21.1"/>
	<rect x="150.9" y="517.7" fill="#FFFFFF" stroke="#16B34C" stroke-miterlimit="10" width="151.3" height="17.6"/>
	<rect x="129.8" y="500.1" fill="#FFFFFF" stroke="#16B34C" stroke-miterlimit="10" width="197" height="14.1"/>
	<rect x="136.9" y="514.2" fill="#FFFFFF" stroke="#16B34C" stroke-miterlimit="10" width="161.8" height="14.1"/>
	<rect x="143.9" y="528.2" fill="#FFFFFF" stroke="#16B34C" stroke-miterlimit="10" width="126.6" height="14.1"/>
	<rect x="172" y="535.2" fill="#FFFFFF" stroke="#16B34C" stroke-miterlimit="10" width="98.6" height="14.1"/>
	<rect x="200" y="542.3" fill="#FFFFFF" stroke="#16B34C" stroke-miterlimit="10" width="70.5" height="14.1"/>
	<polygon fill="#FFFFFF" stroke="#16B34C" stroke-miterlimit="10" points="323.3,579.3 323.3,596.9 259.9,596.9 259.9,568.7 	"/>
	<polygon fill="#FFFFFF" stroke="#16B34C" stroke-miterlimit="10" points="376,616.3 376,637.4 319.7,637.4 319.7,595.2 	"/>
	<polygon fill="#FFFFFF" stroke="#16B34C" stroke-miterlimit="10" points="428.8,653.4 428.8,677.9 379.5,677.9 379.5,621.6 	"/>
	<polygon fill="#FFFFFF" stroke="#16B34C" stroke-miterlimit="10" points="481.6,690.4 481.6,718.4 439.4,718.4 439.4,648 	"/>
	<polygon fill="#FFFFFF" stroke="#16B34C" stroke-miterlimit="10" points="372.5,670.9 376.1,614.5 432.4,646.4 432.4,670.9 	"/>
	<polygon fill="#FFFFFF" stroke="#16B34C" stroke-miterlimit="10" points="305.6,623.4 312.8,581.1 383.1,602.3 383.1,623.4 	"/>
	<polygon fill="#FFFFFF" stroke="#16B34C" stroke-miterlimit="10" points="238.8,575.9 249.4,547.7 333.9,558.2 333.9,575.9 	"/>
	<polygon fill="#FFFFFF" stroke="#16B34C" stroke-miterlimit="10" points="171.9,528.4 186.1,514.2 284.6,514.2 284.6,528.4 	"/>
	<polygon fill="#FFFFFF" stroke="#16B34C" stroke-miterlimit="10" points="245.9,540.6 323.3,540.6 323.3,582.9 235.2,582.9 	"/>
	<polygon fill="#FFFFFF" stroke="#16B34C" stroke-miterlimit="10" points="305.7,567.1 362,567.1 362,637.5 298.6,637.5 	"/>
	<polygon fill="#FFFFFF" stroke="#16B34C" stroke-miterlimit="10" points="365.5,593.5 400.7,593.5 400.7,692 361.9,692 	"/>
	<rect x="425.3" y="619.9" fill="#FFFFFF" stroke="#16B34C" stroke-miterlimit="10" width="14.1" height="126.6"/>
	<rect x="408.4" y="578.8" fill="#FFFFFF" stroke="#16B34C" stroke-miterlimit="10" width="14.2" height="192.9"/>
	<rect x="391.5" y="537.7" fill="#FFFFFF" stroke="#16B34C" stroke-miterlimit="10" width="14.3" height="259.3"/>
	<rect x="374.5" y="496.6" fill="#FFFFFF" stroke="#16B34C" stroke-miterlimit="10" width="14.5" height="325.6"/>
	<rect x="357.6" y="455.5" fill="#FFFFFF" stroke="#16B34C" stroke-miterlimit="10" width="14.6" height="392"/>
	<rect x="340.7" y="414.4" fill="#FFFFFF" stroke="#16B34C" stroke-miterlimit="10" width="14.7" height="458.3"/>
	<polygon fill="#FFFFFF" stroke="#16B34C" stroke-miterlimit="10" points="348,478.3 383.6,506.5 383.6,834.2 348,806.1 	"/>
	<polygon fill="#FFFFFF" stroke="#16B34C" stroke-miterlimit="10" points="355.4,542.3 411.7,598.6 411.7,795.8 355.4,739.5 	"/>
	<polygon fill="#FFFFFF" stroke="#16B34C" stroke-miterlimit="10" points="390.7,539.2 442.3,589.2 442.3,792.7 390.7,742.6 	"/>
	<polygon fill="#FFFFFF" stroke="#16B34C" stroke-miterlimit="10" points="426,536.1 472.9,579.8 472.9,789.5 426,745.7 	"/>
	<polygon fill="#FFFFFF" stroke="#16B34C" stroke-miterlimit="10" points="461.3,532.9 503.6,570.5 503.6,786.4 461.3,748.9 	"/>
	<polygon fill="#FFFFFF" stroke="#16B34C" stroke-miterlimit="10" points="496.6,529.8 534.2,561.1 534.2,783.3 496.6,752 	"/>
	<polygon fill="#FFFFFF" stroke="#16B34C" stroke-miterlimit="10" points="532,526.7 564.8,551.7 564.8,780.1 532,755.1 	"/>
	<polygon fill="#FFFFFF" stroke="#16B34C" stroke-miterlimit="10" points="567.3,523.6 595.4,542.3 595.4,777 567.3,758.2 	"/>
	<polygon fill="#FFFFFF" stroke="#16B34C" stroke-miterlimit="10" points="602.6,520.4 626.1,533 626.1,773.9 602.6,761.4 	"/>
	<polygon fill="#FFFFFF" stroke="#16B34C" stroke-miterlimit="10" points="637.9,517.3 656.7,523.6 656.7,770.7 637.9,764.5 	"/>
	<rect x="673.2" y="514.2" fill="#FFFFFF" stroke="#16B34C" stroke-miterlimit="10" width="14.1" height="253.4"/>
	<polygon fill="#FFFFFF" stroke="#16B34C" stroke-miterlimit="10" points="657.1,481 664.2,481 671.2,481 671.2,611.8 671.2,742.5 
		664.2,742.5 657.1,742.5 657.1,611.8 	"/>
	<polygon fill="#FFFFFF" stroke="#16B34C" stroke-miterlimit="10" points="641,447.9 648.1,447.9 655.1,447.9 655.1,582.6 
		655.1,717.3 648.1,717.3 641,717.3 641,582.6 	"/>
	<polygon fill="#FFFFFF" stroke="#16B34C" stroke-miterlimit="10" points="624.9,414.7 632,414.7 639,414.7 639,553.5 639,692.2 
		632,692.2 624.9,692.2 624.9,553.5 	"/>
	<polygon fill="#FFFFFF" stroke="#16B34C" stroke-miterlimit="10" points="608.9,381.6 615.9,381.6 623,381.6 623,524.3 623,667 
		615.9,667 608.9,667 608.9,524.3 	"/>
	<polygon fill="#FFFFFF" stroke="#16B34C" stroke-miterlimit="10" points="592.8,348.4 599.8,348.4 606.9,348.4 606.9,495.1 
		606.9,641.9 599.8,641.9 592.8,641.9 592.8,495.1 	"/>
	<polygon fill="#FFFFFF" stroke="#16B34C" stroke-miterlimit="10" points="576.7,315.3 583.7,315.3 590.8,315.3 590.8,466 
		590.8,616.7 583.7,616.7 576.7,616.7 576.7,466 	"/>
	<polygon fill="#FFFFFF" stroke="#16B34C" stroke-miterlimit="10" points="560.6,282.1 567.6,282.1 574.7,282.1 574.7,436.8 
		574.7,591.6 567.6,591.6 560.6,591.6 560.6,436.8 	"/>
	<polygon fill="#FFFFFF" stroke="#16B34C" stroke-miterlimit="10" points="631,225.8 631,331.3 623.9,348.3 623.9,348.5 
		602.8,399.6 586.8,438.9 580.8,441.4 574.7,443.9 574.7,402.5 592.8,334.3 599.3,309.7 621.4,228.3 626.2,227.1 	"/>
	<polygon fill="#FFFFFF" stroke="#16B34C" stroke-miterlimit="10" points="673.2,239.9 673.2,211.7 631,254 588.8,296.3 588.8,268 
		638,218.8 687.3,169.5 687.3,225.8 	"/>
	<polygon fill="#FFFFFF" stroke="#16B34C" stroke-miterlimit="10" points="659.2,155.4 659.2,183.1 648.6,208.2 634.6,222.2 
		631,220.6 631,221.3 616,258.5 609.9,273.6 594,312.2 581.8,317.4 581.8,284.9 590.8,259.1 606.4,214 609.4,205.2 634.3,180.3 	"/>
	<polygon fill="#FFFFFF" stroke="#16B34C" stroke-miterlimit="10" points="574.7,338.5 574.7,268.1 574.7,197.8 602.8,169.6 
		631,141.4 631,169.5 609.9,190.6 588.8,211.7 588.8,275.1 588.8,338.5 	"/>
	<polygon fill="#FFFFFF" stroke="#16B34C" stroke-miterlimit="10" points="616.9,169.6 652.1,134.4 652.1,150.3 649.5,158 
		630.6,177 615.3,192.3 612.1,195.4 595.8,242.1 595.8,244.2 595.8,291 593,299.1 581.8,303.2 581.8,239.9 595.2,191.3 	"/>
	<polygon fill="#FFFFFF" stroke="#16B34C" stroke-miterlimit="10" points="588.8,268 588.8,211.7 631,169.5 673.2,127.3 
		673.2,141.4 638.1,176.5 602.9,211.7 602.9,254.1 	"/>
	<polygon fill="#FFFFFF" stroke="#16B34C" stroke-miterlimit="10" points="687.3,127.3 687.3,140.9 681.4,154.4 658.3,177.5 
		631.4,204.5 623.9,211.9 609.6,247.4 595.8,261 595.8,231.7 604.6,210 637,177.6 645.9,168.8 	"/>
	<polygon fill="#FFFFFF" stroke="#16B34C" stroke-miterlimit="10" points="701.5,155.6 701.5,127.3 652.2,176.6 602.9,225.8 
		602.9,254.1 652.2,204.9 	"/>
	<polygon fill="#FFFFFF" stroke="#16B34C" stroke-miterlimit="10" points="645.2,514.2 645.2,305.7 588.8,362 588.8,563.4 	"/>
	<polygon fill="#FFFFFF" stroke="#16B34C" stroke-miterlimit="10" points="574.7,872.7 588.8,872.7 588.8,484.1 574.7,498.2 	"/>
	<polygon fill="#FFFFFF" stroke="#16B34C" stroke-miterlimit="10" points="604,858.1 604,491.3 589.9,504.2 589.9,859.2 	"/>
	<polygon fill="#FFFFFF" stroke="#16B34C" stroke-miterlimit="10" points="619.3,843.4 619.3,498.5 605.2,510.2 605.2,845.8 	"/>
	<polygon fill="#FFFFFF" stroke="#16B34C" stroke-miterlimit="10" points="634.5,828.8 634.5,505.7 620.4,516.3 620.4,832.3 	"/>
	<polygon fill="#FFFFFF" stroke="#16B34C" stroke-miterlimit="10" points="649.8,814.2 649.8,512.9 635.7,522.3 635.7,818.9 	"/>
	<polygon fill="#FFFFFF" stroke="#16B34C" stroke-miterlimit="10" points="665,799.5 665,520.1 650.9,528.3 650.9,805.5 	"/>
	<polygon fill="#FFFFFF" stroke="#16B34C" stroke-miterlimit="10" points="680.2,784.9 680.2,527.3 666.2,534.3 666.2,792 	"/>
	<polygon fill="#FFFFFF" stroke="#16B34C" stroke-miterlimit="10" points="695.5,770.3 695.5,534.5 681.4,540.4 681.4,778.5 	"/>
	<polygon fill="#FFFFFF" stroke="#16B34C" stroke-miterlimit="10" points="710.7,755.6 710.7,541.7 696.6,546.4 696.6,765.1 	"/>
	<polygon fill="#FFFFFF" stroke="#16B34C" stroke-miterlimit="10" points="726,741 726,548.9 711.9,552.4 711.9,751.7 	"/>
	<polygon fill="#FFFFFF" stroke="#16B34C" stroke-miterlimit="10" points="741.2,726.4 741.2,556.1 727.1,558.5 727.1,738.2 	"/>
	<polygon fill="#FFFFFF" stroke="#16B34C" stroke-miterlimit="10" points="756.5,711.7 756.5,563.3 742.4,564.5 742.4,724.8 	"/>
	<polygon fill="#FFFFFF" stroke="#16B34C" stroke-miterlimit="10" points="771.7,697.1 771.7,570.5 757.6,570.5 757.6,711.3 	"/>
	<polygon fill="#FFFFFF" stroke="#16B34C" stroke-miterlimit="10" points="743.5,570.5 764.7,570.5 764.7,704.2 743.5,725.3 	"/>
	<polygon fill="#FFFFFF" stroke="#16B34C" stroke-miterlimit="10" points="729.5,570.5 757.6,570.5 757.6,711.3 729.5,739.3 	"/>
	<polygon fill="#FFFFFF" stroke="#16B34C" stroke-miterlimit="10" points="718.2,549.4 718.2,673.3 684.4,707 684.4,560.7 	"/>
	<polygon fill="#FFFFFF" stroke="#16B34C" stroke-miterlimit="10" points="678.8,528.3 678.8,635.3 639.4,674.7 639.4,550.9 	"/>
	<polygon fill="#FFFFFF" stroke="#16B34C" stroke-miterlimit="10" points="639.4,507.3 639.4,597.4 594.3,642.3 594.3,541 	"/>
	<polygon fill="#FFFFFF" stroke="#16B34C" stroke-miterlimit="10" points="600,486.2 600,559.4 549.3,610 549.3,531.2 	"/>
	<polygon fill="#FFFFFF" stroke="#16B34C" stroke-miterlimit="10" points="560.6,465.1 560.6,521.4 504.2,577.7 504.2,521.4 	"/>
	<polygon fill="#FFFFFF" stroke="#16B34C" stroke-miterlimit="10" points="560.6,493.2 560.6,542.5 504.2,598.8 504.2,549.6 	"/>
	<polygon fill="#FFFFFF" stroke="#16B34C" stroke-miterlimit="10" points="560.6,521.4 560.6,563.6 504.2,619.9 504.2,577.7 	"/>
	<polygon fill="#FFFFFF" stroke="#16B34C" stroke-miterlimit="10" points="504.2,598.8 539.5,563.6 539.5,633.9 504.2,662.1 	"/>
	<polygon fill="#FFFFFF" stroke="#16B34C" stroke-miterlimit="10" points="504.2,619.9 504.2,704.3 518.4,704.3 518.4,605.8 	"/>
	<polygon fill="#FFFFFF" stroke="#16B34C" stroke-miterlimit="10" points="511.3,612.8 511.3,697.3 539.5,676.2 539.5,584.7 	"/>
	<polygon fill="#FFFFFF" stroke="#16B34C" stroke-miterlimit="10" points="518.4,605.8 518.4,690.4 560.6,648 560.6,563.6 	"/>
	<polygon fill="#FFFFFF" stroke="#16B34C" stroke-miterlimit="10" points="546.5,604.4 583.1,570.6 583.1,683.1 546.5,717.1 	"/>
	<polygon fill="#FFFFFF" stroke="#16B34C" stroke-miterlimit="10" points="574.7,602.9 605.6,577.6 605.6,718.3 574.7,743.7 	"/>
	<polygon fill="#FFFFFF" stroke="#16B34C" stroke-miterlimit="10" points="602.8,601.5 628.2,584.6 628.2,753.4 602.8,770.4 	"/>
	<polygon fill="#FFFFFF" stroke="#16B34C" stroke-miterlimit="10" points="631,600 650.7,591.6 650.7,788.6 631,797 	"/>
	<rect x="659.1" y="598.6" fill="#FFFFFF" stroke="#16B34C" stroke-miterlimit="10" width="14.1" height="225.1"/>
	<polygon fill="#FFFFFF" stroke="#16B34C" stroke-miterlimit="10" points="663.8,561.1 685.9,561.1 720.1,561.1 724.8,715.8 
		663.8,715.8 	"/>
	<polygon fill="#FFFFFF" stroke="#16B34C" stroke-miterlimit="10" points="668.5,523.7 707.7,523.7 767,523.7 776.5,608 668.5,608 	
		"/>
	<polygon fill="#FFFFFF" stroke="#16B34C" stroke-miterlimit="10" points="673.2,486.2 673.2,500.1 828.1,500.1 813.9,486.2 
		729.5,486.2 	"/>
	<polygon fill="#FFFFFF" stroke="#16B34C" stroke-miterlimit="10" points="684.5,500.2 735.2,500.2 811.1,500.2 822.5,514.2 
		684.5,514.2 	"/>
	<polygon fill="#FFFFFF" stroke="#16B34C" stroke-miterlimit="10" points="695.7,514.3 740.8,514.3 808.3,514.3 816.9,528.3 
		695.7,528.3 	"/>
	<polygon fill="#FFFFFF" stroke="#16B34C" stroke-miterlimit="10" points="707,528.3 746.5,528.3 805.6,528.3 811.2,542.3 
		707,542.3 	"/>
	<polygon fill="#FFFFFF" stroke="#16B34C" stroke-miterlimit="10" points="718.2,542.4 752.1,542.4 802.8,542.4 805.6,556.4 
		718.2,556.4 	"/>
	<rect x="729.5" y="556.4" fill="#FFFFFF" stroke="#16B34C" stroke-miterlimit="10" width="70.5" height="14.1"/>
	<rect x="750.6" y="563.5" fill="#FFFFFF" stroke="#16B34C" stroke-miterlimit="10" width="42.3" height="21.1"/>
	<rect x="771.7" y="570.5" fill="#FFFFFF" stroke="#16B34C" stroke-miterlimit="10" width="14.1" height="28.1"/>
	<rect x="747.1" y="552.9" fill="#FFFFFF" stroke="#16B34C" stroke-miterlimit="10" width="59.8" height="24.6"/>
	<rect x="722.4" y="535.3" fill="#FFFFFF" stroke="#16B34C" stroke-miterlimit="10" width="105.5" height="21.1"/>
	<rect x="697.8" y="517.7" fill="#FFFFFF" stroke="#16B34C" stroke-miterlimit="10" width="151.3" height="17.6"/>
	<rect x="673.2" y="500.1" fill="#FFFFFF" stroke="#16B34C" stroke-miterlimit="10" width="197" height="14.1"/>
	<rect x="701.3" y="514.2" fill="#FFFFFF" stroke="#16B34C" stroke-miterlimit="10" width="161.8" height="14.1"/>
	<rect x="729.5" y="528.2" fill="#FFFFFF" stroke="#16B34C" stroke-miterlimit="10" width="126.6" height="14.1"/>
	<rect x="729.5" y="535.2" fill="#FFFFFF" stroke="#16B34C" stroke-miterlimit="10" width="98.5" height="14.1"/>
	<rect x="729.5" y="542.3" fill="#FFFFFF" stroke="#16B34C" stroke-miterlimit="10" width="70.5" height="14.1"/>
	<polygon fill="#FFFFFF" stroke="#16B34C" stroke-miterlimit="10" points="740.2,568.7 740.2,596.9 676.7,596.9 676.7,579.3 	"/>
	<polygon fill="#FFFFFF" stroke="#16B34C" stroke-miterlimit="10" points="680.3,595.2 680.3,637.4 624,637.4 624,616.3 	"/>
	<polygon fill="#FFFFFF" stroke="#16B34C" stroke-miterlimit="10" points="620.4,621.6 620.4,677.9 571.2,677.9 571.2,653.4 	"/>
	<polygon fill="#FFFFFF" stroke="#16B34C" stroke-miterlimit="10" points="560.6,648 560.6,718.4 518.4,718.4 518.4,690.4 	"/>
	<polygon fill="#FFFFFF" stroke="#16B34C" stroke-miterlimit="10" points="567.7,670.9 567.7,646.4 623.9,614.5 627.5,670.9 	"/>
	<polygon fill="#FFFFFF" stroke="#16B34C" stroke-miterlimit="10" points="616.9,623.4 616.9,602.3 687.2,581.1 694.3,623.4 	"/>
	<polygon fill="#FFFFFF" stroke="#16B34C" stroke-miterlimit="10" points="666.2,575.9 666.2,558.2 750.6,547.7 761.2,575.9 	"/>
	<polygon fill="#FFFFFF" stroke="#16B34C" stroke-miterlimit="10" points="715.4,528.4 715.4,514.2 813.9,514.2 828.1,528.4 	"/>
	<polygon fill="#FFFFFF" stroke="#16B34C" stroke-miterlimit="10" points="676.7,540.6 754.1,540.6 764.8,582.9 676.7,582.9 	"/>
	<polygon fill="#FFFFFF" stroke="#16B34C" stroke-miterlimit="10" points="638,567.1 694.3,567.1 701.4,637.5 638,637.5 	"/>
	<polygon fill="#FFFFFF" stroke="#16B34C" stroke-miterlimit="10" points="599.3,593.5 634.5,593.5 638,692 599.3,692 	"/>
	<rect x="560.6" y="619.9" fill="#FFFFFF" stroke="#16B34C" stroke-miterlimit="10" width="14.1" height="126.6"/>
	<rect x="577.4" y="578.8" fill="#FFFFFF" stroke="#16B34C" stroke-miterlimit="10" width="14.2" height="192.9"/>
	<rect x="594.2" y="537.7" fill="#FFFFFF" stroke="#16B34C" stroke-miterlimit="10" width="14.3" height="259.3"/>
	<rect x="611" y="496.6" fill="#FFFFFF" stroke="#16B34C" stroke-miterlimit="10" width="14.5" height="325.6"/>
	<rect x="627.8" y="455.5" fill="#FFFFFF" stroke="#16B34C" stroke-miterlimit="10" width="14.6" height="392"/>
	<rect x="644.6" y="414.4" fill="#FFFFFF" stroke="#16B34C" stroke-miterlimit="10" width="14.7" height="458.3"/>
	<polygon fill="#FFFFFF" stroke="#16B34C" stroke-miterlimit="10" points="651.9,478.3 651.9,806.1 616.4,834.2 616.4,506.5 	"/>
	<polygon fill="#FFFFFF" stroke="#16B34C" stroke-miterlimit="10" points="644.6,542.3 588.3,598.6 588.3,795.8 644.6,739.5 	"/>
	<polygon fill="#FFFFFF" stroke="#16B34C" stroke-miterlimit="10" points="557.7,585.3 609.3,535.3 609.3,738.7 557.7,788.8 	"/>
	<polygon fill="#FFFFFF" stroke="#16B34C" stroke-miterlimit="10" points="527,572.1 573.9,528.3 573.9,738 527,781.8 	"/>
	<polygon fill="#FFFFFF" stroke="#16B34C" stroke-miterlimit="10" points="496.4,558.8 538.6,521.3 538.6,737.2 496.4,774.8 	"/>
	<polygon fill="#FFFFFF" stroke="#16B34C" stroke-miterlimit="10" points="465.7,545.6 503.3,514.3 503.3,736.5 465.7,767.8 	"/>
	<polygon fill="#FFFFFF" stroke="#16B34C" stroke-miterlimit="10" points="435.1,532.3 467.9,507.3 467.9,735.7 435.1,760.7 	"/>
	<polygon fill="#FFFFFF" stroke="#16B34C" stroke-miterlimit="10" points="404.4,519.1 432.6,500.3 432.6,735 404.4,753.7 	"/>
	<polygon fill="#FFFFFF" stroke="#16B34C" stroke-miterlimit="10" points="373.8,505.8 397.3,493.3 397.3,734.2 373.8,746.7 	"/>
	<polygon fill="#FFFFFF" stroke="#16B34C" stroke-miterlimit="10" points="343.1,492.6 361.9,486.3 361.9,733.5 343.1,739.7 	"/>
	<rect x="312.5" y="479.3" fill="#FFFFFF" stroke="#16B34C" stroke-miterlimit="10" width="14.1" height="253.4"/>
	<polygon fill="#FFFFFF" stroke="#16B34C" stroke-miterlimit="10" points="328.6,446.1 335.7,446.1 342.7,446.1 342.7,576.8 
		342.7,707.6 335.7,707.6 328.6,707.6 328.6,576.8 	"/>
	<polygon fill="#FFFFFF" stroke="#16B34C" stroke-miterlimit="10" points="344.7,413 351.8,413 358.8,413 358.8,547.7 358.8,682.4 
		351.8,682.4 344.7,682.4 344.7,547.7 	"/>
	<polygon fill="#FFFFFF" stroke="#16B34C" stroke-miterlimit="10" points="360.8,379.8 367.9,379.8 374.9,379.8 374.9,518.5 
		374.9,657.3 367.9,657.3 360.8,657.3 360.8,518.5 	"/>
	<polygon fill="#FFFFFF" stroke="#16B34C" stroke-miterlimit="10" points="377,346.7 384,346.7 391.1,346.7 391.1,489.4 
		391.1,632.1 384,632.1 377,632.1 377,489.4 	"/>
	<polygon fill="#FFFFFF" stroke="#16B34C" stroke-miterlimit="10" points="393.1,313.5 400.1,313.5 407.2,313.5 407.2,460.2 
		407.2,607 400.1,607 393.1,607 393.1,460.2 	"/>
	<polygon fill="#FFFFFF" stroke="#16B34C" stroke-miterlimit="10" points="409.2,280.4 416.2,280.4 423.3,280.4 423.3,431.1 
		423.3,581.8 416.2,581.8 409.2,581.8 409.2,431.1 	"/>
	<polygon fill="#FFFFFF" stroke="#16B34C" stroke-miterlimit="10" points="425.3,247.2 432.3,247.2 439.4,247.2 439.4,402 
		439.4,556.7 432.3,556.7 425.3,556.7 425.3,402 	"/>
	<polygon fill="#FFFFFF" stroke="#16B34C" stroke-miterlimit="10" points="369,190.9 373.5,191.9 378,192.9 400.7,276.7 
		406.9,299.1 425.3,367.8 425.3,409 419.4,406.6 413.4,404.1 397.1,364.8 376,313.2 376,313.7 369,296.4 	"/>
	<polygon fill="#FFFFFF" stroke="#16B34C" stroke-miterlimit="10" points="312.7,190.9 312.7,134.6 362,183.9 411.2,233.1 
		411.2,261.3 369,219 326.8,176.7 326.8,205 	"/>
	<polygon fill="#FFFFFF" stroke="#16B34C" stroke-miterlimit="10" points="340.9,120.6 365.9,145.6 390.6,170.3 393.6,178.5 
		409.6,224.4 418.2,249.8 418.2,282.4 406.2,277.4 390.1,238.3 383.8,223.2 369,186.8 369,186.2 365.5,187.3 351.4,173.3 
		340.9,148.1 	"/>
	<polygon fill="#FFFFFF" stroke="#16B34C" stroke-miterlimit="10" points="411.2,303.5 411.2,240.1 411.2,176.7 390.1,155.6 
		369,134.6 369,106.5 397.1,134.6 425.3,162.8 425.3,233.1 425.3,303.5 	"/>
	<polygon fill="#FFFFFF" stroke="#16B34C" stroke-miterlimit="10" points="347.9,99.4 383.1,134.6 404.8,156.3 418.2,204.9 
		418.2,268.3 407.2,264.3 404.2,255.9 404.2,209.2 404.2,207.8 387.3,159.8 385.9,158.5 368.4,141 350.2,122.9 347.9,115.9 	"/>
	<polygon fill="#FFFFFF" stroke="#16B34C" stroke-miterlimit="10" points="397.1,219.1 397.1,176.7 362,141.6 326.8,106.5 
		326.8,92.4 369,134.6 411.2,176.7 411.2,233.1 	"/>
	<polygon fill="#FFFFFF" stroke="#16B34C" stroke-miterlimit="10" points="308.9,89 351.5,131.4 361.6,141.5 393.9,173.6 
		404.2,198.2 404.2,226.1 389.6,211.7 374.5,175.5 366.6,167.6 339,140.1 314.2,115.4 308.9,102.8 	"/>
	<polygon fill="#FFFFFF" stroke="#16B34C" stroke-miterlimit="10" points="397.1,219.1 397.1,190.9 344,138.2 291,85.6 291,113.8 
		344,166.4 	"/>
	<polygon fill="#FFFFFF" stroke="#16B34C" stroke-miterlimit="10" points="411.2,327.1 351.1,267.3 351.1,475.8 411.2,528.5 	"/>
	<polygon fill="#FFFFFF" stroke="#16B34C" stroke-miterlimit="10" points="425.3,463.3 411.2,449.1 411.2,837.8 425.3,837.8 	"/>
	<polygon fill="#FFFFFF" stroke="#16B34C" stroke-miterlimit="10" points="410.1,469.3 396,456.3 396,823.2 410.1,824.3 	"/>
	<polygon fill="#FFFFFF" stroke="#16B34C" stroke-miterlimit="10" points="394.8,475.3 380.7,463.5 380.7,808.5 394.8,810.9 	"/>
	<polygon fill="#FFFFFF" stroke="#16B34C" stroke-miterlimit="10" points="379.6,481.4 365.5,470.7 365.5,793.9 379.6,797.4 	"/>
	<polygon fill="#FFFFFF" stroke="#16B34C" stroke-miterlimit="10" points="364.3,487.4 350.2,477.9 350.2,779.3 364.3,784 	"/>
	<polygon fill="#FFFFFF" stroke="#16B34C" stroke-miterlimit="10" points="349.1,493.4 335,485.1 335,764.6 349.1,770.5 	"/>
	<polygon fill="#FFFFFF" stroke="#16B34C" stroke-miterlimit="10" points="333.8,499.4 319.8,492.3 319.8,750 333.8,757 	"/>
	<polygon fill="#FFFFFF" stroke="#16B34C" stroke-miterlimit="10" points="318.6,505.5 304.5,499.6 304.5,735.4 318.6,743.6 	"/>
	<polygon fill="#FFFFFF" stroke="#16B34C" stroke-miterlimit="10" points="303.4,511.5 289.3,506.8 289.3,720.7 303.4,730.1 	"/>
	<polygon fill="#FFFFFF" stroke="#16B34C" stroke-miterlimit="10" points="288.1,517.5 274,514 274,706.1 288.1,716.7 	"/>
	<polygon fill="#FFFFFF" stroke="#16B34C" stroke-miterlimit="10" points="272.9,523.5 258.8,521.2 258.8,691.5 272.9,703.2 	"/>
	<polygon fill="#FFFFFF" stroke="#16B34C" stroke-miterlimit="10" points="257.6,529.6 243.5,528.4 243.5,676.8 257.6,689.8 	"/>
	<polygon fill="#FFFFFF" stroke="#16B34C" stroke-miterlimit="10" points="242.4,676.3 242.4,535.6 228.3,535.6 228.3,662.2 	"/>
	<polygon fill="#FFFFFF" stroke="#16B34C" stroke-miterlimit="10" points="256.5,690.3 235.4,669.2 235.4,535.6 256.5,535.6 	"/>
	<polygon fill="#FFFFFF" stroke="#16B34C" stroke-miterlimit="10" points="270.5,704.4 242.4,676.3 242.4,535.6 270.5,535.6 	"/>
	<polygon fill="#FFFFFF" stroke="#16B34C" stroke-miterlimit="10" points="326.8,657 305.8,650 291.6,530.3 338.9,477.5 	"/>
	<polygon fill="#FFFFFF" stroke="#16B34C" stroke-miterlimit="10" points="383.1,602.4 369.1,616.6 340.9,518 407.2,412.3 	"/>
	<polygon fill="#FFFFFF" stroke="#16B34C" stroke-miterlimit="10" points="439.5,544.4 432.4,579.7 390.1,502.2 475.6,343.6 	"/>
	<polygon fill="#FFFFFF" stroke="#16B34C" stroke-miterlimit="10" points="495.8,486.4 495.8,542.8 439.4,486.4 544,274.9 	"/>
	<polygon fill="#FFFFFF" stroke="#16B34C" stroke-miterlimit="10" points="507.8,514.6 507.8,563.9 451.5,507.5 503.8,380.6 	"/>
	<polygon fill="#FFFFFF" stroke="#16B34C" stroke-miterlimit="10" points="495.8,542.8 495.8,585 439.4,528.6 439.4,486.4 	"/>
	<polygon fill="#FFFFFF" stroke="#16B34C" stroke-miterlimit="10" points="460.5,528.6 495.8,563.9 495.8,627.2 460.5,598.9 	"/>
	<polygon fill="#FFFFFF" stroke="#16B34C" stroke-miterlimit="10" points="481.6,570.8 481.6,669.3 495.8,669.3 495.8,585 	"/>
	<polygon fill="#FFFFFF" stroke="#16B34C" stroke-miterlimit="10" points="460.5,549.7 460.5,641.2 488.7,662.3 488.7,577.9 	"/>
	<polygon fill="#FFFFFF" stroke="#16B34C" stroke-miterlimit="10" points="439.4,528.6 439.4,613 481.6,655.4 481.6,570.8 	"/>
	<polygon fill="#FFFFFF" stroke="#16B34C" stroke-miterlimit="10" points="416.8,535.6 435.1,552.5 453.4,569.4 453.4,625.7 
		453.4,682.1 450.5,680.6 447.6,679.1 416.8,625.7 	"/>
	<polygon fill="#FFFFFF" stroke="#16B34C" stroke-miterlimit="10" points="394.3,542.6 409.8,555.3 425.2,568 425.2,638.4 
		425.2,708.8 421.3,707.7 417.4,706.5 394.3,638.3 	"/>
	<polygon fill="#FFFFFF" stroke="#16B34C" stroke-miterlimit="10" points="371.7,549.7 384.4,558.1 397.1,566.5 397.1,651 
		397.1,735.4 392.1,734.7 387.1,733.9 371.7,651 	"/>
	<polygon fill="#FFFFFF" stroke="#16B34C" stroke-miterlimit="10" points="349.2,556.7 359,560.9 368.9,565.1 368.9,663.6 
		368.9,762.1 362.9,761.8 356.9,761.4 349.2,663.6 	"/>
	<polygon fill="#FFFFFF" stroke="#16B34C" stroke-miterlimit="10" points="326.6,563.7 333.7,563.7 340.7,563.7 340.7,676.2 
		340.7,788.8 333.7,788.8 326.6,788.8 326.6,676.2 	"/>
	<polygon fill="#FFFFFF" stroke="#16B34C" stroke-miterlimit="10" points="260.8,442.2 265.8,444.7 270.9,447.4 286.7,508.9 
		296.8,548.6 305.6,582.4 333.8,612.6 333.8,627 291.5,627 249.2,627 255,534.6 	"/>
	<polygon fill="#FFFFFF" stroke="#16B34C" stroke-miterlimit="10" points="270.5,451.2 232.8,385.9 195,320.6 183.4,392.9 
		171.9,465.2 249.3,465.2 326.8,465.2 326.8,451.2 	"/>
	<polygon fill="#FFFFFF" stroke="#16B34C" stroke-miterlimit="10" points="197.5,421.1 230.9,453.7 238.1,460.8 263.8,486.4 
		287.1,486.4 296.4,489.9 298.6,490.4 298.6,500.4 242.3,500.4 185.9,500.4 191.7,460.7 	"/>
	<polygon fill="#FFFFFF" stroke="#16B34C" stroke-miterlimit="10" points="200,521.5 235.2,521.5 270.5,521.5 270.5,528.5 
		270.5,535.6 235.2,535.6 200,535.6 200,528.5 	"/>
	<rect x="207.1" y="528.5" fill="#FFFFFF" stroke="#16B34C" stroke-miterlimit="10" width="42.3" height="21.1"/>
	<rect x="214.1" y="535.6" fill="#FFFFFF" stroke="#16B34C" stroke-miterlimit="10" width="14.1" height="28.1"/>
	<rect x="193" y="518" fill="#FFFFFF" stroke="#16B34C" stroke-miterlimit="10" width="59.8" height="24.6"/>
	<rect x="172" y="500.4" fill="#FFFFFF" stroke="#16B34C" stroke-miterlimit="10" width="105.5" height="21.1"/>
	<rect x="150.9" y="482.8" fill="#FFFFFF" stroke="#16B34C" stroke-miterlimit="10" width="151.3" height="17.6"/>
	<rect x="129.8" y="465.2" fill="#FFFFFF" stroke="#16B34C" stroke-miterlimit="10" width="197" height="14.1"/>
	<rect x="136.9" y="479.2" fill="#FFFFFF" stroke="#16B34C" stroke-miterlimit="10" width="161.8" height="14.1"/>
	<rect x="143.9" y="493.2" fill="#FFFFFF" stroke="#16B34C" stroke-miterlimit="10" width="126.6" height="14.1"/>
	<rect x="172" y="500.2" fill="#FFFFFF" stroke="#16B34C" stroke-miterlimit="10" width="98.6" height="14.1"/>
	<rect x="200" y="507.3" fill="#FFFFFF" stroke="#16B34C" stroke-miterlimit="10" width="70.5" height="14.1"/>
	<polygon fill="#FFFFFF" stroke="#16B34C" stroke-miterlimit="10" points="323.3,544.3 323.3,561.9 259.9,561.9 259.9,533.7 	"/>
	<polygon fill="#FFFFFF" stroke="#16B34C" stroke-miterlimit="10" points="376,581.3 376,602.4 319.7,602.4 319.7,560.2 	"/>
	<polygon fill="#FFFFFF" stroke="#16B34C" stroke-miterlimit="10" points="428.8,618.4 428.8,643 379.5,643 379.5,586.6 	"/>
	<polygon fill="#FFFFFF" stroke="#16B34C" stroke-miterlimit="10" points="481.6,655.4 481.6,683.5 439.4,683.5 439.4,613 	"/>
	<polygon fill="#FFFFFF" stroke="#16B34C" stroke-miterlimit="10" points="372.5,636 376.1,579.6 432.4,611.4 432.4,636 	"/>
	<polygon fill="#FFFFFF" stroke="#16B34C" stroke-miterlimit="10" points="305.6,588.5 312.8,546.2 383.1,567.3 383.1,588.5 	"/>
	<polygon fill="#FFFFFF" stroke="#16B34C" stroke-miterlimit="10" points="238.8,540.9 249.4,512.7 333.9,523.3 333.9,540.9 	"/>
	<polygon fill="#FFFFFF" stroke="#16B34C" stroke-miterlimit="10" points="171.9,493.4 186.1,479.3 284.6,479.3 284.6,493.4 	"/>
	<polygon fill="#FFFFFF" stroke="#16B34C" stroke-miterlimit="10" points="245.9,505.7 323.3,505.7 323.3,548 235.2,548 	"/>
	<polygon fill="#FFFFFF" stroke="#16B34C" stroke-miterlimit="10" points="305.7,532.2 362,532.2 362,602.5 298.6,602.5 	"/>
	<polygon fill="#FFFFFF" stroke="#16B34C" stroke-miterlimit="10" points="365.5,558.6 400.7,558.6 400.7,657 361.9,657 	"/>
	<rect x="425.3" y="585" fill="#FFFFFF" stroke="#16B34C" stroke-miterlimit="10" width="14.1" height="126.6"/>
	<rect x="408.4" y="543.9" fill="#FFFFFF" stroke="#16B34C" stroke-miterlimit="10" width="14.2" height="192.9"/>
	<rect x="391.5" y="502.8" fill="#FFFFFF" stroke="#16B34C" stroke-miterlimit="10" width="14.3" height="259.3"/>
	<rect x="374.5" y="461.6" fill="#FFFFFF" stroke="#16B34C" stroke-miterlimit="10" width="14.5" height="325.6"/>
	<rect x="357.6" y="420.5" fill="#FFFFFF" stroke="#16B34C" stroke-miterlimit="10" width="14.6" height="392"/>
	<rect x="340.7" y="379.4" fill="#FFFFFF" stroke="#16B34C" stroke-miterlimit="10" width="14.7" height="458.3"/>
	<polygon fill="#FFFFFF" stroke="#16B34C" stroke-miterlimit="10" points="315.9,355.3 383.6,471.5 383.6,799.3 348,771.1 	"/>
	<polygon fill="#FFFFFF" stroke="#16B34C" stroke-miterlimit="10" points="291,331.2 411.7,563.7 411.7,760.9 355.4,704.6 	"/>
	<polygon fill="#FFFFFF" stroke="#16B34C" stroke-miterlimit="10" points="354.7,355.9 457.6,549.6 457.6,756.2 408.4,709.3 	"/>
	<polygon fill="#FFFFFF" stroke="#16B34C" stroke-miterlimit="10" points="418.4,380.6 503.6,535.6 503.6,751.5 461.3,714 	"/>
	<polygon fill="#FFFFFF" stroke="#16B34C" stroke-miterlimit="10" points="482.1,405.2 549.5,521.5 549.5,746.8 514.3,718.6 	"/>
	<polygon fill="#FFFFFF" stroke="#16B34C" stroke-miterlimit="10" points="545.8,429.9 595.4,507.4 595.4,742.1 567.3,723.3 	"/>
	<polygon fill="#FFFFFF" stroke="#16B34C" stroke-miterlimit="10" points="609.5,454.6 641.4,493.4 641.4,737.4 620.2,728 	"/>
	<rect x="673.2" y="479.3" fill="#FFFFFF" stroke="#16B34C" stroke-miterlimit="10" width="14.1" height="253.4"/>
	<polygon fill="#FFFFFF" stroke="#16B34C" stroke-miterlimit="10" points="657.1,446.1 664.2,446.1 671.2,446.1 671.2,576.8 
		671.2,707.6 664.2,707.6 657.1,707.6 657.1,576.8 	"/>
	<polygon fill="#FFFFFF" stroke="#16B34C" stroke-miterlimit="10" points="641,413 648.1,413 655.1,413 655.1,547.7 655.1,682.4 
		648.1,682.4 641,682.4 641,547.7 	"/>
	<polygon fill="#FFFFFF" stroke="#16B34C" stroke-miterlimit="10" points="624.9,379.8 632,379.8 639,379.8 639,518.5 639,657.3 
		632,657.3 624.9,657.3 624.9,518.5 	"/>
	<polygon fill="#FFFFFF" stroke="#16B34C" stroke-miterlimit="10" points="608.9,346.7 615.9,346.7 623,346.7 623,489.4 623,632.1 
		615.9,632.1 608.9,632.1 608.9,489.4 	"/>
	<polygon fill="#FFFFFF" stroke="#16B34C" stroke-miterlimit="10" points="592.8,313.5 599.8,313.5 606.9,313.5 606.9,460.2 
		606.9,607 599.8,607 592.8,607 592.8,460.2 	"/>
	<polygon fill="#FFFFFF" stroke="#16B34C" stroke-miterlimit="10" points="576.7,280.4 583.7,280.4 590.8,280.4 590.8,431.1 
		590.8,581.8 583.7,581.8 576.7,581.8 576.7,431.1 	"/>
	<polygon fill="#FFFFFF" stroke="#16B34C" stroke-miterlimit="10" points="560.6,247.2 567.6,247.2 574.7,247.2 574.7,402 
		574.7,556.7 567.6,556.7 560.6,556.7 560.6,402 	"/>
	<polygon fill="#FFFFFF" stroke="#16B34C" stroke-miterlimit="10" points="631,190.9 631,296.4 623.9,313.4 623.9,313.6 
		602.8,364.7 586.8,403.9 580.8,406.5 574.7,409 574.7,367.7 592.8,299.4 599.3,274.9 621.4,193.4 626.2,192.2 	"/>
	<polygon fill="#FFFFFF" stroke="#16B34C" stroke-miterlimit="10" points="673.2,205 673.2,176.7 631,219 588.8,261.3 588.8,233.1 
		638,183.9 687.3,134.6 687.3,190.9 	"/>
	<polygon fill="#FFFFFF" stroke="#16B34C" stroke-miterlimit="10" points="647.3,120.6 647.3,143.6 626.2,183.8 619.1,198.6 
		619.1,195.4 607.2,220.4 598,239.1 576.9,282.4 569.9,279.4 555.6,246.3 549.2,216.4 536.5,156.5 540,155.3 591.8,138.6 	"/>
	<polygon fill="#FFFFFF" stroke="#16B34C" stroke-miterlimit="10" points="574.7,303.5 517.6,215.4 460.5,127.3 545.8,116.9 
		631,106.5 631,134.6 588.8,176.7 588.8,240.1 588.8,303.5 	"/>
	<polygon fill="#FFFFFF" stroke="#16B34C" stroke-miterlimit="10" points="588.4,125.7 652.1,99.4 652.1,114.9 648.9,123.8 
		616.7,155.8 610.9,161.6 595.8,202.6 595.8,213.3 595.8,249.3 588.8,268.3 581.8,266.8 553.2,209.4 524.7,152 	"/>
	<polygon fill="#FFFFFF" stroke="#16B34C" stroke-miterlimit="10" points="588.8,233.1 588.8,176.7 631,134.6 673.2,92.4 
		673.2,106.5 638.1,141.6 602.9,176.7 602.9,219.1 	"/>
	<polygon fill="#FFFFFF" stroke="#16B34C" stroke-miterlimit="10" points="687.3,92.4 687.3,106 681.5,119.4 658.3,142.6 
		631.4,169.5 623.9,176.9 609.6,212.4 595.8,226.1 595.8,196.9 604.7,175 636.9,142.8 645.9,133.8 	"/>
	<polygon fill="#FFFFFF" stroke="#16B34C" stroke-miterlimit="10" points="701.5,120.6 701.5,92.4 652.2,141.6 602.9,190.9 
		602.9,219.1 652.2,169.9 	"/>
	<polygon fill="#FFFFFF" stroke="#16B34C" stroke-miterlimit="10" points="645.2,479.2 645.2,270.8 588.8,327.1 588.8,528.5 	"/>
	<polygon fill="#FFFFFF" stroke="#16B34C" stroke-miterlimit="10" points="574.7,837.8 588.8,837.8 588.8,449.1 574.7,463.3 	"/>
	<polygon fill="#FFFFFF" stroke="#16B34C" stroke-miterlimit="10" points="604,823.2 604,456.3 589.9,469.3 589.9,824.3 	"/>
	<polygon fill="#FFFFFF" stroke="#16B34C" stroke-miterlimit="10" points="619.3,808.5 619.3,463.5 605.2,475.3 605.2,810.9 	"/>
	<polygon fill="#FFFFFF" stroke="#16B34C" stroke-miterlimit="10" points="634.5,793.9 634.5,470.7 620.4,481.4 620.4,797.4 	"/>
	<polygon fill="#FFFFFF" stroke="#16B34C" stroke-miterlimit="10" points="649.8,779.3 649.8,477.9 635.7,487.4 635.7,784 	"/>
	<polygon fill="#FFFFFF" stroke="#16B34C" stroke-miterlimit="10" points="665,764.6 665,485.1 650.9,493.4 650.9,770.5 	"/>
	<polygon fill="#FFFFFF" stroke="#16B34C" stroke-miterlimit="10" points="680.2,750 680.2,492.3 666.2,499.4 666.2,757 	"/>
	<polygon fill="#FFFFFF" stroke="#16B34C" stroke-miterlimit="10" points="695.5,735.4 695.5,499.6 681.4,505.5 681.4,743.6 	"/>
	<polygon fill="#FFFFFF" stroke="#16B34C" stroke-miterlimit="10" points="710.7,720.7 710.7,506.8 696.6,511.5 696.6,730.1 	"/>
	<polygon fill="#FFFFFF" stroke="#16B34C" stroke-miterlimit="10" points="726,706.1 726,514 711.9,517.5 711.9,716.7 	"/>
	<polygon fill="#FFFFFF" stroke="#16B34C" stroke-miterlimit="10" points="741.2,691.5 741.2,521.2 727.1,523.5 727.1,703.2 	"/>
	<polygon fill="#FFFFFF" stroke="#16B34C" stroke-miterlimit="10" points="756.5,676.8 756.5,528.4 742.4,529.6 742.4,689.8 	"/>
	<polygon fill="#FFFFFF" stroke="#16B34C" stroke-miterlimit="10" points="771.7,662.2 771.7,535.6 757.6,535.6 757.6,676.3 	"/>
	<polygon fill="#FFFFFF" stroke="#16B34C" stroke-miterlimit="10" points="743.5,535.6 764.7,535.6 764.7,669.2 743.5,690.3 	"/>
	<polygon fill="#FFFFFF" stroke="#16B34C" stroke-miterlimit="10" points="729.5,535.6 757.6,535.6 757.6,676.3 729.5,704.4 	"/>
	<polygon fill="#FFFFFF" stroke="#16B34C" stroke-miterlimit="10" points="718.2,514.5 718.2,638.3 684.4,672.1 684.4,525.8 	"/>
	<polygon fill="#FFFFFF" stroke="#16B34C" stroke-miterlimit="10" points="678.8,493.4 678.8,600.3 639.4,639.8 639.4,515.9 	"/>
	<polygon fill="#FFFFFF" stroke="#16B34C" stroke-miterlimit="10" points="639.4,472.3 639.4,562.4 594.3,607.4 594.3,506.1 	"/>
	<polygon fill="#FFFFFF" stroke="#16B34C" stroke-miterlimit="10" points="600,451.2 600,524.4 549.3,575.1 549.3,496.2 	"/>
	<polygon fill="#FFFFFF" stroke="#16B34C" stroke-miterlimit="10" points="560.6,430.1 560.6,486.4 504.2,542.8 504.2,486.4 	"/>
	<polygon fill="#FFFFFF" stroke="#16B34C" stroke-miterlimit="10" points="560.6,458.2 560.6,507.5 504.2,563.9 504.2,514.6 	"/>
	<polygon fill="#FFFFFF" stroke="#16B34C" stroke-miterlimit="10" points="560.6,486.4 560.6,528.6 504.2,585 504.2,542.8 	"/>
	<polygon fill="#FFFFFF" stroke="#16B34C" stroke-miterlimit="10" points="504.2,563.9 539.5,528.6 539.5,598.9 504.2,627.2 	"/>
	<polygon fill="#FFFFFF" stroke="#16B34C" stroke-miterlimit="10" points="504.2,585 504.2,669.3 518.4,669.3 518.4,570.8 	"/>
	<polygon fill="#FFFFFF" stroke="#16B34C" stroke-miterlimit="10" points="511.3,577.9 511.3,662.3 539.5,641.2 539.5,549.7 	"/>
	<polygon fill="#FFFFFF" stroke="#16B34C" stroke-miterlimit="10" points="518.4,570.8 518.4,655.4 560.6,613 560.6,528.6 	"/>
	<polygon fill="#FFFFFF" stroke="#16B34C" stroke-miterlimit="10" points="546.5,569.4 583.1,535.6 583.1,648.2 546.5,682.1 	"/>
	<polygon fill="#FFFFFF" stroke="#16B34C" stroke-miterlimit="10" points="574.7,568 605.6,542.6 605.6,683.3 574.7,708.8 	"/>
	<polygon fill="#FFFFFF" stroke="#16B34C" stroke-miterlimit="10" points="602.8,566.5 628.2,549.7 628.2,718.5 602.8,735.4 	"/>
	<polygon fill="#FFFFFF" stroke="#16B34C" stroke-miterlimit="10" points="631,565.1 650.7,556.7 650.7,753.6 631,762.1 	"/>
	<rect x="659.1" y="563.7" fill="#FFFFFF" stroke="#16B34C" stroke-miterlimit="10" width="14.1" height="225.1"/>
	<polygon fill="#FFFFFF" stroke="#16B34C" stroke-miterlimit="10" points="663.8,526.2 685.9,526.2 720.1,526.2 724.8,680.9 
		663.8,680.9 	"/>
	<polygon fill="#FFFFFF" stroke="#16B34C" stroke-miterlimit="10" points="668.5,488.7 707.7,488.7 767,488.7 776.5,573.1 
		668.5,573.1 	"/>
	<polygon fill="#FFFFFF" stroke="#16B34C" stroke-miterlimit="10" points="673.2,451.2 673.2,465.2 828.1,465.2 813.9,451.2 
		729.5,451.2 	"/>
	<polygon fill="#FFFFFF" stroke="#16B34C" stroke-miterlimit="10" points="684.5,465.3 735.2,465.3 811.1,465.3 822.5,479.3 
		684.5,479.3 	"/>
	<polygon fill="#FFFFFF" stroke="#16B34C" stroke-miterlimit="10" points="695.7,479.3 740.8,479.3 808.3,479.3 816.9,493.4 
		695.7,493.4 	"/>
	<polygon fill="#FFFFFF" stroke="#16B34C" stroke-miterlimit="10" points="707,493.4 746.5,493.4 805.6,493.4 811.2,507.4 
		707,507.4 	"/>
	<polygon fill="#FFFFFF" stroke="#16B34C" stroke-miterlimit="10" points="718.2,507.4 752.1,507.4 802.8,507.4 805.6,521.5 
		718.2,521.5 	"/>
	<rect x="729.5" y="521.5" fill="#FFFFFF" stroke="#16B34C" stroke-miterlimit="10" width="70.5" height="14.1"/>
	<rect x="750.6" y="528.5" fill="#FFFFFF" stroke="#16B34C" stroke-miterlimit="10" width="42.3" height="21.1"/>
	<rect x="771.7" y="535.6" fill="#FFFFFF" stroke="#16B34C" stroke-miterlimit="10" width="14.1" height="28.1"/>
	<rect x="747.1" y="518" fill="#FFFFFF" stroke="#16B34C" stroke-miterlimit="10" width="59.8" height="24.6"/>
	<rect x="722.4" y="500.4" fill="#FFFFFF" stroke="#16B34C" stroke-miterlimit="10" width="105.5" height="21.1"/>
	<rect x="697.8" y="482.8" fill="#FFFFFF" stroke="#16B34C" stroke-miterlimit="10" width="151.3" height="17.6"/>
	<rect x="673.2" y="465.2" fill="#FFFFFF" stroke="#16B34C" stroke-miterlimit="10" width="197" height="14.1"/>
	<rect x="701.3" y="479.2" fill="#FFFFFF" stroke="#16B34C" stroke-miterlimit="10" width="161.8" height="14.1"/>
	<rect x="729.5" y="493.2" fill="#FFFFFF" stroke="#16B34C" stroke-miterlimit="10" width="126.6" height="14.1"/>
	<rect x="729.5" y="500.2" fill="#FFFFFF" stroke="#16B34C" stroke-miterlimit="10" width="98.5" height="14.1"/>
	<rect x="729.5" y="507.3" fill="#FFFFFF" stroke="#16B34C" stroke-miterlimit="10" width="70.5" height="14.1"/>
	<polygon fill="#FFFFFF" stroke="#16B34C" stroke-miterlimit="10" points="740.2,533.7 740.2,561.9 676.7,561.9 676.7,544.3 	"/>
	<polygon fill="#FFFFFF" stroke="#16B34C" stroke-miterlimit="10" points="680.3,560.2 680.3,602.4 624,602.4 624,581.3 	"/>
	<polygon fill="#FFFFFF" stroke="#16B34C" stroke-miterlimit="10" points="620.4,586.6 620.4,643 571.2,643 571.2,618.4 	"/>
	<polygon fill="#FFFFFF" stroke="#16B34C" stroke-miterlimit="10" points="560.6,613 560.6,683.5 518.4,683.5 518.4,655.4 	"/>
	<polygon fill="#FFFFFF" stroke="#16B34C" stroke-miterlimit="10" points="567.7,636 567.7,611.4 623.9,579.6 627.5,636 	"/>
	<polygon fill="#FFFFFF" stroke="#16B34C" stroke-miterlimit="10" points="616.9,588.5 616.9,567.3 687.2,546.2 694.3,588.5 	"/>
	<polygon fill="#FFFFFF" stroke="#16B34C" stroke-miterlimit="10" points="666.2,540.9 666.2,523.3 750.6,512.7 761.2,540.9 	"/>
	<polygon fill="#FFFFFF" stroke="#16B34C" stroke-miterlimit="10" points="715.4,493.4 715.4,479.3 813.9,479.3 828.1,493.4 	"/>
	<polygon fill="#FFFFFF" stroke="#16B34C" stroke-miterlimit="10" points="676.7,505.7 754.1,505.7 764.8,548 676.7,548 	"/>
	<polygon fill="#FFFFFF" stroke="#16B34C" stroke-miterlimit="10" points="638,532.2 694.3,532.2 701.4,602.5 638,602.5 	"/>
	<polygon fill="#FFFFFF" stroke="#16B34C" stroke-miterlimit="10" points="599.3,558.6 634.5,558.6 638,657 599.3,657 	"/>
	<rect x="560.6" y="585" fill="#FFFFFF" stroke="#16B34C" stroke-miterlimit="10" width="14.1" height="126.6"/>
	<rect x="577.4" y="543.9" fill="#FFFFFF" stroke="#16B34C" stroke-miterlimit="10" width="14.2" height="192.9"/>
	<rect x="594.2" y="502.8" fill="#FFFFFF" stroke="#16B34C" stroke-miterlimit="10" width="14.3" height="259.3"/>
	<rect x="611" y="461.6" fill="#FFFFFF" stroke="#16B34C" stroke-miterlimit="10" width="14.5" height="325.6"/>
	<rect x="627.8" y="420.5" fill="#FFFFFF" stroke="#16B34C" stroke-miterlimit="10" width="14.6" height="392"/>
	<rect x="644.6" y="379.4" fill="#FFFFFF" stroke="#16B34C" stroke-miterlimit="10" width="14.7" height="458.3"/>
	<polygon fill="#FFFFFF" stroke="#16B34C" stroke-miterlimit="10" points="651.9,443.3 743.7,816.8 616.4,799.3 616.4,471.5 	"/>
	<polygon fill="#FFFFFF" stroke="#16B34C" stroke-miterlimit="10" points="644.6,507.3 588.3,563.7 588.3,760.9 828.1,795.8 	"/>
</g>
</svg>
