<?xml version="1.0" encoding="utf-8"?>
<!-- Generator: Adobe Illustrator 17.1.0, SVG Export Plug-In . SVG Version: 6.00 Build 0)  -->
<!DOCTYPE svg PUBLIC "-//W3C//DTD SVG 1.1//EN" "http://www.w3.org/Graphics/SVG/1.1/DTD/svg11.dtd">
<svg version="1.1" id="Layer_1" xmlns="http://www.w3.org/2000/svg" xmlns:xlink="http://www.w3.org/1999/xlink" x="0px" y="0px"
	 viewBox="0 0 1000 1000" enable-background="new 0 0 1000 1000" xml:space="preserve">
<path fill="#FFFFFF" stroke="#231F20" stroke-width="4" stroke-linecap="round" stroke-linejoin="round" stroke-miterlimit="10" d="
	M676.8,556.1H393.9V273.2h282.8V556.1z M712.1,237.9l-35.4,35.4v282.8l35.4-35.4V237.9z M676.8,273.2l35.4-35.4H429.3l-35.4,35.4
	H676.8z"/>
<path fill="#FFFFFF" stroke="#231F20" stroke-width="4" stroke-linecap="round" stroke-linejoin="round" stroke-miterlimit="10" d="
	M623.7,609.1H340.9V326.3h282.8V609.1z M659.1,290.9l-35.4,35.4v282.8l35.4-35.4V290.9z M623.7,326.3l35.4-35.4H376.3l-35.4,35.4
	H623.7z"/>
<path fill="#FFFFFF" stroke="#231F20" stroke-width="4" stroke-linecap="round" stroke-linejoin="round" stroke-miterlimit="10" d="
	M570.7,662.1H287.9V379.3h282.8V662.1z M606.1,343.9l-35.4,35.4v282.8l35.4-35.4V343.9z M570.7,379.3l35.4-35.4H323.2l-35.4,35.4
	H570.7z"/>
<path fill="#FFFFFF" stroke="#231F20" stroke-width="4" stroke-linecap="round" stroke-linejoin="round" stroke-miterlimit="10" d="
	M517.5,715.3H234.7V432.5h282.8V715.3z M552.8,397.2l-35.4,35.4v282.8l35.4-35.4V397.2z M517.5,432.5l35.4-35.4H270l-35.4,35.4
	H517.5z"/>
<path fill="#FFFFFF" stroke="#231F20" stroke-width="4" stroke-linecap="round" stroke-linejoin="round" stroke-miterlimit="10" d="
	M420.2,650.2H287.3V517.3h132.8V650.2z M436.8,500.7l-16.6,16.6v132.8l16.6-16.6V500.7z M420.2,517.3l16.6-16.6H303.9l-16.6,16.6
	H420.2z"/>
<path fill="#FFFFFF" stroke="#231F20" stroke-width="4" stroke-linecap="round" stroke-linejoin="round" stroke-miterlimit="10" d="
	M395.2,675.1H262.4V542.3h132.8V675.1z M411.9,525.6l-16.6,16.6v132.8l16.6-16.6V525.6z M395.2,542.3l16.6-16.6H279l-16.6,16.6
	H395.2z"/>
<path fill="#FFFFFF" stroke="#231F20" stroke-width="4" stroke-linecap="round" stroke-linejoin="round" stroke-miterlimit="10" d="
	M370.3,700H237.5V567.2h132.8V700z M386.9,550.6l-16.6,16.6V700l16.6-16.6V550.6z M370.3,567.2l16.6-16.6H254.1l-16.6,16.6H370.3z"
	/>
<path fill="#FFFFFF" stroke="#231F20" stroke-width="4" stroke-linecap="round" stroke-linejoin="round" stroke-miterlimit="10" d="
	M345.3,725H212.5V592.2h132.8V725z M361.9,575.6l-16.6,16.6V725l16.6-16.6V575.6z M345.3,592.2l16.6-16.6H229.1l-16.6,16.6H345.3z"
	/>
</svg>
