<?xml version="1.0" encoding="utf-8"?>
<!-- Generator: Adobe Illustrator 18.0.0, SVG Export Plug-In . SVG Version: 6.00 Build 0)  -->
<!DOCTYPE svg PUBLIC "-//W3C//DTD SVG 1.1//EN" "http://www.w3.org/Graphics/SVG/1.1/DTD/svg11.dtd">
<svg version="1.1" id="Layer_1" xmlns="http://www.w3.org/2000/svg" xmlns:xlink="http://www.w3.org/1999/xlink" x="0px" y="0px"
	 viewBox="0 0 2592 1728" enable-background="new 0 0 2592 1728" xml:space="preserve">
<polygon fill="#FFFFFF" stroke="#16B34C" stroke-miterlimit="10" points="1111.1,885.2 860.5,885.2 819.1,926.6 1278.7,926.6 
	1278.7,885.2 "/>
<rect x="902" y="1093.4" fill="#FFFFFF" stroke="#16B34C" stroke-miterlimit="10" width="209.1" height="41.5"/>
<rect x="693.8" y="926.6" fill="#FFFFFF" stroke="#16B34C" stroke-miterlimit="10" width="584.9" height="41.5"/>
<rect x="735.3" y="1009.6" fill="#FFFFFF" stroke="#16B34C" stroke-miterlimit="10" width="375.8" height="41.5"/>
<rect x="902" y="1051.9" fill="#FFFFFF" stroke="#16B34C" stroke-miterlimit="10" width="209.1" height="41.5"/>
<polygon fill="#FFFFFF" stroke="#16B34C" stroke-miterlimit="10" points="819.1,1010.4 860.5,968.1 1153.4,968.1 1153.4,1010.4 "/>
<polygon fill="#FFFFFF" stroke="#16B34C" stroke-miterlimit="10" points="1313.3,885.2 1313.3,926.6 1772.9,926.6 1731.5,885.2 
	1480.9,885.2 "/>
<rect x="1480.9" y="1093.4" fill="#FFFFFF" stroke="#16B34C" stroke-miterlimit="10" width="209.1" height="41.5"/>
<rect x="1313.3" y="926.6" fill="#FFFFFF" stroke="#16B34C" stroke-miterlimit="10" width="584.9" height="41.5"/>
<rect x="1480.9" y="1009.6" fill="#FFFFFF" stroke="#16B34C" stroke-miterlimit="10" width="375.8" height="41.5"/>
<rect x="1480.9" y="1051.9" fill="#FFFFFF" stroke="#16B34C" stroke-miterlimit="10" width="209.1" height="41.5"/>
<polygon fill="#FFFFFF" stroke="#16B34C" stroke-miterlimit="10" points="1438.6,1010.4 1438.6,968.1 1731.5,968.1 1772.9,1010.4 
	"/>
<polygon fill="#FFFFFF" stroke="#16B34C" stroke-miterlimit="10" points="1480.9,843.7 1731.5,843.7 1772.9,802.2 1313.3,802.2 
	1313.3,843.7 "/>
<rect x="1480.9" y="593.1" fill="#FFFFFF" stroke="#16B34C" stroke-miterlimit="10" width="209.1" height="41.5"/>
<rect x="1313.3" y="759.9" fill="#FFFFFF" stroke="#16B34C" stroke-miterlimit="10" width="584.9" height="41.5"/>
<rect x="1480.9" y="677.8" fill="#FFFFFF" stroke="#16B34C" stroke-miterlimit="10" width="375.8" height="41.5"/>
<rect x="1480.9" y="634.6" fill="#FFFFFF" stroke="#16B34C" stroke-miterlimit="10" width="209.1" height="41.5"/>
<polygon fill="#FFFFFF" stroke="#16B34C" stroke-miterlimit="10" points="1772.9,718.4 1731.5,759.9 1438.6,759.9 1438.6,718.4 "/>
<polygon fill="#FFFFFF" stroke="#16B34C" stroke-miterlimit="10" points="1278.7,843.7 1278.7,802.2 819.1,802.2 860.5,843.7 
	1111.1,843.7 "/>
<rect x="902" y="593.1" fill="#FFFFFF" stroke="#16B34C" stroke-miterlimit="10" width="209.1" height="41.5"/>
<rect x="693.8" y="759.9" fill="#FFFFFF" stroke="#16B34C" stroke-miterlimit="10" width="584.9" height="41.5"/>
<rect x="735.3" y="677.8" fill="#FFFFFF" stroke="#16B34C" stroke-miterlimit="10" width="375.8" height="41.5"/>
<rect x="902" y="634.6" fill="#FFFFFF" stroke="#16B34C" stroke-miterlimit="10" width="209.1" height="41.5"/>
<polygon fill="#FFFFFF" stroke="#16B34C" stroke-miterlimit="10" points="1153.4,718.4 1153.4,759.9 860.5,759.9 819.1,718.4 "/>
</svg>
