<?xml version="1.0" encoding="utf-8"?>
<!-- Generator: Adobe Illustrator 17.1.0, SVG Export Plug-In . SVG Version: 6.00 Build 0)  -->
<!DOCTYPE svg PUBLIC "-//W3C//DTD SVG 1.1//EN" "http://www.w3.org/Graphics/SVG/1.1/DTD/svg11.dtd">
<svg version="1.1" id="Layer_1" xmlns="http://www.w3.org/2000/svg" xmlns:xlink="http://www.w3.org/1999/xlink" x="0px" y="0px"
	 viewBox="0 0 1000 1000" enable-background="new 0 0 1000 1000" xml:space="preserve">
<path fill="#EB008B" d="M653.2,899.2h-14.4l11.8-31.1l-37.8-70.4l0.1-0.5l7.1-54.7l-24.5-37.6l-10.7,39.8h-17.2l-21-24l-17.5,12.9
	l27.9,84.8l-22.7-18.9L520,768.9l-43.6-26.3l-12.8-6.4l-13.5-50.1L432.7,720l-17.1-11.4l0.5,4.4l-0.9-1.7v44.1L394.1,741l-7.2-56.4
	l-36.4-32.4l-4.2-3.6l-0.7,0.8l-0.7-2l-17.2-14.9l-23.5-83.7l-24.3-11.6l-22.2-31.4L238,553l1.1,3.7l-2.1-1.5l-44,88.9l-22.2-38.9
	l4-11.1l-8.2-10.3l22.8-57.9l4-33.8L158,463.8l-15.8-33.6l7.5-19.3l35.6-37.6V356l-1.2-1.4l62.8-16.7l7.1-59.6l7.5-28.7h7.4l29.6-54
	l8.8,18.6l23.9-12.5l8.3-9.3l14.7-4.9v-7.2l117.6-29.7L459.6,179l35-11.7l12.2,30L471.9,224l7.6,36.9l70.7-41l14.8,86.7l-6.2,7.2
	l6.1,57.8v0.2l-8.2,83l-11.3,35.7l31.8-15.5v-14l10.4-7.3l25.9-105.5l17.8,7.3l6.8-12.6l18,21.8l0.4-1l0.9,2l46.7-17.1V384l4.1,59.2
	l7.2,37.3l-22.6,40.1l-2,24.6l-25.4,43.3l-8-3l-25.5,58l-7-0.9l13.9,43.7l41.4-36.2l1.1,11.1l7.9-3.1l30.2-57v15.3l11.3-3.1v8.1
	l48.6-16.5L767.2,664l-31.5,38.5l-11.7-13l1.6,12.2h-8l5.9,24.7l-14.4,10.3l4.2,40.7H699l7.4,76.5l-33.6-36.7l-6.9,55.3l-0.1,0.2
	L653.2,899.2z M643.2,896.2h8.1l11.1-23.2l-9.2-3.1L643.2,896.2z M653.3,866.8l9.9,3.3l6.9-55.6l-30.4-19.4v0.6l6.9,58.4
	L653.3,866.8z M675.3,815.5l27.2,29.8l-5.1-52L677,782.4L675.3,815.5z M656.5,757.9l16,53.3l1.6-31l-10.2-30.7L656.5,757.9z
	 M639.5,791.4l29.6,18.9L653.5,758l-75.4-145.6l-0.5,0.4l-0.2-1.4l-11.5-1.6l70.3,125.8l1.7-0.6l-0.9,2.6L639.5,791.4z M676.8,779
	l20.3,10.7l-1.3-13.5l-12-49.4l-17.6,20.1L676.8,779z M622.9,743.3l-5.2,40.1l15.2-43.4L622.9,743.3z M698.5,774.4H710l-3.9-38.2
	l-7.3-31l-9.1,1.9v-0.3h-5.2l1,14.1L698.5,774.4z M478.6,740.2l41.6,25.2l5.6-31.9l-39.5-48l-22.2,1.9L478.6,740.2z M569.1,741.7
	h12.8l-12.3-54.9l-30.9-24.9l19,66.9L569.1,741.7z M596.3,700.5l25.9,39.9l11-3.7l-41.1-73.5l-8.8,10.4L596.3,700.5z M466.3,734
	l8.7,4.3l-13.9-51.2l-8.1-2.9L466.3,734z M572.6,686.3l11.3,50.6l9.5-35.5l-12.2-25.3L572.6,686.3z M701.7,704.7l6.8,28.8l11.7-8.3
	l-5.6-23.2L701.7,704.7z M524.5,684l11.2,41l10.3-7.6l4.4-3.6l-14.6-51.2L524.5,684z M549,718.8l4.1,4.7l-1.9-6.5L549,718.8z
	 M415.3,704.5l15,10l-11.8-70.4l-12-13.3l0.8,8.7L415.3,704.5z M420.3,637.2l12.7,75.7l16.1-31.3l-10.8-64.1l-2.6-27.5l-21.4-14.4
	l-0.2,0.3l5.4,12.4l0.8-0.5V637.2z M684.3,703.8h5.4l-0.9-42.3l-7.2,2.9L684.3,703.8z M580.5,610.6l47.5,91.7l8.3-13.5l-15.1-47.4
	l-16.9-49.7L580.5,610.6z M395.6,669.4l15.9,28.5l-6.5-52.2L395.6,669.4z M730.6,624.5l6.2,71.9l27.6-33.7l10.7-53.4L730.6,624.5z
	 M723.3,684.2l10.5,11.6l-6.1-70.4l-0.2,0.1v-8.3l-8.2,2.2L723.3,684.2z M463.2,683.5l0.2,0.8l22-1.9l-10.3-108.6L451,597.9
	L463.2,683.5z M452.1,680.7l8.1,2.9l-6.7-47.5l-11.2-13.5L452.1,680.7z M490.9,657.3l31.4,24.2l12.2-23.1L504.2,634L490.9,657.3z
	 M357.7,654.6l30,26.7l16.5-41.9l-1.1-11.9l-16.8-5.7L357.7,654.6z M505.3,631l30.7,24.8l25.5-48.1l-4.3-47.1l-29.5,37.5v-0.4
	L505.3,623V631z M485.6,653.3l2.9,2.2l13.7-24.2v-5l-11.1,12.5l-7-1.5L485.6,653.3z M348.3,646.4l4.1,3.6l3,2.6l45-51.7l-2.6-7.6
	L348.3,646.4z M330.3,630.8l12.6,10.9l-33.1-94.9l-2.6,1.7L330.3,630.8z M623.7,639.5l5,0.6L613,584.7l-6.2,4.9L623.7,639.5z
	 M405.9,625.8l11.6,12.8l-0.2-1.3v-44.1l-13.6,8.8L405.9,625.8z M174.1,604.9l18.7,32.8l41.7-84.3l-32.9-24.2l-23.3,64.3l0,0
	L174.1,604.9z M615.5,582.7l15.6,54.8l23.8-54.2l1.6-33.2L615.5,582.7z M483.8,634.2l6.2,1.3l25-28l-2.5-57.4l-34.6,21.2
	L483.8,634.2z M441.3,616.7l11.3,13.7l-4.6-32.1l-9.1-6.1L441.3,616.7z M388.4,619.3l14.4,4.9l-1.8-19.4L388.4,619.3z M564.4,606.7
	l12.3,1.7l-9.2-51.6L560,558L564.4,606.7z M515.5,549.7l2.4,54.6l9.8-11V554L515.5,549.7z M400.1,590.8l2.8,8.1l14-9l-5-11.7
	L400.1,590.8z M415.4,572.7l33.8,22.8l25.7-25.7l16-67.1l-51.7,57.8l-0.5-1.5h-27.2L415.4,572.7z M170.1,583.3l6,7.5l22.7-62.6
	l-6.9-0.4L170.1,583.3z M530.7,552.9v36.5l25.7-32.6l-24.6-24.3L530.7,552.9z M657.9,582.6l5.9,2.2l23.4-39.8l-24-23l-3.5,24.9
	L657.9,582.6z M410.7,556h27.1l-20.5-64.8l3-15.5L396,494.1l7.5,39.1l1.3,2.4L410.7,556z M532.6,529l26.4,26.1l20.9-3.2l-9.9-64
	L532.6,529z M420.5,491.6l19.9,63l51.7-57.8l-6.4-59.8L420.5,491.6z M572.5,485.1l10.3,66.4l0.5-0.1l46.6-16.5l13.3-102.3l-10,6.5
	l-53.1,37.8v0.2l-0.6,0.3L572.5,485.1z M515.6,546.5l12.3,4.3l1.1-21.1l-0.5-0.5l0.6-0.7l1.1-21l-9.4,5.8L515.6,546.5z M211.7,460.5
	l25,87.8l19.1-45.7l-16.3-62.4l-11.7,7.9L211.7,460.5z M282.1,534.9l23.2,11.1l27.2-17.6l-15.8-50.7l-0.4-0.3l0.1-0.7l-24.1-77.2
	l-36.2,29.2l-4.2,2.8L282.1,534.9z M632.9,535l24,9.6l9.1-64.4l-20.2-45.1L632.9,535z M663.7,518.3l24.2,23.1l1.8-21.3l-2-39.1
	l-22.6-10.3l4.1,9.1L663.7,518.3z M258.7,502.1l18.2,25.7l-27.6-94.3l-7.3,5L258.7,502.1z M330.8,512.8l4.3,13.7l41.1-34l-14.2-8.4
	l-14.4,10.8L330.8,512.8z M192.5,524.9l6.9,0.4l5.9-63.7l1.9-1.4l-40.7-23.8l-5.7,26l35.7,28.6L192.5,524.9z M533.2,505.7l-1,19.3
	l38.3-42.1L533.2,505.7z M379.3,490l19.6,35l-14.5-75.6l-27-17l5.9,49.1l15.3,9.1L379.3,490z M495.2,496.3l24.1,14.3L540,498
	l0.5-1.6l-0.1,0.1l1-3.1l6-122.6l-61,41.8l1.1,10.8l0.5,0.7l-0.4,0.3L495.2,496.3z M320.6,480l9.2,29.5l14.4-15.4L320.6,480z
	 M544.1,494.6l-0.3,1.1l7.5-4.6L544.1,494.6z M393.9,482.9l1.5,7.9l88.9-67.9l-0.9-8.5l-42.7,29.2L393.9,482.9z M423.8,472.9
	l-2.7,14.3l64.4-53.9l-0.7-6.9L423.8,472.9z M546.6,446.4l-1.7,35.6l8.5-27.1L546.6,446.4z M687.4,466.6l24.2,11.1l-6.6-34l1.5-0.3
	l-1.5,0.1l-3.9-57.2l-29.6,13.1L687.4,466.6z M663.2,466.5l23.7,10.8l-18-75.5l-22.1,27.9L663.2,466.5z M580.1,462.6v10.6l50.8-36.3
	l2.3-14.1l-43.1,32.7l0,0L580.1,462.6z M293.9,394.6l23.8,76.2l12.6-61.3l-7.5-3.7l-0.2,0.1l-0.8-0.6l-0.5-0.3v-0.2L289.1,381
	L293.9,394.6L293.9,394.6z M145.4,430.1l13.2,28.2l5.3-24L151.3,415L145.4,430.1z M166.6,432.8l43.3,25.3l15.3-11.7l-3.4-8.8
	l-35.3-61.3l-33.6,35.5L166.6,432.8z M615.5,352.4l-24.2,98.5l18.4-13.9l20.3-78.6L615.5,352.4z M546.8,441.9l7.1,8.9l7.5-76.4
	l-8.6-7.7l-2.5,1.7L546.8,441.9z M415.5,400.7l-23-43.1l-31.3,32.3l9.2,47l14.9,9.4 M330.8,422.2l25.1,22.4l-2.2-18.2l13.2,8.3
	l-8.5-44.2l-2.1-0.8l-22.9,19.6L330.8,422.2z M223.2,412.8l4.8,31.6l20.4-13.9l-1.7-5.8L233.6,410L223.2,412.8z M431.6,381.3
	l9.3,58.5l9.6-6.6l-4.7-39.4l-15.1-19.1L431.6,381.3z M188.3,373.4l35.3,61.4l-3.7-24.2l11.5-3.1l-43.1-48.2L188.3,373.4
	L188.3,373.4z M636.8,419.8l-2.5,15l9.7-6.3l23.8-30.2l-11.5-26.7L636.8,419.8z M633.2,358l-19.7,76l20.6-15.6l20.5-50.5l-16.2-19.6
	L633.2,358z M444.6,358.9l8.7,72.5l45.5-31.1l-12.9-59L444.6,358.9z M249.8,424.3l1.3,4.4l3.3-2.3l37-29.8l-5.9-16.7L249.8,424.3z
	 M325.4,403.7l6.4,3.1l21.2-18.2l-6.1-2.2L325.4,403.7z M318.7,376.2l4.9,25.1l20-16.1L318.7,376.2z M287,375.8l33.4,24.7l-5-25.6
	h-0.1l-0.1-0.9l-0.2-0.8l0.1-0.1l-5.6-54.7L282,370.7L287,375.8z M398.8,351.2l18.3,45.1l9.3-31.6l-5-36.8L398.8,351.2z M427.3,372
	l-5.8,19.8l7-10.6L427.3,372z M429.9,369l15.2,19.2l-9.1-75.4l-12,12.4L429.9,369z M319.6,373.3l38.4,13.9l-3.7-45L319.6,373.3z
	 M394.7,355.4l10.4,19.4l-8.6-21.3L394.7,355.4z M317.4,366.4l0.4,4.4l35.9-32.1l-2.5-6.3l-33.5,34.4L317.4,366.4z M553.2,363
	l8.5,7.6l-5.3-50.1l-10.2,30.4l3.7,14.3L553.2,363z M251.8,340.6l28,28l29.1-55l-28.2-42.8l-21.9,69.8L251.8,340.6L251.8,340.6z
	 M356.9,338.3l24.1,27l10.4-10.7l-2.4-37.4l-35.2,13.3L356.9,338.3z M311.2,310.8l-1.3-2.7l56.7-27l0.9-24.6l-43.8,26.8l-17.9,20.5
	l6.4,9.7l-0.1,0.3l5,49.3l32.9-33.8l-0.2-0.5l13.7-5.2l2.9-39.1 M443.4,348.4l0.9,7.3l41.6-17.8l7.4-19.4L443.4,348.4z M531.6,294.8
	l13.2,50.9l10.8-32.3v-0.3l6.1-7.1l-13-76.3L531.6,294.8z M438.7,310l4.2,35.2l85.7-51.4l17.9-68.3l-67.4,39.1l-8.3,5.7v0.1
	l-43.8,24l12,15L438.7,310z M249.8,337.6h6.7l8.8-28.1l-9.2-24.5L249.8,337.6z M369.5,283l-3,39.4l1.1-0.4l11.6-55.1l-8.8-9.5
	L369.5,283z M381.8,269.6L371,320.7l18.1-6.8l8.7-26.9L381.8,269.6z M256.9,278.6l9.9,26.2l14.4-45.9l-11.9-6.3h-5.6L256.9,278.6z
	 M281.8,267l22.4,34l17.2-19.6l-0.2-54l-3.6,1.3l-31.2,32.8l-2.4-1.3L281.8,267z M416.4,250.8l23.9,33.1l27-14.9l-11.4-37.1
	L416.4,250.8z M371.5,254l27.5,29.8l13.7-34.1l15.3-58.9l-27.4,7.3l-26,54L371.5,254z M458.7,230.6l11.3,36.7l6.7-4.7l-7.6-37.1
	L458.7,230.6z M271.7,250.5l14,7.4l28.9-30.4l-8.5-9.4l-0.4,0.2l-7.6-16.1L271.7,250.5z M447.2,185.6L417.4,247l38.4-18.4l34.5-56.7
	l-36.1,12l0.1-0.2L447.2,185.6z M431.4,189.9l-12,46.1l23.9-49.3L431.4,189.9z M493.4,172.5l-32.7,53.7l8.6-4.1l33.8-25.8
	L493.4,172.5z M308.9,216.7l8.2,9.1l4.3-1.6l7.6-17.9L308.9,216.7z M333.3,203.8l-8,18.9l77.2-28.6l-0.2,0.4l53.4-14.3l10.7-25
	L356,190.1l-15,5L333.3,203.8z M357.1,182.7v3.9l62.6-19.7L357.1,182.7z"/>
</svg>
