<?xml version="1.0" encoding="utf-8"?>
<!-- Generator: Adobe Illustrator 17.1.0, SVG Export Plug-In . SVG Version: 6.00 Build 0)  -->
<!DOCTYPE svg PUBLIC "-//W3C//DTD SVG 1.1//EN" "http://www.w3.org/Graphics/SVG/1.1/DTD/svg11.dtd">
<svg version="1.1" id="Layer_1" xmlns="http://www.w3.org/2000/svg" xmlns:xlink="http://www.w3.org/1999/xlink" x="0px" y="0px"
	 viewBox="0 0 1000 1000" enable-background="new 0 0 1000 1000" xml:space="preserve">
<path fill="#EB008B" d="M248.2,426.3L184,354.6l64.6-17.2l39.4,39.4L248.2,426.3z M189.5,356.2l58.6,65.4L284,377l-36.3-36.3
	L189.5,356.2z"/>
<path fill="none" stroke="#EB008B" stroke-width="3" stroke-miterlimit="10" d="M269.6,251.1"/>
<polygon fill="#EB008B" points="286.3,261.6 268.9,252.4 270.3,249.7 285.7,257.9 314.6,227.5 305.4,217.3 307.6,215.3 318.7,227.6 
	"/>
<polygon fill="#EB008B" points="350.5,652.2 327.7,632.5 304.2,548.8 279.9,537.2 257.7,505.8 237.8,553.5 193,644.1 170.8,605.2 
	174.8,594.1 166.6,583.8 189.4,525.9 193.4,492.1 157.9,463.8 142.2,430.2 149.7,410.9 185.3,373.2 185.3,355.4 188.3,355.4 
	188.3,374.4 152.2,412.5 145.4,430.1 160.3,461.9 196.5,490.8 192.2,526.8 170.1,583.3 178.2,593.5 174.1,604.9 192.8,637.7 
	235,552.2 257,499.7 281.9,534.8 306.7,546.7 330.3,630.8 352.5,650 "/>
<polygon fill="#EB008B" points="258.7,340.6 246.5,340.6 253.9,278.3 261.3,249.6 268.7,249.6 298.4,195.6 307.2,214.2 331.4,201.6 
	332.7,204.3 305.8,218.3 298.2,202.2 270.5,252.6 263.6,252.6 256.8,279 249.8,337.6 256.5,337.6 281.5,257.7 284.4,258.6 "/>
<polygon fill="#EB008B" points="281.4,371.7 278.8,370.3 308.8,313.6 278.9,268.1 281.4,266.4 312.3,313.4 "/>
<rect x="311.9" y="278.5" transform="matrix(0.7526 0.6585 -0.6585 0.7526 270.3391 -133.9489)" fill="#EB008B" width="3" height="28.6"/>
<path fill="none" stroke="#EB008B" stroke-width="3" stroke-miterlimit="10" d="M316.7,227.5"/>
<rect x="244.7" y="292.6" transform="matrix(0.3529 0.9357 -0.9357 0.3529 444.111 -54.0141)" fill="#EB008B" width="32.8" height="3"/>
<polygon fill="#EB008B" points="177.9,594.3 175.1,593.3 199.4,526.5 205.4,461.5 225.1,446.5 221.7,437.7 185.5,374.6 188.1,373.1 
	224.4,436.4 228.7,447.5 208.3,463.1 202.3,527.1 "/>
<polygon fill="#EB008B" points="239,556.7 200.3,528.3 190.8,527.8 190.9,524.8 201.4,525.3 233.7,549.1 208.7,460.9 164.5,435.1 
	149.7,412.5 152.2,410.9 166.6,432.8 211.2,459 "/>
<rect x="160.8" y="433.6" transform="matrix(0.9764 0.2162 -0.2162 0.9764 100.7694 -24.4899)" fill="#EB008B" width="3" height="29.6"/>
<polygon fill="#EB008B" points="332.9,529.5 292.4,399.7 256.2,428.9 225.8,449.6 219.9,410.6 233.8,406.9 234.5,409.8 223.2,412.8 
	228,444.4 254.4,426.5 293.9,394.6 335.8,528.6 "/>
<rect x="337.8" y="263.8" transform="matrix(0.4299 0.9029 -0.9029 0.4299 460.4289 -137.791)" fill="#EB008B" width="3" height="63.7"/>
<polygon fill="#EB008B" points="321.3,282 321.1,225 330.7,202.4 333.4,203.6 324.1,225.7 324.3,282 "/>
<polygon fill="#EB008B" points="359.2,390.9 315.3,374.9 309.1,313.6 312,313.3 318.1,372.8 360.2,388 "/>
<polygon fill="#EB008B" points="346.7,495.6 316.3,477.5 330.3,409.5 321.3,405 315.1,373.3 353.8,338.6 350.4,330.1 353.2,329 
	357.4,339.5 318.3,374.4 323.9,403 333.7,407.8 319.7,476 346.5,492 360.4,481.6 354.1,429.5 357.1,429.2 363.6,483 "/>
<path fill="none" stroke="#EB008B" stroke-width="3" stroke-miterlimit="10" d="M368.1,282"/>
<rect x="365" y="282" transform="matrix(0.9972 7.487898e-02 -7.487898e-02 0.9972 23.7415 -26.592)" fill="#EB008B" width="3" height="42.7"/>
<rect x="332.7" y="322.5" transform="matrix(0.7168 0.6973 -0.6973 0.7168 337.0428 -134.6121)" fill="#EB008B" width="3" height="50.3"/>
<rect x="332.3" y="362.7" transform="matrix(8.094869e-02 0.9967 -0.9967 8.094869e-02 691.7225 -21.6838)" fill="#EB008B" width="50.6" height="3"/>
<polygon fill="#EB008B" points="322.6,405.9 289.1,381 294.6,396.6 291.8,397.6 282.9,372.8 322.6,402.1 345.7,383.5 347.6,385.9 
	"/>
<rect x="206.2" y="478.5" transform="matrix(0.2805 0.9599 -0.9599 0.2805 651.0348 91.4504)" fill="#EB008B" width="116.7" height="3"/>
<rect x="215.3" y="468.8" transform="matrix(0.2531 0.9674 -0.9674 0.2531 640.8498 110.4958)" fill="#EB008B" width="67.1" height="3"/>
<rect x="318.4" y="521.2" transform="matrix(0.5427 0.8399 -0.8399 0.5427 598.5305 -22.461)" fill="#EB008B" width="3" height="34.4"/>
<rect x="274.3" y="594" transform="matrix(0.3294 0.9442 -0.9442 0.3294 782.4303 89.2834)" fill="#EB008B" width="108.1" height="3"/>
<path fill="none" stroke="#EB008B" stroke-width="3" stroke-miterlimit="10" d="M355.6,654.7"/>
<rect x="336.4" y="490.3" transform="matrix(0.7286 0.685 -0.685 0.7286 436.3088 -94.8822)" fill="#EB008B" width="3" height="25.5"/>
<rect x="324.2" y="434.1" transform="matrix(0.7459 0.6661 -0.6661 0.7459 377.4033 -118.1164)" fill="#EB008B" width="38.5" height="3"/>
<rect x="342.3" y="383" transform="matrix(0.651 0.7591 -0.7591 0.651 422.5031 -121.889)" fill="#EB008B" width="3" height="31"/>
<path fill="none" stroke="#EB008B" stroke-width="3" stroke-miterlimit="10" d="M362,482.3"/>
</svg>
