<?xml version="1.0" encoding="utf-8"?>
<!-- Generator: Adobe Illustrator 18.0.0, SVG Export Plug-In . SVG Version: 6.00 Build 0)  -->
<!DOCTYPE svg PUBLIC "-//W3C//DTD SVG 1.1//EN" "http://www.w3.org/Graphics/SVG/1.1/DTD/svg11.dtd">
<svg version="1.1" id="Layer_1" xmlns="http://www.w3.org/2000/svg" xmlns:xlink="http://www.w3.org/1999/xlink" x="0px" y="0px"
	 viewBox="1196 764 200 200" enable-background="new 1196 764 200 200" xml:space="preserve">
<g>
	<rect x="1279.9" y="781.3" fill="#FFFFFF" stroke="#16B34C" stroke-miterlimit="10" width="48.8" height="5.4"/>
	<rect x="1285.4" y="778.5" fill="#FFFFFF" stroke="#16B34C" stroke-miterlimit="10" width="43.3" height="2.8"/>
	<polygon fill="#FFFFFF" stroke="#16B34C" stroke-miterlimit="10" points="1331.4,786.6 1331.4,794.8 1296.1,794.8 1288,786.6 	"/>
	<rect x="1285.3" y="794.8" fill="#FFFFFF" stroke="#16B34C" stroke-miterlimit="10" width="46" height="2.8"/>
	<polygon fill="#FFFFFF" stroke="#16B34C" stroke-miterlimit="10" points="1336.8,797.5 1336.8,800.1 1307,800.1 1304.3,797.5 	"/>
	<polygon fill="#FFFFFF" stroke="#16B34C" stroke-miterlimit="10" points="1336.8,800.1 1336.8,802.9 1304.3,802.9 1301.6,800.1 	
		"/>
	<rect x="1233.6" y="786.6" fill="#FFFFFF" stroke="#16B34C" stroke-miterlimit="10" width="154.3" height="2.8"/>
	<rect x="1279.9" y="927.7" fill="#FFFFFF" stroke="#16B34C" stroke-miterlimit="10" width="48.8" height="5.4"/>
	<rect x="1293.5" y="917" fill="#FFFFFF" stroke="#16B34C" stroke-miterlimit="10" width="35.3" height="5.4"/>
	<polygon fill="#FFFFFF" stroke="#16B34C" stroke-miterlimit="10" points="1328.7,917 1298.9,917 1296.1,914.2 1328.7,914.2 	"/>
	<polygon fill="#FFFFFF" stroke="#16B34C" stroke-miterlimit="10" points="1298.9,917 1277.1,917 1274.5,914.2 1296.1,914.2 	"/>
	<polygon fill="#FFFFFF" stroke="#16B34C" stroke-miterlimit="10" points="1293.5,922.4 1285.3,922.4 1279.9,917 1293.5,917 	"/>
	<rect x="1296.1" y="922.4" fill="#FFFFFF" stroke="#16B34C" stroke-miterlimit="10" width="32.5" height="2.8"/>
	<rect x="1285.4" y="925.1" fill="#FFFFFF" stroke="#16B34C" stroke-miterlimit="10" width="43.3" height="2.8"/>
	<polygon fill="#FFFFFF" stroke="#16B34C" stroke-miterlimit="10" points="1331.4,933.1 1331.4,941.2 1296.1,941.2 1288,933.1 	"/>
	<rect x="1285.3" y="941.2" fill="#FFFFFF" stroke="#16B34C" stroke-miterlimit="10" width="46" height="2.8"/>
	<polygon fill="#FFFFFF" stroke="#16B34C" stroke-miterlimit="10" points="1336.8,944 1336.8,946.7 1307,946.7 1304.3,944 	"/>
	<polygon fill="#FFFFFF" stroke="#16B34C" stroke-miterlimit="10" points="1336.8,946.7 1336.8,949.5 1304.3,949.5 1301.6,946.7 	
		"/>
	<polygon fill="#FFFFFF" stroke="#16B34C" stroke-miterlimit="10" points="1372.8,925 1225.3,925 1222.7,922.2 1370.1,922.2 	"/>
	<polygon fill="#FFFFFF" stroke="#16B34C" stroke-miterlimit="10" points="1367.4,930.3 1233.4,930.3 1228.1,925 1367.4,925 	"/>
	<rect x="1233.6" y="933.1" fill="#FFFFFF" stroke="#16B34C" stroke-miterlimit="10" width="154.3" height="2.8"/>
	<polygon fill="#FFFFFF" stroke="#16B34C" stroke-miterlimit="10" points="1336.8,908.9 1336.8,911.5 1307,911.5 1304.3,908.9 	"/>
	<polygon fill="#FFFFFF" stroke="#16B34C" stroke-miterlimit="10" points="1336.8,911.5 1336.8,914.2 1304.3,914.2 1301.6,911.5 	
		"/>
	<rect x="1217" y="897.6" fill="#FFFFFF" stroke="#16B34C" stroke-miterlimit="10" width="147.9" height="11.3"/>
	<polygon fill="#FFFFFF" stroke="#16B34C" stroke-miterlimit="10" points="1197.9,830.3 1216.6,849 1284.8,849 1284.8,830.3 	"/>
	<polygon fill="#FFFFFF" stroke="#16B34C" stroke-miterlimit="10" points="1309.6,849 1261,897.6 1261,897.6 1309.6,897.6 	"/>
	<rect x="1284.8" y="836.8" fill="#FFFFFF" stroke="#16B34C" stroke-miterlimit="10" width="109.3" height="4.7"/>
	<rect x="1284.8" y="841.6" fill="#FFFFFF" stroke="#16B34C" stroke-miterlimit="10" width="104.9" height="7.4"/>
	<rect x="1309.6" y="849" fill="#FFFFFF" stroke="#16B34C" stroke-miterlimit="10" width="5.5" height="48.5"/>
	<rect x="1315.2" y="862.8" fill="#FFFFFF" stroke="#16B34C" stroke-miterlimit="10" width="56.2" height="8.8"/>
	<rect x="1315.2" y="871.6" fill="#FFFFFF" stroke="#16B34C" stroke-miterlimit="10" width="33.2" height="25.9"/>
	<rect x="1356.5" y="789.4" fill="#FFFFFF" stroke="#16B34C" stroke-miterlimit="10" width="6.3" height="47.4"/>
	<rect x="1284.8" y="815.6" fill="#FFFFFF" stroke="#16B34C" stroke-miterlimit="10" width="71.5" height="21.2"/>
</g>
</svg>
