<?xml version="1.0" encoding="utf-8"?>
<!-- Generator: Adobe Illustrator 17.1.0, SVG Export Plug-In . SVG Version: 6.00 Build 0)  -->
<!DOCTYPE svg PUBLIC "-//W3C//DTD SVG 1.1//EN" "http://www.w3.org/Graphics/SVG/1.1/DTD/svg11.dtd">
<svg version="1.1" id="Layer_1" xmlns="http://www.w3.org/2000/svg" xmlns:xlink="http://www.w3.org/1999/xlink" x="0px" y="0px"
	 viewBox="0 0 1000 1000" enable-background="new 0 0 1000 1000" xml:space="preserve">
<polygon fill="#FFFFFF" stroke="#231F20" stroke-miterlimit="10" points="112.4,262.5 159.3,181.2 206.2,100 253.1,181.2 300,262.5 
	206.2,262.5 "/>
<polygon fill="#FFFFFF" stroke="#231F20" stroke-miterlimit="10" points="225.3,120.5 250.6,158.3 273.3,200.7 318.7,282.3 
	225.3,280.8 133.2,280 177.3,200.7 "/>
<polygon fill="#FFFFFF" stroke="#231F20" stroke-miterlimit="10" points="244.4,141 271.6,176 293.5,220.1 337.4,302.1 244.4,299.1 
	154,297.6 195.3,220.1 "/>
<polygon fill="#FFFFFF" stroke="#231F20" stroke-miterlimit="10" points="263.5,161.5 292.5,193.7 313.7,239.5 356.1,321.9 
	263.5,317.4 174.8,315.1 213.3,239.5 "/>
<polygon fill="#FFFFFF" stroke="#231F20" stroke-miterlimit="10" points="282.6,182 313.5,211.4 333.9,258.9 374.8,341.7 
	282.6,335.7 195.6,332.7 231.3,258.9 "/>
<polygon fill="#FFFFFF" stroke="#231F20" stroke-miterlimit="10" points="301.7,202.6 334.5,229.1 354.2,278.3 393.5,361.5 
	301.7,354 216.5,350.2 249.3,278.3 "/>
<polygon fill="#FFFFFF" stroke="#231F20" stroke-miterlimit="10" points="320.8,223.1 355.5,246.7 374.4,297.7 412.2,381.3 
	320.8,372.3 237.3,367.7 267.3,297.7 "/>
<polygon fill="#FFFFFF" stroke="#231F20" stroke-miterlimit="10" points="339.9,243.6 376.4,264.4 394.6,317.1 430.9,401.2 
	339.9,390.6 258.1,385.3 285.3,317.1 "/>
<polygon fill="#FFFFFF" stroke="#231F20" stroke-miterlimit="10" points="359,264.1 397.4,282.1 414.8,336.5 449.6,421 359,408.9 
	278.9,402.8 303.2,336.5 "/>
<polygon fill="#FFFFFF" stroke="#231F20" stroke-miterlimit="10" points="378.1,284.6 418.4,299.8 435,355.9 468.3,440.8 
	378.1,427.2 299.8,420.3 321.2,355.9 "/>
<polygon fill="#FFFFFF" stroke="#231F20" stroke-miterlimit="10" points="397.2,305.1 439.3,317.5 455.2,375.3 487,460.6 
	397.2,445.4 320.6,437.9 339.2,375.3 "/>
<polygon fill="#FFFFFF" stroke="#231F20" stroke-miterlimit="10" points="416.3,325.6 460.3,335.2 475.4,394.7 505.7,480.4 
	416.3,463.7 341.4,455.4 357.2,394.7 "/>
<polygon fill="#FFFFFF" stroke="#231F20" stroke-miterlimit="10" points="435.4,346.1 481.3,352.9 495.6,414.1 524.4,500.2 
	435.4,482 362.2,473 375.2,414.1 "/>
<polygon fill="#FFFFFF" stroke="#231F20" stroke-miterlimit="10" points="454.5,366.6 502.2,370.5 515.9,433.5 543.1,520 
	454.5,500.3 383,490.5 393.2,433.5 "/>
<polygon fill="#FFFFFF" stroke="#231F20" stroke-miterlimit="10" points="473.7,387.1 523.2,388.2 536.1,452.9 561.8,539.8 
	473.7,518.6 403.9,508 411.2,452.9 "/>
<polygon fill="#FFFFFF" stroke="#231F20" stroke-miterlimit="10" points="492.8,408.5 544.2,406.8 556.3,473.2 580.5,560.5 
	492.8,537.8 424.7,526.4 429.2,473.2 "/>
<polygon fill="#FFFFFF" stroke="#231F20" stroke-miterlimit="10" points="511.9,430.4 565.1,425.9 576.5,494 599.2,581.7 
	511.9,557.5 445.5,545.4 447.2,494 "/>
<polygon fill="#FFFFFF" stroke="#231F20" stroke-miterlimit="10" points="531.5,452.4 586.7,445 597.3,514.8 618.4,602.9 
	531.5,577.2 466.9,564.3 465.8,514.8 "/>
<polygon fill="#FFFFFF" stroke="#231F20" stroke-miterlimit="10" points="552,474.3 609,464.1 618.9,535.6 638.6,624.1 552,596.9 
	489.1,583.3 485.2,535.6 "/>
<polygon fill="#FFFFFF" stroke="#231F20" stroke-miterlimit="10" points="572.5,496.2 631.4,483.2 640.5,556.4 658.7,645.4 
	572.5,616.6 511.3,602.2 504.6,556.4 "/>
<polygon fill="#FFFFFF" stroke="#231F20" stroke-miterlimit="10" points="593.1,518.1 653.8,502.3 662.1,577.2 678.8,666.6 
	593.1,636.3 533.6,621.2 524,577.2 "/>
<polygon fill="#FFFFFF" stroke="#231F20" stroke-miterlimit="10" points="613.6,540.1 676.2,521.4 683.8,598 698.9,687.8 613.6,656 
	555.8,640.1 543.4,598 "/>
<polygon fill="#FFFFFF" stroke="#231F20" stroke-miterlimit="10" points="634.1,562 698.6,540.5 705.4,618.9 719,709 634.1,675.7 
	578,659.1 562.8,618.9 "/>
<polygon fill="#FFFFFF" stroke="#231F20" stroke-miterlimit="10" points="654.6,583.9 720.9,559.6 727,639.7 739.1,730.2 
	654.6,695.4 600.3,678 582.2,639.7 "/>
<polygon fill="#FFFFFF" stroke="#231F20" stroke-miterlimit="10" points="675.1,605.8 743.3,578.7 748.6,660.5 759.2,751.5 
	675.1,715.1 622.5,697 601.6,660.5 "/>
<polygon fill="#FFFFFF" stroke="#231F20" stroke-miterlimit="10" points="695.6,627.7 765.7,597.8 770.3,681.3 779.3,772.7 
	695.6,734.9 644.7,715.9 621,681.3 "/>
<polygon fill="#FFFFFF" stroke="#231F20" stroke-miterlimit="10" points="716.2,649.7 788.1,616.9 791.9,702.1 799.4,793.9 
	716.2,754.6 667,734.9 640.5,702.1 "/>
<polygon fill="#FFFFFF" stroke="#231F20" stroke-miterlimit="10" points="736.7,671.6 810.5,636 813.5,722.9 819.6,815.1 
	736.7,774.3 689.2,753.8 659.9,722.9 "/>
<polygon fill="#FFFFFF" stroke="#231F20" stroke-miterlimit="10" points="757.2,693.5 832.9,655.1 835.1,743.7 839.7,836.3 
	757.2,794 711.4,772.8 679.3,743.7 "/>
<polygon fill="#FFFFFF" stroke="#231F20" stroke-miterlimit="10" points="777.7,715.4 855.2,674.2 856.8,764.6 859.8,857.6 
	777.7,813.7 733.7,791.7 698.7,764.6 "/>
<polygon fill="#FFFFFF" stroke="#231F20" stroke-miterlimit="10" points="798.2,737.3 877.6,693.3 878.4,785.4 879.9,878.8 
	798.2,833.4 755.9,810.7 718.1,785.4 "/>
<polygon fill="#FFFFFF" stroke="#231F20" stroke-miterlimit="10" points="900,900 818.8,853.1 737.5,806.2 818.8,759.3 900,712.4 
	900,806.2 "/>
<polygon fill="#FFFFFF" stroke="#231F20" stroke-miterlimit="10" points="816.2,741.6 897.8,696.9 895.7,789.9 893.7,882.9 
	814.6,836.1 735.5,789.3 773.9,763.7 795.1,752.6 "/>
<polygon fill="#FFFFFF" stroke="#231F20" stroke-miterlimit="10" points="813.7,724 895.6,681.4 891.5,773.7 887.4,865.9 
	810.5,819.1 733.6,772.3 769.8,744.6 791.7,734.3 "/>
<polygon fill="#FFFFFF" stroke="#231F20" stroke-miterlimit="10" points="811.1,706.4 893.4,666 887.2,757.4 881.1,848.8 
	806.3,802.1 731.6,755.4 765.6,725.5 788.4,716 "/>
<polygon fill="#FFFFFF" stroke="#231F20" stroke-miterlimit="10" points="808.6,688.7 891.2,650.5 883,741.1 874.8,831.7 
	802.2,785.1 729.6,738.5 761.4,706.5 785,697.6 "/>
<polygon fill="#FFFFFF" stroke="#231F20" stroke-miterlimit="10" points="806.1,671.1 889,635.1 878.7,724.9 868.4,814.7 798,768.1 
	727.7,721.5 757.2,687.4 781.6,679.3 "/>
<polygon fill="#FFFFFF" stroke="#231F20" stroke-miterlimit="10" points="803.5,653.4 886.8,619.6 874.4,708.6 862.1,797.6 
	793.9,751.1 725.7,704.6 753,668.4 778.3,660.9 "/>
<polygon fill="#FFFFFF" stroke="#231F20" stroke-miterlimit="10" points="801,635.8 884.6,604.2 870.2,692.4 855.8,780.6 
	789.8,734.1 723.7,687.7 748.9,649.3 774.9,642.6 "/>
<polygon fill="#FFFFFF" stroke="#231F20" stroke-miterlimit="10" points="798.4,618.2 882.3,588.7 865.9,676.1 849.5,763.5 
	785.6,717.1 721.7,670.8 744.7,630.2 771.6,624.2 "/>
<polygon fill="#FFFFFF" stroke="#231F20" stroke-miterlimit="10" points="795.9,600.5 880.1,573.2 861.7,659.8 843.2,746.4 
	781.5,700.1 719.8,653.8 740.5,611.2 768.2,605.9 "/>
<polygon fill="#FFFFFF" stroke="#231F20" stroke-miterlimit="10" points="793.4,582.9 877.9,557.8 857.4,643.6 836.9,729.4 
	777.3,683.1 717.8,636.9 736.3,592.1 764.9,587.5 "/>
<polygon fill="#FFFFFF" stroke="#231F20" stroke-miterlimit="10" points="790.8,565.3 875.7,542.3 853.1,627.3 830.6,712.3 
	773.2,666.1 715.8,620 732.2,573.1 761.5,569.2 "/>
<polygon fill="#FFFFFF" stroke="#231F20" stroke-miterlimit="10" points="788.3,547.6 873.5,526.9 848.9,611 824.3,695.2 
	769.1,649.1 713.9,603.1 728,554 758.1,550.8 "/>
<polygon fill="#FFFFFF" stroke="#231F20" stroke-miterlimit="10" points="785.8,530 871.3,511.4 844.6,594.8 817.9,678.2 
	764.9,632.1 711.9,586.1 723.8,534.9 754.8,532.5 "/>
<polygon fill="#FFFFFF" stroke="#231F20" stroke-miterlimit="10" points="783.2,512.3 869.1,495.9 840.4,578.5 811.6,661.1 
	760.8,615.2 709.9,569.2 719.6,515.9 751.4,514.1 "/>
<polygon fill="#FFFFFF" stroke="#231F20" stroke-miterlimit="10" points="780.7,494.7 866.9,480.5 836.1,562.3 805.3,644 
	756.6,598.2 708,552.3 715.4,496.8 748.1,495.8 "/>
<polygon fill="#FFFFFF" stroke="#231F20" stroke-miterlimit="10" points="778.1,477.1 864.7,465 831.8,546 799,627 752.5,581.2 
	706,535.3 711.3,477.8 744.7,477.4 "/>
<polygon fill="#FFFFFF" stroke="#231F20" stroke-miterlimit="10" points="775.6,459.4 862.5,449.6 827.6,529.7 792.7,609.9 
	748.4,564.2 704,518.4 707.1,458.7 741.3,459.1 "/>
<polygon fill="#FFFFFF" stroke="#231F20" stroke-miterlimit="10" points="773.1,441.8 860.3,434.1 823.3,513.5 786.4,592.8 
	744.2,547.2 702,501.5 702.9,439.6 738,440.7 "/>
<polygon fill="#FFFFFF" stroke="#231F20" stroke-miterlimit="10" points="771.2,424.2 858.8,418.6 819.8,497.2 780.7,575.8 
	740.8,530.2 700.8,484.6 699.4,420.6 735.3,422.4 "/>
<polygon fill="#FFFFFF" stroke="#231F20" stroke-miterlimit="10" points="769.8,407.4 857.7,404 816.6,481.8 775.5,559.6 737.7,514 
	699.9,468.5 696.3,402.4 733.1,404.9 "/>
<polygon fill="#FFFFFF" stroke="#231F20" stroke-miterlimit="10" points="768.3,391.5 856.6,390.4 813.4,467.3 770.3,544.3 
	734.7,498.8 699,453.3 693.2,385.1 730.8,388.3 "/>
<polygon fill="#FFFFFF" stroke="#231F20" stroke-miterlimit="10" points="766.9,375.7 855.5,376.7 810.3,452.9 765.1,529 
	731.6,483.6 698.2,438.2 690.2,367.8 728.5,371.8 "/>
<polygon fill="#FFFFFF" stroke="#231F20" stroke-miterlimit="10" points="765.5,359.8 854.4,363.1 807.1,438.4 759.9,513.8 
	728.6,468.4 697.3,423.1 687.1,350.6 726.3,355.2 "/>
<polygon fill="#FFFFFF" stroke="#231F20" stroke-miterlimit="10" points="764,344 853.2,349.4 804,424 754.7,498.5 725.6,453.2 
	696.4,408 684,333.3 724,338.7 "/>
<polygon fill="#FFFFFF" stroke="#231F20" stroke-miterlimit="10" points="762.6,328.2 852.1,335.7 800.8,409.5 749.5,483.2 
	722.5,438 695.6,392.8 680.9,316.1 721.8,322.1 "/>
<polygon fill="#FFFFFF" stroke="#231F20" stroke-miterlimit="10" points="761.2,312.3 851,322.1 797.7,395 744.3,468 719.5,422.8 
	694.7,377.7 677.9,298.8 719.5,305.6 "/>
<polygon fill="#FFFFFF" stroke="#231F20" stroke-miterlimit="10" points="759.8,296.5 849.9,308.4 794.5,380.6 739.1,452.7 
	716.5,407.7 693.8,362.6 674.8,281.5 717.3,289 "/>
<polygon fill="#FFFFFF" stroke="#231F20" stroke-miterlimit="10" points="758.3,280.7 848.8,294.8 791.4,366.1 733.9,437.5 
	713.4,392.5 693,347.5 671.7,264.3 715,272.5 "/>
<polygon fill="#FFFFFF" stroke="#231F20" stroke-miterlimit="10" points="756.9,264.8 847.7,281.1 788.2,351.6 728.7,422.2 
	710.4,377.3 692.1,332.3 668.6,247 712.8,255.9 "/>
<polygon fill="#FFFFFF" stroke="#231F20" stroke-miterlimit="10" points="755.5,249 846.6,267.5 785.1,337.2 723.5,406.9 
	707.4,362.1 691.2,317.2 665.6,229.8 710.5,239.4 "/>
<polygon fill="#FFFFFF" stroke="#231F20" stroke-miterlimit="10" points="718.3,391.7 690.4,302.1 662.5,212.5 708.3,222.8 
	754,233.1 845.5,253.8 781.9,322.7 "/>
<polygon fill="#FFFFFF" stroke="#231F20" stroke-miterlimit="10" points="735.4,228.3 781,241 826.7,253.7 762.1,320.3 697.5,386.9 
	672.1,297.6 646,209.6 690.7,219 "/>
<polygon fill="#FFFFFF" stroke="#231F20" stroke-miterlimit="10" points="716.7,223.5 762.3,238.6 807.9,253.6 742.3,317.8 
	676.7,382 653.9,293.1 629.5,206.8 673.1,215.2 "/>
<polygon fill="#FFFFFF" stroke="#231F20" stroke-miterlimit="10" points="698,218.7 743.6,236.1 789.1,253.5 722.5,315.4 656,377.2 
	635.7,288.7 612.9,203.9 655.5,211.3 "/>
<polygon fill="#FFFFFF" stroke="#231F20" stroke-miterlimit="10" points="679.4,213.9 724.8,233.7 770.3,253.4 702.7,312.9 
	635.2,372.4 617.4,284.2 596.4,201.1 637.9,207.5 "/>
<polygon fill="#FFFFFF" stroke="#231F20" stroke-miterlimit="10" points="660.7,209.1 706.1,231.2 751.4,253.3 682.9,310.5 
	614.5,367.6 599.2,279.7 579.9,198.2 620.3,203.7 "/>
<polygon fill="#FFFFFF" stroke="#231F20" stroke-miterlimit="10" points="642.1,204.3 687.3,228.8 732.6,253.2 663.2,308 
	593.7,362.8 581,275.2 563.4,195.3 602.7,199.8 "/>
<polygon fill="#FFFFFF" stroke="#231F20" stroke-miterlimit="10" points="623.4,199.5 668.6,226.3 713.8,253.1 643.4,305.6 
	572.9,358 562.7,270.8 546.8,192.5 585.1,196 "/>
<polygon fill="#FFFFFF" stroke="#231F20" stroke-miterlimit="10" points="604.7,194.7 649.9,223.9 695,253 623.6,303.1 552.2,353.2 
	544.5,266.3 530.3,189.6 567.5,192.2 "/>
<polygon fill="#FFFFFF" stroke="#231F20" stroke-miterlimit="10" points="586.1,189.9 631.1,221.4 676.2,252.9 603.8,300.6 
	531.4,348.4 526.3,261.8 513.8,186.8 549.9,188.4 "/>
<polygon fill="#FFFFFF" stroke="#231F20" stroke-miterlimit="10" points="567.4,185.1 612.4,219 657.3,252.8 584,298.2 510.7,343.6 
	508,257.4 497.3,183.9 532.3,184.5 "/>
<polygon fill="#FFFFFF" stroke="#231F20" stroke-miterlimit="10" points="548.7,180.7 593.6,216.9 638.5,253.1 564.2,296.1 
	489.9,339.1 489.8,253.2 480.8,181.4 514.8,181.1 "/>
<polygon fill="#FFFFFF" stroke="#231F20" stroke-miterlimit="10" points="530.1,176.9 574.9,215.4 619.7,254 544.4,294.6 
	469.1,335.3 471.6,249.7 464.2,179.5 497.2,178.2 "/>
<polygon fill="#FFFFFF" stroke="#231F20" stroke-miterlimit="10" points="511.4,173 556.2,213.9 600.9,254.8 524.6,293.1 
	448.4,331.4 453.3,246.2 447.7,177.6 479.6,175.3 "/>
<polygon fill="#FFFFFF" stroke="#231F20" stroke-miterlimit="10" points="494.6,169.2 539.2,212.5 583.9,255.7 506.6,291.7 
	429.4,327.6 436.9,242.7 433,175.8 463.8,172.5 "/>
<polygon fill="#FFFFFF" stroke="#231F20" stroke-miterlimit="10" points="478,165.4 522.6,211 567.2,256.6 489,290.2 410.8,323.8 
	420.8,239.2 418.6,173.9 448.3,169.6 "/>
<polygon fill="#FFFFFF" stroke="#231F20" stroke-miterlimit="10" points="461.5,161.5 506,209.5 550.5,257.4 471.3,288.7 
	392.1,319.9 404.7,235.7 404.2,172 432.8,166.8 "/>
<polygon fill="#FFFFFF" stroke="#231F20" stroke-miterlimit="10" points="444.9,157.7 489.3,208 533.8,258.3 453.6,287.2 
	373.5,316.1 388.5,232.2 389.8,170.1 417.3,163.9 "/>
<polygon fill="#FFFFFF" stroke="#231F20" stroke-miterlimit="10" points="428.4,153.9 472.7,206.5 517.1,259.2 435.9,285.7 
	354.8,312.2 372.4,228.7 375.4,168.2 401.9,161 "/>
<polygon fill="#FFFFFF" stroke="#231F20" stroke-miterlimit="10" points="411.8,150.1 456.1,205.1 500.4,260.1 418.3,284.2 
	336.2,308.4 356.3,225.2 361,166.3 386.4,158.2 "/>
<polygon fill="#FFFFFF" stroke="#231F20" stroke-miterlimit="10" points="395.3,146.2 439.5,203.6 483.7,260.9 400.6,282.8 
	317.6,304.6 340.2,221.7 346.6,164.4 370.9,155.3 "/>
<polygon fill="#FFFFFF" stroke="#231F20" stroke-miterlimit="10" points="378.8,142.4 422.9,202.1 467,261.8 382.9,281.3 
	298.9,300.7 324.1,218.2 332.2,162.5 355.5,152.5 "/>
<polygon fill="#FFFFFF" stroke="#231F20" stroke-miterlimit="10" points="362.2,138.6 406.2,200.6 450.3,262.7 365.3,279.8 
	280.3,296.9 308,214.7 317.8,160.7 340,149.6 "/>
<polygon fill="#FFFFFF" stroke="#231F20" stroke-miterlimit="10" points="345.7,134.7 389.6,199.2 433.6,263.6 347.6,278.3 
	261.6,293.1 291.8,211.2 303.4,158.8 324.5,146.8 "/>
<polygon fill="#FFFFFF" stroke="#231F20" stroke-miterlimit="10" points="329.1,130.9 373,197.7 416.9,264.4 329.9,276.8 243,289.2 
	275.7,207.7 288.9,156.9 309,143.9 "/>
<polygon fill="#FFFFFF" stroke="#231F20" stroke-miterlimit="10" points="312.6,127.1 356.4,196.2 400.2,265.3 312.3,275.3 
	224.3,285.4 259.6,204.2 274.5,155 293.6,141 "/>
<polygon fill="#FFFFFF" stroke="#231F20" stroke-miterlimit="10" points="296,123.3 339.8,194.7 383.5,266.2 294.6,273.9 
	205.7,281.5 243.5,200.7 260.1,153.1 278.1,138.2 "/>
<polygon fill="#FFFFFF" stroke="#231F20" stroke-miterlimit="10" points="279.5,119.4 323.1,193.2 366.8,267.1 276.9,272.4 
	187.1,277.7 227.4,197.2 245.7,151.2 262.6,135.3 "/>
<polygon fill="#FFFFFF" stroke="#231F20" stroke-miterlimit="10" points="263,115.6 306.5,191.8 350.1,267.9 259.2,270.9 
	168.4,273.9 211.3,193.7 231.3,149.3 247.1,132.5 "/>
<polygon fill="#FFFFFF" stroke="#231F20" stroke-miterlimit="10" points="246.4,111.8 289.9,190.3 333.4,268.8 241.6,269.4 
	149.8,270 195.1,190.2 216.9,147.4 231.7,129.6 "/>
<polygon fill="#FFFFFF" stroke="#231F20" stroke-miterlimit="10" points="229.9,106.2 273.3,187.1 316.7,267.9 223.9,266.2 
	131.1,264.4 179,185 202.5,143.8 216.2,125 "/>
<polygon fill="#FFFFFF" stroke="#231F20" stroke-miterlimit="10" points="112.5,258.2 162.9,179.1 213.3,100 256.6,183.2 300,266.4 
	206.2,262.3 "/>
</svg>
