<?xml version="1.0" encoding="utf-8"?>
<!-- Generator: Adobe Illustrator 17.1.0, SVG Export Plug-In . SVG Version: 6.00 Build 0)  -->
<!DOCTYPE svg PUBLIC "-//W3C//DTD SVG 1.1//EN" "http://www.w3.org/Graphics/SVG/1.1/DTD/svg11.dtd">
<svg version="1.1" id="Layer_1" xmlns="http://www.w3.org/2000/svg" xmlns:xlink="http://www.w3.org/1999/xlink" x="0px" y="0px"
	 viewBox="0 0 1000 1000" enable-background="new 0 0 1000 1000" xml:space="preserve">
<rect x="262.5" y="100" fill="#FFFFFF" stroke="#231F20" stroke-miterlimit="10" width="500" height="50"/>
<polygon fill="#FFFFFF" stroke="#231F20" stroke-miterlimit="10" points="267.4,173 262.9,120.1 747.9,118.9 752.4,171.9 "/>
<polygon fill="#FFFFFF" stroke="#231F20" stroke-miterlimit="10" points="272.4,196 263.2,140.1 733.3,137.8 742.4,193.7 "/>
<polygon fill="#FFFFFF" stroke="#231F20" stroke-miterlimit="10" points="277.3,219 263.6,160.2 718.7,156.8 732.3,215.6 "/>
<polygon fill="#FFFFFF" stroke="#231F20" stroke-miterlimit="10" points="282.2,242.1 264,180.3 704,175.7 722.3,237.5 "/>
<polygon fill="#FFFFFF" stroke="#231F20" stroke-miterlimit="10" points="287.2,265.1 264.4,200.3 689.4,194.6 712.2,259.4 "/>
<polygon fill="#FFFFFF" stroke="#231F20" stroke-miterlimit="10" points="292.1,288.1 264.7,220.4 674.8,213.5 702.2,281.2 "/>
<polygon fill="#FFFFFF" stroke="#231F20" stroke-miterlimit="10" points="297.1,311.1 265.1,240.4 660.2,232.5 692.1,303.1 "/>
<polygon fill="#FFFFFF" stroke="#231F20" stroke-miterlimit="10" points="302,334.1 265.5,260.5 645.6,251.4 682.1,325 "/>
<polygon fill="#FFFFFF" stroke="#231F20" stroke-miterlimit="10" points="306.9,357.1 265.9,280.6 631,270.3 672,346.8 "/>
<polygon fill="#FFFFFF" stroke="#231F20" stroke-miterlimit="10" points="311.9,380.1 266.2,300.6 616.4,289.2 662,368.7 "/>
<polygon fill="#FFFFFF" stroke="#231F20" stroke-miterlimit="10" points="316.8,403.1 266.6,320.7 601.7,308.2 651.9,390.6 "/>
<polygon fill="#FFFFFF" stroke="#231F20" stroke-miterlimit="10" points="321.7,426.2 267,340.8 587.1,327.1 641.9,412.5 "/>
<polygon fill="#FFFFFF" stroke="#231F20" stroke-miterlimit="10" points="326.7,449.2 267.4,360.8 572.5,346 631.8,434.3 "/>
<polygon fill="#FFFFFF" stroke="#231F20" stroke-miterlimit="10" points="331.6,472.2 267.7,380.9 557.9,364.9 621.8,456.2 "/>
<polygon fill="#FFFFFF" stroke="#231F20" stroke-miterlimit="10" points="336.5,495.2 268.1,401 543.3,383.8 611.7,478.1 "/>
<polygon fill="#FFFFFF" stroke="#231F20" stroke-miterlimit="10" points="341.5,518.2 268.5,421 528.7,402.8 601.7,500 "/>
<polygon fill="#FFFFFF" stroke="#231F20" stroke-miterlimit="10" points="346.4,541.2 268.9,441.1 514.1,421.7 591.6,521.8 "/>
<polygon fill="#FFFFFF" stroke="#231F20" stroke-miterlimit="10" points="351.4,564.2 269.2,461.1 499.4,440.6 581.6,543.7 "/>
<polygon fill="#FFFFFF" stroke="#231F20" stroke-miterlimit="10" points="356.3,587.2 269.6,481.2 484.8,459.5 571.5,565.6 "/>
<polygon fill="#FFFFFF" stroke="#231F20" stroke-miterlimit="10" points="361.2,610.3 270,501.3 470.2,478.5 561.5,587.4 "/>
<polygon fill="#FFFFFF" stroke="#231F20" stroke-miterlimit="10" points="366.2,633.3 270.4,521.3 455.6,497.4 551.4,609.3 "/>
<polygon fill="#FFFFFF" stroke="#231F20" stroke-miterlimit="10" points="371.1,656.3 270.7,541.4 441,516.3 541.4,631.2 "/>
<polygon fill="#FFFFFF" stroke="#231F20" stroke-miterlimit="10" points="376,679.3 271.1,561.5 426.4,535.2 531.3,653.1 "/>
<polygon fill="#FFFFFF" stroke="#231F20" stroke-miterlimit="10" points="381,702.3 271.5,581.5 411.8,554.2 521.3,674.9 "/>
<polygon fill="#FFFFFF" stroke="#231F20" stroke-miterlimit="10" points="385.9,725.3 271.9,601.6 397.2,573.1 511.2,696.8 "/>
<polygon fill="#FFFFFF" stroke="#231F20" stroke-miterlimit="10" points="390.9,748.3 272.2,621.6 382.5,592 501.1,718.7 "/>
<polygon fill="#FFFFFF" stroke="#231F20" stroke-miterlimit="10" points="395.8,771.3 272.6,641.7 367.9,610.9 491.1,740.5 "/>
<polygon fill="#FFFFFF" stroke="#231F20" stroke-miterlimit="10" points="400.7,794.4 273,661.8 353.3,629.8 481,762.4 "/>
<polygon fill="#FFFFFF" stroke="#231F20" stroke-miterlimit="10" points="405.7,817.4 273.4,681.8 338.7,648.8 471,784.3 "/>
<polygon fill="#FFFFFF" stroke="#231F20" stroke-miterlimit="10" points="410.6,840.4 273.7,701.9 324.1,667.7 460.9,806.2 "/>
<rect x="262.5" y="750" transform="matrix(0.7071 0.7071 -0.7071 0.7071 654.1816 -29.334)" fill="#FFFFFF" stroke="#231F20" stroke-miterlimit="10" width="200" height="50"/>
</svg>
