<?xml version="1.0" encoding="utf-8"?>
<!-- Generator: Adobe Illustrator 17.1.0, SVG Export Plug-In . SVG Version: 6.00 Build 0)  -->
<!DOCTYPE svg PUBLIC "-//W3C//DTD SVG 1.1//EN" "http://www.w3.org/Graphics/SVG/1.1/DTD/svg11.dtd">
<svg version="1.1" id="Layer_1" xmlns="http://www.w3.org/2000/svg" xmlns:xlink="http://www.w3.org/1999/xlink" x="0px" y="0px"
	 viewBox="0 0 1000 1000" enable-background="new 0 0 1000 1000" xml:space="preserve">
<g>
	<polygon fill="#FFFFFF" stroke="#231F20" stroke-miterlimit="10" points="562.5,325 325,325 87.5,325 87.5,312.5 87.5,300 325,300 
		562.5,300 562.5,312.5 	"/>
	<polygon fill="#FFFFFF" stroke="#231F20" stroke-miterlimit="10" points="560.7,303.9 560.9,316.3 561.2,328.7 325.2,333.4 
		89.3,338 89.1,325.6 88.8,313.2 324.8,308.6 	"/>
	<polygon fill="#FFFFFF" stroke="#231F20" stroke-miterlimit="10" points="558.9,307.8 559.4,320.1 559.9,332.5 325.5,341.8 
		91.1,351.1 90.6,338.7 90.1,326.4 324.5,317.1 	"/>
	<polygon fill="#FFFFFF" stroke="#231F20" stroke-miterlimit="10" points="557.1,311.7 557.8,324 558.5,336.2 325.7,350.2 
		92.9,364.1 92.2,351.8 91.5,339.6 324.3,325.7 	"/>
	<polygon fill="#FFFFFF" stroke="#231F20" stroke-miterlimit="10" points="555.2,315.6 556.2,327.8 557.2,340 326,358.5 94.8,377.1 
		93.8,364.9 92.8,352.8 324,334.2 	"/>
	<polygon fill="#FFFFFF" stroke="#231F20" stroke-miterlimit="10" points="553.4,319.5 554.7,331.6 555.9,343.7 326.2,366.9 
		96.6,390.1 95.3,378.1 94.1,366 323.8,342.8 	"/>
	<polygon fill="#FFFFFF" stroke="#231F20" stroke-miterlimit="10" points="551.6,323.4 553.1,335.4 554.6,347.4 326.5,375.3 
		98.4,403.2 96.9,391.2 95.4,379.2 323.5,351.3 	"/>
	<polygon fill="#FFFFFF" stroke="#231F20" stroke-miterlimit="10" points="549.8,327.3 551.5,339.3 553.2,351.2 326.7,383.7 
		100.2,416.2 98.5,404.3 96.8,392.4 323.3,359.9 	"/>
	<polygon fill="#FFFFFF" stroke="#231F20" stroke-miterlimit="10" points="548,331.2 550,343.1 551.9,354.9 327,392.1 102,429.2 
		100,417.4 98.1,405.6 323,368.4 	"/>
	<polygon fill="#FFFFFF" stroke="#231F20" stroke-miterlimit="10" points="546.2,335.2 548.4,346.9 550.6,358.7 327.2,400.5 
		103.8,442.3 101.6,430.5 99.4,418.8 322.8,377 	"/>
	<polygon fill="#FFFFFF" stroke="#231F20" stroke-miterlimit="10" points="544.4,339.1 546.8,350.7 549.3,362.4 327.4,408.9 
		105.6,455.3 103.2,443.6 100.7,431.9 322.6,385.5 	"/>
	<polygon fill="#FFFFFF" stroke="#231F20" stroke-miterlimit="10" points="542.6,343 545.3,354.6 547.9,366.2 327.7,417.2 
		107.4,468.3 104.7,456.7 102.1,445.1 322.3,394.1 	"/>
	<polygon fill="#FFFFFF" stroke="#231F20" stroke-miterlimit="10" points="540.7,346.9 543.7,358.4 546.6,369.9 327.9,425.6 
		109.3,481.4 106.3,469.8 103.4,458.3 322.1,402.6 	"/>
	<polygon fill="#FFFFFF" stroke="#231F20" stroke-miterlimit="10" points="538.9,350.8 542.1,362.2 545.3,373.6 328.2,434 
		111.1,494.4 107.9,483 104.7,471.5 321.8,411.2 	"/>
	<polygon fill="#FFFFFF" stroke="#231F20" stroke-miterlimit="10" points="537.1,354.7 540.5,366 544,377.4 328.4,442.4 
		112.9,507.4 109.5,496.1 106,484.7 321.6,419.7 	"/>
	<polygon fill="#FFFFFF" stroke="#231F20" stroke-miterlimit="10" points="535.3,358.6 539,369.9 542.6,381.1 328.7,450.8 
		114.7,520.4 111,509.2 107.4,497.9 321.3,428.3 	"/>
	<polygon fill="#FFFFFF" stroke="#231F20" stroke-miterlimit="10" points="533.5,362.5 537.4,373.7 541.3,384.9 328.9,459.2 
		116.5,533.5 112.6,522.3 108.7,511.1 321.1,436.8 	"/>
	<polygon fill="#FFFFFF" stroke="#231F20" stroke-miterlimit="10" points="531.7,366.4 535.8,377.5 540,388.6 329.2,467.5 
		118.3,546.5 114.2,535.4 110,524.3 320.8,445.4 	"/>
	<polygon fill="#FFFFFF" stroke="#231F20" stroke-miterlimit="10" points="529.9,370.3 534.3,381.3 538.7,392.3 329.4,475.9 
		120.1,559.5 115.7,548.5 111.3,537.5 320.6,453.9 	"/>
	<polygon fill="#FFFFFF" stroke="#231F20" stroke-miterlimit="10" points="528.1,374.2 532.7,385.1 537.4,396.1 329.6,484.3 
		121.9,572.6 117.3,561.6 112.6,550.7 320.4,462.5 	"/>
	<polygon fill="#FFFFFF" stroke="#231F20" stroke-miterlimit="10" points="526.2,378.1 531.1,389 536,399.8 329.9,492.7 
		123.8,585.6 118.9,574.7 114,563.9 320.1,471 	"/>
	<polygon fill="#FFFFFF" stroke="#231F20" stroke-miterlimit="10" points="524.4,382 529.6,392.8 534.7,403.6 330.1,501.1 
		125.6,598.6 120.4,587.9 115.3,577.1 319.9,479.6 	"/>
	<polygon fill="#FFFFFF" stroke="#231F20" stroke-miterlimit="10" points="522.6,385.9 528,396.6 533.4,407.3 330.4,509.5 
		127.4,611.6 122,601 116.6,590.3 319.6,488.1 	"/>
	<polygon fill="#FFFFFF" stroke="#231F20" stroke-miterlimit="10" points="520.8,389.8 526.4,400.4 532.1,411 330.6,517.9 
		129.2,624.7 123.6,614.1 117.9,603.5 319.4,496.7 	"/>
	<polygon fill="#FFFFFF" stroke="#231F20" stroke-miterlimit="10" points="519,393.7 524.9,404.3 530.7,414.8 330.9,526.2 
		131,637.7 125.1,627.2 119.3,616.7 319.1,505.2 	"/>
	<polygon fill="#FFFFFF" stroke="#231F20" stroke-miterlimit="10" points="517.2,397.7 523.3,408.1 529.4,418.5 331.1,534.6 
		132.8,650.7 126.7,640.3 120.6,629.9 318.9,513.8 	"/>
	<polygon fill="#FFFFFF" stroke="#231F20" stroke-miterlimit="10" points="515.4,401.6 521.7,411.9 528.1,422.3 331.4,543 
		134.6,663.8 128.3,653.4 121.9,643.1 318.6,522.3 	"/>
	<polygon fill="#FFFFFF" stroke="#231F20" stroke-miterlimit="10" points="513.6,405.5 520.2,415.7 526.8,426 331.6,551.4 
		136.4,676.8 129.8,666.5 123.2,656.3 318.4,530.9 	"/>
	<polygon fill="#FFFFFF" stroke="#231F20" stroke-miterlimit="10" points="511.7,409.4 518.6,419.6 525.4,429.7 331.8,559.8 
		138.3,689.8 131.4,679.6 124.6,669.4 318.2,539.4 	"/>
	<polygon fill="#FFFFFF" stroke="#231F20" stroke-miterlimit="10" points="509.9,413.3 517,423.4 524.1,433.5 332.1,568.2 
		140.1,702.9 133,692.7 125.9,682.6 317.9,548 	"/>
	<polygon fill="#FFFFFF" stroke="#231F20" stroke-miterlimit="10" points="508.1,417.2 515.5,427.2 522.8,437.2 332.3,576.6 
		141.9,715.9 134.5,705.9 127.2,695.8 317.7,556.5 	"/>
	<polygon fill="#FFFFFF" stroke="#231F20" stroke-miterlimit="10" points="521.5,441 332.6,584.9 143.7,728.9 128.5,709 
		317.4,565.1 506.3,421.1 	"/>
	<polygon fill="#FFFFFF" stroke="#231F20" stroke-miterlimit="10" points="511.9,423.6 526.6,443.3 510.5,456 340.3,583.9 
		333.6,589 153.7,724.3 138.9,704.6 155,691.8 325.2,564 331.9,558.9 	"/>
	<polygon fill="#FFFFFF" stroke="#231F20" stroke-miterlimit="10" points="517.4,426.2 531.8,445.6 516.3,458.3 348.1,582.9 
		341.4,587.8 163.6,719.6 149.2,700.2 164.8,687.5 332.9,562.9 339.6,557.9 	"/>
	<polygon fill="#FFFFFF" stroke="#231F20" stroke-miterlimit="10" points="523,428.7 537,447.9 522.1,460.6 355.9,581.9 
		349.3,586.7 173.6,715 159.6,695.7 174.5,683.1 340.7,561.8 347.3,557 	"/>
	<polygon fill="#FFFFFF" stroke="#231F20" stroke-miterlimit="10" points="528.5,431.2 542.2,450.3 527.9,462.8 363.7,580.8 
		357.1,585.5 183.5,710.3 169.9,691.3 184.2,678.7 348.4,560.7 355,556 	"/>
	<polygon fill="#FFFFFF" stroke="#231F20" stroke-miterlimit="10" points="534.1,433.8 547.4,452.6 533.7,465.1 371.4,579.8 
		364.9,584.4 193.5,705.7 180.2,686.9 193.9,674.4 356.2,559.6 362.7,555.1 	"/>
	<polygon fill="#FFFFFF" stroke="#231F20" stroke-miterlimit="10" points="539.6,436.3 552.5,454.9 539.5,467.3 379.2,578.8 
		372.8,583.2 203.5,701 190.6,682.4 203.6,670 363.9,558.5 370.3,554.1 	"/>
	<polygon fill="#FFFFFF" stroke="#231F20" stroke-miterlimit="10" points="545.2,438.8 557.7,457.2 545.4,469.6 387,577.8 
		380.6,582.1 213.4,696.4 200.9,678 213.3,665.6 371.7,557.5 378,553.2 	"/>
	<polygon fill="#FFFFFF" stroke="#231F20" stroke-miterlimit="10" points="550.8,441.4 562.9,459.5 551.2,471.9 394.7,576.7 
		388.5,580.9 223.4,691.7 211.3,673.6 223,661.2 379.4,556.4 385.7,552.2 	"/>
	<polygon fill="#FFFFFF" stroke="#231F20" stroke-miterlimit="10" points="556.3,443.9 568.1,461.9 557,474.1 402.5,575.7 
		396.3,579.8 233.4,687.1 221.6,669.1 232.7,656.9 387.2,555.3 393.4,551.2 	"/>
	<polygon fill="#FFFFFF" stroke="#231F20" stroke-miterlimit="10" points="561.9,446.4 573.3,464.2 562.8,476.4 410.3,574.7 
		404.1,578.6 243.3,682.4 232,664.7 242.4,652.5 394.9,554.2 401.1,550.3 	"/>
	<polygon fill="#FFFFFF" stroke="#231F20" stroke-miterlimit="10" points="567.4,449 578.4,466.5 568.6,478.7 418.1,573.6 
		412,577.4 253.3,677.8 242.3,660.3 252.1,648.1 402.7,553.1 408.8,549.3 	"/>
	<polygon fill="#FFFFFF" stroke="#231F20" stroke-miterlimit="10" points="573,451.5 583.6,468.8 574.4,480.9 425.8,572.6 
		419.8,576.3 263.3,673.1 252.6,655.8 261.8,643.7 410.4,552 416.4,548.4 	"/>
	<polygon fill="#FFFFFF" stroke="#231F20" stroke-miterlimit="10" points="578.5,454.1 588.8,471.1 580.2,483.2 433.6,571.6 
		427.7,575.1 273.2,668.5 263,651.4 271.5,639.4 418.2,551 424.1,547.4 	"/>
	<polygon fill="#FFFFFF" stroke="#231F20" stroke-miterlimit="10" points="584.1,456.6 594,473.5 586.1,485.4 441.4,570.6 
		435.5,574 283.2,663.8 273.3,647 281.2,635 425.9,549.9 431.8,546.4 	"/>
	<polygon fill="#FFFFFF" stroke="#231F20" stroke-miterlimit="10" points="589.7,459.1 599.2,475.8 591.9,487.7 449.1,569.5 
		443.3,572.8 293.2,659.2 283.7,642.6 290.9,630.6 433.7,548.8 439.5,545.5 	"/>
	<polygon fill="#FFFFFF" stroke="#231F20" stroke-miterlimit="10" points="595.2,461.7 604.3,478.1 597.7,490 456.9,568.5 
		451.2,571.7 303.1,654.5 294,638.1 300.7,626.2 441.4,547.7 447.2,544.5 	"/>
	<polygon fill="#FFFFFF" stroke="#231F20" stroke-miterlimit="10" points="600.8,464.2 609.5,480.4 603.5,492.2 464.7,567.5 
		459,570.5 313.1,649.9 304.4,633.7 310.4,621.9 449.2,546.6 454.9,543.6 	"/>
	<polygon fill="#FFFFFF" stroke="#231F20" stroke-miterlimit="10" points="606.3,466.7 614.7,482.7 609.3,494.5 472.5,566.5 
		466.8,569.4 323.1,645.3 314.7,629.3 320.1,617.5 456.9,545.5 462.5,542.6 	"/>
	<polygon fill="#FFFFFF" stroke="#231F20" stroke-miterlimit="10" points="611.9,469.3 619.9,485.1 615.1,496.7 480.2,565.4 
		474.7,568.2 333,640.6 325,624.8 329.8,613.1 464.7,544.4 470.2,541.7 	"/>
	<polygon fill="#FFFFFF" stroke="#231F20" stroke-miterlimit="10" points="617.4,471.8 625,487.4 620.9,499 488,564.4 482.5,567.1 
		343,636 335.4,620.4 339.5,608.8 472.4,543.4 477.9,540.7 	"/>
	<polygon fill="#FFFFFF" stroke="#231F20" stroke-miterlimit="10" points="623,474.3 630.2,489.7 626.8,501.3 495.8,563.4 
		490.4,565.9 353,631.3 345.7,616 349.2,604.4 480.2,542.3 485.6,539.7 	"/>
	<polygon fill="#FFFFFF" stroke="#231F20" stroke-miterlimit="10" points="628.6,476.9 635.4,492 632.6,503.5 503.5,562.4 
		498.2,564.7 362.9,626.7 356.1,611.5 358.9,600 487.9,541.2 493.3,538.8 	"/>
	<polygon fill="#FFFFFF" stroke="#231F20" stroke-miterlimit="10" points="634.1,479.4 640.6,494.3 638.4,505.8 511.3,561.3 
		506,563.6 372.9,622 366.4,607.1 368.6,595.6 495.7,540.1 500.9,537.8 	"/>
	<polygon fill="#FFFFFF" stroke="#231F20" stroke-miterlimit="10" points="639.7,482 645.8,496.7 644.2,508.1 519.1,560.3 
		513.9,562.4 382.8,617.4 376.7,602.7 378.3,591.3 503.4,539 508.6,536.9 	"/>
	<polygon fill="#FFFFFF" stroke="#231F20" stroke-miterlimit="10" points="645.2,484.5 650.9,499 650,510.3 526.9,559.3 
		521.7,561.3 392.8,612.7 387.1,598.2 388,586.9 511.2,537.9 516.3,535.9 	"/>
	<polygon fill="#FFFFFF" stroke="#231F20" stroke-miterlimit="10" points="650.8,487 656.1,501.3 655.8,512.6 534.6,558.2 
		529.6,560.1 402.8,608.1 397.4,593.8 397.7,582.5 518.9,536.8 524,535 	"/>
	<polygon fill="#FFFFFF" stroke="#231F20" stroke-miterlimit="10" points="656.3,489.6 661.3,503.6 661.6,514.8 542.4,557.2 
		537.4,559 412.7,603.4 407.8,589.4 407.4,578.1 526.7,535.8 531.7,534 	"/>
	<polygon fill="#FFFFFF" stroke="#231F20" stroke-miterlimit="10" points="661.9,492.1 666.5,505.9 667.5,517.1 550.2,556.2 
		545.2,557.8 422.7,598.8 418.1,584.9 417.1,573.8 534.4,534.7 539.4,533 	"/>
	<polygon fill="#FFFFFF" stroke="#231F20" stroke-miterlimit="10" points="667.4,494.6 671.7,508.3 673.3,519.4 557.9,555.2 
		553.1,556.7 432.7,594.1 428.5,580.5 426.8,569.4 542.2,533.6 547,532.1 	"/>
	<polygon fill="#FFFFFF" stroke="#231F20" stroke-miterlimit="10" points="673,497.2 676.8,510.6 679.1,521.6 565.7,554.1 
		560.9,555.5 442.6,589.5 438.8,576.1 436.6,565 549.9,532.5 554.7,531.1 	"/>
	<polygon fill="#FFFFFF" stroke="#231F20" stroke-miterlimit="10" points="684.9,523.9 568.8,554.4 452.6,584.8 446.3,560.6 
		562.4,530.2 678.6,499.7 	"/>
	<polygon fill="#FFFFFF" stroke="#231F20" stroke-miterlimit="10" points="670.5,505.1 677.2,528.9 593.9,552.6 567.2,560.3 
		486.4,583.3 456.1,591.8 449.4,568 532.7,544.2 559.4,536.6 640.2,513.5 	"/>
	<polygon fill="#FFFFFF" stroke="#231F20" stroke-miterlimit="10" points="662.5,510.4 669.4,533.9 590.8,558.3 565.7,566.2 
		489.4,589.9 459.5,598.7 452.6,575.3 531.1,550.8 556.3,543 632.6,519.3 	"/>
	<polygon fill="#FFFFFF" stroke="#231F20" stroke-miterlimit="10" points="654.4,515.8 661.7,538.8 587.8,564 564.1,572.1 
		492.3,596.4 463,605.7 455.7,582.6 529.6,557.4 553.3,549.3 625.1,525 	"/>
	<polygon fill="#FFFFFF" stroke="#231F20" stroke-miterlimit="10" points="646.4,521.2 653.9,543.8 584.7,569.7 562.6,578 
		495.3,603 466.4,612.6 458.9,589.9 528.1,564.1 550.2,555.7 617.5,530.8 	"/>
	<polygon fill="#FFFFFF" stroke="#231F20" stroke-miterlimit="10" points="638.3,526.5 646.2,548.8 581.6,575.4 561,584 
		498.2,609.6 469.9,619.5 462,597.3 526.5,570.7 547.2,562.1 609.9,536.5 	"/>
	<polygon fill="#FFFFFF" stroke="#231F20" stroke-miterlimit="10" points="630.2,531.9 638.4,553.8 578.6,581.1 559.5,589.9 
		501.2,616.1 473.3,626.5 465.1,604.6 525,577.3 544.1,568.5 602.4,542.3 	"/>
	<polygon fill="#FFFFFF" stroke="#231F20" stroke-miterlimit="10" points="622.2,537.3 630.7,558.8 575.5,586.8 557.9,595.8 
		504.1,622.7 476.8,633.4 468.3,611.9 523.4,583.9 541,574.9 594.8,548 	"/>
	<polygon fill="#FFFFFF" stroke="#231F20" stroke-miterlimit="10" points="614.1,542.7 622.9,563.8 572.5,592.4 556.4,601.7 
		507.1,629.3 480.2,640.4 471.4,619.2 521.9,590.6 538,581.3 587.3,553.7 	"/>
	<polygon fill="#FFFFFF" stroke="#231F20" stroke-miterlimit="10" points="606.1,548 615.2,568.8 569.4,598.1 554.8,607.6 
		510,635.8 483.7,647.3 474.6,626.6 520.4,597.2 534.9,587.7 579.7,559.5 	"/>
	<polygon fill="#FFFFFF" stroke="#231F20" stroke-miterlimit="10" points="598,553.4 607.4,573.7 566.3,603.8 553.3,613.6 
		513,642.4 487.1,654.2 477.7,633.9 518.8,603.8 531.9,594.1 572.2,565.2 	"/>
	<polygon fill="#FFFFFF" stroke="#231F20" stroke-miterlimit="10" points="590,558.8 599.7,578.7 563.3,609.5 551.7,619.5 
		515.9,649 490.6,661.2 480.9,641.2 517.3,610.4 528.8,600.5 564.6,571 	"/>
	<polygon fill="#FFFFFF" stroke="#231F20" stroke-miterlimit="10" points="581.9,564.1 591.9,583.7 560.2,615.2 550.2,625.4 
		518.9,655.5 494,668.1 484,648.5 515.8,617.1 525.8,606.8 557.1,576.7 	"/>
	<polygon fill="#FFFFFF" stroke="#231F20" stroke-miterlimit="10" points="573.9,569.5 584.2,588.7 557.1,620.9 548.6,631.3 
		521.8,662.1 497.5,675.1 487.2,655.9 514.2,623.7 522.7,613.2 549.5,582.5 	"/>
	<polygon fill="#FFFFFF" stroke="#231F20" stroke-miterlimit="10" points="565.8,574.9 576.4,593.7 554.1,626.6 547.1,637.2 
		524.8,668.7 500.9,682 490.3,663.2 512.7,630.3 519.7,619.6 542,588.2 	"/>
	<polygon fill="#FFFFFF" stroke="#231F20" stroke-miterlimit="10" points="557.8,580.2 568.7,598.7 551,632.2 545.5,643.2 
		527.7,675.2 504.4,688.9 493.5,670.5 511.2,636.9 516.6,626 534.4,593.9 	"/>
	<polygon fill="#FFFFFF" stroke="#231F20" stroke-miterlimit="10" points="549.7,585.6 560.9,603.7 547.9,637.9 544,649.1 
		530.7,681.8 507.8,695.9 496.6,677.8 509.6,643.6 513.6,632.4 526.9,599.7 	"/>
	<polygon fill="#FFFFFF" stroke="#231F20" stroke-miterlimit="10" points="541.7,591 553.2,608.6 544.9,643.6 542.4,655 
		533.7,688.4 511.3,702.8 499.8,685.2 508.1,650.2 510.5,638.8 519.3,605.4 	"/>
	<polygon fill="#FFFFFF" stroke="#231F20" stroke-miterlimit="10" points="533.6,596.3 545.4,613.6 541.8,649.3 540.9,660.9 
		536.6,694.9 514.7,709.8 502.9,692.5 506.6,656.8 507.5,645.2 511.8,611.2 	"/>
	<polygon fill="#FFFFFF" stroke="#231F20" stroke-miterlimit="10" points="525.6,601.7 537.7,618.6 538.7,655 539.3,666.8 
		539.6,701.5 518.2,716.7 506.1,699.8 505,663.4 504.4,651.6 504.2,616.9 	"/>
	<polygon fill="#FFFFFF" stroke="#231F20" stroke-miterlimit="10" points="517.5,607.1 529.9,623.6 535.7,660.7 537.8,672.8 
		542.5,708.1 521.6,723.6 509.2,707.1 503.5,670.1 501.4,658 496.6,622.7 	"/>
	<polygon fill="#FFFFFF" stroke="#231F20" stroke-miterlimit="10" points="509.5,612.4 522.2,628.6 532.6,666.4 536.2,678.7 
		545.5,714.6 525.1,730.6 512.4,714.5 501.9,676.7 498.3,664.3 489.1,628.4 	"/>
	<polygon fill="#FFFFFF" stroke="#231F20" stroke-miterlimit="10" points="501.4,617.8 514.4,633.6 529.6,672 534.7,684.6 
		548.4,721.2 528.5,737.5 515.5,721.8 500.4,683.3 495.3,670.7 481.5,634.1 	"/>
	<polygon fill="#FFFFFF" stroke="#231F20" stroke-miterlimit="10" points="493.4,623.2 506.7,638.6 526.5,677.7 533.1,690.5 
		551.4,727.8 532,744.5 518.7,729.1 498.9,689.9 492.2,677.1 474,639.9 	"/>
	<polygon fill="#FFFFFF" stroke="#231F20" stroke-miterlimit="10" points="485.3,628.5 498.9,643.5 523.4,683.4 531.6,696.4 
		554.3,734.3 535.4,751.4 521.8,736.4 497.3,696.5 489.2,683.5 466.4,645.6 	"/>
	<polygon fill="#FFFFFF" stroke="#231F20" stroke-miterlimit="10" points="477.3,633.9 491.2,648.5 520.4,689.1 530,702.4 
		557.3,740.9 538.9,758.4 525,743.7 495.8,703.2 486.1,689.9 458.9,651.4 	"/>
	<polygon fill="#FFFFFF" stroke="#231F20" stroke-miterlimit="10" points="469.2,639.3 483.4,653.5 517.3,694.8 528.5,708.3 
		560.2,747.5 542.3,765.3 528.1,751.1 494.3,709.8 483.1,696.3 451.3,657.1 	"/>
	<polygon fill="#FFFFFF" stroke="#231F20" stroke-miterlimit="10" points="461.2,644.7 475.7,658.5 514.2,700.5 526.9,714.2 
		563.2,754 545.8,772.2 531.3,758.4 492.7,716.4 480,702.7 443.8,662.9 	"/>
	<polygon fill="#FFFFFF" stroke="#231F20" stroke-miterlimit="10" points="453.1,650 468,663.5 511.2,706.2 525.4,720.1 
		566.1,760.6 549.2,779.2 534.4,765.7 491.2,723 477,709.1 436.2,668.6 	"/>
	<polygon fill="#FFFFFF" stroke="#231F20" stroke-miterlimit="10" points="445.1,655.4 460.2,668.5 508.1,711.8 523.8,726 
		569.1,767.2 552.7,786.1 537.6,773 489.7,729.7 473.9,715.5 428.7,674.3 	"/>
	<polygon fill="#FFFFFF" stroke="#231F20" stroke-miterlimit="10" points="437,660.8 452.5,673.5 505,717.5 522.3,732 572,773.7 
		556.2,793.1 540.7,780.4 488.1,736.3 470.9,721.9 421.1,680.1 	"/>
	<polygon fill="#FFFFFF" stroke="#231F20" stroke-miterlimit="10" points="559.6,800 486.6,742.9 413.6,685.8 429,666.1 502,723.2 
		575,780.3 	"/>
	<polygon fill="#FFFFFF" stroke="#231F20" stroke-miterlimit="10" points="443.7,661.6 454.5,670.4 510.6,719.7 524.2,731.6 
		576.4,777.4 560.2,797.2 549.5,788.3 493.3,739 479.8,727.2 427.5,681.3 	"/>
	<polygon fill="#FFFFFF" stroke="#231F20" stroke-miterlimit="10" points="458.5,657 469.3,666.3 519.2,716.1 531.3,728.1 
		577.9,774.5 560.9,794.3 550.1,785 500.1,735.2 488,723.2 441.5,676.8 	"/>
	<polygon fill="#FFFFFF" stroke="#231F20" stroke-miterlimit="10" points="473.3,652.4 484.1,662.2 527.9,712.6 538.5,724.7 
		579.3,771.7 561.5,791.5 550.7,781.7 506.9,731.3 496.3,719.2 455.4,672.2 	"/>
	<polygon fill="#FFFFFF" stroke="#231F20" stroke-miterlimit="10" points="488,647.9 498.9,658 536.5,709 545.6,721.3 580.7,768.8 
		562.1,788.6 551.3,778.4 513.6,727.4 504.5,715.2 469.4,667.7 	"/>
	<polygon fill="#FFFFFF" stroke="#231F20" stroke-miterlimit="10" points="502.8,643.3 513.6,653.9 545.1,705.5 552.8,717.9 
		582.2,765.9 562.8,785.8 551.9,775.1 520.4,723.6 512.8,711.1 483.4,663.2 	"/>
	<polygon fill="#FFFFFF" stroke="#231F20" stroke-miterlimit="10" points="517.6,638.7 528.4,649.8 553.8,701.9 559.9,714.5 
		583.6,763 563.4,782.9 552.5,771.8 527.2,719.7 521,707.1 497.3,658.6 	"/>
	<polygon fill="#FFFFFF" stroke="#231F20" stroke-miterlimit="10" points="532.3,634.2 543.2,645.7 562.4,698.4 567.1,711.1 
		585,760.1 564,780.1 553.1,768.6 533.9,715.8 529.3,703.1 511.3,654.1 	"/>
	<polygon fill="#FFFFFF" stroke="#231F20" stroke-miterlimit="10" points="547.1,629.6 558,641.6 571,694.8 574.2,707.7 
		586.5,757.2 564.6,777.2 553.7,765.3 540.7,712 537.5,699.1 525.3,649.6 	"/>
	<polygon fill="#FFFFFF" stroke="#231F20" stroke-miterlimit="10" points="561.9,625 572.8,637.4 579.7,691.3 581.4,704.3 
		587.9,754.3 565.3,774.4 554.3,762 547.5,708.1 545.8,695.1 539.2,645.1 	"/>
	<polygon fill="#FFFFFF" stroke="#231F20" stroke-miterlimit="10" points="576.6,620.5 587.6,633.3 588.3,687.8 588.5,700.9 
		589.3,751.5 565.9,771.5 554.9,758.7 554.2,704.2 554,691.1 553.2,640.5 	"/>
	<polygon fill="#FFFFFF" stroke="#231F20" stroke-miterlimit="10" points="591.4,615.9 602.4,629.2 596.9,684.2 595.7,697.5 
		590.8,748.6 566.5,768.7 555.5,755.4 561,700.4 562.3,687.1 567.1,636 	"/>
	<polygon fill="#FFFFFF" stroke="#231F20" stroke-miterlimit="10" points="606.2,611.3 617.2,625.1 605.6,680.7 602.8,694 
		592.2,745.7 567.2,765.8 556.1,752.1 567.8,696.5 570.5,683.1 581.1,631.5 	"/>
	<polygon fill="#FFFFFF" stroke="#231F20" stroke-miterlimit="10" points="620.9,606.8 632,621 614.2,677.1 610,690.6 593.6,742.8 
		567.8,763 556.7,748.8 574.5,692.6 578.8,679.1 595.1,626.9 	"/>
	<polygon fill="#FFFFFF" stroke="#231F20" stroke-miterlimit="10" points="635.7,602.2 646.8,616.8 622.8,673.6 617.1,687.2 
		595.1,739.9 568.4,760.1 557.3,745.5 581.3,688.8 587,675.1 609,622.4 	"/>
	<polygon fill="#FFFFFF" stroke="#231F20" stroke-miterlimit="10" points="650.4,597.6 661.5,612.7 631.5,670 624.3,683.8 
		596.5,737 569,757.3 558,742.2 588,684.9 595.2,671.1 623,617.9 	"/>
	<polygon fill="#FFFFFF" stroke="#231F20" stroke-miterlimit="10" points="665.2,593.1 676.3,608.6 640.1,666.5 631.4,680.4 
		597.9,734.2 569.7,754.4 558.6,738.9 594.8,681 603.5,667.1 636.9,613.4 	"/>
	<polygon fill="#FFFFFF" stroke="#231F20" stroke-miterlimit="10" points="680,588.5 691.1,604.5 648.7,662.9 638.6,677 
		599.4,731.3 570.3,751.6 559.2,735.6 601.6,677.2 611.7,663.1 650.9,608.8 	"/>
	<polygon fill="#FFFFFF" stroke="#231F20" stroke-miterlimit="10" points="694.7,583.9 705.9,600.3 657.3,659.4 645.7,673.6 
		600.8,728.4 570.9,748.8 559.8,732.3 608.3,673.3 620,659.1 664.9,604.3 	"/>
	<polygon fill="#FFFFFF" stroke="#231F20" stroke-miterlimit="10" points="709.5,579.4 720.7,596.2 666,655.8 652.9,670.2 
		602.2,725.5 571.6,745.9 560.4,729 615.1,669.4 628.2,655.1 678.8,599.8 	"/>
	<polygon fill="#FFFFFF" stroke="#231F20" stroke-miterlimit="10" points="724.3,574.8 735.5,592.1 674.6,652.3 660,666.8 
		603.7,722.6 572.2,743.1 561,725.8 621.9,665.6 636.5,651.1 692.8,595.2 	"/>
	<polygon fill="#FFFFFF" stroke="#231F20" stroke-miterlimit="10" points="739,570.2 750.3,588 683.2,648.7 667.2,663.4 
		605.1,719.7 572.8,740.2 561.6,722.5 628.6,661.7 644.7,647.1 706.8,590.7 	"/>
	<polygon fill="#FFFFFF" stroke="#231F20" stroke-miterlimit="10" points="753.8,565.7 765.1,583.9 691.9,645.2 674.3,659.9 
		606.6,716.8 573.5,737.4 562.2,719.2 635.4,657.8 653,643.1 720.7,586.2 	"/>
	<polygon fill="#FFFFFF" stroke="#231F20" stroke-miterlimit="10" points="768.6,561.1 779.9,579.7 700.5,641.6 681.5,656.5 
		608,714 574.1,734.5 562.8,715.9 642.2,654 661.2,639.1 734.7,581.7 	"/>
	<polygon fill="#FFFFFF" stroke="#231F20" stroke-miterlimit="10" points="783.3,556.5 794.7,575.6 709.1,638.1 688.6,653.1 
		609.4,711.1 574.7,731.7 563.4,712.6 648.9,650.1 669.5,635.1 748.6,577.1 	"/>
	<polygon fill="#FFFFFF" stroke="#231F20" stroke-miterlimit="10" points="798.1,552 809.4,571.5 717.8,634.6 695.8,649.7 
		610.9,708.2 575.3,728.8 564,709.3 655.7,646.2 677.7,631.1 762.6,572.6 	"/>
	<polygon fill="#FFFFFF" stroke="#231F20" stroke-miterlimit="10" points="812.9,547.4 824.2,567.4 726.4,631 702.9,646.3 
		612.3,705.3 576,726 564.6,706 662.5,642.4 685.9,627.1 776.6,568.1 	"/>
	<polygon fill="#FFFFFF" stroke="#231F20" stroke-miterlimit="10" points="827.6,542.8 839,563.3 735,627.5 710.1,642.9 
		613.7,702.4 576.6,723.1 565.2,702.7 669.2,638.5 694.2,623.1 790.5,563.5 	"/>
	<polygon fill="#FFFFFF" stroke="#231F20" stroke-miterlimit="10" points="842.4,538.3 853.8,559.1 743.7,623.9 717.2,639.5 
		615.2,699.5 577.2,720.3 565.8,699.4 676,634.6 702.4,619.1 804.5,559 	"/>
	<polygon fill="#FFFFFF" stroke="#231F20" stroke-miterlimit="10" points="857.2,533.7 868.6,555 752.3,620.4 724.4,636.1 
		616.6,696.7 577.9,717.4 566.4,696.1 682.7,630.8 710.7,615.1 818.4,554.5 	"/>
	<polygon fill="#FFFFFF" stroke="#231F20" stroke-miterlimit="10" points="871.9,529.1 883.4,550.9 760.9,616.8 731.5,632.7 
		618,693.8 578.5,714.6 567,692.8 689.5,626.9 718.9,611.1 832.4,549.9 	"/>
	<polygon fill="#FFFFFF" stroke="#231F20" stroke-miterlimit="10" points="898.2,546.8 738.7,629.3 579.1,711.7 567.6,689.5 
		727.2,607 886.7,524.6 	"/>
	
		<rect x="553.2" y="598.4" transform="matrix(0.8948 -0.4464 0.4464 0.8948 -195.7023 391.0566)" fill="#FFFFFF" stroke="#231F20" stroke-miterlimit="10" width="358" height="24.9"/>
	
		<rect x="553" y="591.2" transform="matrix(0.9013 -0.4333 0.4333 0.9013 -189.3339 376.5145)" fill="#FFFFFF" stroke="#231F20" stroke-miterlimit="10" width="356.9" height="24.8"/>
	
		<rect x="552.7" y="584" transform="matrix(0.9075 -0.42 0.42 0.9075 -182.9302 362.0514)" fill="#FFFFFF" stroke="#231F20" stroke-miterlimit="10" width="355.8" height="24.8"/>
	
		<rect x="552.5" y="576.8" transform="matrix(0.9136 -0.4066 0.4066 0.9136 -176.4937 347.6732)" fill="#FFFFFF" stroke="#231F20" stroke-miterlimit="10" width="354.9" height="24.7"/>
	
		<rect x="552.2" y="569.6" transform="matrix(0.9195 -0.393 0.393 0.9195 -170.0273 333.3856)" fill="#FFFFFF" stroke="#231F20" stroke-miterlimit="10" width="354" height="24.6"/>
	
		<rect x="551.8" y="562.4" transform="matrix(0.9253 -0.3793 0.3793 0.9253 -163.5339 319.1944)" fill="#FFFFFF" stroke="#231F20" stroke-miterlimit="10" width="353.2" height="24.6"/>
	
		<rect x="551.4" y="555.2" transform="matrix(0.9309 -0.3654 0.3654 0.9309 -157.0169 305.1052)" fill="#FFFFFF" stroke="#231F20" stroke-miterlimit="10" width="352.5" height="24.5"/>
	
		<rect x="551" y="548" transform="matrix(0.9362 -0.3514 0.3514 0.9362 -150.4798 291.1237)" fill="#FFFFFF" stroke="#231F20" stroke-miterlimit="10" width="351.8" height="24.5"/>
	
		<rect x="550.5" y="540.7" transform="matrix(0.9414 -0.3372 0.3372 0.9414 -143.9264 277.2554)" fill="#FFFFFF" stroke="#231F20" stroke-miterlimit="10" width="351.3" height="24.4"/>
	
		<rect x="550" y="533.5" transform="matrix(0.9464 -0.3229 0.3229 0.9464 -137.3606 263.5056)" fill="#FFFFFF" stroke="#231F20" stroke-miterlimit="10" width="350.8" height="24.4"/>
	
		<rect x="549.5" y="526.3" transform="matrix(0.9512 -0.3086 0.3086 0.9512 -130.7865 249.8795)" fill="#FFFFFF" stroke="#231F20" stroke-miterlimit="10" width="350.4" height="24.4"/>
	
		<rect x="548.9" y="519" transform="matrix(0.9558 -0.2941 0.2941 0.9558 -124.2085 236.3822)" fill="#FFFFFF" stroke="#231F20" stroke-miterlimit="10" width="350.1" height="24.4"/>
	
		<rect x="548.3" y="511.8" transform="matrix(0.9601 -0.2795 0.2795 0.9601 -117.6311 223.0186)" fill="#FFFFFF" stroke="#231F20" stroke-miterlimit="10" width="349.8" height="24.3"/>
	
		<rect x="547.6" y="504.6" transform="matrix(0.9643 -0.2649 0.2649 0.9643 -111.0589 209.7933)" fill="#FFFFFF" stroke="#231F20" stroke-miterlimit="10" width="349.7" height="24.3"/>
	
		<rect x="546.9" y="497.3" transform="matrix(0.9682 -0.2501 0.2501 0.9682 -104.4969 196.7108)" fill="#FFFFFF" stroke="#231F20" stroke-miterlimit="10" width="349.6" height="24.3"/>
	
		<rect x="546.2" y="490.1" transform="matrix(0.9719 -0.2353 0.2353 0.9719 -97.9499 183.7753)" fill="#FFFFFF" stroke="#231F20" stroke-miterlimit="10" width="349.6" height="24.3"/>
	
		<rect x="545.4" y="482.8" transform="matrix(0.9754 -0.2205 0.2205 0.9754 -91.4231 170.9909)" fill="#FFFFFF" stroke="#231F20" stroke-miterlimit="10" width="349.7" height="24.3"/>
	
		<rect x="544.5" y="475.6" transform="matrix(0.9786 -0.2056 0.2056 0.9786 -84.9216 158.3611)" fill="#FFFFFF" stroke="#231F20" stroke-miterlimit="10" width="349.8" height="24.3"/>
	
		<rect x="543.7" y="468.3" transform="matrix(0.9816 -0.1907 0.1907 0.9816 -78.4508 145.8894)" fill="#FFFFFF" stroke="#231F20" stroke-miterlimit="10" width="350.1" height="24.4"/>
	
		<rect x="542.8" y="461.1" transform="matrix(0.9844 -0.1758 0.1758 0.9844 -72.0158 133.5789)" fill="#FFFFFF" stroke="#231F20" stroke-miterlimit="10" width="350.4" height="24.4"/>
	
		<rect x="541.8" y="453.8" transform="matrix(0.987 -0.1609 0.1609 0.987 -65.6222 121.4326)" fill="#FFFFFF" stroke="#231F20" stroke-miterlimit="10" width="350.8" height="24.4"/>
	
		<rect x="540.8" y="446.6" transform="matrix(0.9893 -0.1459 0.1459 0.9893 -59.2752 109.4528)" fill="#FFFFFF" stroke="#231F20" stroke-miterlimit="10" width="351.3" height="24.4"/>
	
		<rect x="539.8" y="439.3" transform="matrix(0.9914 -0.131 0.131 0.9914 -52.9803 97.6419)" fill="#FFFFFF" stroke="#231F20" stroke-miterlimit="10" width="351.8" height="24.5"/>
	
		<rect x="538.7" y="432" transform="matrix(0.9932 -0.1161 0.1161 0.9932 -46.7429 86.0017)" fill="#FFFFFF" stroke="#231F20" stroke-miterlimit="10" width="352.5" height="24.5"/>
	
		<rect x="537.6" y="424.8" transform="matrix(0.9949 -0.1012 0.1012 0.9949 -40.5683 74.5338)" fill="#FFFFFF" stroke="#231F20" stroke-miterlimit="10" width="353.2" height="24.6"/>
	
		<rect x="536.5" y="417.5" transform="matrix(0.9963 -8.638471e-02 8.638471e-02 0.9963 -34.4617 63.2395)" fill="#FFFFFF" stroke="#231F20" stroke-miterlimit="10" width="354" height="24.6"/>
	
		<rect x="535.3" y="410.2" transform="matrix(0.9974 -7.160595e-02 7.160595e-02 0.9974 -28.4285 52.1198)" fill="#FFFFFF" stroke="#231F20" stroke-miterlimit="10" width="354.9" height="24.7"/>
	
		<rect x="534" y="402.9" transform="matrix(0.9984 -5.688797e-02 5.688797e-02 0.9984 -22.4737 41.1753)" fill="#FFFFFF" stroke="#231F20" stroke-miterlimit="10" width="355.8" height="24.8"/>
	
		<rect x="532.8" y="395.7" transform="matrix(0.9991 -4.223996e-02 4.223996e-02 0.9991 -16.6023 30.4063)" fill="#FFFFFF" stroke="#231F20" stroke-miterlimit="10" width="356.9" height="24.8"/>
	
		<rect x="531.5" y="388.4" transform="matrix(0.9996 -2.767081e-02 2.767081e-02 0.9996 -10.8193 19.813)" fill="#FFFFFF" stroke="#231F20" stroke-miterlimit="10" width="358" height="24.9"/>
	
		<rect x="530.1" y="381.1" transform="matrix(0.9999 -1.318911e-02 1.318911e-02 0.9999 -5.1293 9.3949)" fill="#FFFFFF" stroke="#231F20" stroke-miterlimit="10" width="359.2" height="25"/>
	<polygon fill="#FFFFFF" stroke="#231F20" stroke-miterlimit="10" points="543.1,415.8 532.4,386.6 880.3,381.3 891,410.5 	"/>
	<polygon fill="#FFFFFF" stroke="#231F20" stroke-miterlimit="10" points="555.9,423.2 534.7,389.8 871.4,383.9 892.6,417.3 	"/>
	<polygon fill="#FFFFFF" stroke="#231F20" stroke-miterlimit="10" points="568.7,430.6 537.1,392.9 862.5,386.5 894.1,424.2 	"/>
	<polygon fill="#FFFFFF" stroke="#231F20" stroke-miterlimit="10" points="581.5,438 539.4,396.1 853.7,389 895.7,431 	"/>
	<polygon fill="#FFFFFF" stroke="#231F20" stroke-miterlimit="10" points="594.2,445.4 541.8,399.2 844.8,391.6 897.2,437.8 	"/>
	<polygon fill="#FFFFFF" stroke="#231F20" stroke-miterlimit="10" points="607,452.8 544.2,402.4 835.9,394.2 898.8,444.6 	"/>
	<polygon fill="#FFFFFF" stroke="#231F20" stroke-miterlimit="10" points="619.8,460.2 546.5,405.5 827,396.8 900.3,451.4 	"/>
	<polygon fill="#FFFFFF" stroke="#231F20" stroke-miterlimit="10" points="632.6,467.6 548.9,408.7 818.2,399.3 901.9,458.2 	"/>
	<polygon fill="#FFFFFF" stroke="#231F20" stroke-miterlimit="10" points="645.4,475 551.3,411.8 809.3,401.9 903.4,465.1 	"/>
	<polygon fill="#FFFFFF" stroke="#231F20" stroke-miterlimit="10" points="658.2,482.3 553.6,415 800.4,404.5 905,471.9 	"/>
	<polygon fill="#FFFFFF" stroke="#231F20" stroke-miterlimit="10" points="670.9,489.7 556,418.1 791.6,407.1 906.5,478.7 	"/>
	<polygon fill="#FFFFFF" stroke="#231F20" stroke-miterlimit="10" points="683.7,497.1 558.3,421.3 782.7,409.7 908.1,485.5 	"/>
	<polygon fill="#FFFFFF" stroke="#231F20" stroke-miterlimit="10" points="696.5,504.5 560.7,424.4 773.8,412.2 909.6,492.3 	"/>
	<polygon fill="#FFFFFF" stroke="#231F20" stroke-miterlimit="10" points="709.3,511.9 563.1,427.6 764.9,414.8 911.2,499.1 	"/>
	<polygon fill="#FFFFFF" stroke="#231F20" stroke-miterlimit="10" points="722.1,519.3 565.4,430.7 756.1,417.4 912.7,505.9 	"/>
	<polygon fill="#FFFFFF" stroke="#231F20" stroke-miterlimit="10" points="734.9,526.7 567.8,433.9 747.2,420 914.3,512.8 	"/>
	<polygon fill="#FFFFFF" stroke="#231F20" stroke-miterlimit="10" points="747.6,534.1 570.2,437 738.3,422.6 915.8,519.6 	"/>
	<polygon fill="#FFFFFF" stroke="#231F20" stroke-miterlimit="10" points="760.4,541.4 572.5,440.2 729.5,425.1 917.4,526.4 	"/>
	<polygon fill="#FFFFFF" stroke="#231F20" stroke-miterlimit="10" points="773.2,548.8 574.9,443.3 720.6,427.7 918.9,533.2 	"/>
	<polygon fill="#FFFFFF" stroke="#231F20" stroke-miterlimit="10" points="786,556.2 577.3,446.5 711.7,430.3 920.5,540 	"/>
	<polygon fill="#FFFFFF" stroke="#231F20" stroke-miterlimit="10" points="798.8,563.6 579.6,449.6 702.8,432.9 922,546.8 	"/>
	<polygon fill="#FFFFFF" stroke="#231F20" stroke-miterlimit="10" points="811.6,571 582,452.8 694,435.4 923.6,553.7 	"/>
	<polygon fill="#FFFFFF" stroke="#231F20" stroke-miterlimit="10" points="824.3,578.4 584.3,455.9 685.1,438 925.1,560.5 	"/>
	<polygon fill="#FFFFFF" stroke="#231F20" stroke-miterlimit="10" points="837.1,585.8 586.7,459.1 676.2,440.6 926.7,567.3 	"/>
	<polygon fill="#FFFFFF" stroke="#231F20" stroke-miterlimit="10" points="849.9,593.2 589.1,462.2 667.4,443.2 928.2,574.1 	"/>
	<polygon fill="#FFFFFF" stroke="#231F20" stroke-miterlimit="10" points="862.7,600.6 591.4,465.4 658.5,445.8 929.8,580.9 	"/>
	<polygon fill="#FFFFFF" stroke="#231F20" stroke-miterlimit="10" points="875.5,607.9 593.8,468.5 649.6,448.3 931.3,587.7 	"/>
	<polygon fill="#FFFFFF" stroke="#231F20" stroke-miterlimit="10" points="888.3,615.3 596.2,471.7 640.7,450.9 932.9,594.5 	"/>
	<polygon fill="#FFFFFF" stroke="#231F20" stroke-miterlimit="10" points="901.1,622.7 598.5,474.9 631.9,453.5 934.4,601.4 	"/>
	<polygon fill="#FFFFFF" stroke="#231F20" stroke-miterlimit="10" points="913.8,630.1 600.9,478 623,456.1 936,608.2 	"/>
	
		<rect x="590.8" y="535.6" transform="matrix(0.9003 0.4353 -0.4353 0.9003 315.3748 -280.6821)" fill="#FFFFFF" stroke="#231F20" stroke-miterlimit="10" width="359.2" height="25"/>
</g>
</svg>
