<?xml version="1.0" encoding="utf-8"?>
<!-- Generator: Adobe Illustrator 17.1.0, SVG Export Plug-In . SVG Version: 6.00 Build 0)  -->
<!DOCTYPE svg PUBLIC "-//W3C//DTD SVG 1.1//EN" "http://www.w3.org/Graphics/SVG/1.1/DTD/svg11.dtd">
<svg version="1.1" id="Layer_1" xmlns="http://www.w3.org/2000/svg" xmlns:xlink="http://www.w3.org/1999/xlink" x="0px" y="0px"
	 viewBox="0 0 1000 1000" enable-background="new 0 0 1000 1000" xml:space="preserve">
<path fill="#F5C7C7" d="M275.6,466.6c-1.6,7.4-7.6,44.6,23.2,53c0.3,0.1,0.5,0.1,0.7,0.1c0.3,0,0.6-0.1,0.9-0.2l8.2-3.2
	c3.2,4.7,7.2,8.5,11.9,11.3c0.4,0.2,0.9,0.3,1.3,0.3c0.3,0,0.5,0,0.8-0.1l9.6-3.2c1.6,1.3,3.3,2.6,4.9,3.9c2.8,2.2,5.6,4.5,8.6,6.4
	c5.3,3.3,11.5,4.1,17.6,4.9c2,0.2,3.9,0.5,5.7,0.8c7.7,1.4,15.7,3.3,23.8,5.7c1.7,0.5,3.6,0.9,5.6,1.4c5.7,1.4,12.9,3.1,16.4,6
	c15.9,13,39.3,23.5,69.5,31.1c-0.5,0.7-0.7,1.7-0.3,2.6c10.3,22.8,30.8,26.4,33.3,26.8c10.4,3,20.1,4.4,29.1,4.4
	c33.8,0,58.7-18.9,81.3-36.1c4.2-3.2,8.1-6.2,12.1-9.1c29.7-21.4,28.1-92.3,27.5-106c48.1-9.9,64.1-39.9,64.8-41.2
	c0.3-0.5,0.4-1.2,0.2-1.8l-10.9-37.2c-0.2-0.8-0.9-1.5-1.7-1.7l-37.2-10.3c-0.4-0.1-0.9-0.1-1.3,0l-44.6,11.5l4.3-57
	c0.1-1.2-0.7-2.3-1.9-2.6l-24.8-5.7c-0.9-0.2-1.8,0.1-2.4,0.7l-43.6,45.1c-51.3-16.6-105.6-2.6-106.2-2.4s-16.2,3.9-30,16.1
	c-5.3,4.7-31.6,9.4-66.9,11.9c-32.2,2.3-62.2,2.1-69.7-0.5c-9.2-3.1-15.7-1.2-19.5,1c-4.8,2.8-7.6,7.1-8,9.2c-0.2,1,0,2.2,0.3,4.5
	c0.7,5.1,1.9,14.6,0.1,28.3C266,452.3,273.2,463.5,275.6,466.6z"/>
<g id="Layer_1_1_">
</g>
<path fill="#BF001A" d="M275.6,466.6c-1.6,7.4-7.6,44.6,23.2,53c0.3,0.1,0.5,0.1,0.7,0.1c0.3,0,0.6-0.1,0.9-0.2l8.2-3.2
	c3.2,4.7,7.2,8.5,11.9,11.3c0.4,0.2,0.9,0.3,1.3,0.3c0.3,0,0.5,0,0.8-0.1l9.6-3.2c1.6,1.3,3.3,2.6,4.9,3.9c2.8,2.2,5.6,4.5,8.6,6.4
	c5.3,3.3,11.5,4.1,17.6,4.9c2,0.2,3.9,0.5,5.7,0.8c7.7,1.4,15.7,3.3,23.8,5.7c1.7,0.5,3.6,0.9,5.6,1.4c5.7,1.4,12.9,3.1,16.4,6
	c15.9,13,39.3,23.5,69.5,31.1c-0.5,0.7-0.7,1.7-0.3,2.6c10.3,22.8,30.8,26.4,33.3,26.8c10.4,3,20.1,4.4,29.1,4.4
	c33.8,0,58.7-18.9,81.3-36.1c4.2-3.2,8.1-6.2,12.1-9.1c29.7-21.4,28.1-92.3,27.5-106c48.1-9.9,64.1-39.9,64.8-41.2
	c0.3-0.5,0.4-1.2,0.2-1.8l-10.9-37.2c-0.2-0.8-0.9-1.5-1.7-1.7l-37.2-10.3c-0.4-0.1-0.9-0.1-1.3,0l-44.6,11.5l4.3-57
	c0.1-1.2-0.7-2.3-1.9-2.6l-24.8-5.7c-0.9-0.2-1.8,0.1-2.4,0.7l-43.6,45.1c-51.3-16.6-105.6-2.6-106.2-2.4s-16.2,3.9-30,16.1
	c-5.3,4.7-31.6,9.4-66.9,11.9c-32.2,2.3-62.2,2.1-69.7-0.5c-9.2-3.1-15.7-1.2-19.5,1c-4.8,2.8-7.6,7.1-8,9.2c-0.2,1,0,2.2,0.3,4.5
	c0.7,5.1,1.9,14.6,0.1,28.3C266,452.3,273.2,463.5,275.6,466.6z M305.1,474.7l16.4,2.9l8.5,42.7l-7.7,2.6
	C303.3,510.8,304.2,483.2,305.1,474.7z M280.6,469.2l19.6,4.6c-0.4,3.6-0.9,11.1,0.3,19.7c0.9,7.1,2.9,13.3,5.7,18.7l-6.6,2.5
	c-11.7-3.5-18.4-12.4-20-26.4C278.7,480.4,279.7,472.9,280.6,469.2z M273.2,435.7c0.1-0.7,0.2-1.3,0.3-2h25.7c1.4,0,2.5-1.1,2.5-2.5
	s-1.1-2.5-2.5-2.5h-25.8c0.8-10.6-0.2-18.2-0.8-22.6c-0.1-1.1-0.3-2.3-0.3-2.8c0.3-0.7,2.1-4,6.1-6.1c4.1-2.2,9.1-2.3,14.8-0.3
	c9.2,3.2,43.1,2.8,71.7,0.8c18-1.3,60.8-5.1,69.9-13.2c12.8-11.4,27.8-15,27.9-15c0.7-0.2,64-16.6,117.4,7.6
	c1.2,0.6,2.7,0.1,3.3-1.2c0.6-1.2,0.1-2.7-1.2-3.3c-3.1-1.3-6.1-2.6-9.2-3.7l41-42.4l21.4,4.9l-4.2,56.5l-4.6,1.2
	c-1.3,0.3-2.1,1.7-1.8,3s1.7,2.1,3,1.8l53.7-13.8l35.3,9.8l10.2,34.9c-1.3,2.2-5.4,8.4-13.3,15.3c-9,7.9-24.9,18.2-49.6,22.9
	c-1.2,0.2-2.1,1.3-2,2.6c0.1,0.9,4.8,82.2-25.3,103.9c-4,3-8,6-12.2,9.2c-27.7,21-59,44.9-106.1,30.8c-0.1-0.1-0.3-0.1-0.4-0.1
	c-0.8-0.1-19.6-2.7-29.3-23.3c20.7,4.9,36.8,6.6,37,6.6c0.1,0,0.2,0,0.3,0c1.3,0,2.4-0.9,2.5-2.2c0.2-1.3-0.8-2.6-2.2-2.7
	c-0.7-0.1-71.6-7.5-108.3-37.7c-4.4-3.7-11.8-5.4-18.4-7c-1.9-0.5-3.8-1-5.3-1.4c-8.2-2.4-16.4-4.4-24.3-5.8c-2-0.4-4-0.6-6-0.9
	c-5.5-0.7-11.2-1.5-15.6-4.2c-2.7-1.6-5.5-3.9-8.1-6c-1.8-1.4-3.6-2.9-5.4-4.2l-9.1-45.6c-0.2-1-1-1.8-2-2l-20.6-3.6l-23.4-5.5
	C278,461.5,271.2,451.4,273.2,435.7z"/>
<path fill="#BF001A" d="M456.5,451.9c4.2,33.4,46.4,36,59.2,36l0,0c3.1,0,5-0.1,5.1-0.1h0.1c11.5-1.3,21.6-7.9,29.2-19
	c5.6-8.3,7.9-16.1,8-16.4c0.3-1,0-2.1-0.9-2.7c-1.3-1-2.6-2-3.9-2.9c-11.6-8.5-21.7-15.9-36.9-19.1c-6.1-1.2-11.9-1.9-17.3-1.9
	c-7,0-13.4,1.1-19.1,3.2C463.3,435.2,455.5,443,456.5,451.9z M481.9,433.7c9.3-3.5,20.6-3.9,33.7-1.1c14.1,3,23.8,10.1,34.9,18.3
	c0.8,0.6,1.6,1.2,2.4,1.8c-1,2.6-3.1,7.9-6.9,13.4c-6.9,9.9-15.5,15.6-25.6,16.8c-0.4,0-2.1,0.1-4.7,0.1l0,0
	c-6.7,0-19.6-0.7-31.2-5.1c-13.8-5.3-21.5-14.2-23-26.5C460.5,443.4,472,437.3,481.9,433.7z"/>
<path fill="#BF001A" d="M488.8,447.6c-0.1,0.2-2.3,5.1,0,10.6c1.8,4.3,5.8,7.6,11.8,9.8c2.3,0.9,4.5,1.3,6.6,1.3l0,0
	c10,0,14.4-9.9,15.3-15.1c0.2-0.9-0.2-1.8-0.9-2.4c-6.4-5-13.4-7.6-20.7-7.6c-6.4,0-10.7,2-10.9,2.1
	C489.5,446.6,489.1,447,488.8,447.6z M493.1,450.5c1.4-0.5,4.2-1.3,7.9-1.3c5.7,0,11.2,1.9,16.3,5.6c-0.8,3-3.5,9.5-10,9.5l0,0
	c-1.5,0-3.1-0.3-4.9-1c-4.7-1.7-7.6-4.1-8.9-7C492.5,454,492.8,451.7,493.1,450.5z"/>
</svg>
