<?xml version="1.0" encoding="utf-8"?>
<!-- Generator: Adobe Illustrator 17.1.0, SVG Export Plug-In . SVG Version: 6.00 Build 0)  -->
<!DOCTYPE svg PUBLIC "-//W3C//DTD SVG 1.1//EN" "http://www.w3.org/Graphics/SVG/1.1/DTD/svg11.dtd">
<svg version="1.1" id="Layer_1" xmlns="http://www.w3.org/2000/svg" xmlns:xlink="http://www.w3.org/1999/xlink" x="0px" y="0px"
	 viewBox="0 0 1000 1000" enable-background="new 0 0 1000 1000" xml:space="preserve">
<path fill="#FAE3E3" d="M262.3,571c0.4,1,1.3,1.6,2.3,1.6l0,0c1,0,1.9-0.6,2.3-1.6c0-0.1,1.3-3.2,4-7.2c3,3.3,8.9,8.3,16.7,8.8
	c10.6,0.7,31.3,0.7,45.3,0c10.6-0.5,34.7,7.2,60.2,15.4c7.9,2.6,16,5.2,24.2,7.7c9.4,2.9,17.6,4,24.6,4c13.6,0,22.7-4.1,27.3-6.9
	c0.7,3.5,2,6.8,4.2,9.7c3.9,5.2,10,7.9,17.7,7.9c15.5,0,22.4,16.7,25.4,23.9c0.4,1,0.7,1.8,1,2.4c1.8,3.6,8.6,6.6,14.8,6.6
	c6.5,0,11.5-3,14.3-8.6c0.9-1.8,1.7-3.6,2.4-5.2c1.1-2.3,2.5-5.5,3.3-6c0.5,0.2,2.5,1.4,8.3,10.5c3.6,5.8,8.4,8.7,14.1,8.7
	c11.8,0,23.2-13,23.7-13.5s0.7-1.3,0.6-2c0-0.2-2.7-17.9,6-23.1c0.9-0.5,1.6-0.8,2.3-0.8c4.8,0,8.6,13.8,11.1,23
	c0.5,1.7,0.9,3.4,1.4,5c4.3,15.2,22,24.7,22.7,25.1c0.4,0.2,0.8,0.3,1.2,0.3c0.3,0,0.7,0,1-0.2c0.7-0.3,1.2-0.9,1.4-1.7
	c4.8-21,14.6-54.4,21.6-60l0.7-0.6c3.5-2.7,6.4-5.1,8.7-5.1c3.7,0,8.3,7,14.3,22.1c12.3,30.6,20.6,36.4,21.5,37
	c0.4,0.3,1,0.4,1.5,0.4l71.7-5.1c0.8,0,1.6-0.6,2-1.3c0.4-0.7,0.3-1.7-0.1-2.4c-0.5-0.8-48.9-81.8-51.9-119.7
	c-1.6-19.2-8.5-52.2-17.8-84.1c-4.8-16.7-17.4-57-28.9-69.9c-1.9-2.1-3.9-4.5-6.1-7c-17.3-20.1-43.5-50.5-77.1-50.5
	c-2.3,0-4.7,0.1-7,0.4c-21.9,2.8-40.5,10.9-55.4,17.4c-12.5,5.5-23.4,10.2-32.3,10.2c-9.9,0-25.7,3-40.3,11.5
	c-11.4,6.6-25.7,19-28.7,39.8c-4.8,33.5-12.4,62.9-13.2,66c-1.6,2.9-18.4,31.9-41.7,35c-6.4,0.8-16.3,0.5-27.8,0.2
	c-34.3-1-81.4-2.3-92.2,25.2C253.8,549.6,261.8,570.6,262.3,571z"/>
<g id="Layer_1_1_">
</g>
<path fill="#BF001A" d="M520.2,428.7c-10,14.6-10.9,31.8-2.4,48.4c9.5,18.6,30.1,34.2,46,34.6c1.1,0,2.2,0,3.2,0
	c22.9,0,31.1-7.2,31.4-7.5c1.1-0.9,1.1-2.5,0.2-3.5c-0.9-1.1-2.5-1.1-3.5-0.2c-0.1,0.1-8,6.8-31,6.2c-15.4-0.4-34-16.8-41.7-31.9
	c-5.3-10.6-9.3-26.7,2.1-43.4c14.8-21.5,29.2-17.9,47.6-13.4c11,2.7,23.6,5.8,37.2,2.8c10.5-2.3,18.4-7.4,23.3-15.1
	c8.8-13.8,5.1-30.9,4.9-31.6c-0.3-1.4-1.7-2.2-3-1.9c-1.4,0.3-2.2,1.7-1.9,3c0.1,0.2,3.4,15.8-4.2,27.8
	c-4.1,6.6-10.9,10.9-20.1,12.9c-12.5,2.7-23.9-0.1-35-2.8C554.7,408.5,537.1,404.2,520.2,428.7z"/>
<path fill="#BF001A" d="M549.7,449.7c-0.4-5.5,2-10.4,6.6-13.4c4.1-2.7,9.3-3.3,12.7-1.5c2.5,1.3,3.8,3.8,3.9,7.3
	c0.2,7.7-1.6,9-2,9.2c-1,0.4-2.8-0.6-3.5-1.1c-1.1-0.9-2.6-0.7-3.5,0.4c-0.8,1.1-0.7,2.6,0.4,3.5c0.5,0.3,4.8,3.6,8.8,1.6
	c3.4-1.7,5-6.2,4.8-13.8c-0.2-5.3-2.5-9.4-6.6-11.6c-5.1-2.7-12.1-2-17.8,1.7c-6.2,4-9.4,10.5-8.9,17.9
	c1.5,21.6,38.2,25.4,39.8,25.5c0,0,0.1,0,0.2,0c1.3,0,2.4-1,2.5-2.3c0.1-1.3-0.9-2.6-2.3-2.7C584.5,470.4,550.7,467,549.7,449.7z"/>
<path fill="#BF001A" d="M262.3,571c0.4,1,1.3,1.6,2.3,1.6l0,0c1,0,1.9-0.6,2.3-1.6c0-0.1,1.3-3.2,4-7.2c3,3.3,8.9,8.3,16.7,8.8
	c10.6,0.7,31.3,0.7,45.3,0c10.6-0.5,34.7,7.2,60.2,15.4c7.9,2.6,16,5.2,24.2,7.7c9.4,2.9,17.6,4,24.6,4c13.6,0,22.7-4.1,27.3-6.9
	c0.7,3.5,2,6.8,4.2,9.7c3.9,5.2,10,7.9,17.7,7.9c15.5,0,22.4,16.7,25.4,23.9c0.4,1,0.7,1.8,1,2.4c1.8,3.6,8.6,6.6,14.8,6.6
	c6.5,0,11.5-3,14.3-8.6c0.9-1.8,1.7-3.6,2.4-5.2c1.1-2.3,2.5-5.5,3.3-6c0.5,0.2,2.5,1.4,8.3,10.5c3.6,5.8,8.4,8.7,14.1,8.7
	c11.8,0,23.2-13,23.7-13.5s0.7-1.3,0.6-2c0-0.2-2.7-17.9,6-23.1c0.9-0.5,1.6-0.8,2.3-0.8c4.8,0,8.6,13.8,11.1,23
	c0.5,1.7,0.9,3.4,1.4,5c4.3,15.2,22,24.7,22.7,25.1c0.4,0.2,0.8,0.3,1.2,0.3c0.3,0,0.7,0,1-0.2c0.7-0.3,1.2-0.9,1.4-1.7
	c4.8-21,14.6-54.4,21.6-60l0.7-0.6c3.5-2.7,6.4-5.1,8.7-5.1c3.7,0,8.3,7,14.3,22.1c12.3,30.6,20.6,36.4,21.5,37
	c0.4,0.3,1,0.4,1.5,0.4l71.7-5.1c0.8,0,1.6-0.6,2-1.3c0.4-0.7,0.3-1.7-0.1-2.4c-0.5-0.8-48.9-81.8-51.9-119.7
	c-1.6-19.2-8.5-52.2-17.8-84.1c-4.8-16.7-17.4-57-28.9-69.9c-1.9-2.1-3.9-4.5-6.1-7c-17.3-20.1-43.5-50.5-77.1-50.5
	c-2.3,0-4.7,0.1-7,0.4c-21.9,2.8-40.5,10.9-55.4,17.4c-12.5,5.5-23.4,10.2-32.3,10.2c-9.9,0-25.7,3-40.3,11.5
	c-11.4,6.6-25.7,19-28.7,39.8c-4.8,33.5-12.4,62.9-13.2,66c-1.6,2.9-18.4,31.9-41.7,35c-6.4,0.8-16.3,0.5-27.8,0.2
	c-34.3-1-81.4-2.3-92.2,25.2C253.8,549.6,261.8,570.6,262.3,571z M473.5,587.9L473.5,587.9c-0.3-4.2,0.4-8.5,1.4-12.1
	c0.5-1.9,1.1-3.7,1.6-5.5c3.5-11.5,6.5-21.5,5.6-48.5c-1-29-40-62.1-47.8-68.4c1.8-6.7,8.6-34.2,13-65.2c5.1-35.2,46.1-47,64.1-47
	c9.9,0,21.2-4.9,34.3-10.6c15.4-6.7,32.8-14.3,54-17c2.1-0.3,4.3-0.4,6.4-0.4c31.3,0,56.6,29.4,73.3,48.8c2.2,2.6,4.3,5,6.2,7.1
	c7.6,8.4,18,33.8,27.9,68c9.2,31.7,16.1,64.3,17.6,83.1c2.8,34.9,41,102.1,50.5,118.4l-47.2,3.4l-22-63.4c-0.5-1.3-1.9-2-3.2-1.5
	s-2,1.9-1.5,3.2l21.6,62.1l-14.3,1c-2-1.8-9.1-9.5-19-34.2c-7.4-18.4-12.5-25.2-19-25.2c-4,0-7.6,2.9-11.8,6.2l-0.7,0.6
	c-9.4,7.6-19.6,46.9-22.6,59.5c-4.9-3.1-14.7-10.5-17.5-20.3c-0.5-1.6-0.9-3.2-1.4-4.9c-3.6-13.1-7.3-26.7-15.9-26.7
	c-1.5,0-3.2,0.5-4.8,1.5c-10.1,6-9,22.3-8.5,26.9c-2.6,2.7-11.2,11-19.2,11c-4,0-7.2-2-9.9-6.3c-5.9-9.5-9.2-12.8-12.6-12.8
	c-3.8,0-5.5,3.8-7.8,9c-0.6,1.5-1.4,3.2-2.3,5c-2,3.9-5.3,5.9-9.8,5.9c-5.2,0-9.7-2.6-10.3-3.8c-0.2-0.4-0.5-1.1-0.9-2
	c-3-7.4-11.2-27-30-27c-6.1,0-10.7-2-13.7-5.9C474.9,596.8,473.8,592.7,473.5,587.9z M273.9,560.1c3.5-4.1,8.3-8.4,14.6-11.1
	c9.9-4.2,21.5-3.5,34.4,1.9c19.8,8.4,39,13.6,57.1,15.5c18.7,2,30.1-0.2,35.3-1.7c11.9-3.4,49.3-10.6,60.8-12.8
	c-1,6.9-2.5,12-4.2,17.5c-0.6,1.8-1.1,3.7-1.7,5.6c-1,3.8-1.7,8.2-1.6,12.7c-1.6,1.1-5.5,3.6-11.7,5.4c-7.7,2.2-20.5,3.7-38.1-1.7
	c-8.2-2.6-16.3-5.2-24.2-7.7c-27.1-8.7-50.5-16.2-62-15.7c-13.8,0.7-34.3,0.7-44.8,0C281.2,567.6,276.1,562.6,273.9,560.1z
	 M272.3,516.1c9.5-24.2,54.5-22.9,87.4-22c11.7,0.3,21.8,0.6,28.6-0.3c22.8-3,39.1-27.1,44-35.2c9.2,7.8,44.1,38.5,44.9,63.9
	c0.4,10.3,0.1,17.9-0.5,24.2c-9.2,1.7-49.9,9.5-62.8,13.2c-15.7,4.5-48.4,3.7-89.1-13.5c-14.3-6-27.2-6.6-38.4-1.9
	c-10.8,4.6-17.5,13.1-21.1,18.9C264,555.1,263.4,538.7,272.3,516.1z"/>
</svg>
