<?xml version="1.0" encoding="utf-8"?>
<!-- Generator: Adobe Illustrator 17.1.0, SVG Export Plug-In . SVG Version: 6.00 Build 0)  -->
<!DOCTYPE svg PUBLIC "-//W3C//DTD SVG 1.1//EN" "http://www.w3.org/Graphics/SVG/1.1/DTD/svg11.dtd">
<svg version="1.1" id="Layer_1" xmlns="http://www.w3.org/2000/svg" xmlns:xlink="http://www.w3.org/1999/xlink" x="0px" y="0px"
	 viewBox="0 0 800 800" enable-background="new 0 0 800 800" xml:space="preserve">
<g id="XMLID_1_">
	<g>
	</g>
	<g>
		<polyline fill="none" stroke="#05FABD" stroke-miterlimit="10" points="249.999,246.154 249.999,193.846 263.077,206.923 
			276.153,220 		"/>
		<polyline fill="none" stroke="#05FABD" stroke-miterlimit="10" points="263.077,350.77 276.153,337.692 276.153,246.154 
			249.999,246.154 249.999,363.846 		"/>
		<line fill="none" stroke="#05FABD" stroke-miterlimit="10" x1="302.307" y1="246.154" x2="276.153" y2="246.154"/>
		<polyline fill="none" stroke="#05FABD" stroke-miterlimit="10" points="276.153,337.692 315.384,298.462 315.384,246.154 		"/>
		<polyline fill="none" stroke="#05FABD" stroke-miterlimit="10" points="367.692,220 276.153,220 302.307,246.154 315.384,246.154 
			354.615,246.154 380.769,220 		"/>
		<polyline fill="none" stroke="#05FABD" stroke-miterlimit="10" points="315.384,167.692 315.384,128.462 276.153,167.692 
			249.999,193.846 249.999,167.692 276.153,167.692 		"/>
		<line fill="none" stroke="#05FABD" stroke-miterlimit="10" x1="276.153" y1="220" x2="276.153" y2="206.923"/>
		<line fill="none" stroke="#05FABD" stroke-miterlimit="10" x1="393.846" y1="193.846" x2="393.846" y2="167.692"/>
		<polyline fill="none" stroke="#05FABD" stroke-miterlimit="10" points="354.615,246.154 354.615,259.231 393.846,220 
			406.923,206.923 		"/>
		<polyline fill="none" stroke="#05FABD" stroke-miterlimit="10" points="433.076,206.923 433.076,167.692 420,167.692 		"/>
		<polyline fill="none" stroke="#05FABD" stroke-miterlimit="10" points="354.615,311.539 380.769,285.385 406.923,259.231 
			406.923,246.154 		"/>
		<polygon fill="none" stroke="#05FABD" stroke-miterlimit="10" points="406.923,206.923 406.923,246.154 420,233.077 433.076,220 
			433.076,206.923 		"/>
		<polyline fill="none" stroke="#05FABD" stroke-miterlimit="10" points="459.23,272.308 459.23,259.231 459.23,233.077 
			433.076,206.923 446.153,193.846 459.23,180.77 472.308,167.692 459.23,167.692 433.076,167.692 		"/>
		<line fill="none" stroke="#05FABD" stroke-miterlimit="10" x1="380.769" y1="311.539" x2="393.846" y2="298.462"/>
		<polyline fill="none" stroke="#05FABD" stroke-miterlimit="10" points="315.384,350.77 328.461,363.846 334.999,357.308 		"/>
		<polyline fill="none" stroke="#05FABD" stroke-miterlimit="10" points="289.23,376.923 302.307,363.846 315.384,350.77 		"/>
		<line fill="none" stroke="#05FABD" stroke-miterlimit="10" x1="276.153" y1="363.846" x2="302.307" y2="363.846"/>
		<polyline fill="none" stroke="#05FABD" stroke-miterlimit="10" points="328.461,259.231 328.461,298.462 315.384,298.462 
			315.384,350.77 263.077,350.77 249.999,363.846 		"/>
		<polyline fill="none" stroke="#05FABD" stroke-miterlimit="10" points="354.615,337.692 354.615,324.616 354.615,311.539 
			354.615,259.231 328.461,259.231 315.384,246.154 		"/>
		<polyline fill="none" stroke="#05FABD" stroke-miterlimit="10" points="315.384,350.77 315.384,376.923 328.461,363.846 		"/>
		<polyline fill="none" stroke="#05FABD" stroke-miterlimit="10" points="341.538,363.846 380.769,363.846 380.769,311.539 
			354.615,337.692 334.999,357.308 341.538,363.846 354.615,376.923 341.538,390 315.384,416.154 315.384,376.923 		"/>
		<polygon fill="none" stroke="#05FABD" stroke-miterlimit="10" points="249.999,363.846 249.999,416.154 263.077,403.077 
			276.153,390 276.153,376.923 276.153,363.846 		"/>
		<polyline fill="none" stroke="#05FABD" stroke-miterlimit="10" points="276.153,376.923 289.23,376.923 289.23,455.385 
			315.384,429.231 315.384,416.154 		"/>
		<polyline fill="none" stroke="#05FABD" stroke-miterlimit="10" points="249.999,416.154 249.999,468.462 263.077,481.539 
			263.077,442.308 263.077,403.077 		"/>
		<line fill="none" stroke="#05FABD" stroke-miterlimit="10" x1="263.077" y1="442.308" x2="276.153" y2="455.385"/>
		<polyline fill="none" stroke="#05FABD" stroke-miterlimit="10" points="315.384,481.539 315.384,429.231 328.461,442.308 
			341.538,455.385 341.538,416.154 341.538,390 		"/>
		<line fill="none" stroke="#05FABD" stroke-miterlimit="10" x1="393.846" y1="376.923" x2="380.769" y2="363.846"/>
		<polyline fill="none" stroke="#05FABD" stroke-miterlimit="10" points="341.538,416.154 354.615,416.154 354.615,376.923 
			380.769,376.923 		"/>
		<polyline fill="none" stroke="#05FABD" stroke-miterlimit="10" points="406.923,390 406.923,442.308 420,429.231 420,416.154 		
			"/>
		<polyline fill="none" stroke="#05FABD" stroke-miterlimit="10" points="380.769,390 380.769,376.923 393.846,376.923 		"/>
		<polyline fill="none" stroke="#05FABD" stroke-miterlimit="10" points="354.615,416.154 354.615,429.231 361.153,435.77 
			380.769,455.385 		"/>
		<polyline fill="none" stroke="#05FABD" stroke-miterlimit="10" points="406.923,259.231 420,272.308 406.923,285.385 
			393.846,298.462 393.846,376.923 406.923,390 406.923,363.846 406.923,285.385 		"/>
		<line fill="none" stroke="#05FABD" stroke-miterlimit="10" x1="328.461" y1="298.462" x2="354.615" y2="324.616"/>
		<polyline fill="none" stroke="#05FABD" stroke-miterlimit="10" points="420,337.692 420,324.616 420,272.308 433.076,285.385 
			446.153,285.385 406.923,246.154 		"/>
		<line fill="none" stroke="#05FABD" stroke-miterlimit="10" x1="406.923" y1="363.846" x2="420" y2="350.77"/>
		<polyline fill="none" stroke="#05FABD" stroke-miterlimit="10" points="433.076,285.385 433.076,311.539 446.153,324.616 		"/>
		<line fill="none" stroke="#05FABD" stroke-miterlimit="10" x1="433.076" y1="311.539" x2="420" y2="324.616"/>
		<polyline fill="none" stroke="#05FABD" stroke-miterlimit="10" points="446.153,390 446.153,363.846 446.153,337.692 
			459.23,350.77 459.23,337.692 459.23,311.539 459.23,285.385 485.385,311.539 485.385,285.385 		"/>
		<polyline fill="none" stroke="#05FABD" stroke-miterlimit="10" points="420,233.077 433.076,246.154 459.23,272.308 
			459.23,285.385 446.153,285.385 446.153,324.616 446.153,337.692 420,337.692 420,350.77 420,376.923 446.153,403.077 		"/>
		<polyline fill="none" stroke="#05FABD" stroke-miterlimit="10" points="446.153,363.846 459.23,376.923 472.308,390 
			485.385,376.923 459.23,350.77 		"/>
		<line fill="none" stroke="#05FABD" stroke-miterlimit="10" x1="276.153" y1="206.923" x2="263.077" y2="206.923"/>
		<polyline fill="none" stroke="#05FABD" stroke-miterlimit="10" points="459.23,167.692 459.23,102.308 420,63.077 420,76.154 
			393.846,76.154 367.692,76.154 393.846,102.308 		"/>
		<polyline fill="none" stroke="#05FABD" stroke-miterlimit="10" points="328.461,167.692 315.384,167.692 276.153,206.923 
			354.615,206.923 367.692,220 380.769,220 393.846,220 		"/>
		<polyline fill="none" stroke="#05FABD" stroke-miterlimit="10" points="354.615,167.692 367.692,167.692 367.692,128.462 
			393.846,102.308 420,76.154 420,167.692 393.846,167.692 367.692,167.692 393.846,193.846 406.923,206.923 354.615,206.923 
			354.615,167.692 		"/>
		<line fill="none" stroke="#05FABD" stroke-miterlimit="10" x1="354.615" y1="167.692" x2="328.461" y2="167.692"/>
		<polyline fill="none" stroke="#05FABD" stroke-miterlimit="10" points="393.846,76.154 367.692,50 367.692,76.154 315.384,76.154 
			315.384,128.462 367.692,76.154 367.692,128.462 328.461,167.692 		"/>
		<line fill="none" stroke="#05FABD" stroke-miterlimit="10" x1="433.076" y1="220" x2="433.076" y2="246.154"/>
		<polyline fill="none" stroke="#05FABD" stroke-miterlimit="10" points="459.23,233.077 485.385,233.077 446.153,193.846 		"/>
		<polyline fill="none" stroke="#05FABD" stroke-miterlimit="10" points="524.615,350.77 511.538,363.846 511.538,311.539 
			511.538,272.308 511.538,259.231 498.461,246.154 485.385,233.077 485.385,285.385 459.23,259.231 		"/>
		<polyline fill="none" stroke="#05FABD" stroke-miterlimit="10" points="459.23,311.539 498.461,350.77 498.461,324.616 
			485.385,311.539 		"/>
		<polyline fill="none" stroke="#05FABD" stroke-miterlimit="10" points="459.23,337.692 498.461,376.923 511.538,390 
			511.538,363.846 498.461,350.77 		"/>
		<polyline fill="none" stroke="#05FABD" stroke-miterlimit="10" points="485.385,376.923 498.461,390 498.461,376.923 		"/>
		<polyline fill="none" stroke="#05FABD" stroke-miterlimit="10" points="446.153,390 446.153,403.077 446.153,429.231 
			459.23,416.154 459.23,376.923 		"/>
		<polyline fill="none" stroke="#05FABD" stroke-miterlimit="10" points="420,376.923 420,416.154 433.076,429.231 446.153,442.308 
			446.153,429.231 		"/>
		<polyline fill="none" stroke="#05FABD" stroke-miterlimit="10" points="361.153,435.77 341.538,455.385 354.615,468.462 
			367.692,481.539 380.769,468.462 380.769,455.385 380.769,390 406.923,390 		"/>
		<polyline fill="none" stroke="#05FABD" stroke-miterlimit="10" points="420,494.615 406.923,507.692 406.923,442.308 
			393.846,455.385 380.769,468.462 		"/>
		<polyline fill="none" stroke="#05FABD" stroke-miterlimit="10" points="446.153,442.308 472.308,468.462 472.308,442.308 
			472.308,416.154 472.308,390 		"/>
		<polyline fill="none" stroke="#05FABD" stroke-miterlimit="10" points="420,429.231 420,494.615 433.076,481.539 433.076,455.385 
			433.076,429.231 		"/>
		<polyline fill="none" stroke="#05FABD" stroke-miterlimit="10" points="472.308,494.615 498.461,468.462 498.461,442.308 
			485.385,455.385 472.308,468.462 472.308,494.615 433.076,455.385 		"/>
		<polyline fill="none" stroke="#05FABD" stroke-miterlimit="10" points="485.385,455.385 485.385,442.308 485.385,429.231 
			472.308,442.308 		"/>
		<polyline fill="none" stroke="#05FABD" stroke-miterlimit="10" points="485.385,429.231 498.461,416.154 498.461,403.077 
			498.461,390 472.308,416.154 		"/>
		<polyline fill="none" stroke="#05FABD" stroke-miterlimit="10" points="485.385,442.308 511.538,416.154 511.538,390 
			498.461,403.077 		"/>
		<polyline fill="none" stroke="#05FABD" stroke-miterlimit="10" points="498.461,442.308 511.538,429.231 524.615,416.154 
			524.615,403.077 511.538,416.154 		"/>
		<polyline fill="none" stroke="#05FABD" stroke-miterlimit="10" points="524.615,403.077 524.615,376.923 511.538,390 		"/>
		<polyline fill="none" stroke="#05FABD" stroke-miterlimit="10" points="498.461,468.462 511.538,455.385 511.538,429.231 		"/>
		<polyline fill="none" stroke="#05FABD" stroke-miterlimit="10" points="537.692,403.077 537.692,376.923 537.692,324.616 
			524.615,337.692 524.615,350.77 524.615,376.923 		"/>
		<polyline fill="none" stroke="#05FABD" stroke-miterlimit="10" points="550.769,390 550.769,363.846 537.692,376.923 		"/>
		<polyline fill="none" stroke="#05FABD" stroke-miterlimit="10" points="524.615,337.692 524.615,298.462 511.538,311.539 
			498.461,324.616 		"/>
		<polyline fill="none" stroke="#05FABD" stroke-miterlimit="10" points="498.461,246.154 498.461,220 459.23,180.77 		"/>
		<polyline fill="none" stroke="#05FABD" stroke-miterlimit="10" points="524.615,246.154 524.615,233.077 524.615,206.923 
			511.538,206.923 511.538,167.692 472.308,167.692 511.538,206.923 511.538,220 498.461,220 524.615,246.154 537.692,259.231 
			537.692,285.385 537.692,324.616 		"/>
		<polyline fill="none" stroke="#05FABD" stroke-miterlimit="10" points="524.615,298.462 524.615,259.231 511.538,272.308 		"/>
		<polyline fill="none" stroke="#05FABD" stroke-miterlimit="10" points="524.615,259.231 524.615,246.154 511.538,259.231 		"/>
		<line fill="none" stroke="#05FABD" stroke-miterlimit="10" x1="511.538" y1="220" x2="524.615" y2="233.077"/>
		<polyline fill="none" stroke="#05FABD" stroke-miterlimit="10" points="537.692,259.231 537.692,220 524.615,206.923 
			524.615,180.77 511.538,167.692 		"/>
		<polyline fill="none" stroke="#05FABD" stroke-miterlimit="10" points="393.846,455.385 393.846,494.615 393.846,533.847 
			406.923,520.769 406.923,507.692 		"/>
		<polyline fill="none" stroke="#05FABD" stroke-miterlimit="10" points="367.692,481.539 354.615,494.615 354.615,533.847 
			393.846,494.615 		"/>
		<line fill="none" stroke="#05FABD" stroke-miterlimit="10" x1="354.615" y1="560" x2="367.692" y2="546.923"/>
		<polyline fill="none" stroke="#05FABD" stroke-miterlimit="10" points="393.846,533.847 393.846,546.923 380.769,560 
			367.692,546.923 354.615,533.847 328.461,560 328.461,586.154 		"/>
		<polyline fill="none" stroke="#05FABD" stroke-miterlimit="10" points="315.384,507.692 315.384,520.769 328.461,533.847 
			328.461,442.308 		"/>
		<line fill="none" stroke="#05FABD" stroke-miterlimit="10" x1="354.615" y1="468.462" x2="354.615" y2="494.615"/>
		<line fill="none" stroke="#05FABD" stroke-miterlimit="10" x1="328.461" y1="533.847" x2="328.461" y2="560"/>
		<polyline fill="none" stroke="#05FABD" stroke-miterlimit="10" points="263.077,481.539 263.077,546.923 263.077,573.077 
			276.153,560 276.153,546.923 276.153,468.462 302.307,494.615 315.384,507.692 315.384,481.539 289.23,455.385 276.153,468.462 
			276.153,455.385 276.153,390 		"/>
		<polyline fill="none" stroke="#05FABD" stroke-miterlimit="10" points="249.999,468.462 249.999,533.847 263.077,546.923 		"/>
		<polyline fill="none" stroke="#05FABD" stroke-miterlimit="10" points="276.153,546.923 302.307,520.769 302.307,494.615 		"/>
		<polyline fill="none" stroke="#05FABD" stroke-miterlimit="10" points="315.384,599.231 328.461,586.154 354.615,560 
			380.769,586.154 		"/>
		<line fill="none" stroke="#05FABD" stroke-miterlimit="10" x1="302.307" y1="520.769" x2="302.307" y2="586.154"/>
		<polyline fill="none" stroke="#05FABD" stroke-miterlimit="10" points="459.23,507.692 446.153,494.615 433.076,481.539 
			433.076,507.692 420,494.615 420,533.847 		"/>
		<line fill="none" stroke="#05FABD" stroke-miterlimit="10" x1="472.308" y1="494.615" x2="472.308" y2="520.769"/>
		<polyline fill="none" stroke="#05FABD" stroke-miterlimit="10" points="433.076,507.692 446.153,520.769 446.153,494.615 		"/>
		<polyline fill="none" stroke="#05FABD" stroke-miterlimit="10" points="459.23,533.847 472.308,546.923 472.308,520.769 
			459.23,507.692 459.23,533.847 446.153,520.769 446.153,560 		"/>
		<polyline fill="none" stroke="#05FABD" stroke-miterlimit="10" points="472.308,520.769 498.461,494.615 511.538,481.539 
			511.538,455.385 537.692,429.231 550.769,416.154 550.769,390 537.692,403.077 524.615,416.154 		"/>
		<polyline fill="none" stroke="#05FABD" stroke-miterlimit="10" points="537.692,455.385 550.769,442.308 550.769,416.154 		"/>
		<polyline fill="none" stroke="#05FABD" stroke-miterlimit="10" points="498.461,520.769 511.538,507.692 511.538,481.539 
			524.615,468.462 537.692,455.385 537.692,429.231 		"/>
		<polyline fill="none" stroke="#05FABD" stroke-miterlimit="10" points="524.615,494.615 537.692,481.539 537.692,455.385 		"/>
		<polyline fill="none" stroke="#05FABD" stroke-miterlimit="10" points="550.769,363.846 550.769,298.462 537.692,285.385 		"/>
		<polyline fill="none" stroke="#05FABD" stroke-miterlimit="10" points="406.923,520.769 420,533.847 433.076,546.923 446.153,560 
			472.308,586.154 472.308,573.077 472.308,546.923 498.461,520.769 498.461,494.615 		"/>
		<polyline fill="none" stroke="#05FABD" stroke-miterlimit="10" points="472.308,573.077 498.461,546.923 511.538,533.847 
			511.538,507.692 524.615,494.615 524.615,468.462 		"/>
		<polyline fill="none" stroke="#05FABD" stroke-miterlimit="10" points="511.538,533.847 524.615,520.769 537.692,507.692 
			537.692,481.539 550.769,468.462 550.769,442.308 		"/>
		<polyline fill="none" stroke="#05FABD" stroke-miterlimit="10" points="380.769,560 380.769,586.154 380.769,612.308 
			393.846,599.231 393.846,586.154 393.846,546.923 		"/>
		<polyline fill="none" stroke="#05FABD" stroke-miterlimit="10" points="433.076,546.923 420,560 406.923,573.077 393.846,586.154 
			420,612.308 420,586.154 		"/>
		<polyline fill="none" stroke="#05FABD" stroke-miterlimit="10" points="420,560 446.153,586.154 446.153,560 		"/>
		<polyline fill="none" stroke="#05FABD" stroke-miterlimit="10" points="446.153,586.154 459.23,599.231 472.308,612.308 
			472.308,586.154 498.461,560 498.461,546.923 		"/>
		<polyline fill="none" stroke="#05FABD" stroke-miterlimit="10" points="498.461,560 511.538,546.923 524.615,533.847 
			524.615,520.769 		"/>
		<polyline fill="none" stroke="#05FABD" stroke-miterlimit="10" points="524.615,533.847 537.692,520.769 537.692,507.692 
			550.769,494.615 550.769,468.462 		"/>
		<polyline fill="none" stroke="#05FABD" stroke-miterlimit="10" points="537.692,520.769 550.769,507.692 550.769,494.615 		"/>
		<polyline fill="none" stroke="#05FABD" stroke-miterlimit="10" points="472.308,625.385 485.385,638.462 498.461,651.539 
			498.461,638.462 491.923,631.923 472.308,612.308 511.538,573.077 511.538,546.923 		"/>
		<polyline fill="none" stroke="#05FABD" stroke-miterlimit="10" points="491.923,631.923 511.538,612.308 511.538,586.154 
			511.538,573.077 537.692,546.923 550.769,533.847 550.769,507.692 		"/>
		<polyline fill="none" stroke="#05FABD" stroke-miterlimit="10" points="406.923,573.077 420,586.154 433.076,599.231 
			446.153,599.231 459.23,599.231 		"/>
		<polyline fill="none" stroke="#05FABD" stroke-miterlimit="10" points="420,664.615 433.076,677.692 433.076,651.539 
			433.076,638.462 433.076,612.308 433.076,599.231 		"/>
		<line fill="none" stroke="#05FABD" stroke-miterlimit="10" x1="420" y1="612.308" x2="420" y2="625.385"/>
		<polyline fill="none" stroke="#05FABD" stroke-miterlimit="10" points="433.076,612.308 446.153,625.385 459.23,638.462 
			472.308,651.539 472.308,625.385 446.153,599.231 		"/>
		<polyline fill="none" stroke="#05FABD" stroke-miterlimit="10" points="433.076,638.462 446.153,651.539 446.153,625.385 		"/>
		<polyline fill="none" stroke="#05FABD" stroke-miterlimit="10" points="354.615,612.308 341.538,599.231 328.461,586.154 
			328.461,625.385 328.461,651.539 315.384,638.462 		"/>
		<line fill="none" stroke="#05FABD" stroke-miterlimit="10" x1="380.769" y1="586.154" x2="367.692" y2="599.231"/>
		<polyline fill="none" stroke="#05FABD" stroke-miterlimit="10" points="498.461,638.462 511.538,625.385 537.692,599.231 
			550.769,586.154 550.769,573.077 511.538,612.308 		"/>
		<polyline fill="none" stroke="#05FABD" stroke-miterlimit="10" points="511.538,586.154 537.692,560 537.692,546.923 		"/>
		<polyline fill="none" stroke="#05FABD" stroke-miterlimit="10" points="550.769,573.077 563.846,560 563.846,533.847 537.692,560 
					"/>
		<polyline fill="none" stroke="#05FABD" stroke-miterlimit="10" points="511.538,625.385 511.538,677.692 537.692,651.539 
			537.692,599.231 		"/>
		<polyline fill="none" stroke="#05FABD" stroke-miterlimit="10" points="498.461,664.615 498.461,677.692 498.461,690.769 
			511.538,703.847 511.538,677.692 498.461,664.615 498.461,651.539 		"/>
		<line fill="none" stroke="#05FABD" stroke-miterlimit="10" x1="485.385" y1="664.615" x2="498.461" y2="677.692"/>
		<line fill="none" stroke="#05FABD" stroke-miterlimit="10" x1="472.308" y1="664.615" x2="498.461" y2="690.769"/>
		<polyline fill="none" stroke="#05FABD" stroke-miterlimit="10" points="393.846,690.769 380.769,677.692 367.692,664.615 
			367.692,690.769 380.769,703.847 406.923,703.847 		"/>
		<polyline fill="none" stroke="#05FABD" stroke-miterlimit="10" points="413.461,618.847 380.769,651.539 374.23,658.077 
			367.692,664.615 367.692,599.231 354.615,612.308 354.615,677.692 367.692,664.615 		"/>
		<line fill="none" stroke="#05FABD" stroke-miterlimit="10" x1="380.769" y1="677.692" x2="420" y2="638.462"/>
		<polyline fill="none" stroke="#05FABD" stroke-miterlimit="10" points="367.692,690.769 354.615,703.847 354.615,677.692 
			341.538,664.615 341.538,703.847 341.538,716.923 354.615,730 354.615,703.847 		"/>
		<polyline fill="none" stroke="#05FABD" stroke-miterlimit="10" points="341.538,599.231 341.538,612.308 341.538,664.615 		"/>
		<line fill="none" stroke="#05FABD" stroke-miterlimit="10" x1="380.769" y1="612.308" x2="380.769" y2="651.539"/>
		<polyline fill="none" stroke="#05FABD" stroke-miterlimit="10" points="341.538,703.847 328.461,690.769 315.384,677.692 
			302.307,664.615 302.307,677.692 341.538,716.923 		"/>
		<polyline fill="none" stroke="#05FABD" stroke-miterlimit="10" points="315.384,677.692 315.384,638.462 315.384,599.231 
			302.307,612.308 302.307,664.615 		"/>
		<line fill="none" stroke="#05FABD" stroke-miterlimit="10" x1="328.461" y1="651.539" x2="328.461" y2="690.769"/>
		<line fill="none" stroke="#05FABD" stroke-miterlimit="10" x1="328.461" y1="651.539" x2="341.538" y2="664.615"/>
		<polyline fill="none" stroke="#05FABD" stroke-miterlimit="10" points="315.384,638.462 328.461,625.385 341.538,612.308 		"/>
		<polyline fill="none" stroke="#05FABD" stroke-miterlimit="10" points="263.077,573.077 263.077,625.385 276.153,612.308 
			276.153,560 		"/>
		<polyline fill="none" stroke="#05FABD" stroke-miterlimit="10" points="249.999,533.847 249.999,612.308 249.999,638.462 
			263.077,651.539 302.307,612.308 302.307,586.154 276.153,612.308 		"/>
		<line fill="none" stroke="#05FABD" stroke-miterlimit="10" x1="263.077" y1="625.385" x2="263.077" y2="651.539"/>
		<polyline fill="none" stroke="#05FABD" stroke-miterlimit="10" points="459.23,638.462 446.153,651.539 459.23,651.539 
			472.308,651.539 472.308,664.615 485.385,664.615 485.385,638.462 		"/>
		<polyline fill="none" stroke="#05FABD" stroke-miterlimit="10" points="433.076,651.539 446.153,651.539 446.153,677.692 
			459.23,664.615 459.23,651.539 		"/>
		<polyline fill="none" stroke="#05FABD" stroke-miterlimit="10" points="393.846,599.231 413.461,618.847 420,625.385 420,638.462 
			420,664.615 393.846,690.769 406.923,703.847 433.076,677.692 446.153,677.692 446.153,690.769 433.076,703.847 433.076,677.692 
					"/>
	</g>
</g>
</svg>
