<?xml version="1.0" encoding="utf-8"?>
<!-- Generator: Adobe Illustrator 17.1.0, SVG Export Plug-In . SVG Version: 6.00 Build 0)  -->
<!DOCTYPE svg PUBLIC "-//W3C//DTD SVG 1.1//EN" "http://www.w3.org/Graphics/SVG/1.1/DTD/svg11.dtd">
<svg version="1.1" id="Layer_1" xmlns="http://www.w3.org/2000/svg" xmlns:xlink="http://www.w3.org/1999/xlink" x="0px" y="0px"
	 viewBox="0 0 1000 1000" enable-background="new 0 0 1000 1000" xml:space="preserve">
<polygon fill="#EC008C" points="446.6,737.2 436.1,737.2 444.1,716.4 419.5,670.6 424.1,634.7 408.9,611.3 402.2,636.5 390.3,636.5 
	376.8,621 366.1,628.9 384.8,685.5 368.5,671.9 359.1,652 331,635 322.4,630.7 313.9,599.1 302.9,620.5 292.2,613.4 292.7,617.7 
	291.8,616.1 291.8,643.8 276.9,633.9 272.3,597 248.7,576.1 246.3,574.1 245.6,574.8 244.9,572.8 233.7,563.1 218.4,508.8 
	202.7,501.2 188.6,481.4 176.3,511.1 177.3,514.8 175.2,513.3 146.4,571.5 131.4,545.1 134,538 128.6,531.3 143.5,493.3 
	146.1,471.7 123.1,453.3 112.7,431.1 117.7,418.2 140.8,393.7 140.8,382.9 139.6,381.5 180.9,370.5 185.5,331.9 190.5,312.8 
	195.4,312.8 215.1,277 221,289.6 236.1,281.8 241.4,275.7 250.8,272.6 250.8,267.8 328.9,248.1 321,266.5 343.2,259.1 351.5,279.5 
	328.7,296.9 333.4,320 379.4,293.3 389.3,350.7 385.3,355.5 389.2,393 389.2,393.1 383.8,447.3 376.8,469.4 396.2,460.1 
	396.2,450.9 403,446.1 420,376.9 431.6,381.8 439.4,367.4 432.7,319.1 474.5,285.2 474.5,296.8 481.9,291.7 472.4,265.5 
	488.5,257.6 496.6,278 500.7,277.4 507.5,287.9 507.5,284.5 514.1,283.1 512.1,264.7 519,261.9 522.4,249.2 534.2,244.5 
	536.7,247.8 543.6,244.3 548.3,252.4 553.8,250 553.8,267.7 580,259.4 575.9,272.8 597.8,266.3 597.8,272.4 634.7,263.2 
	628.4,271.7 646.7,269.1 642.7,278.4 659.5,276 665.4,301.6 660.5,305.7 661.1,316.5 717.8,303.8 717.8,311.1 770.2,299.6 
	760.2,322.9 790.5,316.4 790.5,324.4 819.2,318.1 801.9,350.5 803.9,359.4 801.9,364.8 816.1,364.8 809.6,377.8 826.4,375.7 
	805.8,396.9 804,440.8 808,433.8 828.4,455.4 820,432 864.4,380.7 890.5,384.6 878.7,399.5 882.7,408.4 877.3,416.5 888.3,450.7 
	892.3,446.3 902.2,408.2 925.7,429.5 932,469.7 924.1,470.3 931.9,509.4 926.6,515.5 928.6,538.3 920.5,545.5 908.5,538.9 
	908.5,561.2 902.5,553.9 902.5,581.3 877,591.6 873.1,583.8 859.6,591.9 855.5,582.3 799.1,679.1 789.1,664.7 775.8,668.2 771,640 
	763.1,636.1 745.5,590.5 743.6,573.5 739.5,567.8 735.1,567.8 734.3,578.7 724.7,573.6 717.6,582.1 691.8,546.8 688.5,548.1 
	681.6,539.4 671.2,570.8 685.5,559.9 677.9,590 684.2,599.7 712.9,582.1 711.3,594.3 731.5,609.1 727.6,620.7 738.1,624 
	735.7,634.3 702.8,683 663,660 658.4,637.9 645.4,628.9 641.9,648.3 632,637.1 630.8,644.9 619.6,637.2 615.7,613.8 596.5,613.2 
	589.7,586.7 577.3,579.8 582.7,549.4 575.8,541.1 574.9,545.6 574,540.5 566.9,546.3 556.2,535.1 550.5,540.1 539.6,534.7 
	536.8,488.1 539.3,480.1 530.7,470.8 532.7,451.4 523,438.8 509.6,457.7 501.5,444.1 501.5,438.3 493.6,429.2 482.6,440.2 
	487.3,464 472.5,490.2 471.2,506.2 454.3,534.8 449.1,532.9 432.6,570.6 428.4,570.1 437,597.1 464.2,573.3 465,580.9 469.2,579.1 
	489.8,540.3 489.8,551.7 497.2,549.7 497.2,554.9 529,544 521.1,583.7 500.1,609.3 493.1,601.6 494,608.5 488.9,608.5 492.7,624.3 
	483.3,631 486,657.8 476.7,657.8 481.6,708.6 459.4,684.4 455.1,719.4 "/>
<polygon fill="#EC008C" points="440.5,734.2 444.8,734.2 451.5,719.9 446.6,718.2 "/>
<polygon fill="#EC008C" points="446.7,715.1 452.3,717 456.7,681.8 438.1,669.9 442.4,707.1 "/>
<polygon fill="#EC008C" points="461.2,682 477.8,700 474.6,668 462.3,661.4 "/>
<polygon fill="#EC008C" points="422.6,670.2 438.6,699.9 435,669.4 433.6,639.1 "/>
<polygon fill="#EC008C" points="665.6,658 701.8,679 732.1,634.2 682.4,606.3 661.3,637.3 "/>
<polygon fill="#EC008C" points="437.9,666.1 455.7,677.6 446,644.9 397.2,550.6 396.7,551 396.4,549.6 390.3,548.8 435.4,629.5 
	437.1,628.9 436.2,631.5 "/>
<polygon fill="#EC008C" points="370.9,670.1 378.6,676.5 364.7,634.4 361.9,650.8 "/>
<polygon fill="#EC008C" points="449.1,644.7 458.5,676.4 459.4,659.2 453,640.2 "/>
<polygon fill="#EC008C" points="791.1,662.4 798.9,673.5 824.9,628.9 822.2,618.4 803.3,656.5 799.6,642.1 787.6,640.7 "/>
<polygon fill="#EC008C" points="773.6,638 773.6,638 778.2,664.4 788,661.9 784.3,639.6 769.7,619.5 "/>
<polygon fill="#EC008C" points="462.1,658 474.3,664.4 473.5,656.6 465.9,625.4 455.3,637.5 "/>
<polygon fill="#EC008C" points="427.1,635.4 424.3,656.2 432.3,633.7 "/>
<polygon fill="#EC008C" points="476.2,654.8 482.6,654.8 480.2,630.5 475.6,610.9 469.5,612.1 469.5,611.8 467.2,611.8 467.8,620.5 
	"/>
<polygon fill="#EC008C" points="333,632.7 359.2,648.6 362.7,628.7 337.3,597.9 323.8,599 "/>
<polygon fill="#EC008C" points="802.4,641 804.2,648 820.6,614.8 "/>
<polygon fill="#EC008C" points="632.4,633 640.1,641.7 642.8,626.3 638.9,603.3 636.3,600 636.3,600 629,590.6 627.3,598.6 "/>
<polygon fill="#EC008C" points="431.5,610.4 447.7,641.7 465,621.8 464.8,620.8 462.2,583.1 461.8,579.3 437.5,600.7 "/>
<polygon fill="#EC008C" points="622.4,635.4 628.6,639.7 629.5,633.7 624.4,599.2 621.6,595.6 618.5,612.3 "/>
<polygon fill="#EC008C" points="786.6,637.6 800,639.2 819.4,611.4 808.4,607.8 806.7,609.3 792.7,586.9 768.8,613.1 "/>
<polygon fill="#EC008C" points="279.7,632.1 288.8,638.2 288.8,610.7 277.6,590.6 275.2,596.5 "/>
<polygon fill="#EC008C" points="765.5,633.9 770.2,636.3 765.4,613.6 764.9,612.9 765,612.8 750.1,587.5 748.4,589.2 748.5,589.9 
	"/>
<polygon fill="#EC008C" points="646.5,626 659.3,634.9 681.9,601.7 676.1,592.8 "/>
<polygon fill="#EC008C" points="391.7,633.5 399.1,633.5 391.4,598.5 372.6,583.5 384.5,625.3 "/>
<polygon fill="#EC008C" points="409.6,607 426.3,632.5 432.5,630.5 406.4,583.8 401.4,589.7 "/>
<polygon fill="#EC008C" points="705.3,615.7 733.3,631.4 734.5,626 723.8,622.7 724,622.1 707.8,607.1 "/>
<polygon fill="#EC008C" points="325,628.7 329.4,630.9 320.6,598.8 316.5,597.4 "/>
<polygon fill="#EC008C" points="394.3,598.1 401.1,628.7 406.7,607.8 399.3,592.3 "/>
<polygon fill="#EC008C" points="478.5,610.3 482.6,627.8 489.3,623.1 485.9,608.8 "/>
<polygon fill="#EC008C" points="339.5,595.7 364.6,626.3 367.4,624.2 360,597.2 338,580.2 "/>
<polygon fill="#EC008C" points="823.4,610.9 827,625.2 854,578.9 850.5,571.9 "/>
<polygon fill="#EC008C" points="641.9,603.2 645.3,623 674.9,589.6 680.5,567.5 669.3,576.1 "/>
<polygon fill="#EC008C" points="362.9,596.5 370,622.3 376.1,617.8 378.7,615.7 369.6,583.8 "/>
<polygon fill="#EC008C" points="379.1,619.2 379.9,620.1 379.6,618.8 "/>
<polygon fill="#EC008C" points="708.7,603.8 725,619 727.9,610.3 710.5,597.5 "/>
<polygon fill="#EC008C" points="291.7,609.4 300.2,615.1 292.8,570.6 286.1,563.3 286.5,567.3 "/>
<polygon fill="#EC008C" points="684.1,603.8 702.6,614.2 708.2,594.7 709.1,587.9 684.8,602.8 "/>
<polygon fill="#EC008C" points="295,565.9 303,613.6 312.7,594.8 305.7,553.1 304.1,535.5 291.4,526.9 294.2,533.3 295,532.7 "/>
<polygon fill="#EC008C" points="599.5,610.3 615.8,610.8 619.2,592.2 607.3,567.2 "/>
<polygon fill="#EC008C" points="755.3,590.5 767.1,610.5 791,584.3 779.2,565.4 "/>
<polygon fill="#EC008C" points="810.9,605.4 821.1,608.9 834.4,589.9 825.5,591.7 "/>
<polygon fill="#EC008C" points="467,608.8 469.5,608.8 468.9,582.5 465.3,584 "/>
<polygon fill="#EC008C" points="471.8,580.7 472.5,608.5 485.2,605.8 485.1,605.5 490.6,605.5 488.9,592.4 489.2,592.8 486.9,555.6 
	486.8,555.7 486.8,552.3 "/>
<polygon fill="#EC008C" points="399.6,548.7 429.9,607.3 434.7,599.5 424.9,568.8 414.2,537.1 "/>
<polygon fill="#EC008C" points="592.7,586.1 597.4,604.7 602.9,574.9 "/>
<polygon fill="#EC008C" points="794.8,584.6 807.3,604.7 807.4,604.6 807.5,604.3 807.6,604.3 823.2,589.8 820.1,566.7 805.5,585 
	805.5,572.9 "/>
<polygon fill="#EC008C" points="497.3,558 501.2,603.2 518.3,582.3 525,548.6 "/>
<polygon fill="#EC008C" points="279,586.9 287.9,602.9 284.2,573.5 "/>
<polygon fill="#EC008C" points="492.5,596.4 498.1,602.7 494.4,559 494.2,559.1 494.2,553.7 489.9,554.8 "/>
<polygon fill="#EC008C" points="639.7,599.4 640.5,600.4 652.3,588.7 649,574.2 "/>
<polygon fill="#EC008C" points="629.8,586.7 637.5,596.7 647.4,569.9 636.1,565.3 636.1,565.3 634.4,564.5 "/>
<polygon fill="#EC008C" points="323,596 323,596.1 336.4,594.9 329.8,525.8 315.1,540.5 "/>
<polygon fill="#EC008C" points="372.1,579.2 392.5,595.6 404.8,581 387.5,550 "/>
<polygon fill="#EC008C" points="315.6,593.9 319.9,595.4 315.6,565.5 309.6,558.2 "/>
<polygon fill="#EC008C" points="622,591.2 625,595.1 631.6,563.3 614.4,555.5 608.4,562.6 "/>
<polygon fill="#EC008C" points="341.2,578.9 360.8,594 368.3,579.9 349.3,564.7 "/>
<polygon fill="#EC008C" points="254.5,577.2 273.1,593.8 283.5,567.3 282.8,560 272.5,556.5 "/>
<polygon fill="#EC008C" points="822.7,563.4 826,588.5 836.9,586.3 857.6,556.6 855.9,521.7 "/>
<polygon fill="#EC008C" points="752.2,585.3 753.7,587.9 777.5,562.8 776.1,560.4 "/>
<polygon fill="#EC008C" points="875.2,581.3 878.4,587.8 899.5,579.3 899.5,549.8 896.3,507.8 872.7,532.6 "/>
<polygon fill="#EC008C" points="855.9,575.7 861,587.5 871.6,581.2 859,559.8 852.5,569.1 855.8,575.8 "/>
<polygon fill="#EC008C" points="650.9,569.1 654.9,586.2 667,574.2 678,540.6 656.1,558 649.8,567.6 651.2,568.1 "/>
<polygon fill="#EC008C" points="743.6,568.5 746.4,572.5 747.9,585.4 774.9,557.4 776.5,535.9 "/>
<polygon fill="#EC008C" points="580.7,578.2 590.7,583.8 603.9,569.4 605.2,562.2 605.2,523.3 590.4,516.5 585.9,548.6 585.9,548.6 
	"/>
<polygon fill="#EC008C" points="778.4,558.4 793.1,582 804.7,569.3 782.1,555.8 "/>
<polygon fill="#EC008C" points="694.2,545 717.8,577.3 723.1,570.8 729,560.8 709.5,525.1 "/>
<polygon fill="#EC008C" points="350.4,561.7 369.7,577.2 386,546.6 383.3,517.4 364,542 364,541.6 350.4,556.8 "/>
<polygon fill="#EC008C" points="337.6,576.1 338.9,577.1 347.4,562 347.4,560.2 340.8,567.5 336.7,566.7 "/>
<polygon fill="#EC008C" points="808.5,571.7 808.5,576.5 819.4,562.8 805.2,534.9 798.7,533.7 796.7,536.5 807.6,566.2 808.5,565.1 
	808.5,568.7 809.9,572.5 "/>
<polygon fill="#EC008C" points="860.9,557.1 871.9,575.7 870.3,543.6 "/>
<polygon fill="#EC008C" points="248.4,571.9 252.2,575.2 281,542.2 279.6,538.4 "/>
<polygon fill="#EC008C" points="726.4,571.1 731.7,573.9 732.2,566.6 730.6,563.8 "/>
<polygon fill="#EC008C" points="224.8,506.2 246.8,569.2 288.8,524.1 282.1,500.6 267.1,473.8 237.7,498.1 237.7,497.8 "/>
<polygon fill="#EC008C" points="427.4,566.9 429.6,567.2 419.8,532.6 416.7,535.1 "/>
<polygon fill="#EC008C" points="236.3,561.5 242.9,567.2 222.2,507.8 221.4,508.4 "/>
<polygon fill="#EC008C" points="639.2,563.3 647,566.4 653.6,556.5 658.7,512.4 652.2,515.2 652.5,515.6 642.4,521.9 "/>
<polygon fill="#EC008C" points="738.4,564.8 741.1,564.8 741.9,566 772.5,535.6 772.5,535.6 "/>
<polygon fill="#EC008C" points="782,552.2 804.1,565.5 793.7,537 783,523 782.9,522.7 770.3,478.1 756.5,464.8 749.6,484.8 
	764.5,476.1 756.3,495.2 772.4,532.3 780,528.5 778.1,555 "/>
<polygon fill="#EC008C" points="285.7,558.3 292,565.3 292,538.3 284.3,543.3 "/>
<polygon fill="#EC008C" points="134.6,544.9 146.2,565.1 172.8,511.5 152.2,496.4 137.4,537.4 137.4,537.4 "/>
<polygon fill="#EC008C" points="422.3,530.6 432,564.6 446.8,530.7 447.8,510.2 "/>
<polygon fill="#EC008C" points="732.5,561 734.3,564.3 769.8,533.9 766.3,525.8 "/>
<polygon fill="#EC008C" points="336.4,563.6 339.8,564.3 355.7,546.4 354.1,510.1 332.6,523.3 "/>
<polygon fill="#EC008C" points="615.4,552.7 636.3,562.1 639.4,521.8 624.9,512.7 617.3,512.7 615.4,514.8 "/>
<polygon fill="#EC008C" points="801.1,520.3 821.5,560.2 831.6,547.4 806.8,514.5 "/>
<polygon fill="#EC008C" points="308.7,552.4 314.8,559.8 312.1,540.9 307.3,537.6 "/>
<polygon fill="#EC008C" points="711.7,522.9 731,558.3 765,522.8 754,497.3 "/>
<polygon fill="#EC008C" points="608.2,522.9 608.2,558.3 612.4,553.2 612.4,518.1 "/>
<polygon fill="#EC008C" points="274.6,554.1 282.5,556.7 281.5,546.1 "/>
<polygon fill="#EC008C" points="661.9,511 656.9,553.6 679.6,535.5 686.8,499.9 "/>
<polygon fill="#EC008C" points="902.5,549.1 905.5,552.8 905.5,536.4 902.5,501.3 899.1,504.9 "/>
<polygon fill="#EC008C" points="858.9,519.9 860.4,552.5 870,538.7 869.3,524.2 "/>
<polygon fill="#EC008C" points="388.9,545.6 395.9,546.5 390.1,514.2 386.1,514.8 "/>
<polygon fill="#EC008C" points="393,513.7 398.7,545.6 446.5,507.4 432,501.6 401.2,512.5 "/>
<polygon fill="#EC008C" points="576.6,537.3 583.3,545.4 590.1,497.7 586.1,492.4 "/>
<polygon fill="#EC008C" points="820.2,527.3 833.6,545 833.7,544.9 822.8,525.4 "/>
<polygon fill="#EC008C" points="682.6,535.9 689.5,544.5 691.4,543.8 708,522.1 704.3,514.5 703.1,515.2 703.5,512.6 693.3,491.1 
	704.2,455.2 700.3,448 "/>
<polygon fill="#EC008C" points="357.1,509.6 358.5,543.2 364,537.1 364,512.1 "/>
<polygon fill="#EC008C" points="557.8,532.4 567.1,542.3 573.4,537.1 560.4,462.4 554.7,482.5 "/>
<polygon fill="#EC008C" points="908.4,535.4 920.1,541.9 924.2,538.2 908.1,531.8 "/>
<polygon fill="#EC008C" points="830,532.1 835.4,541.8 834.3,525.5 "/>
<polygon fill="#EC008C" points="281.9,535.9 283.5,540.2 291.6,534.9 288.8,528.5 "/>
<polygon fill="#EC008C" points="836.7,516.4 838.2,539.1 841.3,535.3 838.3,506.4 835.2,507.5 836.4,516.8 "/>
<polygon fill="#EC008C" points="291.8,523.6 313.3,538.1 329.6,521.7 339.6,480.2 306.6,517 306.1,515.5 289.5,515.5 "/>
<polygon fill="#EC008C" points="542.4,532.7 548.7,535.8 547.1,500.6 540.1,492.6 "/>
<polygon fill="#EC008C" points="907.8,528.4 925.3,535.4 923.6,515.8 905.7,503.1 "/>
<polygon fill="#EC008C" points="550,498.8 551.7,535.1 554.8,532.4 552.2,491.1 "/>
<polygon fill="#EC008C" points="132,530.7 135.2,534.7 149.4,495.4 146,495.2 "/>
<polygon fill="#EC008C" points="785.7,521.7 794.9,533.8 796.3,531.9 777.8,493.5 "/>
<polygon fill="#EC008C" points="367,511 367,533.4 382.5,513.6 367.6,498.9 "/>
<polygon fill="#EC008C" points="831.9,481.6 839.2,486.4 844,531.9 856.8,515.9 869,520.8 851.9,457.7 840.2,483.4 833.9,469 "/>
<polygon fill="#EC008C" points="799,530.7 803.5,531.5 797.6,520 802.9,509.9 798.2,507.9 780.3,472.1 773.5,477.7 "/>
<polygon fill="#EC008C" points="449.9,530 452.9,531.2 467.8,506 453.2,492 451,507.1 "/>
<polygon fill="#EC008C" points="559.1,437.3 575.1,529.8 583.8,488.9 575,432.3 574.9,432.3 "/>
<polygon fill="#EC008C" points="823.7,520.9 828.3,529.1 833.9,520.6 831.9,505.5 838,503.3 836.4,488.1 828.6,483 817.9,488.4 
	805.3,511.8 807.2,510 818.4,524.9 "/>
<polygon fill="#EC008C" points="872.4,525.9 872.5,528.5 900.3,499.3 896.7,496.7 887.9,505.3 "/>
<polygon fill="#EC008C" points="853.9,453.5 872.2,521.2 884.9,504.3 869.7,479.5 869.8,479.4 856.1,448.6 "/>
<polygon fill="#EC008C" points="590.9,513.4 606.3,520.5 614.9,510.9 611.6,502.8 592.9,499.1 "/>
<polygon fill="#EC008C" points="706.9,513 710.3,520.2 753.5,494.1 758.2,483.3 "/>
<polygon fill="#EC008C" points="343.4,477.1 333.3,519.3 354.1,506.6 357.4,485.4 "/>
<polygon fill="#EC008C" points="626.8,510.4 641,519.2 649.1,514.2 651.3,487.2 626.5,499.9 "/>
<polygon fill="#EC008C" points="897.5,493.6 924.8,513 928.7,508.6 921.1,470.5 896.8,492.7 "/>
<polygon fill="#EC008C" points="288.6,512.5 305.2,512.5 292,470.8 293.7,461.9 279.3,472.9 284.1,498.1 284.9,499.6 "/>
<polygon fill="#EC008C" points="655.4,473.7 652.3,511.9 687.5,496.2 697.5,446.6 672.5,460.9 "/>
<polygon fill="#EC008C" points="368.4,495.4 385,511.9 397.9,510 391.7,469.8 "/>
<polygon fill="#EC008C" points="295.2,471.2 307.8,511 340.8,474.3 336.8,436.4 "/>
<polygon fill="#EC008C" points="617.7,509.7 623.8,509.7 622.7,475.8 612.6,495.4 613.1,498.5 "/>
<polygon fill="#EC008C" points="709.5,491.9 706.9,509.5 745.6,487.1 752.6,467 "/>
<polygon fill="#EC008C" points="394.3,467 400.8,509.5 430.6,498.9 439.1,433.7 433.5,437.2 399.2,461.8 399.2,461.9 398.6,462.2 
	"/>
<polygon fill="#EC008C" points="357.2,506.5 364.1,508.9 364.8,496.1 364.2,495.6 364.8,494.9 365.5,482.4 360.4,485.5 "/>
<polygon fill="#EC008C" points="800.3,505.6 804.4,507.2 806.1,504.1 800.1,501.1 783.9,469.2 782.7,470.1 "/>
<polygon fill="#EC008C" points="153.1,493.3 172.1,507.2 156.8,453.4 "/>
<polygon fill="#EC008C" points="696.5,490.9 704.2,507.2 706.5,491.4 701.2,484.2 698.1,485.7 "/>
<polygon fill="#EC008C" points="159.2,451 175,506.5 186.7,478.2 176.4,438.4 169.4,443.2 "/>
<polygon fill="#EC008C" points="205,498.9 219.6,506 236.7,494.9 226.6,462.4 226.2,462.1 226.3,461.5 210.9,412.1 187.8,430.6 
	185.4,432.3 "/>
<polygon fill="#EC008C" points="433.6,499 448.3,504.9 454.2,463.7 441.8,436.2 "/>
<polygon fill="#EC008C" points="453.7,488.3 468.5,502.4 469.5,489.7 468.2,464.5 455.1,458.5 457.2,463.3 "/>
<polygon fill="#EC008C" points="873.4,479.9 887,502 894.5,494.6 880.5,477.2 877.6,475.5 876.8,477.1 876.5,476.3 "/>
<polygon fill="#EC008C" points="802.4,498.9 807.5,501.4 814.9,487.4 792.9,461.7 786.2,467.2 "/>
<polygon fill="#EC008C" points="593,496 610.2,499.4 610.2,499.2 598.6,427.9 585.2,434.1 "/>
<polygon fill="#EC008C" points="540,487.9 547.5,496.6 558,460.1 554,458.9 549.4,450.6 542.6,479.3 542.7,479.3 "/>
<polygon fill="#EC008C" points="625.5,470.8 626.4,496.5 643.9,487.6 642.5,461 "/>
<polygon fill="#EC008C" points="236.8,485 239.3,492.9 264.9,471.7 256.6,466.8 247.5,473.6 "/>
<polygon fill="#EC008C" points="146.7,492.3 150.1,492.4 154,451.2 154.8,450.6 129.5,435.8 126,451.7 149.3,470.3 "/>
<polygon fill="#EC008C" points="586.8,488.3 589.5,491.9 582.7,438.2 579.8,443.9 "/>
<polygon fill="#EC008C" points="189.7,477.7 199.7,491.8 182.8,434.1 179,436.7 "/>
<polygon fill="#EC008C" points="368.6,480.5 368,491.4 389.5,467.7 "/>
<polygon fill="#EC008C" points="601.5,426.9 611.8,490.4 622.4,469.8 608.5,395.2 "/>
<polygon fill="#EC008C" points="883.3,475.9 894.9,490.4 918.2,469.1 893,460 "/>
<polygon fill="#EC008C" points="267.9,469.2 279.5,489.8 270.6,443.8 254.2,433.4 257.9,464.1 267.4,469.7 "/>
<polygon fill="#EC008C" points="703.8,482.7 708.5,489 741.5,470 744.5,456.6 "/>
<polygon fill="#EC008C" points="646.6,480.4 646.9,486.1 651.6,483.7 652.2,476.2 "/>
<polygon fill="#EC008C" points="820.3,475.2 818.7,484.6 826.1,480.9 "/>
<polygon fill="#EC008C" points="471,462.4 471.2,462.5 472.2,484.5 483.6,464.4 470,458.2 "/>
<polygon fill="#EC008C" points="795.4,460.1 815.8,483.8 817.6,472.7 799.5,454 "/>
<polygon fill="#EC008C" points="343.8,473.9 359,482.9 371.9,475 372.8,472 376.7,393.3 338.1,419.7 338.9,427.4 338.9,427.4 "/>
<polygon fill="#EC008C" points="706.2,458.9 699.3,481.8 700.9,481 744,453.4 734.5,447.6 733.9,448.3 734.1,447.3 733.7,447.1 
	708.4,463.1 "/>
<polygon fill="#EC008C" points="230.5,464.7 235.8,481.7 244.1,472.8 "/>
<polygon fill="#EC008C" points="820.3,471.1 829.1,479.6 831.6,463.9 831,462.5 808.6,438.8 801.4,451.7 "/>
<polygon fill="#EC008C" points="857.8,444.9 872,476.9 875.3,473.2 863.1,442 874.1,416.2 874.1,416.1 879.3,408.2 877,403 "/>
<polygon fill="#EC008C" points="645.5,459.3 646.4,476.8 649.1,474.7 649.1,457.2 "/>
<polygon fill="#EC008C" points="533.9,469.8 540.2,476.6 546.9,448.2 537.8,423.5 535.8,450.5 535.9,450.6 "/>
<polygon fill="#EC008C" points="833.7,461.1 840.3,476 875.4,399.3 875.3,399.1 884.9,386.8 865.6,383.9 823.4,432.6 "/>
<polygon fill="#EC008C" points="757.6,461.7 771.7,475.3 793.1,457.6 785.3,441.3 781.3,433.8 737.1,445 736.7,445.4 746.8,451.6 
	749.1,450.1 748.5,452.8 756.9,461 758.1,460.4 "/>
<polygon fill="#EC008C" points="879,472.9 881,474 890.1,458.9 887.2,457.8 "/>
<polygon fill="#EC008C" points="652.1,455.4 652.1,472 655.4,470 670.3,458.7 677.8,428.4 672.7,415.5 664.6,407.3 658.8,439.8 
	658.8,439.8 656.3,453 "/>
<polygon fill="#EC008C" points="229.6,460.7 246.4,470.7 254.9,464.3 252.4,443.7 236.1,429.1 "/>
<polygon fill="#EC008C" points="866.4,442 877.2,469.9 886.1,453.5 875.5,420.6 "/>
<polygon fill="#EC008C" points="277.9,465.5 278.7,469.6 335.7,426 335.3,421.6 308.1,440.2 "/>
<polygon fill="#EC008C" points="747.7,456.3 745,467.9 754.2,462.6 "/>
<polygon fill="#EC008C" points="610.4,388.7 625.1,467.6 653.7,451 655.8,439.6 653.5,396.5 649.5,377.9 "/>
<polygon fill="#EC008C" points="894,457.1 922.5,467.5 928.6,466.9 922.9,431.1 903.8,413.8 895.2,447.3 "/>
<polygon fill="#EC008C" points="297.3,459.2 295.8,466.8 336.5,432.8 336.1,429.5 "/>
<polygon fill="#EC008C" points="273.6,443.2 277.2,462.2 305.6,438.4 300,403.3 294,412.4 293,415.9 292.4,414.8 "/>
<polygon fill="#EC008C" points="469.1,454.5 483.7,461.1 480.6,445.6 480,447.4 479.5,439.9 479.4,439.2 479.5,439.1 477,403.2 
	458.7,411.3 "/>
<polygon fill="#EC008C" points="453.3,454.4 467.5,460.9 456.3,413.8 442.7,430.9 "/>
<polygon fill="#EC008C" points="377.2,443 376.4,460.8 380.6,447.3 "/>
<polygon fill="#EC008C" points="701.2,443.4 709.6,458.9 727.6,447.4 721.3,426.5 700,432.6 700.9,441.2 701.8,440.7 "/>
<polygon fill="#EC008C" points="399.2,452.5 399.2,458.1 431.3,435.1 432.6,427.5 405.2,448.2 "/>
<polygon fill="#EC008C" points="556,456.4 559.6,457.5 555.9,436.3 550.2,445.7 "/>
<polygon fill="#EC008C" points="678.3,438.9 674,456.6 698.1,442.8 697.1,433.5 "/>
<polygon fill="#EC008C" points="888.6,455.2 891.1,456.1 891.6,451.5 888.9,454.6 "/>
<polygon fill="#EC008C" points="212.5,406.9 227.6,455.4 235.3,417.8 231,415.8 230.8,415.9 230,415.3 229.5,415 229.4,414.9 
	210.1,400.5 212.4,407 "/>
<polygon fill="#EC008C" points="788.2,440.5 795.2,455 800.8,446.5 802.7,398.3 792.4,401.2 790.6,428.4 791,428.3 "/>
<polygon fill="#EC008C" points="504.5,443.3 508.8,450.5 512.5,423.8 507.7,414.3 504.5,437.8 "/>
<polygon fill="#EC008C" points="515.4,424.7 512,449.2 521.5,435.9 520.9,423 "/>
<polygon fill="#EC008C" points="129.6,432.4 157.4,448.6 166.7,441.5 164.6,436.1 142,396.8 120.9,419.2 "/>
<polygon fill="#EC008C" points="115.9,430.9 123.8,447.7 126.9,433.8 119.3,422.3 "/>
<polygon fill="#EC008C" points="524.5,435.8 533.1,447 535.2,418.6 523.9,422.1 "/>
<polygon fill="#EC008C" points="724,425 730.2,445.7 735,442.7 741,412.2 744.6,410.7 744.5,409.9 737.6,412.8 737.6,412.9 
	731.6,414.6 "/>
<polygon fill="#EC008C" points="422,381.1 406.8,443.3 417.5,435.2 430.5,384.6 "/>
<polygon fill="#EC008C" points="377.5,438.4 381.2,443.1 386,395 380.9,390.4 379.8,391.2 "/>
<polygon fill="#EC008C" points="538.8,417.5 548.2,443.1 555.7,430.9 572,425.2 573.7,426.5 570.5,407.8 "/>
<polygon fill="#EC008C" points="767.9,414 741.2,440.9 766.3,434.5 "/>
<polygon fill="#EC008C" points="262.5,435.1 271.6,440.9 290.8,411.8 276.3,384.6 256.6,405 "/>
<polygon fill="#EC008C" points="166.7,420.1 169.6,439.4 181.9,431 181,427.7 172.7,418.5 "/>
<polygon fill="#EC008C" points="236.8,425.7 251.8,439.1 250.4,427.6 259,432.9 253.7,405.6 252.8,405.3 238.4,417.8 "/>
<polygon fill="#EC008C" points="743.6,414.4 738.8,439.1 747.9,429.8 745.2,413.8 "/>
<polygon fill="#EC008C" points="577.2,429.2 577.6,429.5 579,438.8 582,432.8 582,432.4 575.1,401 573.3,406 "/>
<polygon fill="#EC008C" points="784.3,433.1 786.1,436.4 787,432.4 "/>
<polygon fill="#EC008C" points="302.4,399.1 308.3,436.4 313.7,432.7 310.7,407.6 302.1,396.7 "/>
<polygon fill="#EC008C" points="680.6,429.5 679.1,435.5 721.4,423.4 726.9,416 "/>
<polygon fill="#EC008C" points="558.4,433.1 558.6,434.4 573,429.8 571.5,428.6 "/>
<polygon fill="#EC008C" points="495.6,426.9 502,434.2 504.6,414.9 "/>
<polygon fill="#EC008C" points="492,411.2 484.4,434.2 492.6,426 502.8,412.3 498.9,413.6 498.8,412.9 "/>
<polygon fill="#EC008C" points="771.4,406.7 769.3,433.8 787.6,429.1 789.4,402 "/>
<polygon fill="#EC008C" points="436.2,424.4 434.7,432.9 440,429.6 455.3,410.2 448.3,394.2 "/>
<polygon fill="#EC008C" points="433.7,384.3 421.3,432.2 433.5,423.1 446.6,390.6 436.7,378.7 "/>
<polygon fill="#EC008C" points="479.8,400.9 482,432 489.4,409.3 482,377.4 479.8,380 "/>
<polygon fill="#EC008C" points="143.8,393.9 165.4,431.4 163.3,417.9 170.4,416 143.8,386.2 "/>
<polygon fill="#EC008C" points="577.4,397.4 584.8,431.1 599,424.4 606.7,389.7 "/>
<polygon fill="#EC008C" points="310.9,384.9 316.5,430.8 345.1,411.2 336.9,373.8 "/>
<polygon fill="#EC008C" points="184,427.3 184.5,429.3 186.1,428.2 209.9,409 206.5,399.3 "/>
<polygon fill="#EC008C" points="748,412.8 750.5,427.2 770.7,406.9 "/>
<polygon fill="#EC008C" points="656.5,396.5 658.1,426.7 662.3,403.5 672.8,391.1 672.8,386.7 680.7,366 669.6,363.4 "/>
<polygon fill="#EC008C" points="678.3,421.5 680.2,426.5 735.1,410.5 743.3,379 732.1,385 730.8,396 "/>
<polygon fill="#EC008C" points="145,383.1 182.2,424.7 205,396.4 181.9,373.4 "/>
<polygon fill="#EC008C" points="509,410.2 514.8,421.7 535.4,415.4 535.9,409.5 537.8,414.7 570.6,404.6 573.9,395.6 573.8,395.2 
	574.1,395.2 576.9,387.2 "/>
<polygon fill="#EC008C" points="675.9,415.4 677.2,418.7 728,394 728.9,386.8 "/>
<polygon fill="#EC008C" points="233.6,413.7 236.8,415.2 249.6,404.1 246.8,403.1 "/>
<polygon fill="#EC008C" points="675.8,387.3 675.5,412.1 740.8,376.9 738,371.4 718.3,335 683.9,365.9 "/>
<polygon fill="#EC008C" points="229,396.6 231.8,411.3 243.5,401.9 "/>
<polygon fill="#EC008C" points="665.7,404.1 672.5,411 672.7,395.8 "/>
<polygon fill="#EC008C" points="208,395.2 228.6,410.5 225.7,395.4 225.6,395.4 225.5,394.5 225.4,393.7 225.4,393.7 222,360.1 
	205,392.2 "/>
<polygon fill="#EC008C" points="490.5,368.2 501.1,409.7 505.9,408.1 509.1,403.8 508.7,407.2 652.7,358.4 656.1,343.8 687.8,334.4 
	687.3,338.2 699.4,347.9 704,343.8 714.8,312.7 714.8,307.6 660.1,319.8 "/>
<polygon fill="#EC008C" points="492.3,408.1 497.9,409.6 487.9,370.4 484.4,374.5 "/>
<polygon fill="#EC008C" points="339.6,371.8 347.8,409.4 364.3,398.1 355.4,350.9 345.2,357 "/>
<polygon fill="#EC008C" points="747,377 738.5,409.1 746.8,405.8 747.3,408.5 766.4,388.2 776.5,365.5 748.1,370.6 747,377 "/>
<polygon fill="#EC008C" points="768.5,390.4 751,408.9 790.6,398.6 803.5,395 818.2,379.7 807.3,381.2 "/>
<polygon fill="#EC008C" points="450.3,391.2 457.8,408.4 476.8,400 476.8,381.5 "/>
<polygon fill="#EC008C" points="281.1,379.8 292.4,407.4 297.9,388.3 294.8,365.6 "/>
<polygon fill="#EC008C" points="298.9,395.7 296.8,402.7 299.3,398.9 "/>
<polygon fill="#EC008C" points="229.9,393.7 253.3,402.3 251.1,374.8 "/>
<polygon fill="#EC008C" points="301.3,390.9 310,401.9 304.4,355.7 297.5,362.8 "/>
<polygon fill="#EC008C" points="254.2,376 256.2,401.1 266.8,390.1 "/>
<polygon fill="#EC008C" points="358.2,349.2 367,396.2 376.6,389.7 365.1,345.1 "/>
<polygon fill="#EC008C" points="580.6,386 577.6,394.2 607.7,386.4 615.6,374.1 "/>
<polygon fill="#EC008C" points="228.1,390 228.2,391.2 250.5,371.3 249.3,368.2 228.1,390 "/>
<polygon fill="#EC008C" points="652.1,376 655.4,391.1 667,361.9 658,348.7 655.5,359.9 "/>
<polygon fill="#EC008C" points="381.1,386.6 386,390.9 382.9,362 377.1,379.5 379.2,387.9 "/>
<polygon fill="#EC008C" points="185.9,373.2 202.8,390 221.3,355.1 203.7,328.3 189.6,373.2 "/>
<polygon fill="#EC008C" points="448.3,386.4 449.1,388.4 477.4,378.1 486.9,366.9 471.6,327.5 442.3,365.9 442.6,368 438.3,375.8 
	447.9,387.4 "/>
<polygon fill="#EC008C" points="253.6,370.9 268.9,388 275.2,381.5 273.6,358.1 251.8,366.4 "/>
<polygon fill="#EC008C" points="780.1,364.8 770.3,386.8 806,378.4 811.3,367.8 797.5,367.8 800,361.2 "/>
<polygon fill="#EC008C" points="224.5,355.3 227.7,386.2 248.2,365.1 248,364.6 257,361.2 258.8,337 223.9,353.6 224.7,354.9 "/>
<polygon fill="#EC008C" points="278.5,382.4 280,385.2 278.8,382.1 "/>
<polygon fill="#EC008C" points="620.2,372.6 612.1,385.2 649.3,374.8 652,361.8 "/>
<polygon fill="#EC008C" points="310.1,378 310.6,381.8 336.8,370.6 341.1,359.5 "/>
<polygon fill="#EC008C" points="276.5,356.2 278,378.6 303.5,352.3 295.2,341.8 305,336.4 290.9,316.9 282.4,338 "/>
<polygon fill="#EC008C" points="741.6,371.8 743.4,375.5 744.3,375 745,371.2 "/>
<polygon fill="#EC008C" points="307.1,352.9 309.7,374.7 364.7,341.8 375.9,298.8 333.1,323.6 328.1,327.1 328.1,327.2 299.8,342.8 
	307.5,352.5 "/>
<polygon fill="#EC008C" points="367.5,342.8 375.7,374.2 382.2,354.8 382.1,354.5 386.1,349.9 378,302.8 "/>
<polygon fill="#EC008C" points="184,370.2 187.4,370.2 193,352.4 187.8,338.6 "/>
<polygon fill="#EC008C" points="722.7,337 740.1,369 777.8,362.2 787.5,326.1 787.5,320.2 758.1,326.5 "/>
<polygon fill="#EC008C" points="487.7,360.5 489.6,365.4 525.7,355.1 530.8,346.1 "/>
<polygon fill="#EC008C" points="669.6,360.3 681.4,363.1 684.2,338.5 659.7,345.9 "/>
<polygon fill="#EC008C" points="435.9,320.3 441.7,361.7 475.4,317.6 472,302.2 471.5,302.6 471.5,291.4 "/>
<polygon fill="#EC008C" points="790.2,327.6 781.1,361.6 800.5,358.1 798.7,350.1 813.4,322.5 "/>
<polygon fill="#EC008C" points="686.2,348.1 684.6,361.2 692.7,353.9 "/>
<polygon fill="#EC008C" points="269.8,327.5 263.1,358.9 273.8,354.9 279.3,337.9 "/>
<polygon fill="#EC008C" points="261.9,335.5 260.2,358.2 267.3,324.8 262.6,319.7 "/>
<polygon fill="#EC008C" points="475.1,328 486.6,357.7 545,338.2 548.9,304.8 "/>
<polygon fill="#EC008C" points="535,344.7 529.8,353.9 570.5,342.2 577.3,317.6 552.8,325.5 553,324.3 549.7,323.3 547.7,340.5 "/>
<polygon fill="#EC008C" points="220.6,348.6 222.8,351.9 222.4,351 259,333.5 259.6,318.8 232,335.7 "/>
<polygon fill="#EC008C" points="686.6,344.4 694.9,351.9 697.1,350 686.9,341.8 "/>
<polygon fill="#EC008C" points="188.6,332.2 194.4,347.7 203.2,319.7 195.9,315.8 192.9,315.8 "/>
<polygon fill="#EC008C" points="204.8,324.6 218.9,346 229.5,333.9 229.3,299.7 227.8,300.3 207.3,321.9 205.9,321.1 "/>
<polygon fill="#EC008C" points="577,330 573.9,341.3 584.8,338.1 "/>
<polygon fill="#EC008C" points="717.4,314.3 708.6,339.6 719.1,330.2 721.3,334.3 756.6,323.8 765.2,303.8 "/>
<polygon fill="#EC008C" points="585.1,334.1 588.1,337.2 635.6,323.6 620.1,303.8 591.6,313 "/>
<polygon fill="#EC008C" points="292.8,314.4 307.7,335 324.5,325.8 317.4,302.6 "/>
<polygon fill="#EC008C" points="263.5,316.3 280.5,334.7 289.1,313.3 298.8,275.8 282.1,280.3 265.2,315.3 "/>
<polygon fill="#EC008C" points="232.3,298.6 232.5,331.8 259.7,315.2 259.8,312.3 261.5,314.1 262.8,313.3 278,281.7 "/>
<polygon fill="#EC008C" points="577.9,326.7 582.8,331.7 588.1,314.1 580.7,316.5 "/>
<polygon fill="#EC008C" points="473.8,324.7 474,325.2 616.4,280.4 617.2,283.6 622.1,275.6 621.6,275.7 627.3,268.2 594.8,276.2 
	594.8,270.3 571.5,277.2 571.5,277.2 510.5,294.1 510.5,298.1 508.3,294.8 500.8,297 488.3,309.3 488.3,309.3 478.1,319 "/>
<polygon fill="#EC008C" points="320.1,301.3 327.1,324.1 330.6,321.6 325.9,298.5 "/>
<polygon fill="#EC008C" points="622,301.3 638.7,322.7 641.4,322 657.5,304.5 657.5,304.3 662,300.4 657.1,279.4 640.6,281.8 
	618.5,288.4 "/>
<polygon fill="#EC008C" points="550.1,320.3 553.5,321.3 556.5,302.4 552,303.8 "/>
<polygon fill="#EC008C" points="559.7,301.4 556.5,321.1 618.8,301 615.6,289.2 615.6,289.2 615,287.1 615.1,287.1 614.3,284.2 "/>
<polygon fill="#EC008C" points="657.7,308.6 646.9,320.4 658.1,317.2 "/>
<polygon fill="#EC008C" points="198.3,313.7 206.7,318.1 224.9,299 220,293.6 219.6,293.8 214.9,283.6 "/>
<polygon fill="#EC008C" points="474.7,300.4 477.9,315.1 485.1,308.3 482.6,294.9 "/>
<polygon fill="#EC008C" points="312.4,272.1 293.7,310.6 317.3,299.3 338.9,263.7 315.6,271.5 315.7,271.2 "/>
<polygon fill="#EC008C" points="485.3,293 487.7,305.7 498.3,295.2 494.3,280.2 486.9,261.8 476.2,267.1 485.5,292.9 "/>
<polygon fill="#EC008C" points="302.1,274.9 295.7,299.5 308.5,273.2 "/>
<polygon fill="#EC008C" points="222.7,292.1 227.4,297.2 229.7,296.4 234,286.3 "/>
<polygon fill="#EC008C" points="342,264.3 322.2,296.9 326.2,295 347.9,278.5 "/>
<polygon fill="#EC008C" points="238.3,283.8 233.5,295 284,276.3 283.8,276.7 317.2,267.7 323.6,252.7 252.8,275.1 243.2,278.3 "/>
<polygon fill="#EC008C" points="497.6,280.9 501,293.8 506.7,292.1 499.3,280.6 "/>
<polygon fill="#EC008C" points="510.5,286.9 510.5,291 572.5,273.8 575.4,264 552.8,271.1 517.3,285.3 517.3,285.5 "/>
<polygon fill="#EC008C" points="625.9,275.1 620,284.8 639.2,279.1 641.9,272.9 "/>
<polygon fill="#EC008C" points="515.3,266.7 517,282.2 550.8,268.7 550.8,254.6 547.1,256.2 547,256.1 520.8,264.4 "/>
<polygon fill="#EC008C" points="253.8,270.2 253.8,271.7 277.2,264.3 "/>
<polygon fill="#EC008C" points="525,251.4 522.5,260.7 539.6,255.3 536,251.5 535.9,251.6 533.2,248.1 "/>
<polygon fill="#EC008C" points="538.8,250.1 542.8,254.3 545.5,253.4 542.4,248.3 "/>
</svg>
