<?xml version="1.0" encoding="utf-8"?>
<!-- Generator: Adobe Illustrator 17.1.0, SVG Export Plug-In . SVG Version: 6.00 Build 0)  -->
<!DOCTYPE svg PUBLIC "-//W3C//DTD SVG 1.1//EN" "http://www.w3.org/Graphics/SVG/1.1/DTD/svg11.dtd">
<svg version="1.1" id="Layer_1" xmlns="http://www.w3.org/2000/svg" xmlns:xlink="http://www.w3.org/1999/xlink" x="0px" y="0px"
	 viewBox="0 0 500 500" enable-background="new 0 0 500 500" xml:space="preserve">
<path d="M51.8,245.8c0.5-0.7,0.8-1.4,1.3-1.9c0.5-0.6,1.2-1.3,1.9-1.5c3.6-1,5-3.1,3.6-6.5c-0.9-2.2-2.3-4.4-4-6
	c-5.5-5-10.1-10.7-14.3-16.8c-2.2-3.2-3.8-6.5-4.3-10.4c-0.7-5.3,0.6-7.1,5.7-8.1c0.8-0.1,1.5-0.3,2.2-0.7c0.6-0.3,1.3-0.8,1.5-1.4
	c1-3.6,1.8-7.2,0.3-10.9c-1.2-3-2.1-6.1-2.8-9.2c-0.9-4.2-0.5-8.3,2.8-11.5c0.8-0.8,2.5-1.5,3.5-1.2c4,1.2,5.8,4.4,5.8,7.8
	c0,1.9,0.2,4,0.7,5.8c0.9,3,2.7,3.6,5.5,2.2c2-1,3.4-2.5,4.2-4.6c0.6-1.6,0.9-3.4,1.4-5.1c0.2-0.6,0.7-1.1,1-1.7
	c0.6,0.4,1.3,0.6,1.7,1.2c1.6,2.3,1.5,4.6,0.6,7.2c-1.4,3.8-1.5,5.3,1.7,7.5c1.3,0.8,2.2,2.2,3.2,3.4c1.1,1.3,0.7,2.4-0.8,3
	c-0.9,0.3-1.9,0.6-2.8,0.5c-2.8-0.4-5.5-1.1-8.2-1.7c-1.8-0.4-2.5,0.2-2.5,2c0,1.7,0,3.4,0.2,5.1c0.5,3.3,1.2,6.6,1.6,10
	c0.3,2.4-0.2,2.6-2.5,2.2c-4.7-0.7-6-0.2-6.7,4.7c-0.2,1.2,0,2.4,0,3.6c0.3,6,3.4,10.7,6.9,15.3c2.5,3.3,5.2,6.7,7.1,10.4
	c2.2,4.5,2.1,5-3,6.5c-3.9,1.1-6.8,3.9-8.6,7.6c-0.2,0.4,0.2,1.2,0.3,1.8c0.5-0.3,1.1-0.5,1.4-1c0.7-0.9,1.2-2.1,2-3
	c1.9-2.1,4.3-3.5,7.1-4.2c4-0.9,4.8-2.4,3.5-6.3c-0.8-2.3-1.9-4.5-3.2-6.6c-3.2-4.8-7.6-8.8-9.9-14.3c-1.4-3.4-2-6.7-1.4-10.2
	c0.5-2.7,1.5-3.3,4.1-2.4c3.9,1.3,5.5,0.2,5.1-3.9c-0.3-3.3-1.1-6.6-1.6-9.9c-0.2-1.7-0.2-3.4-0.4-5.5c1.5,0.6,2.5,1.1,3.5,1.3
	c3.1,0.8,6.2,1.1,9.2-0.5c2.1-1.1,2.7-2.9,1.5-4.9c-0.9-1.5-2.1-2.9-3.4-4c-2.7-2.4-2.8-2.6-1.4-6c1.4-3.3,0.6-7.1-2-9.7
	c-1.9-1.9-3.8-1.6-4.6,0.9c-0.8,2.4-1.4,4.9-2.2,7.3c-0.6,1.9-2.4,2.9-4,3c-1.8,0.1-1.9-1.9-2.1-3.4c-0.2-1-0.1-2.1-0.2-3.2
	c-0.2-1.5-0.3-2.9-0.7-4.3c-1-3.7-6.6-7.2-10-5.4c-3.2,1.6-5.1,4.5-5.3,8.1c-0.3,4.8,0,9.5,2,14c1.2,2.7,2.6,5.5,1.2,8.9
	c-1.3,3.3-1,3.5-4.6,3.9c-2.8,0.3-4.5,2-5.3,4.6c-1.4,4.8-0.1,9.4,2.3,13.4c4,6.6,8.6,12.8,14.3,18.1c2,1.9,3.8,4.1,5.4,6.4
	c1.8,2.7,1,4.3-2.1,5C52.2,240.8,50.7,243.9,51.8,245.8z"/>
<path d="M429.6,194.7c-0.1-1.6,0.1-3.9-0.4-6.1c-0.4-1.6-1.3-3.3-2.4-4.6c-1.5-1.7-3.3-1.3-4,0.9c-0.4,1.4-0.3,3-0.6,4.5
	c-0.1,0.4-0.6,0.8-0.9,1.2c-0.3-0.3-0.8-0.6-0.9-1c-0.4-1.2-0.4-2.5-0.9-3.7c-1-2.2-2-4.4-3.4-6.3c-1.1-1.5-2.9-1.3-3.6,0.3
	c-0.8,1.8-1.2,3.9-1.1,5.8c0.3,6.6,1,13.2,1.4,19.9c0.4,7.4,0.4,14.8,0.7,22.2c0.2,4,0.4,8,0.8,11.9c0.1,0.9,1.3,1.9,2.3,2.2
	c1.4,0.5,3,0.4,4.6,0.4c2.2,0.1,3.3,0.8,3.1,3c-0.3,2.6-1.1,5.2-1.8,7.7c-0.9,3.1-2.2,6.1-2.6,9.2c-0.2,1.7,0.6,3.9,1.7,5.4
	c1.5,2.2,3.8,2.1,5.2-0.2c1.1-1.8,1.8-3.9,2.5-5.9c1-2.8,1.5-6.1,5.2-6.7c2.3-0.4,3.6-1.5,4-3.7c0.8-4.3,1.2-8.6-1-12.7
	c-1.4-2.6-2.5-5.6-4.6-7.4c-4.4-3.9-6-8.6-5.5-14.1C428,209.8,428.8,202.5,429.6,194.7z"/>
<path d="M243.7,195.5c-0.8,0.6-1.3,0.8-1.6,1.2c-1.1,1.4-2.4,1.8-4.1,1.1c-1.7-0.8-2.5-2.1-2.1-3.9c0.5-2.1,1.3-4.1,2.1-6.1
	c1.1-2.8,0.4-5.9-1.8-7.7c-2.3-1.8-4.2-1.8-7,0.3c-4,2.9-6.5,2.7-9.9-0.9c-1.9-2-3.5-4.2-5.5-6.1c-4.1-3.8-7.4-3.4-10.2,1.4
	c-3.7,6.4-5.3,13.2-2.6,20.6c2,5.2,4,10.5,5.7,15.8c1.7,5.2,0,9.8-5,12.2c-3.3,1.6-4.3,4.1-4.9,7.3c-0.9,5.1,0.4,9.9,1.9,14.7
	c1.4,4.5,3.7,9.1,1.2,14c-0.1,0.2,0.1,0.6,0.2,0.9c0.4-0.1,1-0.1,1.1-0.4c0.6-1.7,1.7-3.5,1.5-5.1c-0.3-3.4-1.1-6.7-2.1-10
	c-1.2-4.1-2.6-8-2.2-12.3c0.3-3.6,1.4-6.6,5.2-8.2c3.9-1.6,6.6-8.1,5.3-12.2c-1.7-5.3-3.5-10.7-5.7-15.8c-3.3-7.6-1.8-14.5,2.1-21.3
	c1.7-3,4-3.3,6.4-1c2.4,2.3,4.4,4.9,6.6,7.3c2.8,3.1,6.9,3.6,10.3,1.4c0.6-0.4,1.4-0.7,2-1.2c1.8-1.3,3.5-1,4.6,0.7
	c0.7,1.3,1.1,3,1,4.5c0,1.3-0.9,2.5-1.4,3.7c-1.5,3.6-1.2,6.4,0.9,8.2c1.7,1.4,3.7,1.7,5.7,1C243.2,199.1,243.8,197.8,243.7,195.5z"
	/>
<path d="M192.6,218.1c0.1,0.2,0.2,0.4,0.3,0.5c0.6-0.3,1.4-0.4,1.7-0.8c1-1.7,2.3-3.4,2.7-5.3c0.7-3.1-0.3-6.1-1.3-9
	c-1.5-4.4-2.8-8.9-3.8-13.5c-0.6-2.6-0.5-5.4-0.4-8.2c0.1-4.4,0.6-8.8,2.9-12.8c1.7-2.8,4.1-4,7.3-4.1c1.4,0,2.8-0.5,4.1-1.2
	c2.9-1.4,3.5-4.3,3.6-7.1c0.2-7.5-3.1-13.3-9.5-17.1c-5.7-3.5-11.9-2.3-14.9,3.2c-1.5,2.7-2.1,5.9-2.9,9c-0.8,2.9-2.2,4.7-4.4,4.8
	c-3.2,0.1-5-0.3-6.6-3.7c-2.3-4.8-2-9.8-1-14.8c0.5-2.8,1.8-4.5,5-4.6c2.8-0.2,5-3.3,4.8-6c0-0.3-0.2-0.7-0.5-0.8
	c-0.3-0.1-0.7,0-0.9,0.2c-0.4,0.4-0.8,0.9-0.8,1.4c-0.4,2.8-2.2,3.8-4.7,3.8c-1.8,0-3,1-3.5,2.5c-0.7,2-1.4,4.2-1.6,6.3
	c-0.5,4.7-0.2,9.3,2.3,13.4c1.9,3.1,4.9,3.9,8.2,3.5c2.8-0.4,4.4-2.3,5.1-5c0.7-2.4,1.4-4.9,2.2-7.3c1.7-5.2,6.1-7.3,11.2-5.6
	c7.4,2.5,12.4,11.3,10.6,18.5c-0.8,3.4-2.7,4.9-6.2,4.9c-4.1,0-7.1,1.8-8.8,5.7c-3.8,8.6-3.3,17.4-1.4,26.2c0.9,4.1,2.8,8,3.9,12
	c1,3.4,1,6.8-1.6,9.7C193.2,217.2,193,217.6,192.6,218.1z"/>
<path d="M252.4,176.4c0.1,0.2,0.2,0.4,0.2,0.6c0.5,0,1.1,0,1.6-0.1c3.8-0.9,7.7-6.3,7.5-10.2c-0.1-2.2-0.1-4.4,0.1-6.5
	c0.3-2.9,1.8-4.2,4.7-4.5c3-0.2,5.7,0.3,7.9,2.7c1.9,2,4.1,1.6,5.9-0.5c2.5-2.8,1.8-5.9,0.7-8.8c-1.3-3.6-0.3-6.9,1.2-9.9
	c3.1-6,9.2-7.4,15-3.9c5.9,3.5,10,8.6,13,14.6c2.7,5.5,2.3,14.8-3.4,18.7c-2.7,1.8-4.6,4.9-5.4,8.4c-0.1,0.4,0.3,0.9,0.4,1.4
	c0.4-0.3,0.9-0.6,1-1c1.2-3.3,3.1-6.1,5.8-8.4c5.2-4.4,5.8-9.9,4.3-16.2c-1.1-4.6-3.7-8.2-6.6-11.6c-3.5-4-7.4-7.4-12.9-8.4
	c-5.7-1-9.6,0.3-12.4,5.1c-2.3,3.9-3.5,8-1.7,12.6c0.8,2.1,1,4.4-0.6,6.4c-1.2,1.5-2.1,1.5-3.5,0.2c-1-0.9-2.1-2-3.2-2.2
	c-2.6-0.4-5.3-0.3-7.9-0.2c-1.8,0.1-3.3,1.2-3.6,3c-0.4,2.3-0.8,4.6-0.7,6.8c0.2,4.7-1.7,8.4-5.9,10.6
	C253.5,175.7,252.9,176.1,252.4,176.4z"/>
<path d="M92.6,249c0.1,0.2,0.2,0.4,0.4,0.6c0.6-0.3,1.5-0.5,1.9-1c1.9-2.2,1.4-6.4-1-8.1c-1.1-0.8-2.6-1.4-3.4-2.5
	c-3.3-4.8-6.6-9.7-9.6-14.8c-1.6-2.7-3.4-5.2-6.3-6.6c-2.5-1.3-5.2-0.1-5.3,2.7c-0.1,2,0.3,4.2,0.9,6.2c1.2,3.6,4.4,5.6,7.2,7.8
	c2.5,2,4.4,4.6,4.1,7.7c-0.7,5.7-2.4,9.6-8.7,11.7c-3.2,1.1-5.7,3-7.2,6.1c-0.3,0.6-0.1,1.3-0.2,2c0.5-0.4,1.1-0.7,1.5-1.2
	c1.9-2.2,3.8-4.2,6.9-5.3c3.5-1.2,6.7-3.3,8-7.2c0.4-1.3,0.7-2.7,1.2-4c1.6-4,0.2-7.1-2.8-9.7c-1.7-1.5-3.4-2.9-5.1-4.4
	c-2.9-2.5-4.1-5.6-3.7-9.4c0.2-1.5,1.1-2,2.3-1.3c1.2,0.8,2.5,1.7,3.2,2.9c2.7,4,5.1,8.2,7.8,12.2c2.1,3.2,4.1,6.5,7.7,8.5
	c1.6,0.9,1.7,2.8,1.2,4.5C93.5,247.5,93,248.2,92.6,249z"/>
<path d="M422.1,144c-0.1,0-0.2,0-0.3-0.1c-0.1-1.4,0.2-3-0.3-4.2c-1.5-3.3-3.2-6.4-5-9.5c-0.3-0.5-1.1-0.9-1.7-1
	c-2-0.4-4.7,1.8-5.3,3.8c-0.9,2.6,0.1,5.1,0.4,7.5c0.7,5.1,2,10.2,2.9,15.3c0.6,3.5,0.7,7.1,1,10.6c0.1,1.6,0.9,3.1,2.5,3.1
	c1.2,0,3.1-0.8,3.4-1.7c1.3-3.6,2.1-7.3,0.9-11.1c-0.3-1.1-0.2-2.4,0-3.5C421,150.2,421.6,147.1,422.1,144z"/>
<path d="M200.2,126.5c-0.1,0.3-0.2,0.5-0.2,0.8c0.5,0.2,1,0.6,1.6,0.6c8.4,0.8,13.5,5.5,16.2,13.3c1,3,2.6,5.8,5.1,7.9
	c1.8,1.5,3.6,2.2,5.7,0.8c2.3-1.4,4.5-2.8,6.8-4.2c2.4-1.5,5.5-0.1,5.9,2.8c0.2,1.6,0.1,3.2,0.2,4.8c0.1,2.3-0.9,3.9-3.1,4.4
	c-2.6,0.7-5.3,1.2-7.9,1.7c-3.2,0.6-6.4,4.6-6,7.7c0.3,1.7,1.4,2.6,3.1,2.6c1.4,0,2.4-0.9,2.5-2.7c-0.5,0.2-0.8,0.4-1.2,0.5
	c-0.6,0.1-1.5,0.4-1.8,0.1c-0.5-0.5-0.8-1.4-0.7-2c0.2-1.7,3.3-4.6,4.9-4.8c1.7-0.2,3.5-0.3,5.2-0.6c2.5-0.4,7-2.2,7-5.1
	c0-2.8,0-5.8-0.7-8.5c-0.7-2.9-4.7-4.2-7.3-2.7c-1.8,1-3.7,2-5.4,3.3c-3.6,2.8-5.9,1.7-8.2-2c-1.2-1.8-2-3.9-2.8-5.9
	c-1.7-4.1-4.2-7.6-7.9-10.1C207.7,126.8,204,126.2,200.2,126.5z"/>
<path d="M245.4,414.1c1.5,0.2,2.1,0,3.4-1.7c3.7-4.8,5.1-10.2,3.1-16c-0.7-2.1-2.4-4-4.7-4.4c-4-0.6-7.4,0.8-10.3,3.6
	c-1.4,1.4-2.8,2.7-4.3,4c-2,1.8-4.4,1.9-6.9,1.1c-1.7-0.6-2.6-1.9-2.3-3.6c0.4-2,1.2-4,2-5.9c0.7-1.8,1.8-3.5,2.2-5.4
	c1.4-5.8-1.4-10.6-4-15.5c-0.2-0.4-0.9-0.4-1.3-0.7c-0.1,0.5-0.5,1.2-0.3,1.6c0.5,1.4,1.4,2.6,1.9,4c1.3,3.5,3.2,7,1.7,10.9
	c-0.9,2.3-2.2,4.5-3.2,6.8c-1.4,3.2-1.4,6.3,0.4,7.9c2.6,2.4,8.3,2.5,11,0.1c1.6-1.5,3-3.3,4.8-4.4c1.9-1.3,4.1-2.4,6.3-2.9
	c2.4-0.6,4.3,1,5.2,3.3c1.1,3.1,1.4,6.4-0.1,9.4C248.6,409.1,246.9,411.5,245.4,414.1z"/>
<path d="M377.5,146.5c0.3-0.3,0.5-0.5,0.8-0.8c0.4-2-0.2-3.1-2.3-3.9c-1.8-0.7-2.9-2.2-2.5-3.9c0.8-3.8,2.6-6.8,6.5-8.5
	c2.3-1,4.8-1.9,6-4.6c1.7-4-0.8-8.1-5.1-8.1c-3.2,0-5.2-1.3-6.1-4.7c-2.3-8.8-10-13.6-17.9-13.7c-4.5,0-9.1,1-13.1,3.3
	c-1.4,0.8-2.5,0.8-3.6-0.4c-1.6-1.7-3.2-3.4-4.9-5.1c-0.7-0.7-1.5-1.4-2.2-2c-0.2,0.2-0.4,0.4-0.6,0.6c1.2,1.6,2.4,3.1,3.6,4.8
	c2.7,4,5.6,5.1,9.9,2.8c4.1-2.3,8.7-3.1,13.4-2.3c2.1,0.4,4.1,1.6,6.1,2.5c4.3,1.8,6.5,5.3,7.6,9.7c1,4.1,3.7,6.3,8.1,6.4
	c0.7,0,1.6,0.4,2.1,1c2.5,2.8,1.6,6.4-1.9,7.8c-3.5,1.4-6.4,3.4-8.4,6.7c-2.3,3.9-1.5,6.9,2.3,9.2c0.7,0.4,1.2,1.1,1.7,1.8
	C377.3,145.3,377.3,145.9,377.5,146.5z"/>
<path d="M291.6,182.4c-0.2,0.1-0.4,0.1-0.5,0.2c-0.2,1.8-0.5,3.5-0.7,5.3c-0.4,2.9-2.1,3.7-4.6,2.1c-0.9-0.6-1.8-1.1-2.7-1.6
	c-1.9-0.9-3.7-0.3-5.1,1.1c-3.2,3.1-2.6,6.9-1.6,10.4c1.4,5,1.3,9.5-2.1,13.7c-1.5,1.9-3.4,3-5.7,2.8c-2.3-0.2-2.3-2.3-2.8-3.9
	c-0.2-0.7-0.3-1.4-0.5-2c-0.6-1.9-1.8-3.8-3.7-3.9c-2.5-0.1-5.1,0.6-7.3,2.4c1.3,1.5,2.3,0.1,3.1-0.3c3.2-1.4,4.9-0.8,6,2.4
	c0.5,1.3,0.9,2.7,1.1,4c0.3,1.8,1.6,2.9,3.1,2.9c1.8,0,3.9-0.3,5.4-1.2c4.8-2.8,7.7-10.7,5.4-16.5c-0.7-1.9-1.1-4.1-0.9-6.2
	c0.4-4.4,2.9-5.3,6.5-2.9c3.1,2.1,6.8,2,8.1-2.6c0.4-1.6,0.3-3.3,0.2-5C292.5,183.3,291.9,182.9,291.6,182.4z"/>
<path d="M248.5,130.4c0.5,0.7,0.8,1.4,1.4,1.8c0.4,0.4,1,0.4,1.6,0.7c0.1-0.6,0.5-1.4,0.3-1.9c-1.2-2.6-3-3.1-5.4-1.4
	c-0.6,0.4-1.2,0.8-1.7,1.3c-1.2,1.1-2.5,1.3-3.8,0.3c-1.2-0.9-1.4-2.1-0.9-3.6c0.6-2.1,1-4.2,1.2-6.4c0.2-2-1.2-3.6-3-3.7
	c-2.6-0.2-5.3,0.2-7.8,0.7c-2.3,0.4-4.6,2-6.8,1.9c-4.4-0.2-6.8-3.4-8.3-7.3c-0.4-1.1-1-2-1.5-3.1c-0.3,0.1-0.5,0.2-0.8,0.3
	c0.1,0.6,0,1.3,0.2,1.9c0.6,1.7,1.1,3.5,2.1,5c2.8,4.2,7,6.5,12.5,4c2.4-1.1,5-1.7,7.6-2.1c2-0.4,3.4,0.9,3.4,3c0,2-0.3,4-0.9,5.9
	c-0.5,1.8-0.5,3.2,1,4.6c1.5,1.5,3.1,2,4.9,0.9C245.3,132.4,246.8,131.4,248.5,130.4z"/>
<path d="M283.3,126.8c0.2,0.1,0.5,0.2,0.7,0.3c0.5-0.6,1.2-1.1,1.6-1.8c1.4-2.4,2.8-4.7,4-7.2c2.3-4.5,4-9.2,8.3-12.7
	c4.1-3.3,6.9-1.9,8.7,2.1c1.1,2.5,1.7,5.2,2.3,7.9c0.6,2.4,3.9,4.7,6.2,3.8c2.3-1,4.4-2.4,6.6-3.7c0.3-0.2,0.3-0.9,0.5-1.4
	c-0.4,0-1-0.1-1.3,0.1c-1.8,0.9-3.5,1.9-5.2,2.8c-1.9,1-4.3,0.1-4.9-2c-0.5-1.8-1-3.6-1.3-5.5c-0.6-3.3-2.6-5.5-5.4-7.2
	c-1.7-1-3.6-1-4.9,0.2c-3,2.9-6.2,5.7-8.5,9.2c-2.8,4.1-4.7,8.8-6.9,13.2C283.3,125.4,283.4,126.1,283.3,126.8z"/>
<path d="M276.4,118c-3.2-1.7-6-3.2-8.9-4.6c-0.3-0.2-1,0.1-1.3,0.3c-1,0.9-2.1,1.8-2.6,2.9c-2.2,5-3.3,10-0.1,15.1
	c0.4,0.7,0.8,1.5,1.1,2.3c2.5,5.8,0.7,8-5.4,8.4c-0.4,0-0.9,0-1.3,0c-1.2-0.2-2.5-0.6-3.7-0.7c-2.1-0.2-4,1.6-3.8,3.6
	c0.3-0.1,0.6-0.1,0.8-0.2c1.6-2.2,3.4-2,5.7-1.2c5.6,1.8,10.9-1.8,10.6-7c-0.1-1.4-0.6-2.9-1.4-4.1c-3.2-4.9-3.1-9.9-0.8-15
	c1-2.3,2.1-2.6,4.2-1.2c0.8,0.6,1.8,1,2.4,1.7C273.2,120.2,274.5,119.2,276.4,118z"/>
<path d="M330.5,121c-0.2,0-0.5-0.1-0.7-0.1c-0.3,0.9-0.6,1.9-0.9,2.8c-0.5,2-1.9,3.2-3.6,2.4c-2.5-1.2-4.3-0.2-6,1.5
	c-0.7,0.7-1.4,1.7-2.3,2.2c-1.1,0.6-2.4,1.2-3.5,1.1c-2.9-0.2-4.9-1.8-6.3-4.4c-1.4-2.6-2.9-5.1-4.4-7.6c-1-1.6-2.6-1.6-3.8-0.5
	c-1.7,1.5-3.1,3.4-4.5,5.2c-0.3,0.4,0,1.3,0,1.9c0.6-0.4,0.8-0.9,1-1.2c1.2-1.5,2.4-3,3.8-4.4c0.8-0.8,1.9-0.9,2.6,0.4
	c1.2,2.1,2.7,4.2,3.5,6.4c1.4,3.8,4.4,5.3,7.8,6c2.7,0.6,4.7-0.8,6.3-3.1c1.1-1.5,2.6-3.4,5.1-2.1c2.1,1.1,3.5,0.1,5-1.4
	C331.1,124.6,331.1,122.9,330.5,121z"/>
<path d="M265.8,407.9c-3.3,0-4.6-2.1-3.6-4.7c0.6-1.6,1.3-3.2,2-4.9c1.3-3.6,0.6-6.8-1.9-9.6c-0.3-0.4-1.1-0.3-1.6-0.5
	c0.1,0.4-0.1,1,0.2,1.2c2.7,3,2.5,6.3,1,9.8c-0.8,1.8-1.3,3.7-1.8,5.6c-0.5,2.1,1.8,5.1,3.9,4.8c2.3-0.3,4.6-0.8,6.1-2.9
	c0.6-0.8,1.4-1.6,2.2-2.3c1.9-1.5,3.2-1.2,4.3,1c0.5,1.1,1,2.2,1.7,3.2c0.2,0.3,1.1,0.5,1.4,0.3c0.3-0.1,0.5-1,0.3-1.4
	c-0.8-1.6-1.6-3.2-2.7-4.5c-1.5-1.9-3.8-1.9-5.6-0.4c-1.4,1.2-2.6,2.6-4,3.7C267.1,407.3,266.2,407.7,265.8,407.9z"/>
<path d="M372.4,160.2c-1.3-3.1,0.2-4.7,2.5-5.6c0.9-0.4,1.9-0.2,2.8-0.5c3.3-0.9,6.6-1.4,8.9-4.5c2.8-3.8,2.3-7.6,0.5-11.5
	c-0.7-1.6-3.8-3.3-5.8-3c0.9,0.8,1.5,1.5,2.3,2c2.6,1.4,3.2,3.8,3.1,6.4c-0.1,5.3-4.4,9.2-10.4,9.5c-3.1,0.2-5,1.9-6.3,4.5
	C369.5,158.7,370.1,159.7,372.4,160.2z"/>
<path d="M237.9,385.6c0.1,0.2,0.1,0.3,0.2,0.5c2.1-1,4.3-2,6.2-3.2c0.5-0.3,0.4-1.7,0.5-2.6c-0.6,0.4-1.4,0.6-1.8,1.1
	c-2.5,2.9-6.2,3.1-7.5,0.2c-1.6-3.6-2.7-7.4-4.2-11.1c-0.3-0.7-1-1.3-1.5-1.9c-0.2,0.8-0.7,1.7-0.5,2.4c1.4,4.2,2.9,8.3,4.6,12.4
	C234.7,384.8,236,385.8,237.9,385.6z"/>
<path d="M46.4,260.2c-0.4-0.8-0.8-2.1-1.6-2.7c-0.7-0.5-2.1-0.5-3.1-0.2c-1,0.3-1.3,1.3-0.5,2.4c0.3,0.4,0,1.2-0.1,1.8
	c-0.2,1.4-0.3,2.8,1.4,3.3c1.6,0.4,2.5-0.6,3.1-1.9C45.9,262.1,46.1,261.3,46.4,260.2z"/>
<path d="M38.9,243.7c-0.1,2.9,1.7,5.4,3.9,5.4c1.6,0,2.9-1.6,3-3.7c0-2.3-1.9-4.7-3.7-4.7C40,240.7,39,241.6,38.9,243.7z"/>
<path d="M276.3,124.9c0.1,0.2,0.2,0.4,0.3,0.5c0.7-0.4,1.5-0.7,1.9-1.2c3-3.5,4.1-8.3,7.7-11.4c0.3-0.3-0.1-1.3-0.1-2
	c-0.5,0.1-1.4,0-1.6,0.3C281.7,115.7,279,120.3,276.3,124.9z"/>
<path d="M48.3,274.4c-0.5-1.6-0.8-2.9-1.5-4c-0.9-1.5-3-1.3-3.7,0.3c-0.8,1.9-1.8,3.9,1.2,4.9c0.7,0.3,1.6,1,2.1,0.8
	C47.2,276.1,47.7,275.1,48.3,274.4z"/>
<path d="M203.5,380.2c-0.5,0.4-0.8,0.6-1.1,1c-1.5,2.3-3.5,3-6,2.1c-1.1-0.4-2.1-1-3.2-1.4c-1.8-0.7-2.8,0-2.6,1.4
	c1.4,0.4,2.7,0.7,4,1.2c2.3,0.9,4.6,1.3,7,0.5C203.3,384.4,204.2,382.6,203.5,380.2z"/>
<path d="M247.3,196c0,1.5,1.3,3,2.6,3.1c1.4,0,2.8-1.8,2.7-3.6c-0.1-1.4-0.7-2.4-2.3-2.4C248.6,193.1,247.3,194.3,247.3,196z"/>
<path d="M334.5,109.7c-3.3-4.7-6.3-9.1-9.4-13.4c-0.2,0.1-0.4,0.2-0.6,0.3c0.3,0.8,0.4,1.6,0.8,2.3c1.5,2.5,3.1,5,4.8,7.4
	c0.7,1.1,1.6,2.1,2.5,3C333.1,109.7,333.8,109.6,334.5,109.7z"/>
<path d="M300,169.7c-3.3-2.4-6.4-4.7-9.5-6.8c-0.4-0.3-1.1-0.1-1.7-0.1c0.2,0.5,0.3,1.2,0.7,1.5c1,0.8,2.1,1.3,3.2,2
	c1.6,1,3.2,1.8,4,3.8C297.3,171.6,298.4,171.2,300,169.7z"/>
<path d="M294.3,176.6c0.1-0.3,0.2-0.5,0.3-0.8c-2.6-2.4-5.2-4.8-7.8-7.2c-0.4-0.4-1.2-0.4-1.9-0.5c-0.1,0.2-0.2,0.4-0.3,0.6
	c2.5,2.6,5,5.2,7.6,7.7C292.6,176.7,293.5,176.5,294.3,176.6z"/>
<path d="M242.7,169.7c0-0.2,0-0.4,0-0.6c-1.4,0.6-1,1.6-0.2,2.5c1,1.1,2.2,1.7,3.7,1c1.4-0.7,2.4-2.9,1.7-4.5
	c-0.3-0.7-1.2-1.6-1.8-1.6c-1,0-2.5-0.1-2.7,1.8c0.9,0,1.7-0.1,3.2-0.2c-0.4,1.2-0.8,2.2-1.1,3.2
	C244.6,170.8,243.7,170.3,242.7,169.7z"/>
<path d="M258.5,186.8c-1.1,1-1.5,1.8,0.4,2.5c0.5,0.2,1.1,1.4,0.9,1.8c-0.3,0.6-1.2,1-1.9,1.4c-0.3-0.6-0.6-1.1-0.8-1.7
	c-0.1-0.3-0.2-0.6-0.2-1c-1.3,1.1-1.9,2.2-1.2,3c0.6,0.6,1.8,1,2.6,1c0.9-0.1,1.8-0.7,2.5-1.3c1.6-1.4,1.4-2.9-0.3-4.1
	C259.8,187.9,259.2,187.3,258.5,186.8z"/>
<path d="M263.4,186.5c0.4,0.3,1.2,1.1,2,1.2c1.4,0.2,3.5-1.7,3.3-2.9c-0.2-1.5-1.2-2.1-2.6-2.2C264.4,182.7,263.4,183.8,263.4,186.5
	z"/>
<path d="M186.5,392.3c-0.4-0.5-0.7-0.9-1-1.4c-1.4-2.1-2.8-4.1-4.1-6.3c-0.4-0.7-0.6-1.6-1.1-2.3c-0.3-0.4-1-0.6-1.5-0.8
	c0,0.5-0.3,1.2-0.1,1.6c0.6,1.4,1.3,2.8,2.1,4.1c1.1,1.8,2.3,3.5,3.6,5.2c0.3,0.4,1,0.4,1.5,0.5
	C186.1,392.9,186.3,392.5,186.5,392.3z"/>
<path d="M249,155.1c1,1,1.8,1.5,2.1,2.2c0.2,0.5-0.5,1.3-0.9,2c-0.2-0.1-0.3-0.1-0.5-0.2c-0.1-0.7-0.2-1.4-0.3-2.2
	c-1.7,0.2-2,1.4-1.5,2.4c0.4,0.7,1.6,1.4,2.4,1.3c1.5-0.2,2.9-2.6,2.5-4.1c-0.2-0.8-0.8-1.8-1.5-2
	C250.8,154.2,249.8,154.8,249,155.1z"/>
<path d="M189.9,388.2c-0.3-0.3-0.5-0.6-0.7-0.9c-0.6-0.8-1.4-1.6-1.9-2.5c-0.6-1.1-0.9-2.3-1.6-3.4c-0.2-0.4-1-0.5-1.5-0.8
	c-0.2,0.4-0.6,0.9-0.5,1.1c1.2,2.3,2.5,4.6,3.9,6.9c0.2,0.3,0.9,0.4,1.3,0.3C189.4,389,189.6,388.6,189.9,388.2z"/>
<path d="M303,164.6c-1.3-1.5-2.5-2.9-3.7-4.3c-0.8-0.8-1.6-1.6-2.5-2.3c-0.3-0.2-0.9,0-1.3,0c0.1,0.4,0,0.9,0.2,1.1
	c1.7,1.9,3.3,3.7,5,5.6C301.7,165.7,302.4,165.5,303,164.6z"/>
<path d="M175.4,384.4c-0.2,0.1-0.4,0.1-0.6,0.2c-0.1,0.5-0.6,1.2-0.4,1.4c1.5,2.1,3,4.2,4.6,6.2c0.2,0.3,0.8,0.2,1.3,0.3
	c0-0.4,0.1-1-0.1-1.2c-1.3-1.9-2.6-3.8-4-5.7C175.9,385.3,175.6,384.8,175.4,384.4z"/>
<path d="M257,388.4c1-1.7,1.8-3.1,2.7-4.6c2.1-3.5,2.1-3.5,1.6-4.6C258.5,381.6,255.9,387,257,388.4z"/>
<path d="M248.2,384.8c0.1,0.1,0.3,0.3,0.4,0.4c0.5-0.4,1.3-0.7,1.5-1.2c0.8-1.7,1.5-3.5,2.1-5.2c0.1-0.3-0.3-0.8-0.5-1.2
	c-0.4,0.2-1,0.3-1.1,0.6C249.8,380.4,249,382.6,248.2,384.8z"/>
<path d="M253.5,386.1c1-2.6,3.4-4.5,3.1-7.6C254.9,380.8,253,383,253.5,386.1z"/>
<path d="M188.8,121.7c0.5-0.4,0.9-0.8,1.4-1.2c-0.7-0.9-1.4-1.9-2.1-2.8c-0.1-0.1-0.7,0-0.7,0.1c-0.1,0.4-0.3,0.8-0.1,1.1
	C187.7,120,188.3,120.8,188.8,121.7z"/>
<path d="M192,114.4c-1.3,2.3-0.4,3.9,1.9,4.1C193.3,117.2,192.8,116,192,114.4z"/>
<path d="M184.6,121.4c-0.3,0.1-0.5,0.1-0.8,0.2c0.2,0.8,0.3,1.7,0.8,2.3c0.3,0.4,1.1,0.4,1.6,0.5c0.1-0.2,0.1-0.4,0.2-0.5
	C185.8,123,185.2,122.2,184.6,121.4z"/>
<path d="M80.7,329.3c-0.8,7.3,1,13.6,6.1,19c4.1,4.4,8.6,7.7,14.3,9.6c7.7,2.5,15.7,3.2,23.7,4.1c7.8,0.8,15-1.5,22-4.5
	c7.2-3,13.1-7.9,18.8-12.9c4.9-4.3,7.7-9.9,9-16.1c1.2-5.9,2-11.8,2.8-17.8c0.9-7.2,0.7-14.5-1.1-21.5c-1.4-5.2-3.4-10.2-5.3-15.3
	c-3.9-10.6-11.4-18.6-19.5-26.1c-3.7-3.4-7.9-6.4-11.7-9.6c-2.7-2.3-5.3-4.9-6-8.7c-0.3-1.7,0.8-4.1,2.4-4.7c1.9-0.7,2.9,0.5,3.6,2
	c0.3,0.5,0.4,1.1,0.8,1.5c0.5,0.5,1,1.1,1.6,1.3c2.2,0.5,3.8,1.6,5.1,3.5c2.3,3.5,3.7,4.1,7.6,2.9c3.8-1.2,7.1-1.1,10.4,1.5
	c2.3,1.8,4.7,1.4,6.9-0.6c3.4-3.1,4.8-7.2,4.2-11.6c-1.4-9.2-4.2-18.1-9.7-25.8c-3.5-4.8-7.6-9.2-12.7-12.4
	c-1.7-1.1-3.6-1.8-5.4-2.8c-9.8-5.5-20.1-5.9-30.7-2.6c-5.9,1.8-10.6,5.4-13.7,10.6c-5.2,8.8-6.4,18.5-3.7,28.3
	c2,7.2,6,13.7,10.3,19.9c1.9,2.8,4.1,5.4,5.9,8.2c4.3,7.1,8.6,14.1,11,22.2c2.6,8.8,5.5,17.5,3.4,26.8c-1.3,5.9-3.6,11.3-9.9,13.4
	c-6.8,2.2-10.9,0.7-12-7.6c-0.3-2.1,0-4.3,0.2-6.5c0.4-4.4-1.3-7.8-4.8-10.4c-2.1-1.5-4.2-3-6.2-4.6c-3.1-2.6-4.3-6.3-4.8-10.2
	c-0.4-3.3,1.3-6,2.6-8.8c1.8-4,0.2-7.7-4.1-8.8c-2.4-0.6-4.8-0.8-6.5,1.5c-0.9,1.2-1.6,2.6-2.3,4c-1.6,3.1-2.9,6.2-4.6,9.2
	c-1.5,2.6-3.9,3.4-6.4,2.2c-3.4-1.5-5.3-0.8-5.6,2.9c-0.4,4.2-0.4,8.6,0.2,12.8c1.1,7.5,5.3,13.8,8.9,20.3c2.5,4.5,5.4,8.7,5,14.2
	C80.6,323.8,80.7,326.6,80.7,329.3z"/>
<path d="M202.8,284.6c0.2,0,0.4,0,0.6-0.1c0-0.5,0-1,0-1.5c-0.4-4.3-0.6-8.7-1.1-13c-0.3-2.7-1.6-3.3-4.1-2.2
	c-2.1,0.9-4.2,0.8-6.4,0.2c-1.5-0.4-3-1.3-4.6,0.1c-1.7,1.4-3,3.1-2.6,5.4c0.3,1.8,0.7,3.7,1.3,5.5c1.6,4.5,0.4,8.7-3.4,11.5
	c-0.5,0.3-0.9,0.7-1.4,1c-1.6,0.9-2.1,2.1-1.6,3.9c0.1,0.5,0.1,1.1,0.2,1.7c0.1,0.8,0.2,2.3,0.5,2.4c1,0.2,2.3,0.1,3-0.4
	c3.8-2.8,6.9-6.2,7.3-11.3c0.1-1.3,0.6-2.6,1.1-3.8c0.4-1.2,1.3-1.5,2.3-0.7c0.6,0.5,1.2,1,1.7,1.6c2.8,4.2,3,8.9,2.3,13.7
	c-0.4,2.5-1.2,4.9-1.4,7.4c-0.2,1.9,0,3.8,0.2,5.6c0.2,1.6,1.3,2.4,2.9,2.6c5.7,0.7,9.9,5.1,10.4,10.7c0.4,5-0.4,9.8-3,14.2
	c-1.2,2-3.2,2.2-5.1,2.2c-1.8-0.1-3.2-1.1-3.7-3c-0.6-2.3-1.1-4.6-1.8-6.9c-1-3.3-2.2-6.8-5.7-7.8c-3.5-1.1-7.3-1.2-10.9-1.6
	c-0.6-0.1-1.6,0.6-1.8,1.2c-1.4,3.1-0.5,5.8,2.2,7.7c1.7,1.2,3.5,2.3,5.4,3.2c2.9,1.5,4.6,3.7,4.6,6.9c0,2.7-0.2,5.4-0.6,8.1
	c-0.8,5.8,1.5,8.8,6.8,8.5c3.6-0.2,7.1-0.8,10.6-1.5c4.2-0.9,7.6-3.1,10-6.7c3.9-6.1,5.2-12.9,6.2-19.9c0.8-5.4,0.3-10.5-1.9-15.4
	c-0.6-1.4-0.9-3.1-1-4.7c-0.2-3,1.8-4.4,4.4-3c1.2,0.6,2.5,1.8,3,3.1c1.3,3.5,3.6,6.1,6.7,7.8c3.7,2.1,5.1,5.3,5.6,9.3
	c0.1,0.7,0.4,1.5,0.9,2c2.1,2.1,4.9,1.9,6.7-0.6c4.4-5.9,5.7-12.8,6-19.8c0.5-10.8-2-21.2-4.2-31.7c-1.3-6-3.2-11.9-4.6-17.9
	c-1.2-5.1-2-10.3-3-15.5c-0.6-2.9-2.8-5-5.5-4.8c-2.5,0.2-4.6-0.5-6.5-1.8c-1.1-0.7-2.2-1.5-3.3-2.2c-1.8-1.2-2.8-1-3.5,1.1
	c-0.4,1.4-0.7,2.9-0.7,4.3c0.3,5.8,1.3,11.6,3.3,17.1c2.3,6.3,3.9,12.8,4.1,19.5c0.1,4.3,0,8.7-0.3,13c-0.2,2.4-2.1,4.2-4,4.2
	c-2.2,0.1-2.8-1.8-3.5-3.4c-0.7-1.7-1.4-3.5-2.2-5.2c-0.3-0.6-1-1.6-1.4-1.6c-0.7,0.1-1.6,0.8-1.9,1.4c-0.8,1.8-1.4,3.7-2,5.5
	c-1.3,4-1,8.3-3.3,12.1c-1.1,1.8-2.8,1.8-4.4,1.7c-0.6-0.1-1.5-1.6-1.6-2.5C204,295.7,203.4,290.1,202.8,284.6z"/>
<path d="M308.8,282.8c0-1.9,0.4-3.9-0.1-5.7c-0.6-1.9-1.6-4.3-3.2-5.1c-1.9-1-3.7,1-4.9,2.8c-1.2,1.9-2.3,3.8-3.6,5.7
	c-1.7,2.5-3.3,5.1-5.4,7.2c-2.8,2.9-6.5,4.6-10.5,3.7c-11.1-2.3-14.2-13.7-12.2-21.4c0.3-1.1,1.4-2.4,2.5-2.9
	c3.5-1.4,7.1-1.4,10.1,1c2.8,2.2,5.9,1.9,9,1.6c1.4-0.1,2.3-0.9,2.8-2.4c1-3.3,3.2-5.5,6.6-6.2c3.5-0.8,7-1.3,10.6-1.7
	c3.4-0.5,6.4-3.2,7.2-6.5c0.8-3-0.1-5.9-0.8-8.7c-1.3-5.5-4.9-9.5-8.6-13.5c-3.1-3.3-6.8-5-11.1-5.2c-1.3,0-2.8,0.7-3.9,1.5
	c-1.9,1.5-3.5,3.2-5.1,5c-1.2,1.3-2.7,1.5-4.4,1.5c-3.4-0.1-6.9-0.2-10.2,0.1c-3.5,0.3-6.5,1.7-9,4.4c-3.5,3.7-4.4,8.4-5.5,13
	c-1.8,7-2,14.1-1.2,21.3c1.3,10.9,2.5,21.7,6,32.2c1.6,4.9,3.2,9.7,7,13.5c1.5,1.5,3.8,2,4.4,4.4c0,0.2,0.4,0.4,0.7,0.4
	c1.6,0.4,3.2,0.9,4.9,1.2c2,0.4,3.5-0.5,4.1-2.4c0.5-1.4,0.8-2.8,1.1-4.3c1.3-6.2,6.2-10.3,12.5-10c5.1,0.2,6.8-2.8,7.7-6.4
	C307.8,295,309,289,308.8,282.8z"/>
<path d="M400.1,363.9c-4.3-1.9-5.4-3.7-3.9-6.6c0.6-1.3,1.7-2.6,2.9-3.2c2.9-1.6,5.9-2.7,8.9-4.2c1.5-0.8,3.1-1.6,4.2-2.9
	c0.7-0.7,0.6-2.3,0.4-3.4c0-0.3-1.4-0.6-2.2-0.7c-0.7-0.2-1.5-0.2-2.3-0.4c-2.6-0.7-3.6-2.7-2.3-5c0.8-1.4,2-2.7,3.4-3.7
	c3.7-2.5,7.6-4.5,11.2-7.1c5.5-3.8,7.3-10,4.7-15.9c-0.4-1-1.5-1.6-2.3-2.5c-0.8,0.9-1.9,1.7-2.4,2.7c-0.7,1.7-0.9,3.5-1.3,5.3
	c-0.5,2.8-3.4,5.5-6.2,5.1c-6.1-0.8-8.4,2.7-11,7.6c-1.8,3.4-5.3,5.9-9.1,5.5c-2.6-0.3-4-1.7-3.8-4.3c0.1-1.5,0.6-3,1.2-4.4
	c0.6-1.8,1.6-3.4,2.2-5.2c1-3.1-0.7-8.3-3-9.2c-2.2-0.8-4.6-1.4-6.9-1.6c-4.1-0.3-8.2-0.1-12.3-0.4c-2.7-0.2-3.7-2.3-2.4-4.6
	c0.2-0.4,0.3-0.9,0.5-1.4c-3.1-1.9-6.1-3.8-9.2-5.6c-0.4-0.2-1.5,0.1-1.8,0.5c-1.5,1.7-3.1,2.8-5.4,2.7c-1.7-0.1-3.4,0.1-5-0.1
	c-2.9-0.3-4.9,1.4-6.6,3.1c-0.7,0.7-0.7,2.4-0.8,3.6c-0.1,1.5,0,2.9,0,4.4c-0.4,7.5-2.6,14.5-6.1,21c-1.2,2.4-3.2,4.6-6.2,5.3
	c-1.3,0.3-3.1,0.7-3.7,1.6c-1,1.6-1.3,3.7-2,5.8c3.9-0.8,5.1-0.4,8.1,1.4c1,0.6,2.6,0.6,3.7,0.2c2.9-0.9,3.5-3.4,4.2-6.1
	c0.6-2.3,1.3-4.6,2.6-6.5c2.7-4,8.8-4.2,11-0.7c1.6,2.5,1.2,4.9,0.3,7.6c-0.7,2.2-0.9,4.6-0.8,6.9c0.1,1.7,2.7,2.8,3.9,1.8
	c1-0.7,2.2-1.7,2.5-2.8c1.6-4.6,2-9.4,1.1-14.3c-0.8-4.1-3.6-7.1-6.3-10c-4.1-4.5-3.3-11.5,2-14.6c0.6-0.4,1.5-0.6,2.2-0.6
	c3.2,0.1,6.3,0.5,8.2,3.7c0.8,1.4,1.7,2.9,2.5,4.4c1.2,2.3,2.5,2.9,4.9,1.9c1.1-0.5,2.2-1,3.3-1.3c1.1-0.3,2.4-0.7,3.4-0.4
	c6.4,2.1,6.8,7.2,4.3,11.9c-1.1,2.2-2.5,4.2-3.7,6.4c-1.5,2.7-1,4.7,1.7,6.1c1.3,0.7,2.7,1.1,4.1,1.5c2.8,0.9,4.8,4,3.8,6.4
	c-1.2,3-2.7,4.7-6.4,3.6c-2-0.6-4.1-1.1-6.1-1.5c-2.6-0.6-4.2,0.3-5.4,2.8c-0.8,1.7-0.3,4.4,1.4,5.5c1.6,1,3.5,1.6,5.4,2.1
	c5.3,1.2,7.2,5.7,3.6,9.3c-0.6,0.6-1,1.4-1.4,2.1c-0.8,1.2-0.6,2.1,1,2.5c0.9,0.2,1.8,0.2,2.7,0.4c1.1,0.3,2.3,0.4,3.1,1
	c2.8,1.9,3.2,3.9,1.9,8c-0.9,2.8,0.1,4.9,2.7,6c2.2,0.9,4.5-0.3,5.7-2.7c1.6-3.1,1.8-6.1,0.3-9.3c-0.5-1-1-2.2-0.8-3.2
	C396.9,371.5,396.9,367.3,400.1,363.9z"/>
<path d="M382.2,243.9c-1.7,1.2-3.2,3.1-4.7,3.2c-5.8,0.2-9,4.2-12.7,7.6c-0.4,0.3-0.4,1-0.6,1.5c-0.7,2.3-1.3,4.7-2.1,7
	c-1.8,5-6.9,8-12.1,7c-2.1-0.4-4.2-1.2-6-2.3c-5-2.8-8.9-7.6-7.1-13.5c0.4-1.4,1.8-3,3.1-3.6c2.8-1.3,5.8-1,8.7,0.5
	c3.6,1.8,7.4,2.7,11.5,2.6c2.1-0.1,3.7-0.8,4.9-2.4c2.7-3.5,6-5.6,10.5-5.8c0.9-0.1,1.8-0.4,2.5-1c4.4-3.6,7-8.5,6.9-14
	c0-4.1,1.2-7.5,2.9-11c2.1-4.5,0.2-8.2-4.7-8.9c-1.3-0.2-2.7-0.1-4,0c-5.2,0.2-9.9,1.3-13.4,5.8c-2.3,2.9-5.1,5.5-8,8
	c-4,3.4-8.5,5.8-14.1,5.8c-3.4,0-7.1,0.4-9.5,3.5c-1.8,2.3-3.5,4.5-5.1,7c-1.1,1.7-1.9,3.6-2.4,5.5c-1,3.5-0.4,7.1-1.5,10.9
	c-1.2,3.9-1.1,8.8,1,13c2,4.2,4.1,8.3,5.9,12.5c2.2,5,9.4,6.8,13.7,4.1c1.5-0.9,3.2-1.5,4.9-1.8c3.9-0.9,7.7-0.8,10.9,2
	c1,0.8,1.9,1.8,3,2.3c1.3,0.6,2.9,1.3,4.1,1c2.8-0.7,5.4-2.1,6.8-4.9c0.9-1.8,1.9-3.6,2.9-5.4c4.8-9.1,7-18.9,6.4-29.2
	C384.7,248.2,383.9,245.9,382.2,243.9z"/>
<path d="M275.3,231.8c2.4,0,4.8-0.3,7,0.1c2.5,0.5,4.3-0.2,5.9-1.9c0.9-0.9,1.7-1.9,2.5-2.9c1.8-2.4,4.2-3.2,7.2-3
	c5.2,0.2,9.4,2.4,12.6,6.2c1.8,2.2,3.4,2.3,5.6,1.2c1.4-0.7,3-1.4,4.2-2.4c2.2-1.9,2.4-4.8,0.8-7.9c-2.2-4-1.8-5.7,1.6-8.8
	c3.2-2.9,7.2-3.7,11.1-4.7c4.3-1.1,8.8-1.7,13.1-2.6c2.2-0.5,3.6-2.3,3.9-4.3c0.4-2.2,0.6-4.6-0.1-6.6c-1-2.8-2.6-5.5-4.5-7.7
	c-3.7-4.1-5.4-8.4-3.9-14c0.8-2.9,0.9-6,0.8-9c-0.1-2.2-0.6-4.7-3.5-5.6c-1.4,1.6-3.2,3.1-4.2,4.9c-3.7,6.5-7.1,13.1-10.7,19.6
	c-3.7,6.7-8.2,12.5-16.7,12.8c-5.6,0.2-8.9,3.3-11,8.1c-1.3,3.1-2.3,6.3-3.6,9.4c-1.1,2.4-2,5.3-3.9,6.8c-2.3,1.9-5.6,2.8-8.5,3.8
	C277.5,224.4,274.9,227.8,275.3,231.8z"/>
<path d="M400.1,234.9c0-2.8,0.1-5.5,0-8.1c-0.3-6.9-0.7-13.9-0.9-20.8c-0.2-5-2.8-7.1-7.7-6c-0.5,0.1-0.9,0.3-1.4,0.4
	c-3,0.7-6,1.4-8.9,2.1c-2.5,0.6-4.9,0-7.1-1.2c-2.5-1.3-3-3.4-1.6-5.9c0.4-0.7,1.1-1.3,1.6-1.9c1.6-1.9,3.5-3.8,1.4-6.6
	c-0.4-0.5-0.1-1.6,0.1-2.4c0.2-1.1,0.6-2.1,0.9-3.2c0.8-3,1.9-5.8,5.4-6.7c1.3-0.3,2.6-0.7,3.8-1.1c2.2-0.6,3.9-1.8,5.1-3.8
	c1.2-1.9,1-4-0.4-5.9c-1.2-1.7-2.7-2.9-5-2.2c-3.3,0.9-5.7,2.8-7.6,5.6c-1.4,2.2-3,4.2-4.5,6.3c-1.5,2.1-3.3,2.5-5.7,1.8
	c-2.7-0.8-3.8-0.2-5,2.5c-1.6,3.7-1,7.5,0,11.2c1.5,5.7,0.9,11.2-1.6,16.4c-2.3,4.9-6.3,8.3-11.6,10c-1,0.3-2,0.9-2.9,1.6
	c-1.3,1-2.6,2.2-3.8,3.3c-0.4,0.4-0.8,0.8-1.2,1.3c4.7,2.9,4.7,2.9,1.5,7.2c1.4,0,2.6,0.2,3.7,0c4-0.8,7.5-2.8,10.5-5.5
	c2.8-2.4,5.2-5.3,7.8-7.9c2.2-2.2,4.1-4.7,7.6-5c3.9-0.3,7.8-0.8,11.7-0.8c4.9,0,8.1,5.9,5.8,10.3c-1.2,2.4-3.1,5.2-2.8,7.5
	c0.5,4.2-0.8,7.7-2.3,11.3c-0.5,1.3-1.3,3.3-0.7,4.2c3.3,4.8,3.5,10.2,2.8,15.4c-1,7.9-3.1,15.7-6.9,22.9c-2.3,4.4-4.7,8.4-9.8,10.1
	c-3.1,1.1-5.6,0.4-7.9-1.7c-0.6-0.6-1.3-1-1.7-1.3c-0.5,2.3-1,4.5-1.3,6.7c-0.1,0.6,0.4,1.5,0.9,1.8c1.8,1.2,4,1.9,5.6,3.3
	c4.7,4,14.3,0.9,15.3-5c0.1-0.5,0.5-1,0.7-1.5c1.6-3.5,2.9-7,2.9-10.9c0.1-5.4,2.5-8.5,7.6-9.8c2-0.5,5.2-4.2,5.3-6
	c0.3-5.5-0.9-10.5-3.9-15.2c-1.6-2.4-2.8-5.2-3.5-8c-0.7-2.8-0.2-5.7,2.1-7.8C394.7,233.9,397.2,233.8,400.1,234.9z"/>
<path d="M277.9,349.4c-0.6,2.2-1.3,4.2-1.8,6.2c-0.1,0.3,0.6,0.8,0.8,1.2c0.4,0.7,1,1.5,0.9,2.2c-0.2,1.7-0.7,3.3-1.1,4.9
	c-0.3,1.2-0.5,2.3,0.7,3.2c0.5,0.4,0.7,1.4,0.6,2.1c-0.2,1.4-0.6,2.9-1.1,4.3c-0.4,1.2-0.2,2,0.9,2.7c0.6,0.3,1.1,0.9,1.8,1.1
	c1.3,0.5,2.6,1.2,3.9,1.3c0.6,0,1.3-1.3,1.9-2c0.1-0.2,0.3-0.3,0.5-0.4c1.3-1.9,3-3.6,3.9-5.6c3.4-8,6.5-16.1,9.6-24.2
	c0.2-0.6,0.2-1.5-0.1-2c-2.4-4.1-2.9-8.4-0.3-12.4c1.8-2.9,4.6-5.3,7.2-7.6c1.6-1.3,3.7-1.6,5.9-0.8c1.4,0.5,3.3,0.2,4.8-0.2
	c1.4-0.4,2.6-1.3,3.9-2c4.6-2.4,6-5.5,5.6-11.4c-0.1-0.8-1.1-1.6-1.6-2.4c-0.7,0.5-1.6,0.9-2,1.5c-1,1.5-1.6,3.3-2.6,4.8
	c-1.1,1.8-3.6,3.1-5.2,2.5c-2-0.8-2.5-2.5-2.4-4.5c0.2-4.9,2-9.5,3.8-13.9c3.5-8.8,2.3-17.2-1.4-25.5c-1.1-2.5-0.9-4.3,1.1-6.4
	c0.4-0.4,0.7-1,0.7-1.5c0.1-1.9,0-3.9,0-5.9c-2,0.9-3.7,2-5.5,2.5c-3.4,0.8-6.9,1.2-10.3,1.8c-3,0.6-5.2,2-6.1,5.3
	c-0.3,1.2-1.6,2.7-2.6,2.9c-4,0.7-8.2,1.5-12-1.3c-1.2-0.9-2.6-1.5-3.9-2c-2.7-1-5,0.2-5.7,2.9c-1.5,5.6,0.8,14.3,7.7,17.4
	c1.5,0.7,3.1,1.4,4.7,1.3c5.5-0.2,8.5-4,11.2-8.2c2.1-3.2,4.1-6.6,6.6-9.5c2.8-3.2,6.9-2.6,8.9,1.1c0.8,1.5,1.1,3.3,1.2,5
	c0.4,7.8-0.8,15.4-2.9,22.9c-1.5,5.5-4.8,7.9-10.7,7.7c-0.8,0-1.6,0.2-2.3,0.3c1.1,1.1,2.2,1.6,3.1,2.3c3.5,2.9,3.4,6.7,2.2,10.6
	c-0.9,2.9-2.8,5.2-5.6,6.1c-2.4,0.8-3.8,2-4.3,4.3c-0.3,1.7-0.7,3.5-0.6,5.2c0.2,3.2-0.6,6.1-2.1,8.9
	C285.9,350,281.9,351.3,277.9,349.4z"/>
<path d="M80,346.2c-1.3,0.6-2.6,0.9-3.3,1.7c-2,2.1-2.4,4.7-1.6,7.4c1.8,6.5,6,9.8,12.8,10c4,0.1,5.8,2,6.2,6c0.4,3.2,1.5,3.7,4.2,2
	c4.6-2.9,8.9-0.7,9.6,4.6c0.2,1.4,0.2,2.9,0.8,4.1c0.5,1.2,1.5,2.9,2.5,3c0.9,0.2,2.5-1.1,3.3-2.1c0.8-1.1,1-2.6,1.6-3.9
	c2.5-5,2.9-6.1,8.3-4.4c0.1,0,0.1,0,0.2,0.1c3.3,1.8,6.6,3.5,7.2,7.9c0.4,3.3,1.2,6.6,1.5,10c0.4,5.2,5.2,10.5,11.6,8.7
	c3.1-0.9,6.2-3.4,6.3-6c0.3-4.6-0.8-7.7-4.4-9.7c-6.8-3.7-7.7-10.2-2.6-15.9c3.6-4.1,8.5-6.1,13.7-7.3c4.3-1,8-3.1,10.3-6.8
	c3.3-5.4,6.3-11.1,9.2-16.7c0.5-0.9-0.1-2.4-0.4-3.6c-0.1-0.5-0.9-0.9-1.4-1c-0.2-0.1-0.7,0.7-1,1.1c-1.8,2.6-3.3,5.6-5.5,7.9
	c-2.8,2.9-6.1,5.3-9.2,8c-6.2,5.2-13.5,8.2-21.1,10.6c-1.7,0.5-3.5,1.1-5.3,1.1c-4.3,0-8.6-0.4-13-0.4c-5.2,0-10.1-1.1-15.1-2.3
	c-7.9-1.9-14.9-5.1-20.2-11.7C83.9,347.5,81.7,347.1,80,346.2z"/>
<path d="M118.7,179.4c1.5-0.4,3.6,0,4.1-2.1c1.3-5.4,2.3-10.7-1.4-15.7c-3.5-4.8-5.3-10-3.4-16c0.6-1.9,1.7-3.4,3.7-3.9
	c1.9-0.5,2.9,0.8,3.7,2.1c1.2,1.8,2.1,3.8,3.2,5.7c0.8,1.3,1.6,2.6,2.5,3.9c0.7,1,1.9,1,2.5,0.1c0.9-1.4,1.9-3,2-4.5
	c0.3-7.4-1.7-14.3-6.6-19.9c-2.7-3.1-6.4-4.9-10.6-3.5c-4.5,1.4-7.6,4.4-7.8,9.4c-0.2,3.6,0,7.3-0.2,11c-0.1,2-0.1,4-0.6,5.8
	c-1.1,3.6-3.7,4.1-6.4,1.4c-0.9-0.9-1.9-1.9-2.8-2.9c-1.4-1.4-4.3-2.2-5.8-1.4c-1.9,0.9-2.1,2.7-2.1,4.5c0.1,3.7-1.7,6.3-4.5,8.4
	c-2.2,1.7-4.5,3.4-6.6,5.2c-3.3,2.9-3.6,6-1.3,9.7c1.4,2.3,2.8,4.6,3.6,7.1c1.8,5.8,1.6,9.1-4.3,11.5c-0.5,0.2-1,0.6-1.4,1
	c-2.6,2.4-2.8,4.5-0.1,6.9c2,1.8,4.5,3.2,6.3,4.5c2-1.3,3.5-2.2,4.8-3.3c0.9-0.7,2-1.6,2.2-2.6c0.5-1.7,0.7-3.6,0.5-5.4
	c-0.4-5.7-1-11.3-1.4-17c-0.3-4.2,0.4-8.3,2.3-12.1c2.3-4.5,5.2-5.2,9.1-2.1c1.8,1.4,3.4,1.3,5.3,0.4c2-0.9,4.1-1.7,6.3-2.5
	c0.7-0.2,1.6-0.3,2.2,0c2.8,1.3,4.4,3.6,4.3,6.6C119.9,173,119.2,176.1,118.7,179.4z"/>
<path d="M402.5,292.2c-0.2,0-0.3,0-0.5,0.1c0.7,3,1.1,6.1,2,9c1,3,2.8,3.8,5.7,2.7c0.9-0.3,1.6-1.1,2.3-1.7c2.8-2.6,5.4-5.4,8.3-7.7
	c3.2-2.5,7.6-2,10.5,0.8c1.9,1.8,4.5,1.9,6.8,0.7c2.1-1.2,4.4-2.3,6.7-2.7c3.6-0.7,7.3-0.8,10.9,0.9c2.1,1,3.6,0.3,4.4-1.5
	c0.6-1.4,1.2-2.9,1.4-4.4c0.5-5,0.9-10,1.1-15c0.1-2.7,1.2-4.7,3.4-6.1c2.9-1.8,3.5-2.9,2.8-6.2c-0.2-1-1-2.5-1.8-2.7
	c-1.3-0.4-3-0.9-4.1,0.9c-0.6,0.9-1.8,1.5-2.3,2.4c-1.3,2.1-2.8,4.2-3.6,6.5c-1,2.8-1.1,6-2,8.8c-0.6,1.8-1.7,4-3.1,4.7
	c-4.2,2.2-8.9,2.8-13.6,1.2c-1.2-0.4-2.5-0.5-3.7-0.7c-4.6-0.9-8.7,0.6-12.9,2.2c-3.7,1.4-8.4,0.2-10.7-3c-1-1.4-1.8-3.1-2.2-4.8
	c-0.3-1.4,0.3-2.9,0.1-4.3c-0.5-2.8,0-5.4,1.1-8c1.8-4.3,0.9-6.8-3.4-8.5c-2.8-1.1-4-3.2-4.4-5.9c-0.4-3.2-0.9-6.4-1-9.6
	c-0.1-2.3-1.9-3-3.3-3.6c-0.9-0.4-2.6,0.4-3.5,1.1c-0.9,0.7-1.4,2.1-1.6,3.2c-0.7,4,0.9,7.6,3.2,10.6c3.8,4.9,4.5,10.5,4.1,16.3
	c-0.1,1.8,0.3,3,1,4.5c1.1,2.3,3,4.1,2.6,7.1C402.8,283.5,402.8,287.9,402.5,292.2z"/>
<path d="M246.8,259.1c1.5-1.9,2.9-3.2,3.9-4.8c2-3.1,2-6.5,0.1-9.6c-1.9-2.9-2.2-5.6-0.3-8.4c2.6-3.9,3.3-7.7,1-12.1
	c-1.2-2.4-3.1-4-5.8-3.6c-1.9,0.3-3.8,0.8-5.6,1.6c-4.7,2-8.4,1.3-11.5-2.7c-1-1.3-1.6-3.1-2.4-4.6c-0.6-1.2-0.9-2.8-2.7-2.9
	c-1.9,0-3.1,1.1-4,2.7c-1.3,2.4-1.4,4.9-1.1,7.6c0.4,3.4,0.1,6.8-2.8,9c-2.2,1.7-2.9,3.8-3.1,6.3c-0.6,7.2,1.4,13.9,3.7,20.6
	c0.7,2.2,1.3,4.5,2.4,6.5c1.5,2.7,1.1,4.2-1.9,5.1c-3.9,1.1-3.9,1.1-4.1,5.1c0,0.6,0,1.1-0.1,1.7c-0.2,2.6-2.4,4.5-5,4.2
	c-0.7-0.1-1.3-0.1-2-0.2c-0.1,0.4-0.2,0.6-0.2,0.8c0.2,5.8,0.3,11.6,0.6,17.4c0.1,1.1,1.1,2.1,1.7,3.1c0.8-1,2-1.8,2.4-3
	c0.8-2.6,1.1-5.4,1.7-8c0.6-2.4,1.3-4.7,2.3-6.9c0.8-1.6,2.1-3.1,4.2-2.9c2,0.2,2.7,1.8,3.3,3.4c0.6,1.4,1.1,2.9,1.8,4.3
	c0.5,0.9,1.2,1.7,1.9,2.5c0.7-0.9,1.4-1.9,2-2.8c0.2-0.4,0.2-1,0.2-1.4c0-3.4,0.3-6.8-0.1-10.1c-0.6-5.3-1.3-10.8-2.8-15.9
	c-2.1-7.1-4.1-14.2-4.7-21.5c-0.1-1.3,0-2.7,0.4-4c1.2-4.4,4.3-5,7.9-2.3c1.9,1.4,4.4,2.4,6.8,2.8c5.2,0.8,8.1,2.5,8.7,8.4
	c0.4,4.1,1.3,8.1,2.1,12.2C246,257.2,246.3,257.9,246.8,259.1z"/>
<path d="M317.4,268.1c-1.4,0.9-2,1.8-1,3.4c2,3.4,3.3,6.9,3.8,11c0.7,6.4-0.1,12.2-2.6,18.1c-1.6,3.7-3,7.6-2.8,11.8
	c0,0.8,0.6,2,1.1,2.2c0.6,0.2,1.6-0.5,2.3-1c0.4-0.2,0.5-0.8,0.7-1.3c0.9-1.6,1.8-3.2,2.8-4.7c1-1.4,2.5-2.4,4.2-1.8
	c1.7,0.6,3,2,3,4c0,5.2-0.7,10.1-6.4,12.4c-0.4,0.2-0.7,0.5-1.1,0.7c-3,1.6-5.9,3.8-9.4,2.4c-2.4-0.9-4.1-0.2-5.7,1.3
	c-1.3,1.2-2.5,2.7-3.9,3.9c-3.5,3.2-3.4,7.1-2.3,11.1c1.2,4.1,4.1,4.9,7.1,1.9c0.3-0.3,0.6-0.8,0.9-1.1c3-2.9,5.7-6.2,10.8-4.9
	c6.2,1.5,10.8-0.7,13.5-6.5c2.9-6.4,4.8-13.2,4.9-20.3c0.1-5.2-1.6-9.3-5.7-12.7c-2.4-2.1-5.3-4.3-6-7.9c-0.8-3.7-1.5-7.4-2.4-11.1
	C322.1,274.9,320.8,271.1,317.4,268.1z"/>
<path d="M118.2,171.7c0-6-2.9-7.8-7.7-5.5c-3.6,1.8-7.1,2.8-10.7-0.1c-1.8-1.4-3.5-0.9-4.5,1.3c-1.1,2.4-1.9,5.1-2.3,7.8
	c-0.9,6.2-0.3,12.4,0.8,18.6c1.1,6.1,0.9,9.8-3.7,12.2c-3,1.6-3.3,4.1-3.4,6.6c-0.3,4.4,1,8.6,3.7,12c3.7,4.5,7.9,8.5,11.9,12.8
	c0.7,0.7,1.4,1.4,1.8,2.3c1.1,2.5,2.1,5,3.2,7.5c0.5,1.2,1,2.7,2.8,1.9c2.2-1,2.9-2.4,2-4.1c-0.8-1.5-2-2.7-2.8-4.2
	c-3.3-6-7.1-11.8-9.8-18.1c-3.2-7.4-2.3-15.3-0.3-22.9c0.7-2.7,1.7-5.6,3.2-7.9c3.1-4.9,7.6-8.4,12.8-11c0.5-0.3,1.3-0.7,1.4-1.1
	C117.2,176.9,117.7,174,118.2,171.7z"/>
<path d="M154.6,247.8c0.5-0.7,0.9-1.2,1.3-1.8c1.9-2.2,4.1-2.3,6.6-0.8c1.6,1,3.6,1.7,5.5,2c0.9,0.2,2.4-0.2,3-0.9
	c2.2-2.6,4.9-3.5,8.2-3.4c0.9,0,2.3-0.4,2.8-1.1c2.5-3.4,3.6-7.2,3.3-11.5c-0.7-7.9-3.4-15.3-6.4-22.6c-1.5-3.9-2.9-7.9-1.5-12.1
	c0.9-2.7,2-5.4,3.2-8c2.8-6.2,1.3-12.1-4.1-15.3c-1.6-1-3.1-0.9-4.6,0.4c-2.8,2.4-4.1,5.6-4.7,9c-0.6,3.4-0.5,6.9-1.3,10.2
	c-0.6,2.4,0.5,3.7,1.7,5.3c1.6,2,3.3,4.1,4.3,6.5c2.2,5.4,4.2,11,6,16.6c2,6.1,1.3,11.7-3,16.8c-3,3.5-5.4,3.9-9.7,2
	c-0.6-0.3-1.2-0.6-1.6-1c-2.4-2.2-4.9-1.6-7.5-0.6c-0.7,0.3-1.4,0.4-2.2,0.5c-3.6,0.5-5.9-1.4-7.9-4.2c-0.7-1-1.8-2.3-2.8-2.4
	c-2.5-0.1-3.6-1.4-4.5-3.4c-0.2-0.6-1.1-0.8-1.7-1.2c-0.3,0.8-1.1,1.7-0.9,2.3c0.4,1.4,1,2.8,1.9,3.9
	C142.6,238.9,148.6,243.2,154.6,247.8z"/>
<path d="M176.2,330.6c-0.7,0.9-1.3,1.8,0.8,2.5c0.5,0.2,0.9,0.8,1.3,1.3c1.9,2.5,1.3,4.8-0.3,7.1c-0.9,1.3-1.1,2.3,0.5,3.5
	c1.9,1.5,2.7,3.8,2.4,6.2c-0.8,5.1-2,10.1-1.2,15.2c0.7,4,1.3,7,6.8,3.8c0.1,0,0.1-0.1,0.2-0.1c3.2-1.1,6.4-2.7,9.6-0.5
	c1.6,1.1,2.9,2.6,4.3,3.9c2.4,2.3,5.3,1.8,6.6-1.3c0.4-0.8,0.6-1.7,0.7-2.6c0.7-3.5,3-5.4,6.6-5.4c4.4,0,8.4-1,10.6-5.4
	c0.6-1.3,1.3-2.6,1.9-4c1.8-3.6,1.1-7.2-0.7-10.5c-0.8-1.4-2.4-2.3-3.6-3.5c-1.4,2.9-2.5,5.4-3.8,7.8c-2,3.7-5,6.9-8.9,8
	c-5,1.4-10.3,1.9-15.5,2.2c-4.2,0.3-7.2-2.8-7.2-7.1c0-2.8,0.4-5.6,0.6-8.4c0.2-2.9,0.1-5.7-2.7-7.5
	C182.4,334.2,179.3,332.5,176.2,330.6z"/>
<path d="M265.4,337.2c-3.2,0.9-4.8-1-6.7-2.7c-0.9-0.9-2.9-1.8-3.8-1.4c-1.9,0.9-3.7,2.4-4.9,4.1c-1.8,2.6-3,5.5-4.4,8.3
	c-0.2,0.5-0.4,1.3-0.2,1.7c1.8,3.9,0,7.6-4.8,8.4c-3.6,0.6-5.2,2.7-4.6,6.3c0.4,2.4,1.2,4.9,2.4,7.1c1.6,3.1,3.1,3.5,6.5,2.8
	c2.7-0.6,5.3-1.3,7.9-2c1.3-0.3,1.7-1.1,1.8-2.5c0.1-3.9,0.3-7.7,0.6-11.6c0.2-2.3,1.4-2.8,3.2-1.5c0.6,0.4,1.1,0.8,1.9,1.4
	c0.5-2.2,1-4.1,1.5-6.1c0.8,0.3,1.3,0.5,1.8,0.7c1,0.4,1.7,0.1,1.8-1C265.4,345.3,265.4,341.5,265.4,337.2z"/>
<path d="M180.2,301.6c-0.5,5.5-0.9,11.1-1.5,16.6c-0.1,1.1,0.1,1.6,1.3,1.8c3.5,0.5,6.9,1.1,10.3,1.6c2.2,0.3,3.5,1.7,4.7,3.2
	c2.4,3.2,3.3,6.9,3.8,10.8c0.2,1.7,0.7,3.5,2.7,3.8c2.1,0.4,3.6-0.8,4.1-2.6c0.9-3.2,1.6-6.5,1.9-9.8c0.7-6.5-3-9.8-8.9-11.2
	c-2.9-0.7-4.1-1.8-4.6-4.8c-0.2-1-0.2-2.1-0.1-3.1c0.5-5,1.3-10,1.7-15c0.2-2.6-0.6-5-2.6-7.6C191.6,293.3,188.9,300,180.2,301.6z"
	/>
<path d="M320.7,252.4c0.8-0.9,3.5,0.5,3.6-2.3c0.2-5.9,3.1-10.6,6.5-14.9c1.6-2,3.8-3.7,5.8-5.3c1.1-0.8,2.5-1.1,3.7-1.8
	c3.6-2.3,3.6-2.9-0.1-4.9c-1.6-0.9-1.7-1.8-0.2-3c1.3-1.1,2.8-2.1,4.1-3.3c1.5-1.4,1.9-3.4,0.3-4.6c-2-1.4-4.4-3.1-6.6-3.2
	c-4.6-0.1-9.2,0.8-13.1,3.7c-3.7,2.7-4.1,4.2-1.8,8c1.4,2.2,1.4,4.4,0.4,6.8c-1.3,3-3.8,4.2-6.5,5.2c-2.3,0.9-2.5,1.4-1.3,3.5
	c0.8,1.4,2,2.7,2.4,4.1C319,244.3,319.8,248.3,320.7,252.4z"/>
<path d="M168.6,359.5c-3.8,1.6-7.4,3.1-11,4.7c-3.2,1.4-6.6,2.7-9.6,4.5c-2.5,1.6-4.6,4-5.1,7.2c-0.6,3.9,1.2,6.8,4.6,8.5
	c4.2,2.2,5.7,5.8,5.7,10.2c0,1.3,0.6,1.8,1.6,2.3c1,0.6,1.9,1.5,2.6,2.4c0.8,1.1,1.4,2.4,2.2,3.6c1.2-0.9,2.3-1.8,3.5-2.7
	c0.1-0.1,0.2-0.2,0.3-0.3c3-4.7,2.9-12.2-2.7-15.5c-1.4-0.8-2.5-2.2-3.5-3.6c-2-2.7-2.1-5.6-0.5-8.5c1.9-3.6,6.9-3.8,9.3-0.3
	c0.7,1,1.2,2,1.9,3c1.2,1.9,3.1,1.9,4.2-0.2c0.4-0.9,0.7-1.9,0.8-2.8C173.1,367.1,171.9,362.6,168.6,359.5z"/>
<path d="M271.4,387.6c0.2,0.1,0.7,0.7,1.3,0.8c2.2,0.2,4.6,0.8,6.6,0.4c3-0.7,4.8,0.7,6.2,2.7c0.9,1.3,1.2,3,1.9,4.5
	c0.3,0.7,0.8,1.7,1.5,1.9c5,1.9,10,3.7,15,5.5c2.3,0.8,4.7,1.4,7.1,2c0.6,0.1,1.9-0.1,2-0.5c1.3-3.7,2.6-7.5,3.7-11.3
	c0.1-0.3-0.6-1.2-1.1-1.4c-3.6-1.1-7.3-2.1-10.9-3.1c-2.3-0.6-5-0.6-6.8-1.9c-5.2-3.8-11.4-5.2-17.2-7.5c-1.5-0.6-3-1.4-4.6-2.2
	C274.4,380.8,273,384.1,271.4,387.6z"/>
<path d="M129.3,164.2c-0.2,0.1-0.4,0.3-0.6,0.4c0.2,0.5,0.3,1,0.6,1.3c1.6,2,3.6,3.2,6.3,3.3c5.5,0.2,7.6,2.9,6.4,8.3
	c-0.4,1.5,0.2,2,1.3,2.5c2.7,1.3,5.5,2.6,8.1,3.9c2,1,2.4,0.8,2.4-1.5c0-0.3,0.1-0.7,0.3-1c1.1-2.9,2.6-5.7,3.2-8.7
	c0.4-2.1,0.1-4.6-0.6-6.7c-0.3-0.9-2.6-1.3-4-1.5c-4-0.6-4.9-2.3-4.5-6.8c0-0.4,0.2-0.8,0.3-1.2c0.3-3.5,0.6-7,0.7-10.4
	c0.1-1.3-0.7-2.1-2.2-2.3c-2.5-0.3-4.8,1.6-5.3,4.8c-0.5,3-0.5,6.2-1.3,9.1c-0.7,2.5-2,4.9-3.4,7.1c-1.2,1.9-3.4,2.1-5.4,0.9
	C130.9,165.3,130.1,164.7,129.3,164.2z"/>
<path d="M338.7,302.6c4.7-3.1,5.2-3.4,11.8-3c3,0.2,4.7-1.2,6.1-3.5c0.4-0.7,0.8-1.3,1.2-1.9c1.4-2,1.1-4.2-0.8-5.8
	c-0.5-0.4-0.7-1-1.2-1.4c-0.5-0.5-1.2-1.3-1.7-1.2c-2.2,0.5-4.6,0.8-6.5,1.9c-6.3,3.4-14,1.9-17.3-4.4c-2.4-4.6-4.7-9.3-6.4-14.2
	c-1.4-4.1-1.8-8.6-0.4-13c0.2-0.5-0.1-1.1-0.1-1.7c-0.6,0.1-1.5-0.1-1.9,0.3c-2.5,1.8-3.5,9.3-1.9,11.9c1.5,2.5,3.2,5,4.1,7.8
	c1.6,4.7,2.4,9.7,3.8,14.5c0.5,1.7,1.5,3.4,2.7,4.8C332.9,296.7,335.8,299.6,338.7,302.6z"/>
<path d="M111.5,295.2c-0.2,1.9,1.2,3.5,3.4,4.2c1.2,0.4,2,0.1,2.7-0.9c3.1-4.5,2.8-9.2,0.8-13.8c-1.8-4.1-5.3-6.6-9.1-8.7
	c-1.9-1-3.9-2.1-5.3-3.6c-2.1-2.3-1.4-10,0.7-12.4c2-2.3,1.6-5.7-1-7.3c-1.3-0.8-2.7-1.2-4.1,0c-1.3,1.1-2.1,2.1-1.3,3.9
	c1.2,2.9,0.9,5.6-0.8,8.4c-1.7,2.8-2.2,6.1-1.3,9.5c1.2,4.9,4.8,7.8,8.9,10.1C109.1,287,111.1,290.6,111.5,295.2z"/>
<path d="M314.5,339.5c-2.6,0.6-3.9,2.5-5.5,4.2c-1.6,1.7-3.1,3.9-5.9,3.4c-1.4-0.2-1.9,0.2-2.4,1.3c-1.6,3.5-3.3,7-4.8,10.5
	c-1.5,3.5-2.7,7-4,10.6c-0.4,1.2-0.7,2.5,0.9,3.3c2.6,1.3,5.2,2.7,7.9,4c0.4,0.2,1.4-0.2,1.5-0.6c1.2-3.1,2.2-6.2,3.3-9.3
	c1.8-4.7,3.8-9.3,5.6-14C312.8,348.7,315.3,344.6,314.5,339.5z"/>
<path d="M303.7,384.9c0-0.3,0.1-0.6,0.1-0.9c0.6-0.1,1.1-0.4,1.7-0.4c2.1,0.1,4.2,0.3,6.3,0.4c2.6,0.1,5.3,0.1,7.9,0.4
	c1,0.1,2.1,0.8,2.7,1.6c0.8,0.9,1.2,2.2,1.7,3.4c0.9,2.1,1.8,4.3,2.7,6.4c0.8-2.4-0.8-5.4,2.5-6.9c2.7-1.2,5.2-0.5,7.7,1.1
	c-0.5-5.4-1.6-10-7.3-11.6c-1.5-0.4-3.2-0.5-4.8-0.6c-5.2-0.3-9.9-1.4-12.7-6.5c-0.1-0.1-0.3-0.2-0.5-0.3c-0.2,0.2-0.3,0.3-0.4,0.5
	c-1,2.9-2.7,4.9-6.1,4.7c-0.4,0-1.2,1-1.3,1.6c-0.5,2.3-0.8,4.7-1.1,7.1c-0.1,0.6,0.4,1.7,0.8,1.8c4.7,1.4,9.5,2.7,14.2,3.9
	c0.4,0.1,1.3-0.3,1.5-0.7c0.7-1.8-0.5-3.7-2.4-3.8c-3.7-0.2-7.4-0.4-11.1-0.6C305.1,385.4,304.4,385.1,303.7,384.9z"/>
<path d="M361.8,256.4c-4-0.8-7.6-1.5-11.1-2.4c-2-0.5-3.9-1.6-5.9-2.1c-2.7-0.7-4.8-0.1-5.7,1.5c-0.9,1.5-0.6,6.4,0.5,7.9
	c2.2,2.8,4.7,5.3,8,6.6c2.7,1.1,5.5,1.4,8.1-0.2C360.2,265,361.6,260.8,361.8,256.4z"/>
<path d="M257.7,356c-0.3,0.2-0.7,0.3-1,0.5c-0.1,4-0.3,7.9-0.2,11.9c0,0.4,0.8,1,1.4,1.2c1.5,0.5,3.2,0.6,4.6,1.2
	c5.1,2.1,8.2,5.1,7.7,11.1c-0.1,1.1,0.1,2.1,0.2,3.2c0.2,0,0.4,0,0.5,0c0.4-1.1,0.8-2.2,1.2-3.3c1.3-3.8,2.6-7.7,3.9-11.5
	c0.5-1.4-0.1-2.4-1.3-3.2c-3.8-2.4-7.5-4.9-11.2-7.4C261.5,358.5,259.6,357.3,257.7,356z"/>
<path d="M274.5,355.7c0.6-2.6,1.2-4.9,1.7-7.2c0.1-0.5-0.1-1.1-0.3-1.5c-0.6-1.5-1.3-3.1-1.9-4.6c-0.7-1.5-1.1-3.2-2.1-4.5
	c-0.7-0.9-2.1-1.3-3.2-1.9c-0.4,1.1-1.1,2.2-1.2,3.3c-0.3,3.6-0.5,7.2-0.6,10.8c0,0.6,0.3,1.4,0.8,1.7
	C269.9,353.2,272.3,354.5,274.5,355.7z"/>
<path d="M318.3,339.2c-4.5,11.7-9,23.3-13.5,34.9c0.2,0.2,0.3,0.4,0.5,0.6c0.8-0.3,2.1-0.4,2.4-1c1.4-2.4,3.4-4.7,3.2-7.7
	c-0.3-4.6,0.6-8.7,5-11.2c0.4-0.2,0.7-0.9,0.8-1.4c1.2-3.7,2.3-7.5,3.4-11.2C321.2,339.7,320.9,339.3,318.3,339.2z"/>
<path d="M286.3,378.8c4.7,2.4,9,4.6,13.5,7c1.6-1.6,1.4-3.7,1.4-5.7c0-0.5-0.6-1.1-1.1-1.4c-2.4-1.3-4.9-2.4-7.2-3.8
	c-1.7-0.9-3-1.3-4.1,0.8C288.2,376.9,287.3,377.7,286.3,378.8z"/>
<path d="M274.4,365.2c0.5-2.1,1-3.6,1.1-5.2c0-0.7-0.6-1.8-1.3-2.2c-2.6-1.6-5.4-3-8.1-4.4c-0.9-0.5-1.9-0.8-2.8-1.2
	c-0.3,1.1-0.8,2.2-0.9,3.4c-0.1,0.6,0.4,1.3,0.9,1.7c1,0.9,2.2,1.7,3.3,2.6C269.2,361.5,271.6,363.2,274.4,365.2z"/>
<path d="M315.3,409.7c2.3-0.4,4.1-0.9,5.9-1c1.7-0.1,2.5-0.4,1.7-2.4c-1.1-2.8-1.9-5.7-2.9-8.5c-0.2-0.6-0.6-1.2-1.2-2.3
	c-1.6,3.9-2.9,7.1-4.3,10.4C313.4,408.6,313.4,408.6,315.3,409.7z"/>
<path d="M321.8,388.4c-0.3,2.4-1.1,4.2-0.7,5.8c1.2,4.3,2.8,8.5,4.4,12.7c0.5,1.3,1.7,1.3,2.3,0.1c0.5-1,0.9-2.1,1.2-3.1
	c0.1-0.5-0.1-1.5-0.3-1.5c-2.7-0.5-2.4-3-3.2-4.7C324.3,394.7,323.2,391.7,321.8,388.4z"/>
<path d="M51.8,245.8c-1.1-1.9,0.4-5,2.3-5.4c3.2-0.7,4-2.3,2.1-5c-1.6-2.3-3.4-4.5-5.4-6.4c-5.7-5.3-10.4-11.5-14.3-18.1
	c-2.4-4-3.6-8.5-2.3-13.4c0.8-2.7,2.5-4.3,5.3-4.6c3.6-0.4,3.3-0.5,4.6-3.9c1.3-3.4-0.1-6.1-1.2-8.9c-2-4.6-2.3-9.3-2-14
	c0.2-3.5,2.1-6.4,5.3-8.1c3.5-1.8,9,1.8,10,5.4c0.4,1.4,0.6,2.9,0.7,4.3c0.1,1,0.1,2.1,0.2,3.2c0.2,1.5,0.3,3.5,2.1,3.4
	c1.6-0.1,3.4-1,4-3c0.7-2.4,1.3-4.9,2.2-7.3c0.9-2.5,2.7-2.8,4.6-0.9c2.6,2.5,3.4,6.4,2,9.7c-1.5,3.4-1.3,3.7,1.4,6
	c1.3,1.1,2.5,2.5,3.4,4c1.3,2,0.7,3.8-1.5,4.9c-3,1.5-6.1,1.3-9.2,0.5c-1-0.2-1.9-0.7-3.5-1.3c0.1,2.1,0.1,3.8,0.4,5.5
	c0.5,3.3,1.3,6.6,1.6,9.9c0.4,4.1-1.2,5.2-5.1,3.9c-2.6-0.9-3.7-0.3-4.1,2.4c-0.6,3.6,0.1,6.9,1.4,10.2c2.3,5.5,6.7,9.5,9.9,14.3
	c1.3,2,2.4,4.3,3.2,6.6c1.3,3.9,0.5,5.4-3.5,6.3c-2.9,0.7-5.2,2.1-7.1,4.2c-0.8,0.9-1.2,2-2,3c-0.3,0.4-0.9,0.7-1.4,1
	c-0.1-0.6-0.5-1.4-0.3-1.8c1.8-3.7,4.7-6.5,8.6-7.6c5.1-1.5,5.2-2,3-6.5c-1.8-3.7-4.6-7-7.1-10.4c-3.5-4.6-6.6-9.3-6.9-15.3
	c-0.1-1.2-0.2-2.4,0-3.6c0.8-4.9,2.1-5.4,6.7-4.7c2.3,0.4,2.8,0.2,2.5-2.2c-0.4-3.3-1.1-6.6-1.6-10c-0.2-1.7-0.2-3.4-0.2-5.1
	c0-1.8,0.7-2.4,2.5-2c2.7,0.6,5.4,1.2,8.2,1.7c0.9,0.1,1.9-0.2,2.8-0.5c1.5-0.6,1.9-1.7,0.8-3c-1-1.2-1.9-2.5-3.2-3.4
	c-3.2-2.2-3.1-3.7-1.7-7.5c1-2.6,1.1-4.9-0.6-7.2c-0.4-0.5-1.1-0.8-1.7-1.2c-0.4,0.6-0.9,1.1-1,1.7c-0.5,1.7-0.8,3.4-1.4,5.1
	c-0.7,2.1-2.2,3.6-4.2,4.6c-2.8,1.4-4.6,0.8-5.5-2.2c-0.5-1.9-0.7-3.9-0.7-5.8c0-3.5-1.7-6.6-5.8-7.8c-1-0.3-2.7,0.4-3.5,1.2
	c-3.3,3.2-3.7,7.3-2.8,11.5c0.6,3.1,1.6,6.2,2.8,9.2c1.5,3.8,0.7,7.3-0.3,10.9c-0.2,0.6-0.9,1.1-1.5,1.4c-0.7,0.4-1.5,0.5-2.2,0.7
	c-5.1,1-6.4,2.8-5.7,8.1c0.5,3.9,2.1,7.2,4.3,10.4c4.2,6.1,8.8,11.8,14.3,16.8c1.7,1.6,3.1,3.8,4,6c1.4,3.4,0,5.5-3.6,6.5
	c-0.7,0.2-1.3,0.9-1.9,1.5C52.6,244.4,52.3,245,51.8,245.8z"/>
<path d="M429.6,194.7c-0.8,7.9-1.6,15.1-2.2,22.4c-0.4,5.5,1.1,10.2,5.5,14.1c2.1,1.8,3.2,4.9,4.6,7.4c2.2,4,1.7,8.4,1,12.7
	c-0.4,2.1-1.7,3.3-4,3.7c-3.7,0.6-4.2,3.9-5.2,6.7c-0.7,2-1.4,4.1-2.5,5.9c-1.3,2.3-3.7,2.4-5.2,0.2c-1-1.5-1.9-3.7-1.7-5.4
	c0.4-3.1,1.8-6.1,2.6-9.2c0.7-2.5,1.5-5.1,1.8-7.7c0.2-2.2-0.9-2.9-3.1-3c-1.5-0.1-3.2,0-4.6-0.4c-0.9-0.3-2.2-1.4-2.3-2.2
	c-0.5-3.9-0.7-7.9-0.8-11.9c-0.3-7.4-0.4-14.8-0.7-22.2c-0.3-6.6-1-13.2-1.4-19.9c-0.1-1.9,0.3-4,1.1-5.8c0.7-1.6,2.6-1.8,3.6-0.3
	c1.4,1.9,2.4,4.2,3.4,6.3c0.5,1.1,0.5,2.5,0.9,3.7c0.1,0.4,0.6,0.6,0.9,1c0.3-0.4,0.8-0.8,0.9-1.2c0.3-1.5,0.1-3.1,0.6-4.5
	c0.7-2.2,2.5-2.6,4-0.9c1.1,1.3,2,3,2.4,4.6C429.7,190.8,429.5,193,429.6,194.7z M428.2,192.3c-0.5-1.7-1.1-3.8-1.9-5.9
	c-0.2-0.4-1-0.6-1.5-0.8c-0.2,0.5-0.6,0.9-0.6,1.5c-0.2,1.3-0.1,2.7-0.4,4c-0.1,0.6-0.9,1.3-1.5,1.4c-1.7,0.3-3.4-1.3-3.7-3
	c-0.6-2.4-1.1-4.9-2-7.2c-0.2-0.7-1.4-1-2.1-1.5c-0.5,0.8-1.3,1.6-1.3,2.3c0.1,5,0.2,10,0.5,15c0.3,4.2,1,8.4,1.2,12.5
	c0.3,5.9,0.3,11.8,0.4,17.6c0.1,3.1,0.2,6.3,0.4,9.4c0.2,2.4,0.9,3,3.3,3c1.1,0,2.1,0,3.2,0c2.3-0.1,3.3,1.3,3.8,3.2
	c0.3,1.1,0.5,2.4,0.2,3.5c-0.8,2.8-1.9,5.6-2.7,8.4c-0.7,2.3-1.4,4.5-1.7,6.9c-0.1,1.2,0.5,2.6,1.1,3.7c0.9,1.4,2.1,1.3,2.9-0.2
	c0.6-1.2,0.8-2.7,1.3-4c1-2.4,2.1-4.9,3.4-7.1c0.5-0.8,1.9-1.5,3-1.6c1.8-0.2,2.9-1,3.1-2.6c0.3-2.3,0.6-4.7,0.3-6.9
	c-0.8-5.4-3.4-9.9-7.3-13.7c-1.8-1.7-3-3.8-3.4-6.4c-1.2-6.3,0.1-12.6,0.5-18.8C427.2,200.9,427.7,196.9,428.2,192.3z"/>
<path d="M243.7,195.5c0.1,2.3-0.6,3.5-2.1,4.1c-2,0.7-4,0.4-5.7-1c-2.2-1.7-2.4-4.5-0.9-8.2c0.5-1.2,1.4-2.5,1.4-3.7
	c0.1-1.5-0.2-3.2-1-4.5c-1-1.7-2.8-2-4.6-0.7c-0.6,0.4-1.3,0.8-2,1.2c-3.4,2.2-7.5,1.7-10.3-1.4c-2.2-2.4-4.2-5.1-6.6-7.3
	c-2.4-2.3-4.7-1.9-6.4,1c-3.8,6.7-5.4,13.7-2.1,21.3c2.2,5.1,4,10.5,5.7,15.8c1.3,4-1.4,10.5-5.3,12.2c-3.7,1.6-4.8,4.6-5.2,8.2
	c-0.4,4.3,1,8.3,2.2,12.3c1,3.3,1.8,6.6,2.1,10c0.2,1.6-0.9,3.4-1.5,5.1c-0.1,0.2-0.7,0.2-1.1,0.4c-0.1-0.3-0.3-0.7-0.2-0.9
	c2.5-4.9,0.2-9.5-1.2-14c-1.5-4.8-2.8-9.6-1.9-14.7c0.6-3.1,1.6-5.7,4.9-7.3c4.9-2.4,6.7-7,5-12.2c-1.7-5.3-3.7-10.6-5.7-15.8
	c-2.8-7.3-1.1-14.1,2.6-20.6c2.8-4.8,6.1-5.2,10.2-1.4c2,1.8,3.6,4.1,5.5,6.1c3.4,3.6,5.9,3.8,9.9,0.9c2.9-2.1,4.7-2.1,7-0.3
	c2.2,1.7,2.9,4.9,1.8,7.7c-0.8,2-1.6,4.1-2.1,6.1c-0.5,1.8,0.4,3.2,2.1,3.9c1.6,0.7,3,0.3,4.1-1.1
	C242.5,196.4,243,196.1,243.7,195.5z"/>
<path d="M192.6,218.1c0.3-0.4,0.6-0.9,1-1.3c2.6-2.9,2.6-6.3,1.6-9.7c-1.2-4-3.1-7.9-3.9-12c-1.9-8.8-2.3-17.7,1.4-26.2
	c1.7-3.8,4.7-5.6,8.8-5.7c3.5,0,5.3-1.5,6.2-4.9c1.8-7.2-3.2-15.9-10.6-18.5c-5-1.7-9.5,0.5-11.2,5.6c-0.8,2.4-1.5,4.8-2.2,7.3
	c-0.8,2.6-2.3,4.6-5.1,5c-3.3,0.4-6.3-0.4-8.2-3.5c-2.6-4.2-2.8-8.8-2.3-13.4c0.2-2.1,0.9-4.2,1.6-6.3c0.5-1.5,1.7-2.5,3.5-2.5
	c2.5-0.1,4.3-1,4.7-3.8c0.1-0.5,0.5-1,0.8-1.4c0.2-0.2,0.7-0.3,0.9-0.2c0.2,0.1,0.4,0.5,0.5,0.8c0.2,2.7-2,5.9-4.8,6
	c-3.2,0.2-4.5,1.9-5,4.6c-0.9,5-1.2,10.1,1,14.8c1.6,3.3,3.4,3.8,6.6,3.7c2.2-0.1,3.6-1.9,4.4-4.8c0.8-3,1.4-6.3,2.9-9
	c3-5.5,9.2-6.7,14.9-3.2c6.4,3.9,9.7,9.6,9.5,17.1c-0.1,2.8-0.7,5.7-3.6,7.1c-1.3,0.6-2.7,1.1-4.1,1.2c-3.2,0.1-5.6,1.2-7.3,4.1
	c-2.3,4-2.8,8.3-2.9,12.8c0,2.7-0.1,5.5,0.4,8.2c1,4.6,2.3,9.1,3.8,13.5c1,3,2,6,1.3,9c-0.4,1.9-1.7,3.6-2.7,5.3
	c-0.3,0.4-1.1,0.5-1.7,0.8C192.9,218.4,192.8,218.2,192.6,218.1z"/>
<path d="M252.4,176.4c0.6-0.3,1.1-0.7,1.7-1c4.2-2.2,6.1-5.8,5.9-10.6c-0.1-2.3,0.3-4.6,0.7-6.8c0.3-1.9,1.8-2.9,3.6-3
	c2.6-0.1,5.3-0.2,7.9,0.2c1.2,0.2,2.2,1.3,3.2,2.2c1.4,1.3,2.3,1.3,3.5-0.2c1.6-2,1.4-4.3,0.6-6.4c-1.8-4.6-0.6-8.7,1.7-12.6
	c2.8-4.8,6.7-6.2,12.4-5.1c5.5,1,9.5,4.4,12.9,8.4c2.9,3.4,5.6,7,6.6,11.6c1.5,6.3,0.8,11.8-4.3,16.2c-2.7,2.3-4.6,5.1-5.8,8.4
	c-0.1,0.4-0.7,0.6-1,1c-0.2-0.5-0.5-1-0.4-1.4c0.7-3.4,2.6-6.5,5.4-8.4c5.7-3.8,6.1-13.2,3.4-18.7c-3-6-7.1-11.1-13-14.6
	c-5.9-3.5-12-2-15,3.9c-1.6,3-2.5,6.3-1.2,9.9c1,2.9,1.8,5.9-0.7,8.8c-1.8,2.1-4,2.5-5.9,0.5c-2.2-2.3-4.9-2.9-7.9-2.7
	c-2.9,0.2-4.4,1.6-4.7,4.5c-0.2,2.1-0.2,4.3-0.1,6.5c0.1,3.9-3.8,9.2-7.5,10.2c-0.5,0.1-1.1,0.1-1.6,0.1
	C252.5,176.9,252.4,176.6,252.4,176.4z"/>
<path d="M92.6,249c0.4-0.8,0.9-1.6,1.1-2.4c0.5-1.7,0.4-3.6-1.2-4.5c-3.5-2-5.5-5.4-7.7-8.5c-2.7-4-5.1-8.2-7.8-12.2
	c-0.8-1.2-2-2.1-3.2-2.9c-1.2-0.8-2.2-0.2-2.3,1.3c-0.4,3.8,0.8,6.9,3.7,9.4c1.7,1.5,3.4,2.9,5.1,4.4c3,2.6,4.4,5.7,2.8,9.7
	c-0.5,1.3-0.8,2.7-1.2,4c-1.2,4-4.5,6-8,7.2c-3,1.1-4.9,3-6.9,5.3c-0.4,0.5-1,0.8-1.5,1.2c0-0.7-0.1-1.4,0.2-2
	c1.5-3.1,3.9-5,7.2-6.1c6.3-2.1,8-6,8.7-11.7c0.4-3.1-1.5-5.6-4.1-7.7c-2.8-2.2-6-4.2-7.2-7.8c-0.7-2-1-4.1-0.9-6.2
	c0.1-2.7,2.8-3.9,5.3-2.7c2.9,1.5,4.6,3.9,6.3,6.6c3,5,6.3,10,9.6,14.8c0.7,1.1,2.2,1.6,3.4,2.5c2.3,1.7,2.9,5.9,1,8.1
	c-0.4,0.5-1.3,0.7-1.9,1C92.9,249.5,92.7,249.2,92.6,249z"/>
<path d="M422.1,144c-0.5,3.1-1.1,6.2-1.5,9.3c-0.2,1.2-0.3,2.4,0,3.5c1.2,3.9,0.3,7.6-0.9,11.1c-0.3,0.9-2.2,1.7-3.4,1.7
	c-1.6,0-2.4-1.5-2.5-3.1c-0.3-3.5-0.5-7.1-1-10.6c-0.8-5.1-2.1-10.2-2.9-15.3c-0.4-2.5-1.3-4.9-0.4-7.5c0.7-2,3.3-4.2,5.3-3.8
	c0.6,0.1,1.5,0.5,1.7,1c1.7,3.1,3.5,6.2,5,9.5c0.5,1.2,0.3,2.8,0.3,4.2C421.9,144,422,144,422.1,144z M420.2,143.2
	c-0.6-1.9-1.3-4-2.1-6c-0.6-1.5-1.4-2.9-2-4.4c-0.7-1.6-1.9-2-3.2-0.9c-0.9,0.7-1.7,2-1.7,3.1c0,2.1,0.4,4.3,0.8,6.4
	c0.9,5.6,2,11.2,2.8,16.7c0.4,2.7,0.6,5.4,1,8.1c0.1,0.5,0.5,1.1,1,1.5c0.1,0.1,1-0.3,1.1-0.6c0.4-2.4,1.2-4.8,1-7.2
	c-0.2-3.1-0.9-6-0.1-9.1C419.5,148.4,419.7,146,420.2,143.2z"/>
<path d="M200.2,126.5c3.8-0.3,7.5,0.3,10.8,2.6c3.7,2.5,6.2,6,7.9,10.1c0.8,2,1.6,4.1,2.8,5.9c2.4,3.7,4.7,4.8,8.2,2
	c1.7-1.3,3.5-2.3,5.4-3.3c2.6-1.5,6.6-0.2,7.3,2.7c0.7,2.7,0.7,5.7,0.7,8.5c0,2.9-4.5,4.8-7,5.1c-1.7,0.3-3.5,0.3-5.2,0.6
	c-1.6,0.2-4.7,3.2-4.9,4.8c-0.1,0.7,0.3,1.6,0.7,2c0.3,0.3,1.2,0,1.8-0.1c0.3,0,0.6-0.2,1.2-0.5c-0.1,1.9-1,2.7-2.5,2.7
	c-1.6,0-2.8-0.9-3.1-2.6c-0.4-3,2.8-7,6-7.7c2.7-0.5,5.3-1,7.9-1.7c2.1-0.6,3.2-2.1,3.1-4.4c-0.1-1.6,0-3.2-0.2-4.8
	c-0.3-2.9-3.4-4.3-5.9-2.8c-2.3,1.4-4.6,2.8-6.8,4.2c-2.2,1.3-4,0.6-5.7-0.8c-2.6-2.1-4.1-4.8-5.1-7.9c-2.7-7.8-7.8-12.5-16.2-13.3
	c-0.5-0.1-1-0.4-1.6-0.6C200,127,200.1,126.7,200.2,126.5z"/>
<path d="M245.4,414.1c1.5-2.6,3.2-5,4.5-7.6c1.5-3.1,1.2-6.3,0.1-9.4c-0.9-2.4-2.8-3.9-5.2-3.3c-2.2,0.5-4.4,1.6-6.3,2.9
	c-1.8,1.2-3.1,3-4.8,4.4c-2.7,2.4-8.3,2.3-11-0.1c-1.8-1.6-1.8-4.6-0.4-7.9c1-2.3,2.3-4.5,3.2-6.8c1.6-3.9-0.3-7.4-1.7-10.9
	c-0.5-1.4-1.4-2.6-1.9-4c-0.2-0.4,0.2-1.1,0.3-1.6c0.5,0.2,1.1,0.3,1.3,0.7c2.6,4.8,5.3,9.7,4,15.5c-0.4,1.9-1.5,3.6-2.2,5.4
	c-0.7,2-1.5,3.9-2,5.9c-0.3,1.7,0.5,3,2.3,3.6c2.5,0.9,4.8,0.7,6.9-1.1c1.5-1.3,2.9-2.6,4.3-4c2.9-2.8,6.3-4.3,10.3-3.6
	c2.4,0.4,4,2.3,4.7,4.4c2,5.8,0.6,11.2-3.1,16C247.5,414.1,246.9,414.3,245.4,414.1z"/>
<path d="M377.5,146.5c-0.2-0.5-0.2-1.2-0.5-1.6c-0.5-0.7-1-1.4-1.7-1.8c-3.8-2.2-4.6-5.3-2.3-9.2c1.9-3.3,4.8-5.3,8.4-6.7
	c3.5-1.4,4.4-5.1,1.9-7.8c-0.5-0.5-1.4-0.9-2.1-1c-4.4-0.2-7.1-2.3-8.1-6.4c-1-4.4-3.3-7.8-7.6-9.7c-2-0.9-4-2.1-6.1-2.5
	c-4.7-0.8-9.4,0-13.4,2.3c-4.3,2.4-7.2,1.2-9.9-2.8c-1.1-1.6-2.4-3.2-3.6-4.8c0.2-0.2,0.4-0.4,0.6-0.6c0.8,0.7,1.5,1.3,2.2,2
	c1.6,1.7,3.2,3.4,4.9,5.1c1.1,1.1,2.2,1.1,3.6,0.4c4.1-2.3,8.6-3.3,13.1-3.3c7.9,0.1,15.6,4.9,17.9,13.7c0.9,3.4,2.8,4.7,6.1,4.7
	c4.3,0,6.8,4.1,5.1,8.1c-1.2,2.7-3.7,3.6-6,4.6c-3.9,1.7-5.7,4.7-6.5,8.5c-0.4,1.7,0.7,3.2,2.5,3.9c2.1,0.8,2.7,1.9,2.3,3.9
	C378,146,377.7,146.2,377.5,146.5z"/>
<path d="M291.6,182.4c0.3,0.5,0.9,0.9,0.9,1.4c0,1.7,0.2,3.4-0.2,5c-1.3,4.5-5,4.7-8.1,2.6c-3.6-2.5-6.1-1.6-6.5,2.9
	c-0.2,2,0.1,4.3,0.9,6.2c2.3,5.8-0.6,13.7-5.4,16.5c-1.5,0.9-3.6,1.2-5.4,1.2c-1.5,0-2.8-1.1-3.1-2.9c-0.2-1.4-0.7-2.7-1.1-4
	c-1.2-3.3-2.9-3.9-6-2.4c-0.9,0.4-1.8,1.8-3.1,0.3c2.2-1.8,4.8-2.5,7.3-2.4c2,0.1,3.1,2,3.7,3.9c0.2,0.7,0.3,1.4,0.5,2
	c0.5,1.6,0.5,3.8,2.8,3.9c2.4,0.2,4.2-0.8,5.7-2.8c3.4-4.2,3.5-8.7,2.1-13.7c-1-3.5-1.7-7.3,1.6-10.4c1.4-1.4,3.3-2,5.1-1.1
	c0.9,0.4,1.8,1,2.7,1.6c2.5,1.6,4.1,0.8,4.6-2.1c0.3-1.8,0.5-3.5,0.7-5.3C291.3,182.5,291.4,182.5,291.6,182.4z"/>
<path d="M391.4,183.3c0.2-2.6,3.3-4.3,5.9-3.2c0.6,0.2,1.1,0.6,1.6,0.9c1.7,1.2,3.4,1.1,4.2-0.7c1.2-2.4,2.2-5,2.7-7.7
	c2-10.8,1.7-21.6-1.6-32.3c-1-3.4-2.2-6.8-2.9-10.3c-0.4-1.8-0.2-3.9,0.2-5.8c0.6-2.5,2.3-3.1,5.6-2.1c-3.6,0.6-4.9,2.6-4.5,5.5
	c0.3,2.1,0.9,4.3,1.6,6.3c3.2,8.9,4.7,18.1,4.5,27.6c-0.1,5.6-0.8,11-2.4,16.3c-1.1,3.7-3.3,6.6-7.9,4.1
	C395.6,180.5,393.6,182.2,391.4,183.3C391.4,183.2,391.4,183.3,391.4,183.3z"/>
<path d="M248.5,130.4c-1.7,1-3.2,2-4.7,2.8c-1.9,1-3.4,0.5-4.9-0.9c-1.4-1.4-1.4-2.8-1-4.6c0.5-1.9,0.8-3.9,0.9-5.9
	c0-2.1-1.4-3.4-3.4-3c-2.6,0.5-5.2,1.1-7.6,2.1c-5.6,2.5-9.8,0.2-12.5-4c-1-1.5-1.5-3.3-2.1-5c-0.2-0.6-0.2-1.3-0.2-1.9
	c0.3-0.1,0.5-0.2,0.8-0.3c0.5,1,1.1,2,1.5,3.1c1.5,3.9,3.9,7.1,8.3,7.3c2.2,0.1,4.5-1.5,6.8-1.9c2.6-0.5,5.3-0.9,7.8-0.7
	c1.8,0.1,3.2,1.7,3,3.7c-0.2,2.2-0.6,4.3-1.2,6.4c-0.4,1.5-0.3,2.6,0.9,3.6c1.3,1,2.6,0.8,3.8-0.3c0.5-0.5,1.1-0.9,1.7-1.3
	c2.4-1.6,4.2-1.2,5.4,1.4c0.2,0.5-0.2,1.2-0.3,1.9c-0.5-0.2-1.2-0.3-1.6-0.7C249.3,131.7,249,131.1,248.5,130.4z"/>
<path d="M283.3,126.8c0.1-0.6,0.1-1.3,0.3-1.8c2.2-4.4,4.2-9.1,6.9-13.2c2.3-3.4,5.5-6.3,8.5-9.2c1.3-1.3,3.3-1.2,4.9-0.2
	c2.7,1.7,4.8,3.8,5.4,7.2c0.3,1.9,0.8,3.7,1.3,5.5c0.6,2.1,3,3,4.9,2c1.7-0.9,3.4-1.9,5.2-2.8c0.4-0.2,0.9,0,1.3-0.1
	c-0.2,0.5-0.2,1.2-0.5,1.4c-2.2,1.3-4.3,2.7-6.6,3.7c-2.2,0.9-5.6-1.4-6.2-3.8c-0.7-2.7-1.2-5.4-2.3-7.9c-1.8-4-4.6-5.4-8.7-2.1
	c-4.3,3.4-6,8.1-8.3,12.7c-1.3,2.4-2.6,4.8-4,7.2c-0.4,0.7-1,1.2-1.6,1.8C283.7,127,283.5,126.9,283.3,126.8z"/>
<path d="M276.4,118c-1.9,1.3-3.2,2.2-4.7,0.2c-0.6-0.7-1.6-1.1-2.4-1.7c-2-1.4-3.2-1.1-4.2,1.2c-2.3,5.1-2.3,10.1,0.8,15
	c0.8,1.2,1.3,2.7,1.4,4.1c0.3,5.3-5,8.8-10.6,7c-2.3-0.8-4.2-1-5.7,1.2c-0.1,0.2-0.5,0.2-0.8,0.2c-0.2-2,1.7-3.8,3.8-3.6
	c1.2,0.1,2.5,0.5,3.7,0.7c0.4,0.1,0.8,0.1,1.3,0c6.1-0.4,7.9-2.6,5.4-8.4c-0.3-0.8-0.6-1.6-1.1-2.3c-3.2-5.1-2.1-10.1,0.1-15.1
	c0.5-1.1,1.7-2,2.6-2.9c0.3-0.3,1-0.5,1.3-0.3C270.3,114.8,273.2,116.3,276.4,118z"/>
<path d="M330.5,121c0.6,1.9,0.6,3.6-0.9,5.2c-1.4,1.5-2.9,2.5-5,1.4c-2.5-1.3-4,0.5-5.1,2.1c-1.6,2.3-3.6,3.7-6.3,3.1
	c-3.4-0.7-6.4-2.2-7.8-6c-0.8-2.3-2.3-4.3-3.5-6.4c-0.7-1.3-1.8-1.2-2.6-0.4c-1.4,1.4-2.6,2.9-3.8,4.4c-0.3,0.4-0.4,0.8-1,1.2
	c0-0.7-0.3-1.5,0-1.9c1.4-1.8,2.8-3.7,4.5-5.2c1.2-1.1,2.8-1,3.8,0.5c1.6,2.5,3,5,4.4,7.6c1.4,2.5,3.4,4.2,6.3,4.4
	c1.2,0.1,2.5-0.5,3.5-1.1c0.9-0.5,1.5-1.4,2.3-2.2c1.7-1.7,3.4-2.7,6-1.5c1.7,0.8,3.1-0.4,3.6-2.4c0.2-1,0.6-1.9,0.9-2.8
	C330,120.9,330.3,121,330.5,121z"/>
<path d="M265.8,407.9c0.4-0.2,1.3-0.7,2-1.3c1.4-1.2,2.6-2.5,4-3.7c1.8-1.6,4.1-1.5,5.6,0.4c1.1,1.4,1.9,3,2.7,4.5
	c0.2,0.3-0.1,1.2-0.3,1.4c-0.4,0.2-1.2,0-1.4-0.3c-0.7-1-1.1-2.1-1.7-3.2c-1.1-2.2-2.4-2.5-4.3-1c-0.8,0.7-1.6,1.4-2.2,2.3
	c-1.5,2.1-3.8,2.6-6.1,2.9c-2.1,0.3-4.4-2.6-3.9-4.8c0.5-1.9,1-3.8,1.8-5.6c1.5-3.5,1.7-6.8-1-9.8c-0.2-0.3-0.1-0.8-0.2-1.2
	c0.5,0.1,1.3,0.1,1.6,0.5c2.4,2.8,3.2,6,1.9,9.6c-0.6,1.6-1.3,3.3-2,4.9C261.2,405.8,262.6,407.9,265.8,407.9z"/>
<path d="M372.4,160.2c-2.3-0.5-2.9-1.5-2.3-2.8c1.2-2.6,3.2-4.3,6.3-4.5c6-0.3,10.3-4.1,10.4-9.5c0-2.6-0.5-5-3.1-6.4
	c-0.8-0.4-1.4-1.2-2.3-2c2-0.3,5.1,1.4,5.8,3c1.8,3.9,2.2,7.7-0.5,11.5c-2.2,3.1-5.6,3.7-8.9,4.5c-0.9,0.2-2,0.1-2.8,0.5
	C372.6,155.5,371.2,157,372.4,160.2z"/>
<path d="M237.9,385.6c-1.9,0.2-3.2-0.8-3.9-2.3c-1.7-4.1-3.2-8.2-4.6-12.4c-0.2-0.7,0.3-1.6,0.5-2.4c0.5,0.6,1.2,1.2,1.5,1.9
	c1.4,3.7,2.6,7.5,4.2,11.1c1.2,2.9,5,2.7,7.5-0.2c0.4-0.5,1.2-0.7,1.8-1.1c-0.2,0.9,0,2.3-0.5,2.6c-2,1.3-4.1,2.2-6.2,3.2
	C238.1,385.9,238,385.7,237.9,385.6z"/>
<path d="M46.4,260.2c-0.3,1.1-0.5,1.9-0.8,2.6c-0.6,1.3-1.5,2.3-3.1,1.9c-1.7-0.5-1.6-1.9-1.4-3.3c0.1-0.6,0.4-1.5,0.1-1.8
	c-0.8-1.1-0.6-2,0.5-2.4c0.9-0.3,2.3-0.3,3.1,0.2C45.6,258.1,46,259.4,46.4,260.2z"/>
<path d="M38.9,243.7c0-2.1,1-3,3.2-3c1.8,0,3.7,2.4,3.7,4.7c0,2.1-1.3,3.7-3,3.7C40.7,249.1,38.9,246.6,38.9,243.7z M42.4,242.6
	c-2.2,1.7-2.3,2.3-0.9,3.8c0.4,0.4,1.5,0.7,1.8,0.5C44.4,246.2,43.9,244.1,42.4,242.6z"/>
<path d="M276.3,124.9c2.7-4.6,5.5-9.2,8.3-13.8c0.2-0.3,1-0.2,1.6-0.3c0.1,0.7,0.4,1.8,0.1,2c-3.6,3.1-4.7,7.9-7.7,11.4
	c-0.5,0.6-1.3,0.8-1.9,1.2C276.5,125.3,276.4,125.1,276.3,124.9z"/>
<path d="M48.3,274.4c-0.6,0.7-1.1,1.7-1.8,2c-0.5,0.2-1.4-0.6-2.1-0.8c-3-1-2-3.1-1.2-4.9c0.7-1.6,2.8-1.8,3.7-0.3
	C47.5,271.5,47.8,272.8,48.3,274.4z"/>
<path d="M203.5,380.2c0.7,2.4-0.2,4.2-2,4.8c-2.4,0.8-4.7,0.4-7-0.5c-1.2-0.5-2.5-0.8-4-1.2c-0.2-1.4,0.8-2.2,2.6-1.4
	c1.1,0.4,2.1,1,3.2,1.4c2.6,0.9,4.5,0.2,6-2.1C202.6,380.9,203,380.7,203.5,380.2z"/>
<path d="M247.3,196c0-1.7,1.3-3,3.1-3c1.6,0,2.2,1,2.3,2.4c0.1,1.8-1.3,3.7-2.7,3.6C248.6,199.1,247.3,197.6,247.3,196z"/>
<path d="M334.5,109.7c-0.7-0.1-1.5,0-1.8-0.4c-0.9-0.9-1.8-2-2.5-3c-1.6-2.4-3.2-4.9-4.8-7.4c-0.4-0.7-0.5-1.5-0.8-2.3
	c0.2-0.1,0.4-0.2,0.6-0.3C328.2,100.7,331.2,105,334.5,109.7z"/>
<path d="M300,169.7c-1.6,1.5-2.7,1.9-3.3,0.4c-0.7-2-2.4-2.8-4-3.8c-1.1-0.7-2.2-1.3-3.2-2c-0.4-0.3-0.5-1-0.7-1.5
	c0.6,0,1.3-0.2,1.7,0.1C293.6,165.1,296.7,167.3,300,169.7z"/>
<path d="M294.3,176.6c-0.7-0.1-1.7,0.2-2.1-0.2c-2.6-2.5-5.1-5.1-7.6-7.7c0.1-0.2,0.2-0.4,0.3-0.6c0.6,0.2,1.4,0.1,1.9,0.5
	c2.7,2.3,5.2,4.8,7.8,7.2C294.5,176.1,294.4,176.3,294.3,176.6z"/>
<path d="M242.7,169.7c0.9,0.5,1.9,1.1,2.8,1.6c0.3-1,0.7-2,1.1-3.2c-1.5,0.1-2.3,0.1-3.2,0.2c0.2-1.9,1.7-1.9,2.7-1.8
	c0.6,0,1.5,0.9,1.8,1.6c0.6,1.6-0.3,3.8-1.7,4.5c-1.5,0.8-2.7,0.1-3.7-1c-0.8-0.9-1.1-1.8,0.2-2.5
	C242.7,169.3,242.7,169.5,242.7,169.7z"/>
<path d="M258.5,186.8c0.7,0.5,1.3,1.1,2,1.5c1.8,1.2,1.9,2.7,0.3,4.1c-0.7,0.6-1.6,1.3-2.5,1.3c-0.9,0.1-2-0.3-2.6-1
	c-0.7-0.8-0.2-1.9,1.2-3c0.1,0.4,0.1,0.7,0.2,1c0.2,0.6,0.5,1.1,0.8,1.7c0.7-0.5,1.6-0.8,1.9-1.4c0.2-0.4-0.4-1.6-0.9-1.8
	C257,188.6,257.4,187.8,258.5,186.8z"/>
<path d="M263.4,186.5c0-2.7,0.9-3.9,2.7-3.8c1.4,0,2.4,0.7,2.6,2.2c0.1,1.2-1.9,3.1-3.3,2.9C264.6,187.6,263.9,186.8,263.4,186.5z"
	/>
<path d="M186.5,392.3c-0.2,0.3-0.4,0.7-0.6,0.6c-0.5-0.1-1.2-0.2-1.5-0.5c-1.3-1.7-2.5-3.4-3.6-5.2c-0.8-1.3-1.5-2.7-2.1-4.1
	c-0.2-0.4,0-1.1,0.1-1.6c0.5,0.3,1.2,0.4,1.5,0.8c0.5,0.7,0.6,1.6,1.1,2.3c1.3,2.1,2.7,4.2,4.1,6.3
	C185.8,391.3,186.2,391.8,186.5,392.3z"/>
<path d="M249,155.1c0.8-0.3,1.8-0.9,2.4-0.6c0.7,0.3,1.3,1.2,1.5,2c0.4,1.5-1,3.9-2.5,4.1c-0.8,0.1-2-0.6-2.4-1.3
	c-0.6-1-0.2-2.2,1.5-2.4c0.1,0.8,0.2,1.5,0.3,2.2c0.2,0.1,0.3,0.1,0.5,0.2c0.3-0.7,1-1.4,0.9-2C250.9,156.6,250,156,249,155.1z"/>
<path d="M189.9,388.2c-0.3,0.4-0.6,0.8-0.9,0.9c-0.4,0.1-1.1-0.1-1.3-0.3c-1.4-2.3-2.7-4.6-3.9-6.9c-0.1-0.2,0.3-0.7,0.5-1.1
	c0.5,0.2,1.2,0.4,1.5,0.8c0.6,1.1,1,2.3,1.6,3.4c0.5,0.9,1.2,1.7,1.9,2.5C189.4,387.6,189.6,387.9,189.9,388.2z"/>
<path d="M303,164.6c-0.6,0.9-1.3,1.1-2.2,0.1c-1.7-1.8-3.4-3.7-5-5.6c-0.2-0.2-0.1-0.7-0.2-1.1c0.4,0,1-0.3,1.3,0
	c0.9,0.7,1.7,1.4,2.5,2.3C300.5,161.7,301.7,163.1,303,164.6z"/>
<path d="M175.4,384.4c0.3,0.4,0.5,0.8,0.8,1.2c1.3,1.9,2.7,3.7,4,5.7c0.2,0.3,0,0.8,0.1,1.2c-0.4-0.1-1.1,0-1.3-0.3
	c-1.6-2-3.1-4.1-4.6-6.2c-0.2-0.3,0.3-0.9,0.4-1.4C174.9,384.5,175.2,384.5,175.4,384.4z"/>
<path d="M257,388.4c-1.1-1.4,1.5-6.8,4.3-9.2c0.5,1.1,0.5,1.1-1.6,4.6C258.9,385.3,258,386.7,257,388.4z"/>
<path d="M248.2,384.8c0.8-2.2,1.5-4.4,2.4-6.6c0.1-0.3,0.7-0.4,1.1-0.6c0.2,0.4,0.6,0.9,0.5,1.2c-0.6,1.8-1.3,3.5-2.1,5.2
	c-0.2,0.5-1,0.8-1.5,1.2C248.5,385,248.4,384.9,248.2,384.8z"/>
<path d="M253.5,386.1c-0.5-3.1,1.4-5.3,3.1-7.6C256.9,381.6,254.5,383.6,253.5,386.1z"/>
<path d="M188.8,121.7c-0.5-0.9-1.1-1.7-1.6-2.7c-0.1-0.3,0-0.8,0.1-1.1c0-0.1,0.6-0.2,0.7-0.1c0.7,0.9,1.4,1.8,2.1,2.8
	C189.8,121,189.3,121.3,188.8,121.7z"/>
<path d="M192,114.4c0.7,1.6,1.3,2.8,1.9,4.1C191.6,118.3,190.8,116.7,192,114.4z"/>
<path d="M184.6,121.4c0.6,0.8,1.2,1.6,1.8,2.5c-0.1,0.2-0.1,0.4-0.2,0.5c-0.6-0.2-1.4-0.2-1.6-0.5c-0.4-0.6-0.5-1.5-0.8-2.3
	C184,121.5,184.3,121.4,184.6,121.4z"/>
<path d="M80.7,329.3c0-2.7-0.2-5.5,0-8.2c0.4-5.5-2.6-9.8-5-14.2c-3.6-6.5-7.8-12.8-8.9-20.3c-0.6-4.2-0.5-8.5-0.2-12.8
	c0.3-3.7,2.2-4.5,5.6-2.9c2.5,1.1,4.9,0.4,6.4-2.2c1.7-3,3.1-6.2,4.6-9.2c0.7-1.4,1.4-2.8,2.3-4c1.7-2.3,4.1-2.1,6.5-1.5
	c4.2,1.1,5.9,4.8,4.1,8.8c-1.2,2.8-3,5.5-2.6,8.8c0.5,3.9,1.6,7.6,4.8,10.2c2,1.7,4.1,3.1,6.2,4.6c3.5,2.6,5.2,6,4.8,10.4
	c-0.2,2.2-0.5,4.4-0.2,6.5c1.1,8.3,5.2,9.8,12,7.6c6.3-2.1,8.6-7.5,9.9-13.4c2.1-9.3-0.8-18-3.4-26.8c-2.4-8.1-6.7-15.1-11-22.2
	c-1.7-2.9-3.9-5.5-5.9-8.2c-4.3-6.2-8.3-12.7-10.3-19.9c-2.7-9.7-1.5-19.5,3.7-28.3c3.1-5.1,7.8-8.8,13.7-10.6
	c10.6-3.2,20.8-2.8,30.7,2.6c1.8,1,3.7,1.8,5.4,2.8c5.2,3.1,9.3,7.5,12.7,12.4c5.5,7.7,8.3,16.5,9.7,25.8c0.7,4.4-0.8,8.5-4.2,11.6
	c-2.2,2-4.6,2.5-6.9,0.6c-3.3-2.6-6.6-2.7-10.4-1.5c-3.9,1.3-5.3,0.6-7.6-2.9c-1.2-1.9-2.9-2.9-5.1-3.5c-0.6-0.2-1.2-0.8-1.6-1.3
	c-0.4-0.4-0.5-1-0.8-1.5c-0.8-1.5-1.8-2.7-3.6-2c-1.6,0.6-2.7,3-2.4,4.7c0.7,3.8,3.3,6.3,6,8.7c3.8,3.3,8,6.2,11.7,9.6
	c8.1,7.5,15.6,15.5,19.5,26.1c1.9,5.1,3.9,10.1,5.3,15.3c1.8,7,2,14.3,1.1,21.5c-0.8,6-1.6,11.9-2.8,17.8c-1.3,6.2-4.1,11.8-9,16.1
	c-5.8,5.1-11.7,9.9-18.8,12.9c-7,3-14.2,5.3-22,4.5c-8-0.9-16-1.6-23.7-4.1c-5.7-1.8-10.3-5.2-14.3-9.6
	C81.7,342.9,79.9,336.6,80.7,329.3z M102.8,303.6c0-0.8,0.1-1.5,0.1-2.3c0-0.8-0.1-1.7-0.2-2.5c-0.4-3.4-2.3-4.6-5.4-3.4
	c-0.5,0.2-1.1,0.3-1.6,0.5c-2.2,0.7-3.2,0.2-4.3-1.8c-1-1.8-2-3.6-3-5.3c-2.1-3.7-6-4.2-9.5-5.1c-1-0.2-2.3,1.1-3.5,1.7
	c-1.9,1-2.2,2.7-2,4.5c0.3,3.9,1.7,7.4,4.7,10.1c3.8,3.4,7.2,7,9.9,11.4c1.6,2.6,2,5.2,1.5,8.2c-0.7,4.8,2.4,11.4,8.4,12.3
	c3.5,0.5,5.4,2.6,6.5,5.8c0.8,2.2,1.6,4.6,3,6.5c3.3,4.3,7.7,6.5,13.2,7.3c3,0.4,5.7-0.3,8.5-0.4c3.7-0.2,6.3-1.9,7.7-5.2
	c1-2.3,1.1-4.8-0.5-7.1c-1.3-2-3.2-1-4.8-0.7c-1.1,0.2-2.3,0.4-2.7-0.8c-0.3-1-0.2-2.4,0.3-3.3c1.7-2.7,4.1-4.2,7.5-3.4
	c0.4,0.1,0.9,0.2,1.2,0c3.8-1.4,7-3.5,9.2-7c2.5-4,3.3-8.4,4-12.9c1.7-11.3,1.9-22.6-0.1-34c-0.7-4.1-2.3-7.8-4.5-11.2
	c-2-3-6.2-3.8-7.7-1.6c-1.2,1.7-1.9,3.9-2.3,6c-1,5.2,1.4,10,2.4,15c0.8,4,1.5,8.1,1.2,12.1c-0.4,5.8-1.8,11.4-5.1,16.5
	c-4.3,6.6-9.6,11.4-17.8,11.8c-5.7,0.3-9.7-1.7-12.1-6.9C103.1,313.6,102.9,308.6,102.8,303.6z M133.6,254.4
	c0.9-0.5,1.7-0.9,2.4-1.4c1.6-1.2,3-2.7,2.3-4.8c-0.7-2.2-1.5-4.5-2.9-6.2c-4.2-5.4-7.4-11.2-9-17.8c-0.7-3.1-1.2-6.2-2.2-9.2
	c-1.8-5.7,3.8-10.7,7.5-10.8c4.1-0.1,7.1,1.8,9.2,5.2c3,4.9,6,9.8,8.9,14.7c1.1,1.8,3,2.5,4.7,2c2.4-0.6,4.7-1.7,6.9-2.9
	c0.9-0.5,1.8-1.7,2.1-2.8c1.3-4.3,1.7-8.7-0.4-12.9c-1.5-3.1-3.3-6-5-9c-2.3-3.8-8.5-6.4-12.9-4.6c-2.2,0.9-4.7,0.9-6.9-0.4
	c-1.5-0.9-3-1.8-4.4-2.8c-2.2-1.5-4.4-1.8-7-1.1c-6.1,1.6-9,6.2-10.9,11.6c-4.3,12.4-2,24.1,4.4,35.2
	C124.2,242.7,128.1,249.1,133.6,254.4z M155.6,264.8c0-0.6,0-0.9,0-1.3c0.1-0.8,0.3-1.6,0.5-2.3c0.9,0.3,2.1,0.4,2.5,1
	c1.2,1.6,2.4,3.4,3,5.3c1.9,6,3.4,12.1,5.2,18.2c1.4,4.4,1.5,8.8,0.3,13.3c-0.6,2.4-2.7,4-4.7,3.8c-1.5-0.1-3.1-2.2-3.2-4.5
	c-0.1-3.8-0.2-7.6-0.1-11.4c0.2-7-1.3-13.7-3.9-20.1c-0.3-0.7-1.2-1-1.9-1.5c0,0.7-0.1,1.5,0.1,2.1c2.2,5.3,3.6,10.8,3.8,16.6
	c0.2,5,0.2,10.1,0.3,15.2c0.1,2.5,2.1,5.1,4.1,5.5c2.2,0.5,5.6-1.3,6.6-3.6c1.6-3.9,2.3-8,1.3-12.1c-0.7-3.1-2-6-2.9-9
	c-1.3-4.5-2.2-9.1-3.5-13.6c-0.9-2.9-2.3-5.8-5.5-7.1c-1.5-0.6-3.8,0.4-4.3,1.7C153,262.6,153.7,264.1,155.6,264.8z M144.8,335.4
	c0,3.3,2.7,6.8,5.6,6.9c3.1,0.1,6.1-0.7,8-3.4c1.5-2.1,2.6-4.5,3.6-6.8c1.2-2.8,2.5-5.4,5-7.4c2.9-2.4,4.2-5.7,4.2-9.3
	c0-2.9-1.1-5.5-3.7-7.2c-2.6-1.7-5.4-1.7-7.9,0.1c-1,0.7-1.6,2.2-1.9,3.4c-0.5,1.8-0.2,4-1.1,5.4c-2.4,3.5-5.3,6.7-8,10
	C146.5,329.4,144.8,332,144.8,335.4z"/>
<path d="M202.8,284.6c0.6,5.6,1.2,11.1,1.9,16.7c0.1,0.9,1,2.5,1.6,2.5c1.6,0.2,3.3,0.1,4.4-1.7c2.3-3.7,2-8.1,3.3-12.1
	c0.6-1.9,1.2-3.7,2-5.5c0.3-0.7,1.2-1.3,1.9-1.4c0.4-0.1,1.1,0.9,1.4,1.6c0.8,1.7,1.5,3.5,2.2,5.2c0.7,1.6,1.2,3.4,3.5,3.4
	c1.9,0,3.8-1.8,4-4.2c0.3-4.3,0.5-8.7,0.3-13c-0.2-6.7-1.7-13.2-4.1-19.5c-2-5.5-3.1-11.2-3.3-17.1c-0.1-1.4,0.2-3,0.7-4.3
	c0.7-2.1,1.7-2.3,3.5-1.1c1.1,0.7,2.2,1.5,3.3,2.2c2,1.3,4.1,2,6.5,1.8c2.7-0.2,4.9,1.9,5.5,4.8c1,5.2,1.8,10.4,3,15.5
	c1.4,6,3.3,11.9,4.6,17.9c2.2,10.4,4.7,20.9,4.2,31.7c-0.3,7.1-1.7,14-6,19.8c-1.8,2.5-4.6,2.6-6.7,0.6c-0.5-0.5-0.9-1.3-0.9-2
	c-0.4-4-1.8-7.2-5.6-9.3c-3.1-1.7-5.4-4.3-6.7-7.8c-0.5-1.2-1.8-2.4-3-3.1c-2.6-1.4-4.6,0-4.4,3c0.1,1.6,0.3,3.3,1,4.7
	c2.3,5,2.7,10.1,1.9,15.4c-1,7-2.3,13.8-6.2,19.9c-2.4,3.7-5.8,5.9-10,6.7c-3.5,0.7-7,1.3-10.6,1.5c-5.3,0.3-7.6-2.7-6.8-8.5
	c0.4-2.7,0.6-5.4,0.6-8.1c0.1-3.3-1.6-5.5-4.6-6.9c-1.9-0.9-3.7-2-5.4-3.2c-2.7-2-3.5-4.6-2.2-7.7c0.3-0.6,1.3-1.3,1.8-1.2
	c3.7,0.4,7.5,0.5,10.9,1.6c3.5,1.1,4.7,4.6,5.7,7.8c0.7,2.3,1.2,4.6,1.8,6.9c0.5,1.9,1.8,2.9,3.7,3c2,0.1,3.9-0.1,5.1-2.2
	c2.6-4.4,3.4-9.2,3-14.2c-0.5-5.6-4.7-10-10.4-10.7c-1.6-0.2-2.7-1-2.9-2.6c-0.2-1.9-0.4-3.8-0.2-5.6c0.3-2.5,1.1-4.9,1.4-7.4
	c0.7-4.8,0.5-9.5-2.3-13.7c-0.4-0.6-1.1-1.1-1.7-1.6c-1-0.8-1.9-0.6-2.3,0.7c-0.4,1.3-1,2.5-1.1,3.8c-0.3,5.1-3.5,8.4-7.3,11.3
	c-0.7,0.5-2,0.6-3,0.4c-0.3-0.1-0.4-1.6-0.5-2.4c-0.1-0.5,0-1.1-0.2-1.7c-0.5-1.8,0.1-3,1.6-3.9c0.5-0.3,0.9-0.6,1.4-1
	c3.8-2.8,5-7,3.4-11.5c-0.6-1.8-1.1-3.6-1.3-5.5c-0.3-2.3,0.9-4,2.6-5.4c1.6-1.3,3.1-0.4,4.6-0.1c2.2,0.6,4.3,0.7,6.4-0.2
	c2.5-1.1,3.8-0.5,4.1,2.2c0.5,4.3,0.8,8.6,1.1,13c0,0.5,0,1,0,1.5C203.2,284.5,203,284.5,202.8,284.6z M236,284.2
	c-0.2,0-0.3,0.1-0.5,0.1c-0.1,2.3-0.1,4.7-0.4,6.9c-0.4,2.7-0.9,5.4-3.5,7.1c-0.8,0.5-1.6,2.2-1.3,3c1,3.4,2.1,7,5.8,8.5
	c2.2,0.9,4.5,1.7,6.9,1.9c1.2,0.1,2.9-0.7,3.7-1.7c1.6-2.1,2.3-4.6,1.8-7.4c-1.1-6.4-2-12.9-3.3-19.3c-1.4-7-3.1-13.9-4.5-20.9
	c-1-4.8-2.4-9.4-5.5-13.3c-1-1.2-2-2.6-3.8-1.8c-1.7,0.7-2.2,2.3-1.7,4.1c1,4.1,2.3,8.1,3.1,12.2C234,270.5,235,277.3,236,284.2z"/>
<path d="M308.8,282.8c0.3,6.2-1,12.2-2.5,18.1c-0.9,3.6-2.7,6.7-7.7,6.4c-6.3-0.3-11.3,3.9-12.5,10c-0.3,1.4-0.7,2.9-1.1,4.3
	c-0.6,1.9-2.2,2.8-4.1,2.4c-1.6-0.3-3.3-0.8-4.9-1.2c-0.3-0.1-0.7-0.2-0.7-0.4c-0.6-2.4-2.9-2.9-4.4-4.4c-3.8-3.8-5.3-8.7-7-13.5
	c-3.5-10.4-4.7-21.3-6-32.2c-0.8-7.2-0.6-14.3,1.2-21.3c1.1-4.5,2-9.3,5.5-13c2.6-2.7,5.6-4.1,9-4.4c3.4-0.3,6.8-0.2,10.2-0.1
	c1.7,0,3.1-0.2,4.4-1.5c1.6-1.8,3.3-3.5,5.1-5c1.1-0.8,2.6-1.6,3.9-1.5c4.4,0.2,8.1,1.9,11.1,5.2c3.7,4,7.3,8,8.6,13.5
	c0.7,2.8,1.5,5.7,0.8,8.7c-0.8,3.3-3.8,6.1-7.2,6.5c-3.5,0.5-7.1,1-10.6,1.7c-3.3,0.7-5.6,3-6.6,6.2c-0.5,1.5-1.4,2.3-2.8,2.4
	c-3.1,0.3-6.2,0.6-9-1.6c-3-2.4-6.7-2.4-10.1-1c-1.1,0.4-2.2,1.7-2.5,2.9c-2,7.7,1.1,19.1,12.2,21.4c4,0.8,7.7-0.9,10.5-3.7
	c2.1-2.1,3.7-4.7,5.4-7.2c1.3-1.8,2.4-3.8,3.6-5.7c1.2-1.8,3-3.7,4.9-2.8c1.6,0.8,2.6,3.2,3.2,5.1
	C309.2,278.9,308.8,281,308.8,282.8z M303,287.5c-0.1-0.3-0.3-1.9-0.8-2c-1.2-0.3-2.7-0.2-3.7,0.4c-1.2,0.7-1.9,2.2-2.7,3.3
	c-0.5,0.7-0.9,1.7-1.6,2.2c-4.2,2.9-9,4.5-14.1,4.9c-1.2,0.1-2.5-0.6-3.6-1.3c-1.5-1-2.8-2.3-4.3-3.3c-1.3-0.9-3.2,0.2-3.3,1.8
	c-0.1,5.2,1.5,10.1,3.5,14.8c0.4,1,2,1.8,3.2,2.1c2.5,0.6,4-1.2,5.5-2.8c3.1-3.2,6.2-5.8,11.3-5.2c2.8,0.4,6-0.7,7.6-3.6
	C301.9,295.5,302.8,291.9,303,287.5z M273.9,255.7c0.2,0,0.6-0.1,0.8-0.2c2.2-1.4,4.3-1.3,6.8-0.6c5.9,1.6,11.2,0.2,15.5-4.4
	c1.7-1.8,3.5-3.7,5-5.7c0.8-1.1,1.8-2.8,1.4-3.8c-0.5-1.4-2.1-3.1-3.4-3.3c-4-0.5-7.8,0.3-10.7,3.5c-1.5,1.6-3.2,2.7-5.5,2.7
	c-1.3,0-2.6-0.1-3.8,0.3c-2.3,0.7-5,1.2-6.6,2.7C270.8,249.5,271.2,252.8,273.9,255.7z"/>
<path d="M400.1,363.9c-3.2,3.4-3.2,7.6-3.9,11.6c-0.2,1,0.4,2.2,0.8,3.2c1.5,3.2,1.3,6.2-0.3,9.3c-1.2,2.3-3.6,3.5-5.7,2.7
	c-2.6-1-3.6-3.2-2.7-6c1.3-4.1,0.9-6.1-1.9-8c-0.9-0.6-2.1-0.7-3.1-1c-0.9-0.2-1.8-0.3-2.7-0.4c-1.5-0.3-1.8-1.2-1-2.5
	c0.4-0.7,0.8-1.5,1.4-2.1c3.6-3.6,1.7-8-3.6-9.3c-1.9-0.4-3.8-1.1-5.4-2.1c-1.8-1.1-2.2-3.7-1.4-5.5c1.2-2.6,2.7-3.4,5.4-2.8
	c2.1,0.5,4.1,0.9,6.1,1.5c3.7,1.1,5.3-0.6,6.4-3.6c0.9-2.4-1.1-5.5-3.8-6.4c-1.4-0.5-2.8-0.9-4.1-1.5c-2.7-1.5-3.2-3.4-1.7-6.1
	c1.2-2.1,2.6-4.2,3.7-6.4c2.4-4.7,2.1-9.8-4.3-11.9c-1-0.3-2.3,0.1-3.4,0.4c-1.1,0.3-2.2,0.8-3.3,1.3c-2.3,1-3.7,0.4-4.9-1.9
	c-0.8-1.5-1.7-2.9-2.5-4.4c-1.9-3.2-5-3.6-8.2-3.7c-0.7,0-1.6,0.2-2.2,0.6c-5.3,3.1-6.1,10-2,14.6c2.7,2.9,5.5,5.9,6.3,10
	c1,4.8,0.5,9.6-1.1,14.3c-0.4,1.1-1.5,2-2.5,2.8c-1.3,0.9-3.8-0.1-3.9-1.8c-0.1-2.3,0-4.8,0.8-6.9c0.9-2.7,1.3-5.2-0.3-7.6
	c-2.2-3.4-8.3-3.2-11,0.7c-1.3,1.9-2,4.3-2.6,6.5c-0.6,2.6-1.3,5.2-4.2,6.1c-1.1,0.3-2.8,0.4-3.7-0.2c-3.1-1.8-4.3-2.2-8.1-1.4
	c0.7-2.1,1-4.2,2-5.8c0.6-0.9,2.4-1.3,3.7-1.6c3-0.7,5-2.9,6.2-5.3c3.4-6.6,5.7-13.6,6.1-21c0.1-1.5-0.1-2.9,0-4.4
	c0.1-1.2,0-2.9,0.8-3.6c1.8-1.7,3.8-3.4,6.6-3.1c1.7,0.2,3.4,0,5,0.1c2.3,0.1,4-1,5.4-2.7c0.4-0.4,1.4-0.7,1.8-0.5
	c3.1,1.8,6.1,3.7,9.2,5.6c-0.2,0.5-0.3,0.9-0.5,1.4c-1.3,2.4-0.3,4.5,2.4,4.6c4.1,0.3,8.2,0,12.3,0.4c2.3,0.2,4.7,0.8,6.9,1.6
	c2.3,0.8,4,6,3,9.2c-0.6,1.8-1.5,3.5-2.2,5.2c-0.5,1.4-1.1,2.9-1.2,4.4c-0.2,2.6,1.3,4,3.8,4.3c3.9,0.4,7.3-2.1,9.1-5.5
	c2.6-4.9,4.9-8.4,11-7.6c2.8,0.4,5.7-2.3,6.2-5.1c0.3-1.8,0.6-3.6,1.3-5.3c0.4-1.1,1.6-1.8,2.4-2.7c0.8,0.8,1.9,1.5,2.3,2.5
	c2.6,5.9,0.9,12.1-4.7,15.9c-3.6,2.5-7.5,4.6-11.2,7.1c-1.3,0.9-2.6,2.2-3.4,3.7c-1.3,2.3-0.3,4.3,2.3,5c0.7,0.2,1.5,0.2,2.3,0.4
	c0.8,0.2,2.2,0.4,2.2,0.7c0.1,1.1,0.2,2.7-0.4,3.4c-1.1,1.2-2.7,2.1-4.2,2.9c-2.9,1.5-6,2.6-8.9,4.2c-1.2,0.7-2.3,2-2.9,3.2
	C394.7,360.2,395.9,362,400.1,363.9z"/>
<path d="M382.2,243.9c1.7,2,2.5,4.3,2.6,6.8c0.6,10.3-1.5,20.1-6.4,29.2c-0.9,1.8-2,3.6-2.9,5.4c-1.4,2.8-4,4.2-6.8,4.9
	c-1.2,0.3-2.8-0.4-4.1-1c-1.1-0.5-2-1.5-3-2.3c-3.3-2.8-7-2.9-10.9-2c-1.7,0.4-3.4,0.9-4.9,1.8c-4.4,2.7-11.5,0.9-13.7-4.1
	c-1.8-4.2-3.9-8.3-5.9-12.5c-2-4.2-2.1-9.1-1-13c1.1-3.7,0.5-7.3,1.5-10.9c0.5-1.9,1.4-3.8,2.4-5.5c1.5-2.4,3.3-4.7,5.1-7
	c2.4-3.1,6.1-3.5,9.5-3.5c5.6,0,10.1-2.3,14.1-5.8c2.9-2.4,5.7-5,8-8c3.5-4.4,8.2-5.6,13.4-5.8c1.3,0,2.7-0.2,4,0
	c4.9,0.7,6.8,4.4,4.7,8.9c-1.7,3.5-2.9,6.8-2.9,11c0,5.5-2.5,10.4-6.9,14c-0.7,0.5-1.6,0.9-2.5,1c-4.4,0.3-7.8,2.3-10.5,5.8
	c-1.2,1.6-2.8,2.3-4.9,2.4c-4.1,0.1-7.9-0.8-11.5-2.6c-2.9-1.4-5.9-1.7-8.7-0.5c-1.3,0.6-2.7,2.2-3.1,3.6c-1.8,6,2.1,10.8,7.1,13.5
	c1.9,1,3.9,1.8,6,2.3c5.2,1.1,10.3-1.9,12.1-7c0.8-2.3,1.4-4.7,2.1-7c0.2-0.5,0.2-1.2,0.6-1.5c3.7-3.4,7-7.3,12.7-7.6
	C379.1,247,380.5,245.1,382.2,243.9z M380.1,260.4c-0.4-1.7-0.5-3.4-1-4.9c-0.8-2.3-2.3-3-4.6-2c-1.3,0.6-2.6,1.4-3.5,2.4
	c-2,2.2-2.8,5-3.2,8.1c-0.5,4.6-1.7,9-5.9,11.8c-1.2,0.8-2.6,1.5-3.5,2.5c-0.6,0.7-1.1,2.1-0.8,2.9c0.4,0.9,1.5,1.7,2.5,2.1
	c1,0.4,2.2,0.1,3.3,0.4c3.2,0.8,5.7-0.3,8-2.6C377.2,275.4,378,267.6,380.1,260.4z M370.6,223.5c-0.6,0.1-1.6,0.1-2.3,0.6
	c-2.5,1.7-5,3.4-7.2,5.4c-2.2,2-4.1,4.3-7.3,5.1c-2.5,0.6-3.3,3-2,5.3c0.2,0.4,0.4,0.8,0.4,1.2c0.1,1.7,1.1,1.9,2.5,1.6
	c1.7-0.4,3.4-0.6,5.2-1c3.7-0.8,7.1-1.9,8.2-6.4c0.3-1.2,1.8-2.2,2.9-3.2c0.8-0.7,1.8-1.3,2.7-1.9c1.4-1,2.1-2.3,1.4-4
	C374.3,224.4,372.8,223.5,370.6,223.5z"/>
<path d="M275.3,231.8c-0.4-4,2.2-7.5,5.7-8.6c3-0.9,6.2-1.9,8.5-3.8c1.9-1.5,2.8-4.4,3.9-6.8c1.4-3.1,2.3-6.3,3.6-9.4
	c2-4.8,5.4-7.8,11-8.1c8.5-0.3,13-6.1,16.7-12.8c3.6-6.5,7-13.1,10.7-19.6c1-1.8,2.8-3.3,4.2-4.9c2.9,0.9,3.4,3.3,3.5,5.6
	c0.1,3,0,6.1-0.8,9c-1.5,5.6,0.2,9.9,3.9,14c2,2.2,3.5,4.9,4.5,7.7c0.7,2,0.5,4.5,0.1,6.6c-0.4,2-1.7,3.8-3.9,4.3
	c-4.4,1-8.8,1.5-13.1,2.6c-3.9,1-7.9,1.9-11.1,4.7c-3.4,3-3.8,4.8-1.6,8.8c1.7,3,1.5,6-0.8,7.9c-1.2,1-2.7,1.7-4.2,2.4
	c-2.2,1.1-3.8,0.9-5.6-1.2c-3.2-3.8-7.4-5.9-12.6-6.2c-3-0.1-5.4,0.6-7.2,3c-0.8,1-1.6,2-2.5,2.9c-1.6,1.7-3.4,2.4-5.9,1.9
	C280.1,231.5,277.7,231.8,275.3,231.8z"/>
<path d="M400.1,234.9c-3-1.1-5.5-1-7.6,0.9c-2.3,2.1-2.8,5-2.1,7.8c0.7,2.8,1.9,5.6,3.5,8c3,4.7,4.2,9.7,3.9,15.2
	c-0.1,1.9-3.3,5.5-5.3,6c-5.1,1.3-7.5,4.5-7.6,9.8c0,3.9-1.3,7.4-2.9,10.9c-0.2,0.5-0.6,1-0.7,1.5c-1,5.9-10.6,9-15.3,5
	c-1.6-1.4-3.8-2.1-5.6-3.3c-0.5-0.3-1-1.2-0.9-1.8c0.3-2.2,0.8-4.4,1.3-6.7c0.3,0.3,1.1,0.7,1.7,1.3c2.3,2.1,4.8,2.8,7.9,1.7
	c5.1-1.7,7.5-5.7,9.8-10.1c3.8-7.2,5.8-14.9,6.9-22.9c0.7-5.2,0.5-10.6-2.8-15.4c-0.6-0.9,0.2-2.9,0.7-4.2c1.5-3.6,2.9-7,2.3-11.3
	c-0.3-2.4,1.6-5.1,2.8-7.5c2.2-4.4-0.9-10.4-5.8-10.3c-3.9,0-7.8,0.5-11.7,0.8c-3.4,0.3-5.4,2.8-7.6,5c-2.6,2.6-5,5.5-7.8,7.9
	c-3,2.6-6.5,4.7-10.5,5.5c-1.1,0.2-2.3,0-3.7,0c3.3-4.2,3.3-4.2-1.5-7.2c0.4-0.5,0.8-0.9,1.2-1.3c1.3-1.1,2.5-2.3,3.8-3.3
	c0.9-0.7,1.9-1.3,2.9-1.6c5.3-1.6,9.3-5,11.6-10c2.5-5.2,3.1-10.7,1.6-16.4c-1-3.7-1.6-7.5,0-11.2c1.1-2.6,2.2-3.3,5-2.5
	c2.4,0.7,4.2,0.3,5.7-1.8c1.5-2.1,3.1-4.1,4.5-6.3c1.8-2.9,4.3-4.7,7.6-5.6c2.3-0.6,3.8,0.6,5,2.2c1.4,1.9,1.5,4,0.4,5.9
	c-1.2,2-3,3.1-5.1,3.8c-1.3,0.4-2.6,0.8-3.8,1.1c-3.5,0.8-4.5,3.7-5.4,6.7c-0.3,1.1-0.7,2.1-0.9,3.2c-0.2,0.8-0.5,1.9-0.1,2.4
	c2.1,2.8,0.2,4.7-1.4,6.6c-0.5,0.6-1.2,1.2-1.6,1.9c-1.4,2.4-0.8,4.5,1.6,5.9c2.2,1.2,4.6,1.8,7.1,1.2c3-0.7,6-1.4,8.9-2.1
	c0.5-0.1,0.9-0.3,1.4-0.4c4.9-1.1,7.5,1,7.7,6c0.3,6.9,0.7,13.9,0.9,20.8C400.2,229.5,400.1,232.1,400.1,234.9z"/>
<path d="M277.9,349.4c4,1.9,7.9,0.6,10-3c1.5-2.8,2.3-5.6,2.1-8.9c-0.1-1.7,0.3-3.5,0.6-5.2c0.4-2.4,1.9-3.6,4.3-4.3
	c2.8-0.9,4.7-3.2,5.6-6.1c1.2-3.9,1.3-7.7-2.2-10.6c-0.9-0.7-2-1.2-3.1-2.3c0.8-0.1,1.6-0.4,2.3-0.3c5.8,0.2,9.2-2.2,10.7-7.7
	c2-7.5,3.3-15.1,2.9-22.9c-0.1-1.7-0.4-3.6-1.2-5c-2-3.6-6.1-4.2-8.9-1.1c-2.5,2.9-4.5,6.2-6.6,9.5c-2.7,4.2-5.6,8.1-11.2,8.2
	c-1.5,0-3.2-0.7-4.7-1.3c-6.9-3.2-9.2-11.8-7.7-17.4c0.7-2.7,3.1-3.9,5.7-2.9c1.4,0.5,2.8,1.1,3.9,2c3.8,2.8,7.9,2,12,1.3
	c1-0.2,2.3-1.7,2.6-2.9c0.9-3.3,3-4.8,6.1-5.3c3.4-0.6,6.9-1,10.3-1.8c1.9-0.4,3.5-1.6,5.5-2.5c0,2,0,4,0,5.9c0,0.5-0.3,1.1-0.7,1.5
	c-2,2-2.2,3.9-1.1,6.4c3.7,8.3,4.9,16.7,1.4,25.5c-1.8,4.5-3.6,9-3.8,13.9c-0.1,2,0.4,3.7,2.4,4.5c1.5,0.6,4.1-0.6,5.2-2.5
	c0.9-1.6,1.6-3.3,2.6-4.8c0.4-0.7,1.3-1,2-1.5c0.6,0.8,1.6,1.6,1.6,2.4c0.4,6-1,9-5.6,11.4c-1.3,0.7-2.5,1.7-3.9,2
	c-1.5,0.4-3.4,0.7-4.8,0.2c-2.3-0.8-4.4-0.5-5.9,0.8c-2.7,2.2-5.4,4.7-7.2,7.6c-2.5,3.9-2,8.3,0.3,12.4c0.3,0.5,0.4,1.4,0.1,2
	c-3.2,8.1-6.3,16.2-9.6,24.2c-0.9,2.1-2.6,3.8-3.9,5.6c-0.1,0.2-0.3,0.3-0.5,0.4c-0.6,0.7-1.3,2.1-1.9,2c-1.3-0.1-2.7-0.8-3.9-1.3
	c-0.6-0.3-1.2-0.8-1.8-1.1c-1.1-0.6-1.3-1.5-0.9-2.7c0.5-1.4,0.9-2.8,1.1-4.3c0.1-0.7-0.1-1.7-0.6-2.1c-1.2-1-1-2-0.7-3.2
	c0.4-1.6,0.9-3.2,1.1-4.9c0.1-0.7-0.6-1.5-0.9-2.2c-0.2-0.5-0.9-0.9-0.8-1.2C276.6,353.5,277.3,351.6,277.9,349.4z"/>
<path d="M80,346.2c1.8,0.9,3.9,1.3,5,2.6c5.2,6.6,12.2,9.8,20.2,11.7c5,1.2,10,2.3,15.1,2.3c4.3,0,8.6,0.4,13,0.4
	c1.8,0,3.6-0.6,5.3-1.1c7.6-2.4,14.9-5.4,21.1-10.6c3.1-2.6,6.4-5,9.2-8c2.2-2.3,3.7-5.2,5.5-7.9c0.3-0.4,0.8-1.2,1-1.1
	c0.5,0.1,1.3,0.6,1.4,1c0.3,1.2,0.8,2.7,0.4,3.6c-2.9,5.7-5.9,11.3-9.2,16.7c-2.3,3.7-5.9,5.7-10.3,6.8c-5.2,1.2-10.1,3.2-13.7,7.3
	c-5,5.7-4.2,12.2,2.6,15.9c3.6,2,4.7,5.1,4.4,9.7c-0.2,2.6-3.2,5.1-6.3,6c-6.4,1.8-11.2-3.5-11.6-8.7c-0.2-3.3-1-6.7-1.5-10
	c-0.6-4.3-3.8-6.1-7.2-7.9c-0.1,0-0.1,0-0.2-0.1c-5.4-1.7-5.9-0.6-8.3,4.4c-0.6,1.3-0.8,2.8-1.6,3.9c-0.8,1-2.3,2.3-3.3,2.1
	c-1-0.2-2-1.8-2.5-3c-0.5-1.3-0.6-2.7-0.8-4.1c-0.6-5.4-5-7.5-9.6-4.6c-2.7,1.7-3.9,1.2-4.2-2c-0.5-4-2.2-5.9-6.2-6
	c-6.8-0.2-11-3.5-12.8-10c-0.7-2.7-0.4-5.4,1.6-7.4C77.4,347.1,78.6,346.8,80,346.2z"/>
<path d="M118.7,179.4c0.5-3.3,1.2-6.4,1.4-9.6c0.1-3-1.5-5.4-4.3-6.6c-0.6-0.3-1.6-0.2-2.2,0c-2.1,0.7-4.2,1.6-6.3,2.5
	c-1.9,0.9-3.5,1-5.3-0.4c-3.9-3.1-6.8-2.4-9.1,2.1c-1.9,3.8-2.5,7.9-2.3,12.1c0.3,5.7,1,11.3,1.4,17c0.1,1.8-0.1,3.7-0.5,5.4
	c-0.3,1-1.3,1.9-2.2,2.6c-1.3,1.1-2.8,1.9-4.8,3.3c-1.8-1.3-4.3-2.7-6.3-4.5c-2.7-2.4-2.5-4.5,0.1-6.9c0.4-0.4,0.9-0.8,1.4-1
	c5.9-2.5,6.1-5.7,4.3-11.5c-0.8-2.5-2.2-4.8-3.6-7.1c-2.3-3.7-2-6.8,1.3-9.7c2.1-1.8,4.4-3.5,6.6-5.2c2.8-2.1,4.6-4.7,4.5-8.4
	c-0.1-1.8,0.2-3.6,2.1-4.5c1.5-0.7,4.4,0,5.8,1.4c0.9,0.9,1.9,1.9,2.8,2.9c2.7,2.7,5.3,2.2,6.4-1.4c0.5-1.8,0.6-3.9,0.6-5.8
	c0.1-3.7,0-7.3,0.2-11c0.2-5,3.3-8,7.8-9.4c4.2-1.3,7.9,0.5,10.6,3.5c4.9,5.6,6.9,12.5,6.6,19.9c-0.1,1.5-1.1,3.1-2,4.5
	c-0.6,0.9-1.7,0.9-2.5-0.1c-0.9-1.3-1.7-2.6-2.5-3.9c-1.1-1.9-2-3.8-3.2-5.7c-0.8-1.3-1.8-2.6-3.7-2.1c-2,0.5-3.1,1.9-3.7,3.9
	c-1.9,6-0.1,11.3,3.4,16c3.7,5,2.7,10.4,1.4,15.7C122.3,179.4,120.2,179,118.7,179.4z"/>
<path d="M402.5,292.2c0.3-4.3,0.3-8.7,0.8-13c0.4-3-1.6-4.8-2.6-7.1c-0.7-1.5-1.1-2.8-1-4.5c0.4-5.8-0.3-11.4-4.1-16.3
	c-2.4-3-3.9-6.6-3.2-10.6c0.2-1.2,0.8-2.5,1.6-3.2c0.9-0.8,2.6-1.5,3.5-1.1c1.5,0.6,3.2,1.3,3.3,3.6c0.1,3.2,0.6,6.4,1,9.6
	c0.4,2.7,1.6,4.8,4.4,5.9c4.3,1.7,5.2,4.2,3.4,8.5c-1.1,2.6-1.6,5.2-1.1,8c0.2,1.4-0.4,3-0.1,4.3c0.4,1.7,1.2,3.4,2.2,4.8
	c2.3,3.2,7,4.5,10.7,3c4.2-1.6,8.3-3.1,12.9-2.2c1.2,0.2,2.5,0.3,3.7,0.7c4.7,1.6,9.4,1,13.6-1.2c1.5-0.8,2.6-3,3.1-4.7
	c0.9-2.8,1-6,2-8.8c0.8-2.3,2.3-4.4,3.6-6.5c0.6-0.9,1.8-1.5,2.3-2.4c1.1-1.8,2.8-1.3,4.1-0.9c0.8,0.3,1.6,1.7,1.8,2.7
	c0.7,3.3,0.1,4.4-2.8,6.2c-2.2,1.4-3.3,3.4-3.4,6.1c-0.2,5-0.6,10-1.1,15c-0.2,1.5-0.8,3-1.4,4.4c-0.8,1.8-2.3,2.5-4.4,1.5
	c-3.6-1.7-7.2-1.6-10.9-0.9c-2.3,0.5-4.6,1.6-6.7,2.7c-2.3,1.2-4.9,1.2-6.8-0.7c-2.9-2.8-7.3-3.3-10.5-0.8c-2.9,2.4-5.5,5.1-8.3,7.7
	c-0.7,0.7-1.5,1.4-2.3,1.7c-2.9,1.1-4.7,0.3-5.7-2.7c-0.9-2.9-1.4-6-2-9C402.2,292.2,402.4,292.2,402.5,292.2z"/>
<path d="M246.8,259.1c-0.4-1.2-0.8-1.9-1-2.6c-0.7-4-1.6-8.1-2.1-12.2c-0.6-5.8-3.5-7.6-8.7-8.4c-2.4-0.4-4.9-1.3-6.8-2.8
	c-3.6-2.7-6.6-2.1-7.9,2.3c-0.4,1.3-0.5,2.6-0.4,4c0.6,7.4,2.7,14.4,4.7,21.5c1.5,5.1,2.1,10.6,2.8,15.9c0.4,3.3,0.1,6.7,0.1,10.1
	c0,0.5,0,1.1-0.2,1.4c-0.6,1-1.3,1.9-2,2.8c-0.6-0.8-1.4-1.6-1.9-2.5c-0.7-1.4-1.2-2.8-1.8-4.3c-0.6-1.6-1.3-3.2-3.3-3.4
	c-2.1-0.2-3.5,1.3-4.2,2.9c-1,2.2-1.7,4.6-2.3,6.9c-0.7,2.6-0.9,5.4-1.7,8c-0.3,1.1-1.6,2-2.4,3c-0.6-1-1.6-2-1.7-3.1
	c-0.4-5.8-0.5-11.6-0.6-17.4c0-0.2,0.1-0.4,0.2-0.8c0.7,0.1,1.3,0.2,2,0.2c2.6,0.2,4.8-1.6,5-4.2c0-0.6,0.1-1.1,0.1-1.7
	c0.2-4,0.2-4,4.1-5.1c3-0.8,3.4-2.4,1.9-5.1c-1.1-2-1.6-4.3-2.4-6.5c-2.3-6.7-4.3-13.4-3.7-20.6c0.2-2.6,0.9-4.6,3.1-6.3
	c2.9-2.3,3.2-5.7,2.8-9c-0.3-2.7-0.3-5.2,1.1-7.6c0.9-1.6,2.1-2.7,4-2.7c1.8,0,2.1,1.6,2.7,2.9c0.8,1.5,1.4,3.3,2.4,4.6
	c3.1,4,6.8,4.7,11.5,2.7c1.8-0.7,3.7-1.2,5.6-1.6c2.6-0.4,4.5,1.2,5.8,3.6c2.3,4.4,1.5,8.2-1,12.1c-1.9,2.8-1.6,5.5,0.3,8.4
	c1.9,3,1.9,6.5-0.1,9.6C249.7,255.9,248.3,257.2,246.8,259.1z"/>
<path d="M317.4,268.1c3.4,2.9,4.7,6.8,5.7,10.8c1,3.7,1.7,7.4,2.4,11.1c0.7,3.6,3.6,5.8,6,7.9c4.1,3.5,5.8,7.6,5.7,12.7
	c-0.1,7.1-2,13.9-4.9,20.3c-2.7,5.8-7.3,8.1-13.5,6.5c-5.1-1.3-7.8,2.1-10.8,4.9c-0.4,0.3-0.6,0.8-0.9,1.1c-3,2.9-5.9,2.2-7.1-1.9
	c-1.1-4-1.2-7.9,2.3-11.1c1.4-1.2,2.5-2.6,3.9-3.9c1.6-1.5,3.3-2.2,5.7-1.3c3.6,1.4,6.5-0.9,9.4-2.4c0.4-0.2,0.7-0.5,1.1-0.7
	c5.7-2.3,6.3-7.2,6.4-12.4c0-2-1.3-3.4-3-4c-1.7-0.6-3.2,0.4-4.2,1.8c-1.1,1.5-1.9,3.1-2.8,4.7c-0.2,0.4-0.4,1-0.7,1.3
	c-0.7,0.5-1.7,1.2-2.3,1c-0.6-0.2-1.1-1.4-1.1-2.2c-0.2-4.2,1.2-8.1,2.8-11.8c2.6-5.8,3.3-11.7,2.6-18.1c-0.4-4.1-1.7-7.6-3.8-11
	C315.5,269.9,316,269,317.4,268.1z"/>
<path d="M118.2,171.7c-0.5,2.3-1,5.2-1.7,8c-0.1,0.5-0.9,0.9-1.4,1.1c-5.2,2.6-9.7,6.1-12.8,11c-1.5,2.4-2.5,5.2-3.2,7.9
	c-2,7.6-3,15.5,0.3,22.9c2.7,6.3,6.5,12.1,9.8,18.1c0.8,1.5,2,2.7,2.8,4.2c0.9,1.7,0.2,3.1-2,4.1c-1.9,0.8-2.3-0.7-2.8-1.9
	c-1.1-2.5-2.1-5.1-3.2-7.5c-0.4-0.9-1.1-1.6-1.8-2.3c-4-4.2-8.2-8.3-11.9-12.8c-2.7-3.4-4-7.6-3.7-12c0.2-2.5,0.5-5,3.4-6.6
	c4.6-2.5,4.8-6.2,3.7-12.2c-1.1-6.2-1.7-12.4-0.8-18.6c0.4-2.6,1.2-5.3,2.3-7.8c1-2.1,2.7-2.7,4.5-1.3c3.7,2.9,7.1,1.9,10.7,0.1
	C115.3,163.9,118.2,165.8,118.2,171.7z"/>
<path d="M154.6,247.8c-6-4.6-12-9-16.7-14.8c-0.9-1.1-1.5-2.5-1.9-3.9c-0.2-0.6,0.6-1.5,0.9-2.3c0.6,0.4,1.4,0.7,1.7,1.2
	c0.9,2,2,3.3,4.5,3.4c1,0.1,2.1,1.4,2.8,2.4c1.9,2.8,4.3,4.7,7.9,4.2c0.7-0.1,1.5-0.2,2.2-0.5c2.6-1,5.1-1.6,7.5,0.6
	c0.5,0.4,1.1,0.7,1.6,1c4.3,1.9,6.6,1.5,9.7-2c4.3-5,5-10.7,3-16.8c-1.8-5.6-3.7-11.2-6-16.6c-1-2.4-2.7-4.4-4.3-6.5
	c-1.2-1.6-2.3-2.9-1.7-5.3c0.8-3.3,0.6-6.9,1.3-10.2c0.6-3.4,1.9-6.6,4.7-9c1.5-1.3,3-1.4,4.6-0.4c5.4,3.2,7,9.1,4.1,15.3
	c-1.2,2.6-2.3,5.3-3.2,8c-1.3,4.2,0,8.2,1.5,12.1c2.9,7.3,5.6,14.7,6.4,22.6c0.4,4.3-0.8,8.1-3.3,11.5c-0.5,0.7-1.8,1.1-2.8,1.1
	c-3.3-0.1-6,0.8-8.2,3.4c-0.6,0.7-2.1,1.1-3,0.9c-1.9-0.4-3.8-1-5.5-2c-2.5-1.5-4.7-1.4-6.6,0.8
	C155.5,246.6,155.1,247.2,154.6,247.8z"/>
<path d="M176.2,330.6c3.1,1.8,6.1,3.5,9.1,5.4c2.8,1.8,2.9,4.6,2.7,7.5c-0.2,2.8-0.6,5.6-0.6,8.4c0,4.3,3,7.4,7.2,7.1
	c5.2-0.4,10.5-0.8,15.5-2.2c3.9-1.1,6.9-4.2,8.9-8c1.3-2.4,2.4-4.9,3.8-7.8c1.2,1.1,2.8,2.1,3.6,3.5c1.8,3.3,2.5,6.8,0.7,10.5
	c-0.6,1.3-1.2,2.7-1.9,4c-2.2,4.4-6.2,5.4-10.6,5.4c-3.6,0-5.9,1.9-6.6,5.4c-0.2,0.9-0.4,1.8-0.7,2.6c-1.3,3-4.2,3.6-6.6,1.3
	c-1.4-1.4-2.7-2.8-4.3-3.9c-3.3-2.3-6.5-0.6-9.6,0.5c-0.1,0-0.1,0.1-0.2,0.1c-5.5,3.2-6.1,0.2-6.8-3.8c-0.8-5.1,0.4-10.2,1.2-15.2
	c0.4-2.4-0.5-4.7-2.4-6.2c-1.6-1.2-1.4-2.2-0.5-3.5c1.7-2.3,2.2-4.7,0.3-7.1c-0.4-0.5-0.8-1.1-1.3-1.3
	C175,332.4,175.5,331.5,176.2,330.6z"/>
<path d="M265.4,337.2c0,4.3,0,8.1,0,12c0,1.1-0.7,1.4-1.8,1c-0.5-0.2-1-0.4-1.8-0.7c-0.5,2-0.9,4-1.5,6.1c-0.8-0.6-1.4-1-1.9-1.4
	c-1.8-1.3-3-0.8-3.2,1.5c-0.3,3.8-0.5,7.7-0.6,11.6c0,1.3-0.5,2.1-1.8,2.5c-2.6,0.7-5.3,1.4-7.9,2c-3.4,0.7-4.9,0.2-6.5-2.8
	c-1.2-2.2-2-4.7-2.4-7.1c-0.6-3.6,1-5.7,4.6-6.3c4.7-0.8,6.6-4.5,4.8-8.4c-0.2-0.5-0.1-1.2,0.2-1.7c1.4-2.8,2.6-5.8,4.4-8.3
	c1.2-1.7,3-3.2,4.9-4.1c0.9-0.4,2.8,0.5,3.8,1.4C260.6,336.2,262.2,338,265.4,337.2z"/>
<path d="M180.2,301.6c8.7-1.6,11.4-8.2,12.9-16.4c2,2.6,2.8,5.1,2.6,7.6c-0.4,5-1.1,10-1.7,15c-0.1,1-0.1,2.1,0.1,3.1
	c0.5,2.9,1.7,4.1,4.6,4.8c6,1.4,9.6,4.7,8.9,11.2c-0.3,3.3-1.1,6.6-1.9,9.8c-0.5,1.8-2,3-4.1,2.6c-2-0.4-2.4-2.2-2.7-3.8
	c-0.6-3.9-1.4-7.6-3.8-10.8c-1.2-1.6-2.5-2.9-4.7-3.2c-3.5-0.4-6.9-1.1-10.3-1.6c-1.2-0.2-1.4-0.7-1.3-1.8
	C179.2,312.7,179.7,307.1,180.2,301.6z"/>
<path d="M320.7,252.4c-1-4.1-1.8-8.1-2.9-11.9c-0.4-1.5-1.6-2.8-2.4-4.1c-1.3-2.1-1-2.6,1.3-3.5c2.7-1,5.3-2.2,6.5-5.2
	c1-2.4,1-4.6-0.4-6.8c-2.4-3.8-1.9-5.3,1.8-8c3.9-2.9,8.5-3.8,13.1-3.7c2.3,0,4.7,1.7,6.6,3.2c1.6,1.2,1.3,3.2-0.3,4.6
	c-1.3,1.2-2.8,2.2-4.1,3.3c-1.5,1.2-1.4,2.1,0.2,3c3.7,2,3.7,2.6,0.1,4.9c-1.2,0.7-2.6,1-3.7,1.8c-2.1,1.6-4.2,3.3-5.8,5.3
	c-3.4,4.4-6.3,9.1-6.5,14.9C324.2,252.9,321.6,251.6,320.7,252.4z"/>
<path d="M168.6,359.5c3.3,3.2,4.5,7.6,4.1,12.6c-0.1,1-0.4,1.9-0.8,2.8c-1,2.1-2.9,2.2-4.2,0.2c-0.6-1-1.2-2.1-1.9-3
	c-2.4-3.5-7.4-3.3-9.3,0.3c-1.6,2.9-1.5,5.8,0.5,8.5c1,1.3,2.1,2.8,3.5,3.6c5.6,3.3,5.7,10.7,2.7,15.5c-0.1,0.1-0.1,0.3-0.3,0.3
	c-1.1,0.9-2.3,1.8-3.5,2.7c-0.7-1.2-1.3-2.5-2.2-3.6c-0.7-0.9-1.6-1.9-2.6-2.4c-1-0.6-1.6-1-1.6-2.3c0-4.4-1.5-8-5.7-10.2
	c-3.3-1.7-5.1-4.6-4.6-8.5c0.5-3.2,2.6-5.6,5.1-7.2c3-1.9,6.4-3.1,9.6-4.5C161.2,362.6,164.8,361.1,168.6,359.5z"/>
<path d="M271.4,387.6c1.6-3.6,3-6.8,4.5-10.2c1.7,0.8,3.1,1.6,4.6,2.2c5.8,2.3,11.9,3.7,17.2,7.5c1.8,1.3,4.5,1.3,6.8,1.9
	c3.7,1,7.3,2,10.9,3.1c0.5,0.1,1.2,1,1.1,1.4c-1.1,3.8-2.3,7.6-3.7,11.3c-0.1,0.4-1.4,0.7-2,0.5c-2.4-0.5-4.8-1.2-7.1-2
	c-5-1.7-10-3.5-15-5.5c-0.6-0.2-1.1-1.2-1.5-1.9c-0.7-1.5-0.9-3.2-1.9-4.5c-1.4-2-3.2-3.4-6.2-2.7c-2.1,0.5-4.4-0.1-6.6-0.4
	C272.1,388.4,271.6,387.8,271.4,387.6z"/>
<path d="M129.3,164.2c0.8,0.5,1.6,1,2.4,1.5c2,1.2,4.2,1.1,5.4-0.9c1.4-2.2,2.7-4.6,3.4-7.1c0.8-2.9,0.8-6.1,1.3-9.1
	c0.5-3.2,2.8-5.1,5.3-4.8c1.5,0.2,2.2,1,2.2,2.3c-0.2,3.5-0.5,7-0.7,10.4c0,0.4-0.2,0.8-0.3,1.2c-0.4,4.4,0.4,6.2,4.5,6.8
	c1.4,0.2,3.7,0.6,4,1.5c0.7,2.1,1.1,4.6,0.6,6.7c-0.6,3-2.1,5.8-3.2,8.7c-0.1,0.3-0.3,0.6-0.3,1c0,2.4-0.4,2.6-2.4,1.5
	c-2.7-1.4-5.4-2.7-8.1-3.9c-1.2-0.5-1.7-1-1.3-2.5c1.2-5.4-0.8-8.1-6.4-8.3c-2.7-0.1-4.6-1.3-6.3-3.3c-0.3-0.4-0.4-0.9-0.6-1.3
	C128.9,164.5,129.1,164.4,129.3,164.2z"/>
<path d="M338.7,302.6c-2.9-3.1-5.8-5.9-8.5-9c-1.2-1.4-2.2-3.1-2.7-4.8c-1.4-4.8-2.3-9.8-3.8-14.5c-0.9-2.8-2.6-5.2-4.1-7.8
	c-1.6-2.7-0.6-10.1,1.9-11.9c0.5-0.3,1.3-0.2,1.9-0.3c0.1,0.6,0.3,1.2,0.1,1.7c-1.4,4.4-1,8.9,0.4,13c1.6,4.9,4,9.6,6.4,14.2
	c3.3,6.3,11.1,7.8,17.3,4.4c2-1.1,4.3-1.4,6.5-1.9c0.5-0.1,1.1,0.8,1.7,1.2c0.4,0.4,0.7,1,1.2,1.4c1.9,1.5,2.2,3.8,0.8,5.8
	c-0.4,0.6-0.8,1.3-1.2,1.9c-1.4,2.3-3.1,3.7-6.1,3.5C343.9,299.2,343.4,299.5,338.7,302.6z"/>
<path d="M111.5,295.2c-0.4-4.6-2.4-8.2-6.5-10.6c-4.1-2.4-7.6-5.2-8.9-10.1c-0.9-3.4-0.4-6.7,1.3-9.5c1.7-2.8,2-5.5,0.8-8.4
	c-0.8-1.9,0-2.9,1.3-3.9c1.4-1.2,2.8-0.8,4.1,0c2.6,1.6,3,5.1,1,7.3c-2.1,2.4-2.8,10-0.7,12.4c1.4,1.6,3.5,2.6,5.3,3.6
	c3.8,2.1,7.3,4.6,9.1,8.7c2.1,4.6,2.4,9.3-0.8,13.8c-0.7,1-1.5,1.3-2.7,0.9C112.7,298.7,111.3,297,111.5,295.2z"/>
<path d="M314.5,339.5c0.7,5.1-1.7,9.1-3.3,13.4c-1.8,4.7-3.8,9.3-5.6,14c-1.2,3.1-2.2,6.2-3.3,9.3c-0.1,0.4-1.2,0.8-1.5,0.6
	c-2.7-1.2-5.3-2.7-7.9-4c-1.6-0.8-1.3-2.1-0.9-3.3c1.3-3.6,2.6-7.1,4-10.6c1.5-3.6,3.2-7,4.8-10.5c0.5-1.1,1-1.5,2.4-1.3
	c2.7,0.4,4.3-1.7,5.9-3.4C310.6,342.1,311.9,340.2,314.5,339.5z"/>
<path d="M303.7,384.9c0.7,0.2,1.4,0.5,2.1,0.6c3.7,0.2,7.4,0.4,11.1,0.6c1.9,0.1,3.1,2,2.4,3.8c-0.1,0.4-1,0.8-1.5,0.7
	c-4.8-1.2-9.5-2.5-14.2-3.9c-0.4-0.1-0.9-1.2-0.8-1.8c0.2-2.4,0.6-4.7,1.1-7.1c0.1-0.6,0.9-1.6,1.3-1.6c3.5,0.2,5.1-1.8,6.1-4.7
	c0.1-0.2,0.2-0.3,0.4-0.5c0.2,0.1,0.5,0.1,0.5,0.3c2.7,5.1,7.5,6.2,12.7,6.5c1.6,0.1,3.2,0.2,4.8,0.6c5.7,1.6,6.9,6.2,7.3,11.6
	c-2.5-1.7-5-2.4-7.7-1.1c-3.3,1.5-1.7,4.5-2.5,6.9c-0.9-2.1-1.8-4.3-2.7-6.4c-0.5-1.2-0.9-2.4-1.7-3.4c-0.6-0.8-1.7-1.4-2.7-1.6
	c-2.6-0.3-5.3-0.3-7.9-0.4c-2.1-0.1-4.2-0.3-6.3-0.4c-0.6,0-1.1,0.3-1.7,0.4C303.7,384.3,303.7,384.6,303.7,384.9z"/>
<path d="M361.8,256.4c-0.2,4.4-1.7,8.6-6,11.2c-2.6,1.6-5.4,1.3-8.1,0.2c-3.3-1.3-5.8-3.8-8-6.6c-1.2-1.5-1.5-6.4-0.5-7.9
	c1-1.6,3-2.2,5.7-1.5c2,0.5,3.9,1.6,5.9,2.1C354.3,254.9,357.9,255.6,361.8,256.4z"/>
<path d="M257.7,356c1.9,1.2,3.8,2.5,5.7,3.7c3.7,2.5,7.4,5,11.2,7.4c1.3,0.8,1.8,1.8,1.3,3.2c-1.3,3.8-2.6,7.7-3.9,11.5
	c-0.4,1.1-0.8,2.2-1.2,3.3c-0.2,0-0.4,0-0.5,0c-0.1-1.1-0.3-2.1-0.2-3.2c0.5-6-2.6-9-7.7-11.1c-1.5-0.6-3.1-0.7-4.6-1.2
	c-0.6-0.2-1.4-0.8-1.4-1.2c0-4,0.1-7.9,0.2-11.9C257,356.3,257.3,356.2,257.7,356z"/>
<path d="M274.5,355.7c-2.3-1.3-4.6-2.5-6.9-3.9c-0.5-0.3-0.8-1.1-0.8-1.7c0.1-3.6,0.3-7.2,0.6-10.8c0.1-1.1,0.8-2.2,1.2-3.3
	c1.1,0.6,2.5,1,3.2,1.9c1,1.3,1.4,3,2.1,4.5c0.7,1.5,1.3,3.1,1.9,4.6c0.2,0.5,0.4,1.1,0.3,1.5C275.8,350.8,275.2,353.1,274.5,355.7z
	"/>
<path d="M318.3,339.2c2.6,0.1,2.8,0.5,2,3.1c-1.2,3.7-2.3,7.5-3.4,11.2c-0.2,0.5-0.4,1.1-0.8,1.4c-4.4,2.5-5.3,6.5-5,11.2
	c0.2,3-1.9,5.3-3.2,7.7c-0.3,0.6-1.6,0.7-2.4,1c-0.2-0.2-0.3-0.4-0.5-0.6C309.3,362.6,313.8,350.9,318.3,339.2z"/>
<path d="M286.3,378.8c0.9-1.1,1.9-2,2.5-3c1.1-2.1,2.5-1.7,4.1-0.8c2.4,1.3,4.9,2.5,7.2,3.8c0.5,0.3,1.1,0.9,1.1,1.4
	c0,2,0.1,4.1-1.4,5.7C295.4,383.5,291,381.2,286.3,378.8z"/>
<path d="M274.4,365.2c-2.8-2-5.3-3.6-7.7-5.4c-1.1-0.8-2.3-1.6-3.3-2.6c-0.5-0.4-0.9-1.2-0.9-1.7c0.1-1.1,0.6-2.2,0.9-3.4
	c0.9,0.4,1.9,0.7,2.8,1.2c2.7,1.4,5.5,2.8,8.1,4.4c0.7,0.4,1.3,1.5,1.3,2.2C275.5,361.6,274.9,363.1,274.4,365.2z"/>
<path d="M315.3,409.7c-1.9-1.1-1.8-1.1-0.7-3.8c1.4-3.3,2.7-6.6,4.3-10.4c0.5,1.1,0.9,1.6,1.2,2.3c1,2.8,1.7,5.8,2.9,8.5
	c0.8,2,0,2.2-1.7,2.4C319.4,408.8,317.6,409.2,315.3,409.7z"/>
<path d="M321.8,388.4c1.3,3.3,2.5,6.3,3.7,9.2c0.7,1.7,0.5,4.2,3.2,4.7c0.2,0,0.4,1,0.3,1.5c-0.3,1.1-0.7,2.1-1.2,3.1
	c-0.6,1.2-1.8,1.2-2.3-0.1c-1.6-4.2-3.2-8.4-4.4-12.7C320.7,392.6,321.5,390.7,321.8,388.4z"/>
<path d="M428.2,192.3c-0.5,4.6-1.1,8.6-1.4,12.7c-0.4,6.3-1.7,12.5-0.5,18.8c0.5,2.6,1.7,4.6,3.4,6.4c3.9,3.8,6.5,8.3,7.3,13.7
	c0.3,2.2,0,4.6-0.3,6.9c-0.2,1.6-1.3,2.4-3.1,2.6c-1.1,0.1-2.5,0.7-3,1.6c-1.4,2.2-2.4,4.7-3.4,7.1c-0.5,1.3-0.7,2.7-1.3,4
	c-0.8,1.5-2,1.6-2.9,0.2c-0.7-1.1-1.3-2.5-1.1-3.7c0.3-2.3,1-4.6,1.7-6.9c0.9-2.8,2-5.5,2.7-8.4c0.3-1.1,0.1-2.4-0.2-3.5
	c-0.4-1.9-1.5-3.3-3.8-3.2c-1,0.1-2.1,0-3.2,0c-2.4,0-3.2-0.5-3.3-3c-0.2-3.1-0.3-6.3-0.4-9.4c-0.2-5.9-0.1-11.8-0.4-17.6
	c-0.2-4.2-1-8.4-1.2-12.5c-0.3-5-0.5-10-0.5-15c0-0.8,0.9-1.6,1.3-2.3c0.7,0.5,1.8,0.8,2.1,1.5c0.8,2.3,1.4,4.8,2,7.2
	c0.4,1.7,2.1,3.2,3.7,3c0.6-0.1,1.4-0.8,1.5-1.4c0.3-1.3,0.2-2.6,0.4-4c0.1-0.5,0.4-1,0.6-1.5c0.5,0.3,1.4,0.4,1.5,0.8
	C427.1,188.5,427.7,190.6,428.2,192.3z"/>
<path d="M420.2,143.2c-0.5,2.8-0.7,5.3-1.4,7.6c-0.9,3.1-0.1,6.1,0.1,9.1c0.1,2.4-0.6,4.8-1,7.2c-0.1,0.3-1,0.7-1.1,0.6
	c-0.4-0.4-0.9-0.9-1-1.5c-0.4-2.7-0.6-5.4-1-8.1c-0.9-5.6-1.9-11.2-2.8-16.7c-0.4-2.1-0.8-4.3-0.8-6.4c0-1.1,0.9-2.3,1.7-3.1
	c1.3-1.1,2.5-0.6,3.2,0.9c0.7,1.5,1.5,2.9,2,4.4C418.9,139.2,419.5,141.3,420.2,143.2z"/>
<path d="M42.4,242.6c1.5,1.5,1.9,3.6,0.9,4.3c-0.4,0.2-1.4-0.1-1.8-0.5C40.1,244.9,40.3,244.4,42.4,242.6z"/>
<path d="M102.8,303.6c0.1,5,0.2,10,2.4,14.6c2.4,5.2,6.4,7.2,12.1,6.9c8.2-0.4,13.5-5.3,17.8-11.8c3.3-5.1,4.7-10.7,5.1-16.5
	c0.3-4-0.4-8.1-1.2-12.1c-1-5-3.4-9.8-2.4-15c0.4-2.1,1.2-4.2,2.3-6c1.5-2.3,5.7-1.4,7.7,1.6c2.2,3.4,3.7,7.1,4.5,11.2
	c2.1,11.3,1.8,22.6,0.1,34c-0.7,4.5-1.6,8.9-4,12.9c-2.2,3.6-5.4,5.6-9.2,7c-0.4,0.1-0.8,0.1-1.2,0c-3.4-0.8-5.8,0.6-7.5,3.4
	c-0.5,0.9-0.6,2.3-0.3,3.3c0.3,1.3,1.5,1,2.7,0.8c1.6-0.2,3.4-1.3,4.8,0.7c1.5,2.3,1.5,4.7,0.5,7.1c-1.4,3.3-4.1,5-7.7,5.2
	c-2.8,0.1-5.5,0.8-8.5,0.4c-5.5-0.8-10-3-13.2-7.3c-1.4-1.9-2.1-4.2-3-6.5c-1.2-3.1-3-5.2-6.5-5.8c-6-0.9-9.1-7.5-8.4-12.3
	c0.5-3,0.1-5.6-1.5-8.2c-2.7-4.3-6.1-8-9.9-11.4c-3-2.7-4.4-6.2-4.7-10.1c-0.1-1.8,0.1-3.5,2-4.5c1.2-0.6,2.5-1.9,3.5-1.7
	c3.5,0.9,7.4,1.4,9.5,5.1c1,1.8,2,3.5,3,5.3c1.1,2,2.1,2.5,4.3,1.8c0.5-0.2,1.1-0.3,1.6-0.5c3.1-1.2,5,0,5.4,3.4
	c0.1,0.8,0.1,1.7,0.2,2.5C102.9,302,102.9,302.8,102.8,303.6z M151,289.8c-0.7-4.1-1.4-10.3-2.8-16.5c-0.7-2.8-2.4-5.5-4.3-7.8
	c-1.7-2.1-3.8-1.6-4.6,1c-0.7,2.4-1.3,5-1,7.4c0.4,3.6,1.6,7.1,2.6,10.5c2,6.8,1.1,13.6-0.3,20.4c-0.4,1.8-0.8,3.8-1.8,5.4
	c-2.7,4.5-4.9,9.2-9.6,12.3c-5.4,3.5-10.6,5.8-17.2,4c-4.4-1.2-7.2-3.7-8.8-7.7c-2-5.1-2.6-10.5-2.3-15.9c0.1-1.1,0.1-2.3-0.1-3.4
	c-0.4-2.5-1.3-2.9-3.8-2.2c-4.4,1.2-5.6,0.8-7.3-2.4c-0.6-1.2-1.4-2.3-2-3.4c-1.4-2.8-3.7-4.5-6.7-5.3c-3.6-0.9-6.1,0.8-5.5,4.4
	c0.3,2.1,1.2,4.4,2.5,6.1c2.6,3.2,5.8,5.9,8.5,9.1c3.4,3.9,6,8.1,5,13.9c-0.9,4.9,2.1,10.2,8.5,11.1c0.9,0.1,2.1,0.4,2.6,1.1
	c1.5,1.9,3.3,3.9,4,6.2c2.4,7.2,7.3,10.9,14.7,11.5c2.4,0.2,4.8-0.2,7.2-0.1c3.2,0,5.8-1.1,6.7-4.3c0.4-1.5,0.2-3.4-0.4-4.9
	c-0.2-0.5-2.3-0.2-3.6-0.4c-1.1-0.1-2.8,0-3.2-0.6c-0.8-1.3-1.5-3.2-1.2-4.6c0.9-3.3,5.4-5.9,8.9-5.8c1.5,0,3.1-0.3,4.4-0.9
	c4.3-1.9,6.3-5.8,7.6-9.9C150.5,309.5,150.6,300.7,151,289.8z"/>
<path d="M133.6,254.4c-5.4-5.4-9.4-11.7-13.1-18.1c-6.4-11.1-8.7-22.8-4.4-35.2c1.9-5.4,4.7-10.1,10.9-11.6c2.5-0.6,4.8-0.4,7,1.1
	c1.4,1,2.9,1.9,4.4,2.8c2.2,1.3,4.7,1.3,6.9,0.4c4.4-1.8,10.6,0.8,12.9,4.6c1.8,2.9,3.5,5.9,5,9c2.1,4.2,1.7,8.6,0.4,12.9
	c-0.3,1.1-1.1,2.3-2.1,2.8c-2.2,1.2-4.5,2.3-6.9,2.9c-1.8,0.4-3.6-0.2-4.7-2c-3-4.9-5.9-9.8-8.9-14.7c-2.1-3.4-5.1-5.3-9.2-5.2
	c-3.7,0.1-9.3,5.1-7.5,10.8c0.9,3,1.5,6.1,2.2,9.2c1.5,6.7,4.7,12.5,9,17.8c1.4,1.8,2.2,4,2.9,6.2c0.7,2.1-0.7,3.6-2.3,4.8
	C135.2,253.5,134.4,253.9,133.6,254.4z M134.3,253.1c0.5-1.3,0.5-2.2,0.9-2.5c1.8-1.3,1.2-2.8,0.4-4.3c-0.7-1.3-1.6-2.5-2.4-3.7
	c-1.7-2.7-3.6-5.4-5.2-8.1c-3.7-6.3-4.2-13.5-5.9-20.3c-0.4-1.7,0-4,0.9-5.5c4.5-7.3,12.5-8.4,18.2-1.6c3.5,4.1,5.7,9.2,8.6,13.9
	c1.1,1.8,2.2,4,4.7,3.6c2.9-0.4,6.1-1.3,7.2-4.4c1.4-4,1.8-8.2-0.3-12.1c-1.6-3.1-3.3-6.2-5.3-9c-2.4-3.5-6.5-4.8-10.6-3.5
	c-2.9,0.9-5.7,0.9-8.3-0.7c-1.5-0.9-2.9-1.9-4.5-2.8c-0.9-0.5-1.9-1.1-2.9-1c-4.6,0.4-8.2,2.5-10.3,6.8c-3,6.1-4.2,12.5-3.6,19.4
	c0.5,5.2,1.9,10.1,4.3,14.6c1.9,3.6,3.9,7.1,6.1,10.5C128.8,245.9,131.5,249.3,134.3,253.1z"/>
<path d="M155.6,264.8c-1.9-0.7-2.7-2.2-2.1-3.8c0.5-1.4,2.8-2.3,4.3-1.7c3.2,1.2,4.6,4.1,5.5,7.1c1.4,4.5,2.3,9.1,3.5,13.6
	c0.8,3,2.2,5.9,2.9,9c1,4.1,0.3,8.2-1.3,12.1c-1,2.3-4.3,4.1-6.6,3.6c-2-0.4-4-3-4.1-5.5c-0.1-5.1-0.1-10.1-0.3-15.2
	c-0.2-5.7-1.7-11.2-3.8-16.6c-0.2-0.6-0.1-1.4-0.1-2.1c0.6,0.5,1.6,0.9,1.9,1.5c2.6,6.4,4,13.1,3.9,20.1c-0.1,3.8,0,7.6,0.1,11.4
	c0.1,2.2,1.6,4.4,3.2,4.5c2.1,0.2,4.1-1.4,4.7-3.8c1.1-4.5,1-8.9-0.3-13.3c-1.8-6-3.4-12.2-5.2-18.2c-0.6-1.9-1.8-3.7-3-5.3
	c-0.5-0.6-1.7-0.7-2.5-1c-0.2,0.8-0.4,1.5-0.5,2.3C155.6,263.9,155.6,264.2,155.6,264.8z"/>
<path d="M144.8,335.4c0-3.4,1.7-6,3.7-8.5c2.7-3.3,5.6-6.5,8-10c0.9-1.4,0.6-3.6,1.1-5.4c0.4-1.2,0.9-2.8,1.9-3.4
	c2.5-1.7,5.3-1.8,7.9-0.1c2.6,1.7,3.7,4.3,3.7,7.2c0,3.6-1.3,7-4.2,9.3c-2.5,2-3.8,4.6-5,7.4c-1,2.4-2.2,4.7-3.6,6.8
	c-1.9,2.7-4.9,3.5-8,3.4C147.5,342.2,144.8,338.7,144.8,335.4z M169.3,315.8c-0.3-1.1-0.6-2.3-1-3.5c-0.7-2.4-2.8-3.9-5.2-3.8
	c-2.6,0.2-3.3,0.8-3.6,4.1c-0.4,4-2.3,7.1-5,10c-1.8,1.9-3.9,3.7-5.4,5.9c-1.3,1.9-2.2,4.2-2.6,6.5c-0.5,3.4,3.3,6.1,6.5,5.2
	c4.1-1.2,5.6-4.5,6.9-8.1c1.2-3.2,2.5-6.3,5.4-8.5C167.8,321.9,169,319.1,169.3,315.8z"/>
<path d="M236,284.2c-1.1-6.8-2-13.7-3.2-20.5c-0.8-4.1-2.1-8.1-3.1-12.2c-0.4-1.8,0.1-3.3,1.7-4.1c1.8-0.8,2.8,0.6,3.8,1.8
	c3.1,3.9,4.5,8.5,5.5,13.3c1.4,7,3.2,13.9,4.5,20.9c1.2,6.4,2.2,12.8,3.3,19.3c0.5,2.7-0.2,5.3-1.8,7.4c-0.8,1-2.5,1.9-3.7,1.7
	c-2.3-0.2-4.7-1-6.9-1.9c-3.7-1.5-4.8-5.1-5.8-8.5c-0.3-0.8,0.5-2.5,1.3-3c2.6-1.8,3.1-4.4,3.5-7.1c0.3-2.3,0.3-4.6,0.4-6.9
	C235.7,284.2,235.8,284.2,236,284.2z M232.4,249.1c-0.3,0.1-0.6,0.2-0.8,0.3c0.1,1.3,0.1,2.6,0.4,3.8c0.6,2.2,1.2,4.4,2,6.6
	c2.5,7.2,2.8,14.7,3.4,22.2c0.3,4.4,0.2,8.9-1.4,13c-0.7,1.7-2,3.1-2.9,4.7c-0.4,0.6-0.8,1.5-0.6,2.1c1,3.3,2.5,6.3,6.4,7.1
	c0.7,0.2,1.5,0.5,2.2,0.7c3,1.1,5.3,0.1,5.5-3.1c0.2-3.1-0.3-6.2-0.8-9.3c-0.7-4.8-1.4-9.6-2.3-14.3c-1.2-5.9-2.5-11.7-3.9-17.5
	c-1.1-5.1-2.7-10-5.4-14.5C233.6,250.2,233,249.7,232.4,249.1z"/>
<path d="M303,287.5c-0.2,4.5-1.1,8.1-2.9,11.3c-1.6,2.9-4.8,3.9-7.6,3.6c-5.1-0.6-8.2,1.9-11.3,5.2c-1.5,1.6-3,3.4-5.5,2.8
	c-1.2-0.3-2.8-1.1-3.2-2.1c-2-4.7-3.6-9.5-3.5-14.8c0-1.6,2-2.7,3.3-1.8c1.5,1.1,2.8,2.4,4.3,3.3c1.1,0.7,2.4,1.4,3.6,1.3
	c5.1-0.4,9.9-2,14.1-4.9c0.7-0.5,1-1.4,1.6-2.2c0.9-1.2,1.6-2.6,2.7-3.3c1-0.6,2.5-0.7,3.7-0.4C302.7,285.6,302.9,287.1,303,287.5z
	 M271.2,293.2c0.4,1.7,1,2.9,1,4.1c-0.1,1.8-0.5,3.4,0.3,5.2c0.6,1.2,1,2.5,1.4,3.7c0.9,2.7,2.9,3.2,4.9,1.3c1-1,1.9-2.1,2.9-3.1
	c2.8-2.8,5.9-4.5,10.1-3.9c3,0.5,6.4-1.5,7.3-4c0.7-1.9,1.2-3.9,1.6-5.8c0.2-1.2-0.2-2.5-0.3-3.7c-1,0.9-2.3,1.6-2.9,2.7
	c-1.1,1.9-2.3,3.5-4.4,4.3c-3.1,1.1-6.1,2.6-9.2,3.4c-4,1-8,1.2-10.7-3C272.7,293.9,272,293.7,271.2,293.2z"/>
<path d="M273.9,255.7c-2.8-2.9-3.1-6.2-0.4-8.8c1.6-1.5,4.3-2,6.6-2.7c1.2-0.4,2.5-0.3,3.8-0.3c2.3,0,3.9-1.1,5.5-2.7
	c2.9-3.1,6.8-3.9,10.7-3.5c1.3,0.2,2.9,1.9,3.4,3.3c0.4,1-0.6,2.7-1.4,3.8c-1.5,2-3.3,3.8-5,5.7c-4.3,4.6-9.5,6-15.5,4.4
	c-2.5-0.7-4.6-0.7-6.8,0.6C274.5,255.7,274.1,255.7,273.9,255.7z M285.8,253.7c3.7,0,7.6-2,10-4.8c1.4-1.6,2.9-3.2,4.3-4.9
	c0.6-0.8,1.6-2.3,1.3-2.7c-0.8-0.9-2.1-1.9-3.3-2c-3-0.5-5.5,1-7.4,3.1c-2.1,2.2-4.6,3-7.5,3.1c-1.7,0.1-3.4,0.2-5,0.6
	c-2.8,0.7-4.6,2.8-4.4,5.1c0.1,1.3,0.5,2,2.2,1.7c1.9-0.3,3.9-0.2,5.9,0C283.4,253.1,284.8,253.6,285.8,253.7z"/>
<path d="M380.1,260.4c-2.1,7.2-2.9,15-8.7,20.8c-2.2,2.2-4.7,3.4-8,2.6c-1.1-0.3-2.3,0-3.3-0.4c-1-0.4-2.2-1.2-2.5-2.1
	c-0.3-0.8,0.2-2.2,0.8-2.9c0.9-1,2.3-1.7,3.5-2.5c4.1-2.9,5.3-7.3,5.9-11.8c0.4-3,1.2-5.8,3.2-8.1c0.9-1,2.2-1.9,3.5-2.4
	c2.3-1,3.8-0.3,4.6,2C379.6,257.1,379.7,258.7,380.1,260.4z M364.8,282.3c0.7-0.1,1.8,0,2.8-0.4c2.7-1,4.6-3,5.7-5.6
	c1.3-3,2.4-6.1,3.3-9.3c1-3.3,1.4-6.7,0.5-10.2c-0.4-1.6-1.4-2.4-2.7-1.2c-1.3,1.1-2.7,2.5-3.3,4.1c-1.2,3.1-1.9,6.4-2.7,9.6
	c-1,4.3-3.9,6.8-7.5,8.7c-0.5,0.3-1.2,1.2-1.1,1.7c0.1,0.7,0.8,1.6,1.4,1.9C362.1,282.2,363.3,282.1,364.8,282.3z"/>
<path d="M370.6,223.5c2.3,0,3.7,0.8,4.5,2.6c0.7,1.7-0.1,3-1.4,4c-0.9,0.7-1.9,1.2-2.7,1.9c-1.1,1-2.6,2-2.9,3.2
	c-1,4.5-4.4,5.6-8.2,6.4c-1.7,0.4-3.4,0.6-5.2,1c-1.4,0.3-2.4,0.1-2.5-1.6c0-0.4-0.2-0.8-0.4-1.2c-1.2-2.4-0.5-4.7,2-5.3
	c3.2-0.8,5-3.1,7.3-5.1c2.2-2,4.7-3.7,7.2-5.4C368.9,223.6,370,223.7,370.6,223.5z M354.5,241.2c2-0.4,3.9-0.9,5.8-1.2
	c2.6-0.5,4.4-1.8,5.4-4.4c0.9-2.3,2.4-4.3,4.9-5.3c0.7-0.3,1.4-1,1.9-1.6c1-1.2,0.8-2.5-0.7-3c-1-0.3-2.2-0.3-3.2,0
	c-2.7,0.9-4.6,2.8-6.5,4.9c-1.9,2.1-3.7,4.6-7,5.1c-1.8,0.3-2.2,1.9-1.3,3.5C354.1,239.8,354.2,240.4,354.5,241.2z"/>
<path d="M151,289.8c-0.4,11-0.5,19.7-3.1,28.1c-1.3,4.1-3.3,8-7.6,9.9c-1.3,0.6-2.9,0.9-4.4,0.9c-3.5-0.1-8,2.5-8.9,5.8
	c-0.4,1.4,0.4,3.3,1.2,4.6c0.4,0.6,2.1,0.5,3.2,0.6c1.2,0.2,3.4-0.1,3.6,0.4c0.6,1.5,0.8,3.4,0.4,4.9c-0.9,3.2-3.5,4.4-6.7,4.3
	c-2.4,0-4.8,0.3-7.2,0.1c-7.4-0.6-12.3-4.3-14.7-11.5c-0.7-2.3-2.5-4.3-4-6.2c-0.5-0.7-1.7-1-2.6-1.1c-6.4-0.8-9.3-6.2-8.5-11.1
	c1-5.8-1.6-10-5-13.9c-2.7-3.1-5.9-5.8-8.5-9.1c-1.3-1.7-2.2-3.9-2.5-6.1c-0.5-3.6,1.9-5.3,5.5-4.4c3,0.8,5.3,2.5,6.7,5.3
	c0.6,1.2,1.4,2.3,2,3.4c1.7,3.1,2.9,3.6,7.3,2.4c2.4-0.7,3.3-0.3,3.8,2.2c0.2,1.1,0.2,2.2,0.1,3.4c-0.3,5.5,0.3,10.8,2.3,15.9
	c1.6,4,4.4,6.5,8.8,7.7c6.6,1.8,11.8-0.6,17.2-4c4.7-3,6.9-7.8,9.6-12.3c1-1.6,1.4-3.5,1.8-5.4c1.4-6.8,2.3-13.5,0.3-20.4
	c-1-3.5-2.2-7-2.6-10.5c-0.3-2.4,0.3-5,1-7.4c0.7-2.6,2.9-3.1,4.6-1c1.8,2.3,3.6,5,4.3,7.8C149.6,279.4,150.3,285.7,151,289.8z"/>
<path d="M134.3,253.1c-2.8-3.8-5.5-7.2-7.9-10.8c-2.2-3.4-4.2-7-6.1-10.5c-2.5-4.6-3.8-9.5-4.3-14.6c-0.7-6.8,0.6-13.2,3.6-19.4
	c2.1-4.4,5.7-6.4,10.3-6.8c0.9-0.1,2,0.5,2.9,1c1.5,0.8,3,1.9,4.5,2.8c2.6,1.6,5.4,1.6,8.3,0.7c4.1-1.2,8.2,0,10.6,3.5
	c2,2.9,3.7,6,5.3,9c2.1,3.9,1.8,8.1,0.3,12.1c-1.1,3.1-4.3,4-7.2,4.4c-2.5,0.4-3.6-1.8-4.7-3.6c-2.8-4.7-5.1-9.8-8.6-13.9
	c-5.7-6.8-13.6-5.7-18.2,1.6c-0.9,1.5-1.3,3.8-0.9,5.5c1.6,6.9,2.2,14.1,5.9,20.3c1.6,2.8,3.5,5.4,5.2,8.1c0.8,1.2,1.7,2.4,2.4,3.7
	c0.8,1.5,1.4,2.9-0.4,4.3C134.8,250.9,134.7,251.8,134.3,253.1z"/>
<path d="M169.3,315.8c-0.4,3.2-1.5,6.1-3.9,7.9c-2.9,2.3-4.2,5.3-5.4,8.5c-1.3,3.6-2.8,6.9-6.9,8.1c-3.3,0.9-7-1.9-6.5-5.2
	c0.3-2.3,1.3-4.6,2.6-6.5c1.4-2.2,3.5-4,5.4-5.9c2.7-2.8,4.6-6,5-10c0.3-3.3,1-4,3.6-4.1c2.4-0.2,4.5,1.4,5.2,3.8
	C168.7,313.6,169,314.8,169.3,315.8z"/>
<path d="M232.4,249.1c0.6,0.6,1.2,1.1,1.7,1.8c2.7,4.5,4.3,9.4,5.4,14.5c1.3,5.8,2.7,11.6,3.9,17.5c0.9,4.7,1.7,9.5,2.3,14.3
	c0.4,3.1,0.9,6.2,0.8,9.3c-0.2,3.1-2.5,4.2-5.5,3.1c-0.7-0.3-1.4-0.6-2.2-0.7c-3.9-0.8-5.4-3.8-6.4-7.1c-0.2-0.6,0.2-1.5,0.6-2.1
	c0.9-1.6,2.2-3,2.9-4.7c1.7-4.2,1.8-8.6,1.4-13c-0.5-7.5-0.9-15-3.4-22.2c-0.8-2.2-1.4-4.4-2-6.6c-0.3-1.2-0.3-2.5-0.4-3.8
	C231.8,249.3,232.1,249.2,232.4,249.1z"/>
<path d="M271.2,293.2c0.8,0.5,1.6,0.7,1.9,1.2c2.7,4.2,6.7,4,10.7,3c3.2-0.8,6.1-2.3,9.2-3.4c2.1-0.8,3.3-2.4,4.4-4.3
	c0.6-1.1,1.9-1.8,2.9-2.7c0.1,1.2,0.5,2.5,0.3,3.7c-0.3,2-0.9,3.9-1.6,5.8c-0.9,2.5-4.3,4.4-7.3,4c-4.2-0.6-7.3,1.1-10.1,3.9
	c-1,1-1.9,2.1-2.9,3.1c-2,1.9-4,1.4-4.9-1.3c-0.4-1.3-0.8-2.5-1.4-3.7c-0.8-1.7-0.4-3.4-0.3-5.2
	C272.2,296.1,271.6,294.9,271.2,293.2z"/>
<path d="M364.8,282.3c-1.5-0.2-2.7-0.1-3.6-0.6c-0.7-0.3-1.3-1.2-1.4-1.9c-0.1-0.5,0.6-1.4,1.1-1.7c3.7-1.9,6.6-4.4,7.5-8.7
	c0.7-3.2,1.5-6.5,2.7-9.6c0.6-1.6,2-3,3.3-4.1c1.3-1.1,2.3-0.3,2.7,1.2c0.9,3.4,0.5,6.8-0.5,10.2c-0.9,3.1-2,6.3-3.3,9.3
	c-1.1,2.6-3,4.6-5.7,5.6C366.6,282.3,365.5,282.2,364.8,282.3z"/>
<path d="M354.5,241.2c-0.3-0.8-0.4-1.4-0.7-1.9c-0.9-1.7-0.5-3.2,1.3-3.5c3.3-0.6,5.1-3,7-5.1c1.9-2.1,3.9-4,6.5-4.9
	c0.9-0.3,2.2-0.3,3.2,0c1.5,0.5,1.8,1.8,0.7,3c-0.5,0.6-1.2,1.3-1.9,1.6c-2.5,1-4,2.9-4.9,5.3c-1,2.6-2.8,3.9-5.4,4.4
	C358.4,240.3,356.5,240.7,354.5,241.2z"/>
</svg>
