<?xml version="1.0" encoding="utf-8"?>
<!-- Generator: Adobe Illustrator 17.1.0, SVG Export Plug-In . SVG Version: 6.00 Build 0)  -->
<!DOCTYPE svg PUBLIC "-//W3C//DTD SVG 1.1//EN" "http://www.w3.org/Graphics/SVG/1.1/DTD/svg11.dtd">
<svg version="1.1" id="Layer_1" xmlns="http://www.w3.org/2000/svg" xmlns:xlink="http://www.w3.org/1999/xlink" x="0px" y="0px"
	 viewBox="0 0 1000 1000" enable-background="new 0 0 1000 1000" xml:space="preserve">
<g id="Layer_1_1_" display="none">
	<g display="inline">
	</g>
</g>
<rect x="123.1" y="149.7" transform="matrix(0.5126 0.8586 -0.8586 0.5126 245.6528 -2.0701)" fill="#00AEEF" width="3" height="131.3"/>
<rect x="30.1" y="303.5" transform="matrix(0.118 0.993 -0.993 0.118 392.218 168.4224)" fill="#00AEEF" width="142.4" height="3"/>
<rect x="156.5" y="175.7" transform="matrix(0.4964 0.8681 -0.8681 0.4964 255.0582 -35.3544)" fill="#00AEEF" width="3" height="53"/>
<polygon fill="#00AEEF" points="143.5,337.9 133,251.2 159,274.7 157,276.9 137,258.8 146.5,337.5 "/>
<polygon fill="#00AEEF" points="138.2,370.3 119.1,359.2 263.8,241.1 263.8,271.7 260.8,271.7 260.8,247.5 124.3,358.8 139.8,367.7 
	"/>
<polygon fill="#00AEEF" points="139.8,289.6 138.2,287 270.5,199.4 270.5,221.7 267.5,221.7 267.5,205 "/>
<rect x="256" y="228.8" transform="matrix(0.7011 0.713 -0.713 0.7011 246.9681 -128.6959)" fill="#00AEEF" width="41.9" height="3"/>
<rect x="223.5" y="283.1" transform="matrix(0.1419 0.9899 -0.9899 0.1419 499.2583 -6.6248)" fill="#00AEEF" width="59.9" height="3"/>
<rect x="162.6" y="339.3" transform="matrix(0.1644 0.9864 -0.9864 0.1644 513.4364 75.5102)" fill="#00AEEF" width="99.1" height="3"/>
<rect x="247.2" y="276.2" transform="matrix(0.775 0.6319 -0.6319 0.775 234.8817 -104.3542)" fill="#00AEEF" width="33.5" height="3"/>
<rect x="275.5" y="260.3" fill="#00AEEF" width="3" height="50"/>
<rect x="300.2" y="185.2" transform="matrix(0.686 0.7276 -0.7276 0.686 268.8523 -144.3424)" fill="#00AEEF" width="3" height="108.2"/>
<rect x="295.8" y="239.8" transform="matrix(7.681064e-02 0.997 -0.997 7.681064e-02 546.2125 -107.2105)" fill="#00AEEF" width="70.3" height="3"/>
<rect x="301.6" y="244.5" transform="matrix(4.567424e-02 0.999 -0.999 4.567424e-02 581.666 -116.8685)" fill="#00AEEF" width="100.7" height="3"/>
<polygon fill="#00AEEF" points="354.9,289.5 353.1,287.1 446,217.7 451.8,245.7 448.8,246.3 444,222.9 "/>
<rect x="352.7" y="264.9" transform="matrix(0.3023 0.9532 -0.9532 0.3023 508.251 -161.7153)" fill="#00AEEF" width="23.8" height="3"/>
<polygon fill="#00AEEF" points="130.8,410.9 112.5,397 209,326 210.8,328.4 117.5,397 132.6,408.5 "/>
<polygon fill="#00AEEF" points="121,453 90,437.2 332.1,265.9 333.9,268.3 95.8,436.8 122.4,450.4 "/>
<rect x="-34.9" y="463.2" transform="matrix(6.888992e-02 0.9976 -0.9976 6.888992e-02 520.9988 371.1834)" fill="#00AEEF" width="193.1" height="3"/>
<rect x="20.8" y="493.2" transform="matrix(8.700415e-02 0.9962 -0.9962 8.700415e-02 543.2629 396.5234)" fill="#00AEEF" width="69" height="3"/>
<polygon fill="#00AEEF" points="62.6,522.9 60.8,520.5 235.6,378.7 243.2,480.2 240.2,480.4 233,384.7 "/>
<polygon fill="#00AEEF" points="123.9,471.9 112.4,464.9 225.4,374.5 227.2,376.9 117.6,464.5 125.5,469.3 "/>
<rect x="244.9" y="352.8" transform="matrix(0.1739 0.9848 -0.9848 0.1739 578.0305 19.572)" fill="#00AEEF" width="65" height="3"/>
<polygon fill="#00AEEF" points="265,403.4 263,401.2 356.2,321.6 356.2,305 359.2,305 359.2,323 "/>
<polygon fill="#00AEEF" points="272.5,366.2 270.9,363.8 436.5,251.5 436.5,327.2 433.5,327.2 433.5,257.1 "/>
<polygon fill="#00AEEF" points="419.1,272.3 417.5,269.7 578.9,170.9 567.7,206.7 564.9,205.9 573.7,177.7 "/>
<rect x="548.8" y="206.5" transform="matrix(0.6666 0.7454 -0.7454 0.6666 343.4997 -352.0291)" fill="#00AEEF" width="33" height="3"/>
<polygon fill="#00AEEF" points="541,315.1 508.9,266.7 587.2,211.9 580.5,244.6 577.5,244 582.8,218.7 513.1,267.5 543.5,313.5 "/>
<polygon fill="#00AEEF" points="284.5,423.1 281.5,423.1 281.5,405.5 380.1,333.1 381.9,335.5 284.5,407.1 "/>
<rect x="280.9" y="392.1" transform="matrix(0.7078 0.7065 -0.7065 0.7078 384.1711 -74.6802)" fill="#00AEEF" width="3" height="69.8"/>
<polygon fill="#00AEEF" points="306.1,526.3 286.7,381.9 289.7,381.5 307.9,517.1 324.6,488.2 327.2,489.8 "/>
<rect x="114.7" y="484.1" transform="matrix(0.4005 0.9163 -0.9163 0.4005 542.1335 142.6446)" fill="#00AEEF" width="94.6" height="3"/>
<polygon fill="#00AEEF" points="203.3,496 185.8,486.7 166.1,436.3 168.9,435.3 188.2,484.5 204.7,493.4 "/>
<rect x="181.6" y="459.9" transform="matrix(0.7298 0.6836 -0.6836 0.7298 403.805 14.9006)" fill="#00AEEF" width="3" height="116.9"/>
<polygon fill="#00AEEF" points="172,573.7 169.4,572.3 205.4,499.8 196.3,449.2 214.1,474.8 211.7,476.6 201.7,462.2 208.6,500.2 
	"/>
<rect x="157.7" y="456.5" transform="matrix(0.3817 0.9243 -0.9243 0.3817 541.5608 106.4766)" fill="#00AEEF" width="67.1" height="3"/>
<polygon fill="#00AEEF" points="544.3,380.1 543.1,377.3 562.7,368 463.2,271.3 467.8,300.8 464.8,301.2 458.8,262.9 567.9,368.8 
	"/>
<polygon fill="#00AEEF" points="564.3,395.4 472.6,312 441,360.2 438.4,358.6 472,307.4 566.3,393.2 "/>
<rect x="468.8" y="309.7" transform="matrix(0.9991 4.329595e-02 -4.329595e-02 0.9991 15.8544 -20.0283)" fill="#00AEEF" width="3" height="92.7"/>
<polygon fill="#00AEEF" points="415.7,466.8 400.6,452.4 400.6,451.8 393.4,330.9 424,312.4 451.4,342.1 449.2,344.1 423.4,316.2 
	396.6,332.5 403.6,451 415.7,462.6 477.2,401.2 479.4,403.4 "/>
<polygon fill="#00AEEF" points="496.2,512.8 484.2,500.7 476.8,369.6 469.1,360.4 471.3,358.4 479.8,368.4 487.2,499.3 498.4,510.6 
	"/>
<polygon fill="#00AEEF" points="344.8,436.6 342.6,434.4 441.2,337.2 441.2,369 438.2,369 438.2,344.4 "/>
<rect x="448.4" y="285.9" transform="matrix(0.7197 0.6943 -0.6943 0.7197 339.5538 -226.2314)" fill="#00AEEF" width="3" height="43.1"/>
<rect x="447.2" y="270.4" transform="matrix(0.677 0.736 -0.736 0.677 357.6569 -236.9048)" fill="#00AEEF" width="3" height="37.4"/>
<rect x="332.5" y="322.6" transform="matrix(0.6029 0.7978 -0.7978 0.6029 432.3557 -117.2953)" fill="#00AEEF" width="3" height="106"/>
<rect x="332.5" y="381.7" fill="#00AEEF" width="3" height="20.6"/>
<rect x="342.2" y="368.3" fill="#00AEEF" width="3" height="54.8"/>
<polygon fill="#00AEEF" points="335.5,511.9 322.2,410 358.8,447.7 356.6,449.7 326.4,418.6 338.5,511.5 "/>
<rect x="353.9" y="393.5" transform="matrix(0.7485 0.6632 -0.6632 0.7485 364.7761 -131.2422)" fill="#00AEEF" width="3" height="43.4"/>
<rect x="373.9" y="407.9" transform="matrix(0.5779 0.8161 -0.8161 0.5779 499.062 -146.039)" fill="#00AEEF" width="33.6" height="3"/>
<polygon fill="#00AEEF" points="549.5,337.8 546.5,266.3 624.2,214.1 625.8,216.5 549.5,267.9 552.5,337.6 "/>
<rect x="590.1" y="207.8" transform="matrix(0.5664 0.8242 -0.8242 0.5664 470.5316 -374.9769)" fill="#00AEEF" width="3" height="103.6"/>
<rect x="559.2" y="295.8" transform="matrix(2.908459e-02 0.9996 -0.9996 2.908459e-02 885.2091 -316.7405)" fill="#00AEEF" width="92.8" height="3"/>
<rect x="586.4" y="300.5" transform="matrix(0.6895 0.7243 -0.7243 0.6895 418.6729 -372.6612)" fill="#00AEEF" width="115.2" height="3"/>
<polygon fill="#00AEEF" points="666.5,327.3 663.4,295.6 765,217.4 769.2,277.6 766.2,277.8 762.4,223.2 666.6,297 669.5,327.1 "/>
<polygon fill="#00AEEF" points="749.8,464.9 616.2,369.8 616.2,351 791.7,268.7 797.8,398.9 794.8,399.1 788.9,273.3 619.2,353 
	619.2,368.2 749.6,461.1 789.3,425.9 791.3,428.1 "/>
<polygon fill="#00AEEF" points="814.9,518.7 773.8,384.5 877,485.7 879.5,451.6 882.5,451.8 879.6,492.3 780.2,394.9 817.7,517.9 
	"/>
<polygon fill="#00AEEF" points="896.5,609.2 893.5,608.8 914.5,434.1 780.4,501.3 779,498.7 918.1,428.9 "/>
<polygon fill="#00AEEF" points="745.8,355.6 744.2,353 893.8,256.6 888.5,285.6 885.5,285 889.6,262.8 "/>
<polygon fill="#00AEEF" points="778.2,340.8 775.4,206.8 839.3,266 837.3,268.2 778.6,213.8 781.2,340.8 "/>
<rect x="765.1" y="239.9" fill="#00AEEF" width="11.9" height="3"/>
<polygon fill="#00AEEF" points="816.8,423.4 806.5,367 761.5,383.1 760.5,380.3 808.9,363 819.8,422.8 "/>
<rect x="842.9" y="337.1" transform="matrix(0.5358 0.8444 -0.8444 0.5358 707.923 -539.2224)" fill="#00AEEF" width="3" height="74.3"/>
<polygon fill="#00AEEF" points="876.8,435.5 874.1,310.1 901.5,342.7 899.1,344.7 877.3,318.5 879.8,435.5 "/>
<path fill="#00AEEF" d="M898.8,409.2V307.7l28.6,59.4L898.8,409.2z M901.8,320.9v78.6l22.2-32.6L901.8,320.9z"/>
<rect x="907.8" y="366.7" transform="matrix(0.6692 0.7431 -0.7431 0.6692 606.9648 -539.433)" fill="#00AEEF" width="3" height="90.6"/>
<polygon fill="#00AEEF" points="949.7,498.3 864,428.2 866,425.8 945.7,491.1 941.5,460.5 944.5,460.1 "/>
<rect x="816.5" y="443.9" transform="matrix(0.3021 0.9533 -0.9533 0.3021 1050.9374 -428.242)" fill="#00AEEF" width="3" height="119.5"/>
<polygon fill="#00AEEF" points="670.8,616.2 604.2,564.5 584.6,347.5 635.4,406.6 633.2,408.6 588.4,356.5 607,562.9 672.6,613.8 
	"/>
<polygon fill="#00AEEF" points="590.1,659.3 564.3,522.7 480.8,579.1 534,621.5 532.2,623.9 475.8,578.9 566.3,517.7 593.1,658.7 
	"/>
<rect x="566.3" y="657.5" transform="matrix(0.6236 0.7818 -0.7818 0.6236 734.4434 -207.2721)" fill="#00AEEF" width="32.2" height="3"/>
<rect x="533.9" y="346" transform="matrix(0.3881 0.9216 -0.9216 0.3881 700.2977 -246.0045)" fill="#00AEEF" width="3" height="116.7"/>
<polygon fill="#00AEEF" points="451.4,508.7 449.2,506.7 522,423.5 525.8,451.5 522.8,451.9 520,430.5 "/>
<polygon fill="#00AEEF" points="509.6,479.5 503.5,462.5 555.5,424.3 559.2,455.5 556.2,455.9 553.1,429.7 507.1,463.5 512.4,478.5 
	"/>
<polygon fill="#00AEEF" points="385.9,549 368.8,533.4 370.8,531.2 382.1,541.6 363.8,352.1 366.8,351.9 "/>
<polygon fill="#00AEEF" points="384.7,546.6 383.3,544 586.5,439.8 586.5,465.8 549.1,508.7 546.9,506.7 583.5,464.6 583.5,444.8 
	"/>
<rect x="522.2" y="559.3" transform="matrix(0.1087 0.9941 -0.9941 0.1087 1048.702 -48.0553)" fill="#00AEEF" width="57.9" height="3"/>
<polygon fill="#00AEEF" points="262.6,492.8 230.3,477 231.7,474.4 262,489.2 309.7,441.2 311.9,443.4 "/>
<polygon fill="#00AEEF" points="349.8,605.6 348.9,605 229.2,525.6 235.6,509.3 261.3,528.1 247.5,483 270.1,455.3 267.5,442.6 
	270.5,442 273.3,456.1 250.9,483.6 266.7,535.9 237,514.1 232.8,524.4 349.6,601.8 373.6,581.8 375.6,584.2 "/>
<path fill="#00AEEF" d="M678.2,624.1v-15.8l110.3-89.7v19.8L678.2,624.1z M681.2,609.7v8.2l104.3-81.1v-12L681.2,609.7z"/>
<rect x="666" y="638.5" transform="matrix(0.3147 0.9492 -0.9492 0.3147 1077.5803 -212.5614)" fill="#00AEEF" width="40" height="3"/>
<rect x="483.7" y="619.5" transform="matrix(0.184 0.9829 -0.9829 0.184 1023.8893 8.6247)" fill="#00AEEF" width="46.2" height="3"/>
<path fill="#00AEEF" d="M124.3,542.9l-16.6-31.6l39.7-30.7l5.8,31.6L124.3,542.9z M111.6,512.1l13.4,25.6l25-26.5l-4.6-25.2
	L111.6,512.1z"/>
<polygon fill="#00AEEF" points="177.1,523 156.6,512.7 152.5,476 161.8,482 160.2,484.6 156.1,482 159.4,510.7 178.5,520.4 "/>
<rect x="247.7" y="511.3" transform="matrix(0.1622 0.9868 -0.9868 0.1622 754.2715 137.0919)" fill="#00AEEF" width="97.4" height="3"/>
<polygon fill="#00AEEF" points="322.8,555.5 308.6,548.2 363.4,473 365.8,474.8 313,547.2 324.2,552.9 "/>
<polygon fill="#00AEEF" points="270.2,625.9 267.8,624.1 375.9,483.6 329.1,450.8 303.1,484.4 300.7,482.6 328.5,446.6 380.1,483 
	"/>
<rect x="295.3" y="488.8" transform="matrix(0.1996 0.9799 -0.9799 0.1996 741.2458 73.0647)" fill="#00AEEF" width="61.1" height="3"/>
<polygon fill="#00AEEF" points="547.4,589.8 530.4,488.2 479,523 376.9,575.3 366.7,514.5 369.7,514.1 379.1,570.7 477.5,520.4 
	532.6,483 550.4,589.4 "/>
<polygon fill="#00AEEF" points="458.3,642.3 403.8,559.9 406.4,558.3 458.9,637.7 471.3,626.6 473.3,628.8 "/>
<polygon fill="#00AEEF" points="480.1,668.6 465.9,599.5 488.3,619.9 486.3,622.1 470.7,607.9 483.1,668 "/>
<polygon fill="#00AEEF" points="569.5,720 477.4,653.7 479.2,651.3 569.9,716.6 757.1,626.9 758.3,629.7 "/>
<polygon fill="#00AEEF" points="778.2,730 751.5,574.6 799.9,613.8 798.1,616.2 755.9,582 781.2,729.4 "/>
<rect x="818.3" y="584.3" transform="matrix(0.5385 0.8426 -0.8426 0.5385 957.199 -373.7366)" fill="#00AEEF" width="3" height="205.3"/>
<rect x="861.2" y="620.9" transform="matrix(0.5478 0.8366 -0.8366 0.5478 929.8596 -475.7057)" fill="#00AEEF" width="87.6" height="3"/>
<polygon fill="#00AEEF" points="788.8,677.8 772.5,627.6 856.2,577 857.8,579.6 776.1,629 790.6,673.6 852.4,645 853.6,647.8 "/>
<rect x="622" y="502.3" transform="matrix(0.6963 0.7177 -0.7177 0.6963 572.4404 -345.4824)" fill="#00AEEF" width="145" height="3"/>
<path fill="#00AEEF" d="M551.4,703l23.2-67.4l-33.7-24.3l-34.2,64.5l-2.7-1.4l35.8-67.5l38.3,27.7L557.2,695l120.8-86.7l-11.5-76.4
	l-14.1,12.2l-29.2-60.6l0,0l-12.1-25.8l28.4-29l6,17.1l-19,37.7l26.8,55.8l15.3-13.2l12.5,83.6l-0.7,0.5L551.4,703z M614.8,458.3
	l10.2,21.8l17.3-34.5l-4-11.3L614.8,458.3z"/>
<rect x="420.4" y="460.8" transform="matrix(0.1389 0.9903 -0.9903 0.1389 834.3495 -35.0845)" fill="#00AEEF" width="33.8" height="3"/>
<rect x="435.7" y="445.6" transform="matrix(0.7868 0.6172 -0.6172 0.7868 389.6724 -167.4017)" fill="#00AEEF" width="3" height="69.5"/>
<polygon fill="#00AEEF" points="468.1,486 455.7,437.1 482.7,465.6 480.5,467.6 461.5,447.5 471.1,485.2 "/>
<rect x="441.6" y="534.8" transform="matrix(7.659884e-02 0.9971 -0.9971 7.659884e-02 978.6458 15.7869)" fill="#00AEEF" width="78.3" height="3"/>
<rect x="408.6" y="563.1" transform="matrix(9.842867e-02 0.9951 -0.9951 9.842867e-02 942.6868 88.7729)" fill="#00AEEF" width="27.4" height="3"/>
<polygon fill="#00AEEF" points="140.3,672.3 137.7,670.9 208,529.4 196.9,519.4 198.9,517.2 211.8,528.6 "/>
<rect x="60.3" y="613.2" transform="matrix(0.7608 0.6489 -0.6489 0.7608 424.0201 78.876)" fill="#00AEEF" width="89.4" height="3"/>
<polygon fill="#00AEEF" points="165.1,586.8 98.8,528.8 114.2,518.9 115.8,521.5 103.8,529.2 167.1,584.6 "/>
<rect x="154" y="549.2" transform="matrix(0.2568 0.9665 -0.9665 0.2568 654.6294 250.0238)" fill="#00AEEF" width="21.4" height="3"/>
<polygon fill="#00AEEF" points="276,656.9 261.2,580.7 191.8,622.9 173.4,604.8 175.6,602.6 192.2,619.1 263.4,575.9 278,651.1 
	330,602.6 332,604.8 "/>
<polygon fill="#00AEEF" points="270,655.2 244.3,636.9 237.3,592.8 240.3,592.4 247.1,635.1 271.8,652.8 "/>
<polygon fill="#00AEEF" points="233.5,730 220.8,664.8 269.9,700.5 268.1,702.9 225.2,671.8 236.5,729.4 "/>
<polygon fill="#00AEEF" points="448.7,756.4 433.8,638.7 282,744.8 267.5,679.3 270.5,678.7 284,739.8 436.2,633.3 451.1,752.2 
	492.6,735.8 501.1,717.7 503.9,718.9 494.8,738.2 "/>
<rect x="504.9" y="652" transform="matrix(0.6865 0.7272 -0.7272 0.6865 661.4552 -151.4899)" fill="#00AEEF" width="3" height="78.7"/>
<polygon fill="#00AEEF" points="554.2,752.1 553.4,751.5 489.9,707.3 491.7,704.9 554.4,748.5 679,678.4 680.4,681 "/>
<polygon fill="#00AEEF" points="705.5,754.4 695,629.7 708.3,651.8 705.7,653.4 699,642.3 708.5,754.2 "/>
<rect x="681.2" y="666.9" transform="matrix(0.6008 0.7994 -0.7994 0.6008 823.2806 -270.7071)" fill="#00AEEF" width="3" height="44.3"/>
<polygon fill="#00AEEF" points="701.9,512.8 698.9,512.8 698.9,408.9 657.8,465.6 655.4,463.8 701.9,399.7 "/>
<polygon fill="#00AEEF" points="114.5,757.9 99.2,742.3 166.4,667.3 168.6,669.3 103.4,742.3 115.5,754.7 221.3,735.8 211.4,675.9 
	214.4,675.5 224.7,738.2 "/>
</svg>
