<?xml version="1.0" encoding="utf-8"?>
<!-- Generator: Adobe Illustrator 17.1.0, SVG Export Plug-In . SVG Version: 6.00 Build 0)  -->
<!DOCTYPE svg PUBLIC "-//W3C//DTD SVG 1.1//EN" "http://www.w3.org/Graphics/SVG/1.1/DTD/svg11.dtd">
<svg version="1.1" id="Layer_1" xmlns="http://www.w3.org/2000/svg" xmlns:xlink="http://www.w3.org/1999/xlink" x="0px" y="0px"
	 viewBox="0 0 200 200" enable-background="new 0 0 200 200" xml:space="preserve">
<g>
	<path fill="#FFFFFF" d="M48.8,83.4c0,0,25.5-9,36.5-35.8s37.5-38.9,42-25.8c0,0,9.5,19.3-22,49.8s-59.3,21.5-61.9,18
		C43.4,89.6,41.9,86.6,48.8,83.4z"/>
	<path fill="#FFFFFF" d="M115.7,99.6c-0.3-0.5-0.6-1-1-1.4c-0.7-0.8-1.6-1.6-2.4-2.3c-2.2-1.9-4.6-3.5-7.3-4.6
		c-7.4-3.1-14.8-1-20.4,4.6c0,0-8.8,7.2,0,18.2s0,41.8,0,41.8s-6.5,20.2,4.8,23s20.8-11.2,24.5-27.8c2.1-9.4,4.4-18.7,5.2-28.3
		C119.6,115.6,119.8,106.2,115.7,99.6z"/>
	<path fill="#FFFFFF" d="M157.3,103.8c0.7,1.5,1.3,3,1.9,4.4c3.1,7.2,5,15,4.5,22.9c-0.5,8.4-4.1,17.9-11,23.1
		c-0.1,0.1-0.2,0.1-0.3,0.2c-5,3.5-13.5,0.8-11.8-19.9s-4.5-32.1-4.5-32.1s-10-15.2-16.8-21.8c-6.8-6.5-3.2-10.8,5.8-8
		c5.9,1.8,11.2,6.6,15.8,10.5c3,2.5,5.7,5.3,8.4,8.1C152.4,94.6,155.3,99.7,157.3,103.8z"/>
</g>
<g>
	<path fill="#3FE6FF" d="M58.8,94.1c-8.7,0-14.6-2.5-15.8-4.2c-0.1-0.2-0.4-1,0-2.1c0.6-1.7,2.5-3.4,5.6-4.9
		c0.3-0.1,25.5-9.3,36.3-35.5C92.8,28,109,16,119.3,16c4.2,0,7.2,2,8.4,5.6c0.4,0.7,9.3,19.9-22.1,50.3
		C86.7,90.3,69.7,94.1,58.8,94.1z M119.3,17c-10.1,0-25.8,11.8-33.6,30.8c-11,26.6-36.5,35.9-36.8,36c-6.2,2.9-5.1,5.5-5.1,5.6
		c0.9,1.2,6.4,3.7,15,3.7c10.8,0,27.5-3.8,46.1-21.8c30.8-29.8,22-49.1,21.9-49.2C125.7,18.7,123.1,17,119.3,17z"/>
	<path fill="#3FE6FF" d="M92.6,180.1C92.6,180.1,92.6,180.1,92.6,180.1c-1,0-2-0.1-3-0.4c-2.4-0.6-4.2-1.9-5.3-4
		c-3.8-6.8,0-19.1,0.2-19.6c0.1-0.3,8.6-30.6,0.1-41.3c-7.2-9-3.1-16.3,0.1-18.9c4-4,8.8-6.2,13.8-6.2c2.4,0,4.8,0.5,7.1,1.5
		c2.5,1.1,5,2.6,7.4,4.7l0.5,0.4c0.7,0.6,1.5,1.2,2,2c0.4,0.5,0.7,0.9,1,1.5c4.2,6.7,4,16.1,3.4,23.5c-0.7,8.6-2.6,17.2-4.5,25.5
		l-0.7,2.9C111.5,165.8,103.4,180.1,92.6,180.1z M98.4,90.7c-4.7,0-9.3,2-13.1,5.9c-0.4,0.3-8.3,7.1,0,17.6
		c8.9,11.1,0.5,40.9,0.1,42.2c0,0.1-3.9,12.4-0.3,18.8c1,1.9,2.6,3.1,4.7,3.6c0.9,0.2,1.8,0.3,2.7,0.3c7.4,0,16.8-8.6,21.2-27.7
		l0.7-2.9c1.9-8.2,3.8-16.8,4.5-25.3c0.6-7.3,0.7-16.5-3.3-22.9c-0.3-0.5-0.6-0.9-1-1.4c-0.5-0.6-1.2-1.2-1.9-1.8l-0.5-0.4
		c-2.3-2-4.7-3.5-7.1-4.5C103,91.2,100.7,90.7,98.4,90.7z"/>
	<path fill="#3FE6FF" d="M148.9,156.6c-1.8,0-3.5-0.8-4.9-2.3c-2.2-2.4-4.6-7.7-3.5-19.5c1.7-20.3-4.4-31.7-4.4-31.8
		c-0.1-0.1-10-15.2-16.7-21.6c-3-2.9-4.2-5.5-3.5-7.4c0.9-2.4,4.8-2.9,9.8-1.4c5.5,1.7,10.4,5.9,14.8,9.5l1.2,1
		c2.7,2.3,5.4,4.8,8.4,8.2c3.9,4.2,6.9,10.2,8,12.7c0.5,1,0.9,2.1,1.4,3.1c0.2,0.4,0.4,0.9,0.6,1.3c3.5,8.1,5,15.9,4.6,23.1
		c-0.5,7.6-3.7,17.8-11.2,23.5c-0.1,0.1-0.2,0.1-0.3,0.2C151.7,156.1,150.3,156.6,148.9,156.6z M120.5,72.7c-2,0-3.3,0.6-3.7,1.6
		c-0.6,1.5,0.6,3.9,3.2,6.4c6.8,6.5,16.8,21.7,16.9,21.8c0.1,0.1,6.3,11.8,4.6,32.4c-1,11.5,1.3,16.5,3.3,18.7
		c1.2,1.3,2.6,1.9,4.1,1.9c1.2,0,2.4-0.4,3.6-1.2c0.1-0.1,0.2-0.1,0.3-0.2c7.3-5.5,10.4-15.4,10.8-22.8c0.5-7.1-1.1-14.7-4.5-22.7
		c-0.2-0.4-0.4-0.9-0.6-1.3c-0.4-1-0.9-2-1.3-3.1c-2.3-5-5.2-9.6-7.9-12.4c-3-3.3-5.7-5.8-8.3-8.1l-1.2-1c-4.3-3.6-9.1-7.7-14.4-9.4
		C123.5,73,121.9,72.7,120.5,72.7z"/>
</g>
</svg>
