<?xml version="1.0" encoding="utf-8"?>
<!-- Generator: Adobe Illustrator 17.1.0, SVG Export Plug-In . SVG Version: 6.00 Build 0)  -->
<!DOCTYPE svg PUBLIC "-//W3C//DTD SVG 1.1//EN" "http://www.w3.org/Graphics/SVG/1.1/DTD/svg11.dtd">
<svg version="1.1" id="Layer_1" xmlns="http://www.w3.org/2000/svg" xmlns:xlink="http://www.w3.org/1999/xlink" x="0px" y="0px"
	 viewBox="0 0 200 200" enable-background="new 0 0 200 200" xml:space="preserve">
<g>
	<polygon fill="#FFFFFF" points="50.9,23.6 82.4,40.1 71.6,76 	"/>
	<polygon fill="#FFFFFF" points="83.5,72.5 102.8,82.4 87,129.2 	"/>
	<polygon fill="#FFFFFF" points="57.5,114.5 61,151.6 25.2,138.5 	"/>
	<polygon fill="#FFFFFF" points="128.4,103.6 117.5,162.5 157.4,131.6 	"/>
</g>
<g>
	<path fill="#3FE6FF" d="M71.6,76.5c-0.2,0-0.4-0.1-0.5-0.3L50.4,23.8c-0.1-0.2,0-0.4,0.1-0.6c0.2-0.1,0.4-0.2,0.6-0.1l31.5,16.5
		c0.2,0.1,0.3,0.4,0.2,0.6L72.1,76.1C72,76.3,71.8,76.5,71.6,76.5C71.6,76.5,71.6,76.5,71.6,76.5z M51.9,24.7l19.7,49.8l10.2-34.1
		L51.9,24.7z"/>
	<path fill="#3FE6FF" d="M87,129.7C87,129.7,86.9,129.7,87,129.7c-0.3,0-0.5-0.2-0.5-0.5L83,72.5c0-0.2,0.1-0.4,0.2-0.4
		c0.1-0.1,0.3-0.1,0.5,0l19.4,9.9c0.2,0.1,0.3,0.4,0.2,0.6l-15.8,46.9C87.4,129.6,87.2,129.7,87,129.7z M84,73.3l3.3,53.3l14.9-44
		L84,73.3z"/>
	<path fill="#3FE6FF" d="M61,152c-0.1,0-0.1,0-0.2,0L25,138.9c-0.2-0.1-0.3-0.2-0.3-0.4c0-0.2,0-0.4,0.2-0.5l32.3-24
		c0.1-0.1,0.3-0.1,0.5-0.1c0.2,0.1,0.3,0.2,0.3,0.4l3.5,36.9c0,0.1,0,0.1,0,0.2C61.5,151.8,61.3,152,61,152C61,152,61,152,61,152z
		 M26.2,138.3l34.2,12.5l-3.4-35.4L26.2,138.3z"/>
	<path fill="#3FE6FF" d="M117.5,163c-0.1,0-0.2,0-0.3-0.1c-0.2-0.1-0.3-0.3-0.2-0.5l10.9-58.9c0-0.2,0.2-0.3,0.3-0.4
		c0.2-0.1,0.4,0,0.5,0.1l29,28.1c0.1,0.1,0.2,0.2,0.2,0.4c0,0.1-0.1,0.3-0.2,0.4l-39.9,30.8C117.7,162.9,117.6,163,117.5,163z
		 M128.7,104.6l-10.5,56.7l38.4-29.7L128.7,104.6z"/>
</g>
</svg>
