<?xml version="1.0" encoding="utf-8"?>
<!-- Generator: Adobe Illustrator 17.1.0, SVG Export Plug-In . SVG Version: 6.00 Build 0)  -->
<!DOCTYPE svg PUBLIC "-//W3C//DTD SVG 1.1//EN" "http://www.w3.org/Graphics/SVG/1.1/DTD/svg11.dtd">
<svg version="1.1" id="Layer_1" xmlns="http://www.w3.org/2000/svg" xmlns:xlink="http://www.w3.org/1999/xlink" x="0px" y="0px"
	 viewBox="0 0 200 200" enable-background="new 0 0 200 200" xml:space="preserve">
<g>
	<polygon fill="#FFFFFF" points="89.7,66.1 93.2,74.5 127.5,49 125.7,41.8 	"/>
	<path fill="#FFFFFF" d="M59.4,103.2c0,0,61.3-17,78.5-31.8l2.5,11.7c0,0-45,26.8-73.8,33.1L59.4,103.2z"/>
	<path fill="#FFFFFF" d="M95.7,130.2c18.2-2.8,49-26.2,49-26.2V93.8c-19.8,13.9-54,25.6-54,25.6L95.7,130.2z"/>
	<polygon fill="#FFFFFF" points="85.5,146.7 121,138.9 119,148.9 85.5,158.2 	"/>
</g>
<g>
	<path fill="#3FE6FF" d="M93.2,75.4c0,0-0.1,0-0.1,0c-0.1,0-0.3-0.1-0.3-0.3l-3.5-8.3c-0.1-0.2,0-0.5,0.2-0.6l36-24.3
		c0.1-0.1,0.3-0.1,0.5-0.1c0.2,0.1,0.3,0.2,0.3,0.3l1.8,7.2c0.1,0.2,0,0.4-0.2,0.5L93.5,75.3C93.4,75.3,93.3,75.4,93.2,75.4z
		 M90.3,66.7l3.1,7.4l33.6-24.9l-1.6-6.2L90.3,66.7z"/>
	<path fill="#3FE6FF" d="M66.7,117.1c-0.2,0-0.3-0.1-0.4-0.3l-7.3-13c-0.1-0.1-0.1-0.3,0-0.4c0.1-0.1,0.2-0.2,0.3-0.3
		c0.6-0.2,61.4-17.1,78.4-31.6c0.1-0.1,0.3-0.2,0.5-0.1c0.2,0.1,0.3,0.2,0.3,0.4l2.5,11.7c0,0.2,0,0.4-0.2,0.5
		c-0.5,0.3-45.4,26.9-73.9,33.1C66.8,117.1,66.7,117.1,66.7,117.1z M60.2,103.9L67,116c27.1-6,68.9-30.4,72.9-32.8l-2.3-10.5
		C120.7,86.5,66.5,102.1,60.2,103.9z"/>
	<path fill="#3FE6FF" d="M95.7,130.7c-0.2,0-0.4-0.1-0.5-0.3l-5-10.8c-0.1-0.1-0.1-0.3,0-0.4c0.1-0.1,0.2-0.2,0.3-0.3
		c0.3-0.1,34.4-11.9,53.9-25.6c0.2-0.1,0.4-0.1,0.5,0c0.2,0.1,0.3,0.3,0.3,0.4v10.1c0,0.2-0.1,0.3-0.2,0.4
		C144.7,104.6,114,127.9,95.7,130.7C95.8,130.7,95.7,130.7,95.7,130.7z M91.4,119.7l4.6,9.9c17.2-2.8,45.6-24,48.2-25.9v-8.9
		C125.9,107.4,95.7,118.2,91.4,119.7z"/>
	<path fill="#3FE6FF" d="M85.5,158.7c-0.1,0-0.2,0-0.3-0.1c-0.1-0.1-0.2-0.2-0.2-0.4v-11.5c0-0.2,0.2-0.4,0.4-0.5l35.5-7.8
		c0.2,0,0.3,0,0.5,0.1s0.2,0.3,0.1,0.5l-2,10c0,0.2-0.2,0.3-0.4,0.4l-33.5,9.2C85.6,158.7,85.5,158.7,85.5,158.7z M86,147.1v10.4
		l32.6-9l1.8-8.9L86,147.1z"/>
</g>
</svg>
