<?xml version="1.0" encoding="utf-8"?>
<!-- Generator: Adobe Illustrator 17.1.0, SVG Export Plug-In . SVG Version: 6.00 Build 0)  -->
<!DOCTYPE svg PUBLIC "-//W3C//DTD SVG 1.1//EN" "http://www.w3.org/Graphics/SVG/1.1/DTD/svg11.dtd">
<svg version="1.1" id="Layer_1" xmlns="http://www.w3.org/2000/svg" xmlns:xlink="http://www.w3.org/1999/xlink" x="0px" y="0px"
	 viewBox="0 0 200 200" enable-background="new 0 0 200 200" xml:space="preserve">
<path fill="#FFFFFF" d="M62.8,92.7c-0.3-1.6-0.3-4.1-0.2-4.6c0.1-2.8,0.1-5.6,0.6-8.4C65.6,63.8,77,52.8,92,48.3
	c35.7-10.7,40,8.3,44.3,12.7c4.3,4.3,9.3,44.3,1.3,72.7s-25.3,25-28.3,26S70.7,159,66,138.3s-3.5-28-3.5-28s-6.2,0.3-7.2-5.3
	c-0.4-2.5-1-5.7,0.6-7.9c0.8-1.1,2-1.6,3.3-2.1c1.5-0.6,2.5-1.1,4.2-1C63.1,94,62.9,93.4,62.8,92.7z"/>
<g>
	<path fill="#3FE6FF" d="M106.5,160.5c-10,0-37-3.9-41-21.9c-4-17.6-3.7-25.5-3.6-27.6c-1.6-0.1-6.2-0.7-7.1-5.7
		c-0.5-2.7-1.1-6,0.7-8.3c0.9-1.2,2.2-1.8,3.5-2.3c0.3-0.1,0.5-0.2,0.7-0.3c0.9-0.3,1.6-0.6,2.6-0.7c-0.1-0.2-0.1-0.5-0.2-0.8
		C62,91.1,62,88.5,62,88.1c0-0.7,0.1-1.5,0.1-2.2c0.1-2.1,0.1-4.2,0.5-6.3C65,64.3,75.7,52.8,91.9,47.9c7.1-2.1,13.2-3.1,18.6-3.1
		c9.6,0,16.9,3.3,21.8,9.7c0.3,0.4,0.6,0.8,0.9,1.2c2.1,2.8,4.3,5.6,5.4,9.1c1,3.1,1.6,6.3,2,9.4c1.3,8.7,1.9,18.3,1.7,28.4
		c-0.3,12-1.7,22.3-4.2,31.3c-6.9,24.6-20.8,25.7-26.7,26.1c-0.9,0.1-1.6,0.1-2,0.2C108.9,160.4,107.4,160.5,106.5,160.5z
		 M62.5,109.9c0.1,0,0.3,0.1,0.4,0.2c0.1,0.1,0.1,0.3,0.1,0.4c0,0.1-1.1,7.5,3.5,27.8c1.7,7.6,7.8,13.3,18,17.1c8,3,16.9,4,22,4
		c1.5,0,2.3-0.1,2.6-0.2c0.5-0.2,1.2-0.2,2.2-0.3c5.7-0.4,19-1.4,25.8-25.4c2.5-9,3.9-19.1,4.2-31.1c0.2-10.1-0.3-19.5-1.7-28.2
		c-0.5-3-1-6.2-2-9.2c-1.1-3.3-3.2-6.1-5.3-8.8c-0.3-0.4-0.6-0.8-0.9-1.2c-4.7-6.2-11.8-9.3-21-9.3c-5.4,0-11.4,1-18.4,3.1
		c-15.8,4.7-26.2,16-28.6,30.9c-0.3,2.1-0.4,4.1-0.5,6.2c0,0.7,0,1.5-0.1,2.2c0,0.6,0,3,0.2,4.5c0.1,0.6,0.2,0.9,0.3,0.9
		c0.2,0.1,0.4,0.3,0.4,0.5c0,0.3-0.3,0.5-0.5,0.5c0,0,0,0,0,0l0,0c-1.3-0.1-2.1,0.2-3.2,0.7c-0.2,0.1-0.5,0.2-0.8,0.3
		c-1.1,0.4-2.3,0.9-3,1.9c-1.5,2-1,5.1-0.6,7.5c0.8,4.7,5.6,5,6.5,5L62.5,109.9C62.5,109.9,62.5,109.9,62.5,109.9z"/>
	<path fill="#3FE6FF" d="M61.9,106.4c-0.2,0-0.3,0-0.5-0.1c-0.8-0.3-1.3-1.2-1.5-2.8c-0.2-1.8,0.1-3,0.9-3.7c1-0.8,2.2-0.4,2.2-0.4
		c0.3,0.1,0.4,0.4,0.3,0.6c-0.1,0.3-0.4,0.4-0.6,0.3l0,0c0,0-0.8-0.2-1.3,0.2c-0.5,0.4-0.7,1.4-0.5,2.8c0.1,1.1,0.4,1.8,0.8,1.9
		c0.5,0.2,1.5-0.5,1.8-0.9c0.2-0.2,0.5-0.2,0.7,0c0.2,0.2,0.2,0.5,0,0.7C64.1,105.3,63,106.4,61.9,106.4z"/>
	<path fill="#3FE6FF" d="M88,105.8c-6.4,0-11.1-5.5-11.2-5.5c-0.2-0.2-0.2-0.5,0.1-0.7c0.2-0.2,0.5-0.2,0.7,0.1c0,0,2.1,2.5,5.3,4
		c4.3,2,8.4,1.5,12.3-1.5c0.2-0.2,0.5-0.1,0.7,0.1c0.2,0.2,0.1,0.5-0.1,0.7C93.1,105,90.4,105.8,88,105.8z"/>
	<path fill="#3FE6FF" d="M105.8,128.3c-3,0-4.9-2-5-2.1c-0.2-0.2-0.2-0.5,0-0.7s0.5-0.2,0.7,0c0.1,0.1,2.7,2.7,6.5,1.4
		c2.9-1,3.3-4.8,1.4-11.7c-1.3-4.7-0.1-26.6,0-27.5c0-0.3,0.3-0.5,0.5-0.5c0.3,0,0.5,0.3,0.5,0.5c0,0.2-1.3,22.6,0,27.2
		c1.4,4.8,2.6,11.3-2,12.9C107.4,128.1,106.6,128.3,105.8,128.3z"/>
	<path fill="#3FE6FF" d="M128.1,106.1c-4.4,0-8.3-3.2-8.4-3.3c-0.2-0.2-0.2-0.5-0.1-0.7c0.2-0.2,0.5-0.2,0.7-0.1
		c0.3,0.3,7.9,6.4,13.3,0.5c0.2-0.2,0.5-0.2,0.7,0c0.2,0.2,0.2,0.5,0,0.7C132.4,105.4,130.2,106.1,128.1,106.1z"/>
	<path fill="#3FE6FF" d="M104.6,143.4c-2.7,0-5.4-0.3-7.8-0.8c-4.5-1-9.1-2.6-13.8-4.8c-0.2-0.1-0.4-0.4-0.2-0.7
		c0.1-0.2,0.4-0.4,0.7-0.2c4.6,2.2,9.2,3.8,13.6,4.7c3.4,0.8,7.1,1,11.1,0.7c3.6-0.3,6.1-1.2,9.8-3c1.3-0.6,2.8-1.4,4.2-2.3
		c0.2-0.2,0.5-0.1,0.7,0.1c0.2,0.2,0.1,0.5-0.1,0.7c-1.4,1-3,1.8-4.3,2.4c-3.2,1.5-6,2.8-10.2,3.1
		C106.9,143.4,105.7,143.4,104.6,143.4z"/>
</g>
</svg>
