<?xml version="1.0" encoding="utf-8"?>
<!-- Generator: Adobe Illustrator 17.1.0, SVG Export Plug-In . SVG Version: 6.00 Build 0)  -->
<!DOCTYPE svg PUBLIC "-//W3C//DTD SVG 1.1//EN" "http://www.w3.org/Graphics/SVG/1.1/DTD/svg11.dtd">
<svg version="1.1" id="Layer_1" xmlns="http://www.w3.org/2000/svg" xmlns:xlink="http://www.w3.org/1999/xlink" x="0px" y="0px"
	 viewBox="0 0 200 200" enable-background="new 0 0 200 200" xml:space="preserve">
<path fill="#FFFFFF" d="M96.2,37.8c0,0-7.2,41.4,16.2,74.3c0,0,8.2,10.7,16.8,10.7s3,6.8-1.2,4.8c0,0-8-1.8-10.5-1.5
	s-3.1,2.8,4.6,9.8c3.3,3,6.6,5.9,9.6,9.2c1.8,2,4.1,4.3,4.3,7.1c0.2,2.3-1.1,3.4-3.5,2.9c0.6,0.1,1.8,1.7,2.2,2.2
	c0.8,0.8,1.5,1.8,1.7,2.9c0.6,3.3-2.8,2.3-4.6,1.2c0,0,0.8,4-3.8,3.8l-10-4.5c0,0,0.5,3.7-3.5,2.5c-4-1.2-29.8-13.8-37.2-45.2
	c0,0-14.8-50.5,9.7-82.2L96.2,37.8z"/>
<path fill="#3FE6FF" d="M137,160c-0.2-1.3-1.1-2.3-1.9-3.2c-0.1-0.1-0.2-0.2-0.3-0.4c-0.3-0.3-0.5-0.6-0.8-0.9
	c0.7-0.1,1.3-0.4,1.7-0.8c0.6-0.6,0.8-1.5,0.7-2.7c-0.2-2.8-2.4-5.2-4.2-7.1l-0.3-0.3c-2.7-2.9-5.7-5.7-8.6-8.3l-1-1
	c-6.1-5.5-6.2-7.6-6-8.2c0.1-0.4,0.5-0.6,1.2-0.7c2.3-0.2,9.6,1.3,10.3,1.5c0.6,0.3,1.2,0.4,1.8,0.4c2.3,0,4.5-1.7,4.5-3.5
	c0-0.8-0.5-1.5-1.3-1.9c-0.8-0.5-2.1-0.7-3.7-0.7c-8.2,0-16.3-10.4-16.3-10.5C89.8,79.4,96.7,38.2,96.7,37.8c0-0.3-0.1-0.5-0.4-0.6
	l-9.2-1.9c-0.2,0-0.4,0-0.5,0.2c-24.4,31.5-9.9,82.1-9.8,82.6c8,34.4,37.2,45.4,37.5,45.5c1.6,0.5,2.8,0.3,3.5-0.5
	c0.4-0.5,0.6-1.2,0.6-1.7l9.3,4.2c0.1,0,0.1,0,0.2,0c0.1,0,0.2,0,0.3,0c1.5,0,2.6-0.4,3.4-1.3c0.6-0.7,0.7-1.5,0.8-2.2
	c0.8,0.4,1.7,0.7,2.6,0.7c0.9,0,1.4-0.4,1.6-0.7C137,161.7,137.1,161,137,160z M135.8,161.6c-0.2,0.2-0.4,0.3-0.9,0.3
	c-0.9,0-2.1-0.5-2.9-1c0,0,0,0,0,0c0,0,0,0,0,0c-0.2-0.1-21.5-9.4-30.1-22.3c-0.2-0.2-0.5-0.3-0.7-0.1c-0.2,0.2-0.3,0.5-0.1,0.7
	c8.3,12.4,27.8,21.5,30.3,22.6c0,0.4,0,1.4-0.5,2.1c-0.5,0.6-1.4,0.9-2.6,0.9l-0.2,0l-9.9-4.5c0,0,0,0,0,0
	c-0.3-0.1-14.4-7-23.8-20.2c-0.2-0.2-0.5-0.3-0.7-0.1c-0.2,0.2-0.3,0.5-0.1,0.7c8.9,12.5,21.9,19.4,23.9,20.4c0,0.4,0,1-0.4,1.5
	c-0.4,0.5-1.3,0.6-2.5,0.2c-0.3-0.1-28.9-11-36.8-44.8c-0.1-0.5-14.4-50.4,9.4-81.5l8.5,1.8c-0.7,4.7-5.6,43.4,16.4,74.2
	c0.3,0.4,8.5,10.9,17.1,10.9c1.4,0,2.5,0.2,3.2,0.6c0.5,0.3,0.7,0.6,0.7,1c0,1.1-1.7,2.5-3.5,2.5c-0.5,0-1-0.1-1.5-0.3
	c0,0-0.1,0-0.1,0c-0.3-0.1-8.1-1.8-10.7-1.5c-1.1,0.1-1.8,0.6-2,1.4c-0.6,1.8,1.5,4.9,6.3,9.3l1.1,1c2.9,2.6,5.9,5.3,8.5,8.2
	l0.3,0.3c1.7,1.9,3.7,4,3.9,6.5c0.1,0.9-0.1,1.5-0.5,2c-0.4,0.5-1.3,0.6-2.3,0.4c-1.3-0.8-17.9-11-23.4-20.4
	c-0.1-0.2-0.4-0.3-0.7-0.2c-0.2,0.1-0.3,0.4-0.2,0.7c5.8,10,23.1,20.4,23.8,20.8c0,0,0,0,0,0c0,0,0.1,0,0.1,0.1
	c0.3,0.1,1.3,1.2,1.6,1.6c0.1,0.2,0.3,0.3,0.4,0.4c0.7,0.8,1.4,1.7,1.6,2.7C136.1,160.9,136,161.3,135.8,161.6z"/>
</svg>
