<?xml version="1.0" encoding="utf-8"?>
<!-- Generator: Adobe Illustrator 18.0.0, SVG Export Plug-In . SVG Version: 6.00 Build 0)  -->
<!DOCTYPE svg PUBLIC "-//W3C//DTD SVG 1.1//EN" "http://www.w3.org/Graphics/SVG/1.1/DTD/svg11.dtd">
<svg version="1.1" id="Layer_1" xmlns="http://www.w3.org/2000/svg" xmlns:xlink="http://www.w3.org/1999/xlink" x="0px" y="0px"
	 viewBox="1196 764 200 200" enable-background="new 1196 764 200 200" xml:space="preserve">
<g>
	<rect x="1240.2" y="865.2" fill="#FFFFFF" stroke="#16B34C" stroke-miterlimit="10" width="3" height="52.6"/>
	<polygon fill="#FFFFFF" stroke="#16B34C" stroke-miterlimit="10" points="1219.8,921 1222.7,923.9 1222.7,843.4 1219.8,843.4 	"/>
	<rect x="1237.3" y="853.5" fill="#FFFFFF" stroke="#16B34C" stroke-miterlimit="10" width="3" height="46.7"/>
	<rect x="1234.2" y="843.4" fill="#FFFFFF" stroke="#16B34C" stroke-miterlimit="10" width="3" height="95"/>
	<polygon fill="#FFFFFF" stroke="#16B34C" stroke-miterlimit="10" points="1234.2,911.9 1222.6,900.2 1222.6,859.4 1234.2,871 	"/>
	<polygon fill="#FFFFFF" stroke="#16B34C" stroke-miterlimit="10" points="1216.8,810 1216.8,798.3 1237.2,818.8 1237.2,824.6 
		1219.7,807.1 1219.7,812.9 	"/>
	<polygon fill="#FFFFFF" stroke="#16B34C" stroke-miterlimit="10" points="1237.2,833.4 1237.2,807.1 1228.4,798.3 1228.4,792.5 
		1240.1,804.2 1240.1,833.4 	"/>
	<polygon fill="#FFFFFF" stroke="#16B34C" stroke-miterlimit="10" points="1234.3,815.9 1234.3,807.1 1219.7,792.5 1219.7,789.6 
		1237.2,807.1 1237.2,818.8 	"/>
	<polygon fill="#FFFFFF" stroke="#16B34C" stroke-miterlimit="10" points="1234.3,815.9 1234.3,810 1213.9,789.6 1213.9,795.4 	"/>
	<rect x="1240.3" y="801.3" fill="#FFFFFF" stroke="#16B34C" stroke-miterlimit="10" width="3" height="58.3"/>
	<rect x="1266.7" y="865.2" fill="#FFFFFF" stroke="#16B34C" stroke-miterlimit="10" width="3" height="52.6"/>
	<polygon fill="#FFFFFF" stroke="#16B34C" stroke-miterlimit="10" points="1246.2,921 1249.1,923.9 1249.1,843.4 1246.2,843.4 	"/>
	<rect x="1263.7" y="853.5" fill="#FFFFFF" stroke="#16B34C" stroke-miterlimit="10" width="3" height="46.7"/>
	<rect x="1260.7" y="843.4" fill="#FFFFFF" stroke="#16B34C" stroke-miterlimit="10" width="3" height="95"/>
	<polygon fill="#FFFFFF" stroke="#16B34C" stroke-miterlimit="10" points="1260.7,911.9 1249,900.2 1249,859.4 1260.7,871 	"/>
	<polygon fill="#FFFFFF" stroke="#16B34C" stroke-miterlimit="10" points="1243.2,810 1243.2,798.3 1263.6,818.8 1263.6,824.6 
		1246.2,807.1 1246.2,812.9 	"/>
	<polygon fill="#FFFFFF" stroke="#16B34C" stroke-miterlimit="10" points="1263.6,833.4 1263.6,807.1 1254.9,798.3 1254.9,792.5 
		1266.6,804.2 1266.6,833.4 	"/>
	<polygon fill="#FFFFFF" stroke="#16B34C" stroke-miterlimit="10" points="1260.7,815.9 1260.7,807.1 1246.2,792.5 1246.2,789.6 
		1263.6,807.1 1263.6,818.8 	"/>
	<polygon fill="#FFFFFF" stroke="#16B34C" stroke-miterlimit="10" points="1260.7,815.9 1260.7,810 1240.3,789.6 1240.3,795.4 	"/>
	<rect x="1266.7" y="801.3" fill="#FFFFFF" stroke="#16B34C" stroke-miterlimit="10" width="3" height="58.3"/>
	<rect x="1293.1" y="865.2" fill="#FFFFFF" stroke="#16B34C" stroke-miterlimit="10" width="3" height="52.6"/>
	<polygon fill="#FFFFFF" stroke="#16B34C" stroke-miterlimit="10" points="1272.6,921 1275.6,923.9 1275.6,843.4 1272.6,843.4 	"/>
	<rect x="1290.2" y="853.5" fill="#FFFFFF" stroke="#16B34C" stroke-miterlimit="10" width="3" height="46.7"/>
	<rect x="1287.1" y="843.4" fill="#FFFFFF" stroke="#16B34C" stroke-miterlimit="10" width="3" height="95"/>
	<polygon fill="#FFFFFF" stroke="#16B34C" stroke-miterlimit="10" points="1287.1,911.9 1275.4,900.2 1275.4,859.4 1287.1,871 	"/>
	<polygon fill="#FFFFFF" stroke="#16B34C" stroke-miterlimit="10" points="1269.7,810 1269.7,798.3 1290.1,818.8 1290.1,824.6 
		1272.6,807.1 1272.6,812.9 	"/>
	<polygon fill="#FFFFFF" stroke="#16B34C" stroke-miterlimit="10" points="1290.1,833.4 1290.1,807.1 1281.4,798.3 1281.4,792.5 
		1293,804.2 1293,833.4 	"/>
	<polygon fill="#FFFFFF" stroke="#16B34C" stroke-miterlimit="10" points="1287.1,815.9 1287.1,807.1 1272.6,792.5 1272.6,789.6 
		1290.1,807.1 1290.1,818.8 	"/>
	<polygon fill="#FFFFFF" stroke="#16B34C" stroke-miterlimit="10" points="1287.1,815.9 1287.1,810 1266.7,789.6 1266.7,795.4 	"/>
	<rect x="1293.2" y="801.3" fill="#FFFFFF" stroke="#16B34C" stroke-miterlimit="10" width="3" height="58.3"/>
	<rect x="1348.9" y="865.2" fill="#FFFFFF" stroke="#16B34C" stroke-miterlimit="10" width="3" height="52.6"/>
	<polygon fill="#FFFFFF" stroke="#16B34C" stroke-miterlimit="10" points="1372.2,843.4 1369.3,843.4 1369.3,923.9 1372.2,921 	"/>
	<rect x="1351.8" y="853.5" fill="#FFFFFF" stroke="#16B34C" stroke-miterlimit="10" width="3" height="46.7"/>
	<rect x="1354.7" y="843.4" fill="#FFFFFF" stroke="#16B34C" stroke-miterlimit="10" width="3" height="95"/>
	<polygon fill="#FFFFFF" stroke="#16B34C" stroke-miterlimit="10" points="1357.8,871 1369.4,859.4 1369.4,900.2 1357.8,911.9 	"/>
	<polygon fill="#FFFFFF" stroke="#16B34C" stroke-miterlimit="10" points="1372.3,812.9 1372.3,807.1 1354.8,824.6 1354.8,818.8 
		1375.2,798.3 1375.2,810 	"/>
	<polygon fill="#FFFFFF" stroke="#16B34C" stroke-miterlimit="10" points="1351.9,833.4 1351.9,804.2 1363.6,792.5 1363.6,798.3 
		1354.8,807.1 1354.8,833.4 	"/>
	<polygon fill="#FFFFFF" stroke="#16B34C" stroke-miterlimit="10" points="1354.8,818.8 1354.8,807.1 1372.3,789.6 1372.3,792.5 
		1357.7,807.1 1357.7,815.9 	"/>
	<polygon fill="#FFFFFF" stroke="#16B34C" stroke-miterlimit="10" points="1378.1,795.4 1378.1,789.6 1357.7,810 1357.7,815.9 	"/>
	<rect x="1348.8" y="801.3" fill="#FFFFFF" stroke="#16B34C" stroke-miterlimit="10" width="3" height="58.3"/>
	<rect x="1322.4" y="865.2" fill="#FFFFFF" stroke="#16B34C" stroke-miterlimit="10" width="3" height="52.6"/>
	<polygon fill="#FFFFFF" stroke="#16B34C" stroke-miterlimit="10" points="1345.8,843.4 1342.9,843.4 1342.9,923.9 1345.8,921 	"/>
	<rect x="1325.3" y="853.5" fill="#FFFFFF" stroke="#16B34C" stroke-miterlimit="10" width="3" height="46.7"/>
	<rect x="1328.3" y="843.4" fill="#FFFFFF" stroke="#16B34C" stroke-miterlimit="10" width="3" height="95"/>
	<polygon fill="#FFFFFF" stroke="#16B34C" stroke-miterlimit="10" points="1331.3,871 1343,859.4 1343,900.2 1331.3,911.9 	"/>
	<polygon fill="#FFFFFF" stroke="#16B34C" stroke-miterlimit="10" points="1345.8,812.9 1345.8,807.1 1328.4,824.6 1328.4,818.8 
		1348.8,798.3 1348.8,810 	"/>
	<polygon fill="#FFFFFF" stroke="#16B34C" stroke-miterlimit="10" points="1325.4,833.4 1325.4,804.2 1337.1,792.5 1337.1,798.3 
		1328.4,807.1 1328.4,833.4 	"/>
	<polygon fill="#FFFFFF" stroke="#16B34C" stroke-miterlimit="10" points="1328.4,818.8 1328.4,807.1 1345.8,789.6 1345.8,792.5 
		1331.3,807.1 1331.3,815.9 	"/>
	<polygon fill="#FFFFFF" stroke="#16B34C" stroke-miterlimit="10" points="1351.7,795.4 1351.7,789.6 1331.3,810 1331.3,815.9 	"/>
	<rect x="1322.3" y="801.3" fill="#FFFFFF" stroke="#16B34C" stroke-miterlimit="10" width="3" height="58.3"/>
	<rect x="1296" y="865.2" fill="#FFFFFF" stroke="#16B34C" stroke-miterlimit="10" width="3" height="52.6"/>
	<polygon fill="#FFFFFF" stroke="#16B34C" stroke-miterlimit="10" points="1319.4,843.4 1316.4,843.4 1316.4,923.9 1319.4,921 	"/>
	<rect x="1298.9" y="853.5" fill="#FFFFFF" stroke="#16B34C" stroke-miterlimit="10" width="3" height="46.7"/>
	<rect x="1301.8" y="843.4" fill="#FFFFFF" stroke="#16B34C" stroke-miterlimit="10" width="3" height="95"/>
	<polygon fill="#FFFFFF" stroke="#16B34C" stroke-miterlimit="10" points="1304.9,871 1316.6,859.4 1316.6,900.2 1304.9,911.9 	"/>
	<polygon fill="#FFFFFF" stroke="#16B34C" stroke-miterlimit="10" points="1319.4,812.9 1319.4,807.1 1301.9,824.6 1301.9,818.8 
		1322.3,798.3 1322.3,810 	"/>
	<polygon fill="#FFFFFF" stroke="#16B34C" stroke-miterlimit="10" points="1299,833.4 1299,804.2 1310.6,792.5 1310.6,798.3 
		1301.9,807.1 1301.9,833.4 	"/>
	<polygon fill="#FFFFFF" stroke="#16B34C" stroke-miterlimit="10" points="1301.9,818.8 1301.9,807.1 1319.4,789.6 1319.4,792.5 
		1304.9,807.1 1304.9,815.9 	"/>
	<polygon fill="#FFFFFF" stroke="#16B34C" stroke-miterlimit="10" points="1325.3,795.4 1325.3,789.6 1304.9,810 1304.9,815.9 	"/>
	<rect x="1295.9" y="801.3" fill="#FFFFFF" stroke="#16B34C" stroke-miterlimit="10" width="3" height="58.3"/>
</g>
</svg>
