<?xml version="1.0" encoding="utf-8"?>
<!-- Generator: Adobe Illustrator 18.0.0, SVG Export Plug-In . SVG Version: 6.00 Build 0)  -->
<!DOCTYPE svg PUBLIC "-//W3C//DTD SVG 1.1//EN" "http://www.w3.org/Graphics/SVG/1.1/DTD/svg11.dtd">
<svg version="1.1" id="Layer_1" xmlns="http://www.w3.org/2000/svg" xmlns:xlink="http://www.w3.org/1999/xlink" x="0px" y="0px"
	 viewBox="1196 764 200 200" enable-background="new 1196 764 200 200" xml:space="preserve">
<polygon fill="#FFFFFF" stroke="#16B34C" stroke-miterlimit="10" points="1265,948.6 1265,900.3 1260.1,900.3 1260.1,943.6 "/>
<polygon fill="#FFFFFF" stroke="#16B34C" stroke-miterlimit="10" points="1274.6,958.1 1265,948.6 1265,900.3 1274.6,900.3 "/>
<polygon fill="#FFFFFF" stroke="#16B34C" stroke-miterlimit="10" points="1274.6,871.3 1245.6,871.3 1240.8,876.1 1294,876.1 
	1294,871.3 "/>
<rect x="1250.4" y="895.4" fill="#FFFFFF" stroke="#16B34C" stroke-miterlimit="10" width="24.2" height="4.8"/>
<rect x="1255.3" y="900.3" fill="#FFFFFF" stroke="#16B34C" stroke-miterlimit="10" width="4.8" height="9.6"/>
<rect x="1226.3" y="876.1" fill="#FFFFFF" stroke="#16B34C" stroke-miterlimit="10" width="67.7" height="4.8"/>
<rect x="1231.1" y="885.7" fill="#FFFFFF" stroke="#16B34C" stroke-miterlimit="10" width="43.5" height="4.8"/>
<rect x="1250.4" y="890.6" fill="#FFFFFF" stroke="#16B34C" stroke-miterlimit="10" width="24.2" height="4.8"/>
<polygon fill="#FFFFFF" stroke="#16B34C" stroke-miterlimit="10" points="1240.8,885.8 1245.6,880.9 1279.5,880.9 1279.5,885.8 "/>
<polygon fill="#FFFFFF" stroke="#16B34C" stroke-miterlimit="10" points="1331.9,943.6 1331.9,900.3 1327,900.3 1327,948.6 "/>
<polygon fill="#FFFFFF" stroke="#16B34C" stroke-miterlimit="10" points="1317.4,900.3 1327,900.3 1327,948.6 1317.4,958.1 "/>
<polygon fill="#FFFFFF" stroke="#16B34C" stroke-miterlimit="10" points="1298,871.3 1298,876.1 1351.2,876.1 1346.4,871.3 
	1317.4,871.3 "/>
<rect x="1317.4" y="895.4" fill="#FFFFFF" stroke="#16B34C" stroke-miterlimit="10" width="24.2" height="4.8"/>
<rect x="1331.9" y="900.3" fill="#FFFFFF" stroke="#16B34C" stroke-miterlimit="10" width="4.8" height="9.6"/>
<rect x="1298" y="876.1" fill="#FFFFFF" stroke="#16B34C" stroke-miterlimit="10" width="67.7" height="4.8"/>
<rect x="1317.4" y="885.7" fill="#FFFFFF" stroke="#16B34C" stroke-miterlimit="10" width="43.5" height="4.8"/>
<rect x="1317.4" y="890.6" fill="#FFFFFF" stroke="#16B34C" stroke-miterlimit="10" width="24.2" height="4.8"/>
<polygon fill="#FFFFFF" stroke="#16B34C" stroke-miterlimit="10" points="1312.5,885.8 1312.5,880.9 1346.4,880.9 1351.2,885.8 "/>
<rect x="1298.1" y="769.9" fill="#FFFFFF" stroke="#16B34C" stroke-miterlimit="10" width="4.8" height="87"/>
<polygon fill="#FFFFFF" stroke="#16B34C" stroke-miterlimit="10" points="1327,789.1 1327,837.5 1331.9,837.5 1331.9,794.1 "/>
<polygon fill="#FFFFFF" stroke="#16B34C" stroke-miterlimit="10" points="1317.4,779.6 1327,789.1 1327,837.5 1317.4,837.5 "/>
<polygon fill="#FFFFFF" stroke="#16B34C" stroke-miterlimit="10" points="1317.4,866.5 1346.4,866.5 1351.2,861.7 1298,861.7 
	1298,866.5 "/>
<rect x="1317.4" y="837.5" fill="#FFFFFF" stroke="#16B34C" stroke-miterlimit="10" width="24.2" height="4.8"/>
<rect x="1331.9" y="827.8" fill="#FFFFFF" stroke="#16B34C" stroke-miterlimit="10" width="4.8" height="9.6"/>
<rect x="1298" y="856.8" fill="#FFFFFF" stroke="#16B34C" stroke-miterlimit="10" width="67.7" height="4.8"/>
<rect x="1317.4" y="847.3" fill="#FFFFFF" stroke="#16B34C" stroke-miterlimit="10" width="43.5" height="4.8"/>
<rect x="1317.4" y="842.3" fill="#FFFFFF" stroke="#16B34C" stroke-miterlimit="10" width="24.2" height="4.8"/>
<polygon fill="#FFFFFF" stroke="#16B34C" stroke-miterlimit="10" points="1351.2,852 1346.4,856.8 1312.5,856.8 1312.5,852 "/>
<rect x="1289.1" y="769.9" fill="#FFFFFF" stroke="#16B34C" stroke-miterlimit="10" width="4.8" height="87"/>
<polygon fill="#FFFFFF" stroke="#16B34C" stroke-miterlimit="10" points="1260.1,794.1 1260.1,837.5 1265,837.5 1265,789.1 "/>
<polygon fill="#FFFFFF" stroke="#16B34C" stroke-miterlimit="10" points="1274.6,837.5 1265,837.5 1265,789.1 1274.6,779.6 "/>
<polygon fill="#FFFFFF" stroke="#16B34C" stroke-miterlimit="10" points="1294,866.5 1294,861.7 1240.8,861.7 1245.6,866.5 
	1274.6,866.5 "/>
<rect x="1250.4" y="837.5" fill="#FFFFFF" stroke="#16B34C" stroke-miterlimit="10" width="24.2" height="4.8"/>
<rect x="1255.3" y="827.8" fill="#FFFFFF" stroke="#16B34C" stroke-miterlimit="10" width="4.8" height="9.6"/>
<rect x="1226.3" y="856.8" fill="#FFFFFF" stroke="#16B34C" stroke-miterlimit="10" width="67.7" height="4.8"/>
<rect x="1231.1" y="847.3" fill="#FFFFFF" stroke="#16B34C" stroke-miterlimit="10" width="43.5" height="4.8"/>
<rect x="1250.4" y="842.3" fill="#FFFFFF" stroke="#16B34C" stroke-miterlimit="10" width="24.2" height="4.8"/>
<polygon fill="#FFFFFF" stroke="#16B34C" stroke-miterlimit="10" points="1279.5,852 1279.5,856.8 1245.6,856.8 1240.8,852 "/>
</svg>
