<?xml version="1.0" encoding="utf-8"?>
<!-- Generator: Adobe Illustrator 17.1.0, SVG Export Plug-In . SVG Version: 6.00 Build 0)  -->
<!DOCTYPE svg PUBLIC "-//W3C//DTD SVG 1.1//EN" "http://www.w3.org/Graphics/SVG/1.1/DTD/svg11.dtd">
<svg version="1.1" id="Layer_1" xmlns="http://www.w3.org/2000/svg" xmlns:xlink="http://www.w3.org/1999/xlink" x="0px" y="0px"
	 viewBox="368 120 400 400" enable-background="new 368 120 400 400" xml:space="preserve">
<circle fill="#FFFFFF" stroke="#E76D2C" stroke-miterlimit="10" cx="564.053" cy="320" r="88.419"/>
<circle fill="#FFFFFF" stroke="#E76D2C" stroke-miterlimit="10" cx="564.053" cy="320" r="72.667"/>
<g>
	<path fill="#FFFFFF" d="M514.395,320c259.505,115.895,165.553,209.846,49.658-49.658C448.158,529.846,354.207,435.895,613.711,320
		c-259.505-115.895-165.553-209.846-49.658,49.658C679.948,110.154,773.9,204.105,514.395,320z"/>
	<path fill="none" stroke="#E76D2C" stroke-miterlimit="10" d="M514.395,320c259.505,115.895,165.553,209.846,49.658-49.658
		C448.158,529.846,354.207,435.895,613.711,320c-259.505-115.895-165.553-209.846-49.658,49.658
		C679.948,110.154,773.9,204.105,514.395,320z"/>
</g>
<g>
	<path fill="#FFFFFF" d="M528.939,284.886c101.547,265.448-31.32,265.448,70.227,0c-265.448,101.547-265.448-31.32,0,70.227
		c-101.547-265.448,31.32-265.448-70.227,0C794.387,253.566,794.387,386.434,528.939,284.886z"/>
	<path fill="none" stroke="#E76D2C" stroke-miterlimit="10" d="M528.939,284.886c101.547,265.448-31.32,265.448,70.227,0
		c-265.448,101.547-265.448-31.32,0,70.227c-101.547-265.448,31.32-265.448-70.227,0
		C794.387,253.566,794.387,386.434,528.939,284.886z"/>
</g>
<circle fill="#FFFFFF" stroke="#E76D2C" stroke-miterlimit="10" cx="564.053" cy="320" r="51.074"/>
</svg>
