<?xml version="1.0" encoding="utf-8"?>
<!-- Generator: Adobe Illustrator 17.1.0, SVG Export Plug-In . SVG Version: 6.00 Build 0)  -->
<!DOCTYPE svg PUBLIC "-//W3C//DTD SVG 1.1//EN" "http://www.w3.org/Graphics/SVG/1.1/DTD/svg11.dtd">
<svg version="1.1" xmlns="http://www.w3.org/2000/svg" xmlns:xlink="http://www.w3.org/1999/xlink" x="0px" y="0px"
	 viewBox="0 0 500 500" enable-background="new 0 0 500 500" xml:space="preserve">
<g id="Layer_1" display="none">
	<g display="inline">
		
			<image overflow="visible" width="581" height="383" id="OLaePJ_1_" xlink:href="D3ABA11A0920B81B.jpg"  transform="matrix(1 0 0 1 -52.5 33)">
		</image>
	</g>
</g>
<g id="Layer_2">
	<path fill="#00ADEF" d="M420.4,235.2l0.2-11.3l-9.7,5.3l2-12.9l-8.3,0.5l0,0.5l-0.5-0.1l-4.6,18.1l-30.1,13.9v-12.5l-14.2,7.2
		l1.5-21.8l-0.5,0l-0.2-0.5l-33.3,12l-0.1-0.7h-1l1.2-5.8h-7.3v-6.9l2.3-1.9L297,168.9l2.8-2.4l9.2-7.7l6.3,8.8v-4.3l5.2,6.7l2-15.5
		l9.3,15.1l9.9-11.6l0,0.1l13.8-19.9l2.9,4.1l0.4-0.3l0.5,0.1l16.7-54.7L349.8,100l-2.3-17.7l-36.6,18.6l-10-11.4L285.5,132
		l-4.7-2.6l-2.8-8l-4.9,2.3l5.5-12.5l3.7,2.7L292.7,83l-11.4-11.8l-39,13.1l-17.5,11l-8-30.5l-37.2,11.9v6.1l-11.8,7l-15.7-13.6
		l-2.3,9.4l-4.3-3.3L142.1,97l-20.9-13l-7,21.5l5.5-19.6H95.7l-6.4,5.4l17.6,36.2l0,0.1l0.1,0.2l0.5,1.1l0.1-0.4l3.8,4.4l-4.4,8.8
		l-10.3,5.9l14.3,21.9l7.7-6l1.4,4.4l22.6-15.2l-0.8,21.2l5.8,5.8l-2,2.2l-16.3-18.7l-5,25.8l-27.5,21.7V226l18.2-1.7l14.5,38.5
		l-32.7,79.7l7.3,14.2l11.9-2.3l2.4,10.9l6,14.8l11.7,9.9l14.3-6l11.9,15.6l24.6-41.1l13.5,12.5v4.4l5.2-0.7l10.5,0.3l10,8.3
		l43.8,8.1l16.2-28.1l0.7-12.2l63.1-28.6l3.2,20.5l17.5,23.7l2.5-4.4l2.2,6.1l11.4-12.5l1.9,3l1.8,34.5l5.2-15.1l1.4-32.3l6.5-9.2
		l-4.3-5.9l-2.7,4.1l-13.8-14.4l-0.7-24.7l19.6-3.3l-0.1-0.5l0.1,0.5l11-3.3v-8.9l14-4.6v-18.6l2.5-19.8l3.2-9L420.4,235.2z
		 M405.1,217.9l6.7-0.4l-2,12.4l-9,4.9L405.1,217.9z M400.3,236.2l19.4-10.5l-0.2,10.2L407,246.7l-20.5,9.4l1.6,3.4l-9.4,7.1
		l2.3-21.5L400.3,236.2z M369.6,250.4l10.4-4.8l-3.3,31h-7.5L369.6,250.4z M368.6,238.4v11.7l-0.4,26.7l-4.8,2.5l-27.2-11.2v-2.7
		l0.1,0l-1.3-7.3v-2.6L368.6,238.4z M335.1,264.7l-7.2,3v-7.2l6.1-1.7L335.1,264.7z M355.9,222.8l-1.5,21.6l-20.4,10.3v2.9l-6.3,1.8
		l-4.5-24.9L355.9,222.8z M225.3,334l2.9-29.3l10.9,6.7v16.3l4.1-3.6l1.7,18.9L225.3,334z M234.9,339.6l14.8,10.9l4.1,16.5
		l-31.1-6.5l2.6-25.4L234.9,339.6z M156.4,166.6l18.8,2.6l1.2,3.7l-11.2,7.8l-5.6-11.8l0.2-0.2L156.4,166.6z M177.7,173l10.9-17.8
		l0.2,28L177.7,173z M188.6,184.4l-12,9l-10.8-11.9l11.2-7.8L188.6,184.4z M177.2,171.9l-1.1-3.3l-1.3-4.1l9.2-17.1l4.5-0.7l0.1,6.7
		L177.2,171.9z M174.4,163.2l-4.3-13.7l12.8-1.9L174.4,163.2z M175,168.2l-20.5-2.9l-9.1-20.6l23.7,4.8L175,168.2z M175.8,194
		l-9.1,6.9l5.6,2.3l-6.4,3.3l-10.2-12.4l9.4-11.9L175.8,194z M174.7,203l-6-2.4l20.9-15.8l8.6-4.5l0.1,0.1l7.7-5.9l17.9-13.4v19.4
		l-7.6-4.6l-16.7,18v6.9l-23.8,17.4l3.3,2.4l6.9-4.4H201l0-0.3l15.5-18.6l7.3,4l3.7,11.3l-53.1,14.7l-0.3-7.5l-7.6-12.7L174.7,203z
		 M197.6,179.6l-7.7,4l-0.3-37.5v-15.7l4.7,13.7V176L197.6,179.6z M208.6,143.8v-10.7l22.3-7.6l-1.6,11.8l0,7l-21.4,8.8l0,0
		L208.6,143.8L208.6,143.8z M265.9,182.2l-28.5,25.6l-20.4-11.4v-19l7.1,4.3l10.3,18.5l30.5-30.2l-0.6,9.5l-0.2,0.2L265.9,182.2z
		 M271.4,218.1l0.3,4.9l-5.6,0.4L271.4,218.1z M267.2,220.8l-0.1-3.6l14.6-14.4v3.6L267.2,220.8z M286.2,203.3l5.4,4l3.6,20l4.2,5.3
		l-3.2-22.5l10.3,12.9l3.2,23.6l-0.4,0.4l-0.1-0.4l-0.5,1L296,259.8l-3.7-13.2l-7,9.7l-9.1-7.9l-3.5-25.1l-0.4-6.2L286.2,203.3z
		 M288.3,203.6l-2.1-1.6l-3.4,3.3v-3.6l5.5-5.4V203.6z M267.1,215.8l-1.1-32.3l20.1-18l2.2,29.5L267.1,215.8z M266.6,181.5l-1.2-1.7
		l23.5-22.1l-2.9,6.4L266.6,181.5z M265.3,178.5l0.6-9.5l5.1-3.7l0.7,7.2L265.3,178.5z M230.3,143.9v-5.5l4.8,3.5L230.3,143.9z
		 M249,135.3l1.5-10.1l3.4-1.3v9.1L249,135.3z M254.9,132.5v-10.1l-4.8,1.9l-6.6-2.9l17.2-11.3l-4.1,21.6L254.9,132.5z M249.5,125.1
		l-1.6,10.7l-11.8,5.7l-2.7-1.9l1.4-8.2l4.4-9.3h3L249.5,125.1z M232.6,138.8l-2.3-1.7l0.5-4l2.9-1.2L232.6,138.8z M215.7,166
		l-9.4,7.1l1.5-19L215.7,166z M205.3,173.8l-6.8,5.2l-3.2-3.5V144l0.6-13l11.7,13.2L205.3,173.8z M215.9,177.9v18.7l-15,17.9
		l-0.4-13.4v-6.8L215.9,177.9z M199.8,207.5l0.2,7.8h-12.5L199.8,207.5z M185.6,215.3h-0.2v0.1l-6.4,4.1l-1.6-1.2l22.2-16.2l0.1,4.2
		L185.6,215.3z M233.5,236.2l2.1-3.2l13.4,33.1l-6.2,1.1L233.5,236.2z M241,264.9l-11.1,9.7l-12.9-27.4l15.6-10.3L241,264.9z
		 M232.6,235.7l-15.9,10.5l-0.5-1l-0.2,1.3h-1.5l-5.8,6l-1.1,15.8l-14.7,21.3l-3.4-4l-2-55.5l7.5,7.8l17-14.2V218l15.6-4.3l7.3,18.1
		L232.6,235.7z M184.7,225.6l26.5-7.3v4.9l-16,13.3L184.7,225.6z M188.2,275.4l0.4,10.6l4.4,5.3l3.2-4.7l4.3,4.4l4.3-7l-1.8,11.5
		L193,310.2l-3.9-6.8l-8.4-17.6L188.2,275.4z M200.4,289.4l-3.6-3.7l10.4-15.1l-1.9,10.8L200.4,289.4z M173.8,247l-8.4,13.4
		l-3.7-4.1l11.8-20.3L173.8,247z M173,220.2l0.4,9.2l0,0l0.1,4.7l-0.1,0l-19.2,33l-3-15.5l20.8-32.9L173,220.2z M161.2,257.2
		l3.6,4.1l-5.9,9.5l-4.2-2.5L161.2,257.2z M173.9,248.7l2.2,35.1l-8.6,10.2l-4.2,2.8l-12.6-11.1L173.9,248.7z M176.7,284.6l3,1.6
		l8,16.6l-13.1-5.3l-5.9-3.3L176.7,284.6z M175.1,305.8l-6.9,7.9l-6.6,5.8l-3.5-2.5l3.4-4.8L174,299L175.1,305.8z M175.1,307.3
		l-0.7,25.6l-5.3-18.7L175.1,307.3z M196.7,342.9l9.6-61.2l2.3-13.1l1.1-15.7l5.2-5.4h1l-14,109.2L196.7,342.9z M216.7,248.7
		l13.2,28l-2.3,24.5l-21.5,30.4L216.7,248.7z M244.2,323.3l3.9-3.4l1.1,13.1H245L244.2,323.3z M248.9,319.1l9.4-8.4l7.7,22.4
		l-1.6,5.4l-14.3-5.3L248.9,319.1z M240.2,325.6v-13.5v-8.5l9-12.3l9.8,17.4L240.2,325.6z M239.3,303.1l-0.1,0.1v7l-10.8-6.6l2.5-27
		l0-0.1l-0.5-1.1l11-9.6l0.7,2.3l7.3-1.2l5.9,14.5L239.3,303.1z M228.6,212.9l-3.5-10.8l11.9,6.6l5.1,17.2l29.7-2l3.5,24.7
		l-19.4,31.8L228.6,212.9z M275.9,249.5l8.9,7.6l-7,8.8l-8.1-6.3L275.9,249.5z M278.3,267l7.2-9.2l0,0l6.4-8.9l3.4,12l1.1,7.6
		l-23,20.9l-3.7-9.9L278.3,267z M296.5,269.7l0.3,1.9l0,0l0.1,0.7l-22,21.2l-1.1-3.1L296.5,269.7z M297.1,273.5l3.5,24.5l-18.1,16.1
		l-7.2-19.6L297.1,273.5z M297.4,268.8L297.4,268.8l0-0.1l-1.1-7.8l11.1-10.6l-9.8,19.6L297.4,268.8z M309,249.3l9.6,26.2l0.5,3.3
		l0.1,0l1.3,6l-22.4-13.5L309,249.3z M309.7,248.2l4.4-4.2l3.8,26.7L309.7,248.2z M320,277.9l7.4-6.5l0.9,1l-7.4,9.8L320,277.9z
		 M287.8,175.6l-0.8-11l5-11l-19.3,18.2l-0.6-7.1l0,0l-2-17.5l33.4-21.2l-4.4,11.1l-10.9,7.4l10.7,21.5L287.8,175.6z M331.8,167.9
		l-10.1-16.3l-2,15.9l-5.5-7.1v4.1l-5.1-7.2l-9.6,7.9l-10.2-20.5l10.3-7l27.8-12.4l13.7,31.6L331.8,167.9z M349,101.5l25.3-12.1
		l-15.7,51.5l-3.2-4.4l-13.6,19.5l-13.8-32l-14.2,6.3l-4.1-12.9l7.9-3.5L349,101.5L349,101.5z M286,133.5l15.2-42.1l8.8,10l-10,7.5
		l16,4.7l-7.5,3.3l4.5,13.8l-12.6,5.6l5.1-12.9l-29.5,18.7l1.3-12h3.1L286,133.5z M277.5,122.8l2.3,6.5h-3.4l-1.5,13.6l-3.1,2
		l-4.4-17.2L277.5,122.8z M242.7,96.1l0.2-11l38-12.8l10.6,10.9l-9.7,29.1l-2.8-2.1l6.5-21.7l-23.6,6.3v-5.5l-18.6,7.9l-1.3-1.1
		L242.7,96.1z M244.1,98l16.8-7.1v4.3l-15.4,4.1L244.1,98z M244.4,99.5l-4.9,1.3v-5.7L244.4,99.5z M224.7,96.5l17.2-10.8l-0.2,10.2
		l-3.2-2.9v8.1l-19.6,5.2l-1.8-1.7L224.7,96.5z M284,90l-6.1,20.3l-6.2,14.1l-14.1,6.7l4.4-23.2l-19.9,13h-3.6l-4.6,9.8L231,132
		l1.1-7.9l-24.5,8.4v10.3L195,128.5l-0.6,12.9l-5.8-17v21.2l-18.6,2.8l1.4-28.4L284,90z M175,118.1l-3.6,1l0.4-8.2L175,118.1z
		 M171.9,108.7l0.4-7.7l7.4,0.3v15.7l-3.6,1L171.9,108.7z M168.3,90.7l11.3-6.7v16.3l-7.7-0.3l-3.6-1.2V90.7z M171.2,100.8
		l-2.3,47.7l-25.2-5.1l4.1-23.5l0.5-0.3l-0.4-0.6l2.5-13.9l17.2-5.4L171.2,100.8z M150.6,86.5l2.1-8.5l14.5,12.6v8.1l-17.6,5.6
		l-2.4,13.5l-0.5-0.8L150.6,86.5z M108,127.3l13.7-41.8L141.9,98l-6.2,29l-6.7,2.1l-7.5-11l-9.4,13.7L108,127.3z M112.5,133l8.9-13
		l6.6,9.6l-19.4,11.2L112.5,133z M142.7,151.5l-22.1,14.8l-1.1-3.5l23.2-18.1V151.5z M111.2,168l-13.1-20.1l30.8-17.7l7.6-2.4
		l0.3-1.2l10-6l-4,22.9L111.2,168z M142.9,173.6l0.8-21.5l0-7.7l0.4,0.1l9.5,21.6l4.6,2.8l-9.9,10.2L142.9,173.6z M148.8,180.1
		l10.2-10.5l5.6,11.7l-9.4,11.9l-8.7-10.5L148.8,180.1z M115,223.3l-17.1,1.6v-13.5l26.1-20.6L115,223.3z M143.7,283.7l-2.3-40.6
		l0.1-0.1l-1.6-2.6v-10.4h2.1l7.6,55.7l-0.8,1.5L143.7,283.7z M148.3,288.1l-5.1,13.9l-7-24.5l5.9,2.8l0.3-0.6l0.2,4.4L148.3,288.1z
		 M118.5,230.6l6.1,11.4h15.1l0.6,1l-10.2,18.6L118.5,230.6z M104.7,355.5L98,342.4l32.6-79.4l10-18.3l1.9,34.7l-7.7-3.6l5.2,18.1
		h-5l3.8,15.8l-3.2,6.7l-1.9-2.3l-17.5,39.4L104.7,355.5z M116.9,353.8l16.8-37.9l1.1,1.4l-7.7,15.9l0,8.6l-8.5,20L116.9,353.8z
		 M119.4,365l-0.3-1.5l9.1-21.4l0-8.6l11.5-23.8l-3.6-14.9h4l3,10.5l6.2-17.2l0.9-1.6l13,11.5l4.6-3.2l5.6,3.1L161.3,311l-3.8-11.1
		l-34.7,73.6L119.4,365z M123.4,374.7l34-72.2l3.2,9.3l-3.8,5.4l4.9,3.5l5.1-4.5l-14.4,42.1L125.1,379L123.4,374.7z M150.5,383
		l-14,5.8l-10.7-9.1l27-20.4l7.7,13.5L150.5,383z M162.4,397.9l-11-14.4l9.6-9.7l8.2,12.6L162.4,397.9z M169.8,385.4l-8.3-12.7
		l-8.1-14.1l14.8-43.4l0.1-0.1l5.5,19.4l0.5-0.2l-0.6,20l7.2-1.5l5.3,4.9L169.8,385.4z M187.6,357.7L187.6,357.7l-5.4-5l16-3.2
		l3.5,9.3l-0.9,11L187.6,357.7z M203.7,373.9l-2.2,0.3v-3.4l1-12.1l3.2-25l21.6-30.5l-5.8,57.4L203.7,373.9z M205.8,373.6l16.4-12.1
		l29.6,6.1l-35.4,6.3L205.8,373.6z M217.6,374.7l6.5-1.2l1.6,7.9L217.6,374.7z M226.8,382.3l-1.8-8.9l29.2-5.2l14.5,21.9
		L226.8,382.3z M256.4,369.7l11.4,8.4l0.7,9.8L256.4,369.7z M269.7,389.8l-0.1-0.2l-0.8-11.5l15.1-12.8L269.7,389.8z M334.6,328.4
		l1.9-6.1l-64,26.2l-13.3-38.6l1.1-1l-10.5-18.5l5.8-7.9l0,0.1l13.5-22.1l8,6.2l-8.6,12.4l13.5,36.6l12.9-11.5l4.2,13.8l24.4-8.1
		l5.3,5.5l19.4-7l1.7,12.9L334.6,328.4z M370.7,364.8l-16.5-22.3l-3.3-20.9l-1.8-13.5l24.5-8.8l-0.3-0.9l-44.2,15.9l-4.5-4.7
		l55.6-18.5l1,4.3l0.6,24.1l-9.8-9.4l-6.1,38.9l0,0.2l6.9,11.8L370.7,364.8z M394.9,378l-3.5,10.1l-1.5-29.3l6.2-11.1L394.9,378z
		 M396.7,336.5L396.7,336.5l2.7-3.8l3,4.1l-6.1,8.7l-6.9,12.3l-2.2-3.5l-0.1,0.1l-4-4.2L396.7,336.5z M411.9,288.6l-10.3,3.1
		l-19.5,3.3l-1-4l30.8-10.2V288.6z M426,256.7l-33,10.4l-5.1-10.5l40.5-18.5L426,256.7z M428.5,236.8l-18.3,8.4l10-8.7l10.5-6
		L428.5,236.8z"/>
</g>
</svg>
