<?xml version="1.0" encoding="utf-8"?>
<!-- Generator: Adobe Illustrator 17.1.0, SVG Export Plug-In . SVG Version: 6.00 Build 0)  -->
<!DOCTYPE svg PUBLIC "-//W3C//DTD SVG 1.1//EN" "http://www.w3.org/Graphics/SVG/1.1/DTD/svg11.dtd">
<svg version="1.1" id="Layer_1" xmlns="http://www.w3.org/2000/svg" xmlns:xlink="http://www.w3.org/1999/xlink" x="0px" y="0px"
	 viewBox="68 -162.001 1000 1000" enable-background="new 68 -162.001 1000 1000" xml:space="preserve">
<polygon fill="none" stroke="#00FF00" stroke-miterlimit="10" points="500,140 600,140 500,240 "/>
<polygon fill="none" stroke="#00FF00" stroke-miterlimit="10" points="562.5,177.5 700,177.5 700,240 500,240 "/>
<polygon fill="none" stroke="#00FF00" stroke-miterlimit="10" points="600,140 700,140 700,177.5 562.5,177.5 "/>
<polygon fill="none" stroke="#00FF00" stroke-miterlimit="10" points="600,40 600,140 650,140 650,-60 600,-60 "/>
<polygon fill="none" stroke="#00FF00" stroke-miterlimit="10" points="650,90 700,140 650,140 "/>
<polygon fill="none" stroke="#00FF00" stroke-miterlimit="10" points="650,90 700,40 700,140 "/>
<polygon fill="none" stroke="#00FF00" stroke-miterlimit="10" points="650,90 650,-60 700,-60 700,40 "/>
<rect x="700" y="-10" fill="none" stroke="#00FF00" stroke-miterlimit="10" width="25" height="287.5"/>
<rect x="725" y="15" fill="none" stroke="#00FF00" stroke-miterlimit="10" width="25" height="287.5"/>
<polygon fill="none" stroke="#00FF00" stroke-miterlimit="10" points="750,40 800,40 750,140 "/>
<polygon fill="none" stroke="#00FF00" stroke-miterlimit="10" points="600,65 537.5,140 600,140 "/>
<polygon fill="none" stroke="#00FF00" stroke-miterlimit="10" points="775,90 775,277.5 750,277.5 750,140 "/>
<rect x="537.5" y="240" fill="none" stroke="#00FF00" stroke-miterlimit="10" width="162.5" height="25"/>
<rect x="562.5" y="265" fill="none" stroke="#00FF00" stroke-miterlimit="10" width="137.5" height="50"/>
<polygon fill="none" stroke="#00FF00" stroke-miterlimit="10" points="500,140 400,240 500,240 "/>
</svg>
