<?xml version="1.0" encoding="utf-8"?>
<!-- Generator: Adobe Illustrator 17.1.0, SVG Export Plug-In . SVG Version: 6.00 Build 0)  -->
<!DOCTYPE svg PUBLIC "-//W3C//DTD SVG 1.1//EN" "http://www.w3.org/Graphics/SVG/1.1/DTD/svg11.dtd">
<svg version="1.1" id="Layer_1" xmlns="http://www.w3.org/2000/svg" xmlns:xlink="http://www.w3.org/1999/xlink" x="0px" y="0px"
	 viewBox="0 0 1000 1000" enable-background="new 0 0 1000 1000" xml:space="preserve">
<g>
	<polygon fill="#231F20" points="385.5,332.5 443,390 479.5,390 479.5,384 445,384 389.5,328.5 	"/>
	<polygon fill="#231F20" points="385.5,667.5 389.5,671.5 445,616 479.5,616 479.5,610 443,610 	"/>
	<polygon fill="#231F20" points="555.5,476 445.5,476 390,399.5 385,403 442.5,481.5 558.5,481.5 616,403 611,399.5 	"/>
	<polygon fill="#231F20" points="442.5,518.5 385,597 390,600.5 445.5,524 555.5,524 611,600.5 616,597 558.5,518.5 	"/>
	<path fill="#231F20" d="M370.5,298v89h5.5v-89c12-1.5,21-11.5,21-24c0-13-11-24-24-24s-24,11-24,24
		C349.5,286.5,358.5,296.5,370.5,298z M373.5,255.5c10,0,18.5,8,18.5,18.5c0,9-6.5,17-15.5,18v-18h-6v18c-9-1.5-15.5-9-15.5-18
		C355,264,363.5,255.5,373.5,255.5z"/>
	<path fill="#231F20" d="M376,702v-89h-5.5v89c-12,1.5-21,11.5-21,24c0,13,11,24,24,24s24-11,24-24C397.5,713.5,388,703.5,376,702z
		 M373.5,744.5c-10,0-18.5-8-18.5-18.5c0-9,6.5-17,15.5-18v18h5.5v-18c9,1.5,15.5,9,15.5,18C391.5,736,383.5,744.5,373.5,744.5z"/>
	<polygon fill="#231F20" points="615.5,332.5 611.5,328.5 556,384 521.5,384 521.5,390 558,390 	"/>
	<polygon fill="#231F20" points="615.5,667.5 558,610 521.5,610 521.5,616 556,616 611.5,671.5 	"/>
	<path fill="#231F20" d="M627.5,250c-13,0-24,11-24,24c0,12.5,9.5,22.5,21,24v89h5.5v-89c12-1.5,21-11.5,21-24
		C651.5,261,641,250,627.5,250z M630.5,292v-18H625v18c-9-1.5-15.5-9-15.5-18c0-10,8-18.5,18.5-18.5c10,0,18.5,8,18.5,18.5
		C646,283,639.5,291,630.5,292z"/>
	<path fill="#231F20" d="M630.5,702v-89H625v89c-12,1.5-21,11.5-21,24c0,13,11,24,24,24s24-11,24-24
		C651.5,713.5,642.5,703.5,630.5,702z M627.5,744.5c-10,0-18.5-8-18.5-18.5c0-9,6.5-17,15.5-18v18h5.5v-18c9,1.5,15.5,9,15.5,18
		C646,736,637.5,744.5,627.5,744.5z"/>
	<polygon fill="#231F20" points="557,559.5 557,553.5 444,553.5 444,559.5 497.5,559.5 497.5,726 503.5,726 503.5,559.5 	"/>
	<polygon fill="#231F20" points="444,440.5 444,446.5 557,446.5 557,440.5 503.5,440.5 503.5,274 497.5,274 497.5,440.5 	"/>
</g>
</svg>
