<?xml version="1.0" encoding="utf-8"?>
<!-- Generator: Adobe Illustrator 17.1.0, SVG Export Plug-In . SVG Version: 6.00 Build 0)  -->
<!DOCTYPE svg PUBLIC "-//W3C//DTD SVG 1.1//EN" "http://www.w3.org/Graphics/SVG/1.1/DTD/svg11.dtd">
<svg version="1.1" id="Layer_1" xmlns="http://www.w3.org/2000/svg" xmlns:xlink="http://www.w3.org/1999/xlink" x="0px" y="0px"
	 viewBox="0 0 1000 1000" enable-background="new 0 0 1000 1000" xml:space="preserve">
<path fill="none" stroke="#EB008B" stroke-width="3" stroke-miterlimit="10" d="M286,376.9"/>
<polygon fill="#EB008B" points="350.5,652.2 327.7,632.5 304.2,548.8 280.2,537.4 281.5,534.6 306.7,546.7 330.3,630.8 352.5,650 
	"/>
<polygon fill="#EB008B" points="631.7,643.5 622.4,642.4 622.8,639.4 629.9,640.3 655,583 657.7,584.2 "/>
<polygon fill="#EB008B" points="540.3,496.4 553.6,454.3 561.8,371.6 564.8,371.9 556.6,454.9 545.3,490.7 577.1,475.2 577.1,461 
	587.5,453.7 613.4,348.3 632.4,356.1 631.2,358.9 615.5,352.4 590.2,455.5 580.1,462.6 580.1,477.1 "/>
<path fill="none" stroke="#EB008B" stroke-width="3" stroke-miterlimit="10" d="M280.1,371"/>
<polygon fill="#EB008B" points="449.6,599.3 412.9,574.5 402,536.6 378.4,494.6 333.6,531.7 291.7,397.6 294.6,396.7 335.1,526.5 
	379.3,490 404.8,535.6 415.4,572.7 449.3,595.5 475.4,569.3 513.7,545.9 530.7,551.8 530.7,589.5 557.6,555.3 583.4,551.4 
	631.3,534.4 659.7,545.7 657.9,583.6 654.9,583.5 656.6,547.7 631.3,537.6 584.1,554.3 559.2,558.1 527.7,598.1 527.7,553.9 
	514.1,549.2 477.2,571.7 "/>
<rect x="315.3" y="380.1" transform="matrix(0.94 0.3413 -0.3413 0.94 150.5594 -92.5049)" fill="#EB008B" width="45.7" height="3"/>
<polygon fill="#EB008B" points="346.7,495.6 316.3,477.5 330.3,409.5 321.3,405 315.1,373.3 353.8,338.6 350.4,330.1 353.2,329 
	357.4,339.5 318.3,374.4 323.9,403 333.7,407.8 319.7,476 346.5,492 360.4,481.6 353.7,426.4 385.3,446.3 431,377.5 441,439.8 
	553.2,363 564.1,372.7 562.1,375 552.9,366.8 438.7,445 429.3,385.5 386.2,450.4 357.4,432.3 363.6,483 "/>
<rect x="332.7" y="322.5" transform="matrix(0.7168 0.6973 -0.6973 0.7168 337.0428 -134.6121)" fill="#EB008B" width="3" height="50.3"/>
<polygon fill="#EB008B" points="367.5,438.1 358.2,389.6 353.7,334.7 382.1,366.5 379.8,368.5 357.4,343.4 361.2,389.2 370.5,437.5 
	"/>
<polygon fill="#EB008B" points="417.7,404.8 391.6,355.8 394.2,354.4 416.9,396.9 426.4,364.5 448.4,392.3 446.1,394.2 427.6,370.9 
	"/>
<path fill="none" stroke="#EB008B" stroke-width="3" stroke-miterlimit="10" d="M452.2,433.9"/>
<path fill="none" stroke="#EB008B" stroke-width="3" stroke-miterlimit="10" d="M441.8,347.6"/>
<polygon fill="#EB008B" points="542.7,499.4 539.8,498.6 541.3,493.3 547.4,367.6 550.4,367.8 544.3,493.8 "/>
<path fill="none" stroke="#EB008B" stroke-width="3" stroke-miterlimit="10" d="M544.6,350.9"/>
<path fill="none" stroke="#EB008B" stroke-width="3" stroke-miterlimit="10" d="M530,380.6"/>
<rect x="462.2" y="368.4" transform="matrix(0.2133 0.977 -0.977 0.2133 749.8749 -191.3975)" fill="#EB008B" width="63.2" height="3"/>
<rect x="463.5" y="324.5" transform="matrix(0.3938 0.9192 -0.9192 0.3938 602.2036 -216.2042)" fill="#EB008B" width="3" height="47.9"/>
<path fill="none" stroke="#EB008B" stroke-width="3" stroke-miterlimit="10" d="M430.1,381.5"/>
<rect x="350.5" y="489.6" transform="matrix(0.1884 0.9821 -0.9821 0.1884 801.98 11.6526)" fill="#EB008B" width="86.9" height="3"/>
<polygon fill="#EB008B" points="322.6,405.9 289.1,381 294.6,396.6 291.8,397.6 282.9,372.8 322.6,402.1 345.7,383.5 347.6,385.9 
	"/>
<path fill="none" stroke="#EB008B" stroke-width="3" stroke-miterlimit="10" d="M280.9,536"/>
<rect x="318.4" y="521.2" transform="matrix(0.5427 0.8399 -0.8399 0.5427 598.5305 -22.461)" fill="#EB008B" width="3" height="34.4"/>
<polygon fill="#EB008B" points="345.6,649.3 309.1,545 312,544 346.8,643.7 413,572.6 415.2,574.6 "/>
<polygon fill="#EB008B" points="356.7,655.7 354.4,653.8 401.1,600.1 420.3,587.7 420.3,637.3 417.3,637.3 417.3,593.2 403.1,602.4 
	"/>
<polygon fill="#EB008B" points="404.2,639.7 400.6,601.5 397,591 399.8,590 403.6,601.1 407.2,639.5 "/>
<rect x="407.4" y="581.5" transform="matrix(0.3964 0.9181 -0.9181 0.3964 786.0623 -29.6561)" fill="#EB008B" width="16.3" height="3"/>
<rect x="424.3" y="601.7" transform="matrix(9.472127e-02 0.9955 -0.9955 9.472127e-02 997.4861 109.5501)" fill="#EB008B" width="28.4" height="3"/>
<path fill="none" stroke="#EB008B" stroke-width="3" stroke-miterlimit="10" d="M449.4,597.4"/>
<rect x="435.6" y="624.9" transform="matrix(0.6377 0.7703 -0.7703 0.6377 644.5682 -117.6467)" fill="#EB008B" width="23.5" height="3"/>
<polygon fill="#EB008B" points="418.7,644.4 403.6,627.7 385.3,621.5 386.2,618.6 405.3,625.1 421,642.4 "/>
<path fill="none" stroke="#EB008B" stroke-width="3" stroke-miterlimit="10" d="M393.9,669.5"/>
<path fill="none" stroke="#EB008B" stroke-width="3" stroke-miterlimit="10" d="M405.7,639.6"/>
<rect x="336.4" y="490.3" transform="matrix(0.7286 0.685 -0.685 0.7286 436.3088 -94.8822)" fill="#EB008B" width="3" height="25.5"/>
<rect x="324.2" y="434.1" transform="matrix(0.7459 0.6661 -0.6661 0.7459 377.4033 -118.1164)" fill="#EB008B" width="38.5" height="3"/>
<rect x="342.3" y="383" transform="matrix(0.651 0.7591 -0.7591 0.651 422.5031 -121.889)" fill="#EB008B" width="3" height="31"/>
<rect x="380.2" y="374.4" transform="matrix(0.3764 0.9265 -0.9265 0.3764 602.1199 -142.8353)" fill="#EB008B" width="53.9" height="3"/>
<rect x="414.6" y="431.3" transform="matrix(0.6426 0.7662 -0.7662 0.6426 502.9814 -153.5364)" fill="#EB008B" width="3" height="62.1"/>
<rect x="360.6" y="485.8" transform="matrix(0.8609 0.5087 -0.5087 0.8609 299.3989 -120.6698)" fill="#EB008B" width="19.6" height="3"/>
<rect x="439" y="399.7" transform="matrix(0.6067 0.7949 -0.7949 0.6067 537.4963 -169.93)" fill="#EB008B" width="3" height="117.1"/>
<polygon fill="#EB008B" points="439.2,560.4 417.3,491.2 421,471.8 423.9,472.3 420.4,491 440.5,554.5 492.2,496.7 483.2,411.9 
	486.2,411.5 495.3,497.8 "/>
<rect x="409.5" y="556" fill="#EB008B" width="30.3" height="3"/>
<rect x="451.4" y="418" transform="matrix(0.6418 0.7668 -0.7668 0.6418 516.8802 -181.674)" fill="#EB008B" width="3" height="89"/>
<polygon fill="#EB008B" points="491.2,638.8 482.1,636.9 482.8,634 490.1,635.5 528.1,592.8 530.4,594.8 "/>
<polygon fill="#EB008B" points="515.1,608.1 512.4,547.4 517.8,512.2 520.8,512.6 515.4,547.6 518.1,608 "/>
<rect x="529" y="504.8" transform="matrix(0.9986 5.208046e-02 -5.208046e-02 0.9986 28.2618 -26.9106)" fill="#EB008B" width="3" height="48.2"/>
<rect x="542.4" y="447" transform="matrix(0.6243 0.7812 -0.7812 0.6243 557.08 -261.2941)" fill="#EB008B" width="15.7" height="3"/>
<polygon fill="#EB008B" points="561.6,608.2 557,557.4 528.4,529.1 570.5,482.9 519.3,514.2 494.8,499.6 477.8,570.9 474.8,570.2 
	492.8,494.9 519.3,510.7 586.8,469.4 532.6,529 559.8,556 564.6,607.9 "/>
<polygon fill="#EB008B" points="579.5,477.4 577.7,474.9 630.9,437 633.3,422.8 589.7,455.8 587.9,453.4 637.5,415.9 633.7,438.7 
	"/>
<polygon fill="#EB008B" points="612.5,438.2 609.6,437.5 630.4,356.9 637.9,343 657.5,366.7 655.2,368.7 638.5,348.3 633.2,358 "/>
<rect x="541.5" y="517.4" transform="matrix(0.1532 0.9882 -0.9882 0.1532 1000.7765 -130.0318)" fill="#EB008B" width="69.4" height="3"/>
<polygon fill="#EB008B" points="632.8,536.2 629.8,535.8 643.2,432.6 633.1,439.1 631.5,436.6 647,426.6 "/>
<path fill="none" stroke="#EB008B" stroke-width="3" stroke-miterlimit="10" d="M662.1,518.9"/>
<path fill="none" stroke="#EB008B" stroke-width="3" stroke-miterlimit="10" d="M662.1,467.6"/>
<polygon fill="#EB008B" points="636.8,419.9 634,418.8 656.3,363.8 671,397.9 668.3,399.1 656.4,371.6 "/>
<polygon fill="#EB008B" points="577.6,612.9 567.4,555.4 570.3,554.9 579.6,607.4 656.8,545.9 666.1,480.2 643.4,429.4 668.5,397.6 
	670.8,399.5 646.9,429.8 669.2,479.8 659.6,547.5 659.1,547.9 "/>
<rect x="586.5" y="613.5" transform="matrix(0.3216 0.9469 -0.9469 0.3216 998.7104 -164.0053)" fill="#EB008B" width="54.7" height="3"/>
<rect x="591.2" y="610.5" transform="matrix(0.2731 0.962 -0.962 0.2731 1041.0693 -153.7908)" fill="#EB008B" width="62.2" height="3"/>
<path fill="none" stroke="#EB008B" stroke-width="3" stroke-miterlimit="10" d="M592.4,660.5"/>
<rect x="502.3" y="622.4" fill="#EB008B" width="3" height="9.3"/>
<path fill="none" stroke="#EB008B" stroke-width="3" stroke-miterlimit="10" d="M484.2,654"/>
<rect x="563" y="607.6" transform="matrix(0.9905 0.1374 -0.1374 0.9905 89.1195 -72.6669)" fill="#EB008B" width="15.7" height="3"/>
<rect x="494.9" y="629.8" transform="matrix(0.8693 0.4942 -0.4942 0.8693 383.5139 -161.0876)" fill="#EB008B" width="3" height="29.9"/>
<path fill="none" stroke="#EB008B" stroke-width="3" stroke-miterlimit="10" d="M536,657.7"/>
</svg>
