<?xml version="1.0" encoding="utf-8"?>
<!-- Generator: Adobe Illustrator 17.1.0, SVG Export Plug-In . SVG Version: 6.00 Build 0)  -->
<!DOCTYPE svg PUBLIC "-//W3C//DTD SVG 1.1//EN" "http://www.w3.org/Graphics/SVG/1.1/DTD/svg11.dtd">
<svg version="1.1" id="Layer_1" xmlns="http://www.w3.org/2000/svg" xmlns:xlink="http://www.w3.org/1999/xlink" x="0px" y="0px"
	 viewBox="400 400 200 200" enable-background="new 400 400 200 200" xml:space="preserve">
<polygon fill="#494949" points="444.4,488.9 466.7,533.3 511.1,533.3 488.9,488.9 "/>
<polygon fill="#494949" points="444.4,400 466.7,444.4 511.1,444.4 488.9,400 "/>
<polygon fill="#494949" points="511.1,466.7 488.9,511.1 444.4,511.1 466.7,466.7 "/>
<polygon fill="#8C8C8C" points="483.3,411.1 505.6,455.6 550,455.6 527.8,411.1 "/>
<polygon fill="#8C8C8C" points="550,455.6 527.8,500 483.3,500 505.6,455.6 "/>
<polygon fill="#494949" points="511.1,555.6 488.9,600 444.4,600 466.7,555.6 "/>
<polygon fill="#8C8C8C" points="483.3,500 505.6,544.4 550,544.4 527.8,500 "/>
<polygon fill="#8C8C8C" points="550,544.4 527.8,588.9 483.3,588.9 505.6,544.4 "/>
<rect x="422.2" y="541.7" fill="#494949" width="155.6" height="5.6"/>
<rect x="422.2" y="497.2" fill="#494949" width="113.9" height="5.6"/>
<rect x="422.2" y="452.8" fill="#494949" width="155.6" height="5.6"/>
</svg>
