<?xml version="1.0" encoding="utf-8"?>
<!-- Generator: Adobe Illustrator 17.1.0, SVG Export Plug-In . SVG Version: 6.00 Build 0)  -->
<!DOCTYPE svg PUBLIC "-//W3C//DTD SVG 1.1//EN" "http://www.w3.org/Graphics/SVG/1.1/DTD/svg11.dtd">
<svg version="1.1" id="Layer_1" xmlns="http://www.w3.org/2000/svg" xmlns:xlink="http://www.w3.org/1999/xlink" x="0px" y="0px"
	 viewBox="400 400 200 200" enable-background="new 400 400 200 200" xml:space="preserve">
<polygon fill="#EE4075" points="432.3,448.3 452,487.7 511.1,487.7 491.3,448.3 "/>
<polygon fill="#FEA337" points="455.6,428.6 475.3,467.9 493.8,467.9 474.1,428.6 "/>
<polygon fill="#EE4075" points="432.3,490.1 452,529.6 511.1,529.6 491.3,490.1 "/>
<polygon fill="#A22143" points="506.2,509.9 508.6,514.7 567.7,514.7 565.2,509.9 "/>
<polygon fill="#A22143" points="506.2,465.5 508.6,470.4 567.7,470.4 565.2,465.5 "/>
<polygon fill="#A22143" points="506.2,551.7 508.6,556.7 567.7,556.7 565.2,551.7 "/>
<polygon fill="#8294A2" points="474.1,448.3 481.5,463.1 562.7,463.1 555.4,448.3 "/>
<polygon fill="#EE4075" points="432.3,532 452,571.4 511.1,571.4 491.3,532 "/>
<polygon fill="#FEA337" points="455.6,470.4 475.3,509.9 493.8,509.9 474.1,470.4 "/>
<polygon fill="#FEA337" points="455.6,512.3 475.3,551.7 493.8,551.7 474.1,512.3 "/>
<polygon fill="#8294A2" points="474.1,490.1 481.5,504.9 562.7,504.9 555.4,490.1 "/>
<polygon fill="#8294A2" points="474.1,532 481.5,546.8 562.7,546.8 555.4,532 "/>
<polygon fill="#A22143" points="506.2,497.5 508.6,502.4 567.7,502.4 565.2,497.5 "/>
<polygon fill="#A22143" points="506.2,453.2 508.6,458.1 567.7,458.1 565.2,453.2 "/>
<polygon fill="#A22143" points="506.2,539.3 508.6,544.3 567.7,544.3 565.2,539.3 "/>
<polygon fill="#677A89" points="474.1,436 481.5,450.7 562.7,450.7 555.4,436 "/>
<polygon fill="#677A89" points="474.1,477.8 481.5,492.5 562.7,492.5 555.4,477.8 "/>
<polygon fill="#677A89" points="474.1,519.6 481.5,534.5 562.7,534.5 555.4,519.6 "/>
</svg>
