<?xml version="1.0" encoding="utf-8"?>
<!-- Generator: Adobe Illustrator 17.1.0, SVG Export Plug-In . SVG Version: 6.00 Build 0)  -->
<!DOCTYPE svg PUBLIC "-//W3C//DTD SVG 1.1//EN" "http://www.w3.org/Graphics/SVG/1.1/DTD/svg11.dtd">
<svg version="1.1" id="Layer_1" xmlns="http://www.w3.org/2000/svg" xmlns:xlink="http://www.w3.org/1999/xlink" x="0px" y="0px"
	 viewBox="0 0 1000 1000" enable-background="new 0 0 1000 1000" xml:space="preserve">
<g>
	<line fill="#231F20" x1="700" y1="100" x2="700" y2="400"/>
	<rect x="675" y="100" fill="#231F20" width="50" height="300"/>
</g>
<g>
	<line fill="#231F20" x1="800" y1="100" x2="800" y2="600"/>
	<rect x="775" y="100" fill="#231F20" width="50" height="500"/>
</g>
<g>
	<line fill="#231F20" x1="900" y1="100" x2="900" y2="800"/>
	<rect x="875" y="100" fill="#231F20" width="50" height="700"/>
</g>
<g>
	<line fill="#231F20" x1="800" y1="625" x2="800" y2="800"/>
	<rect x="775" y="625" fill="#231F20" width="50" height="175"/>
</g>
<g>
	<line fill="#231F20" x1="700" y1="425" x2="700" y2="900"/>
	<rect x="675" y="425" fill="#231F20" width="50" height="475"/>
</g>
<g>
	<line fill="#231F20" x1="800" y1="825" x2="800" y2="900"/>
	<rect x="775" y="825" fill="#231F20" width="50" height="75"/>
</g>
<g>
	<line fill="#231F20" x1="900" y1="825" x2="900" y2="900"/>
	<rect x="875" y="825" fill="#231F20" width="50" height="75"/>
</g>
<g>
	<line fill="#231F20" x1="600" y1="900" x2="600" y2="537.5"/>
	<rect x="575" y="537.5" fill="#231F20" width="50" height="362.5"/>
</g>
<g>
	<line fill="#231F20" x1="600" y1="512.5" x2="600" y2="100"/>
	<rect x="575" y="100" fill="#231F20" width="50" height="412.5"/>
</g>
<g>
	<line fill="#231F20" x1="500" y1="900" x2="500" y2="662.5"/>
	<rect x="475" y="662.5" fill="#231F20" width="50" height="237.5"/>
</g>
<g>
	<line fill="#231F20" x1="500" y1="637.5" x2="500" y2="100"/>
	<rect x="475" y="100" fill="#231F20" width="50" height="537.5"/>
</g>
<g>
	<line fill="#231F20" x1="400" y1="900" x2="400" y2="525"/>
	<rect x="375" y="525" fill="#231F20" width="50" height="375"/>
</g>
<g>
	<line fill="#231F20" x1="400" y1="500" x2="400" y2="100"/>
	<rect x="375" y="100" fill="#231F20" width="50" height="400"/>
</g>
<g>
	<line fill="#231F20" x1="300" y1="900" x2="300" y2="162.5"/>
	<rect x="275" y="162.5" fill="#231F20" width="50" height="737.5"/>
</g>
<g>
	<line fill="#231F20" x1="300" y1="137.5" x2="300" y2="100"/>
	<rect x="275" y="100" fill="#231F20" width="50" height="37.5"/>
</g>
<g>
	<line fill="#231F20" x1="200" y1="900" x2="200" y2="537.5"/>
	<rect x="175" y="537.5" fill="#231F20" width="50" height="362.5"/>
</g>
<g>
	<line fill="#231F20" x1="200" y1="512.5" x2="200" y2="100"/>
	<rect x="175" y="100" fill="#231F20" width="50" height="412.5"/>
</g>
<g>
	<line fill="#231F20" x1="100" y1="900" x2="100" y2="287.5"/>
	<rect x="75" y="287.5" fill="#231F20" width="50" height="612.5"/>
</g>
<g>
	<line fill="#231F20" x1="100" y1="262.5" x2="100" y2="100"/>
	<rect x="75" y="100" fill="#231F20" width="50" height="162.5"/>
</g>
</svg>
