<?xml version="1.0" encoding="utf-8"?>
<!-- Generator: Adobe Illustrator 17.1.0, SVG Export Plug-In . SVG Version: 6.00 Build 0)  -->
<!DOCTYPE svg PUBLIC "-//W3C//DTD SVG 1.1//EN" "http://www.w3.org/Graphics/SVG/1.1/DTD/svg11.dtd">
<svg version="1.1" id="Layer_1" xmlns="http://www.w3.org/2000/svg" xmlns:xlink="http://www.w3.org/1999/xlink" x="0px" y="0px"
	 viewBox="0 0 1000 1000" enable-background="new 0 0 1000 1000" xml:space="preserve">
<g>
	<polygon fill="#231F20" points="190.4,233.8 88.1,141.8 114.9,112 190.4,180 279.3,100 368.2,180 457.1,100 545.9,180 634.8,100 
		723.7,180 812.6,100 914.9,192 888.1,221.8 812.6,153.8 723.7,233.8 634.8,153.8 545.9,233.8 457.1,153.8 368.2,233.8 279.3,153.8 
			"/>
	<polygon fill="#231F20" points="190.4,367.1 88.1,275 114.9,245.3 190.4,313.2 279.3,233.2 368.2,313.2 457.1,233.2 545.9,313.2 
		634.8,233.2 723.7,313.2 812.6,233.2 914.9,325.3 888.1,355 812.6,287.1 723.7,367.1 634.8,287.1 545.9,367.1 457.1,287.1 
		368.2,367.1 279.3,287.1 	"/>
	<polygon fill="#231F20" points="190.4,500.3 88.1,408.2 114.9,378.5 190.4,446.5 279.3,366.5 368.2,446.5 457.1,366.5 545.9,446.5 
		634.8,366.5 723.7,446.5 812.6,366.5 914.9,458.5 888.1,488.2 812.6,420.3 723.7,500.3 634.8,420.3 545.9,500.3 457.1,420.3 
		368.2,500.3 279.3,420.3 	"/>
	<polygon fill="#231F20" points="190.4,633.5 88.1,541.5 114.9,511.8 190.4,579.7 279.3,499.7 368.2,579.7 457.1,499.7 545.9,579.7 
		634.8,499.7 723.7,579.7 812.6,499.7 914.9,591.8 888.1,621.5 812.6,553.5 723.7,633.5 634.8,553.5 545.9,633.5 457.1,553.5 
		368.2,633.5 279.3,553.5 	"/>
	<polygon fill="#231F20" points="190.4,766.8 88.1,674.7 114.9,645 190.4,712.9 279.3,632.9 368.2,712.9 457.1,632.9 545.9,712.9 
		634.8,632.9 723.7,712.9 812.6,632.9 914.9,725 888.1,754.7 812.6,686.8 723.7,766.8 634.8,686.8 545.9,766.8 457.1,686.8 
		368.2,766.8 279.3,686.8 	"/>
	<polygon fill="#231F20" points="190.4,900 88.1,808 114.9,778.2 190.4,846.2 279.3,766.2 368.2,846.2 457.1,766.2 545.9,846.2 
		634.8,766.2 723.7,846.2 812.6,766.2 914.9,858.2 888.1,888 812.6,820 723.7,900 634.8,820 545.9,900 457.1,820 368.2,900 
		279.3,820 	"/>
</g>
</svg>
