<?xml version="1.0" encoding="utf-8"?>
<!-- Generator: Adobe Illustrator 17.1.0, SVG Export Plug-In . SVG Version: 6.00 Build 0)  -->
<!DOCTYPE svg PUBLIC "-//W3C//DTD SVG 1.1//EN" "http://www.w3.org/Graphics/SVG/1.1/DTD/svg11.dtd">
<svg version="1.1" id="Layer_1" xmlns="http://www.w3.org/2000/svg" xmlns:xlink="http://www.w3.org/1999/xlink" x="0px" y="0px"
	 viewBox="0 0 500 500" enable-background="new 0 0 500 500" xml:space="preserve">
<g>
	<path fill="none" stroke="#1DB14C" stroke-width="10" stroke-linecap="round" stroke-linejoin="round" stroke-miterlimit="10" d="
		M357.9,313.5c12,0,21.7,9.7,21.7,21.7c0,15-12.2,27.2-27.2,27.2c-18.8,0-34-15.2-34-34c0-23.5,19-42.5,42.5-42.5
		c29.3,0,53.1,23.8,53.1,53.1c0,36.7-29.7,66.4-66.4,66.4c-45.8,0-83-37.1-83-83V179c0-45.8,37.1-83,83-83
		c36.7,0,66.4,29.7,66.4,66.4c0,29.3-23.8,53.1-53.1,53.1c-23.5,0-42.5-19-42.5-42.5c0-18.8,15.2-34,34-34c15,0,27.2,12.2,27.2,27.2
		c0,12-9.7,21.7-21.7,21.7"/>
	
		<line fill="none" stroke="#1DB14C" stroke-width="10" stroke-linecap="round" stroke-linejoin="round" stroke-miterlimit="10" x1="357.9" y1="215.4" x2="357.9" y2="286"/>
	<path fill="none" stroke="#1DB14C" stroke-width="10" stroke-linecap="round" stroke-linejoin="round" stroke-miterlimit="10" d="
		M142.1,313.5c-12,0-21.7,9.7-21.7,21.7c0,15,12.2,27.2,27.2,27.2c18.8,0,34-15.2,34-34c0-23.5-19-42.5-42.5-42.5
		c-29.3,0-53.1,23.8-53.1,53.1c0,36.7,29.7,66.4,66.4,66.4c45.8,0,83-37.1,83-83V179c0-45.8-37.1-83-83-83
		C115.7,96,86,125.7,86,162.4c0,29.3,23.8,53.1,53.1,53.1c23.5,0,42.5-19,42.5-42.5c0-18.8-15.2-34-34-34c-15,0-27.2,12.2-27.2,27.2
		c0,12,9.7,21.7,21.7,21.7"/>
	
		<line fill="none" stroke="#1DB14C" stroke-width="10" stroke-linecap="round" stroke-linejoin="round" stroke-miterlimit="10" x1="142.1" y1="215.4" x2="142.1" y2="286"/>
</g>
</svg>
