<?xml version="1.0" encoding="utf-8"?>
<!-- Generator: Adobe Illustrator 17.1.0, SVG Export Plug-In . SVG Version: 6.00 Build 0)  -->
<!DOCTYPE svg PUBLIC "-//W3C//DTD SVG 1.1//EN" "http://www.w3.org/Graphics/SVG/1.1/DTD/svg11.dtd">
<svg version="1.1" id="Layer_1" xmlns="http://www.w3.org/2000/svg" xmlns:xlink="http://www.w3.org/1999/xlink" x="0px" y="0px"
	 viewBox="0 0 300 300" enable-background="new 0 0 300 300" xml:space="preserve">
<rect x="89.1" y="129" fill="#FFFFFF" stroke="#16B34C" stroke-miterlimit="10" width="3.6" height="32.6"/>
<rect x="96.3" y="138" fill="#FFFFFF" stroke="#16B34C" stroke-miterlimit="10" width="3.6" height="23.5"/>
<polygon fill="#FFFFFF" stroke="#16B34C" stroke-miterlimit="10" points="99.9,161.5 99.9,141.6 101.8,139.8 101.8,161.5 "/>
<polygon fill="#FFFFFF" stroke="#16B34C" stroke-miterlimit="10" points="99.9,141.6 99.9,127.1 101.8,125.4 101.8,139.8 "/>
<polygon fill="#FFFFFF" stroke="#16B34C" stroke-miterlimit="10" points="96.3,138 96.3,132.6 99.9,129 99.9,138 "/>
<rect x="94.5" y="139.8" fill="#FFFFFF" stroke="#16B34C" stroke-miterlimit="10" width="1.8" height="21.7"/>
<rect x="92.7" y="132.6" fill="#FFFFFF" stroke="#16B34C" stroke-miterlimit="10" width="1.8" height="28.9"/>
<polygon fill="#FFFFFF" stroke="#16B34C" stroke-miterlimit="10" points="89.1,163.3 83.7,163.3 83.7,139.8 89.1,134.4 "/>
<rect x="81.8" y="132.6" fill="#FFFFFF" stroke="#16B34C" stroke-miterlimit="10" width="1.8" height="30.7"/>
<polygon fill="#FFFFFF" stroke="#16B34C" stroke-miterlimit="10" points="81.8,166.9 80.1,166.9 80.1,147 81.8,145.2 "/>
<polygon fill="#FFFFFF" stroke="#16B34C" stroke-miterlimit="10" points="80.1,166.9 78.2,166.9 78.2,145.2 80.1,143.4 "/>
<polygon fill="#FFFFFF" stroke="#16B34C" stroke-miterlimit="10" points="94.5,190.9 94.5,59.6 96.4,57.8 96.4,189.2 "/>
<polygon fill="#FFFFFF" stroke="#16B34C" stroke-miterlimit="10" points="90.9,187.3 90.9,65 94.5,61.4 94.5,187.3 "/>
<rect x="87.3" y="65.1" fill="#FFFFFF" stroke="#16B34C" stroke-miterlimit="10" width="1.8" height="177.1"/>
<rect x="112.6" y="129" fill="#FFFFFF" stroke="#16B34C" stroke-miterlimit="10" width="3.6" height="32.6"/>
<rect x="119.8" y="138" fill="#FFFFFF" stroke="#16B34C" stroke-miterlimit="10" width="3.6" height="23.5"/>
<polygon fill="#FFFFFF" stroke="#16B34C" stroke-miterlimit="10" points="123.4,161.5 123.4,141.6 125.3,139.8 125.3,161.5 "/>
<polygon fill="#FFFFFF" stroke="#16B34C" stroke-miterlimit="10" points="123.4,141.6 123.4,127.1 125.3,125.4 125.3,139.8 "/>
<polygon fill="#FFFFFF" stroke="#16B34C" stroke-miterlimit="10" points="119.8,138 119.8,132.6 123.4,129 123.4,138 "/>
<rect x="118" y="139.8" fill="#FFFFFF" stroke="#16B34C" stroke-miterlimit="10" width="1.8" height="21.7"/>
<rect x="116.2" y="132.6" fill="#FFFFFF" stroke="#16B34C" stroke-miterlimit="10" width="1.8" height="28.9"/>
<polygon fill="#FFFFFF" stroke="#16B34C" stroke-miterlimit="10" points="112.6,163.3 107.2,163.3 107.2,139.8 112.6,134.4 "/>
<rect x="105.4" y="132.6" fill="#FFFFFF" stroke="#16B34C" stroke-miterlimit="10" width="1.8" height="30.7"/>
<polygon fill="#FFFFFF" stroke="#16B34C" stroke-miterlimit="10" points="105.4,166.9 103.6,166.9 103.6,147 105.4,145.2 "/>
<polygon fill="#FFFFFF" stroke="#16B34C" stroke-miterlimit="10" points="103.6,166.9 101.8,166.9 101.8,145.2 103.6,143.4 "/>
<polygon fill="#FFFFFF" stroke="#16B34C" stroke-miterlimit="10" points="118,190.9 118,59.6 119.9,57.8 119.9,189.2 "/>
<polygon fill="#FFFFFF" stroke="#16B34C" stroke-miterlimit="10" points="114.4,187.3 114.4,65 118,61.4 118,187.3 "/>
<rect x="110.8" y="65.1" fill="#FFFFFF" stroke="#16B34C" stroke-miterlimit="10" width="1.8" height="177.1"/>
<rect x="136.1" y="129" fill="#FFFFFF" stroke="#16B34C" stroke-miterlimit="10" width="3.6" height="32.6"/>
<rect x="143.3" y="138" fill="#FFFFFF" stroke="#16B34C" stroke-miterlimit="10" width="3.6" height="23.5"/>
<polygon fill="#FFFFFF" stroke="#16B34C" stroke-miterlimit="10" points="147,161.5 147,141.6 148.8,139.8 148.8,161.5 "/>
<polygon fill="#FFFFFF" stroke="#16B34C" stroke-miterlimit="10" points="147,141.6 147,127.1 148.8,125.4 148.8,139.8 "/>
<polygon fill="#FFFFFF" stroke="#16B34C" stroke-miterlimit="10" points="143.3,138 143.3,132.6 147,129 147,138 "/>
<rect x="141.5" y="139.8" fill="#FFFFFF" stroke="#16B34C" stroke-miterlimit="10" width="1.8" height="21.7"/>
<rect x="139.7" y="132.6" fill="#FFFFFF" stroke="#16B34C" stroke-miterlimit="10" width="1.8" height="28.9"/>
<polygon fill="#FFFFFF" stroke="#16B34C" stroke-miterlimit="10" points="136.1,163.3 130.7,163.3 130.7,139.8 136.1,134.4 "/>
<rect x="128.9" y="132.6" fill="#FFFFFF" stroke="#16B34C" stroke-miterlimit="10" width="1.8" height="30.7"/>
<polygon fill="#FFFFFF" stroke="#16B34C" stroke-miterlimit="10" points="128.9,166.9 127.1,166.9 127.1,147 128.9,145.2 "/>
<polygon fill="#FFFFFF" stroke="#16B34C" stroke-miterlimit="10" points="127.1,166.9 125.3,166.9 125.3,145.2 127.1,143.4 "/>
<polygon fill="#FFFFFF" stroke="#16B34C" stroke-miterlimit="10" points="141.6,190.9 141.6,59.6 143.4,57.8 143.4,189.2 "/>
<polygon fill="#FFFFFF" stroke="#16B34C" stroke-miterlimit="10" points="138,187.3 138,65 141.6,61.4 141.6,187.3 "/>
<rect x="134.3" y="65.1" fill="#FFFFFF" stroke="#16B34C" stroke-miterlimit="10" width="1.8" height="177.1"/>
<rect x="207.3" y="129" fill="#FFFFFF" stroke="#16B34C" stroke-miterlimit="10" width="3.6" height="32.6"/>
<rect x="200.1" y="138" fill="#FFFFFF" stroke="#16B34C" stroke-miterlimit="10" width="3.6" height="23.5"/>
<polygon fill="#FFFFFF" stroke="#16B34C" stroke-miterlimit="10" points="198.2,161.5 198.2,139.8 200.1,141.6 200.1,161.5 "/>
<polygon fill="#FFFFFF" stroke="#16B34C" stroke-miterlimit="10" points="198.2,139.8 198.2,125.4 200.1,127.1 200.1,141.6 "/>
<polygon fill="#FFFFFF" stroke="#16B34C" stroke-miterlimit="10" points="200.1,138 200.1,129 203.7,132.6 203.7,138 "/>
<rect x="203.7" y="139.8" fill="#FFFFFF" stroke="#16B34C" stroke-miterlimit="10" width="1.8" height="21.7"/>
<rect x="205.5" y="132.6" fill="#FFFFFF" stroke="#16B34C" stroke-miterlimit="10" width="1.8" height="28.9"/>
<polygon fill="#FFFFFF" stroke="#16B34C" stroke-miterlimit="10" points="210.9,134.4 216.3,139.8 216.3,163.3 210.9,163.3 "/>
<rect x="216.3" y="132.6" fill="#FFFFFF" stroke="#16B34C" stroke-miterlimit="10" width="1.8" height="30.7"/>
<polygon fill="#FFFFFF" stroke="#16B34C" stroke-miterlimit="10" points="218.2,145.2 219.9,147 219.9,166.9 218.2,166.9 "/>
<polygon fill="#FFFFFF" stroke="#16B34C" stroke-miterlimit="10" points="219.9,143.4 221.8,145.2 221.8,166.9 219.9,166.9 "/>
<polygon fill="#FFFFFF" stroke="#16B34C" stroke-miterlimit="10" points="203.6,189.2 203.6,57.8 205.5,59.6 205.5,190.9 "/>
<polygon fill="#FFFFFF" stroke="#16B34C" stroke-miterlimit="10" points="205.5,187.3 205.5,61.4 209.1,65 209.1,187.3 "/>
<rect x="210.9" y="65.1" fill="#FFFFFF" stroke="#16B34C" stroke-miterlimit="10" width="1.8" height="177.1"/>
<rect x="183.8" y="129" fill="#FFFFFF" stroke="#16B34C" stroke-miterlimit="10" width="3.6" height="32.6"/>
<rect x="176.6" y="138" fill="#FFFFFF" stroke="#16B34C" stroke-miterlimit="10" width="3.6" height="23.5"/>
<polygon fill="#FFFFFF" stroke="#16B34C" stroke-miterlimit="10" points="174.7,161.5 174.7,139.8 176.6,141.6 176.6,161.5 "/>
<polygon fill="#FFFFFF" stroke="#16B34C" stroke-miterlimit="10" points="174.7,139.8 174.7,125.4 176.6,127.1 176.6,141.6 "/>
<polygon fill="#FFFFFF" stroke="#16B34C" stroke-miterlimit="10" points="176.6,138 176.6,129 180.2,132.6 180.2,138 "/>
<rect x="180.2" y="139.8" fill="#FFFFFF" stroke="#16B34C" stroke-miterlimit="10" width="1.8" height="21.7"/>
<rect x="182" y="132.6" fill="#FFFFFF" stroke="#16B34C" stroke-miterlimit="10" width="1.8" height="28.9"/>
<polygon fill="#FFFFFF" stroke="#16B34C" stroke-miterlimit="10" points="187.4,134.4 192.8,139.8 192.8,163.3 187.4,163.3 "/>
<rect x="192.8" y="132.6" fill="#FFFFFF" stroke="#16B34C" stroke-miterlimit="10" width="1.8" height="30.7"/>
<polygon fill="#FFFFFF" stroke="#16B34C" stroke-miterlimit="10" points="194.6,145.2 196.4,147 196.4,166.9 194.6,166.9 "/>
<polygon fill="#FFFFFF" stroke="#16B34C" stroke-miterlimit="10" points="196.4,143.4 198.2,145.2 198.2,166.9 196.4,166.9 "/>
<polygon fill="#FFFFFF" stroke="#16B34C" stroke-miterlimit="10" points="180.1,189.2 180.1,57.8 182,59.6 182,190.9 "/>
<polygon fill="#FFFFFF" stroke="#16B34C" stroke-miterlimit="10" points="182,187.3 182,61.4 185.6,65 185.6,187.3 "/>
<rect x="187.4" y="65.1" fill="#FFFFFF" stroke="#16B34C" stroke-miterlimit="10" width="1.8" height="177.1"/>
<rect x="160.3" y="129" fill="#FFFFFF" stroke="#16B34C" stroke-miterlimit="10" width="3.6" height="32.6"/>
<rect x="153.1" y="138" fill="#FFFFFF" stroke="#16B34C" stroke-miterlimit="10" width="3.6" height="23.5"/>
<polygon fill="#FFFFFF" stroke="#16B34C" stroke-miterlimit="10" points="151.2,161.5 151.2,139.8 153,141.6 153,161.5 "/>
<polygon fill="#FFFFFF" stroke="#16B34C" stroke-miterlimit="10" points="151.2,139.8 151.2,125.4 153,127.1 153,141.6 "/>
<polygon fill="#FFFFFF" stroke="#16B34C" stroke-miterlimit="10" points="153,138 153,129 156.7,132.6 156.7,138 "/>
<rect x="156.7" y="139.8" fill="#FFFFFF" stroke="#16B34C" stroke-miterlimit="10" width="1.8" height="21.7"/>
<rect x="158.5" y="132.6" fill="#FFFFFF" stroke="#16B34C" stroke-miterlimit="10" width="1.8" height="28.9"/>
<polygon fill="#FFFFFF" stroke="#16B34C" stroke-miterlimit="10" points="163.9,134.4 169.3,139.8 169.3,163.3 163.9,163.3 "/>
<rect x="169.3" y="132.6" fill="#FFFFFF" stroke="#16B34C" stroke-miterlimit="10" width="1.8" height="30.7"/>
<polygon fill="#FFFFFF" stroke="#16B34C" stroke-miterlimit="10" points="171.1,145.2 172.9,147 172.9,166.9 171.1,166.9 "/>
<polygon fill="#FFFFFF" stroke="#16B34C" stroke-miterlimit="10" points="172.9,143.4 174.7,145.2 174.7,166.9 172.9,166.9 "/>
<polygon fill="#FFFFFF" stroke="#16B34C" stroke-miterlimit="10" points="156.6,189.2 156.6,57.8 158.4,59.6 158.4,190.9 "/>
<polygon fill="#FFFFFF" stroke="#16B34C" stroke-miterlimit="10" points="158.4,187.3 158.4,61.4 162,65 162,187.3 "/>
<rect x="163.9" y="65.1" fill="#FFFFFF" stroke="#16B34C" stroke-miterlimit="10" width="1.8" height="177.1"/>
</svg>
