<?xml version="1.0" encoding="utf-8"?>
<!-- Generator: Adobe Illustrator 17.1.0, SVG Export Plug-In . SVG Version: 6.00 Build 0)  -->
<!DOCTYPE svg PUBLIC "-//W3C//DTD SVG 1.1//EN" "http://www.w3.org/Graphics/SVG/1.1/DTD/svg11.dtd">
<svg version="1.1" id="Layer_1" xmlns="http://www.w3.org/2000/svg" xmlns:xlink="http://www.w3.org/1999/xlink" x="0px" y="0px"
	 viewBox="0 0 300 300" enable-background="new 0 0 300 300" xml:space="preserve">
<rect x="97" y="115.7" fill="#FFFFFF" stroke="#16B34C" stroke-miterlimit="10" width="3.4" height="75.5"/>
<polygon fill="#FFFFFF" stroke="#16B34C" stroke-miterlimit="10" points="93.6,129.5 93.6,98.5 83.3,88.2 83.3,81.4 97,95.1 
	97,129.5 "/>
<polygon fill="#FFFFFF" stroke="#16B34C" stroke-miterlimit="10" points="90.2,108.9 90.2,98.5 73,81.4 73,77.9 93.6,98.5 
	93.6,112.3 "/>
<polygon fill="#FFFFFF" stroke="#16B34C" stroke-miterlimit="10" points="90.2,108.9 90.2,102 66.1,77.9 66.1,84.8 "/>
<polygon fill="#FFFFFF" stroke="#16B34C" stroke-miterlimit="10" points="97,168.4 93.6,165 93.6,259.8 97,259.8 "/>
<polygon fill="#FFFFFF" stroke="#16B34C" stroke-miterlimit="10" points="114.2,174.1 114.2,187.8 100.5,174.1 100.5,160.3 "/>
<polygon fill="#FFFFFF" stroke="#16B34C" stroke-miterlimit="10" points="114.2,187.8 114.2,198.1 100.5,184.4 100.5,174.1 "/>
<polygon fill="#FFFFFF" stroke="#16B34C" stroke-miterlimit="10" points="110.8,194.7 110.8,218.7 114.2,218.7 114.2,198.1 "/>
<polygon fill="#FFFFFF" stroke="#16B34C" stroke-miterlimit="10" points="100.5,184.4 100.5,205 110.8,215.3 110.8,194.7 "/>
<rect x="73" y="192.9" fill="#FFFFFF" stroke="#16B34C" stroke-miterlimit="10" width="3.4" height="54.9"/>
<polygon fill="#FFFFFF" stroke="#16B34C" stroke-miterlimit="10" points="110.8,215.3 110.8,222.2 100.5,222.2 100.5,205 "/>
<rect x="145.1" y="119.1" fill="#FFFFFF" stroke="#16B34C" stroke-miterlimit="10" width="3.4" height="61.8"/>
<polygon fill="#FFFFFF" stroke="#16B34C" stroke-miterlimit="10" points="128,167.2 128,132.9 124.5,132.9 124.5,163.7 "/>
<polygon fill="#FFFFFF" stroke="#16B34C" stroke-miterlimit="10" points="134.8,174 128,167.2 128,132.9 134.8,132.9 "/>
<polygon fill="#FFFFFF" stroke="#16B34C" stroke-miterlimit="10" points="134.8,112.3 114.2,112.3 110.8,115.7 148.6,115.7 
	148.6,112.3 "/>
<rect x="117.6" y="129.4" fill="#FFFFFF" stroke="#16B34C" stroke-miterlimit="10" width="17.2" height="3.4"/>
<rect x="121.1" y="132.9" fill="#FFFFFF" stroke="#16B34C" stroke-miterlimit="10" width="3.4" height="6.8"/>
<rect x="100.5" y="115.7" fill="#FFFFFF" stroke="#16B34C" stroke-miterlimit="10" width="48.1" height="3.4"/>
<rect x="103.9" y="122.5" fill="#FFFFFF" stroke="#16B34C" stroke-miterlimit="10" width="30.9" height="3.4"/>
<rect x="117.6" y="126" fill="#FFFFFF" stroke="#16B34C" stroke-miterlimit="10" width="17.2" height="3.4"/>
<polygon fill="#FFFFFF" stroke="#16B34C" stroke-miterlimit="10" points="110.8,122.6 114.2,119.1 138.3,119.1 138.3,122.6 "/>
<rect x="97" y="198.1" fill="#FFFFFF" stroke="#16B34C" stroke-miterlimit="10" width="3.4" height="30.9"/>
<rect x="76.4" y="148" fill="#FFFFFF" stroke="#16B34C" stroke-miterlimit="10" width="3.6" height="111.8"/>
<polygon fill="#FFFFFF" stroke="#16B34C" stroke-miterlimit="10" points="80,179.2 93.7,192.9 93.7,241 80,227.3 "/>
<rect x="52.2" y="192.9" fill="#FFFFFF" stroke="#16B34C" stroke-miterlimit="10" width="3.4" height="54.9"/>
<rect x="55.6" y="148" fill="#FFFFFF" stroke="#16B34C" stroke-miterlimit="10" width="3.6" height="111.8"/>
<polygon fill="#FFFFFF" stroke="#16B34C" stroke-miterlimit="10" points="59.2,179.2 73,192.9 73,241 59.2,227.3 "/>
<rect x="31.4" y="192.9" fill="#FFFFFF" stroke="#16B34C" stroke-miterlimit="10" width="3.4" height="54.9"/>
<rect x="34.9" y="148" fill="#FFFFFF" stroke="#16B34C" stroke-miterlimit="10" width="3.6" height="111.8"/>
<polygon fill="#FFFFFF" stroke="#16B34C" stroke-miterlimit="10" points="38.4,179.2 52.2,192.9 52.2,241 38.4,227.3 "/>
<rect x="199.5" y="115.7" fill="#FFFFFF" stroke="#16B34C" stroke-miterlimit="10" width="3.4" height="75.5"/>
<polygon fill="#FFFFFF" stroke="#16B34C" stroke-miterlimit="10" points="203,129.5 203,95.1 216.7,81.4 216.7,88.2 206.4,98.5 
	206.4,129.5 "/>
<polygon fill="#FFFFFF" stroke="#16B34C" stroke-miterlimit="10" points="206.4,112.3 206.4,98.5 227,77.9 227,81.4 209.8,98.5 
	209.8,108.9 "/>
<polygon fill="#FFFFFF" stroke="#16B34C" stroke-miterlimit="10" points="233.9,84.8 233.9,77.9 209.8,102 209.8,108.9 "/>
<polygon fill="#FFFFFF" stroke="#16B34C" stroke-miterlimit="10" points="203,259.8 206.4,259.8 206.4,165 203,168.4 "/>
<polygon fill="#FFFFFF" stroke="#16B34C" stroke-miterlimit="10" points="199.5,160.3 199.5,174.1 185.8,187.8 185.8,174.1 "/>
<polygon fill="#FFFFFF" stroke="#16B34C" stroke-miterlimit="10" points="199.5,174.1 199.5,184.4 185.8,198.1 185.8,187.8 "/>
<polygon fill="#FFFFFF" stroke="#16B34C" stroke-miterlimit="10" points="185.8,198.1 185.8,218.7 189.2,218.7 189.2,194.7 "/>
<polygon fill="#FFFFFF" stroke="#16B34C" stroke-miterlimit="10" points="189.2,194.7 189.2,215.3 199.5,205 199.5,184.4 "/>
<rect x="223.6" y="192.9" fill="#FFFFFF" stroke="#16B34C" stroke-miterlimit="10" width="3.4" height="54.9"/>
<polygon fill="#FFFFFF" stroke="#16B34C" stroke-miterlimit="10" points="199.5,205 199.5,222.2 189.2,222.2 189.2,215.3 "/>
<rect x="151.5" y="119.1" fill="#FFFFFF" stroke="#16B34C" stroke-miterlimit="10" width="3.4" height="61.8"/>
<polygon fill="#FFFFFF" stroke="#16B34C" stroke-miterlimit="10" points="175.5,163.7 175.5,132.9 172,132.9 172,167.2 "/>
<polygon fill="#FFFFFF" stroke="#16B34C" stroke-miterlimit="10" points="165.2,132.9 172,132.9 172,167.2 165.2,174 "/>
<polygon fill="#FFFFFF" stroke="#16B34C" stroke-miterlimit="10" points="151.4,112.3 151.4,115.7 189.2,115.7 185.8,112.3 
	165.2,112.3 "/>
<rect x="165.2" y="129.4" fill="#FFFFFF" stroke="#16B34C" stroke-miterlimit="10" width="17.2" height="3.4"/>
<rect x="175.5" y="132.9" fill="#FFFFFF" stroke="#16B34C" stroke-miterlimit="10" width="3.4" height="6.8"/>
<rect x="151.4" y="115.7" fill="#FFFFFF" stroke="#16B34C" stroke-miterlimit="10" width="48.1" height="3.4"/>
<rect x="165.2" y="122.5" fill="#FFFFFF" stroke="#16B34C" stroke-miterlimit="10" width="30.9" height="3.4"/>
<rect x="165.2" y="126" fill="#FFFFFF" stroke="#16B34C" stroke-miterlimit="10" width="17.2" height="3.4"/>
<polygon fill="#FFFFFF" stroke="#16B34C" stroke-miterlimit="10" points="161.7,122.6 161.7,119.1 185.8,119.1 189.2,122.6 "/>
<rect x="151.5" y="40.2" fill="#FFFFFF" stroke="#16B34C" stroke-miterlimit="10" width="3.4" height="61.8"/>
<polygon fill="#FFFFFF" stroke="#16B34C" stroke-miterlimit="10" points="172,53.9 172,88.3 175.5,88.3 175.5,57.4 "/>
<polygon fill="#FFFFFF" stroke="#16B34C" stroke-miterlimit="10" points="165.2,47.1 172,53.9 172,88.3 165.2,88.3 "/>
<polygon fill="#FFFFFF" stroke="#16B34C" stroke-miterlimit="10" points="165.2,108.9 185.8,108.9 189.2,105.5 151.4,105.5 
	151.4,108.9 "/>
<rect x="165.2" y="88.3" fill="#FFFFFF" stroke="#16B34C" stroke-miterlimit="10" width="17.2" height="3.4"/>
<rect x="175.5" y="81.4" fill="#FFFFFF" stroke="#16B34C" stroke-miterlimit="10" width="3.4" height="6.8"/>
<rect x="151.4" y="102" fill="#FFFFFF" stroke="#16B34C" stroke-miterlimit="10" width="48.1" height="3.4"/>
<rect x="165.2" y="95.2" fill="#FFFFFF" stroke="#16B34C" stroke-miterlimit="10" width="30.9" height="3.4"/>
<rect x="165.2" y="91.7" fill="#FFFFFF" stroke="#16B34C" stroke-miterlimit="10" width="17.2" height="3.4"/>
<polygon fill="#FFFFFF" stroke="#16B34C" stroke-miterlimit="10" points="189.2,98.6 185.8,102 161.7,102 161.7,98.6 "/>
<rect x="145.1" y="40.2" fill="#FFFFFF" stroke="#16B34C" stroke-miterlimit="10" width="3.4" height="61.8"/>
<polygon fill="#FFFFFF" stroke="#16B34C" stroke-miterlimit="10" points="124.5,57.4 124.5,88.3 128,88.3 128,53.9 "/>
<polygon fill="#FFFFFF" stroke="#16B34C" stroke-miterlimit="10" points="134.8,88.3 128,88.3 128,53.9 134.8,47.1 "/>
<polygon fill="#FFFFFF" stroke="#16B34C" stroke-miterlimit="10" points="148.6,108.9 148.6,105.5 110.8,105.5 114.2,108.9 
	134.8,108.9 "/>
<rect x="117.6" y="88.3" fill="#FFFFFF" stroke="#16B34C" stroke-miterlimit="10" width="17.2" height="3.4"/>
<rect x="121.1" y="81.4" fill="#FFFFFF" stroke="#16B34C" stroke-miterlimit="10" width="3.4" height="6.8"/>
<rect x="100.5" y="102" fill="#FFFFFF" stroke="#16B34C" stroke-miterlimit="10" width="48.1" height="3.4"/>
<rect x="103.9" y="95.2" fill="#FFFFFF" stroke="#16B34C" stroke-miterlimit="10" width="30.9" height="3.4"/>
<rect x="117.6" y="91.7" fill="#FFFFFF" stroke="#16B34C" stroke-miterlimit="10" width="17.2" height="3.4"/>
<polygon fill="#FFFFFF" stroke="#16B34C" stroke-miterlimit="10" points="138.3,98.6 138.3,102 114.2,102 110.8,98.6 "/>
<rect x="199.5" y="198.1" fill="#FFFFFF" stroke="#16B34C" stroke-miterlimit="10" width="3.4" height="30.9"/>
<rect x="220" y="148" fill="#FFFFFF" stroke="#16B34C" stroke-miterlimit="10" width="3.6" height="111.8"/>
<polygon fill="#FFFFFF" stroke="#16B34C" stroke-miterlimit="10" points="220,227.3 206.3,241 206.3,192.9 220,179.2 "/>
<rect x="244.4" y="192.9" fill="#FFFFFF" stroke="#16B34C" stroke-miterlimit="10" width="3.4" height="54.9"/>
<rect x="240.8" y="148" fill="#FFFFFF" stroke="#16B34C" stroke-miterlimit="10" width="3.6" height="111.8"/>
<polygon fill="#FFFFFF" stroke="#16B34C" stroke-miterlimit="10" points="240.8,227.3 227,241 227,192.9 240.8,179.2 "/>
<rect x="265.1" y="192.9" fill="#FFFFFF" stroke="#16B34C" stroke-miterlimit="10" width="3.4" height="54.9"/>
<rect x="261.6" y="148" fill="#FFFFFF" stroke="#16B34C" stroke-miterlimit="10" width="3.6" height="111.8"/>
<polygon fill="#FFFFFF" stroke="#16B34C" stroke-miterlimit="10" points="261.6,227.3 247.8,241 247.8,192.9 261.6,179.2 "/>
</svg>
