<?xml version="1.0" encoding="utf-8"?>
<!-- Generator: Adobe Illustrator 18.0.0, SVG Export Plug-In . SVG Version: 6.00 Build 0)  -->
<!DOCTYPE svg PUBLIC "-//W3C//DTD SVG 1.1//EN" "http://www.w3.org/Graphics/SVG/1.1/DTD/svg11.dtd">
<svg version="1.1" id="Layer_1" xmlns="http://www.w3.org/2000/svg" xmlns:xlink="http://www.w3.org/1999/xlink" x="0px" y="0px"
	 viewBox="1196 764 200 200" enable-background="new 1196 764 200 200" xml:space="preserve">
<rect x="1233" y="792" fill="#FFFFFF" stroke="#000000" stroke-miterlimit="10" width="18" height="27"/>
<rect x="1242" y="810" fill="#FFFFFF" stroke="#000000" stroke-miterlimit="10" width="18" height="27"/>
<rect x="1233" y="828" fill="#FFFFFF" stroke="#000000" stroke-miterlimit="10" width="18" height="36"/>
<rect x="1242" y="837" fill="#FFFFFF" stroke="#000000" stroke-miterlimit="10" width="18" height="99"/>
<rect x="1251" y="891" fill="#FFFFFF" stroke="#000000" stroke-miterlimit="10" width="18" height="9"/>
<rect x="1260" y="908.8" fill="#FFFFFF" stroke="#000000" stroke-miterlimit="10" width="18" height="27.2"/>
<rect x="1251" y="918" fill="#FFFFFF" stroke="#000000" stroke-miterlimit="10" width="18" height="9"/>
<rect x="1278" y="891" fill="#FFFFFF" stroke="#000000" stroke-miterlimit="10" width="18" height="36"/>
<rect x="1269" y="918" fill="#FFFFFF" stroke="#000000" stroke-miterlimit="10" width="54" height="18"/>
<rect x="1305" y="864" fill="#FFFFFF" stroke="#000000" stroke-miterlimit="10" width="18" height="54"/>
<rect x="1287" y="882" fill="#FFFFFF" stroke="#000000" stroke-miterlimit="10" width="27" height="45"/>
<rect x="1323" y="855" fill="#FFFFFF" stroke="#000000" stroke-miterlimit="10" width="9" height="81"/>
<rect x="1332" y="837" fill="#FFFFFF" stroke="#000000" stroke-miterlimit="10" width="9" height="63"/>
<rect x="1332" y="864" fill="#FFFFFF" stroke="#000000" stroke-miterlimit="10" width="36" height="27"/>
<rect x="1332" y="801" fill="#FFFFFF" stroke="#000000" stroke-miterlimit="10" width="18" height="72"/>
<rect x="1323" y="882" fill="#FFFFFF" stroke="#000000" stroke-miterlimit="10" width="18" height="45"/>
<rect x="1332" y="810" fill="#FFFFFF" stroke="#000000" stroke-miterlimit="10" width="9" height="9"/>
<rect x="1341" y="792" fill="#FFFFFF" stroke="#000000" stroke-miterlimit="10" width="18" height="18"/>
<rect x="1323" y="828" fill="#FFFFFF" stroke="#000000" stroke-miterlimit="10" width="18" height="18"/>
</svg>
