<?xml version="1.0" encoding="utf-8"?>
<!-- Generator: Adobe Illustrator 18.0.0, SVG Export Plug-In . SVG Version: 6.00 Build 0)  -->
<!DOCTYPE svg PUBLIC "-//W3C//DTD SVG 1.1//EN" "http://www.w3.org/Graphics/SVG/1.1/DTD/svg11.dtd">
<svg version="1.1" id="Layer_1" xmlns="http://www.w3.org/2000/svg" xmlns:xlink="http://www.w3.org/1999/xlink" x="0px" y="0px"
	 viewBox="1196 764 200 200" enable-background="new 1196 764 200 200" xml:space="preserve">
<rect x="1215" y="783" fill="#FFFFFF" stroke="#000000" stroke-miterlimit="10" width="162" height="18"/>
<rect x="1215" y="801" fill="#FFFFFF" stroke="#000000" stroke-miterlimit="10" width="79.9" height="18"/>
<rect x="1268.6" y="801" fill="#FFFFFF" stroke="#000000" stroke-miterlimit="10" width="63.4" height="18"/>
<rect x="1215" y="819" fill="#FFFFFF" stroke="#000000" stroke-miterlimit="10" width="79.9" height="18"/>
<rect x="1215" y="827.1" fill="#FFFFFF" stroke="#000000" stroke-miterlimit="10" width="63" height="27.9"/>
<rect x="1215" y="809.9" fill="#FFFFFF" stroke="#000000" stroke-miterlimit="10" width="36.1" height="63.1"/>
<rect x="1215" y="854.9" fill="#FFFFFF" stroke="#000000" stroke-miterlimit="10" width="26" height="63.1"/>
<rect x="1234" y="854.9" fill="#FFFFFF" stroke="#000000" stroke-miterlimit="10" width="26" height="63.1"/>
<rect x="1260" y="846.2" fill="#FFFFFF" stroke="#000000" stroke-miterlimit="10" width="26" height="71.8"/>
<rect x="1279" y="873" fill="#FFFFFF" stroke="#000000" stroke-miterlimit="10" width="26" height="71.8"/>
<rect x="1243" y="891.8" fill="#FFFFFF" stroke="#000000" stroke-miterlimit="10" width="26" height="53.2"/>
<rect x="1269" y="908.2" fill="#FFFFFF" stroke="#000000" stroke-miterlimit="10" width="26" height="36.8"/>
<rect x="1322.9" y="908.2" fill="#FFFFFF" stroke="#000000" stroke-miterlimit="10" width="17" height="36.8"/>
<rect x="1305" y="900" fill="#FFFFFF" stroke="#000000" stroke-miterlimit="10" width="63.2" height="36.8"/>
<rect x="1305" y="872.2" fill="#FFFFFF" stroke="#000000" stroke-miterlimit="10" width="63.2" height="36.8"/>
<rect x="1225" y="908.2" fill="#FFFFFF" stroke="#000000" stroke-miterlimit="10" width="26" height="36.8"/>
<rect x="1288" y="889.9" fill="#FFFFFF" stroke="#000000" stroke-miterlimit="10" width="43.8" height="29"/>
<rect x="1315.2" y="889.9" fill="#FFFFFF" stroke="#000000" stroke-miterlimit="10" width="43.8" height="29"/>
<rect x="1315.2" y="881.6" fill="#FFFFFF" stroke="#000000" stroke-miterlimit="10" width="43.8" height="18.4"/>
<rect x="1349.4" y="836.3" fill="#FFFFFF" stroke="#000000" stroke-miterlimit="10" width="27.6" height="46.2"/>
<rect x="1323" y="836.3" fill="#FFFFFF" stroke="#000000" stroke-miterlimit="10" width="36.2" height="19.5"/>
</svg>
