<?xml version="1.0" encoding="utf-8"?>
<!-- Generator: Adobe Illustrator 17.1.0, SVG Export Plug-In . SVG Version: 6.00 Build 0)  -->
<!DOCTYPE svg PUBLIC "-//W3C//DTD SVG 1.1//EN" "http://www.w3.org/Graphics/SVG/1.1/DTD/svg11.dtd">
<svg version="1.1" id="Layer_1" xmlns="http://www.w3.org/2000/svg" xmlns:xlink="http://www.w3.org/1999/xlink" x="0px" y="0px"
	 viewBox="0 0 1000 1000" enable-background="new 0 0 1000 1000" xml:space="preserve">
<path fill="#00AEEF" d="M531,574.915"/>
<path fill="#00AEEF" stroke="#00AEEF" stroke-miterlimit="10" d="M604.87,160.627"/>
<path fill="#00AEEF" d="M655.227,344.648"/>
<path fill="#00AEEF" d="M327.471,344.648"/>
<g>
	<line fill="#00AEEF" stroke="#00AEEF" stroke-miterlimit="10" x1="423.474" y1="621.564" x2="423.43" y2="621.64"/>
	<line fill="#00AEEF" stroke="#00AEEF" stroke-miterlimit="10" x1="559.268" y1="621.64" x2="559.224" y2="621.564"/>
	<path fill="#00AEEF" stroke="#00AEEF" stroke-miterlimit="10" d="M657,468l-2.753,0.041c-18.374,0.552-35.365,6.612-49.377,16.584
		c-4.106,2.922-7.956,6.181-11.51,9.735c-15.254,15.255-25.058,35.961-26.239,58.945c-0.077,1.53-0.117,3.069-0.117,4.618
		c0,24.853,10.074,47.353,26.36,63.64h-0.079c0.025,0.025,0.049,0.051,0.075,0.076h-34.092l3.13,5.421l3.689,6.396
		C580.709,663.385,611.447,684,647,684h10c59.647,0,108-48.353,108-108S716.637,466.94,657,468z"/>
	<path fill="#00AEEF" stroke="#00AEEF" stroke-miterlimit="10" d="M389.413,621.564h34.061l67.103-116.226l0.772-1.337
		l67.875,117.564h34.061C577.044,605.283,567,582.815,567,558c0-1.575,0.041-3.14,0.121-4.695
		c1.163-23.015,10.972-43.75,26.243-59.022c3.554-3.554,7.404-6.813,11.51-9.735l-1.862-3.141L491.349,288l-1.184,2.05
		l-110.48,191.357l-1.862,3.141c4.106,2.922,7.956,6.181,11.51,9.735c15.271,15.272,25.08,36.007,26.243,59.022
		c0.08,1.555,0.121,3.12,0.121,4.695C415.698,582.815,405.654,605.283,389.413,621.564z"/>
	<path fill="#00AEEF" stroke="#00AEEF" stroke-miterlimit="10" d="M389.413,621.564h-0.079c16.286-16.287,26.36-38.787,26.36-63.64
		c0-1.549-0.039-3.089-0.117-4.618c-1.181-22.984-10.985-43.69-26.239-58.945c-3.554-3.554-7.404-6.813-11.51-9.735
		c-14.013-9.972-31.003-16.032-49.377-16.584L325.698,468c-59.637-1.06-108,48.353-108,108s48.353,108,108,108h10
		c35.553,0,66.291-20.615,80.913-50.543l3.689-6.396l3.13-5.421h-21.763h-12.329C389.363,621.615,389.388,621.589,389.413,621.564z"
		/>
</g>
</svg>
