<?xml version="1.0" encoding="utf-8"?>
<!-- Generator: Adobe Illustrator 17.1.0, SVG Export Plug-In . SVG Version: 6.00 Build 0)  -->
<!DOCTYPE svg PUBLIC "-//W3C//DTD SVG 1.1//EN" "http://www.w3.org/Graphics/SVG/1.1/DTD/svg11.dtd">
<svg version="1.1" id="Layer_1" xmlns="http://www.w3.org/2000/svg" xmlns:xlink="http://www.w3.org/1999/xlink" x="0px" y="0px"
	 viewBox="0 0 1000 1000" enable-background="new 0 0 1000 1000" xml:space="preserve">
<polygon fill="none" stroke="#00AEEF" stroke-miterlimit="10" points="469.588,309.706 482.294,309.706 469.588,322.412 "/>
<polygon fill="none" stroke="#00AEEF" stroke-miterlimit="10" points="399.706,189 380.647,189 348.882,220.765 367.941,220.765 "/>
<polygon fill="none" stroke="#00AEEF" stroke-miterlimit="10" points="367.941,220.765 399.706,252.529 399.706,271.588 
	348.882,220.765 "/>
<polygon fill="none" stroke="#00AEEF" stroke-miterlimit="10" points="361.588,189 329.824,220.765 348.882,220.765 380.647,189 "/>
<polygon fill="none" stroke="#00AEEF" stroke-miterlimit="10" points="361.588,189 310.765,239.824 291.706,239.824 342.529,189 "/>
<polygon fill="none" stroke="#00AEEF" stroke-miterlimit="10" points="329.824,220.765 329.824,290.647 342.529,303.353 
	342.529,220.765 "/>
<rect x="342.529" y="220.765" fill="none" stroke="#00AEEF" stroke-miterlimit="10" width="6.353" height="120.706"/>
<polygon fill="none" stroke="#00AEEF" stroke-miterlimit="10" points="348.882,328.765 399.706,277.941 399.706,297 
	348.882,347.824 "/>
<polygon fill="none" stroke="#00AEEF" stroke-miterlimit="10" points="361.588,233.471 361.588,316.059 348.882,328.765 
	348.882,220.765 "/>
<polygon fill="none" stroke="#00AEEF" stroke-miterlimit="10" points="361.588,233.471 387,258.882 387,271.588 361.588,246.176 "/>
<polygon fill="none" stroke="#00AEEF" stroke-miterlimit="10" points="387,258.882 387,290.647 393.353,284.294 393.353,265.235 "/>
<polygon fill="none" stroke="#00AEEF" stroke-miterlimit="10" points="361.588,265.235 387,290.647 387,271.588 361.588,246.176 "/>
<polygon fill="none" stroke="#00AEEF" stroke-miterlimit="10" points="387,290.647 387,309.706 393.353,303.353 393.353,284.294 "/>
<polygon fill="none" stroke="#00AEEF" stroke-miterlimit="10" points="361.588,284.294 374.294,297 374.294,277.941 
	361.588,265.235 "/>
<polygon fill="none" stroke="#00AEEF" stroke-miterlimit="10" points="374.294,277.941 380.647,284.294 380.647,297 
	374.294,303.353 "/>
<polygon fill="none" stroke="#00AEEF" stroke-miterlimit="10" points="361.588,284.294 374.294,297 374.294,303.353 
	361.588,316.059 "/>
<polygon fill="none" stroke="#00AEEF" stroke-miterlimit="10" points="393.353,265.235 393.353,284.294 399.706,277.941 
	399.706,271.588 "/>
<polygon fill="none" stroke="#00AEEF" stroke-miterlimit="10" points="399.706,297 399.706,360.529 393.353,360.529 
	393.353,303.353 "/>
<polygon fill="none" stroke="#00AEEF" stroke-miterlimit="10" points="310.765,239.824 310.765,322.412 291.706,303.353 
	291.706,239.824 "/>
<polygon fill="none" stroke="#00AEEF" stroke-miterlimit="10" points="348.882,220.765 348.882,201.706 329.824,220.765 "/>
<polygon fill="none" stroke="#00AEEF" stroke-miterlimit="10" points="298.059,189 298.059,233.471 310.765,220.765 310.765,189 "/>
<polygon fill="none" stroke="#00AEEF" stroke-miterlimit="10" points="298.059,189 291.706,189 291.706,239.824 298.059,233.471 "/>
<polygon fill="none" stroke="#00AEEF" stroke-miterlimit="10" points="291.706,239.824 279,239.824 279,290.647 291.706,303.353 "/>
<rect x="310.765" y="297" fill="none" stroke="#00AEEF" stroke-miterlimit="10" width="25.412" height="12.706"/>
<polygon fill="none" stroke="#00AEEF" stroke-miterlimit="10" points="336.176,297 310.765,271.588 310.765,297 "/>
<polygon fill="none" stroke="#00AEEF" stroke-miterlimit="10" points="323.471,227.118 323.471,284.294 329.824,290.647 
	329.824,220.765 "/>
<polygon fill="none" stroke="#00AEEF" stroke-miterlimit="10" points="317.118,233.471 317.118,277.941 323.471,284.294 
	323.471,227.118 "/>
<polygon fill="none" stroke="#00AEEF" stroke-miterlimit="10" points="310.765,239.824 317.118,233.471 317.118,277.941 
	310.765,271.588 "/>
<polygon fill="none" stroke="#00AEEF" stroke-miterlimit="10" points="336.176,297 336.176,392.294 342.529,385.941 
	342.529,303.353 "/>
<polygon fill="none" stroke="#00AEEF" stroke-miterlimit="10" points="348.882,347.824 348.882,379.588 361.588,366.882 
	361.588,335.118 "/>
<polygon fill="none" stroke="#00AEEF" stroke-miterlimit="10" points="361.588,360.529 393.353,328.765 393.353,303.353 
	361.588,335.118 "/>
<polygon fill="none" stroke="#00AEEF" stroke-miterlimit="10" points="399.706,360.529 450.529,411.353 450.529,424.059 
	387,360.529 "/>
<polygon fill="none" stroke="#00AEEF" stroke-miterlimit="10" points="418.765,309.706 418.765,379.588 425.118,385.941 
	425.118,309.706 "/>
<polygon fill="none" stroke="#00AEEF" stroke-miterlimit="10" points="406.059,309.706 406.059,335.118 418.765,322.412 
	418.765,309.706 "/>
<polygon fill="none" stroke="#00AEEF" stroke-miterlimit="10" points="425.118,309.706 425.118,341.471 456.882,309.706 "/>
<polygon fill="none" stroke="#00AEEF" stroke-miterlimit="10" points="444.176,322.412 444.176,379.588 463.235,379.588 
	463.235,309.706 456.882,309.706 "/>
<polygon fill="none" stroke="#00AEEF" stroke-miterlimit="10" points="437.824,328.765 437.824,398.647 444.176,405 
	444.176,322.412 "/>
<polygon fill="none" stroke="#00AEEF" stroke-miterlimit="10" points="425.118,341.471 437.824,328.765 437.824,398.647 
	425.118,385.941 "/>
<polygon fill="none" stroke="#00AEEF" stroke-miterlimit="10" points="406.059,335.118 406.059,366.882 418.765,379.588 
	418.765,322.412 "/>
<polygon fill="none" stroke="#00AEEF" stroke-miterlimit="10" points="406.059,309.706 399.706,309.706 399.706,360.529 
	406.059,366.882 "/>
<polygon fill="none" stroke="#00AEEF" stroke-miterlimit="10" points="387,360.529 361.588,360.529 393.353,328.765 
	393.353,360.529 "/>
<rect x="463.235" y="309.706" fill="none" stroke="#00AEEF" stroke-miterlimit="10" width="6.353" height="139.765"/>
<rect x="469.588" y="335.118" fill="none" stroke="#00AEEF" stroke-miterlimit="10" width="12.706" height="165.176"/>
<polygon fill="none" stroke="#00AEEF" stroke-miterlimit="10" points="450.529,379.588 450.529,411.353 463.235,424.059 
	463.235,379.588 "/>
<polygon fill="none" stroke="#00AEEF" stroke-miterlimit="10" points="444.176,379.588 444.176,405 450.529,411.353 
	450.529,379.588 "/>
<polygon fill="none" stroke="#00AEEF" stroke-miterlimit="10" points="387,360.529 374.294,360.529 450.529,436.765 
	450.529,424.059 "/>
<polygon fill="none" stroke="#00AEEF" stroke-miterlimit="10" points="361.588,360.529 348.882,360.529 348.882,379.588 
	361.588,366.882 "/>
<polygon fill="none" stroke="#00AEEF" stroke-miterlimit="10" points="342.529,341.471 348.882,341.471 348.882,468.529 
	336.176,481.235 336.176,392.294 342.529,385.941 "/>
<polygon fill="none" stroke="#00AEEF" stroke-miterlimit="10" points="348.882,468.529 406.059,468.529 393.353,481.235 
	336.176,481.235 "/>
<polygon fill="none" stroke="#00AEEF" stroke-miterlimit="10" points="406.059,468.529 406.059,392.294 418.765,405 
	418.765,481.235 "/>
<polygon fill="none" stroke="#00AEEF" stroke-miterlimit="10" points="418.765,481.235 406.059,468.529 393.353,481.235 
	431.471,519.353 444.176,506.647 "/>
<polygon fill="none" stroke="#00AEEF" stroke-miterlimit="10" points="444.176,506.647 469.588,481.235 469.588,455.824 
	431.471,493.941 "/>
<rect x="361.588" y="360.529" fill="none" stroke="#00AEEF" stroke-miterlimit="10" width="6.353" height="108"/>
<rect x="367.941" y="360.529" fill="none" stroke="#00AEEF" stroke-miterlimit="10" width="6.353" height="108"/>
<polygon fill="none" stroke="#00AEEF" stroke-miterlimit="10" points="380.647,366.882 380.647,468.529 374.294,468.529 
	374.294,360.529 "/>
<polygon fill="none" stroke="#00AEEF" stroke-miterlimit="10" points="380.647,366.882 380.647,468.529 387,468.529 387,373.235 "/>
<polygon fill="none" stroke="#00AEEF" stroke-miterlimit="10" points="450.529,436.765 450.529,474.882 456.882,468.529 
	456.882,417.706 450.529,411.353 "/>
<polygon fill="none" stroke="#00AEEF" stroke-miterlimit="10" points="456.882,417.706 463.235,424.059 463.235,462.176 
	456.882,468.529 "/>
<polygon fill="none" stroke="#00AEEF" stroke-miterlimit="10" points="425.118,411.353 425.118,487.588 431.471,493.941 
	431.471,417.706 "/>
<polygon fill="none" stroke="#00AEEF" stroke-miterlimit="10" points="437.824,424.059 437.824,487.588 450.529,474.882 
	450.529,436.765 "/>
<polygon fill="none" stroke="#00AEEF" stroke-miterlimit="10" points="520.412,309.706 507.706,309.706 520.412,322.412 "/>
<polygon fill="none" stroke="#00AEEF" stroke-miterlimit="10" points="590.294,189 609.353,189 641.118,220.765 622.059,220.765 "/>
<polygon fill="none" stroke="#00AEEF" stroke-miterlimit="10" points="622.059,220.765 590.294,252.529 590.294,271.588 
	641.118,220.765 "/>
<polygon fill="none" stroke="#00AEEF" stroke-miterlimit="10" points="628.412,189 660.176,220.765 641.118,220.765 609.353,189 "/>
<polygon fill="none" stroke="#00AEEF" stroke-miterlimit="10" points="628.412,189 679.235,239.824 698.294,239.824 647.471,189 "/>
<polygon fill="none" stroke="#00AEEF" stroke-miterlimit="10" points="660.176,220.765 660.176,290.647 647.471,303.353 
	647.471,220.765 "/>
<rect x="641.118" y="220.765" fill="none" stroke="#00AEEF" stroke-miterlimit="10" width="6.353" height="120.706"/>
<polygon fill="none" stroke="#00AEEF" stroke-miterlimit="10" points="641.118,328.765 590.294,277.941 590.294,297 
	641.118,347.824 "/>
<polygon fill="none" stroke="#00AEEF" stroke-miterlimit="10" points="628.412,233.471 628.412,316.059 641.118,328.765 
	641.118,220.765 "/>
<polygon fill="none" stroke="#00AEEF" stroke-miterlimit="10" points="628.412,233.471 603,258.882 603,271.588 628.412,246.176 "/>
<polygon fill="none" stroke="#00AEEF" stroke-miterlimit="10" points="603,258.882 603,290.647 596.647,284.294 596.647,265.235 "/>
<polygon fill="none" stroke="#00AEEF" stroke-miterlimit="10" points="628.412,265.235 603,290.647 603,271.588 628.412,246.176 "/>
<polygon fill="none" stroke="#00AEEF" stroke-miterlimit="10" points="603,290.647 603,309.706 596.647,303.353 596.647,284.294 "/>
<polygon fill="none" stroke="#00AEEF" stroke-miterlimit="10" points="628.412,284.294 615.706,297 615.706,277.941 
	628.412,265.235 "/>
<polygon fill="none" stroke="#00AEEF" stroke-miterlimit="10" points="615.706,277.941 609.353,284.294 609.353,297 
	615.706,303.353 "/>
<polygon fill="none" stroke="#00AEEF" stroke-miterlimit="10" points="628.412,284.294 615.706,297 615.706,303.353 
	628.412,316.059 "/>
<polygon fill="none" stroke="#00AEEF" stroke-miterlimit="10" points="596.647,265.235 596.647,284.294 590.294,277.941 
	590.294,271.588 "/>
<polygon fill="none" stroke="#00AEEF" stroke-miterlimit="10" points="590.294,297 590.294,360.529 596.647,360.529 
	596.647,303.353 "/>
<polygon fill="none" stroke="#00AEEF" stroke-miterlimit="10" points="679.235,239.824 679.235,322.412 698.294,303.353 
	698.294,239.824 "/>
<polygon fill="none" stroke="#00AEEF" stroke-miterlimit="10" points="641.118,220.765 641.118,201.706 660.176,220.765 "/>
<polygon fill="none" stroke="#00AEEF" stroke-miterlimit="10" points="691.941,189 691.941,233.471 679.235,220.765 679.235,189 "/>
<polygon fill="none" stroke="#00AEEF" stroke-miterlimit="10" points="691.941,189 698.294,189 698.294,239.824 691.941,233.471 "/>
<polygon fill="none" stroke="#00AEEF" stroke-miterlimit="10" points="698.294,239.824 711,239.824 711,290.647 698.294,303.353 "/>
<rect x="653.824" y="297" fill="none" stroke="#00AEEF" stroke-miterlimit="10" width="25.412" height="12.706"/>
<polygon fill="none" stroke="#00AEEF" stroke-miterlimit="10" points="653.824,297 679.235,271.588 679.235,297 "/>
<polygon fill="none" stroke="#00AEEF" stroke-miterlimit="10" points="666.529,227.118 666.529,284.294 660.176,290.647 
	660.176,220.765 "/>
<polygon fill="none" stroke="#00AEEF" stroke-miterlimit="10" points="672.882,233.471 672.882,277.941 666.529,284.294 
	666.529,227.118 "/>
<polygon fill="none" stroke="#00AEEF" stroke-miterlimit="10" points="679.235,239.824 672.882,233.471 672.882,277.941 
	679.235,271.588 "/>
<polygon fill="none" stroke="#00AEEF" stroke-miterlimit="10" points="653.824,297 653.824,392.294 647.471,385.941 
	647.471,303.353 "/>
<polygon fill="none" stroke="#00AEEF" stroke-miterlimit="10" points="641.118,347.824 641.118,379.588 628.412,366.882 
	628.412,335.118 "/>
<polygon fill="none" stroke="#00AEEF" stroke-miterlimit="10" points="628.412,360.529 596.647,328.765 596.647,303.353 
	628.412,335.118 "/>
<polygon fill="none" stroke="#00AEEF" stroke-miterlimit="10" points="590.294,360.529 539.471,411.353 539.471,424.059 
	603,360.529 "/>
<polygon fill="none" stroke="#00AEEF" stroke-miterlimit="10" points="571.235,309.706 571.235,379.588 564.882,385.941 
	564.882,309.706 "/>
<polygon fill="none" stroke="#00AEEF" stroke-miterlimit="10" points="583.941,309.706 583.941,335.118 571.235,322.412 
	571.235,309.706 "/>
<polygon fill="none" stroke="#00AEEF" stroke-miterlimit="10" points="564.882,309.706 564.882,341.471 533.118,309.706 "/>
<polygon fill="none" stroke="#00AEEF" stroke-miterlimit="10" points="545.824,322.412 545.824,379.588 526.765,379.588 
	526.765,309.706 533.118,309.706 "/>
<polygon fill="none" stroke="#00AEEF" stroke-miterlimit="10" points="552.176,328.765 552.176,398.647 545.824,405 
	545.824,322.412 "/>
<polygon fill="none" stroke="#00AEEF" stroke-miterlimit="10" points="564.882,341.471 552.176,328.765 552.176,398.647 
	564.882,385.941 "/>
<polygon fill="none" stroke="#00AEEF" stroke-miterlimit="10" points="583.941,335.118 583.941,366.882 571.235,379.588 
	571.235,322.412 "/>
<polygon fill="none" stroke="#00AEEF" stroke-miterlimit="10" points="583.941,309.706 590.294,309.706 590.294,360.529 
	583.941,366.882 "/>
<polygon fill="none" stroke="#00AEEF" stroke-miterlimit="10" points="603,360.529 628.412,360.529 596.647,328.765 
	596.647,360.529 "/>
<rect x="520.412" y="309.706" fill="none" stroke="#00AEEF" stroke-miterlimit="10" width="6.353" height="139.765"/>
<rect x="507.706" y="335.118" fill="none" stroke="#00AEEF" stroke-miterlimit="10" width="12.706" height="165.176"/>
<polygon fill="none" stroke="#00AEEF" stroke-miterlimit="10" points="539.471,379.588 539.471,411.353 526.765,424.059 
	526.765,379.588 "/>
<polygon fill="none" stroke="#00AEEF" stroke-miterlimit="10" points="545.824,379.588 545.824,405 539.471,411.353 
	539.471,379.588 "/>
<polygon fill="none" stroke="#00AEEF" stroke-miterlimit="10" points="603,360.529 615.706,360.529 539.471,436.765 
	539.471,424.059 "/>
<polygon fill="none" stroke="#00AEEF" stroke-miterlimit="10" points="628.412,360.529 641.118,360.529 641.118,379.588 
	628.412,366.882 "/>
<polygon fill="none" stroke="#00AEEF" stroke-miterlimit="10" points="647.471,341.471 641.118,341.471 641.118,468.529 
	653.824,481.235 653.824,392.294 647.471,385.941 "/>
<polygon fill="none" stroke="#00AEEF" stroke-miterlimit="10" points="641.118,468.529 583.941,468.529 596.647,481.235 
	653.824,481.235 "/>
<polygon fill="none" stroke="#00AEEF" stroke-miterlimit="10" points="583.941,468.529 583.941,392.294 571.235,405 
	571.235,481.235 "/>
<polygon fill="none" stroke="#00AEEF" stroke-miterlimit="10" points="571.235,481.235 583.941,468.529 596.647,481.235 
	558.529,519.353 545.824,506.647 "/>
<polygon fill="none" stroke="#00AEEF" stroke-miterlimit="10" points="545.824,506.647 520.412,481.235 520.412,455.824 
	558.529,493.941 "/>
<rect x="622.059" y="360.529" fill="none" stroke="#00AEEF" stroke-miterlimit="10" width="6.353" height="108"/>
<rect x="615.706" y="360.529" fill="none" stroke="#00AEEF" stroke-miterlimit="10" width="6.353" height="108"/>
<polygon fill="none" stroke="#00AEEF" stroke-miterlimit="10" points="609.353,366.882 609.353,468.529 615.706,468.529 
	615.706,360.529 "/>
<polygon fill="none" stroke="#00AEEF" stroke-miterlimit="10" points="609.353,366.882 609.353,468.529 603,468.529 603,373.235 "/>
<polygon fill="none" stroke="#00AEEF" stroke-miterlimit="10" points="539.471,436.765 539.471,474.882 533.118,468.529 
	533.118,417.706 539.471,411.353 "/>
<polygon fill="none" stroke="#00AEEF" stroke-miterlimit="10" points="533.118,417.706 526.765,424.059 526.765,462.176 
	533.118,468.529 "/>
<polygon fill="none" stroke="#00AEEF" stroke-miterlimit="10" points="564.882,411.353 564.882,487.588 558.529,493.941 
	558.529,417.706 "/>
<polygon fill="none" stroke="#00AEEF" stroke-miterlimit="10" points="552.176,424.059 552.176,487.588 539.471,474.882 
	539.471,436.765 "/>
<polygon fill="none" stroke="#00AEEF" stroke-miterlimit="10" points="533.118,765 520.412,752.294 520.412,765 "/>
<polygon fill="none" stroke="#00AEEF" stroke-miterlimit="10" points="533.118,765 590.294,765 590.294,752.294 520.412,752.294 "/>
<polygon fill="none" stroke="#00AEEF" stroke-miterlimit="10" points="520.412,752.294 507.706,752.294 520.412,739.588 "/>
<polygon fill="none" stroke="#00AEEF" stroke-miterlimit="10" points="590.294,873 609.353,873 641.118,841.235 622.059,841.235 "/>
<polygon fill="none" stroke="#00AEEF" stroke-miterlimit="10" points="622.059,841.235 590.294,809.471 590.294,790.412 
	641.118,841.235 "/>
<polygon fill="none" stroke="#00AEEF" stroke-miterlimit="10" points="628.412,873 660.176,841.235 641.118,841.235 609.353,873 "/>
<polygon fill="none" stroke="#00AEEF" stroke-miterlimit="10" points="628.412,873 679.235,822.176 698.294,822.176 647.471,873 "/>
<polygon fill="none" stroke="#00AEEF" stroke-miterlimit="10" points="660.176,841.235 660.176,771.353 647.471,758.647 
	647.471,841.235 "/>
<rect x="641.118" y="720.529" fill="none" stroke="#00AEEF" stroke-miterlimit="10" width="6.353" height="120.706"/>
<polygon fill="none" stroke="#00AEEF" stroke-miterlimit="10" points="641.118,733.235 590.294,784.059 590.294,765 
	641.118,714.176 "/>
<polygon fill="none" stroke="#00AEEF" stroke-miterlimit="10" points="628.412,828.529 628.412,745.941 641.118,733.235 
	641.118,841.235 "/>
<polygon fill="none" stroke="#00AEEF" stroke-miterlimit="10" points="628.412,828.529 603,803.118 603,790.412 628.412,815.824 "/>
<polygon fill="none" stroke="#00AEEF" stroke-miterlimit="10" points="603,803.118 603,771.353 596.647,777.706 596.647,796.765 "/>
<polygon fill="none" stroke="#00AEEF" stroke-miterlimit="10" points="628.412,796.765 603,771.353 603,790.412 628.412,815.824 "/>
<polygon fill="none" stroke="#00AEEF" stroke-miterlimit="10" points="603,771.353 603,752.294 596.647,758.647 596.647,777.706 "/>
<polygon fill="none" stroke="#00AEEF" stroke-miterlimit="10" points="628.412,777.706 615.706,765 615.706,784.059 
	628.412,796.765 "/>
<polygon fill="none" stroke="#00AEEF" stroke-miterlimit="10" points="615.706,784.059 609.353,777.706 609.353,765 
	615.706,758.647 "/>
<polygon fill="none" stroke="#00AEEF" stroke-miterlimit="10" points="628.412,777.706 615.706,765 615.706,758.647 
	628.412,745.941 "/>
<polygon fill="none" stroke="#00AEEF" stroke-miterlimit="10" points="596.647,796.765 596.647,777.706 590.294,784.059 
	590.294,790.412 "/>
<polygon fill="none" stroke="#00AEEF" stroke-miterlimit="10" points="590.294,765 590.294,701.471 596.647,701.471 
	596.647,758.647 "/>
<polygon fill="none" stroke="#00AEEF" stroke-miterlimit="10" points="679.235,822.176 679.235,739.588 698.294,758.647 
	698.294,822.176 "/>
<polygon fill="none" stroke="#00AEEF" stroke-miterlimit="10" points="641.118,841.235 641.118,860.294 660.176,841.235 "/>
<polygon fill="none" stroke="#00AEEF" stroke-miterlimit="10" points="691.941,873 691.941,828.529 679.235,841.235 679.235,873 "/>
<polygon fill="none" stroke="#00AEEF" stroke-miterlimit="10" points="691.941,873 698.294,873 698.294,822.176 691.941,828.529 "/>
<polygon fill="none" stroke="#00AEEF" stroke-miterlimit="10" points="698.294,822.176 711,822.176 711,771.353 698.294,758.647 "/>
<rect x="653.824" y="752.294" fill="none" stroke="#00AEEF" stroke-miterlimit="10" width="25.412" height="12.706"/>
<polygon fill="none" stroke="#00AEEF" stroke-miterlimit="10" points="653.824,765 679.235,790.412 679.235,765 "/>
<polygon fill="none" stroke="#00AEEF" stroke-miterlimit="10" points="666.529,834.882 666.529,777.706 660.176,771.353 
	660.176,841.235 "/>
<polygon fill="none" stroke="#00AEEF" stroke-miterlimit="10" points="672.882,828.529 672.882,784.059 666.529,777.706 
	666.529,834.882 "/>
<polygon fill="none" stroke="#00AEEF" stroke-miterlimit="10" points="679.235,822.176 672.882,828.529 672.882,784.059 
	679.235,790.412 "/>
<polygon fill="none" stroke="#00AEEF" stroke-miterlimit="10" points="653.824,765 653.824,669.706 647.471,676.059 
	647.471,758.647 "/>
<polygon fill="none" stroke="#00AEEF" stroke-miterlimit="10" points="641.118,714.176 641.118,682.412 628.412,695.118 
	628.412,726.882 "/>
<polygon fill="none" stroke="#00AEEF" stroke-miterlimit="10" points="628.412,701.471 596.647,733.235 596.647,758.647 
	628.412,726.882 "/>
<polygon fill="none" stroke="#00AEEF" stroke-miterlimit="10" points="590.294,701.471 539.471,650.647 539.471,637.941 
	603,701.471 "/>
<polygon fill="none" stroke="#00AEEF" stroke-miterlimit="10" points="571.235,752.294 571.235,682.412 564.882,676.059 
	564.882,752.294 "/>
<polygon fill="none" stroke="#00AEEF" stroke-miterlimit="10" points="583.941,752.294 583.941,726.882 571.235,739.588 
	571.235,752.294 "/>
<polygon fill="none" stroke="#00AEEF" stroke-miterlimit="10" points="564.882,752.294 564.882,720.529 533.118,752.294 "/>
<polygon fill="none" stroke="#00AEEF" stroke-miterlimit="10" points="545.824,739.588 545.824,682.412 526.765,682.412 
	526.765,752.294 533.118,752.294 "/>
<polygon fill="none" stroke="#00AEEF" stroke-miterlimit="10" points="552.176,733.235 552.176,663.353 545.824,657 
	545.824,739.588 "/>
<polygon fill="none" stroke="#00AEEF" stroke-miterlimit="10" points="564.882,720.529 552.176,733.235 552.176,663.353 
	564.882,676.059 "/>
<polygon fill="none" stroke="#00AEEF" stroke-miterlimit="10" points="583.941,726.882 583.941,695.118 571.235,682.412 
	571.235,739.588 "/>
<polygon fill="none" stroke="#00AEEF" stroke-miterlimit="10" points="583.941,752.294 590.294,752.294 590.294,701.471 
	583.941,695.118 "/>
<polygon fill="none" stroke="#00AEEF" stroke-miterlimit="10" points="603,701.471 628.412,701.471 596.647,733.235 
	596.647,701.471 "/>
<rect x="520.412" y="612.529" fill="none" stroke="#00AEEF" stroke-miterlimit="10" width="6.353" height="139.765"/>
<rect x="507.706" y="561.706" fill="none" stroke="#00AEEF" stroke-miterlimit="10" width="12.706" height="165.176"/>
<polygon fill="none" stroke="#00AEEF" stroke-miterlimit="10" points="539.471,682.412 539.471,650.647 526.765,637.941 
	526.765,682.412 "/>
<polygon fill="none" stroke="#00AEEF" stroke-miterlimit="10" points="545.824,682.412 545.824,657 539.471,650.647 
	539.471,682.412 "/>
<polygon fill="none" stroke="#00AEEF" stroke-miterlimit="10" points="603,701.471 615.706,701.471 539.471,625.235 
	539.471,637.941 "/>
<polygon fill="none" stroke="#00AEEF" stroke-miterlimit="10" points="628.412,701.471 641.118,701.471 641.118,682.412 
	628.412,695.118 "/>
<polygon fill="none" stroke="#00AEEF" stroke-miterlimit="10" points="647.471,720.529 641.118,720.529 641.118,593.471 
	653.824,580.765 653.824,669.706 647.471,676.059 "/>
<polygon fill="none" stroke="#00AEEF" stroke-miterlimit="10" points="641.118,593.471 583.941,593.471 596.647,580.765 
	653.824,580.765 "/>
<polygon fill="none" stroke="#00AEEF" stroke-miterlimit="10" points="583.941,593.471 583.941,669.706 571.235,657 
	571.235,580.765 "/>
<polygon fill="none" stroke="#00AEEF" stroke-miterlimit="10" points="571.235,580.765 583.941,593.471 596.647,580.765 
	558.529,542.647 545.824,555.353 "/>
<polygon fill="none" stroke="#00AEEF" stroke-miterlimit="10" points="545.824,555.353 520.412,580.765 520.412,606.176 
	558.529,568.059 "/>
<rect x="622.059" y="593.471" fill="none" stroke="#00AEEF" stroke-miterlimit="10" width="6.353" height="108"/>
<rect x="615.706" y="593.471" fill="none" stroke="#00AEEF" stroke-miterlimit="10" width="6.353" height="108"/>
<polygon fill="none" stroke="#00AEEF" stroke-miterlimit="10" points="609.353,695.118 609.353,593.471 615.706,593.471 
	615.706,701.471 "/>
<polygon fill="none" stroke="#00AEEF" stroke-miterlimit="10" points="609.353,695.118 609.353,593.471 603,593.471 603,688.765 "/>
<polygon fill="none" stroke="#00AEEF" stroke-miterlimit="10" points="539.471,625.235 539.471,587.118 533.118,593.471 
	533.118,644.294 539.471,650.647 "/>
<polygon fill="none" stroke="#00AEEF" stroke-miterlimit="10" points="533.118,644.294 526.765,637.941 526.765,599.824 
	533.118,593.471 "/>
<polygon fill="none" stroke="#00AEEF" stroke-miterlimit="10" points="564.882,650.647 564.882,574.412 558.529,568.059 
	558.529,644.294 "/>
<polygon fill="none" stroke="#00AEEF" stroke-miterlimit="10" points="552.176,637.941 552.176,574.412 539.471,587.118 
	539.471,625.235 "/>
<polygon fill="none" stroke="#00AEEF" stroke-miterlimit="10" points="456.882,765 469.588,752.294 469.588,765 "/>
<polygon fill="none" stroke="#00AEEF" stroke-miterlimit="10" points="456.882,765 399.706,765 399.706,752.294 469.588,752.294 "/>
<polygon fill="none" stroke="#00AEEF" stroke-miterlimit="10" points="469.588,752.294 482.294,752.294 469.588,739.588 "/>
<polygon fill="none" stroke="#00AEEF" stroke-miterlimit="10" points="399.706,873 380.647,873 348.882,841.235 367.941,841.235 "/>
<polygon fill="none" stroke="#00AEEF" stroke-miterlimit="10" points="367.941,841.235 399.706,809.471 399.706,790.412 
	348.882,841.235 "/>
<polygon fill="none" stroke="#00AEEF" stroke-miterlimit="10" points="361.588,873 329.824,841.235 348.882,841.235 380.647,873 "/>
<polygon fill="none" stroke="#00AEEF" stroke-miterlimit="10" points="361.588,873 310.765,822.176 291.706,822.176 342.529,873 "/>
<polygon fill="none" stroke="#00AEEF" stroke-miterlimit="10" points="329.824,841.235 329.824,771.353 342.529,758.647 
	342.529,841.235 "/>
<rect x="342.529" y="720.529" fill="none" stroke="#00AEEF" stroke-miterlimit="10" width="6.353" height="120.706"/>
<polygon fill="none" stroke="#00AEEF" stroke-miterlimit="10" points="348.882,733.235 399.706,784.059 399.706,765 
	348.882,714.176 "/>
<polygon fill="none" stroke="#00AEEF" stroke-miterlimit="10" points="361.588,828.529 361.588,745.941 348.882,733.235 
	348.882,841.235 "/>
<polygon fill="none" stroke="#00AEEF" stroke-miterlimit="10" points="361.588,828.529 387,803.118 387,790.412 361.588,815.824 "/>
<polygon fill="none" stroke="#00AEEF" stroke-miterlimit="10" points="387,803.118 387,771.353 393.353,777.706 393.353,796.765 "/>
<polygon fill="none" stroke="#00AEEF" stroke-miterlimit="10" points="361.588,796.765 387,771.353 387,790.412 361.588,815.824 "/>
<polygon fill="none" stroke="#00AEEF" stroke-miterlimit="10" points="387,771.353 387,752.294 393.353,758.647 393.353,777.706 "/>
<polygon fill="none" stroke="#00AEEF" stroke-miterlimit="10" points="361.588,777.706 374.294,765 374.294,784.059 
	361.588,796.765 "/>
<polygon fill="none" stroke="#00AEEF" stroke-miterlimit="10" points="374.294,784.059 380.647,777.706 380.647,765 
	374.294,758.647 "/>
<polygon fill="none" stroke="#00AEEF" stroke-miterlimit="10" points="361.588,777.706 374.294,765 374.294,758.647 
	361.588,745.941 "/>
<polygon fill="none" stroke="#00AEEF" stroke-miterlimit="10" points="393.353,796.765 393.353,777.706 399.706,784.059 
	399.706,790.412 "/>
<polygon fill="none" stroke="#00AEEF" stroke-miterlimit="10" points="399.706,765 399.706,701.471 393.353,701.471 
	393.353,758.647 "/>
<polygon fill="none" stroke="#00AEEF" stroke-miterlimit="10" points="310.765,822.176 310.765,739.588 291.706,758.647 
	291.706,822.176 "/>
<polygon fill="none" stroke="#00AEEF" stroke-miterlimit="10" points="348.882,841.235 348.882,860.294 329.824,841.235 "/>
<polygon fill="none" stroke="#00AEEF" stroke-miterlimit="10" points="298.059,873 298.059,828.529 310.765,841.235 310.765,873 "/>
<polygon fill="none" stroke="#00AEEF" stroke-miterlimit="10" points="298.059,873 291.706,873 291.706,822.176 298.059,828.529 "/>
<polygon fill="none" stroke="#00AEEF" stroke-miterlimit="10" points="291.706,822.176 279,822.176 279,771.353 291.706,758.647 "/>
<rect x="310.765" y="752.294" fill="none" stroke="#00AEEF" stroke-miterlimit="10" width="25.412" height="12.706"/>
<polygon fill="none" stroke="#00AEEF" stroke-miterlimit="10" points="336.176,765 310.765,790.412 310.765,765 "/>
<polygon fill="none" stroke="#00AEEF" stroke-miterlimit="10" points="323.471,834.882 323.471,777.706 329.824,771.353 
	329.824,841.235 "/>
<polygon fill="none" stroke="#00AEEF" stroke-miterlimit="10" points="317.118,828.529 317.118,784.059 323.471,777.706 
	323.471,834.882 "/>
<polygon fill="none" stroke="#00AEEF" stroke-miterlimit="10" points="310.765,822.176 317.118,828.529 317.118,784.059 
	310.765,790.412 "/>
<polygon fill="none" stroke="#00AEEF" stroke-miterlimit="10" points="336.176,765 336.176,669.706 342.529,676.059 
	342.529,758.647 "/>
<polygon fill="none" stroke="#00AEEF" stroke-miterlimit="10" points="348.882,714.176 348.882,682.412 361.588,695.118 
	361.588,726.882 "/>
<polygon fill="none" stroke="#00AEEF" stroke-miterlimit="10" points="361.588,701.471 393.353,733.235 393.353,758.647 
	361.588,726.882 "/>
<polygon fill="none" stroke="#00AEEF" stroke-miterlimit="10" points="399.706,701.471 450.529,650.647 450.529,637.941 
	387,701.471 "/>
<polygon fill="none" stroke="#00AEEF" stroke-miterlimit="10" points="418.765,752.294 418.765,682.412 425.118,676.059 
	425.118,752.294 "/>
<polygon fill="none" stroke="#00AEEF" stroke-miterlimit="10" points="406.059,752.294 406.059,726.882 418.765,739.588 
	418.765,752.294 "/>
<polygon fill="none" stroke="#00AEEF" stroke-miterlimit="10" points="425.118,752.294 425.118,720.529 456.882,752.294 "/>
<polygon fill="none" stroke="#00AEEF" stroke-miterlimit="10" points="444.176,739.588 444.176,682.412 463.235,682.412 
	463.235,752.294 456.882,752.294 "/>
<polygon fill="none" stroke="#00AEEF" stroke-miterlimit="10" points="437.824,733.235 437.824,663.353 444.176,657 
	444.176,739.588 "/>
<polygon fill="none" stroke="#00AEEF" stroke-miterlimit="10" points="425.118,720.529 437.824,733.235 437.824,663.353 
	425.118,676.059 "/>
<polygon fill="none" stroke="#00AEEF" stroke-miterlimit="10" points="406.059,726.882 406.059,695.118 418.765,682.412 
	418.765,739.588 "/>
<polygon fill="none" stroke="#00AEEF" stroke-miterlimit="10" points="406.059,752.294 399.706,752.294 399.706,701.471 
	406.059,695.118 "/>
<polygon fill="none" stroke="#00AEEF" stroke-miterlimit="10" points="387,701.471 361.588,701.471 393.353,733.235 
	393.353,701.471 "/>
<rect x="463.235" y="612.529" fill="none" stroke="#00AEEF" stroke-miterlimit="10" width="6.353" height="139.765"/>
<rect x="469.588" y="561.706" fill="none" stroke="#00AEEF" stroke-miterlimit="10" width="12.706" height="165.176"/>
<polygon fill="none" stroke="#00AEEF" stroke-miterlimit="10" points="450.529,682.412 450.529,650.647 463.235,637.941 
	463.235,682.412 "/>
<polygon fill="none" stroke="#00AEEF" stroke-miterlimit="10" points="444.176,682.412 444.176,657 450.529,650.647 
	450.529,682.412 "/>
<polygon fill="none" stroke="#00AEEF" stroke-miterlimit="10" points="387,701.471 374.294,701.471 450.529,625.235 
	450.529,637.941 "/>
<polygon fill="none" stroke="#00AEEF" stroke-miterlimit="10" points="361.588,701.471 348.882,701.471 348.882,682.412 
	361.588,695.118 "/>
<polygon fill="none" stroke="#00AEEF" stroke-miterlimit="10" points="342.529,720.529 348.882,720.529 348.882,593.471 
	336.176,580.765 336.176,669.706 342.529,676.059 "/>
<polygon fill="none" stroke="#00AEEF" stroke-miterlimit="10" points="348.882,593.471 406.059,593.471 393.353,580.765 
	336.176,580.765 "/>
<polygon fill="none" stroke="#00AEEF" stroke-miterlimit="10" points="406.059,593.471 406.059,669.706 418.765,657 
	418.765,580.765 "/>
<polygon fill="none" stroke="#00AEEF" stroke-miterlimit="10" points="418.765,580.765 406.059,593.471 393.353,580.765 
	431.471,542.647 444.176,555.353 "/>
<polygon fill="none" stroke="#00AEEF" stroke-miterlimit="10" points="444.176,555.353 469.588,580.765 469.588,606.176 
	431.471,568.059 "/>
<rect x="361.588" y="593.471" fill="none" stroke="#00AEEF" stroke-miterlimit="10" width="6.353" height="108"/>
<rect x="367.941" y="593.471" fill="none" stroke="#00AEEF" stroke-miterlimit="10" width="6.353" height="108"/>
<polygon fill="none" stroke="#00AEEF" stroke-miterlimit="10" points="380.647,695.118 380.647,593.471 374.294,593.471 
	374.294,701.471 "/>
<polygon fill="none" stroke="#00AEEF" stroke-miterlimit="10" points="380.647,695.118 380.647,593.471 387,593.471 387,688.765 "/>
<polygon fill="none" stroke="#00AEEF" stroke-miterlimit="10" points="450.529,625.235 450.529,587.118 456.882,593.471 
	456.882,644.294 450.529,650.647 "/>
<polygon fill="none" stroke="#00AEEF" stroke-miterlimit="10" points="456.882,644.294 463.235,637.941 463.235,599.824 
	456.882,593.471 "/>
<polygon fill="none" stroke="#00AEEF" stroke-miterlimit="10" points="425.118,650.647 425.118,574.412 431.471,568.059 
	431.471,644.294 "/>
<polygon fill="none" stroke="#00AEEF" stroke-miterlimit="10" points="437.824,637.941 437.824,574.412 450.529,587.118 
	450.529,625.235 "/>
</svg>
