<?xml version="1.0" encoding="utf-8"?>
<!-- Generator: Adobe Illustrator 17.1.0, SVG Export Plug-In . SVG Version: 6.00 Build 0)  -->
<!DOCTYPE svg PUBLIC "-//W3C//DTD SVG 1.1//EN" "http://www.w3.org/Graphics/SVG/1.1/DTD/svg11.dtd">
<svg version="1.1" id="Layer_1" xmlns="http://www.w3.org/2000/svg" xmlns:xlink="http://www.w3.org/1999/xlink" x="0px" y="0px"
	 viewBox="0 0 800 800" enable-background="new 0 0 800 800" xml:space="preserve">
<polygon fill="#FFFFFF" stroke="#E76D2C" stroke-miterlimit="10" points="390,365 460,365 490,335 390,335 "/>
<polygon fill="#FFFFFF" stroke="#E76D2C" stroke-miterlimit="10" points="420,365 420,465 390,495 390,365 "/>
<polygon fill="#FFFFFF" stroke="#E76D2C" stroke-miterlimit="10" points="390,335 390,275 360,245 360,335 "/>
<polygon fill="#FFFFFF" stroke="#E76D2C" stroke-miterlimit="10" points="360,335 230,335 200,365 390,365 390,335 "/>
<polygon fill="#FFFFFF" stroke="#E76D2C" stroke-miterlimit="10" points="360,365 360,405 390,435 390,365 "/>
<polygon fill="#FFFFFF" stroke="#E76D2C" stroke-miterlimit="10" points="390,335 420,335 420,205 390,235 390,275 "/>
<rect x="420" y="295" fill="#FFFFFF" stroke="#E76D2C" stroke-miterlimit="10" width="100" height="10"/>
<rect x="420" y="275" fill="#FFFFFF" stroke="#E76D2C" stroke-miterlimit="10" width="70" height="20"/>
<rect x="420" y="265" fill="#FFFFFF" stroke="#E76D2C" stroke-miterlimit="10" width="20" height="10"/>
<rect x="440" y="265" fill="#FFFFFF" stroke="#E76D2C" stroke-miterlimit="10" width="70" height="10"/>
<rect x="420" y="245" fill="#FFFFFF" stroke="#E76D2C" stroke-miterlimit="10" width="30" height="20"/>
<rect x="450" y="255" fill="#FFFFFF" stroke="#E76D2C" stroke-miterlimit="10" width="40" height="10"/>
<polygon fill="#FFFFFF" stroke="#E76D2C" stroke-miterlimit="10" points="420,205 420,185 430,185 430,245 420,245 "/>
<rect x="430" y="195" fill="#FFFFFF" stroke="#E76D2C" stroke-miterlimit="10" width="20" height="50"/>
<rect x="450" y="225" fill="#FFFFFF" stroke="#E76D2C" stroke-miterlimit="10" width="30" height="30"/>
<rect x="420" y="305" fill="#FFFFFF" stroke="#E76D2C" stroke-miterlimit="10" width="40" height="10"/>
<rect x="420" y="315" fill="#FFFFFF" stroke="#E76D2C" stroke-miterlimit="10" width="70" height="20"/>
<polygon fill="#FFFFFF" stroke="#E76D2C" stroke-miterlimit="10" points="490,315 550,315 550,305 460,305 460,315 "/>
<rect x="510" y="315" fill="#FFFFFF" stroke="#E76D2C" stroke-miterlimit="10" width="10" height="60"/>
<rect x="520" y="315" fill="#FFFFFF" stroke="#E76D2C" stroke-miterlimit="10" width="30" height="80"/>
<rect x="490" y="275" fill="#FFFFFF" stroke="#E76D2C" stroke-miterlimit="10" width="10" height="20"/>
<rect x="500" y="275" fill="#FFFFFF" stroke="#E76D2C" stroke-miterlimit="10" width="80" height="20"/>
<rect x="490" y="315" fill="#FFFFFF" stroke="#E76D2C" stroke-miterlimit="10" width="10" height="90"/>
<polyline fill="#FFFFFF" stroke="#E76D2C" stroke-miterlimit="10" points="500,335 490,335 490,385 460,415 460,365 490,335 "/>
<rect x="420" y="365" fill="#FFFFFF" stroke="#E76D2C" stroke-miterlimit="10" width="40" height="80"/>
<rect x="290" y="365" fill="#FFFFFF" stroke="#E76D2C" stroke-miterlimit="10" width="70" height="10"/>
<rect x="270" y="375" fill="#FFFFFF" stroke="#E76D2C" stroke-miterlimit="10" width="90" height="30"/>
<rect x="230" y="365" fill="#FFFFFF" stroke="#E76D2C" stroke-miterlimit="10" width="60" height="10"/>
<rect x="310" y="235" fill="#FFFFFF" stroke="#E76D2C" stroke-miterlimit="10" width="30" height="100"/>
<rect x="340" y="275" fill="#FFFFFF" stroke="#E76D2C" stroke-miterlimit="10" width="10" height="60"/>
<rect x="350" y="405" fill="#FFFFFF" stroke="#E76D2C" stroke-miterlimit="10" width="10" height="80"/>
<rect x="310" y="405" fill="#FFFFFF" stroke="#E76D2C" stroke-miterlimit="10" width="40" height="20"/>
<polygon fill="#FFFFFF" stroke="#E76D2C" stroke-miterlimit="10" points="360,405 360,465 370,465 370,415 "/>
<polygon fill="#FFFFFF" stroke="#E76D2C" stroke-miterlimit="10" points="370,415 390,435 390,475 370,475 "/>
<rect x="360" y="465" fill="#FFFFFF" stroke="#E76D2C" stroke-miterlimit="10" width="10" height="60"/>
<rect x="370" y="475" fill="#FFFFFF" stroke="#E76D2C" stroke-miterlimit="10" width="20" height="40"/>
<polygon fill="#FFFFFF" stroke="#E76D2C" stroke-miterlimit="10" points="380,265 380,215 390,215 390,275 "/>
<rect x="350" y="215" fill="#FFFFFF" stroke="#E76D2C" stroke-miterlimit="10" width="10" height="120"/>
<rect x="340" y="165" fill="#FFFFFF" stroke="#E76D2C" stroke-miterlimit="10" width="10" height="110"/>
<rect x="290" y="185" fill="#FFFFFF" stroke="#E76D2C" stroke-miterlimit="10" width="20" height="150"/>
<rect x="270" y="235" fill="#FFFFFF" stroke="#E76D2C" stroke-miterlimit="10" width="20" height="100"/>
<rect x="260" y="255" fill="#FFFFFF" stroke="#E76D2C" stroke-miterlimit="10" width="10" height="80"/>
<rect x="230" y="295" fill="#FFFFFF" stroke="#E76D2C" stroke-miterlimit="10" width="30" height="40"/>
<polygon fill="#FFFFFF" stroke="#E76D2C" stroke-miterlimit="10" points="260,375 260,515 270,505 270,375 "/>
<polygon fill="#FFFFFF" stroke="#E76D2C" stroke-miterlimit="10" points="280,405 280,475 270,485 270,405 "/>
<rect x="280" y="405" fill="#FFFFFF" stroke="#E76D2C" stroke-miterlimit="10" width="30" height="10"/>
<rect x="300" y="415" fill="#FFFFFF" stroke="#E76D2C" stroke-miterlimit="10" width="10" height="120"/>
<rect x="320" y="425" fill="#FFFFFF" stroke="#E76D2C" stroke-miterlimit="10" width="30" height="90"/>
<rect x="330" y="515" fill="#FFFFFF" stroke="#E76D2C" stroke-miterlimit="10" width="30" height="10"/>
<polygon fill="#FFFFFF" stroke="#E76D2C" stroke-miterlimit="10" points="310,515 310,605 330,585 330,515 "/>
<polygon fill="#FFFFFF" stroke="#E76D2C" stroke-miterlimit="10" points="330,525 460,525 440,545 330,545 "/>
<rect x="370" y="515" fill="#FFFFFF" stroke="#E76D2C" stroke-miterlimit="10" width="70" height="10"/>
<polygon fill="#FFFFFF" stroke="#E76D2C" stroke-miterlimit="10" points="390,495 470,495 450,515 390,515 "/>
<polygon fill="#FFFFFF" stroke="#E76D2C" stroke-miterlimit="10" points="390,495 420,465 470,465 440,495 "/>
<rect x="420" y="455" fill="#FFFFFF" stroke="#E76D2C" stroke-miterlimit="10" width="50" height="10"/>
<polygon fill="#FFFFFF" stroke="#E76D2C" stroke-miterlimit="10" points="420,445 520,445 510,455 420,455 "/>
<polygon fill="#FFFFFF" stroke="#E76D2C" stroke-miterlimit="10" points="490,385 490,445 460,445 460,415 "/>
<rect x="490" y="405" fill="#FFFFFF" stroke="#E76D2C" stroke-miterlimit="10" width="10" height="40"/>
<rect x="500" y="375" fill="#FFFFFF" stroke="#E76D2C" stroke-miterlimit="10" width="10" height="70"/>
<rect x="510" y="375" fill="#FFFFFF" stroke="#E76D2C" stroke-miterlimit="10" width="10" height="40"/>
<rect x="520" y="395" fill="#FFFFFF" stroke="#E76D2C" stroke-miterlimit="10" width="70" height="20"/>
<polygon fill="#FFFFFF" stroke="#E76D2C" stroke-miterlimit="10" points="510,415 560,415 530,445 510,445 "/>
<polygon fill="#FFFFFF" stroke="#E76D2C" stroke-miterlimit="10" points="470,465 500,465 510,455 470,455 "/>
<polygon fill="#FFFFFF" stroke="#E76D2C" stroke-miterlimit="10" points="460,475 490,475 500,465 470,465 "/>
<polygon fill="#FFFFFF" stroke="#E76D2C" stroke-miterlimit="10" points="450,485 480,485 490,475 460,475 "/>
<polygon fill="#FFFFFF" stroke="#E76D2C" stroke-miterlimit="10" points="450,485 480,485 470,495 440,495 "/>
<polygon fill="#FFFFFF" stroke="#E76D2C" stroke-miterlimit="10" points="520,445 510,455 550,455 560,445 "/>
<polygon fill="#FFFFFF" stroke="#E76D2C" stroke-miterlimit="10" points="510,455 570,455 560,465 500,465 "/>
<polygon fill="#FFFFFF" stroke="#E76D2C" stroke-miterlimit="10" points="500,465 540,465 530,475 490,475 "/>
<polygon fill="#FFFFFF" stroke="#E76D2C" stroke-miterlimit="10" points="480,485 510,485 520,475 490,475 "/>
<polygon fill="#FFFFFF" stroke="#E76D2C" stroke-miterlimit="10" points="480,485 540,485 530,495 470,495 "/>
<polygon fill="#FFFFFF" stroke="#E76D2C" stroke-miterlimit="10" points="520,475 550,475 550,485 510,485 "/>
<polygon fill="#FFFFFF" stroke="#E76D2C" stroke-miterlimit="10" points="530,475 560,475 560,465 540,465 "/>
<polygon fill="#FFFFFF" stroke="#E76D2C" stroke-miterlimit="10" points="560,445 590,445 590,455 550,455 "/>
<polygon fill="#FFFFFF" stroke="#E76D2C" stroke-miterlimit="10" points="570,455 600,455 600,465 560,465 "/>
<polygon fill="#FFFFFF" stroke="#E76D2C" stroke-miterlimit="10" points="540,485 570,485 570,495 530,495 "/>
<polygon fill="#FFFFFF" stroke="#E76D2C" stroke-miterlimit="10" points="450,515 520,515 520,495 470,495 "/>
<polygon fill="#FFFFFF" stroke="#E76D2C" stroke-miterlimit="10" points="330,585 420,585 400,605 310,605 "/>
<polygon fill="#FFFFFF" stroke="#E76D2C" stroke-miterlimit="10" points="300,535 300,615 310,605 310,535 "/>
<polygon fill="#FFFFFF" stroke="#E76D2C" stroke-miterlimit="10" points="310,605 310,635 300,635 300,615 "/>
<polygon fill="#FFFFFF" stroke="#E76D2C" stroke-miterlimit="10" points="310,635 360,635 390,605 310,605 "/>
<rect x="330" y="545" fill="#FFFFFF" stroke="#E76D2C" stroke-miterlimit="10" width="10" height="40"/>
<rect x="340" y="555" fill="#FFFFFF" stroke="#E76D2C" stroke-miterlimit="10" width="30" height="10"/>
<rect x="340" y="565" fill="#FFFFFF" stroke="#E76D2C" stroke-miterlimit="10" width="20" height="20"/>
<rect x="340" y="545" fill="#FFFFFF" stroke="#E76D2C" stroke-miterlimit="10" width="80" height="10"/>
<rect x="370" y="555" fill="#FFFFFF" stroke="#E76D2C" stroke-miterlimit="10" width="70" height="10"/>
<rect x="360" y="565" fill="#FFFFFF" stroke="#E76D2C" stroke-miterlimit="10" width="60" height="10"/>
<rect x="360" y="575" fill="#FFFFFF" stroke="#E76D2C" stroke-miterlimit="10" width="30" height="10"/>
<polygon fill="#FFFFFF" stroke="#E76D2C" stroke-miterlimit="10" points="280,475 300,475 300,485 270,485 "/>
<polygon fill="#FFFFFF" stroke="#E76D2C" stroke-miterlimit="10" points="270,505 300,505 300,515 260,515 "/>
<polygon fill="#FFFFFF" stroke="#E76D2C" stroke-miterlimit="10" points="270,485 260,485 260,515 270,505 "/>
<rect x="260" y="515" fill="#FFFFFF" stroke="#E76D2C" stroke-miterlimit="10" width="10" height="40"/>
<rect x="220" y="505" fill="#FFFFFF" stroke="#E76D2C" stroke-miterlimit="10" width="40" height="10"/>
<rect x="270" y="515" fill="#FFFFFF" stroke="#E76D2C" stroke-miterlimit="10" width="30" height="20"/>
<rect x="270" y="535" fill="#FFFFFF" stroke="#E76D2C" stroke-miterlimit="10" width="20" height="10"/>
<rect x="250" y="515" fill="#FFFFFF" stroke="#E76D2C" stroke-miterlimit="10" width="10" height="50"/>
<rect x="260" y="555" fill="#FFFFFF" stroke="#E76D2C" stroke-miterlimit="10" width="40" height="10"/>
<rect x="270" y="545" fill="#FFFFFF" stroke="#E76D2C" stroke-miterlimit="10" width="30" height="10"/>
<rect x="250" y="375" fill="#FFFFFF" stroke="#E76D2C" stroke-miterlimit="10" width="10" height="130"/>
<rect x="240" y="375" fill="#FFFFFF" stroke="#E76D2C" stroke-miterlimit="10" width="10" height="80"/>
<rect x="220" y="365" fill="#FFFFFF" stroke="#E76D2C" stroke-miterlimit="10" width="10" height="140"/>
<rect x="230" y="375" fill="#FFFFFF" stroke="#E76D2C" stroke-miterlimit="10" width="10" height="130"/>
<rect x="240" y="455" fill="#FFFFFF" stroke="#E76D2C" stroke-miterlimit="10" width="10" height="50"/>
</svg>
