<?xml version="1.0" encoding="utf-8"?>
<!-- Generator: Adobe Illustrator 17.1.0, SVG Export Plug-In . SVG Version: 6.00 Build 0)  -->
<!DOCTYPE svg PUBLIC "-//W3C//DTD SVG 1.1//EN" "http://www.w3.org/Graphics/SVG/1.1/DTD/svg11.dtd">
<svg version="1.1" id="Layer_1" xmlns="http://www.w3.org/2000/svg" xmlns:xlink="http://www.w3.org/1999/xlink" x="0px" y="0px"
	 viewBox="0 0 1000 1000" enable-background="new 0 0 1000 1000" xml:space="preserve">
<g>
	<rect x="312.5" y="549.2" fill="#FFFFFF" stroke="#16B34C" stroke-miterlimit="10" width="14.1" height="253.4"/>
	<rect x="425.3" y="317.1" fill="#FFFFFF" stroke="#16B34C" stroke-miterlimit="10" width="14.1" height="309.5"/>
	<polygon fill="#FFFFFF" stroke="#16B34C" stroke-miterlimit="10" points="312.7,260.8 312.7,204.4 411.2,303 411.2,331.2 
		326.8,246.6 326.8,274.9 	"/>
	<polygon fill="#FFFFFF" stroke="#16B34C" stroke-miterlimit="10" points="411.2,373.4 411.2,246.6 369,204.4 369,176.4 
		425.3,232.7 425.3,373.4 	"/>
	<polygon fill="#FFFFFF" stroke="#16B34C" stroke-miterlimit="10" points="397.1,289 397.1,246.6 326.8,176.4 326.8,162.2 
		411.2,246.6 411.2,303 	"/>
	<polygon fill="#FFFFFF" stroke="#16B34C" stroke-miterlimit="10" points="397.1,289 397.1,260.8 298.5,162.2 298.5,190.5 	"/>
	<polygon fill="#FFFFFF" stroke="#16B34C" stroke-miterlimit="10" points="425.3,533.2 411.2,519 411.2,907.6 425.3,907.6 	"/>
	<polygon fill="#FFFFFF" stroke="#16B34C" stroke-miterlimit="10" points="242.4,746.2 242.4,605.5 228.3,605.5 228.3,732.1 	"/>
	<polygon fill="#FFFFFF" stroke="#16B34C" stroke-miterlimit="10" points="270.5,774.3 242.4,746.2 242.4,605.5 270.5,605.5 	"/>
	<polygon fill="#FFFFFF" stroke="#16B34C" stroke-miterlimit="10" points="495.8,556.3 495.8,612.6 439.4,556.3 439.4,500 	"/>
	<polygon fill="#FFFFFF" stroke="#16B34C" stroke-miterlimit="10" points="495.8,612.6 495.8,654.8 439.4,598.5 439.4,556.3 	"/>
	<polygon fill="#FFFFFF" stroke="#16B34C" stroke-miterlimit="10" points="481.6,640.7 481.6,739.2 495.8,739.2 495.8,654.8 	"/>
	<polygon fill="#FFFFFF" stroke="#16B34C" stroke-miterlimit="10" points="439.4,598.5 439.4,682.9 481.6,725.3 481.6,640.7 	"/>
	<rect x="326.6" y="633.6" fill="#FFFFFF" stroke="#16B34C" stroke-miterlimit="10" width="14.1" height="225.1"/>
	<polygon fill="#FFFFFF" stroke="#16B34C" stroke-miterlimit="10" points="270.5,521.1 186.1,521.1 171.9,535 326.8,535 
		326.8,521.1 	"/>
	<rect x="200" y="591.4" fill="#FFFFFF" stroke="#16B34C" stroke-miterlimit="10" width="70.5" height="14.1"/>
	<rect x="214.1" y="605.5" fill="#FFFFFF" stroke="#16B34C" stroke-miterlimit="10" width="14.1" height="28.1"/>
	<rect x="129.8" y="535" fill="#FFFFFF" stroke="#16B34C" stroke-miterlimit="10" width="197" height="14.1"/>
	<rect x="143.9" y="563.1" fill="#FFFFFF" stroke="#16B34C" stroke-miterlimit="10" width="126.6" height="14.1"/>
	<rect x="200" y="577.2" fill="#FFFFFF" stroke="#16B34C" stroke-miterlimit="10" width="70.5" height="14.1"/>
	<polygon fill="#FFFFFF" stroke="#16B34C" stroke-miterlimit="10" points="481.6,725.3 481.6,753.4 439.4,753.4 439.4,682.9 	"/>
	<polygon fill="#FFFFFF" stroke="#16B34C" stroke-miterlimit="10" points="171.9,563.3 186.1,549.2 284.6,549.2 284.6,563.3 	"/>
	<rect x="425.3" y="654.8" fill="#FFFFFF" stroke="#16B34C" stroke-miterlimit="10" width="14.1" height="126.6"/>
	<rect x="340.7" y="449.3" fill="#FFFFFF" stroke="#16B34C" stroke-miterlimit="10" width="14.7" height="458.3"/>
	<polygon fill="#FFFFFF" stroke="#16B34C" stroke-miterlimit="10" points="355.4,577.2 411.7,633.6 411.7,830.8 355.4,774.5 	"/>
	<rect x="673.2" y="549.2" fill="#FFFFFF" stroke="#16B34C" stroke-miterlimit="10" width="14.1" height="253.4"/>
	<rect x="560.6" y="317.1" fill="#FFFFFF" stroke="#16B34C" stroke-miterlimit="10" width="14.1" height="309.5"/>
	<polygon fill="#FFFFFF" stroke="#16B34C" stroke-miterlimit="10" points="673.2,274.9 673.2,246.6 588.8,331.2 588.8,303 
		687.3,204.4 687.3,260.8 	"/>
	<polygon fill="#FFFFFF" stroke="#16B34C" stroke-miterlimit="10" points="574.7,373.4 574.7,232.7 631,176.4 631,204.4 
		588.8,246.6 588.8,373.4 	"/>
	<polygon fill="#FFFFFF" stroke="#16B34C" stroke-miterlimit="10" points="588.8,303 588.8,246.6 673.2,162.2 673.2,176.4 
		602.9,246.6 602.9,289 	"/>
	<polygon fill="#FFFFFF" stroke="#16B34C" stroke-miterlimit="10" points="701.5,190.5 701.5,162.2 602.9,260.8 602.9,289 	"/>
	<polygon fill="#FFFFFF" stroke="#16B34C" stroke-miterlimit="10" points="574.7,907.6 588.8,907.6 588.8,519 574.7,533.2 	"/>
	<polygon fill="#FFFFFF" stroke="#16B34C" stroke-miterlimit="10" points="771.7,732.1 771.7,605.5 757.6,605.5 757.6,746.2 	"/>
	<polygon fill="#FFFFFF" stroke="#16B34C" stroke-miterlimit="10" points="729.5,605.5 757.6,605.5 757.6,746.2 729.5,774.3 	"/>
	<polygon fill="#FFFFFF" stroke="#16B34C" stroke-miterlimit="10" points="560.6,500 560.6,556.3 504.2,612.6 504.2,556.3 	"/>
	<polygon fill="#FFFFFF" stroke="#16B34C" stroke-miterlimit="10" points="560.6,556.3 560.6,598.5 504.2,654.8 504.2,612.6 	"/>
	<polygon fill="#FFFFFF" stroke="#16B34C" stroke-miterlimit="10" points="504.2,654.8 504.2,739.2 518.4,739.2 518.4,640.7 	"/>
	<polygon fill="#FFFFFF" stroke="#16B34C" stroke-miterlimit="10" points="518.4,640.7 518.4,725.3 560.6,682.9 560.6,598.5 	"/>
	<rect x="659.1" y="633.6" fill="#FFFFFF" stroke="#16B34C" stroke-miterlimit="10" width="14.1" height="225.1"/>
	<polygon fill="#FFFFFF" stroke="#16B34C" stroke-miterlimit="10" points="673.2,521.1 673.2,535 828.1,535 813.9,521.1 
		729.5,521.1 	"/>
	<rect x="729.5" y="591.4" fill="#FFFFFF" stroke="#16B34C" stroke-miterlimit="10" width="70.5" height="14.1"/>
	<rect x="771.7" y="605.5" fill="#FFFFFF" stroke="#16B34C" stroke-miterlimit="10" width="14.1" height="28.1"/>
	<rect x="673.2" y="535" fill="#FFFFFF" stroke="#16B34C" stroke-miterlimit="10" width="197" height="14.1"/>
	<rect x="729.5" y="563.1" fill="#FFFFFF" stroke="#16B34C" stroke-miterlimit="10" width="126.6" height="14.1"/>
	<rect x="729.5" y="577.2" fill="#FFFFFF" stroke="#16B34C" stroke-miterlimit="10" width="70.5" height="14.1"/>
	<polygon fill="#FFFFFF" stroke="#16B34C" stroke-miterlimit="10" points="560.6,682.9 560.6,753.4 518.4,753.4 518.4,725.3 	"/>
	<polygon fill="#FFFFFF" stroke="#16B34C" stroke-miterlimit="10" points="715.4,563.3 715.4,549.2 813.9,549.2 828.1,563.3 	"/>
	<rect x="560.6" y="654.8" fill="#FFFFFF" stroke="#16B34C" stroke-miterlimit="10" width="14.1" height="126.6"/>
	<rect x="644.6" y="449.3" fill="#FFFFFF" stroke="#16B34C" stroke-miterlimit="10" width="14.7" height="458.3"/>
	<polygon fill="#FFFFFF" stroke="#16B34C" stroke-miterlimit="10" points="644.6,577.2 588.3,633.6 588.3,830.8 644.6,774.5 	"/>
</g>
<g>
	<rect x="312.5" y="514.2" fill="#FFFFFF" stroke="#16B34C" stroke-miterlimit="10" width="14.1" height="253.4"/>
	<rect x="425.3" y="282.1" fill="#FFFFFF" stroke="#16B34C" stroke-miterlimit="10" width="14.1" height="309.5"/>
	<polygon fill="#FFFFFF" stroke="#16B34C" stroke-miterlimit="10" points="312.7,225.8 312.7,169.5 411.2,268 411.2,296.3 
		326.8,211.7 326.8,239.9 	"/>
	<polygon fill="#FFFFFF" stroke="#16B34C" stroke-miterlimit="10" points="411.2,338.5 411.2,211.7 369,169.5 369,141.4 
		425.3,197.8 425.3,338.5 	"/>
	<polygon fill="#FFFFFF" stroke="#16B34C" stroke-miterlimit="10" points="397.1,254.1 397.1,211.7 326.8,141.4 326.8,127.3 
		411.2,211.7 411.2,268 	"/>
	<polygon fill="#FFFFFF" stroke="#16B34C" stroke-miterlimit="10" points="397.1,254.1 397.1,225.8 298.5,127.3 298.5,155.6 	"/>
	<polygon fill="#FFFFFF" stroke="#16B34C" stroke-miterlimit="10" points="425.3,498.2 411.2,484.1 411.2,872.7 425.3,872.7 	"/>
	<polygon fill="#FFFFFF" stroke="#16B34C" stroke-miterlimit="10" points="242.4,711.3 242.4,570.5 228.3,570.5 228.3,697.1 	"/>
	<polygon fill="#FFFFFF" stroke="#16B34C" stroke-miterlimit="10" points="270.5,739.3 242.4,711.3 242.4,570.5 270.5,570.5 	"/>
	<polygon fill="#FFFFFF" stroke="#16B34C" stroke-miterlimit="10" points="495.8,521.4 495.8,577.7 439.4,521.4 439.4,465.1 	"/>
	<polygon fill="#FFFFFF" stroke="#16B34C" stroke-miterlimit="10" points="495.8,577.7 495.8,619.9 439.4,563.6 439.4,521.4 	"/>
	<polygon fill="#FFFFFF" stroke="#16B34C" stroke-miterlimit="10" points="481.6,605.8 481.6,704.3 495.8,704.3 495.8,619.9 	"/>
	<polygon fill="#FFFFFF" stroke="#16B34C" stroke-miterlimit="10" points="439.4,563.6 439.4,648 481.6,690.4 481.6,605.8 	"/>
	<rect x="326.6" y="598.6" fill="#FFFFFF" stroke="#16B34C" stroke-miterlimit="10" width="14.1" height="225.1"/>
	<polygon fill="#FFFFFF" stroke="#16B34C" stroke-miterlimit="10" points="270.5,486.2 186.1,486.2 171.9,500.1 326.8,500.1 
		326.8,486.2 	"/>
	<rect x="200" y="556.4" fill="#FFFFFF" stroke="#16B34C" stroke-miterlimit="10" width="70.5" height="14.1"/>
	<rect x="214.1" y="570.5" fill="#FFFFFF" stroke="#16B34C" stroke-miterlimit="10" width="14.1" height="28.1"/>
	<rect x="129.8" y="500.1" fill="#FFFFFF" stroke="#16B34C" stroke-miterlimit="10" width="197" height="14.1"/>
	<rect x="143.9" y="528.2" fill="#FFFFFF" stroke="#16B34C" stroke-miterlimit="10" width="126.6" height="14.1"/>
	<rect x="200" y="542.3" fill="#FFFFFF" stroke="#16B34C" stroke-miterlimit="10" width="70.5" height="14.1"/>
	<polygon fill="#FFFFFF" stroke="#16B34C" stroke-miterlimit="10" points="481.6,690.4 481.6,718.4 439.4,718.4 439.4,648 	"/>
	<polygon fill="#FFFFFF" stroke="#16B34C" stroke-miterlimit="10" points="171.9,528.4 186.1,514.2 284.6,514.2 284.6,528.4 	"/>
	<rect x="425.3" y="619.9" fill="#FFFFFF" stroke="#16B34C" stroke-miterlimit="10" width="14.1" height="126.6"/>
	<rect x="340.7" y="414.4" fill="#FFFFFF" stroke="#16B34C" stroke-miterlimit="10" width="14.7" height="458.3"/>
	<polygon fill="#FFFFFF" stroke="#16B34C" stroke-miterlimit="10" points="355.4,542.3 411.7,598.6 411.7,795.8 355.4,739.5 	"/>
	<rect x="673.2" y="514.2" fill="#FFFFFF" stroke="#16B34C" stroke-miterlimit="10" width="14.1" height="253.4"/>
	<rect x="560.6" y="282.1" fill="#FFFFFF" stroke="#16B34C" stroke-miterlimit="10" width="14.1" height="309.5"/>
	<polygon fill="#FFFFFF" stroke="#16B34C" stroke-miterlimit="10" points="673.2,239.9 673.2,211.7 588.8,296.3 588.8,268 
		687.3,169.5 687.3,225.8 	"/>
	<polygon fill="#FFFFFF" stroke="#16B34C" stroke-miterlimit="10" points="574.7,338.5 574.7,197.8 631,141.4 631,169.5 
		588.8,211.7 588.8,338.5 	"/>
	<polygon fill="#FFFFFF" stroke="#16B34C" stroke-miterlimit="10" points="588.8,268 588.8,211.7 673.2,127.3 673.2,141.4 
		602.9,211.7 602.9,254.1 	"/>
	<polygon fill="#FFFFFF" stroke="#16B34C" stroke-miterlimit="10" points="701.5,155.6 701.5,127.3 602.9,225.8 602.9,254.1 	"/>
	<polygon fill="#FFFFFF" stroke="#16B34C" stroke-miterlimit="10" points="574.7,872.7 588.8,872.7 588.8,484.1 574.7,498.2 	"/>
	<polygon fill="#FFFFFF" stroke="#16B34C" stroke-miterlimit="10" points="771.7,697.1 771.7,570.5 757.6,570.5 757.6,711.3 	"/>
	<polygon fill="#FFFFFF" stroke="#16B34C" stroke-miterlimit="10" points="729.5,570.5 757.6,570.5 757.6,711.3 729.5,739.3 	"/>
	<polygon fill="#FFFFFF" stroke="#16B34C" stroke-miterlimit="10" points="560.6,465.1 560.6,521.4 504.2,577.7 504.2,521.4 	"/>
	<polygon fill="#FFFFFF" stroke="#16B34C" stroke-miterlimit="10" points="560.6,521.4 560.6,563.6 504.2,619.9 504.2,577.7 	"/>
	<polygon fill="#FFFFFF" stroke="#16B34C" stroke-miterlimit="10" points="504.2,619.9 504.2,704.3 518.4,704.3 518.4,605.8 	"/>
	<polygon fill="#FFFFFF" stroke="#16B34C" stroke-miterlimit="10" points="518.4,605.8 518.4,690.4 560.6,648 560.6,563.6 	"/>
	<rect x="659.1" y="598.6" fill="#FFFFFF" stroke="#16B34C" stroke-miterlimit="10" width="14.1" height="225.1"/>
	<polygon fill="#FFFFFF" stroke="#16B34C" stroke-miterlimit="10" points="673.2,486.2 673.2,500.1 828.1,500.1 813.9,486.2 
		729.5,486.2 	"/>
	<rect x="729.5" y="556.4" fill="#FFFFFF" stroke="#16B34C" stroke-miterlimit="10" width="70.5" height="14.1"/>
	<rect x="771.7" y="570.5" fill="#FFFFFF" stroke="#16B34C" stroke-miterlimit="10" width="14.1" height="28.1"/>
	<rect x="673.2" y="500.1" fill="#FFFFFF" stroke="#16B34C" stroke-miterlimit="10" width="197" height="14.1"/>
	<rect x="729.5" y="528.2" fill="#FFFFFF" stroke="#16B34C" stroke-miterlimit="10" width="126.6" height="14.1"/>
	<rect x="729.5" y="542.3" fill="#FFFFFF" stroke="#16B34C" stroke-miterlimit="10" width="70.5" height="14.1"/>
	<polygon fill="#FFFFFF" stroke="#16B34C" stroke-miterlimit="10" points="560.6,648 560.6,718.4 518.4,718.4 518.4,690.4 	"/>
	<polygon fill="#FFFFFF" stroke="#16B34C" stroke-miterlimit="10" points="715.4,528.4 715.4,514.2 813.9,514.2 828.1,528.4 	"/>
	<rect x="560.6" y="619.9" fill="#FFFFFF" stroke="#16B34C" stroke-miterlimit="10" width="14.1" height="126.6"/>
	<rect x="644.6" y="414.4" fill="#FFFFFF" stroke="#16B34C" stroke-miterlimit="10" width="14.7" height="458.3"/>
	<polygon fill="#FFFFFF" stroke="#16B34C" stroke-miterlimit="10" points="644.6,542.3 588.3,598.6 588.3,795.8 644.6,739.5 	"/>
</g>
<g>
	<rect x="312.5" y="479.3" fill="#FFFFFF" stroke="#16B34C" stroke-miterlimit="10" width="14.1" height="253.4"/>
	<rect x="425.3" y="247.2" fill="#FFFFFF" stroke="#16B34C" stroke-miterlimit="10" width="14.1" height="309.5"/>
	<polygon fill="#FFFFFF" stroke="#16B34C" stroke-miterlimit="10" points="312.7,190.9 312.7,134.6 411.2,233.1 411.2,261.3 
		326.8,176.7 326.8,205 	"/>
	<polygon fill="#FFFFFF" stroke="#16B34C" stroke-miterlimit="10" points="411.2,303.5 411.2,176.7 369,134.6 369,106.5 
		425.3,162.8 425.3,303.5 	"/>
	<polygon fill="#FFFFFF" stroke="#16B34C" stroke-miterlimit="10" points="397.1,219.1 397.1,176.7 326.8,106.5 326.8,92.4 
		411.2,176.7 411.2,233.1 	"/>
	<polygon fill="#FFFFFF" stroke="#16B34C" stroke-miterlimit="10" points="397.1,219.1 397.1,190.9 298.5,92.4 298.5,120.6 	"/>
	<polygon fill="#FFFFFF" stroke="#16B34C" stroke-miterlimit="10" points="425.3,463.3 411.2,449.1 411.2,837.8 425.3,837.8 	"/>
	<polygon fill="#FFFFFF" stroke="#16B34C" stroke-miterlimit="10" points="242.4,676.3 242.4,535.6 228.3,535.6 228.3,662.2 	"/>
	<polygon fill="#FFFFFF" stroke="#16B34C" stroke-miterlimit="10" points="270.5,704.4 242.4,676.3 242.4,535.6 270.5,535.6 	"/>
	<polygon fill="#FFFFFF" stroke="#16B34C" stroke-miterlimit="10" points="495.8,486.4 495.8,542.8 439.4,486.4 439.4,430.1 	"/>
	<polygon fill="#FFFFFF" stroke="#16B34C" stroke-miterlimit="10" points="495.8,542.8 495.8,585 439.4,528.6 439.4,486.4 	"/>
	<polygon fill="#FFFFFF" stroke="#16B34C" stroke-miterlimit="10" points="481.6,570.8 481.6,669.3 495.8,669.3 495.8,585 	"/>
	<polygon fill="#FFFFFF" stroke="#16B34C" stroke-miterlimit="10" points="439.4,528.6 439.4,613 481.6,655.4 481.6,570.8 	"/>
	<rect x="326.6" y="563.7" fill="#FFFFFF" stroke="#16B34C" stroke-miterlimit="10" width="14.1" height="225.1"/>
	<polygon fill="#FFFFFF" stroke="#16B34C" stroke-miterlimit="10" points="270.5,451.2 186.1,451.2 171.9,465.2 326.8,465.2 
		326.8,451.2 	"/>
	<rect x="200" y="521.5" fill="#FFFFFF" stroke="#16B34C" stroke-miterlimit="10" width="70.5" height="14.1"/>
	<rect x="214.1" y="535.6" fill="#FFFFFF" stroke="#16B34C" stroke-miterlimit="10" width="14.1" height="28.1"/>
	<rect x="129.8" y="465.2" fill="#FFFFFF" stroke="#16B34C" stroke-miterlimit="10" width="197" height="14.1"/>
	<rect x="143.9" y="493.2" fill="#FFFFFF" stroke="#16B34C" stroke-miterlimit="10" width="126.6" height="14.1"/>
	<rect x="200" y="507.3" fill="#FFFFFF" stroke="#16B34C" stroke-miterlimit="10" width="70.5" height="14.1"/>
	<polygon fill="#FFFFFF" stroke="#16B34C" stroke-miterlimit="10" points="481.6,655.4 481.6,683.5 439.4,683.5 439.4,613 	"/>
	<polygon fill="#FFFFFF" stroke="#16B34C" stroke-miterlimit="10" points="171.9,493.4 186.1,479.3 284.6,479.3 284.6,493.4 	"/>
	<rect x="425.3" y="585" fill="#FFFFFF" stroke="#16B34C" stroke-miterlimit="10" width="14.1" height="126.6"/>
	<rect x="340.7" y="379.4" fill="#FFFFFF" stroke="#16B34C" stroke-miterlimit="10" width="14.7" height="458.3"/>
	<polygon fill="#FFFFFF" stroke="#16B34C" stroke-miterlimit="10" points="355.4,507.3 411.7,563.7 411.7,760.9 355.4,704.6 	"/>
	<rect x="673.2" y="479.3" fill="#FFFFFF" stroke="#16B34C" stroke-miterlimit="10" width="14.1" height="253.4"/>
	<rect x="560.6" y="247.2" fill="#FFFFFF" stroke="#16B34C" stroke-miterlimit="10" width="14.1" height="309.5"/>
	<polygon fill="#FFFFFF" stroke="#16B34C" stroke-miterlimit="10" points="673.2,205 673.2,176.7 588.8,261.3 588.8,233.1 
		687.3,134.6 687.3,190.9 	"/>
	<polygon fill="#FFFFFF" stroke="#16B34C" stroke-miterlimit="10" points="574.7,303.5 574.7,162.8 631,106.5 631,134.6 
		588.8,176.7 588.8,303.5 	"/>
	<polygon fill="#FFFFFF" stroke="#16B34C" stroke-miterlimit="10" points="588.8,233.1 588.8,176.7 673.2,92.4 673.2,106.5 
		602.9,176.7 602.9,219.1 	"/>
	<polygon fill="#FFFFFF" stroke="#16B34C" stroke-miterlimit="10" points="701.5,120.6 701.5,92.4 602.9,190.9 602.9,219.1 	"/>
	<polygon fill="#FFFFFF" stroke="#16B34C" stroke-miterlimit="10" points="574.7,837.8 588.8,837.8 588.8,449.1 574.7,463.3 	"/>
	<polygon fill="#FFFFFF" stroke="#16B34C" stroke-miterlimit="10" points="771.7,662.2 771.7,535.6 757.6,535.6 757.6,676.3 	"/>
	<polygon fill="#FFFFFF" stroke="#16B34C" stroke-miterlimit="10" points="729.5,535.6 757.6,535.6 757.6,676.3 729.5,704.4 	"/>
	<polygon fill="#FFFFFF" stroke="#16B34C" stroke-miterlimit="10" points="560.6,430.1 560.6,486.4 504.2,542.8 504.2,486.4 	"/>
	<polygon fill="#FFFFFF" stroke="#16B34C" stroke-miterlimit="10" points="560.6,486.4 560.6,528.6 504.2,585 504.2,542.8 	"/>
	<polygon fill="#FFFFFF" stroke="#16B34C" stroke-miterlimit="10" points="504.2,585 504.2,669.3 518.4,669.3 518.4,570.8 	"/>
	<polygon fill="#FFFFFF" stroke="#16B34C" stroke-miterlimit="10" points="518.4,570.8 518.4,655.4 560.6,613 560.6,528.6 	"/>
	<rect x="659.1" y="563.7" fill="#FFFFFF" stroke="#16B34C" stroke-miterlimit="10" width="14.1" height="225.1"/>
	<polygon fill="#FFFFFF" stroke="#16B34C" stroke-miterlimit="10" points="673.2,451.2 673.2,465.2 828.1,465.2 813.9,451.2 
		729.5,451.2 	"/>
	<rect x="729.5" y="521.5" fill="#FFFFFF" stroke="#16B34C" stroke-miterlimit="10" width="70.5" height="14.1"/>
	<rect x="771.7" y="535.6" fill="#FFFFFF" stroke="#16B34C" stroke-miterlimit="10" width="14.1" height="28.1"/>
	<rect x="673.2" y="465.2" fill="#FFFFFF" stroke="#16B34C" stroke-miterlimit="10" width="197" height="14.1"/>
	<rect x="729.5" y="493.2" fill="#FFFFFF" stroke="#16B34C" stroke-miterlimit="10" width="126.6" height="14.1"/>
	<rect x="729.5" y="507.3" fill="#FFFFFF" stroke="#16B34C" stroke-miterlimit="10" width="70.5" height="14.1"/>
	<polygon fill="#FFFFFF" stroke="#16B34C" stroke-miterlimit="10" points="560.6,613 560.6,683.5 518.4,683.5 518.4,655.4 	"/>
	<polygon fill="#FFFFFF" stroke="#16B34C" stroke-miterlimit="10" points="715.4,493.4 715.4,479.3 813.9,479.3 828.1,493.4 	"/>
	<rect x="560.6" y="585" fill="#FFFFFF" stroke="#16B34C" stroke-miterlimit="10" width="14.1" height="126.6"/>
	<rect x="644.6" y="379.4" fill="#FFFFFF" stroke="#16B34C" stroke-miterlimit="10" width="14.7" height="458.3"/>
	<polygon fill="#FFFFFF" stroke="#16B34C" stroke-miterlimit="10" points="644.6,507.3 588.3,563.7 588.3,760.9 644.6,704.6 	"/>
</g>
</svg>
