<?xml version="1.0" encoding="utf-8"?>
<!-- Generator: Adobe Illustrator 17.1.0, SVG Export Plug-In . SVG Version: 6.00 Build 0)  -->
<!DOCTYPE svg PUBLIC "-//W3C//DTD SVG 1.1//EN" "http://www.w3.org/Graphics/SVG/1.1/DTD/svg11.dtd">
<svg version="1.1" id="Layer_1" xmlns="http://www.w3.org/2000/svg" xmlns:xlink="http://www.w3.org/1999/xlink" x="0px" y="0px"
	 viewBox="0 0 1000 1000" enable-background="new 0 0 1000 1000" xml:space="preserve">
<rect x="183.9" y="512.2" fill="#FFFFFF" stroke="#16B34C" stroke-miterlimit="10" width="13" height="232.7"/>
<polygon fill="#FFFFFF" stroke="#16B34C" stroke-miterlimit="10" points="482,732.1 482,783.9 391.5,693.4 391.5,667.4 469.1,745.1 
	469.1,719.2 "/>
<polygon fill="#FFFFFF" stroke="#16B34C" stroke-miterlimit="10" points="391.5,628.7 391.5,745.1 430.3,783.9 430.3,809.7 
	378.6,757.9 378.6,628.7 "/>
<polygon fill="#FFFFFF" stroke="#16B34C" stroke-miterlimit="10" points="404.5,706.2 404.5,745.1 469.1,809.7 469.1,822.6 
	391.5,745.1 391.5,693.4 "/>
<polygon fill="#FFFFFF" stroke="#16B34C" stroke-miterlimit="10" points="404.5,706.2 404.5,732.1 495,822.6 495,796.7 "/>
<polygon fill="#FFFFFF" stroke="#16B34C" stroke-miterlimit="10" points="93.2,759.6 106.2,772.6 106.2,415.6 93.2,415.6 "/>
<polygon fill="#FFFFFF" stroke="#16B34C" stroke-miterlimit="10" points="261.2,563.9 261.2,693.2 274.2,693.2 274.2,576.9 "/>
<polygon fill="#FFFFFF" stroke="#16B34C" stroke-miterlimit="10" points="235.5,538.2 261.2,563.9 261.2,693.2 235.5,693.2 "/>
<rect x="170.9" y="460.6" fill="#FFFFFF" stroke="#16B34C" stroke-miterlimit="10" width="13" height="206.8"/>
<polygon fill="#FFFFFF" stroke="#16B34C" stroke-miterlimit="10" points="235.5,770.7 313,770.7 326,757.9 183.7,757.9 183.7,770.7 
	"/>
<rect x="235.5" y="693.2" fill="#FFFFFF" stroke="#16B34C" stroke-miterlimit="10" width="64.7" height="13"/>
<rect x="274.2" y="667.4" fill="#FFFFFF" stroke="#16B34C" stroke-miterlimit="10" width="13" height="25.8"/>
<rect x="183.7" y="744.9" fill="#FFFFFF" stroke="#16B34C" stroke-miterlimit="10" width="181" height="13"/>
<rect x="235.5" y="719.2" fill="#FFFFFF" stroke="#16B34C" stroke-miterlimit="10" width="116.3" height="13"/>
<rect x="364.7" y="512.2" fill="#FFFFFF" stroke="#16B34C" stroke-miterlimit="10" width="13" height="258.5"/>
<rect x="235.5" y="706.2" fill="#FFFFFF" stroke="#16B34C" stroke-miterlimit="10" width="64.7" height="13"/>
<polygon fill="#FFFFFF" stroke="#16B34C" stroke-miterlimit="10" points="326,732 313,744.9 222.5,744.9 222.5,732 "/>
<rect x="157.4" y="415.6" fill="#FFFFFF" stroke="#16B34C" stroke-miterlimit="10" width="13.5" height="421"/>
<polygon fill="#FFFFFF" stroke="#16B34C" stroke-miterlimit="10" points="157.4,719.2 105.7,667.4 105.7,486.4 157.4,538.2 "/>
<rect x="365.2" y="255.1" fill="#FFFFFF" stroke="#16B34C" stroke-miterlimit="10" width="13" height="232.7"/>
<polygon fill="#FFFFFF" stroke="#16B34C" stroke-miterlimit="10" points="80.1,267.9 80.1,216.1 170.6,306.6 170.6,332.6 
	93.1,254.9 93.1,280.8 "/>
<polygon fill="#FFFFFF" stroke="#16B34C" stroke-miterlimit="10" points="170.6,371.3 170.6,254.9 131.8,216.1 131.8,190.3 
	183.6,242.1 183.6,371.3 "/>
<polygon fill="#FFFFFF" stroke="#16B34C" stroke-miterlimit="10" points="157.6,293.8 157.6,254.9 93.1,190.3 93.1,177.4 
	170.6,254.9 170.6,306.6 "/>
<polygon fill="#FFFFFF" stroke="#16B34C" stroke-miterlimit="10" points="157.6,293.8 157.6,267.9 67.1,177.4 67.1,203.3 "/>
<polygon fill="#FFFFFF" stroke="#16B34C" stroke-miterlimit="10" points="468.7,240.4 455.7,227.4 455.7,584.4 468.7,584.4 "/>
<polygon fill="#FFFFFF" stroke="#16B34C" stroke-miterlimit="10" points="300.7,436.1 300.7,306.8 287.7,306.8 287.7,423.1 "/>
<polygon fill="#FFFFFF" stroke="#16B34C" stroke-miterlimit="10" points="326.5,461.8 300.7,436.1 300.7,306.8 326.5,306.8 "/>
<rect x="378.2" y="332.6" fill="#FFFFFF" stroke="#16B34C" stroke-miterlimit="10" width="13" height="206.8"/>
<polygon fill="#FFFFFF" stroke="#16B34C" stroke-miterlimit="10" points="326.5,229.3 249,229.3 236,242.1 378.2,242.1 378.2,229.3 
	"/>
<rect x="261.8" y="293.8" fill="#FFFFFF" stroke="#16B34C" stroke-miterlimit="10" width="64.7" height="13"/>
<rect x="274.7" y="306.8" fill="#FFFFFF" stroke="#16B34C" stroke-miterlimit="10" width="13" height="25.8"/>
<rect x="197.2" y="242.1" fill="#FFFFFF" stroke="#16B34C" stroke-miterlimit="10" width="181" height="13"/>
<rect x="210.2" y="267.9" fill="#FFFFFF" stroke="#16B34C" stroke-miterlimit="10" width="116.3" height="13"/>
<rect x="184.2" y="229.3" fill="#FFFFFF" stroke="#16B34C" stroke-miterlimit="10" width="13" height="258.5"/>
<rect x="261.8" y="280.8" fill="#FFFFFF" stroke="#16B34C" stroke-miterlimit="10" width="64.7" height="13"/>
<polygon fill="#FFFFFF" stroke="#16B34C" stroke-miterlimit="10" points="236,268 249,255.1 339.5,255.1 339.5,268 "/>
<rect x="391.2" y="163.4" fill="#FFFFFF" stroke="#16B34C" stroke-miterlimit="10" width="13.5" height="421"/>
<polygon fill="#FFFFFF" stroke="#16B34C" stroke-miterlimit="10" points="404.5,280.8 456.3,332.6 456.3,513.8 404.5,462 "/>
<rect x="803.1" y="512.2" fill="#FFFFFF" stroke="#16B34C" stroke-miterlimit="10" width="13" height="232.7"/>
<polygon fill="#FFFFFF" stroke="#16B34C" stroke-miterlimit="10" points="530.9,719.2 530.9,745.1 608.5,667.4 608.5,693.4 
	518,783.9 518,732.1 "/>
<polygon fill="#FFFFFF" stroke="#16B34C" stroke-miterlimit="10" points="621.4,628.7 621.4,757.9 569.7,809.7 569.7,783.9 
	608.5,745.1 608.5,628.7 "/>
<polygon fill="#FFFFFF" stroke="#16B34C" stroke-miterlimit="10" points="608.5,693.4 608.5,745.1 530.9,822.6 530.9,809.7 
	595.5,745.1 595.5,706.2 "/>
<polygon fill="#FFFFFF" stroke="#16B34C" stroke-miterlimit="10" points="505,796.7 505,822.6 595.5,732.1 595.5,706.2 "/>
<polygon fill="#FFFFFF" stroke="#16B34C" stroke-miterlimit="10" points="906.8,415.6 893.8,415.6 893.8,772.6 906.8,759.6 "/>
<polygon fill="#FFFFFF" stroke="#16B34C" stroke-miterlimit="10" points="725.8,576.9 725.8,693.2 738.8,693.2 738.8,563.9 "/>
<polygon fill="#FFFFFF" stroke="#16B34C" stroke-miterlimit="10" points="764.5,693.2 738.8,693.2 738.8,563.9 764.5,538.2 "/>
<rect x="816.1" y="460.6" fill="#FFFFFF" stroke="#16B34C" stroke-miterlimit="10" width="13" height="206.8"/>
<polygon fill="#FFFFFF" stroke="#16B34C" stroke-miterlimit="10" points="816.3,770.7 816.3,757.9 674,757.9 687,770.7 764.5,770.7 
	"/>
<rect x="699.8" y="693.2" fill="#FFFFFF" stroke="#16B34C" stroke-miterlimit="10" width="64.7" height="13"/>
<rect x="712.8" y="667.4" fill="#FFFFFF" stroke="#16B34C" stroke-miterlimit="10" width="13" height="25.8"/>
<rect x="635.3" y="744.9" fill="#FFFFFF" stroke="#16B34C" stroke-miterlimit="10" width="181" height="13"/>
<rect x="648.3" y="719.2" fill="#FFFFFF" stroke="#16B34C" stroke-miterlimit="10" width="116.3" height="13"/>
<rect x="622.3" y="512.2" fill="#FFFFFF" stroke="#16B34C" stroke-miterlimit="10" width="13" height="258.5"/>
<rect x="699.8" y="706.2" fill="#FFFFFF" stroke="#16B34C" stroke-miterlimit="10" width="64.7" height="13"/>
<polygon fill="#FFFFFF" stroke="#16B34C" stroke-miterlimit="10" points="777.5,732 777.5,744.9 687,744.9 674,732 "/>
<rect x="829.1" y="415.6" fill="#FFFFFF" stroke="#16B34C" stroke-miterlimit="10" width="13.5" height="421"/>
<polygon fill="#FFFFFF" stroke="#16B34C" stroke-miterlimit="10" points="842.6,538.2 894.3,486.4 894.3,667.4 842.6,719.2 "/>
<rect x="621.8" y="255.1" fill="#FFFFFF" stroke="#16B34C" stroke-miterlimit="10" width="13" height="232.7"/>
<polygon fill="#FFFFFF" stroke="#16B34C" stroke-miterlimit="10" points="906.9,280.8 906.9,254.9 829.4,332.6 829.4,306.6 
	919.9,216.1 919.9,267.9 "/>
<polygon fill="#FFFFFF" stroke="#16B34C" stroke-miterlimit="10" points="816.4,371.3 816.4,242.1 868.2,190.3 868.2,216.1 
	829.4,254.9 829.4,371.3 "/>
<polygon fill="#FFFFFF" stroke="#16B34C" stroke-miterlimit="10" points="829.4,306.6 829.4,254.9 906.9,177.4 906.9,190.3 
	842.4,254.9 842.4,293.8 "/>
<polygon fill="#FFFFFF" stroke="#16B34C" stroke-miterlimit="10" points="932.9,203.3 932.9,177.4 842.4,267.9 842.4,293.8 "/>
<polygon fill="#FFFFFF" stroke="#16B34C" stroke-miterlimit="10" points="531.3,584.4 544.3,584.4 544.3,227.4 531.3,240.4 "/>
<polygon fill="#FFFFFF" stroke="#16B34C" stroke-miterlimit="10" points="712.3,423.1 712.3,306.8 699.3,306.8 699.3,436.1 "/>
<polygon fill="#FFFFFF" stroke="#16B34C" stroke-miterlimit="10" points="673.5,306.8 699.3,306.8 699.3,436.1 673.5,461.8 "/>
<rect x="608.8" y="332.6" fill="#FFFFFF" stroke="#16B34C" stroke-miterlimit="10" width="13" height="206.8"/>
<polygon fill="#FFFFFF" stroke="#16B34C" stroke-miterlimit="10" points="621.8,229.3 621.8,242.1 764,242.1 751,229.3 673.5,229.3 
	"/>
<rect x="673.5" y="293.8" fill="#FFFFFF" stroke="#16B34C" stroke-miterlimit="10" width="64.7" height="13"/>
<rect x="712.3" y="306.8" fill="#FFFFFF" stroke="#16B34C" stroke-miterlimit="10" width="13" height="25.8"/>
<rect x="621.8" y="242.1" fill="#FFFFFF" stroke="#16B34C" stroke-miterlimit="10" width="181" height="13"/>
<rect x="673.5" y="267.9" fill="#FFFFFF" stroke="#16B34C" stroke-miterlimit="10" width="116.3" height="13"/>
<rect x="802.8" y="229.3" fill="#FFFFFF" stroke="#16B34C" stroke-miterlimit="10" width="13" height="258.5"/>
<rect x="673.5" y="280.8" fill="#FFFFFF" stroke="#16B34C" stroke-miterlimit="10" width="64.7" height="13"/>
<polygon fill="#FFFFFF" stroke="#16B34C" stroke-miterlimit="10" points="660.5,268 660.5,255.1 751,255.1 764,268 "/>
<rect x="595.3" y="163.4" fill="#FFFFFF" stroke="#16B34C" stroke-miterlimit="10" width="13.5" height="421"/>
<polygon fill="#FFFFFF" stroke="#16B34C" stroke-miterlimit="10" points="595.5,462 543.7,513.8 543.7,332.6 595.5,280.8 "/>
</svg>
