<?xml version="1.0" encoding="utf-8"?>
<!-- Generator: Adobe Illustrator 17.1.0, SVG Export Plug-In . SVG Version: 6.00 Build 0)  -->
<!DOCTYPE svg PUBLIC "-//W3C//DTD SVG 1.1//EN" "http://www.w3.org/Graphics/SVG/1.1/DTD/svg11.dtd">
<svg version="1.1" id="Layer_1" xmlns="http://www.w3.org/2000/svg" xmlns:xlink="http://www.w3.org/1999/xlink" x="0px" y="0px"
	 viewBox="0 0 1000 1000" enable-background="new 0 0 1000 1000" xml:space="preserve">
<rect x="432.3" y="359.1" fill="#FFFFFF" stroke="#16B34C" stroke-miterlimit="10" width="7.5" height="134.5"/>
<rect x="700.5" y="408.4" fill="#FFFFFF" stroke="#16B34C" stroke-miterlimit="10" width="12" height="108.5"/>
<rect x="676.5" y="438.5" fill="#FFFFFF" stroke="#16B34C" stroke-miterlimit="10" width="12" height="78.4"/>
<rect x="417.4" y="359.1" fill="#FFFFFF" stroke="#16B34C" stroke-miterlimit="10" width="7.5" height="164.3"/>
<polygon fill="#FFFFFF" stroke="#16B34C" stroke-miterlimit="10" points="670.4,516.9 670.4,444.6 676.5,450.5 676.5,516.9 "/>
<polygon fill="#FFFFFF" stroke="#16B34C" stroke-miterlimit="10" points="670.4,444.6 670.4,396.4 676.5,402.3 676.5,450.5 "/>
<polygon fill="#FFFFFF" stroke="#16B34C" stroke-miterlimit="10" points="676.5,438.5 676.5,408.4 688.5,420.4 688.5,438.5 "/>
<rect x="688.5" y="444.6" fill="#FFFFFF" stroke="#16B34C" stroke-miterlimit="10" width="6.1" height="72.3"/>
<rect x="694.6" y="420.6" fill="#FFFFFF" stroke="#16B34C" stroke-miterlimit="10" width="6.1" height="96.3"/>
<polygon fill="#FFFFFF" stroke="#16B34C" stroke-miterlimit="10" points="357.6,441.3 357.6,471.2 409.9,418.9 409.9,403.9 
	365.1,448.8 365.1,433.8 "/>
<polygon fill="#FFFFFF" stroke="#16B34C" stroke-miterlimit="10" points="409.9,381.5 409.9,448.8 387.5,471.2 387.5,486.1 
	417.4,456.2 417.4,381.5 "/>
<polygon fill="#FFFFFF" stroke="#16B34C" stroke-miterlimit="10" points="402.4,426.3 402.4,448.8 365.1,486.1 365.1,493.6 
	409.9,448.8 409.9,418.9 "/>
<polygon fill="#FFFFFF" stroke="#16B34C" stroke-miterlimit="10" points="402.4,426.3 402.4,441.3 350.1,493.6 350.1,478.6 "/>
<polygon fill="#FFFFFF" stroke="#16B34C" stroke-miterlimit="10" points="357.6,486.1 365.1,478.6 365.1,545.9 357.6,545.9 "/>
<polygon fill="#FFFFFF" stroke="#16B34C" stroke-miterlimit="10" points="372.6,486.1 372.6,560.8 365.1,560.8 365.1,493.6 "/>
<polygon fill="#FFFFFF" stroke="#16B34C" stroke-miterlimit="10" points="387.5,471.2 372.6,486.1 372.6,560.8 387.5,560.8 "/>
<polygon fill="#FFFFFF" stroke="#16B34C" stroke-miterlimit="10" points="387.5,486.1 387.5,516 417.4,486.1 417.4,456.2 "/>
<polygon fill="#FFFFFF" stroke="#16B34C" stroke-miterlimit="10" points="387.5,516 387.5,538.4 417.4,508.5 417.4,486.1 "/>
<polygon fill="#FFFFFF" stroke="#16B34C" stroke-miterlimit="10" points="395,530.9 395,583.2 387.5,583.2 387.5,538.4 "/>
<polygon fill="#FFFFFF" stroke="#16B34C" stroke-miterlimit="10" points="417.4,508.5 417.4,553.3 395,575.8 395,530.9 "/>
<rect x="424.9" y="359.1" fill="#FFFFFF" stroke="#16B34C" stroke-miterlimit="10" width="7.5" height="164.3"/>
<polygon fill="#FFFFFF" stroke="#16B34C" stroke-miterlimit="10" points="712.5,426.5 730.6,444.6 730.6,522.8 712.5,522.8 "/>
<rect x="730.6" y="420.4" fill="#FFFFFF" stroke="#16B34C" stroke-miterlimit="10" width="6.1" height="102.4"/>
<polygon fill="#FFFFFF" stroke="#16B34C" stroke-miterlimit="10" points="736.7,462.6 742.7,468.6 742.6,534.8 736.7,534.8 "/>
<polygon fill="#FFFFFF" stroke="#16B34C" stroke-miterlimit="10" points="742.7,456.6 748.7,462.6 748.7,534.8 742.6,534.8 "/>
<rect x="748.8" y="468.6" fill="#FFFFFF" stroke="#16B34C" stroke-miterlimit="10" width="54.2" height="66.2"/>
<polygon fill="#FFFFFF" stroke="#16B34C" stroke-miterlimit="10" points="802.9,474.6 814.9,486.8 814.9,546.9 802.9,559.1 "/>
<polygon fill="#FFFFFF" stroke="#16B34C" stroke-miterlimit="10" points="387.5,605.6 342.7,605.6 335.2,598.2 417.4,598.2 
	417.4,605.6 "/>
<polygon fill="#FFFFFF" stroke="#16B34C" stroke-miterlimit="10" points="447.7,329.3 447.7,344.2 462.6,329.3 "/>
<polygon fill="#FFFFFF" stroke="#16B34C" stroke-miterlimit="10" points="447.7,329.3 447.7,269.5 462.6,254.6 462.6,329.3 "/>
<polygon fill="#FFFFFF" stroke="#16B34C" stroke-miterlimit="10" points="462.6,329.3 470.1,329.3 470.1,247.1 462.6,254.6 "/>
<polygon fill="#FFFFFF" stroke="#16B34C" stroke-miterlimit="10" points="432.7,359.1 470.1,359.1 500,329.3 462.6,329.3 "/>
<rect x="470.1" y="277" fill="#FFFFFF" stroke="#16B34C" stroke-miterlimit="10" width="29.9" height="52.3"/>
<rect x="492.5" y="277" fill="#FFFFFF" stroke="#16B34C" stroke-miterlimit="10" width="7.5" height="52.3"/>
<rect x="470.1" y="262" fill="#FFFFFF" stroke="#16B34C" stroke-miterlimit="10" width="22.4" height="14.9"/>
<polygon fill="#FFFFFF" stroke="#16B34C" stroke-miterlimit="10" points="492.5,262 492.5,239.6 500,247.1 500,277 492.5,277 "/>
<polygon fill="#FFFFFF" stroke="#16B34C" stroke-miterlimit="10" points="492.5,239.6 492.5,224.7 470.1,247.1 470.1,262 492.5,262 
	"/>
<polygon fill="#FFFFFF" stroke="#16B34C" stroke-miterlimit="10" points="447.7,239.6 477.6,209.7 477.6,239.6 447.7,269.5 "/>
<polygon fill="#FFFFFF" stroke="#16B34C" stroke-miterlimit="10" points="477.6,209.7 477.6,179.8 485,187.3 485,232.1 477.6,239.6 
	"/>
<polygon fill="#FFFFFF" stroke="#16B34C" stroke-miterlimit="10" points="552.3,329.3 552.3,344.2 537.4,329.3 "/>
<polygon fill="#FFFFFF" stroke="#16B34C" stroke-miterlimit="10" points="552.3,329.3 552.3,269.5 537.4,254.6 537.4,329.3 "/>
<polygon fill="#FFFFFF" stroke="#16B34C" stroke-miterlimit="10" points="537.4,329.3 529.9,329.3 529.9,247.1 537.4,254.6 "/>
<polygon fill="#FFFFFF" stroke="#16B34C" stroke-miterlimit="10" points="567.3,359.1 529.9,359.1 500,329.3 537.4,329.3 "/>
<rect x="500" y="277" fill="#FFFFFF" stroke="#16B34C" stroke-miterlimit="10" width="29.9" height="52.3"/>
<rect x="500" y="277" fill="#FFFFFF" stroke="#16B34C" stroke-miterlimit="10" width="7.5" height="52.3"/>
<rect x="507.5" y="262" fill="#FFFFFF" stroke="#16B34C" stroke-miterlimit="10" width="22.4" height="14.9"/>
<polygon fill="#FFFFFF" stroke="#16B34C" stroke-miterlimit="10" points="507.5,262 507.5,239.6 500,247.1 500,277 507.5,277 "/>
<polygon fill="#FFFFFF" stroke="#16B34C" stroke-miterlimit="10" points="507.5,239.6 507.5,224.7 529.9,247.1 529.9,262 507.5,262 
	"/>
<polygon fill="#FFFFFF" stroke="#16B34C" stroke-miterlimit="10" points="552.3,239.6 522.4,209.7 522.4,239.6 552.3,269.5 "/>
<polygon fill="#FFFFFF" stroke="#16B34C" stroke-miterlimit="10" points="522.4,209.7 522.4,179.8 515,187.3 515,232.1 522.4,239.6 
	"/>
<polygon fill="#FFFFFF" stroke="#16B34C" stroke-miterlimit="10" points="462.6,523.3 447.7,508.5 447.7,523.3 "/>
<polygon fill="#FFFFFF" stroke="#16B34C" stroke-miterlimit="10" points="462.6,523.3 462.6,598.1 447.7,583.2 447.7,523.3 "/>
<polygon fill="#FFFFFF" stroke="#16B34C" stroke-miterlimit="10" points="462.6,598.1 470.1,605.6 470.1,523.3 462.6,523.3 "/>
<polygon fill="#FFFFFF" stroke="#16B34C" stroke-miterlimit="10" points="462.6,523.3 500,523.3 470.1,493.6 432.7,493.6 "/>
<rect x="470.1" y="523.3" fill="#FFFFFF" stroke="#16B34C" stroke-miterlimit="10" width="29.9" height="52.3"/>
<rect x="492.5" y="523.3" fill="#FFFFFF" stroke="#16B34C" stroke-miterlimit="10" width="7.5" height="52.3"/>
<rect x="470.1" y="575.8" fill="#FFFFFF" stroke="#16B34C" stroke-miterlimit="10" width="22.4" height="14.9"/>
<polygon fill="#FFFFFF" stroke="#16B34C" stroke-miterlimit="10" points="492.5,575.7 500,575.7 500,605.6 492.5,613.1 492.5,590.7 
	"/>
<polygon fill="#FFFFFF" stroke="#16B34C" stroke-miterlimit="10" points="492.5,590.7 470.1,590.7 470.1,605.6 492.5,628 
	492.5,613.1 "/>
<polygon fill="#FFFFFF" stroke="#16B34C" stroke-miterlimit="10" points="447.7,583.2 477.6,613.1 477.6,643 447.7,613.1 "/>
<polygon fill="#FFFFFF" stroke="#16B34C" stroke-miterlimit="10" points="477.6,613.1 485,620.6 485,665.3 477.6,672.8 477.6,643 
	"/>
<polygon fill="#FFFFFF" stroke="#16B34C" stroke-miterlimit="10" points="537.4,523.3 552.3,508.5 552.3,523.3 "/>
<polygon fill="#FFFFFF" stroke="#16B34C" stroke-miterlimit="10" points="537.4,523.3 537.4,598.1 552.3,583.2 552.3,523.3 "/>
<polygon fill="#FFFFFF" stroke="#16B34C" stroke-miterlimit="10" points="537.4,598.1 529.9,605.6 529.9,523.3 537.4,523.3 "/>
<polygon fill="#FFFFFF" stroke="#16B34C" stroke-miterlimit="10" points="537.4,523.3 500,523.3 529.9,493.6 567.3,493.6 "/>
<rect x="500" y="523.3" fill="#FFFFFF" stroke="#16B34C" stroke-miterlimit="10" width="29.9" height="52.3"/>
<rect x="500" y="523.3" fill="#FFFFFF" stroke="#16B34C" stroke-miterlimit="10" width="7.5" height="52.3"/>
<rect x="507.5" y="575.8" fill="#FFFFFF" stroke="#16B34C" stroke-miterlimit="10" width="22.4" height="14.9"/>
<polygon fill="#FFFFFF" stroke="#16B34C" stroke-miterlimit="10" points="507.5,575.7 500,575.7 500,605.6 507.5,613.1 507.5,590.7 
	"/>
<polygon fill="#FFFFFF" stroke="#16B34C" stroke-miterlimit="10" points="507.5,590.7 529.9,590.7 529.9,605.6 507.5,628 
	507.5,613.1 "/>
<polygon fill="#FFFFFF" stroke="#16B34C" stroke-miterlimit="10" points="552.3,583.2 522.4,613.1 522.4,643 552.3,613.1 "/>
<polygon fill="#FFFFFF" stroke="#16B34C" stroke-miterlimit="10" points="522.4,613.1 515,620.6 515,665.3 522.4,672.8 522.4,643 
	"/>
<rect x="350.1" y="560.8" fill="#FFFFFF" stroke="#16B34C" stroke-miterlimit="10" width="37.4" height="7.5"/>
<rect x="357.6" y="545.9" fill="#FFFFFF" stroke="#16B34C" stroke-miterlimit="10" width="7.5" height="14.9"/>
<rect x="312.8" y="590.7" fill="#FFFFFF" stroke="#16B34C" stroke-miterlimit="10" width="104.6" height="7.5"/>
<rect x="320.3" y="575.8" fill="#FFFFFF" stroke="#16B34C" stroke-miterlimit="10" width="67.2" height="7.5"/>
<rect x="350.1" y="568.3" fill="#FFFFFF" stroke="#16B34C" stroke-miterlimit="10" width="37.4" height="7.5"/>
<polygon fill="#FFFFFF" stroke="#16B34C" stroke-miterlimit="10" points="395,575.8 395,590.7 417.4,590.7 417.4,553.3 "/>
<polygon fill="#FFFFFF" stroke="#16B34C" stroke-miterlimit="10" points="335.2,583.2 342.7,590.7 395,590.7 395,583.2 "/>
<rect x="417.4" y="538.4" fill="#FFFFFF" stroke="#16B34C" stroke-miterlimit="10" width="7.5" height="67.2"/>
<rect x="560.2" y="359.1" fill="#FFFFFF" stroke="#16B34C" stroke-miterlimit="10" width="7.5" height="134.5"/>
<rect x="575.1" y="359.1" fill="#FFFFFF" stroke="#16B34C" stroke-miterlimit="10" width="7.5" height="164.3"/>
<polygon fill="#FFFFFF" stroke="#16B34C" stroke-miterlimit="10" points="642.4,441.3 642.4,471.2 590.1,418.9 590.1,403.9 
	634.9,448.8 634.9,433.8 "/>
<polygon fill="#FFFFFF" stroke="#16B34C" stroke-miterlimit="10" points="590.1,381.5 590.1,448.8 612.5,471.2 612.5,486.1 
	582.6,456.2 582.6,381.5 "/>
<polygon fill="#FFFFFF" stroke="#16B34C" stroke-miterlimit="10" points="597.6,426.3 597.6,448.8 634.9,486.1 634.9,493.6 
	590.1,448.8 590.1,418.9 "/>
<polygon fill="#FFFFFF" stroke="#16B34C" stroke-miterlimit="10" points="597.6,426.3 597.6,441.3 649.9,493.6 649.9,478.6 "/>
<polygon fill="#FFFFFF" stroke="#16B34C" stroke-miterlimit="10" points="642.4,486.1 634.9,478.6 634.9,545.9 642.4,545.9 "/>
<polygon fill="#FFFFFF" stroke="#16B34C" stroke-miterlimit="10" points="627.4,486.1 627.4,560.8 634.9,560.8 634.9,493.6 "/>
<polygon fill="#FFFFFF" stroke="#16B34C" stroke-miterlimit="10" points="612.5,471.2 627.4,486.1 627.4,560.8 612.5,560.8 "/>
<polygon fill="#FFFFFF" stroke="#16B34C" stroke-miterlimit="10" points="612.5,486.1 612.5,516 582.6,486.1 582.6,456.2 "/>
<polygon fill="#FFFFFF" stroke="#16B34C" stroke-miterlimit="10" points="612.5,516 612.5,538.4 582.6,508.5 582.6,486.1 "/>
<polygon fill="#FFFFFF" stroke="#16B34C" stroke-miterlimit="10" points="605,530.9 605,583.2 612.5,583.2 612.5,538.4 "/>
<polygon fill="#FFFFFF" stroke="#16B34C" stroke-miterlimit="10" points="582.6,508.5 582.6,553.3 605,575.8 605,530.9 "/>
<rect x="567.7" y="359.1" fill="#FFFFFF" stroke="#16B34C" stroke-miterlimit="10" width="7.5" height="164.3"/>
<polygon fill="#FFFFFF" stroke="#16B34C" stroke-miterlimit="10" points="612.5,605.6 657.3,605.6 664.8,598.2 582.6,598.2 
	582.6,605.6 "/>
<rect x="612.5" y="560.8" fill="#FFFFFF" stroke="#16B34C" stroke-miterlimit="10" width="37.4" height="7.5"/>
<rect x="634.9" y="545.9" fill="#FFFFFF" stroke="#16B34C" stroke-miterlimit="10" width="7.5" height="14.9"/>
<rect x="582.6" y="590.7" fill="#FFFFFF" stroke="#16B34C" stroke-miterlimit="10" width="104.6" height="7.5"/>
<rect x="612.5" y="575.8" fill="#FFFFFF" stroke="#16B34C" stroke-miterlimit="10" width="67.2" height="7.5"/>
<rect x="612.5" y="568.3" fill="#FFFFFF" stroke="#16B34C" stroke-miterlimit="10" width="37.4" height="7.5"/>
<polygon fill="#FFFFFF" stroke="#16B34C" stroke-miterlimit="10" points="605,575.8 605,590.7 582.6,590.7 582.6,553.3 "/>
<polygon fill="#FFFFFF" stroke="#16B34C" stroke-miterlimit="10" points="664.8,583.2 657.3,590.7 605,590.7 605,583.2 "/>
<polygon fill="#FFFFFF" stroke="#16B34C" stroke-miterlimit="10" points="493.8,493.6 493.8,448.8 486.5,441.3 486.5,523.5 
	493.8,523.5 "/>
<rect x="449" y="456.2" fill="#FFFFFF" stroke="#16B34C" stroke-miterlimit="10" width="7.5" height="37.4"/>
<rect x="479" y="418.9" fill="#FFFFFF" stroke="#16B34C" stroke-miterlimit="10" width="7.5" height="104.6"/>
<rect x="464" y="426.4" fill="#FFFFFF" stroke="#16B34C" stroke-miterlimit="10" width="7.5" height="67.2"/>
<rect x="456.5" y="456.2" fill="#FFFFFF" stroke="#16B34C" stroke-miterlimit="10" width="7.5" height="37.4"/>
<polygon fill="#FFFFFF" stroke="#16B34C" stroke-miterlimit="10" points="471.5,441.3 479,448.8 479,501.1 471.5,501.1 "/>
<polygon fill="#FFFFFF" stroke="#16B34C" stroke-miterlimit="10" points="507.9,523.5 515.3,523.5 515.3,441.3 507.9,448.8 
	507.9,493.6 "/>
<rect x="545.2" y="456.2" fill="#FFFFFF" stroke="#16B34C" stroke-miterlimit="10" width="7.5" height="37.4"/>
<rect x="515.3" y="418.9" fill="#FFFFFF" stroke="#16B34C" stroke-miterlimit="10" width="7.5" height="104.6"/>
<rect x="530.2" y="426.4" fill="#FFFFFF" stroke="#16B34C" stroke-miterlimit="10" width="7.5" height="67.2"/>
<rect x="537.7" y="456.2" fill="#FFFFFF" stroke="#16B34C" stroke-miterlimit="10" width="7.5" height="37.4"/>
<polygon fill="#FFFFFF" stroke="#16B34C" stroke-miterlimit="10" points="530.3,501.1 522.8,501.1 522.8,448.8 530.3,441.3 "/>
<rect x="575.1" y="538.4" fill="#FFFFFF" stroke="#16B34C" stroke-miterlimit="10" width="7.5" height="67.2"/>
<rect x="748.7" y="474.7" fill="#FFFFFF" stroke="#16B34C" stroke-miterlimit="10" width="12" height="54.2"/>
<rect x="748.8" y="468.5" fill="#FFFFFF" stroke="#16B34C" stroke-miterlimit="10" width="54.2" height="6.1"/>
<polygon fill="#FFFFFF" stroke="#16B34C" stroke-miterlimit="10" points="760.8,510.8 766.9,504.7 766.9,474.6 760.8,474.6 "/>
<polygon fill="#FFFFFF" stroke="#16B34C" stroke-miterlimit="10" points="760.8,528.9 760.8,510.8 778.9,492.7 778.9,528.9 "/>
<polygon fill="#FFFFFF" stroke="#16B34C" stroke-miterlimit="10" points="766.9,504.7 778.9,492.7 778.9,474.6 766.9,474.6 "/>
<polygon fill="#FFFFFF" stroke="#16B34C" stroke-miterlimit="10" points="778.9,504.7 790.9,516.9 790.9,528.9 778.9,528.9 "/>
<polygon fill="#FFFFFF" stroke="#16B34C" stroke-miterlimit="10" points="790.9,516.9 802.9,528.9 802.9,510.8 778.9,486.8 
	778.9,504.7 "/>
<rect x="778.9" y="480.7" fill="#FFFFFF" stroke="#16B34C" stroke-miterlimit="10" width="24" height="6.1"/>
<rect x="287.8" y="408.4" fill="#FFFFFF" stroke="#16B34C" stroke-miterlimit="10" width="12" height="108.5"/>
<rect x="311.8" y="438.5" fill="#FFFFFF" stroke="#16B34C" stroke-miterlimit="10" width="12" height="78.4"/>
<polygon fill="#FFFFFF" stroke="#16B34C" stroke-miterlimit="10" points="323.9,516.9 323.9,450.5 330,444.6 330,516.9 "/>
<polygon fill="#FFFFFF" stroke="#16B34C" stroke-miterlimit="10" points="323.9,450.5 323.9,402.3 330,396.4 330,444.6 "/>
<polygon fill="#FFFFFF" stroke="#16B34C" stroke-miterlimit="10" points="311.8,438.5 311.8,420.4 323.9,408.4 323.9,438.5 "/>
<rect x="305.7" y="444.6" fill="#FFFFFF" stroke="#16B34C" stroke-miterlimit="10" width="6.1" height="72.3"/>
<rect x="299.7" y="420.6" fill="#FFFFFF" stroke="#16B34C" stroke-miterlimit="10" width="6.1" height="96.3"/>
<polygon fill="#FFFFFF" stroke="#16B34C" stroke-miterlimit="10" points="287.8,522.8 269.7,522.8 269.7,444.6 287.8,426.5 "/>
<rect x="263.6" y="420.4" fill="#FFFFFF" stroke="#16B34C" stroke-miterlimit="10" width="6.1" height="102.4"/>
<polygon fill="#FFFFFF" stroke="#16B34C" stroke-miterlimit="10" points="263.6,534.8 257.7,534.8 257.7,468.6 263.6,462.6 "/>
<polygon fill="#FFFFFF" stroke="#16B34C" stroke-miterlimit="10" points="257.7,534.8 251.6,534.8 251.6,462.6 257.7,456.6 "/>
<rect x="197.4" y="468.6" fill="#FFFFFF" stroke="#16B34C" stroke-miterlimit="10" width="54.2" height="66.2"/>
<polygon fill="#FFFFFF" stroke="#16B34C" stroke-miterlimit="10" points="197.4,559.1 185.4,546.9 185.4,486.8 197.4,474.6 "/>
<rect x="239.6" y="474.7" fill="#FFFFFF" stroke="#16B34C" stroke-miterlimit="10" width="12" height="54.2"/>
<rect x="197.4" y="468.5" fill="#FFFFFF" stroke="#16B34C" stroke-miterlimit="10" width="54.2" height="6.1"/>
<polygon fill="#FFFFFF" stroke="#16B34C" stroke-miterlimit="10" points="239.6,474.6 233.5,474.6 233.5,504.7 239.6,510.8 "/>
<polygon fill="#FFFFFF" stroke="#16B34C" stroke-miterlimit="10" points="221.4,528.9 221.4,492.7 239.6,510.8 239.6,528.9 "/>
<polygon fill="#FFFFFF" stroke="#16B34C" stroke-miterlimit="10" points="233.5,474.6 221.4,474.6 221.4,492.7 233.5,504.7 "/>
<polygon fill="#FFFFFF" stroke="#16B34C" stroke-miterlimit="10" points="221.4,528.9 209.4,528.9 209.4,516.9 221.4,504.7 "/>
<polygon fill="#FFFFFF" stroke="#16B34C" stroke-miterlimit="10" points="221.4,504.7 221.4,486.8 197.4,510.8 197.4,528.9 
	209.4,516.9 "/>
<rect x="197.4" y="480.7" fill="#FFFFFF" stroke="#16B34C" stroke-miterlimit="10" width="24" height="6.1"/>
<polygon fill="#FFFFFF" stroke="#16B34C" stroke-miterlimit="10" points="305.9,615 305.9,177.2 312,171.3 312,609.1 "/>
<polygon fill="#FFFFFF" stroke="#16B34C" stroke-miterlimit="10" points="293.9,603 293.9,195.3 305.9,183.3 305.9,603 "/>
<rect x="281.7" y="195.5" fill="#FFFFFF" stroke="#16B34C" stroke-miterlimit="10" width="6.1" height="477.4"/>
<polygon fill="#FFFFFF" stroke="#16B34C" stroke-miterlimit="10" points="688.4,609.1 688.4,171.3 694.5,177.2 694.5,615 "/>
<polygon fill="#FFFFFF" stroke="#16B34C" stroke-miterlimit="10" points="694.5,603 694.5,183.3 706.5,195.3 706.5,603 "/>
<rect x="712.6" y="195.5" fill="#FFFFFF" stroke="#16B34C" stroke-miterlimit="10" width="6.1" height="477.4"/>
</svg>
