<?xml version="1.0" encoding="utf-8"?>
<!-- Generator: Adobe Illustrator 17.1.0, SVG Export Plug-In . SVG Version: 6.00 Build 0)  -->
<!DOCTYPE svg PUBLIC "-//W3C//DTD SVG 1.1//EN" "http://www.w3.org/Graphics/SVG/1.1/DTD/svg11.dtd">
<svg version="1.1" id="Layer_1" xmlns="http://www.w3.org/2000/svg" xmlns:xlink="http://www.w3.org/1999/xlink" x="0px" y="0px"
	 viewBox="0 0 1000 1000" enable-background="new 0 0 1000 1000" xml:space="preserve">
<polygon fill="#FFFFFF" stroke="#16B34C" stroke-miterlimit="10" points="434.2,564.3 441.1,576.2 447.9,588.2 357.1,357.6 
	241.5,357.6 234.7,345.6 227.8,333.7 343.4,333.7 "/>
<polygon fill="#FFFFFF" stroke="#16B34C" stroke-miterlimit="10" points="471.5,535.3 474.9,544.7 478.3,554 384.1,323.4 
	265.2,323.4 261.7,314 258.3,304.7 377.3,304.7 "/>
<polygon fill="#FFFFFF" stroke="#16B34C" stroke-miterlimit="10" points="508.7,506.3 508.7,513.1 508.7,520 386.3,520 288.7,289.3 
	288.7,282.5 288.7,275.6 386.3,506.3 "/>
<polygon fill="#FFFFFF" stroke="#16B34C" stroke-miterlimit="10" points="516.9,579.9 408.2,579.9 392.6,577.2 404.3,346.5 
	356.6,338.4 323.9,332.7 322.6,326 321.3,319.3 361.7,319.3 406.8,556.8 433.9,559.5 515.6,567.8 516.3,573.8 "/>
<polygon fill="#FFFFFF" stroke="#16B34C" stroke-miterlimit="10" points="525.1,639.8 429.9,639.8 414.9,634.4 411.9,634.4 
	390.7,387.4 359,376.1 356.5,369.6 354.1,362.9 391.1,362.9 427.3,607.3 451,612.6 522.7,629.2 523.9,634.6 "/>
<polygon fill="#FFFFFF" stroke="#16B34C" stroke-miterlimit="10" points="533.3,699.9 451.7,699.9 437.2,691.7 444.2,691.7 
	400,667.2 394.1,419.5 390.4,413.1 386.7,406.7 395.8,637.3 447.8,657.8 468,665.8 529.6,690.7 531.5,695.3 "/>
<polygon fill="#FFFFFF" stroke="#16B34C" stroke-miterlimit="10" points="541.5,759.8 473.5,759.8 459.4,748.9 476.6,748.9 
	434,716.3 404.5,693.6 399.5,687.3 394.6,681 425.1,681 468.3,708.4 485,719 536.7,752.3 539.1,756.1 "/>
<polygon fill="#FFFFFF" stroke="#16B34C" stroke-miterlimit="10" points="624.9,642.3 536.6,792.7 512.3,782.5 498.7,768.8 
	500.3,765.4 499.7,765.4 463.8,750.8 449.1,745 411.8,729.7 406.8,717.8 439,717.8 462.9,726.2 507.2,741.5 514.9,744.3 
	539.1,768.5 "/>
<polygon fill="#FFFFFF" stroke="#16B34C" stroke-miterlimit="10" points="386.5,710.9 454.4,710.9 522.4,710.9 549.6,738.2 
	638.5,615.1 549.7,765.4 529.3,745 508.9,724.6 447.7,724.6 386.5,724.6 "/>
<polygon fill="#FFFFFF" stroke="#16B34C" stroke-miterlimit="10" points="549.6,751.7 645.2,635.5 629.9,635.5 560.8,783.3 
	542.5,764.9 527.7,750.3 524.6,747.1 479.7,731.4 477.6,731.4 432.5,731.4 424.6,728.7 420.5,717.8 481.7,717.8 528.7,730.8 "/>
<polygon fill="#FFFFFF" stroke="#16B34C" stroke-miterlimit="10" points="454.5,724.6 508.9,724.6 611.3,615.1 652.1,655.8 
	638.5,655.8 604.5,621.9 508.9,738.3 468,738.3 "/>
<polygon fill="#FFFFFF" stroke="#16B34C" stroke-miterlimit="10" points="652.1,669.5 577.4,819.8 564.3,814.1 541.9,791.8 
	516,765.7 509.1,758.9 474.9,745.2 461.3,731.4 489.5,731.4 510.6,740 541.7,771.1 612,629.4 "/>
<polygon fill="#FFFFFF" stroke="#16B34C" stroke-miterlimit="10" points="563.2,833.5 590.4,833.5 542.9,785.9 495.2,738.3 
	468,738.3 515.6,785.9 "/>
<polygon fill="#FFFFFF" stroke="#16B34C" stroke-miterlimit="10" points="506,775.1 644.6,624.8 499.3,691.6 424.4,691.6 "/>
<polygon fill="#FFFFFF" stroke="#16B34C" stroke-miterlimit="10" points="448.7,716.7 575.4,716.7 503.6,644.8 380.7,644.8 "/>
<polygon fill="#FFFFFF" stroke="#16B34C" stroke-miterlimit="10" points="391.4,658.4 567.9,658.4 507.7,598.1 361.8,367.5 "/>
<polygon fill="#FFFFFF" stroke="#16B34C" stroke-miterlimit="10" points="358.9,369.2 560.3,599.9 511.8,551.3 318.1,320.7 "/>
<polygon fill="#FFFFFF" stroke="#16B34C" stroke-miterlimit="10" points="301.7,310.9 552.9,541.5 515.9,504.6 274.4,274 "/>
<polygon fill="#FFFFFF" stroke="#16B34C" stroke-miterlimit="10" points="244.4,252.5 545.3,483.1 520.1,457.8 230.8,227.2 "/>
<polygon fill="#FFFFFF" stroke="#16B34C" stroke-miterlimit="10" points="187.1,180.5 187.1,194.1 537.8,424.8 525.1,254.1 "/>
<polygon fill="#FFFFFF" stroke="#16B34C" stroke-miterlimit="10" points="201.2,208.9 530.9,439.5 518.4,425.8 200.2,195.2 "/>
<polygon fill="#FFFFFF" stroke="#16B34C" stroke-miterlimit="10" points="215.4,223.6 524,454.2 512.5,440.5 213.1,209.9 "/>
<polygon fill="#FFFFFF" stroke="#16B34C" stroke-miterlimit="10" points="229.5,238.3 517,468.9 506.7,455.3 226.2,224.6 "/>
<polygon fill="#FFFFFF" stroke="#16B34C" stroke-miterlimit="10" points="243.7,253 510,483.7 500.9,470 239.1,239.4 "/>
<polygon fill="#FFFFFF" stroke="#16B34C" stroke-miterlimit="10" points="257.8,267.8 503,498.4 495,484.7 252.1,254.1 "/>
<polygon fill="#FFFFFF" stroke="#16B34C" stroke-miterlimit="10" points="271.9,282.5 496.1,513.1 489.3,499.4 265.2,268.8 "/>
<polygon fill="#FFFFFF" stroke="#16B34C" stroke-miterlimit="10" points="286.1,297.2 489.1,527.8 483.5,514.2 278.1,283.5 "/>
<polygon fill="#FFFFFF" stroke="#16B34C" stroke-miterlimit="10" points="300.2,311.9 482.2,542.6 477.6,528.9 291.2,298.3 "/>
<polygon fill="#FFFFFF" stroke="#16B34C" stroke-miterlimit="10" points="314.4,326.6 475.3,557.3 471.8,543.6 304.1,313 "/>
<polygon fill="#FFFFFF" stroke="#16B34C" stroke-miterlimit="10" points="328.5,341.4 468.2,572 466,558.3 317.1,327.7 "/>
<polygon fill="#FFFFFF" stroke="#16B34C" stroke-miterlimit="10" points="342.7,356.1 461.3,586.7 460.1,573.1 330.1,342.4 "/>
<polygon fill="#FFFFFF" stroke="#16B34C" stroke-miterlimit="10" points="356.8,370.8 454.3,601.5 454.3,587.8 343.1,357.1 "/>
<polygon fill="#FFFFFF" stroke="#16B34C" stroke-miterlimit="10" points="454.3,574.2 454.3,594.6 350,364 329.5,343.6 "/>
<polygon fill="#FFFFFF" stroke="#16B34C" stroke-miterlimit="10" points="454.3,560.7 454.3,587.8 343.1,357.1 316.1,330 "/>
<polygon fill="#FFFFFF" stroke="#16B34C" stroke-miterlimit="10" points="447.6,543.6 447.6,567.4 316,336.7 295.7,313 "/>
<polygon fill="#FFFFFF" stroke="#16B34C" stroke-miterlimit="10" points="440.8,526.7 440.8,547 288.7,316.3 275.3,296 "/>
<polygon fill="#FFFFFF" stroke="#16B34C" stroke-miterlimit="10" points="434,509.6 434,526.7 261.6,296 254.9,279 "/>
<polygon fill="#FFFFFF" stroke="#16B34C" stroke-miterlimit="10" points="463.4,497.1 463.4,518.5 463.4,551.6 338.7,325.5 
	338.7,266.5 "/>
<polygon fill="#FFFFFF" stroke="#16B34C" stroke-miterlimit="10" points="499.7,501.8 499.7,539.6 499.7,596.8 418.2,606 
	418.2,501.8 "/>
<polygon fill="#FFFFFF" stroke="#16B34C" stroke-miterlimit="10" points="535.8,506.3 522.4,506.3 522.4,655.8 535.8,642.2 
	535.8,560.7 "/>
<polygon fill="#FFFFFF" stroke="#16B34C" stroke-miterlimit="10" points="522.3,517.1 522.3,566.1 522.3,639.4 508.8,650.4 
	508.8,517.1 "/>
<polygon fill="#FFFFFF" stroke="#16B34C" stroke-miterlimit="10" points="508.7,528 508.7,571.6 508.7,636.8 495.1,645 495.1,528 
	"/>
<polygon fill="#FFFFFF" stroke="#16B34C" stroke-miterlimit="10" points="495.1,538.9 495.1,577.1 495.1,634.1 481.6,639.5 
	481.6,538.9 "/>
<polygon fill="#FFFFFF" stroke="#16B34C" stroke-miterlimit="10" points="481.6,549.8 481.6,582.4 481.6,631.4 467.9,634.2 
	467.9,549.8 "/>
<rect x="454.3" y="560.7" fill="#FFFFFF" stroke="#16B34C" stroke-miterlimit="10" width="13.7" height="68"/>
<rect x="440.8" y="581.1" fill="#FFFFFF" stroke="#16B34C" stroke-miterlimit="10" width="20.4" height="40.9"/>
<rect x="427.2" y="601.5" fill="#FFFFFF" stroke="#16B34C" stroke-miterlimit="10" width="27.1" height="13.7"/>
<rect x="447.6" y="577.7" fill="#FFFFFF" stroke="#16B34C" stroke-miterlimit="10" width="23.8" height="57.8"/>
<rect x="467.9" y="553.8" fill="#FFFFFF" stroke="#16B34C" stroke-miterlimit="10" width="20.4" height="102"/>
<rect x="488.3" y="530" fill="#FFFFFF" stroke="#16B34C" stroke-miterlimit="10" width="17" height="146.2"/>
<rect x="508.7" y="506.3" fill="#FFFFFF" stroke="#16B34C" stroke-miterlimit="10" width="13.7" height="190.4"/>
<rect x="495.1" y="533.4" fill="#FFFFFF" stroke="#16B34C" stroke-miterlimit="10" width="13.7" height="156.3"/>
<rect x="481.6" y="560.7" fill="#FFFFFF" stroke="#16B34C" stroke-miterlimit="10" width="13.7" height="122.3"/>
<polygon fill="#FFFFFF" stroke="#16B34C" stroke-miterlimit="10" points="515.5,628.6 515.5,696.5 397.5,465.9 397.5,398 "/>
<polygon fill="#FFFFFF" stroke="#16B34C" stroke-miterlimit="10" points="535.8,696.6 535.8,710.3 288.7,479.7 288.7,466 "/>
<polygon fill="#FFFFFF" stroke="#16B34C" stroke-miterlimit="10" points="517.8,651.3 517.8,683.1 356.7,452.4 356.7,420.7 "/>
<rect x="400.1" y="606" fill="#FFFFFF" stroke="#16B34C" stroke-miterlimit="10" width="99.7" height="50"/>
<rect x="468" y="560.7" fill="#FFFFFF" stroke="#16B34C" stroke-miterlimit="10" width="13.7" height="68"/>
<polygon fill="#FFFFFF" stroke="#16B34C" stroke-miterlimit="10" points="495.1,553.8 495.1,635.4 481.6,642.3 481.6,553.8 "/>
<polygon fill="#FFFFFF" stroke="#16B34C" stroke-miterlimit="10" points="495.1,547 508.7,547 508.7,642.2 495.1,655.8 "/>
<polygon fill="#FFFFFF" stroke="#16B34C" stroke-miterlimit="10" points="540.9,524.2 540.9,592.3 384.2,601.5 384.2,524.2 "/>
<polygon fill="#FFFFFF" stroke="#16B34C" stroke-miterlimit="10" points="573,501.2 573,542.5 298.1,316.3 298.1,270.6 "/>
<polygon fill="#FFFFFF" stroke="#16B34C" stroke-miterlimit="10" points="659.6,342.4 605.1,492.6 187.1,262 187.1,247.8 "/>
<polygon fill="#FFFFFF" stroke="#16B34C" stroke-miterlimit="10" points="251.5,255 224.3,220.6 516.2,451.3 543.4,485.7 "/>
<polygon fill="#FFFFFF" stroke="#16B34C" stroke-miterlimit="10" points="315.9,248 261.4,193.5 427.2,424.1 481.7,478.6 "/>
</svg>
