<?xml version="1.0" encoding="utf-8"?>
<!-- Generator: Adobe Illustrator 17.1.0, SVG Export Plug-In . SVG Version: 6.00 Build 0)  -->
<!DOCTYPE svg PUBLIC "-//W3C//DTD SVG 1.1//EN" "http://www.w3.org/Graphics/SVG/1.1/DTD/svg11.dtd">
<svg version="1.1" id="Layer_1" xmlns="http://www.w3.org/2000/svg" xmlns:xlink="http://www.w3.org/1999/xlink" x="0px" y="0px"
	 viewBox="0 0 1000 1000" enable-background="new 0 0 1000 1000" xml:space="preserve">
<polygon fill="#FFFFFF" stroke="#16B34C" stroke-miterlimit="10" points="449,443 456.5,443 519.6,583.2 512.1,583.2 "/>
<polygon fill="#FFFFFF" stroke="#16B34C" stroke-miterlimit="10" points="459.5,440.8 467.3,440.8 530.4,579.6 522.6,579.6 "/>
<polygon fill="#FFFFFF" stroke="#16B34C" stroke-miterlimit="10" points="469.9,438.5 477.9,438.5 541,575.8 533,575.8 "/>
<polygon fill="#FFFFFF" stroke="#16B34C" stroke-miterlimit="10" points="480.4,436.3 488.6,436.3 551.7,572.2 543.5,572.2 "/>
<polygon fill="#FFFFFF" stroke="#16B34C" stroke-miterlimit="10" points="490.9,434.1 499.4,434.1 439,568.5 554,568.5 "/>
<polygon fill="#FFFFFF" stroke="#16B34C" stroke-miterlimit="10" points="501.4,431.8 510.1,431.8 449.8,564.8 441,564.8 "/>
<polygon fill="#FFFFFF" stroke="#16B34C" stroke-miterlimit="10" points="511.9,429.6 520.9,429.6 460.5,561.1 451.5,561.1 "/>
<polygon fill="#FFFFFF" stroke="#16B34C" stroke-miterlimit="10" points="522.4,427.3 531.6,427.3 471.2,557.4 462,557.4 "/>
<polygon fill="#FFFFFF" stroke="#16B34C" stroke-miterlimit="10" points="532.8,425.1 542.2,425.1 481.8,553.7 472.3,553.7 "/>
<polygon fill="#FFFFFF" stroke="#16B34C" stroke-miterlimit="10" points="543.2,422.9 676.5,422.9 616.1,550.1 482.8,550.1 "/>
<polygon fill="#FFFFFF" stroke="#16B34C" stroke-miterlimit="10" points="677.2,420.6 745.7,515 626.8,546.4 616.8,546.4 "/>
<polygon fill="#FFFFFF" stroke="#16B34C" stroke-miterlimit="10" points="746.1,512.8 756.3,512.8 637.4,542.7 627.2,542.7 "/>
<polygon fill="#FFFFFF" stroke="#16B34C" stroke-miterlimit="10" points="756.6,510.5 767.1,510.5 648.2,539 637.7,539 "/>
<polygon fill="#FFFFFF" stroke="#16B34C" stroke-miterlimit="10" points="767.1,508.3 777.9,508.3 659,535.3 648.2,535.3 "/>
<polygon fill="#FFFFFF" stroke="#16B34C" stroke-miterlimit="10" points="777.5,506.1 788.5,506.1 669.6,531.7 658.6,531.7 "/>
<polygon fill="#FFFFFF" stroke="#16B34C" stroke-miterlimit="10" points="788,503.8 799.2,503.8 680.3,527.9 669.1,527.9 "/>
<polygon fill="#FFFFFF" stroke="#16B34C" stroke-miterlimit="10" points="798.5,501.6 810,501.6 749.6,618.6 679.6,524.3 "/>
<polygon fill="#FFFFFF" stroke="#16B34C" stroke-miterlimit="10" points="808.9,499.3 820.7,499.3 760.3,614.8 748.5,614.8 "/>
<rect x="807.4" y="512.1" fill="#FFFFFF" stroke="#16B34C" stroke-miterlimit="10" width="12" height="93.5"/>
<rect x="795.4" y="527.2" fill="#FFFFFF" stroke="#16B34C" stroke-miterlimit="10" width="12" height="78.4"/>
<polygon fill="#FFFFFF" stroke="#16B34C" stroke-miterlimit="10" points="784.9,527.8 796.6,527.8 677.7,522.6 666,522.6 "/>
<polygon fill="#FFFFFF" stroke="#16B34C" stroke-miterlimit="10" points="774.3,528.4 785.8,528.4 666.9,528.2 655.4,528.2 "/>
<polygon fill="#FFFFFF" stroke="#16B34C" stroke-miterlimit="10" points="763.8,529 775,529 656.1,533.9 644.9,533.9 "/>
<polygon fill="#FFFFFF" stroke="#16B34C" stroke-miterlimit="10" points="753.2,529.6 764.1,529.6 645.2,539.5 634.3,539.5 "/>
<polygon fill="#FFFFFF" stroke="#16B34C" stroke-miterlimit="10" points="742.7,530.2 753.4,530.2 634.5,545.2 623.8,545.2 "/>
<polygon fill="#FFFFFF" stroke="#16B34C" stroke-miterlimit="10" points="673.6,436.4 742.5,530.8 623.6,550.8 613.2,550.8 "/>
<polygon fill="#FFFFFF" stroke="#16B34C" stroke-miterlimit="10" points="539.7,437 673.2,437 612.8,556.5 479.2,556.5 "/>
<polygon fill="#FFFFFF" stroke="#16B34C" stroke-miterlimit="10" points="529,437.6 539,437.6 478.5,562.1 468.6,562.1 "/>
<polygon fill="#FFFFFF" stroke="#16B34C" stroke-miterlimit="10" points="518.5,438.2 528.1,438.2 467.7,567.8 458.1,567.8 "/>
<polygon fill="#FFFFFF" stroke="#16B34C" stroke-miterlimit="10" points="507.9,438.8 517.4,438.8 457,573.4 447.5,573.4 "/>
<polygon fill="#FFFFFF" stroke="#16B34C" stroke-miterlimit="10" points="497.4,439.4 506.5,439.4 446.1,579.1 437,579.1 "/>
<polygon fill="#FFFFFF" stroke="#16B34C" stroke-miterlimit="10" points="486.9,440 495.6,440 435.2,584.7 549.9,584.7 "/>
<polygon fill="#FFFFFF" stroke="#16B34C" stroke-miterlimit="10" points="476.4,440.6 484.9,440.6 548,590.4 539.4,590.4 "/>
<polygon fill="#FFFFFF" stroke="#16B34C" stroke-miterlimit="10" points="465.7,441.2 474,441.2 537.1,596 528.8,596 "/>
<polygon fill="#FFFFFF" stroke="#16B34C" stroke-miterlimit="10" points="455.2,441.8 463.2,441.8 526.3,601.7 518.3,601.7 "/>
<polygon fill="#FFFFFF" stroke="#16B34C" stroke-miterlimit="10" points="444.6,442.4 452.4,442.4 515.5,607.3 507.7,607.3 "/>
<polygon fill="#FFFFFF" stroke="#16B34C" stroke-miterlimit="10" points="434.1,443 441.6,443 504.7,613 497.2,613 "/>
<polygon fill="#FFFFFF" stroke="#16B34C" stroke-miterlimit="10" points="442,442.8 449.4,443.1 512.5,608.7 505.1,608.7 "/>
<polygon fill="#FFFFFF" stroke="#16B34C" stroke-miterlimit="10" points="449.9,442.7 457.2,443.2 520.3,604.3 512.9,604.3 "/>
<polygon fill="#FFFFFF" stroke="#16B34C" stroke-miterlimit="10" points="457.7,442.5 465,443.3 528.1,599.9 520.8,599.9 "/>
<polygon fill="#FFFFFF" stroke="#16B34C" stroke-miterlimit="10" points="465.6,442.3 472.9,443.3 535.9,595.5 528.7,595.5 "/>
<polygon fill="#FFFFFF" stroke="#16B34C" stroke-miterlimit="10" points="473.5,442.1 480.6,443.4 543.7,591.2 536.6,591.2 "/>
<polygon fill="#FFFFFF" stroke="#16B34C" stroke-miterlimit="10" points="481.4,441.9 488.5,443.5 551.6,586.8 544.4,586.8 "/>
<polygon fill="#FFFFFF" stroke="#16B34C" stroke-miterlimit="10" points="489.2,441.7 496.4,443.6 436,582.4 552.3,582.4 "/>
<polygon fill="#FFFFFF" stroke="#16B34C" stroke-miterlimit="10" points="497.1,441.5 504.1,443.7 443.8,578.1 436.8,578.1 "/>
<polygon fill="#FFFFFF" stroke="#16B34C" stroke-miterlimit="10" points="505,441.3 511.9,443.8 451.5,573.7 444.6,573.7 "/>
<polygon fill="#FFFFFF" stroke="#16B34C" stroke-miterlimit="10" points="512.9,441.2 519.8,443.8 459.3,569.3 452.5,569.3 "/>
<polygon fill="#FFFFFF" stroke="#16B34C" stroke-miterlimit="10" points="520.8,441 527.5,443.9 467.1,565 460.3,565 "/>
<polygon fill="#FFFFFF" stroke="#16B34C" stroke-miterlimit="10" points="528.7,440.8 535.4,444 475,560.6 468.2,560.6 "/>
<polygon fill="#FFFFFF" stroke="#16B34C" stroke-miterlimit="10" points="536.5,440.6 543.2,444.1 482.8,556.2 476,556.2 "/>
<polygon fill="#FFFFFF" stroke="#16B34C" stroke-miterlimit="10" points="544.4,440.4 674.4,444.2 614,551.9 484,551.9 "/>
<polygon fill="#FFFFFF" stroke="#16B34C" stroke-miterlimit="10" points="675.7,440.2 740.7,538.6 621.8,547.5 615.3,547.5 "/>
<polygon fill="#FFFFFF" stroke="#16B34C" stroke-miterlimit="10" points="742.1,534.4 748.5,538.7 629.6,543.1 623.2,543.1 "/>
<polygon fill="#FFFFFF" stroke="#16B34C" stroke-miterlimit="10" points="749.9,534.2 756.4,538.8 637.5,538.7 631,538.7 "/>
<polygon fill="#FFFFFF" stroke="#16B34C" stroke-miterlimit="10" points="757.8,534.1 764.2,538.9 645.3,534.4 638.9,534.4 "/>
<polygon fill="#FFFFFF" stroke="#16B34C" stroke-miterlimit="10" points="765.7,533.9 772,539 653.1,530 646.8,530 "/>
<polygon fill="#FFFFFF" stroke="#16B34C" stroke-miterlimit="10" points="773.6,533.7 779.8,539 660.9,525.6 654.7,525.6 "/>
<polygon fill="#FFFFFF" stroke="#16B34C" stroke-miterlimit="10" points="781.4,533.5 787.6,539.1 668.7,521.3 662.5,521.3 "/>
<polygon fill="#FFFFFF" stroke="#16B34C" stroke-miterlimit="10" points="789.3,605.6 789.3,533.3 795.4,539.2 795.4,605.6 "/>
<polygon fill="#FFFFFF" stroke="#16B34C" stroke-miterlimit="10" points="789.3,569.5 789.3,509.2 795.4,515.1 795.4,572.4 "/>
<polygon fill="#FFFFFF" stroke="#16B34C" stroke-miterlimit="10" points="789.3,533.3 789.3,485.1 795.4,491 795.4,539.2 "/>
<polygon fill="#FFFFFF" stroke="#16B34C" stroke-miterlimit="10" points="792.4,530.2 792.4,491.1 801.4,500 801.4,533.2 "/>
<polygon fill="#FFFFFF" stroke="#16B34C" stroke-miterlimit="10" points="795.4,527.2 795.4,497.1 807.4,509.1 807.4,527.2 "/>
<polygon fill="#FFFFFF" stroke="#16B34C" stroke-miterlimit="10" points="801.4,515.2 810.4,521.2 810.4,566.4 801.4,566.4 "/>
<rect x="807.4" y="533.3" fill="#FFFFFF" stroke="#16B34C" stroke-miterlimit="10" width="6.1" height="72.3"/>
<polygon fill="#FFFFFF" stroke="#16B34C" stroke-miterlimit="10" points="814.6,538.8 817.6,538.8 820.7,538.8 820.7,575.9 
	760.3,618.7 757.2,618.7 754.2,618.7 814.6,575.9 "/>
<polygon fill="#FFFFFF" stroke="#16B34C" stroke-miterlimit="10" points="754.2,513.3 758.4,511 759.2,510.5 760.8,512.7 760.8,518 
	775.6,584.2 775.6,584.6 671.5,560.6 671.5,569.8 668.5,567.4 665.6,565.2 770.3,596.9 767.2,584.3 754.2,532.5 "/>
<polygon fill="#FFFFFF" stroke="#16B34C" stroke-miterlimit="10" points="649.3,390.3 653.9,387.2 654.8,386.6 656.1,389.6 
	656.1,395.6 675.8,469 675.8,469.3 635.1,547.2 635.1,557.5 632.2,554.3 629.4,551.4 670.9,482.9 666.7,469 649.3,411.7 "/>
<polygon fill="#FFFFFF" stroke="#16B34C" stroke-miterlimit="10" points="479.4,361.8 484.4,357.9 485.4,357.1 486.4,360.8 
	486.4,367.6 634.5,448.2 634.6,448.5 475.3,533.8 598.8,545.3 595.9,541.3 469.6,537.7 506.4,463.3 624.7,448.1 479.4,385.3 "/>
<polygon fill="#FFFFFF" stroke="#16B34C" stroke-miterlimit="10" points="433,333.2 438.4,328.6 439.5,327.6 440.2,332.1 
	440.2,339.6 469.7,427.3 469.9,427.7 439,520.4 439,533 436,528.3 433.5,523.9 465.4,443.7 459.1,427.2 433,358.8 "/>
<polygon fill="#FFFFFF" stroke="#16B34C" stroke-miterlimit="10" points="279.9,281.8 279.9,311.7 323,410.1 426.6,502.8 
	426.6,487.8 326.8,391.4 287.4,289.3 287.4,274.3 "/>
<polygon fill="#FFFFFF" stroke="#16B34C" stroke-miterlimit="10" points="294.8,294.9 355.2,311.6 430.4,519.6 430.4,474.8 
	326.8,378.3 326.8,404.5 "/>
<polygon fill="#FFFFFF" stroke="#16B34C" stroke-miterlimit="10" points="426.6,465.4 426.6,532.8 370.1,306 370.1,320.9 
	557.6,540.1 434.1,465.4 "/>
<polygon fill="#FFFFFF" stroke="#16B34C" stroke-miterlimit="10" points="428.5,485.9 428.5,534.5 360.8,319 360.8,315.3 
	428.5,530.8 428.5,482.3 "/>
<polygon fill="#FFFFFF" stroke="#16B34C" stroke-miterlimit="10" points="419.1,510.2 419.1,532.8 347.8,320.9 347.8,328.4 
	426.6,532.8 426.6,502.8 "/>
<polygon fill="#FFFFFF" stroke="#16B34C" stroke-miterlimit="10" points="419.1,521.5 397.5,483.5 279.9,334.1 279.9,330.3 
	340.9,481.7 422.9,510.3 "/>
<polygon fill="#FFFFFF" stroke="#16B34C" stroke-miterlimit="10" points="419.1,510.2 419.1,525.2 375.9,426.8 272.4,334.1 
	272.4,319.1 315.5,417.5 "/>
<polygon fill="#FFFFFF" stroke="#16B34C" stroke-miterlimit="10" points="279.8,319.1 290.1,423.4 290.3,426 300.8,527.2 300,534.7 
	419.7,538.4 285.9,435.1 285.9,434.1 275.5,332.2 275.9,328.3 "/>
<polygon fill="#FFFFFF" stroke="#16B34C" stroke-miterlimit="10" points="279.9,326.6 287.4,319.1 264.5,432.5 365.1,545.9 
	357.6,545.9 257,436.2 "/>
<polygon fill="#FFFFFF" stroke="#16B34C" stroke-miterlimit="10" points="291.1,322.8 268.2,438.1 368.9,553.3 361.4,553.3 
	260.8,441.9 283.6,330.3 "/>
<polygon fill="#FFFFFF" stroke="#16B34C" stroke-miterlimit="10" points="294.9,326.6 272,443.7 372.6,560.8 365.1,560.8 
	264.5,447.4 287.4,334.1 "/>
<polygon fill="#FFFFFF" stroke="#16B34C" stroke-miterlimit="10" points="302.3,319.1 279.6,438.9 279.3,440.6 380.6,558.2 
	377.3,560.8 368.9,560.8 267.9,447.4 268.5,444 290.3,334.5 294.2,327.2 "/>
<polygon fill="#FFFFFF" stroke="#16B34C" stroke-miterlimit="10" points="309.8,311.7 294.9,326.6 272,443.7 372.6,560.8 
	387.5,560.8 286.9,436.2 "/>
<polygon fill="#FFFFFF" stroke="#16B34C" stroke-miterlimit="10" points="309.5,319.1 302,336.8 301.1,346.1 306,453.1 306.3,456.4 
	434.6,568.3 442.1,561.2 443.5,545.3 315.1,439.8 314.8,432.7 "/>
<polygon fill="#FFFFFF" stroke="#16B34C" stroke-miterlimit="10" points="309.8,326.6 309.8,356.5 402.1,460.4 557.6,570 
	557.6,540.1 402.1,430.5 "/>
<polygon fill="#FFFFFF" stroke="#16B34C" stroke-miterlimit="10" points="370.1,335.8 286.9,447.5 497.2,586.9 557.6,555.1 "/>
<polygon fill="#FFFFFF" stroke="#16B34C" stroke-miterlimit="10" points="370.1,350.8 387.5,538.4 497.2,598.1 557.6,570 "/>
<polygon fill="#FFFFFF" stroke="#16B34C" stroke-miterlimit="10" points="486,598.1 486,635.5 387.5,560.8 286.9,447.5 "/>
<polygon fill="#FFFFFF" stroke="#16B34C" stroke-miterlimit="10" points="381.2,523.4 504.7,628 489.8,639.2 366.3,534.6 "/>
<polygon fill="#FFFFFF" stroke="#16B34C" stroke-miterlimit="10" points="441.6,443 449.1,443 512.2,613 504.7,613 "/>
<polygon fill="#FFFFFF" stroke="#16B34C" stroke-miterlimit="10" points="454.6,441.6 462.9,442.8 525.9,607.4 517.7,607.4 "/>
<polygon fill="#FFFFFF" stroke="#16B34C" stroke-miterlimit="10" points="467.6,440.2 476.4,442.5 539.5,601.7 530.7,601.7 "/>
<polygon fill="#FFFFFF" stroke="#16B34C" stroke-miterlimit="10" points="480.6,438.9 490.1,442.3 553.2,596.1 543.7,596.1 "/>
<polygon fill="#FFFFFF" stroke="#16B34C" stroke-miterlimit="10" points="493.6,437.5 503.7,442 443.3,590.5 556.7,590.5 "/>
<polygon fill="#FFFFFF" stroke="#16B34C" stroke-miterlimit="10" points="506.5,436.1 517.5,441.7 457,584.8 446.1,584.8 "/>
<polygon fill="#FFFFFF" stroke="#16B34C" stroke-miterlimit="10" points="519.5,434.7 531,441.5 470.6,579.2 459.1,579.2 "/>
<polygon fill="#FFFFFF" stroke="#16B34C" stroke-miterlimit="10" points="669,431.9 681.8,441 621.4,567.9 608.6,567.9 "/>
<polygon fill="#FFFFFF" stroke="#16B34C" stroke-miterlimit="10" points="682,430.5 753.9,535.1 635,562.3 621.6,562.3 "/>
<polygon fill="#FFFFFF" stroke="#16B34C" stroke-miterlimit="10" points="753.5,523.5 767.6,534.8 648.7,556.6 634.6,556.6 "/>
<polygon fill="#FFFFFF" stroke="#16B34C" stroke-miterlimit="10" points="766.5,522.1 781.2,534.6 662.3,551 647.6,551 "/>
<polygon fill="#FFFFFF" stroke="#16B34C" stroke-miterlimit="10" points="779.4,520.8 794.9,534.3 676,545.4 660.5,545.4 "/>
<polygon fill="#FFFFFF" stroke="#16B34C" stroke-miterlimit="10" points="792.4,519.4 808.5,534.1 748.1,634 673.5,539.7 "/>
<polygon fill="#FFFFFF" stroke="#16B34C" stroke-miterlimit="10" points="805.4,518 822.2,533.8 761.8,628.4 745,628.4 "/>
<polygon fill="#FFFFFF" stroke="#16B34C" stroke-miterlimit="10" points="385.1,553.4 445.9,588.8 445.9,588.9 506.6,624.3 
	506.6,629.9 490.8,615.2 475.4,601 467.8,594 459.2,586 443,571.1 426.8,558.9 416,558.9 391.1,558.9 "/>
<polygon fill="#FFFFFF" stroke="#16B34C" stroke-miterlimit="10" points="311.6,508.6 352.1,534.7 352.1,534.7 516.1,560.8 
	516.1,564.5 506.7,553.5 497.7,542.8 493.2,537.5 364.8,531.6 415.5,514.8 403,506.6 334.8,512.3 315.9,512.3 "/>
<polygon fill="#FFFFFF" stroke="#16B34C" stroke-miterlimit="10" points="421.9,458 442.2,474.8 442.2,474.8 462.4,491.5 
	462.4,493.5 459.6,486.1 457,478.9 455.6,475.4 454,471.4 451.1,464 442.3,459.9 437.2,459.9 424.7,459.9 "/>
<polygon fill="#FFFFFF" stroke="#16B34C" stroke-miterlimit="10" points="464.4,413.2 464.4,420.7 464.4,428.1 468.1,424.4 
	471.9,420.7 475.6,416.9 479.4,413.2 471.9,413.2 "/>
<polygon fill="#FFFFFF" stroke="#16B34C" stroke-miterlimit="10" points="448.4,383.3 455.9,381.8 463.4,380.4 460.4,387.7 
	458.1,393.1 457.4,394.7 454.4,402.4 453.4,405.2 450.9,406.2 448.4,407.2 448.4,395.3 "/>
<polygon fill="#FFFFFF" stroke="#16B34C" stroke-miterlimit="10" points="432.5,353.5 439.9,350.5 447.4,347.5 445.1,358.4 
	443.4,366.4 442.9,368.8 440.7,380.4 439.9,384.8 436.2,385.6 432.5,386.3 432.5,369.9 "/>
<polygon fill="#FFFFFF" stroke="#16B34C" stroke-miterlimit="10" points="449.4,443 486.9,443 436.9,323.6 339.1,329.3 "/>
<polygon fill="#FFFFFF" stroke="#16B34C" stroke-miterlimit="10" points="489.2,323.6 489.2,331.1 489.2,338.5 485.5,334.8 
	481.7,331.1 478,327.3 474.4,323.6 481.7,323.6 "/>
<polygon fill="#FFFFFF" stroke="#16B34C" stroke-miterlimit="10" points="766,537.4 670.1,443 436.9,323.6 474.4,323.6 "/>
<polygon fill="#FFFFFF" stroke="#16B34C" stroke-miterlimit="10" points="456.4,330.6 456.4,347.6 456.4,364.5 461.5,366.9 
	466.6,369.3 465.4,358.5 465.2,358.3 464,347.7 463.9,346.9 462.5,333.3 461.9,326.6 459.2,328.6 "/>
<polygon fill="#FFFFFF" stroke="#16B34C" stroke-miterlimit="10" points="457.6,367.9 457.6,383.5 457.6,399.1 463,401.1 
	468.4,403.1 466.9,393.4 466.7,393.2 465.2,383.6 465,382.9 463.4,370.7 462.5,364.7 460.1,366.3 "/>
<polygon fill="#FFFFFF" stroke="#16B34C" stroke-miterlimit="10" points="458.7,405.1 458.7,419.4 458.7,433.6 464.5,435.3 
	470.2,437 468.4,428.3 468.2,428.1 466.4,419.6 466.1,418.8 464.1,408.1 463.2,402.8 460.9,404 "/>
<polygon fill="#FFFFFF" stroke="#16B34C" stroke-miterlimit="10" points="459.9,442.4 459.9,455.3 459.9,468.1 465.9,469.5 
	472,470.8 469.9,463.2 469.7,463 467.5,455.5 467.4,454.8 464.9,445.5 463.9,440.9 461.9,441.7 "/>
<polygon fill="#FFFFFF" stroke="#16B34C" stroke-miterlimit="10" points="461,479.7 461,491.2 461,502.6 467.4,503.7 473.9,504.7 
	471.4,498.1 471.1,497.9 468.7,491.4 468.4,490.8 465.7,482.9 464.5,479.1 462.7,479.4 "/>
<polygon fill="#FFFFFF" stroke="#16B34C" stroke-miterlimit="10" points="401.8,522.7 401.8,532.9 525.2,543 532,543.7 538.8,544.4 
	535.9,538.8 535.7,538.6 409.5,533.2 409.2,532.7 406.1,526.2 404.8,523 403.2,522.9 "/>
<polygon fill="#FFFFFF" stroke="#16B34C" stroke-miterlimit="10" points="526.4,560.4 526.4,569.2 526.4,578 533.5,578.3 
	540.6,578.6 537.4,574.1 537.2,573.9 534.2,569.5 533.8,569.1 530.4,564 528.8,561.6 527.6,561 "/>
<polygon fill="#FFFFFF" stroke="#16B34C" stroke-miterlimit="10" points="542.4,612.9 538.7,609.2 535,605.5 531.2,601.8 
	527.5,598.1 527.5,605.5 527.5,612.9 535,612.9 "/>
<polygon fill="#FFFFFF" stroke="#16B34C" stroke-miterlimit="10" points="542.4,612.9 579.8,612.9 549.9,583.2 512.5,583.2 "/>
<polygon fill="#FFFFFF" stroke="#16B34C" stroke-miterlimit="10" points="531.2,598.1 564.9,598.1 579.8,639.1 546.2,639.1 "/>
<polygon fill="#FFFFFF" stroke="#16B34C" stroke-miterlimit="10" points="618.6,619.8 618.6,630.2 618.6,640.6 611.9,641.3 
	605.2,642.1 608.2,635.7 610.6,630.8 611.2,629.5 613.2,625.2 614.2,623.1 615.5,619.9 617.1,619.9 "/>
<polygon fill="#FFFFFF" stroke="#16B34C" stroke-miterlimit="10" points="617.2,612.9 620.9,609.2 624.7,605.5 628.4,601.8 
	632.1,598.1 632.1,605.5 632.1,612.9 624.7,612.9 "/>
<polygon fill="#FFFFFF" stroke="#16B34C" stroke-miterlimit="10" points="617.2,612.9 579.8,612.9 609.7,583.2 647.1,583.2 "/>
<polygon fill="#FFFFFF" stroke="#16B34C" stroke-miterlimit="10" points="594.8,598.1 628.4,598.1 613.5,639.1 579.8,639.1 "/>
<polygon fill="#FFFFFF" stroke="#16B34C" stroke-miterlimit="10" points="423.5,605.6 451.9,603.4 451.9,615 451.9,626.5 
	423.5,624.3 "/>
<polygon fill="#FFFFFF" stroke="#16B34C" stroke-miterlimit="10" points="399,590.7 430.4,589.2 430.4,598.2 430.4,607.1 399,605.6 
	"/>
<polygon fill="#FFFFFF" stroke="#16B34C" stroke-miterlimit="10" points="374.6,575.7 409,575 409,581.4 409,587.7 374.6,587 "/>
<rect x="350.1" y="560.8" fill="#FFFFFF" stroke="#16B34C" stroke-miterlimit="10" width="37.4" height="7.5"/>
<rect x="353.9" y="553.3" fill="#FFFFFF" stroke="#16B34C" stroke-miterlimit="10" width="22.4" height="11.2"/>
<rect x="357.6" y="545.9" fill="#FFFFFF" stroke="#16B34C" stroke-miterlimit="10" width="7.5" height="14.9"/>
<polygon fill="#FFFFFF" stroke="#16B34C" stroke-miterlimit="10" points="350.1,568.3 368.8,568.3 387.5,568.3 387.5,572 
	387.5,575.8 368.8,575.8 350.1,575.8 350.1,572 "/>
<polygon fill="#FFFFFF" stroke="#16B34C" stroke-miterlimit="10" points="398.1,589.8 414.9,587 414.9,594.4 414.9,601.9 
	398.1,601.9 381.3,601.9 381.3,595.4 381.7,592.1 "/>
<polygon fill="#FFFFFF" stroke="#16B34C" stroke-miterlimit="10" points="427.4,611.2 442.4,605.6 442.4,616.8 442.4,628.1 
	427.4,628.1 412.5,628.1 412.5,618.7 413.3,616 "/>
<rect x="564.4" y="543.6" fill="#FFFFFF" stroke="#16B34C" stroke-miterlimit="10" width="7.5" height="98.9"/>
<polygon fill="#FFFFFF" stroke="#16B34C" stroke-miterlimit="10" points="449.3,533.1 456.8,533.1 580.3,635.9 572.8,635.9 "/>
<polygon fill="#FFFFFF" stroke="#16B34C" stroke-miterlimit="10" points="457.8,522.6 465.2,522.6 588.7,629.4 581.2,629.4 "/>
<polygon fill="#FFFFFF" stroke="#16B34C" stroke-miterlimit="10" points="650,506.3 657.5,506.3 597.1,622.7 589.6,622.7 "/>
<polygon fill="#FFFFFF" stroke="#16B34C" stroke-miterlimit="10" points="658.4,495.8 665.9,495.8 605.5,616.2 598,616.2 "/>
<polygon fill="#FFFFFF" stroke="#16B34C" stroke-miterlimit="10" points="666.8,485.2 674.3,485.2 613.9,609.6 606.4,609.6 "/>
<polygon fill="#FFFFFF" stroke="#16B34C" stroke-miterlimit="10" points="675.2,474.7 741.2,569.1 622.3,603 614.8,603 "/>
<polygon fill="#FFFFFF" stroke="#16B34C" stroke-miterlimit="10" points="742.1,558.5 749.6,558.5 630.7,596.4 623.2,596.4 "/>
<polygon fill="#FFFFFF" stroke="#16B34C" stroke-miterlimit="10" points="750.5,548 758,548 639.1,589.8 631.6,589.8 "/>
<polygon fill="#FFFFFF" stroke="#16B34C" stroke-miterlimit="10" points="758.9,537.4 766.4,537.4 647.5,583.2 640,583.2 "/>
<polygon fill="#FFFFFF" stroke="#16B34C" stroke-miterlimit="10" points="766.4,537.4 770.1,537.4 773.9,537.4 655,523.4 655,598.1 
	651.2,598.1 647.5,598.1 647.5,523.4 "/>
<polygon fill="#FFFFFF" stroke="#16B34C" stroke-miterlimit="10" points="773.8,537.4 777.6,537.4 781.3,537.4 662.4,530.9 
	662.4,613 658.7,613 654.9,613 654.9,530.9 "/>
<polygon fill="#FFFFFF" stroke="#16B34C" stroke-miterlimit="10" points="763.8,530 765.7,530.8 767.6,531.6 767.6,549 776.3,588.5 
	776.5,589.9 666.2,538.9 666.2,560.8 657.4,551.4 655.5,551.4 767.6,589.7 767.6,544.9 "/>
<polygon fill="#FFFFFF" stroke="#16B34C" stroke-miterlimit="10" points="761.3,530 761.3,559.9 775.1,578.6 788.8,597.2 
	788.8,582.2 771.3,559.9 753.8,537.5 753.8,522.5 "/>
<polygon fill="#FFFFFF" stroke="#16B34C" stroke-miterlimit="10" points="767.6,541.2 771.3,543.4 771.3,556.2 775.3,570.7 
	780.1,586.8 783.2,597.5 792.2,607.4 679.4,525.5 681.1,529.1 681.1,542.1 666.8,525.3 775.6,603 771.3,578.5 771.3,550 "/>
<polygon fill="#FFFFFF" stroke="#16B34C" stroke-miterlimit="10" points="788.8,559.8 788.8,593.5 669.9,538.4 681.1,549.6 
	750.8,655.1 750.8,670 677.3,560.8 662.4,545.8 781.3,597.2 781.3,559.8 "/>
<polygon fill="#FFFFFF" stroke="#16B34C" stroke-miterlimit="10" points="767.6,567.3 772.7,569 776.6,584.9 778.3,592.8 
	781.9,607.1 665.4,528.2 673.9,537.5 673.9,537.5 740.8,640.8 743.3,651.4 677.4,538.3 670.4,531.4 666.2,533.8 666.2,534.4 
	666.2,534.5 777.6,602.6 776.3,599.5 767.6,574.7 "/>
<polygon fill="#FFFFFF" stroke="#16B34C" stroke-miterlimit="10" points="796.3,604.6 677.4,538.4 666.8,525.3 775.1,601 
	764.4,587.9 753.8,574.8 753.8,582.3 771.3,604.7 669.9,538.4 669.9,523.5 788.8,597.2 "/>
<polygon fill="#FFFFFF" stroke="#16B34C" stroke-miterlimit="10" points="761.3,571.1 771,583.6 776.4,590.5 781,596.4 672.1,520.6 
	672.1,520.6 677.4,534.7 674.3,519.2 788.1,602.4 785.7,606.7 785.7,606.6 664.5,522.3 770.6,594.2 769,592.2 761.3,576.6 "/>
<polygon fill="#FFFFFF" stroke="#16B34C" stroke-miterlimit="10" points="796.3,604.6 677.4,530.9 782.6,601 768.8,582.3 
	768.8,567.3 782.6,586 "/>
<polygon fill="#FFFFFF" stroke="#16B34C" stroke-miterlimit="10" points="778.8,589.7 659.9,538.4 642.4,519.8 761.3,567.3 "/>
<polygon fill="#FFFFFF" stroke="#16B34C" stroke-miterlimit="10" points="761.3,574.8 753.8,567.3 634.9,545.9 642.4,545.9 "/>
<polygon fill="#FFFFFF" stroke="#16B34C" stroke-miterlimit="10" points="750.1,571.1 631.2,553.3 638.7,553.3 757.6,578.6 "/>
<polygon fill="#FFFFFF" stroke="#16B34C" stroke-miterlimit="10" points="746.3,574.8 627.4,560.8 634.9,560.8 753.8,582.3 "/>
<polygon fill="#FFFFFF" stroke="#16B34C" stroke-miterlimit="10" points="746.3,574.8 627.4,560.8 663.6,605.6 663.6,527.2 "/>
<polygon fill="#FFFFFF" stroke="#16B34C" stroke-miterlimit="10" points="750.8,662.6 750.8,722.3 644.9,568.3 763.8,604.7 "/>
<polygon fill="#FFFFFF" stroke="#16B34C" stroke-miterlimit="10" points="750.8,670 750.8,699.9 662.4,575.7 662.4,545.8 "/>
<polygon fill="#FFFFFF" stroke="#16B34C" stroke-miterlimit="10" points="750.8,685 750.8,711.1 662.4,586.9 662.4,560.8 "/>
<polygon fill="#FFFFFF" stroke="#16B34C" stroke-miterlimit="10" points="750.8,699.9 750.8,722.3 662.4,598.1 662.4,575.7 "/>
<polygon fill="#FFFFFF" stroke="#16B34C" stroke-miterlimit="10" points="655,523.4 662.4,529 669.9,534.6 669.9,586.9 669.9,639.2 
	667.8,639 665.8,638.8 655,586.9 "/>
<polygon fill="#FFFFFF" stroke="#16B34C" stroke-miterlimit="10" points="766.4,537.4 770.1,537.4 773.9,537.4 655,530.9 655,613 
	651.2,613 647.5,613 647.5,530.9 "/>
<polygon fill="#FFFFFF" stroke="#16B34C" stroke-miterlimit="10" points="642.4,553.3 648.3,561.8 653.9,569.6 656.8,577 
	661.5,589.4 667.4,605.2 667.4,609.4 661.5,600.9 655.9,593.1 653,585.7 648.3,573.3 642.4,557.5 "/>
<polygon fill="#FFFFFF" stroke="#16B34C" stroke-miterlimit="10" points="634.9,545.9 638.7,545.9 642.4,545.9 642.4,553.4 
	642.4,560.8 638.7,560.8 634.9,560.8 634.9,553.4 "/>
<polygon fill="#FFFFFF" stroke="#16B34C" stroke-miterlimit="10" points="657.3,560.8 657.3,564 654.9,577.1 653.2,586.4 652,592.4 
	648,597.8 644.1,603.1 644.1,600 646.5,586.9 648.2,577.6 649.4,571.5 653.4,566.2 "/>
<polygon fill="#FFFFFF" stroke="#16B34C" stroke-miterlimit="10" points="599.1,548.3 596.6,557 600.3,590.1 601.2,598.7 605,632.9 
	607.8,634.2 610.7,635.5 610.7,628.7 608.7,604.4 607.3,587.4 606.8,581 605,557.6 602,553 "/>
<polygon fill="#FFFFFF" stroke="#16B34C" stroke-miterlimit="10" points="582.7,539.6 581.5,548.6 583.3,581.1 583.8,589.4 
	585.6,623 588.9,623.7 592.1,624.3 592.1,617.7 591.2,593.8 590.5,577.3 590.2,570.9 589.3,548 586,543.8 "/>
<polygon fill="#FFFFFF" stroke="#16B34C" stroke-miterlimit="10" points="573.6,583.2 573.6,560.8 573.6,538.4 446.5,534.7 
	442.8,530.9 566.3,572 566.3,613.1 570,613.1 573.6,613.1 "/>
<polygon fill="#FFFFFF" stroke="#16B34C" stroke-miterlimit="10" points="433.5,534.7 564.3,540.3 564.3,579.3 564.3,605.7 
	556.9,605.7 "/>
<polygon fill="#FFFFFF" stroke="#16B34C" stroke-miterlimit="10" points="547.6,538.4 555,542.1 555,575.4 555,598.2 547.6,598.2 
	"/>
<polygon fill="#FFFFFF" stroke="#16B34C" stroke-miterlimit="10" points="538.2,542.1 545.6,544 545.6,571.5 545.6,590.7 
	538.2,590.7 "/>
<rect x="528.8" y="545.8" fill="#FFFFFF" stroke="#16B34C" stroke-miterlimit="10" width="7.5" height="37.4"/>
<rect x="536.3" y="536.5" fill="#FFFFFF" stroke="#16B34C" stroke-miterlimit="10" width="7.5" height="54.2"/>
<polygon fill="#FFFFFF" stroke="#16B34C" stroke-miterlimit="10" points="420.3,527.2 427.8,527.2 551.3,598.2 543.8,598.2 "/>
<polygon fill="#FFFFFF" stroke="#16B34C" stroke-miterlimit="10" points="488.2,512.1 495.7,512.1 435.3,605.6 551.3,605.6 "/>
<polygon fill="#FFFFFF" stroke="#16B34C" stroke-miterlimit="10" points="495.7,502.8 503.2,502.8 442.8,613.1 435.3,613.1 "/>
<polygon fill="#FFFFFF" stroke="#16B34C" stroke-miterlimit="10" points="488.2,506.6 495.7,506.6 435.3,598.2 551.3,598.2 "/>
<polygon fill="#FFFFFF" stroke="#16B34C" stroke-miterlimit="10" points="480.7,510.3 488.2,510.3 551.3,583.2 543.8,583.2 "/>
<polygon fill="#FFFFFF" stroke="#16B34C" stroke-miterlimit="10" points="416.6,530.9 424.1,530.9 547.6,583.2 540.1,583.2 "/>
<rect x="536.3" y="545.8" fill="#FFFFFF" stroke="#16B34C" stroke-miterlimit="10" width="7.5" height="37.4"/>
<polygon fill="#FFFFFF" stroke="#16B34C" stroke-miterlimit="10" points="543.8,538.4 551.3,542.1 551.3,587 543.8,587 "/>
<polygon fill="#FFFFFF" stroke="#16B34C" stroke-miterlimit="10" points="427.8,530.9 558.8,538.4 558.8,590.7 551.3,590.7 "/>
<polygon fill="#FFFFFF" stroke="#16B34C" stroke-miterlimit="10" points="437,531.9 444.5,535.6 567.9,595.4 560.4,595.4 
	560.4,570.7 "/>
<polygon fill="#FFFFFF" stroke="#16B34C" stroke-miterlimit="10" points="446,532.8 453.5,532.8 577,600 569.5,600 569.5,573.6 "/>
<polygon fill="#FFFFFF" stroke="#16B34C" stroke-miterlimit="10" points="455.1,535.6 462.5,531.9 586,606.6 578.6,606.6 
	578.6,578.4 "/>
<polygon fill="#FFFFFF" stroke="#16B34C" stroke-miterlimit="10" points="587.7,613.1 595.1,613.1 471.6,530.9 587.7,538.4 
	587.7,583.2 "/>
<polygon fill="#FFFFFF" stroke="#16B34C" stroke-miterlimit="10" points="597,540.3 481,534.7 604.5,605.7 597,605.7 597,579.3 "/>
<polygon fill="#FFFFFF" stroke="#16B34C" stroke-miterlimit="10" points="606.4,542.1 613.8,538.4 613.8,598.2 606.4,598.2 
	606.4,575.4 "/>
<polygon fill="#FFFFFF" stroke="#16B34C" stroke-miterlimit="10" points="615.7,544 623.2,542.1 623.2,590.7 615.7,590.7 
	615.7,571.5 "/>
<rect x="625" y="545.8" fill="#FFFFFF" stroke="#16B34C" stroke-miterlimit="10" width="7.5" height="37.4"/>
<rect x="617.5" y="536.5" fill="#FFFFFF" stroke="#16B34C" stroke-miterlimit="10" width="7.5" height="54.2"/>
<polygon fill="#FFFFFF" stroke="#16B34C" stroke-miterlimit="10" points="486.6,527.2 494.1,527.2 617.6,598.2 610.1,598.2 "/>
<polygon fill="#FFFFFF" stroke="#16B34C" stroke-miterlimit="10" points="663,512.1 670.5,512.1 610.1,605.6 602.6,605.6 "/>
<polygon fill="#FFFFFF" stroke="#16B34C" stroke-miterlimit="10" points="655.5,502.8 663,502.8 602.6,613.1 595.1,613.1 "/>
<polygon fill="#FFFFFF" stroke="#16B34C" stroke-miterlimit="10" points="663,506.6 670.5,506.6 610.1,598.2 602.6,598.2 "/>
<polygon fill="#FFFFFF" stroke="#16B34C" stroke-miterlimit="10" points="670.4,510.3 677.9,510.3 617.5,583.2 610,583.2 "/>
<polygon fill="#FFFFFF" stroke="#16B34C" stroke-miterlimit="10" points="490.3,530.9 621.3,530.9 621.3,583.2 613.8,583.2 "/>
<rect x="617.5" y="545.8" fill="#FFFFFF" stroke="#16B34C" stroke-miterlimit="10" width="7.5" height="37.4"/>
<polygon fill="#FFFFFF" stroke="#16B34C" stroke-miterlimit="10" points="617.6,587 610.1,587 610.1,542.1 617.6,538.4 "/>
<polygon fill="#FFFFFF" stroke="#16B34C" stroke-miterlimit="10" points="610.1,590.7 602.6,590.7 602.6,538.4 486.6,530.9 "/>
<polygon fill="#FFFFFF" stroke="#16B34C" stroke-miterlimit="10" points="611.3,553.4 618.8,547.1 618.8,608.1 611.3,608.1 "/>
<polygon fill="#FFFFFF" stroke="#16B34C" stroke-miterlimit="10" points="620,568.3 627.5,563.3 627.5,625.6 620,625.6 "/>
<polygon fill="#FFFFFF" stroke="#16B34C" stroke-miterlimit="10" points="628.8,583.2 636.2,579.5 636.2,643 628.8,643 "/>
<rect x="744.7" y="671.2" fill="#FFFFFF" stroke="#16B34C" stroke-miterlimit="10" width="9" height="62.9"/>
<polygon fill="#FFFFFF" stroke="#16B34C" stroke-miterlimit="10" points="792,562.4 811,562.4 673.1,589 654.1,589 "/>
<polygon fill="#FFFFFF" stroke="#16B34C" stroke-miterlimit="10" points="754.9,543.1 772.9,543.1 631.2,591.5 613.2,591.5 "/>
<polygon fill="#FFFFFF" stroke="#16B34C" stroke-miterlimit="10" points="498.7,410.1 514.8,410.1 423.8,596.5 407.8,596.5 "/>
<polygon fill="#FFFFFF" stroke="#16B34C" stroke-miterlimit="10" points="461.6,390.8 476.6,390.8 505.4,599 490.4,599 "/>
<polygon fill="#FFFFFF" stroke="#16B34C" stroke-miterlimit="10" points="424.5,371.5 438.5,371.5 463.5,601.5 449.5,601.5 "/>
<polygon fill="#FFFFFF" stroke="#16B34C" stroke-miterlimit="10" points="327,357.8 340,357.8 421.5,604 408.5,604 "/>
<polygon fill="#FFFFFF" stroke="#16B34C" stroke-miterlimit="10" points="289.9,338.5 301.9,338.5 379.6,606.5 367.6,606.5 "/>
<polygon fill="#FFFFFF" stroke="#16B34C" stroke-miterlimit="10" points="262,308.8 274,308.8 251.1,482 239.1,482 "/>
</svg>
