<?xml version="1.0" encoding="utf-8"?>
<!-- Generator: Adobe Illustrator 17.1.0, SVG Export Plug-In . SVG Version: 6.00 Build 0)  -->
<!DOCTYPE svg PUBLIC "-//W3C//DTD SVG 1.1//EN" "http://www.w3.org/Graphics/SVG/1.1/DTD/svg11.dtd">
<svg version="1.1" id="Layer_1" xmlns="http://www.w3.org/2000/svg" xmlns:xlink="http://www.w3.org/1999/xlink" x="0px" y="0px"
	 viewBox="0 0 1000 1000" enable-background="new 0 0 1000 1000" xml:space="preserve">
<polygon fill="#FFFFFF" stroke="#16B34C" stroke-miterlimit="10" points="564.7,146.1 564.7,151.6 564.7,157.1 466.5,157.1 
	348.5,342.1 348.5,336.6 348.5,331.2 466.5,146.1 "/>
<polygon fill="#FFFFFF" stroke="#16B34C" stroke-miterlimit="10" points="538.6,181.1 537.7,186.4 536.9,191.6 509.1,196.5 
	472.3,203 462.1,203 449,205.2 341.9,390.2 342.3,385.4 342.7,380.7 430.1,188.8 450,186.7 506.1,181.1 "/>
<polygon fill="#FFFFFF" stroke="#16B34C" stroke-miterlimit="10" points="512.3,216.1 510.7,221.1 509,226.1 482,235.9 446.2,249 
	444.1,249 431.6,253.3 335.3,438.3 336.2,434.3 336.9,430.1 416,231.4 433.5,227.3 482.5,216.1 "/>
<polygon fill="#FFFFFF" stroke="#16B34C" stroke-miterlimit="10" points="486.2,251.2 483.7,255.8 481.1,260.6 455,275.2 
	420.3,294.9 426.1,294.9 414.1,301.5 328.7,486.5 329.9,483 331.2,479.7 401.9,274.1 417,268 458.9,251.2 "/>
<polygon fill="#FFFFFF" stroke="#16B34C" stroke-miterlimit="10" points="459.9,286.3 456.7,290.6 453.2,295.1 428,314.6 
	394.2,340.9 408.1,340.9 396.6,349.6 322.2,534.6 323.8,531.9 325.4,529.1 387.8,316.8 400.5,308.5 435.4,286.3 "/>
<polygon fill="#FFFFFF" stroke="#16B34C" stroke-miterlimit="10" points="359.3,582.7 315.6,582.7 353.7,544.6 411.8,321.3 
	433.8,321.3 401,354 348.3,571.8 390,386.8 "/>
<polygon fill="#FFFFFF" stroke="#16B34C" stroke-miterlimit="10" points="450,315.8 446.2,325.2 415.9,337.7 404.2,342.5 
	356.1,539.1 355.7,539.1 356.5,541.9 345.6,552.7 326,560.8 304.7,560.8 324.2,541.4 343.3,522.3 349.6,520 405.1,322.5 
	424.7,315.8 "/>
<polygon fill="#FFFFFF" stroke="#16B34C" stroke-miterlimit="10" points="466.4,321.3 417.3,321.3 348.3,506.3 331.9,522.7 
	315.6,539.1 293.8,539.1 315.7,517.3 337.5,495.4 411.9,310.4 466.4,310.4 "/>
<polygon fill="#FFFFFF" stroke="#16B34C" stroke-miterlimit="10" points="439.1,315.8 436,324.4 429.5,326.8 393.3,326.8 
	392.2,326.8 335.2,524.9 334.1,526 320.6,539.5 306.5,553.7 301,555.4 288.3,555.4 315.7,528.2 332.5,511.3 390,315.8 "/>
<polygon fill="#FFFFFF" stroke="#16B34C" stroke-miterlimit="10" points="401,332.3 348.3,517.3 321.1,544.6 293.8,571.8 
	282.9,571.8 315.7,539.1 348.3,506.3 411.8,321.3 "/>
<polygon fill="#FFFFFF" stroke="#16B34C" stroke-miterlimit="10" points="406.4,326.8 395.6,337.7 348.2,533.8 342.9,539.2 
	321.9,560.2 303.8,578.2 293.2,582.7 282.9,582.7 315,550.6 322,543.7 346.9,518.7 363.8,511.8 "/>
<polygon fill="#FFFFFF" stroke="#16B34C" stroke-miterlimit="10" points="401,332.3 359.3,517.3 321.1,555.5 282.9,593.7 
	304.8,593.7 342.9,555.5 "/>
<polygon fill="#FFFFFF" stroke="#16B34C" stroke-miterlimit="10" points="356,479.8 288.9,546.8 350.7,546.8 436,294.7 "/>
<polygon fill="#FFFFFF" stroke="#16B34C" stroke-miterlimit="10" points="352.6,442.3 295,499.9 416.5,314.9 471.1,257.2 "/>
<polygon fill="#FFFFFF" stroke="#16B34C" stroke-miterlimit="10" points="349.3,404.7 301,453.1 462.4,268 506.1,219.7 "/>
<polygon fill="#FFFFFF" stroke="#16B34C" stroke-miterlimit="10" points="346,367.2 307.1,406.2 508.4,221.1 541.2,182.1 "/>
<polygon fill="#FFFFFF" stroke="#16B34C" stroke-miterlimit="10" points="342.7,329.6 313,359.3 554.3,174.3 576.2,144.6 "/>
<polygon fill="#FFFFFF" stroke="#16B34C" stroke-miterlimit="10" points="339.4,292.2 319.1,312.4 600.3,127.4 611.2,107.1 "/>
<polygon fill="#FFFFFF" stroke="#16B34C" stroke-miterlimit="10" points="336.1,254.6 325.1,265.6 646.2,80.5 646.2,69.6 "/>
<polygon fill="#FFFFFF" stroke="#16B34C" stroke-miterlimit="10" points="340.7,266.4 330.7,277.4 634.9,92.4 635.8,81.4 "/>
<polygon fill="#FFFFFF" stroke="#16B34C" stroke-miterlimit="10" points="345.4,278.2 336.2,289.2 623.5,104.2 625.4,93.2 "/>
<polygon fill="#FFFFFF" stroke="#16B34C" stroke-miterlimit="10" points="350.1,290.1 341.8,301 612.2,116 614.9,105 "/>
<polygon fill="#FFFFFF" stroke="#16B34C" stroke-miterlimit="10" points="354.7,301.9 347.5,312.8 600.8,127.8 604.5,116.8 "/>
<polygon fill="#FFFFFF" stroke="#16B34C" stroke-miterlimit="10" points="359.5,313.7 353,324.7 589.5,139.6 594.1,128.6 "/>
<polygon fill="#FFFFFF" stroke="#16B34C" stroke-miterlimit="10" points="364.1,325.5 358.6,336.5 578.2,151.4 583.6,140.4 "/>
<polygon fill="#FFFFFF" stroke="#16B34C" stroke-miterlimit="10" points="388.6,152.3 364.2,348.3 566.8,163.2 573.2,152.3 "/>
<polygon fill="#FFFFFF" stroke="#16B34C" stroke-miterlimit="10" points="393.3,164.1 389.6,175 555.5,175 562.8,164.1 "/>
<polygon fill="#FFFFFF" stroke="#16B34C" stroke-miterlimit="10" points="398,175.9 395.3,186.9 544.1,186.9 552.4,175.9 "/>
<polygon fill="#FFFFFF" stroke="#16B34C" stroke-miterlimit="10" points="402.6,187.7 400.8,198.7 532.8,198.7 541.9,187.7 "/>
<polygon fill="#FFFFFF" stroke="#16B34C" stroke-miterlimit="10" points="407.3,199.5 406.4,210.5 521.4,210.5 531.6,199.5 "/>
<polygon fill="#FFFFFF" stroke="#16B34C" stroke-miterlimit="10" points="521.1,211.3 412,211.3 412,222.3 510.1,222.3 "/>
<polygon fill="#FFFFFF" stroke="#16B34C" stroke-miterlimit="10" points="531.9,200.5 515.6,216.8 412,216.8 412,200.5 "/>
<polygon fill="#FFFFFF" stroke="#16B34C" stroke-miterlimit="10" points="542.8,189.6 521.1,211.3 412,211.3 412,189.6 "/>
<polygon fill="#FFFFFF" stroke="#16B34C" stroke-miterlimit="10" points="559.1,176.1 542.9,195 417.4,195 417.4,176.1 "/>
<polygon fill="#FFFFFF" stroke="#16B34C" stroke-miterlimit="10" points="575.5,162.4 564.7,178.8 422.9,178.8 422.9,162.4 "/>
<polygon fill="#FFFFFF" stroke="#16B34C" stroke-miterlimit="10" points="591.9,148.7 586.5,162.4 428.3,162.4 428.3,148.7 "/>
<rect x="433.8" y="135.1" fill="#FFFFFF" stroke="#16B34C" stroke-miterlimit="10" width="174.5" height="11"/>
<polygon fill="#FFFFFF" stroke="#16B34C" stroke-miterlimit="10" points="524.6,138.8 524.6,186.1 404.7,182.4 404.7,155.9 
	404.7,138.8 "/>
<polygon fill="#FFFFFF" stroke="#16B34C" stroke-miterlimit="10" points="441,142.3 441,226 355.7,403.8 355.7,357.8 355.7,327.4 
	"/>
<polygon fill="#FFFFFF" stroke="#16B34C" stroke-miterlimit="10" points="326.7,374.7 326.7,440.1 337.5,451.1 337.5,331 326.7,331 
	"/>
<polygon fill="#FFFFFF" stroke="#16B34C" stroke-miterlimit="10" points="348.4,339.8 348.4,446.7 337.6,437.9 337.6,379.1 
	337.6,339.8 "/>
<polygon fill="#FFFFFF" stroke="#16B34C" stroke-miterlimit="10" points="359.4,348.5 359.4,442.4 348.5,435.8 348.5,383.5 
	348.5,348.5 "/>
<polygon fill="#FFFFFF" stroke="#16B34C" stroke-miterlimit="10" points="390.1,172.2 390.1,252.9 359.4,433.6 359.4,387.9 
	359.4,357.2 "/>
<polygon fill="#FFFFFF" stroke="#16B34C" stroke-miterlimit="10" points="401.1,180.9 401.1,248.6 390.1,246.4 390.1,207.2 
	390.1,180.9 "/>
<rect x="401" y="189.6" fill="#FFFFFF" stroke="#16B34C" stroke-miterlimit="10" width="11" height="54.6"/>
<rect x="406.5" y="206" fill="#FFFFFF" stroke="#16B34C" stroke-miterlimit="10" width="16.4" height="32.8"/>
<rect x="412" y="222.3" fill="#FFFFFF" stroke="#16B34C" stroke-miterlimit="10" width="21.8" height="11"/>
<rect x="398.3" y="203.2" fill="#FFFFFF" stroke="#16B34C" stroke-miterlimit="10" width="19.1" height="46.4"/>
<polygon fill="#FFFFFF" stroke="#16B34C" stroke-miterlimit="10" points="401,184.2 401,266 364.8,451.1 364.8,369.2 "/>
<rect x="351.2" y="350.1" fill="#FFFFFF" stroke="#16B34C" stroke-miterlimit="10" width="13.7" height="117.3"/>
<rect x="337.5" y="331" fill="#FFFFFF" stroke="#16B34C" stroke-miterlimit="10" width="11" height="152.7"/>
<rect x="348.3" y="352.8" fill="#FFFFFF" stroke="#16B34C" stroke-miterlimit="10" width="11" height="125.4"/>
<polygon fill="#FFFFFF" stroke="#16B34C" stroke-miterlimit="10" points="390,189.6 390,287.8 359.2,472.8 359.2,374.7 "/>
<polygon fill="#FFFFFF" stroke="#16B34C" stroke-miterlimit="10" points="477.4,244.2 477.4,298.7 342.9,483.7 342.9,429.2 "/>
<polygon fill="#FFFFFF" stroke="#16B34C" stroke-miterlimit="10" points="564.7,298.7 564.7,309.6 326.7,494.7 326.7,483.7 "/>
<polygon fill="#FFFFFF" stroke="#16B34C" stroke-miterlimit="10" points="510.1,262.3 510.1,287.8 341.1,472.8 341.1,447.4 "/>
<polygon fill="#FFFFFF" stroke="#16B34C" stroke-miterlimit="10" points="455.6,226 455.6,266.1 355.7,451.1 355.7,411.1 "/>
<rect x="390" y="189.6" fill="#FFFFFF" stroke="#16B34C" stroke-miterlimit="10" width="11" height="54.6"/>
<polygon fill="#FFFFFF" stroke="#16B34C" stroke-miterlimit="10" points="390.1,255.1 359.3,434.7 359.3,369.2 390.1,184.2 "/>
<polygon fill="#FFFFFF" stroke="#16B34C" stroke-miterlimit="10" points="359.4,451.1 348.5,440.1 348.5,363.7 359.4,363.7 "/>
<polygon fill="#FFFFFF" stroke="#16B34C" stroke-miterlimit="10" points="468.3,222.4 322.7,400.1 322.7,345.4 468.3,160.4 "/>
<polygon fill="#FFFFFF" stroke="#16B34C" stroke-miterlimit="10" points="557.2,178.8 296.9,360.2 296.9,327.1 557.2,142.1 "/>
<polygon fill="#FFFFFF" stroke="#16B34C" stroke-miterlimit="10" points="646.2,123.7 646.2,135.1 271.1,320.2 271.1,308.8 "/>
<polygon fill="#FFFFFF" stroke="#16B34C" stroke-miterlimit="10" points="320.6,314.4 342.5,286.9 616.4,101.9 594.5,129.4 "/>
<polygon fill="#FFFFFF" stroke="#16B34C" stroke-miterlimit="10" points="390,123.7 433.8,80.1 586.5,80.1 542.8,123.7 "/>
<polygon fill="#FFFFFF" stroke="#16B34C" stroke-miterlimit="10" points="610.9,107.5 591.8,127.3 572.6,147 493.6,147 414.4,147 
	433.6,127.3 452.7,107.5 531.8,107.5 "/>
<polygon fill="#FFFFFF" stroke="#16B34C" stroke-miterlimit="10" points="635.3,134.9 618.9,152.6 602.5,170.3 520.7,170.3 
	438.9,170.3 455.3,152.6 471.6,134.9 553.5,134.9 "/>
<polygon fill="#FFFFFF" stroke="#16B34C" stroke-miterlimit="10" points="659.6,162.2 646,177.9 632.4,193.6 547.8,193.6 
	463.3,193.6 477,177.9 490.6,162.2 575.1,162.2 "/>
<polygon fill="#FFFFFF" stroke="#16B34C" stroke-miterlimit="10" points="664.2,374.7 673.1,203.2 662.2,216.9 574.9,216.9 
	487.7,216.9 498.6,203.2 509.5,189.6 596.8,189.6 "/>
<polygon fill="#FFFFFF" stroke="#16B34C" stroke-miterlimit="10" points="688.6,402 680.4,413.6 672.2,425.2 602.1,240.2 
	512.1,240.2 520.2,228.5 528.4,217 618.5,217 "/>
<polygon fill="#FFFFFF" stroke="#16B34C" stroke-miterlimit="10" points="713,429.4 707.5,439 702,448.5 629.2,263.5 536.4,263.5 
	541.9,253.9 547.4,244.3 640.2,244.3 "/>
<polygon fill="#FFFFFF" stroke="#16B34C" stroke-miterlimit="10" points="737.4,456.8 734.7,464.3 731.9,471.8 656.4,286.8 
	560.9,286.8 563.6,279.3 566.4,271.7 661.8,271.7 "/>
<polygon fill="#FFFFFF" stroke="#16B34C" stroke-miterlimit="10" points="761.8,484.1 761.8,489.6 761.8,495.1 663.6,495.1 
	585.3,310.1 585.3,304.6 585.3,299.1 663.6,484.1 "/>
<polygon fill="#FFFFFF" stroke="#16B34C" stroke-miterlimit="10" points="768.4,436 768,440.9 767.5,445.6 700,452.4 680.1,454.5 
	644,275 611.5,275 612.3,269.8 613.2,264.6 640.9,259.7 677.7,253.2 668,438.2 681.1,436 "/>
<polygon fill="#FFFFFF" stroke="#16B34C" stroke-miterlimit="10" points="775,387.9 774.1,392 773.4,396.1 714.1,409.8 696.6,413.9 
	667.5,240 637.7,240 639.3,235 641.1,230.1 667.9,220.4 683.8,392.3 686,392.3 698.6,387.9 "/>
<polygon fill="#FFFFFF" stroke="#16B34C" stroke-miterlimit="10" points="781.5,339.8 780.4,343.2 779.1,346.6 728.3,367.1 
	713.2,373.3 671.3,390 663.9,204.9 666.3,200.4 668.9,195.6 675.1,366 709.9,346.3 704.1,346.3 716.1,339.8 "/>
<polygon fill="#FFFFFF" stroke="#16B34C" stroke-miterlimit="10" points="788.1,291.7 786.5,294.4 784.8,297.1 742.4,324.4 
	729.6,332.7 694.8,355 670.2,355 673.4,350.6 676.9,346.1 702.1,326.6 735.9,300.4 722,300.4 733.5,291.7 "/>
<polygon fill="#FFFFFF" stroke="#16B34C" stroke-miterlimit="10" points="805.6,265.3 786.1,284.8 766.9,304 760.7,306.3 725,318.7 
	705.4,325.4 680,325.4 684,316.1 714.2,303.6 725.9,298.7 754.1,287.3 754.6,287.3 753.8,284.5 764.7,273.6 784.2,265.3 "/>
<polygon fill="#FFFFFF" stroke="#16B34C" stroke-miterlimit="10" points="663.7,319.9 712.9,319.9 762,319.9 778.3,303.6 
	794.7,287.2 816.5,287.2 794.6,309 772.8,330.9 718.3,330.9 663.7,330.9 "/>
<polygon fill="#FFFFFF" stroke="#16B34C" stroke-miterlimit="10" points="821.9,270.8 794.6,298.2 777.8,315 740.1,325.4 691,325.4 
	694.1,316.8 700.5,314.4 736.8,314.4 737.8,314.4 775,301.4 776.1,300.4 789.6,286.8 803.8,272.7 809.2,270.8 "/>
<polygon fill="#FFFFFF" stroke="#16B34C" stroke-miterlimit="10" points="729.1,309 762,309 789.2,281.8 816.5,254.5 827.4,254.5 
	794.7,287.3 762,319.9 718.3,319.9 "/>
<polygon fill="#FFFFFF" stroke="#16B34C" stroke-miterlimit="10" points="827.4,243.6 795.3,275.6 788.3,282.6 763.4,307.5 
	746.4,314.4 723.7,314.4 734.5,303.6 762,292.5 767.4,287.1 788.4,266.1 806.5,248 817.1,243.6 "/>
<polygon fill="#FFFFFF" stroke="#16B34C" stroke-miterlimit="10" points="729.1,309 751,309 789.2,270.8 827.4,232.6 805.5,232.6 
	767.4,270.8 "/>
<polygon fill="#FFFFFF" stroke="#16B34C" stroke-miterlimit="10" points="754.3,346.4 821.4,279.4 759.6,279.4 694.1,346.4 "/>
<polygon fill="#FFFFFF" stroke="#16B34C" stroke-miterlimit="10" points="757.7,384 815.3,326.3 713.6,326.3 659.1,384 "/>
<polygon fill="#FFFFFF" stroke="#16B34C" stroke-miterlimit="10" points="760.9,421.4 809.3,373.1 667.7,373.1 644,236.4 "/>
<polygon fill="#FFFFFF" stroke="#16B34C" stroke-miterlimit="10" points="764.2,459 803.2,420 641.6,235 608.8,273.9 "/>
<polygon fill="#FFFFFF" stroke="#16B34C" stroke-miterlimit="10" points="767.5,496.5 797.2,466.8 595.7,281.8 573.8,311.4 "/>
<polygon fill="#FFFFFF" stroke="#16B34C" stroke-miterlimit="10" points="770.9,534 791.2,513.7 549.7,328.6 538.8,349 "/>
<polygon fill="#FFFFFF" stroke="#16B34C" stroke-miterlimit="10" points="774.2,571.5 785.2,560.5 503.8,375.5 503.8,386.4 "/>
<polygon fill="#FFFFFF" stroke="#16B34C" stroke-miterlimit="10" points="769.6,559.7 779.6,548.7 515.1,363.6 514.3,374.6 "/>
<polygon fill="#FFFFFF" stroke="#16B34C" stroke-miterlimit="10" points="764.8,547.9 774,536.9 526.5,351.8 524.6,362.8 "/>
<polygon fill="#FFFFFF" stroke="#16B34C" stroke-miterlimit="10" points="760.2,536 768.5,525.1 537.8,340 535.1,351 "/>
<polygon fill="#FFFFFF" stroke="#16B34C" stroke-miterlimit="10" points="755.5,524.2 762.8,513.3 549.2,328.2 545.5,339.2 "/>
<polygon fill="#FFFFFF" stroke="#16B34C" stroke-miterlimit="10" points="750.8,512.4 757.2,501.4 560.5,316.4 555.9,327.4 "/>
<polygon fill="#FFFFFF" stroke="#16B34C" stroke-miterlimit="10" points="746.2,500.6 751.7,489.6 571.8,304.6 566.4,315.5 "/>
<polygon fill="#FFFFFF" stroke="#16B34C" stroke-miterlimit="10" points="741.5,488.8 746.1,477.8 583.2,292.8 576.8,303.7 "/>
<polygon fill="#FFFFFF" stroke="#16B34C" stroke-miterlimit="10" points="736.8,477 740.5,466 594.5,280.9 587.2,291.9 "/>
<polygon fill="#FFFFFF" stroke="#16B34C" stroke-miterlimit="10" points="732.2,465.2 735,454.2 605.9,269.1 597.6,280.1 "/>
<polygon fill="#FFFFFF" stroke="#16B34C" stroke-miterlimit="10" points="727.5,453.3 729.3,442.4 617.2,257.3 608.1,268.3 "/>
<polygon fill="#FFFFFF" stroke="#16B34C" stroke-miterlimit="10" points="722.8,441.5 723.7,430.6 628.6,245.5 618.5,256.5 "/>
<polygon fill="#FFFFFF" stroke="#16B34C" stroke-miterlimit="10" points="628.9,244.7 718.2,429.7 718.2,418.7 639.9,233.7 "/>
<polygon fill="#FFFFFF" stroke="#16B34C" stroke-miterlimit="10" points="618,255.5 634.4,239.2 718.2,424.2 718.2,440.6 "/>
<polygon fill="#FFFFFF" stroke="#16B34C" stroke-miterlimit="10" points="607.2,266.4 628.9,244.7 718.2,429.7 718.2,451.5 "/>
<polygon fill="#FFFFFF" stroke="#16B34C" stroke-miterlimit="10" points="712.8,446.1 712.8,465.2 590.9,280.1 607.2,261 "/>
<polygon fill="#FFFFFF" stroke="#16B34C" stroke-miterlimit="10" points="707.3,462.5 707.3,478.8 574.5,293.8 585.3,277.4 "/>
<polygon fill="#FFFFFF" stroke="#16B34C" stroke-miterlimit="10" points="701.9,478.7 701.9,492.4 558.1,307.4 563.5,293.7 "/>
<polygon fill="#FFFFFF" stroke="#16B34C" stroke-miterlimit="10" points="696.4,495.1 696.4,506.1 541.8,321 541.8,310.1 "/>
<polygon fill="#FFFFFF" stroke="#16B34C" stroke-miterlimit="10" points="725.4,458.7 725.4,485.3 725.4,502.5 625.4,317.4 
	625.4,270.1 "/>
<polygon fill="#FFFFFF" stroke="#16B34C" stroke-miterlimit="10" points="754.5,422.5 754.5,468.4 754.5,498.7 689.1,498.7 
	689.1,415.1 "/>
<polygon fill="#FFFFFF" stroke="#16B34C" stroke-miterlimit="10" points="783.6,451.5 783.6,386.1 772.8,375.1 772.8,495.1 
	783.6,495.1 "/>
<polygon fill="#FFFFFF" stroke="#16B34C" stroke-miterlimit="10" points="772.7,388.3 772.7,447.1 772.7,486.4 761.9,486.4 
	761.9,379.5 "/>
<polygon fill="#FFFFFF" stroke="#16B34C" stroke-miterlimit="10" points="761.8,390.4 761.8,442.7 761.8,477.6 750.9,477.6 
	750.9,383.8 "/>
<polygon fill="#FFFFFF" stroke="#16B34C" stroke-miterlimit="10" points="750.9,392.6 750.9,438.3 750.9,469 740,469 740,388.2 "/>
<polygon fill="#FFFFFF" stroke="#16B34C" stroke-miterlimit="10" points="740,394.7 740,434 740,460.2 729.1,460.2 729.1,392.5 "/>
<rect x="718.2" y="396.9" fill="#FFFFFF" stroke="#16B34C" stroke-miterlimit="10" width="11" height="54.6"/>
<rect x="707.3" y="402.3" fill="#FFFFFF" stroke="#16B34C" stroke-miterlimit="10" width="16.4" height="32.8"/>
<rect x="696.4" y="407.8" fill="#FFFFFF" stroke="#16B34C" stroke-miterlimit="10" width="21.8" height="11"/>
<rect x="712.8" y="391.4" fill="#FFFFFF" stroke="#16B34C" stroke-miterlimit="10" width="19.1" height="46.4"/>
<rect x="729.1" y="375.1" fill="#FFFFFF" stroke="#16B34C" stroke-miterlimit="10" width="16.4" height="81.9"/>
<rect x="745.4" y="358.7" fill="#FFFFFF" stroke="#16B34C" stroke-miterlimit="10" width="13.7" height="117.3"/>
<rect x="761.8" y="342.4" fill="#FFFFFF" stroke="#16B34C" stroke-miterlimit="10" width="11" height="152.7"/>
<rect x="750.9" y="347.9" fill="#FFFFFF" stroke="#16B34C" stroke-miterlimit="10" width="11" height="125.5"/>
<rect x="740" y="353.3" fill="#FFFFFF" stroke="#16B34C" stroke-miterlimit="10" width="11" height="98.1"/>
<polygon fill="#FFFFFF" stroke="#16B34C" stroke-miterlimit="10" points="767.3,342.4 767.3,397 672.6,211.9 672.6,157.3 "/>
<polygon fill="#FFFFFF" stroke="#16B34C" stroke-miterlimit="10" points="783.6,331.4 783.6,342.4 585.3,157.3 585.3,146.4 "/>
<polygon fill="#FFFFFF" stroke="#16B34C" stroke-miterlimit="10" points="769,353.3 769,378.7 639.8,193.7 639.8,168.2 "/>
<rect x="674.6" y="375" fill="#FFFFFF" stroke="#16B34C" stroke-miterlimit="10" width="80" height="40.1"/>
<rect x="729.1" y="396.9" fill="#FFFFFF" stroke="#16B34C" stroke-miterlimit="10" width="11" height="54.6"/>
<polygon fill="#FFFFFF" stroke="#16B34C" stroke-miterlimit="10" points="750.9,391.5 750.9,457 740,457 740,386 "/>
<polygon fill="#FFFFFF" stroke="#16B34C" stroke-miterlimit="10" points="750.9,375.1 761.8,386.1 761.8,462.5 750.9,462.5 "/>
<polygon fill="#FFFFFF" stroke="#16B34C" stroke-miterlimit="10" points="787.6,426.1 787.6,480.8 661.9,480.8 661.9,418.7 "/>
<polygon fill="#FFFFFF" stroke="#16B34C" stroke-miterlimit="10" points="813.4,466.1 813.4,499.2 592.8,314.1 592.8,277.4 "/>
<polygon fill="#FFFFFF" stroke="#16B34C" stroke-miterlimit="10" points="839.2,506.1 839.2,517.5 503.8,332.4 503.8,321 "/>
<polygon fill="#FFFFFF" stroke="#16B34C" stroke-miterlimit="10" points="789.6,511.7 767.8,539.2 533.6,354.2 555.4,326.7 "/>
<polygon fill="#FFFFFF" stroke="#16B34C" stroke-miterlimit="10" points="740.1,517.3 696.4,561 563.4,376 607.1,332.3 "/>
<polygon fill="#FFFFFF" stroke="#16B34C" stroke-miterlimit="10" points="723.8,545.3 703.8,565.8 683.7,586.3 625.4,401.3 
	547.1,401.3 567.2,380.8 587.2,360.3 665.5,360.3 "/>
<polygon fill="#FFFFFF" stroke="#16B34C" stroke-miterlimit="10" points="707.5,573.3 689.3,592.5 671.2,611.6 611,426.6 
	530.9,426.6 549.1,407.4 567.3,388.3 647.3,388.3 "/>
<polygon fill="#FFFFFF" stroke="#16B34C" stroke-miterlimit="10" points="691.3,601.3 674.9,619.2 678.4,451.8 596.5,451.8 
	514.6,451.8 531,434.1 547.4,416.3 629.3,416.3 "/>
<polygon fill="#FFFFFF" stroke="#16B34C" stroke-miterlimit="10" points="675,629.4 660.4,645.8 665.7,477.1 582.1,477.1 
	498.4,477.1 512.9,460.8 527.5,444.4 611.2,444.4 "/>
<polygon fill="#FFFFFF" stroke="#16B34C" stroke-miterlimit="10" points="678.6,472.4 665.9,487.4 653.1,502.5 567.6,502.5 
	482.1,502.5 494.8,487.4 507.6,472.4 593.2,472.4 "/>
<polygon fill="#FFFFFF" stroke="#16B34C" stroke-miterlimit="10" points="662.3,500.4 651.4,514.1 640.5,527.8 553.2,527.8 
	465.9,527.8 476.8,514.1 487.7,500.4 575,500.4 "/>
<polygon fill="#FFFFFF" stroke="#16B34C" stroke-miterlimit="10" points="646.1,528.4 636.9,540.8 627.8,553.1 538.7,553.1 
	449.6,553.1 458.7,540.8 467.8,528.4 557,528.4 "/>
<polygon fill="#FFFFFF" stroke="#16B34C" stroke-miterlimit="10" points="629.8,556.5 622.5,567.4 615.3,578.4 524.3,578.4 
	433.3,578.4 440.7,567.4 447.9,556.5 538.9,556.5 "/>
<polygon fill="#FFFFFF" stroke="#16B34C" stroke-miterlimit="10" points="613.5,584.5 608.1,594.1 602.6,603.6 509.9,603.6 
	417.1,603.6 422.5,594.1 428,584.5 520.8,584.5 "/>
<polygon fill="#FFFFFF" stroke="#16B34C" stroke-miterlimit="10" points="597.3,612.6 593.6,620.8 589.9,628.9 495.4,628.9 
	400.8,628.9 404.5,620.8 408.1,612.6 502.7,612.6 "/>
<polygon fill="#FFFFFF" stroke="#16B34C" stroke-miterlimit="10" points="581,640.6 579.1,647.4 577.4,654.3 481,654.3 364.8,839.3 
	386.4,647.4 388.3,640.6 484.6,640.6 "/>
<polygon fill="#FFFFFF" stroke="#16B34C" stroke-miterlimit="10" points="564.7,668.6 564.7,674.1 564.7,679.6 466.5,679.6 
	348.5,864.6 348.5,859.1 348.5,853.7 466.5,668.6 "/>
<polygon fill="#FFFFFF" stroke="#16B34C" stroke-miterlimit="10" points="538.6,644.6 506.2,644.6 450.1,639.1 428.4,636.9 
	342.9,815.3 342.4,810.4 341.9,805.6 449,620.5 461.4,622.7 471.9,622.7 510.3,629.2 536.5,633.8 537.5,639.2 "/>
<polygon fill="#FFFFFF" stroke="#16B34C" stroke-miterlimit="10" points="512.3,609.5 482.6,609.5 433.7,598.5 414.7,594.3 
	337.3,766 336.3,761.7 335.3,757.5 431.6,572.4 443.6,576.7 446,576.7 482.9,589.8 508.3,599 510.4,604.2 "/>
<polygon fill="#FFFFFF" stroke="#16B34C" stroke-miterlimit="10" points="486.2,574.4 459,574.4 417.2,558 401,551.6 331.7,716.6 
	330.2,713 328.7,709.3 414.1,524.2 425.7,530.8 420.1,530.8 455.6,550.5 480.2,564.1 483.1,569.3 "/>
<polygon fill="#FFFFFF" stroke="#16B34C" stroke-miterlimit="10" points="459.9,539.4 435.4,539.4 400.8,517.4 387.3,508.9 
	326,667.3 324.1,664.2 322.2,661.2 396.6,476.1 407.9,484.8 394.1,484.8 428.3,511.1 452,529.3 455.9,534.3 "/>
<polygon fill="#FFFFFF" stroke="#16B34C" stroke-miterlimit="10" points="390,438.9 348.3,624 401,471.7 433.8,504.4 411.8,504.4 
	353.7,651.2 315.6,613.1 359.3,613.1 "/>
<polygon fill="#FFFFFF" stroke="#16B34C" stroke-miterlimit="10" points="450,509.9 424.3,509.9 405.1,503.1 349.8,675.8 
	343.5,673.7 324.1,654.3 304.7,634.8 326.1,634.8 345.6,643 356.4,653.9 355.2,656.7 355.7,656.7 404.5,483.4 416.1,488 
	446.1,500.4 "/>
<polygon fill="#FFFFFF" stroke="#16B34C" stroke-miterlimit="10" points="466.4,515.3 411.9,515.3 337.5,700.3 315.7,678.6 
	293.8,656.7 315.6,656.7 331.9,673.1 348.3,689.4 417.3,504.4 466.4,504.4 "/>
<polygon fill="#FFFFFF" stroke="#16B34C" stroke-miterlimit="10" points="439.1,509.9 390,509.9 332.5,684.5 315.7,667.6 
	288.3,640.3 300.6,640.3 306.7,642.4 321.4,657 333.2,668.9 335.7,671.4 391.6,498.9 393.4,498.9 429.5,498.9 435.9,501.1 "/>
<polygon fill="#FFFFFF" stroke="#16B34C" stroke-miterlimit="10" points="411.8,504.4 348.3,689.4 315.7,656.7 282.9,624 293.8,624 
	321.1,651.2 348.3,678.5 401,493.4 "/>
<polygon fill="#FFFFFF" stroke="#16B34C" stroke-miterlimit="10" points="406.4,498.9 363.8,684 347,677.1 322,652.1 315.1,645.1 
	282.9,613.1 293.4,613.1 303.8,617.6 321.8,635.5 342.7,656.5 348.1,661.9 395.4,487.9 "/>
<polygon fill="#FFFFFF" stroke="#16B34C" stroke-miterlimit="10" points="304.8,602.1 282.9,602.1 321.1,640.2 359.3,678.5 
	401,493.4 342.9,640.2 "/>
<polygon fill="#FFFFFF" stroke="#16B34C" stroke-miterlimit="10" points="350.7,648.9 288.9,648.9 356,716 436,531 "/>
<polygon fill="#FFFFFF" stroke="#16B34C" stroke-miterlimit="10" points="416.5,510.8 295,695.9 352.6,753.5 471.1,568.4 "/>
<polygon fill="#FFFFFF" stroke="#16B34C" stroke-miterlimit="10" points="462.4,557.6 301,742.7 349.3,791 506.1,606 "/>
<polygon fill="#FFFFFF" stroke="#16B34C" stroke-miterlimit="10" points="508.4,604.6 307.1,789.6 346,828.6 541.2,643.5 "/>
<polygon fill="#FFFFFF" stroke="#16B34C" stroke-miterlimit="10" points="554.3,651.4 313,836.4 342.7,866.1 576.2,681.1 "/>
<polygon fill="#FFFFFF" stroke="#16B34C" stroke-miterlimit="10" points="600.3,698.3 319.1,883.4 339.4,903.6 611.2,718.6 "/>
<polygon fill="#FFFFFF" stroke="#16B34C" stroke-miterlimit="10" points="646.2,756.1 646.2,745.1 325.1,930.2 336.1,941.2 "/>
<polygon fill="#FFFFFF" stroke="#16B34C" stroke-miterlimit="10" points="634.9,733.3 330.7,918.4 340.7,929.3 635.8,744.3 "/>
<polygon fill="#FFFFFF" stroke="#16B34C" stroke-miterlimit="10" points="623.5,721.5 336.2,906.6 345.4,917.5 625.4,732.5 "/>
<polygon fill="#FFFFFF" stroke="#16B34C" stroke-miterlimit="10" points="612.2,709.7 341.8,894.7 350.1,905.7 614.9,720.7 "/>
<polygon fill="#FFFFFF" stroke="#16B34C" stroke-miterlimit="10" points="600.8,697.9 347.5,882.9 354.7,893.9 604.5,708.9 "/>
<polygon fill="#FFFFFF" stroke="#16B34C" stroke-miterlimit="10" points="589.5,686.1 353,871.1 359.5,882.1 594.1,697 "/>
<polygon fill="#FFFFFF" stroke="#16B34C" stroke-miterlimit="10" points="578.2,674.3 358.6,859.3 364.1,870.3 583.6,685.2 "/>
<polygon fill="#FFFFFF" stroke="#16B34C" stroke-miterlimit="10" points="566.8,662.4 364.2,847.5 388.6,673.4 573.2,673.4 "/>
<polygon fill="#FFFFFF" stroke="#16B34C" stroke-miterlimit="10" points="555.5,650.6 389.6,650.6 393.3,661.6 562.8,661.6 "/>
<polygon fill="#FFFFFF" stroke="#16B34C" stroke-miterlimit="10" points="544.1,638.8 395.3,638.8 398,649.8 552.4,649.8 "/>
<polygon fill="#FFFFFF" stroke="#16B34C" stroke-miterlimit="10" points="532.8,627 400.8,627 402.6,638 541.9,638 "/>
<polygon fill="#FFFFFF" stroke="#16B34C" stroke-miterlimit="10" points="521.4,615.2 406.4,615.2 407.3,626.2 531.6,626.2 "/>
<polygon fill="#FFFFFF" stroke="#16B34C" stroke-miterlimit="10" points="510.1,603.4 412,603.4 412,614.3 521.1,614.3 "/>
<polygon fill="#FFFFFF" stroke="#16B34C" stroke-miterlimit="10" points="412,625.2 412,608.9 515.6,608.9 531.9,625.2 "/>
<polygon fill="#FFFFFF" stroke="#16B34C" stroke-miterlimit="10" points="412,636 412,614.3 521.1,614.3 542.8,636 "/>
<polygon fill="#FFFFFF" stroke="#16B34C" stroke-miterlimit="10" points="542.9,630.6 559.1,649.7 417.4,649.7 417.4,630.6 "/>
<polygon fill="#FFFFFF" stroke="#16B34C" stroke-miterlimit="10" points="564.7,646.9 575.5,663.3 422.9,663.3 422.9,646.9 "/>
<polygon fill="#FFFFFF" stroke="#16B34C" stroke-miterlimit="10" points="586.5,663.3 591.9,676.9 428.3,676.9 428.3,663.3 "/>
<rect x="433.8" y="679.6" fill="#FFFFFF" stroke="#16B34C" stroke-miterlimit="10" width="174.5" height="11"/>
<polygon fill="#FFFFFF" stroke="#16B34C" stroke-miterlimit="10" points="524.6,639.6 524.6,686.9 404.7,686.9 404.7,669.8 
	404.7,643.3 "/>
<polygon fill="#FFFFFF" stroke="#16B34C" stroke-miterlimit="10" points="441,599.7 441,683.4 355.7,868.4 355.7,838 355.7,792 "/>
<polygon fill="#FFFFFF" stroke="#16B34C" stroke-miterlimit="10" points="326.7,864.8 337.5,864.8 337.5,744.7 326.7,755.7 
	326.7,821.1 "/>
<polygon fill="#FFFFFF" stroke="#16B34C" stroke-miterlimit="10" points="348.4,749.1 348.4,856 337.6,856 337.6,816.7 337.6,757.9 
	"/>
<polygon fill="#FFFFFF" stroke="#16B34C" stroke-miterlimit="10" points="359.4,753.4 359.4,847.3 348.5,847.3 348.5,812.3 
	348.5,760 "/>
<polygon fill="#FFFFFF" stroke="#16B34C" stroke-miterlimit="10" points="390.1,572.7 390.1,653.5 359.4,838.5 359.4,807.9 
	359.4,762.2 "/>
<polygon fill="#FFFFFF" stroke="#16B34C" stroke-miterlimit="10" points="401.1,577 401.1,644.8 390.1,644.8 390.1,618.5 
	390.1,579.2 "/>
<rect x="401" y="581.4" fill="#FFFFFF" stroke="#16B34C" stroke-miterlimit="10" width="11" height="54.6"/>
<rect x="406.5" y="586.9" fill="#FFFFFF" stroke="#16B34C" stroke-miterlimit="10" width="16.4" height="32.8"/>
<rect x="412" y="592.4" fill="#FFFFFF" stroke="#16B34C" stroke-miterlimit="10" width="21.8" height="11"/>
<rect x="398.3" y="576" fill="#FFFFFF" stroke="#16B34C" stroke-miterlimit="10" width="19.1" height="46.4"/>
<polygon fill="#FFFFFF" stroke="#16B34C" stroke-miterlimit="10" points="401,559.7 401,641.5 364.8,826.6 364.8,744.7 "/>
<rect x="351.2" y="728.4" fill="#FFFFFF" stroke="#16B34C" stroke-miterlimit="10" width="13.7" height="117.3"/>
<rect x="337.5" y="712.1" fill="#FFFFFF" stroke="#16B34C" stroke-miterlimit="10" width="11" height="152.7"/>
<rect x="348.3" y="717.5" fill="#FFFFFF" stroke="#16B34C" stroke-miterlimit="10" width="11" height="125.4"/>
<polygon fill="#FFFFFF" stroke="#16B34C" stroke-miterlimit="10" points="390,538 390,636.1 359.2,821.2 359.2,723 "/>
<polygon fill="#FFFFFF" stroke="#16B34C" stroke-miterlimit="10" points="477.4,527 477.4,581.5 342.9,766.6 342.9,712.1 "/>
<polygon fill="#FFFFFF" stroke="#16B34C" stroke-miterlimit="10" points="564.7,516 564.7,527 326.7,712.1 326.7,701.1 "/>
<polygon fill="#FFFFFF" stroke="#16B34C" stroke-miterlimit="10" points="510.1,537.8 510.1,563.3 341.1,748.3 341.1,722.9 "/>
<polygon fill="#FFFFFF" stroke="#16B34C" stroke-miterlimit="10" points="455.6,559.7 455.6,599.7 355.7,784.8 355.7,744.7 "/>
<rect x="390" y="581.4" fill="#FFFFFF" stroke="#16B34C" stroke-miterlimit="10" width="11" height="54.6"/>
<polygon fill="#FFFFFF" stroke="#16B34C" stroke-miterlimit="10" points="390.1,641.5 359.3,826.6 359.3,761.1 390.1,570.5 "/>
<polygon fill="#FFFFFF" stroke="#16B34C" stroke-miterlimit="10" points="359.4,832.1 348.5,832.1 348.5,755.7 359.4,744.7 "/>
<polygon fill="#FFFFFF" stroke="#16B34C" stroke-miterlimit="10" points="468.3,665.3 322.7,850.4 322.7,795.7 468.3,603.3 "/>
<polygon fill="#FFFFFF" stroke="#16B34C" stroke-miterlimit="10" points="557.2,683.6 296.9,868.7 296.9,835.6 557.2,646.9 "/>
<polygon fill="#FFFFFF" stroke="#16B34C" stroke-miterlimit="10" points="646.2,690.5 646.2,701.9 271.1,887 271.1,875.6 "/>
<polygon fill="#FFFFFF" stroke="#16B34C" stroke-miterlimit="10" points="594.5,696.2 616.4,723.7 342.5,908.8 320.6,881.2 "/>
<polygon fill="#FFFFFF" stroke="#16B34C" stroke-miterlimit="10" points="542.8,701.9 586.5,745.6 433.8,745.6 390,701.9 "/>
<polygon fill="#FFFFFF" stroke="#16B34C" stroke-miterlimit="10" points="572.6,678.6 591.8,698.4 610.9,718.2 531.8,718.2 
	452.7,718.2 433.6,698.4 414.4,678.6 493.6,678.6 "/>
<polygon fill="#FFFFFF" stroke="#16B34C" stroke-miterlimit="10" points="602.5,655.4 618.9,673.1 635.3,690.8 553.5,690.8 
	471.6,690.8 455.3,673.1 438.9,655.4 520.7,655.4 "/>
<polygon fill="#FFFFFF" stroke="#16B34C" stroke-miterlimit="10" points="632.4,632.1 646,647.8 659.6,663.5 575.1,663.5 
	490.6,663.5 477,647.8 463.3,632.1 547.8,632.1 "/>
<polygon fill="#FFFFFF" stroke="#16B34C" stroke-miterlimit="10" points="662.2,608.8 673.1,622.4 664.2,821.1 596.8,636 509.5,636 
	498.6,622.4 487.7,608.8 574.9,608.8 "/>
<polygon fill="#FFFFFF" stroke="#16B34C" stroke-miterlimit="10" points="672.2,770.5 680.4,782.2 688.6,793.7 618.5,608.7 
	528.4,608.7 520.2,597.1 512.1,585.5 602.1,585.5 "/>
<polygon fill="#FFFFFF" stroke="#16B34C" stroke-miterlimit="10" points="696.4,689.7 696.4,700.7 541.8,515.6 541.8,504.6 "/>
</svg>
