<?xml version="1.0" encoding="utf-8"?>
<!-- Generator: Adobe Illustrator 17.1.0, SVG Export Plug-In . SVG Version: 6.00 Build 0)  -->
<!DOCTYPE svg PUBLIC "-//W3C//DTD SVG 1.1//EN" "http://www.w3.org/Graphics/SVG/1.1/DTD/svg11.dtd">
<svg version="1.1" id="Layer_1" xmlns="http://www.w3.org/2000/svg" xmlns:xlink="http://www.w3.org/1999/xlink" x="0px" y="0px"
	 viewBox="0 0 1000 1000" enable-background="new 0 0 1000 1000" xml:space="preserve">
<path fill="#FFFFFF" stroke="#231F20" stroke-width="4" stroke-linecap="round" stroke-linejoin="round" stroke-miterlimit="10" d="
	M676.8,799.6H393.9V175h282.8V799.6z M712.1,139.6L676.8,175v624.6l35.4-35.4V139.6z M676.8,175l35.4-35.4H429.3L393.9,175H676.8z"
	/>
<path fill="#FFFFFF" stroke="#231F20" stroke-width="4" stroke-linecap="round" stroke-linejoin="round" stroke-miterlimit="10" d="
	M620.3,862.5H337.5V237.9h282.8V862.5z M655.7,202.5l-35.4,35.4v624.6l35.4-35.4V202.5z M620.3,237.9l35.4-35.4H372.9l-35.4,35.4
	H620.3z"/>
<path fill="#FFFFFF" stroke="#231F20" stroke-width="4" stroke-linecap="round" stroke-linejoin="round" stroke-miterlimit="10" d="
	M475,800v62.5H162.9V800H475z M127.5,764.6l35.4,35.4H475l-35.4-35.4H127.5z M162.9,800l-35.4-35.4v62.5l35.4,35.4V800z"/>
<path fill="#FFFFFF" stroke="#231F20" stroke-width="4" stroke-linecap="round" stroke-linejoin="round" stroke-miterlimit="10" d="
	M475,712.7v62.5H162.9v-62.5H475z M127.5,677.3l35.4,35.4H475l-35.4-35.4H127.5z M162.9,712.7l-35.4-35.4v62.5l35.4,35.4V712.7z"/>
<path fill="#FFFFFF" stroke="#231F20" stroke-width="4" stroke-linecap="round" stroke-linejoin="round" stroke-miterlimit="10" d="
	M475,625.2v62.5H162.9v-62.5H475z M127.5,589.8l35.4,35.4H475l-35.4-35.4H127.5z M162.9,625.2l-35.4-35.4v62.5l35.4,35.4V625.2z"/>
<path fill="#FFFFFF" stroke="#231F20" stroke-width="4" stroke-linecap="round" stroke-linejoin="round" stroke-miterlimit="10" d="
	M400,625h-62.5V312.9H400V625z M435.4,277.5L400,312.9V625l35.4-35.4V277.5z M400,312.9l35.4-35.4h-62.5l-35.4,35.4H400z"/>
<path fill="#FFFFFF" stroke="#231F20" stroke-width="4" stroke-linecap="round" stroke-linejoin="round" stroke-miterlimit="10" d="
	M537.5,687.5H475V375.4h62.5V687.5z M572.9,340l-35.4,35.4v312.1l35.4-35.4V340z M537.5,375.4l35.4-35.4h-62.5L475,375.4H537.5z"/>
<path fill="#FFFFFF" stroke="#231F20" stroke-width="4" stroke-linecap="round" stroke-linejoin="round" stroke-miterlimit="10" d="
	M400,400v-62.5h312.1V400H400z M747.5,435.4L712.1,400H400l35.4,35.4H747.5z M712.1,400l35.4,35.4v-62.5l-35.4-35.4V400z"/>
<path fill="#FFFFFF" stroke="#231F20" stroke-width="4" stroke-linecap="round" stroke-linejoin="round" stroke-miterlimit="10" d="
	M537.5,862.5H475V550.4h62.5V862.5z M572.9,515l-35.4,35.4v312.1l35.4-35.4V515z M537.5,550.4l35.4-35.4h-62.5L475,550.4H537.5z"/>
<path fill="#FFFFFF" stroke="#231F20" stroke-width="4" stroke-linecap="round" stroke-linejoin="round" stroke-miterlimit="10" d="
	M537.5,435H475V122.9h62.5V435z M572.9,87.5l-35.4,35.4V435l35.4-35.4V87.5z M537.5,122.9l35.4-35.4h-62.5L475,122.9H537.5z"/>
<path fill="#FFFFFF" stroke="#231F20" stroke-width="4" stroke-linecap="round" stroke-linejoin="round" stroke-miterlimit="10" d="
	M677.1,862.5h-62.5V550.4h62.5V862.5z M712.5,515l-35.4,35.4v312.1l35.4-35.4V515z M677.1,550.4l35.4-35.4H650l-35.4,35.4H677.1z"/>
<path fill="#FFFFFF" stroke="#231F20" stroke-width="4" stroke-linecap="round" stroke-linejoin="round" stroke-miterlimit="10" d="
	M775,825h-62.5V512.9H775V825z M810.4,477.5L775,512.9V825l35.4-35.4V477.5z M775,512.9l35.4-35.4h-62.5l-35.4,35.4H775z"/>
<path fill="#FFFFFF" stroke="#231F20" stroke-width="4" stroke-linecap="round" stroke-linejoin="round" stroke-miterlimit="10" d="
	M775,487.5h-62.5V175.4H775V487.5z M810.4,140L775,175.4v312.1l35.4-35.4V140z M775,175.4l35.4-35.4h-62.5l-35.4,35.4H775z"/>
</svg>
