<?xml version="1.0" encoding="utf-8"?>
<!-- Generator: Adobe Illustrator 17.1.0, SVG Export Plug-In . SVG Version: 6.00 Build 0)  -->
<!DOCTYPE svg PUBLIC "-//W3C//DTD SVG 1.1//EN" "http://www.w3.org/Graphics/SVG/1.1/DTD/svg11.dtd">
<svg version="1.1" id="Layer_1" xmlns="http://www.w3.org/2000/svg" xmlns:xlink="http://www.w3.org/1999/xlink" x="0px" y="0px"
	 viewBox="400 400 200 200" enable-background="new 400 400 200 200" xml:space="preserve">
<path fill="#FFFFFF" d="M462,529.3c-0.5,0-0.8,0.1-0.9,0.7c-0.1,0.7,0.2,1.1,0.8,1.4c0.5,0.3,0.9,0.1,1.3-0.3
	c0.6-0.7,0.7-1.5,0.1-2.1c-0.2-0.2-0.7-0.2-1.1-0.3C462.2,528.6,462.1,529,462,529.3L462,529.3z"/>
<path fill="#FFFFFF" d="M461.3,525.7c0.1-0.1,0.3-0.1,0.5-0.2c-0.5-1.9-1.1-3.9-1.7-5.9c-0.5-1.8-1.4-3.5-1.7-5.4
	c-0.6-3.4-0.2-6.9,0.5-10.2c0.4-1.9,1.5-3.4,3.7-3.7c1.1-0.1,2.4-0.4,3.2-1.1c1.1-1,1.9-2.3,2.6-3.6c0.7-1.3,1-2.7,1.6-4
	c0.1-0.4,0.5-0.7,0.9-0.9c1.3-0.6,2.7-0.4,3.9,0.2c1.9,1,3.2,2.6,4.1,4.5c0.9,1.8,1.5,3.9,1.9,5.9c0.5,2.5,0.9,5,1.1,7.6
	c0.2,2.4,0.2,4.9,0.2,7.4c0,1.6-0.2,3.3-0.3,5c0,2.4,0.3,4.8,1.7,6.9c0.8,1.3,2.1,1.5,3.2,0.5c0.7-0.7,1.3-1.5,1.9-2.2
	c0.4-0.5,0.2-0.9-0.2-1.5c-0.2,0.3-0.4,0.6-0.6,0.8c-0.5,0.8-1.1,1.5-1.6,2.2c-0.4,0.4-0.8,0.4-1.4,0.2c-0.9-0.4-1.2-1.2-1.5-1.9
	c-1-2.5-1-5.1-0.9-7.7c0.1-3,0.4-6.1,0.1-9.1c-0.3-3.6-0.6-7.2-1.7-10.7c-0.7-2.2-1.5-4.3-2.9-6.1c-1.4-1.7-3.1-3-5.3-3.2
	c-1.6-0.1-3,0.3-3.7,1.8c-0.6,1.3-1,2.6-1.5,3.8c-0.7,1.7-1.5,3.3-3.5,3.9c-0.6,0.1-1.2,0.3-1.7,0.4c-1.9,0.4-3.2,1.6-3.9,3.4
	c-0.9,2.7-1,5.5-1.1,8.3c0,2,0.1,3.9,0.8,5.7c0.9,2.5,2,5,2.4,7.7C460.8,525,461.1,525.3,461.3,525.7z"/>
<path fill="#FFFFFF" d="M444.2,478c0.1-1.7,0.1-3.7,1.3-5.5c1.1-1.7,1.7-1.9,3.7-1.5c0.9,0.2,1.8,0.2,2.7,0.2c0.5,0,1.2-0.1,1.5-0.4
	c1-1.2,2-2.4,2.9-3.7c0.6-0.8,0.9-1.8,1.4-2.7c0.4-0.9,1.5-1.5,2.4-1.5c2.4,0,3.6,2.2,3.2,4.2c-0.1,0.6-0.2,1.2-0.3,1.8
	c-0.2,1.2,0.2,1.9,1.4,2.3c1.4,0.5,2.5,0,3.7-0.7c0.2-0.1,0.2-0.5,0.4-0.7c-0.3,0-0.6-0.1-0.8,0c-0.5,0.1-1.1,0.4-1.6,0.6
	c-1.4,0.3-2.3-0.5-2.1-1.7c0.1-0.4,0.2-0.8,0.2-1.2c0.3-1.7-0.2-4.5-2.4-5.1c-1.5-0.4-3.4-0.1-4.2,1c-0.7,1.1-1.3,2.3-1.9,3.4
	c-0.3,0.6-0.6,1.2-1.1,1.7c-0.4,0.6-1,1.2-1.6,1.6c-0.3,0.2-0.7,0.4-1.1,0.4c-1.3,0-2.5-0.2-3.7-0.3c-1-0.1-2,0-2.6,0.9
	c-0.7,1.1-1.4,2.3-1.7,3.5c-0.8,3.2-0.6,6.4,0.2,9.6c0.8,3.1,2.5,5.8,4,8.6c1,1.7,1.2,3.7,1.3,5.6c0.1,2-0.3,4-1,6
	c-0.3,1.2-1.1,2.1-2.1,2.8c-1.4,0.9-2.6,0.5-3.4-0.6c-0.1-0.2-0.5-0.2-0.9-0.3c-0.1,0-0.3,0.2-0.3,0.3c0,0.2,0.1,0.5,0.3,0.7
	c0.5,0.3,1,0.7,1.6,1c0.8,0.5,1.6,0.5,2.4,0.1c1-0.6,2.1-1.1,2.5-2.2c0.5-1.4,1.1-2.7,1.3-4.1c0.3-1.8,0.3-3.7,0.2-5.6
	c-0.1-2.4-1.5-4.4-2.6-6.4C445.4,486.1,444.2,482.4,444.2,478z"/>
<path fill="#FFFFFF" d="M486.2,519.6c0.1-0.4,0.4-0.8,0.4-1.2c0.1-1.4,0.2-2.8,0.1-4.2c-0.2-2.3-0.5-4.6-0.8-6.9
	c-0.4-3.3-0.7-6.7-1.1-10.1c-0.2-1.6-0.2-3.1,1-4.3c0.7-0.7,1.5-1.4,2.2-2.2c0.8-0.8,1.8-1.6,2.1-2.7c0.6-1.7,0.6-3.5,0.3-5.3
	c-0.3-1.8-0.9-3.5-1.9-5c-1.4-2.1-2.6-4.4-4.2-6.4c-1.6-2.1-3.1-4.2-3.4-6.9c-0.2-1.4,0.2-2.3,1.5-2.7c0.7-0.2,1.5-0.2,2.2-0.1
	c1.8,0.3,3.6,0.7,5.4,1c0.3,0,0.7-0.2,1-0.3c-0.2-0.2-0.5-0.5-0.7-0.7c-0.2-0.1-0.5-0.1-0.7-0.2c-1.7-0.3-3.4-0.5-5-0.8
	c-1-0.2-1.8-0.1-2.7,0.2c-1.2,0.5-1.9,1.4-1.9,2.8c0,2.6,1,4.8,2.6,6.9c1.6,2.2,3.3,4.5,4.8,6.8c1.8,2.8,2.6,5.8,2.2,9.1
	c-0.1,1.1-0.5,2-1.4,2.7c-0.7,0.6-1.5,1.2-2.1,1.8c-1.3,1.2-2.3,2.6-2.3,4.4c0,1.9,0.1,3.9,0.3,5.8c0.5,4.1,1.1,8.1,1.5,12.3
	c0.1,1.6,0,3.1,0,4.7C485.8,518.7,485.5,519.2,486.2,519.6z"/>
<path fill="#FFFFFF" d="M451.3,529.3c-0.4,0.6-0.4,0.8,0.6,1.1c2.1,0.7,3.8,1.7,4.9,3.7c0.6,1.1,1.2,2.2,1.8,3.2
	c1.1,1.9,2.2,3.8,4.2,5c0.8,0.5,1.7,1.2,2.6,1.4c1.6,0.3,3.8-1.4,4.5-3.2c0.7-1.6,1-3.3,1-5.1c0-1.7,0-3.4-0.5-5.1
	c-0.7-2.6-1.6-5.1-2.5-7.7c-1-3.1-1.2-6.2-0.8-9.4c0.1-0.9,0.5-1.1,1.3-0.6c1.1,0.8,1.8,1.9,1.9,3.2c0.1,0.7,0.3,1.4,0.4,2
	c0.1,0.7,0.6,1,1.3,0.9c1.5-0.1,2.4-1.1,3.1-2.2c0.9-1.4,0.6-2.9,0.5-4.4c0-0.1-0.2-0.2-0.3-0.4c-0.1,0.1-0.3,0.2-0.3,0.4
	c0,0.5-0.1,1-0.1,1.5c0.2,1.6-0.4,2.8-1.6,3.6c-0.4,0.3-1,0.6-1.4,0.5c-0.3-0.1-0.5-0.8-0.6-1.3c0-2-0.7-3.6-2.4-4.8
	c-0.4-0.3-1.2-0.3-1.7-0.3c-0.7,0-0.8,0.6-0.8,1.2c0,1.7-0.1,3.4-0.1,5.1c0,2.3,0.7,4.4,1.5,6.5c0.7,2,1.6,4.1,2,6.2
	c0.6,2.6,0.6,5.2,0,7.8c-0.3,1.7-1.3,3-2.7,4c-0.7,0.5-1.6,0.5-2.3,0c-1.1-0.7-2.4-1.4-3.2-2.4c-1.3-1.6-2.4-3.5-3.4-5.3
	c-1-1.7-2.1-3.3-3.8-4.3C453.3,530,452.3,529.7,451.3,529.3z"/>
<path fill="#FFFFFF" d="M502.9,508.1c0.6,0.5,1.2,0.8,1.4,1.3c0.9,1.7,1.9,3.3,2.4,5.2c0.7,2.6,1,5.3,1.5,7.9c0.5,3,0.9,6,1.3,9
	c0.2,1.4,0.2,2.8,0.2,4.2c0,0.3-0.3,0.8-0.5,0.8c-0.3,0-0.8-0.1-1-0.3c-0.7-0.6-1.4-1.3-1.6-2.2c0-0.2-0.3-0.3-0.5-0.4
	c-0.1,0.2-0.2,0.4-0.3,0.6c0,0.1,0,0.3,0,0.5c0.4,1.4,1.6,2.1,2.7,2.7c1.1,0.5,2-0.1,2.2-1.3c0.1-0.8,0.1-1.6,0-2.3
	c-0.5-3.8-1-7.7-1.6-11.5c-0.6-3.5-0.7-7.1-2.3-10.3c-0.6-1.3-1.4-2.6-2.3-3.7c-0.7-1-2-0.9-2.4,0c-0.4,1-0.7,2-0.8,3
	c-0.1,1.6,0,3.2,0,4.8c0.1,1.9,0.4,3.8,1.4,5.6c0.5,1,1.1,1.2,2,0.4c0.7-0.6,1.2-3.2,0.7-4.1c0-0.1-0.2-0.2-0.4-0.2
	s-0.3,0.1-0.3,0.3c-0.1,0.4-0.1,0.9-0.2,1.3c0,0.5,0,1.1-0.1,1.6c0,0.2-0.2,0.5-0.4,0.5c-0.2,0-0.5-0.2-0.6-0.3
	c-0.2-0.5-0.5-1-0.6-1.6c-0.7-3.1-0.8-6.1-0.6-9.2C502.2,509.6,502.6,509,502.9,508.1z"/>
<path fill="#FFFFFF" d="M553.7,476.1c0.1,0,0.2,0.1,0.3,0.1c0.1-0.1,0.3-0.2,0.5-0.4c0.8-1,1.7-2,2.3-3.1c1.3-2.2,2.4-4.6,3.5-6.8
	c0.6-1.2,1.5-2.2,2.8-2.5c1.1-0.2,2.2-0.2,3.4-0.2c1.6,0,3.2-0.2,4.1-1.8c0.6-1,1.1-2.1,1.6-3.2c0.3-0.7,0.7-0.9,1.4-0.7
	c1,0.3,1.7,0.8,2.4,1.6c1.6,2.2,2.9,4.5,3.7,7.1c0.1,0.3,0.3,0.6,0.3,0.9c-0.2,1.6-0.2,3.4-1.6,4.7c0.5,0.9,0.9,0.9,1.3,0
	c0.4-0.9,0.8-1.8,1.1-2.8c0.3-1.2,0.5-2.5-0.1-3.7c-0.7-1.4-1.1-3-1.9-4.3c-1.2-1.8-1.9-4.1-4.5-4.7c-1.4-0.3-2-0.3-2.7,1
	c-0.4,0.8-0.7,1.7-1.1,2.6c-0.7,1.5-1.8,2.3-3.5,2.1c-1.2-0.1-2.4-0.2-3.5,0c-1.7,0.4-2.9,1.6-3.7,3.2c-0.4,0.8-0.8,1.6-1.1,2.5
	c-1.1,2.6-2.7,4.9-4.3,7.1C553.9,475.4,553.8,475.8,553.7,476.1z"/>
<path fill="#FFFFFF" d="M437.1,503.6c0-2.8,0.3-4.2,1.3-5.2c0.1-0.2,0.6-0.3,0.8-0.2c0.5,0.2,1,0.5,1.4,0.9c0.7,0.7,1.4,1.5,2.1,2.2
	c1.4,1.5,2.8,1.4,3.6-0.2c0.1-0.2,0-0.5,0-0.7c-0.2,0-0.5,0-0.6,0.2c-1.1,1.2-1.2,1.2-2.3,0c-0.2-0.2-0.3-0.4-0.5-0.6
	c-0.9-0.8-1.8-1.7-2.9-2.5c-1-0.7-1.8-0.5-2.4,0.5c-0.6,1.1-1,2.3-1.2,3.5c-0.4,3.3,0.5,6.6,1.2,9.8c0.4,2,0.7,4.1,0.5,6.1
	c-0.2,2.1-1.1,3.9-3,5c-0.8,0.4-1.5,1-2.2,1.5c-1.2,0.8-2.1,1.9-2.3,3.4c-0.3,2.2-0.1,4.3,1.2,6.2c0.8,1.1,1.6,2,2.4,3
	c0.1,0.1,0.5,0.1,0.8,0.1c0-0.2,0-0.5-0.2-0.7c-0.3-0.4-0.8-0.9-1.2-1.3c-1.6-1.8-2.6-3.8-2.3-6.3c0.1-1.3,0.4-2.5,1.6-3.2
	c0.9-0.6,1.8-1.3,2.7-1.9c2.2-1.5,3.2-3.6,3.4-6.1c0.2-2.8-0.3-5.5-1-8.2C437.6,506.8,437.3,504.9,437.1,503.6z"/>
<path fill="#FFFFFF" d="M423.4,529.3c0,0,0.1-0.1,0.2-0.1c0.3-1,0.5-1.9,0.9-2.9c0.5-1.1,1.3-2.1,1.7-3.2c0.9-1.8,1.6-3.6,1.6-5.7
	c-0.1-4-1.1-7.8-2.5-11.4c-1.1-2.8-2.4-5.5-3.7-8.2c-1.2-2.4-1.8-5-1.8-7.7c0-0.7,0.2-1.4,0.3-2c0.1-0.5,0.5-0.7,0.9-0.5
	c0.6,0.2,1.2,0.7,1.8,1c0.3,0.1,0.6,0.2,0.9,0.3c0-0.3,0-0.8-0.1-1.1c-0.6-0.9-1.6-1.2-2.6-1.4c-0.9-0.1-1.4,0.3-1.6,1.2
	c-0.4,1.3-0.2,2.7-0.2,4c0.1,3.1,1.4,5.8,2.6,8.5c0.7,1.7,1.7,3.4,2.4,5.1c0.8,2.2,1.6,4.4,2.1,6.7c0.4,1.9,0.7,3.9,0.7,5.8
	c0.1,2.4-1.1,4.5-2.2,6.6c-0.6,1.1-1.6,2.1-1.6,3.5C423.2,528.4,423.3,528.8,423.4,529.3z"/>
<path fill="#FFFFFF" d="M528.4,535c0.2,0.3,0.5,0.5,0.6,0.7c0.3,0.9,0.7,1.7,0.8,2.6c0.2,1.3,0.1,2.5-0.5,3.6c-0.3,0.7-1,1-1.4,0.6
	c-0.8-0.8-1.6-1.5-2.2-2.4c-1.1-1.8-1.9-3.8-2.8-5.7c-0.6-1.3-1.1-2.7-2.4-3.5c-1.1-0.6-2.2-1.1-3.2-1.8c-0.7-0.5-1.4-1.2-1.7-2
	c-0.6-1.5-1-3.2-1.6-4.7c0-0.2-0.3-0.3-0.5-0.5c-0.1,0.2-0.3,0.4-0.3,0.7c0.1,2,0.8,3.9,1.7,5.6c0.4,0.8,1.3,1.4,2.1,1.9
	c1,0.7,2.2,1.2,3.2,1.9c0.5,0.4,0.9,1,1.2,1.6c1.2,2.3,2.2,4.7,3.5,6.9c0.6,1.1,1.7,1.9,2.7,2.8c0.5,0.4,1.1,0.3,1.7,0
	c1-0.6,1.3-1.6,1.6-2.7c0.4-2,0-3.8-0.9-5.6c-0.3-0.6-0.8-1-1.6-0.9c-0.3,0-0.9,0.3-0.9,0.6c-0.2,0.8-0.2,1.7-0.2,2.5
	c0,0.1,0.1,0.4,0.2,0.5c0.3,0.1,0.6,0.1,1,0.2c0-0.2,0-0.5-0.1-0.8C528.1,536.6,527.9,535.9,528.4,535z"/>
<path fill="#FFFFFF" d="M481.5,539.3c-0.2-2-0.2-4.1-0.6-6.1c-0.5-2.1-1.2-4.2-2-6.2c-0.6-1.4-1.6-2.6-3.1-3.3
	c-0.2-0.1-0.7,0-0.9,0.1c-1.1,0.8-1.6,2-1.4,3.3c0.3,1.7,1,3.2,2.2,4.5c1,1,1.7,2.1,1.6,3.6c-0.1,1.4-0.3,2.8-0.5,4.1
	c-0.5,2.3,0,4.2,1.6,5.8c0.9,0.9,1.7,0.7,2-0.5C480.8,542.9,481.1,541.1,481.5,539.3z"/>
<path fill="#FFFFFF" d="M551.6,517.1c-0.5-0.6-1-0.6-1.4-0.1c-0.9,1.3-1.9,3.3-0.8,5.2c0.7,1.3,2,1.6,3.2,0.7
	c0.4-0.3,0.7-0.6,1.1-0.9c1.3-1.1,2.7-1.6,4.4-1.4c0.4,0.1,0.8,0.1,1.3,0.1c1.1,0,2.2,0.1,3.2-0.8c1.6-1.6,2.3-3.4,2.1-5.7
	c-0.2-1.7-1.4-3-3.1-2.8c-1.3,0.1-2.5,0.5-3.7,0.9c-1.4,0.5-2.9,0.9-3.8,2.2C553.2,515.5,552.4,516.2,551.6,517.1z"/>
<path fill="#FFFFFF" d="M445.4,528.3c0-0.9-0.1-1.7-0.1-2.7c0-2.7-0.8-5.1-2-7.5c-0.2-0.4-1-0.6-1.5-0.7c-0.6-0.1-0.8,0.4-0.9,1
	c-0.2,1.2-0.5,2.4-0.8,3.6c-0.5,1.9-1.1,3.8-2.4,5.4c-0.9,1-1.8,2.1-1.5,3.6c0.2,1.1,0.7,2.1,1.1,3.1c0.4,1,1.9,1.6,2.9,1.4
	C443.5,534.8,445.6,531.3,445.4,528.3z"/>
<path fill="#FFFFFF" d="M535.8,462.9c-0.2,0.4-0.5,0.7-0.6,1.2c-0.6,2.3-0.6,4.6,0,6.9c0.6,2.6,1.7,4.8,3.9,6.4
	c1.1,0.8,2.7,0.7,3.6-0.3c0.9-0.9,0.9-2,0.7-3.1c-0.1-1.1-0.5-2.1-0.7-3.2c-0.3-1.6-0.8-3.1-1.7-4.4c-0.8-1.1-1.6-2.2-2.4-3.2
	c-0.7-0.9-1.8-1.4-2.6-1c-0.2,0.1-0.4,0.2-0.4,0.4C535.5,462.6,535.7,462.8,535.8,462.9z"/>
<path fill="#FFFFFF" d="M437.4,485.8c-0.1,0-0.1,0-0.2,0c0.2,1.8,0.5,3.6,0.7,5.4c0,0.4,0.2,0.9,0.5,1.2c0.8,0.9,1.6,1.6,2.5,2.5
	c0.5,0.5,1,0.9,1.7,0.7c0.8-0.2,1.3-0.9,1.2-1.7c-0.1-1.1-0.3-2.3-0.7-3.3c-0.4-1.2-1.2-2.3-1.6-3.5c-0.7-1.7-0.9-3.6-0.8-5.5
	c0-0.9-0.9-2.1-1.5-2.2c-1.1,0-1.1,0.9-1.2,1.6C437.6,482.4,436.9,484,437.4,485.8z"/>
<path fill="#FFFFFF" d="M437.8,474.4c-0.1-0.1-0.3-0.4-0.4-0.4c-0.2,0-0.7,0.1-0.8,0.3c-0.7,1.5-1.5,2.9-2,4.4
	c-1,2.7-0.7,5.6-0.8,8.5c-0.1,2.7,0,5.3,0,7.9c0,2.5-0.8,4.8-1.9,6.9c-0.8,1.5-1.4,3.1-2,4.6c-0.1,0.2,0,0.5,0,0.8
	c0.2-0.1,0.6-0.2,0.7-0.4c1.5-2.8,2.8-5.6,3.6-8.6c1-3.5,0.6-7.2,0.6-10.8c0-2.8,0.1-5.5,0.5-8.2c0.3-1.6,0.8-3.3,2.1-4.5
	C437.6,474.8,437.7,474.7,437.8,474.4z"/>
<path fill="#FFFFFF" d="M454.6,483.9c-1-0.3-0.9,0.6-1.2,1c-1,1.4-0.9,2.8-0.5,4.3c0.2,0.7,0.5,1.5,1,2c1.7,1.8,2.6,3.8,2,6.4
	c-0.2,1,0.4,1.8,1.4,2c1.7,0.2,3.5-1.1,3.9-2.8c0.6-2.2,0.1-4.2-0.8-6.1c-0.9-1.8-2-3.5-3.2-5.1
	C456.6,484.8,455.7,484.3,454.6,483.9z"/>
<path fill="#FFFFFF" d="M462.5,506.1c0.2,1.6,0.8,2.4,2.1,2.5c0.4,0,0.9-0.3,1.4-0.3c1.5,0,2.4-1,3.3-2c0.7-0.9,1.6-0.9,2.5-0.7
	c0.4,0.1,0.8,0.2,1.3,0.3c0.8,0.1,1.5,0.1,2.1-0.4c2.1-2.2,0.4-5.5-1.4-6.6c-0.8-0.5-1.6-0.1-2.5,0c-2,0.2-3.5,1.4-5,2.5
	c-1.2,0.9-2.1,2.2-3.2,3.3C462.8,505,462.7,505.6,462.5,506.1z"/>
<path fill="#FFFFFF" d="M499.4,512.4c0.2-1.3,0.4-3.2,0.9-5.1c0.3-1.2,0.8-2.4,1.8-3.2c0.3-0.2,0.7-0.4,1-0.4c1.3,0,2,1,2.7,1.9
	c0.4,0.6,0.6,1.4,1,2c0.1,0.2,0.6,0.3,1,0.4c0-0.2,0.2-0.4,0.1-0.6c-0.7-1.6-1.6-3.2-3.1-4.2c-1.4-0.9-2.6-0.9-3.4,0.1
	c-0.5,0.6-1,1.4-1.4,2.1c-1.3,2.4-1.5,4.9-1.5,7.6c0,3-0.4,5.9-1.6,8.7c-0.2,0.5-0.6,1-0.9,1.5c-0.1,0.2-0.4,0.7-0.3,0.8
	c0.3,0.5,0.7,0.1,1-0.1c0.2-0.1,0.4-0.3,0.5-0.6c0.5-1,1-2.1,1.4-3.2C499.3,517.8,499.6,515.4,499.4,512.4z"/>
<path fill="#FFFFFF" d="M455.2,542c0-0.4,0-0.8-0.2-1.1c-0.5-0.9-1.8-1.2-2.7-0.8c-0.5,0.2-1,0.4-1.6,0.6c-1.4,0.4-1.9,0.3-2.7-0.9
	c-0.8-1.2-1.9-1.8-3.2-2.1c-0.6-0.1-1.6,0-2,0.3c-1.2,0.8-2.3,1.9-3.3,2.9c-1.1,1.1-2.1,2.2-3.2,3.3c-1.3,1.2-2.6,1.2-3.8-0.1
	c-0.9-0.9-1.6-1.9-2.5-2.9c-0.1-0.2-0.5-0.2-0.7-0.3c0,0.2-0.1,0.6,0,0.8c0.9,1.2,1.8,2.3,2.8,3.4c1,1.1,2.8,1.3,4,0.4
	c0.7-0.5,1.4-1.1,2-1.7c1.5-1.5,3-3.1,4.5-4.6c0.6-0.6,1.3-0.7,2.1-0.5c1.2,0.3,2,1,2.8,1.9c0.8,1.1,1.8,1.8,3.2,1.1
	c0.2-0.1,0.4-0.1,0.6-0.2c0.6-0.1,1.2-0.5,1.8-0.4C453.7,541.1,454.4,541.5,455.2,542z"/>
<path fill="#FFFFFF" d="M448.3,554.8c1,0.6,1.2,1.5,1.6,2.3c0,0.1,0.3,0.2,0.5,0.3c0.1-0.2,0.3-0.4,0.3-0.6
	c-0.4-0.9-0.7-1.7-1.3-2.5c-0.6-0.8-1.6-0.6-2.1,0.3c-0.2,0.5-0.4,1-0.7,1.5c-0.6,1.2-1.2,2.4-2,3.5c-0.9,1.2-1.6,1-2.3-0.2
	c-0.1-0.3-0.3-0.6-0.4-0.9c-0.3-1.4-0.6-2.9-1-4.3c-0.6-2.1-2.2-3.3-4.1-4.1c-0.6-0.3-1.5,0-2.3,0.1c-0.1,0-0.2,0.3-0.3,0.5
	c0.1,0,0.3,0.2,0.4,0.2c2.1-0.5,3.3,0.8,4.5,2.2c1.1,1.3,1,2.9,1.5,4.4c0.3,1,0.7,2,1.2,3c0.5,0.9,1,1,2,0.7
	c1.5-0.5,2.2-1.7,2.8-3.1C447.2,557,447.7,555.9,448.3,554.8z"/>
<path fill="#FFFFFF" d="M426,546.3c0,0-0.1,0-0.1,0c0-0.4-0.1-0.9-0.2-1.3c-0.3-2-0.7-4-1.6-5.9c-1.2-2.3-2.2-4.7-2.8-7.2
	c-0.8-3.2-0.8-6.4,1.6-9.2c0.1-0.1,0.2-0.2,0.2-0.3c0-0.2,0-0.4,0-0.7c-0.2,0-0.6,0-0.7,0.2c-0.4,0.4-0.8,0.9-1.1,1.5
	c-1.1,2-1.5,4.2-1.2,6.4c0.4,3.6,1.9,6.8,3.3,10.1c0.9,1.9,1.4,4,1.6,6.1c0,0.7-0.2,1.4-0.4,2.1c0,0.2,0,0.4,0,0.7
	c0.2-0.1,0.5-0.1,0.6-0.3C425.5,547.8,425.8,547.1,426,546.3z"/>
<path fill="#FFFFFF" d="M431.7,477.7c-0.7-0.3-1,0.1-1.2,0.6c-0.6,1.5-0.8,3.1-0.8,4.6c0.1,2.7,0.4,5.5,0.5,8.2c0,1.1,0,2.3-0.1,3.4
	c-0.3,3.1-1.4,5.9-2.8,8.6c-0.1,0.2,0.1,0.5,0.2,0.7c0.2-0.1,0.6-0.1,0.7-0.3c0.3-0.4,0.4-1,0.6-1.5c1.3-2.8,2.2-5.7,2.2-8.8
	c0-2.5-0.3-5-0.4-7.5c-0.1-2.6-0.5-5.2,0.9-7.7C431.8,478,431.7,477.9,431.7,477.7z"/>
<path fill="#FFFFFF" d="M561.8,485.2c0,2.3,0.7,3.3,2.2,3.8c1.5,0.5,4.7-0.6,5.5-2.7c0.7-1.9,0.4-3.7-0.4-5.4
	c-0.3-0.8-2.4-1.9-3.1-1.7c-1.2,0.3-2.3,0.9-3.1,1.9C561.9,482.3,561.9,483.9,561.8,485.2z"/>
<path fill="#FFFFFF" d="M499.6,471c-0.1,0-0.3,0-0.4,0c0,0.3-0.2,0.7-0.1,1c1.1,3.4,2.5,6.6,4.3,9.7c1.1,1.7,2.4,3.1,4.4,3.8
	c2.1,0.7,4.3,1.1,6.6,1c0.3,0,0.5-0.2,0.8-0.3c-0.1-0.2-0.3-0.5-0.5-0.7c-0.2-0.1-0.4-0.2-0.7-0.2c-0.9,0-1.8,0-2.7,0
	c-3.2-0.2-5.8-1.6-7.4-4.4c-1.5-2.6-2.9-5.3-3.7-8.2C500.1,471.9,499.8,471.5,499.6,471z"/>
<path fill="#FFFFFF" d="M436.2,516.1c0,0-0.1,0-0.2-0.1c-0.1-0.5-0.1-1-0.2-1.6c-0.2-1.6-0.7-3-1.9-4.1c-0.5-0.4-1-0.7-1.7-0.4
	c-1.7,0.8-2.4,2.2-2.1,4.1c0.1,0.7,0.1,1.4,0.2,2c0.3,1.6,0.4,3.3,1.8,4.5c0.8,0.7,1.9,0.6,2.4-0.3
	C435.2,518.8,435.6,517.4,436.2,516.1z"/>
<path fill="#FFFFFF" d="M513.6,482c1.1-0.1,1.8-0.1,2.6-0.3c0.2,0,0.4-0.4,0.6-0.7c-0.3-0.1-0.6-0.3-0.9-0.3c-1.5,0-2.9,0.1-4.4,0
	c-0.9,0-1.8-0.2-2.5-0.6c-2.7-1.7-4.5-4.3-5.6-7.3c-0.4-1.1-1-2.1-1.5-3.1c-0.1-0.2-0.4-0.3-0.7-0.4c0,0.3-0.1,0.7,0,0.9
	c0.4,0.9,0.9,1.8,1.3,2.8c0.5,1.1,0.9,2.2,1.5,3.2c0.5,0.8,1.2,1.6,1.7,2.3c1.3,1.6,2.8,3.1,5,3.2
	C511.8,481.7,512.9,481.9,513.6,482z"/>
<path fill="#FFFFFF" d="M454.9,504c-0.1,0-0.2,0-0.4,0c-0.1,0.3-0.2,0.5-0.2,0.8c-0.2,1.8-0.3,3.5-0.9,5.3c-0.6,1.6-1.6,2.1-3.2,1.7
	c-2.6-0.5-5.7,0.4-5.3,3.9c0.1,1.4,0.9,2.5,2.5,2c0.6-0.2,1.1,0.1,1.3,0.6c0.2,0.4,0.2,1,0.3,1.5c0,0.2,0.2,0.5,0.3,0.7
	c0.2-0.2,0.5-0.4,0.5-0.6c0.2-1-0.1-1.8-0.7-2.6c-0.5-0.7-1.3-0.7-2-0.5c-0.6,0.1-1.1,0-1.3-0.7c-0.6-2.2,0.5-3.6,2.7-3.6
	c0.6,0,1.3,0.1,1.9,0.2c1.3,0.1,2.7-0.6,3.2-1.6c0.9-1.9,1.3-4.1,1.3-6.2C455.1,504.7,455,504.3,454.9,504z"/>
<path fill="#FFFFFF" d="M545.9,517.1c0.2-1-0.5-2-1.1-3c-0.3-0.5-0.8-1-1.4-1.3c-0.4-0.2-1.2-0.1-1.5,0.1c-1.1,1-1.8,2.3-1.8,3.9
	c0,1.2-0.2,2.5-0.5,3.6c-0.1,0.7,0.4,2.1,1.2,2.1c1,0,2.1-0.2,2.9-0.7C545.2,520.9,546,519.3,545.9,517.1z"/>
<path fill="#FFFFFF" d="M533.6,480.6c-0.2-2.1-0.6-4-2.8-5.1c-1.5-0.8-2.3-0.2-2.8,1.3c-0.4,1.5-0.5,3,0,4.5c0.4,1.2,1,2.3,2.3,2.8
	c0.8,0.3,1.7,0.2,2.3-0.4C533.5,482.8,533.7,481.7,533.6,480.6z"/>
<path fill="#FFFFFF" d="M447.2,477.8c0,0.5,0.1,0.9,0.1,1.4c0.1,1.1,0.5,2.1,1.5,2.6c1,0.5,1.9,0.3,3-0.3c1.2-0.7,1.7-2.9,1.5-4
	c-0.4-1.5-1.6-2.1-2.9-2.5c-0.2-0.1-0.5-0.1-0.7-0.2c-0.1,0-0.3,0-0.4,0.1C448.4,475.3,447.1,476.5,447.2,477.8z"/>
<path fill="#FFFFFF" d="M427.4,486.9c0-0.6,0-1.3-0.1-2c0-0.3-0.3-0.8-0.5-0.8c-0.5,0-0.6,0.4-0.5,0.8c0.1,1.2,0.3,2.4,0.4,3.5
	c0.2,2.4,0.5,4.7,0.6,7.1c0,1.2,0,2.5-0.8,3.5c-0.1,0.1,0.2,0.6,0.3,0.9c0.2-0.1,0.5-0.3,0.6-0.5c0.8-2.5,1.3-5.1,0.7-7.8
	C427.6,490.2,427.6,488.6,427.4,486.9z"/>
<path fill="#FFFFFF" d="M534.4,537.5c-0.3-1-1-2.8-1.6-4.7c0-0.1-0.2-0.3-0.4-0.4c-0.2-0.1-0.4,0-0.6,0c0,0.2-0.1,0.5,0,0.7
	c1.3,1.8,1.4,4,1.6,6.1c0.3,2.5,0.7,5,1,7.5c0,0.1,0,0.3,0.1,0.4c0.2,0.1,0.4,0.2,0.7,0.3c0-0.2,0.2-0.4,0.2-0.6
	c0-0.6-0.1-1.2-0.2-1.7C534.6,542.8,534.5,540.6,534.4,537.5z"/>
<path fill="#FFFFFF" d="M549,467.3c-0.2-1.6-1.1-2.9-2.8-3.4c-0.3-0.1-0.8-0.3-1-0.2c-0.3,0.2-0.4,0.7-0.5,1.1c0,0.1,0,0.3,0,0.5
	c0.1,1.6,0.4,3,1.3,4.3c0.4,0.6,0.8,1,1.5,0.8c0.9-0.2,1.5-0.8,1.5-1.6C549,468.4,549,468,549,467.3z"/>
<path fill="#FFFFFF" d="M475.8,485.3c0.5-0.2,1.1-0.3,1.6-0.6c0.7-0.3,1.2-1.4,1.1-1.8c-0.3-0.8-0.6-1.6-1-2.3
	c-0.5-1-1.5-1.6-2.5-1.6c-0.8,0-1.2,0.8-1.6,1.5C472,482.3,473.6,485,475.8,485.3z"/>
<path fill="#FFFFFF" d="M471.1,473.7c-0.7,0.9-0.8,2-0.3,2.7c0.6,0.9,1.3,1.2,2.2,1c1.4-0.3,1.8-0.8,2-2c0.2-1.3,0-2.4-1.2-3
	c-1-0.5-2-0.1-3,0.5C470.5,473.2,470.4,473.5,471.1,473.7z"/>
<path fill="#FFFFFF" d="M567,472c-1.1-0.3-2,1-2.2,2.3c-0.1,1.3,0.6,2.3,1.6,2.4c1.6,0.1,2.7-0.9,2.9-2.5
	C569.4,473.1,568.5,472.2,567,472z"/>
<path fill="#FFFFFF" d="M465.6,473.6c-0.7,0.2-0.6,0.5-0.4,0.9c1.4,3.1,2.8,6.2,4.2,9.3c0.1,0.3,0.2,0.7,0.6,0.4
	c0.2-0.1,0.2-0.6,0.2-0.8c-0.3-0.7-0.8-1.4-1.1-2c-1-2.3-2-4.6-3-6.8C465.9,474.2,465.7,473.9,465.6,473.6z"/>
<path fill="#FFFFFF" d="M463,486.5c0-0.3-0.1-0.5-0.1-0.7c-0.8-1.6-1.6-3.2-2.4-4.8c-0.7-1.5-1.3-3-2-4.4c-0.1-0.2-0.5-0.4-0.7-0.6
	c0,0.3-0.1,0.7,0,0.9c1.1,2.5,2.2,5,3.3,7.5c0.3,0.7,0.6,1.4,1,2.1c0.1,0.1,0.4,0.2,0.6,0.2C462.8,486.8,462.9,486.5,463,486.5z"/>
<path fill="#FFFFFF" d="M553.8,528c1.1,0.1,1.6-0.8,2.2-1.3c0.9-0.7,0.8-1.6-0.2-2.3c-0.1-0.1-0.3-0.2-0.4-0.4
	c-0.3-0.7-0.8-0.5-1.3-0.2c-1.1,0.6-1.3,1.7-1.6,2.8C552.3,527.7,552.6,527.9,553.8,528z"/>
<path fill="#FFFFFF" d="M530.3,490.2C530.3,490.2,530.3,490.2,530.3,490.2c0,0.5,0,1.2,0.1,1.6c0.1,0.4,0.5,0.8,0.9,0.9
	c0.4,0.1,1.1,0,1.4-0.3c1.3-1.2,1.3-2.4,0.4-3.8c-0.5-0.8-1.1-1-2.1-0.5c-0.3,0.1-0.5,0.8-0.7,1.3
	C530.3,489.7,530.3,490,530.3,490.2z"/>
<path fill="#FFFFFF" d="M460.7,474.1c0.6,1.2,1.1,2.3,1.6,3.3c1,2,1.9,4,2.9,6.1c0.1,0.2,0.5,0.3,0.7,0.4c0-0.3,0.2-0.6,0.1-0.8
	c-0.3-0.7-0.8-1.3-1.1-1.9c-1.1-2.2-2.1-4.5-3.1-6.7C461.5,474,461.3,473.7,460.7,474.1z"/>
<path fill="#FFFFFF" d="M452.5,505.5c0.8-0.5,0.5-1.1,0.5-1.7c0-2.3-0.1-4.6,0.7-6.8c0.1-0.3,0-0.7,0-1.1c-0.3,0.3-0.6,0.5-0.9,0.8
	c0,0,0,0.1,0,0.1c-0.7,2.3-0.7,4.7-0.7,7C452.2,504.5,452.4,505,452.5,505.5z"/>
<path fill="#FFFFFF" d="M519.3,480.5c0,1.1,0.5,1.8,1.2,1.8c1,0,2.1-1.1,2.1-1.8c0-0.8-0.6-1.5-1.3-1.5
	C519.8,478.9,519.3,479.3,519.3,480.5z"/>
<path fill="#FFFFFF" d="M489.2,465.3c0,0.1,0,0.1,0.1,0.2c0.2-0.2,0.5-0.3,0.7-0.5c-0.1-0.2-0.2-0.5-0.4-0.5
	c-1.8-0.2-3.5-0.4-5.3-0.5c-0.2,0-0.4,0.3-0.7,0.5c0.2,0.1,0.3,0.5,0.5,0.5C485.8,465.1,487.5,465.2,489.2,465.3z"/>
<path fill="#FFFFFF" d="M484.5,467.7c0.3,0,0.5,0,0.8,0c1-0.1,2-0.3,3-0.4c0.4,0,0.8-0.1,1.1-0.1c0.4,0,0.7-0.3,0.5-0.7
	c-0.1-0.2-0.5-0.4-0.8-0.3c-1.3,0.1-2.5,0.4-3.7,0.6C484.7,466.6,484.4,466.9,484.5,467.7z"/>
<path fill="#FFFFFF" d="M490.6,469.3c-0.1-0.1-0.2-0.2-0.3-0.2c-1.4,0-2.8,0.1-4.2,0.1c-0.1,0-0.3,0.2-0.3,0.3
	c0,0.1,0.2,0.4,0.3,0.4c0.7,0.1,1.5,0.4,2.2,0.3C489,470.2,490,470.2,490.6,469.3z"/>
<path fill="#FFFFFF" d="M465.6,535.3c-0.3-0.3-0.7-0.7-1.1-1.1c-0.3,0.3-0.6,0.7-0.8,1.1c-0.1,0.2,0,0.6,0.1,0.9
	c0.1,0.3,0.3,0.5,0.5,0.8c0.3-0.2,0.7-0.4,1-0.7C465.5,536.1,465.5,535.8,465.6,535.3z"/>
<path fill="#FFFFFF" d="M454,521.6c-1.5,0.5-1.7,1.8-2.6,2.9c0.3,0,0.6,0.2,0.7,0.1c0.7-0.8,1.4-1.7,2-2.5
	C454.1,522,454,521.8,454,521.6z"/>
<path fill="#FFFFFF" d="M488.5,473.3c0.6-0.1,1-0.2,1.5-0.4c0.2-0.1,0.3-0.3,0.5-0.5c-0.2-0.1-0.5-0.4-0.8-0.4
	c-0.4,0-0.7,0.1-1.1,0.3c-0.3,0.1-0.5,0.3-0.8,0.5C488,473,488.3,473.2,488.5,473.3z"/>
<path fill="#FFFFFF" d="M453.3,525.6c0,0.1,0.1,0.2,0.1,0.2c0.2,0,0.5,0,0.7-0.2c0.6-0.4,1.2-0.9,1.8-1.5c0.1-0.1,0.1-0.4,0.1-0.6
	c-0.2,0-0.5,0-0.7,0c-0.5,0.4-1,0.8-1.5,1.3C453.7,525.1,453.5,525.4,453.3,525.6z"/>
<path fill="#FFFFFF" d="M458.4,526.5c-0.1,0-0.3-0.2-0.4-0.2c-0.5,0.2-1.1,0.5-1.6,0.9c0,0,0,0.4,0,0.5
	C456.8,527.8,458.4,527.1,458.4,526.5z"/>
<path d="M570,514.3c-0.7,0.2-1-0.2-1.3-0.8c-0.6-1.2-1.2-2.3-1.8-3.4c-0.8-1.5-2-2.5-3.7-2.8c-1.3-0.2-2.5,0.2-3.6,0.9
	c-1.3,0.8-2.5,1.6-3.8,2.4c-1.1,0.7-2.1,1.5-3.1,2.2c-1.6,1.2-4.1,1.6-5.4,0.2c-0.6-0.6-1-1.3-1.5-2c-0.8-1.2-1.6-2.6-3.2-2.9
	c-0.2,0-0.5-0.2-0.7-0.1c-1.4,0.7-2.7,1.5-3.3,3.2c-0.6,1.7-1.3,3.3-1.5,5.1c-0.2,1.9-0.1,4-0.6,5.8c-0.5,2-0.7,4.2-2.3,5.8
	c-0.7,0.7-1.5,1.4-2.6,1.4c-0.1,0-0.2,0.1-0.3,0.1c-0.6,0.3-1.1,0.9-1.7,1c-1.4,0.2-3,1.1-4.2-0.3c-0.4-0.4-0.8-1-0.8-1.6
	c0-1.2,0.2-2.5,0.3-3.7c-2.4-0.8-3.4-2.9-4.4-5.1c-0.5-1.1-0.6-1.1-1.6-0.4c-1.4,1-3.3,0.5-4.3-1c-1.2-1.9-1.7-4.1-2.1-6.4
	c-0.5-2.9-1.2-5.8-2.4-8.4c-1.2-2.6-3.1-4.6-5.9-5.6c-1.4-0.5-2.5-0.1-3.5,0.8c-1.7,1.6-3,3.4-4,5.6c-1.2,2.8-1.9,5.8-2.3,8.8
	c-0.3,2.3-0.8,4.6-1,6.8c-0.1,1.7-0.5,3.3-1.2,4.9c-1,2.5-2.7,4.7-4.3,6.8c-0.8,1-1.6,2-2.8,2.6c-0.1,0.1-0.4,0.1-0.6,0.1
	c0-0.2,0-0.5,0.1-0.7c0.3-0.4,0.8-0.6,1.1-1c2.1-2.4,4-4.9,5.4-7.8c0.9-1.9,1.3-4.1,1.5-6.2c0.2-2.3,0.5-4.6,0.9-6.8
	c0.4-2.2,0.8-4.4,1.6-6.4c1-2.8,2.3-5.4,4.7-7.3c2.9-2.3,4-1.8,6.4-0.3c2.9,1.7,4.7,4.3,5.6,7.4c0.8,2.5,1.3,5.1,1.8,7.7
	c0,0.1,0,0.2,0,0.2c1.8-1.1,3.5-2.3,5.3-3.3c1.1-0.6,2.4-1.1,3.6-1.5c1.6-0.5,3.3-0.8,5-1.1c0.8-0.1,1.7-0.1,2.6-0.2
	c1.3-0.1,2.4-0.8,3.4-1.6c1.8-1.4,3.2-3.2,4.3-5.2c0.9-1.5,2-3,3.3-4.1c0.9-0.8,2.2-1.4,3.7-0.9c1.9,0.5,3.8,1,5.8,0.5
	c1.8-0.4,3.4-1.3,4.8-2.6c1.3-1.2,2.7-1.6,4.3-0.9c0.9,0.4,1.5,1.1,1.9,1.9c0.6,1,1.1,2,1.7,2.9c0.3,0.4,0.9,0.8,1.4,0.8
	c1.2,0,2.3-0.3,2.8-1.4c0.6-1.4,1-2.8,1.6-4.3c0.1-0.3,0.2-0.6,0.3-0.9c0.2-0.7,0.3-1.6,0.7-2.2c0.7-1.3,1.8-1.9,3.2-2.2
	c1.8-0.3,3.6-0.8,4.7-2.6c1-1.5,0.9-4.6-0.2-5.7c-0.7-0.7-1-0.6-1.3,0.3c-0.6,1.7-2,2.4-3.7,2.2c-1.2-0.1-2.1-1.5-2.3-3
	c-0.3-2.2,0.7-3.7,2.4-4.8c1.3-0.9,2.1-2.2,2.6-3.7c0.1-0.5,0-1,0-1.6c-0.6,0.6-1.1,1.1-1.7,1.5c-1.3,1-2.6,0.7-3.9,0
	c-0.3-0.1-0.5-0.3-0.8-0.5c-1.5-1-2-1-3.4,0.1c-2.1,1.6-3.5,3.7-4.5,6.3c-0.9,2.7-2,5.3-3.1,7.9c-0.8,1.8-1.9,3.3-4,3.7
	c-0.8,0.1-1.4,0-1.8-0.5c-0.8-1.1-1.5-2.2-2.3-3.2c-0.6-0.8-1.2-1.7-1.8-2.5c-0.5-0.7-1.7-0.8-2.9,0c-1.1,0.7-2.2,1.5-2.8,2.5
	c-1.5,2.5-2.8,5.2-3.9,7.9c-1.1,2.4-1.7,5.1-3.2,7.3c-1.4,1.9-3.1,3.2-5.4,3.7c-0.2,0-0.7-0.1-0.9-0.3c-0.6-0.8-1.2-1.6-1.5-2.5
	c-0.6-1.6-1.2-3.2-1.6-4.8c-0.4-1.6-1.6-2.4-2.8-3.2c-2-1.6-4.3-1.9-6.7-1.7c-0.5,0-1,0.2-1.5,0.4c-2,0.8-3.9,1.2-6.1,0.8
	c-2.3-0.4-3.8-1.7-5.4-3.3c-2-1.9-3.2-4.4-4.6-6.7c-0.8-1.3-1.2-2.7-1.7-4.1c-0.1-0.2,0.1-0.6,0.2-0.9c0.2,0.2,0.4,0.3,0.6,0.5
	c1.2,2.2,2.1,4.6,3.4,6.7c1.1,1.7,2.5,3.2,3.9,4.8c1.7,1.8,4,2.1,6.3,2c1,0,1.9-0.7,2.9-0.9c1.2-0.2,2.3-0.4,3.5-0.5
	c1.1,0,2.3,0,3.2,0.5c1.2,0.5,2.2,1.4,3.3,2c1.8,1.2,2.3,3.2,3,5c0.4,1.3,0.9,2.6,1.5,3.8c0.5,1.1,1,1.3,2.1,0.8
	c1.7-0.7,3.1-1.9,4.1-3.6c1.1-2,1.7-4.2,2.6-6.3c1.2-2.8,2.6-5.4,4-8.1c0.9-1.7,2.4-2.9,4.3-3.5c1.4-0.4,2-0.3,2.9,0.7
	c0.8,1,1.6,2,2.3,3.1c0.6,0.9,1.1,1.8,1.7,2.7c0.1,0.1,0.3,0.3,0.5,0.3c1.1,0,2.2-0.2,2.8-1.3c0.9-1.8,1.7-3.6,2.4-5.5
	c1.3-3.4,2.6-6.8,5-9.6c1.1-1.2,2.6-1.9,4.1-2.3c0.6-0.1,1.5,0.5,2.1,0.9c2.1,1.6,3.6,1,4.7-1.1c0.2-0.3,0.5-0.8,0.9-0.8
	c0.5,0,0.7,0.4,0.8,0.9c0.7,2.7-0.3,4.8-2.4,6.4c-0.5,0.4-1.1,0.9-1.6,1.4c-1.3,1.2-1.1,3.6,0.2,4.7c0.6,0.4,1.1,0.5,1.8,0.2
	c0.7-0.3,1-0.8,1.1-1.5c0-0.4,0.2-1.1,0.5-1.1c0.7-0.1,1.6-0.9,2.3,0c0.5,0.6,1,1.3,1.3,2.1c0.4,1.5,0.8,3.1-0.1,4.5
	c-1.3,2.1-3.2,3.4-5.7,3.6c-1.7,0.1-2.7,1.3-3.1,3.2c-0.4,2.1-0.9,4.3-2.1,6.1c-0.7,1.1-1.8,1.9-3.3,1.9c-1.2,0-2.1-0.4-2.7-1.6
	c-0.7-1.2-1.4-2.4-2.2-3.5c-0.7-1.1-2.4-1.3-3.5-0.5c-1.1,0.8-2.1,1.6-3.2,2.2c-1.2,0.7-2.5,1.3-4,1.2c-1.6-0.1-3.3-0.2-4.9-0.6
	c-1.5-0.3-2.5,0.3-3.4,1.2c-1.5,1.3-2.3,3.1-3.3,4.7c-1.4,2.3-3.4,4.1-5.8,5.3c-0.7,0.3-1.6,0.4-2.4,0.6c-1.6,0.3-3.3,0.4-4.8,0.8
	c-1.5,0.3-2.9,0.8-4.2,1.5c-1.9,1-3.8,2.2-5.7,3.4c-0.9,0.6-0.9,0.9-0.3,2c1.6-1.2,3.3-2.2,5.4-2.6c2-0.4,3.9-0.4,5.9,0.4
	c0.1-0.4,0.3-0.9,0.4-1.3c0.3-0.8,1-1.2,1.8-1.3c0.4,0,1,0.2,1.3,0.6c0.8,1.2,1.6,2.4,2.1,3.6c0.7,1.9,1.5,3.9,1.7,6
	c0.2,1.5-0.3,3.2-0.6,4.7c-0.1,0.8-0.4,1.6-0.6,2.5c1.1-0.2,1.6-0.9,2-1.7c0.9-2,1.5-4.1,1.6-6.3c0.1-2.4,0.7-4.8,1.1-7.3
	c0.2-1.2,0.3-2.5,0.6-3.7c0.5-2.3,1.8-4.2,3.4-5.9c1.6-1.8,3.5-1.8,5.6-1.4c1.4,0.3,2.8,0.7,4.2,0.8c0.8,0.1,1.7,0,2.5-0.2
	c1.6-0.5,3.3-1.2,4.8-1.9c1.4-0.7,2.7-0.6,4-0.1c1.3,0.4,1.8,2.7,0.9,3.7c-0.6,0.7-1.3,1.4-2.1,2.2c0.6-0.1,1.1-0.2,1.6-0.2
	c2.2,0,4,0.9,5.2,2.7c0.9,1.5,1.6,3.1,2.4,4.7C570,513.8,570,514.1,570,514.3C570,514.3,570,514.3,570,514.3z M538.4,509.3
	c0.6-0.5,1.1-1.1,1.7-1.5c0.8-0.4,1.7-0.9,2.5-0.9c1.1,0,2.1,0.6,2.8,1.6c0.5,0.8,1,1.5,1.5,2.3c1.4,1.9,2.7,2.8,4.9,1.4
	c2.4-1.6,4.8-3.3,7.1-5.1c1.2-1,2.2-2.2,3.1-3.5c0.6-0.8,0-2.1-1-2.3c-1.4-0.3-2.6,0.1-3.8,0.7c-2.2,1.2-4.5,2-7,1.6
	c-2-0.2-4-0.5-6-0.9c-1-0.1-1.9,0.2-2.6,0.9C540.3,505.3,538.9,507,538.4,509.3z M525.5,523.7c1.3,0,2.6-1.1,2.7-2.2
	c0.3-1.7,0-3.4-0.8-5c-1-1.9-2.5-2.9-4.6-3c-1.1,0-2.2,0.2-3.2,0.5c-1.6,0.4-3.1,1-4.2,2.2c-0.1,0.1-0.2,0.4-0.2,0.5
	c0.4,1.7,2,2.3,3.4,1.3c1.2-0.9,2.7-0.4,3,1.1c0.3,1.3,1,2.4,1.7,3.5C524,523.4,524.7,523.7,525.5,523.7z M532.6,523
	c-0.2-4.3-1.5-7.6-3.3-10.6c-0.2-0.3-0.8-0.6-1-0.5c-0.3,0.1-0.8,0.6-0.8,1c0,0.8,0.2,1.6,0.4,2.3c0.2,0.7,0.7,1.3,1,2
	c0.6,1.6,0.8,3.2,0.3,4.7c-0.4,1.2-1.2,2.3-2.5,2.8c-0.3,0.1-0.6,0.6-0.7,1c-0.2,0.8-0.2,1.6-0.2,2.4c0,1.2,0.8,2.1,2.4,1.7
	c1.3-0.3,2.8-0.5,3.3-2C531.9,525.9,532.3,524.2,532.6,523z"/>
<path d="M461.3,525.7c-0.2-0.4-0.6-0.8-0.6-1.2c-0.4-2.7-1.6-5.1-2.4-7.7c-0.6-1.8-0.9-3.8-0.8-5.7c0.1-2.8,0.2-5.6,1.1-8.3
	c0.6-1.9,1.9-3.1,3.9-3.4c0.6-0.1,1.2-0.3,1.7-0.4c2-0.5,2.8-2.2,3.5-3.9c0.5-1.3,0.9-2.6,1.5-3.8c0.7-1.6,2-2,3.7-1.8
	c2.3,0.2,4,1.4,5.3,3.2c1.5,1.8,2.2,4,2.9,6.1c1.1,3.5,1.5,7.1,1.7,10.7c0.2,3,0,6-0.1,9.1c-0.1,2.6-0.1,5.2,0.9,7.7
	c0.3,0.7,0.6,1.6,1.5,1.9c0.5,0.2,1,0.2,1.4-0.2c0.6-0.7,1.1-1.5,1.6-2.2c0.2-0.2,0.3-0.5,0.6-0.8c0.4,0.5,0.6,1,0.2,1.5
	c-0.6,0.8-1.3,1.6-1.9,2.2c-1.1,1.1-2.4,0.8-3.2-0.5c-1.4-2.1-1.7-4.5-1.7-6.9c0-1.6,0.2-3.3,0.3-5c0-2.5,0-4.9-0.2-7.4
	c-0.2-2.5-0.5-5.1-1.1-7.6c-0.4-2-1.1-4-1.9-5.9c-0.9-1.9-2.2-3.5-4.1-4.5c-1.3-0.6-2.6-0.8-3.9-0.2c-0.4,0.2-0.8,0.5-0.9,0.9
	c-0.5,1.3-0.9,2.8-1.6,4c-0.7,1.3-1.5,2.7-2.6,3.6c-0.8,0.7-2,1-3.2,1.1c-2.3,0.3-3.2,1.8-3.7,3.7c-0.8,3.3-1.1,6.8-0.5,10.2
	c0.3,1.8,1.1,3.6,1.7,5.4c0.6,1.9,1.1,3.9,1.7,5.9C461.7,525.6,461.5,525.6,461.3,525.7z"/>
<path d="M444.2,478c0,4.4,1.2,8.1,3.2,11.6c1.2,2,2.5,4,2.6,6.4c0.1,1.8,0,3.8-0.2,5.6c-0.2,1.4-0.8,2.8-1.3,4.1
	c-0.4,1.1-1.6,1.6-2.5,2.2c-0.8,0.4-1.6,0.4-2.4-0.1c-0.5-0.3-1.1-0.6-1.6-1c-0.2-0.1-0.3-0.4-0.3-0.7c0,0,0.2-0.3,0.3-0.3
	c0.3,0,0.7,0.1,0.9,0.3c0.8,1.1,2,1.5,3.4,0.6c1-0.7,1.7-1.6,2.1-2.8c0.6-1.9,1.1-3.9,1-6c-0.1-1.9-0.3-3.8-1.3-5.6
	c-1.5-2.8-3.2-5.4-4-8.6c-0.8-3.2-1.1-6.4-0.2-9.6c0.3-1.3,1-2.5,1.7-3.5c0.5-0.8,1.6-1,2.6-0.9c1.2,0.1,2.5,0.3,3.7,0.3
	c0.4,0,0.8-0.1,1.1-0.4c0.6-0.5,1.1-1,1.6-1.6c0.4-0.5,0.7-1.2,1.1-1.7c0.6-1.1,1.2-2.3,1.9-3.4c0.7-1.1,2.7-1.4,4.2-1
	c2.2,0.7,2.7,3.4,2.4,5.1c0,0.4-0.1,0.8-0.2,1.2c-0.2,1.3,0.8,2.1,2.1,1.7c0.5-0.1,1.1-0.4,1.6-0.6c0.2,0,0.5,0,0.8,0
	c-0.1,0.2-0.2,0.6-0.4,0.7c-1.2,0.6-2.3,1.2-3.7,0.7c-1.1-0.4-1.6-1.2-1.4-2.3c0.1-0.6,0.2-1.2,0.3-1.8c0.4-2-0.8-4.2-3.2-4.2
	c-0.9,0-1.9,0.6-2.4,1.5c-0.4,0.9-0.8,1.9-1.4,2.7c-0.9,1.3-1.8,2.5-2.9,3.7c-0.3,0.3-1,0.4-1.5,0.4c-0.9,0-1.8,0-2.7-0.2
	c-1.9-0.5-2.6-0.2-3.7,1.5C444.4,474.3,444.3,476.3,444.2,478z"/>
<path d="M486.2,519.6c-0.8-0.4-0.4-0.9-0.4-1.4c0-1.6,0.2-3.2,0-4.7c-0.4-4.1-1.1-8.1-1.5-12.3c-0.2-1.9-0.2-3.9-0.3-5.8
	c0-1.9,1-3.2,2.3-4.4c0.7-0.6,1.5-1.2,2.1-1.8c0.8-0.7,1.3-1.6,1.4-2.7c0.4-3.3-0.4-6.4-2.2-9.1c-1.5-2.3-3.2-4.6-4.8-6.8
	c-1.5-2-2.6-4.3-2.6-6.9c0-1.4,0.7-2.3,1.9-2.8c0.8-0.3,1.7-0.4,2.7-0.2c1.6,0.4,3.3,0.6,5,0.8c0.2,0,0.5,0,0.7,0.2
	c0.3,0.2,0.5,0.5,0.7,0.7c-0.3,0.1-0.7,0.3-1,0.3c-1.8-0.3-3.6-0.7-5.4-1c-0.7-0.1-1.5-0.1-2.2,0.1c-1.3,0.4-1.7,1.3-1.5,2.7
	c0.3,2.7,1.8,4.8,3.4,6.9c1.6,2,2.9,4.2,4.2,6.4c1,1.6,1.6,3.2,1.9,5c0.3,1.8,0.2,3.6-0.3,5.3c-0.3,1-1.4,1.8-2.1,2.7
	c-0.7,0.8-1.5,1.5-2.2,2.2c-1.3,1.2-1.2,2.7-1,4.3c0.4,3.3,0.7,6.7,1.1,10.1c0.2,2.3,0.6,4.6,0.8,6.9c0.1,1.4,0,2.8-0.1,4.2
	C486.6,518.8,486.4,519.2,486.2,519.6z"/>
<path d="M451.3,529.3c1.1,0.4,2.1,0.7,3,1.3c1.7,1,2.9,2.6,3.8,4.3c1.1,1.8,2.1,3.7,3.4,5.3c0.8,1,2.1,1.6,3.2,2.4
	c0.7,0.5,1.5,0.5,2.3,0c1.4-1,2.3-2.3,2.7-4c0.5-2.6,0.5-5.2,0-7.8c-0.5-2.1-1.3-4.1-2-6.2c-0.7-2.1-1.5-4.3-1.5-6.5
	c0-1.7,0-3.4,0.1-5.1c0-0.5,0.1-1.2,0.8-1.2c0.6,0,1.3,0,1.7,0.3c1.6,1.2,2.3,2.8,2.4,4.8c0,0.4,0.3,1.2,0.6,1.3
	c0.4,0.1,1-0.2,1.4-0.5c1.2-0.9,1.9-2.1,1.6-3.6c0-0.5,0-1,0.1-1.5c0-0.1,0.2-0.2,0.3-0.4c0.1,0.1,0.3,0.2,0.3,0.4
	c0.1,1.5,0.4,3-0.5,4.4c-0.8,1.1-1.6,2.1-3.1,2.2c-0.7,0-1.1-0.2-1.3-0.9c-0.1-0.7-0.3-1.4-0.4-2c-0.2-1.4-0.9-2.4-1.9-3.2
	c-0.7-0.6-1.2-0.4-1.3,0.6c-0.4,3.2-0.2,6.3,0.8,9.4c0.9,2.6,1.8,5.1,2.5,7.7c0.4,1.6,0.4,3.4,0.5,5.1c0,1.7-0.3,3.4-1,5.1
	c-0.7,1.7-2.9,3.5-4.5,3.2c-0.9-0.2-1.7-0.8-2.6-1.4c-1.9-1.2-3.1-3.1-4.2-5c-0.6-1.1-1.2-2.2-1.8-3.2c-1.1-1.9-2.9-3.1-4.9-3.7
	C450.9,530.1,450.8,529.9,451.3,529.3z"/>
<path d="M502.9,508.1c-0.3,0.9-0.7,1.5-0.7,2.1c-0.2,3.1-0.1,6.2,0.6,9.2c0.1,0.5,0.3,1.1,0.6,1.6c0.1,0.2,0.4,0.4,0.6,0.3
	c0.1,0,0.3-0.3,0.4-0.5c0.1-0.5,0.1-1.1,0.1-1.6c0-0.4,0.1-0.9,0.2-1.3c0-0.1,0.2-0.3,0.3-0.3c0.1,0,0.3,0.1,0.4,0.2
	c0.5,0.9,0,3.4-0.7,4.1c-0.9,0.8-1.5,0.6-2-0.4c-0.9-1.7-1.3-3.7-1.4-5.6c-0.1-1.6-0.1-3.2,0-4.8c0-1,0.4-2,0.8-3
	c0.3-0.9,1.6-1,2.4,0c0.9,1.2,1.6,2.4,2.3,3.7c1.6,3.2,1.7,6.8,2.3,10.3c0.6,3.8,1.2,7.7,1.6,11.5c0.1,0.8,0,1.6,0,2.3
	c-0.2,1.2-1.1,1.8-2.2,1.3c-1.2-0.5-2.3-1.3-2.7-2.7c0-0.1-0.1-0.3,0-0.5c0-0.2,0.2-0.4,0.3-0.6c0.2,0.1,0.5,0.2,0.5,0.4
	c0.2,1,1,1.6,1.6,2.2c0.2,0.2,0.7,0.4,1,0.3c0.2,0,0.5-0.5,0.5-0.8c0-1.4,0-2.8-0.2-4.2c-0.4-3-0.8-6-1.3-9
	c-0.4-2.7-0.8-5.3-1.5-7.9c-0.5-1.8-1.5-3.5-2.4-5.2C504.1,508.9,503.5,508.6,502.9,508.1z"/>
<path d="M553.7,476.1c0.1-0.3,0.1-0.7,0.3-1c1.6-2.2,3.3-4.5,4.3-7.1c0.3-0.8,0.7-1.7,1.1-2.5c0.8-1.6,2-2.8,3.7-3.2
	c1.1-0.2,2.4-0.1,3.5,0c1.7,0.1,2.9-0.7,3.5-2.1c0.4-0.8,0.7-1.7,1.1-2.6c0.7-1.3,1.3-1.3,2.7-1c2.6,0.6,3.3,2.8,4.5,4.7
	c0.8,1.3,1.2,2.9,1.9,4.3c0.6,1.3,0.4,2.5,0.1,3.7c-0.2,1-0.6,1.9-1.1,2.8c-0.4,0.8-0.7,0.8-1.3,0c1.3-1.3,1.4-3,1.6-4.7
	c0-0.3-0.2-0.6-0.3-0.9c-0.7-2.6-2.1-4.9-3.7-7.1c-0.6-0.9-1.4-1.4-2.4-1.6c-0.7-0.2-1.1,0-1.4,0.7c-0.5,1.1-1,2.1-1.6,3.2
	c-0.9,1.6-2.4,1.9-4.1,1.8c-1.1,0-2.3,0-3.4,0.2c-1.3,0.3-2.2,1.3-2.8,2.5c-1.2,2.3-2.2,4.6-3.5,6.8c-0.6,1.1-1.6,2.1-2.3,3.1
	c-0.1,0.1-0.3,0.2-0.5,0.4C554,476.2,553.8,476.2,553.7,476.1z"/>
<path d="M437.1,503.6c0.2,1.2,0.5,3.2,1,5.1c0.6,2.7,1.2,5.4,1,8.2c-0.2,2.5-1.2,4.7-3.4,6.1c-0.9,0.6-1.8,1.3-2.7,1.9
	c-1.2,0.8-1.5,2-1.6,3.2c-0.2,2.5,0.8,4.5,2.3,6.3c0.4,0.4,0.8,0.8,1.2,1.3c0.1,0.2,0.1,0.5,0.2,0.7c-0.3,0-0.7,0-0.8-0.1
	c-0.9-1-1.7-2-2.4-3c-1.4-1.8-1.5-4-1.2-6.2c0.2-1.5,1.1-2.6,2.3-3.4c0.7-0.5,1.5-1.1,2.2-1.5c1.9-1.1,2.8-2.9,3-5
	c0.2-2,0-4-0.5-6.1c-0.7-3.2-1.6-6.4-1.2-9.8c0.1-1.2,0.6-2.4,1.2-3.5c0.6-1.1,1.4-1.3,2.4-0.5c1,0.7,1.9,1.6,2.9,2.5
	c0.2,0.2,0.3,0.4,0.5,0.6c1.1,1.1,1.2,1.1,2.3,0c0.1-0.1,0.4-0.1,0.6-0.2c0,0.2,0.1,0.5,0,0.7c-0.9,1.6-2.3,1.7-3.6,0.2
	c-0.7-0.7-1.4-1.5-2.1-2.2c-0.4-0.4-0.9-0.7-1.4-0.9c-0.2-0.1-0.6,0-0.8,0.2C437.4,499.5,437.1,500.9,437.1,503.6z"/>
<path d="M423.4,529.3c-0.1-0.5-0.2-0.9-0.3-1.4c0-1.4,0.9-2.4,1.6-3.5c1.1-2.1,2.3-4.2,2.2-6.6c-0.1-1.9-0.3-3.9-0.7-5.8
	c-0.5-2.3-1.3-4.5-2.1-6.7c-0.7-1.7-1.6-3.4-2.4-5.1c-1.2-2.8-2.5-5.4-2.6-8.5c0-1.4-0.2-2.7,0.2-4c0.2-0.9,0.7-1.3,1.6-1.2
	c1,0.1,2,0.4,2.6,1.4c0.2,0.3,0.1,0.7,0.1,1.1c-0.3-0.1-0.6-0.2-0.9-0.3c-0.6-0.3-1.2-0.7-1.8-1c-0.4-0.1-0.8,0-0.9,0.5
	c-0.1,0.7-0.3,1.4-0.3,2c0,2.7,0.7,5.2,1.8,7.7c1.3,2.7,2.6,5.4,3.7,8.2c1.5,3.7,2.4,7.5,2.5,11.4c0,2.1-0.7,3.9-1.6,5.7
	c-0.5,1.1-1.3,2.1-1.7,3.2c-0.4,0.9-0.6,1.9-0.9,2.9C423.6,529.2,423.5,529.2,423.4,529.3z"/>
<path d="M528.4,535c-0.5,0.9-0.3,1.6-0.1,2.3c0.1,0.2,0,0.5,0.1,0.8c-0.3,0-0.7-0.1-1-0.2c-0.1,0-0.2-0.3-0.2-0.5
	c0-0.9,0-1.7,0.2-2.5c0-0.2,0.6-0.6,0.9-0.6c0.7-0.1,1.3,0.3,1.6,0.9c0.8,1.7,1.3,3.6,0.9,5.6c-0.2,1.1-0.5,2-1.6,2.7
	c-0.6,0.3-1.2,0.5-1.7,0c-1-0.9-2.1-1.7-2.7-2.8c-1.3-2.2-2.3-4.7-3.5-6.9c-0.3-0.6-0.7-1.2-1.2-1.6c-1-0.7-2.1-1.3-3.2-1.9
	c-0.8-0.5-1.6-1.1-2.1-1.9c-1-1.7-1.6-3.6-1.7-5.6c0-0.2,0.2-0.4,0.3-0.7c0.2,0.1,0.5,0.3,0.5,0.5c0.5,1.6,0.9,3.2,1.6,4.7
	c0.3,0.8,1.1,1.5,1.7,2c1,0.7,2.2,1.2,3.2,1.8c1.3,0.8,1.8,2.2,2.4,3.5c0.9,1.9,1.7,3.9,2.8,5.7c0.5,0.9,1.4,1.6,2.2,2.4
	c0.4,0.4,1.1,0.1,1.4-0.6c0.6-1.2,0.7-2.4,0.5-3.6c-0.1-0.9-0.5-1.7-0.8-2.6C528.9,535.5,528.7,535.3,528.4,535z"/>
<path d="M481.5,539.3c-0.3,1.8-0.6,3.6-1,5.4c-0.3,1.3-1.1,1.4-2,0.5c-1.7-1.6-2.1-3.6-1.6-5.8c0.3-1.4,0.4-2.7,0.5-4.1
	c0.2-1.5-0.6-2.6-1.6-3.6c-1.3-1.3-1.9-2.8-2.2-4.5c-0.2-1.3,0.3-2.5,1.4-3.3c0.2-0.2,0.7-0.2,0.9-0.1c1.4,0.7,2.5,1.9,3.1,3.3
	c0.8,2,1.6,4.1,2,6.2C481.3,535.2,481.3,537.2,481.5,539.3z M479.5,544.9c0.1-0.3,0.3-0.5,0.4-0.7c0.5-2.8,0.8-5.5,0.5-8.4
	c-0.3-2.5-1-4.8-1.8-7.1c-0.5-1.6-1.5-2.9-2.7-3.9c-0.5-0.4-0.9-0.4-1.2,0.2c-0.6,1.2-0.3,2.4,0.1,3.4c0.4,1,1.1,1.9,1.8,2.7
	c1.3,1.5,1.7,3.2,1.5,5c-0.2,1.3-0.5,2.6-0.7,3.9C477.2,542.1,477.9,543.7,479.5,544.9z"/>
<path d="M551.6,517.1c0.8-0.8,1.6-1.6,2.3-2.4c1-1.3,2.5-1.6,3.8-2.2c1.2-0.4,2.5-0.8,3.7-0.9c1.7-0.2,2.9,1,3.1,2.8
	c0.2,2.2-0.4,4.1-2.1,5.7c-0.9,0.9-2,0.8-3.2,0.8c-0.4,0-0.8,0-1.3-0.1c-1.7-0.3-3.2,0.2-4.4,1.4c-0.3,0.3-0.7,0.6-1.1,0.9
	c-1.1,0.9-2.5,0.5-3.2-0.7c-1.1-1.9-0.1-4,0.8-5.2C550.6,516.5,551.1,516.5,551.6,517.1z M563.5,515.2c0-0.2,0-0.4,0-0.6
	c0-1.3-1.1-2.5-2.2-2.2c-1.4,0.3-2.9,0.7-4.2,1.3c-1.1,0.4-2.1,1.1-2.9,2.1c-0.9,1-1.7,2.5-3.4,2.5c-0.1,0-0.2,0.1-0.3,0.3
	c-0.7,0.9-0.7,2.4-0.2,3.3c0.6,0.9,1,1,1.9,0.3c0.2-0.2,0.5-0.4,0.8-0.6c1.6-1.6,3.4-2.3,5.7-1.6c1,0.3,2.1,0.3,3-0.4
	C562.9,518.4,563.6,517,563.5,515.2z"/>
<path d="M445.4,528.3c0.1,3-1.9,6.5-5.4,7.3c-1,0.2-2.5-0.4-2.9-1.4c-0.4-1-0.9-2-1.1-3.1c-0.3-1.5,0.6-2.6,1.5-3.6
	c1.3-1.6,1.9-3.4,2.4-5.4c0.3-1.2,0.6-2.4,0.8-3.6c0.1-0.6,0.3-1.1,0.9-1c0.5,0.1,1.3,0.3,1.5,0.7c1.3,2.3,2,4.8,2,7.5
	C445.3,526.6,445.4,527.4,445.4,528.3z M444.7,527.8c-0.2-2-0.2-4.5-1.2-6.8c-0.3-0.7-0.7-1.5-1.1-2.1c-0.1-0.1-0.4-0.3-0.6-0.2
	c-0.1,0-0.3,0.3-0.3,0.5c-0.2,1.1-0.5,2.1-0.7,3.2c-0.3,2.4-1.4,4.4-2.8,6.2c-1,1.3-1.3,2.5-0.7,4c0.1,0.3,0.2,0.6,0.3,0.9
	c0.5,1.2,1.4,1.8,2.5,1.5c0.9-0.3,1.8-0.6,2.4-1.2C443.9,532.1,444.8,530.4,444.7,527.8z"/>
<path d="M535.8,462.9c-0.1-0.1-0.3-0.3-0.3-0.4c0-0.1,0.2-0.3,0.4-0.4c0.8-0.3,1.9,0.1,2.6,1c0.8,1.1,1.6,2.1,2.4,3.2
	c1,1.3,1.4,2.9,1.7,4.4c0.2,1.1,0.5,2.1,0.7,3.2c0.2,1.1,0.2,2.2-0.7,3.1c-1,1-2.5,1.1-3.6,0.3c-2.2-1.6-3.3-3.9-3.9-6.4
	c-0.5-2.3-0.6-4.6,0-6.9C535.4,463.7,535.6,463.3,535.8,462.9z M536.6,462.8c-0.1,0.5-0.1,0.8-0.2,1.1c-0.2,1-0.6,1.9-0.6,2.9
	c0,1.2,0.1,2.4,0.3,3.5c0.4,2.6,1.5,4.8,3.6,6.4c1.2,0.9,2.5,0.4,2.7-1.1c0.1-0.6,0-1.3-0.1-2c-0.2-1.1-0.5-2.3-0.8-3.3
	c-0.3-0.9-0.5-1.9-1.1-2.7c-0.8-1.4-1.8-2.6-2.7-3.8C537.4,463.4,537,463.1,536.6,462.8z"/>
<path d="M437.4,485.8c-0.6-1.7,0.2-3.3,0.5-5c0.1-0.7,0.1-1.6,1.2-1.6c0.6,0,1.6,1.3,1.5,2.2c0,1.9,0.1,3.8,0.8,5.5
	c0.5,1.2,1.2,2.3,1.6,3.5c0.4,1.1,0.6,2.2,0.7,3.3c0.1,0.8-0.4,1.5-1.2,1.7c-0.7,0.2-1.3-0.1-1.7-0.7c-0.8-0.8-1.7-1.6-2.5-2.5
	c-0.3-0.3-0.4-0.8-0.5-1.2c-0.3-1.8-0.5-3.6-0.7-5.4C437.3,485.8,437.4,485.8,437.4,485.8z M438.1,486.5c0.2,1.2,0.4,2.6,0.7,4
	c0.1,0.6,0.4,1.3,0.9,1.8c0.7,0.8,1.5,1.4,2.3,2.1c0.1,0.1,0.7,0,0.8-0.1c0.1-0.5,0.3-1.1,0.2-1.6c-0.2-1.1-0.5-2.2-1.1-3.1
	c-1.4-2.4-2-4.9-2-7.6c0-0.4-0.1-0.9-0.3-1.4c0-0.2-0.3-0.3-0.4-0.4c-0.1,0.2-0.3,0.4-0.4,0.6C438.6,482.6,438.4,484.4,438.1,486.5z
	"/>
<path d="M437.8,474.4c-0.1,0.2-0.1,0.4-0.3,0.5c-1.3,1.2-1.9,2.9-2.1,4.5c-0.4,2.7-0.5,5.5-0.5,8.2c0,3.6,0.3,7.2-0.6,10.8
	c-0.8,3-2.2,5.8-3.6,8.6c-0.1,0.2-0.4,0.3-0.7,0.4c0-0.3-0.1-0.6,0-0.8c0.6-1.6,1.3-3.1,2-4.6c1.1-2.2,1.8-4.5,1.9-6.9
	c0.1-2.7,0-5.3,0-7.9c0.1-2.8-0.1-5.7,0.8-8.5c0.5-1.5,1.3-2.9,2-4.4c0.1-0.2,0.5-0.3,0.8-0.3C437.5,474,437.7,474.3,437.8,474.4z"
	/>
<path d="M454.6,483.9c1,0.3,2,0.9,2.6,1.7c1.2,1.6,2.3,3.3,3.2,5.1c0.9,1.9,1.4,3.9,0.8,6.1c-0.4,1.7-2.2,3-3.9,2.8
	c-1-0.1-1.6-1-1.4-2c0.6-2.5-0.3-4.6-2-6.4c-0.5-0.5-0.8-1.3-1-2c-0.4-1.5-0.4-3,0.5-4.3C453.7,484.5,453.6,483.7,454.6,483.9z
	 M460.7,494.6c0-0.3,0-0.6-0.2-1c-0.8-1.7-1.5-3.5-2.4-5.1c-0.7-1.2-1.7-2.2-2.7-3.2c-0.7-0.7-1-0.6-1.5,0.3
	c-0.8,1.4-0.6,3.7,0.6,5.1c1.4,1.5,2.3,3.2,2.4,5.3c0,0.4,0,0.8,0,1.2c0,0.5,0,1.3,0.2,1.3c0.5,0.2,1.2,0.2,1.6,0
	C460.4,497.8,460.6,496.3,460.7,494.6z"/>
<path d="M462.5,506.1c0.2-0.5,0.3-1,0.6-1.4c1-1.2,1.9-2.4,3.2-3.3c1.5-1.2,3-2.3,5-2.5c0.8-0.1,1.6-0.4,2.5,0
	c1.8,1.1,3.5,4.4,1.4,6.6c-0.6,0.6-1.4,0.6-2.1,0.4c-0.4-0.1-0.8-0.2-1.3-0.3c-1-0.2-1.8-0.1-2.5,0.7c-0.9,1-1.8,1.9-3.3,2
	c-0.4,0-0.9,0.3-1.4,0.3C463.3,508.5,462.7,507.7,462.5,506.1z M475.2,502.9c0.1-1.3-0.8-2.1-1.6-3c-0.4-0.3-1.2-0.5-1.7-0.4
	c-1.5,0.1-2.8,0.9-4.1,1.6c-1.7,1-2.7,2.7-4,4.1c-0.5,0.6-0.3,1.2,0,1.6c0.2,0.3,0.7,0.6,1.1,0.6c1.6,0,2.9-0.8,3.9-2
	c0.5-0.6,1-1.2,1.8-1.1c0.7,0,1.5,0.1,2.2,0.3C474.5,505.2,475.2,504.7,475.2,502.9z"/>
<path d="M499.4,512.4c0.1,3.1-0.1,5.4-1,7.8c-0.4,1.1-0.9,2.1-1.4,3.2c-0.1,0.2-0.3,0.4-0.5,0.6c-0.3,0.2-0.7,0.6-1,0.1
	c-0.1-0.1,0.2-0.5,0.3-0.8c0.3-0.5,0.7-1,0.9-1.5c1.2-2.8,1.6-5.7,1.6-8.7c0-2.6,0.2-5.2,1.5-7.6c0.4-0.7,0.9-1.5,1.4-2.1
	c0.8-1,2.1-1,3.4-0.1c1.6,1,2.4,2.6,3.1,4.2c0,0.1-0.1,0.4-0.1,0.6c-0.3-0.1-0.8-0.2-1-0.4c-0.4-0.6-0.6-1.4-1-2
	c-0.6-0.9-1.4-1.8-2.7-1.9c-0.3,0-0.8,0.1-1,0.4c-1,0.8-1.6,2-1.8,3.2C499.9,509.1,499.6,511,499.4,512.4z"/>
<path d="M455.2,542c-0.8-0.4-1.4-0.9-2.1-1c-0.6-0.1-1.2,0.2-1.8,0.4c-0.2,0-0.4,0.1-0.6,0.2c-1.5,0.7-2.4,0-3.2-1.1
	c-0.7-0.9-1.6-1.6-2.8-1.9c-0.8-0.2-1.6,0-2.1,0.5c-1.5,1.5-3,3.1-4.5,4.6c-0.6,0.6-1.3,1.3-2,1.7c-1.2,0.9-3,0.7-4-0.4
	c-1-1.1-1.9-2.2-2.8-3.4c-0.1-0.1,0-0.5,0-0.8c0.2,0.1,0.5,0.1,0.7,0.3c0.9,0.9,1.6,1.9,2.5,2.9c1.3,1.3,2.5,1.4,3.8,0.1
	c1.1-1.1,2.1-2.2,3.2-3.3c1.1-1,2.1-2.1,3.3-2.9c0.5-0.3,1.4-0.4,2-0.3c1.3,0.2,2.4,0.9,3.2,2.1c0.8,1.3,1.3,1.4,2.7,0.9
	c0.5-0.1,1-0.4,1.6-0.6c0.9-0.4,2.2,0,2.7,0.8C455.1,541.2,455.1,541.6,455.2,542z"/>
<path d="M448.3,554.8c-0.6,1.2-1.1,2.2-1.6,3.3c-0.6,1.3-1.3,2.6-2.8,3.1c-1,0.3-1.5,0.2-2-0.7c-0.5-0.9-0.9-1.9-1.2-3
	c-0.4-1.5-0.4-3.1-1.5-4.4c-1.2-1.4-2.4-2.7-4.5-2.2c-0.1,0-0.3-0.1-0.4-0.2c0.1-0.2,0.2-0.5,0.3-0.5c0.8-0.1,1.6-0.4,2.3-0.1
	c1.8,0.8,3.4,2,4.1,4.1c0.4,1.4,0.7,2.9,1,4.3c0.1,0.3,0.2,0.6,0.4,0.9c0.7,1.3,1.5,1.4,2.3,0.2c0.8-1.1,1.4-2.3,2-3.5
	c0.2-0.5,0.4-1,0.7-1.5c0.5-0.9,1.5-1.1,2.1-0.3c0.6,0.7,0.9,1.6,1.3,2.5c0,0.1-0.2,0.4-0.3,0.6c-0.2-0.1-0.5-0.2-0.5-0.3
	C449.5,556.2,449.3,555.4,448.3,554.8z"/>
<path d="M426,546.3c-0.3,0.7-0.5,1.5-0.9,2.1c-0.1,0.1-0.4,0.2-0.6,0.3c0-0.2,0-0.4,0-0.7c0.1-0.7,0.4-1.4,0.4-2.1
	c-0.1-2.1-0.7-4.1-1.6-6.1c-1.5-3.2-3-6.5-3.3-10.1c-0.2-2.3,0.1-4.4,1.2-6.4c0.3-0.5,0.7-1,1.1-1.5c0.1-0.1,0.5-0.1,0.7-0.2
	c0,0.2,0.1,0.4,0,0.7c0,0.1-0.1,0.2-0.2,0.3c-2.4,2.7-2.3,5.9-1.6,9.2c0.6,2.5,1.6,4.9,2.8,7.2c0.9,1.8,1.4,3.8,1.6,5.9
	C425.8,545.4,425.9,545.8,426,546.3C426,546.3,426,546.3,426,546.3z"/>
<path d="M431.7,477.7c0,0.1,0,0.3,0,0.4c-1.4,2.4-1.1,5.1-0.9,7.7c0.1,2.5,0.5,5,0.4,7.5c0,3.1-0.9,6-2.2,8.8
	c-0.2,0.5-0.3,1-0.6,1.5c-0.1,0.2-0.5,0.2-0.7,0.3c-0.1-0.2-0.3-0.6-0.2-0.7c1.4-2.7,2.5-5.5,2.8-8.6c0.1-1.1,0.1-2.3,0.1-3.4
	c-0.1-2.7-0.5-5.5-0.5-8.2c0-1.6,0.1-3.2,0.8-4.6C430.7,477.8,431,477.4,431.7,477.7z"/>
<path d="M561.8,485.2c0.2-1.3,0.1-2.8,1.2-4.2c0.8-1,1.8-1.6,3.1-1.9c0.7-0.1,2.7,1,3.1,1.7c0.8,1.7,1.1,3.5,0.4,5.4
	c-0.8,2.1-4,3.2-5.5,2.7C562.5,488.5,561.8,487.5,561.8,485.2z M568.9,484.5c-0.1-0.8-0.3-1.6-0.5-2.4c-0.1-0.7-0.5-1.3-1.3-1.5
	c-0.2-0.1-0.4-0.3-0.7-0.4c-0.3-0.1-0.6-0.1-0.9,0c-2.2,0.9-2.9,2.9-2.8,5.7c0,1,0.4,1.8,1.4,2.1c0.6,0.1,1.4,0,2.1-0.1
	C568,487.4,568.8,486.3,568.9,484.5z"/>
<path d="M499.6,471c0.2,0.5,0.4,1,0.6,1.5c0.9,2.9,2.2,5.6,3.7,8.2c1.6,2.8,4.2,4.2,7.4,4.4c0.9,0,1.8,0,2.7,0
	c0.2,0,0.5,0.1,0.7,0.2c0.2,0.2,0.3,0.4,0.5,0.7c-0.2,0.1-0.5,0.2-0.8,0.3c-2.2,0.1-4.5-0.2-6.6-1c-2-0.7-3.3-2-4.4-3.8
	c-1.8-3.1-3.2-6.3-4.3-9.7c-0.1-0.3,0-0.6,0.1-1C499.3,471,499.5,471,499.6,471z"/>
<path d="M436.2,516.1c-0.5,1.4-1,2.8-1.6,4.1c-0.5,1-1.6,1-2.4,0.3c-1.5-1.2-1.5-2.9-1.8-4.5c-0.1-0.7-0.1-1.4-0.2-2
	c-0.3-1.9,0.4-3.3,2.1-4.1c0.7-0.3,1.2,0,1.7,0.4c1.2,1.1,1.7,2.6,1.9,4.1c0,0.5,0.1,1,0.2,1.6C436,516,436.1,516,436.2,516.1z
	 M431.3,514.7c0,1.5,0,3,1,4.3c0.8,1.2,1.3,1.2,2,0c1.2-2.2,0.7-6.2-1-7.9c-0.1-0.1-0.4-0.2-0.6-0.2c-0.8,0-1.7,1-1.6,1.8
	C431.2,513.3,431.2,514.1,431.3,514.7z"/>
<path d="M513.6,482c-0.8-0.1-1.8-0.3-2.9-0.3c-2.3-0.1-3.7-1.6-5-3.2c-0.6-0.8-1.3-1.5-1.7-2.3c-0.6-1-1-2.1-1.5-3.2
	c-0.4-0.9-0.9-1.8-1.3-2.8c-0.1-0.2,0-0.6,0-0.9c0.2,0.1,0.6,0.2,0.7,0.4c0.5,1,1.1,2,1.5,3.1c1.2,3,3,5.5,5.6,7.3
	c0.7,0.4,1.6,0.6,2.5,0.6c1.5,0.1,2.9,0,4.4,0c0.3,0,0.6,0.2,0.9,0.3c-0.2,0.2-0.4,0.6-0.6,0.7C515.5,481.9,514.7,481.9,513.6,482z"
	/>
<path d="M454.9,504c0,0.3,0.1,0.7,0.1,1c0,2.1-0.4,4.2-1.3,6.2c-0.5,1-1.9,1.7-3.2,1.6c-0.6,0-1.3-0.2-1.9-0.2
	c-2.2,0-3.3,1.3-2.7,3.6c0.2,0.7,0.7,0.8,1.3,0.7c0.8-0.1,1.5-0.2,2,0.5c0.6,0.8,0.9,1.6,0.7,2.6c0,0.2-0.3,0.4-0.5,0.6
	c-0.1-0.2-0.3-0.5-0.3-0.7c-0.1-0.5-0.1-1.1-0.3-1.5c-0.2-0.5-0.7-0.8-1.3-0.6c-1.6,0.5-2.4-0.6-2.5-2c-0.3-3.4,2.8-4.4,5.3-3.9
	c1.6,0.3,2.6-0.1,3.2-1.7c0.6-1.7,0.7-3.5,0.9-5.3c0-0.3,0.1-0.6,0.2-0.8C454.7,503.9,454.8,504,454.9,504z"/>
<path d="M545.9,517.1c0.1,2.2-0.6,3.8-2.2,4.8c-0.8,0.5-1.9,0.6-2.9,0.7c-0.8,0-1.4-1.3-1.2-2.1c0.3-1.2,0.5-2.4,0.5-3.6
	c0-1.6,0.7-2.9,1.8-3.9c0.3-0.3,1-0.3,1.5-0.1c0.5,0.2,1.1,0.7,1.4,1.3C545.4,515.1,546.1,516.1,545.9,517.1z M545,517.7
	c0-1.6-0.6-2.8-1.6-3.8c-0.5-0.6-1-0.4-1.3,0c-0.4,0.7-0.8,1.6-0.9,2.4c-0.2,1.3-0.3,2.6-0.5,3.8c-0.2,0.9,0.2,1.5,1.2,1.4
	c0.9,0,1.6-0.4,2.1-1.1C544.7,519.7,544.9,518.6,545,517.7z"/>
<path d="M533.6,480.6c0,1.1-0.1,2.2-1,3c-0.6,0.6-1.5,0.7-2.3,0.4c-1.3-0.5-1.8-1.6-2.3-2.8c-0.5-1.5-0.4-3.1,0-4.5
	c0.4-1.4,1.3-2,2.8-1.3C533,476.5,533.4,478.5,533.6,480.6z M532.6,480.9c0,0,0.1,0,0.1,0c-0.3-1.1-0.5-2.2-1-3.1
	c-0.3-0.6-1-1.1-1.6-1.5c-0.4-0.3-1,0-1.1,0.5c-0.4,1.7-0.7,3.5,0.3,5.2c0.4,0.7,1.6,1.5,2.1,1.4c0.6-0.1,1-0.8,1.1-2
	C532.6,481.1,532.6,481,532.6,480.9z"/>
<path d="M447.2,477.8c-0.1-1.4,1.2-2.5,2.1-3c0.1,0,0.3-0.1,0.4-0.1c0.2,0,0.5,0.1,0.7,0.2c1.3,0.4,2.5,1.1,2.9,2.5
	c0.3,1.1-0.2,3.2-1.5,4c-1.1,0.6-2,0.8-3,0.3c-1-0.5-1.4-1.5-1.5-2.6C447.3,478.8,447.2,478.3,447.2,477.8z M448,478
	c0.2,0.7,0.3,1.4,0.5,2c0.3,0.9,1.4,1.4,2.3,1.1c1-0.3,1.8-1.5,1.8-2.7c0-1.2-0.6-1.9-1.7-2.3c-0.2,0-0.5-0.1-0.6-0.3
	c-0.5-0.8-0.9-0.3-1.4,0.1C448.3,476.5,447.9,477.1,448,478z"/>
<path d="M427.4,486.9c0.2,1.7,0.3,3.3,0.6,4.8c0.5,2.7,0.1,5.2-0.7,7.8c0,0.2-0.4,0.3-0.6,0.5c-0.1-0.3-0.4-0.7-0.3-0.9
	c0.7-1.1,0.8-2.4,0.8-3.5c0-2.4-0.3-4.8-0.6-7.1c-0.1-1.2-0.3-2.4-0.4-3.5c0-0.4,0-0.9,0.5-0.8c0.2,0,0.5,0.5,0.5,0.8
	C427.3,485.6,427.3,486.3,427.4,486.9z"/>
<path d="M534.4,537.5c0.1,3.2,0.2,5.3,0.8,7.5c0.1,0.5,0.2,1.2,0.2,1.7c0,0.2-0.1,0.4-0.2,0.6c-0.2-0.1-0.5-0.2-0.7-0.3
	c-0.1,0-0.1-0.2-0.1-0.4c-0.3-2.5-0.7-5-1-7.5c-0.2-2.1-0.3-4.3-1.6-6.1c-0.1-0.1,0-0.4,0-0.7c0.2,0,0.4,0,0.6,0
	c0.1,0.1,0.3,0.2,0.4,0.4C533.5,534.7,534.1,536.5,534.4,537.5z"/>
<path d="M549,467.3c0,0.6,0,1.1,0,1.6c0,0.8-0.5,1.4-1.5,1.6c-0.7,0.2-1.1-0.2-1.5-0.8c-0.9-1.3-1.2-2.8-1.3-4.3c0-0.1,0-0.3,0-0.5
	c0.1-0.4,0.2-0.8,0.5-1.1c0.1-0.1,0.6,0.1,1,0.2C548,464.5,548.8,465.7,549,467.3z M545.5,464.9c0,1.6,0.5,3,1.3,4.3
	c0.1,0.2,0.4,0.4,0.6,0.3c0.2-0.1,0.5-0.3,0.5-0.6c0.1-0.5,0.1-1.1,0-1.6C547.9,466.2,546.7,465.1,545.5,464.9z"/>
<path d="M475.8,485.3c-2.2-0.3-3.8-3-2.5-4.8c0.5-0.6,0.8-1.5,1.6-1.5c1.1,0,2,0.6,2.5,1.6c0.4,0.7,0.7,1.5,1,2.3
	c0.2,0.5-0.4,1.5-1.1,1.8C476.9,484.9,476.3,485.1,475.8,485.3z M475.7,484.2c0.3,0,0.6-0.1,0.9-0.1c0.8-0.1,1.2-0.7,0.9-1.5
	c-0.4-1.1-1-2.2-2.1-2.8c-0.5-0.2-0.8-0.1-1.2,0.2c-0.1,0.2-0.3,0.5-0.4,0.7C473.3,482.1,474.4,484.2,475.7,484.2z"/>
<path d="M471.1,473.7c-0.7-0.2-0.6-0.5-0.1-0.8c0.9-0.6,2-1,3-0.5c1.1,0.6,1.4,1.7,1.2,3c-0.2,1.2-0.6,1.6-2,2c-1,0.2-1.6,0-2.2-1
	C470.3,475.8,470.4,474.7,471.1,473.7z M472.3,476.7c1.5-0.1,2.3-1.1,1.9-2.4c-0.1-0.4-0.6-1-1-1.2c-0.4-0.2-1-0.1-1.1,0.6
	c0,0.1-0.3,0.1-0.4,0.2c-0.2,0.6-0.5,1.2-0.4,1.7C471.4,476.2,472,476.4,472.3,476.7z"/>
<path d="M567,472c1.5,0.1,2.5,1,2.3,2.2c-0.1,1.6-1.4,2.6-2.9,2.5c-1-0.1-1.8-1.2-1.6-2.4C564.9,473,565.8,471.7,567,472z
	 M566.8,475.8c0.8,0,1.5-0.6,1.5-1.5c0-0.8-0.6-1.5-1.6-1.5c-0.5,0-1,0.7-1,1.5C565.7,475.1,566.2,475.8,566.8,475.8z"/>
<path d="M465.6,473.6c0.1,0.3,0.4,0.6,0.5,1c1,2.3,2,4.6,3,6.8c0.3,0.7,0.8,1.4,1.1,2c0.1,0.2,0,0.7-0.2,0.8
	c-0.4,0.3-0.5-0.1-0.6-0.4c-1.4-3.1-2.8-6.2-4.2-9.3C465,474.1,464.9,473.8,465.6,473.6z"/>
<path d="M463,486.5c-0.1,0.1-0.2,0.3-0.3,0.3c-0.2,0-0.5-0.1-0.6-0.2c-0.3-0.7-0.6-1.4-1-2.1c-1.1-2.5-2.3-5-3.3-7.5
	c-0.1-0.2,0-0.6,0-0.9c0.2,0.2,0.6,0.3,0.7,0.6c0.7,1.5,1.3,3,2,4.4c0.8,1.6,1.6,3.2,2.4,4.8C462.9,485.9,462.9,486.1,463,486.5z"/>
<path d="M553.8,528c-1.2,0-1.5-0.3-1.2-1.5c0.2-1.1,0.4-2.2,1.6-2.8c0.5-0.2,0.9-0.5,1.3,0.2c0,0.1,0.3,0.2,0.4,0.4
	c1,0.7,1.1,1.6,0.2,2.3C555.3,527.2,554.8,528.1,553.8,528z M554.6,524.3c-0.1,0-0.2,0-0.3,0c-0.3,0.9-0.7,1.8-1,2.8
	c0.8,0,2.2-0.8,2.2-1.3c0-0.4-0.4-0.7-0.7-1.1C554.6,524.5,554.6,524.4,554.6,524.3z"/>
<path d="M530.3,490.2c0-0.2,0-0.5,0-0.7c0.2-0.5,0.3-1.1,0.7-1.3c1-0.4,1.6-0.2,2.1,0.5c1,1.4,0.9,2.6-0.4,3.8
	c-0.3,0.3-1,0.4-1.4,0.3c-0.4-0.1-0.8-0.5-0.9-0.9C530.3,491.3,530.3,490.7,530.3,490.2C530.3,490.2,530.3,490.2,530.3,490.2z
	 M531.5,488.5c-0.6,0.7-0.6,1.1-0.3,2.6c0,0.3,0.3,0.7,0.6,0.8c0.1,0,0.6-0.3,0.7-0.5C533.2,490.3,532.9,489.6,531.5,488.5z"/>
<path d="M460.7,474.1c0.6-0.3,0.9,0,1.1,0.4c1,2.2,2,4.5,3.1,6.7c0.3,0.7,0.8,1.3,1.1,1.9c0.1,0.2,0,0.5-0.1,0.8
	c-0.2-0.1-0.6-0.2-0.7-0.4c-1-2-1.9-4-2.9-6.1C461.7,476.4,461.2,475.2,460.7,474.1z"/>
<path d="M452.5,505.5c-0.1-0.6-0.3-1.1-0.3-1.6c-0.1-2.4,0-4.8,0.7-7c0,0,0-0.1,0-0.1c0.3-0.3,0.6-0.6,0.9-0.8c0,0.3,0,0.8,0,1.1
	c-0.8,2.2-0.8,4.6-0.7,6.8C453,504.4,453.3,505,452.5,505.5z"/>
<path d="M519.3,480.5c0-1.2,0.5-1.6,2-1.6c0.7,0,1.3,0.7,1.3,1.5c0,0.8-1.1,1.7-2.1,1.8C519.8,482.3,519.3,481.5,519.3,480.5z
	 M521.9,480.5c-0.4-0.3-0.6-0.7-0.8-0.6c-0.3,0.1-0.6,0.4-0.9,0.6c0.2,0.2,0.4,0.7,0.5,0.7C521.1,481.1,521.3,480.9,521.9,480.5z"/>
<path d="M489.2,465.3c-1.7-0.1-3.3-0.1-5-0.3c-0.2,0-0.4-0.3-0.5-0.5c0.2-0.2,0.4-0.5,0.7-0.5c1.8,0.1,3.5,0.3,5.3,0.5
	c0.1,0,0.2,0.3,0.4,0.5c-0.2,0.2-0.5,0.3-0.7,0.5C489.2,465.4,489.2,465.3,489.2,465.3z"/>
<path d="M484.5,467.7c0-0.8,0.2-1.1,0.9-1.1c1.3-0.1,2.5-0.4,3.7-0.6c0.2,0,0.7,0.1,0.8,0.3c0.2,0.4-0.1,0.6-0.5,0.7
	c-0.4,0-0.8,0.1-1.1,0.1c-1,0.1-2,0.3-3,0.4C485,467.6,484.7,467.6,484.5,467.7z"/>
<path d="M462,529.2c0.1-0.2,0.2-0.6,0.2-0.6c0.4,0,0.9,0,1.1,0.3c0.6,0.7,0.5,1.5-0.1,2.1c-0.4,0.4-0.8,0.6-1.3,0.3
	c-0.6-0.3-0.9-0.8-0.8-1.4C461.2,529.4,461.5,529.2,462,529.2c0,0.2,0,0.4,0,0.6c0,0.2,0,0.5,0.2,0.6c0.1,0.1,0.5,0.1,0.5,0
	c0.1-0.1,0.2-0.5,0.1-0.6C462.6,529.6,462.3,529.5,462,529.2z"/>
<path d="M490.6,469.3c-0.6,1-1.5,0.9-2.3,1c-0.7,0-1.5-0.1-2.2-0.3c-0.1,0-0.2-0.2-0.3-0.4c0,0,0.2-0.3,0.3-0.3
	c1.4,0,2.8-0.1,4.2-0.1C490.3,469.1,490.4,469.2,490.6,469.3z"/>
<path d="M465.6,535.3c-0.1,0.5-0.1,0.8-0.3,1c-0.2,0.3-0.6,0.4-1,0.7c-0.1-0.2-0.4-0.5-0.5-0.8c-0.1-0.3-0.2-0.6-0.1-0.9
	c0.2-0.4,0.5-0.7,0.8-1.1C464.9,534.6,465.3,535,465.6,535.3z"/>
<path d="M454,521.6c0,0.3,0.1,0.4,0.1,0.5c-0.6,0.9-1.3,1.7-2,2.5c0,0-0.4,0-0.7-0.1C452.3,523.4,452.5,522.1,454,521.6z"/>
<path d="M488.5,473.3c-0.2-0.1-0.4-0.3-0.7-0.5c0.2-0.1,0.5-0.3,0.8-0.5c0.3-0.1,0.7-0.3,1.1-0.3c0.2,0,0.5,0.2,0.8,0.4
	c-0.1,0.2-0.3,0.4-0.5,0.5C489.5,473.2,489.1,473.2,488.5,473.3z"/>
<path d="M453.3,525.6c0.2-0.2,0.4-0.5,0.6-0.7c0.5-0.4,1-0.9,1.5-1.3c0.1-0.1,0.4,0,0.7,0c0,0.2,0,0.5-0.1,0.6
	c-0.6,0.5-1.2,1-1.8,1.5c-0.2,0.1-0.5,0.1-0.7,0.2C453.4,525.7,453.4,525.6,453.3,525.6z"/>
<path d="M458.4,526.5c0,0.6-1.6,1.4-1.9,1.1c-0.1-0.1-0.1-0.4,0-0.5c0.5-0.3,1-0.6,1.6-0.9C458.1,526.2,458.3,526.4,458.4,526.5z"/>
<path fill="#FFFFFF" d="M508.5,462.4c-0.8-1.4-1.5-2.6-2.1-3.9c-1.2-2.1-2.4-4.2-3.4-6.3c-0.8-1.5-1.5-3.1-2.1-4.7
	c-0.7-1.6-1.5-3.2-2.1-4.8c-0.1-0.3,0-0.8,0.1-1c0.7-0.9,1.5-1.7,2.3-2.6c4.5,5.1,8.9,10.2,13.2,15.2
	C512.3,457,510.4,459.6,508.5,462.4z"/>
<path fill="#FFFFFF" d="M513.8,457c1,3.4,1.9,6.8,2.9,10.3c0.2,0.7,0.5,1.4,0.7,2c0.1,0.4,0.1,0.9,0,1.3c-0.6,1.3-1.2,2.6-1.9,3.9
	c-0.1,0.2-0.6,0.5-0.8,0.4c-2.2-0.2-4.4-0.4-6.3-1.3c-0.3-0.1-0.5-0.4-0.6-0.7c-0.2-0.6-0.2-1.3-0.3-1.9c-0.3-1.4-0.8-2.7-1.1-3.9
	c0.4-0.5,0.9-1.1,1.4-1.6c1.4-1.9,2.7-3.9,4-5.8c0.5-0.7,1.1-1.5,1.6-2.2c0.1-0.2,0.1-0.4,0.2-0.7
	C513.4,456.8,513.6,456.9,513.8,457z"/>
<path fill="#FFFFFF" d="M502.2,438.6c0.7,0.1,1.5,0.1,2.2,0.3c1.5,0.4,2.9,0.5,4.4,0.4c1.3-0.1,2.6,0,3.9-0.1c0.7,0,1.2,0.2,1.6,0.7
	c0.7,1.1,1.2,2.3,2,3.3c1.1,1.6,0.6,3.2,0.5,4.8c-0.1,1.9-0.2,3.7-0.4,5.6c0,0.3-0.1,0.7-0.1,1.3c-4.8-5.5-9.4-10.8-14.1-16.1
	C502.2,438.8,502.2,438.7,502.2,438.6z"/>
<path fill="#FFFFFF" d="M523.5,456.2c-0.7,0-1.2,0-1.6-0.1c-1.4-0.3-2.8-0.7-4.2-1c-0.5-0.1-0.6-0.2-0.6-0.7
	c0.2-2.2,0.4-4.4,0.6-6.6c0.1-1,0.1-2,0.1-3c0-1,0.6-1.6,1.4-2.4c0.2,0.6,0.5,1.1,0.7,1.6c0.4,1.5,0.7,3.1,1.1,4.6
	c0.6,2,1.4,4.1,2.1,6.1C523.2,455.3,523.3,455.7,523.5,456.2z"/>
<path fill="#FFFFFF" d="M514.4,455.8c3-0.2,5.7,1,8.6,1.5c-2.3,1.6-4.6,3.1-6.9,4.7C515.6,460,515,457.9,514.4,455.8z"/>
<path fill="#FFFFFF" d="M523.4,458.5c-1.7,3.3-3.4,6.6-5.2,10.1c-0.6-2-1.1-4-1.6-5.9c2.2-1.5,4.5-3,6.7-4.4
	C523.3,458.4,523.3,458.5,523.4,458.5z"/>
<path fill="#FFFFFF" d="M501.8,452c2,3.8,4,7.6,6,11.3c-0.5,0.8-1,1.6-1.6,2.6c-0.2-0.3-0.4-0.5-0.5-0.8c-1.1-3.1-2.2-6.1-3.3-9.1
	c-0.4-1.1-0.7-2.1-1-3.2c0-0.2,0-0.5,0-0.8C501.6,452.1,501.7,452.1,501.8,452z"/>
<path fill="#FFFFFF" d="M469.8,555.1c-1-1.4-1.9-2.6-3-4c0.9-1,1.9-2,3-3.2C469.8,550.3,469.8,552.6,469.8,555.1z"/>
<path fill="#FFFFFF" d="M518.5,441.7c-0.4,0.5-0.8,0.9-1.2,1.4c-0.4-0.8-0.7-1.4-1-2.1c0,0,0.1-0.1,0.1-0.2
	C517.1,441.2,517.7,441.5,518.5,441.7z"/>
<path fill="#FFFFFF" d="M538.4,509.3c0.5-2.2,1.8-4,3.3-5.6c0.6-0.7,1.5-1.1,2.6-0.9c2,0.3,4,0.6,6,0.9c2.5,0.3,4.8-0.5,7-1.6
	c1.2-0.6,2.4-1.1,3.8-0.7c0.9,0.2,1.6,1.6,1,2.3c-1,1.2-1.9,2.5-3.1,3.5c-2.3,1.8-4.7,3.5-7.1,5.1c-2.2,1.5-3.5,0.6-4.9-1.4
	c-0.5-0.7-1-1.5-1.5-2.3c-0.7-1-1.7-1.6-2.8-1.6c-0.8,0-1.7,0.4-2.5,0.9C539.5,508.2,539,508.8,538.4,509.3z M551,506.2
	c0,0,0.1,0.1,0.1,0.2c0.8-0.3,0.9,0.3,1.1,0.7c0.2,0.6-0.4,1.6-1.1,1.8c-0.3,0.1-0.8-0.1-1-0.4c-0.3-0.4,0-1.3,0.9-1.9
	c-0.1-0.2-0.3-0.5-0.6-0.9c-0.4,0.6-0.7,1-0.9,1.5c-0.4,0.7-0.5,1.4,0.1,2.1c0.6,0.6,1.3,0.7,2.3,0.2c1.2-0.6,1.7-2.6,0.8-3.5
	c-0.2-0.2-0.7-0.3-1.1-0.3C551.3,505.6,551.2,506,551,506.2z M557.9,504.5c-0.3-0.4-0.5-0.8-0.8-0.9c-0.3-0.1-1,0-1.1,0.2
	c-0.3,0.7-0.6,1.5-0.6,2.2c0,0.7,0.8,1,1.3,0.4C557.2,506,557.5,505.2,557.9,504.5z"/>
<path fill="#FFFFFF" d="M525.5,523.7c-0.9,0-1.6-0.3-2-1c-0.8-1.1-1.5-2.2-1.7-3.5c-0.3-1.5-1.8-2-3-1.1c-1.4,1-3,0.4-3.4-1.3
	c0-0.1,0.1-0.4,0.2-0.5c1.1-1.2,2.6-1.8,4.2-2.2c1.1-0.2,2.1-0.5,3.2-0.5c2.1,0,3.6,1.1,4.6,3c0.8,1.6,1.1,3.2,0.8,5
	C528.1,522.6,526.8,523.8,525.5,523.7z"/>
<path fill="#FFFFFF" d="M532.6,523c-0.3,1.2-0.7,2.9-1.3,4.6c-0.5,1.5-2,1.7-3.3,2c-1.6,0.4-2.4-0.5-2.4-1.7c0-0.8,0-1.6,0.2-2.4
	c0.1-0.4,0.4-0.8,0.7-1c1.3-0.5,2-1.6,2.5-2.8c0.5-1.6,0.3-3.2-0.3-4.7c-0.2-0.7-0.7-1.3-1-2c-0.2-0.7-0.4-1.6-0.4-2.3
	c0-0.3,0.5-0.8,0.8-1c0.3-0.1,0.9,0.2,1,0.5C531.1,515.5,532.4,518.8,532.6,523z"/>
<path fill="#FFFFFF" d="M479.5,544.9c-1.6-1.3-2.3-2.9-2-4.8c0.2-1.3,0.5-2.6,0.7-3.9c0.2-1.9-0.2-3.5-1.5-5
	c-0.7-0.8-1.4-1.7-1.8-2.7c-0.5-1.1-0.7-2.3-0.1-3.4c0.3-0.6,0.7-0.6,1.2-0.2c1.3,1.1,2.2,2.4,2.7,3.9c0.8,2.3,1.6,4.7,1.8,7.1
	c0.3,2.9,0,5.6-0.5,8.4C479.9,544.5,479.7,544.7,479.5,544.9z"/>
<path fill="#FFFFFF" d="M563.5,515.2c0.1,1.8-0.5,3.2-1.8,4.2c-0.9,0.7-1.9,0.7-3,0.4c-2.3-0.7-4.1,0.1-5.7,1.6
	c-0.2,0.2-0.5,0.4-0.8,0.6c-0.9,0.7-1.3,0.6-1.9-0.3c-0.6-0.9-0.5-2.4,0.2-3.3c0.1-0.1,0.2-0.2,0.3-0.3c1.7-0.1,2.5-1.5,3.4-2.5
	c0.9-1,1.8-1.6,2.9-2.1c1.4-0.5,2.8-0.9,4.2-1.3c1.1-0.3,2.2,0.9,2.2,2.2C563.5,514.8,563.5,515,563.5,515.2z"/>
<path fill="#FFFFFF" d="M444.7,527.8c0.1,2.6-0.8,4.3-2.2,5.7c-0.6,0.6-1.6,0.9-2.4,1.2c-1.1,0.3-1.9-0.3-2.5-1.5
	c-0.1-0.3-0.2-0.6-0.3-0.9c-0.6-1.5-0.3-2.7,0.7-4c1.5-1.8,2.5-3.8,2.8-6.2c0.1-1.1,0.4-2.1,0.7-3.2c0-0.2,0.2-0.5,0.3-0.5
	c0.2,0,0.5,0.1,0.6,0.2c0.4,0.7,0.8,1.4,1.1,2.1C444.5,523.3,444.4,525.8,444.7,527.8z"/>
<path fill="#FFFFFF" d="M536.6,462.8c0.4,0.3,0.8,0.6,1.1,0.9c1,1.3,1.9,2.5,2.7,3.8c0.5,0.8,0.8,1.7,1.1,2.7
	c0.3,1.1,0.6,2.2,0.8,3.3c0.1,0.6,0.2,1.3,0.1,2c-0.2,1.4-1.6,1.9-2.7,1.1c-2.1-1.6-3.2-3.8-3.6-6.4c-0.2-1.2-0.3-2.4-0.3-3.5
	c0-1,0.4-1.9,0.6-2.9C536.5,463.6,536.5,463.3,536.6,462.8z"/>
<path fill="#FFFFFF" d="M438.1,486.5c0.2-2.1,0.4-3.9,0.6-5.8c0-0.2,0.2-0.4,0.4-0.6c0.1,0.1,0.4,0.2,0.4,0.4
	c0.1,0.4,0.3,0.9,0.3,1.4c0,2.7,0.6,5.2,2,7.6c0.5,0.9,0.8,2,1.1,3.1c0.1,0.5,0,1.1-0.2,1.6c0,0.1-0.6,0.2-0.8,0.1
	c-0.8-0.6-1.6-1.3-2.3-2.1c-0.4-0.5-0.7-1.2-0.9-1.8C438.6,489.1,438.3,487.7,438.1,486.5z"/>
<path fill="#FFFFFF" d="M460.7,494.6c-0.1,1.6-0.3,3.2-1.9,3.8c-0.5,0.2-1.2,0.2-1.6,0c-0.2-0.1-0.2-0.9-0.2-1.3c0-0.4,0-0.8,0-1.2
	c0-2.1-1-3.8-2.4-5.3c-1.2-1.4-1.5-3.6-0.6-5.1c0.5-0.9,0.8-1,1.5-0.3c1,1,1.9,2,2.7,3.2c1,1.6,1.6,3.4,2.4,5.1
	C460.6,494,460.7,494.4,460.7,494.6z"/>
<path fill="#FFFFFF" d="M475.2,502.9c0.1,1.8-0.6,2.4-2.3,1.9c-0.7-0.2-1.5-0.2-2.2-0.3c-0.9-0.1-1.4,0.5-1.8,1.1
	c-1,1.2-2.3,2-3.9,2c-0.4,0-0.9-0.3-1.1-0.6c-0.3-0.5-0.5-1.1,0-1.6c1.3-1.4,2.3-3.1,4-4.1c1.3-0.7,2.6-1.5,4.1-1.6
	c0.6,0,1.3,0,1.7,0.4C474.4,500.7,475.2,501.7,475.2,502.9z"/>
<path fill="#FFFFFF" d="M568.9,484.5c0,1.8-0.9,2.9-2.6,3.2c-0.7,0.1-1.4,0.3-2.1,0.1c-1-0.2-1.4-1.1-1.4-2.1
	c-0.1-2.8,0.6-4.8,2.8-5.7c0.2-0.1,0.6,0,0.9,0c0.2,0.1,0.5,0.3,0.7,0.4c0.7,0.2,1.1,0.8,1.3,1.5
	C568.6,482.8,568.7,483.7,568.9,484.5z"/>
<path fill="#FFFFFF" d="M431.3,514.7c0-0.7-0.1-1.4-0.2-2.1c-0.1-0.8,0.8-1.8,1.6-1.8c0.2,0,0.4,0.1,0.6,0.2c1.7,1.7,2.2,5.8,1,7.9
	c-0.7,1.2-1.2,1.3-2,0C431.4,517.7,431.3,516.3,431.3,514.7z"/>
<path fill="#FFFFFF" d="M545,517.7c0,0.9-0.3,1.9-1,2.8c-0.5,0.7-1.2,1.1-2.1,1.1c-1,0.1-1.4-0.5-1.2-1.4c0.2-1.3,0.3-2.6,0.5-3.8
	c0.2-0.8,0.5-1.6,0.9-2.4c0.2-0.5,0.7-0.6,1.3,0C544.4,514.9,545,516.2,545,517.7z"/>
<path fill="#FFFFFF" d="M532.6,480.9c0,0.1,0,0.2,0,0.3c0,1.2-0.4,1.9-1.1,2c-0.6,0.1-1.7-0.6-2.1-1.4c-1-1.7-0.7-3.4-0.3-5.2
	c0.1-0.5,0.6-0.8,1.1-0.5c0.6,0.4,1.4,0.9,1.6,1.5c0.5,1,0.7,2.1,1,3.1C532.8,480.8,532.7,480.9,532.6,480.9z"/>
<path fill="#FFFFFF" d="M448,478c-0.1-0.9,0.3-1.5,0.9-2c0.4-0.4,0.8-0.9,1.4-0.1c0.1,0.1,0.4,0.2,0.6,0.3c1.2,0.3,1.7,1.1,1.7,2.3
	c0,1.3-0.7,2.4-1.8,2.7c-0.9,0.3-2-0.2-2.3-1.1C448.2,479.4,448.2,478.7,448,478z"/>
<path fill="#FFFFFF" d="M545.5,464.9c1.2,0.2,2.3,1.3,2.4,2.4c0,0.5,0,1.1,0,1.6c0,0.2-0.3,0.5-0.5,0.6c-0.1,0-0.4-0.1-0.6-0.3
	C546,467.9,545.6,466.5,545.5,464.9z"/>
<path fill="#FFFFFF" d="M475.7,484.2c-1.4,0-2.5-2.1-1.8-3.4c0.1-0.2,0.2-0.5,0.4-0.7c0.3-0.4,0.6-0.5,1.2-0.2
	c1.1,0.6,1.7,1.6,2.1,2.8c0.3,0.8,0,1.3-0.9,1.5C476.3,484.1,476,484.2,475.7,484.2z"/>
<path fill="#FFFFFF" d="M472.3,476.7c-0.3-0.3-1-0.6-1-1c0-0.5,0.2-1.2,0.4-1.7c0-0.1,0.4-0.1,0.4-0.2c0.1-0.7,0.7-0.8,1.1-0.6
	c0.4,0.2,0.9,0.7,1,1.2C474.6,475.7,473.8,476.6,472.3,476.7z"/>
<path fill="#FFFFFF" d="M566.8,475.8c-0.6,0-1.1-0.7-1.1-1.5c0-0.8,0.5-1.5,1-1.5c0.9,0,1.6,0.6,1.6,1.5
	C568.3,475.2,567.7,475.8,566.8,475.8z"/>
<path fill="#FFFFFF" d="M554.6,524.3c0,0.1,0.1,0.2,0.2,0.3c0.2,0.4,0.7,0.8,0.7,1.1c0,0.5-1.4,1.3-2.2,1.3c0.3-1,0.7-1.9,1-2.8
	C554.4,524.2,554.5,524.3,554.6,524.3z"/>
<path fill="#FFFFFF" d="M531.5,488.5c1.4,1.1,1.7,1.8,1.1,2.8c-0.1,0.2-0.6,0.6-0.7,0.5c-0.3-0.1-0.6-0.5-0.6-0.8
	C530.9,489.6,531,489.1,531.5,488.5z"/>
<path fill="#FFFFFF" d="M521.9,480.5c-0.5,0.3-0.8,0.6-1.2,0.7c-0.1,0-0.3-0.4-0.5-0.7c0.3-0.2,0.6-0.5,0.9-0.6
	C521.2,479.8,521.5,480.2,521.9,480.5z"/>
<path fill="#FFFFFF" d="M462,529.2c0.3,0.2,0.6,0.4,0.8,0.6c0.1,0.1,0,0.5-0.1,0.6c-0.1,0.1-0.4,0.1-0.5,0c-0.1-0.1-0.2-0.4-0.2-0.6
	C462,529.7,462,529.5,462,529.2C462,529.3,462,529.2,462,529.2z"/>
<path d="M551,506.2c0.1-0.2,0.3-0.6,0.4-0.6c0.4,0,0.9,0,1.1,0.3c0.9,1,0.4,3-0.8,3.5c-1,0.4-1.7,0.4-2.3-0.2
	c-0.6-0.7-0.4-1.4-0.1-2.1c0.2-0.4,0.6-0.9,0.9-1.5c0.2,0.4,0.4,0.7,0.6,0.9c-0.8,0.6-1.2,1.5-0.9,1.9c0.2,0.2,0.7,0.4,1,0.4
	c0.7-0.2,1.3-1.3,1.1-1.8c-0.1-0.4-0.3-1-1.1-0.7C551.1,506.4,551.1,506.3,551,506.2z"/>
<path d="M557.9,504.5c-0.4,0.7-0.7,1.5-1.2,2c-0.5,0.6-1.3,0.3-1.3-0.4c0-0.8,0.3-1.6,0.6-2.2c0.1-0.2,0.8-0.3,1.1-0.2
	C557.4,503.7,557.6,504.1,557.9,504.5z"/>
</svg>
