<?xml version="1.0" encoding="utf-8"?>
<!-- Generator: Adobe Illustrator 17.1.0, SVG Export Plug-In . SVG Version: 6.00 Build 0)  -->
<!DOCTYPE svg PUBLIC "-//W3C//DTD SVG 1.1//EN" "http://www.w3.org/Graphics/SVG/1.1/DTD/svg11.dtd">
<svg version="1.1" id="Layer_1" xmlns="http://www.w3.org/2000/svg" xmlns:xlink="http://www.w3.org/1999/xlink" x="0px" y="0px"
	 viewBox="250 250 500 500" enable-background="new 250 250 500 500" xml:space="preserve">
<path d="M688.2,659.7c0.1,1.3,0.2,2.4,0.3,3.5c0.3,2.1,1.3,3.4,3.4,3.3c2.3,0,4.5-0.6,5.9-2.8c0.6-1,1.2-2,2-2.7
	c1.6-1.4,2-3.3,2.1-5.1c0.1-2.3,0-4.7-0.6-6.9c-0.8-2.9-0.8-5.7-0.3-8.6c0.4-2.9,0.6-5.9-0.8-8.7c-0.9-1.9-2.8-2.3-4.3-0.6
	c-2.5,2.8-2,6.5-2.3,9.7c-0.3,3.3,0.4,6.7,0.5,10.1c0,1.2-0.2,2.5-2,2.3c-0.4-0.1-0.8,0.2-1.2,0.5
	C688.7,655.1,688.3,657.4,688.2,659.7z"/>
<path d="M664.8,644.4c-0.2,1.8,1,2,2.2,2.2c3.3,0.7,8.1-3.4,8.9-5.6c1.7-4.3,2.3-8.8,1.7-13.4c-0.5-3.6-1.2-7.1-1.4-10.7
	c-0.1-2.8,0.2-5.6,0.7-8.3c0.5-3,3.1-4.1,5.4-5.4c1.8-1,2.9-2.4,3.7-4.4c1.1-2.7,0.8-6,3-8.3c0.6-0.7,0.1-1.3-0.9-1.3
	c-1.7,0-2.4,1-2.6,2.8c-0.4,5.2-1.7,9.7-7.5,11.2c-0.4,0.1-0.9,0.4-1,0.8c-0.9,2.6-2.5,5.3-2.6,7.9c0,5.3,0.8,10.7,1.3,16
	c0.4,4.1,0.5,8.1-1.3,11.9c-1.4,3-4.5,4.9-7.8,4.7C666.1,644.5,665.5,644.4,664.8,644.4z"/>
<path d="M303,292.7c0.3,1.3,0.3,2.2,0.7,2.8c2.4,3.5,5,7,7.5,10.5c1.6,2.2,3.3,4.4,5,6.4c1.2,1.4,3.1,2.8,4.8,2.1
	c1.7-0.6,1.1-2.8,0.9-4.3c0-0.4-0.2-0.8-0.4-1.1c-1.5-2.7-3-5.3-4.4-8c-2.2-4.4-4.5-8.8-8.3-12.2c-1.3-1.2-3-1.2-4,0.1
	C304,290.2,303.5,291.6,303,292.7z"/>
<path d="M705.7,654.6c0.3,2.3,0.4,4.9,1,7.3c0.5,2.1,2.8,3.7,4.7,2.2c1.3-1,2.5-2.1,2.8-3.9c0.8-4.9,0.7-9.7-1.3-14.2
	c-0.6-1.4-1-3.1-3.2-3.6c-1.7-0.4-2.3-0.5-2.5,1.2C706.6,647.2,706.2,650.8,705.7,654.6z"/>
<path d="M681.1,643.5c0.3-0.5,1-1.2,1.3-2c0.5-1.6,0.7-3.2,1.2-4.8c1.6-5.1,1.1-10.2,0-15.4c-0.6-2.7-1-5.5,0-8.3
	c0.5-1.4,1.4-2.6,2-3.9c0.2-0.4,0.1-1,0-1.4c0-0.1-0.7-0.3-0.8-0.2c-0.8,0.7-1.9,1.3-2.3,2.3c-1.4,3.4-2,7-1,10.7
	c1.4,5.1,1.7,10.2,0.5,15.4c-0.5,1.9-1.4,3.7-2.1,5.6C679.3,642.7,679.5,643.4,681.1,643.5z"/>
<path d="M701.4,682.7c-0.3-0.9-0.4-2.4-1.2-3.6c-1.2-1.8-2.8-3.6-5.2-3.6c-1.4,0-2.9,0.5-4.2,1c-0.4,0.1-0.8,0.7-1.1,1.2
	c-1.4,2.5-1.2,5.1-0.2,7.6c0.8,2.2,2.1,4.4,4.7,4.8C698.9,690.8,700.7,687.9,701.4,682.7z"/>
<path d="M682.8,646.8c1,1.2,1.8,1,2.5,0.1c0.9-1.2,1.8-2.5,2.5-3.8c0.8-1.6,1.8-3.3,2-5c0.3-2.5,0-5.1-0.2-7.7
	c-0.4-4.9-1.9-9.7,0.2-14.5c0.1-0.2-0.1-0.5-0.1-0.9c-1.3-0.3-2.5-0.1-2.5,1.3c-0.2,3.2-0.1,6.5,0,9.7c0.1,3.6,0.7,7.2,0.7,10.7
	C687.9,640.8,685.8,644,682.8,646.8z"/>
<path d="M290.3,286.2c0.2,0.5,0.3,1,0.5,1.4c2.3,3.9,4.6,7.8,7.1,11.5c7,10.1,15.1,19.4,23.5,28.3c1.6,1.7,3.3,3.3,5.1,4.9
	c0.9,0.8,2,1.2,3.2,1C314.4,319.3,301,303.9,290.3,286.2z"/>
<path d="M290.7,559.2c0.1,0,0.2,0.1,0.3,0.1c0,0.3,0,0.6,0,0.9c0.1,2.2,2.3,4.6,4.3,4.6s3.6-1.9,3.6-4.4c0-1.6-0.3-3.3-0.7-4.9
	c-0.3-1.3-3.1-2.9-4.4-2.7c-0.4,0.1-0.9,0.4-1.1,0.7C292,555.4,291.4,557.3,290.7,559.2z"/>
<path d="M290.8,539.5c0.2,2.4,1.6,4,3.7,3.9c2.3-0.1,4.2-2.7,4.2-5.5c0-2-1.9-3.7-4.2-3.6c-0.7,0-1.8,0.5-2.1,1.1
	C291.6,536.6,291.3,538.1,290.8,539.5z"/>
<path d="M704.2,675.4c2,0,4.2-2.2,3.6-3.8c-0.5-1.5-1.2-3-2-4.3c-0.2-0.4-1.1-0.6-1.6-0.6c-2.1,0.3-2.8,2-3.3,3.7
	C700.3,672.4,702.3,675.4,704.2,675.4z"/>
<path d="M299.4,577.4c0,1.6,0.9,2.6,2.3,2.6c1.7,0,3.8-2.4,3.6-4.4c-0.1-1.4-1.1-2.1-2.5-2.1C300.7,573.6,299.4,575.1,299.4,577.4z"
	/>
<path d="M688.2,659.7c0-2.3,0.4-4.7,2.8-6.2c0.4-0.2,0.8-0.5,1.2-0.5c1.9,0.3,2-1.1,2-2.3c-0.1-3.4-0.8-6.8-0.5-10.1
	s-0.2-6.9,2.3-9.7c1.4-1.7,3.3-1.3,4.3,0.6c1.4,2.8,1.2,5.8,0.8,8.7s-0.4,5.7,0.3,8.6c0.6,2.2,0.8,4.6,0.6,6.9
	c-0.1,1.8-0.6,3.7-2.1,5.1c-0.8,0.7-1.4,1.8-2,2.7c-1.4,2.2-3.6,2.8-5.9,2.8c-2.1,0-3.1-1.2-3.4-3.3
	C688.4,662.1,688.3,661,688.2,659.7z M698,632.2c-1.5,0.7-1.9,2.1-2,3.4c-0.2,3.5-0.2,7.1-0.1,10.6c0.1,2.8,0.8,5.6-0.5,8.4
	c-0.7,1.5-1.5,1.8-2.7,0.9c-0.9-0.6-1.2-0.3-1.7,0.5c-1.4,2.5-0.9,5-0.2,7.5c0.3,1.3,1.6,1.4,2.9,1c1.7-0.5,2.5-1.9,3.7-3.1
	c2.7-2.9,3.2-6.3,2.5-9.9c-0.9-4.4-1.2-8.7-0.7-13.1C699.2,636.4,699.7,634.2,698,632.2z"/>
<path d="M664.8,644.4c0.7,0.1,1.2,0.1,1.8,0.2c3.3,0.2,6.4-1.7,7.8-4.7c1.8-3.8,1.7-7.9,1.3-11.9c-0.5-5.3-1.3-10.7-1.3-16
	c0-2.6,1.6-5.3,2.6-7.9c0.1-0.3,0.6-0.7,1-0.8c5.8-1.5,7.2-6,7.5-11.2c0.1-1.9,0.9-2.8,2.6-2.8c0.9,0,1.5,0.6,0.9,1.3
	c-2.2,2.4-1.9,5.6-3,8.3c-0.8,2-1.9,3.5-3.7,4.4c-2.4,1.3-4.9,2.5-5.4,5.4c-0.5,2.7-0.8,5.5-0.7,8.3c0.2,3.6,0.9,7.1,1.4,10.7
	c0.6,4.6,0.1,9.1-1.7,13.4c-0.9,2.2-5.7,6.3-8.9,5.6C665.8,646.3,664.7,646.1,664.8,644.4z"/>
<path d="M303,292.7c0.5-1,1-2.5,1.9-3.7c1-1.4,2.7-1.3,4-0.1c3.7,3.4,6,7.7,8.3,12.2c1.4,2.7,3,5.3,4.4,8c0.2,0.3,0.4,0.7,0.4,1.1
	c0.1,1.6,0.7,3.7-0.9,4.3c-1.8,0.6-3.6-0.7-4.8-2.1c-1.8-2.1-3.4-4.2-5-6.4c-2.6-3.5-5.1-7-7.5-10.5
	C303.3,294.8,303.3,293.9,303,292.7z M319.5,312.6c0.3-0.1,0.5-0.3,0.8-0.4c-0.2-0.8-0.3-1.7-0.6-2.5c-1-2.1-2.1-4.2-3.3-6.2
	c-2.4-4.3-4.4-8.8-7.8-12.4c-0.5-0.6-1.3-0.9-2-1.3c-0.4,0.9-1.1,1.7-1.2,2.7c-0.3,2.4,1,4.3,2.4,6.1c2.7,3.3,5.3,6.7,8,10
	C316.9,310,318.2,311.3,319.5,312.6z"/>
<path d="M705.7,654.6c0.5-3.9,1-7.4,1.5-11c0.3-1.7,0.9-1.6,2.5-1.2c2.1,0.5,2.5,2.2,3.2,3.6c2,4.5,2.1,9.3,1.3,14.2
	c-0.3,1.8-1.5,2.9-2.8,3.9c-1.9,1.5-4.1-0.1-4.7-2.2C706.1,659.5,706,656.9,705.7,654.6z M709.4,644.2c-0.2,0.7-0.6,1.4-0.7,2.1
	c-0.2,1.3-0.4,2.7-0.6,4.1c-0.5,3.5-0.9,7,0.3,10.5c0.2,0.6,0.8,1.6,1.2,1.6c0.6,0,1.4-0.6,2-1.1c0.4-0.4,0.7-1,0.7-1.5
	c0.2-1.8,0.2-3.5,0.4-5.3C712.9,650.9,711.2,647.7,709.4,644.2z"/>
<path d="M681.1,643.5c-1.6-0.1-1.9-0.8-1.3-2c0.8-1.8,1.7-3.6,2.1-5.6c1.2-5.1,1-10.3-0.5-15.4c-1-3.7-0.4-7.3,1-10.7
	c0.4-0.9,1.5-1.6,2.3-2.3c0.1-0.1,0.8,0,0.8,0.2c0.1,0.5,0.2,1,0,1.4c-0.6,1.3-1.5,2.5-2,3.9c-1,2.7-0.6,5.5,0,8.3
	c1.1,5.1,1.6,10.2,0,15.4c-0.5,1.6-0.7,3.3-1.2,4.8C682.1,642.3,681.5,643,681.1,643.5z"/>
<path d="M701.4,682.7c-0.7,5.2-2.4,8.1-7.3,7.3c-2.6-0.4-3.8-2.6-4.7-4.8c-1-2.5-1.2-5.1,0.2-7.6c0.3-0.5,0.6-1,1.1-1.2
	c1.4-0.4,2.8-0.9,4.2-1c2.5,0,4,1.8,5.2,3.6C700.9,680.3,701.1,681.8,701.4,682.7z M692.3,682.3c-1.7,1-1,2.3-0.6,3.4
	c0.6,1.5,1.8,2.5,3.4,2.4c1.1-0.1,2.5-0.5,3.1-1.3c2.2-2.7,0.8-7.8-2.3-9.2c-1.3-0.6-3.5,0.1-4.2,1.5
	C691.3,680.1,690.3,681.4,692.3,682.3z"/>
<path d="M682.8,646.8c3-2.8,5-6,5.1-10c0-3.6-0.5-7.2-0.7-10.7c-0.1-3.2-0.2-6.5,0-9.7c0.1-1.3,1.3-1.6,2.5-1.3
	c0,0.3,0.2,0.6,0.1,0.9c-2.1,4.8-0.6,9.7-0.2,14.5c0.2,2.6,0.5,5.2,0.2,7.7c-0.2,1.7-1.2,3.4-2,5c-0.7,1.3-1.6,2.6-2.5,3.8
	C684.6,647.9,683.8,648,682.8,646.8z"/>
<path d="M290.3,286.2c10.6,17.8,24.1,33.1,39.4,47c-1.2,0.2-2.3-0.2-3.2-1c-1.7-1.6-3.5-3.2-5.1-4.9c-8.5-8.9-16.5-18.2-23.5-28.3
	c-2.6-3.7-4.8-7.7-7.1-11.5C290.6,287.1,290.5,286.6,290.3,286.2z"/>
<path d="M290.7,559.2c0.7-1.9,1.3-3.8,2-5.7c0.1-0.3,0.7-0.6,1.1-0.7c1.3-0.2,4.1,1.4,4.4,2.7c0.4,1.6,0.7,3.3,0.7,4.9
	c0,2.5-1.6,4.4-3.6,4.4s-4.2-2.4-4.3-4.6c0-0.3,0-0.6,0-0.9C290.9,559.3,290.8,559.3,290.7,559.2z M297,561
	c-0.3-1.8-0.4-3.2-0.8-4.7c-0.1-0.4-0.6-0.8-1-0.9c-0.2-0.1-0.8,0.2-1,0.4c-0.9,1.3-0.7,4.5,0.3,5.7c0.4,0.5,1,0.7,1.5,1.1
	C296.4,562,296.7,561.4,297,561z"/>
<path d="M290.8,539.5c0.5-1.4,0.8-2.9,1.5-4.1c0.3-0.6,1.4-1.1,2.1-1.1c2.3-0.1,4.1,1.6,4.2,3.6c0.1,2.8-1.9,5.3-4.2,5.5
	C292.4,543.5,291,541.9,290.8,539.5z M293.5,539.7c0.2,0.3,0.7,1,1.2,1.6c0.5-0.5,1.1-1,1.6-1.6c0.1-0.1,0.1-0.3,0.1-0.5
	c0.3-1.2,0.5-2.4-1.1-2.7c-1.5-0.3-1.5,1-1.6,2C293.7,538.7,293.6,539,293.5,539.7z"/>
<path d="M704.2,675.4c-1.8,0-3.9-3-3.3-5c0.5-1.7,1.3-3.4,3.3-3.7c0.5-0.1,1.4,0.2,1.6,0.6c0.8,1.4,1.4,2.8,2,4.3
	C708.4,673.2,706.2,675.4,704.2,675.4z M705.3,669.5c-0.2-0.1-0.5-0.2-0.7-0.3c-0.7,0.5-1.7,1-1.8,1.6c-0.1,0.7,0.5,1.7,1,2.3
	c0.2,0.2,1.7-0.2,1.7-0.3C705.6,671.7,705.4,670.6,705.3,669.5z"/>
<path d="M299.4,577.4c0-2.3,1.3-3.8,3.4-3.8c1.4,0,2.3,0.6,2.5,2.1c0.2,1.9-1.9,4.4-3.6,4.4C300.3,580,299.4,579,299.4,577.4z
	 M301.3,578c1.5,0.1,2-0.8,2.1-1.9c0-0.2-0.5-0.6-0.8-0.6C301.2,575.7,301.3,576.7,301.3,578z"/>
<path d="M444.6,349.6c5-5.9,9.6-11.4,14.3-16.9c1.6,1.4,3.1,3.1,3.1,5.3c0,4.8-0.5,9.6-0.5,14.3c0,2.2,0.5,4.5,0.9,6.7
	c1,5.1,4.2,9,7.3,12.9c2.8,3.5,5.6,6.9,8.7,10.1c2.8,2.9,6,5.4,9.8,6.7c1.7,0.6,3.7,0.3,5.6,0.4c0.1,1.3,0.2,3.1,0.4,4.9
	c0.2,1.2,0.6,2.3,1.1,3.4c0.5,1,1.2,1.4,2.5,1.2c2.2-0.4,3.9-1.6,5.4-3.5c0,2.2-0.2,4.3,0,6.2c0.3,3.1,0.4,6.2,2,9.1
	c0.7,1.4,1.6,1.9,3.1,1.8c2.7-0.2,4.9-1.3,6.5-3.4c-0.6,2.6-1.2,5.2-1.8,7.8c-0.8,3.5-0.9,7-0.1,10.6c0.5,2.2,0.4,4.6,0.2,6.8
	c-0.2,1.8-2,1.8-3.4,2c-3.6,0.7-5.2-2-6.9-4.3c-2.8-3.7-4.3-8-5.9-12.3c-1.5-3.8-2.8-7.7-4.7-11.3c-2-3.9-5.6-6.4-9.7-7.8
	c-1.8-0.7-5.4,1.1-5.9,3c-0.7,2.5-1.1,5-1.5,7.5c-0.7,4.9-1,9.8-3.4,14.4c-1.6,3.1-7.3,5.7-10.6,5.2c-3.5-0.5-7.1-0.8-10.7-0.8
	c-5.2,0-9.7,1.9-14.2,4.6c-5.4,3.3-10,7.8-16.1,9.9c-2.5,0.9-2.7,0.7-3.4-1.8c-2.5-8.9-5.2-17.7-7.4-26.7
	c-1.4-5.6-2.4-11.4-3.4-17.1c-0.1-0.6,0.4-1.5,0.9-1.8c4-2.6,8.1-4.9,12-7.5c3.7-2.5,7.2-5.2,10.7-7.9c4.9-3.8,9.7-7.8,14.5-11.6
	c1.3-1,1.4-1.4,1.1-3.7c-0.5,0.2-1.1,0.2-1.4,0.6c-0.9,1-1.6,2.1-2.5,3c-1.5,1.4-3.1,2.7-4.7,4c-5,3.9-9.8,7.9-15,11.6
	c-4.2,3-8.7,5.6-13.1,8.4c-0.4,0.3-0.9,0.5-1.2,0.7c-1.5-4.9-2.9-9.7-4.3-14.5c-0.8-2.6-1.4-5.3-2.1-8c-1.8-6.6-3.6-13.2-5.3-19.9
	c-0.7-2.7-1.3-5.3-1.8-8c-0.1-0.5,0.3-1.4,0.8-1.6c1.9-1,3.9-1.9,5.8-2.7c5.6-2.5,11.1-5.1,16.7-7.4c4.2-1.7,8.5-3,12.7-4.5
	c2.9-1,5.8-2,9-3.1c0.4,2.5,0.8,4.6,1.1,6.8c1,6.3,1.9,12.6,2.9,18.9c0.7,4.6,1.5,9.2,2.4,13.8c0.2,1.2,0.6,2.3,1.1,3.4
	c3.1,6.1,6.4,12.2,9.5,18.4c3.8,7.6,7.6,15.3,11.3,23c1.5,3.2,3,6.4,4.5,9.6c0.2,0.4,0.9,0.6,1.4,0.9c0.2-0.6,0.6-1.3,0.5-1.8
	c-0.4-1.2-1-2.4-1.6-3.6c-1.7-3.6-3.4-7.2-5.2-10.7c-2-3.9-4-7.8-6-11.7c-2.1-4.1-4.1-8.3-6.2-12.4c-1.8-3.6-3.7-7.2-5.8-10.7
	c-1.1-1.9-1.6-3.8-2-5.9C446.2,358.1,445.4,353.5,444.6,349.6z"/>
<path d="M429.9,648.7c-0.4,0.3-1.1,0.4-1.1,0.8c-0.7,2.7-1.5,5.4-1.7,8.2c-0.1,1.6,0.7,3.4,1.5,5c1.6,3.4,3.3,6.9,5.3,10.1
	c1.7,2.7,1.3,6.7-1.3,8.8c-1,0.8-2.3,1.4-3.5,1.7c-3.6,1-5.5,4.9-4.4,8.4c0.9,2.8,2,5.6,2.9,8.4c1.4,4.1,0.9,8.2,0.8,12.4
	c-0.2,5.3-3.6,8-7.4,10.6c-2.6,1.7-5.2,0.4-7.7-0.5c-2.9-1-5.6-2.5-8.3-3.8c-3-1.5-7.7-0.3-10.1,2.1c-2.1,2-4.1,3.9-6.3,5.8
	c-1.7,1.5-3.6,1.8-5.8,1.2c-5.2-1.4-9.4-4.3-13-8.1c-2.2-2.3-4.5-4.6-6.8-6.9c-2.1-2-4.8-2.6-7.4-3.2c-0.9-0.2-2.1,0.4-3,0.8
	c-0.7,0.3-1.3,0.9-1.8,1.5c-2.9,3.4-6.5,3.5-10.1,2c-2.1-0.9-4.1-2.5-5.6-4.3c-3-3.6-6-7.2-8.4-11.2c-2.2-3.6-3.7-7.7-5.3-11.7
	c-2-5-4.7-9.6-8.5-13.4c-1-1-2.3-1.7-3.7-2.1c-2.8-0.8-4.3-2.9-5.6-5.2c-3.4-6.1-3-12.5-1.4-18.9c0.6-2.4,1.2-4.7,1.8-7.1
	c0.8-2.7,1.7-3.4,4.7-3.7c0.1,0.1,0.2,0.3,0.2,0.4c-0.9,2.8-1.7,5.5-2.8,8.3c-1.2,3.2-1.7,6.4-1,9.8c0.8,4.3,3.4,6.3,8.1,6.5
	c1.7,0.1,3.4,0,4.9,0.4c4.6,1.2,8.1,3.9,9.7,8.4c1.4,3.7,2.1,7.6,3.2,11.4c1.2,4.5,3.6,8.3,6.7,11.7c4.1,4.5,10,5.3,13.6-0.1
	c0.9-1.3,0.6-3.4,0.7-5.1c0.1-0.9-0.1-1.9,0-2.9c0.3-2.2,3.2-4,5.4-3.7c4.7,0.5,7.8,3.7,10.6,6.8c2.5,2.8,4.3,6.3,6.5,9.4
	c3,4.3,6.8,7.8,10.8,11.1c1.9,1.5,3.9,2.4,6.1,3.3c0.3,0.1,0.7,0.2,1,0.2c3.3-0.5,7.1-4.8,7.6-8.2c0.2-1.7,0.9-3.3,1.4-5
	c0.1-0.3,0.5-0.6,0.9-0.7c2-0.3,5.3,1.5,6.5,3.4c1.4,2.1,2.6,4.5,5.2,5.8c1.3,0.6,2.3,0.6,3.3-0.4c1.7-1.7,3.5-3.2,4.1-5.7
	c0.8-3.2-0.1-6-1.8-8.5c-1.9-2.9-4.7-4.9-7.4-7c-0.6-0.5-1.1-1.3-1.4-2c-0.1-0.4,0.3-1.4,0.6-1.5c1.3-0.4,2.6-0.8,4-0.8
	c1.6,0,2.6-0.5,3.1-2c0.5-1.4,1.5-2.6,0.6-4.2c-0.4-0.7-0.8-1.4-1.3-2c-0.8-0.8-1.6-1.5-2.6-2.3c-2.4,0.7-5-0.7-5.8-3.5
	s-1.5-5.6-2.3-8.4c-0.7-2.4-1.9-3.9-4.6-4.9c-5.8-2.1-10.6,0.4-15.5,2.6c-2.9,1.3-5.9,2.6-9,3.7c-5.4,2-10.8,4.1-16.3,5.8
	c-4.8,1.5-9.8,1.4-14.8,0c-7-1.9-11.4-6.9-15.1-12.6c-2.5-3.8-3.9-8.2-5.1-12.5c-3-10.7-3-21.7-3.3-32.7c-0.1-4.6-0.1-9.3-0.5-13.9
	c-0.4-5.5-2.6-10.5-5.8-15c-2.7-3.8-5.1-7.7-7.7-11.5c-3.4-5-3.3-10.4-2.4-16c1-6.5,3.3-12.6,5.5-18.7c1.5-4,2.9-8.1,4.6-12
	c2-4.3,4.4-8.5,6.7-12.7c2.4-4.5,5-8.9,7.4-13.3c0.8,1.2,0.8,1.2-0.1,2.4c-0.7,0.9-0.3,1.5,0.7,1.8c0.5,0.2,1,0.4,1.5,0.9
	c-2.2-0.7-2.4,1.1-2.8,2.2c-2.1,4.9-4.3,9.8-6.1,14.9c-1.5,4.1-2.7,8.2-3.7,12.4c-1.3,4.9-2.4,9.9-3.3,14.9
	c-0.9,4.8-1.3,9.7,0.9,14.3c1.1,2.3,2.6,4.3,4.5,6.2c3.1,3,5.8,6.2,7.3,10.4c1,2.8,2.4,5.5,3.1,8.3c0.8,3.2,1.2,6.6,1.5,9.9
	c0.6,7.2,0.9,14.3,1.6,21.5c0.6,5.7,3.3,10.7,6.3,15.5c1.9,3.2,4.9,5.2,7.2,7.9c3.7,4.3,8.6,5.9,13.9,6.5c3.3,0.4,6.7,0.2,10.1,0.6
	c6.4,0.6,12.3-1,18.2-3.2c3.5-1.3,5.9-4.1,8.3-7c1.9-2.4,4.3-4.5,6.5-6.7c1.4-1.4,3-2.7,4.6-3.7c1.4-0.9,3-1.5,4.6-1.9
	c0.9-0.2,2,0.3,2.9,0.4c3.4,0.4,6.2,2,7.9,5c1.3,2.4,2.5,5,3.5,7.6c1.1,2.9,1,6,0.1,8.9c-0.2,0.7-0.9,1.2-1.4,2
	C429.2,647.6,429.5,648.1,429.9,648.7L429.9,648.7z"/>
<path d="M513.6,437.2c-0.3,3.9-0.4,7.4-0.8,10.9c-0.8,6.8-2.7,13.4-4.9,19.9c-2.2,6.4-4.2,12.8-5.7,19.3c-1.3,5.4-2,11-1.9,16.6
	c0,4.1-0.1,8.3,0.7,12.3c0.8,4.1,2.7,8,4.1,11.9c0.1,0.4,0.5,0.8,1,1.5c-1.2,3.3-2.6,7.2-4.1,11c-0.2,0-0.5,0.1-0.7,0.1
	c-1.5-2.3-3.1-4.7-4.6-7c-0.7-1.1-1.2-2.4-2.1-3.3c-0.5-0.6-1.6-1.1-2.4-1c-4.8,0.6-9.6,1.4-14.3,2.2c-5.8,1-11.5,2.1-17.6,3.3
	c7.3-5.1,14.3-10,21.4-15c0.2,0.5,0.6,1.2,0.8,1.9c0.7,2.4,1.4,4.8,2.1,7.2c0.3,1.1,0.8,1.1,2.3,0.4c-0.9-2.6-1.8-5.1-2.8-7.6
	c-1.1-2.7,0.1-4.3,2.2-5.9c1.4-1,2.7-2.3,4-3.5c0.3-0.3,0.6-0.9,0.5-1.3c-0.5-5.1-1.1-10.2-1.7-15.3c-0.7-5.9-1.6-11.9-2.3-17.8
	c-0.6-4.9-1-9.8-1.6-14.6c-0.1-1,0.2-1.6,1.1-1.3c5.6,1.8,11,3.7,15.4,7.8c0.9,0.8,1.9,1.5,2.9,2.1c0.4,0.2,1,0,1.5,0
	c-0.1-0.5,0-1.3-0.3-1.5c-1.7-1.5-3.5-3-5.3-4.2c-2.1-1.4-4.2-2.7-6.5-3.6c-5-2-10.2-3.8-15.8-2.5c-4.4,1-8.6,2.9-11.9,6.1
	c-4.1,4-7.9,8.3-12,12.2c-3.6,3.4-7.7,6.4-12.5,8.1c-4.6,1.7-9.3,1.9-14.1,2.1c-1.6,0.1-3.2,0.6-4.8,0.6c-1.1,0-2.3-0.5-3.2-1.2
	c-0.4-0.3-0.2-1.6,0-2.3c1.5-5,4.2-9.3,7.3-13.5c0.8-1,1.3-2.3,2-3.4c-0.2-0.1-0.3-0.2-0.5-0.4c-0.4,0.3-0.8,0.5-1.1,0.9
	c-4.2,4.8-7.7,10.1-9.4,16.3c-1.1,3.8-1.5,7.9-0.9,12c0.7,5.1,1.5,10.3,2,15.4c0.5,5.1,0.8,10.2-0.6,15.2c-0.8,2.7-2.1,5.3-3.6,7.6
	c-1.3,2-6.5,1.4-7.6-0.8c-1.5-3.1-2.8-6.2-4.2-9.4c-0.8-1.8-1.3-1.9-3.1-1.4c-2.9,0.7-5.2,2.1-7,4.5c-0.2,0.3-0.9,0.5-1.2,0.4
	c-2.3-0.8-4.4-1.9-5.4-4.5c-1.1-2.9-1.8-5.8-0.8-9c0.2-0.9-0.6-2-0.9-3c-0.1-0.3-0.3-0.5-0.4-0.7c-1.1-4.2-3.9-7.5-6.1-11.2
	c-1-1.6-1.4-3.3-1.1-5.2c0.6-3.4,4-5.6,7.3-4.6c0.1,0,0.2,0.1,0.3,0.1c5.6,2.5,8.5-2,8.8-6.2c0.2-2.6-0.1-5.3-0.5-7.9
	c-0.6-3.6-1.5-7.1-2.4-10.6c-0.5-2-1.5-3.8-2.1-5.7c-1.7-5.6-5.1-10.4-7.1-15.8c-1.4-3.7-2.6-7.6-2.5-11.6c0.1-2.6,1.2-5,3.1-6.9
	c1-1,2.1-0.4,2.9,0.3c0.9,0.8,1.5,1.8,2.3,2.7c1.6,1.8,3.4,3.4,4.9,5.2c1.9,2.2,4.4,2.5,7,2.7c4.1,0.3,7.9-1,11.4-2.8
	c1.9-1,1.9-1.1,2.5,1c0.8,3.2,1.7,6.5,2.6,10c-1.8,0-3.3,0.2-4.7,0c-2.3-0.4-4.6-1.1-7-1.6c-0.4-0.1-1,0.2-1.4,0.3
	c0.3,0.5,0.6,1.2,1,1.3c4.2,1.1,8.3,2.5,12.9,1.9c4.3-0.5,8-2.3,11.5-4.7c4.6-3.2,9.4-6.1,14.3-9c1.4-0.8,3.2-1,4.9-1.3
	c4.4-0.7,8.8-0.7,13.1,0.4c5.1,1.3,11.6-2.7,13.7-7.1c2.5-5.3,2.8-10.8,3.5-16.3c0.1-1.1,0.2-2.2,0.5-3.2c0.7-2.8,3-3.8,5.7-2.6
	c5.1,2.3,7.7,6.6,9.6,11.5c2.6,6.6,4.4,13.6,8.8,19.3C505.2,438.2,507.2,439.7,513.6,437.2z M497.6,442.8L497.6,442.8
	c0.5-0.4,1-0.7,1.4-1.1c-0.9-1.3-1.8-1.3-2.7,0.1c-1.8,2.6-3,5.3-2.5,8.6c0.4,2.4,2.6,3.7,4.6,2.5c2.7-1.6,3.8-5.3,2.4-8.1
	C500.1,443.7,499.5,442.2,497.6,442.8z M436.6,470.1c-0.4,2.6,1.7,4.1,3.9,4.2c3.3,0.2,6.3-1.1,8.3-4c1.4-2.1,2.7-4.2,4-6.4
	c2-3.4,4.7-6,8.4-7.6c2.7-1.2,5.1-3,7.6-4.7c0.7-0.5,1.2-1.4,1.5-2.2c1.1-3,0.8-6.1-0.4-9c-0.4-1-1.3-2.1-2.2-2.7
	c-2.9-1.8-6.1-2-9.3-1.2c-8.6,2-13.6,7.8-14.8,16.7c-0.4,3,0.3,6.5-3.5,8.1l-0.1,0.1C437.8,463.7,436.9,466.5,436.6,470.1z
	 M402.9,479.5c1.5,2.9-0.3,8.6-2.3,10.7c-3.7,4-7.7,7.7-9.4,13c-1.2,3.5-0.7,6.8,1.4,9.7c1.8,2.5,4.6,2.6,7.4,2.1
	c2.7-0.6,4.9-1.7,6.3-4.4c2.1-3.9,3.1-8.1,3.4-12.4c0.4-5.3,1.1-10.6-0.5-15.9C408.5,479.2,405.9,478,402.9,479.5z M492,428
	c-0.5-4-1.5-7.7-3.2-11.3c-0.8-1.6-1.8-2.8-3.8-2.6c-1.9,0.1-2.1,1.7-2.4,2.9c-0.7,3-1.2,6.1-1.7,9.2c-0.5,3.9-1.8,7-5.8,8.5
	c-1.9,0.7-2.5,2.3-1.9,4.3c1.1,3.8,4,5.9,7.4,7.2c1.2,0.5,2.7,0.8,4,0.6c2.9-0.5,4.7-2.7,5.3-5.5C490.9,437,491.4,432.5,492,428z
	 M400.8,463.6c-0.4,2.1,1.1,4,2.4,5.9c0.2,0.2,0.5,0.4,0.8,0.5c2.3,0.5,6.3-2.1,6.6-4.4c0.6-4.5-1-8.3-4.4-11.3
	c-1-0.8-1.9-0.9-3,0.4C401.1,457.2,400.8,460.1,400.8,463.6z M429.3,455.4c0-2.9-1.5-4.9-3.9-4.8c-2.5,0-4.7,2.7-4.7,5.6
	c0,1.4,1.8,2.9,3.7,2.8C427.4,458.9,429.7,458,429.3,455.4z M508.2,455.6c0-2.1-1.4-4.2-2.6-4c-1.4,0.3-1.8,1.7-1.9,2.9
	c-0.1,1.1-0.2,2.2,0,3.2c0.2,0.6,0.9,1.5,1.4,1.6c0.7,0.1,1.7-0.5,2.1-1C507.8,457.4,508,456.2,508.2,455.6z"/>
<path d="M582.6,470.2c-2.9-0.3-5.6,0.1-8.2,1.1c-3.9,1.4-6.5,4.4-8.7,7.7c-3.3,4.9-4.9,10.4-5.9,16.1c-0.8,4.7-1.1,9.5-1.5,14.3
	c-0.4,5.3-0.6,10.7-1,16.1c-0.4,4.8-0.8,9.6-1.4,14.3c-0.4,2.7-1.2,5.3-1.8,7.9c-0.3,1.3-0.3,2.7-0.5,4c-0.5,2.7-2.1,4.8-4,6.6
	c-2.9,2.7-6.8,0.8-9-1.3c-2.6-2.5-5.2-5-8-7.2c-1.9-1.5-4.3-1.8-6.7-0.9c-0.5,0.2-1.1,0.5-1.3,0.9c-1.3,2.7-3,5.3-3.2,8.4
	c-0.4,5.5-0.6,10.9-1.2,16.4c-0.4,4.4-1.1,8.8-1.9,13.2c-0.5,2.7,0.6,4.8,2,6.8c0.5,0.6,1.7,0.9,2.7,1c0.9,0.1,1.8-0.2,3.1-0.3
	c-1.3,2.8-2.3,5.4-3.7,7.8c-1.4,2.4-3.6,4.1-6.1,5.2c-2.1,0.9-4.2,1.7-6.4,2.2c-2.8,0.8-5-0.8-6.5-2.8c-1.9-2.6-3.4-5.6-3.4-9
	c0-2,0.3-3.9,0.6-5.9c0.2-1.2,1-1.9,2.5-1.5c4,1.1,5.3,0.5,7.7-3.1c2.1-3.2,2.8-6.8,3.5-10.5c1.1-6.2,1.4-12.5,1.7-18.7
	c0.2-3.9,0.9-7.8,1.7-11.6c1-4.5,4.5-6.7,8.6-7.9c1.1-0.3,2.2-0.9,3.3-0.9c4.4-0.2,8.2,2.4,9.8,6.5c0.7,1.9,1.4,2.1,3.1,1.1
	c2.3-1.3,3.6-3.4,3.7-6c0.3-4.8,0-9.5-2.3-14c-2.7-5-7.6-7.3-12.9-5.6c-1.8,0.6-3.5,1.7-5.1,2.7c-3.1,1.9-6.2,3.7-9,6
	c-1.8,1.5-3.2,3.6-4.3,5.7c-2,3.7-3.7,7.6-5.2,11.5c-0.8,2-0.8,4.4-1,6.6c-0.5,5.6-0.8,11.3-1.3,16.9c-0.1,1.5-0.5,2.9-0.9,4.3
	c-0.9,3.4-3.4,5.3-6.6,5.8c-4.9,0.8-7.6,3.8-9.4,8.1c-1.6,3.9-2,7.9-1.8,12.1c0.1,2.6,0.3,5.3,1,7.8c1.9,7,5.9,12.3,13.2,14.5
	c4.1,1.2,8.2,0.4,12.3-0.6c4.8-1.2,8.4-3.9,11.8-7.3c3-3,5.3-6.5,7.6-10c1.3-2,2.3-4.2,3.4-6.3c1.9-3.6,3-4.3,7.4-4.5
	c1.6-0.1,3.2-0.3,4.7-0.6c1.6-0.3,2.7,0.3,2.9,1.9c0.2,1.3,0.3,2.7,0.3,4.1c0,1.5-0.7,2.3-2.1,3.1c-1.6,0.9-3.3,2.5-4,4.2
	c-1.3,3.2-2.3,6.6-2.7,10c-0.6,5.5-2.7,10.1-6.9,13.6c-1.6,1.3-3.7,2.3-5.7,3c-3.6,1.2-7.5,1.3-11.1,0.3c-4.6-1.2-8.6,0.3-12.7,2
	c-3.6,1.5-7.1,3-10.6,4.7c-6.6,3.2-17.5,0-21.1-5c-2.4-3.3-4.5-6.8-5.9-10.5c-1.9-5.2-3.4-10.6-4.3-16c-0.9-5-0.9-10.1-0.9-15.1
	c0-1.8,1.1-3.6,1.9-5.3c2.5-4.9,5.2-9.7,7.7-14.6c1.5-2.9,2.9-5.9,4.4-8.8c0.2-0.4,0.6-0.7,0.9-0.8c6.6-1.8,12.4-4.8,17.1-10
	c5.3-5.8,8.7-12.6,11.5-19.8c1.9-4.9,3.4-10.1,6.5-14.4c2.5-3.4,5.5-6.3,9.9-7.1c5.6-1.1,10.7-3.4,14.9-7.2c1.8-1.6,3-4,4.4-6
	c0.2-0.3,0.3-0.7,0.5-0.9c3.1-2.9,3.5-7.1,5-10.7c1.6-3.8,3.5-7.4,5.3-11c0.9-1.7,1.9-3.3,3-4.8c2.8-3.8,6.6-6,11.3-6.4
	c3.1-0.3,6.2-0.4,9.2-0.7c1.3-0.1,2.2,0.2,2.9,1.3C580.5,467.6,581.6,468.9,582.6,470.2z M542.3,512.8c0.9,1.7,1.5,3.3,2.5,4.6
	c0.5,0.6,1.9,1.1,2.6,0.9c1.9-0.6,2.8-4.8,1.4-6.2c-0.5-0.5-1.4-0.8-2-1.3c-0.8-0.6-1.6-1.7-2.6-0.8
	C543.5,510.7,543,511.8,542.3,512.8z M550.4,504.5c1.6,0.1,2.8-0.6,3.7-2c0.8-1.2,0.6-2.3-0.1-3.4c-1.1-1.6-2.8-1.9-4.5-2.1
	c-0.3,0-0.9,1-0.8,1.1c0.8,1,0,1.6-0.4,2.3C547.1,502.6,548,504.4,550.4,504.5z M553.6,490.7c1.5,0,3.1-1.7,3.1-3.4
	c0-1.3-0.5-2.2-1.9-2.4c-1.3-0.1-3.2,2.3-3.1,4.1C551.6,490.3,552.3,490.9,553.6,490.7z"/>
<path d="M359.8,371c2-0.5,3.7-1,5.4-1.4c1.2,3.1,2.5,6,3.5,9c1.9,5.2,4.8,9.9,8.1,14.2c3.4,4.5,7.4,8.5,11.3,12.6
	c1.6,1.6,3.6,2.7,5.5,4c2.5,1.7,4.3,3.9,4.8,7c1,5.5,2.3,11,3.4,16.4c0.2,1.1,0,1.7-1.4,1.7c-3,0-5.8-0.5-7.9-3
	c-2-2.3-4.1-4.5-6.1-6.7c-0.4-0.5-0.6-1.2-1-2.1c-1.9,0.5-4.1,0.8-5.5,2.7c-3,4.2-4.1,8.8-2.4,13.9c1.3,3.8,2.7,7.6,4,11.5
	c-0.9,0.1-1.9,0.3-2.9,0.3c-3.1,0.2-4.6,2.5-5.8,4.9c-2,3.8-1.8,7.9-1.5,12.1c0.2,2.8,0.3,5.7,0.3,8.5c0,4.4-2.3,7.4-6.1,9.8
	c-3.1,1.9-5.9,4.3-8.5,6.8c-1.1,1-1.5,2.8-1.9,4.3c-1.4,5.3-0.9,10.6,0.1,16c1,5.1,3.6,9.5,5.9,14.2c2.4,5.1,6.1,9.2,10.4,12.8
	c2.1,1.7,4.5,3.1,7.7,3.3c-1,1.3-2,2.2-2.6,3.4c-1.9,3.7-4.6,5.4-8.9,5c-2.6-0.2-5.2-0.1-7.6-1.2c-2.9-1.4-6-2.4-8.8-4
	c-1.4-0.8-2.4-2.2-3.4-3.6c-4.2-5.9-6.7-12.4-7.4-19.6c-0.6-6.4-1.4-12.7-1.8-19.1c-0.4-7.5,0.9-14.9,2.8-22.2
	c2.2-8.6,5.4-16.8,9.1-24.8c2.5-5.4,4.8-10.8,7.1-16.3c0.7-1.7,1-3.6,1.5-5.4c1.7-5.8,3.4-11.6,5-17.4c0.3-1.1,0.3-2.3,0.6-3.4
	c0.2-0.8,0.5-1.7,0.6-2.4c-0.1-1.8-0.3-3.6-0.1-5.4c0.6-7.4-0.3-14.6-1.4-21.8c-0.1-1-0.7-1.9-1-2.9
	C362,378.8,360.9,374.9,359.8,371z"/>
<path d="M500.2,542.8c-2.3,6.3-6.9,10.5-11.8,14.5c-1.7,1.4-3.9,2.5-6,3.1c-5.4,1.5-10.9,3.1-16.4,3.7c-5.3,0.6-10.7,0.8-16-0.6
	c-1.8-0.5-3.3-1.5-3.4-3.7c-0.1-0.8-0.3-1.7-0.6-2.5c-0.4-1.1-0.6-2.1,0.7-2.9c0.6-0.3,0.7-1.4,1-2.1c0.6-1,1-2.3,1.9-3
	c2.2-1.9,1.6-4.2,1.2-6.4c-0.1-0.4-0.2-0.9-0.2-1.3c0.6-0.4,1.2-0.7,1.4-0.8c-0.6-1.7-1.1-3.1-1.5-4.6c-1.4-5.5-2.7-11-4.1-16.4
	c-1.2-4.8-2.5-9.6-3.7-14.4c-0.5-1.9-1.2-3.8-1.7-5.7c-0.8-3.4-1.6-6.7-2.3-9.8c2.9-1.2,5.8-2.2,8.5-3.7c3.8-2.1,7.2-4.8,10.1-8
	c2.3-2.5,4.8-4.8,7.2-7.2c0.9-0.9,1.7-2,2.7-2.9c4.2-3.9,8.9-6.4,14.8-6.4c1.3,0,1.2,0.9,1.3,1.6c0.5,3.8,0.8,7.6,1.3,11.4
	c0.6,4.9,1.3,9.7,1.8,14.6c0.6,4.9,1.1,9.8,1.6,14.6c0.1,1.2,0.1,2.6,0.5,3.7c1,2.8-0.5,4.6-2.4,6.1c-6.3,4.9-12.7,9.7-19.1,14.4
	c-3.4,2.5-6.9,5-10.5,7.3c-1,0.6-2.4,0.6-3.5,1c-0.4,0.2-1.1,1-1,1.2c0.3,0.6,0.9,1.4,1.5,1.6c0.8,0.1,1.8-0.1,2.4-0.6
	c2.8-2,6-2.2,9.2-2.7c3.8-0.7,7.6-1.5,11.4-2.1c3.9-0.6,7.8-1.1,11.6-1.6c5.8-0.8,5.3-0.8,7.6,4.2c0.5,1.2,1.5,2.1,2.3,3.2
	C498.7,540.7,499.5,541.8,500.2,542.8z"/>
<path d="M576.1,462.8c-2.2,0.2-4.1,0.5-6.1,0.5c-9-0.2-14.7,4.6-18.5,12.2c-1.2,2.4-2.6,4.8-3.8,7c-1.1-0.3-2.3-0.7-3.4-1.1
	c-1.6-0.6-2.5-1.9-1.9-3.5c0.9-2.2,2.1-4.3,3.4-6.3c1.1-1.7,2.4-3.2,3.6-4.8c1.2-1.8,1.6-3.8,0.8-5.8c-0.5-1.2-1.3-2.4-2.1-3.5
	c-1.3-1.8-3.4-1.8-5.3-1.6c-2.5,0.3-4.9,1-7.3,1.4c-0.8,0.1-1.7,0-2.4-0.4c-1.6-0.8-3-1.9-4.5-2.8c-2.7-1.7-5.9-0.3-6.9,2.7
	c-1.3,3.8-0.5,7.5,0.5,11.3c1.4,5.2,3,10.3,4,15.5c0.9,4.5,1.4,9.1,1.5,13.7c0.1,4.3-1,8.2-4.1,11.6c-1.3,1.4-2.7,2-4.2,2.7
	c-3.9,1.8-6.7,4.7-8.8,8.3c-1.2,2.1-2.3,4.3-3.7,7c-0.8-1.6-1.7-2.8-2.2-4.1c-2.4-6.8-2.9-13.9-2.5-21.1c0.4-6.5,1.3-12.9,3.2-19.2
	c2.6-8.4,5.3-16.7,7.5-25.2c1.4-5.4,2-11,2.6-16.5c0.3-3,0-6.2-0.2-9.2c-0.1-2.6-0.3-5.3-0.6-7.9c-0.7-4.8,0.5-9.3,2.3-13.6
	c0.5-1.3,1.4-2.4,3.5-1.8c3.7,1.1,8-1.7,9.3-5.4c1.3-3.5,2.7-7,3.7-10.6c0.5-1.8,0.3-3.9,0.4-5.8c0-1.9,0-3.7,0-5.5
	c7,6.4,13.8,12.6,20.9,19.1c0.8-1.1,1.2-1.8,1.8-2.8c0.5,1.6,1,3,1.4,4.4c1.2,3.9,2.3,7.8,3.5,11.6c0.9,2.8,2.1,5.6,3,8.5
	c0.5,1.7,0.5,3.5,1.1,5.1c1.2,3,2.7,5.9,4,8.9c0.3,0.8,0.4,1.6,0.5,2.5c-1.2,0.2-2.4,0.5-3.6,0.5c-0.6,0-1.2-0.6-1.7-1.1
	c-4.7-4.8-7.3-10.6-8.7-17.1c-1.2-5.4-2.2-11-5.3-15.8c-2.5-4-10-5.6-13.2,0c-3.3,5.9-4.4,12.4-2.2,19c1.1,3.5,4,5.7,7.3,7.2
	c2.7,1.2,4,3.3,4,6.2c-0.1,3-0.3,5.9-0.5,8.9c-0.1,1.8,0.9,5.8,2.7,6.6c1.1,0.5,2.2,0.8,3.2-0.1c3.6-3.4,7.1-2.3,11.1-0.3
	c4.8,2.4,8.4,6.3,12.4,9.7C575.7,462.1,575.8,462.4,576.1,462.8z"/>
<path d="M332.8,501.8c-0.5,4.6-0.8,8.7-1.3,12.9c-0.3,2.6-0.8,5.1-1.3,7.7c-0.3,1.4,0,2.6,0.7,3.9c4.4,9,8.6,18,12.9,27
	c1.2,2.6,2.5,5.1,3.6,7.7c0.2,0.6,0.1,1.7-0.4,2.2c-2,2.1-2,4.1-0.6,6.6c1.8,3.1,3.3,6.3,5.2,9.9c-1.2,1.1-2.7,2.6-4.2,4
	c-1,0.8-1.6,1.3-0.3,2.6c1.5,1.4,2.3,3.5,3.5,5.2c3.8,5.4,8.1,10.3,13.1,14.6c6.3,5.4,12.8,10.2,20.6,13.2c2.3,0.9,4.6,1.7,6.9,2.4
	c1.3,0.4,2,1.2,2.1,2.5c0.3,4.3,0.4,8.7,0.8,13c0.2,2-1.1,2.8-2.5,3.4c-5.7,2.6-11.7,4-18.1,3.4c-4.9-0.5-9.8-0.9-14.7-1.7
	c-3.4-0.6-6-2.8-8.3-5.4c-2.3-2.7-4.8-5.2-6.9-8c-3.1-4.2-4.9-9.1-5.5-14.2c-0.7-6.7-1.1-13.4-1.4-20.1
	c-0.5-11.2-3.9-21.3-11.6-29.6c-2-2.2-4.1-4.2-5.3-7c-1.5-3.7-1.3-7.6-0.9-11.3c1.1-9.7,3.8-19,7.1-28.2c1.6-4.7,3.7-9.2,5.6-13.8
	C332.1,503.8,332.4,503,332.8,501.8z"/>
<path d="M370.6,311c-5.2,18.2-2.7,35.9,4.7,53.5c-2.9,0.8-5.4,1.5-8,2.2c-3.3,0.9-6.6,1.8-9.8,2.8c-1.8,0.6-3.1,0.8-4.7-0.8
	c-4.3-4.2-9-8.1-13.3-12.3c-3.3-3.1-6.3-6.4-9.4-9.7c-0.4-0.4-0.6-1.4-0.4-2c2.1-7.9,4.2-15.7,6.3-23.6c1.2-4.4,2.5-8.8,3.9-13.1
	c2-6,4.2-12,6.3-17.9c0.5-1.5,1.1-3,1.8-4.9c1.8,2.2,3.4,4,4.9,5.9c1.9,2.4,3.7,4.8,5.6,7.1c0.8,1,1.6,1.9,2.5,2.9
	c1-1.3,2.1-0.8,3.5-0.2c1,0.4,2.2,0.5,3.3,0.3c3.5-0.5,6.5-1.4,8.6-4.9c1.8-3,1.9-6.4,3.2-9.5c0.7-1.8,1.6-3.6,2.6-5.3
	c0.5-0.8,1.2-1,2.2-0.3c3.7,2.4,5.3,6.1,7,9.9c0,0.1,0,0.1,0.1,0.2c2.9,3.9,0.7,7.1-1.6,10.1c-3.2,4.3-5.7,8.9-7.9,13.8
	c-0.6,1.3-1.6,1.8-2.7,1.1C376.4,314.6,373.7,312.9,370.6,311z"/>
<path d="M606.8,577.2c5.5-5.4,11-10.6,16.4-15.9c2.3,2.6,4.5,5,6.5,7.4c2.6,3.1,5.1,6.3,7.6,9.4c2.2,2.7,4.3,5.4,6.5,8.1
	c1.1,1.4,2.4,2.6,3.5,4c3.1,3.8,6.3,7.7,9.3,11.6c0.4,0.5,0.3,1.6,0,2.1c-3,5.4-6.1,10.9-9.2,16.2c-0.5,0.9-1.2,1.7-1.7,2.5
	c-1.6,2.5-1.6,5.4-1.8,8.3c-0.3,3.1-0.3,6.2-0.9,9.2c-0.3,1.7-1.4,3.4-2.5,4.8c-2.5,3.5-5.4,6.8-7.9,10.3c-3.1,4.3-6,8.7-9.1,13
	c-0.8,1.2-1.9,2.1-2.7,3.3c-0.5,0.7-0.6,1.6-1.1,2.2c-0.3,0.4-1.2,0.8-1.4,0.7c-2-1.6-4.6-1.6-6.8-2.7c-0.3-0.2-0.7-0.2-1-0.3
	c-1.5-0.4-1.7-1.2-1.3-2.7c2.7-10.1,5.4-20.3,8-30.5c1.2-4.7,2-9.5,3.5-14.1c1.8-5.5,4.3-10.8,6.4-16.3c0.2-0.6,0.3-1.5,0-2
	c-3.5-5.1-7.1-10.2-10.7-15.2c-2.7-3.8-5.6-7.4-8.3-11.2C607.7,578.9,607.3,578,606.8,577.2z"/>
<path d="M551,591.3c3.6-4.4,1.4-8.8,0.1-13.4c4.2-2.6,4.7-7.1,5-11.7c1.4,3.4,3.1,6.8,4.2,10.4c1.9,6,3.6,12,4.9,18.1
	c0.8,3.4,0.9,7,0.9,10.5c-0.1,9,0.4,18.1,2.3,26.9c1.1,5.2,2.7,10.4,6,14.8c0.5,0.6,1.1,1.2,1.6,1.8c2.4,2.4,5.2,2.4,7.9,0.2
	c2.5-2.1,3.1-5.2,4.2-8c1.1-3.1,2.3-6.2,3.7-9.1c0.6-1.1,1.7-2.1,2.8-2.8c2.9-1.9,4.9-4.6,6.4-7.5c1-1.9,1.3-4.2,1.8-6.3
	c0.8-3.9,1.4-8,2.4-11.9c0.7-2.7,1.7-5.4,4.3-7c1.7-1,3.2-0.6,4.5,0.7c2.2,2.2,3.3,5,3.6,8.1c0.4,3.9-0.3,7.7-1.6,11.4
	c-1.1,3-2.7,5.8-5,8s-4.9,4.2-7.3,6.4c-3,2.7-5.4,5.9-6.3,10c-1,4.4-1.8,8.8-3.2,13.1c-1.1,3.5-2.7,6.9-4.4,10.1
	c-1.5,2.8-6.4,4.2-9.5,3.5c-4.8-1.1-8.5-3.8-11.3-7.7c-0.8-1-1.1-2.3-1.7-3.5c-0.9-1.6-1.7-3.3-2.8-4.8c-3.7-5.1-8.8-5.6-14.4-4
	c-1.4,0.4-2.7-0.4-3.3-2.7c-1.1-4.2-2.5-8.4-3-12.7c-0.9-7.9-0.6-15.8,2.1-23.5c0.7-2,1.7-3.9,4.2-4.6c1.8-0.5,2.7-2.1,2.9-3.9
	C553.3,597.5,552.4,593.5,551,591.3z"/>
<path d="M497.7,694.4c-1.9-2.9-1.6-6-2-8.9c-1-7.5-2-14.9-3.1-22.4c-0.7-4.7-1.5-9.3-2.1-14c-0.2-1.8,0.1-3.6,0.1-4.6
	c4.6-2,8.5-3.9,12.4-5.5c3.5-1.5,7.1-2.8,10.7-4c1.2-0.4,2.7-0.1,4,0.3c5.9,1.4,11.7,0.9,16.8-2.4c2.5-1.6,4.2-4.3,6.3-6.5
	c0.2-0.2,0.3-0.4,0.6-0.8c0.2,5.5,0.7,10.8,2,15.9c0,0.2,0,0.4,0.1,0.5c3,4.9,0.8,10,0.2,14.9c-0.8,6-1.8,12.1-2.8,18.1
	c-0.1,0.4-0.8,1.1-1.2,1.1c-2,0.2-3.4-0.9-4-2.9c-0.8-2.8-1.7-5.7-2.4-8.6c-0.9-3.9-1.6-7.9-2.4-11.9c-1.1-5.1-2.1-10.2-3.3-15.2
	c-0.1-0.5-0.9-0.9-1.3-1.3c-0.2,0.6-0.6,1.3-0.5,1.8c1.8,8.8,3.6,17.7,5.6,26.5c0.8,3.4,1.8,6.8,2.8,10.2c0.7,2.4,0.8,2.6-1.4,3.8
	c-2.9,1.6-6,3.1-9,4.4c-5.7,2.5-11.4,4.8-17.1,7.3C503.7,691.5,500.8,692.9,497.7,694.4z"/>
<path d="M314.3,632.8c-0.2,1.4-0.5,2.9-0.7,4.3c-0.6,3.9-1.7,7.7-1,11.7c0.3,2.1,0.5,4.4,2.5,5.5c2.4,1.4,5.1,1.1,7.5-0.5
	c1.7-1.2,3.4-2.5,5.2-3.9c1.1,1.9,2.2,3.8,3.3,5.7c3.4,5.8,8.2,10,14.6,12c5.7,1.8,11.6,1.9,17.5-0.3c6.4-2.4,12.8-4.5,19.2-6.8
	c2.3-0.9,4.6-2,6.8-3.2c4-2,8.1-3.2,12.6-1.9c2,0.6,2.8,2.1,3.3,3.8c0.6,1.8,1,3.8,1.4,5.6c0.9,4,2.9,7,7,8.3c1,0.3,1.8,0.9,2.7,1.5
	c1.1,0.6,1.4,1.6,1,2.8c-0.4,1.1-0.9,1.5-2.3,1.5c-1.5-0.1-3.1,0.3-4.4,1.1c-2.8,1.7-2.6,4.6,0.1,6.8s5.6,4.2,7.3,7.3
	c1.2,2.2,2.4,4.6,1.1,7.1c-0.8,1.5-2,2.9-3.3,3.9c-1.3,0.9-2.2-0.7-2.9-1.4c-1.1-1.1-2-2.5-2.7-3.9c-0.8-1.4-1.9-2.2-3.4-2.7
	c-0.8-0.3-1.5-0.5-2.3-0.7c-3.2-1-5.6,0.7-6.1,4c-0.4,2.4-0.6,4.9-2.4,6.8c-2.3,2.5-4,2.7-6.9,1.2c-6.6-3.6-11.3-9-15.2-15.2
	c-2.1-3.4-3.7-7.1-7.1-9.5c-2.8-2.1-5.3-4.5-9.2-4.7c-3.6-0.2-7.5,2.6-7.8,6.3c-0.1,1.1,0,2.2,0.1,3.2c0.3,1.9-0.1,3.6-1.7,4.7
	c-1.7,1.2-3.5,1.5-5.6,0.5c-2.6-1.3-4.3-3.1-5.9-5.5c-2.9-4.1-4.3-8.7-5.2-13.6c-0.6-3.4-1.7-6.8-4-9.5c-2.9-3.4-6.4-5.9-11.2-6
	c-1.5,0-3.1-0.2-4.6-0.4c-2.9-0.4-4.2-2-4.6-4.8c-0.8-5,0.9-9.3,2.7-13.7c0.9-2.4,1.7-4.8,3.3-6.8c0.2-0.3,0.5-0.6,0.7-0.9
	C313.9,632.7,314.1,632.7,314.3,632.8z M390.8,691c0.1,0,0.3-0.1,0.4-0.1c-0.7-3-1.1-6.2-2.3-9c-1.9-4.8-5.6-8.5-9.2-12.2
	c-0.3-0.3-0.6-0.5-1-0.6c-3.2-1.5-6-0.1-5.6,3c0.3,2.1,0.7,4.2,1.5,6.1c1.9,4.5,4.1,9,6.3,13.4c1.1,2.2,2.7,4.1,5.2,5
	c2.6,0.9,4.5-0.4,4.7-3.1C390.9,692.7,390.8,691.8,390.8,691z M399.3,673.8c-2.2-0.2-3.3,1-4.2,2.4c-1.7,2.8-1.1,5.5,0.1,8.2
	c0.5,1.2,1.7,1.6,3,0.9c2.7-1.4,4.4-3.4,3.6-6.8c-0.2-1-0.4-2-0.6-3C401,674.2,400.6,673.2,399.3,673.8z M394.5,667.2
	c-0.5-0.7-1-1.4-1.6-2.1c-0.7-0.7-1.5-1.3-2.1-2.1c-0.9-1.2-1.6-1.4-2.3-0.1c-0.7,1.2-1.1,2.7-1.4,4.1c-0.3,2,1.2,3.9,3,4.1
	C393.1,671.3,394.2,670.4,394.5,667.2z M342,680.3c-0.1-1.4-0.2-2.5-0.4-3.6c-0.1-0.5-0.6-0.9-0.8-1.4c-0.3,0.4-1.1,0.9-1,1.3
	c0.3,1.8,0.7,3.6,1.3,5.2c0.4,1,1.5,1,2.4,0.2c1.6-1.5,2.3-3.4,2.1-5.4c-0.1-1.2-1.2-2.4-2-3.5c-0.2-0.2-1.3,0.4-1.9,0.6
	c0.3,0.5,0.4,1.1,0.8,1.4C344.3,676.2,344.3,678.8,342,680.3z"/>
<path d="M349.1,585c3-3.5,5.9-6.9,8.8-10.2c1.6-1.9,3.2-3.7,4.7-5.6c3.6-4.7,7.1-9.5,10.9-14c2-2.4,3.3-5.2,5.1-7.6
	c1.9-2.4,3.9-4.8,5.8-7.2s3.7-5,5.8-7.4c1.7-1.9,3.5-3.7,5.5-5.2c1.2-0.9,2.8-1.3,4.3-1.7c0.4-0.1,1.3,0.7,1.5,1.2
	c1.2,3.8,3.1,7.2,5.3,10.4c0.9,1.2,1.4,2.7,2.1,4.1c1,2.3,2,4.6,3.1,6.8c0.7,1.4,0.6,2.5-0.1,3.9c-2.4,4.6-5.5,8.6-8.7,12.7
	c-5,6.4-10.1,12.8-15.2,19.1c-4.4,5.4-9.4,10.3-14.8,14.8c-1.6,1.3-2.9,2.9-4.3,4.4c-1.9,2-2.3,2-4.3,0.3c-4.9-4.3-9.3-9.2-13-14.6
	C350.6,587.8,349.8,586.3,349.1,585z"/>
<path d="M633.1,712.7c-1.8-5.6-3.6-10.9-5.5-16.5c4,1.7,7.5,3.3,11,4.7c3.2,1.2,6.4,2.4,9.6,3.5c3.8,1.3,7.8,2.3,11.6,3.6
	c1.6,0.6,2.5,0.3,3-1.3c0.4-1.2,0.7-2.2,0.2-3.6c-1.5-4.9-2.5-10-3.9-14.9c-0.9-3.2-2.2-6.4-3.3-9.5c-0.1-0.3-0.3-0.5-0.3-0.8
	c0.2-2-0.9-3.6-1.4-5.3c-1.8-6.6-3.4-13.3-5.1-19.9c-0.6-2.4-1.3-4.8-1.9-7.3c-0.1-0.6,0-1.6,0.4-2c2.3-2.1,4.6-4.1,7.2-6.4
	c0.3,1,0.5,1.6,0.6,2.3c0.9,5.6,2,11.2,4.5,16.3c0.9,1.8,2.2,3.5,3.7,4.8c1.8,1.7,5.6,0.8,7.4-1.4c0.5-0.6,1-1.2,1.2-1.9
	c0.5-1.5,1.4-2.4,3-2.4c1.7,0,3.4,0.8,3.9,2.3c0.7,2,1.3,4.3,1.1,6.5c-0.3,3.4-1.3,6.7-1.9,10.1c-0.1,0.7-0.2,1.4-0.1,2
	c0.9,5.4,1.6,10.9,4.4,15.8c0.8,1.4,2,2.7,3.3,3.6c3.3,2.3,5.4,5.3,6.2,9.1c0.4,2.3-0.7,4.4-2,6.1c-1,1.2-2.7,0.7-3.9-0.2
	c-1.1-0.8-2.1-1.8-2.9-2.9c-2.3-2.8-6.6-3.2-8.8-0.5c-1,1.3-1.6,3.4-1.4,5c0.4,3.1,0.4,6.1-0.4,9c-0.8,3-3.3,4.8-5.8,6.5
	c-0.2,0.1-0.4,0.2-0.6,0.2c-1.5,0.5-3.1,1.7-4.4,1.4c-2.2-0.6-4.3-1.9-6-3.4c-1.3-1.1-2.2-2.7-3-4.3c-2.3-4.6-5.6-8.2-10.4-10.4
	c-1.4-0.6-2.5-0.8-4,0C637,711.4,635.2,711.9,633.1,712.7z"/>
<path d="M701.6,508.8c0.4-0.4,0.7-0.8,0.9-0.8c1.6-0.4,1.5-1.2,0.5-2.2c-0.8-0.7-1.8-1.4-2.7-2.1c-2.7-2.3-5.4-4.5-8-6.7
	c0.6-0.9,1.1-1.4,1.3-1.9c0.8-2.9,1.5-5.8,2.3-8.7c1.2-4.8,2.3-9.5,3.5-14.3c0.4-1.5,0.9-3.1,1.5-4.6c0.2-0.6,0.6-1.1,1.1-1.5
	c1.7-1.4,3.4-2.8,5-4.2c0.4-0.3,0.6-0.9,0.7-1.5c1-4.3,1.9-8.5,2.8-12.8c0.1-0.4-0.3-1.2-0.7-1.5c-2.5-1.8-5-3.6-7.5-5.4
	c-2.2-1.6-4.5-3.1-6.6-4.8c-2.6-2.1-5-4.3-7.6-6.4c-2.1-1.6-4.3-3-6.2-4.4c0-0.9,0.2-1.8,0-2.7c-1.1-4.4,0-8.3,2.5-11.8
	c1.7-2.4,5.7-1.8,6.9,0.8c0.6,1.3,1,2.7,1.1,4.1c0.5,4.6,2.6,7.8,7,9.4c2.2,0.8,4.4,1.5,6.6,2.2c2.5,0.8,4.2,2.4,5.5,4.6
	c2.8,4.6,3.3,9.5,3.1,14.7c-0.3,7-3,13.2-6.1,19.3c-1.3,2.5-3.1,4.7-4.5,7.2c-0.5,0.9-0.7,2.1-0.7,3.1c-0.1,5-0.5,10,0,14.9
	c0.4,4.4,2.8,8.1,5.8,11.4c2.1,2.4,4.3,4.9,6.1,7.6c2.7,4,2.9,8.6,2.2,13.2c-0.6,3.8-1.9,7.5-2.1,11.3c-0.2,3.9,0.3,7.8,0.9,11.7
	c0.4,2.9,1.5,5.6,2,8.5c0.5,2.5-0.1,4.9-1.1,7.2c-0.8,1.6-1.6,3.2-2.3,4.9c-1.5,3.8-0.2,7.3,1.7,10.6c1.2,2.2,2.9,4.2,3.9,6.5
	c1.4,3.2,2.5,6.6,3.2,10.1c0.7,3.8-1.4,6.4-4.9,8.3c-2,1-3.8,1.3-5.9,0.8c-4.4-1-6.8-3.7-7.6-8.2c-1.1-6.2-0.1-12.2,1.2-18.1
	c0.9-4.3,1.1-8.4-2.1-11.9c-2.6-2.9-2.2-6.1-0.9-9.1c1-2.4,2.7-4.4,4-6.7c0.4-0.7,0.4-1.7,0.6-2.6c1-3.4,1.3-7,0.8-10.5
	c0-0.2-0.1-0.5-0.1-0.7c-0.2-4.1-0.7-8.2-0.6-12.4c0-2.5,0.9-5,1.3-7.5c0.1-0.5-0.2-1.2-0.5-1.7c-0.1-0.3-0.5-0.6-0.7-0.9
	C706.5,509,705.6,508.5,701.6,508.8z"/>
<path d="M580,472.1c-1,0.7-2.1,1.4-2.9,2.3c-2.8,3.1-4.8,6.8-4.6,11c0.1,3,1.3,6,2.6,8.7c2.9,5.8,4,11.6,2.1,17.8
	c-1.5,4.8-3.2,9.6-4.4,14.5c-1.9,7.6-1.4,15.1,2,22.2c2.1,4.5,4.5,9,7.1,13.2c1.8,2.9,4.2,5.4,6.5,7.9c3.2,3.6,5.2,7.9,7,12.3
	c1.8,4.3,3.4,8.5,3.3,13.3c-0.1,4.2-1.7,7.4-5.6,9c-2,0.8-4.4,1.6-6.5,0.4c-1.5-0.9-2.7-2.5-3.7-4c-2.2-3.3-2.1-7.1-2.4-10.9
	c-0.4-5-0.6-10.1-2.5-14.8c-1.2-2.9-3-5.6-5.2-7.9c-3.2-3.5-7-6.4-10.5-9.6c-2.8-2.5-4.1-5.9-5.8-9.2c-0.3-0.5-0.1-1.2-0.1-1.9
	c0.9-7,1.9-13.9,2.6-20.9c0.4-4.3,0.3-8.8,0.6-13.1c0.4-5.2,0.7-10.3,1.6-15.4c0.8-4.4,1.9-8.8,3.6-13c1.8-4.4,4.6-8.3,9-10.6
	c1.8-0.9,4-1.4,5.9-2C579.9,471.7,580,471.9,580,472.1z"/>
<path d="M636.8,449.7c1.7-1.7,3.2-3.8,5.2-5.3c3.7-2.8,6.4-6.5,9.4-9.9c2.3-2.5,4.8-4.8,7.3-7.1c2.9-2.7,6-5.2,9-7.7
	c0.4-0.4,1.6-0.6,1.8-0.4c4.4,4.5,10.4,6.4,15.3,10c3.2,2.3,6.2,5,9.4,7.4c3.1,2.4,6.3,4.8,9.4,7.2c0.9,0.7,0.8,1.7,0,2.3
	c-1.3,0.8-2.7,1.6-3.8,2.7c-4.3,4.2-9.3,7.6-14.3,11c-1.1,0.7-2.1,1.6-3.1,2.4c-3.7,3-7.5,6-11.2,8.9c-0.4,0.3-1.5,0.4-1.9,0.2
	c-3-1.7-6-3.5-9-5.3c-3.6-2.2-7.2-4.4-10.9-6.5c-1-0.6-1.6-1.1-1.5-2.5s-0.3-2.8-0.8-4.2c-0.5-1.5-2.8-2.1-4.6-1.4
	C639.9,452.4,638.8,452.1,636.8,449.7z"/>
<path d="M633.4,470.4c1,6.7,2,13.2,2.8,19.7c1,8.1,1.6,16.2,2.7,24.3c0.6,5,1.7,10,2.6,15c0.3,1.6,0,2.4-1.6,3
	c-7.9,3-15.5,6.8-23.8,8.9c-0.9,0.2-1.7,0.8-2.8,1.3c-0.2-1.8-0.3-3.5-0.5-5.2c-0.8-6.7-1.6-13.4-2.3-20.2
	c-0.4-3.8,0.5-7.4,2.1-10.8c0.2-0.4,0.1-1.2-0.2-1.6c-1.4-1.9-2-4-1.5-6.4c0.1-0.5,0.1-1.1,0.1-1.7c0.3-6.3,0.3-12.7,0.9-19
	c0.3-3,1.3-6,2.2-8.9c0.4-1.2,1.3-2.4,2.2-3.4c1.1-1.2,2.6-1.3,3.9-0.6c1.8,1,3.6,2.3,5.3,3.4C627.9,469.8,630.4,470.5,633.4,470.4z
	"/>
<path d="M541.1,544.4c-0.2-0.3-0.5-0.6-0.6-0.9c-2.1-4.4-7.3-7.7-12.6-6.5c-4,0.9-7.7,2.6-10.2,6c-2.2,3-3,6.6-3.3,10.3
	c-0.6,9.1-0.7,18.2-2.6,27.1c-0.7,3.3-1.4,6.8-4.5,9c-0.8,0.5-1.9,0.7-2.9,0.7c-0.8,0-1.6-0.7-2.3-0.6c-1,0.1-2.3,0.5-2.7,1.2
	c-2.2,4.1-2.4,8.4-0.5,12.7c0.9,2.1,1.9,4.2,3.4,5.8c3.5,3.8,6,4.2,10.9,2.5c4.1-1.5,7.7-3.6,10.2-7.1c1.6-2.1,2.5-4.7,3.7-7.1
	c0.8-1.6,1.7-3.2,2.5-4.8c0.2-0.3,0.3-0.7,0.2-1.1c0-0.9-0.3-1.8-0.2-2.6c0.6-3.6,1.2-7.2,2-10.7c0.5-1.9,1.4-3.7,2.2-5.5
	c0.4-0.9,0.9-1.1,1.7-0.4c1.6,1.4,3.2,2.7,4.8,4.1c2.4,2.2,5.2,3.4,8.6,2.9c1.7,2.6,2.1,5.5,1.7,8.6c-0.2,1.8-2.6,3.4-4.9,3.6
	c-0.6,0.1-1.3,0.1-1.9,0c-4.9-0.6-8,1.9-10,6.1c-1.2,2.4-2.5,4.9-4,7.2c-2.8,4.3-5.8,8.5-9.9,11.6c-2.8,2.1-6.1,3.2-9.5,4
	s-6.8,1-10.1-0.1c-3.5-1-6.2-3.2-8.2-6.1c-3.2-4.4-3.9-9.5-3.9-14.7c-0.1-4.2,0.4-8.4,2.4-12.1c1.5-2.7,3.6-5,7.1-5.5
	c1.6-0.2,3.1-1.2,4.6-2.1c3.8-2.3,4.1-6.3,4.6-10.1c0.6-5.5,0.7-11.1,1.3-16.6c0.3-3.1,0.5-6.2,2.2-9.1c1.4-2.3,2.1-4.9,3.3-7.4
	c1.4-3.2,3.8-5.6,6.4-7.9c3.5-3,7.7-4.6,11.8-6.5c2.8-1.3,6.7,0,8.8,2.5c1.7,2.2,2.9,4.6,3.1,7.3c0.2,3.2,0.3,6.4,0.2,9.5
	C543.7,543.3,543,543.7,541.1,544.4z"/>
<path d="M389.6,530.2c-2.4,3.1-4.8,6-6.9,9c-2.7,3.7-4.9,2.9-8.2,0.9c-5.6-3.5-9.3-8.6-12.2-14.4c-1.7-3.5-3.6-7.1-4.7-10.8
	c-1.7-5.6-2.2-11.4-0.4-17.3c1-3.4,3.5-5.1,6-7.1c2.1-1.6,4.3-3,6.4-4.6c3-2.2,4.1-5.4,4.1-9c-0.1-4.6-0.3-9.2-0.4-13.8
	c-0.1-3,0.9-5.7,2.5-8.2c2-3,6.9-2.6,8.3,0.6c2.1,5.1,4.5,10.1,5.9,15.4c1.2,4.7,2.7,9.5,1.7,14.5c-0.5,2.5-2.4,4.9-5.8,3.6
	c-4.2-1.7-8.1,0.7-9.8,3.6c-1.5,2.6-1.6,5.6,0.1,8.4c2,3.2,3.9,6.6,5.8,9.9c0.5,0.9,1,1.8,1.5,2.7c0.1,0.3,0.2,0.6,0.1,0.9
	c-1.6,4.5,0.1,8.7,1.8,12.7c0.4,1,1.8,1.6,2.8,2.4C388.7,529.8,389.2,530,389.6,530.2z"/>
<path d="M678,567.3c-2.4-2.7-4.9-5.2-7-8s-3.6-5.9-5.7-8.7c-1.9-2.5-1.1-4.6-0.2-7.1c2.1-6.3,4-12.6,5.9-18.9
	c1.5-5,2.9-10.1,4.6-15.1c1.9-5.7,4-11.3,6.1-16.9c0.7-2,1.2-2.1,2.7-0.7c3.8,3.6,7.6,7.2,11.4,10.8c0.9,0.9,1.9,1.8,3,2.3
	c1.4,0.6,1.3,1.5,1.1,2.6c-0.9,5.6-1.9,11.3-2.7,16.9c-1,6.7-1.8,13.3-2.6,20c-0.3,2.3-0.7,4.5-0.9,6.8c-0.2,2.6-2.2,3.9-3.8,5.4
	c-3.6,3.3-7.2,6.5-10.8,9.8C678.7,566.9,678.5,567.1,678,567.3z"/>
<path d="M418.5,271.6c0.3,0.9,0.7,1.7,0.9,2.6c1.9,7.8,3.7,15.7,5.8,23.5c1.4,5.1,3.1,10.1,4.6,15.2c0.6,2.2,1.2,4.4,1.5,6.6
	c0.1,0.7-0.9,1.6-1.6,2.2c-2.5,2-5.1,3.8-7.7,5.7c-4.4,3.2-9.5,4.9-14.4,7c-4.3,1.9-8.6,3.9-12.9,5.9c-0.5,0.2-1,0.5-1.7,0.4
	c0.2-0.2,0.5-0.3,0.6-0.5c0.2-0.4,0.5-0.9,0.4-1.2s-0.7-0.5-1.1-0.6c-3.6-0.9-7.2-1.8-10.7-2.8c-2.2-0.6-2.4-1-1.4-3
	c1.7-3.3,3.4-6.6,5.3-9.8c3.4-5.5,6.9-11.1,10.7-16.3c3.4-4.6,7.3-8.9,10.9-13.4c1.1-1.3,1.9-2.9,3.3-3.7c2.3-1.3,1.7-2.9,1.2-4.7
	c-0.5-2-0.9-4-1.3-6c-0.1-0.3,0.1-0.8,0.4-1c2-2,4.1-3.9,6.2-5.9C417.8,271.9,418.1,271.9,418.5,271.6z"/>
<path d="M395.9,636.5c0-0.6-0.1-1.6-0.2-2.6c-0.7-7.8-1.4-15.7-2.1-23.5c-0.6-7.2-1.2-14.5-1.8-21.7c-0.1-1.3-0.4-2.5-0.4-3.7
	c0-0.7,0.1-1.6,0.5-2.1c2.1-2.8,4.3-5.4,6.5-8.1c3.7-4.7,7.4-9.4,11-14.2c1.5-2,2.7-4.3,4-6.5c0.2,0,0.3,0,0.5,0
	c0.6,3.5,1.2,7,1.8,10.5c0.9,5.5,1.8,10.9,2.7,16.4c1.2,6.9,2.4,13.7,3.5,20.6c0.4,2.5,0.9,5.2,0.4,7.6c-0.9,4.1-3,7.9-5.5,11.3
	c-0.3,0.4-0.7,0.7-1.2,0.8c-5.4,1.7-9.4,5.4-13.1,9.5C400.5,632.8,398,634.6,395.9,636.5z"/>
<path d="M306.5,449.1c0.8-1,1.5-1.7,2-2.6c3.3-5.6,6.5-11.2,9.7-16.8c1.7-3,3.4-6.1,5.1-9.1c1.9-3.5,3.7-6.9,5.5-10.4
	c0.3-0.6,0.4-1.4,0.7-2.3c1.6,0.3,3.1,0,4.2,2.1c3.8,7.6,7.9,15,11.9,22.5c2.3,4.2,4.7,8.3,7.1,12.6c-9,9.9-19.2,18.6-29.4,27.5
	C317.5,464.6,310.5,457.8,306.5,449.1z"/>
<path d="M642.2,533.5c2.3-1.2,2.2-1.2,1.2-3.6c-0.6-1.4-0.9-3-1.2-4.5c-0.6-3.3-1.1-6.6-1.6-9.9c-0.2-1.6-0.4-3.1-0.6-4.7
	c-0.2-2.9-0.3-5.8-0.6-8.7c-0.4-3.3-1-6.5-1.4-9.8c-0.3-2.1-0.3-4.2-0.6-6.4c-0.4-3.3-0.8-6.6-1.2-9.9c-0.2-2.1-0.3-4.2-0.4-6.2
	c0-0.3,0.8-0.8,1.2-0.8c0.3,0,0.8,0.5,0.9,0.9c0.6,3.5,1.2,7.1,1.7,10.7c1.2,8.2,2.4,16.4,3.6,24.5c0.3,1.8-0.5,3.1-1.4,4.4
	c-0.3,0.4-0.2,1-0.2,1.6c0.5-0.2,1.2-0.3,1.6-0.6c2-1.8,2.5-3.9,1.9-6.6c-0.9-4.3-1.4-8.7-2-13c-0.1-0.5,0.1-1.1,0.4-1.6
	c1.5-2.3,3-4.6,4.5-6.9c0.2-0.4,0.3-1,0.2-1.4c-1.1-3.9-2.3-7.7-3.4-11.6c-0.4-1.3-0.8-2.6-1.2-4.1c0.7-1.2,1.5-2.7,2.5-4.1
	c0.2-0.3,1.2-0.6,1.5-0.4c3.7,2.1,7.3,4.4,11,6.6c2.6,1.6,5.2,3.2,7.8,4.7c2.2,1.2,2.2,1.3,1.4,3.7c-1.9,5.9-3.9,11.8-5.7,17.8
	c-2.1,6.6-4.1,13.2-6.2,19.8c-0.3,1-1.1,2.2-0.8,3.1c0.3,0.8,1.6,1.4,2.4,2c2.5,1.9,2.5,1.9,1.5,4.9c-2.5,7.7-5,15.4-7.6,23.1
	c-1.7,5.1-3.7,10.1-5.5,15.1c-0.1,0.4-0.4,0.7-0.8,1C644.9,552.8,641.8,543.4,642.2,533.5z"/>
<path d="M555.4,551.2c1,1.8,1.5,3.3,2.5,4.3c2.7,2.8,5.4,5.5,8.4,8c3.8,3.3,7.4,6.8,9.2,11.5c1.4,3.7,1.9,7.7,2.6,11.6
	c0.5,3.3,0.4,6.8,1.1,10c0.7,3.4,2,6.7,5,8.9c2,1.5,4.2,1.6,6.5,1.5c2.4-0.2,4.2,0.8,5.7,2.5c4.8,5.6,3.5,12.6-1.9,16.8
	c-4.5,3.5-7.2,7.7-8.4,13.2c-0.4,1.8-1,3.6-1.7,5.4c-0.7,1.8-2.1,3-4,3.5c-0.5,0.1-1.2-0.1-1.6-0.5c-3-2.5-4.5-5.9-5.9-9.4
	c-2.6-6.5-3.4-13.4-3.9-20.2c-0.3-4.2-0.2-8.4-0.4-12.6c-0.3-7-0.8-14-3.2-20.7c-1.2-3.3-1.8-6.9-3-10.1c-1.8-4.6-4-9.1-6.1-13.7
	c-0.4-0.9-0.9-1.9-1.4-2.7c-0.9-1.4-1.5-2.7-0.3-4.3C554.9,553.4,555,552.5,555.4,551.2z"/>
<path d="M585.8,563.9c-1.5-2.3-3.3-4.5-4.5-6.9c-2.1-4.1-4.3-8.2-5.8-12.5c-1-3-1.3-6.3-1.4-9.5c-0.1-2.8,0.3-5.7,0.9-8.5
	c0.7-3.3,1.4-6.6,2.7-9.7c2.5-5.9,3.3-12,1.6-18.2c-0.5-1.9-1.2-3.8-2.2-5.5c-2.9-5.2-3.4-10.2,0.1-15.4c1.8-2.6,3.9-4.6,7.4-5
	c4.3,5.6,7.8,11.8,7.3,19.3c-0.2,3.3-1.3,6.5-1.8,9.7c-0.6,4.3-1.4,8.6-1.4,12.9c0,2.7,0.7,5.7,2.8,7.7c1.6,1.5,3.8,1.9,6.1,1.4
	c3.8-0.8,6.5-3.1,8.7-6.3c-6.6,15.5-13.2,30.9-19.8,46.3C586.2,563.8,586,563.9,585.8,563.9z"/>
<path d="M650.6,724.4c-0.5,1.8-0.8,3.2-1.3,4.6c-0.4,1.1-2,1.3-2.9,0.5c-0.9-0.7-1.8-1.5-2.4-2.4c-1.1-1.9-2.9-2.7-4.7-3.5
	c-0.6-0.3-1.7-0.2-2.3,0.2c-1.8,1.3-3.6,2.8-5.3,4.2c-2.9,2.4-4.8,2.2-6.8-1c-2.3-3.7-4.6-7.4-6.9-11.1c-2-3.3-6.9-3.9-9.6-1.2
	c-0.8,0.8-1.5,1.7-2.2,2.6c-2.1,3-5.5,3.7-8.7,2c-3.3-1.7-5.7-4.5-8.4-7c-1.5-1.4-3.1-2.7-4.8-3.7c-2-1.1-0.9-2.6-0.8-3.8
	c0.1-1.2,0.5-2.3,0.9-3.4c0.4-1.1,0.6-2.2,1.9-3.1c1.3-0.9,1.8-2.8,2.6-4.3c1.6-2.8,3.2-5.5,4.9-8.2c0.6-0.9,1.5-1.5,2.4-2.1
	c3.2-2.1,5.8-4.8,8.5-7.5c1.2-1.2,2.7-2,4.1-3c0.2-0.1,0.6-0.1,0.8,0c1.4,0.5,2.9,1.1,4.3,1.6c1.8,0.5,2.7,1.6,3.1,3.5
	c1.5,6.5,3,12.9,4.5,19.3c1,4,2.3,7.9,3,11.9c0.6,3.7,3.7,3.9,6.1,4.8c3.1,1.2,6.1,0.4,8.8-1.7c0.9-0.7,1.8-0.7,2.8-0.1
	c2.3,1.4,5,2.4,6.1,5C649.3,719.6,649.9,722.2,650.6,724.4z M591.3,702.4c0.2,1.1,0.4,2.3,0.7,3.4c1.3,4.1,3.2,7.9,7.4,7.7
	c4.9-0.2,7.8-1.9,6.5-6.6c-1.3-4.7-3.5-8.9-8.3-10.7c-0.8-0.3-1.9,0.2-2.9,0.5c-0.4,0.1-0.6,0.6-1,0.9
	C591.9,698.6,591.5,700.4,591.3,702.4z M617,698.8c0-2.6-0.7-5-3-6.5c-0.4-0.3-0.7-0.6-1-1c-1.1-1.4-1.9-1.4-3,0
	c-2.2,2.9-2.1,6.2-1,9.4c0.8,2.2,3.4,3.6,5.2,3C616.2,703,617,701.7,617,698.8z M604.1,690.6c1.6,0,3.7-2.1,3.6-3.6
	c-0.1-1.6-1.8-3.9-3-3.6c-1.1,0.2-2.3,0.7-3.1,1.4c-0.6,0.5-0.8,1.5-0.9,2.3C600.5,688.9,602.2,690.6,604.1,690.6z"/>
<path d="M472.4,636.5c-6.1,6.5-12.2,13-18.4,19.8c-1.5-3-3-5.7-4.4-8.5c-3.5-7.1-6.8-14.3-10.3-21.5c-0.5-1.1-0.4-2.1,0.2-3.2
	c0.5-1,0.7-2.3,0.5-3.4c-0.3-2.3-0.9-4.5-1.3-6.8c-0.1-0.3,0.1-0.7,0.2-1c1.1-3.6,2.2-7.3,3.3-10.9c0.6-1.9,1.4-3.8,2.1-5.7
	c0.2-0.4,0.5-0.9,0.4-1.3c-0.3-2,0.9-2.1,2.4-1.9c4,0.5,8,1,12,1.5c1.1,0.1,1.6,0.6,1.6,1.9c-0.1,7.1,1.1,14,2.8,20.8
	c1.5,5.7,3.3,11.4,6.4,16.5C470.7,634,471.5,635.1,472.4,636.5z"/>
<path d="M642.6,645.5c1,0.4,1.6,0.6,2.2,1c0.3,0.2,0.7,0.6,0.8,0.9c1.1,3.7,2.2,7.4,3,11.2c1.5,6.3,3.2,12.4,5.1,18.6
	c2.5,7.9,4.6,15.9,6.8,23.9c0.4,1.4,0.5,2.9,0.8,4.8c-1.4-0.5-2.5-0.9-3.5-1.2c-2.7-0.8-5.5-1.5-8.2-2.4c-2.3-0.7-4.6-1.5-6.9-2.4
	c-4.6-1.9-9.2-3.9-13.8-5.9c-0.6-0.3-1.4-1-1.5-1.6c-1.5-5.6-2.8-11.2-4.3-16.7c-0.4-1.6,0-2.8,0.7-4c1.3-2.1,2.7-4.2,4.1-6.2
	c3.7-5,7.5-10,11.2-15c0.9-1.2,1.6-2.6,2.5-3.9C642,646.1,642.4,645.8,642.6,645.5z"/>
<path d="M691.3,495.6c-1-0.8-1.7-1.3-2.3-1.9c-1.6-1.4-3.1-2.9-4.7-4.2c-1.9-1.6-3.1-1.3-3.9,1c-1.7,4.7-3.3,9.5-4.9,14.3
	c-2.1,6.5-4.2,13.1-6.3,19.6c-0.1,0.2-0.2,0.4-0.4,0.7c-2.9-2.3-5.8-4.6-8.6-6.9c-3-2.5-2.9-2.6-1.8-6.4c1.9-5.9,3.6-11.8,5.5-17.7
	c1.3-3.9,2.7-7.8,4-11.6c0.7-2.2,1.3-4.5,2.1-6.7c0.2-0.5,0.7-0.9,1.1-1.2c0.4-0.4,0.9-0.7,1.3-1.1c2.1-1.9,4.1-3.9,6.3-5.6
	c5.1-4,10.4-7.9,15.5-11.8c2.1-1.6,4.2-3.4,6.3-5c0.6-0.5,1.4-0.8,2.1-1.1c0.2,0.1,0.3,0.3,0.5,0.4
	C699.2,465.2,695.3,480.2,691.3,495.6z"/>
<path d="M555.1,704.5c1.2-3.1,0.5-5.7-1.2-8.2c-0.3-0.4,0-1.5,0.4-2c1.2-1.6,1.1-3,0.4-4.9c-1-2.7-1.6-5.6-2.1-8.4
	c-0.3-1.4,0.1-2.9,0-4.4c-0.1-4-0.5-8-0.5-12.1c0-3.9,0.2-7.8,0.4-11.7c0-1.2,0-2.4,0-3.8c3.4-1.5,8.2,0.2,10.3,3.8
	c1.5,2.5,2.7,5.3,4.2,7.8c2.1,3.4,5.1,5.9,8.8,7.5c1,0.5,1.8,0.8,1.8,2.2c0,6.2-0.1,12.3,0.4,18.5c0.3,4.5-1.8,6.2-5.7,7.5
	c-3.7,1.2-7.3,2.9-10.8,4.6C559.3,701.9,557.2,703.3,555.1,704.5z"/>
<path d="M405.6,395.2c-1.6-0.3-2.6,0.4-3.3,2c-0.5,1.1-1.6,1.9-2.7,3.1c-7.2-12.3-14.2-24.4-20.7-37.3c-0.4,0.1-1.2,0.3-2.3,0.5
	c-3.4-9.5-6.7-19.2-7-29.8c2.8,1,5.5,2,8.3,2.8c3.7,1.1,7.5,2.1,11.3,3.2c0.4,0.1,1,0.4,1.2,0.8c1.4,3.5,2.9,6.9,3.6,10.7
	c0.9,4.8,2.3,9.4,3.5,14.1c2.3,8.6,4.8,17.2,7.1,25.9C404.9,392.5,405.2,393.8,405.6,395.2z"/>
<path d="M672.5,372.8c-0.3-0.5-0.6-0.9-0.8-1.4c-1.9-3.8-3.6-7.7-5.6-11.5c-2.6-5-5.6-9.8-8.2-14.9c-2.7-5.2-5.2-10.5-7.6-15.9
	c-1.2-2.7-1-2.6,1.8-3.5c6.1-1.9,12.1-4.1,18.1-6.1c2-0.7,2.1-0.6,2.8,1.5c1.5,5,3,10,4.6,14.9c2.3,7.1,4.4,14.2,7,21.1
	c1.6,4.3,1.4,4-2,6.9c-2.2,1.9-4.2,4-6.4,6C675.1,370.9,673.8,371.7,672.5,372.8z"/>
<path d="M608.8,518.3c0.6,5.6,1.3,11.1,1.8,16.7c0.3,3.1,0.5,6.1,0.8,9.2c0,0.4,0.4,1,0.6,1c1.9,0,2,1.6,2.6,2.8
	c2.1,4.3,4.1,8.6,6.3,13.1c-7.5,7-15,14.1-22.7,21.2c-1.2-2.5-2-4.8-3.3-6.8c-1.7-2.8-3.7-5.5-5.7-8c-1.1-1.3-1.5-2.3-0.7-4
	c2.4-5.4,4.6-10.9,6.9-16.4c2.4-5.8,4.7-11.7,7.3-17.5c1.7-3.8,3.8-7.5,5.7-11.2C608.5,518.3,608.6,518.3,608.8,518.3z"/>
<path d="M661.4,392.8c0.8,2.3,1.9,5.1,2.8,7.9c1.5,4.7,2.7,9.6,4.2,14.3c0.5,1.7-0.7,2.7-1.5,3.6c-1.8,1.9-4,3.6-6,5.4
	c-3.4,3.1-6.7,6.3-10,9.5c-3.2,3.1-6.3,6.2-9.5,9.3c-1.6,1.6-3.3,3.2-4.9,4.8c-0.3,0.3-0.4,0.8-0.6,1.2c-0.2-0.1-0.4-0.3-0.6-0.4
	c-0.3-0.9-0.9-1.9-1-2.8c-0.8-6.6-0.1-12.8,3.9-18.6s7.3-12.1,9.5-18.9c0.6-1.9,1.1-3.7,2.7-5.1
	C654.1,399.7,657.7,396.2,661.4,392.8z"/>
<path d="M525.5,509.7c3.4-2.2,3.4-6,4.1-9.3c0.9-4.3-0.4-8.6-0.8-12.9c-0.7-7.2-3.4-13.9-5-20.9c-0.7-2.9-1.2-6-0.1-9.1
	c0.7-1.9,1.8-2.5,3.6-1.6c0.9,0.4,1.7,0.9,2.5,1.5c2.9,2.5,6.1,2.2,9.4,1.4c0.4-0.1,0.9-0.3,1.3-0.4c5.2-1.3,5.4-0.6,7.7,3.9
	c0.4,0.9,0,2.5-0.6,3.5c-1.6,2.7-3.6,5.3-5.4,7.9c-0.7,1-1.3,2.2-1.7,3.3c-0.9,2.7,0.2,4.9,2.8,5.9c0.2,0.1,0.5,0.1,0.7,0.2
	c2.9,1.2,2.9,1.3,1.8,4.2c-0.8,2.2-1.4,4.5-2.3,6.6c-0.6,1.3-1.7,2.3-2.4,3.5c-2.2,3.6-4.6,6.9-8.4,9.1c-2.2,1.3-4.6,2.3-6.9,3.5
	C525.6,510,525.5,509.8,525.5,509.7z"/>
<path d="M551.4,558.7c0.7,2.4,1.8,4.8,2.1,7.3c0.4,3.4,0.3,6.8-2.5,9.4c-2.9,2.7-5.5,2.7-8.4,0.2c-1.8-1.5-3.5-3.1-5.3-4.6
	c-2.1-1.9-3.1-1.8-4.9,0.4c-2.2,2.7-2.6,5.9-3.2,9.1c-0.7,3.5-1.5,7-2.1,10.6c-0.3,2.1-1.9,2.3-3.4,2.6c-1.6,0.3-2-0.7-2.7-1.8
	c-1.1-1.7-1-3.5-0.7-5.4c0.7-4.4,1.3-8.8,1.7-13.2c0.6-5.8,1-11.6,1.8-17.4c0.2-1.7,1.4-3.3,2.3-4.9c0.3-0.5,1.2-0.8,1.8-0.7
	c2.1,0.2,4.1,0.8,5.7,2.4c2,2.1,4,4.2,6,6.2c0.7,0.7,1.8,1.1,2.8,1.6c0.3,0.2,0.8,0.1,1.1,0.3C546.9,562.8,549,560.4,551.4,558.7z"
	/>
<path d="M521.4,338.8c2.1,1.7,4.2,3.3,6.2,5c2.9,2.3,5.9,4.7,8.9,7c0.4,0.3,1,0.6,1.5,0.5c2.9-0.3,5.7-0.7,8.6-1
	c4.9-0.4,9.8-0.6,14.7-0.9c0.5,0,1.1,0.2,1.6,0.3c0.6,0.1,1.2,0.3,1.8,0.4c0.1-0.5,0.5-1.1,0.3-1.4c-0.4-0.6-1-1.5-1.5-1.5
	c-1.3-0.1-2.6,0.2-3.9,0.3c-2.7,0.2-5.4,0.5-8.2,0.7c-3.8,0.2-7.6,0.3-11.2,0.4c4.3-6.8,8.7-13.7,13.1-20.6c1.7-0.1,2.6,0.7,3.2,2
	c2,4.1,4.1,8.1,6.1,12.2c1.3,2.8,2.5,5.7,3.8,8.9c-3.2,2.3-6.3,4.5-9.3,6.8c-2.6,1.9-5.1,3.8-7.6,5.8c-0.9,0.7-1.4,0.6-2.2-0.1
	c-6.4-5.2-12.8-10.4-19.1-15.7c-2.5-2.2-4.7-4.8-7-7.2c-0.3-0.3-0.3-1-0.4-1.6C521,339,521.2,338.9,521.4,338.8z"/>
<path d="M443.1,591.6c-0.7,2.3-1.4,4.5-2,6.6c-1.1,3.8-2.2,7.6-3.4,11.4c-0.6,2-1.2,2.2-3,1.3c-2.3-1.2-4.6-2.4-6.9-3.6
	c-2.1-1.1-3.3-2.7-3.6-5.2c-0.5-4.1-1.6-8.2-2.3-12.3c-1.4-8.2-2.8-16.4-4.2-24.6c-0.7-4-1.5-8-2.3-11.9c-0.1-0.3,0-0.5-0.1-1.3
	c2.6,0.5,5,0.9,7.4,1.4c0.3,0.1,0.5,0.8,0.6,1.3c1,5.3,2,10.5,2.8,15.8c1,6.5,1.9,13.1,2.8,19.6c0.2,1.7,0.1,3.4-0.2,5.1
	c-0.6,3-1.6,6-2.2,8.9c-0.1,0.5,0.3,1.2,0.5,1.8c0.4-0.5,1.1-0.9,1.3-1.4c0.9-3.4,1.6-6.9,2.5-10.3c0.1-0.6,0.7-1.3,1.2-1.4
	c3.3-0.6,6.7-1,10.1-1.5C442.1,591.3,442.4,591.4,443.1,591.6z"/>
<path d="M569.7,414.8c-0.5-0.5-1-0.9-1.2-1.3c-2.5-7.4-5.1-14.7-7.5-22.1c-0.2-0.8,0-1.9,0.5-2.7c1.6-2.9,3.3-5.7,4.9-8.5
	c1.6-2.7,3.2-5.3,4.8-8c0.5-0.8,0.9-1.7,1.6-3c0.6,1.9,1.1,3.3,1.5,4.8c1.4,5.7,3.1,11.2,6.6,16c1.3,1.7,2.8,3.2,4.5,5.1
	C580.3,401.4,575.1,408,569.7,414.8z"/>
<path d="M577.6,696c1,2.6,3.8,0.2,5.5,2.1c-1.4,4.6-2.8,9.5-4.4,14.4c-0.6,1.9-2,3.2-4.2,3.9c-6.2,1.8-12.3,3.9-18.4,5.9
	c-2.9,1-5.7,2.2-8.9,3.4c1-2.8,2-5.4,2.8-7.9c0.4-1.3,0.8-2.6,1.1-3.9c1-4.2,3.2-7.4,7.4-9.2c2-0.8,3.9-2.1,5.9-3.1
	c2.8-1.3,5.6-2.5,8.4-3.7C574.5,697.3,576.1,696.7,577.6,696z"/>
<path d="M674.9,567.6c-8.4,6.7-16.8,13.4-25.5,20.3c-1.3-3.6-2.6-6.6-3.5-9.7c-0.4-1.6,0.1-3.4,0-5.1c-0.1-1.8-0.2-3.5-0.6-5.2
	c-0.3-1.3,0.4-1.8,1.3-1.7c1.8,0.2,3.6,0.5,5.3,1c1,0.3,1.4,0.3,1.9-0.7c2.2-4.3,4.4-8.6,6.6-13c0.5-1,1-2.1,1.7-3.4
	C666.4,555.9,670.6,561.6,674.9,567.6z"/>
<path d="M476.2,640.7c4.4,1.2,8.1,2.2,12.2,3.3c-0.7,2-1.6,4.2-2.3,6.5c-1,3-1.7,6-2.8,9c-0.7,2-1.3,4.1-2.5,5.7
	c-0.7,0.9-2.5,1-3.9,1.2c-4.2,0.5-8.3,0.9-12.5,1.4c-1.2,0.1-2.5,0.2-3.8,0.1c-0.3,0-0.8-0.4-0.9-0.7c-0.9-1.8-1.8-3.5-2.7-5.2
	C463.6,654.7,470.1,647.4,476.2,640.7z"/>
<path d="M367.1,369.1c1.8-0.6,3.3-1.1,4.8-1.6c1.8-0.5,3.6-1.1,5.5-1.5c0.4-0.1,1.1,0.6,1.4,1.1c2.1,3.8,4.1,7.6,6.2,11.4
	c2.4,4.3,4.9,8.5,7.3,12.8c1.8,3.1,3.5,6.3,5.1,9.4c0.2,0.4,0.2,1.3,0,1.6c-1,1.2-2.2,2.4-3.4,3.5c-0.7,0.7-1.2,0.7-2.1,0.1
	c-5.3-4.1-10-8.9-13.8-14.3c-3.3-4.7-6.4-9.7-8.4-15.2C369,374,368,371.6,367.1,369.1z"/>
<path d="M439,537c4.3,17.8,8.6,35.6,13,53.5c-3.8-0.5-7.2-0.9-10.6-1.4c-0.6-0.1-1.5-0.8-1.6-1.4c-1.1-4-2-8-2.9-12
	c-0.8-3.6-1.5-7.3-2.1-10.9c-0.5-2.7-1-5.5-1.4-8.3c-0.2-1.2-1-2.6,0.7-3.4c0.1-0.1,0.2-0.3,0.2-0.5c0-3.5,1.8-6.4,3-9.6
	c0.5-1.4,0.5-2.9,0.8-4.4c0.1-0.6,0.4-1.2,0.7-1.8C438.7,537,438.9,537,439,537z"/>
<path d="M640.9,579.1c-3.1-3.9-6.1-7.7-9.1-11.4c-2.3-2.8-4.6-5.7-6.9-8.4c-0.4-0.5-1.3-0.6-2.2-1c4.3-8.3,10.4-15.4,16.4-22.7
	c0.2,0,0.4,0.1,0.6,0.1c0.3,1.6,0.7,3.3,0.9,4.9c1.1,8.7,2.1,17.5,3.2,26.2c0.2,1.9,0.3,3.9,0.6,5.8
	C644.5,575.6,643.6,577.8,640.9,579.1z"/>
<path d="M521.4,344.6c6,5,11.7,9.9,17.5,14.7c2.5,2.1,5.2,4.2,7.6,6.4c0.8,0.8,1.4,2.1,1.5,3.2c0.7,5.5,1.2,11,1.7,16.5
	c0.2,2.4,0.2,4.8,0.4,7.7c-1.5-1.2-2.7-2.2-3.8-3.2c-4.2-4.2-8.5-8.4-12.7-12.6c-0.4-0.4-0.8-0.9-0.8-1.4c-0.6-6-2.9-11.5-4.8-17
	c-1.1-3-2.7-5.8-4-8.7C523.1,348.3,522.3,346.5,521.4,344.6z"/>
<path d="M455.9,304.9c1.6,6.1,3,12.4,4.9,18.5c0.8,2.6,0,3.9-1.6,5.6c-3.2,3.6-6,7.6-9.1,11.3c-1.8,2.2-3.8,4.4-5.9,6.8
	c-0.5-3-1.1-5.8-1.5-8.6c-0.7-4.5-1.2-9-1.8-13.6c-0.1-1.1-0.2-2,0.6-3C446.3,316.4,451,310.7,455.9,304.9z"/>
<path d="M502.9,694c3.1-1.5,6.1-3.2,9.3-4.6c5.3-2.4,10.7-4.6,16-6.9c2.9-1.3,5.7-2.7,8.6-4.1c0.3-0.1,0.6-0.4,0.9-0.4
	c3.7,0.4,7.4,0.8,11.1,1.2c0,0.2,0,0.4,0.1,0.6c-2.3,1.9-4.6,3.9-6.9,5.8c-4.2,3.5-8.4,6.9-12.6,10.3c-1.9,1.5-3.8,2.8-5.8,4.1
	c-0.4,0.3-1.1,0.4-1.6,0.3c-6.3-1.8-12.6-3.7-18.9-5.6C503,694.5,502.9,694.3,502.9,694z"/>
<path d="M447.7,564.9c4.6,1.3,9,1.6,13.4,1.3c4.3-0.3,8.7-0.6,13.2-1c-0.3,0.9-0.4,1.9-0.9,2.8c-2,3.9-4,7.7-6,11.6
	c-1.9,3.7-3.7,7.4-5.6,11c-0.2,0.4-1,0.8-1.5,0.8c-1.5-0.1-3-0.4-4.6-0.5c-1.1-0.1-1.7-0.3-1.8-1.7c-0.2-2.4-0.3-5.1-1.3-7.2
	c-2.2-4.7-2.6-9.8-4.4-14.6C447.9,566.7,447.9,565.9,447.7,564.9z"/>
<path d="M432.4,549.3c-4.2-19.7-8.4-39.3-12.5-59c1.6,0,3.5,0,5.4,0c0.4,0,0.9,0.5,1,0.9c1.7,5.5,3.4,11,5,16.5
	c1.8,6.1,3.5,12.1,5.3,18.2c0.5,1.7,1,3.4,1.2,5.1c0.1,1-0.2,2.2-0.4,3.2c-0.5,2-1.2,4-1.8,6c-0.9,3-1.9,6.1-2.8,9.1
	C432.6,549.4,432.5,549.3,432.4,549.3z"/>
<path d="M389.6,586.1c1.1,11,2.1,22,3.2,33c-4.3,0.7-20.1-7.2-24.7-12.5c7.1-6.8,15-12.8,21-20.6
	C389.3,586.1,389.4,586.1,389.6,586.1z"/>
<path d="M353,403.1c3,2.7,5.5,5.1,8.1,7.5c0.1,0.1,0.2,0.3,0.3,0.4c2.8,1.6,2.1,4.1,1.5,6.3c-1.6,6.1-3.4,12.1-5.2,18.1
	c-0.7,2.2-1.3,4.5-2,6.7c-0.2,0.5-0.6,0.9-1.2,1.7c-3-5.3-5.9-10.1-8.4-15.2c-0.6-1.2-0.1-3,0.3-4.5c1.2-4.6,2.4-9.1,3.8-13.6
	C350.9,408.1,351.9,406,353,403.1z"/>
<path d="M437.7,627.5c1.8,3.6,3.4,6.8,5,10.1c3.9,7.9,7.8,15.7,11.7,23.6c0.9,1.7,1.9,3.4,2.7,5.1c2.3,4.4,2.4,8.9,1.3,13.6
	c-0.3,1.4-0.6,2.8-0.9,4.5c-0.9-1.8-1.7-3.3-2.4-4.8c-3.4-6.7-6.8-13.3-10.1-20c-3.3-6.7-6.2-13.6-9.9-20.1c-1.6-2.9-1.9-5,0-7.6
	C436,630.8,436.8,629.3,437.7,627.5z"/>
<path d="M607.6,667.9c-1.1-4.9-2.3-9.8-3.4-14.8c-1-4.6-2.1-9.3-2.9-13.9c-0.2-1,0.3-2.2,0.7-3.2c1.5-3.2,4.6-4.7,7.2-6.9
	c1.8-1.6,3.5-3.4,5-5.3c1.5-1.9,2.7-4,4.1-6c0.5,0.2,1.2,0.5,2,0.8c-4,16.5-7.9,33-11.9,49.5C608,668,607.8,667.9,607.6,667.9z"/>
<path d="M409.6,538.1c1.3,0,2.2,0,3,0c1.9,0,3.1-0.8,4.2-2.4c4.3-6.3,4.5-13.5,4.1-20.6c-0.3-5.8-1.4-11.6-2.1-17.3
	c-0.1-0.6-0.1-1.2-0.1-1.8c0.2,0,0.3,0,0.5-0.1c3.9,18.5,7.9,36.9,11.8,55.2c-0.4,0.3-0.5,0.4-0.6,0.4c-3.4-0.4-6.7-0.7-10.1-1.1
	c-0.6-0.1-1.2-0.2-1.9-0.2c-2.3-0.1-3.9-0.8-4.8-3.2C412.5,544.3,411.1,541.5,409.6,538.1z"/>
<path d="M333.5,375c1.3-0.7,2.4-1.1,3.3-1.6c3.9-2.4,4.6-2.1,5.5,2.3c1.1,5.5,2.3,11,3.6,16.5c0.6,2.6-0.8,4.4-2.2,6.1
	c-2.1,2.6-4.2,5.2-6.4,7.8c-0.3,0.4-0.8,0.8-1.2,0.8c-1.8-0.2-3.6-0.5-5.4-0.9c-0.4-0.1-1-1-0.9-1.4c1-7.6,2.2-15.1,3.2-22.7
	C333.3,379.4,333.3,377,333.5,375z"/>
<path d="M308.6,441.3c0.8-3.7,1.5-7.3,2.3-11c1.4-6.3,2.9-12.7,4.2-19c1.2-5.6,2.2-11.2,3.2-16.8c0-0.1,0-0.2,0.1-0.3
	c0.6-2.6,0.9-2.8,3.2-1.7c2.1,1,4.1,2,6.1,3.2c0.6,0.3,1.1,1.3,1.1,2c-0.3,7.1-2.2,13.9-6,20c-1.7,2.7-3.1,5.7-4.7,8.5
	c-1.8,3.2-3.7,6.2-5.6,9.4c-0.9,1.6-1.8,3.2-2.7,4.8c-0.2,0.4-0.6,0.8-0.8,1.2C308.8,441.4,308.7,441.4,308.6,441.3z"/>
<path d="M554.4,396.3c0.2-3,0.4-6,0.7-9c0.4-3.5,0.9-7,1.3-10.5c0.5-4.3,0.9-8.7,1.7-13c0.3-1.7-0.8-3.9,1.3-5.2
	c1.6-1,3.1-2.1,4.6-3.2c1-0.7,2-1.3,3.2-2.2c1.1,2.8,2.1,5.5,3.1,8.2c0.2,0.5,0.3,1,0.5,1.5c0.8,1.9,1.4,3.5-0.1,5.7
	c-2.3,3.3-3.8,7.2-5.8,10.7c-2.4,4.3-4.8,8.6-7.7,12.5c-1.1,1.5-1.5,3.1-2.4,4.7C554.7,396.4,554.5,396.3,554.4,396.3z"/>
<path d="M604.7,412.9c-2.1,4.1-5.3,7.1-9.1,9.5c-3,1.8-6,1.9-9.1,0.6c-3.6-1.6-7.2-3.2-11.3-5c2.4-2.9,4.6-5.4,6.7-7.8
	c1.6-1.8,3.2-3.5,4.8-5.3c0.8-0.8,1.4-1.1,2.6-0.4c4.2,2.4,8.5,4.5,12.7,6.8C603.1,411.7,603.9,412.4,604.7,412.9z"/>
<path d="M448.4,537.4c-1.9-1.4-3.7-3.1-5.8-4.1c-2.4-1.2-3.1-3.2-3.7-5.4c-2.1-7.4-4.1-14.8-6.1-22.3c-0.8-3.1-1.5-6.2-2.5-9.3
	c-0.6-1.9-1.5-3.8-2.3-6c2.9-0.2,5.6-0.3,8.2-0.5c4.3,15.8,9,31.4,12.4,47.3C448.7,537.3,448.5,537.4,448.4,537.4z"/>
<path d="M601,612.9c-1.2-3.8-3.8-5.7-6.3-7.2c0.3-0.3,0.6-0.5,0.9-0.7c4.1-2.6,5.2-6.6,4.8-11.1c-0.2-2.8-0.9-5.6-1.4-8.4
	c-0.1-0.5-0.1-1.1,0.2-1.4c1.8-1.7,3.6-3.4,5.6-5.2c1.6,2.2,3.1,4.1,4.5,6.1c2.5,3.3,5,6.7,7.4,10c2.8,3.9,5.5,7.8,8.2,11.7
	c0.3,0.4,0.2,1.1,0.1,1.6c-1,2.4-2,4.9-3.1,7.2c-0.3,0.6-1.3,0.9-2,1.4c-0.2-0.1-0.4-0.1-0.6-0.2c0-0.7-0.3-1.5-0.1-2.1
	c1.4-4,1.4-8.1,0.7-12.1c-0.6-3.5-2.8-6.4-6-8.1c-0.9-0.4-2.1-0.3-3.2-0.1c-3.7,0.6-5.6,3.2-6.6,6.5
	C602.8,604.6,602,608.8,601,612.9z"/>
<path d="M599.7,642.5c1.8,9.9,4.4,19.6,6.7,29.6c-3.6,3.1-7.6,6.6-11.9,10.3c-0.6-3-1.2-5.6-1.7-8.2c-0.5-2.7-1-5.3-1.4-8
	c-0.1-0.4,0.1-0.9,0.3-1.3c3.2-6,5.8-12.2,6.5-19c0.1-1.1,0.6-2.3,0.9-3.4C599.4,642.5,599.6,642.5,599.7,642.5z"/>
<path d="M353.6,447.3c-6.1,13.4-12.2,26.5-15,40.9c-0.2,0-0.3,0.1-0.5,0.1c-0.8-1.5-1.6-3-2.4-4.6c-2-3.9-4-7.9-6.1-11.8
	c-0.8-1.4-0.2-2.2,0.7-3.1c4.9-4.4,9.7-8.9,14.6-13.4C347.9,452.8,350.6,450.1,353.6,447.3z"/>
<path d="M355.4,551.5c-2.1,2.9-4.1,5.6-6.2,8.5c-0.5-0.9-0.9-1.6-1.2-2.3c-2.9-6-5.9-11.9-8.6-17.9c-2.3-4.9-4.6-9.9-6.4-15.1
	c-0.7-2.2-0.2-4.8,0-7.2c0.4-4.4,1-8.7,1.6-13.1c0.1-1.1,0.1-2.2,0.4-3.2c0.3-0.7,1-1.2,1.6-1.9c0.2,0.1,0.4,0.2,0.6,0.3
	c0,0.9,0,1.9,0,2.8c0.3,5.8,0.4,11.7,1.2,17.4c0.6,4.7,1.7,9.4,3,14c1.3,4.4,3.8,8.2,6.6,11.9C349.8,548.5,352.2,550.3,355.4,551.5z
	"/>
<path d="M661.9,522.1c2.2,1.9,4,3.6,6.2,5.5c-0.6,1.9-1.2,4.3-2,6.6c-1,3.1-1.9,6.2-3.3,9.2c-1.9,4.3-4.1,8.4-6.2,12.6
	c-1.1,2.1-2.2,4.3-3.3,6.4c-0.7,1.3-1.4,2.8-3.4,2c-0.7-0.3-1.5-0.3-2.4-0.5C652.3,549.9,657.1,536.1,661.9,522.1z"/>
<path d="M371.7,554.4c-3.1,4-6.2,8-9.3,12c-2.3,2.9-4.7,5.7-6.9,8.7c-2.1,2.9-2.7,3-4.3-0.1c-1.3-2.5-2.4-5-3.6-7.6
	c-0.5-1,0.6-2.8,1.9-3.5c0.3-0.2,0.9-0.5,0.9-0.7c-0.1-2.4,1.9-3.7,3-5.4c0.9-1.4,2-2.7,2.8-4.3c0.8-1.7,2.3-1.4,3.3-0.9
	c3.5,1.6,7.2,1.7,10.9,1.3c0.3,0,0.7,0,1,0C371.4,554.1,371.6,554.2,371.7,554.4z"/>
<path d="M605.5,412c-0.6-1.7-0.9-3.1-1.4-4.4c-2.1-4.9-4.2-9.7-6.3-14.6c-0.2-0.4-0.1-1,0-1.4c1.2-3.4,2.6-6.8,3.7-10.2
	c0.8-2.8,2.7-3.6,5-1.7c2.8,2.3,4.2,5.3,4.8,8.9c0.9,5.5-0.3,10.6-2.2,15.7c-0.6,1.7-1.2,3.5-1.9,5.2
	C606.8,410.3,606.2,411,605.5,412z"/>
<path d="M318.7,368.1c3.3,1.5,6.4,2.8,9.4,4.1c0.9,0.4,1.9,0.6,2.7,1c0.4,0.2,0.9,0.8,0.9,1.2c-0.8,6.1-1.6,12.2-2.4,18.3
	c0,0.3-0.1,0.5-0.3,0.9c-2.9-1.3-5.8-2.6-8.6-3.9c-0.3-0.1-0.6-0.4-0.9-0.5c-3.7-1.7-3.7-1.8-3.1-5.9c0.6-4,1-8,1.5-12
	C318.1,370.2,318.4,369.2,318.7,368.1z"/>
<path d="M379.8,330.4c0.2-1.6,0.4-3.2,0.6-4.9c0.1-1.2,0.4-2.5,0.5-3.7c0.1-1-0.1-2,1.4-2.1c0.2,0,0.5-0.4,0.4-0.4
	c-0.8-1.8,0.9-2.9,1.4-4.2c0.6-1.5,1.4-3,2.2-4.4c3.5-5.5,7.2-10.9,10.6-16.5c3-4.9,7.4-8.5,11.1-12.7c0.2-0.2,0.4-0.4,0.7-0.5
	c0.2-0.1,0.4-0.2,0.8-0.4c0.5,2,0.9,3.8,1.4,5.7c0,0.2-0.1,0.6-0.3,0.8c-2.1,2.6-4.3,5.2-6.3,7.9c-4.6,5.9-9.2,11.8-13.5,17.9
	c-3.7,5.3-7.3,10.8-9.9,16.8c-0.2,0.4-0.5,0.7-0.8,1C380,330.5,379.9,330.4,379.8,330.4z"/>
<path d="M635.8,326.2c2.3-1.6,4.6-3.2,7.3-5.1c2.3,4.1,4.6,8.1,6.8,12.2c2.7,5,5.3,10.1,7.9,15.1c2.3,4.4,4.7,8.9,7,13.3
	c1.2,2.3,2.4,4.6,3.6,7c0.3,0.6,0.4,1.2,0.6,1.9c-0.1,0.1-0.3,0.2-0.4,0.2C657.9,356,646.9,341.2,635.8,326.2z"/>
<path d="M404.2,434.2c-0.9-3.4-1.7-6.4-2.4-9.4c-1-4.4-1.7-8.9-2.6-13.4c-0.3-1.7-0.8-3.3-1.1-4.9c-0.1-0.5-0.2-1.3,0.1-1.6
	c1.7-2,3.5-4,5.6-6.3c0.4,1.3,0.7,2.2,0.9,3.1c1.1,5.3,2.1,10.6,3.3,15.9c0.9,3.6,2.2,7,3.3,10.6c0.7,2.2,0.4,2.8-1.6,3.8
	C408,432.7,406.3,433.3,404.2,434.2z"/>
<path d="M437.9,589.6c-1.8,0.4-3.5,0.8-5.2,1.1c-1.1,0.2-1.9-0.1-2.1-1.4c-0.4-3.3-0.8-6.6-1.3-9.8c-0.8-5.5-1.7-10.9-2.5-16.4
	c-0.5-3.2-1.1-6.4-1.7-9.6c1.6,0,3,0,4.3,0c1,0,1.3,0.5,1.5,1.4c1,5.3,2.1,10.6,3.2,15.9c1.3,6.1,2.5,12.1,3.8,18.2
	C438,589.2,437.9,589.3,437.9,589.6z"/>
<path d="M499.5,363.4c0.6,0.3,1.2,0.6,1.7,1c3.6,3.1,6.3,6.8,6.9,11.7c0.6,5.2,1.4,10.4,2.1,15.6c0.6,4.4,1.4,8.7,4.2,12.3
	c0.4,0.5,0.4,1.5,0.2,2.1c-0.8,2.1-3.8,4-6.1,3.8c-0.5,0-1.3-0.5-1.5-1c-1.5-3-1.9-6.3-1.8-9.6c0.1-7.9,1-15.7-0.6-23.5
	c-0.9-4.3-2.3-8.6-5.3-12.1C499.3,363.7,499.4,363.6,499.5,363.4z"/>
<path d="M484.8,310.7c-1.5-3.1-3.1-6.1-4.5-9.2c-1.1-2.3-2-4.7-3-7c-0.5-1.1-0.4-1.7,0.6-2.7c1-0.9,1.5-2.6,1.8-4
	c0.8-2.9,1.4-5.9,2-8.8c0.2-1,0.3-2,0.5-3c0.2-1.2,0.6-1.8,1.9-1c4.1,2.2,4.1,2.2,3.6,6.9c-0.3,3.1-0.3,6.2-0.5,9.2
	c-0.5,5.8-1.2,11.6-1.7,17.4c-0.1,0.8-0.1,1.5-0.1,2.3C485.2,310.6,485,310.7,484.8,310.7z"/>
<path d="M362.8,387.5c-0.2,0.5-0.4,1-0.7,1.4c-2.5,3.1-5,6.2-7.5,9.3c-1.5,1.9-1.7,2-3.5,0.3c-0.7-0.7-1.5-1.3-2-2.1
	c-0.4-0.8-0.7-1.9-0.5-2.7c1.5-4.8,3.1-9.7,4.7-14.5c0.7-2.1,1.5-4.2,2.4-6.3c0.2-0.5,1-0.9,1.6-1c0.3-0.1,1,0.4,1.1,0.8
	c1.5,4.7,2.9,9.5,4.3,14.2c0,0.2,0,0.3,0,0.5C362.7,387.4,362.7,387.5,362.8,387.5z"/>
<path d="M344.1,424.8c-2.2-4.1-4.3-8-6.5-11.8c-1-1.8-0.8-3.3,0.4-4.9c2.6-3.2,5.1-6.4,7.6-9.7c0.3-0.4,0.8-0.8,1.4-1.5
	c1.3,1.4,2.7,2.7,3.8,4.2c0.4,0.5,0.2,1.6-0.1,2.3c-0.6,1.7-1.4,3.3-2,5.1c-1.4,4.6-2.6,9.2-3.9,13.8
	C344.7,423,344.4,423.8,344.1,424.8z"/>
<path d="M418.8,621.4c2.1-4.5,4.1-8.7,6.2-13c3.6,1.8,7.4,3.7,11.5,5.8c-1.1,5.4-4.1,10-7,15.3C427.3,624.6,423.5,622.3,418.8,621.4
	z"/>
<path d="M469.7,291.1c1.9,1.5,4.3,2,5.5,4.5c1.9,4.2,4.2,8.3,6.3,12.4c1,2.1,1.8,4.3,2.8,6.4c0.2,0.4,0.8,1.1,1,1.1
	c1.7-0.4,1.3,0.6,1.2,1.5c-0.4,3.3-0.7,6.7-1.1,10c-0.1,0.9-0.4,1.7-0.6,2.6c-0.2,0-0.4,0.1-0.5,0.1c-5-12.8-9.9-25.6-14.9-38.3
	C469.6,291.4,469.7,291.3,469.7,291.1z"/>
<path d="M493.2,365.1c2.1-1,4.6-0.8,5.8,1.5c2.8,5.3,4,11,4.4,16.9c0,0.6,0.2,1.2,0.2,1.9c0,3.5-1.3,6.7-2.9,9.7
	c-0.4,0.8-2.1,1.3-3.1,1.3c-0.6,0-1.3-1.5-1.5-2.4c-0.3-1.8-0.4-3.8-0.2-5.6c0.1-1.2,0.9-2.4,1.4-3.6c1.9-4.4,0.8-8.6-1-12.7
	C495.3,369.7,494.2,367.4,493.2,365.1z"/>
<path d="M584,669.7c1.7-0.6,3.3-1.2,5.1-2c0.4,1.7,0.9,3.3,1.2,5c0.7,3.8,2.1,7.5,1.7,11.4c-0.1,0.6-0.1,1.3-0.4,1.8
	c-1.9,3-3.8,6-5.8,9c-0.2,0.3-0.7,0.5-1.5,0.9C584.6,686.9,582.8,678.3,584,669.7z"/>
<path d="M310.4,334c3.7,1.5,7.1,2.8,10.6,4.2c-0.5,1.7,0.4,2.8,1.9,4c1.8,1.5,3.3,3.4,5,5.1c2.6,2.7,5.3,5.3,8,7.9
	c1.6,1.6,3.1,3.2,4.6,4.8c0.2,0.2,0.3,0.5,0.3,0.8c0.1,1.4,0.2,2.8,0.3,4.9c-1.5-1.2-2.8-2-3.9-3c-4-4-7.9-8-11.8-12.1
	c-4.7-5.1-9.4-10.3-14-15.4C311.1,334.9,310.8,334.6,310.4,334z"/>
<path d="M620.8,557c-2.1-4.5-4.3-8.9-6.4-13.4c7.5-1.4,14.3-4.9,21.6-7.6C630.9,543,626,549.8,620.8,557z"/>
<path d="M378.2,334.5c-2.8-0.8-5.6-1.6-8.6-2.5c-0.4-2.8,0.2-13.8,1.9-18c0.3,0.1,0.7,0,0.9,0.2c2.1,1.4,4.2,2.7,6.3,4.2
	c0.4,0.3,0.8,1.1,0.7,1.7c-0.3,3.5-0.9,6.9-1.2,10.4C378.1,331.7,378.2,333,378.2,334.5z"/>
<path d="M347.4,390.9c-2.8-9.6-3.9-19-4.8-29c1.1,0.9,1.8,1.5,2.5,2.1c1.9,1.9,3.8,3.9,5.7,5.8c0.3,0.3,0.5,0.6,0.9,0.8
	c2,1.5,2.1,1.9,1.4,4.2c-1.5,4.6-3,9.2-4.6,13.8C348.3,389.3,347.9,389.9,347.4,390.9z"/>
<path d="M493.4,686.1c-0.9-1.8-1.7-3.6-2.6-5.3c-1.9-3.7-3.9-7.3-5.7-11c-0.6-1.3-1.1-2.6-1.6-4c-0.1-0.4,0-1,0.2-1.5
	c1-3.2,2-6.4,3-9.6c0.5-1.5,1-3,2-4.4c1.7,11.9,3.5,23.8,5.2,35.6C493.7,686,493.5,686,493.4,686.1z"/>
<path d="M550.2,677.9c-2.6-0.6-4.7-1.1-7.2-1.6c0.5-3.2,1.1-6.2,1.6-9.3c0.8-4.9,1.5-9.8,2.3-14.7c0.1-0.8,0.2-1.6,0.6-2.3
	c0.2-0.4,0.9-0.8,1.4-0.9c0.3,0,0.9,0.6,1,1c0.2,1.1,0.2,2.3,0.2,3.4c0.1,4.9,0.1,9.7,0.1,14.6C550.2,671.3,550.2,674.4,550.2,677.9
	z"/>
<path d="M658.1,616c-0.2,2.5-0.1,5.1-0.6,7.5c-0.6,3.1-1.6,6.2-2.5,9.2c-0.2,0.8-0.6,1.6-1.2,2.2c-2.2,2.1-4.5,4.2-6.7,6.2
	c-0.3,0.3-0.9,0.3-1.4,0.4c-0.1-0.4-0.3-0.9-0.3-1.3c0.2-2.1,0.4-4.3,0.8-6.4c0.1-0.6,0.8-1,1.1-1.5c2.6-4.3,5.1-8.6,7.7-12.9
	c0.8-1.3,1.6-2.4,2.4-3.7C657.6,615.9,657.9,615.9,658.1,616z"/>
<path d="M649.4,401.2c0.5-3.2,0.9-6,1.2-8.3c6-5.4,11.7-10.7,17.6-16c0.9,2.7-0.7,7.5-2.5,9.1c-5.1,4.7-10.1,9.4-15.1,14.2
	C650.3,400.5,650,400.8,649.4,401.2z"/>
<path d="M429.9,648.7c0.6-0.4,1.5-0.7,1.7-1.3c0.7-2.1,1.2-4.3,1.9-6.8c3.2,6.3,6.3,12.5,9.5,19c-4.7-1.7-8.9-3.2-13-4.6
	C429.9,652.9,429.9,650.8,429.9,648.7L429.9,648.7z"/>
<path d="M486.8,311.8c0.5-4.4,1-8.7,1.5-13.1c0-0.4,0.1-0.8,0.2-1.2c0.2-0.8,0.3-2.2,0.6-2.2c1.1-0.2,2.3,0.1,3.5,0.3
	c0.2,0,0.5,0.7,0.5,1.1c0.5,4.5,0.9,9.1,1.4,13.6c0.1,0.9-0.2,1.5-1.1,1.8c-1.5,0.4-3,0.8-4.6,1.2
	C486.8,313.9,486.6,313.7,486.8,311.8z"/>
<path d="M460,683c0.4-4.2,0.8-8.4,1.3-12.9c5-0.5,10.3-1.1,15.5-1.6c0,0.1,0.1,0.3,0.1,0.4C471.2,673.7,465.5,678.4,460,683z"/>
<path d="M560.7,304.8c-1.8-2.5-3.6-5.1-5.3-7.7c-0.3-0.4-0.5-1.1-0.4-1.5c0.5-3,1.2-5.9,1.8-8.8c0.2-0.8,0.3-1.6,0.5-2.6
	c2.1,1.5,4,3.1,5.3,5.2c0.3,0.4,0.3,1.1,0.3,1.6c-0.3,3.6-0.7,7.2-1.1,10.8c-0.1,1-0.3,2-0.4,3C561,304.7,560.8,304.8,560.7,304.8z"
	/>
<path d="M669.9,287.5c3.1-6,6-11.7,8.9-17.4c2.3,0.8,3.2,3.3,2.4,5.4c-1.5,3.6-2.8,7.3-4.3,11c-0.5,1.2-1,2.3-1.7,3.3
	c-0.9,1.3-2,0.7-2.9-0.1C671.4,289,670.6,288.1,669.9,287.5z"/>
<path d="M682.4,367.4c0,1.7-0.2,3.5,0,5.2c0.5,3.6-1.5,5.3-4.2,6.8c-2.3,1.3-4.6,2.8-6.9,4.1c-0.4,0.2-0.9,0.2-1.4,0.2
	c0-0.5-0.2-1.1-0.1-1.6c0.6-1.9,0.9-3.9,2-5.5c2.5-3.9,6.3-6.5,9.9-9.3C681.8,367.3,682,367.4,682.4,367.4z"/>
<path d="M451.7,307.2c-2.2,3-4.3,6.1-6.8,8.9c-2.1,2.4-4.5,4.7-7.1,6.6c-1.9,1.3-4.4,1.8-6.6,2.7c-2,0.7-4,1.4-6.3,2.2
	c8.9-7.2,17.5-14.1,26.1-21C451.2,306.7,451.4,307,451.7,307.2z"/>
<path d="M601.9,408.6c-2.3-1.2-4.6-2.3-7-3.5c-1.2-0.6-2.3-1.3-3.6-1.8c-2.1-0.7-2.4-2.5-2.6-4.3c-0.1-1-0.2-2-0.3-2.7
	c2.4-0.7,4.7-1.4,7.3-2.2c2.1,4.5,4.3,9.3,6.5,14.1C602.2,408.4,602.1,408.5,601.9,408.6z"/>
<path d="M552.2,393.6c-0.2-2.7-0.4-5.5-0.6-8.2c-0.4-5.6-0.9-11.2-1.4-16.8c-0.2-2,0.4-3.5,2-4.8c1.1-0.9,2.2-1.9,3.3-2.8
	c0.2,0.1,0.4,0.2,0.6,0.2c-1.2,10.8-2.3,21.5-3.5,32.3C552.4,393.5,552.3,393.6,552.2,393.6z"/>
<path d="M362.9,391c1.2,3.4,1.4,16.7,0.3,18.7c-1.5-1.3-2.9-2.6-4.4-3.9c-1.5-1.3-3-2.5-4.6-3.8c1.4-1.9,2.7-3.9,4.1-5.7
	C359.8,394.5,361.3,392.8,362.9,391z"/>
<path d="M552.4,698c1.1,1.9,1.4,3.5,0.7,5.3c-1.2,2.9-2.4,5.9-3.4,8.9c-1.8,5.1-3.5,10.3-5.2,15.5c-0.3,0.9-0.8,1.2-1.7,0.8
	c-0.7-0.3-1.4-0.5-2.2-0.8C544.5,717.8,548.4,708,552.4,698z"/>
<path d="M618.7,677.5c0.9-0.5,1.6-0.8,2.5-1.2c0.5,1.9,1,3.8,1.5,5.8c0.7,2.8,1.5,5.5,2.2,8.2c0.2,0.6,0.6,1.5,0.3,1.8
	c-1.2,1.3-0.2,2.3,0.1,3.4c1.3,4,2.6,8,3.9,12c0.5,1.4,1,2.8,1.5,4.5c-2.4-0.9-3.6-2-4.4-4.4c-3.1-9-4.3-18.5-6.7-27.7
	C619.3,679,618.9,678.2,618.7,677.5z"/>
<path d="M300.5,326.7c2.9,10.4,5.8,20.8,8.7,31.5c-0.8-0.5-1.2-1-1.8-1.1c-3.5-0.5-3.9-3.3-4.3-6.1c-1-7.2-2-14.4-3-21.5
	c-0.1-0.9-0.1-1.9-0.2-2.8C300.1,326.8,300.3,326.8,300.5,326.7z"/>
<path d="M333.3,494.1c-0.6-1.3-1.2-2.4-1.6-3.5c-2-4.8-3.9-9.7-5.9-14.5c-1-2.5-1.1-2.5,1.4-4.2c1.6,3.1,3.1,6.1,4.7,9.2
	c1.2,2.3,2.4,4.5,3.6,6.8c0.7,1.3,0.6,2.6-0.5,3.8C334.4,492.3,334,493,333.3,494.1z"/>
<path d="M444.9,552.8c-1.5-6-3-12-4.5-18c0.2-0.1,0.3-0.3,0.5-0.4c2.3,1.8,4.9,3.5,6.9,5.6c0.9,0.9,0.9,2.8,1.2,4.2
	c0.3,1.5,0,2.8-1.1,4c-0.7,0.7-1,1.8-1.5,2.7c-0.3,0.6-0.7,1.2-1,1.8C445.2,552.8,445.1,552.8,444.9,552.8z"/>
<path d="M535.2,347.1c-2.1-1.6-4.2-3.2-6.3-4.9c-2-1.6-4-3.2-5.9-4.9c-0.6-0.5-1.8-0.7-1.3-2.1c0.5-1.4,1.4-2.1,2.8-2
	c0.7,0,1.3,0.4,1.9,0.8c2,1.1,3.9,2.2,5.8,3.4c0.4,0.2,0.8,0.7,0.9,1.1c0.9,2.8,1.6,5.5,2.4,8.3C535.5,346.9,535.4,347,535.2,347.1z
	"/>
<path d="M570.3,416.8c5.4-6.6,10.5-12.9,15.7-19.3c1.4,2.4,1.1,4.3-0.4,6c-3.7,4.1-7.4,8.2-11,12.4
	C573.5,417.2,572.2,416.9,570.3,416.8z"/>
<path d="M554.2,273.4c2.9,2.3,3.1,4.4,0.8,6.4c1.2,3-0.3,5.9-0.6,8.8c-0.2,1.8-0.8,3.6-1.2,5.4c-0.4,0-0.5,0-0.6,0
	c-3.5-1.5-3.6-1.6-2.6-5.2c1.1-4.2,2.5-8.4,3.7-12.6C553.9,275.4,554,274.5,554.2,273.4z"/>
<path d="M674.3,571.8c-0.8,1.2-1.3,2.6-2.3,3.5c-2.7,2.5-5.5,4.8-8.4,7c-2,1.5-4.1,2.9-6.2,4.3c-1.9,1.3-3.8,2.5-5.7,3.7
	c-0.3,0.2-0.8,0.2-1.2,0.3c0.1-0.4,0.1-0.9,0.3-1.2c1.6-1.5,3.3-3,5-4.4c4.4-3.6,8.8-7.2,13.2-10.6c1.5-1.2,3.2-2,4.8-3
	C674,571.5,674.1,571.7,674.3,571.8z"/>
<path d="M642,466.9c0.3,0.9,0.5,1.7,0.7,2.5c1.1,3.4,2.2,6.8,3.3,10.3c0.2,0.5,0.5,1.2,0.3,1.7c-0.9,2.3-2,4.6-3,6.9
	c-0.2,0-0.4,0-0.7-0.1c-0.2-1.6-0.5-3.3-0.7-4.9c-0.6-4.6-1-9.2-1.7-13.7C640,468.1,640.3,467.4,642,466.9z"/>
<path d="M456.1,660.2c-0.9-1.3-2-1.9-0.2-3.3c2.1-1.6,3.7-3.9,5.6-5.9c2.4-2.6,4.8-5.1,7.2-7.7c1.3-1.4,2.6-2.8,3.9-4.3
	c0.9-1,1.2-1.1,2.3,0C468.7,646,462.5,653,456.1,660.2z"/>
<path d="M660.6,601.4c0,3.5-1.1,6.3-2.7,9.1c-2.1,3.6-4.1,7.2-6.2,10.8c-1.6,2.7-3.2,5.3-5.1,7.9c-0.2-1.7-0.1-3.3,0.8-4.8
	c1.4-2.3,2.6-4.8,4-7.2c1.2-2.1,2.7-4.1,3.9-6.2c1.7-3,3.2-6.1,4.9-9.1C660.2,601.7,660.3,601.6,660.6,601.4z"/>
<path d="M559.2,392.9c0.5,1.4,1,2.9,1.5,4.3c1.1,3.3,2.3,6.7,3.4,10c1,3.2,2,6.5,2.9,9.8c0.1,0.5-0.6,1.1-0.9,1.7
	c-0.4-0.4-0.9-0.7-1-1.1c-2.3-7.3-4.6-14.7-6.9-22.1c-0.2-0.8,0.2-1.7,0.3-2.6C558.7,392.9,559,392.9,559.2,392.9z"/>
<path d="M580.5,669.1c0.3,0.5,0.8,1,0.8,1.5c0.2,3.7,0.2,7.4,0.4,11.1c0.2,3.7,0.5,7.5,0.6,11.2c0,0.7-0.2,1.6-0.6,1.9
	c-0.4,0.3-1.5,0-1.8-0.4c-0.3-0.5-0.2-1.4-0.2-2.1c0.2-1.9,0.4-3.8,0.5-5.7c0.1-2.6,0.2-5.2,0.2-7.8c0-2.7-0.3-5.3-0.4-8
	c0-0.4-0.1-0.9-0.2-1.3C580,669.4,580.2,669.3,580.5,669.1z"/>
<path d="M548.7,294.9c0.3,0,0.4,0,0.4,0c2.9,0.8,4.4,3.2,5.9,5.6c1.3,2,2.8,3.8,4,6c-0.8-0.7-1.6-1.4-2.5-2c-2.3-1.3-4.6-2.6-7-3.7
	c-1.2-0.6-1.7-1.3-1.3-2.7C548.6,297.1,548.6,296,548.7,294.9z"/>
<path d="M675.3,393.6c-1.5-2.1-3-4.1-4.4-6.3c-0.5-0.8-0.4-1.8,0.9-2.3c1.7-0.7,3.3-1.7,5.3-2.7c-0.4,3.9-0.8,7.5-1.2,11.1
	C675.7,393.5,675.5,393.5,675.3,393.6z"/>
<path d="M437.4,617.9c0.8,1.9,1,3.4,0,5.3c-1.9,3.5-3.5,7.2-5.4,11.3c-0.9-1.8-1.6-2.9-0.7-4.5c2-3.8,3.8-7.6,5.6-11.5
	C437,618.3,437.2,618.2,437.4,617.9z"/>
<path d="M702,463.1c0.6-2.2,1.1-4.4,1.7-6.5c0.8-3,1.7-5.9,2.6-8.8c0.1-0.4,0.7-0.6,1.1-0.9c0.3,0.4,0.8,0.9,0.7,1.3
	c-0.8,3.9-1.6,7.8-2.8,11.6c-0.4,1.4-1.9,2.4-2.9,3.6C702.2,463.2,702.1,463.2,702,463.1z"/>
<path d="M543.2,339.4c-0.4-1.4-0.8-2.6-1.2-3.8c-0.4-1.2-0.8-2.5-1.3-3.7c-0.7-1.8-0.7-3.4,1.1-5c0.6,2.3,1.2,4.4,1.8,6.6
	c0.3,1.2,0.5,2.5,1,3.6C545,338.2,544.6,338.8,543.2,339.4z"/>
<path d="M545.6,324.2c0.5,1.9,0.8,3.9,1.7,5.7c1.2,2.3-0.3,3.6-1.4,5.6c-0.8-3.4-1.6-6.4-2.2-9.5c-0.1-0.6,0.9-1.4,1.3-2
	C545.2,324,545.4,324.1,545.6,324.2z"/>
<path d="M538.6,331.5c0.7,2.2,1.4,4.5,2.2,6.7c0.2,0.7,0.4,1.4,0.7,2.1c0.7,1.5,0.2,2.7-1.1,4c-0.3-1.2-0.5-2.1-0.8-3.1
	c-0.6-2.3-1.3-4.6-1.7-6.9c-0.2-0.9,0.1-1.9,0.2-2.8C538.3,331.5,538.4,331.5,538.6,331.5z"/>
<path d="M537.9,347.5c-0.9-3.3-1.9-6.6-2.8-9.9c-0.2-0.6,0.2-1.3,0.3-2c0.3,0,0.5,0,0.8,0c0.6,2.4,1.3,4.9,1.9,7.3
	c0.2,0.7,0.4,1.4,0.5,2.2c0.1,0.8,0,1.7-0.1,2.5C538.3,347.5,538.1,347.5,537.9,347.5z"/>
<path d="M549.3,329.7c-0.5-1.8-1.1-3.5-1.7-5.7c2.1,0.5,3.8,0.9,5.3,1.3C551.6,326.9,550.5,328.2,549.3,329.7z"/>
<path d="M337,497.6c-1.4,0-2.8,0-3.9,0c1.7-2.4,3.5-4.8,5-6.9C337.8,492.6,337.4,495.1,337,497.6z"/>
<path d="M642.7,581.3c0.4-0.5,0.8-1,1.4-1.8c0.7,2,1.4,3.9,2.1,5.7c-0.1,0.1-0.2,0.1-0.3,0.2C644.9,584.1,643.8,582.8,642.7,581.3z"
	/>
<path d="M609.3,508.2c0.2-1.2,0.5-2.4,0.8-3.6C611,505.4,610.9,506.2,609.3,508.2z"/>
<path d="M698,632.2c1.7,2,1.2,4.2,1,6.3c-0.5,4.4-0.2,8.7,0.7,13.1c0.8,3.5,0.3,7-2.5,9.9c-1.1,1.2-2,2.5-3.7,3.1
	c-1.2,0.4-2.5,0.3-2.9-1c-0.7-2.5-1.2-5,0.2-7.5c0.5-0.8,0.8-1.1,1.7-0.5c1.2,0.8,2,0.5,2.7-0.9c1.3-2.8,0.6-5.6,0.5-8.4
	c-0.1-3.5,0-7.1,0.1-10.6C696.1,634.3,696.5,632.9,698,632.2z"/>
<path d="M319.5,312.6c-1.3-1.3-2.6-2.6-3.8-4c-2.7-3.3-5.3-6.7-8-10c-1.5-1.8-2.7-3.7-2.4-6.1c0.1-0.9,0.8-1.8,1.2-2.7
	c0.7,0.4,1.5,0.7,2,1.3c3.4,3.6,5.4,8.1,7.8,12.4c1.1,2,2.2,4.1,3.3,6.2c0.4,0.8,0.4,1.7,0.6,2.5C320,312.3,319.7,312.5,319.5,312.6
	z"/>
<path d="M709.4,644.2c1.8,3.5,3.5,6.7,3.3,10.4c-0.1,1.8-0.2,3.5-0.4,5.3c-0.1,0.5-0.3,1.2-0.7,1.5c-0.6,0.5-1.3,1.1-2,1.1
	c-0.4,0-1-1-1.2-1.6c-1.2-3.5-0.8-7-0.3-10.5c0.2-1.4,0.3-2.7,0.6-4.1C708.8,645.6,709.1,644.9,709.4,644.2z"/>
<path d="M692.3,682.3c-2-1-1-2.2-0.6-3.2c0.6-1.4,2.9-2.1,4.2-1.5c3.1,1.4,4.5,6.5,2.3,9.2c-0.6,0.8-2,1.2-3.1,1.3
	c-1.6,0.1-2.8-1-3.4-2.4C691.3,684.6,690.6,683.3,692.3,682.3z"/>
<path d="M297,561c-0.2,0.4-0.6,1-0.9,1.6c-0.5-0.4-1.1-0.6-1.5-1.1c-1.1-1.2-1.2-4.5-0.3-5.7c0.2-0.3,0.7-0.5,1-0.4
	c0.4,0.2,0.9,0.6,1,0.9C296.5,557.7,296.7,559.2,297,561z"/>
<path d="M293.5,539.7c0.1-0.7,0.2-1,0.2-1.2c0.2-1,0.1-2.3,1.6-2s1.4,1.5,1.1,2.7c0,0.2,0,0.4-0.1,0.5c-0.5,0.5-1.1,1.1-1.6,1.6
	C294.2,540.7,293.7,540,293.5,539.7z"/>
<path d="M705.3,669.5c0.1,1.1,0.3,2.2,0.2,3.3c0,0.2-1.5,0.6-1.7,0.3c-0.6-0.6-1.1-1.6-1-2.3c0.1-0.6,1.2-1.1,1.8-1.6
	C704.9,669.3,705.1,669.4,705.3,669.5z"/>
<path d="M301.3,578c0-1.2-0.1-2.3,1.4-2.5c0.2,0,0.8,0.4,0.8,0.6C303.3,577.2,302.8,578.1,301.3,578z"/>
<path d="M622.1,293.2c-0.3,1.3-0.6,3.2-1.3,5c-1.1,2.7-4,3.5-6.3,1.6c-1.5-1.2-2.8-2.8-4.1-4.3c-1.8-2-4.2-2.5-6.7-3.1
	c-0.6-0.1-1.3,0.5-2,0.6c-1.7,0.3-4.4-1.8-4.8-3.8c-0.7-3.8,0.1-7.4,2.4-10.3c1.3-1.8,3.4-2.9,6-2.2c5.6,1.5,10.6,4,14.6,8.3
	C622,287.2,621.7,289.9,622.1,293.2z M620,293c0.6-4.8-2.6-7.4-5.5-10.1c-2.6-2.3-5.9-3.5-9.2-4.4c-1.5-0.4-2.7,0-3.9,1.1
	c-1.9,1.8-2.4,4.1-2.7,6.4c-0.4,3.1,0.7,4.3,3.8,4.4c0.6,0,1.1,0,1.7,0c3.2,0.3,6,1.5,8.2,4.1c1,1.2,2,2.5,3.2,3.5
	c1.3,1.2,2.6,0.8,3.2-0.8C619.2,295.8,619.6,294.4,620,293z"/>
<path d="M631.6,355.6c-1-0.3-1.6-0.5-2.2-0.8c-0.1,0.2-0.2,0.3-0.3,0.5c0.5,0.4,1,0.9,1.6,1.3c3.4,2,5,5,5.5,8.8
	c0.4,3.4-2.9,10-6,11.3c-2.9,1.3-5.9,0.7-8.5-0.9c-0.7-0.4-1.2-1.7-1.3-2.6c-0.6-3.6,0.4-7.1,1.9-10.3c1.2-2.6,2.5-5.1,4.2-7.4
	c0.8-1.1,2.4-1.8,3.7-2.4c0.5-0.2,1.5,0.4,2.1,0.8C632.3,354.1,631.8,355.1,631.6,355.6z M627.9,356.6c-3.6,4.9-5.8,10.1-5.7,16.2
	c0,0.6,0.4,1.4,0.8,1.7c2.2,1.6,5.6,1.3,7.5-0.7c0.9-1,1.7-2.1,2.3-3.3c2.3-4.4,1.4-8.5-2.4-11.7
	C629.6,358.2,628.9,357.4,627.9,356.6z"/>
<path d="M625.4,317.7c-0.6,1.8-1,3.7-1.7,5.4c-0.5,1.3-3.1,1.3-4.3-0.2c-1.5-1.9-2.5-4.2-3.8-6.2c-1.7-2.7-3.5-5.3-5.4-7.8
	c-0.8-1.1-2-1.9-2.9-2.8c-0.1-0.1-0.3-0.3-0.2-0.4c0.6-1.1,1.2-2.2,2-3.1c0.2-0.3,1.1,0,1.7,0.1c3.8,1.1,6.6,3.7,9.2,6.5
	c0.5,0.5,0.9,1.1,1.5,1.4C624.3,312.1,624.3,315.1,625.4,317.7z M621.3,322.1c2.1-2.6,2.1-6.9,0.1-9c-2.3-2.5-4.7-4.8-7.2-7
	c-1.1-1-2.6-1.7-4.6-1.1c0.9,1,1.6,1.9,2.4,2.6c2.6,2.3,4.3,5.1,5.7,8.2C618.6,317.9,619.9,319.8,621.3,322.1z"/>
<path d="M601.2,358.1c0.8-2.8,1.5-5.6,2.4-8.3c0.5-1.5,1.9-2.4,3.3-2.2c0.9,0.1,1.9,1.3,2.4,2.2c1.3,2.4,2.4,5,3.5,7.6
	c1.5,3.8,0.1,8-3.2,10.1c-2.1,1.4-5.8,1-7-2.4c-0.2-0.6-0.5-1.2-0.6-1.8c-0.2-1.7-0.3-3.4-0.4-5.1
	C601.5,358.2,601.4,358.2,601.2,358.1z M607.1,349.5c-0.2-0.1-0.5-0.2-0.7-0.3c-0.6,0.9-1.3,1.8-1.8,2.8c-0.3,0.7-0.4,1.5-0.6,2.3
	c-0.6,3.5-0.6,6.9,0.6,10.3c0.6,1.6,2.4,2.5,3.7,1.6c1.6-1.1,2.9-2.7,2.9-4.8C611.2,357,608.8,353.3,607.1,349.5z"/>
<path d="M595.6,360.3c0.1,2.5-2.3,6.5-4.3,7.3c-1.5,0.6-3.2,0.1-4-1.3c-2.2-3.9-2.9-7.9-1.9-12.3c0.1-0.6,0.2-1.1,0.3-1.7
	c0.5-2.5,1.9-3.2,4-1.8C593.2,352.8,595.4,356,595.6,360.3z M588,351.6c-1.5,4.6-1.6,9,0.7,13.2c0.3,0.6,1,1.2,1.6,1.2
	s1.3-0.6,1.7-1.1c0.5-0.7,0.7-1.6,1.1-2.3C595.3,359.5,591.6,352.4,588,351.6z"/>
<path d="M623.4,399.2c-1.5-0.2-2.8-0.3-4.1-0.6c-0.4-0.1-0.6-0.8-0.8-1.2c0.5-0.2,1-0.7,1.4-0.6c3.7,0.9,7.2-0.2,10.7-1.3
	c1.6-0.5,3-1.3,4.6-1.9c3.1-1.2,4.7-3.8,6.7-6.2c0.3-0.3,0.7-0.4,1.1-0.6c0.1,0.4,0.4,0.8,0.3,1.2c-0.2,0.7-0.5,1.5-1,2.1
	c-2.5,3.5-6,5.8-10,7.1C629.4,398.1,626.3,398.5,623.4,399.2z"/>
<path d="M620.8,407.6c-1.2,0-2.5,0.1-3.7,0c-0.5-0.1-0.9-0.6-1.4-1c0.5-0.3,1-0.9,1.6-0.9c2.7-0.2,5.5-0.1,8.2-0.4
	c3.9-0.5,7.5-1.6,10.7-4c1-0.8,2.4-1.2,3.6-1.7c0.3-0.1,0.7,0.2,1,0.3c-0.1,0.4-0.2,0.9-0.5,1.2c-1.2,0.9-2.3,1.9-3.6,2.6
	C631.7,406,626.5,407.7,620.8,407.6z"/>
<path d="M600.9,335.5c0.3-1.9,0.4-3.4,0.9-4.7c0.3-0.9,1.2-1.7,2-2.1c0.4-0.2,1.4,0.9,1.9,1.5c0.6,0.7,1.1,1.5,1.7,2.3
	c1.1,1.3,1.4,5.7,0.3,6.9c-1.3,1.5-4.4,1-5.7-1C601.4,337.4,601.1,336.3,600.9,335.5z M603.9,331.1c-1.5,4.6-1,6.5,1.8,7.3
	C607.5,335.5,605.4,333.5,603.9,331.1z"/>
<path d="M623.6,390.8c-0.8-0.2-1.6-0.2-2.3-0.6c-0.3-0.1-0.5-0.8-0.5-1.2c0-0.2,0.7-0.5,1.1-0.5c4.5,0.7,8.7-0.7,12.7-2.5
	c1.4-0.6,2.2-2.3,3.3-3.5c0.6-0.7,1.2-1.5,1.9-2.1c0.2-0.2,1,0,1.3,0.2c0.2,0.1,0.1,0.9-0.1,1.2c-1.4,1.9-2.6,3.9-4.3,5.5
	c-1.3,1.1-3.2,1.8-4.9,2.2C629.1,390.1,626.3,390.4,623.6,390.8z"/>
<path d="M592.3,376.3c-0.2,0.8-0.2,1.5-0.5,1.9c-0.4,0.5-1.1,1-1.8,1.1c-0.5,0.1-1.2-0.4-1.5-0.8c-0.9-1.4-0.7-3,0.1-4.4
	c0.7-1.2,1.7-1.1,2.7,0.2C591.9,374.9,592.1,375.7,592.3,376.3z"/>
<path d="M436.6,470.1c0.2-3.6,1.1-6.4,3.2-8.8l0.1-0.1c3.8-1.6,3.1-5.1,3.5-8.1c1.2-8.9,6.2-14.7,14.8-16.7c3.1-0.7,6.4-0.6,9.3,1.2
	c0.9,0.6,1.8,1.6,2.2,2.7c1.2,2.9,1.5,6,0.4,9c-0.3,0.8-0.8,1.8-1.5,2.2c-2.4,1.7-4.9,3.6-7.6,4.7c-3.7,1.6-6.4,4.2-8.4,7.6
	c-1.3,2.2-2.6,4.3-4,6.4c-2,2.9-4.9,4.2-8.3,4C438.4,474.2,436.3,472.7,436.6,470.1z M461.1,438c0-0.1-0.1-0.2-0.1-0.3
	c-1.6,0.4-3.4,0.6-4.9,1.1c-3.8,1.4-7.2,3.5-8.7,7.4c-1.1,2.9-1.8,6-2.3,9s-0.5,6-4,7.3c-0.2,0.1-0.5,0.3-0.6,0.6
	c-0.7,2.2-1.5,4.3-1.9,6.5c-0.3,1.5,1.3,3.1,2.7,2.9c2.6-0.4,4.8-1.6,6.2-4c1.6-2.7,3.2-5.5,5.1-8.1c1.2-1.6,2.7-3,4.4-4.1
	c2.8-1.8,5.8-3.5,8.8-5c2.6-1.3,3.2-4.4,2.9-6.6c-0.3-3.1-1.3-5.9-4.9-6.5C463,438,462,438.1,461.1,438z"/>
<path d="M402.9,479.5c3-1.5,5.6-0.2,6.4,2.8c1.5,5.3,0.8,10.6,0.5,15.9c-0.3,4.3-1.4,8.5-3.4,12.4c-1.4,2.7-3.6,3.8-6.3,4.4
	c-2.8,0.6-5.6,0.4-7.4-2.1c-2.1-2.9-2.6-6.2-1.4-9.7c1.8-5.4,5.8-9.1,9.4-13C402.7,488,404.4,482.4,402.9,479.5z M406.2,481
	c-0.2,0-0.4,0.1-0.5,0.1c-0.1,0.7-0.1,1.4-0.3,2c-0.7,2.1-1.1,4.5-2.2,6.3c-1.6,2.5-3.9,4.5-5.9,6.8c-3,3.7-5.6,7.5-4.3,12.7
	c0.6,2.2,3,4.5,5,4.5c3.4-0.1,6.5-2.4,7.7-5.6c2.5-7,2.5-14.3,2.4-21.6C408,484.4,407.6,482.4,406.2,481z"/>
<path d="M492,428c-0.7,4.4-1.2,8.9-2,13.3c-0.5,2.8-2.3,4.9-5.3,5.5c-1.3,0.2-2.7-0.1-4-0.6c-3.5-1.3-6.3-3.4-7.4-7.2
	c-0.6-2,0-3.6,1.9-4.3c4-1.5,5.3-4.6,5.8-8.5c0.4-3.1,1-6.2,1.7-9.2c0.3-1.2,0.5-2.8,2.4-2.9c2-0.1,3,1.1,3.8,2.6
	C490.6,420.3,491.5,424.1,492,428z M490,430.2c-0.1,0-0.3-0.1-0.4-0.1c0-0.4,0-0.8,0-1.2c0.2-3.9-0.9-7.6-2.6-11
	c-0.3-0.6-1-1-1.5-1.4c-0.4,0.5-0.9,1.1-1,1.7c-0.5,2.2-1,4.3-1.2,6.5c-0.5,4.2-1.1,8.2-5,10.7c-0.5,0.4-0.9,1.1-1.5,1.3
	c-1.9,0.5-2.5,1.5-1.4,3.2c1.5,2.3,3.6,4,6.2,4.9c3.3,1.2,5.4,0.4,6.4-3C488.9,438,489.3,434.1,490,430.2z"/>
<path d="M400.8,463.6c0-3.5,0.3-6.4,2.5-8.9c1.1-1.3,2.1-1.2,3-0.4c3.4,3,4.9,6.8,4.4,11.3c-0.3,2.3-4.3,4.8-6.6,4.4
	c-0.3-0.1-0.7-0.2-0.8-0.5C401.9,467.6,400.4,465.8,400.8,463.6z M402.4,461.8c0.5,1.6,1,3.5,1.6,5.2c0.1,0.4,0.7,0.9,1.1,0.9
	c1.6,0.1,3.5-1.8,3.6-3.4c0.4-3-1.3-5.3-2.8-7.6c-0.8-1.2-1.7-0.9-2.2,0.2C403.2,458.5,402.9,460,402.4,461.8z"/>
<path d="M497.6,442.8c1.9-0.6,2.5,0.9,3.2,2.1c1.4,2.7,0.3,6.5-2.4,8.1c-1.9,1.2-4.2-0.1-4.6-2.5c-0.5-3.3,0.7-6,2.5-8.6
	c0.9-1.4,1.8-1.4,2.7-0.1C498.5,442,498,442.4,497.6,442.8c-1.4,2.1-2.4,4.4-1.9,7c0.1,0.6,1.1,1.6,1.5,1.5c2.1-0.4,3.1-3.8,1.8-5.6
	C498.4,444.9,498,443.8,497.6,442.8z"/>
<path d="M429.3,455.4c0.4,2.6-1.9,3.4-4.9,3.6c-1.9,0.1-3.7-1.4-3.7-2.8c0-3,2.2-5.6,4.7-5.6C427.8,450.6,429.3,452.5,429.3,455.4z
	 M422.7,455.6c0,1.5,1.1,1.5,2.1,1.5c1.7,0,2.8-0.9,2.8-2.3c0-1.3-1.1-2.5-2.3-2.5C424.1,452.4,422.7,454.2,422.7,455.6z"/>
<path d="M508.2,455.6c-0.2,0.6-0.3,1.8-0.9,2.7c-0.4,0.6-1.4,1.1-2.1,1c-0.6-0.1-1.3-1-1.4-1.6c-0.2-1-0.1-2.1,0-3.2
	c0.1-1.3,0.5-2.6,1.9-2.9C506.7,451.4,508.2,453.5,508.2,455.6z M505.3,457c0.2,0,0.4,0,0.6,0c0.8-0.8,0.8-1.7,0.3-2.6
	c-0.2,0-0.5,0-0.7,0C505.4,455.3,505.3,456.2,505.3,457z"/>
<path d="M542.3,512.8c0.7-1.1,1.2-2.1,1.9-2.8c1.1-0.9,1.8,0.2,2.6,0.8c0.6,0.5,1.4,0.7,2,1.3c1.4,1.4,0.5,5.7-1.4,6.2
	c-0.8,0.2-2.2-0.2-2.6-0.9C543.8,516.1,543.2,514.5,542.3,512.8z M544.4,512.1c0.5,1.5,0.8,2.6,1.2,3.7c0.1,0.3,0.7,0.6,1,0.7
	c0.2,0,0.5-0.5,0.6-0.8C547.9,514,547.5,513.5,544.4,512.1z"/>
<path d="M550.4,504.5c-2.4-0.1-3.4-1.9-2.1-4.1c0.4-0.7,1.2-1.3,0.4-2.3c-0.1-0.1,0.6-1.1,0.8-1.1c1.7,0.1,3.4,0.5,4.5,2.1
	c0.7,1,0.9,2.2,0.1,3.4C553.3,503.9,552.1,504.6,550.4,504.5z M551.4,498.7c-0.7,1.2-1.2,1.9-1.6,2.7c-0.2,0.3-0.2,0.9,0,1.1
	c0.3,0.3,0.9,0.5,1.2,0.4c0.6-0.4,1.6-0.9,1.6-1.4C552.5,500.6,551.9,499.7,551.4,498.7z"/>
<path d="M553.6,490.7c-1.3,0.2-2-0.4-2-1.7c0-1.8,1.8-4.2,3.1-4.1c1.4,0.1,1.9,1.1,1.9,2.4C556.7,489.1,555.1,490.8,553.6,490.7z"/>
<path d="M390.8,691c0,0.9,0.1,1.7,0,2.6c-0.2,2.7-2.1,3.9-4.7,3.1c-2.5-0.8-4.1-2.8-5.2-5c-2.2-4.4-4.4-8.9-6.3-13.4
	c-0.8-1.9-1.2-4-1.5-6.1c-0.4-3.1,2.4-4.5,5.6-3c0.4,0.2,0.7,0.4,1,0.6c3.5,3.7,7.3,7.3,9.2,12.2c1.1,2.8,1.5,6,2.3,9
	C391.1,690.9,391,691,390.8,691z M375.5,670.5c0,1.2-0.2,2.4,0,3.4c1.3,6,3.9,11.5,7.1,16.7c0.8,1.3,1.9,2.5,3,3.4
	c0.7,0.5,1.8,0.8,2.7,0.7c0.4-0.1,0.7-1.4,0.8-2.2c0.1-1,0-2-0.2-3c-0.6-3.2-0.9-6.6-3-9.3c-1.8-2.4-3.5-4.9-5.5-7.2
	C379.2,671.7,377.9,670.1,375.5,670.5z"/>
<path d="M399.3,673.8c1.3-0.5,1.7,0.4,1.9,1.7c0.2,1,0.3,2,0.6,3c0.8,3.4-0.8,5.3-3.6,6.8c-1.3,0.7-2.5,0.3-3-0.9
	c-1.2-2.7-1.8-5.4-0.1-8.2C396.1,674.7,397.1,673.6,399.3,673.8z M400.2,679.2c0-0.3-0.1-1.1-0.3-1.8c-0.2-0.6-0.6-1.6-0.8-1.6
	c-0.8,0.1-2.1,0.4-2.3,0.9c-0.5,1.3-0.8,2.9-0.8,4.4c0,1,0.3,2.8,1.7,2.4c1-0.2,1.7-1.7,2.4-2.7C400.3,680.5,400.2,680,400.2,679.2z
	"/>
<path d="M394.5,667.2c-0.4,3.1-1.4,4-4.4,3.8c-1.7-0.1-3.3-2.1-3-4.1c0.2-1.4,0.7-2.9,1.4-4.1c0.7-1.2,1.5-1,2.3,0.1
	c0.6,0.8,1.4,1.4,2.1,2.1C393.5,665.8,394,666.5,394.5,667.2z M389.4,664.9c-1.3,2.5-0.5,4.3,1.6,4.3c0.4,0,1.2-0.3,1.2-0.5
	c0.1-0.6,0-1.4-0.3-1.9C391.2,666.1,390.3,665.6,389.4,664.9z"/>
<path d="M342,680.3c2.3-1.6,2.3-4.1,0.4-5.3c-0.4-0.2-0.6-0.9-0.8-1.4c0.7-0.2,1.8-0.8,1.9-0.6c0.8,1.1,1.9,2.3,2,3.5
	c0.2,2-0.5,3.9-2.1,5.4c-0.9,0.8-2,0.8-2.4-0.2c-0.7-1.6-1-3.4-1.3-5.2c-0.1-0.4,0.6-0.8,1-1.3c0.3,0.5,0.7,0.9,0.8,1.4
	C341.8,677.8,341.9,678.9,342,680.3z"/>
<path d="M591.3,702.4c0.2-2,0.6-3.8,2.4-4.9c0.4-0.2,0.6-0.8,1-0.9c0.9-0.3,2.1-0.8,2.9-0.5c4.9,1.9,7.1,6,8.3,10.7
	c1.3,4.8-1.6,6.4-6.5,6.6c-4.3,0.2-6.1-3.7-7.4-7.7C591.6,704.7,591.5,703.5,591.3,702.4z M593.8,700.1c-0.6,2.5-0.6,3.2,0.6,6.4
	c1.6,4.4,4.1,5.8,8.1,4.6c1.1-0.4,1.8-1,1.6-2.2c-0.6-3.4-1.6-6.5-4.3-8.8c-0.9-0.8-2-1.4-3.2-2.2
	C596.1,699.5,596,701.3,593.8,700.1z"/>
<path d="M617,698.8c0,2.9-0.8,4.2-2.8,4.9c-1.8,0.6-4.4-0.8-5.2-3c-1.1-3.2-1.3-6.5,1-9.4c1.1-1.4,1.9-1.4,3,0c0.3,0.4,0.6,0.7,1,1
	C616.3,693.8,617,696.1,617,698.8z M611,692.4c-0.2,1-0.6,1.7-0.6,2.4c0,2.2-0.6,4.7,1.7,6.3c0.5,0.4,1.5,0.8,1.8,0.6
	c0.6-0.4,1-1.2,1.1-1.9C615.3,696.5,613.9,694.2,611,692.4z"/>
<path d="M604.1,690.6c-1.8,0-3.6-1.6-3.4-3.5c0.1-0.8,0.3-1.8,0.9-2.3c0.9-0.7,2-1.2,3.1-1.4c1.2-0.2,3,2,3,3.6
	C607.7,688.5,605.6,690.5,604.1,690.6z M604.4,688.8c1.4-1.6,1.4-2.4,0.2-3.3c-1-0.8-1.7-0.1-1.9,0.5
	C602,687.7,603.5,688.1,604.4,688.8z"/>
<path d="M620,293c-0.4,1.4-0.8,2.8-1.3,4.2c-0.6,1.6-1.9,2-3.2,0.8c-1.2-1-2.2-2.3-3.2-3.5c-2.1-2.5-4.9-3.7-8.2-4.1
	c-0.6-0.1-1.1,0-1.7,0c-3.1-0.2-4.1-1.3-3.8-4.4c0.3-2.4,0.8-4.7,2.7-6.4c1.2-1.1,2.4-1.5,3.9-1.1c3.3,1,6.6,2.1,9.2,4.4
	C617.5,285.6,620.7,288.2,620,293z"/>
<path d="M627.9,356.6c1,0.9,1.7,1.6,2.5,2.2c3.8,3.3,4.7,7.3,2.4,11.7c-0.6,1.2-1.4,2.3-2.3,3.3c-1.9,2-5.3,2.2-7.5,0.7
	c-0.5-0.3-0.8-1.1-0.8-1.7C622.1,366.7,624.3,361.5,627.9,356.6z"/>
<path d="M621.3,322.1c-1.3-2.3-2.7-4.3-3.6-6.4c-1.4-3.1-3.2-5.9-5.7-8.2c-0.8-0.7-1.5-1.6-2.4-2.6c2-0.7,3.5,0.1,4.6,1.1
	c2.5,2.2,4.9,4.6,7.2,7C623.3,315.2,623.4,319.6,621.3,322.1z"/>
<path d="M607.1,349.5c1.8,3.9,4.1,7.5,4.1,12c0,2.1-1.3,3.7-2.9,4.8c-1.3,0.9-3.1,0.1-3.7-1.6c-1.2-3.3-1.3-6.8-0.6-10.3
	c0.1-0.8,0.2-1.6,0.6-2.3c0.5-1,1.2-1.9,1.8-2.8C606.6,349.3,606.9,349.4,607.1,349.5z"/>
<path d="M588,351.6c3.6,0.9,7.3,8,5.1,11.1c-0.5,0.7-0.6,1.6-1.1,2.3c-0.4,0.5-1.1,1.1-1.7,1.1c-0.5,0-1.3-0.7-1.6-1.2
	C586.3,360.6,586.4,356.1,588,351.6z"/>
<path d="M603.9,331.1c1.5,2.4,3.6,4.4,1.8,7.3C602.9,337.7,602.4,335.7,603.9,331.1z"/>
<path d="M461.1,438c0.9,0.1,1.8,0,2.7,0.2c3.6,0.6,4.6,3.4,4.9,6.5c0.3,2.2-0.3,5.3-2.9,6.6c-3,1.5-6,3.1-8.8,5
	c-1.7,1.1-3.2,2.5-4.4,4.1c-1.9,2.6-3.5,5.3-5.1,8.1c-1.4,2.4-3.6,3.6-6.2,4c-1.4,0.2-3-1.3-2.7-2.9c0.4-2.2,1.2-4.3,1.9-6.5
	c0.1-0.2,0.4-0.5,0.6-0.6c3.5-1.3,3.5-4.3,4-7.3c0.5-3.1,1.2-6.2,2.3-9c1.5-3.9,4.9-6.1,8.7-7.4c1.6-0.6,3.3-0.8,4.9-1.1
	C461.1,437.8,461.1,437.9,461.1,438z"/>
<path d="M406.2,481c1.5,1.4,1.9,3.4,1.9,5.2c0.1,7.3,0.1,14.6-2.4,21.6c-1.1,3.2-4.2,5.5-7.7,5.6c-2,0.1-4.5-2.3-5-4.5
	c-1.3-5.2,1.3-9,4.3-12.7c1.9-2.3,4.2-4.3,5.9-6.8c1.2-1.8,1.6-4.2,2.2-6.3c0.2-0.6,0.2-1.3,0.3-2C405.8,481.1,406,481.1,406.2,481z
	"/>
<path d="M490,430.2c-0.7,3.8-1.1,7.8-2.2,11.5c-1,3.4-3,4.2-6.4,3c-2.6-0.9-4.7-2.6-6.2-4.9c-1.1-1.7-0.5-2.7,1.4-3.2
	c0.6-0.1,0.9-0.9,1.5-1.3c3.9-2.5,4.6-6.5,5-10.7c0.2-2.2,0.7-4.4,1.2-6.5c0.1-0.6,0.7-1.1,1-1.7c0.5,0.5,1.2,0.8,1.5,1.4
	c1.7,3.5,2.8,7.1,2.6,11c0,0.4,0,0.8,0,1.2C489.7,430.2,489.9,430.2,490,430.2z"/>
<path d="M402.4,461.8c0.5-1.8,0.8-3.3,1.4-4.7c0.5-1.1,1.4-1.4,2.2-0.2c1.5,2.3,3.2,4.5,2.8,7.6c-0.2,1.6-2,3.5-3.6,3.4
	c-0.4,0-1-0.5-1.1-0.9C403.4,465.3,402.9,463.5,402.4,461.8z"/>
<path d="M497.6,442.8c0.5,1,0.8,2.1,1.4,2.9c1.3,1.8,0.3,5.2-1.8,5.6c-0.4,0.1-1.4-0.9-1.5-1.5C495.2,447.2,496.1,444.9,497.6,442.8
	L497.6,442.8z"/>
<path d="M422.7,455.6c0-1.5,1.4-3.3,2.6-3.3s2.3,1.2,2.3,2.5c0,1.4-1,2.3-2.8,2.3C423.8,457.2,422.7,457.1,422.7,455.6z"/>
<path d="M505.3,457c0.1-0.9,0.1-1.7,0.2-2.6c0.2,0,0.5,0,0.7,0c0.5,0.9,0.5,1.8-0.3,2.6C505.7,457,505.5,457,505.3,457z"/>
<path d="M544.4,512.1c3.1,1.4,3.5,1.9,2.9,3.5c-0.1,0.3-0.5,0.9-0.6,0.8c-0.4-0.1-0.9-0.3-1-0.7
	C545.2,514.8,544.9,513.6,544.4,512.1z"/>
<path d="M551.4,498.7c0.5,1,1.1,1.8,1.1,2.7c0,0.5-1,1.1-1.6,1.4c-0.3,0.1-0.9-0.1-1.2-0.4c-0.2-0.2-0.1-0.8,0-1.1
	C550.2,500.6,550.7,499.9,551.4,498.7z"/>
<path d="M375.5,670.5c2.5-0.4,3.7,1.2,4.9,2.6c2,2.3,3.7,4.8,5.5,7.2c2.1,2.8,2.4,6.1,3,9.3c0.2,1,0.3,2,0.2,3
	c-0.1,0.8-0.4,2.1-0.8,2.2c-0.8,0.1-2-0.1-2.7-0.7c-1.2-1-2.2-2.2-3-3.4c-3.2-5.2-5.9-10.7-7.1-16.7
	C375.3,672.9,375.5,671.7,375.5,670.5z"/>
<path d="M400.2,679.2c0,0.8,0.1,1.3,0,1.5c-0.8,1-1.5,2.5-2.4,2.7c-1.4,0.3-1.7-1.4-1.7-2.4c0-1.5,0.2-3,0.8-4.4
	c0.2-0.6,1.5-0.8,2.3-0.9c0.2,0,0.6,1,0.8,1.6C400.1,678.1,400.2,678.9,400.2,679.2z"/>
<path d="M389.4,664.9c0.9,0.7,1.8,1.2,2.5,1.9c0.4,0.4,0.4,1.2,0.3,1.9c0,0.2-0.8,0.5-1.2,0.5C388.8,669.2,388.1,667.4,389.4,664.9z
	"/>
<path d="M593.8,700.1c2.2,1.3,2.2-0.5,2.8-2.3c1.2,0.8,2.3,1.4,3.2,2.2c2.7,2.3,3.7,5.5,4.3,8.8c0.2,1.2-0.5,1.9-1.6,2.2
	c-3.9,1.2-6.4-0.2-8.1-4.6C593.3,703.3,593.2,702.6,593.8,700.1z"/>
<path d="M611,692.4c2.8,1.9,4.3,4.2,3.9,7.3c-0.1,0.7-0.5,1.5-1.1,1.9c-0.3,0.2-1.2-0.3-1.8-0.6c-2.3-1.6-1.7-4-1.7-6.3
	C610.4,694,610.8,693.3,611,692.4z"/>
<path d="M604.4,688.8c-0.9-0.7-2.4-1.2-1.7-2.8c0.3-0.6,1-1.3,1.9-0.5C605.8,686.4,605.8,687.2,604.4,688.8z"/>
</svg>
