<?xml version="1.0" encoding="utf-8"?>
<!-- Generator: Adobe Illustrator 17.1.0, SVG Export Plug-In . SVG Version: 6.00 Build 0)  -->
<!DOCTYPE svg PUBLIC "-//W3C//DTD SVG 1.1//EN" "http://www.w3.org/Graphics/SVG/1.1/DTD/svg11.dtd">
<svg version="1.1" id="Layer_1" xmlns="http://www.w3.org/2000/svg" xmlns:xlink="http://www.w3.org/1999/xlink" x="0px" y="0px"
	 viewBox="0 0 1000 1000" enable-background="new 0 0 1000 1000" xml:space="preserve">
<polygon fill="#FFFFFF" stroke="#16B34C" stroke-miterlimit="10" points="183.9,512.2 190.4,512.2 196.9,512.2 196.9,628.6 
	196.9,744.9 190.4,744.9 183.9,744.9 183.9,628.6 "/>
<polygon fill="#FFFFFF" stroke="#16B34C" stroke-miterlimit="10" points="225.4,543.2 231.6,544.2 237.8,545.2 243.6,578.1 
	251.3,621.7 251.3,633.8 253.9,649.3 253.9,752.7 248.2,752.2 242.6,751.7 234.5,671.7 232,648.1 225.4,581.7 "/>
<polygon fill="#FFFFFF" stroke="#16B34C" stroke-miterlimit="10" points="266.9,574.3 272.8,576.2 278.7,578.2 290.3,610.2 
	305.8,652.6 305.8,655.1 310.9,670 310.9,760.5 306.1,759.5 301.2,758.6 285,688.4 280.1,667.7 266.9,609.6 "/>
<polygon fill="#FFFFFF" stroke="#16B34C" stroke-miterlimit="10" points="308.5,605.3 313.9,608.2 319.6,611.3 336.9,642.2 
	360.2,683.4 360.2,676.5 368,690.7 368,768.3 363.9,766.9 359.9,765.4 335.6,705.2 328.3,687.3 308.5,637.6 "/>
<polygon fill="#FFFFFF" stroke="#16B34C" stroke-miterlimit="10" points="350,636.4 355.1,640.2 360.5,644.3 383.6,674.2 
	414.7,714.3 414.7,697.8 425,711.4 425,776.1 421.8,774.2 418.5,772.2 386.2,721.9 376.4,706.8 350,665.5 "/>
<polygon fill="#FFFFFF" stroke="#16B34C" stroke-miterlimit="10" points="482,732.1 482,783.9 436.8,738.7 391.5,693.4 391.5,667.4 
	430.3,706.2 469.1,745.1 469.1,719.2 "/>
<polygon fill="#FFFFFF" stroke="#16B34C" stroke-miterlimit="10" points="385,648.1 396.1,652.6 410.9,688.6 416.7,702.4 
	430.3,735.9 430.3,736.4 433.6,735.4 446.5,748.3 456.1,771.5 456.1,796.8 433.1,773.7 410.4,751 407.7,743.6 393,701.3 385,678.1 
	"/>
<polygon fill="#FFFFFF" stroke="#16B34C" stroke-miterlimit="10" points="391.5,628.7 391.5,686.9 391.5,745.1 410.9,764.5 
	430.3,783.9 430.3,809.7 404.5,783.8 378.6,757.9 378.6,693.3 378.6,628.7 "/>
<polygon fill="#FFFFFF" stroke="#16B34C" stroke-miterlimit="10" points="385,661.1 395.2,664.7 398,672.4 398,715.3 398,716.6 
	413.5,760.6 414.8,761.9 430.8,777.9 447.6,794.7 449.7,801.2 449.7,816.2 417.4,783.8 397.4,763.9 385,719.2 "/>
<polygon fill="#FFFFFF" stroke="#16B34C" stroke-miterlimit="10" points="404.5,706.2 404.5,745.1 436.8,777.4 469.1,809.7 
	469.1,822.6 430.3,783.8 391.5,745.1 391.5,693.4 "/>
<polygon fill="#FFFFFF" stroke="#16B34C" stroke-miterlimit="10" points="398,699.8 410.9,712.6 424,745.2 430.4,751.5 455.3,776.4 
	476.7,797.9 482,810.4 482,822.6 444,784.6 435.8,776.3 406.2,746.8 398,726.7 "/>
<polygon fill="#FFFFFF" stroke="#16B34C" stroke-miterlimit="10" points="404.5,706.2 404.5,732.1 449.8,777.3 495,822.6 495,796.7 
	449.8,751.5 "/>
<polygon fill="#FFFFFF" stroke="#16B34C" stroke-miterlimit="10" points="360,736 439.5,815.5 439.5,742.3 360,664.7 "/>
<polygon fill="#FFFFFF" stroke="#16B34C" stroke-miterlimit="10" points="315.6,740 383.9,808.3 383.9,687.8 315.6,623.2 "/>
<polygon fill="#FFFFFF" stroke="#16B34C" stroke-miterlimit="10" points="271.1,743.9 328.4,801.2 328.4,633.4 271.1,581.7 "/>
<polygon fill="#FFFFFF" stroke="#16B34C" stroke-miterlimit="10" points="226.6,747.8 272.8,794 272.8,578.9 226.6,540.1 "/>
<polygon fill="#FFFFFF" stroke="#16B34C" stroke-miterlimit="10" points="182.1,751.7 217.3,786.9 217.3,524.5 182.1,498.6 "/>
<polygon fill="#FFFFFF" stroke="#16B34C" stroke-miterlimit="10" points="137.7,755.7 161.7,779.7 161.7,470 137.7,457.1 "/>
<polygon fill="#FFFFFF" stroke="#16B34C" stroke-miterlimit="10" points="93.2,759.6 106.2,772.6 106.2,415.6 93.2,415.6 "/>
<polygon fill="#FFFFFF" stroke="#16B34C" stroke-miterlimit="10" points="107.2,754.1 120.2,766 120.2,429 107.2,428 "/>
<polygon fill="#FFFFFF" stroke="#16B34C" stroke-miterlimit="10" points="121.2,748.5 134.2,759.4 134.2,442.5 121.2,440.3 "/>
<polygon fill="#FFFFFF" stroke="#16B34C" stroke-miterlimit="10" points="135.2,743 148.2,752.8 148.2,455.9 135.2,452.7 "/>
<polygon fill="#FFFFFF" stroke="#16B34C" stroke-miterlimit="10" points="149.2,737.5 162.2,746.1 162.2,469.4 149.2,465 "/>
<polygon fill="#FFFFFF" stroke="#16B34C" stroke-miterlimit="10" points="163.2,731.9 176.2,739.5 176.2,482.8 163.2,477.4 "/>
<polygon fill="#FFFFFF" stroke="#16B34C" stroke-miterlimit="10" points="177.2,726.4 190.2,732.9 190.2,496.2 177.2,489.8 "/>
<polygon fill="#FFFFFF" stroke="#16B34C" stroke-miterlimit="10" points="191.2,720.9 204.2,726.3 204.2,509.7 191.2,502.1 "/>
<polygon fill="#FFFFFF" stroke="#16B34C" stroke-miterlimit="10" points="205.2,715.3 218.2,719.7 218.2,523.1 205.2,514.5 "/>
<polygon fill="#FFFFFF" stroke="#16B34C" stroke-miterlimit="10" points="219.2,709.8 232.2,713 232.2,536.6 219.2,526.8 "/>
<polygon fill="#FFFFFF" stroke="#16B34C" stroke-miterlimit="10" points="233.2,704.3 246.2,706.4 246.2,550 233.2,539.2 "/>
<polygon fill="#FFFFFF" stroke="#16B34C" stroke-miterlimit="10" points="247.2,698.7 260.2,699.8 260.2,563.5 247.2,551.5 "/>
<polygon fill="#FFFFFF" stroke="#16B34C" stroke-miterlimit="10" points="261.2,563.9 261.2,693.2 274.2,693.2 274.2,576.9 "/>
<polygon fill="#FFFFFF" stroke="#16B34C" stroke-miterlimit="10" points="248.4,551.1 267.7,570.4 267.7,693.2 248.4,693.2 "/>
<polygon fill="#FFFFFF" stroke="#16B34C" stroke-miterlimit="10" points="235.5,538.2 261.2,563.9 261.2,693.2 235.5,693.2 "/>
<polygon fill="#FFFFFF" stroke="#16B34C" stroke-miterlimit="10" points="219.4,518.8 241.9,538.1 241.9,686.8 219.4,686.8 "/>
<polygon fill="#FFFFFF" stroke="#16B34C" stroke-miterlimit="10" points="203.2,499.4 222.6,512.2 222.6,680.3 203.2,680.3 "/>
<polygon fill="#FFFFFF" stroke="#16B34C" stroke-miterlimit="10" points="187,480 203.2,486.4 203.2,673.9 187,673.9 "/>
<rect x="170.9" y="460.6" fill="#FFFFFF" stroke="#16B34C" stroke-miterlimit="10" width="13" height="206.8"/>
<polygon fill="#FFFFFF" stroke="#16B34C" stroke-miterlimit="10" points="175.2,559.7 231.3,559.7 226.9,701.8 195.5,701.8 
	175.2,701.8 "/>
<polygon fill="#FFFFFF" stroke="#16B34C" stroke-miterlimit="10" points="179.4,658.8 278.6,658.8 270,736.3 215.5,736.3 
	179.4,736.3 "/>
<polygon fill="#FFFFFF" stroke="#16B34C" stroke-miterlimit="10" points="235.5,770.7 313,770.7 326,757.9 183.7,757.9 183.7,770.7 
	"/>
<polygon fill="#FFFFFF" stroke="#16B34C" stroke-miterlimit="10" points="194.1,745 320.8,745 310.4,757.8 240.7,757.8 194.1,757.8 
	"/>
<polygon fill="#FFFFFF" stroke="#16B34C" stroke-miterlimit="10" points="204.4,732 315.7,732 307.9,744.9 245.9,744.9 204.4,744.9 
	"/>
<polygon fill="#FFFFFF" stroke="#16B34C" stroke-miterlimit="10" points="214.8,719.1 310.5,719.1 305.3,732 251.1,732 214.8,732 
	"/>
<polygon fill="#FFFFFF" stroke="#16B34C" stroke-miterlimit="10" points="225.1,706.1 305.4,706.1 302.8,719.1 256.3,719.1 
	225.1,719.1 "/>
<rect x="235.5" y="693.2" fill="#FFFFFF" stroke="#16B34C" stroke-miterlimit="10" width="64.7" height="13"/>
<rect x="254.9" y="680.3" fill="#FFFFFF" stroke="#16B34C" stroke-miterlimit="10" width="38.9" height="19.4"/>
<rect x="274.2" y="667.4" fill="#FFFFFF" stroke="#16B34C" stroke-miterlimit="10" width="13" height="25.8"/>
<rect x="251.6" y="686.8" fill="#FFFFFF" stroke="#16B34C" stroke-miterlimit="10" width="55" height="22.6"/>
<rect x="229" y="706.2" fill="#FFFFFF" stroke="#16B34C" stroke-miterlimit="10" width="97" height="19.4"/>
<rect x="206.3" y="725.5" fill="#FFFFFF" stroke="#16B34C" stroke-miterlimit="10" width="139" height="16.2"/>
<rect x="183.7" y="744.9" fill="#FFFFFF" stroke="#16B34C" stroke-miterlimit="10" width="181" height="13"/>
<rect x="209.6" y="732.1" fill="#FFFFFF" stroke="#16B34C" stroke-miterlimit="10" width="148.6" height="13"/>
<rect x="235.5" y="719.2" fill="#FFFFFF" stroke="#16B34C" stroke-miterlimit="10" width="116.3" height="13"/>
<rect x="300.1" y="615.7" fill="#FFFFFF" stroke="#16B34C" stroke-miterlimit="10" width="64.6" height="135.8"/>
<rect x="364.7" y="512.2" fill="#FFFFFF" stroke="#16B34C" stroke-miterlimit="10" width="13" height="258.5"/>
<rect x="321.6" y="576.9" fill="#FFFFFF" stroke="#16B34C" stroke-miterlimit="10" width="30.2" height="176.7"/>
<rect x="278.6" y="641.5" fill="#FFFFFF" stroke="#16B34C" stroke-miterlimit="10" width="47.5" height="94.8"/>
<rect x="235.5" y="706.2" fill="#FFFFFF" stroke="#16B34C" stroke-miterlimit="10" width="64.7" height="13"/>
<polygon fill="#FFFFFF" stroke="#16B34C" stroke-miterlimit="10" points="313.1,719.1 306.6,732.1 229,732.1 229,719.1 "/>
<polygon fill="#FFFFFF" stroke="#16B34C" stroke-miterlimit="10" points="326,732 313,744.9 222.5,744.9 222.5,732 "/>
<polygon fill="#FFFFFF" stroke="#16B34C" stroke-miterlimit="10" points="274.3,626.5 265.6,775.5 200.8,775.5 200.8,626.5 "/>
<polygon fill="#FFFFFF" stroke="#16B34C" stroke-miterlimit="10" points="222.6,521.1 218.3,806 179.1,806 179.1,521.1 "/>
<rect x="157.4" y="415.6" fill="#FFFFFF" stroke="#16B34C" stroke-miterlimit="10" width="13.5" height="421"/>
<polygon fill="#FFFFFF" stroke="#16B34C" stroke-miterlimit="10" points="164.1,777.9 131.5,752 131.5,451 164.1,476.9 "/>
<polygon fill="#FFFFFF" stroke="#16B34C" stroke-miterlimit="10" points="157.4,719.2 105.7,667.4 105.7,486.4 157.4,538.2 "/>
<polygon fill="#FFFFFF" stroke="#16B34C" stroke-miterlimit="10" points="138.1,457.5 161.6,480.1 185,502.8 185,596.5 185,690.3 
	161.6,667.6 138.1,645 138.1,551.2 "/>
<polygon fill="#FFFFFF" stroke="#16B34C" stroke-miterlimit="10" points="170.6,428.6 191.6,448 212.6,467.4 212.6,564.4 
	212.6,661.3 191.6,641.9 170.6,622.5 170.6,525.5 "/>
<polygon fill="#FFFFFF" stroke="#16B34C" stroke-miterlimit="10" points="203,399.7 221.6,415.9 240.2,432 240.2,532.2 240.2,632.4 
	221.6,616.2 203,600 203,499.9 "/>
<polygon fill="#FFFFFF" stroke="#16B34C" stroke-miterlimit="10" points="235.5,370.8 251.6,383.7 267.8,396.7 267.8,500.1 
	267.8,603.5 251.6,590.5 235.5,577.6 235.5,474.2 "/>
<polygon fill="#FFFFFF" stroke="#16B34C" stroke-miterlimit="10" points="267.9,341.8 281.6,351.6 295.4,361.3 295.4,467.9 
	295.4,574.6 281.6,564.9 267.9,555.2 267.9,448.5 "/>
<polygon fill="#FFFFFF" stroke="#16B34C" stroke-miterlimit="10" points="300.3,312.9 311.7,319.4 323,325.9 323,435.8 323,545.7 
	311.7,539.2 300.3,532.7 300.3,422.8 "/>
<polygon fill="#FFFFFF" stroke="#16B34C" stroke-miterlimit="10" points="332.8,284 341.7,287.2 350.6,290.5 350.6,403.6 
	350.6,516.7 341.7,513.5 332.8,510.2 332.8,397.1 "/>
<polygon fill="#FFFFFF" stroke="#16B34C" stroke-miterlimit="10" points="365.2,255.1 371.7,255.1 378.2,255.1 378.2,371.5 
	378.2,487.8 371.7,487.8 365.2,487.8 365.2,371.5 "/>
<polygon fill="#FFFFFF" stroke="#16B34C" stroke-miterlimit="10" points="308.2,247.3 313.9,247.8 319.5,248.3 327.6,328.3 
	330.1,351.9 336.7,418.3 336.7,456.8 330.5,455.8 324.3,454.8 318.5,421.9 310.8,378.3 310.8,366.3 308.2,350.7 "/>
<polygon fill="#FFFFFF" stroke="#16B34C" stroke-miterlimit="10" points="251.2,239.5 256,240.5 260.9,241.4 277.1,311.6 282,332.3 
	295.2,390.4 295.2,425.7 289.3,423.8 283.4,421.7 271.9,389.9 256.4,347.5 256.4,344.9 251.2,330 "/>
<polygon fill="#FFFFFF" stroke="#16B34C" stroke-miterlimit="10" points="194.1,231.7 198.2,233.1 202.2,234.6 226.5,294.8 
	233.8,312.7 253.6,362.4 253.6,394.7 248.2,391.8 242.5,388.7 225.2,357.8 201.9,316.6 201.9,323.5 194.1,309.3 "/>
<polygon fill="#FFFFFF" stroke="#16B34C" stroke-miterlimit="10" points="137.1,223.9 140.3,225.8 143.6,227.8 175.9,278.1 
	185.7,293.2 212.1,334.5 212.1,363.6 207,359.8 201.6,355.7 178.5,325.8 147.5,285.8 147.5,302.2 137.1,288.6 "/>
<polygon fill="#FFFFFF" stroke="#16B34C" stroke-miterlimit="10" points="80.1,267.9 80.1,216.1 125.4,261.4 170.6,306.6 
	170.6,332.6 131.9,293.8 93.1,254.9 93.1,280.8 "/>
<polygon fill="#FFFFFF" stroke="#16B34C" stroke-miterlimit="10" points="105.9,203.2 129,226.3 151.7,249 154.5,256.4 169.1,298.7 
	177.1,321.9 177.1,352 166,347.3 151.2,311.5 145.4,297.6 131.9,264.2 131.9,263.6 128.6,264.6 115.7,251.7 105.9,228.5 "/>
<polygon fill="#FFFFFF" stroke="#16B34C" stroke-miterlimit="10" points="170.6,371.3 170.6,313.1 170.6,254.9 151.2,235.5 
	131.8,216.1 131.8,190.3 157.7,216.2 183.6,242.1 183.6,306.7 183.6,371.3 "/>
<polygon fill="#FFFFFF" stroke="#16B34C" stroke-miterlimit="10" points="112.4,183.9 144.8,216.2 164.7,236.1 177.1,280.8 
	177.1,339 166.9,335.3 164.1,327.7 164.1,284.7 164.1,283.5 148.6,239.4 147.4,238.1 131.3,222.1 114.6,205.3 112.4,198.9 "/>
<polygon fill="#FFFFFF" stroke="#16B34C" stroke-miterlimit="10" points="157.6,293.8 157.6,254.9 125.4,222.6 93.1,190.3 
	93.1,177.4 131.9,216.1 170.6,254.9 170.6,306.6 "/>
<polygon fill="#FFFFFF" stroke="#16B34C" stroke-miterlimit="10" points="80.1,177.4 118.1,215.4 126.4,223.7 155.9,253.2 
	164.1,273.3 164.1,300.2 151.2,287.4 138.1,254.8 131.7,248.5 106.8,223.6 85.4,202.1 80.1,189.6 "/>
<polygon fill="#FFFFFF" stroke="#16B34C" stroke-miterlimit="10" points="157.6,293.8 157.6,267.9 112.4,222.6 67.1,177.4 
	67.1,203.3 112.4,248.5 "/>
<polygon fill="#FFFFFF" stroke="#16B34C" stroke-miterlimit="10" points="202,264 122.6,184.5 122.6,257.7 202,335.3 "/>
<polygon fill="#FFFFFF" stroke="#16B34C" stroke-miterlimit="10" points="246.5,260 178.1,191.7 178.1,312.2 246.5,376.8 "/>
<polygon fill="#FFFFFF" stroke="#16B34C" stroke-miterlimit="10" points="290.9,256.1 233.6,198.8 233.6,366.6 290.9,418.3 "/>
<polygon fill="#FFFFFF" stroke="#16B34C" stroke-miterlimit="10" points="335.4,252.2 289.2,206 289.2,421.1 335.4,459.9 "/>
<polygon fill="#FFFFFF" stroke="#16B34C" stroke-miterlimit="10" points="379.8,248.3 344.7,213.1 344.7,475.5 379.8,501.4 "/>
<polygon fill="#FFFFFF" stroke="#16B34C" stroke-miterlimit="10" points="424.3,244.3 400.2,220.3 400.2,530 424.3,542.9 "/>
<polygon fill="#FFFFFF" stroke="#16B34C" stroke-miterlimit="10" points="468.7,240.4 455.7,227.4 455.7,584.4 468.7,584.4 "/>
<polygon fill="#FFFFFF" stroke="#16B34C" stroke-miterlimit="10" points="454.7,245.9 441.7,234 441.7,571 454.7,572 "/>
<polygon fill="#FFFFFF" stroke="#16B34C" stroke-miterlimit="10" points="440.7,251.5 427.7,240.6 427.7,557.5 440.7,559.7 "/>
<polygon fill="#FFFFFF" stroke="#16B34C" stroke-miterlimit="10" points="426.7,257 413.7,247.2 413.7,544.1 426.7,547.3 "/>
<polygon fill="#FFFFFF" stroke="#16B34C" stroke-miterlimit="10" points="412.7,262.5 399.7,253.9 399.7,530.6 412.7,535 "/>
<polygon fill="#FFFFFF" stroke="#16B34C" stroke-miterlimit="10" points="398.7,268.1 385.7,260.5 385.7,517.2 398.7,522.6 "/>
<polygon fill="#FFFFFF" stroke="#16B34C" stroke-miterlimit="10" points="384.7,273.6 371.7,267.1 371.7,503.8 384.7,510.2 "/>
<polygon fill="#FFFFFF" stroke="#16B34C" stroke-miterlimit="10" points="370.7,279.1 357.7,273.7 357.7,490.3 370.7,497.9 "/>
<polygon fill="#FFFFFF" stroke="#16B34C" stroke-miterlimit="10" points="356.7,284.7 343.7,280.3 343.7,476.9 356.7,485.5 "/>
<polygon fill="#FFFFFF" stroke="#16B34C" stroke-miterlimit="10" points="342.7,290.2 329.7,286.9 329.7,463.4 342.7,473.2 "/>
<polygon fill="#FFFFFF" stroke="#16B34C" stroke-miterlimit="10" points="328.7,295.7 315.7,293.6 315.7,450 328.7,460.8 "/>
<polygon fill="#FFFFFF" stroke="#16B34C" stroke-miterlimit="10" points="314.7,301.3 301.7,300.2 301.7,436.5 314.7,448.5 "/>
<polygon fill="#FFFFFF" stroke="#16B34C" stroke-miterlimit="10" points="300.7,436.1 300.7,306.8 287.7,306.8 287.7,423.1 "/>
<polygon fill="#FFFFFF" stroke="#16B34C" stroke-miterlimit="10" points="313.6,449 294.2,429.6 294.2,306.8 313.6,306.8 "/>
<polygon fill="#FFFFFF" stroke="#16B34C" stroke-miterlimit="10" points="326.5,461.8 300.7,436.1 300.7,306.8 326.5,306.8 "/>
<polygon fill="#FFFFFF" stroke="#16B34C" stroke-miterlimit="10" points="320.1,313.2 342.7,313.2 342.7,481.2 320.1,461.9 "/>
<polygon fill="#FFFFFF" stroke="#16B34C" stroke-miterlimit="10" points="339.5,319.7 358.9,319.7 358.9,500.6 339.5,487.8 "/>
<polygon fill="#FFFFFF" stroke="#16B34C" stroke-miterlimit="10" points="358.8,326.1 375,326.1 375,520 358.8,513.6 "/>
<rect x="378.2" y="332.6" fill="#FFFFFF" stroke="#16B34C" stroke-miterlimit="10" width="13" height="206.8"/>
<polygon fill="#FFFFFF" stroke="#16B34C" stroke-miterlimit="10" points="335.1,298.2 366.6,298.2 386.9,298.2 386.9,440.3 
	330.8,440.3 "/>
<polygon fill="#FFFFFF" stroke="#16B34C" stroke-miterlimit="10" points="292.1,263.7 346.5,263.7 382.5,263.7 382.5,341.2 
	283.4,341.2 "/>
<polygon fill="#FFFFFF" stroke="#16B34C" stroke-miterlimit="10" points="326.5,229.3 249,229.3 236,242.1 378.2,242.1 378.2,229.3 
	"/>
<polygon fill="#FFFFFF" stroke="#16B34C" stroke-miterlimit="10" points="251.6,242.2 321.3,242.2 367.9,242.2 367.9,255 241.2,255 
	"/>
<polygon fill="#FFFFFF" stroke="#16B34C" stroke-miterlimit="10" points="254.1,255.1 316.1,255.1 357.5,255.1 357.5,268 246.3,268 
	"/>
<polygon fill="#FFFFFF" stroke="#16B34C" stroke-miterlimit="10" points="256.7,268 310.9,268 347.2,268 347.2,280.9 251.5,280.9 
	"/>
<polygon fill="#FFFFFF" stroke="#16B34C" stroke-miterlimit="10" points="259.2,280.9 305.8,280.9 336.8,280.9 336.8,293.9 
	256.6,293.9 "/>
<rect x="261.8" y="293.8" fill="#FFFFFF" stroke="#16B34C" stroke-miterlimit="10" width="64.7" height="13"/>
<rect x="268.2" y="300.3" fill="#FFFFFF" stroke="#16B34C" stroke-miterlimit="10" width="38.9" height="19.4"/>
<rect x="274.7" y="306.8" fill="#FFFFFF" stroke="#16B34C" stroke-miterlimit="10" width="13" height="25.8"/>
<rect x="255.3" y="290.6" fill="#FFFFFF" stroke="#16B34C" stroke-miterlimit="10" width="55" height="22.6"/>
<rect x="236" y="274.5" fill="#FFFFFF" stroke="#16B34C" stroke-miterlimit="10" width="97" height="19.4"/>
<rect x="216.6" y="258.3" fill="#FFFFFF" stroke="#16B34C" stroke-miterlimit="10" width="139" height="16.2"/>
<rect x="197.2" y="242.1" fill="#FFFFFF" stroke="#16B34C" stroke-miterlimit="10" width="181" height="13"/>
<rect x="203.7" y="255" fill="#FFFFFF" stroke="#16B34C" stroke-miterlimit="10" width="148.7" height="13"/>
<rect x="210.2" y="267.9" fill="#FFFFFF" stroke="#16B34C" stroke-miterlimit="10" width="116.3" height="13"/>
<rect x="197.2" y="248.6" fill="#FFFFFF" stroke="#16B34C" stroke-miterlimit="10" width="64.7" height="135.8"/>
<rect x="184.2" y="229.3" fill="#FFFFFF" stroke="#16B34C" stroke-miterlimit="10" width="13" height="258.5"/>
<rect x="210.1" y="246.5" fill="#FFFFFF" stroke="#16B34C" stroke-miterlimit="10" width="30.2" height="176.7"/>
<rect x="235.9" y="263.6" fill="#FFFFFF" stroke="#16B34C" stroke-miterlimit="10" width="47.5" height="94.8"/>
<rect x="261.8" y="280.8" fill="#FFFFFF" stroke="#16B34C" stroke-miterlimit="10" width="64.7" height="13"/>
<polygon fill="#FFFFFF" stroke="#16B34C" stroke-miterlimit="10" points="255.4,268 333,268 333,280.9 248.9,280.9 "/>
<polygon fill="#FFFFFF" stroke="#16B34C" stroke-miterlimit="10" points="236,268 249,255.1 339.5,255.1 339.5,268 "/>
<polygon fill="#FFFFFF" stroke="#16B34C" stroke-miterlimit="10" points="296.4,224.5 361.2,224.5 361.2,373.5 287.7,373.5 "/>
<polygon fill="#FFFFFF" stroke="#16B34C" stroke-miterlimit="10" points="343.8,194 383,194 383,478.9 339.5,478.9 "/>
<rect x="391.2" y="163.4" fill="#FFFFFF" stroke="#16B34C" stroke-miterlimit="10" width="13.5" height="421"/>
<polygon fill="#FFFFFF" stroke="#16B34C" stroke-miterlimit="10" points="397.9,222.1 430.5,248 430.5,549.1 397.9,523.2 "/>
<polygon fill="#FFFFFF" stroke="#16B34C" stroke-miterlimit="10" points="404.5,280.8 456.3,332.6 456.3,513.8 404.5,462 "/>
<polygon fill="#FFFFFF" stroke="#16B34C" stroke-miterlimit="10" points="437.7,300.1 462,323.8 486.3,347.6 486.3,440.3 
	486.3,533.1 462,509.3 437.7,485.6 437.7,392.8 "/>
<polygon fill="#FFFFFF" stroke="#16B34C" stroke-miterlimit="10" points="470.9,319.4 493.6,341 516.3,362.5 516.3,457.4 
	516.3,552.3 493.6,530.7 470.9,509.1 470.9,414.3 "/>
<polygon fill="#FFFFFF" stroke="#16B34C" stroke-miterlimit="10" points="504.1,338.6 525.2,358.1 546.2,377.5 546.2,474.5 
	546.2,571.6 525.2,552.2 504.1,532.7 504.1,435.7 "/>
<polygon fill="#FFFFFF" stroke="#16B34C" stroke-miterlimit="10" points="537.4,357.9 556.8,375.2 576.2,392.5 576.2,491.6 
	576.2,590.8 556.8,573.6 537.4,556.3 537.4,457.1 "/>
<polygon fill="#FFFFFF" stroke="#16B34C" stroke-miterlimit="10" points="570.6,377.2 588.4,392.3 606.2,407.4 606.2,508.8 
	606.2,610.1 588.4,595 570.6,579.9 570.6,478.5 "/>
<polygon fill="#FFFFFF" stroke="#16B34C" stroke-miterlimit="10" points="603.8,396.5 620,409.5 636.2,422.4 636.2,525.9 
	636.2,629.3 620,616.4 603.8,603.5 603.8,500 "/>
<polygon fill="#FFFFFF" stroke="#16B34C" stroke-miterlimit="10" points="637,415.8 651.6,426.6 666.2,437.4 666.2,543 666.2,648.6 
	651.6,637.8 637,627 637,521.4 "/>
<polygon fill="#FFFFFF" stroke="#16B34C" stroke-miterlimit="10" points="670.2,435.1 683.2,443.7 696.2,452.3 696.2,560.1 
	696.2,667.9 683.2,659.2 670.2,650.6 670.2,542.8 "/>
<polygon fill="#FFFFFF" stroke="#16B34C" stroke-miterlimit="10" points="703.4,454.4 714.8,460.8 726.1,467.3 726.1,577.2 
	726.1,687.1 714.8,680.7 703.4,674.2 703.4,564.3 "/>
<polygon fill="#FFFFFF" stroke="#16B34C" stroke-miterlimit="10" points="736.7,473.6 746.4,478 756.1,482.3 756.1,594.3 
	756.1,706.4 746.4,702.1 736.7,697.8 736.7,585.7 "/>
<polygon fill="#FFFFFF" stroke="#16B34C" stroke-miterlimit="10" points="769.9,492.9 778,495.1 786.1,497.2 786.1,611.4 
	786.1,725.6 778,723.5 769.9,721.3 769.9,607.1 "/>
<polygon fill="#FFFFFF" stroke="#16B34C" stroke-miterlimit="10" points="803.1,512.2 809.6,512.2 816.1,512.2 816.1,628.6 
	816.1,744.9 809.6,744.9 803.1,744.9 803.1,628.6 "/>
<polygon fill="#FFFFFF" stroke="#16B34C" stroke-miterlimit="10" points="774.6,543.2 774.6,581.6 768.1,648 765.5,673.8 
	757.6,751.5 751.9,752.1 746.1,752.7 746.1,649.3 748.7,634.6 748.7,622.2 756.4,576.7 761.8,545.6 768.2,544.4 "/>
<polygon fill="#FFFFFF" stroke="#16B34C" stroke-miterlimit="10" points="733.1,574.3 733.1,609.5 720,667.5 715,690 699.2,758.2 
	694.1,759.3 689.1,760.5 689.1,670 694.2,655.7 694.2,652.9 709.7,609.1 720.6,579 726.8,576.6 "/>
<polygon fill="#FFFFFF" stroke="#16B34C" stroke-miterlimit="10" points="691.5,605.3 691.5,637.5 672,687 664.4,706.2 640.7,764.8 
	636.4,766.6 632,768.3 632,690.7 639.8,676.9 639.8,683.6 663.1,641.5 679.3,612.4 685.4,608.9 "/>
<polygon fill="#FFFFFF" stroke="#16B34C" stroke-miterlimit="10" points="650,636.4 650,665.4 623.9,706.5 613.8,722.4 582.2,771.5 
	578.6,773.8 575,776.1 575,711.4 585.3,698 585.3,714.4 616.4,673.9 638,645.8 644,641.1 "/>
<polygon fill="#FFFFFF" stroke="#16B34C" stroke-miterlimit="10" points="530.9,719.2 530.9,745.1 569.7,706.2 608.5,667.4 
	608.5,693.4 563.2,738.7 518,783.9 518,732.1 "/>
<polygon fill="#FFFFFF" stroke="#16B34C" stroke-miterlimit="10" points="615,648.1 615,678.6 607,701.3 592.3,743.4 589.8,750.8 
	566.8,773.8 543.8,796.8 543.8,771.4 553.5,748.3 566.4,735.5 569.7,737 569.7,736.3 583.6,702.1 589.1,688.3 603.8,652.8 "/>
<polygon fill="#FFFFFF" stroke="#16B34C" stroke-miterlimit="10" points="621.4,628.7 621.4,693.3 621.4,757.9 595.6,783.8 
	569.7,809.7 569.7,783.9 589.1,764.5 608.5,745.1 608.5,686.9 608.5,628.7 "/>
<polygon fill="#FFFFFF" stroke="#16B34C" stroke-miterlimit="10" points="615,661.1 615,719.2 602.6,763.9 582.6,783.8 550.3,816.2 
	550.3,801.6 552.7,794.4 570.1,777 584.1,763 587.1,760 602,717.3 602,715.2 602,672.5 604.6,664.9 "/>
<polygon fill="#FFFFFF" stroke="#16B34C" stroke-miterlimit="10" points="608.5,693.4 608.5,745.1 569.7,783.8 530.9,822.6 
	530.9,809.7 563.2,777.4 595.5,745.1 595.5,706.2 "/>
<polygon fill="#FFFFFF" stroke="#16B34C" stroke-miterlimit="10" points="602,699.8 602,726.7 593.9,746.7 564.2,776.3 556,784.5 
	518,822.6 518,810.2 523.4,797.8 544.6,776.5 569.4,751.8 575.9,745.3 588.9,712.8 "/>
<polygon fill="#FFFFFF" stroke="#16B34C" stroke-miterlimit="10" points="505,796.7 505,822.6 550.2,777.3 595.5,732.1 595.5,706.2 
	550.2,751.5 "/>
<polygon fill="#FFFFFF" stroke="#16B34C" stroke-miterlimit="10" points="560.5,742.3 560.5,815.5 640,736 640,664.7 "/>
<polygon fill="#FFFFFF" stroke="#16B34C" stroke-miterlimit="10" points="616.1,687.8 616.1,808.3 684.4,740 684.4,623.2 "/>
<polygon fill="#FFFFFF" stroke="#16B34C" stroke-miterlimit="10" points="671.6,633.4 671.6,801.2 728.9,743.9 728.9,581.7 "/>
<polygon fill="#FFFFFF" stroke="#16B34C" stroke-miterlimit="10" points="727.2,578.9 727.2,794 773.4,747.8 773.4,540.1 "/>
<polygon fill="#FFFFFF" stroke="#16B34C" stroke-miterlimit="10" points="782.7,524.5 782.7,786.9 817.9,751.7 817.9,498.6 "/>
<polygon fill="#FFFFFF" stroke="#16B34C" stroke-miterlimit="10" points="838.3,470 838.3,779.7 862.3,755.7 862.3,457.1 "/>
<polygon fill="#FFFFFF" stroke="#16B34C" stroke-miterlimit="10" points="906.8,415.6 893.8,415.6 893.8,772.6 906.8,759.6 "/>
<polygon fill="#FFFFFF" stroke="#16B34C" stroke-miterlimit="10" points="879.8,429 879.8,766 892.8,754.1 892.8,428 "/>
<polygon fill="#FFFFFF" stroke="#16B34C" stroke-miterlimit="10" points="865.8,442.5 865.8,759.4 878.8,748.5 878.8,440.3 "/>
<polygon fill="#FFFFFF" stroke="#16B34C" stroke-miterlimit="10" points="851.8,455.9 851.8,752.8 864.8,743 864.8,452.7 "/>
<polygon fill="#FFFFFF" stroke="#16B34C" stroke-miterlimit="10" points="837.8,469.4 837.8,746.1 850.8,737.5 850.8,465 "/>
<polygon fill="#FFFFFF" stroke="#16B34C" stroke-miterlimit="10" points="823.8,482.8 823.8,739.5 836.8,731.9 836.8,477.4 "/>
<polygon fill="#FFFFFF" stroke="#16B34C" stroke-miterlimit="10" points="809.8,496.2 809.8,732.9 822.8,726.4 822.8,489.8 "/>
<polygon fill="#FFFFFF" stroke="#16B34C" stroke-miterlimit="10" points="795.8,509.7 795.8,726.3 808.8,720.9 808.8,502.1 "/>
<polygon fill="#FFFFFF" stroke="#16B34C" stroke-miterlimit="10" points="781.8,523.1 781.8,719.7 794.8,715.3 794.8,514.5 "/>
<polygon fill="#FFFFFF" stroke="#16B34C" stroke-miterlimit="10" points="767.8,536.6 767.8,713 780.8,709.8 780.8,526.8 "/>
<polygon fill="#FFFFFF" stroke="#16B34C" stroke-miterlimit="10" points="753.8,550 753.8,706.4 766.8,704.3 766.8,539.2 "/>
<polygon fill="#FFFFFF" stroke="#16B34C" stroke-miterlimit="10" points="739.8,563.5 739.8,699.8 752.8,698.7 752.8,551.5 "/>
<polygon fill="#FFFFFF" stroke="#16B34C" stroke-miterlimit="10" points="725.8,576.9 725.8,693.2 738.8,693.2 738.8,563.9 "/>
<polygon fill="#FFFFFF" stroke="#16B34C" stroke-miterlimit="10" points="751.7,693.2 732.3,693.2 732.3,570.4 751.7,551.1 "/>
<polygon fill="#FFFFFF" stroke="#16B34C" stroke-miterlimit="10" points="764.5,693.2 738.8,693.2 738.8,563.9 764.5,538.2 "/>
<polygon fill="#FFFFFF" stroke="#16B34C" stroke-miterlimit="10" points="758.1,538.1 780.7,518.8 780.7,686.8 758.1,686.8 "/>
<polygon fill="#FFFFFF" stroke="#16B34C" stroke-miterlimit="10" points="777.4,512.2 796.8,499.4 796.8,680.3 777.4,680.3 "/>
<polygon fill="#FFFFFF" stroke="#16B34C" stroke-miterlimit="10" points="796.8,486.4 812.9,480 812.9,673.9 796.8,673.9 "/>
<rect x="816.1" y="460.6" fill="#FFFFFF" stroke="#16B34C" stroke-miterlimit="10" width="13" height="206.8"/>
<polygon fill="#FFFFFF" stroke="#16B34C" stroke-miterlimit="10" points="768.7,559.7 824.8,559.7 824.8,701.8 804.5,701.8 
	773.1,701.8 "/>
<polygon fill="#FFFFFF" stroke="#16B34C" stroke-miterlimit="10" points="721.4,658.8 820.6,658.8 820.6,736.3 784.5,736.3 
	730,736.3 "/>
<polygon fill="#FFFFFF" stroke="#16B34C" stroke-miterlimit="10" points="816.3,770.7 816.3,757.9 674,757.9 687,770.7 764.5,770.7 
	"/>
<polygon fill="#FFFFFF" stroke="#16B34C" stroke-miterlimit="10" points="679.2,745 805.9,745 805.9,757.8 759.3,757.8 689.6,757.8 
	"/>
<polygon fill="#FFFFFF" stroke="#16B34C" stroke-miterlimit="10" points="684.3,732 795.6,732 795.6,744.9 754.1,744.9 692.1,744.9 
	"/>
<polygon fill="#FFFFFF" stroke="#16B34C" stroke-miterlimit="10" points="689.5,719.1 785.2,719.1 785.2,732 748.9,732 694.7,732 
	"/>
<polygon fill="#FFFFFF" stroke="#16B34C" stroke-miterlimit="10" points="694.6,706.1 774.9,706.1 774.9,719.1 743.7,719.1 
	697.2,719.1 "/>
<rect x="699.8" y="693.2" fill="#FFFFFF" stroke="#16B34C" stroke-miterlimit="10" width="64.7" height="13"/>
<rect x="706.3" y="680.3" fill="#FFFFFF" stroke="#16B34C" stroke-miterlimit="10" width="38.9" height="19.4"/>
<rect x="712.8" y="667.4" fill="#FFFFFF" stroke="#16B34C" stroke-miterlimit="10" width="13" height="25.8"/>
<rect x="693.4" y="686.8" fill="#FFFFFF" stroke="#16B34C" stroke-miterlimit="10" width="55" height="22.6"/>
<rect x="674" y="706.2" fill="#FFFFFF" stroke="#16B34C" stroke-miterlimit="10" width="97" height="19.4"/>
<rect x="654.7" y="725.5" fill="#FFFFFF" stroke="#16B34C" stroke-miterlimit="10" width="139" height="16.2"/>
<rect x="635.3" y="744.9" fill="#FFFFFF" stroke="#16B34C" stroke-miterlimit="10" width="181" height="13"/>
<rect x="641.8" y="732.1" fill="#FFFFFF" stroke="#16B34C" stroke-miterlimit="10" width="148.6" height="13"/>
<rect x="648.3" y="719.2" fill="#FFFFFF" stroke="#16B34C" stroke-miterlimit="10" width="116.3" height="13"/>
<rect x="635.3" y="615.7" fill="#FFFFFF" stroke="#16B34C" stroke-miterlimit="10" width="64.6" height="135.8"/>
<rect x="622.3" y="512.2" fill="#FFFFFF" stroke="#16B34C" stroke-miterlimit="10" width="13" height="258.5"/>
<rect x="648.1" y="576.9" fill="#FFFFFF" stroke="#16B34C" stroke-miterlimit="10" width="30.2" height="176.7"/>
<rect x="674" y="641.5" fill="#FFFFFF" stroke="#16B34C" stroke-miterlimit="10" width="47.5" height="94.8"/>
<rect x="699.8" y="706.2" fill="#FFFFFF" stroke="#16B34C" stroke-miterlimit="10" width="64.7" height="13"/>
<polygon fill="#FFFFFF" stroke="#16B34C" stroke-miterlimit="10" points="771,719.1 771,732.1 693.4,732.1 686.9,719.1 "/>
<polygon fill="#FFFFFF" stroke="#16B34C" stroke-miterlimit="10" points="777.5,732 777.5,744.9 687,744.9 674,732 "/>
<polygon fill="#FFFFFF" stroke="#16B34C" stroke-miterlimit="10" points="799.2,626.5 799.2,775.5 734.4,775.5 725.7,626.5 "/>
<polygon fill="#FFFFFF" stroke="#16B34C" stroke-miterlimit="10" points="820.9,521.1 820.9,806 781.7,806 777.4,521.1 "/>
<rect x="829.1" y="415.6" fill="#FFFFFF" stroke="#16B34C" stroke-miterlimit="10" width="13.5" height="421"/>
<polygon fill="#FFFFFF" stroke="#16B34C" stroke-miterlimit="10" points="835.8,476.9 868.4,451 868.4,752 835.8,777.9 "/>
<polygon fill="#FFFFFF" stroke="#16B34C" stroke-miterlimit="10" points="842.6,538.2 894.3,486.4 894.3,667.4 842.6,719.2 "/>
<polygon fill="#FFFFFF" stroke="#16B34C" stroke-miterlimit="10" points="815,502.8 838.4,480.1 861.9,457.5 861.9,551.2 861.9,645 
	838.4,667.6 815,690.3 815,596.5 "/>
<polygon fill="#FFFFFF" stroke="#16B34C" stroke-miterlimit="10" points="787.4,467.4 808.4,448 829.4,428.6 829.4,525.5 
	829.4,622.5 808.4,641.9 787.4,661.3 787.4,564.4 "/>
<polygon fill="#FFFFFF" stroke="#16B34C" stroke-miterlimit="10" points="759.8,432 778.4,415.9 797,399.7 797,499.9 797,600 
	778.4,616.2 759.8,632.4 759.8,532.2 "/>
<polygon fill="#FFFFFF" stroke="#16B34C" stroke-miterlimit="10" points="732.2,396.7 748.4,383.7 764.5,370.8 764.5,474.2 
	764.5,577.6 748.4,590.5 732.2,603.5 732.2,500.1 "/>
<polygon fill="#FFFFFF" stroke="#16B34C" stroke-miterlimit="10" points="704.6,361.3 718.4,351.6 732.1,341.8 732.1,448.5 
	732.1,555.2 718.4,564.9 704.6,574.6 704.6,467.9 "/>
<polygon fill="#FFFFFF" stroke="#16B34C" stroke-miterlimit="10" points="677,325.9 688.3,319.4 699.7,312.9 699.7,422.8 
	699.7,532.7 688.3,539.2 677,545.7 677,435.8 "/>
<polygon fill="#FFFFFF" stroke="#16B34C" stroke-miterlimit="10" points="649.4,290.5 658.3,287.2 667.2,284 667.2,397.1 
	667.2,510.2 658.3,513.5 649.4,516.7 649.4,403.6 "/>
<polygon fill="#FFFFFF" stroke="#16B34C" stroke-miterlimit="10" points="621.8,255.1 628.3,255.1 634.8,255.1 634.8,371.5 
	634.8,487.8 628.3,487.8 621.8,487.8 621.8,371.5 "/>
<polygon fill="#FFFFFF" stroke="#16B34C" stroke-miterlimit="10" points="691.8,247.3 691.8,350.7 689.2,365.5 689.2,377.9 
	681.5,423.3 676.1,454.4 669.7,455.6 663.3,456.8 663.3,418.4 669.8,352 672.4,326.2 680.3,248.5 686,247.9 "/>
<polygon fill="#FFFFFF" stroke="#16B34C" stroke-miterlimit="10" points="748.8,239.5 748.8,330 743.6,344.3 743.6,347.1 
	728.1,390.9 717.3,421 711.1,423.4 704.8,425.7 704.8,390.5 717.9,332.5 722.9,310 738.7,241.8 743.8,240.7 "/>
<polygon fill="#FFFFFF" stroke="#16B34C" stroke-miterlimit="10" points="805.9,231.7 805.9,309.3 798.1,323.1 798.1,316.4 
	774.8,358.5 758.6,387.6 752.5,391.1 746.4,394.7 746.4,362.5 765.9,313 773.5,293.8 797.2,235.2 801.5,233.4 "/>
<polygon fill="#FFFFFF" stroke="#16B34C" stroke-miterlimit="10" points="862.9,223.9 862.9,288.6 852.5,302 852.5,285.6 
	821.5,326.1 799.9,354.2 793.9,358.9 787.9,363.6 787.9,334.6 814,293.5 824.1,277.6 855.7,228.5 859.3,226.2 "/>
<polygon fill="#FFFFFF" stroke="#16B34C" stroke-miterlimit="10" points="906.9,280.8 906.9,254.9 868.2,293.8 829.4,332.6 
	829.4,306.6 874.7,261.4 919.9,216.1 919.9,267.9 "/>
<polygon fill="#FFFFFF" stroke="#16B34C" stroke-miterlimit="10" points="894.1,203.2 894.1,228.6 884.4,251.7 871.4,264.6 
	868.2,263.1 868.2,263.7 854.3,297.8 848.8,311.8 834.2,347.2 822.9,352 822.9,321.4 830.9,298.7 845.5,256.5 848.1,249.2 
	871.1,226.2 "/>
<polygon fill="#FFFFFF" stroke="#16B34C" stroke-miterlimit="10" points="816.4,371.3 816.4,306.7 816.4,242.1 842.3,216.2 
	868.2,190.3 868.2,216.1 848.8,235.5 829.4,254.9 829.4,313.1 829.4,371.3 "/>
<polygon fill="#FFFFFF" stroke="#16B34C" stroke-miterlimit="10" points="855.2,216.2 887.6,183.9 887.6,198.5 885.2,205.6 
	867.7,223 853.8,237 850.8,240 835.9,282.7 835.9,284.7 835.9,327.6 833.3,335.1 822.9,339 822.9,280.8 835.3,236.1 "/>
<polygon fill="#FFFFFF" stroke="#16B34C" stroke-miterlimit="10" points="829.4,306.6 829.4,254.9 868.2,216.1 906.9,177.4 
	906.9,190.3 874.7,222.6 842.4,254.9 842.4,293.8 "/>
<polygon fill="#FFFFFF" stroke="#16B34C" stroke-miterlimit="10" points="919.9,177.4 919.9,189.8 914.5,202.2 893.3,223.5 
	868.5,248.2 862,254.7 849,287.2 835.9,300.2 835.9,273.4 844,253.3 873.6,223.7 881.8,215.5 "/>
<polygon fill="#FFFFFF" stroke="#16B34C" stroke-miterlimit="10" points="932.9,203.3 932.9,177.4 887.7,222.6 842.4,267.9 
	842.4,293.8 887.7,248.5 "/>
<polygon fill="#FFFFFF" stroke="#16B34C" stroke-miterlimit="10" points="877.4,257.7 877.4,184.5 798,264 798,335.3 "/>
<polygon fill="#FFFFFF" stroke="#16B34C" stroke-miterlimit="10" points="821.9,312.2 821.9,191.7 753.5,260 753.5,376.8 "/>
<polygon fill="#FFFFFF" stroke="#16B34C" stroke-miterlimit="10" points="766.4,366.6 766.4,198.8 709.1,256.1 709.1,418.3 "/>
<polygon fill="#FFFFFF" stroke="#16B34C" stroke-miterlimit="10" points="710.8,421.1 710.8,206 664.6,252.2 664.6,459.9 "/>
<polygon fill="#FFFFFF" stroke="#16B34C" stroke-miterlimit="10" points="655.3,475.5 655.3,213.1 620.2,248.3 620.2,501.4 "/>
<polygon fill="#FFFFFF" stroke="#16B34C" stroke-miterlimit="10" points="599.8,530 599.8,220.3 575.7,244.3 575.7,542.9 "/>
<polygon fill="#FFFFFF" stroke="#16B34C" stroke-miterlimit="10" points="531.3,584.4 544.3,584.4 544.3,227.4 531.3,240.4 "/>
<polygon fill="#FFFFFF" stroke="#16B34C" stroke-miterlimit="10" points="558.3,571 558.3,234 545.3,245.9 545.3,572 "/>
<polygon fill="#FFFFFF" stroke="#16B34C" stroke-miterlimit="10" points="572.3,557.5 572.3,240.6 559.3,251.5 559.3,559.7 "/>
<polygon fill="#FFFFFF" stroke="#16B34C" stroke-miterlimit="10" points="586.3,544.1 586.3,247.2 573.3,257 573.3,547.3 "/>
<polygon fill="#FFFFFF" stroke="#16B34C" stroke-miterlimit="10" points="600.3,530.6 600.3,253.9 587.3,262.5 587.3,535 "/>
<polygon fill="#FFFFFF" stroke="#16B34C" stroke-miterlimit="10" points="614.3,517.2 614.3,260.5 601.3,268.1 601.3,522.6 "/>
<polygon fill="#FFFFFF" stroke="#16B34C" stroke-miterlimit="10" points="628.3,503.8 628.3,267.1 615.3,273.6 615.3,510.2 "/>
<polygon fill="#FFFFFF" stroke="#16B34C" stroke-miterlimit="10" points="642.3,490.3 642.3,273.7 629.3,279.1 629.3,497.9 "/>
<polygon fill="#FFFFFF" stroke="#16B34C" stroke-miterlimit="10" points="656.3,476.9 656.3,280.3 643.3,284.7 643.3,485.5 "/>
<polygon fill="#FFFFFF" stroke="#16B34C" stroke-miterlimit="10" points="670.3,463.4 670.3,286.9 657.3,290.2 657.3,473.2 "/>
<polygon fill="#FFFFFF" stroke="#16B34C" stroke-miterlimit="10" points="684.3,450 684.3,293.6 671.3,295.7 671.3,460.8 "/>
<polygon fill="#FFFFFF" stroke="#16B34C" stroke-miterlimit="10" points="698.3,436.5 698.3,300.2 685.3,301.3 685.3,448.5 "/>
<polygon fill="#FFFFFF" stroke="#16B34C" stroke-miterlimit="10" points="712.3,423.1 712.3,306.8 699.3,306.8 699.3,436.1 "/>
<polygon fill="#FFFFFF" stroke="#16B34C" stroke-miterlimit="10" points="686.4,306.8 705.8,306.8 705.8,429.6 686.4,449 "/>
<polygon fill="#FFFFFF" stroke="#16B34C" stroke-miterlimit="10" points="673.5,306.8 699.3,306.8 699.3,436.1 673.5,461.8 "/>
<polygon fill="#FFFFFF" stroke="#16B34C" stroke-miterlimit="10" points="657.3,313.2 679.9,313.2 679.9,461.9 657.3,481.2 "/>
<polygon fill="#FFFFFF" stroke="#16B34C" stroke-miterlimit="10" points="641.2,319.7 660.5,319.7 660.5,487.8 641.2,500.6 "/>
<polygon fill="#FFFFFF" stroke="#16B34C" stroke-miterlimit="10" points="625,326.1 641.2,326.1 641.2,513.6 625,520 "/>
<rect x="608.8" y="332.6" fill="#FFFFFF" stroke="#16B34C" stroke-miterlimit="10" width="13" height="206.8"/>
<polygon fill="#FFFFFF" stroke="#16B34C" stroke-miterlimit="10" points="613.1,298.2 633.4,298.2 664.9,298.2 669.2,440.3 
	613.1,440.3 "/>
<polygon fill="#FFFFFF" stroke="#16B34C" stroke-miterlimit="10" points="617.5,263.7 653.5,263.7 707.9,263.7 716.6,341.2 
	617.5,341.2 "/>
<polygon fill="#FFFFFF" stroke="#16B34C" stroke-miterlimit="10" points="621.8,229.3 621.8,242.1 764,242.1 751,229.3 673.5,229.3 
	"/>
<polygon fill="#FFFFFF" stroke="#16B34C" stroke-miterlimit="10" points="632.1,242.2 678.7,242.2 748.4,242.2 758.8,255 632.1,255 
	"/>
<polygon fill="#FFFFFF" stroke="#16B34C" stroke-miterlimit="10" points="642.5,255.1 683.9,255.1 745.9,255.1 753.7,268 642.5,268 
	"/>
<polygon fill="#FFFFFF" stroke="#16B34C" stroke-miterlimit="10" points="652.8,268 689.1,268 743.3,268 748.5,280.9 652.8,280.9 
	"/>
<polygon fill="#FFFFFF" stroke="#16B34C" stroke-miterlimit="10" points="663.2,280.9 694.2,280.9 740.8,280.9 743.4,293.9 
	663.2,293.9 "/>
<rect x="673.5" y="293.8" fill="#FFFFFF" stroke="#16B34C" stroke-miterlimit="10" width="64.7" height="13"/>
<rect x="692.9" y="300.3" fill="#FFFFFF" stroke="#16B34C" stroke-miterlimit="10" width="38.9" height="19.4"/>
<rect x="712.3" y="306.8" fill="#FFFFFF" stroke="#16B34C" stroke-miterlimit="10" width="13" height="25.8"/>
<rect x="689.7" y="290.6" fill="#FFFFFF" stroke="#16B34C" stroke-miterlimit="10" width="55" height="22.6"/>
<rect x="667" y="274.5" fill="#FFFFFF" stroke="#16B34C" stroke-miterlimit="10" width="97" height="19.4"/>
<rect x="644.4" y="258.3" fill="#FFFFFF" stroke="#16B34C" stroke-miterlimit="10" width="139" height="16.2"/>
<rect x="621.8" y="242.1" fill="#FFFFFF" stroke="#16B34C" stroke-miterlimit="10" width="181" height="13"/>
<rect x="647.6" y="255" fill="#FFFFFF" stroke="#16B34C" stroke-miterlimit="10" width="148.6" height="13"/>
<rect x="673.5" y="267.9" fill="#FFFFFF" stroke="#16B34C" stroke-miterlimit="10" width="116.3" height="13"/>
<rect x="738.1" y="248.6" fill="#FFFFFF" stroke="#16B34C" stroke-miterlimit="10" width="64.6" height="135.8"/>
<rect x="802.8" y="229.3" fill="#FFFFFF" stroke="#16B34C" stroke-miterlimit="10" width="13" height="258.5"/>
<rect x="759.7" y="246.5" fill="#FFFFFF" stroke="#16B34C" stroke-miterlimit="10" width="30.2" height="176.7"/>
<rect x="716.6" y="263.6" fill="#FFFFFF" stroke="#16B34C" stroke-miterlimit="10" width="47.5" height="94.8"/>
<rect x="673.5" y="280.8" fill="#FFFFFF" stroke="#16B34C" stroke-miterlimit="10" width="64.7" height="13"/>
<polygon fill="#FFFFFF" stroke="#16B34C" stroke-miterlimit="10" points="667,268 744.6,268 751.1,280.9 667,280.9 "/>
<polygon fill="#FFFFFF" stroke="#16B34C" stroke-miterlimit="10" points="660.5,268 660.5,255.1 751,255.1 764,268 "/>
<polygon fill="#FFFFFF" stroke="#16B34C" stroke-miterlimit="10" points="638.8,224.5 703.6,224.5 712.3,373.5 638.8,373.5 "/>
<polygon fill="#FFFFFF" stroke="#16B34C" stroke-miterlimit="10" points="617,194 656.2,194 660.5,478.9 617,478.9 "/>
<rect x="595.3" y="163.4" fill="#FFFFFF" stroke="#16B34C" stroke-miterlimit="10" width="13.5" height="421"/>
<polygon fill="#FFFFFF" stroke="#16B34C" stroke-miterlimit="10" points="602.2,523.2 569.5,549.1 569.5,248 602.2,222.1 "/>
<polygon fill="#FFFFFF" stroke="#16B34C" stroke-miterlimit="10" points="595.5,462 543.7,513.8 543.7,332.6 595.5,280.8 "/>
</svg>
