<?xml version="1.0" encoding="utf-8"?>
<!-- Generator: Adobe Illustrator 17.1.0, SVG Export Plug-In . SVG Version: 6.00 Build 0)  -->
<!DOCTYPE svg PUBLIC "-//W3C//DTD SVG 1.1//EN" "http://www.w3.org/Graphics/SVG/1.1/DTD/svg11.dtd">
<svg version="1.1" id="Layer_1" xmlns="http://www.w3.org/2000/svg" xmlns:xlink="http://www.w3.org/1999/xlink" x="0px" y="0px"
	 viewBox="0 0 1000 1000" enable-background="new 0 0 1000 1000" xml:space="preserve">
<g>
	<path fill="#231F20" d="M182.5,495h-40.2c-2.5-28-26.1-50-54.8-50c-30.3,0-55,24.7-55,55s24.7,55,55,55c28.6,0,52.2-22,54.8-50
		h40.2v395h10V100h-10V495z M87.5,545c-24.8,0-45-20.2-45-45c0-24.8,20.2-45,45-45c23.1,0,42.2,17.5,44.7,40H87.5v10h44.7
		C129.7,527.5,110.6,545,87.5,545z"/>
	<polygon fill="#231F20" points="292,397.8 242.5,298.8 242.5,105 382.5,105 382.5,200 392.5,200 392.5,95 232.5,95 232.5,301.2 
		283,402.2 	"/>
	<polygon fill="#231F20" points="142.5,301.2 142.5,100 132.5,100 132.5,298.8 83,397.8 92,402.2 	"/>
	<polygon fill="#231F20" points="382.5,895 242.5,895 242.5,701.2 292,602.2 283,597.8 232.5,698.8 232.5,905 392.5,905 392.5,800 
		382.5,800 	"/>
	<polygon fill="#231F20" points="83,602.2 132.5,701.2 132.5,900 142.5,900 142.5,698.8 92,597.8 	"/>
	<rect x="320" y="262.5" fill="#231F20" width="10" height="162.5"/>
	<rect x="320" y="575" fill="#231F20" width="10" height="175"/>
	<polygon fill="#231F20" points="607.5,200 617.5,200 617.5,105 757.5,105 757.5,298.8 708,397.8 717,402.2 767.5,301.2 767.5,95 
		607.5,95 	"/>
	<polygon fill="#231F20" points="917,397.8 867.5,298.8 867.5,100 857.5,100 857.5,301.2 908,402.2 	"/>
	<polygon fill="#231F20" points="708,602.2 757.5,701.2 757.5,895 617.5,895 617.5,800 607.5,800 607.5,905 767.5,905 767.5,698.8 
		717,597.8 	"/>
	<polygon fill="#231F20" points="857.5,698.8 857.5,900 867.5,900 867.5,701.2 917,602.2 908,597.8 	"/>
	<path fill="#231F20" d="M712.5,445c-28.6,0-52.2,22-54.8,50h-15.2V300h-10v195H605V302.1l98.5-98.5l-7.1-7.1L595,297.9v157.4
		c-16.8-35.6-53.1-60.3-95-60.3c-41.9,0-78.2,24.7-95,60.3V297.9L303.5,196.5l-7.1,7.1l98.5,98.5V495h-27.5V300h-10v195h-15.2
		c-2.5-28-26.1-50-54.8-50c-30.3,0-55,24.7-55,55s24.7,55,55,55c28.6,0,52.2-22,54.8-50h15.2v195h10V505H395v193.1l-98.7,111.1
		l7.5,6.6L405,701.9V544.7c16.8,35.6,53.1,60.3,95,60.3c41.9,0,78.2-24.7,95-60.3v157.2l101.3,113.9l7.5-6.6L605,698.1V505h27.5v195
		h10V505h15.2c2.5,28,26.1,50,54.8,50c30.3,0,55-24.7,55-55S742.8,445,712.5,445z M287.5,545c-24.8,0-45-20.2-45-45
		c0-24.8,20.2-45,45-45c23.1,0,42.2,17.5,44.7,40h-44.7v10h44.7C329.7,527.5,310.6,545,287.5,545z M500,595
		c-50.7,0-92.3-39.9-94.9-90h82.4v-10h-82.4c2.6-50.1,44.2-90,94.9-90c50.7,0,92.3,39.9,94.9,90h-82.4v10h82.4
		C592.3,555.1,550.7,595,500,595z M712.5,545c-23.1,0-42.2-17.5-44.7-40h44.7v-10h-44.7c2.5-22.5,21.6-40,44.7-40
		c24.8,0,45,20.2,45,45C757.5,524.8,737.3,545,712.5,545z"/>
	<path fill="#231F20" d="M912.5,445c-28.6,0-52.2,22-54.8,50h-40.2V100h-10v800h10V505h40.2c2.5,28,26.1,50,54.8,50
		c30.3,0,55-24.7,55-55S942.8,445,912.5,445z M912.5,545c-23.1,0-42.2-17.5-44.7-40h44.7v-10h-44.7c2.5-22.5,21.6-40,44.7-40
		c24.8,0,45,20.2,45,45C957.5,524.8,937.3,545,912.5,545z"/>
	<rect x="670" y="262.5" fill="#231F20" width="10" height="162.5"/>
	<rect x="670" y="575" fill="#231F20" width="10" height="175"/>
	<rect x="495" y="100" fill="#231F20" width="10" height="262.5"/>
	<rect x="495" y="637.5" fill="#231F20" width="10" height="262.5"/>
	<rect x="545" y="700" fill="#231F20" width="10" height="100"/>
	<rect x="445" y="700" fill="#231F20" width="10" height="100"/>
	<rect x="545" y="200" fill="#231F20" width="10" height="100"/>
	<rect x="445" y="200" fill="#231F20" width="10" height="100"/>
</g>
</svg>
