<?xml version="1.0" encoding="utf-8"?>
<!-- Generator: Adobe Illustrator 17.1.0, SVG Export Plug-In . SVG Version: 6.00 Build 0)  -->
<!DOCTYPE svg PUBLIC "-//W3C//DTD SVG 1.1//EN" "http://www.w3.org/Graphics/SVG/1.1/DTD/svg11.dtd">
<svg version="1.1" id="Layer_1" xmlns="http://www.w3.org/2000/svg" xmlns:xlink="http://www.w3.org/1999/xlink" x="0px" y="0px"
	 viewBox="0 0 1000 1000" enable-background="new 0 0 1000 1000" xml:space="preserve">
<g>
	<polygon fill="#231F20" points="96.5,106.5 194,204.1 194,798.9 96.4,897.5 103.6,904.5 204,803.1 204,199.9 103.5,99.5 	"/>
	<rect x="232.5" y="200" fill="#231F20" width="10" height="600"/>
	<polygon fill="#231F20" points="296.5,203.5 397.9,305 462.5,305 462.5,295 402.1,295 303.5,196.5 	"/>
	<polygon fill="#231F20" points="296.5,796.5 303.5,803.5 402.1,705 462.5,705 462.5,695 397.9,695 	"/>
	<rect x="95" y="300" fill="#231F20" width="10" height="400"/>
	<rect x="125" y="295" fill="#231F20" width="50" height="10"/>
	<rect x="125" y="695" fill="#231F20" width="50" height="10"/>
	<rect x="125" y="595" fill="#231F20" width="50" height="10"/>
	<rect x="125" y="495" fill="#231F20" width="50" height="10"/>
	<rect x="125" y="395" fill="#231F20" width="50" height="10"/>
	<polygon fill="#231F20" points="597.5,457.5 402.5,457.5 304,322.1 296,327.9 397.5,467.5 602.5,467.5 704,327.9 696,322.1 	"/>
	<polygon fill="#231F20" points="397.5,532.5 296,672.1 304,677.9 402.5,542.5 597.5,542.5 696,677.9 704,672.1 602.5,532.5 	"/>
	<path fill="#231F20" d="M270,142.2V300h10V142.2c21.1-2.5,37.5-20.5,37.5-42.2c0-23.4-19.1-42.5-42.5-42.5s-42.5,19.1-42.5,42.5
		C232.5,121.7,248.9,139.7,270,142.2z M275,67.5c17.9,0,32.5,14.6,32.5,32.5c0,16.2-11.9,29.7-27.5,32.1V100h-10v32.1
		c-15.6-2.4-27.5-15.9-27.5-32.1C242.5,82.1,257.1,67.5,275,67.5z"/>
	<path fill="#231F20" d="M280,857.8V700h-10v157.8c-21.1,2.5-37.5,20.5-37.5,42.2c0,23.4,19.1,42.5,42.5,42.5s42.5-19.1,42.5-42.5
		C317.5,878.3,301.1,860.3,280,857.8z M275,932.5c-17.9,0-32.5-14.6-32.5-32.5c0-16.2,11.9-29.7,27.5-32.1V900h10v-32.1
		c15.6,2.4,27.5,15.9,27.5,32.1C307.5,917.9,292.9,932.5,275,932.5z"/>
	<polygon fill="#231F20" points="806,204.1 903.5,106.5 896.5,99.5 796,199.9 796,803.1 896.4,904.5 903.6,897.5 806,798.9 	"/>
	<rect x="757.5" y="200" fill="#231F20" width="10" height="600"/>
	<polygon fill="#231F20" points="703.5,203.5 696.5,196.5 597.9,295 537.5,295 537.5,305 602.1,305 	"/>
	<polygon fill="#231F20" points="703.5,796.5 602.1,695 537.5,695 537.5,705 597.9,705 696.5,803.5 	"/>
	<rect x="895" y="300" fill="#231F20" width="10" height="400"/>
	<rect x="825" y="295" fill="#231F20" width="50" height="10"/>
	<rect x="825" y="695" fill="#231F20" width="50" height="10"/>
	<rect x="825" y="595" fill="#231F20" width="50" height="10"/>
	<rect x="825" y="495" fill="#231F20" width="50" height="10"/>
	<rect x="825" y="395" fill="#231F20" width="50" height="10"/>
	<path fill="#231F20" d="M742.5,500c0-23.4-19.1-42.5-42.5-42.5c-21.7,0-39.7,16.4-42.2,37.5H500H342.2
		c-2.5-21.1-20.5-37.5-42.2-37.5c-23.4,0-42.5,19.1-42.5,42.5s19.1,42.5,42.5,42.5c21.7,0,39.7-16.4,42.2-37.5H500h157.8
		c2.5,21.1,20.5,37.5,42.2,37.5C723.4,542.5,742.5,523.4,742.5,500z M300,532.5c-17.9,0-32.5-14.6-32.5-32.5
		c0-17.9,14.6-32.5,32.5-32.5c16.2,0,29.7,11.9,32.1,27.5H300v10h32.1C329.7,520.6,316.2,532.5,300,532.5z M700,532.5
		c-16.2,0-29.7-11.9-32.1-27.5H700v-10h-32.1c2.4-15.6,15.9-27.5,32.1-27.5c17.9,0,32.5,14.6,32.5,32.5
		C732.5,517.9,717.9,532.5,700,532.5z"/>
	<path fill="#231F20" d="M725,57.5c-23.4,0-42.5,19.1-42.5,42.5c0,21.7,16.4,39.7,37.5,42.2V300h10V142.2
		c21.1-2.5,37.5-20.5,37.5-42.2C767.5,76.6,748.4,57.5,725,57.5z M730,132.1V100h-10v32.1c-15.6-2.4-27.5-15.9-27.5-32.1
		c0-17.9,14.6-32.5,32.5-32.5s32.5,14.6,32.5,32.5C757.5,116.2,745.6,129.7,730,132.1z"/>
	<path fill="#231F20" d="M730,857.8V700h-10v157.8c-21.1,2.5-37.5,20.5-37.5,42.2c0,23.4,19.1,42.5,42.5,42.5s42.5-19.1,42.5-42.5
		C767.5,878.3,751.1,860.3,730,857.8z M725,932.5c-17.9,0-32.5-14.6-32.5-32.5c0-16.2,11.9-29.7,27.5-32.1V900h10v-32.1
		c15.6,2.4,27.5,15.9,27.5,32.1C757.5,917.9,742.9,932.5,725,932.5z"/>
	<polygon fill="#231F20" points="600,605 600,595 400,595 400,605 495,605 495,900 505,900 505,605 	"/>
	<polygon fill="#231F20" points="400,395 400,405 600,405 600,395 505,395 505,100 495,100 495,395 	"/>
</g>
</svg>
