<?xml version="1.0" encoding="utf-8"?>
<!-- Generator: Adobe Illustrator 17.1.0, SVG Export Plug-In . SVG Version: 6.00 Build 0)  -->
<!DOCTYPE svg PUBLIC "-//W3C//DTD SVG 1.1//EN" "http://www.w3.org/Graphics/SVG/1.1/DTD/svg11.dtd">
<svg version="1.1" id="Layer_1" xmlns="http://www.w3.org/2000/svg" xmlns:xlink="http://www.w3.org/1999/xlink" x="0px" y="0px"
	 viewBox="0 0 1000 1000" enable-background="new 0 0 1000 1000" xml:space="preserve">
<polygon fill="#EB008B" points="520.5,769 476.6,742.4 463.8,736 450.3,685.9 432.9,719.8 415.4,708.1 415.4,755.2 394.1,741 
	386.9,684.6 350.5,652.2 352.5,650 389.7,683.1 396.9,739.2 412.4,749.6 412.4,702.5 431.7,715.4 451.2,677.7 466.3,734 
	478.1,739.9 522.1,766.5 "/>
<polygon fill="#EB008B" points="476.9,263.6 468.5,222.8 503.1,196.3 492.8,171.1 454.2,184 466.6,155 357.1,182.7 357.1,189.7 
	341.1,195.1 333.2,204 330.9,202 339.4,192.5 354.1,187.6 354.1,180.3 471.7,150.7 459.6,179 494.6,167.4 506.8,197.3 471.8,224.1 
	479.8,263 "/>
<path fill="none" stroke="#EB008B" stroke-width="3" stroke-miterlimit="10" d="M298.3,198.9"/>
<rect x="385" y="193.9" transform="matrix(0.9011 0.4336 -0.4336 0.9011 135.3396 -145.4537)" fill="#EB008B" width="3" height="60.2"/>
<polygon fill="#EB008B" points="449.6,599.3 412.9,574.5 402,536.6 377.5,493 380.2,491.5 404.8,535.4 415.4,572.7 449.3,595.5 
	475.4,569.3 513.1,546.2 514.7,548.8 477.2,571.7 "/>
<polygon fill="#EB008B" points="400.1,289.4 370.6,257.4 369.6,282.1 366.6,282 367.8,250 399.1,283.9 413,249.1 469.5,222.1 
	470.8,224.8 415.3,251.3 "/>
<path fill="none" stroke="#EB008B" stroke-width="3" stroke-miterlimit="10" d="M332,203"/>
<rect x="410.9" y="111.2" transform="matrix(0.3008 0.9537 -0.9537 0.3008 451.1834 -273.8661)" fill="#EB008B" width="3" height="119.1"/>
<rect x="426.7" y="159.5" transform="matrix(0.2588 0.9659 -0.9659 0.2588 500.1074 -273.4146)" fill="#EB008B" width="3" height="59.3"/>
<polygon fill="#EB008B" points="415.5,250.8 412.7,249.8 428.7,188.3 431.6,189 419.4,236 444.8,183.7 447.5,185 "/>
<polygon fill="#EB008B" points="360.7,390.5 358.6,388.4 435.2,309.3 422.6,293.6 467.3,269 455.2,229.6 492.4,168.4 495,170 
	458.5,230 470.9,270.5 427.2,294.5 439.2,309.5 "/>
<polygon fill="#EB008B" points="354.2,339.6 349.8,328.7 389.2,313.9 398.1,286.2 401,287.1 391.6,316.2 353.7,330.5 357,338.5 "/>
<polygon fill="#EB008B" points="347.5,495 345.7,492.6 360.4,481.6 353.7,426.4 385.3,446.3 431,377.5 441.3,442.2 438.4,442.6 
	429.3,385.5 386.2,450.4 357.4,432.3 363.6,483 "/>
<rect x="405" y="266.5" transform="matrix(0.5855 0.8107 -0.8107 0.5855 394.2867 -235.0818)" fill="#EB008B" width="44" height="3"/>
<rect x="373.5" y="265.8" transform="matrix(0.9785 0.2061 -0.2061 0.9785 68.7844 -70.9442)" fill="#EB008B" width="3" height="57.9"/>
<path fill="none" stroke="#EB008B" stroke-width="3" stroke-miterlimit="10" d="M368.1,282"/>
<rect x="365" y="282" transform="matrix(0.9972 7.487898e-02 -7.487898e-02 0.9972 23.7415 -26.592)" fill="#EB008B" width="3" height="42.7"/>
<path fill="none" stroke="#EB008B" stroke-width="3" stroke-miterlimit="10" d="M351.8,329.6"/>
<polygon fill="#EB008B" points="367.5,438.1 358.2,389.6 353.7,334.7 382.1,366.5 379.8,368.5 357.4,343.4 361.2,389.2 370.5,437.5 
	"/>
<polygon fill="#EB008B" points="417.7,404.8 391.4,355.5 388.9,315.1 391.9,314.9 394.4,354.7 416.9,396.9 426.4,364.5 448.4,392.3 
	446.1,394.2 427.6,370.9 "/>
<rect x="382" y="370.2" transform="matrix(0.1197 0.9928 -0.9928 0.1197 760.4617 -114.2779)" fill="#EB008B" width="125.4" height="3"/>
<path fill="none" stroke="#EB008B" stroke-width="3" stroke-miterlimit="10" d="M441.8,347.6"/>
<path fill="none" stroke="#EB008B" stroke-width="3" stroke-miterlimit="10" d="M515.4,303.5"/>
<polygon fill="#EB008B" points="499.1,401.2 485.5,338.9 494.8,314.5 497.6,315.5 488.6,339.2 502,400.5 "/>
<rect x="463.5" y="324.5" transform="matrix(0.3938 0.9192 -0.9192 0.3938 602.2036 -216.2042)" fill="#EB008B" width="3" height="47.9"/>
<rect x="397.6" y="351.6" transform="matrix(0.1341 0.991 -0.991 0.1341 719.0214 -116.6967)" fill="#EB008B" width="57.4" height="3"/>
<rect x="472.2" y="260.9" transform="matrix(0.5704 0.8214 -0.8214 0.5704 422.4622 -274.6112)" fill="#EB008B" width="3" height="11.2"/>
<rect x="350.5" y="489.6" transform="matrix(0.1884 0.9821 -0.9821 0.1884 801.98 11.6526)" fill="#EB008B" width="86.9" height="3"/>
<path fill="none" stroke="#EB008B" stroke-width="3" stroke-miterlimit="10" d="M346.6,384.7"/>
<rect x="378.7" y="560.2" transform="matrix(0.7313 0.6821 -0.6821 0.7313 518.2889 -95.3544)" fill="#EB008B" width="3" height="99.7"/>
<polygon fill="#EB008B" points="430.8,717.9 417.3,637.4 417.3,593.2 403.1,602.4 356.7,655.7 354.4,653.8 401.1,600.1 420.3,587.7 
	420.3,637.2 433.8,717.4 "/>
<polygon fill="#EB008B" points="389.7,684.4 386.9,683.3 404.2,639.4 400.6,601.5 397,591 399.8,590 403.6,601.1 407.2,639.8 "/>
<rect x="407.4" y="581.5" transform="matrix(0.3964 0.9181 -0.9181 0.3964 786.0623 -29.6561)" fill="#EB008B" width="16.3" height="3"/>
<polygon fill="#EB008B" points="462.1,687.5 449.4,682.9 438.4,617.5 435.7,589.3 438.7,589 441.3,617.1 452.1,680.7 462.5,684.4 
	486.9,682.3 487.2,685.3 "/>
<polygon fill="#EB008B" points="475.9,741.5 460.2,684.1 448,597.6 450.9,597.2 463.2,683.5 478.8,740.7 "/>
<rect x="435.6" y="624.9" transform="matrix(0.6377 0.7703 -0.7703 0.6377 644.5682 -117.6467)" fill="#EB008B" width="23.5" height="3"/>
<polygon fill="#EB008B" points="418.7,644.4 403.6,627.7 385.3,621.5 386.2,618.6 405.3,625.1 421,642.4 "/>
<polygon fill="#EB008B" points="416.3,712.8 392.6,670.3 395.2,668.8 411.4,697.9 404.2,639.8 407.2,639.4 "/>
<path fill="none" stroke="#EB008B" stroke-width="3" stroke-miterlimit="10" d="M346.6,493.8"/>
<path fill="none" stroke="#EB008B" stroke-width="3" stroke-miterlimit="10" d="M357.9,448.4"/>
<path fill="none" stroke="#EB008B" stroke-width="3" stroke-miterlimit="10" d="M355.6,388.4"/>
<rect x="380.2" y="374.4" transform="matrix(0.3764 0.9265 -0.9265 0.3764 602.1199 -142.8353)" fill="#EB008B" width="53.9" height="3"/>
<rect x="414.6" y="431.3" transform="matrix(0.6426 0.7662 -0.7662 0.6426 502.9814 -153.5364)" fill="#EB008B" width="3" height="62.1"/>
<rect x="360.6" y="485.8" transform="matrix(0.8609 0.5087 -0.5087 0.8609 299.3989 -120.6698)" fill="#EB008B" width="19.6" height="3"/>
<rect x="439" y="399.7" transform="matrix(0.6067 0.7949 -0.7949 0.6067 537.4963 -169.93)" fill="#EB008B" width="3" height="117.1"/>
<polygon fill="#EB008B" points="439.2,560.4 417.3,491.2 421,471.8 423.9,472.3 420.4,491 440.5,554.5 492.2,496.7 483.2,411.9 
	486.2,411.5 495.3,497.8 "/>
<rect x="409.5" y="556" fill="#EB008B" width="30.3" height="3"/>
<rect x="451.4" y="418" transform="matrix(0.6418 0.7668 -0.7668 0.6418 516.8802 -181.674)" fill="#EB008B" width="3" height="89"/>
<rect x="482.4" y="634.8" transform="matrix(0.9789 0.2046 -0.2046 0.9789 140.4594 -86.075)" fill="#EB008B" width="8.3" height="3"/>
<polygon fill="#EB008B" points="515.1,608.1 512.4,547.4 517.8,512.2 520.8,512.6 515.4,547.6 518.1,608 "/>
<polygon fill="#EB008B" points="485.5,684 474.8,570.4 474.8,570.2 492.8,494.9 520,511.1 518.5,513.7 494.8,499.6 477.8,570.6 
	488.5,683.7 "/>
<path fill="none" stroke="#EB008B" stroke-width="3" stroke-miterlimit="10" d="M521.3,767.7"/>
<rect x="502.3" y="622.4" fill="#EB008B" width="3" height="9.3"/>
<rect x="479.1" y="667.4" transform="matrix(0.7918 0.6107 -0.6107 0.7918 513.3685 -168.2757)" fill="#EB008B" width="48.8" height="3"/>
<rect x="494.9" y="629.8" transform="matrix(0.8693 0.4942 -0.4942 0.8693 383.5139 -161.0876)" fill="#EB008B" width="3" height="29.9"/>
<path fill="none" stroke="#EB008B" stroke-width="3" stroke-miterlimit="10" d="M522.9,683.8"/>
</svg>
