<?xml version="1.0" encoding="utf-8"?>
<!-- Generator: Adobe Illustrator 17.1.0, SVG Export Plug-In . SVG Version: 6.00 Build 0)  -->
<!DOCTYPE svg PUBLIC "-//W3C//DTD SVG 1.1//EN" "http://www.w3.org/Graphics/SVG/1.1/DTD/svg11.dtd">
<svg version="1.1" id="Layer_1" xmlns="http://www.w3.org/2000/svg" xmlns:xlink="http://www.w3.org/1999/xlink" x="0px" y="0px"
	 viewBox="0 0 1000 1000" enable-background="new 0 0 1000 1000" xml:space="preserve">
<g>
	<polygon fill="#231F20" points="251.1,257.7 311.2,318.4 311.2,685.6 251.1,746.3 255.5,750.6 317.8,687.8 317.8,315.7 
		255.5,253.4 	"/>
	<rect x="335.2" y="315.7" fill="#231F20" width="6" height="370.5"/>
	<rect x="250" y="377.4" fill="#231F20" width="6" height="247"/>
	<rect x="268.6" y="374.1" fill="#231F20" width="30.6" height="6"/>
	<rect x="268.6" y="621.1" fill="#231F20" width="30.6" height="6"/>
	<rect x="268.6" y="559.4" fill="#231F20" width="30.6" height="6"/>
	<rect x="268.6" y="497.6" fill="#231F20" width="30.6" height="6"/>
	<rect x="268.6" y="435.9" fill="#231F20" width="30.6" height="6"/>
	<polygon fill="#231F20" points="689.3,318.4 749.5,257.7 745.1,253.4 682.8,315.7 682.8,687.8 745.1,750.6 749.5,746.3 
		689.3,685.6 	"/>
	<rect x="659.3" y="315.7" fill="#231F20" width="6" height="370.5"/>
	<rect x="744" y="377.4" fill="#231F20" width="6" height="247"/>
	<rect x="700.8" y="374.1" fill="#231F20" width="30.6" height="6"/>
	<rect x="700.8" y="621.1" fill="#231F20" width="30.6" height="6"/>
	<rect x="700.8" y="559.4" fill="#231F20" width="30.6" height="6"/>
	<rect x="700.8" y="497.6" fill="#231F20" width="30.6" height="6"/>
	<rect x="700.8" y="435.9" fill="#231F20" width="30.6" height="6"/>
	<path fill="#231F20" d="M650,500.9c0-14.2-12-26.2-26.2-26.2c-13.7,0-24.6,10.4-26.2,23h-97.3H403c-1.6-13.1-12.6-23-26.2-23
		c-14.2,0-26.2,12-26.2,26.2s12,26.2,26.2,26.2c13.7,0,24.6-10.4,26.2-23h97.3h97.3c1.6,13.1,12.6,23,26.2,23
		C638,527.1,650,515.1,650,500.9z M376.8,521.1c-10.9,0-20.2-8.7-20.2-20.2c0-10.9,8.7-20.2,20.2-20.2c9.8,0,18.6,7.1,19.7,16.9
		h-19.7v6h19.7C395.4,513.5,386.6,521.1,376.8,521.1z M623.8,521.1c-9.8,0-18.6-7.1-19.7-16.9h19.7v-6h-19.7
		c1.6-9.8,9.8-16.9,19.7-16.9c10.9,0,20.2,8.7,20.2,20.2C644,511.8,634.7,521.1,623.8,521.1z"/>
</g>
</svg>
