<?xml version="1.0" encoding="utf-8"?>
<!-- Generator: Adobe Illustrator 17.1.0, SVG Export Plug-In . SVG Version: 6.00 Build 0)  -->
<!DOCTYPE svg PUBLIC "-//W3C//DTD SVG 1.1//EN" "http://www.w3.org/Graphics/SVG/1.1/DTD/svg11.dtd">
<svg version="1.1" id="Layer_1" xmlns="http://www.w3.org/2000/svg" xmlns:xlink="http://www.w3.org/1999/xlink" x="0px" y="0px"
	 viewBox="140 -140 1000 1000" enable-background="new 140 -140 1000 1000" xml:space="preserve">
<polygon fill="#FFFFFF" stroke="#16B34C" stroke-miterlimit="10" points="497.4,253.1 497.4,304.9 529.8,304.9 "/>
<polygon fill="#FFFFFF" stroke="#16B34C" stroke-miterlimit="10" points="510.4,304.9 510.4,460.4 497.4,447.5 497.4,304.9 "/>
<rect x="510.4" y="304.9" fill="#FFFFFF" stroke="#16B34C" stroke-miterlimit="10" width="6.5" height="123.1"/>
<polygon fill="#FFFFFF" stroke="#16B34C" stroke-miterlimit="10" points="497.4,253.1 529.8,253.1 529.8,304.9 "/>
<polygon fill="#FFFFFF" stroke="#16B34C" stroke-miterlimit="10" points="497.4,214.2 529.8,253.1 497.4,253.1 "/>
<polygon fill="#FFFFFF" stroke="#16B34C" stroke-miterlimit="10" points="529.8,253.1 497.4,214.2 529.8,214.2 "/>
<rect x="529.8" y="214.2" fill="#FFFFFF" stroke="#16B34C" stroke-miterlimit="10" width="13" height="64.8"/>
<g>
	<rect x="478" y="201.2" fill="#FFFFFF" stroke="#16B34C" stroke-miterlimit="10" width="19.4" height="207.4"/>
	<rect x="782.6" y="201.2" fill="#FFFFFF" stroke="#16B34C" stroke-miterlimit="10" width="19.4" height="207.4"/>
</g>
<polygon fill="#FFFFFF" stroke="#16B34C" stroke-miterlimit="10" points="782.6,253.1 782.6,304.9 750.2,304.9 "/>
<polygon fill="#FFFFFF" stroke="#16B34C" stroke-miterlimit="10" points="769.6,304.9 769.6,460.4 782.6,447.5 782.6,304.9 "/>
<rect x="763.1" y="304.9" fill="#FFFFFF" stroke="#16B34C" stroke-miterlimit="10" width="6.5" height="123.1"/>
<polygon fill="#FFFFFF" stroke="#16B34C" stroke-miterlimit="10" points="782.6,253.1 750.2,253.1 750.2,304.9 "/>
<polygon fill="#FFFFFF" stroke="#16B34C" stroke-miterlimit="10" points="782.6,214.2 750.2,253.1 782.6,253.1 "/>
<polygon fill="#FFFFFF" stroke="#16B34C" stroke-miterlimit="10" points="750.2,253.1 782.6,214.2 750.2,214.2 "/>
<rect x="737.2" y="214.2" fill="#FFFFFF" stroke="#16B34C" stroke-miterlimit="10" width="13" height="64.8"/>
<g>
	<rect x="542.8" y="246.6" fill="#FFFFFF" stroke="#16B34C" stroke-miterlimit="10" width="13" height="90.7"/>
	<rect x="724.2" y="246.6" fill="#FFFFFF" stroke="#16B34C" stroke-miterlimit="10" width="13" height="90.7"/>
</g>
<g>
	<polygon fill="#FFFFFF" stroke="#16B34C" stroke-miterlimit="10" points="555.8,266 640,350.3 640,330.8 555.8,246.6 	"/>
	<polygon fill="#FFFFFF" stroke="#16B34C" stroke-miterlimit="10" points="724.2,266 640,350.3 640,330.8 724.2,246.6 	"/>
</g>
<g>
	<polygon fill="#FFFFFF" stroke="#16B34C" stroke-miterlimit="10" points="555.8,285.5 640,369.7 640,350.3 555.8,266 	"/>
	<polygon fill="#FFFFFF" stroke="#16B34C" stroke-miterlimit="10" points="724.2,285.5 640,369.7 640,350.3 724.2,266 	"/>
</g>
<g>
	<polygon fill="#FFFFFF" stroke="#16B34C" stroke-miterlimit="10" points="555.8,304.9 640,389.2 640,369.7 555.8,285.5 	"/>
	<polygon fill="#FFFFFF" stroke="#16B34C" stroke-miterlimit="10" points="724.2,304.9 640,389.2 640,369.7 724.2,285.5 	"/>
</g>
<g>
	<polygon fill="#FFFFFF" stroke="#16B34C" stroke-miterlimit="10" points="542.8,337.3 614.1,408.6 614.1,395.6 555.8,337.3 	"/>
	<polygon fill="#FFFFFF" stroke="#16B34C" stroke-miterlimit="10" points="737.2,337.3 665.9,408.6 665.9,395.6 724.2,337.3 	"/>
</g>
<polygon fill="#FFFFFF" stroke="#16B34C" stroke-miterlimit="10" points="782.6,466.9 782.6,415.1 750.2,415.1 "/>
<polygon fill="#FFFFFF" stroke="#16B34C" stroke-miterlimit="10" points="782.6,466.9 750.2,466.9 750.2,415.1 "/>
<polygon fill="#FFFFFF" stroke="#16B34C" stroke-miterlimit="10" points="782.6,505.8 750.2,466.9 782.6,466.9 "/>
<polygon fill="#FFFFFF" stroke="#16B34C" stroke-miterlimit="10" points="750.2,466.9 782.6,505.8 750.2,505.8 "/>
<rect x="737.2" y="441" fill="#FFFFFF" stroke="#16B34C" stroke-miterlimit="10" width="13" height="64.8"/>
<g>
	<rect x="737.2" y="279" fill="#FFFFFF" stroke="#16B34C" stroke-miterlimit="10" width="13" height="64.8"/>
	<rect x="737.2" y="376.2" fill="#FFFFFF" stroke="#16B34C" stroke-miterlimit="10" width="13" height="64.8"/>
</g>
<g>
	<rect x="782.6" y="311.4" fill="#FFFFFF" stroke="#16B34C" stroke-miterlimit="10" width="19.4" height="207.4"/>
	<rect x="478" y="311.4" fill="#FFFFFF" stroke="#16B34C" stroke-miterlimit="10" width="19.4" height="207.4"/>
</g>
<polygon fill="#FFFFFF" stroke="#16B34C" stroke-miterlimit="10" points="497.4,466.9 497.4,415.1 529.8,415.1 "/>
<g>
	<polygon fill="#FFFFFF" stroke="#16B34C" stroke-miterlimit="10" points="769.6,415.1 769.6,259.6 782.6,272.5 782.6,415.1 	"/>
	<polygon fill="#FFFFFF" stroke="#16B34C" stroke-miterlimit="10" points="510.4,415.1 510.4,259.6 497.4,272.5 497.4,415.1 	"/>
</g>
<g>
	<rect x="763.1" y="292" fill="#FFFFFF" stroke="#16B34C" stroke-miterlimit="10" width="6.5" height="123.1"/>
	<rect x="510.4" y="292" fill="#FFFFFF" stroke="#16B34C" stroke-miterlimit="10" width="6.5" height="123.1"/>
</g>
<g>
	<rect x="516.9" y="304.9" fill="#FFFFFF" stroke="#16B34C" stroke-miterlimit="10" width="13" height="51.8"/>
	<rect x="750.2" y="304.9" fill="#FFFFFF" stroke="#16B34C" stroke-miterlimit="10" width="13" height="51.8"/>
	<rect x="750.2" y="363.2" fill="#FFFFFF" stroke="#16B34C" stroke-miterlimit="10" width="13" height="51.8"/>
	<rect x="516.9" y="363.2" fill="#FFFFFF" stroke="#16B34C" stroke-miterlimit="10" width="13" height="51.8"/>
</g>
<polygon fill="#FFFFFF" stroke="#16B34C" stroke-miterlimit="10" points="497.4,466.9 529.8,466.9 529.8,415.1 "/>
<polygon fill="#FFFFFF" stroke="#16B34C" stroke-miterlimit="10" points="497.4,505.8 529.8,466.9 497.4,466.9 "/>
<polygon fill="#FFFFFF" stroke="#16B34C" stroke-miterlimit="10" points="529.8,466.9 497.4,505.8 529.8,505.8 "/>
<g>
	<rect x="497.4" y="201.2" fill="#FFFFFF" stroke="#16B34C" stroke-miterlimit="10" width="84.2" height="13"/>
	<rect x="698.3" y="201.2" fill="#FFFFFF" stroke="#16B34C" stroke-miterlimit="10" width="84.2" height="13"/>
	<rect x="698.3" y="505.8" fill="#FFFFFF" stroke="#16B34C" stroke-miterlimit="10" width="84.2" height="13"/>
	<rect x="497.4" y="505.8" fill="#FFFFFF" stroke="#16B34C" stroke-miterlimit="10" width="84.2" height="13"/>
</g>
<g>
	<rect x="497.4" y="194.8" fill="#FFFFFF" stroke="#16B34C" stroke-miterlimit="10" width="71.3" height="6.5"/>
	<rect x="711.3" y="194.8" fill="#FFFFFF" stroke="#16B34C" stroke-miterlimit="10" width="71.3" height="6.5"/>
	<rect x="711.3" y="518.8" fill="#FFFFFF" stroke="#16B34C" stroke-miterlimit="10" width="71.3" height="6.5"/>
	<rect x="497.4" y="518.8" fill="#FFFFFF" stroke="#16B34C" stroke-miterlimit="10" width="71.3" height="6.5"/>
</g>
<g>
	<g>
		<polygon fill="#FFFFFF" stroke="#16B34C" stroke-miterlimit="10" points="503.9,168.8 503.9,194.8 523.4,194.8 		"/>
		<polygon fill="#FFFFFF" stroke="#16B34C" stroke-miterlimit="10" points="523.4,168.8 523.4,194.8 542.8,194.8 		"/>
		<polygon fill="#FFFFFF" stroke="#16B34C" stroke-miterlimit="10" points="542.8,168.8 542.8,194.8 562.2,194.8 		"/>
		<polygon fill="#FFFFFF" stroke="#16B34C" stroke-miterlimit="10" points="776.1,168.8 776.1,194.8 756.6,194.8 		"/>
		<polygon fill="#FFFFFF" stroke="#16B34C" stroke-miterlimit="10" points="756.6,168.8 756.6,194.8 737.2,194.8 		"/>
		<polygon fill="#FFFFFF" stroke="#16B34C" stroke-miterlimit="10" points="737.2,168.8 737.2,194.8 717.8,194.8 		"/>
	</g>
	<polygon fill="#FFFFFF" stroke="#16B34C" stroke-miterlimit="10" points="776.1,551.2 776.1,525.2 756.6,525.2 	"/>
	<polygon fill="#FFFFFF" stroke="#16B34C" stroke-miterlimit="10" points="756.6,551.2 756.6,525.2 737.2,525.2 	"/>
	<polygon fill="#FFFFFF" stroke="#16B34C" stroke-miterlimit="10" points="737.2,551.2 737.2,525.2 717.8,525.2 	"/>
	<polygon fill="#FFFFFF" stroke="#16B34C" stroke-miterlimit="10" points="503.9,551.2 503.9,525.2 523.4,525.2 	"/>
	<polygon fill="#FFFFFF" stroke="#16B34C" stroke-miterlimit="10" points="523.4,551.2 523.4,525.2 542.8,525.2 	"/>
	<polygon fill="#FFFFFF" stroke="#16B34C" stroke-miterlimit="10" points="542.8,551.2 542.8,525.2 562.2,525.2 	"/>
</g>
<rect x="529.8" y="441" fill="#FFFFFF" stroke="#16B34C" stroke-miterlimit="10" width="13" height="64.8"/>
<g>
	<rect x="542.8" y="214.2" fill="#FFFFFF" stroke="#16B34C" stroke-miterlimit="10" width="51.8" height="25.9"/>
	<rect x="685.4" y="214.2" fill="#FFFFFF" stroke="#16B34C" stroke-miterlimit="10" width="51.8" height="25.9"/>
	<rect x="685.4" y="479.9" fill="#FFFFFF" stroke="#16B34C" stroke-miterlimit="10" width="51.8" height="25.9"/>
	<rect x="542.8" y="479.9" fill="#FFFFFF" stroke="#16B34C" stroke-miterlimit="10" width="51.8" height="25.9"/>
</g>
<g>
	<rect x="542.8" y="240.1" fill="#FFFFFF" stroke="#16B34C" stroke-miterlimit="10" width="64.8" height="6.5"/>
	<rect x="672.4" y="240.1" fill="#FFFFFF" stroke="#16B34C" stroke-miterlimit="10" width="64.8" height="6.5"/>
	<g>
		<rect x="672.4" y="473.4" fill="#FFFFFF" stroke="#16B34C" stroke-miterlimit="10" width="64.8" height="6.5"/>
		<rect x="542.8" y="473.4" fill="#FFFFFF" stroke="#16B34C" stroke-miterlimit="10" width="64.8" height="6.5"/>
	</g>
</g>
<g>
	<rect x="724.2" y="382.7" fill="#FFFFFF" stroke="#16B34C" stroke-miterlimit="10" width="13" height="90.7"/>
	<rect x="542.8" y="382.7" fill="#FFFFFF" stroke="#16B34C" stroke-miterlimit="10" width="13" height="90.7"/>
</g>
<g>
	<rect x="529.8" y="279" fill="#FFFFFF" stroke="#16B34C" stroke-miterlimit="10" width="13" height="64.8"/>
	<rect x="529.8" y="376.2" fill="#FFFFFF" stroke="#16B34C" stroke-miterlimit="10" width="13" height="64.8"/>
</g>
<g>
	<polygon fill="#FFFFFF" stroke="#16B34C" stroke-miterlimit="10" points="555.8,266 581.7,246.6 555.8,246.6 	"/>
	<polygon fill="#FFFFFF" stroke="#16B34C" stroke-miterlimit="10" points="724.2,266 698.3,246.6 724.2,246.6 	"/>
	<polygon fill="#FFFFFF" stroke="#16B34C" stroke-miterlimit="10" points="724.2,454 698.3,473.4 724.2,473.4 	"/>
	<polygon fill="#FFFFFF" stroke="#16B34C" stroke-miterlimit="10" points="555.8,454 581.7,473.4 555.8,473.4 	"/>
</g>
<g>
	<polygon fill="#FFFFFF" stroke="#16B34C" stroke-miterlimit="10" points="724.2,454 640,369.7 640,389.2 724.2,473.4 	"/>
	<polygon fill="#FFFFFF" stroke="#16B34C" stroke-miterlimit="10" points="555.8,454 640,369.7 640,389.2 555.8,473.4 	"/>
</g>
<g>
	<polygon fill="#FFFFFF" stroke="#16B34C" stroke-miterlimit="10" points="724.2,434.5 640,350.3 640,369.7 724.2,454 	"/>
	<polygon fill="#FFFFFF" stroke="#16B34C" stroke-miterlimit="10" points="555.8,434.5 640,350.3 640,369.7 555.8,454 	"/>
</g>
<g>
	<polygon fill="#FFFFFF" stroke="#16B34C" stroke-miterlimit="10" points="724.2,415.1 640,330.8 640,350.3 724.2,434.5 	"/>
	<polygon fill="#FFFFFF" stroke="#16B34C" stroke-miterlimit="10" points="555.8,415.1 640,330.8 640,350.3 555.8,434.5 	"/>
</g>
<g>
	<polygon fill="#FFFFFF" stroke="#16B34C" stroke-miterlimit="10" points="737.2,382.7 665.9,311.4 665.9,324.4 724.2,382.7 	"/>
	<polygon fill="#FFFFFF" stroke="#16B34C" stroke-miterlimit="10" points="542.8,382.7 614.1,311.4 614.1,324.4 555.8,382.7 	"/>
</g>
</svg>
