<?xml version="1.0" encoding="utf-8"?>
<!-- Generator: Adobe Illustrator 17.1.0, SVG Export Plug-In . SVG Version: 6.00 Build 0)  -->
<!DOCTYPE svg PUBLIC "-//W3C//DTD SVG 1.1//EN" "http://www.w3.org/Graphics/SVG/1.1/DTD/svg11.dtd">
<svg version="1.1" id="Layer_1" xmlns="http://www.w3.org/2000/svg" xmlns:xlink="http://www.w3.org/1999/xlink" x="0px" y="0px"
	 viewBox="0 0 1000 1000" enable-background="new 0 0 1000 1000" xml:space="preserve">
<g>
	<polygon fill="#FFFFFF" stroke="#50B422" stroke-miterlimit="10" points="454.823,461.361 546.323,461.361 500.573,540.454 	"/>
	<rect x="292.84" y="453.96" fill="#FFFFFF" stroke="#50B422" stroke-miterlimit="10" width="9.526" height="93.894"/>
	<rect x="311.891" y="453.96" fill="#FFFFFF" stroke="#50B422" stroke-miterlimit="10" width="9.526" height="93.894"/>
	<rect x="697.634" y="453.96" fill="#FFFFFF" stroke="#50B422" stroke-miterlimit="10" width="9.526" height="93.894"/>
	<rect x="678.583" y="453.96" fill="#FFFFFF" stroke="#50B422" stroke-miterlimit="10" width="9.526" height="93.894"/>
	<g>
		<rect x="283.315" y="379.57" fill="#FFFFFF" stroke="#50B422" stroke-miterlimit="10" width="9.526" height="168.284"/>
		<rect x="302.366" y="379.57" fill="#FFFFFF" stroke="#50B422" stroke-miterlimit="10" width="9.526" height="168.284"/>
		<rect x="321.417" y="379.57" fill="#FFFFFF" stroke="#50B422" stroke-miterlimit="10" width="9.526" height="168.284"/>
		<rect x="707.16" y="379.57" fill="#FFFFFF" stroke="#50B422" stroke-miterlimit="10" width="9.526" height="168.284"/>
		<rect x="688.109" y="379.57" fill="#FFFFFF" stroke="#50B422" stroke-miterlimit="10" width="9.526" height="168.284"/>
		<rect x="669.058" y="379.57" fill="#FFFFFF" stroke="#50B422" stroke-miterlimit="10" width="9.526" height="168.284"/>
	</g>
	<g>
		<polygon fill="#FFFFFF" stroke="#50B422" stroke-miterlimit="10" points="330.942,427.651 397.621,547.854 330.942,547.854 		"/>
		<polygon fill="#FFFFFF" stroke="#50B422" stroke-miterlimit="10" points="669.058,427.651 602.379,547.854 669.058,547.854 		"/>
	</g>
	<g>
		<polygon fill="#FFFFFF" stroke="#50B422" stroke-miterlimit="10" points="283.315,453.96 229.791,547.854 283.315,547.854 		"/>
		<polygon fill="#FFFFFF" stroke="#50B422" stroke-miterlimit="10" points="716.685,453.96 770.209,547.854 716.685,547.854 		"/>
	</g>
	<g>
		<polygon fill="#FFFFFF" stroke="#50B422" stroke-miterlimit="10" points="258.367,547.854 330.942,620.43 330.942,547.854 		"/>
		<polygon fill="#FFFFFF" stroke="#50B422" stroke-miterlimit="10" points="741.633,547.854 669.058,620.43 669.058,547.854 		"/>
	</g>
	<g>
		<polyline fill="#FFFFFF" stroke="#50B422" stroke-miterlimit="10" points="330.942,588.678 492.876,588.678 492.876,547.854 
			371.766,547.854 		"/>
		<polygon fill="#FFFFFF" stroke="#50B422" stroke-miterlimit="10" points="330.942,427.651 487.433,427.651 487.433,445.342 
			340.755,445.342 		"/>
		<polyline fill="#FFFFFF" stroke="#50B422" stroke-miterlimit="10" points="669.058,588.678 507.124,588.678 507.124,547.854 
			628.234,547.854 		"/>
		<polygon fill="#FFFFFF" stroke="#50B422" stroke-miterlimit="10" points="669.058,427.651 512.567,427.651 512.567,445.342 
			659.245,445.342 		"/>
	</g>
	<g>
		<polygon fill="#FFFFFF" stroke="#50B422" stroke-miterlimit="10" points="371.766,445.342 371.766,500.907 340.755,445.342 		"/>
		<polygon fill="#FFFFFF" stroke="#50B422" stroke-miterlimit="10" points="628.234,445.342 628.234,500.907 659.245,445.342 		"/>
	</g>
	<g>
		<polygon fill="#FFFFFF" stroke="#50B422" stroke-miterlimit="10" points="371.766,445.342 371.766,500.907 386.187,527.243 
			386.187,445.342 		"/>
		<polygon fill="#FFFFFF" stroke="#50B422" stroke-miterlimit="10" points="628.234,445.342 628.234,500.907 613.813,527.243 
			613.813,445.342 		"/>
	</g>
	<g>
		<polygon fill="#FFFFFF" stroke="#50B422" stroke-miterlimit="10" points="330.942,588.678 371.766,547.854 330.942,547.854 		"/>
		<polygon fill="#FFFFFF" stroke="#50B422" stroke-miterlimit="10" points="330.942,612.265 354.529,588.678 330.942,588.678 		"/>
		<polygon fill="#FFFFFF" stroke="#50B422" stroke-miterlimit="10" points="669.058,588.678 628.234,547.854 669.058,547.854 		"/>
		<polygon fill="#FFFFFF" stroke="#50B422" stroke-miterlimit="10" points="669.058,612.265 645.471,588.678 669.058,588.678 		"/>
	</g>
	<polygon fill="#FFFFFF" stroke="#50B422" stroke-miterlimit="10" points="471.073,471.18 530.073,471.18 500.573,522.18 	"/>
</g>
</svg>
