<?xml version="1.0" encoding="utf-8"?>
<!-- Generator: Adobe Illustrator 17.1.0, SVG Export Plug-In . SVG Version: 6.00 Build 0)  -->
<!DOCTYPE svg PUBLIC "-//W3C//DTD SVG 1.1//EN" "http://www.w3.org/Graphics/SVG/1.1/DTD/svg11.dtd">
<svg version="1.1" id="Layer_1" xmlns="http://www.w3.org/2000/svg" xmlns:xlink="http://www.w3.org/1999/xlink" x="0px" y="0px"
	 viewBox="0 0 1000 1000" enable-background="new 0 0 1000 1000" xml:space="preserve">
<path fill="#00AEEF" d="M126.02,344.648"/>
<path fill="#55DBFF" d="M478.008,662.013c-98.954,0-179.458-80.505-179.458-179.458c0-79.714,64.853-144.567,144.567-144.567
	c64.323,0,116.653,52.331,116.653,116.654c0,33.414-17.466,62.827-43.746,79.587c32.894-6.711,64.038-21.129,90.417-42.2
	c18.08-14.441,33.613-31.604,46.167-51.014c6.447-9.968,12.091-20.541,16.774-31.425c0.511-1.187,1.163-3.716,1.853-6.393
	c2.785-10.799,6.582-25.594,17.707-24.343c12.662,1.42,13.047,24.055,12.267,51.26c-0.106,3.712-0.198,6.918-0.131,8.63
	c0.003,0.065,0.004,0.13,0.004,0.196c0,59.585-23.204,115.604-65.337,157.736C593.611,638.809,537.592,662.013,478.008,662.013z"/>
<path fill="#00AEEF" d="M596.236,408.727"/>
<path fill="none" stroke="#00B3EA" stroke-width="10" stroke-linecap="round" stroke-linejoin="round" stroke-miterlimit="10" d="
	M393.988,362.466"/>
<path fill="#00B3EA" d="M478.008,662.013c-98.954,0-179.458-80.505-179.458-179.458c0-79.714,64.853-144.567,144.567-144.567
	c64.323,0,116.653,52.331,116.653,116.654c0,33.414-17.466,62.827-43.746,79.587c32.894-6.711,64.038-21.129,90.417-42.2
	c18.08-14.441,33.613-31.604,46.167-51.014c6.447-9.968,12.091-20.541,16.774-31.425c0.511-1.187,1.163-3.716,1.853-6.393
	c2.785-10.799,6.582-25.594,17.707-24.343c12.662,1.42,13.047,24.055,12.267,51.26c-0.106,3.712-0.198,6.918-0.131,8.63
	c0.003,0.065,0.004,0.13,0.004,0.196c0,59.585-23.204,115.604-65.337,157.736C593.611,638.809,537.592,662.013,478.008,662.013z
	 M443.116,347.987c-74.2,0-134.567,60.366-134.567,134.567c0,93.44,76.019,169.458,169.458,169.458
	c117.46,0,213.026-95.53,213.073-212.98c-0.073-2.054,0.018-5.217,0.132-9.206c0.21-7.331,0.498-17.372-0.121-26.001
	c-0.813-11.347-2.823-14.348-3.388-14.979c-0.372,0.213-1.551,1.158-3.104,4.848c-1.514,3.591-2.665,8.058-3.682,11.999
	c-0.823,3.194-1.535,5.953-2.351,7.849c-4.904,11.397-10.813,22.467-17.563,32.903c-13.141,20.316-29.398,38.281-48.323,53.396
	c-39.038,31.182-88.039,48.45-138.092,48.683c-3.008,0.291-6.06,0.439-9.142,0.439c-42.159,0-76.458-34.299-76.458-76.458
	c0-2.761,2.239-5,5-5s5,2.239,5,5c0,36.646,29.813,66.458,66.458,66.458c2.305,0,4.591-0.093,6.849-0.275
	c0.562-0.147,1.168-0.161,1.774-0.162c42.459-4.334,75.699-40.301,75.699-83.885C549.769,395.832,501.924,347.987,443.116,347.987z"
	/>
</svg>
