<?xml version="1.0" encoding="utf-8"?>
<!-- Generator: Adobe Illustrator 17.1.0, SVG Export Plug-In . SVG Version: 6.00 Build 0)  -->
<!DOCTYPE svg PUBLIC "-//W3C//DTD SVG 1.1//EN" "http://www.w3.org/Graphics/SVG/1.1/DTD/svg11.dtd">
<svg version="1.1" id="Layer_1" xmlns="http://www.w3.org/2000/svg" xmlns:xlink="http://www.w3.org/1999/xlink" x="0px" y="0px"
	 viewBox="0 0 1000 1000" enable-background="new 0 0 1000 1000" xml:space="preserve">
<path fill="#00AEEF" d="M126.02,344.648"/>
<circle fill="#FFFFFF" cx="500" cy="500" r="163.176"/>
<circle fill="#FFFFFF" cx="500" cy="500" r="116.176"/>
<g>
	<path d="M500,668.176c-92.733,0-168.176-75.443-168.176-168.176S407.267,331.824,500,331.824S668.176,407.267,668.176,500
		S592.732,668.176,500,668.176z M500,341.824c-87.218,0-158.176,70.957-158.176,158.176S412.782,658.176,500,658.176
		c87.219,0,158.176-70.957,158.176-158.176S587.219,341.824,500,341.824z"/>
	<path d="M500,621.176c-66.817,0-121.176-54.359-121.176-121.176S433.183,378.824,500,378.824S621.176,433.183,621.176,500
		S566.816,621.176,500,621.176z M500,388.824c-61.303,0-111.176,49.873-111.176,111.176S438.697,611.176,500,611.176
		S611.176,561.303,611.176,500S561.303,388.824,500,388.824z"/>
</g>
</svg>
