<?xml version="1.0" encoding="utf-8"?>
<!-- Generator: Adobe Illustrator 17.1.0, SVG Export Plug-In . SVG Version: 6.00 Build 0)  -->
<!DOCTYPE svg PUBLIC "-//W3C//DTD SVG 1.1//EN" "http://www.w3.org/Graphics/SVG/1.1/DTD/svg11.dtd">
<svg version="1.1" id="Layer_1" xmlns="http://www.w3.org/2000/svg" xmlns:xlink="http://www.w3.org/1999/xlink" x="0px" y="0px"
	 viewBox="0 0 1000 1000" enable-background="new 0 0 1000 1000" xml:space="preserve">
<g>
	<path fill="#00C2FF" d="M417.981,551.935c-1.453-22.386-10.954-43.419-26.876-59.342c-3.651-3.652-7.631-7.018-11.828-10.004
		c-14.898-10.601-32.447-16.496-50.788-17.046l-2.747-0.042c-0.641-0.012-1.289-0.017-1.927-0.017
		c-59.892,0-108.617,49.577-108.617,110.517c0,60.93,49.57,110.5,110.5,110.5h10c17.658,0,34.826-4.993,49.649-14.44
		c14.402-9.179,25.976-22.12,33.472-37.427l6.776-11.743c0.447-0.773,0.447-1.727,0-2.5c-0.446-0.773-1.272-1.25-2.165-1.25h-28.383
		c14.969-16.913,23.147-38.436,23.147-61.216c0-1.076-0.026-2.157-0.063-3.234c-0.018-0.504-0.033-1.009-0.058-1.511
		C418.052,552.763,418.008,552.35,417.981,551.935z"/>
	<path fill="#00C2FF" d="M587.516,619.065C572.632,602.174,564.5,580.706,564.5,558c0-1.597,0.042-3.22,0.124-4.824
		c1.156-22.88,10.735-44.424,26.973-60.66c3.107-3.108,6.453-6.009,9.969-8.646l-0.704-1.188L491.349,293L381.85,482.657
		l-0.718,1.212c3.514,2.636,6.86,5.538,9.969,8.646c15.942,15.942,25.445,37.003,26.88,59.419c0.027,0.415,0.071,0.827,0.093,1.243
		c0.025,0.501,0.04,1.007,0.057,1.512c0.039,1.106,0.066,2.214,0.066,3.31c0.001,22.705-8.131,44.173-23.014,61.064h26.848
		l67.153-116.313c0.447-0.773,1.272-1.25,2.165-1.25s1.719,0.477,2.165,1.25l67.153,116.314H587.516z"/>
	<path fill="#00C2FF" d="M658.883,465.483c-0.642,0-1.282,0.005-1.92,0.017l-2.791,0.042c-18.306,0.55-35.854,6.444-50.751,17.046
		c-4.196,2.985-8.176,6.352-11.828,10.004c-16.217,16.217-25.795,37.733-26.969,60.586c-0.08,1.584-0.12,3.181-0.12,4.744
		c0,22.78,8.179,44.304,23.148,61.216h-28.385c-0.894,0-1.719,0.477-2.165,1.25s-0.446,1.727,0,2.5l6.776,11.743
		c7.496,15.307,19.069,28.249,33.472,37.428c14.823,9.447,31.991,14.44,49.649,14.44h10c60.93,0,110.5-49.57,110.5-110.5
		C767.5,515.061,718.774,465.483,658.883,465.483z"/>
</g>
<path fill="#00AEEF" d="M655.227,344.648"/>
<path fill="#00AEEF" d="M327.471,344.648"/>
<path fill="#00AEEF" d="M658.883,465.483c-0.642,0-1.282,0.005-1.92,0.017l-2.791,0.042c-17.384,0.522-34.081,5.873-48.477,15.489
	l-0.518-0.874L493.514,286.75c-0.446-0.773-1.271-1.25-2.165-1.25c0,0,0,0,0,0c-0.893,0-1.718,0.476-2.165,1.25l-111.65,193.383
	l-0.533,0.899c-14.397-9.615-31.095-14.966-48.512-15.489l-2.747-0.042c-0.641-0.012-1.289-0.017-1.927-0.017
	c-59.892,0-108.617,49.577-108.617,110.517c0,60.93,49.57,110.5,110.5,110.5h10c17.658,0,34.826-4.993,49.649-14.44
	c14.402-9.179,25.976-22.12,33.472-37.427l6.775-11.741l0.038-0.065c0.001-0.002,0.002-0.005,0.003-0.007
	c0.001-0.002,0.003-0.003,0.004-0.005l65.71-113.813l65.709,113.814c0.001,0.002,0.003,0.004,0.005,0.006
	c0.001,0.001,0.001,0.003,0.002,0.005l0.044,0.075c0.001,0.001,0.001,0.002,0.002,0.002l6.768,11.728
	c7.496,15.307,19.069,28.249,33.472,37.428c14.823,9.447,31.991,14.44,49.649,14.44h10c60.93,0,110.5-49.57,110.5-110.5
	C767.5,515.061,718.774,465.483,658.883,465.483z M414.445,632.208c-0.029,0.05-0.056,0.101-0.081,0.151
	c-14.809,30.312-44.952,49.141-78.667,49.141h-10c-58.173,0-105.5-47.327-105.5-105.5c0-58.183,46.482-105.517,103.617-105.517
	c0.609,0,1.227,0.005,1.845,0.016l2.716,0.042c17.313,0.52,33.912,6.095,48.002,16.122c3.971,2.826,7.736,6.01,11.191,9.465
	c15.049,15.049,24.033,34.924,25.419,56.076c0.027,0.41,0.07,0.818,0.091,1.229c0.025,0.487,0.039,0.976,0.057,1.465
	c0.034,1.007,0.058,2.018,0.058,3.025c0,23.372-9.102,45.346-25.628,61.873c-0.359,0.358-0.581,0.809-0.665,1.285
	c-0.112,0.491-0.076,1.017,0.123,1.503c0.384,0.94,1.298,1.555,2.314,1.555H419.1L414.445,632.208z M491.349,501.501
	c-0.893,0-1.718,0.477-2.165,1.25l-67.153,116.313h-26.848c14.883-16.892,23.015-38.359,23.014-61.064
	c0-1.097-0.027-2.204-0.066-3.31c-0.017-0.505-0.032-1.011-0.057-1.512c-0.021-0.416-0.066-0.828-0.093-1.243
	c-1.435-22.417-10.938-43.477-26.88-59.419c-3.109-3.109-6.455-6.01-9.969-8.646l0.718-1.212L491.349,293l109.513,189.683
	l0.704,1.188c-3.516,2.637-6.861,5.538-9.969,8.646c-16.237,16.236-25.816,37.78-26.973,60.66c-0.082,1.604-0.124,3.228-0.124,4.824
	c0,22.706,8.132,44.174,23.016,61.065h-26.849l-67.153-116.314C493.068,501.978,492.242,501.501,491.349,501.501z M657,681.5h-10
	c-33.715,0-63.857-18.83-78.667-49.142c-0.025-0.051-0.052-0.102-0.08-0.151l-4.654-8.068h29.762c1.028,0,1.968-0.617,2.343-1.575
	c0.181-0.462,0.22-0.952,0.127-1.414c-0.084-0.502-0.322-0.979-0.698-1.354c-16.526-16.526-25.628-38.5-25.628-61.872
	c0-1.48,0.038-2.991,0.114-4.49c1.11-21.612,10.17-41.964,25.51-57.305c3.457-3.457,7.222-6.641,11.191-9.466
	c14.089-10.027,30.688-15.602,47.965-16.121l2.76-0.041c0.615-0.011,1.227-0.016,1.839-0.016
	c57.135,0,103.617,47.334,103.617,105.517C762.5,634.173,715.173,681.5,657,681.5z"/>
</svg>
