<?xml version="1.0" encoding="utf-8"?>
<!-- Generator: Adobe Illustrator 17.1.0, SVG Export Plug-In . SVG Version: 6.00 Build 0)  -->
<!DOCTYPE svg PUBLIC "-//W3C//DTD SVG 1.1//EN" "http://www.w3.org/Graphics/SVG/1.1/DTD/svg11.dtd">
<svg version="1.1" id="Layer_1" xmlns="http://www.w3.org/2000/svg" xmlns:xlink="http://www.w3.org/1999/xlink" x="0px" y="0px"
	 viewBox="142 225.8 500 500" enable-background="new 142 225.8 500 500" xml:space="preserve">
<rect x="335.9" y="472.6" fill="#FFFFFF" stroke="#16B34C" stroke-miterlimit="10" width="7.5" height="134.5"/>
<polygon fill="#FFFFFF" stroke="#16B34C" stroke-miterlimit="10" points="508.2,599.7 508.2,629.6 455.9,577.3 455.9,562.3 
	500.7,607.2 500.7,592.2 "/>
<polygon fill="#FFFFFF" stroke="#16B34C" stroke-miterlimit="10" points="455.9,539.9 455.9,607.2 478.3,629.6 478.3,644.5 
	448.4,614.6 448.4,539.9 "/>
<polygon fill="#FFFFFF" stroke="#16B34C" stroke-miterlimit="10" points="463.4,584.7 463.4,607.2 500.7,644.5 500.7,652 
	455.9,607.2 455.9,577.3 "/>
<polygon fill="#FFFFFF" stroke="#16B34C" stroke-miterlimit="10" points="463.4,584.7 463.4,599.7 515.7,652 515.7,637 "/>
<polygon fill="#FFFFFF" stroke="#16B34C" stroke-miterlimit="10" points="283.5,615.6 291,623.1 291,416.8 283.5,416.8 "/>
<polygon fill="#FFFFFF" stroke="#16B34C" stroke-miterlimit="10" points="380.6,502.5 380.6,577.2 388.1,577.2 388.1,510 "/>
<polygon fill="#FFFFFF" stroke="#16B34C" stroke-miterlimit="10" points="365.7,487.6 380.6,502.5 380.6,577.2 365.7,577.2 "/>
<rect x="328.4" y="442.8" fill="#FFFFFF" stroke="#16B34C" stroke-miterlimit="10" width="7.5" height="119.5"/>
<polygon fill="#FFFFFF" stroke="#16B34C" stroke-miterlimit="10" points="365.7,622 410.5,622 418,614.6 335.8,614.6 335.8,622 "/>
<rect x="365.7" y="577.2" fill="#FFFFFF" stroke="#16B34C" stroke-miterlimit="10" width="37.4" height="7.5"/>
<rect x="388.1" y="562.3" fill="#FFFFFF" stroke="#16B34C" stroke-miterlimit="10" width="7.5" height="14.9"/>
<rect x="335.8" y="607.1" fill="#FFFFFF" stroke="#16B34C" stroke-miterlimit="10" width="104.6" height="7.5"/>
<rect x="365.7" y="592.2" fill="#FFFFFF" stroke="#16B34C" stroke-miterlimit="10" width="67.2" height="7.5"/>
<rect x="440.4" y="472.6" fill="#FFFFFF" stroke="#16B34C" stroke-miterlimit="10" width="7.5" height="149.4"/>
<rect x="365.7" y="584.7" fill="#FFFFFF" stroke="#16B34C" stroke-miterlimit="10" width="37.4" height="7.5"/>
<polygon fill="#FFFFFF" stroke="#16B34C" stroke-miterlimit="10" points="418,599.6 410.5,607.1 358.2,607.1 358.2,599.6 "/>
<rect x="320.6" y="416.8" fill="#FFFFFF" stroke="#16B34C" stroke-miterlimit="10" width="7.8" height="243.3"/>
<polygon fill="#FFFFFF" stroke="#16B34C" stroke-miterlimit="10" points="320.6,592.2 290.7,562.3 290.7,457.7 320.6,487.6 "/>
<rect x="440.7" y="324" fill="#FFFFFF" stroke="#16B34C" stroke-miterlimit="10" width="7.5" height="134.5"/>
<polygon fill="#FFFFFF" stroke="#16B34C" stroke-miterlimit="10" points="275.9,331.4 275.9,301.5 328.2,353.8 328.2,368.8 
	283.4,323.9 283.4,338.9 "/>
<polygon fill="#FFFFFF" stroke="#16B34C" stroke-miterlimit="10" points="328.2,391.2 328.2,323.9 305.8,301.5 305.8,286.6 
	335.7,316.5 335.7,391.2 "/>
<polygon fill="#FFFFFF" stroke="#16B34C" stroke-miterlimit="10" points="320.7,346.4 320.7,323.9 283.4,286.6 283.4,279.1 
	328.2,323.9 328.2,353.8 "/>
<polygon fill="#FFFFFF" stroke="#16B34C" stroke-miterlimit="10" points="320.7,346.4 320.7,331.4 268.4,279.1 268.4,294.1 "/>
<polygon fill="#FFFFFF" stroke="#16B34C" stroke-miterlimit="10" points="500.5,315.5 493,308 493,514.3 500.5,514.3 "/>
<polygon fill="#FFFFFF" stroke="#16B34C" stroke-miterlimit="10" points="403.4,428.6 403.4,353.9 395.9,353.9 395.9,421.1 "/>
<polygon fill="#FFFFFF" stroke="#16B34C" stroke-miterlimit="10" points="418.3,443.5 403.4,428.6 403.4,353.9 418.3,353.9 "/>
<rect x="448.2" y="368.8" fill="#FFFFFF" stroke="#16B34C" stroke-miterlimit="10" width="7.5" height="119.5"/>
<polygon fill="#FFFFFF" stroke="#16B34C" stroke-miterlimit="10" points="418.3,309.1 373.5,309.1 366,316.5 448.2,316.5 
	448.2,309.1 "/>
<rect x="380.9" y="346.4" fill="#FFFFFF" stroke="#16B34C" stroke-miterlimit="10" width="37.4" height="7.5"/>
<rect x="388.4" y="353.9" fill="#FFFFFF" stroke="#16B34C" stroke-miterlimit="10" width="7.5" height="14.9"/>
<rect x="343.6" y="316.5" fill="#FFFFFF" stroke="#16B34C" stroke-miterlimit="10" width="104.6" height="7.5"/>
<rect x="351.1" y="331.4" fill="#FFFFFF" stroke="#16B34C" stroke-miterlimit="10" width="67.2" height="7.5"/>
<rect x="336.1" y="309.1" fill="#FFFFFF" stroke="#16B34C" stroke-miterlimit="10" width="7.5" height="149.4"/>
<rect x="380.9" y="338.9" fill="#FFFFFF" stroke="#16B34C" stroke-miterlimit="10" width="37.4" height="7.5"/>
<polygon fill="#FFFFFF" stroke="#16B34C" stroke-miterlimit="10" points="366,331.5 373.5,324 425.8,324 425.8,331.5 "/>
<rect x="455.7" y="271" fill="#FFFFFF" stroke="#16B34C" stroke-miterlimit="10" width="7.8" height="243.3"/>
<polygon fill="#FFFFFF" stroke="#16B34C" stroke-miterlimit="10" points="463.4,338.9 493.3,368.8 493.3,473.5 463.4,443.6 "/>
</svg>
