<?xml version="1.0" encoding="utf-8"?>
<!-- Generator: Adobe Illustrator 17.1.0, SVG Export Plug-In . SVG Version: 6.00 Build 0)  -->
<!DOCTYPE svg PUBLIC "-//W3C//DTD SVG 1.1//EN" "http://www.w3.org/Graphics/SVG/1.1/DTD/svg11.dtd">
<svg version="1.1" id="Layer_1" xmlns="http://www.w3.org/2000/svg" xmlns:xlink="http://www.w3.org/1999/xlink" x="0px" y="0px"
	 viewBox="0 0 1000 1000" enable-background="new 0 0 1000 1000" xml:space="preserve">
<polygon fill="#231F20" points="138,224.4 336.9,568.9 535.8,224.4 "/>
<polygon fill="#414042" points="217.5,293.3 376.7,568.9 535.8,293.3 "/>
<polygon fill="#58595B" points="281.2,348.4 408.5,568.9 535.8,348.4 "/>
<polygon fill="#6D6E71" points="332.1,392.5 434,568.9 535.8,392.5 "/>
<polygon fill="#808285" points="372.8,427.8 454.3,568.9 535.8,427.8 "/>
<polygon fill="#231F20" points="464.2,775.6 663.1,431.1 862,775.6 "/>
<polygon fill="#414042" points="464.2,706.7 623.3,431.1 782.5,706.7 "/>
<polygon fill="#58595B" points="464.2,651.6 591.5,431.1 718.8,651.6 "/>
<polygon fill="#6D6E71" points="464.2,607.5 566,431.1 667.9,607.5 "/>
<polygon fill="#808285" points="464.2,572.2 545.7,431.1 627.2,572.2 "/>
</svg>
