<?xml version="1.0" encoding="utf-8"?>
<!-- Generator: Adobe Illustrator 17.1.0, SVG Export Plug-In . SVG Version: 6.00 Build 0)  -->
<!DOCTYPE svg PUBLIC "-//W3C//DTD SVG 1.1//EN" "http://www.w3.org/Graphics/SVG/1.1/DTD/svg11.dtd">
<svg version="1.1" id="Layer_1" xmlns="http://www.w3.org/2000/svg" xmlns:xlink="http://www.w3.org/1999/xlink" x="0px" y="0px"
	 viewBox="0 0 1000 1000" enable-background="new 0 0 1000 1000" xml:space="preserve">
<polygon fill="#494949" points="200,437.5 300,637.5 500,637.5 400,437.5 "/>
<polygon fill="#494949" points="200,37.5 300,237.5 500,237.5 400,37.5 "/>
<polygon fill="#494949" points="500,337.5 400,537.5 200,537.5 300,337.5 "/>
<polygon fill="#8C8C8C" points="375,87.5 475,287.5 675,287.5 575,87.5 "/>
<polygon fill="#8C8C8C" points="675,287.5 575,487.5 375,487.5 475,287.5 "/>
<polygon fill="#494949" points="500,737.5 400,937.5 200,937.5 300,737.5 "/>
<polygon fill="#8C8C8C" points="375,487.5 475,687.5 675,687.5 575,487.5 "/>
<polygon fill="#8C8C8C" points="675,687.5 575,887.5 375,887.5 475,687.5 "/>
<rect x="100" y="675" fill="#494949" width="700" height="25"/>
<rect x="100" y="475" fill="#494949" width="512.5" height="25"/>
<rect x="100" y="275" fill="#494949" width="700" height="25"/>
</svg>
