<?xml version="1.0" encoding="utf-8"?>
<!-- Generator: Adobe Illustrator 17.1.0, SVG Export Plug-In . SVG Version: 6.00 Build 0)  -->
<!DOCTYPE svg PUBLIC "-//W3C//DTD SVG 1.1//EN" "http://www.w3.org/Graphics/SVG/1.1/DTD/svg11.dtd">
<svg version="1.1" id="Layer_1" xmlns="http://www.w3.org/2000/svg" xmlns:xlink="http://www.w3.org/1999/xlink" x="0px" y="0px"
	 viewBox="0 0 1000 1000" enable-background="new 0 0 1000 1000" xml:space="preserve">
<polygon fill="#231F20" points="100,200 200,400 500,400 400,200 "/>
<polygon fill="#6D6D6D" points="218.8,100 318.8,300 412.5,300 312.5,100 "/>
<polygon fill="#231F20" points="100,412.5 200,612.5 500,612.5 400,412.5 "/>
<polygon fill="#231F20" points="475,512.5 487.5,537.5 787.5,537.5 775,512.5 "/>
<polygon fill="#231F20" points="475,287.5 487.5,312.5 787.5,312.5 775,287.5 "/>
<polygon fill="#231F20" points="475,725 487.5,750 787.5,750 775,725 "/>
<polygon fill="#494949" points="312.5,200 350,275 762.5,275 725,200 "/>
<polygon fill="#231F20" points="100,625 200,825 500,825 400,625 "/>
<polygon fill="#6D6D6D" points="218.8,312.5 318.8,512.5 412.5,512.5 312.5,312.5 "/>
<polygon fill="#6D6D6D" points="218.8,525 318.8,725 412.5,725 312.5,525 "/>
<polygon fill="#494949" points="312.5,412.5 350,487.5 762.5,487.5 725,412.5 "/>
<polygon fill="#494949" points="312.5,625 350,700 762.5,700 725,625 "/>
</svg>
