<?xml version="1.0" encoding="utf-8"?>
<!-- Generator: Adobe Illustrator 17.1.0, SVG Export Plug-In . SVG Version: 6.00 Build 0)  -->
<!DOCTYPE svg PUBLIC "-//W3C//DTD SVG 1.1//EN" "http://www.w3.org/Graphics/SVG/1.1/DTD/svg11.dtd">
<svg version="1.1" id="Layer_1" xmlns="http://www.w3.org/2000/svg" xmlns:xlink="http://www.w3.org/1999/xlink" x="0px" y="0px"
	 viewBox="0 0 1000 1000" enable-background="new 0 0 1000 1000" xml:space="preserve">
<polygon fill="#494949" points="100,100 400,400 400,800 100,500 "/>
<polygon fill="#3D3D3D" points="100,400 100,500 800,500 900,400 "/>
<polygon fill="#3D3D3D" points="100,500 100,600 800,600 900,500 "/>
<polygon fill="#3D3D3D" points="100,600 100,700 800,700 900,600 "/>
<polygon fill="#494949" points="300,100 600,400 600,800 300,500 "/>
<polygon fill="#494949" points="500,100 800,400 800,800 500,500 "/>
<polygon fill="#A8A8A8" points="600,100 668.8,168.8 668.8,968.8 600,900 "/>
<polygon fill="#A8A8A8" points="393.8,100 462.5,168.8 462.5,968.8 393.8,900 "/>
<polygon fill="#A8A8A8" points="200,100 268.8,168.8 268.8,968.8 200,900 "/>
</svg>
