<?xml version="1.0" encoding="utf-8"?>
<!-- Generator: Adobe Illustrator 17.1.0, SVG Export Plug-In . SVG Version: 6.00 Build 0)  -->
<!DOCTYPE svg PUBLIC "-//W3C//DTD SVG 1.1//EN" "http://www.w3.org/Graphics/SVG/1.1/DTD/svg11.dtd">
<svg version="1.1" id="Layer_1" xmlns="http://www.w3.org/2000/svg" xmlns:xlink="http://www.w3.org/1999/xlink" x="0px" y="0px"
	 viewBox="0 0 612 792" enable-background="new 0 0 612 792" xml:space="preserve">
<path fill="#FFFFFF" stroke="#EC008C" stroke-miterlimit="10" d="M54.8,388.5l12.8-3.4l7.9,7.8l-7.9,9.8L54.8,388.5z M72,366.8
	 M79.7,359.6l2.1,2.3l-6.4,6.7l-3.4-1.8 M74.8,368.3l-5.3,16.8h-2l1.5-12.6l1.5-5.7H72l6-10.8l1.7,3.6l5.3-2.8l1.7-1.9l3.2-1.1v-1.5
	l23.6-6l-2.6,6l7.7-2.6l2.4,5.7l-7.2,5.5l1.7,8.3l14.7-8.5l3,17.4l-1.3,1.5l1.3,12.1l-1.7,17.2l-2.6,8.1l7.5-3.6v-3l2.1-1.5
	l5.3-21.7l3.6,1.5l2.8-5.1l-2.1-15.3l12.3-10v3.6l3.4-2.4l-3-8.3l4.3-2.1l2.6,6.4l1.4-0.2l2.9,4.5v-2.3l2.1-0.4l-0.6-5.9l2.1-0.9
	l1.1-4l3.2-1.3l0.8,1.1l2.1-1.1l1.5,2.6l1.5-0.6v5.5l8.1-2.6l-1.3,4.2l7.2-2.1v1.9l11.1-2.7l-1.9,2.6l6.2-0.9l-1.3,3l5.7-0.8
	l1.7,7.4l-1.5,1.3l0.2,4.2l18-4v2.3l16.4-3.6l-3.2,7.4l10-2.1v2.6l8.7-1.9l-5.1,9.6l0.6,2.9l-0.8,2.2h4.5l-2.1,4.3l4.9-0.6l-5.7,5.9
	l-0.6,16.2l1.9-3.4l7.7,8.1l-3.4-9.4l13.8-15.9l7.2,1.1l-3.4,4.3l1.3,2.9l-1.7,2.6l3.8,11.9l1.9-2.1l3-11.5l6.8,6.2l1.9,12.1
	l-2.6,0.2l2.6,12.8l-1.7,1.9l0.6,7.2l-2.1,1.9l-4.2-2.4v6.6l-1.9-2.3v9.8l-7.4,3L288,452l-4.3,2.6l-1.5-3.4l-18.1,31l-3-4.2l-4,1.1
	l-1.5-8.7l-2.6-1.3l-5.5-14.2l-0.6-5.5l-1.5-2.1h-2.1l-0.2,3.2l-2.8-1.5l-2.1,2.6l-8.1-11.1l-1.1,0.4l-2.6-3.2l-4,12.3l4.7-3.6
	l-2.1,8.5l2.4,3.6l8.7-5.3l-0.4,3.2l6.4,4.7l-1.3,3.8l3.4,1.1l-0.6,2.8l-10.2,15.1l-12.1-7l-1.5-7l-4.9-3.4l-1.1,6l-3.2-3.6
	l-0.4,2.7l-2.8-1.9l-1.3-7.7l-6.2-0.2l-2.1-8.3l-3.8-2.1l1.7-9.6l-3-3.6l-2.6,2.1l-3.4-3.6l-1.9,1.7l-3-1.5l-0.9-14.5l0.9-2.7
	l-2.8-3l0.6-6.2l-3.6-4.7l-4.2,6l-2.1-3.6v-1.9l-3-3.4l-4,4l1.5,7.7l-4.7,8.3l-0.4,5.1l-5.1,8.7l-1.7-0.6l-5.3,12.1l-1.7-0.2l3.2,10
	l8-7l0.5-0.4l0.2,2.1l2.1-0.9l5.7-10.8v2.4l2.4-0.6v1.7l10-3.4l-2.3,11.7l-6.3,7.7l-2.9-3.2l0.4,3.2h-1.7l1.3,5.3l-3,2.1l0.8,8.3h-3
	l1.5,15.3l-6.8-7.4l-1.5,12.1l-2.5,5.3h-2.4l2.4-6.2l-7.9-14.7l1.5-11.5l-5.5-8.5l-2.3,8.7h-3.2l-4.5-5.1l-4,3l5.5,16.8l-3.8-3.2
	l-3-6.4l-9.1-5.5l-2.6-1.3l-3-11.1l-3.8,7.4l-3.8-2.6v9.8l-3.8-2.6l-1.5-11.7l-7.7-6.8l-4.7-4l-4.9-17.4l-5.1-2.5l-4.9-6.9
	l-4.3,10.4l-9.1,18.3l-4.2-7.4l0.9-2.3l-1.7-2.1l4.7-11.9l0.9-7.2l-7.5-6l-3.2-6.8l1.5-3.8l7.4-7.9v-2.1v-1.7 M74.2,370.2l6.3,9.6
	l-6.3,12 M81.8,361.9l17.2-6.4l-5.4,11.3l-10.5,6.4l-3.9,4.5 M69,372.5l2.4,6.4 M54.8,392.3l7.6,13.1l0.8,2.1l-4.2,3.2l-1.2,13.4
	l-5,13.9 M47.4,400.2l3,4.6l9.2,5.4l5.5,19.3l-7.4-5.4l-2.1-0.1 M50.4,404.8l-1.3,6 M64.6,399.5l-2.6,0.7l1.1,7.3l5.9-4l7.9-6.3
	l8.5,27.4l9.2-7.7l5.1,9.1l2.2,7.8l7.3,4.9l5.6-5.6l7.8-4.8l3.2,1.1v8.5l6.1-7.7l5.3-0.8l9.9-3.5l5.6,2.2l-0.4,7.7 M80.5,378.9
	l12-5.7l0.2-5.9l6.3,6.9l3-7.6l11.6-5.6 M85,356.8l-2,4.7l0.1,11.8 M89.9,353.9l23.6-7.5 M99,355.5l11.9-3.2 M108.7,353l-6.6,13.7
	l3.3-12.8 M118.6,349.8l-7.7,12.6l2.6,8.3l-9.2,5l2.6,3.2l-16.1,16.6l-8.9-3.3l-1.3-12.5 M133,392.3l-2.1-1.8l-23.5,16.1l-2-12.7
	l-9.2,13.9l-6.3-4l1.3,11l-3.2,2.4l-5.9-3.5l2.9-14.2l-2-1l-1.2-6.3l8.1-7.2l-0.8-2l8-3l1.9-5.9 M102,366.6l5.4,7.4 M92.7,381.8
	l2.5-11.8 M92.5,373.2 M91.8,382.1l0.7-8.9 M89.1,383.1l-7.3,7.5 M95.2,391l-5.3-5.9l0.9,10.5l1.9,10 M97.1,380.1l0.5,8.3l5.1,9.5
	l2-6.9l4.2,5.3 M106.8,378.9l3.1,25.9 M107.8,386.8l18.3-11l3.9-15 M126.1,375.9L130,391l-1.3,26.1l-0.3,1.1 M129.1,387.5l2.6-7.8
	 M123.1,377.7l3,16 M119.1,380.1l-1.9,5l2.8,12.8 M108,389l9.1-3.9 M105.4,393.9l-1.6-11.8 M113.5,370.7l1.9-1.3 M96.1,407.8
	l3.4,17.7 M76.9,397.1l-1.5-4.2l7.6,5.6l5-4 M67.5,402.7l6.8,23.3 M66,405.6l3.5,13.5 M79.5,428.4l6-3.9 M80.5,427.7l7.4,21.2
	l14.1-15.1 M89.9,450.7l9.7-11.1l3.4-2.2v9.7l2.8,16.7 M96.7,456.7l3.6-9.2l-0.7-8l-0.8-2.2 M101.7,434.2l1.3,3.1 M106.8,437
	l0.5,5.9l2.3,13.4l2.4,0.9l5.1-0.4 M109.4,438.7l2.6,17.9l3.3,11.9 M107.4,442.9l3.1,3.8 M96.1,443.5l3.9,1.3l3.2,3.5 M100.3,447.5
	l1.7,13.6l-4.1-7.4 M84.4,421.1l3.6-3.9 M84.4,402.5l6,5.3 M85,399.5l4.9-4.2 M98.5,387.5l4.2,10.4 M97.5,414.8l9.9-8.3 M91.2,414.8
	l3.5,2.1 M97.8,417.2l19.4-14.8 M103.8,412.7l-0.8,4l4.4,13.8l11.2-12.5l-1.9-17.8 M101.1,430.5h6.3 M103,416.7l14.2-11.9
	 M116.2,446.6l1.7,0.4l8-9 M123.9,421.1l-1.1,7.3l0.5,12.6 M126.5,419.5l-0.5,10 M129.3,406.5l2,2.6 M124.3,474.1l1.3-7.2l-8.4-10.2
	l-2.2-23.5l3.6-15.2l5.3,3.1l12.3-7.5l-10,11l5.8,5.7l1,10.6l15,26.9l0.6,12.1l1.4,12.2 M136.2,413.6l11.2-8l0.6-3.8l-9.7,7.3
	 M147.2,388.9l-4.3,16.7 M149.9,383.1l11.6-15.1l-1.3-5.8 M161.5,368l3.1-2.9l-1-5.3 M164.6,365l4.2-4.2l-1.4-5.1 M168.8,360.9
	l2.9-0.9l20.6-5.7 M173.8,357.2l11.7-4.7 M175.3,350.4l8.7-2.8 M180.4,346.2l1.9,2 M134.6,415.3l2.2,14.2 M147.4,405.6l2.6-1.7
	l-2.9,22.1 M153.6,422.5l5.6,5.4 M153.6,411.8l5.6,2.6l0.4,8.4 M148.6,386.5l3.8,4.6l9.6-3.5v6.9l0.9,12.3l3.2-9.7l-2.6-11.2
	 M148,401.8l4.3-10.7l2.8,6.4l4,16.9 M158.5,411.8l5.7,2.6 M151.5,494.9l2.5,0.9 M156,484.2l0.4-7.5l4.8,2.6 M160.9,475.8l-2.8-11.3
	l-0.8-12 M134.2,430l2,11.4l16.5-13.2l2-13.9l-4.7-10.5l5.1-6.5l6.8-3 M152.1,472l3.5,11.7l-7-4.5 M154,469.7l2.3,6.9 M148.5,457.8
	l-2.1,3.4 M141.7,437l3.6,10.7 M147.1,448l-3.5-12.4 M120.7,443.9v1.9l14,11.3l4.4-5.3 M158.2,464.9l-6.2,7l-15.8-30.6l-3.3-0.4
	l-8.4,15.7l-8-6.2 M120.7,445.9l-3.1,5.4 M124.6,456.7l2.5,9.1 M127.4,451.3l4.2,14.9 M129.6,463.9l1.1-0.9 M134.6,457.1l2.6,11.9
	 M136.8,454.5l2.8,5.8 M143.6,480.3l4.4-12.4l-2.9,1 M159.4,451.6l0.2,9.6l5.1-1.1 M165.1,443.1l0.9,13.8 M167.5,444.2l1.4,15.9
	 M157.9,461.2h1.7 M161.4,460.8l1.6,6.8 M159.9,370l5.3,13.6l-3.3,3.9 M219.7,368.1l-54.5,15.6l3.6,14.2l49.1-16.6l1.1-4.7l9.1-2.7
	l-1.1,9.1l11.5-10.3l6.6,12.1l20.1-3.6 M214.2,369.7l5.4-5.8 M212.9,370l-5.6-7.2l-1.3-4.7l2.6-4.3 M213.6,356l-7.5,2.2l-0.4-1.6
	l-45.3,14.3 M164.3,381.2l19.3-6.5l1.4-11.7 M179.7,376.1l-2.3,4.1 M187.4,362.3l-1.1,7.3l21-6.8 M184.3,369l2,0.6 M194.1,367.1
	l-2.5,9 M193.1,370.9l3.7,3.8 M195.4,373.3l2.2-7.3 M239.1,373.7l11.9-3.5 M237.8,366.4l-3.5,10.1 M260.2,407.1l-1.5-2.7 M261,403.8
	l0.6-9.7l4.2-1.2 M266.7,387.6l-12.5,3l-6.8,7.2l-1.3,0.5l-1.9,9.7l10.6-10.7l-0.6,8.2 M245.1,384.8l1.1,2.2 M247.2,386.5l-3,11.4
	l-18.2,5.3 M225.3,406.1l14.4-4.1l2.7-3.6 M239.7,402l2.3,7.5 M244.2,397.8l3-1.2l1.2,7.1 M247.3,397.8l14.2-3.7 M166,397.1l2.9,0.8
	 M169.8,406.1l1.2-9.1l-4.2,5.6 M171,397.1l2.3,4.5l18.4-5.6l2.5-6.7 M173.3,401.6l-1.4,10 M175.9,400.8l0.2,4.9 M179.8,410.4
	l0.8-11l3.7,10.1l-2.4,10.1 M188.4,413.1l-2.1-0.6l-2.1-3.8l2.6-4.3l4.8-1.7l1.4,1.1l2.9,18.7l-3.3,15.6l-5.8-33.7 M187.9,413.1
	l-3.6,12.5l0.6,12.6 M181,422.3l3.3,3.7 M186.8,436.5l-1-16.2 M222.5,449.9l-8.9,8.8l-0.7-1l3.6-9.8l-3.7-1.5l1.1-13.8l-5-3.1H206
	l-1.6-3.9l-3.7-23l2.8-12.5l-10.6,2.7l2.5,11.4l2.6,20.8l-2.4,16.5 M196,422.5l2,2.7l6.7,1.3 M187.1,405.7l6-1.9 M191.7,396l1.4,8.4
	 M193.8,408l1.7-3.3l5.4-2.5 M261,370.6l-3.2,11.9l-3.6,8.1 M242.4,389l-0.4,3.5l-16.9,8.2 M228,374.6l4.4,3.5 M227.8,376.6l3.2,2.8
	 M222.6,381.9l-4.4,11l0.7,13.8l-0.7,3.9l-9.9,5.7l-4.1,8 M218.2,392.9l-1.4-6.5l-13.4,3.7l4.9,26.2l0.4,13.1 M203.5,390.2l3.3-5.2
	 M216.8,386.5l1.1-5.2 M224.3,391.6l-3.3,3.9l-2,11.3 M221,395.5l3.3,3.3l22.9-12.3l0.4-2.1 M232.1,404.2l0.4,3.9l3,5.5l8.7-5.5
	l16.8-4.3l-0.7,3.3l2.6,5.5l2.3-3.5 M216.8,411.6v6.2l1.1-0.6l-1.1,13.3l12.2-5.4 M220,429.1l-1.8,15l-2.4,3.6 M216.4,448l1.5,6.4
	 M213.6,458.7l1.3,7.5l10.2-11.5 M219.7,469.7l7.7-11.3 M226.8,459.2l16.7,9.4 M235.7,456.3l-2,6.8 M234.8,459.2l6,5.5 M197.3,430.6
	l5.5,2.6l3.2-3.5 M208.6,425.7l9-4.6 M214.7,412.7l0.5,9.5 M215.1,419.5l8.5-6.4 M234.4,411.6l-3.5,11.5l4.7,10l7.7,14 M247.5,422.2
	l2.7-7.8l-15,8.7l-1,6.8l17.9-10.4l-2.1,4.9l-14.3,8.6l-5.5,7.2 M235.2,423.1l-2-2.8l14.4-9.2l-1.3,5.6 M231.6,421.1l1.6-0.8
	 M243.3,408.6l4.2,2.6l7.9,7.7l7.4-6.2 M250,424.5l5.4,12.5l2.1-1.1l-0.6,8.6l1.8-1.3l8,4.8l-3.8-10.4l-3.4-4.5l-4-14.3l8.4,17.4
	l2.6,0.5 M253.9,433.4l-11.5,12l-2,3.5 M205.1,430.5v12.6l7.6,3.4 M211.3,445.9l-2.4,11.5l1.7,11.2 M209.7,453.8l3.1,4 M213.8,432.7
	l3.4-2.1 M202.8,433.1v12.8l4.5,9.4l-1.2,6.5 M207.3,455.3l1.6,2.1 M205.1,443.1l-2.3,2.8l-2.9,15.7 M197.8,453.3l4.6-5
	 M218.2,444.2l8.3-6.6l6-29.5l-8.9,5.1l2.4-10l-1.7-4.3l0.1-8.8l2.7-7l-4.5-1.1l-3.6-5.3 M243.5,447.1l11.9-10.2 M245.9,447.8
	l11.7-11.6 M247.5,454.3l9.4-9.8l9.8,15.6l5.7-5.3l4.1-0.9 M248.6,453.1l5.3,8.9l1.8,8.3 M259.9,470.3l4.8,0.6l22.6-32.4
	 M266.7,459.7l4.7,1.6l1.5,5.9 M264.7,470.9l1,3.6l6-12.1 M249.6,454.8l8.3-8.7 M282.7,431.6l0.6,12.5l4.7,7.9l-0.9-18.6
	L282.7,431.6l-16,20.1V448l-12.8,14l6.1,8.3l1.2,7.7 M280.6,448l1.6,3.2 M272.4,454.8l-1.1-8.7l-7-13.7l5.6-10.5l0.8-4.8l-6.4-6.6
	 M262.3,413.1l7.6,8.8l3.8-1.9l2.9,1.9l1.6,15.5 M274.8,413.8l2.5,5.7l11.7-25.6 M288.6,399.3l-3.5,8.2l3.9,10l3.4-6.3 M304.3,430.8
	l-9.1-6.4l-3.1,3.1l-4.8-7.9l1.7-2l1.4,0.8 M292,412l11.4,4.1 M294.3,409.1l-0.4,3.5l-3.5,5.7l4.8,6 M294.7,423.6l8.2-7.5
	 M282.4,408.4l4.9,11.1 M281.1,411.1l6.2,22.7l4.8-6.4 M287.2,436.2l10-10.5 M296.7,441.8l-1.1-14.4 M298.6,437.6l-1-11.6
	 M298.4,435.4l6.6,2.6 M259.5,415.4l5.4,10.6l2.2,1.1 M258.3,416.3l5.9,11.8l1.9,0.7 M263.8,436.2l-1,1.4 M264.2,432.4l2.5-2.5
	l8.4,11.2 M270.2,434.6l1.6-1.2l3.9,6.9 M273.5,436.2l2.3-3.5l0.5,7 M275.8,432.7l-0.6-4.6l1.9-0.7 M270.6,417.1l3,2.9 M275,414.4
	l-1,5.9"/>
<path fill="#FFFFFF" stroke="#EC008C" stroke-miterlimit="10" d="M544.5,402.7l-7.9-9.8l7.9-7.8l12.8,3.4L544.5,402.7z M540,366.8
	 M540,366.8l-3.4,1.8l-6.4-6.7l2.1-2.3 M557.2,388.5v1.7v2.1l7.4,7.9l1.5,3.8l-3.2,6.8l-7.5,6l0.9,7.2l4.7,11.9l-1.7,2.1l0.9,2.3
	l-4.2,7.4l-9.1-18.3l-4.3-10.4l-4.9,6.9l-5.1,2.5l-4.9,17.4l-4.7,4l-7.7,6.8l-1.5,11.7l-3.8,2.6v-9.8l-3.8,2.6l-3.8-7.4l-3,11.1
	l-2.6,1.3l-9.1,5.5l-3,6.4l-3.8,3.2l5.5-16.8l-4-3l-4.5,5.1h-3.2l-2.3-8.7l-5.5,8.5l1.5,11.5l-7.9,14.7l2.4,6.2h-2.4l-2.5-5.3
	l-1.5-12.1l-6.8,7.4l1.5-15.3h-3l0.8-8.3l-3-2.1l1.3-5.3h-1.7l0.4-3.2l-2.9,3.2l-6.3-7.7l-2.3-11.7l10,3.4v-1.7l2.4,0.6v-2.4
	l5.7,10.8l2.1,0.9l0.2-2.1l0.5,0.4l8,7l3.2-10l-1.7,0.2l-5.3-12.1l-1.7,0.6l-5.1-8.7l-0.4-5.1l-4.7-8.3l1.5-7.7l-4-4l-3,3.4v1.9
	l-2.1,3.6l-4.2-6l-3.6,4.7l0.6,6.2l-2.8,3l0.9,2.7l-0.9,14.5l-3,1.5l-1.9-1.7l-3.4,3.6l-2.6-2.1l-3,3.6l1.7,9.6l-3.8,2.1l-2.1,8.3
	l-6.2,0.2l-1.3,7.7l-2.8,1.9l-0.4-2.7l-3.2,3.6l-1.1-6l-4.9,3.4l-1.5,7l-12.1,7l-10.2-15.1l-0.6-2.8l3.4-1.1l-1.3-3.8l6.4-4.7
	l-0.4-3.2l8.7,5.3l2.4-3.6l-2.1-8.5l4.7,3.6l-4-12.3l-2.6,3.2l-1.1-0.4l-8.1,11.1l-2.1-2.6l-2.8,1.5l-0.2-3.2h-2.1l-1.5,2.1
	l-0.6,5.5l-5.5,14.2l-2.6,1.3l-1.5,8.7l-4-1.1l-3,4.2l-18.1-31l-1.5,3.4L324,452l-1.3,2.6l-7.4-3v-9.8l-1.9,2.3v-6.6l-4.2,2.4
	l-2.1-1.9l0.6-7.2l-1.7-1.9l2.6-12.8l-2.6-0.2l1.9-12.1l6.8-6.2l3,11.5l1.9,2.1l3.8-11.9l-1.7-2.6l1.3-2.9l-3.4-4.3l7.2-1.1
	l13.8,15.9l-3.4,9.4l7.7-8.1l1.9,3.4l-0.6-16.2l-5.7-5.9l4.9,0.6l-2.1-4.3h4.5l-0.8-2.2l0.6-2.9l-5.1-9.6l8.7,1.9v-2.6l10,2.1
	l-3.2-7.4l16.4,3.6v-2.3l18,4l0.2-4.2l-1.5-1.3l1.7-7.4l5.7,0.8l-1.3-3l6.2,0.9l-1.9-2.6l11.1,2.7v-1.9l7.2,2.1l-1.3-4.2l8.1,2.6
	V347l1.5,0.6l1.5-2.6l2.1,1.1l0.8-1.1l3.2,1.3l1.1,4l2.1,0.9l-0.6,5.9l2.1,0.4v2.3l2.9-4.5l1.4,0.2l2.6-6.4l4.3,2.1l-3,8.3l3.4,2.4
	v-3.6l12.3,10l-2.1,15.3l2.8,5.1l3.6-1.5l5.3,21.7l2.1,1.5v3l7.5,3.6l-2.6-8.1l-1.7-17.2l1.3-12.1l-1.3-1.5l3-17.4l14.7,8.5l1.7-8.3
	l-7.2-5.5l2.4-5.7l7.7,2.6l-2.6-6l23.6,6v1.5l3.2,1.1l1.7,1.9l5.3,2.8l1.7-3.6l6,10.8h1.5l1.5,5.7l1.5,12.6h-2l-5.3-16.8
	 M537.8,391.7l-6.3-12l6.3-9.6 M532.8,377.7l-3.9-4.5l-10.5-6.4l-5.4-11.3l17.2,6.4 M540.5,378.9l2.4-6.4 M559.3,438l-5-13.9
	l-1.2-13.4l-4.2-3.2l0.8-2.1l7.6-13.1 M556.3,424l-2.1,0.1l-7.4,5.4l5.5-19.3l9.2-5.4l3-4.6 M562.9,410.8l-1.3-6 M459.7,435.9
	l-0.4-7.7l5.6-2.2l9.9,3.5l5.3,0.8l6.1,7.7v-8.5l3.2-1.1l7.8,4.8l5.6,5.6l7.3-4.9l2.2-7.8l5.1-9.1l9.2,7.7l8.5-27.4l7.9,6.3l5.9,4
	l1.1-7.3l-2.6-0.7 M498.3,361.1l11.6,5.6l3,7.6l6.3-6.9l0.2,5.9l12,5.7 M528.9,373.2l0.1-11.8l-2-4.7 M498.5,346.4l23.6,7.5
	 M501.1,352.4l11.9,3.2 M506.6,353.9l3.3,12.8l-6.6-13.7 M531.5,379.8l-1.3,12.5l-8.9,3.3l-16.1-16.6l2.6-3.2l-9.2-5l2.6-8.3
	l-7.7-12.6 M513,374.2l1.9,5.9l8,3l-0.8,2l8.1,7.2l-1.2,6.3l-2,1l2.9,14.2l-5.9,3.5l-3.2-2.4l1.3-11l-6.3,4l-9.2-13.9l-2,12.7
	l-23.5-16.1l-2.1,1.8 M504.6,374l5.4-7.4 M516.8,370l2.5,11.8 M519.5,373.2 M519.5,373.2l0.7,8.9 M530.2,390.6l-7.3-7.5
	 M519.3,405.6l1.9-10l0.9-10.5l-5.3,5.9 M503.1,396.3l4.2-5.3l2,6.9l5.1-9.5l0.5-8.3 M502.1,404.8l3.1-25.9 M482,360.9l3.9,15
	l18.3,11 M483.6,418.3l-0.3-1.1L482,391l3.9-15.1 M480.2,379.8l2.6,7.8 M485.9,393.7l3-16 M492,397.9l2.8-12.8l-1.9-5 M494.8,385.1
	l9.1,3.9 M508.2,382.1l-1.6,11.8 M496.6,369.3l1.9,1.3 M512.4,425.5l3.4-17.7 M524,394.6l5,4l7.6-5.6l-1.5,4.2 M537.6,426l6.8-23.3
	 M542.5,419.1l3.5-13.5 M526.5,424.6l6,3.9 M510,433.8l14.1,15.1l7.4-21.2 M506.2,463.7L509,447v-9.7l3.4,2.2l9.7,11.1 M513.2,437.3
	l-0.8,2.2l-0.7,8l3.6,9.2 M509,437.3l1.3-3.1 M494.8,456.7l5.1,0.4l2.4-0.9l2.3-13.4l0.5-5.9 M496.8,468.6l3.3-11.9l2.6-17.9
	 M501.5,446.6l3.1-3.8 M508.8,448.3l3.2-3.5l3.9-1.3 M514.2,453.7l-4.1,7.4l1.7-13.6 M524,417.2l3.6,3.9 M521.7,407.8l6-5.3
	 M522.1,395.3l4.9,4.2 M509.3,397.9l4.2-10.4 M504.6,406.5l9.9,8.3 M517.3,416.9l3.5-2.1 M494.8,402.5l19.4,14.8 M495.3,400.2
	l-1.9,17.8l11.2,12.5l4.4-13.8l-0.8-4 M504.6,430.5h6.3 M494.8,404.8l14.2,11.9 M486,438l8,9l1.7-0.4 M488.7,440.9l0.5-12.6
	l-1.1-7.3 M486,429.5l-0.5-10 M480.7,409.1l2-2.6 M462,492.2l1.4-12.2l0.6-12.1l15-26.9l1-10.6l5.8-5.7l-10-11l12.3,7.5l5.3-3.1
	l3.6,15.2l-2.2,23.5l-8.4,10.2l1.3,7.2 M473.7,409.1l-9.7-7.3l0.6,3.8l11.2,8 M469.1,405.6l-4.3-16.7 M451.8,362.1l-1.3,5.8
	l11.6,15.1 M448.4,359.8l-1,5.3l3.1,2.9 M444.5,355.8l-1.4,5.1l4.2,4.2 M419.7,354.3l20.6,5.7l2.9,0.9 M426.5,352.6l11.7,4.7
	 M428,347.7l8.7,2.8 M429.7,348.2l1.9-2 M475.2,429.6l2.2-14.2 M464.8,426l-2.9-22.1l2.6,1.7 M452.8,427.8l5.6-5.4 M452.4,422.7
	l0.4-8.4l5.6-2.6 M448.7,385.9l-2.6,11.2l3.2,9.7l0.9-12.3v-6.9l9.6,3.5l3.8-4.6 M452.8,414.4l4-16.9l2.8-6.4l4.3,10.7 M447.7,414.4
	l5.7-2.6 M458,495.8l2.5-0.9 M450.8,479.2l4.8-2.6l0.4,7.5 M454.7,452.5l-0.8,12l-2.8,11.3 M450.1,394.4l6.8,3l5.1,6.5l-4.7,10.5
	l2,13.9l16.5,13.2l2-11.4 M463.4,479.2l-7,4.5l3.5-11.7 M455.6,476.7l2.3-6.9 M465.6,461.2l-2.1-3.4 M466.7,447.8l3.6-10.7
	 M468.5,435.6l-3.5,12.4 M472.9,451.9l4.4,5.3l14-11.3v-1.9 M495.4,450.5l-8,6.2l-8.4-15.7l-3.3,0.4L459.9,472l-6.2-7 M494.4,451.3
	l-3.1-5.4 M484.9,465.8l2.5-9.1 M480.4,466.2l4.2-14.9 M481.3,463l1.1,0.9 M474.7,469l2.6-11.9 M472.4,460.3l2.8-5.8 M466.9,468.8
	l-2.9-1l4.4,12.4 M447.3,460.1l5.1,1.1l0.2-9.6 M446,456.9l0.9-13.8 M443.2,460.1l1.4-15.9 M452.4,461.2h1.7 M449,467.5l1.6-6.8
	 M450.1,387.5l-3.3-3.9l5.3-13.6 M346.8,381.1l20.1,3.6l6.6-12.1l11.5,10.3l-1.1-9.1l9.1,2.7l1.1,4.7l49.1,16.6l3.6-14.2l-54.5-15.6
	 M392.5,363.8l5.4,5.8 M403.3,353.9l2.6,4.3l-1.3,4.7l-5.6,7.2 M451.7,370.9l-45.3-14.3l-0.4,1.6l-7.5-2.2 M427,363.1l1.4,11.7
	l19.3,6.5 M434.7,380.2l-2.3-4.1 M404.7,362.9l21,6.8l-1.1-7.3 M425.7,369.7l2-0.6 M420.3,376.1l-2.5-9 M415.2,374.6l3.7-3.8
	 M414.4,366l2.2,7.3 M361,370.2l11.9,3.5 M377.7,376.5l-3.5-10.1 M353.3,404.3l-1.5,2.7 M346.2,392.9l4.2,1.2l0.6,9.7 M357.8,405.5
	l-0.6-8.2l10.6,10.7l-1.9-9.7l-1.3-0.5l-6.8-7.2l-12.5-3 M365.8,387l1.1-2.2 M386,403.1l-18.2-5.3l-3-11.4 M369.6,398.4l2.7,3.6
	l14.4,4.1 M370,409.4l2.3-7.5 M363.6,403.8l1.2-7.1l3,1.2 M350.4,394.1l14.2,3.7 M443.2,397.8l2.9-0.8 M445.2,402.7l-4.2-5.6
	l1.2,9.1 M417.9,389.3l2.5,6.7l18.4,5.6l2.3-4.5 M440.1,411.6l-1.4-10 M435.8,405.7l0.2-4.9 M430.1,419.5l-2.4-10.1l3.7-10.1l0.8,11
	 M425.1,404.3l-5.8,33.7l-3.3-15.6l2.9-18.7l1.4-1.1L425.1,404.3l2.6,4.3l-2.1,3.8l-2.1,0.6 M427.1,438.2l0.6-12.6l-3.6-12.5
	 M427.7,426l3.3-3.7 M426.2,420.3l-1,16.2 M416.3,441.6l-2.4-16.5l2.6-20.8l2.5-11.4l-10.6-2.7l2.8,12.5l-3.7,23l-1.6,3.9h-2.7
	l-5,3.1l1.1,13.8l-3.7,1.5l3.6,9.8l-0.7,1l-8.9-8.8 M407.2,426.5l6.7-1.3l2-2.7 M418.9,403.8l6,1.9 M418.9,404.3l1.4-8.4
	 M411.2,402.2l5.4,2.5l1.7,3.3 M357.8,390.6l-3.6-8.1l-3.2-11.9 M386.9,400.7l-16.9-8.2l-0.4-3.5 M379.6,378.1l4.4-3.5 M381,379.4
	l3.2-2.8 M407.8,424.5l-4.1-8l-9.9-5.7l-0.7-3.9l0.7-13.8l-4.4-11 M403.2,429.6l0.4-13.1l4.9-26.2l-13.4-3.7l-1.4,6.5 M405.2,385
	l3.3,5.2 M394.1,381.2l1.1,5.2 M393,406.8l-2-11.3l-3.3-3.9 M364.5,384.3l0.4,2.1l22.9,12.3l3.3-3.3 M346.8,409.1l2.3,3.5l2.6-5.5
	l-0.7-3.3l16.8,4.3l8.7,5.5l3-5.5l0.4-3.9 M383,425.1l12.2,5.4l-1.1-13.3l1.1,0.6v-6.2 M396.1,447.8l-2.4-3.6l-1.8-15 M394.1,454.4
	l1.5-6.4 M387,454.8l10.2,11.5l1.3-7.5 M384.6,458.4l7.7,11.3 M368.5,468.6l16.7-9.4 M378.3,463.1l-2-6.8 M371.2,464.8l6-5.5
	 M406,429.6l3.2,3.5l5.5-2.6 M394.4,421.1l9,4.6 M396.8,422.3l0.5-9.5 M388.4,413.1l8.5,6.4 M368.7,447.1l7.7-14l4.7-10l-3.5-11.5
	 M381.9,440.3l-5.5-7.2l-14.3-8.6l-2.1-4.9l17.9,10.4l-1-6.8l-15-8.7l2.7,7.8 M365.8,416.7l-1.3-5.6l14.4,9.2l-2,2.8 M378.9,420.3
	l1.6,0.8 M349.1,412.6l7.4,6.2l7.9-7.7l4.2-2.6 M345.6,436.7l2.6-0.5l8.4-17.4l-4,14.3l-3.4,4.5l-3.8,10.4l8-4.8l1.8,1.3l-0.6-8.6
	l2.1,1.1l5.4-12.5 M371.7,448.8l-2-3.5l-11.5-12 M399.3,446.5l7.6-3.4v-12.6 M401.4,468.6l1.7-11.2l-2.4-11.5 M399.2,457.8l3.1-4
	 M394.8,430.6l3.4,2.1 M405.9,461.8l-1.2-6.5l4.5-9.4v-12.8 M403.1,457.4l1.6-2.1 M412,461.6l-2.9-15.7l-2.3-2.8 M409.6,448.3l4.6,5
	 M393,376.6l-3.6,5.3l-4.5,1.1l2.7,7l0.1,8.8l-1.7,4.3l2.4,10l-8.9-5.1l6,29.5l8.3,6.6 M356.6,436.9l11.9,10.2 M354.5,436.2
	l11.7,11.6 M335.5,453.9l4.1,0.9l5.7,5.3l9.8-15.6l9.4,9.8 M356.4,470.3l1.8-8.3l5.3-8.9 M324.7,438.5l22.6,32.4l4.8-0.6
	 M339.1,467.1l1.5-5.9l4.7-1.6 M340.3,462.4l6,12.1l1-3.6 M354.1,446l8.3,8.7 M350.8,478l1.2-7.7l6.1-8.3l-12.8-14v3.8l-16-20.1
	l-4.3,1.8L324,452l4.7-7.9l0.6-12.5 M329.8,451.2l1.6-3.2 M347.8,410.6l-6.4,6.6l0.8,4.8l5.6,10.5l-7,13.7l-1.1,8.7 M333.9,437.4
	l1.6-15.5l2.9-1.9l3.8,1.9l7.6-8.8 M323,393.9l11.7,25.6l2.5-5.7 M319.6,411.2l3.4,6.3l3.9-10l-3.5-8.2 M321.6,418.3l1.4-0.8l1.7,2
	l-4.8,7.9l-3.1-3.1l-9.1,6.4 M308.6,416.1L320,412 M316.8,424.3l4.8-6l-3.5-5.7l-0.4-3.5 M309.1,416.1l8.2,7.5 M324.7,419.5
	l4.9-11.1 M319.9,427.4l4.8,6.4l6.2-22.7 M314.8,425.7l10,10.5 M316.4,427.4l-1.1,14.4 M314.4,426l-1,11.6 M307.1,438l6.6-2.6
	 M345,427.1l2.2-1.1l5.4-10.6 M345.9,428.9l1.9-0.7l5.9-11.8 M349.1,437.6l-1-1.4 M336.9,441.1l8.4-11.2l2.5,2.5 M336.2,440.3
	l3.9-6.9l1.6,1.2 M335.7,439.7l0.5-7l2.3,3.5 M334.9,427.4l1.9,0.7l-0.6,4.6 M338.4,420l3-2.9 M337.9,420.3l-1-5.9"/>
<path fill="#FFFFFF" stroke="#EC008C" stroke-miterlimit="10" d="M54.8,334.2l12.8-3.4l7.9,7.8l-7.9,9.8L54.8,334.2z M72,312.5
	 M79.7,305.3l2.1,2.3l-6.4,6.7l-3.4-1.8 M74.8,314l-5.3,16.8h-2l1.5-12.6l1.5-5.7H72l6-10.8l1.7,3.6l5.3-2.8l1.7-1.9l3.2-1.1v-1.5
	l23.6-6l-2.6,6l7.7-2.6l2.4,5.7l-7.2,5.5l1.7,8.3l14.7-8.5l3,17.4l-1.3,1.5l1.3,12.1l-1.7,17.2l-2.6,8.1l7.5-3.6v-3l2.1-1.5
	l5.3-21.7l3.6,1.5l2.8-5.1l-2.1-15.3l12.3-10v3.6l3.4-2.4l-3-8.3l4.3-2.1l2.6,6.4l1.4-0.2l2.9,4.5v-2.3l2.1-0.4l-0.6-5.9l2.1-0.9
	l1.1-4l3.2-1.3l0.8,1.1l2.1-1.1l1.5,2.6l1.5-0.6v5.5l8.1-2.6l-1.3,4.2l7.2-2.1v1.9l11.1-2.7l-1.9,2.6l6.2-0.9l-1.3,3l5.7-0.8
	l1.7,7.4l-1.5,1.3l0.2,4.2l18-4v2.3l16.4-3.6L251,316l10-2.1v2.6l8.7-1.9l-5.1,9.6l0.6,2.9l-0.8,2.2h4.5l-2.1,4.3l4.9-0.6l-5.7,5.9
	l-0.6,16.2l1.9-3.4l7.7,8.1l-3.4-9.4l13.8-15.9l7.2,1.1l-3.4,4.3l1.3,2.9l-1.7,2.6l3.8,11.9l1.9-2.1l3-11.5l6.8,6.2l1.9,12.1
	l-2.6,0.2l2.6,12.8l-1.7,1.9l0.6,7.2l-2.1,1.9l-4.2-2.4v6.6l-1.9-2.3v9.8l-7.4,3l-1.3-2.6l-4.3,2.6l-1.5-3.4l-18.1,31l-3-4.2l-4,1.1
	l-1.5-8.7l-2.6-1.3l-5.5-14.2l-0.6-5.5l-1.5-2.1h-2.1l-0.2,3.2l-2.8-1.5l-2.1,2.6l-8.1-11.1l-1.1,0.4l-2.6-3.2l-4,12.3l4.7-3.6
	l-2.1,8.5l2.4,3.6l8.7-5.3l-0.4,3.2l6.4,4.7l-1.3,3.8l3.4,1.1l-0.6,2.8l-10.2,15.1l-12.1-7l-1.5-7l-4.9-3.4l-1.1,6l-3.2-3.6
	l-0.4,2.7l-2.8-1.9l-1.3-7.7l-6.2-0.2l-2.1-8.3l-3.8-2.1l1.7-9.6l-3-3.6l-2.6,2.1l-3.4-3.6l-1.9,1.7l-3-1.5L181,368l0.9-2.7l-2.8-3
	l0.6-6.2l-3.6-4.7l-4.2,6l-2.1-3.6v-1.9l-3-3.4l-4,4l1.5,7.7l-4.7,8.3l-0.4,5.1l-5.1,8.7l-1.7-0.6l-5.3,12.1l-1.7-0.2l3.2,10l8-7
	l0.5-0.4l0.2,2.1l2.1-0.9l5.7-10.8v2.4l2.4-0.6v1.7l10-3.4l-2.3,11.7l-6.3,7.7l-2.9-3.2l0.4,3.2h-1.7l1.3,5.3l-3,2.1l0.8,8.3h-3
	l1.5,15.3l-6.8-7.4l-1.5,12.1l-2.5,5.3h-2.4l2.4-6.2l-7.9-14.7l1.5-11.5l-5.5-8.5l-2.3,8.7h-3.2l-4.5-5.1l-4,3l5.5,16.8l-3.8-3.2
	l-3-6.4l-9.1-5.5l-2.6-1.3l-3-11.1l-3.8,7.4l-3.8-2.6v9.8l-3.8-2.6l-1.5-11.7l-7.7-6.8l-4.7-4l-4.9-17.4l-5.1-2.5l-4.9-6.9
	l-4.3,10.4l-9.1,18.3l-4.2-7.4l0.9-2.3l-1.7-2.1l4.7-11.9l0.9-7.2l-7.5-6l-3.2-6.8l1.5-3.8l7.4-7.9v-2.1v-1.7 M74.2,315.9l6.3,9.6
	l-6.3,12 M81.8,307.7l17.2-6.4l-5.4,11.3L83.1,319l-3.9,4.5 M69,318.3l2.4,6.4 M54.8,338.1l7.6,13.1l0.8,2.1l-4.2,3.2l-1.2,13.4
	l-5,13.9 M47.4,345.9l3,4.6l9.2,5.4l5.5,19.3l-7.4-5.4l-2.1-0.1 M50.4,350.5l-1.3,6 M64.6,345.2l-2.6,0.7l1.1,7.3l5.9-4l7.9-6.3
	l8.5,27.4l9.2-7.7l5.1,9.1l2.2,7.8l7.3,4.9l5.6-5.6l7.8-4.8l3.2,1.1v8.5l6.1-7.7l5.3-0.8l9.9-3.5l5.6,2.2l-0.4,7.7 M80.5,324.7
	l12-5.7l0.2-5.9l6.3,6.9l3-7.6l11.6-5.6 M85,302.6l-2,4.7l0.1,11.8 M89.9,299.6l23.6-7.5 M99,301.3l11.9-3.2 M108.7,298.7l-6.6,13.7
	l3.3-12.8 M118.6,295.6l-7.7,12.6l2.6,8.3l-9.2,5l2.6,3.2l-16.1,16.6l-8.9-3.3l-1.3-12.5 M133,338.1l-2.1-1.8l-23.5,16.1l-2-12.7
	l-9.2,13.9l-6.3-4l1.3,11L88,363l-5.9-3.5l2.9-14.2l-2-1l-1.2-6.3l8.1-7.2l-0.8-2l8-3l1.9-5.9 M102,312.4l5.4,7.4 M92.7,327.5
	l2.5-11.8 M92.5,319 M91.8,327.8l0.7-8.9 M89.1,328.9l-7.3,7.5 M95.2,336.7l-5.3-5.9l0.9,10.5l1.9,10 M97.1,325.8l0.5,8.3l5.1,9.5
	l2-6.9l4.2,5.3 M106.8,324.7l3.1,25.9 M107.8,332.6l18.3-11l3.9-15 M126.1,321.6l3.9,15.1l-1.3,26.1l-0.3,1.1 M129.1,333.3l2.6-7.8
	 M123.1,323.5l3,16 M119.1,325.8l-1.9,5l2.8,12.8 M108,334.8l9.1-3.9 M105.4,339.6l-1.6-11.8 M113.5,316.4l1.9-1.3 M96.1,353.5
	l3.4,17.7 M76.9,342.9l-1.5-4.2l7.6,5.6l5-4 M67.5,348.5l6.8,23.3 M66,351.3l3.5,13.5 M79.5,374.2l6-3.9 M80.5,373.5l7.4,21.2
	l14.1-15.1 M89.9,396.4l9.7-11.1l3.4-2.2v9.7l2.8,16.7 M96.7,402.4l3.6-9.2l-0.7-8l-0.8-2.2 M101.7,380l1.3,3.1 M106.8,382.8
	l0.5,5.9l2.3,13.4l2.4,0.9l5.1-0.4 M109.4,384.5l2.6,17.9l3.3,11.9 M107.4,388.6l3.1,3.8 M96.1,389.2l3.9,1.3l3.2,3.5 M100.3,393.3
	l1.7,13.6l-4.1-7.4 M84.4,366.8L88,363 M84.4,348.2l6,5.3 M85,345.3l4.9-4.2 M98.5,333.3l4.2,10.4 M97.5,360.6l9.9-8.3 M91.2,360.6
	l3.5,2.1 M97.8,363l19.4-14.8 M103.8,358.5l-0.8,4l4.4,13.8l11.2-12.5l-1.9-17.8 M101.1,376.2h6.3 M103,362.4l14.2-11.9
	 M116.2,392.4l1.7,0.4l8-9 M123.9,366.8l-1.1,7.3l0.5,12.6 M126.5,365.3l-0.5,10 M129.3,352.3l2,2.6 M124.3,419.9l1.3-7.2l-8.4-10.2
	l-2.2-23.5l3.6-15.2l5.3,3.1l12.3-7.5l-10,11l5.8,5.7l1,10.6l15,26.9l0.6,12.1l1.4,12.2 M136.2,359.3l11.2-8l0.6-3.8l-9.7,7.3
	 M147.2,334.7l-4.3,16.7 M149.9,328.9l11.6-15.1l-1.3-5.8 M161.5,313.7l3.1-2.9l-1-5.3 M164.6,310.8l4.2-4.2l-1.4-5.1 M168.8,306.6
	l2.9-0.9l20.6-5.7 M173.8,303l11.7-4.7 M175.3,296.2l8.7-2.8 M180.4,292l1.9,2 M134.6,361.1l2.2,14.2 M147.4,351.3l2.6-1.7
	l-2.9,22.1 M153.6,368.2l5.6,5.4 M153.6,357.6l5.6,2.6l0.4,8.4 M148.6,332.2l3.8,4.6l9.6-3.5v6.9l0.9,12.3l3.2-9.7l-2.6-11.2
	 M148,347.5l4.3-10.7l2.8,6.4l4,16.9 M158.5,357.6l5.7,2.6 M151.5,440.7l2.5,0.9 M156,429.9l0.4-7.5l4.8,2.6 M160.9,421.6l-2.8-11.3
	l-0.8-12 M134.2,375.7l2,11.4l16.5-13.2l2-13.9l-4.7-10.5l5.1-6.5l6.8-3 M152.1,417.7l3.5,11.7l-7-4.5 M154,415.5l2.3,6.9
	 M148.5,403.5l-2.1,3.4 M141.7,382.8l3.6,10.7 M147.1,393.7l-3.5-12.4 M120.7,389.7v1.9l14,11.3l4.4-5.3 M158.2,410.7l-6.2,7
	l-15.8-30.6l-3.3-0.4l-8.4,15.7l-8-6.2 M120.7,391.6l-3.1,5.4 M124.6,402.4l2.5,9.1 M127.4,397l4.2,14.9 M129.6,409.7l1.1-0.9
	 M134.6,402.9l2.6,11.9 M136.8,400.3l2.8,5.8 M143.6,426l4.4-12.4l-2.9,1 M159.4,397.3l0.2,9.6l5.1-1.1 M165.1,388.9l0.9,13.8
	 M167.5,389.9l1.4,15.9 M157.9,406.9h1.7 M161.4,406.5l1.6,6.8 M159.9,315.8l5.3,13.6l-3.3,3.9 M219.7,313.8l-54.5,15.6l3.6,14.2
	l49.1-16.6l1.1-4.7l9.1-2.7l-1.1,9.1l11.5-10.3l6.6,12.1l20.1-3.6 M214.2,315.4l5.4-5.8 M212.9,315.8l-5.6-7.2l-1.3-4.7l2.6-4.3
	 M213.6,301.7l-7.5,2.2l-0.4-1.6l-45.3,14.3 M164.3,327l19.3-6.5l1.4-11.7 M179.7,321.8l-2.3,4.1 M187.4,308.1l-1.1,7.3l21-6.8
	 M184.3,314.8l2,0.6 M194.1,312.9l-2.5,9 M193.1,316.6l3.7,3.8 M195.4,319l2.2-7.3 M239.1,319.5L251,316 M237.8,312.1l-3.5,10.1
	 M260.2,352.8l-1.5-2.7 M261,349.5l0.6-9.7l4.2-1.2 M266.7,333.4l-12.5,3l-6.8,7.2l-1.3,0.5l-1.9,9.7l10.6-10.7l-0.6,8.2
	 M245.1,330.5l1.1,2.2 M247.2,332.2l-3,11.4l-18.2,5.3 M225.3,351.9l14.4-4.1l2.7-3.6 M239.7,347.7l2.3,7.5 M244.2,343.6l3-1.2
	l1.2,7.1 M247.3,343.6l14.2-3.7 M166,342.8l2.9,0.8 M169.8,351.9l1.2-9.1l-4.2,5.6 M171,342.8l2.3,4.5l18.4-5.6l2.5-6.7
	 M173.3,347.4l-1.4,10 M175.9,346.6l0.2,4.9 M179.8,356.1l0.8-11l3.7,10.1l-2.4,10.1 M188.4,358.9l-2.1-0.6l-2.1-3.8l2.6-4.3
	l4.8-1.7l1.4,1.1l2.9,18.7l-3.3,15.6l-5.8-33.7 M187.9,358.9l-3.6,12.5l0.6,12.6 M181,368l3.3,3.7 M186.8,382.3l-1-16.2
	 M222.5,395.7l-8.9,8.8l-0.7-1l3.6-9.8l-3.7-1.5l1.1-13.8l-5-3.1H206l-1.6-3.9l-3.7-23l2.8-12.5l-10.6,2.7l2.5,11.4l2.6,20.8
	l-2.4,16.5 M196,368.2l2,2.7l6.7,1.3 M187.1,351.4l6-1.9 M191.7,341.7l1.4,8.4 M193.8,353.8l1.7-3.3l5.4-2.5 M261,316.4l-3.2,11.9
	l-3.6,8.1 M242.4,334.8l-0.4,3.5l-16.9,8.2 M228,320.4l4.4,3.5 M227.8,322.3l3.2,2.8 M222.6,327.7l-4.4,11l0.7,13.8l-0.7,3.9
	l-9.9,5.7l-4.1,8 M218.2,338.7l-1.4-6.5l-13.4,3.7l4.9,26.2l0.4,13.1 M203.5,335.9l3.3-5.2 M216.8,332.2l1.1-5.2 M224.3,337.3
	l-3.3,3.9l-2,11.3 M221,341.2l3.3,3.3l22.9-12.3l0.4-2.1 M232.1,349.9l0.4,3.9l3,5.5l8.7-5.5l16.8-4.3l-0.7,3.3l2.6,5.5l2.3-3.5
	 M216.8,357.4v6.2l1.1-0.6l-1.1,13.3l12.2-5.4 M220,374.9l-1.8,15l-2.4,3.6 M216.4,393.7l1.5,6.4 M213.6,404.5l1.3,7.5l10.2-11.5
	 M219.7,415.4l7.7-11.3 M226.8,405l16.7,9.4 M235.7,402l-2,6.8 M234.8,405l6,5.5 M197.3,376.3l5.5,2.6l3.2-3.5 M208.6,371.4l9-4.6
	 M214.7,358.5l0.5,9.5 M215.1,365.3l8.5-6.4 M234.4,357.4l-3.5,11.5l4.7,10l7.7,14 M247.5,368l2.7-7.8l-15,8.7l-1,6.8l17.9-10.4
	l-2.1,4.9l-14.3,8.6l-5.5,7.2 M235.2,368.9l-2-2.8l14.4-9.2l-1.3,5.6 M231.6,366.9l1.6-0.8 M243.3,354.3l4.2,2.6l7.9,7.7l7.4-6.2
	 M250,370.2l5.4,12.5l2.1-1.1l-0.6,8.6l1.8-1.3l8,4.8l-3.8-10.4l-3.4-4.5l-4-14.3l8.4,17.4l2.6,0.5 M253.9,379.1l-11.5,12l-2,3.5
	 M205.1,376.3v12.6l7.6,3.4 M211.3,391.6l-2.4,11.5l1.7,11.2 M209.7,399.5l3.1,4 M213.8,378.4l3.4-2.1 M202.8,378.9v12.8l4.5,9.4
	l-1.2,6.5 M207.3,401.1l1.6,2.1 M205.1,388.9l-2.3,2.8l-2.9,15.7 M197.8,399.1l4.6-5 M218.2,389.9l8.3-6.6l6-29.5l-8.9,5.1l2.4-10
	l-1.7-4.3l0.1-8.8l2.7-7l-4.5-1.1l-3.6-5.3 M243.5,392.9l11.9-10.2 M245.9,393.5l11.7-11.6 M247.5,400l9.4-9.8l9.8,15.6l5.7-5.3
	l4.1-0.9 M248.6,398.8l5.3,8.9l1.8,8.3 M259.9,416.1l4.8,0.6l22.6-32.4 M266.7,405.4l4.7,1.6l1.5,5.9 M264.7,416.6l1,3.6l6-12.1
	 M249.6,400.5l8.3-8.7 M282.7,377.4l0.6,12.5l4.7,7.9l-0.9-18.6L282.7,377.4l-16,20.1v-3.8l-12.8,14l6.1,8.3l1.2,7.7 M280.6,393.7
	l1.6,3.2 M272.4,400.5l-1.1-8.7l-7-13.7l5.6-10.5l0.8-4.8l-6.4-6.6 M262.3,358.9l7.6,8.8l3.8-1.9l2.9,1.9l1.6,15.5 M274.8,359.5
	l2.5,5.7l11.7-25.6 M288.6,345.1l-3.5,8.2l3.9,10l3.4-6.3 M304.3,376.5l-9.1-6.4l-3.1,3.1l-4.8-7.9l1.7-2l1.4,0.8 M292,357.7
	l11.4,4.1 M294.3,354.9l-0.4,3.5l-3.5,5.7l4.8,6 M294.7,369.4l8.2-7.5 M282.4,354.2l4.9,11.1 M281.1,356.9l6.2,22.7l4.8-6.4
	 M287.2,381.9l10-10.5 M296.7,387.6l-1.1-14.4 M298.6,383.3l-1-11.6 M298.4,381.2l6.6,2.6 M259.5,361.2l5.4,10.6l2.2,1.1
	 M258.3,362.1l5.9,11.8l1.9,0.7 M263.8,381.9l-1,1.4 M264.2,378.1l2.5-2.5l8.4,11.2 M270.2,380.4l1.6-1.2l3.9,6.9 M273.5,381.9
	l2.3-3.5l0.5,7 M275.8,378.4l-0.6-4.6l1.9-0.7 M270.6,362.9l3,2.9 M275,360.2l-1,5.9"/>
<path fill="#FFFFFF" stroke="#EC008C" stroke-miterlimit="10" d="M544.5,348.5l-7.9-9.8l7.9-7.8l12.8,3.4L544.5,348.5z M540,312.5
	 M540,312.5l-3.4,1.8l-6.4-6.7l2.1-2.3 M557.2,334.2v1.7v2.1l7.4,7.9l1.5,3.8l-3.2,6.8l-7.5,6l0.9,7.2l4.7,11.9l-1.7,2.1l0.9,2.3
	l-4.2,7.4l-9.1-18.3l-4.3-10.4l-4.9,6.9l-5.1,2.5l-4.9,17.4l-4.7,4l-7.7,6.8l-1.5,11.7l-3.8,2.6v-9.8l-3.8,2.6l-3.8-7.4l-3,11.1
	l-2.6,1.3l-9.1,5.5l-3,6.4l-3.8,3.2l5.5-16.8l-4-3l-4.5,5.1h-3.2l-2.3-8.7l-5.5,8.5l1.5,11.5l-7.9,14.7l2.4,6.2h-2.4l-2.5-5.3
	l-1.5-12.1l-6.8,7.4l1.5-15.3h-3l0.8-8.3l-3-2.1l1.3-5.3h-1.7l0.4-3.2l-2.9,3.2l-6.3-7.7l-2.3-11.7l10,3.4v-1.7l2.4,0.6v-2.4
	l5.7,10.8l2.1,0.9l0.2-2.1l0.5,0.4l8,7l3.2-10l-1.7,0.2l-5.3-12.1l-1.7,0.6l-5.1-8.7l-0.4-5.1l-4.7-8.3l1.5-7.7l-4-4l-3,3.4v1.9
	l-2.1,3.6l-4.2-6l-3.6,4.7l0.6,6.2l-2.8,3l0.9,2.7l-0.9,14.5l-3,1.5l-1.9-1.7l-3.4,3.6l-2.6-2.1l-3,3.6l1.7,9.6l-3.8,2.1l-2.1,8.3
	l-6.2,0.2l-1.3,7.7l-2.8,1.9l-0.4-2.7l-3.2,3.6l-1.1-6l-4.9,3.4l-1.5,7l-12.1,7l-10.2-15.1l-0.6-2.8l3.4-1.1l-1.3-3.8l6.4-4.7
	l-0.4-3.2l8.7,5.3l2.4-3.6l-2.1-8.5l4.7,3.6l-4-12.3l-2.6,3.2l-1.1-0.4l-8.1,11.1l-2.1-2.6l-2.8,1.5l-0.2-3.2h-2.1l-1.5,2.1
	l-0.6,5.5l-5.5,14.2l-2.6,1.3l-1.5,8.7l-4-1.1l-3,4.2l-18.1-31l-1.5,3.4l-4.3-2.6l-1.3,2.6l-7.4-3v-9.8l-1.9,2.3v-6.6l-4.2,2.4
	l-2.1-1.9l0.6-7.2l-1.7-1.9l2.6-12.8l-2.6-0.2l1.9-12.1l6.8-6.2l3,11.5l1.9,2.1l3.8-11.9l-1.7-2.6l1.3-2.9l-3.4-4.3l7.2-1.1
	l13.8,15.9l-3.4,9.4l7.7-8.1l1.9,3.4l-0.6-16.2l-5.7-5.9l4.9,0.6l-2.1-4.3h4.5l-0.8-2.2l0.6-2.9l-5.1-9.6l8.7,1.9v-2.6l10,2.1
	l-3.2-7.4l16.4,3.6v-2.3l18,4l0.2-4.2l-1.5-1.3l1.7-7.4l5.7,0.8l-1.3-3l6.2,0.9l-1.9-2.6l11.1,2.7v-1.9l7.2,2.1l-1.3-4.2l8.1,2.6
	v-5.5l1.5,0.6l1.5-2.6l2.1,1.1l0.8-1.1l3.2,1.3l1.1,4l2.1,0.9l-0.6,5.9l2.1,0.4v2.3l2.9-4.5l1.4,0.2l2.6-6.4l4.3,2.1l-3,8.3l3.4,2.4
	v-3.6l12.3,10l-2.1,15.3l2.8,5.1l3.6-1.5l5.3,21.7l2.1,1.5v3l7.5,3.6l-2.6-8.1l-1.7-17.2l1.3-12.1L479,324l3-17.4l14.7,8.5l1.7-8.3
	l-7.2-5.5l2.4-5.7l7.7,2.6l-2.6-6l23.6,6v1.5l3.2,1.1l1.7,1.9l5.3,2.8l1.7-3.6l6,10.8h1.5l1.5,5.7l1.5,12.6h-2l-5.3-16.8
	 M537.8,337.5l-6.3-12l6.3-9.6 M532.8,323.5l-3.9-4.5l-10.5-6.4l-5.4-11.3l17.2,6.4 M540.5,324.7l2.4-6.4 M559.3,383.8l-5-13.9
	l-1.2-13.4l-4.2-3.2l0.8-2.1l7.6-13.1 M556.3,369.7l-2.1,0.1l-7.4,5.4l5.5-19.3l9.2-5.4l3-4.6 M562.9,356.5l-1.3-6 M459.7,381.6
	l-0.4-7.7l5.6-2.2l9.9,3.5l5.3,0.8l6.1,7.7v-8.5l3.2-1.1l7.8,4.8l5.6,5.6l7.3-4.9l2.2-7.8l5.1-9.1l9.2,7.7l8.5-27.4l7.9,6.3l5.9,4
	l1.1-7.3l-2.6-0.7 M498.3,306.8l11.6,5.6l3,7.6l6.3-6.9l0.2,5.9l12,5.7 M528.9,319l0.1-11.8l-2-4.7 M498.5,292.1l23.6,7.5
	 M501.1,298.1l11.9,3.2 M506.6,299.6l3.3,12.8l-6.6-13.7 M531.5,325.5l-1.3,12.5l-8.9,3.3l-16.1-16.6l2.6-3.2l-9.2-5l2.6-8.3
	l-7.7-12.6 M513,319.9l1.9,5.9l8,3l-0.8,2l8.1,7.2l-1.2,6.3l-2,1l2.9,14.2L524,363l-3.2-2.4l1.3-11l-6.3,4l-9.2-13.9l-2,12.7
	l-23.5-16.1l-2.1,1.8 M504.6,319.8l5.4-7.4 M516.8,315.7l2.5,11.8 M519.5,319 M519.5,319l0.7,8.9 M530.2,336.4l-7.3-7.5
	 M519.3,351.3l1.9-10l0.9-10.5l-5.3,5.9 M503.1,342.1l4.2-5.3l2,6.9l5.1-9.5l0.5-8.3 M502.1,350.5l3.1-25.9 M482,306.6l3.9,15
	l18.3,11 M483.6,364.1l-0.3-1.1l-1.3-26.1l3.9-15.1 M480.2,325.5l2.6,7.8 M485.9,339.5l3-16 M492,343.7l2.8-12.8l-1.9-5
	 M494.8,330.8l9.1,3.9 M508.2,327.8l-1.6,11.8 M496.6,315.1l1.9,1.3 M512.4,371.3l3.4-17.7 M524,340.3l5,4l7.6-5.6l-1.5,4.2
	 M537.6,371.7l6.8-23.3 M542.5,364.8l3.5-13.5 M526.5,370.3l6,3.9 M510,379.6l14.1,15.1l7.4-21.2 M506.2,409.5l2.8-16.7v-9.7
	l3.4,2.2l9.7,11.1 M513.2,383.1l-0.8,2.2l-0.7,8l3.6,9.2 M509,383.1l1.3-3.1 M494.8,402.4l5.1,0.4l2.4-0.9l2.3-13.4l0.5-5.9
	 M496.8,414.4l3.3-11.9l2.6-17.9 M501.5,392.4l3.1-3.8 M508.8,394.1l3.2-3.5l3.9-1.3 M514.2,399.5l-4.1,7.4l1.7-13.6 M524,363
	l3.6,3.9 M521.7,353.5l6-5.3 M522.1,341.1l4.9,4.2 M509.3,343.7l4.2-10.4 M504.6,352.3l9.9,8.3 M517.3,362.7l3.5-2.1 M494.8,348.2
	l19.4,14.8 M495.3,345.9l-1.9,17.8l11.2,12.5l4.4-13.8l-0.8-4 M504.6,376.2h6.3 M494.8,350.5l14.2,11.9 M486,383.8l8,9l1.7-0.4
	 M488.7,386.7l0.5-12.6l-1.1-7.3 M486,375.3l-0.5-10 M480.7,354.9l2-2.6 M462,437.9l1.4-12.2l0.6-12.1l15-26.9l1-10.6l5.8-5.7
	l-10-11l12.3,7.5l5.3-3.1l3.6,15.2l-2.2,23.5l-8.4,10.2l1.3,7.2 M473.7,354.9l-9.7-7.3l0.6,3.8l11.2,8 M469.1,351.3l-4.3-16.7
	 M451.8,307.9l-1.3,5.8l11.6,15.1 M448.4,305.5l-1,5.3l3.1,2.9 M444.5,301.5l-1.4,5.1l4.2,4.2 M419.7,300l20.6,5.7l2.9,0.9
	 M426.5,298.3l11.7,4.7 M428,293.4l8.7,2.8 M429.7,294l1.9-2 M475.2,375.3l2.2-14.2 M464.8,371.7l-2.9-22.1l2.6,1.7 M452.8,373.6
	l5.6-5.4 M452.4,368.5l0.4-8.4l5.6-2.6 M448.7,331.6l-2.6,11.2l3.2,9.7l0.9-12.3v-6.9l9.6,3.5l3.8-4.6 M452.8,360.1l4-16.9l2.8-6.4
	l4.3,10.7 M447.7,360.2l5.7-2.6 M458,441.6l2.5-0.9 M450.8,425l4.8-2.6l0.4,7.5 M454.7,398.2l-0.8,12l-2.8,11.3 M450.1,340.2l6.8,3
	l5.1,6.5l-4.7,10.5l2,13.9l16.5,13.2l2-11.4 M463.4,425l-7,4.5l3.5-11.7 M455.6,422.4l2.3-6.9 M465.6,406.9l-2.1-3.4 M466.7,393.5
	l3.6-10.7 M468.5,381.3l-3.5,12.4 M472.9,397.6l4.4,5.3l14-11.3v-1.9 M495.4,396.3l-8,6.2l-8.4-15.7l-3.3,0.4l-15.8,30.6l-6.2-7
	 M494.4,397l-3.1-5.4 M484.9,411.5l2.5-9.1 M480.4,411.9l4.2-14.9 M481.3,408.8l1.1,0.9 M474.7,414.8l2.6-11.9 M472.4,406.1l2.8-5.8
	 M466.9,414.6l-2.9-1l4.4,12.4 M447.3,405.9l5.1,1.1l0.2-9.6 M446,402.7l0.9-13.8 M443.2,405.9l1.4-15.9 M452.4,406.9h1.7
	 M449,413.3l1.6-6.8 M450.1,333.3l-3.3-3.9l5.3-13.6 M346.8,326.9l20.1,3.6l6.6-12.1l11.5,10.3l-1.1-9.1l9.1,2.7l1.1,4.7l49.1,16.6
	l3.6-14.2l-54.5-15.6 M392.5,309.6l5.4,5.8 M403.3,299.6l2.6,4.3l-1.3,4.7l-5.6,7.2 M451.7,316.6l-45.3-14.3l-0.4,1.6l-7.5-2.2
	 M427,308.9l1.4,11.7l19.3,6.5 M434.7,325.9l-2.3-4.1 M404.7,308.6l21,6.8l-1.1-7.3 M425.7,315.4l2-0.6 M420.3,321.8l-2.5-9
	 M415.2,320.4l3.7-3.8 M414.4,311.8l2.2,7.3 M361,316l11.9,3.5 M377.7,322.2l-3.5-10.1 M353.3,350.1l-1.5,2.7 M346.2,338.7l4.2,1.2
	l0.6,9.7 M357.8,351.2l-0.6-8.2l10.6,10.7l-1.9-9.7l-1.3-0.5l-6.8-7.2l-12.5-3 M365.8,332.7l1.1-2.2 M386,348.9l-18.2-5.3l-3-11.4
	 M369.6,344.1l2.7,3.6l14.4,4.1 M370,355.2l2.3-7.5 M363.6,349.5l1.2-7.1l3,1.2 M350.4,339.9l14.2,3.7 M443.2,343.6l2.9-0.8
	 M445.2,348.5l-4.2-5.6l1.2,9.1 M417.9,335l2.5,6.7l18.4,5.6l2.3-4.5 M440.1,357.4l-1.4-10 M435.8,351.4l0.2-4.9 M430.1,365.3
	l-2.4-10.1l3.7-10.1l0.8,11 M425.1,350.1l-5.8,33.7l-3.3-15.6l2.9-18.7l1.4-1.1L425.1,350.1l2.6,4.3l-2.1,3.8l-2.1,0.6 M427.1,384
	l0.6-12.6l-3.6-12.5 M427.7,371.7l3.3-3.7 M426.2,366.1l-1,16.2 M416.3,387.4l-2.4-16.5l2.6-20.8l2.5-11.4l-10.6-2.7l2.8,12.5
	l-3.7,23l-1.6,3.9h-2.7l-5,3.1l1.1,13.8l-3.7,1.5l3.6,9.8l-0.7,1l-8.9-8.8 M407.2,372.2l6.7-1.3l2-2.7 M418.9,349.5l6,1.9
	 M418.9,350.1l1.4-8.4 M411.2,348l5.4,2.5l1.7,3.3 M357.8,336.4l-3.6-8.1l-3.2-11.9 M386.9,346.5l-16.9-8.2l-0.4-3.5 M379.6,323.9
	l4.4-3.5 M381,325.2l3.2-2.8 M407.8,370.2l-4.1-8l-9.9-5.7l-0.7-3.9l0.7-13.8l-4.4-11 M403.2,375.3l0.4-13.1l4.9-26.2l-13.4-3.7
	l-1.4,6.5 M405.2,330.7l3.3,5.2 M394.1,327l1.1,5.2 M393,352.5l-2-11.3l-3.3-3.9 M364.5,330.1l0.4,2.1l22.9,12.3l3.3-3.3
	 M346.8,354.9l2.3,3.5l2.6-5.5l-0.7-3.3l16.8,4.3l8.7,5.5l3-5.5l0.4-3.9 M383,370.9l12.2,5.4l-1.1-13.3l1.1,0.6v-6.2 M396.1,393.5
	l-2.4-3.6l-1.8-15 M394.1,400.1l1.5-6.4 M387,400.5l10.2,11.5l1.3-7.5 M384.6,404.2l7.7,11.3 M368.5,414.4l16.7-9.4 M378.3,408.9
	l-2-6.8 M371.2,410.5l6-5.5 M406,375.3l3.2,3.5l5.5-2.6 M394.4,366.9l9,4.6 M396.8,368l0.5-9.5 M388.4,358.9l8.5,6.4 M368.7,392.9
	l7.7-14l4.7-10l-3.5-11.5 M381.9,386.1l-5.5-7.2l-14.3-8.6l-2.1-4.9l17.9,10.4l-1-6.8l-15-8.7l2.7,7.8 M365.8,362.5l-1.3-5.6
	l14.4,9.2l-2,2.8 M378.9,366.1l1.6,0.8 M349.1,358.4l7.4,6.2l7.9-7.7l4.2-2.6 M345.6,382.5l2.6-0.5l8.4-17.4l-4,14.3l-3.4,4.5
	l-3.8,10.4l8-4.8l1.8,1.3l-0.6-8.6l2.1,1.1l5.4-12.5 M371.7,394.6l-2-3.5l-11.5-12 M399.3,392.2l7.6-3.4v-12.6 M401.4,414.4
	l1.7-11.2l-2.4-11.5 M399.2,403.5l3.1-4 M394.8,376.3l3.4,2.1 M405.9,407.5l-1.2-6.5l4.5-9.4v-12.8 M403.1,403.2l1.6-2.1 M412,407.4
	l-2.9-15.7l-2.3-2.8 M409.6,394.1l4.6,5 M393,322.3l-3.6,5.3l-4.5,1.1l2.7,7l0.1,8.8l-1.7,4.3l2.4,10l-8.9-5.1l6,29.5l8.3,6.6
	 M356.6,382.7l11.9,10.2 M354.5,381.9l11.7,11.6 M335.5,399.7l4.1,0.9l5.7,5.3l9.8-15.6l9.4,9.8 M356.4,416.1l1.8-8.3l5.3-8.9
	 M324.7,384.2l22.6,32.4l4.8-0.6 M339.1,412.9l1.5-5.9l4.7-1.6 M340.3,408.2l6,12.1l1-3.6 M354.1,391.8l8.3,8.7 M350.8,423.7
	l1.2-7.7l6.1-8.3l-12.8-14v3.8l-16-20.1l-4.3,1.8l-0.9,18.6l4.7-7.9l0.6-12.5 M329.8,396.9l1.6-3.2 M347.8,356.3l-6.4,6.6l0.8,4.8
	l5.6,10.5l-7,13.7l-1.1,8.7 M333.9,383.1l1.6-15.5l2.9-1.9l3.8,1.9l7.6-8.8 M323,339.6l11.7,25.6l2.5-5.7 M319.6,357l3.4,6.3l3.9-10
	l-3.5-8.2 M321.6,364.1l1.4-0.8l1.7,2l-4.8,7.9l-3.1-3.1l-9.1,6.4 M308.6,361.9l11.4-4.1 M316.8,370.1l4.8-6l-3.5-5.7l-0.4-3.5
	 M309.1,361.9l8.2,7.5 M324.7,365.3l4.9-11.1 M319.9,373.1l4.8,6.4l6.2-22.7 M314.8,371.5l10,10.5 M316.4,373.1l-1.1,14.4
	 M314.4,371.7l-1,11.6 M307.1,383.8l6.6-2.6 M345,372.8l2.2-1.1l5.4-10.6 M345.9,374.6l1.9-0.7l5.9-11.8 M349.1,383.3l-1-1.4
	 M336.9,386.9l8.4-11.2l2.5,2.5 M336.2,386.1l3.9-6.9l1.6,1.2 M335.7,385.5l0.5-7l2.3,3.5 M334.9,373.1l1.9,0.7l-0.6,4.6
	 M338.4,365.8l3-2.9 M337.9,366.1l-1-5.9"/>
</svg>
