<?xml version="1.0" encoding="utf-8"?>
<!-- Generator: Adobe Illustrator 17.1.0, SVG Export Plug-In . SVG Version: 6.00 Build 0)  -->
<!DOCTYPE svg PUBLIC "-//W3C//DTD SVG 1.1//EN" "http://www.w3.org/Graphics/SVG/1.1/DTD/svg11.dtd">
<svg version="1.1" id="Layer_1" xmlns="http://www.w3.org/2000/svg" xmlns:xlink="http://www.w3.org/1999/xlink" x="0px" y="0px"
	 viewBox="56 146 500 500" enable-background="new 56 146 500 500" xml:space="preserve">
<rect x="200" y="192" fill="#FFFFFF" stroke="#8DC63F" stroke-width="3" stroke-miterlimit="10" width="62.5" height="100"/>
<rect x="175" y="192" fill="#FFFFFF" stroke="#8DC63F" stroke-width="3" stroke-miterlimit="10" width="25" height="400"/>
<rect x="150" y="192" fill="#FFFFFF" stroke="#8DC63F" stroke-width="3" stroke-miterlimit="10" width="25" height="300"/>
<rect x="125" y="192" fill="#FFFFFF" stroke="#8DC63F" stroke-width="3" stroke-miterlimit="10" width="25" height="362.5"/>
<rect x="100" y="192" fill="#FFFFFF" stroke="#8DC63F" stroke-width="3" stroke-miterlimit="10" width="25" height="275"/>
<rect x="200" y="292" fill="#FFFFFF" stroke="#8DC63F" stroke-width="3" stroke-miterlimit="10" width="100" height="100"/>
<rect x="200" y="392" fill="#FFFFFF" stroke="#8DC63F" stroke-width="3" stroke-miterlimit="10" width="300" height="100"/>
<rect x="200" y="392" fill="#FFFFFF" stroke="#8DC63F" stroke-width="3" stroke-miterlimit="10" width="300" height="50"/>
<rect x="200" y="342" fill="#FFFFFF" stroke="#8DC63F" stroke-width="3" stroke-miterlimit="10" width="300" height="50"/>
<rect x="200" y="442" fill="#FFFFFF" stroke="#8DC63F" stroke-width="3" stroke-miterlimit="10" width="300" height="50"/>
<rect x="200" y="492" fill="#FFFFFF" stroke="#8DC63F" stroke-width="3" stroke-miterlimit="10" width="300" height="50"/>
<polygon fill="#FFFFFF" stroke="#8DC63F" stroke-width="3" stroke-miterlimit="10" points="500,192 500,342 400,342 "/>
<polygon fill="#FFFFFF" stroke="#8DC63F" stroke-width="3" stroke-miterlimit="10" points="500,242 500,392 400,392 "/>
<polygon fill="#FFFFFF" stroke="#8DC63F" stroke-width="3" stroke-miterlimit="10" points="500,292 500,442 400,442 "/>
<polygon fill="#FFFFFF" stroke="#8DC63F" stroke-width="3" stroke-miterlimit="10" points="500,342 500,492 400,492 "/>
<polygon fill="#FFFFFF" stroke="#8DC63F" stroke-width="3" stroke-miterlimit="10" points="500,392 500,542 400,542 "/>
</svg>
