<?xml version="1.0" encoding="utf-8"?>
<!-- Generator: Adobe Illustrator 17.1.0, SVG Export Plug-In . SVG Version: 6.00 Build 0)  -->
<!DOCTYPE svg PUBLIC "-//W3C//DTD SVG 1.1//EN" "http://www.w3.org/Graphics/SVG/1.1/DTD/svg11.dtd">
<svg version="1.1" id="Layer_1" xmlns="http://www.w3.org/2000/svg" xmlns:xlink="http://www.w3.org/1999/xlink" x="0px" y="0px"
	 viewBox="140 -140 1000 1000" enable-background="new 140 -140 1000 1000" xml:space="preserve">
<rect x="496" y="216" fill="#FFFFFF" stroke="#16B34C" stroke-miterlimit="10" width="126" height="9"/>
<polygon fill="#FFFFFF" stroke="#16B34C" stroke-miterlimit="10" points="523,432 568,504 523,504 "/>
<polygon fill="#FFFFFF" stroke="#16B34C" stroke-miterlimit="10" points="568,504 523,432 568,432 "/>
<rect x="568" y="432" fill="#FFFFFF" stroke="#16B34C" stroke-miterlimit="10" width="72" height="27"/>
<rect x="604" y="315" fill="#FFFFFF" stroke="#16B34C" stroke-miterlimit="10" width="18" height="117"/>
<g>
	<polygon fill="#FFFFFF" stroke="#16B34C" stroke-miterlimit="10" points="352,216 496,360 496,288 352,144 	"/>
	<polygon fill="#FFFFFF" stroke="#16B34C" stroke-miterlimit="10" points="928,216 784,360 784,288 928,144 	"/>
</g>
<g>
	<polygon fill="#FFFFFF" stroke="#16B34C" stroke-miterlimit="10" points="352,144 496,288 496,216 352,72 	"/>
	<polygon fill="#FFFFFF" stroke="#16B34C" stroke-miterlimit="10" points="352,288 496,432 496,360 352,216 	"/>
	<polygon fill="#FFFFFF" stroke="#16B34C" stroke-miterlimit="10" points="928,144 784,288 784,216 928,72 	"/>
	<polygon fill="#FFFFFF" stroke="#16B34C" stroke-miterlimit="10" points="928,288 784,432 784,360 928,216 	"/>
</g>
<g>
	<rect x="496" y="225" fill="#FFFFFF" stroke="#16B34C" stroke-miterlimit="10" width="18" height="279"/>
	<rect x="766" y="225" fill="#FFFFFF" stroke="#16B34C" stroke-miterlimit="10" width="18" height="279"/>
</g>
<rect x="658" y="216" fill="#FFFFFF" stroke="#16B34C" stroke-miterlimit="10" width="126" height="9"/>
<g>
	<polygon fill="#FFFFFF" stroke="#16B34C" stroke-miterlimit="10" points="469,189 613,189 613,216 496,216 	"/>
	<polygon fill="#FFFFFF" stroke="#16B34C" stroke-miterlimit="10" points="811,189 667,189 667,216 784,216 	"/>
</g>
<g>
	<polygon fill="#FFFFFF" stroke="#16B34C" stroke-miterlimit="10" points="442,162 568,162 568,189 469,189 	"/>
	<polygon fill="#FFFFFF" stroke="#16B34C" stroke-miterlimit="10" points="838,162 712,162 712,189 811,189 	"/>
</g>
<g>
	<polygon fill="#FFFFFF" stroke="#16B34C" stroke-miterlimit="10" points="442,378 496,432 496,603 442,549 	"/>
	<polygon fill="#FFFFFF" stroke="#16B34C" stroke-miterlimit="10" points="838,378 784,432 784,603 838,549 	"/>
</g>
<g>
	<rect x="424" y="504" fill="#FFFFFF" stroke="#16B34C" stroke-miterlimit="10" width="144" height="18"/>
	<rect x="712" y="504" fill="#FFFFFF" stroke="#16B34C" stroke-miterlimit="10" width="144" height="18"/>
</g>
<g>
	<rect x="514" y="360" fill="#FFFFFF" stroke="#16B34C" stroke-miterlimit="10" width="9" height="144"/>
	<rect x="757" y="360" fill="#FFFFFF" stroke="#16B34C" stroke-miterlimit="10" width="9" height="144"/>
</g>
<g>
	<rect x="523" y="288" fill="#FFFFFF" stroke="#16B34C" stroke-miterlimit="10" width="9" height="144"/>
	<rect x="748" y="288" fill="#FFFFFF" stroke="#16B34C" stroke-miterlimit="10" width="9" height="144"/>
</g>
<polygon fill="#FFFFFF" stroke="#16B34C" stroke-miterlimit="10" points="757,432 712,504 757,504 "/>
<polygon fill="#FFFFFF" stroke="#16B34C" stroke-miterlimit="10" points="712,504 757,432 712,432 "/>
<g>
	<rect x="532" y="297" fill="#FFFFFF" stroke="#16B34C" stroke-miterlimit="10" width="36" height="135"/>
	<rect x="712" y="297" fill="#FFFFFF" stroke="#16B34C" stroke-miterlimit="10" width="36" height="135"/>
</g>
<rect x="640" y="432" fill="#FFFFFF" stroke="#16B34C" stroke-miterlimit="10" width="72" height="27"/>
<g>
	<rect x="568" y="360" fill="#FFFFFF" stroke="#16B34C" stroke-miterlimit="10" width="18" height="72"/>
	<rect x="694" y="360" fill="#FFFFFF" stroke="#16B34C" stroke-miterlimit="10" width="18" height="72"/>
</g>
<g>
	<rect x="586" y="297" fill="#FFFFFF" stroke="#16B34C" stroke-miterlimit="10" width="18" height="135"/>
	<rect x="676" y="297" fill="#FFFFFF" stroke="#16B34C" stroke-miterlimit="10" width="18" height="135"/>
</g>
<rect x="658" y="315" fill="#FFFFFF" stroke="#16B34C" stroke-miterlimit="10" width="18" height="117"/>
<g>
	<rect x="514" y="225" fill="#FFFFFF" stroke="#16B34C" stroke-miterlimit="10" width="99" height="27"/>
	<rect x="667" y="225" fill="#FFFFFF" stroke="#16B34C" stroke-miterlimit="10" width="99" height="27"/>
</g>
<g>
	<polygon fill="#FFFFFF" stroke="#16B34C" stroke-miterlimit="10" points="388,324 388,576 397,576 397,333 	"/>
	<polygon fill="#FFFFFF" stroke="#16B34C" stroke-miterlimit="10" points="361,297 361,450 379,450 379,315 	"/>
	<polygon fill="#FFFFFF" stroke="#16B34C" stroke-miterlimit="10" points="892,324 892,576 883,576 883,333 	"/>
	<polygon fill="#FFFFFF" stroke="#16B34C" stroke-miterlimit="10" points="919,297 919,450 901,450 901,315 	"/>
</g>
<g>
	<rect x="568" y="459" fill="#FFFFFF" stroke="#16B34C" stroke-miterlimit="10" width="18" height="117"/>
	<rect x="694" y="459" fill="#FFFFFF" stroke="#16B34C" stroke-miterlimit="10" width="18" height="117"/>
</g>
<g>
	<rect x="586" y="459" fill="#FFFFFF" stroke="#16B34C" stroke-miterlimit="10" width="27" height="45"/>
	<rect x="667" y="459" fill="#FFFFFF" stroke="#16B34C" stroke-miterlimit="10" width="27" height="45"/>
</g>
<g>
	<rect x="586" y="504" fill="#FFFFFF" stroke="#16B34C" stroke-miterlimit="10" width="18" height="117"/>
	<rect x="676" y="504" fill="#FFFFFF" stroke="#16B34C" stroke-miterlimit="10" width="18" height="117"/>
</g>
<g>
	<polygon fill="#FFFFFF" stroke="#16B34C" stroke-miterlimit="10" points="442,549 532,549 532,603 496,603 	"/>
	<polygon fill="#FFFFFF" stroke="#16B34C" stroke-miterlimit="10" points="838,549 748,549 748,603 784,603 	"/>
</g>
<g>
	<polygon fill="#FFFFFF" stroke="#16B34C" stroke-miterlimit="10" points="532,549 631,648 568,648 469,549 	"/>
	<polygon fill="#FFFFFF" stroke="#16B34C" stroke-miterlimit="10" points="748,549 649,648 712,648 811,549 	"/>
</g>
<rect x="649" y="99" fill="#FFFFFF" stroke="#16B34C" stroke-miterlimit="10" width="18" height="549"/>
<rect x="622" y="99" fill="#FFFFFF" stroke="#16B34C" stroke-miterlimit="10" width="18" height="549"/>
<g>
	<polygon fill="#FFFFFF" stroke="#16B34C" stroke-miterlimit="10" points="856,504 838,504 838,234 856,216 	"/>
	<polygon fill="#FFFFFF" stroke="#16B34C" stroke-miterlimit="10" points="424,504 442,504 442,234 424,216 	"/>
</g>
</svg>
