<?xml version="1.0" encoding="utf-8"?>
<!-- Generator: Adobe Illustrator 17.1.0, SVG Export Plug-In . SVG Version: 6.00 Build 0)  -->
<!DOCTYPE svg PUBLIC "-//W3C//DTD SVG 1.1//EN" "http://www.w3.org/Graphics/SVG/1.1/DTD/svg11.dtd">
<svg version="1.1" id="Layer_1" xmlns="http://www.w3.org/2000/svg" xmlns:xlink="http://www.w3.org/1999/xlink" x="0px" y="0px"
	 viewBox="0 0 1136 640" enable-background="new 0 0 1136 640" xml:space="preserve">
<path fill="#FFFFFF" stroke="#E76D2C" stroke-miterlimit="10" d="M721,150c16.568,0,30,13.432,30,30s-13.432,30-30,30V150z"/>
<path fill="#FFFFFF" stroke="#E76D2C" stroke-miterlimit="10" d="M699.5,210c-16.568,0-30-13.432-30-30s13.432-30,30-30V210z"/>
<circle fill="#FFFFFF" stroke="#E76D2C" stroke-miterlimit="10" cx="709.5" cy="179.5" r="5.5"/>
<circle fill="#FFFFFF" stroke="#E76D2C" stroke-miterlimit="10" cx="709.5" cy="232.579" r="16.25"/>
<path fill="#FFFFFF" stroke="#E76D2C" stroke-miterlimit="10" d="M756.523,156.76c5.948,5.948,9.627,14.165,9.627,23.24
	c0,9.076-3.679,17.293-9.627,23.24"/>
<path fill="#FFFFFF" stroke="#E76D2C" stroke-miterlimit="10" d="M662.23,203.24c-5.948-5.948-9.627-14.165-9.627-23.24
	s3.679-17.293,9.627-23.24"/>
<circle fill="#FFFFFF" stroke="#E76D2C" stroke-miterlimit="10" cx="709.5" cy="125.349" r="16.25"/>
<rect x="741" y="216.329" fill="#FFFFFF" stroke="#E76D2C" stroke-miterlimit="10" width="10" height="10"/>
<rect x="741" y="136.599" fill="#FFFFFF" stroke="#E76D2C" stroke-miterlimit="10" width="10" height="10"/>
<rect x="669.5" y="216.329" fill="#FFFFFF" stroke="#E76D2C" stroke-miterlimit="10" width="10" height="10"/>
<rect x="669.5" y="136.599" fill="#FFFFFF" stroke="#E76D2C" stroke-miterlimit="10" width="10" height="10"/>
</svg>
