<?xml version="1.0" encoding="utf-8"?>
<!-- Generator: Adobe Illustrator 17.1.0, SVG Export Plug-In . SVG Version: 6.00 Build 0)  -->
<!DOCTYPE svg PUBLIC "-//W3C//DTD SVG 1.1//EN" "http://www.w3.org/Graphics/SVG/1.1/DTD/svg11.dtd">
<svg version="1.1" id="Layer_1" xmlns="http://www.w3.org/2000/svg" xmlns:xlink="http://www.w3.org/1999/xlink" x="0px" y="0px"
	 viewBox="0 0 500 500" enable-background="new 0 0 500 500" xml:space="preserve">
<path fill="none" stroke="#1DB14C" stroke-width="10" stroke-linecap="round" stroke-linejoin="round" stroke-miterlimit="10" d="
	M212.2,395.9c0,7.2-5.8,13-13,13c-9,0-16.4-7.3-16.4-16.4c0-11.3,9.1-20.4,20.4-20.4c14.1,0,25.6,11.4,25.6,25.6
	c0,17.6-14.3,31.9-31.9,31.9c-22.1,0-39.9-17.9-39.9-39.9c0-27.5,22.3-49.9,49.9-49.9h86.2c27.5,0,49.9,22.3,49.9,49.9
	c0,22.1-17.9,39.9-39.9,39.9c-17.6,0-31.9-14.3-31.9-31.9c0-14.1,11.4-25.6,25.6-25.6c11.3,0,20.4,9.1,20.4,20.4
	c0,9-7.3,16.4-16.4,16.4c-7.2,0-13-5.8-13-13"/>
<line fill="none" stroke="#1DB14C" stroke-width="10" stroke-linecap="round" stroke-linejoin="round" stroke-miterlimit="10" x1="271.2" y1="395.9" x2="228.8" y2="395.9"/>
<path fill="none" stroke="#1DB14C" stroke-width="10" stroke-linecap="round" stroke-linejoin="round" stroke-miterlimit="10" d="
	M287.8,306.1c0,7.2,5.8,13,13,13c9,0,16.4-7.3,16.4-16.4c0-11.3-9.1-20.4-20.4-20.4c-14.1,0-25.6,11.4-25.6,25.6
	c0,17.6,14.3,31.9,31.9,31.9c22.1,0,39.9-17.9,39.9-39.9c0-27.5-22.3-49.9-49.9-49.9h-86.2c-27.5,0-49.9,22.3-49.9,49.9
	c0,22.1,17.9,39.9,39.9,39.9c17.6,0,31.9-14.3,31.9-31.9c0-14.1-11.4-25.6-25.6-25.6c-11.3,0-20.4,9.1-20.4,20.4
	c0,9,7.3,16.4,16.4,16.4c7.2,0,13-5.8,13-13"/>
<line fill="none" stroke="#1DB14C" stroke-width="10" stroke-linecap="round" stroke-linejoin="round" stroke-miterlimit="10" x1="228.8" y1="306.1" x2="271.2" y2="306.1"/>
<path fill="none" stroke="#1DB14C" stroke-width="10" stroke-linecap="round" stroke-linejoin="round" stroke-miterlimit="10" d="
	M287.8,216.3c0,7.2,5.8,13,13,13c9,0,16.4-7.3,16.4-16.4c0-11.3-9.1-20.4-20.4-20.4c-14.1,0-25.6,11.4-25.6,25.6
	c0,17.6,14.3,31.9,31.9,31.9c22.1,0,39.9-17.9,39.9-39.9c0-27.5-22.3-49.9-49.9-49.9h-86.2c-27.5,0-49.9,22.3-49.9,49.9
	c0,22.1,17.9,39.9,39.9,39.9c17.6,0,31.9-14.3,31.9-31.9c0-14.1-11.4-25.6-25.6-25.6c-11.3,0-20.4,9.1-20.4,20.4
	c0,9,7.3,16.4,16.4,16.4c7.2,0,13-5.8,13-13"/>
<line fill="none" stroke="#1DB14C" stroke-width="10" stroke-linecap="round" stroke-linejoin="round" stroke-miterlimit="10" x1="228.8" y1="216.3" x2="271.2" y2="216.3"/>
<path fill="none" stroke="#1DB14C" stroke-width="10" stroke-linecap="round" stroke-linejoin="round" stroke-miterlimit="10" d="
	M287.8,126.4c0,7.2,5.8,13,13,13c9,0,16.4-7.3,16.4-16.4c0-11.3-9.1-20.4-20.4-20.4c-14.1,0-25.6,11.4-25.6,25.6
	c0,17.6,14.3,31.9,31.9,31.9c22.1,0,39.9-17.9,39.9-39.9c0-27.5-22.3-49.9-49.9-49.9h-86.2c-27.5,0-49.9,22.3-49.9,49.9
	c0,22.1,17.9,39.9,39.9,39.9c17.6,0,31.9-14.3,31.9-31.9c0-14.1-11.4-25.6-25.6-25.6c-11.3,0-20.4,9.1-20.4,20.4
	c0,9,7.3,16.4,16.4,16.4c7.2,0,13-5.8,13-13"/>
<line fill="none" stroke="#1DB14C" stroke-width="10" stroke-linecap="round" stroke-linejoin="round" stroke-miterlimit="10" x1="228.8" y1="126.4" x2="271.2" y2="126.4"/>
</svg>
