<?xml version="1.0" encoding="utf-8"?>
<!-- Generator: Adobe Illustrator 17.1.0, SVG Export Plug-In . SVG Version: 6.00 Build 0)  -->
<!DOCTYPE svg PUBLIC "-//W3C//DTD SVG 1.1//EN" "http://www.w3.org/Graphics/SVG/1.1/DTD/svg11.dtd">
<svg version="1.1" id="Layer_1" xmlns="http://www.w3.org/2000/svg" xmlns:xlink="http://www.w3.org/1999/xlink" x="0px" y="0px"
	 viewBox="0 0 1000 1000" enable-background="new 0 0 1000 1000" xml:space="preserve">
<path fill="#231F20" d="M500.1,335.1c-0.1-1.4,0.9-2.6,2.3-2.7l0,0c1.4-0.1,2.6,0.9,2.7,2.3l0,0c0.1,1.4-0.9,2.6-2.3,2.7l0,0
	c-0.1,0-0.2,0-0.2,0l0,0C501.3,337.4,500.2,336.4,500.1,335.1z M492.1,336.5c-1.3-0.3-2.1-1.7-1.8-3l0,0c0.3-1.3,1.7-2.2,3-1.8l0,0
	c1.3,0.3,2.2,1.7,1.8,3l0,0c-0.3,1.1-1.3,1.9-2.4,1.9l0,0C492.5,336.6,492.3,336.6,492.1,336.5z M509.8,333.5
	c-0.6-1.3,0-2.7,1.3-3.3l0,0c1.3-0.6,2.7,0,3.3,1.3l0,0c0.6,1.3,0,2.7-1.3,3.3l0,0c-0.3,0.1-0.7,0.2-1,0.2l0,0
	C511.2,334.9,510.3,334.4,509.8,333.5z M482.3,332.3c-1.2-0.8-1.5-2.3-0.7-3.5l0,0c0.8-1.2,2.3-1.5,3.5-0.7l0,0
	c1.1,0.8,1.5,2.3,0.7,3.5l0,0c-0.5,0.7-1.3,1.1-2.1,1.1l0,0C483.2,332.7,482.7,332.5,482.3,332.3z M518.5,328.7
	c-0.9-1-0.9-2.6,0.1-3.5l0,0c1-0.9,2.6-0.9,3.5,0.1l0,0c0.9,1,0.9,2.6-0.1,3.5l0,0c-0.5,0.4-1.1,0.7-1.7,0.7l0,0
	C519.7,329.5,519,329.2,518.5,328.7z M474.4,325.1c-0.9-1.1-0.7-2.7,0.4-3.5l0,0c1.1-0.9,2.7-0.7,3.5,0.4l0,0
	c0.9,1.1,0.7,2.6-0.4,3.5l0,0c-0.5,0.4-1,0.5-1.6,0.5l0,0C475.6,326,474.9,325.7,474.4,325.1z M525.2,321.4c-1.2-0.6-1.7-2.2-1-3.4
	l0,0c0.7-1.2,2.2-1.7,3.4-1l0,0c1.2,0.7,1.7,2.2,1,3.4l0,0c-0.5,0.8-1.3,1.3-2.2,1.3l0,0C526,321.7,525.6,321.6,525.2,321.4z
	 M469.3,315.7L469.3,315.7L469.3,315.7c-0.5-1.3,0.2-2.7,1.5-3.2l0,0c1.3-0.4,2.7,0.2,3.2,1.5l0,0c0.4,1.3-0.2,2.7-1.5,3.2l0,0
	c-0.3,0.1-0.6,0.1-0.8,0.1l0,0C470.6,317.3,469.6,316.7,469.3,315.7z M529.2,312.3c-1.4-0.2-2.3-1.5-2.1-2.9l0,0
	c0.2-1.4,1.5-2.3,2.9-2.1l0,0c1.4,0.2,2.3,1.5,2.1,2.9l0,0c-0.2,1.2-1.3,2.1-2.5,2.1l0,0C529.5,312.4,529.3,312.4,529.2,312.3z
	 M467.5,305.1C467.5,305.1,467.5,305.1,467.5,305.1L467.5,305.1c0-0.1,0-0.1,0-0.1l0,0c0-1.4,1.1-2.5,2.5-2.5l0,0
	c1.4,0,2.5,1.1,2.5,2.5l0,0c0,0,0,0,0,0.1l0,0c0,0,0,0,0,0l0,0c0,1.4-1.1,2.5-2.5,2.5l0,0h0l0,0
	C468.6,307.6,467.5,306.5,467.5,305.1z M527.1,300.4c-0.2-1.4,0.7-2.6,2-2.9l0,0c1.4-0.2,2.6,0.7,2.9,2l0,0c0.2,1.4-0.7,2.6-2,2.9
	l0,0c-0.1,0-0.3,0-0.4,0l0,0C528.4,302.5,527.3,301.6,527.1,300.4z M470.8,297.6c-1.3-0.4-2-1.9-1.5-3.2l0,0l0,0l0,0
	c0.4-1.3,1.9-2,3.2-1.5l0,0c1.3,0.4,2,1.9,1.6,3.2l0,0c-0.4,1-1.3,1.7-2.4,1.7l0,0C471.3,297.8,471.1,297.7,470.8,297.6z
	 M524.2,291.9L524.2,291.9c-0.7-1.2-0.2-2.7,1-3.4l0,0c1.2-0.7,2.7-0.2,3.4,1l0,0c0.7,1.2,0.2,2.7-1,3.4l0,0
	c-0.4,0.2-0.8,0.3-1.2,0.3l0,0C525.5,293.2,524.6,292.7,524.2,291.9z M474.8,288.5c-1.1-0.9-1.3-2.4-0.4-3.5l0,0
	c0.8-1.1,2.4-1.3,3.5-0.4l0,0c1.1,0.9,1.3,2.4,0.4,3.5l0,0c-0.5,0.6-1.2,1-2,1l0,0C475.8,289.1,475.2,288.9,474.8,288.5z
	 M518.6,284.7c-1-0.9-1.1-2.5-0.1-3.5l0,0c0.9-1,2.5-1.1,3.5-0.1l0,0c1,0.9,1.1,2.5,0.2,3.5l0,0c-0.5,0.5-1.2,0.8-1.8,0.8l0,0
	C519.7,285.4,519.1,285.2,518.6,284.7z M481.5,281.3c-0.8-1.1-0.4-2.7,0.7-3.5l0,0c1.1-0.8,2.7-0.4,3.5,0.7l0,0
	c0.8,1.2,0.4,2.7-0.7,3.5l0,0c-0.4,0.3-0.9,0.4-1.4,0.4l0,0C482.8,282.4,482,282,481.5,281.3z M511,279.8c-1.3-0.6-1.8-2-1.3-3.3
	l0,0c0.6-1.3,2-1.8,3.3-1.3l0,0l0,0l0,0c1.3,0.6,1.8,2,1.3,3.3l0,0c-0.4,0.9-1.3,1.5-2.3,1.5l0,0C511.7,280,511.3,279.9,511,279.8z
	 M490.2,276.5c-0.3-1.3,0.5-2.7,1.8-3l0,0c1.3-0.3,2.7,0.5,3,1.8l0,0c0.3,1.3-0.5,2.7-1.8,3l0,0c-0.2,0-0.4,0.1-0.6,0.1l0,0
	C491.5,278.4,490.5,277.7,490.2,276.5z M502.2,277.6c-1.4-0.1-2.4-1.3-2.3-2.7l0,0c0.1-1.4,1.3-2.4,2.7-2.3l0,0
	c1.4,0.1,2.4,1.3,2.3,2.7l0,0c-0.1,1.3-1.2,2.3-2.5,2.3l0,0C502.4,277.6,502.3,277.6,502.2,277.6z"/>
<path fill="#231F20" d="M550,467.5c-6.9,0-12.5-5.6-12.5-12.5s5.6-12.5,12.5-12.5s12.5,5.6,12.5,12.5S556.9,467.5,550,467.5z
	 M550,447.5c-4.1,0-7.5,3.4-7.5,7.5s3.4,7.5,7.5,7.5s7.5-3.4,7.5-7.5S554.1,447.5,550,447.5z"/>
<path fill="#231F20" d="M450,467.5c-6.9,0-12.5-5.6-12.5-12.5s5.6-12.5,12.5-12.5s12.5,5.6,12.5,12.5S456.9,467.5,450,467.5z
	 M450,447.5c-4.1,0-7.5,3.4-7.5,7.5s3.4,7.5,7.5,7.5s7.5-3.4,7.5-7.5S454.1,447.5,450,447.5z"/>
<path fill="#231F20" d="M495,597.3c-1.4-0.1-2.4-1.3-2.3-2.7l0,0c0.1-1.4,1.3-2.4,2.7-2.3l0,0c1.4,0.1,2.4,1.3,2.3,2.7l0,0
	c-0.1,1.3-1.2,2.3-2.5,2.3l0,0C495.1,597.3,495.1,597.3,495,597.3z M502.6,595c-0.1-1.4,0.9-2.6,2.3-2.7l0,0
	c1.4-0.1,2.6,0.9,2.7,2.3l0,0c0.1,1.4-0.9,2.6-2.3,2.7l0,0l0,0l0,0c-0.1,0-0.1,0-0.2,0l0,0C503.8,597.3,502.7,596.3,502.6,595z
	 M484.8,595.6c-1.3-0.3-2.2-1.7-1.8-3l0,0c0.3-1.3,1.7-2.2,3-1.8h0c1.3,0.3,2.1,1.7,1.8,3l0,0c-0.3,1.1-1.3,1.9-2.4,1.9l0,0
	C485.2,595.7,485,595.7,484.8,595.6z M512.5,593.8c-0.3-1.3,0.5-2.7,1.8-3l0,0c1.3-0.3,2.7,0.5,3,1.8l0,0c0.3,1.3-0.5,2.7-1.8,3l0,0
	c-0.2,0-0.4,0.1-0.6,0.1l0,0C513.8,595.6,512.8,594.9,512.5,593.8z M475.1,592.3c-1.3-0.5-1.9-2-1.3-3.3l0,0c0.5-1.3,2-1.8,3.3-1.3
	l0,0c1.3,0.5,1.8,2,1.3,3.3l0,0c-0.4,0.9-1.3,1.5-2.3,1.5l0,0C475.7,592.5,475.4,592.5,475.1,592.3z M522,590.9
	c-0.6-1.3,0-2.7,1.3-3.3l0,0c1.3-0.6,2.7,0,3.3,1.3l0,0c0.6,1.3,0,2.7-1.3,3.3l0,0c-0.3,0.1-0.7,0.2-1,0.2l0,0
	C523.3,592.4,522.4,591.8,522,590.9z M466,587.4L466,587.4L466,587.4c-1.2-0.8-1.5-2.3-0.7-3.5l0,0c0.8-1.2,2.3-1.5,3.5-0.7l0,0
	c1.1,0.8,1.5,2.3,0.7,3.5l0,0c-0.5,0.7-1.3,1.1-2.1,1.1l0,0C466.9,587.8,466.4,587.7,466,587.4z M530.8,586.5
	c-0.8-1.2-0.4-2.7,0.7-3.5l0,0c1.2-0.8,2.7-0.4,3.5,0.7l0,0c0.8,1.2,0.4,2.7-0.7,3.5l0,0c-0.4,0.3-0.9,0.4-1.4,0.4l0,0
	C532.1,587.7,531.3,587.3,530.8,586.5z M457.8,581.1c-1-0.9-1.1-2.5-0.2-3.5l0,0c0.9-1,2.5-1.1,3.5-0.2l0,0c1,0.9,1.1,2.5,0.1,3.5
	l0,0c-0.5,0.5-1.2,0.8-1.8,0.8l0,0C458.9,581.8,458.3,581.5,457.8,581.1z M538.9,580.8c-0.9-1-0.9-2.6,0.1-3.5l0,0
	c1-0.9,2.6-0.9,3.5,0.1l0,0c0.9,1,0.9,2.6-0.1,3.5l0,0c0,0,0,0,0,0l0,0c-0.5,0.4-1.1,0.7-1.7,0.7l0,0
	C540.1,581.5,539.4,581.3,538.9,580.8z M450.8,573.5c-0.9-1.1-0.7-2.7,0.4-3.5l0,0c1.1-0.9,2.7-0.7,3.5,0.4l0,0
	c0.9,1.1,0.7,2.7-0.4,3.5l0,0c-0.5,0.4-1,0.5-1.5,0.5l0,0C452,574.5,451.3,574.2,450.8,573.5z M545.9,573.7
	c-1.1-0.8-1.3-2.4-0.4-3.5l0,0c0.8-1.1,2.4-1.3,3.5-0.5l0,0c1.1,0.9,1.3,2.4,0.5,3.5l0,0c-0.5,0.6-1.2,1-2,1l0,0
	C546.9,574.2,546.3,574.1,545.9,573.7z M445.1,564.9c-0.7-1.2-0.2-2.7,1-3.4l0,0c1.2-0.7,2.7-0.2,3.4,1l0,0c0.7,1.2,0.2,2.7-1,3.4
	l0,0c-0.4,0.2-0.8,0.3-1.2,0.3l0,0C446.4,566.2,445.6,565.8,445.1,564.9z M551.6,565.6c-1.2-0.7-1.7-2.2-1-3.4l0,0
	c0.7-1.2,2.2-1.7,3.4-1l0,0c1.2,0.6,1.7,2.2,1,3.4l0,0c0,0,0,0,0,0l0,0c-0.5,0.8-1.3,1.3-2.2,1.3l0,0
	C552.4,566,552,565.8,551.6,565.6z M440.9,555.5c-0.5-1.3,0.2-2.7,1.5-3.2l0,0c1.3-0.4,2.7,0.2,3.2,1.6l0,0c0.4,1.3-0.2,2.7-1.5,3.2
	l0,0c-0.3,0.1-0.6,0.1-0.8,0.1l0,0C442.3,557.2,441.3,556.5,440.9,555.5z M556,556.7c-1.3-0.4-2-1.9-1.6-3.2l0,0
	c0.4-1.3,1.9-2,3.2-1.6l0,0c1.3,0.5,2,1.9,1.6,3.2l0,0c-0.4,1-1.3,1.7-2.4,1.7l0,0C556.5,556.9,556.3,556.8,556,556.7z M438.4,545.5
	c-0.2-1.4,0.7-2.7,2-2.9l0,0c1.4-0.2,2.6,0.7,2.9,2l0,0c0.2,1.4-0.7,2.7-2.1,2.9l0,0c-0.1,0-0.3,0-0.4,0l0,0
	C439.6,547.6,438.6,546.7,438.4,545.5z M558.8,547.2c-1.4-0.2-2.3-1.5-2.1-2.9v0c0.2-1.4,1.5-2.3,2.9-2.1l0,0
	c1.4,0.2,2.3,1.5,2.1,2.9l0,0l0,0l0,0c-0.2,1.2-1.3,2.1-2.5,2.1l0,0C559.1,547.3,558.9,547.2,558.8,547.2z M437.5,535.2
	c0,0,0-0.1,0-0.1l0,0c0,0,0-0.1,0-0.1l0,0c0-1.4,1.1-2.5,2.5-2.5l0,0c1.4,0,2.5,1.1,2.5,2.5l0,0c0,0,0,0.1,0,0.1l0,0
	c0,0,0,0.1,0,0.1v0c0,1.4-1.1,2.5-2.5,2.5l0,0h0l0,0C438.6,537.7,437.5,536.6,437.5,535.2z M557.5,534.9c0-1.4,1.1-2.5,2.5-2.5l0,0
	c1.4,0,2.5,1.1,2.5,2.5l0,0c0,1.4-1.1,2.5-2.5,2.5l0,0C558.6,537.4,557.5,536.3,557.5,534.9z M437.5,535.2L437.5,535.2L437.5,535.2
	L437.5,535.2L437.5,535.2L437.5,535.2z M562.5,534.9L562.5,534.9L562.5,534.9L562.5,534.9L562.5,534.9L562.5,534.9z M440.4,527.6
	c-1.4-0.2-2.3-1.5-2.1-2.9l0,0c0.2-1.4,1.5-2.3,2.9-2.1l0,0c1.4,0.2,2.3,1.5,2.1,2.9l0,0c-0.2,1.2-1.3,2.1-2.5,2.1l0,0
	C440.7,527.6,440.5,527.6,440.4,527.6z M556.7,525.4c-0.2-1.4,0.7-2.6,2-2.9l0,0c1.4-0.2,2.7,0.7,2.9,2l0,0c0.2,1.4-0.7,2.7-2,2.9
	l0,0c-0.1,0-0.3,0-0.4,0l0,0C558,527.5,556.9,526.6,556.7,525.4z M442.4,517.9c-1.3-0.5-2-1.9-1.6-3.2l0,0c0.4-1.3,1.9-2,3.2-1.5
	l0,0c1.3,0.4,2,1.9,1.6,3.2l0,0c-0.4,1-1.3,1.7-2.4,1.7l0,0C443,518,442.7,518,442.4,517.9z M554.4,516.2c-0.5-1.3,0.2-2.7,1.5-3.2
	l0,0c1.3-0.5,2.7,0.2,3.2,1.5l0,0c0.5,1.3-0.2,2.7-1.5,3.2l0,0c-0.3,0.1-0.5,0.1-0.8,0.1l0,0C555.7,517.9,554.7,517.3,554.4,516.2z
	 M446,508.6c-1.2-0.7-1.7-2.2-1-3.4l0,0c0.6-1.2,2.2-1.7,3.4-1l0,0c1.2,0.7,1.7,2.2,1,3.4l0,0c-0.4,0.8-1.3,1.3-2.2,1.3l0,0
	C446.8,509,446.4,508.8,446,508.6z M550.5,507.6L550.5,507.6c-0.7-1.2-0.2-2.7,1-3.4l0,0c1.2-0.7,2.7-0.2,3.4,1l0,0c0,0,0,0,0,0l0,0
	c0.7,1.2,0.2,2.7-1,3.4l0,0c-0.4,0.2-0.8,0.3-1.2,0.3l0,0C551.8,508.9,551,508.4,550.5,507.6z M451.1,500.1
	c-1.1-0.9-1.3-2.4-0.4-3.5l0,0c0.8-1.1,2.4-1.3,3.5-0.4l0,0c1.1,0.9,1.3,2.4,0.4,3.5l0,0c-0.5,0.6-1.2,1-2,1l0,0
	C452.1,500.7,451.6,500.5,451.1,500.1z M545.3,499.6c-0.9-1.1-0.7-2.7,0.4-3.5l0,0c1.1-0.9,2.7-0.6,3.5,0.4l0,0
	c0.9,1.1,0.7,2.7-0.4,3.5l0,0c-0.5,0.4-1,0.5-1.5,0.5l0,0C546.6,500.6,545.8,500.2,545.3,499.6z M457.5,492.6
	c-0.9-1-0.9-2.6,0.1-3.5l0,0c1-0.9,2.6-0.9,3.5,0.1l0,0c0.9,1,0.9,2.6-0.1,3.5l0,0c-0.5,0.4-1.1,0.7-1.7,0.7l0,0
	C458.7,493.4,458,493.1,457.5,492.6z M538.9,492.6c-1-0.9-1.1-2.5-0.1-3.5l0,0c0.9-1,2.5-1.1,3.5-0.1l0,0c1,0.9,1.1,2.5,0.2,3.5l0,0
	c-0.5,0.5-1.2,0.8-1.8,0.8l0,0C540,493.3,539.4,493.1,538.9,492.6z M465.1,486.1c-0.8-1.1-0.4-2.7,0.7-3.5l0,0
	c1.2-0.8,2.7-0.4,3.5,0.7l0,0c0.8,1.2,0.4,2.7-0.7,3.5l0,0c-0.4,0.3-0.9,0.4-1.4,0.4l0,0C466.3,487.3,465.5,486.9,465.1,486.1z
	 M531.4,486.8c-1.1-0.8-1.5-2.3-0.7-3.5l0,0c0.8-1.2,2.3-1.5,3.5-0.7l0,0c1.2,0.8,1.5,2.3,0.7,3.5l0,0c-0.5,0.7-1.3,1.1-2.1,1.1l0,0
	C532.3,487.2,531.8,487.1,531.4,486.8z M473.6,481.1c-0.6-1.3,0-2.7,1.3-3.3l0,0c1.3-0.6,2.7,0,3.3,1.3l0,0c0.5,1.3,0,2.7-1.3,3.3
	l0,0c-0.3,0.1-0.7,0.2-1,0.2l0,0C474.9,482.6,474,482,473.6,481.1z M523,482.3c-1.3-0.5-1.8-2-1.3-3.3l0,0c0.6-1.3,2-1.8,3.3-1.3
	l0,0c1.3,0.6,1.8,2,1.3,3.3l0,0c-0.4,0.9-1.3,1.5-2.3,1.5l0,0C523.7,482.5,523.4,482.4,523,482.3z M482.8,477.4
	c-0.3-1.3,0.5-2.7,1.8-3l0,0l0,0l0,0c1.3-0.3,2.7,0.5,3,1.8l0,0c0.3,1.3-0.5,2.7-1.8,3l0,0c-0.2,0.1-0.4,0.1-0.6,0.1l0,0
	C484.1,479.3,483.1,478.6,482.8,477.4z M514.1,479.2c-1.3-0.3-2.1-1.7-1.8-3l0,0c0.3-1.3,1.7-2.2,3-1.8l0,0c1.3,0.3,2.1,1.7,1.8,3
	l0,0c-0.3,1.1-1.3,1.9-2.4,1.9l0,0C514.5,479.3,514.3,479.3,514.1,479.2z M492.5,475.4c-0.1-1.4,0.9-2.6,2.3-2.7l0,0c0,0,0,0,0,0
	l0,0c1.4-0.1,2.6,0.9,2.7,2.3l0,0c0.1,1.4-0.9,2.6-2.3,2.7l0,0c-0.1,0-0.1,0-0.2,0l0,0C493.7,477.7,492.6,476.7,492.5,475.4z
	 M504.7,477.7L504.7,477.7c-1.4-0.1-2.4-1.3-2.3-2.7l0,0c0.1-1.4,1.3-2.4,2.7-2.3l0,0c1.4,0.1,2.4,1.3,2.3,2.7l0,0
	c-0.1,1.3-1.2,2.3-2.5,2.3l0,0C504.8,477.7,504.8,477.7,504.7,477.7z"/>
<polygon fill="#231F20" points="452.5,455 447.5,455 447.5,354 468.2,333.2 471.8,336.8 452.5,356 "/>
<polygon fill="#231F20" points="552.5,455 547.5,455 547.5,356 528.2,336.8 531.8,333.2 552.5,354 "/>
<polygon fill="#231F20" points="648.4,366.9 589.1,317.5 540,317.5 540,312.5 590.9,312.5 651.6,363.1 "/>
<polygon fill="#231F20" points="590.9,297.5 540,297.5 540,292.5 589.1,292.5 648.4,243.1 651.6,246.9 "/>
<polygon fill="#231F20" points="460,297.5 409.1,297.5 348.4,246.9 351.6,243.1 410.9,292.5 460,292.5 "/>
<polygon fill="#231F20" points="351.6,366.9 348.4,363.1 409.1,312.5 460,312.5 460,317.5 410.9,317.5 "/>
<rect x="499.3" y="602.5" transform="matrix(0.7071 0.7071 -0.7071 0.7071 594.7488 -225.8505)" fill="#231F20" width="141.4" height="5"/>
<rect x="427.5" y="534.3" transform="matrix(0.7071 0.7071 -0.7071 0.7071 553.7437 -126.8555)" fill="#231F20" width="5" height="141.4"/>
<rect x="487.5" y="355" fill="#231F20" width="5" height="360"/>
<rect x="507.5" y="355" fill="#231F20" width="5" height="360"/>
<rect x="497.5" y="505" fill="#231F20" width="5" height="250"/>
<rect x="627.5" y="555" fill="#231F20" width="5" height="200"/>
<rect x="367.5" y="555" fill="#231F20" width="5" height="200"/>
<rect x="607.6" y="482.5" transform="matrix(0.7071 0.7071 -0.7071 0.7071 533.3274 -317.5662)" fill="#231F20" width="84.9" height="5"/>
<rect x="400" y="352.5" fill="#231F20" width="20" height="5"/>
<rect x="400" y="372.5" fill="#231F20" width="20" height="5"/>
<rect x="400" y="392.5" fill="#231F20" width="20" height="5"/>
<rect x="400" y="412.5" fill="#231F20" width="20" height="5"/>
<rect x="400" y="432.5" fill="#231F20" width="20" height="5"/>
<rect x="580" y="352.5" fill="#231F20" width="20" height="5"/>
<rect x="580" y="372.5" fill="#231F20" width="20" height="5"/>
<rect x="580" y="392.5" fill="#231F20" width="20" height="5"/>
<rect x="580" y="412.5" fill="#231F20" width="20" height="5"/>
<rect x="580" y="432.5" fill="#231F20" width="20" height="5"/>
<rect x="563.4" y="512.5" transform="matrix(0.7071 0.7071 -0.7071 0.7071 545.7538 -287.5662)" fill="#231F20" width="113.1" height="5"/>
<rect x="347.5" y="442.6" transform="matrix(0.7071 0.7071 -0.7071 0.7071 445.4594 -105.4342)" fill="#231F20" width="5" height="84.9"/>
<rect x="377.5" y="458.4" transform="matrix(0.7071 0.7071 -0.7071 0.7071 475.4594 -117.8606)" fill="#231F20" width="5" height="113.1"/>
</svg>
