<?xml version="1.0" encoding="utf-8"?>
<!-- Generator: Adobe Illustrator 17.1.0, SVG Export Plug-In . SVG Version: 6.00 Build 0)  -->
<!DOCTYPE svg PUBLIC "-//W3C//DTD SVG 1.1//EN" "http://www.w3.org/Graphics/SVG/1.1/DTD/svg11.dtd">
<svg version="1.1" id="Layer_1" xmlns="http://www.w3.org/2000/svg" xmlns:xlink="http://www.w3.org/1999/xlink" x="0px" y="0px"
	 viewBox="0 0 1000 1000" enable-background="new 0 0 1000 1000" xml:space="preserve">
<g>
	<path fill="#231F20" d="M780,202.5c0.7,0,1.3-0.3,1.8-0.7c0.5-0.5,0.7-1.1,0.7-1.8c0-0.7-0.3-1.3-0.7-1.8c-0.9-0.9-2.6-0.9-3.5,0
		c-0.5,0.5-0.7,1.1-0.7,1.8c0,0.7,0.3,1.3,0.7,1.8C778.7,202.2,779.3,202.5,780,202.5z"/>
	<path fill="#231F20" d="M280.4,373.8c-1.1,0.9-1.2,2.4-0.4,3.5c0.5,0.6,1.2,0.9,1.9,0.9c0.6,0,1.1-0.2,1.6-0.6
		c1.1-0.9,1.2-2.4,0.4-3.5C283.1,373.1,281.5,372.9,280.4,373.8z"/>
	<path fill="#231F20" d="M293.4,389c-1,0.9-1.1,2.5-0.1,3.5c0.5,0.5,1.2,0.8,1.8,0.8c0.6,0,1.2-0.2,1.7-0.7c1-1,1.1-2.5,0.1-3.5
		C296,388.1,294.4,388.1,293.4,389z"/>
	<path fill="#231F20" d="M274.4,365.9c-1.1,0.8-1.3,2.4-0.5,3.5c0.5,0.7,1.2,1,2,1c0.5,0,1-0.2,1.5-0.5c1.1-0.8,1.3-2.4,0.5-3.5
		C277,365.3,275.5,365,274.4,365.9z"/>
	<path fill="#231F20" d="M268.6,357.7c-1.1,0.8-1.4,2.4-0.6,3.5c0.5,0.7,1.3,1.1,2,1.1c0.5,0,1-0.1,1.4-0.5c1.1-0.8,1.4-2.3,0.6-3.5
		C271.3,357.2,269.7,356.9,268.6,357.7z"/>
	<path fill="#231F20" d="M318.3,409.8c-1-0.9-2.6-0.8-3.5,0.2c-0.9,1-0.8,2.6,0.2,3.5c0.5,0.4,1.1,0.6,1.6,0.6
		c0.7,0,1.4-0.3,1.9-0.9C319.5,412.2,319.3,410.7,318.3,409.8L318.3,409.8z"/>
	<path fill="#231F20" d="M307.4,403.3c-0.9,1-0.9,2.6,0.1,3.5c0.5,0.4,1.1,0.7,1.7,0.7c0.7,0,1.3-0.3,1.8-0.8c0.9-1,0.9-2.6-0.1-3.5
		C309.9,402.2,308.3,402.2,307.4,403.3z"/>
	<path fill="#231F20" d="M300.3,396.3c-1,1-1,2.6,0,3.5c0.5,0.5,1.1,0.7,1.8,0.7c0.6,0,1.3-0.2,1.8-0.7c1-1,1-2.6,0-3.5
		C302.8,395.3,301.2,395.3,300.3,396.3z"/>
	<path fill="#231F20" d="M711.5,385.9c0.7,0,1.4-0.3,1.9-0.9c0.9-1,0.8-2.6-0.2-3.5c-1-0.9-2.6-0.8-3.5,0.2c-0.9,1-0.8,2.6,0.2,3.5
		C710.4,385.7,711,385.9,711.5,385.9z"/>
	<path fill="#231F20" d="M683.3,414.2c0.6,0,1.2-0.2,1.6-0.6c1-0.9,1.2-2.5,0.2-3.5c-0.9-1.1-2.5-1.2-3.5-0.3l0,0
		c-1,0.9-1.1,2.5-0.2,3.5C681.9,413.9,682.6,414.2,683.3,414.2z"/>
	<path fill="#231F20" d="M324.3,420.6c0.7,0,1.5-0.3,2-0.9c0.9-1.1,0.7-2.6-0.4-3.5c-1.1-0.9-2.6-0.7-3.5,0.4
		c-0.9,1.1-0.7,2.6,0.4,3.5C323.2,420.4,323.8,420.6,324.3,420.6z"/>
	<path fill="#231F20" d="M722.6,369.9c0.5,0.3,1,0.5,1.5,0.5c0.8,0,1.5-0.3,2-1c0.8-1.1,0.6-2.7-0.5-3.5c-1.1-0.8-2.7-0.6-3.5,0.5
		C721.3,367.5,721.5,369.1,722.6,369.9z"/>
	<path fill="#231F20" d="M716.4,377.7c0.5,0.4,1,0.6,1.6,0.6c0.7,0,1.5-0.3,2-0.9c0.9-1.1,0.7-2.6-0.4-3.5c-1.1-0.9-2.6-0.7-3.5,0.4
		C715.1,375.3,715.3,376.8,716.4,377.7z"/>
	<path fill="#231F20" d="M690.7,407.5c0.6,0,1.2-0.2,1.7-0.7c1-0.9,1.1-2.5,0.1-3.5c-1-1-2.5-1.1-3.5-0.1c-1,0.9-1.1,2.5-0.1,3.5
		C689.4,407.2,690.1,407.5,690.7,407.5z"/>
	<path fill="#231F20" d="M697.9,400.6c0.6,0,1.3-0.2,1.8-0.7c1-1,1-2.6,0-3.5c-1-1-2.6-1-3.5,0c-1,1-1,2.6,0,3.5
		C696.6,400.3,697.3,400.6,697.9,400.6z"/>
	<path fill="#231F20" d="M704.9,393.4c0.7,0,1.3-0.3,1.8-0.8c0.9-1,0.9-2.6-0.1-3.5c-1-1-2.6-0.9-3.5,0.1c-0.9,1-0.9,2.6,0.1,3.5
		C703.6,393.1,704.2,393.4,704.9,393.4z"/>
	<path fill="#231F20" d="M480,481.8c0.1,0,0.1,0,0.2,0c1.3,0,2.4-1,2.5-2.3c0.1-1.4-0.9-2.6-2.3-2.7v0c-1.4-0.1-2.6,0.9-2.7,2.3
		C477.6,480.5,478.6,481.7,480,481.8z"/>
	<path fill="#231F20" d="M520.1,481.8c0.1,0,0.1,0,0.2,0c1.4-0.1,2.4-1.3,2.3-2.7c-0.1-1.4-1.3-2.4-2.7-2.3
		c-1.4,0.1-2.4,1.3-2.3,2.7C517.7,480.8,518.8,481.8,520.1,481.8z"/>
	<path fill="#231F20" d="M500.1,482.5c1.4,0,2.5-1.1,2.5-2.5c0-1.4-1.1-2.5-2.5-2.5h0c-1.4,0-2.5,1.1-2.5,2.5
		C497.6,481.4,498.8,482.5,500.1,482.5z"/>
	<path fill="#231F20" d="M609.6,457.8c-0.5-1.3-2-1.9-3.3-1.4c-1.3,0.5-1.9,2-1.4,3.3c0.4,1,1.3,1.5,2.3,1.5c0.3,0,0.6-0.1,1-0.2
		c0,0,0,0,0,0C609.5,460.5,610.1,459,609.6,457.8z"/>
	<path fill="#231F20" d="M590.9,464.9c-0.4-1.3-1.9-2-3.2-1.6c-1.3,0.4-2,1.9-1.6,3.2c0.4,1,1.3,1.7,2.4,1.7c0.3,0,0.5,0,0.8-0.1
		C590.6,467.6,591.4,466.2,590.9,464.9z"/>
	<path fill="#231F20" d="M600.3,461.5c-0.5-1.3-1.9-2-3.2-1.5c-1.3,0.5-2,1.9-1.5,3.2c0.4,1,1.3,1.6,2.3,1.6c0.3,0,0.6-0.1,0.9-0.2
		C600.1,464.2,600.8,462.8,600.3,461.5z"/>
	<path fill="#231F20" d="M581.4,468c-0.4-1.3-1.8-2.1-3.1-1.7c-1.3,0.4-2.1,1.8-1.7,3.1c0.3,1.1,1.3,1.8,2.4,1.8
		c0.2,0,0.5,0,0.7-0.1C581,470.7,581.8,469.3,581.4,468z"/>
	<path fill="#231F20" d="M728.5,361.8c0.4,0.3,0.9,0.5,1.4,0.5c0.8,0,1.6-0.4,2.1-1.1c0.8-1.1,0.5-2.7-0.6-3.5
		c-1.1-0.8-2.7-0.5-3.5,0.6C727.1,359.5,727.4,361,728.5,361.8z"/>
	<path fill="#231F20" d="M375.8,448.2c-1.2-0.6-2.7-0.1-3.4,1.1c-0.6,1.2-0.1,2.7,1.1,3.4c0.4,0.2,0.7,0.3,1.1,0.3
		c0.9,0,1.8-0.5,2.2-1.4C377.6,450.4,377.1,448.9,375.8,448.2z"/>
	<path fill="#231F20" d="M358.4,438.7c-1.2-0.7-2.7-0.3-3.4,0.9c-0.7,1.2-0.3,2.7,0.9,3.4c0.4,0.2,0.8,0.4,1.3,0.4
		c0.9,0,1.7-0.4,2.1-1.2C360,441,359.6,439.4,358.4,438.7z"/>
	<path fill="#231F20" d="M350,433.5c-1.2-0.7-2.7-0.4-3.4,0.8c-0.8,1.2-0.4,2.7,0.8,3.5c0.4,0.3,0.9,0.4,1.3,0.4
		c0.8,0,1.6-0.4,2.1-1.1C351.5,435.8,351.2,434.3,350,433.5z"/>
	<path fill="#231F20" d="M618.7,453.7c-0.6-1.2-2.1-1.8-3.3-1.2c-1.2,0.6-1.8,2.1-1.2,3.3c0.4,0.9,1.3,1.5,2.3,1.5
		c0.3,0,0.7-0.1,1-0.2C618.7,456.4,619.2,455,618.7,453.7z"/>
	<path fill="#231F20" d="M338.9,432.1C338.9,432.1,338.9,432.1,338.9,432.1c0.4,0.3,0.9,0.4,1.4,0.4c0.8,0,1.6-0.4,2.1-1.1
		c0.8-1.1,0.5-2.7-0.6-3.5c-1.1-0.8-2.7-0.5-3.5,0.6C337.5,429.8,337.8,431.3,338.9,432.1z"/>
	<path fill="#231F20" d="M367.1,443.6c-1.2-0.7-2.7-0.2-3.4,1c-0.7,1.2-0.2,2.7,1,3.4c0.4,0.2,0.8,0.3,1.2,0.3
		c0.9,0,1.7-0.5,2.2-1.3C368.7,445.8,368.3,444.3,367.1,443.6z"/>
	<path fill="#231F20" d="M330.7,426.2c0.5,0.3,1,0.5,1.5,0.5c0.8,0,1.5-0.4,2-1c0.8-1.1,0.6-2.7-0.5-3.5c-1.1-0.8-2.7-0.6-3.5,0.5
		C329.4,423.8,329.6,425.4,330.7,426.2z"/>
	<path fill="#231F20" d="M220.1,207.8c-1.4,0-2.5,1.2-2.4,2.6c0,1.4,1.1,2.4,2.5,2.4c0,0,0,0,0.1,0c1.4-0.1,2.5-1.2,2.4-2.6
		C222.6,208.8,221.5,207.7,220.1,207.8z"/>
	<path fill="#231F20" d="M757.8,309.5c0.3,0.1,0.6,0.2,1,0.2c1,0,1.9-0.6,2.3-1.5c0.5-1.3-0.1-2.7-1.4-3.3c-1.3-0.5-2.7,0.1-3.3,1.4
		C755.9,307.5,756.5,309,757.8,309.5z"/>
	<path fill="#231F20" d="M739.5,345.1c0.4,0.2,0.8,0.4,1.3,0.4c0.8,0,1.7-0.4,2.2-1.2c0.7-1.2,0.3-2.7-0.9-3.4
		c-1.2-0.7-2.7-0.3-3.4,0.9C738,342.9,738.3,344.4,739.5,345.1z"/>
	<path fill="#231F20" d="M765,290.8c0.3,0.1,0.5,0.1,0.8,0.1c1,0,2-0.7,2.4-1.7c0.4-1.3-0.3-2.7-1.6-3.2c-1.3-0.4-2.7,0.3-3.2,1.6
		C762.9,288.9,763.6,290.4,765,290.8z"/>
	<path fill="#231F20" d="M761.5,300.2c0.3,0.1,0.6,0.1,0.9,0.1c1,0,2-0.6,2.3-1.6c0.5-1.3-0.2-2.7-1.5-3.2c-1.3-0.5-2.7,0.2-3.2,1.5
		h0C759.6,298.3,760.2,299.7,761.5,300.2z"/>
	<path fill="#231F20" d="M744.6,336.5c0.4,0.2,0.8,0.3,1.2,0.3c0.9,0,1.8-0.5,2.2-1.3c0.7-1.2,0.2-2.7-1-3.4c-1.2-0.7-2.7-0.2-3.4,1
		C742.9,334.3,743.3,335.8,744.6,336.5z"/>
	<path fill="#231F20" d="M749.3,327.6c0.4,0.2,0.8,0.3,1.1,0.3c0.9,0,1.8-0.5,2.2-1.4c0.6-1.2,0.1-2.7-1.1-3.4
		c-1.2-0.6-2.7-0.1-3.4,1.1C747.6,325.5,748.1,327,749.3,327.6z"/>
	<path fill="#231F20" d="M753.7,318.6c0.3,0.1,0.7,0.2,1,0.2c0.9,0,1.9-0.5,2.3-1.5c0.6-1.3,0-2.7-1.2-3.3c-1.2-0.6-2.7,0-3.3,1.2
		C751.9,316.6,752.5,318.1,753.7,318.6z"/>
	<path fill="#231F20" d="M768,281.3c0.2,0.1,0.5,0.1,0.7,0.1c1.1,0,2.1-0.7,2.4-1.8c0.4-1.3-0.4-2.7-1.7-3.1
		c-1.3-0.4-2.7,0.4-3.1,1.7C766,279.5,766.7,280.9,768,281.3z"/>
	<path fill="#231F20" d="M779.1,222.5c0.1,0,0.1,0,0.2,0c1.3,0,2.4-1,2.5-2.3c0.1-1.4-0.9-2.6-2.3-2.7c-1.4-0.1-2.6,0.9-2.7,2.3
		C776.7,221.2,777.7,222.4,779.1,222.5z"/>
	<path fill="#231F20" d="M779.7,212.5C779.8,212.5,779.8,212.5,779.7,212.5c1.4,0,2.5-1.1,2.6-2.4c0.1-1.4-1-2.5-2.4-2.6
		c-1.4-0.1-2.5,1-2.6,2.4C777.3,211.3,778.4,212.4,779.7,212.5z"/>
	<path fill="#231F20" d="M778.1,232.4c0.1,0,0.2,0,0.3,0c1.3,0,2.3-0.9,2.5-2.2c0.2-1.4-0.8-2.6-2.2-2.8c-1.4-0.1-2.6,0.9-2.8,2.2
		C775.8,231,776.8,232.3,778.1,232.4z"/>
	<path fill="#231F20" d="M775.2,252.2c0.1,0,0.3,0,0.4,0c1.2,0,2.2-0.9,2.5-2.1c0.2-1.4-0.7-2.7-2-2.9c-1.4-0.2-2.7,0.7-2.9,2
		C772.9,250.6,773.8,251.9,775.2,252.2z"/>
	<path fill="#231F20" d="M776.8,242.3c0.1,0,0.2,0,0.4,0c1.2,0,2.3-0.9,2.5-2.1c0.2-1.4-0.8-2.6-2.1-2.8c-1.4-0.2-2.6,0.8-2.8,2.1
		C774.5,240.9,775.5,242.1,776.8,242.3z"/>
	<path fill="#231F20" d="M773.1,262c0.2,0,0.4,0.1,0.5,0.1c1.2,0,2.2-0.8,2.4-2c0.3-1.4-0.6-2.7-1.9-3c-1.3-0.3-2.7,0.6-3,1.9
		C770.9,260.3,771.8,261.7,773.1,262z"/>
	<path fill="#231F20" d="M770.8,271.7c0.2,0,0.4,0.1,0.6,0.1c1.1,0,2.1-0.8,2.4-1.9c0.3-1.3-0.5-2.7-1.8-3c-1.3-0.3-2.7,0.5-3,1.8
		C768.6,270,769.4,271.3,770.8,271.7z"/>
	<path fill="#231F20" d="M228.1,267.1c-1.3,0.3-2.1,1.7-1.8,3c0.3,1.1,1.3,1.9,2.4,1.9c0.2,0,0.4,0,0.6-0.1c1.3-0.3,2.1-1.7,1.8-3
		C230.8,267.6,229.4,266.8,228.1,267.1z"/>
	<path fill="#231F20" d="M225.9,257.4c-1.3,0.3-2.2,1.6-1.9,3c0.2,1.2,1.3,2,2.4,2c0.2,0,0.4,0,0.5-0.1c1.4-0.3,2.2-1.6,1.9-3
		C228.5,257.9,227.2,257.1,225.9,257.4z"/>
	<path fill="#231F20" d="M224,247.5c-1.4,0.2-2.3,1.5-2,2.9c0.2,1.2,1.3,2.1,2.5,2.1c0.1,0,0.3,0,0.5,0c1.4-0.2,2.3-1.5,2-2.9
		C226.7,248.2,225.4,247.3,224,247.5z"/>
	<path fill="#231F20" d="M257.1,344.3c0.5,0.8,1.3,1.2,2.1,1.2c0.4,0,0.9-0.1,1.3-0.4c1.2-0.7,1.6-2.2,0.9-3.4
		c-0.7-1.2-2.2-1.6-3.4-0.9C256.8,341.6,256.4,343.1,257.1,344.3z"/>
	<path fill="#231F20" d="M567,472c0.3,1.1,1.3,1.9,2.4,1.9c0.2,0,0.4,0,0.6-0.1c1.3-0.3,2.1-1.7,1.8-3c-0.3-1.3-1.7-2.1-3-1.8
		C567.4,469.3,566.6,470.6,567,472z"/>
	<path fill="#231F20" d="M220.5,217.8c-1.4,0.1-2.4,1.3-2.3,2.7c0.1,1.3,1.2,2.3,2.5,2.3c0.1,0,0.1,0,0.2,0c1.4-0.1,2.4-1.3,2.3-2.7
		C223.1,218.7,221.9,217.7,220.5,217.8z"/>
	<path fill="#231F20" d="M222.5,237.7c-1.4,0.2-2.3,1.5-2.1,2.8c0.2,1.2,1.2,2.1,2.5,2.1c0.1,0,0.2,0,0.4,0c1.4-0.2,2.3-1.5,2.1-2.8
		v0C225.1,238.4,223.9,237.5,222.5,237.7z"/>
	<path fill="#231F20" d="M221.3,227.7c-1.4,0.1-2.4,1.4-2.2,2.8c0.1,1.3,1.2,2.2,2.5,2.2c0.1,0,0.2,0,0.3,0c1.4-0.1,2.4-1.4,2.2-2.8
		C223.9,228.6,222.7,227.6,221.3,227.7z"/>
	<path fill="#231F20" d="M230.6,276.8c-1.3,0.4-2.1,1.8-1.7,3.1c0.3,1.1,1.3,1.8,2.4,1.8c0.2,0,0.5,0,0.7-0.1
		c1.3-0.4,2.1-1.8,1.7-3.1C233.4,277.1,232,276.4,230.6,276.8z"/>
	<path fill="#231F20" d="M247.4,326.6c0.4,0.9,1.3,1.4,2.2,1.4c0.4,0,0.8-0.1,1.1-0.3c1.2-0.6,1.7-2.1,1.1-3.4
		c-0.6-1.2-2.1-1.7-3.4-1.1C247.3,323.9,246.8,325.4,247.4,326.6z"/>
	<path fill="#231F20" d="M252.1,335.5c0.5,0.8,1.3,1.3,2.2,1.3c0.4,0,0.8-0.1,1.2-0.3c1.2-0.7,1.7-2.2,1-3.4c-0.7-1.2-2.2-1.7-3.4-1
		C251.9,332.8,251.4,334.3,252.1,335.5z"/>
	<path fill="#231F20" d="M243,317.6c0.4,0.9,1.3,1.5,2.3,1.5c0.4,0,0.7-0.1,1-0.2c1.3-0.6,1.8-2.1,1.2-3.3c-0.6-1.2-2-1.8-3.3-1.2
		C243,314.8,242.5,316.3,243,317.6z"/>
	<path fill="#231F20" d="M235.3,299c0.4,1,1.3,1.6,2.3,1.6c0.3,0,0.6,0,0.9-0.2c1.3-0.5,2-1.9,1.5-3.2c-0.5-1.3-1.9-2-3.2-1.5
		S234.8,297.7,235.3,299z"/>
	<path fill="#231F20" d="M239,308.3c0.4,1,1.3,1.5,2.3,1.5c0.3,0,0.7-0.1,1-0.2c1.3-0.5,1.9-2,1.3-3.3c-0.5-1.3-2-1.9-3.3-1.4
		C239.1,305.6,238.5,307.1,239,308.3z"/>
	<path fill="#231F20" d="M232,289.5c0.4,1.1,1.3,1.7,2.4,1.7c0.3,0,0.5,0,0.8-0.1c1.3-0.4,2-1.9,1.6-3.2c-0.4-1.3-1.9-2-3.2-1.6
		C232.2,286.8,231.5,288.2,232,289.5z"/>
	<path fill="#231F20" d="M286.8,381.5c-1.1,0.9-1.2,2.5-0.2,3.5c0.5,0.6,1.2,0.9,1.9,0.9c0.6,0,1.2-0.2,1.6-0.6
		c1-0.9,1.2-2.5,0.2-3.5C289.4,380.7,287.8,380.6,286.8,381.5z"/>
	<path fill="#231F20" d="M549.8,478.1c0.2,0,0.3,0,0.4,0c1.4-0.2,2.3-1.5,2-2.9c-0.2-1.4-1.5-2.3-2.9-2c-1.4,0.2-2.3,1.5-2,2.9
		C547.6,477.2,548.7,478.1,549.8,478.1z"/>
	<path fill="#231F20" d="M562.1,473.1c-0.3-1.3-1.6-2.2-3-1.9c-1.4,0.3-2.2,1.6-1.9,3c0.2,1.2,1.3,2,2.4,2c0.2,0,0.4,0,0.5-0.1
		C561.5,475.8,562.4,474.4,562.1,473.1z"/>
	<path fill="#231F20" d="M431.5,469c-1.3-0.3-2.7,0.5-3,1.8c-0.3,1.3,0.5,2.7,1.8,3c0.2,0.1,0.4,0.1,0.6,0.1c1.1,0,2.1-0.8,2.4-1.9
		C433.7,470.7,432.9,469.3,431.5,469z"/>
	<path fill="#231F20" d="M438.2,473.2c-0.3,1.4,0.6,2.7,1.9,3c0.2,0,0.4,0.1,0.5,0.1c1.2,0,2.2-0.8,2.4-2c0.3-1.4-0.6-2.7-1.9-3
		C439.8,471,438.5,471.8,438.2,473.2z"/>
	<path fill="#231F20" d="M450.9,473.2c-1.4-0.2-2.7,0.7-2.9,2c-0.2,1.4,0.7,2.7,2,2.9c0.1,0,0.3,0,0.4,0c1.2,0,2.2-0.9,2.5-2.1
		C453.1,474.7,452.2,473.4,450.9,473.2z"/>
	<path fill="#231F20" d="M624.2,448.2c-1.2,0.6-1.7,2.1-1.1,3.4c0.4,0.9,1.3,1.4,2.2,1.4c0.4,0,0.8-0.1,1.1-0.3
		c1.2-0.6,1.7-2.1,1.1-3.4C627,448.1,625.5,447.6,624.2,448.2z"/>
	<path fill="#231F20" d="M382.7,457.1c0.3,0.2,0.7,0.2,1,0.2c1,0,1.9-0.6,2.3-1.5c0.6-1.3,0-2.7-1.2-3.3c-1.3-0.6-2.7,0-3.3,1.2
		C380.9,455,381.5,456.5,382.7,457.1z"/>
	<path fill="#231F20" d="M420.6,471.2c0.2,0.1,0.5,0.1,0.7,0.1c1.1,0,2.1-0.7,2.4-1.8c0.4-1.3-0.4-2.7-1.7-3.1
		c-1.3-0.4-2.7,0.4-3.1,1.7C418.5,469.4,419.2,470.8,420.6,471.2z"/>
	<path fill="#231F20" d="M401.4,464.8c0.3,0.1,0.6,0.2,0.9,0.2c1,0,2-0.6,2.3-1.6c0.5-1.3-0.2-2.7-1.5-3.2c-1.3-0.5-2.7,0.2-3.2,1.5
		C399.4,462.9,400.1,464.3,401.4,464.8z"/>
	<path fill="#231F20" d="M410.9,468.2c0.3,0.1,0.5,0.1,0.8,0.1c1.1,0,2-0.7,2.4-1.7c0.4-1.3-0.3-2.7-1.6-3.2
		c-1.3-0.4-2.7,0.3-3.2,1.6C408.9,466.3,409.6,467.7,410.9,468.2z"/>
	<path fill="#231F20" d="M641.6,438.7c-1.2,0.7-1.6,2.2-0.9,3.4c0.5,0.8,1.3,1.2,2.2,1.2c0.4,0,0.9-0.1,1.3-0.4
		c1.2-0.7,1.6-2.2,0.9-3.4C644.3,438.4,642.8,438,641.6,438.7z"/>
	<path fill="#231F20" d="M650,433.5c-1.2,0.8-1.5,2.3-0.8,3.5c0.5,0.7,1.3,1.1,2.1,1.1c0.5,0,0.9-0.1,1.4-0.4
		c1.2-0.8,1.5-2.3,0.8-3.5C652.7,433.1,651.2,432.8,650,433.5z"/>
	<path fill="#231F20" d="M675.6,420.6c0.5,0,1.1-0.2,1.6-0.5c1.1-0.9,1.2-2.4,0.4-3.5c-0.9-1.1-2.5-1.2-3.5-0.4
		c-1.1,0.9-1.2,2.4-0.4,3.5C674.2,420.3,674.9,420.6,675.6,420.6z"/>
	<path fill="#231F20" d="M392,461.1c0.3,0.1,0.6,0.2,1,0.2c1,0,1.9-0.6,2.3-1.6c0.5-1.3-0.1-2.7-1.4-3.3c-1.3-0.5-2.7,0.1-3.3,1.3
		C390.1,459.1,390.7,460.6,392,461.1z"/>
	<path fill="#231F20" d="M659.6,432.5c0.5,0,1-0.1,1.4-0.4c1.1-0.8,1.4-2.4,0.6-3.5c-0.8-1.1-2.3-1.4-3.5-0.6
		c-1.1,0.8-1.4,2.3-0.6,3.5C658.1,432.2,658.9,432.5,659.6,432.5z"/>
	<path fill="#231F20" d="M633,443.6c-1.2,0.7-1.7,2.2-1,3.4c0.5,0.8,1.3,1.3,2.2,1.3c0.4,0,0.8-0.1,1.2-0.3c0,0,0,0,0,0
		c1.2-0.7,1.6-2.2,1-3.4C635.7,443.4,634.2,442.9,633,443.6z"/>
	<path fill="#231F20" d="M667.8,426.7c0.5,0,1-0.2,1.5-0.5c1.1-0.8,1.3-2.4,0.5-3.5c-0.8-1.1-2.4-1.3-3.5-0.5
		c-1.1,0.8-1.3,2.4-0.5,3.5C666.2,426.4,667,426.7,667.8,426.7z"/>
	<path fill="#231F20" d="M220,202.5c0.7,0,1.3-0.3,1.8-0.7c0.5-0.5,0.7-1.1,0.7-1.8c0-0.7-0.3-1.3-0.7-1.8c-0.9-0.9-2.6-0.9-3.5,0
		c-0.5,0.5-0.7,1.1-0.7,1.8c0,0.7,0.3,1.3,0.7,1.8C218.7,202.2,219.3,202.5,220,202.5z"/>
	<path fill="#231F20" d="M218.2,798.2c-0.5,0.5-0.7,1.1-0.7,1.8s0.3,1.3,0.7,1.8c0.5,0.5,1.1,0.7,1.8,0.7c0.7,0,1.3-0.3,1.8-0.7
		c0.5-0.5,0.7-1.1,0.7-1.8s-0.3-1.3-0.7-1.8C220.8,797.3,219.2,797.3,218.2,798.2z"/>
	<path fill="#231F20" d="M778.6,772.3c1.4-0.2,2.4-1.4,2.2-2.8c-0.1-1.4-1.4-2.4-2.8-2.2c-1.4,0.1-2.4,1.4-2.2,2.8
		c0.1,1.3,1.2,2.2,2.5,2.2C778.5,772.3,778.6,772.3,778.6,772.3z"/>
	<path fill="#231F20" d="M774.1,742.6c1.3-0.3,2.2-1.6,1.9-3c-0.3-1.4-1.6-2.2-3-1.9c-1.3,0.3-2.2,1.6-1.9,3h0c0.3,1.2,1.3,2,2.5,2
		C773.8,742.7,774,742.7,774.1,742.6z"/>
	<path fill="#231F20" d="M777.5,762.3c1.4-0.2,2.3-1.5,2.1-2.8c-0.2-1.4-1.5-2.3-2.8-2.1c-1.4,0.2-2.3,1.5-2.1,2.8v0
		c0.2,1.2,1.2,2.1,2.5,2.1C777.3,762.4,777.4,762.3,777.5,762.3z"/>
	<path fill="#231F20" d="M771,720.1c-0.4-1.3-1.8-2.1-3.1-1.7c-1.3,0.4-2.1,1.8-1.7,3.1c0.3,1.1,1.3,1.8,2.4,1.8
		c0.2,0,0.5,0,0.7-0.1C770.7,722.8,771.4,721.5,771,720.1z"/>
	<path fill="#231F20" d="M771.9,732.9c1.3-0.3,2.1-1.7,1.8-3s-1.7-2.1-3-1.8c-1.3,0.3-2.1,1.7-1.8,3c0.3,1.1,1.3,1.9,2.4,1.9
		C771.5,733,771.7,732.9,771.9,732.9z"/>
	<path fill="#231F20" d="M768,710.5c-0.4-1.3-1.9-2-3.2-1.6c-1.3,0.4-2,1.9-1.6,3.2c0.3,1,1.3,1.7,2.4,1.7c0.3,0,0.5,0,0.8-0.1
		C767.8,713.2,768.5,711.8,768,710.5z"/>
	<path fill="#231F20" d="M757,682.4c-0.6-1.3-2.1-1.8-3.3-1.2c-1.2,0.6-1.8,2.1-1.2,3.3c0.4,0.9,1.3,1.5,2.3,1.5
		c0.4,0,0.7-0.1,1-0.2C757,685.2,757.5,683.7,757,682.4z"/>
	<path fill="#231F20" d="M761,691.6c-0.5-1.3-2-1.9-3.3-1.3c-1.3,0.5-1.9,2-1.4,3.3c0.4,1,1.3,1.5,2.3,1.5c0.3,0,0.6-0.1,1-0.2
		C760.9,694.4,761.5,692.9,761,691.6z"/>
	<path fill="#231F20" d="M764.7,701c-0.5-1.3-1.9-2-3.2-1.5c-1.3,0.5-2,1.9-1.5,3.2v0c0.4,1,1.3,1.6,2.4,1.6c0.3,0,0.6,0,0.9-0.2
		C764.5,703.7,765.1,702.3,764.7,701z"/>
	<path fill="#231F20" d="M635.3,552c-1.2-0.7-2.7-0.2-3.4,1c-0.7,1.2-0.2,2.7,1,3.4c0.4,0.2,0.8,0.3,1.2,0.3c0.9,0,1.8-0.5,2.2-1.3
		C637,554.1,636.5,552.6,635.3,552z"/>
	<path fill="#231F20" d="M418.6,532c0.3,1.1,1.3,1.8,2.4,1.8c0.2,0,0.5,0,0.7-0.1c1.3-0.4,2.1-1.8,1.7-3.1c-0.4-1.3-1.8-2.1-3.1-1.7
		C418.9,529.3,418.2,530.7,418.6,532z"/>
	<path fill="#231F20" d="M409.1,535.1c0.4,1,1.3,1.7,2.4,1.7c0.3,0,0.5,0,0.8-0.1c1.3-0.4,2-1.9,1.6-3.2c-0.4-1.3-1.9-2-3.2-1.6
		C409.3,532.4,408.6,533.8,409.1,535.1z"/>
	<path fill="#231F20" d="M669.3,573.8C669.3,573.8,669.3,573.8,669.3,573.8c-1.1-0.8-2.7-0.6-3.5,0.5c-0.8,1.1-0.6,2.7,0.5,3.5
		c0.4,0.3,1,0.5,1.5,0.5c0.8,0,1.5-0.3,2-1C670.6,576.2,670.4,574.6,669.3,573.8z"/>
	<path fill="#231F20" d="M399.7,538.5c0.4,1,1.3,1.6,2.3,1.6c0.3,0,0.6-0.1,0.9-0.2c1.3-0.5,1.9-1.9,1.5-3.2c-0.5-1.3-1.9-2-3.2-1.5
		C399.8,535.8,399.2,537.2,399.7,538.5z"/>
	<path fill="#231F20" d="M677.2,580c-1.1-0.9-2.6-0.7-3.5,0.4c-0.9,1.1-0.7,2.6,0.4,3.5c0.5,0.4,1,0.5,1.6,0.5
		c0.7,0,1.4-0.3,1.9-0.9C678.5,582.4,678.3,580.9,677.2,580z"/>
	<path fill="#231F20" d="M433,528c-0.3-1.3-1.7-2.1-3-1.8c-1.3,0.3-2.2,1.7-1.8,3c0.3,1.1,1.3,1.9,2.4,1.9c0.2,0,0.4,0,0.6-0.1
		C432.6,530.7,433.4,529.4,433,528z"/>
	<path fill="#231F20" d="M661.1,567.9c-1.1-0.8-2.7-0.5-3.5,0.6s-0.5,2.7,0.6,3.5c0.4,0.3,0.9,0.5,1.4,0.5c0.8,0,1.6-0.4,2.1-1.1
		C662.5,570.2,662.2,568.7,661.1,567.9z"/>
	<path fill="#231F20" d="M722.1,633.6c0.5,0.7,1.2,1,2,1c0.5,0,1-0.2,1.5-0.5c1.1-0.8,1.3-2.4,0.5-3.5c-0.8-1.1-2.4-1.3-3.5-0.5
		C721.5,631,721.3,632.5,722.1,633.6z"/>
	<path fill="#231F20" d="M779.8,792.2C779.8,792.2,779.9,792.2,779.8,792.2c1.5-0.1,2.5-1.2,2.5-2.6s-1.2-2.5-2.6-2.4
		c-1.4,0-2.5,1.2-2.4,2.6C777.4,791.1,778.5,792.2,779.8,792.2z"/>
	<path fill="#231F20" d="M779.3,782.2c0.1,0,0.1,0,0.2,0c1.4-0.1,2.4-1.3,2.3-2.7c-0.1-1.4-1.3-2.4-2.7-2.3
		c-1.4,0.1-2.4,1.3-2.3,2.7C776.9,781.2,778,782.2,779.3,782.2z"/>
	<path fill="#231F20" d="M776,752.5c1.4-0.2,2.3-1.5,2-2.9c-0.2-1.4-1.5-2.3-2.9-2c-1.4,0.2-2.3,1.5-2,2.9c0.2,1.2,1.3,2.1,2.5,2.1
		C775.7,752.5,775.8,752.5,776,752.5z"/>
	<path fill="#231F20" d="M226.9,738c-1.3-0.3-2.7,0.6-3,1.9c-0.3,1.3,0.6,2.7,1.9,3c0.2,0,0.4,0,0.5,0c1.1,0,2.2-0.8,2.4-2
		C229.1,739.7,228.2,738.3,226.9,738z"/>
	<path fill="#231F20" d="M220.3,787.5c-1.4,0-2.5,1-2.6,2.4c0,1.4,1,2.5,2.4,2.6c0,0,0.1,0,0.1,0c1.3,0,2.5-1.1,2.5-2.4
		C222.7,788.7,221.6,787.5,220.3,787.5z"/>
	<path fill="#231F20" d="M221.8,767.6c-1.4-0.1-2.6,0.8-2.8,2.2c-0.1,1.4,0.9,2.6,2.2,2.7c0.1,0,0.2,0,0.3,0c1.3,0,2.4-0.9,2.5-2.2
		C224.2,769,223.2,767.7,221.8,767.6z"/>
	<path fill="#231F20" d="M223.2,757.7c-1.4-0.2-2.6,0.8-2.8,2.1c-0.2,1.4,0.8,2.6,2.1,2.8c0.1,0,0.2,0,0.4,0c1.2,0,2.3-0.9,2.5-2.1
		C225.5,759.1,224.5,757.9,223.2,757.7z"/>
	<path fill="#231F20" d="M224.8,747.8c-1.4-0.2-2.7,0.7-2.9,2c-0.2,1.4,0.7,2.7,2,2.9c0.1,0,0.3,0,0.4,0c1.2,0,2.2-0.9,2.5-2.1
		C227.1,749.4,226.2,748.1,224.8,747.8z"/>
	<path fill="#231F20" d="M217.7,789.9C217.7,789.9,217.7,789.9,217.7,789.9C217.7,789.9,217.7,789.9,217.7,789.9
		C217.7,789.9,217.7,789.9,217.7,789.9z"/>
	<path fill="#231F20" d="M220.9,777.5c-1.4-0.1-2.6,0.9-2.7,2.3c-0.1,1.4,0.9,2.6,2.3,2.7c0,0,0.1,0,0.2,0c1.3,0,2.4-1,2.5-2.3
		C223.3,778.8,222.2,777.6,220.9,777.5z"/>
	<path fill="#231F20" d="M652.7,562.3c-1.2-0.8-2.7-0.4-3.4,0.8c-0.8,1.2-0.4,2.7,0.8,3.5c0.4,0.3,0.9,0.4,1.3,0.4
		c0.8,0,1.6-0.4,2.1-1.1C654.2,564.6,653.9,563,652.7,562.3z"/>
	<path fill="#231F20" d="M449.7,522c-1.4,0.2-2.3,1.5-2,2.9c0.2,1.2,1.3,2.1,2.5,2.1c0.1,0,0.3,0,0.4,0v0c1.4-0.2,2.3-1.5,2-2.9
		C452.4,522.6,451.1,521.7,449.7,522z"/>
	<path fill="#231F20" d="M752.6,673.4c-0.6-1.2-2.1-1.7-3.4-1.1c-1.2,0.6-1.7,2.1-1.1,3.3c0.4,0.9,1.3,1.4,2.2,1.4
		c0.4,0,0.8-0.1,1.1-0.3C752.7,676.1,753.2,674.6,752.6,673.4z"/>
	<path fill="#231F20" d="M437.9,526.9c0.2,1.2,1.3,2,2.4,2c0.2,0,0.4,0,0.5-0.1h0c1.3-0.3,2.2-1.6,1.9-3c-0.3-1.3-1.6-2.2-3-1.9
		c0,0,0,0,0,0C438.5,524.2,437.6,525.5,437.9,526.9z"/>
	<path fill="#231F20" d="M644.1,557c-1.2-0.7-2.7-0.3-3.4,0.9c-0.7,1.2-0.3,2.7,0.9,3.4c0.4,0.2,0.8,0.4,1.3,0.4
		c0.8,0,1.7-0.4,2.1-1.2C645.7,559.2,645.3,557.7,644.1,557z"/>
	<path fill="#231F20" d="M626.4,547.3c-1.2-0.6-2.7-0.1-3.4,1.1c-0.6,1.2-0.1,2.7,1.1,3.4c0.4,0.2,0.7,0.3,1.1,0.3
		c0.9,0,1.8-0.5,2.2-1.4C628.1,549.4,627.6,547.9,626.4,547.3z"/>
	<path fill="#231F20" d="M255.4,663.5c-1.2-0.7-2.7-0.2-3.4,1c-0.7,1.2-0.2,2.7,1,3.4c0.4,0.2,0.8,0.3,1.2,0.3
		c0.9,0,1.7-0.5,2.2-1.3C257.1,665.7,256.6,664.2,255.4,663.5z"/>
	<path fill="#231F20" d="M260.5,654.9c-1.2-0.7-2.7-0.3-3.4,0.9c-0.7,1.2-0.3,2.7,0.9,3.4c0.4,0.2,0.8,0.4,1.3,0.4
		c0.9,0,1.7-0.4,2.1-1.2C262,657.1,261.7,655.6,260.5,654.9z"/>
	<path fill="#231F20" d="M250.7,672.4c-1.2-0.6-2.7-0.1-3.4,1.1c-0.6,1.2-0.1,2.7,1.1,3.4c0.4,0.2,0.8,0.3,1.1,0.3
		c0.9,0,1.8-0.5,2.2-1.4C252.4,674.5,251.9,673,250.7,672.4z"/>
	<path fill="#231F20" d="M747.9,664.5c-0.7-1.2-2.2-1.7-3.4-1c-1.2,0.7-1.7,2.2-1,3.4c0.5,0.8,1.3,1.3,2.2,1.3
		c0.4,0,0.8-0.1,1.2-0.3C748.1,667.2,748.6,665.7,747.9,664.5z"/>
	<path fill="#231F20" d="M229.2,728.3c-1.3-0.3-2.7,0.5-3,1.8c-0.3,1.3,0.5,2.7,1.8,3c0.2,0,0.4,0.1,0.6,0.1c1.1,0,2.1-0.8,2.4-1.9
		C231.4,730,230.6,728.7,229.2,728.3z"/>
	<path fill="#231F20" d="M742.9,655.7c-0.7-1.2-2.2-1.6-3.4-0.9c-1.2,0.7-1.6,2.2-0.9,3.4c0.5,0.8,1.3,1.2,2.2,1.2
		c0.4,0,0.9-0.1,1.3-0.4C743.2,658.4,743.6,656.9,742.9,655.7z"/>
	<path fill="#231F20" d="M246.3,681.3c-1.3-0.6-2.7,0-3.3,1.2c-0.6,1.3,0,2.7,1.2,3.3c0.3,0.2,0.7,0.2,1,0.2c0.9,0,1.9-0.5,2.3-1.5
		C248.1,683.4,247.5,681.9,246.3,681.3z"/>
	<path fill="#231F20" d="M235,709.2c-1.3-0.4-2.7,0.3-3.2,1.6c-0.4,1.3,0.3,2.7,1.6,3.2c0.3,0.1,0.5,0.1,0.8,0.1c1,0,2-0.7,2.4-1.7
		C237.1,711.1,236.3,709.6,235,709.2z"/>
	<path fill="#231F20" d="M232,718.7c-1.3-0.4-2.7,0.4-3.1,1.7c-0.4,1.3,0.4,2.7,1.7,3.1c0.2,0.1,0.5,0.1,0.7,0.1
		c1.1,0,2.1-0.7,2.4-1.8C234,720.5,233.3,719.1,232,718.7z"/>
	<path fill="#231F20" d="M242.2,690.5c-1.3-0.5-2.7,0.1-3.3,1.4c-0.5,1.3,0.1,2.7,1.4,3.3c0.3,0.1,0.6,0.2,1,0.2
		c1,0,1.9-0.6,2.3-1.5C244.1,692.5,243.5,691,242.2,690.5z"/>
	<path fill="#231F20" d="M238.5,699.8c-1.3-0.5-2.7,0.2-3.2,1.5c-0.5,1.3,0.2,2.7,1.5,3.2c0.3,0.1,0.6,0.2,0.9,0.2
		c1,0,2-0.6,2.3-1.6C240.4,701.7,239.8,700.3,238.5,699.8z"/>
	<path fill="#231F20" d="M322.8,580c-1.1,0.9-1.2,2.4-0.4,3.5c0.5,0.6,1.2,0.9,1.9,0.9c0.6,0,1.1-0.2,1.6-0.5
		c1.1-0.9,1.2-2.5,0.4-3.5C325.4,579.3,323.9,579.1,322.8,580z"/>
	<path fill="#231F20" d="M730,642.7c0.5,0,1-0.1,1.4-0.5c1.1-0.8,1.4-2.3,0.6-3.5c-0.8-1.1-2.3-1.4-3.5-0.6
		c-1.1,0.8-1.4,2.3-0.6,3.5C728.4,642.3,729.2,642.7,730,642.7z"/>
	<path fill="#231F20" d="M561.8,526.8c0.3-1.4-0.6-2.7-1.9-3c0,0,0,0,0,0c-1.3-0.3-2.7,0.6-3,1.9c-0.3,1.3,0.6,2.7,1.9,3
		c0.2,0,0.3,0.1,0.5,0.1C560.5,528.8,561.6,528,561.8,526.8z"/>
	<path fill="#231F20" d="M479.7,518.2c-1.4,0.1-2.4,1.3-2.3,2.7c0.1,1.3,1.2,2.3,2.5,2.3c0.1,0,0.1,0,0.2,0v0
		c1.4-0.1,2.4-1.3,2.3-2.7C482.3,519.2,481.1,518.1,479.7,518.2z"/>
	<path fill="#231F20" d="M716.4,622.3c-1.1,0.9-1.2,2.4-0.4,3.5c0.5,0.6,1.2,0.9,2,0.9c0.5,0,1.1-0.2,1.6-0.5
		c1.1-0.9,1.2-2.4,0.4-3.5C719.1,621.6,717.5,621.4,716.4,622.3z"/>
	<path fill="#231F20" d="M709.9,614.7c-1,0.9-1.2,2.5-0.2,3.5c0.5,0.6,1.2,0.9,1.9,0.9c0.6,0,1.2-0.2,1.6-0.6c1-0.9,1.2-2.5,0.2-3.5
		C712.6,613.9,711,613.8,709.9,614.7z"/>
	<path fill="#231F20" d="M617.3,542.9c-1.3-0.6-2.7,0-3.3,1.2c-0.6,1.3,0,2.7,1.2,3.3c0.3,0.2,0.7,0.2,1,0.2c1,0,1.9-0.5,2.3-1.5
		C619.1,545,618.5,543.5,617.3,542.9z"/>
	<path fill="#231F20" d="M364.6,552c-1.2,0.7-1.6,2.2-1,3.4c0.5,0.8,1.3,1.3,2.2,1.3c0.4,0,0.8-0.1,1.2-0.3c1.2-0.7,1.7-2.2,1-3.4
		C367.3,551.8,365.8,551.3,364.6,552z"/>
	<path fill="#231F20" d="M355.8,557c-1.2,0.7-1.6,2.2-0.9,3.4c0.5,0.8,1.3,1.2,2.1,1.2c0.4,0,0.9-0.1,1.3-0.3
		c1.2-0.7,1.6-2.2,0.9-3.4C358.6,556.7,357,556.3,355.8,557z"/>
	<path fill="#231F20" d="M373.5,547.3C373.5,547.3,373.5,547.3,373.5,547.3c-1.2,0.6-1.7,2.1-1.1,3.4c0.4,0.9,1.3,1.4,2.2,1.4
		c0.4,0,0.8-0.1,1.1-0.3c1.2-0.6,1.7-2.1,1.1-3.3C376.2,547.2,374.7,546.7,373.5,547.3z"/>
	<path fill="#231F20" d="M549.1,526.8c0.1,0,0.3,0,0.4,0c1.2,0,2.2-0.9,2.5-2.1c0.2-1.4-0.7-2.7-2-2.9c-1.4-0.2-2.7,0.7-2.9,2
		S547.8,526.6,549.1,526.8z"/>
	<path fill="#231F20" d="M688.9,593.3c-0.9,1-0.9,2.6,0.1,3.5c0.5,0.4,1.1,0.7,1.7,0.7c0.7,0,1.3-0.3,1.8-0.8c0.9-1,0.9-2.6-0.1-3.5
		C691.5,592.3,689.9,592.3,688.9,593.3z"/>
	<path fill="#231F20" d="M598.6,535.2c-1.3-0.5-2.7,0.2-3.2,1.5c-0.5,1.3,0.2,2.7,1.5,3.2c0.3,0.1,0.6,0.2,0.9,0.2
		c1,0,2-0.6,2.3-1.6C600.6,537.1,599.9,535.7,598.6,535.2z"/>
	<path fill="#231F20" d="M681.4,586.7c-0.9,1-0.8,2.6,0.2,3.5c0.5,0.4,1.1,0.6,1.6,0.6c0.7,0,1.4-0.3,1.9-0.9c0.9-1,0.8-2.6-0.2-3.5
		C683.9,585.6,682.3,585.7,681.4,586.7z"/>
	<path fill="#231F20" d="M703.2,607.3c-1,0.9-1.1,2.5-0.1,3.5c0.5,0.5,1.2,0.8,1.8,0.8c0.6,0,1.2-0.2,1.7-0.7c1-0.9,1.1-2.5,0.1-3.5
		C705.8,606.5,704.2,606.4,703.2,607.3z"/>
	<path fill="#231F20" d="M589.1,531.8c-1.3-0.4-2.7,0.3-3.2,1.6c-0.4,1.3,0.3,2.7,1.6,3.2c0.3,0.1,0.5,0.1,0.8,0.1
		c1,0,2-0.7,2.4-1.7C591.1,533.7,590.4,532.3,589.1,531.8z"/>
	<path fill="#231F20" d="M579.4,528.8c-1.3-0.4-2.7,0.4-3.1,1.7c-0.4,1.3,0.4,2.7,1.7,3.1h0c0.2,0.1,0.5,0.1,0.7,0.1
		c1.1,0,2.1-0.7,2.4-1.8C581.5,530.6,580.8,529.2,579.4,528.8z"/>
	<path fill="#231F20" d="M608,538.9c-1.3-0.5-2.7,0.1-3.3,1.4c-0.5,1.3,0.1,2.7,1.3,3.3c0.3,0.1,0.6,0.2,1,0.2c1,0,1.9-0.6,2.3-1.5
		C609.9,540.9,609.3,539.4,608,538.9z"/>
	<path fill="#231F20" d="M347.3,562.3c-1.2,0.8-1.5,2.3-0.8,3.5c0.5,0.7,1.3,1.1,2.1,1.1c0.5,0,0.9-0.1,1.4-0.4
		c1.2-0.8,1.5-2.3,0.8-3.5C350,561.9,348.4,561.5,347.3,562.3z"/>
	<circle fill="#231F20" cx="499.8" cy="520" r="2.5"/>
	<path fill="#231F20" d="M696.2,600.2c-1,1-1,2.6,0,3.5c0.5,0.5,1.1,0.7,1.8,0.7c0.6,0,1.3-0.2,1.8-0.7c1-1,1-2.6,0-3.5
		C698.8,599.2,697.2,599.2,696.2,600.2z"/>
	<path fill="#231F20" d="M520,518.2c-1.4-0.1-2.6,0.9-2.7,2.3c-0.1,1.4,0.9,2.6,2.3,2.7c0.1,0,0.1,0,0.2,0c1.3,0,2.4-1,2.5-2.3
		C522.4,519.5,521.4,518.3,520,518.2z"/>
	<path fill="#231F20" d="M293.3,607.4c-0.9,1-0.9,2.6,0.1,3.5c0.5,0.4,1.1,0.7,1.7,0.7c0.7,0,1.3-0.3,1.8-0.8c0.9-1,0.9-2.6-0.1-3.5
		C295.8,606.3,294.2,606.4,293.3,607.4z"/>
	<path fill="#231F20" d="M307.6,593.2c-1,0.9-1.1,2.5-0.1,3.5c0.5,0.5,1.2,0.8,1.8,0.8c0.6,0,1.2-0.2,1.7-0.7c1-0.9,1.1-2.5,0.1-3.5
		C310.2,592.3,308.6,592.2,307.6,593.2z"/>
	<path fill="#231F20" d="M283.6,622.3c-1.1-0.9-2.6-0.7-3.5,0.4c-0.9,1.1-0.7,2.7,0.4,3.5c0.5,0.4,1,0.5,1.6,0.5
		c0.7,0,1.4-0.3,1.9-0.9v0C284.8,624.7,284.7,623.1,283.6,622.3z"/>
	<path fill="#231F20" d="M300.3,600.2c-1,1-1,2.6,0,3.5c0.5,0.5,1.1,0.7,1.8,0.7c0.6,0,1.3-0.2,1.8-0.7v0c1-1,1-2.6,0-3.5
		C302.9,599.2,301.3,599.2,300.3,600.2z"/>
	<path fill="#231F20" d="M271.5,638.2c-1.1-0.8-2.7-0.5-3.5,0.6s-0.5,2.7,0.6,3.5c0.4,0.3,0.9,0.5,1.4,0.5c0.8,0,1.6-0.4,2.1-1.1
		C272.9,640.5,272.6,639,271.5,638.2z"/>
	<path fill="#231F20" d="M381.3,546.3c0.4,0.9,1.3,1.5,2.3,1.5c0.4,0,0.7-0.1,1-0.2c1.2-0.6,1.8-2.1,1.2-3.3
		c-0.6-1.3-2.1-1.8-3.3-1.2C381.3,543.6,380.8,545,381.3,546.3z"/>
	<path fill="#231F20" d="M286.6,614.9c-0.9,1-0.8,2.6,0.2,3.5c0.5,0.4,1.1,0.6,1.6,0.6c0.7,0,1.4-0.3,1.9-0.9
		c0.9-1.1,0.8-2.6-0.2-3.5C289,613.8,287.5,613.9,286.6,614.9z"/>
	<path fill="#231F20" d="M390.4,542.2c0.4,1,1.3,1.5,2.3,1.5c0.3,0,0.6-0.1,1-0.2c1.3-0.5,1.9-2,1.4-3.3c-0.5-1.3-2-1.9-3.3-1.3
		C390.5,539.5,389.9,541,390.4,542.2z"/>
	<path fill="#231F20" d="M330.8,573.8c-1.1,0.8-1.3,2.4-0.5,3.5c0.5,0.6,1.2,1,2,1c0.5,0,1-0.2,1.5-0.5c1.1-0.8,1.3-2.4,0.5-3.5
		C333.4,573.2,331.9,573,330.8,573.8z"/>
	<path fill="#231F20" d="M277.4,630.1c-1.1-0.8-2.7-0.6-3.5,0.5c-0.8,1.1-0.6,2.7,0.5,3.5c0.5,0.3,1,0.5,1.5,0.5c0.8,0,1.5-0.3,2-1
		v0C278.7,632.5,278.5,630.9,277.4,630.1z"/>
	<path fill="#231F20" d="M338.9,567.9c-1.1,0.8-1.4,2.4-0.6,3.5c0.5,0.7,1.3,1.1,2,1.1c0.5,0,1-0.1,1.4-0.4c1.1-0.8,1.4-2.4,0.6-3.5
		C341.6,567.4,340,567.1,338.9,567.9z"/>
	<path fill="#231F20" d="M315.1,586.4c-1,0.9-1.2,2.5-0.2,3.5c0.5,0.6,1.2,0.9,1.9,0.9c0.6,0,1.2-0.2,1.6-0.6c1-0.9,1.2-2.5,0.3-3.5
		C317.7,585.6,316.1,585.5,315.1,586.4z"/>
	<path fill="#231F20" d="M568.5,531c0.2,0,0.4,0.1,0.6,0.1c1.1,0,2.1-0.8,2.4-1.9c0.3-1.3-0.5-2.7-1.8-3s-2.7,0.5-3,1.8
		C566.3,529.3,567.1,530.7,568.5,531z"/>
	<path fill="#231F20" d="M778.2,798.2c-0.5,0.5-0.7,1.1-0.7,1.8s0.3,1.3,0.7,1.8c0.5,0.5,1.1,0.7,1.8,0.7s1.3-0.3,1.8-0.7
		c0.5-0.5,0.7-1.1,0.7-1.8s-0.3-1.3-0.7-1.8C780.8,797.3,779.2,797.3,778.2,798.2z"/>
	<path fill="#231F20" d="M900,377.5c-11.6,0-21.1,8.8-22.4,20H799l-26.7,26.7c-12.8-46.4-37.5-89-72.5-124
		c-53.4-53.4-124.3-82.7-199.8-82.7c-75.5,0-146.4,29.4-199.8,82.7c-53.4,53.4-82.7,124.3-82.7,199.8c0,24,3,47.5,8.8,70.2
		L199,597.5h-76.6c-1.2-11.2-10.8-20-22.4-20c-12.4,0-22.5,10.1-22.5,22.5s10.1,22.5,22.5,22.5c11.6,0,21.1-8.8,22.4-20H201
		l26.7-26.7c12.8,46.4,37.5,89,72.5,124c53.4,53.4,124.3,82.7,199.8,82.7c75.5,0,146.4-29.4,199.8-82.7s82.7-124.3,82.7-199.8
		c0-24-3-47.5-8.8-70.2l27.3-27.3h76.6c1.2,11.2,10.8,20,22.4,20c12.4,0,22.5-10.1,22.5-22.5S912.4,377.5,900,377.5z M100,617.5
		c-9.6,0-17.5-7.9-17.5-17.5s7.9-17.5,17.5-17.5c8.8,0,16.1,6.5,17.3,15H100v5h17.3C116.1,611,108.8,617.5,100,617.5z M777.5,500
		c0,52.4-14.5,102.6-41.5,146.1c-0.6-0.1-1.3,0-1.9,0.3c-1.2,0.8-1.5,2.3-0.8,3.5c0,0.1,0.1,0.1,0.1,0.1
		c-10.6,16.5-23.1,32-37.3,46.2c-52.4,52.4-122.1,81.3-196.2,81.3s-143.8-28.9-196.2-81.3c-14.2-14.2-26.7-29.7-37.3-46.2
		c0,0,0.1-0.1,0.1-0.1c0.7-1.2,0.4-2.7-0.8-3.5c-0.6-0.4-1.2-0.5-1.9-0.3c-14.4-23.1-25.2-48.1-32.1-74.4l54.1-54.1
		c3.9,3.1,8.7,4.9,14,4.9c12.4,0,22.5-10.1,22.5-22.5c0-12.4-10.1-22.5-22.5-22.5s-22.5,10.1-22.5,22.5c0,5.3,1.8,10.2,4.9,14
		l-52,52c-5.2-21.4-7.9-43.5-7.9-66.1c0-52.4,14.5-102.6,41.5-146.1c0.2,0,0.3,0.1,0.5,0.1c0.5,0,0.9-0.1,1.3-0.4
		c1.2-0.8,1.5-2.3,0.8-3.5c0-0.1-0.1-0.1-0.1-0.2c10.6-16.5,23.1-32,37.3-46.2c52.4-52.4,122.1-81.3,196.2-81.3
		s143.8,28.9,196.2,81.3c14.2,14.2,26.7,29.7,37.3,46.2c0,0-0.1,0.1-0.1,0.1c-0.8,1.2-0.4,2.7,0.8,3.5c0.4,0.3,0.9,0.4,1.4,0.4
		c0.2,0,0.3,0,0.5-0.1c14.4,23.1,25.2,48.1,32.1,74.4L714,482.4c-3.9-3.1-8.7-4.9-14-4.9c-12.4,0-22.5,10.1-22.5,22.5
		c0,12.4,10.1,22.5,22.5,22.5s22.5-10.1,22.5-22.5c0-5.3-1.8-10.2-4.9-14l52-52C774.8,455.3,777.5,477.4,777.5,500z M282.5,500
		c0-9.6,7.9-17.5,17.5-17.5s17.5,7.9,17.5,17.5s-7.9,17.5-17.5,17.5c-3.9,0-7.5-1.3-10.5-3.5l12.2-12.2l-3.5-3.5L286,510.5
		C283.8,507.5,282.5,503.9,282.5,500z M717.5,500c0,9.6-7.9,17.5-17.5,17.5s-17.5-7.9-17.5-17.5s7.9-17.5,17.5-17.5
		c3.9,0,7.5,1.3,10.5,3.5l-12.2,12.2l3.5,3.5l12.2-12.2C716.2,492.5,717.5,496.1,717.5,500z M900,417.5c-8.8,0-16.1-6.5-17.3-15H900
		v-5h-17.3c1.2-8.5,8.5-15,17.3-15c9.6,0,17.5,7.9,17.5,17.5S909.6,417.5,900,417.5z"/>
	<path fill="#231F20" d="M600,307.5c-12.4,0-22.5,10.1-22.5,22.5c0,5.9,2.3,11.3,6.1,15.3l-44.7,52.2h-6.4V340h-5v57.5h-15V270h-5
		v127.5h-15V270h-5v127.5h-15V340h-5v57.5h-6.4l-44.7-52.2c3.8-4,6.1-9.4,6.1-15.3c0-12.4-10.1-22.5-22.5-22.5s-22.5,10.1-22.5,22.5
		s10.1,22.5,22.5,22.5c4.7,0,9-1.4,12.6-3.9l46.2,53.9h8.6v48c-0.1-0.1-0.3-0.2-0.5-0.3c-1.2-0.6-2.7-0.1-3.3,1.2
		c-0.6,1.2,0,2.7,1.2,3.3c0.4,0.2,0.7,0.2,1.1,0.2c0.6,0,1.1-0.2,1.5-0.6V521c-0.1,0.3-0.1,0.5-0.1,0.8c0,0.1,0,0.2,0.1,0.3v23.5
		c-0.7-0.6-1.7-0.8-2.7-0.3c-1.2,0.6-1.8,2.1-1.2,3.3c0.4,0.9,1.3,1.4,2.3,1.4c0.4,0,0.7-0.1,1.1-0.2c0.2-0.1,0.4-0.2,0.5-0.3v48
		h-8.6l-46.2,53.9c-3.6-2.5-8-3.9-12.6-3.9c-12.4,0-22.5,10.1-22.5,22.5s10.1,22.5,22.5,22.5s22.5-10.1,22.5-22.5
		c0-5.9-2.3-11.3-6.1-15.3l44.7-52.2h6.4V670h5v-67.5h15V730h5V602.5h15V730h5V602.5h15V670h5v-67.5h6.4l44.7,52.2
		c-3.8,4-6.1,9.4-6.1,15.3c0,12.4,10.1,22.5,22.5,22.5s22.5-10.1,22.5-22.5s-10.1-22.5-22.5-22.5c-4.7,0-9,1.4-12.6,3.9l-46.2-53.9
		h-8.6v-48c0.1,0.1,0.3,0.2,0.5,0.3c0.3,0.2,0.7,0.2,1.1,0.2c0.9,0,1.8-0.5,2.3-1.4c0.6-1.2,0.1-2.7-1.2-3.3
		c-0.9-0.4-1.9-0.3-2.6,0.3v-66.7c0.1-0.3,0.1-0.5,0.1-0.8c0-0.1,0-0.2-0.1-0.3v-23.6c0.5,0.4,1,0.6,1.6,0.6c0.3,0,0.7-0.1,1.1-0.2
		c1.2-0.6,1.8-2.1,1.2-3.3s-2.1-1.8-3.3-1.2c-0.2,0.1-0.4,0.2-0.5,0.3v-48h8.6l46.2-53.9c3.6,2.5,8,3.9,12.6,3.9
		c12.4,0,22.5-10.1,22.5-22.5S612.4,307.5,600,307.5z M400,347.5c-9.6,0-17.5-7.9-17.5-17.5s7.9-17.5,17.5-17.5s17.5,7.9,17.5,17.5
		c0,4.4-1.6,8.4-4.3,11.5l-11.3-13.1l-3.8,3.3l11.3,13.1C406.6,346.5,403.4,347.5,400,347.5z M417.5,670c0,9.6-7.9,17.5-17.5,17.5
		s-17.5-7.9-17.5-17.5s7.9-17.5,17.5-17.5c3.4,0,6.6,1,9.4,2.7l-11.3,13.1l3.8,3.3l11.3-13.1C415.9,661.6,417.5,665.6,417.5,670z
		 M600,652.5c9.6,0,17.5,7.9,17.5,17.5s-7.9,17.5-17.5,17.5s-17.5-7.9-17.5-17.5c0-4.4,1.6-8.4,4.3-11.5l11.3,13.1l3.8-3.3
		l-11.3-13.1C593.4,653.5,596.6,652.5,600,652.5z M472.5,597.5V479.4c0.1-0.2,0.2-0.5,0.2-0.7c0-0.5,0-0.9-0.2-1.3v-74.9h15v55.7
		c-0.2-1-0.9-1.9-2-2.1c-1.4-0.3-2.7,0.6-2.9,2c-0.3,1.4,0.6,2.7,2,2.9c0.2,0,0.3,0,0.5,0c1.2,0,2.2-0.8,2.5-2v60.3
		c-0.1,0.3-0.2,0.6-0.1,0.9c0,0.2,0.1,0.5,0.1,0.7v76.5H472.5z M492.5,597.5v-56.9c0.2,1.2,1.2,2,2.4,2c0.1,0,0.1,0,0.1,0
		c1.4-0.1,2.4-1.3,2.3-2.6c-0.1-1.4-1.3-2.4-2.6-2.3c-1.2,0.1-2.1,0.9-2.3,2v-59c0.1-0.2,0.1-0.5,0.1-0.7c0-0.3,0-0.6-0.1-0.9v-76.5
		h15v56.9c-0.2-1.2-1.3-2.1-2.6-2c-1.4,0.1-2.4,1.3-2.3,2.7c0.1,1.3,1.2,2.3,2.5,2.3c0,0,0.1,0,0.2,0c1.2-0.1,2.1-0.9,2.3-2v59
		c-0.1,0.2-0.1,0.5-0.2,0.7c0,0.3,0,0.6,0.2,0.9v76.5H492.5z M527.5,520.6c-0.1,0.2-0.2,0.5-0.2,0.7c0,0.5,0,0.9,0.2,1.3v74.9h-15
		v-55.7c0.2,1,0.9,1.8,2,2c0.2,0,0.3,0,0.5,0c1.2,0,2.2-0.8,2.5-2c0.3-1.4-0.6-2.7-2-2.9c-1.4-0.3-2.7,0.6-2.9,2v-60.3
		c0.1-0.3,0.2-0.6,0.1-0.9c0-0.2-0.1-0.5-0.1-0.7v-76.5h15V520.6z M600,347.5c-3.4,0-6.6-1-9.4-2.7l11.3-13.1l-3.8-3.3l-11.3,13.1
		c-2.7-3.1-4.3-7.1-4.3-11.5c0-9.6,7.9-17.5,17.5-17.5s17.5,7.9,17.5,17.5S609.6,347.5,600,347.5z"/>
	<path fill="#231F20" d="M581.8,378.2c-0.9-0.9-2.6-0.9-3.5,0c-0.5,0.5-0.7,1.1-0.7,1.8c0,0.7,0.3,1.3,0.7,1.8
		c0.5,0.5,1.1,0.7,1.8,0.7s1.3-0.3,1.8-0.7c0.5-0.5,0.7-1.1,0.7-1.8C582.5,379.3,582.2,378.7,581.8,378.2z"/>
	<path fill="#231F20" d="M512.6,459.1c0.2,1.2,1.3,2,2.5,2c0.2,0,0.3,0,0.5,0c1.4-0.3,2.2-1.6,2-2.9c-0.2-1.4-1.6-2.2-2.9-2
		C513.2,456.4,512.3,457.7,512.6,459.1z"/>
	<path fill="#231F20" d="M428.7,416.4c-1.2,0.7-1.6,2.2-1,3.4c0.5,0.8,1.3,1.3,2.2,1.3c0.4,0,0.8-0.1,1.2-0.3c1.2-0.7,1.6-2.2,1-3.4
		C431.4,416.2,429.9,415.7,428.7,416.4z"/>
	<path fill="#231F20" d="M447.1,440.1c-0.9,1.1-0.7,2.6,0.3,3.5c0.5,0.4,1,0.6,1.6,0.6c0.7,0,1.4-0.3,1.9-0.9
		c0.9-1.1,0.7-2.6-0.3-3.5C449.6,438.9,448,439,447.1,440.1z"/>
	<path fill="#231F20" d="M424.7,407.2c-1.3,0.5-1.9,2-1.4,3.2c0.4,1,1.3,1.6,2.3,1.6c0.3,0,0.6-0.1,0.9-0.2c1.3-0.5,1.9-2,1.4-3.2
		C427.4,407.3,426,406.7,424.7,407.2z"/>
	<path fill="#231F20" d="M443.5,433.1c-1-1-2.5-1.1-3.5-0.1c-1,0.9-1,2.5-0.1,3.5c0.5,0.5,1.2,0.8,1.8,0.8c0.6,0,1.2-0.2,1.7-0.7
		C444.4,435.7,444.5,434.1,443.5,433.1z"/>
	<path fill="#231F20" d="M420.3,387.6c-1.4,0.2-2.3,1.4-2.2,2.8c0.2,1.3,1.2,2.2,2.5,2.2c0.1,0,0.2,0,0.3,0c1.4-0.2,2.3-1.4,2.2-2.8
		S421.7,387.4,420.3,387.6z"/>
	<path fill="#231F20" d="M421.9,397.5c-1.3,0.3-2.1,1.7-1.8,3c0.3,1.1,1.3,1.9,2.4,1.9c0.2,0,0.4,0,0.6-0.1c1.3-0.3,2.1-1.7,1.8-3
		C424.6,398,423.2,397.2,421.9,397.5z"/>
	<path fill="#231F20" d="M437.3,425.6c-0.8-1.1-2.4-1.4-3.5-0.5c-1.1,0.8-1.4,2.4-0.5,3.5c0.5,0.7,1.2,1,2,1c0.5,0,1-0.2,1.5-0.5
		C437.9,428.3,438.1,426.7,437.3,425.6z"/>
	<path fill="#231F20" d="M571.3,416.4c-1.2-0.7-2.7-0.2-3.4,1c-0.7,1.2-0.2,2.7,1,3.4c0.4,0.2,0.8,0.3,1.2,0.3
		c0.9,0,1.7-0.5,2.2-1.3C573,418.5,572.5,417,571.3,416.4z"/>
	<path fill="#231F20" d="M566.2,425c-1.1-0.8-2.7-0.6-3.5,0.5c-0.8,1.1-0.6,2.7,0.5,3.5c0.5,0.3,1,0.5,1.5,0.5c0.8,0,1.5-0.4,2-1
		C567.6,427.4,567.3,425.8,566.2,425z"/>
	<path fill="#231F20" d="M552.9,440c-0.9-1.1-2.5-1.2-3.5-0.3c-1.1,0.9-1.2,2.5-0.3,3.5c0.5,0.6,1.2,0.9,1.9,0.9
		c0.6,0,1.1-0.2,1.6-0.6C553.6,442.7,553.8,441.1,552.9,440z"/>
	<path fill="#231F20" d="M558.3,437.3c0.7,0,1.3-0.3,1.8-0.8c1-1,0.9-2.6-0.1-3.5c-1-1-2.6-0.9-3.5,0.1c-1,1-0.9,2.6,0.1,3.5
		C557.1,437,557.7,437.3,558.3,437.3z"/>
	<path fill="#231F20" d="M542.9,450c0.5,0,0.9-0.1,1.3-0.4c1.2-0.7,1.5-2.3,0.8-3.4c-0.5-0.9-1.5-1.3-2.5-1.1V430h-5v47
		c0,0.1,0,0.2,0,0.3v44.3c-0.1,0.3-0.2,0.5-0.3,0.8c-0.1,0.6,0,1.1,0.3,1.5v46h5v-15.1c0.1,0,0.2,0,0.3,0c0.8,0,1.6-0.4,2.1-1.2
		c0.7-1.2,0.4-2.7-0.8-3.5c-0.5-0.3-1.1-0.4-1.7-0.4V450C542.6,450,542.8,450,542.9,450z"/>
	<path fill="#231F20" d="M579.7,387.5c-1.4-0.2-2.6,0.8-2.8,2.2c-0.2,1.4,0.8,2.6,2.2,2.8c0.1,0,0.2,0,0.3,0c1.2,0,2.3-0.9,2.5-2.2
		C582,389,581.1,387.7,579.7,387.5z"/>
	<path fill="#231F20" d="M495.2,457.3c-1.4-0.1-2.6,1-2.6,2.3c-0.1,1.4,1,2.6,2.4,2.6c0,0,0.1,0,0.1,0c1.3,0,2.4-1,2.5-2.3
		C497.6,458.6,496.5,457.4,495.2,457.3z"/>
	<path fill="#231F20" d="M474.5,458.5c0.3,0.1,0.5,0.1,0.8,0.1c1.1,0,2-0.7,2.4-1.7c0.4-1.3-0.3-2.7-1.6-3.1
		c-1.3-0.4-2.7,0.3-3.1,1.6C472.5,456.7,473.2,458.1,474.5,458.5z"/>
	<path fill="#231F20" d="M575.1,399.3c-0.3,1.3,0.5,2.7,1.8,3c0.2,0,0.4,0.1,0.6,0.1c1.1,0,2.1-0.8,2.4-1.9c0.3-1.3-0.5-2.7-1.8-3
		C576.8,397.1,575.4,397.9,575.1,399.3z"/>
	<path fill="#231F20" d="M524.8,458.6c0.2,0,0.5,0,0.8-0.1c1.3-0.4,2-1.8,1.6-3.2c-0.4-1.3-1.8-2-3.1-1.6c-1.3,0.4-2,1.8-1.6,3.1
		C522.7,457.9,523.7,458.6,524.8,458.6z"/>
	<path fill="#231F20" d="M572.1,408.5c-0.5,1.3,0.1,2.7,1.4,3.2c0.3,0.1,0.6,0.2,0.9,0.2c1,0,1.9-0.6,2.3-1.6
		c0.5-1.3-0.1-2.7-1.4-3.2C574,406.6,572.6,407.2,572.1,408.5z"/>
	<path fill="#231F20" d="M418.2,378.2c-0.5,0.5-0.7,1.1-0.7,1.8c0,0.7,0.3,1.3,0.7,1.8c0.5,0.5,1.1,0.7,1.8,0.7
		c0.7,0,1.3-0.3,1.8-0.7c0.5-0.5,0.7-1.1,0.7-1.8c0-0.7-0.3-1.3-0.7-1.8C420.8,377.3,419.2,377.3,418.2,378.2z"/>
	<path fill="#231F20" d="M418.2,621.8c0.5,0.5,1.1,0.7,1.8,0.7c0.7,0,1.3-0.3,1.8-0.7c0.5-0.5,0.7-1.1,0.7-1.8s-0.3-1.3-0.7-1.8
		c-0.9-0.9-2.6-0.9-3.5,0c-0.5,0.5-0.7,1.1-0.7,1.8S417.8,621.3,418.2,621.8z"/>
	<path fill="#231F20" d="M577.5,602.5c0.2,0,0.4,0,0.6-0.1c1.3-0.3,2.1-1.7,1.8-3c-0.3-1.3-1.7-2.2-3-1.8c-1.3,0.3-2.2,1.7-1.8,3
		C575.4,601.8,576.4,602.5,577.5,602.5z"/>
	<path fill="#231F20" d="M579.4,612.4c0.1,0,0.2,0,0.3,0c1.4-0.2,2.3-1.4,2.2-2.8s-1.4-2.3-2.8-2.2c-1.4,0.2-2.3,1.4-2.2,2.8
		C577,611.5,578.1,612.4,579.4,612.4z"/>
	<path fill="#231F20" d="M567.9,582.6c0.4,0.8,1.3,1.3,2.2,1.3c0.4,0,0.8-0.1,1.2-0.3c1.2-0.7,1.7-2.2,1-3.4c0,0,0,0,0,0
		c-0.7-1.2-2.2-1.7-3.4-1S567.2,581.4,567.9,582.6L567.9,582.6z"/>
	<path fill="#231F20" d="M574.4,593c0.3,0,0.6-0.1,0.9-0.2c1.3-0.5,1.9-2,1.4-3.2c0,0,0,0,0,0c-0.5-1.3-2-1.9-3.2-1.4
		c-1.3,0.5-1.9,2-1.4,3.2C572.4,592.4,573.4,593,574.4,593z"/>
	<path fill="#231F20" d="M562.7,574.4c0.5,0.7,1.2,1,2,1c0.5,0,1-0.1,1.5-0.5c1.1-0.8,1.4-2.4,0.5-3.5c-0.8-1.1-2.4-1.4-3.5-0.5
		C562.1,571.7,561.9,573.3,562.7,574.4z"/>
	<path fill="#231F20" d="M424.9,600.7c0.3-1.3-0.5-2.7-1.8-3c-1.3-0.3-2.7,0.5-3,1.8c-0.3,1.3,0.5,2.7,1.8,3
		c0.2,0.1,0.4,0.1,0.6,0.1C423.6,602.6,424.6,601.8,424.9,600.7z"/>
	<path fill="#231F20" d="M556.5,566.9c0.5,0.5,1.2,0.8,1.8,0.8c0.6,0,1.2-0.2,1.7-0.7c1-0.9,1-2.5,0.1-3.5c-0.9-1-2.5-1.1-3.5-0.1
		C555.6,564.3,555.5,565.9,556.5,566.9z"/>
	<path fill="#231F20" d="M427.9,591.5c0.5-1.3-0.1-2.7-1.4-3.2c-1.3-0.5-2.7,0.1-3.2,1.4c-0.5,1.3,0.1,2.7,1.4,3.2
		c0.3,0.1,0.6,0.2,0.9,0.2C426.6,593,427.5,592.4,427.9,591.5z"/>
	<path fill="#231F20" d="M505.1,537.7c-1.4-0.1-2.6,1-2.6,2.3c-0.1,1.4,1,2.6,2.3,2.6c0,0,0.1,0,0.2,0c1.3,0,2.4-1,2.5-2.3
		C507.6,538.9,506.5,537.7,505.1,537.7z"/>
	<path fill="#231F20" d="M551,560.8c0.7,0,1.4-0.3,1.9-0.9c0.9-1.1,0.7-2.6-0.3-3.5c-1.1-0.9-2.6-0.7-3.5,0.3
		c-0.9,1.1-0.7,2.6,0.3,3.5C549.8,560.6,550.4,560.8,551,560.8z"/>
	<path fill="#231F20" d="M487.4,540.9c-0.3-1.4-1.6-2.2-2.9-2c-1.4,0.3-2.2,1.6-2,2.9c0.2,1.2,1.3,2,2.5,2c0.1,0,0.3,0,0.5-0.1
		C486.8,543.6,487.7,542.3,487.4,540.9z"/>
	<path fill="#231F20" d="M474.5,541.5c-1.3,0.4-2,1.8-1.6,3.2c0.4,1.1,1.3,1.7,2.4,1.7c0.3,0,0.5,0,0.8-0.1c1.3-0.4,2-1.8,1.6-3.2
		C477.2,541.8,475.8,541.1,474.5,541.5z"/>
	<path fill="#231F20" d="M428.7,583.6c0.4,0.2,0.8,0.3,1.2,0.3c0.9,0,1.7-0.5,2.2-1.3c0.7-1.2,0.2-2.7-1-3.4c-1.2-0.7-2.7-0.2-3.4,1
		C427,581.5,427.5,583,428.7,583.6z"/>
	<path fill="#231F20" d="M420.3,612.5c0.1,0,0.2,0,0.3,0c1.2,0,2.3-0.9,2.5-2.2c0.2-1.4-0.8-2.6-2.2-2.8c-1.4-0.2-2.6,0.8-2.8,2.2
		C418,611,418.9,612.3,420.3,612.5z"/>
	<path fill="#231F20" d="M455.8,550.3c-1.2,0.7-1.5,2.3-0.8,3.5c0.5,0.8,1.3,1.2,2.1,1.2c0.1,0,0.3,0,0.4-0.1V570h5v-47
		c0-0.1,0-0.2,0-0.3v-44.4c0.1-0.3,0.2-0.5,0.3-0.8c0.1-0.5,0-1.1-0.3-1.5v-46h-5v15.1c-0.9-0.1-1.9,0.3-2.5,1.1
		c-0.8,1.2-0.4,2.7,0.8,3.4c0.4,0.3,0.9,0.4,1.3,0.4c0.1,0,0.2,0,0.4,0v100C456.9,549.9,456.3,550,455.8,550.3z"/>
	<path fill="#231F20" d="M447.1,560c0.5,0.6,1.2,0.9,1.9,0.9c0.6,0,1.1-0.2,1.6-0.6c1.1-0.9,1.2-2.5,0.3-3.5
		c-0.9-1.1-2.5-1.2-3.5-0.3C446.3,557.3,446.2,558.9,447.1,560z"/>
	<path fill="#231F20" d="M436.7,571c-1.1-0.8-2.7-0.6-3.5,0.5c-0.8,1.1-0.6,2.7,0.5,3.5c0.5,0.3,1,0.5,1.5,0.5c0.8,0,1.5-0.3,2-1
		l0,0C438.1,573.3,437.9,571.8,436.7,571z"/>
	<path fill="#231F20" d="M525.5,541.5c-1.3-0.4-2.7,0.3-3.2,1.6c-0.4,1.3,0.3,2.7,1.6,3.2c0.2,0.1,0.5,0.1,0.8,0.1
		c1,0,2-0.7,2.4-1.7C527.5,543.3,526.8,541.9,525.5,541.5z"/>
	<path fill="#231F20" d="M439.9,563.5c-1,1-0.9,2.6,0.1,3.5c0.5,0.5,1.1,0.7,1.7,0.7c0.7,0,1.3-0.3,1.8-0.8c0.9-1,0.9-2.6-0.1-3.5
		C442.4,562.5,440.8,562.5,439.9,563.5z"/>
	<path fill="#231F20" d="M580,622.5c0.7,0,1.3-0.3,1.8-0.7c0.5-0.5,0.7-1.1,0.7-1.8s-0.3-1.3-0.7-1.8c-0.9-0.9-2.6-0.9-3.5,0
		c-0.5,0.5-0.7,1.1-0.7,1.8s0.3,1.3,0.7,1.8C578.7,622.2,579.3,622.5,580,622.5z"/>
</g>
</svg>
