<?xml version="1.0" encoding="utf-8"?>
<!-- Generator: Adobe Illustrator 17.1.0, SVG Export Plug-In . SVG Version: 6.00 Build 0)  -->
<!DOCTYPE svg PUBLIC "-//W3C//DTD SVG 1.1//EN" "http://www.w3.org/Graphics/SVG/1.1/DTD/svg11.dtd">
<svg version="1.1" id="Layer_1" xmlns="http://www.w3.org/2000/svg" xmlns:xlink="http://www.w3.org/1999/xlink" x="0px" y="0px"
	 viewBox="0 0 1136 640" enable-background="new 0 0 1136 640" xml:space="preserve">
<rect x="399" y="242.75" fill="none" stroke="#231F20" stroke-miterlimit="10" width="67.5" height="11.25"/>
<rect x="365.25" y="254" fill="none" stroke="#231F20" stroke-miterlimit="10" width="90" height="7.5"/>
<rect x="357.75" y="246.5" fill="none" stroke="#231F20" stroke-miterlimit="10" width="41.25" height="7.5"/>
<rect x="342.75" y="242.75" fill="none" stroke="#231F20" stroke-miterlimit="10" width="56.25" height="3.75"/>
<rect x="342.75" y="246.5" fill="none" stroke="#231F20" stroke-miterlimit="10" width="15" height="48.75"/>
<rect x="357.75" y="254" fill="none" stroke="#231F20" stroke-miterlimit="10" width="7.5" height="41.25"/>
<polygon fill="none" stroke="#231F20" stroke-miterlimit="10" points="365.25,261.5 365.25,295.25 399,261.5 "/>
<polygon fill="none" stroke="#231F20" stroke-miterlimit="10" points="399,261.5 365.25,295.25 372.75,295.25 406.5,261.5 "/>
<polygon fill="none" stroke="#231F20" stroke-miterlimit="10" points="406.5,261.5 372.75,295.25 380.25,295.25 414,261.5 "/>
<polygon fill="none" stroke="#231F20" stroke-miterlimit="10" points="414,261.5 380.25,295.25 387.75,295.25 421.5,261.5 "/>
<rect x="421.5" y="261.5" fill="none" stroke="#231F20" stroke-miterlimit="10" width="7.5" height="33.75"/>
<polygon fill="none" stroke="#231F20" stroke-miterlimit="10" points="402.75,280.25 421.5,280.25 421.5,261.5 "/>
<polygon fill="none" stroke="#231F20" stroke-miterlimit="10" points="402.75,280.25 395.25,287.75 421.5,287.75 421.5,280.25 "/>
<polygon fill="none" stroke="#231F20" stroke-miterlimit="10" points="395.25,287.75 387.75,295.25 421.5,295.25 421.5,287.75 "/>
<rect x="414" y="254" fill="none" stroke="#231F20" stroke-miterlimit="10" width="7.5" height="7.5"/>
<rect x="414" y="242.75" fill="none" stroke="#231F20" stroke-miterlimit="10" width="7.5" height="11.25"/>
<rect x="414" y="227.75" fill="none" stroke="#231F20" stroke-miterlimit="10" width="7.5" height="15"/>
<rect x="365.25" y="295.25" fill="none" stroke="#231F20" stroke-miterlimit="10" width="7.5" height="15"/>
<rect x="342.75" y="227.75" fill="none" stroke="#231F20" stroke-miterlimit="10" width="37.5" height="3.75"/>
<rect x="346.5" y="231.5" fill="none" stroke="#231F20" stroke-miterlimit="10" width="33.75" height="7.5"/>
<rect x="339" y="239" fill="none" stroke="#231F20" stroke-miterlimit="10" width="41.25" height="3.75"/>
<rect x="432.75" y="261.5" fill="none" stroke="#231F20" stroke-miterlimit="10" width="11.25" height="7.5"/>
<rect x="372.75" y="295.25" fill="none" stroke="#231F20" stroke-miterlimit="10" width="15" height="15"/>
<rect x="387.75" y="295.25" fill="none" stroke="#231F20" stroke-miterlimit="10" width="41.25" height="7.5"/>
<rect x="357.75" y="295.25" fill="none" stroke="#231F20" stroke-miterlimit="10" width="7.5" height="15"/>
<rect x="342.75" y="295.25" fill="none" stroke="#231F20" stroke-miterlimit="10" width="15" height="15"/>
<rect x="342.75" y="246.5" fill="none" stroke="#231F20" stroke-miterlimit="10" width="7.5" height="48.75"/>
<rect x="399" y="242.75" fill="none" stroke="#231F20" stroke-miterlimit="10" width="7.5" height="11.25"/>
<rect x="380.25" y="235.25" fill="none" stroke="#231F20" stroke-miterlimit="10" width="33.75" height="7.5"/>
<rect x="519.625" y="242.75" fill="none" stroke="#231F20" stroke-miterlimit="10" width="67.5" height="11.25"/>
<rect x="530.875" y="254" fill="none" stroke="#231F20" stroke-miterlimit="10" width="90" height="7.5"/>
<rect x="587.125" y="246.5" fill="none" stroke="#231F20" stroke-miterlimit="10" width="41.25" height="7.5"/>
<rect x="587.125" y="242.75" fill="none" stroke="#231F20" stroke-miterlimit="10" width="56.25" height="3.75"/>
<rect x="628.375" y="246.5" fill="none" stroke="#231F20" stroke-miterlimit="10" width="15" height="48.75"/>
<rect x="620.875" y="254" fill="none" stroke="#231F20" stroke-miterlimit="10" width="7.5" height="41.25"/>
<polygon fill="none" stroke="#231F20" stroke-miterlimit="10" points="587.125,261.5 620.875,295.25 620.875,261.5 "/>
<polygon fill="none" stroke="#231F20" stroke-miterlimit="10" points="579.625,261.5 613.375,295.25 620.875,295.25 587.125,261.5 
	"/>
<polygon fill="none" stroke="#231F20" stroke-miterlimit="10" points="572.125,261.5 605.875,295.25 613.375,295.25 579.625,261.5 
	"/>
<polygon fill="none" stroke="#231F20" stroke-miterlimit="10" points="564.625,261.5 598.375,295.25 605.875,295.25 572.125,261.5 
	"/>
<rect x="557.125" y="261.5" fill="none" stroke="#231F20" stroke-miterlimit="10" width="7.5" height="33.75"/>
<polygon fill="none" stroke="#231F20" stroke-miterlimit="10" points="564.625,261.5 564.625,280.25 583.375,280.25 "/>
<polygon fill="none" stroke="#231F20" stroke-miterlimit="10" points="564.625,280.25 564.625,287.75 590.875,287.75 
	583.375,280.25 "/>
<polygon fill="none" stroke="#231F20" stroke-miterlimit="10" points="564.625,287.75 564.625,295.25 598.375,295.25 
	590.875,287.75 "/>
<rect x="564.625" y="254" fill="none" stroke="#231F20" stroke-miterlimit="10" width="7.5" height="7.5"/>
<rect x="564.625" y="242.75" fill="none" stroke="#231F20" stroke-miterlimit="10" width="7.5" height="11.25"/>
<rect x="564.625" y="227.75" fill="none" stroke="#231F20" stroke-miterlimit="10" width="7.5" height="15"/>
<rect x="613.375" y="295.25" fill="none" stroke="#231F20" stroke-miterlimit="10" width="7.5" height="15"/>
<rect x="605.875" y="227.75" fill="none" stroke="#231F20" stroke-miterlimit="10" width="37.5" height="3.75"/>
<rect x="605.875" y="231.5" fill="none" stroke="#231F20" stroke-miterlimit="10" width="33.75" height="7.5"/>
<rect x="605.875" y="239" fill="none" stroke="#231F20" stroke-miterlimit="10" width="41.25" height="3.75"/>
<rect x="542.125" y="261.5" fill="none" stroke="#231F20" stroke-miterlimit="10" width="11.25" height="7.5"/>
<rect x="598.375" y="295.25" fill="none" stroke="#231F20" stroke-miterlimit="10" width="15" height="15"/>
<rect x="557.125" y="295.25" fill="none" stroke="#231F20" stroke-miterlimit="10" width="41.25" height="7.5"/>
<rect x="620.875" y="295.25" fill="none" stroke="#231F20" stroke-miterlimit="10" width="7.5" height="15"/>
<rect x="628.375" y="295.25" fill="none" stroke="#231F20" stroke-miterlimit="10" width="15" height="15"/>
<rect x="635.875" y="246.5" fill="none" stroke="#231F20" stroke-miterlimit="10" width="7.5" height="48.75"/>
<rect x="579.625" y="242.75" fill="none" stroke="#231F20" stroke-miterlimit="10" width="7.5" height="11.25"/>
<rect x="572.125" y="235.25" fill="none" stroke="#231F20" stroke-miterlimit="10" width="33.75" height="7.5"/>
<rect x="519.625" y="396.5" fill="none" stroke="#231F20" stroke-miterlimit="10" width="67.5" height="11.25"/>
<rect x="530.875" y="389" fill="none" stroke="#231F20" stroke-miterlimit="10" width="90" height="7.5"/>
<rect x="587.125" y="396.5" fill="none" stroke="#231F20" stroke-miterlimit="10" width="41.25" height="7.5"/>
<rect x="587.125" y="404" fill="none" stroke="#231F20" stroke-miterlimit="10" width="56.25" height="3.75"/>
<rect x="628.375" y="355.25" fill="none" stroke="#231F20" stroke-miterlimit="10" width="15" height="48.75"/>
<rect x="620.875" y="355.25" fill="none" stroke="#231F20" stroke-miterlimit="10" width="7.5" height="41.25"/>
<polygon fill="none" stroke="#231F20" stroke-miterlimit="10" points="620.875,389 620.875,355.25 587.125,389 "/>
<polygon fill="none" stroke="#231F20" stroke-miterlimit="10" points="587.125,389 620.875,355.25 613.375,355.25 579.625,389 "/>
<polygon fill="none" stroke="#231F20" stroke-miterlimit="10" points="579.625,389 613.375,355.25 605.875,355.25 572.125,389 "/>
<polygon fill="none" stroke="#231F20" stroke-miterlimit="10" points="572.125,389 605.875,355.25 598.375,355.25 564.625,389 "/>
<rect x="557.125" y="355.25" fill="none" stroke="#231F20" stroke-miterlimit="10" width="7.5" height="33.75"/>
<polygon fill="none" stroke="#231F20" stroke-miterlimit="10" points="583.375,370.25 564.625,370.25 564.625,389 "/>
<polygon fill="none" stroke="#231F20" stroke-miterlimit="10" points="583.375,370.25 590.875,362.75 564.625,362.75 
	564.625,370.25 "/>
<polygon fill="none" stroke="#231F20" stroke-miterlimit="10" points="590.875,362.75 598.375,355.25 564.625,355.25 
	564.625,362.75 "/>
<rect x="564.625" y="389" fill="none" stroke="#231F20" stroke-miterlimit="10" width="7.5" height="7.5"/>
<rect x="564.625" y="396.5" fill="none" stroke="#231F20" stroke-miterlimit="10" width="7.5" height="11.25"/>
<rect x="564.625" y="407.75" fill="none" stroke="#231F20" stroke-miterlimit="10" width="7.5" height="15"/>
<rect x="613.375" y="340.25" fill="none" stroke="#231F20" stroke-miterlimit="10" width="7.5" height="15"/>
<rect x="605.875" y="419" fill="none" stroke="#231F20" stroke-miterlimit="10" width="37.5" height="3.75"/>
<rect x="605.875" y="411.5" fill="none" stroke="#231F20" stroke-miterlimit="10" width="33.75" height="7.5"/>
<rect x="605.875" y="407.75" fill="none" stroke="#231F20" stroke-miterlimit="10" width="41.25" height="3.75"/>
<rect x="542.125" y="381.5" fill="none" stroke="#231F20" stroke-miterlimit="10" width="11.25" height="7.5"/>
<rect x="598.375" y="340.25" fill="none" stroke="#231F20" stroke-miterlimit="10" width="15" height="15"/>
<rect x="557.125" y="347.75" fill="none" stroke="#231F20" stroke-miterlimit="10" width="41.25" height="7.5"/>
<rect x="620.875" y="340.25" fill="none" stroke="#231F20" stroke-miterlimit="10" width="7.5" height="15"/>
<rect x="628.375" y="340.25" fill="none" stroke="#231F20" stroke-miterlimit="10" width="15" height="15"/>
<rect x="635.875" y="355.25" fill="none" stroke="#231F20" stroke-miterlimit="10" width="7.5" height="48.75"/>
<rect x="579.625" y="396.5" fill="none" stroke="#231F20" stroke-miterlimit="10" width="7.5" height="11.25"/>
<rect x="572.125" y="407.75" fill="none" stroke="#231F20" stroke-miterlimit="10" width="33.75" height="7.5"/>
<g>
	<g>
		<rect x="380.25" y="227.75" fill="none" stroke="#231F20" stroke-miterlimit="10" width="112.5" height="15"/>
		<rect x="493.375" y="227.75" fill="none" stroke="#231F20" stroke-miterlimit="10" width="112.5" height="15"/>
	</g>
	<rect x="493.375" y="407.75" fill="none" stroke="#231F20" stroke-miterlimit="10" width="112.5" height="15"/>
	<rect x="380.25" y="407.75" fill="none" stroke="#231F20" stroke-miterlimit="10" width="112.5" height="15"/>
</g>
<rect x="399" y="396.5" fill="none" stroke="#231F20" stroke-miterlimit="10" width="67.5" height="11.25"/>
<rect x="365.25" y="389" fill="none" stroke="#231F20" stroke-miterlimit="10" width="90" height="7.5"/>
<rect x="357.75" y="396.5" fill="none" stroke="#231F20" stroke-miterlimit="10" width="41.25" height="7.5"/>
<rect x="342.75" y="404" fill="none" stroke="#231F20" stroke-miterlimit="10" width="56.25" height="3.75"/>
<rect x="342.75" y="355.25" fill="none" stroke="#231F20" stroke-miterlimit="10" width="15" height="48.75"/>
<rect x="357.75" y="355.25" fill="none" stroke="#231F20" stroke-miterlimit="10" width="7.5" height="41.25"/>
<polygon fill="none" stroke="#231F20" stroke-miterlimit="10" points="399,389 365.25,355.25 365.25,389 "/>
<polygon fill="none" stroke="#231F20" stroke-miterlimit="10" points="406.5,389 372.75,355.25 365.25,355.25 399,389 "/>
<polygon fill="none" stroke="#231F20" stroke-miterlimit="10" points="414,389 380.25,355.25 372.75,355.25 406.5,389 "/>
<polygon fill="none" stroke="#231F20" stroke-miterlimit="10" points="421.5,389 387.75,355.25 380.25,355.25 414,389 "/>
<rect x="421.5" y="355.25" fill="none" stroke="#231F20" stroke-miterlimit="10" width="7.5" height="33.75"/>
<polygon fill="none" stroke="#231F20" stroke-miterlimit="10" points="421.5,389 421.5,370.25 402.75,370.25 "/>
<polygon fill="none" stroke="#231F20" stroke-miterlimit="10" points="421.5,370.25 421.5,362.75 395.25,362.75 402.75,370.25 "/>
<polygon fill="none" stroke="#231F20" stroke-miterlimit="10" points="421.5,362.75 421.5,355.25 387.75,355.25 395.25,362.75 "/>
<rect x="414" y="389" fill="none" stroke="#231F20" stroke-miterlimit="10" width="7.5" height="7.5"/>
<rect x="414" y="396.5" fill="none" stroke="#231F20" stroke-miterlimit="10" width="7.5" height="11.25"/>
<rect x="414" y="407.75" fill="none" stroke="#231F20" stroke-miterlimit="10" width="7.5" height="15"/>
<rect x="365.25" y="340.25" fill="none" stroke="#231F20" stroke-miterlimit="10" width="7.5" height="15"/>
<rect x="342.75" y="419" fill="none" stroke="#231F20" stroke-miterlimit="10" width="37.5" height="3.75"/>
<rect x="346.5" y="411.5" fill="none" stroke="#231F20" stroke-miterlimit="10" width="33.75" height="7.5"/>
<rect x="339" y="407.75" fill="none" stroke="#231F20" stroke-miterlimit="10" width="41.25" height="3.75"/>
<rect x="432.75" y="381.5" fill="none" stroke="#231F20" stroke-miterlimit="10" width="11.25" height="7.5"/>
<rect x="372.75" y="340.25" fill="none" stroke="#231F20" stroke-miterlimit="10" width="15" height="15"/>
<rect x="387.75" y="347.75" fill="none" stroke="#231F20" stroke-miterlimit="10" width="41.25" height="7.5"/>
<g>
	<rect x="429" y="261.5" fill="none" stroke="#231F20" stroke-miterlimit="10" width="3.75" height="63.75"/>
	<rect x="432.75" y="269" fill="none" stroke="#231F20" stroke-miterlimit="10" width="3.75" height="52.5"/>
	<rect x="553.375" y="261.5" fill="none" stroke="#231F20" stroke-miterlimit="10" width="3.75" height="63.75"/>
	<rect x="549.625" y="269" fill="none" stroke="#231F20" stroke-miterlimit="10" width="3.75" height="52.5"/>
	<rect x="553.375" y="325.25" fill="none" stroke="#231F20" stroke-miterlimit="10" width="3.75" height="63.75"/>
	<rect x="549.625" y="329" fill="none" stroke="#231F20" stroke-miterlimit="10" width="3.75" height="52.5"/>
	<rect x="429" y="325.25" fill="none" stroke="#231F20" stroke-miterlimit="10" width="3.75" height="63.75"/>
	<rect x="432.75" y="329" fill="none" stroke="#231F20" stroke-miterlimit="10" width="3.75" height="52.5"/>
</g>
<rect x="357.75" y="340.25" fill="none" stroke="#231F20" stroke-miterlimit="10" width="7.5" height="15"/>
<rect x="342.75" y="340.25" fill="none" stroke="#231F20" stroke-miterlimit="10" width="15" height="15"/>
<rect x="342.75" y="355.25" fill="none" stroke="#231F20" stroke-miterlimit="10" width="7.5" height="48.75"/>
<rect x="399" y="396.5" fill="none" stroke="#231F20" stroke-miterlimit="10" width="7.5" height="11.25"/>
<rect x="380.25" y="407.75" fill="none" stroke="#231F20" stroke-miterlimit="10" width="33.75" height="7.5"/>
</svg>
