<?xml version="1.0" encoding="utf-8"?>
<!-- Generator: Adobe Illustrator 17.1.0, SVG Export Plug-In . SVG Version: 6.00 Build 0)  -->
<!DOCTYPE svg PUBLIC "-//W3C//DTD SVG 1.1//EN" "http://www.w3.org/Graphics/SVG/1.1/DTD/svg11.dtd">
<svg version="1.1" id="Layer_1" xmlns="http://www.w3.org/2000/svg" xmlns:xlink="http://www.w3.org/1999/xlink" x="0px" y="0px"
	 viewBox="0 0 1136 640" enable-background="new 0 0 1136 640" xml:space="preserve">
<rect x="328" y="199.5" fill="none" stroke="#231F20" stroke-miterlimit="10" width="112.5" height="15"/>
<rect x="354.25" y="214.5" fill="none" stroke="#231F20" stroke-miterlimit="10" width="67.5" height="11.25"/>
<rect x="365.5" y="225.75" fill="none" stroke="#231F20" stroke-miterlimit="10" width="90" height="7.5"/>
<rect x="421.75" y="218.25" fill="none" stroke="#231F20" stroke-miterlimit="10" width="41.25" height="7.5"/>
<rect x="421.75" y="214.5" fill="none" stroke="#231F20" stroke-miterlimit="10" width="56.25" height="3.75"/>
<rect x="463" y="218.25" fill="none" stroke="#231F20" stroke-miterlimit="10" width="15" height="48.75"/>
<rect x="455.5" y="225.75" fill="none" stroke="#231F20" stroke-miterlimit="10" width="7.5" height="41.25"/>
<polygon fill="none" stroke="#231F20" stroke-miterlimit="10" points="421.75,233.25 455.5,267 455.5,233.25 "/>
<polygon fill="none" stroke="#231F20" stroke-miterlimit="10" points="414.25,233.25 448,267 455.5,267 421.75,233.25 "/>
<polygon fill="none" stroke="#231F20" stroke-miterlimit="10" points="406.75,233.25 440.5,267 448,267 414.25,233.25 "/>
<polygon fill="none" stroke="#231F20" stroke-miterlimit="10" points="399.25,233.25 433,267 440.5,267 406.75,233.25 "/>
<rect x="391.75" y="233.25" fill="none" stroke="#231F20" stroke-miterlimit="10" width="7.5" height="33.75"/>
<polygon fill="none" stroke="#231F20" stroke-miterlimit="10" points="399.25,233.25 399.25,252 418,252 "/>
<polygon fill="none" stroke="#231F20" stroke-miterlimit="10" points="399.25,252 399.25,259.5 425.5,259.5 418,252 "/>
<polygon fill="none" stroke="#231F20" stroke-miterlimit="10" points="399.25,259.5 399.25,267 433,267 425.5,259.5 "/>
<rect x="399.25" y="225.75" fill="none" stroke="#231F20" stroke-miterlimit="10" width="7.5" height="7.5"/>
<rect x="399.25" y="214.5" fill="none" stroke="#231F20" stroke-miterlimit="10" width="7.5" height="11.25"/>
<rect x="399.25" y="199.5" fill="none" stroke="#231F20" stroke-miterlimit="10" width="7.5" height="15"/>
<rect x="448" y="267" fill="none" stroke="#231F20" stroke-miterlimit="10" width="7.5" height="15"/>
<rect x="388" y="233.25" fill="none" stroke="#231F20" stroke-miterlimit="10" width="3.75" height="63.75"/>
<rect x="440.5" y="199.5" fill="none" stroke="#231F20" stroke-miterlimit="10" width="37.5" height="3.75"/>
<rect x="440.5" y="203.25" fill="none" stroke="#231F20" stroke-miterlimit="10" width="33.75" height="7.5"/>
<rect x="440.5" y="210.75" fill="none" stroke="#231F20" stroke-miterlimit="10" width="41.25" height="3.75"/>
<rect x="376.75" y="233.25" fill="none" stroke="#231F20" stroke-miterlimit="10" width="11.25" height="7.5"/>
<rect x="433" y="267" fill="none" stroke="#231F20" stroke-miterlimit="10" width="15" height="15"/>
<rect x="391.75" y="267" fill="none" stroke="#231F20" stroke-miterlimit="10" width="41.25" height="7.5"/>
<rect x="384.25" y="240.75" fill="none" stroke="#231F20" stroke-miterlimit="10" width="3.75" height="52.5"/>
<rect x="391.75" y="274.5" fill="none" stroke="#231F20" stroke-miterlimit="10" width="11.25" height="22.5"/>
<rect x="403" y="289.5" fill="none" stroke="#231F20" stroke-miterlimit="10" width="52.5" height="7.5"/>
<polygon fill="none" stroke="#231F20" stroke-miterlimit="10" points="433,282 425.5,289.5 436.75,289.5 444.25,282 "/>
<polygon fill="none" stroke="#231F20" stroke-miterlimit="10" points="448,282 440.5,289.5 436.75,289.5 444.25,282 "/>
<polygon fill="none" stroke="#231F20" stroke-miterlimit="10" points="455.5,282 448,289.5 440.5,289.5 448,282 "/>
<rect x="403" y="274.5" fill="none" stroke="#231F20" stroke-miterlimit="10" width="3.75" height="15"/>
<rect x="406.75" y="274.5" fill="none" stroke="#231F20" stroke-miterlimit="10" width="26.25" height="7.5"/>
<polygon fill="none" stroke="#231F20" stroke-miterlimit="10" points="406.75,282 406.75,289.5 425.5,289.5 433,282 "/>
<rect x="455.5" y="267" fill="none" stroke="#231F20" stroke-miterlimit="10" width="7.5" height="15"/>
<polygon fill="none" stroke="#231F20" stroke-miterlimit="10" points="463,282 455.5,289.5 448,289.5 455.5,282 "/>
<rect x="463" y="267" fill="none" stroke="#231F20" stroke-miterlimit="10" width="15" height="15"/>
<rect x="455.5" y="289.5" fill="none" stroke="#231F20" stroke-miterlimit="10" width="56.25" height="7.5"/>
<rect x="463" y="282" fill="none" stroke="#231F20" stroke-miterlimit="10" width="15" height="7.5"/>
<polygon fill="none" stroke="#231F20" stroke-miterlimit="10" points="504.25,289.5 504.25,237 508,233.25 508,289.5 "/>
<polygon fill="none" stroke="#231F20" stroke-miterlimit="10" points="508,289.5 515.5,289.5 515.5,207 508,207 508,237 "/>
<rect x="504.25" y="203.25" fill="none" stroke="#231F20" stroke-miterlimit="10" width="48.75" height="3.75"/>
<rect x="496.75" y="192" fill="none" stroke="#231F20" stroke-miterlimit="10" width="37.5" height="11.25"/>
<rect x="534.25" y="195.75" fill="none" stroke="#231F20" stroke-miterlimit="10" width="18.75" height="3.75"/>
<rect x="534.25" y="199.5" fill="none" stroke="#231F20" stroke-miterlimit="10" width="15" height="3.75"/>
<rect x="515.5" y="207" fill="none" stroke="#231F20" stroke-miterlimit="10" width="7.5" height="52.5"/>
<polygon fill="none" stroke="#231F20" stroke-miterlimit="10" points="541.75,214.5 541.75,248.25 534.25,248.25 534.25,222 "/>
<polygon fill="none" stroke="#231F20" stroke-miterlimit="10" points="530.5,225.75 530.5,263.25 534.25,263.25 534.25,222 "/>
<polygon fill="none" stroke="#231F20" stroke-miterlimit="10" points="523,233.25 523,248.25 530.5,248.25 530.5,225.75 "/>
<polygon fill="none" stroke="#231F20" stroke-miterlimit="10" points="545.5,210.75 545.5,263.25 541.75,263.25 541.75,214.5 "/>
<rect x="534.25" y="248.25" fill="none" stroke="#231F20" stroke-miterlimit="10" width="7.5" height="26.25"/>
<rect x="526.75" y="248.25" fill="none" stroke="#231F20" stroke-miterlimit="10" width="3.75" height="22.5"/>
<rect x="523" y="248.25" fill="none" stroke="#231F20" stroke-miterlimit="10" width="3.75" height="18.75"/>
<rect x="515.5" y="259.5" fill="none" stroke="#231F20" stroke-miterlimit="10" width="7.5" height="7.5"/>
<rect x="515.5" y="267" fill="none" stroke="#231F20" stroke-miterlimit="10" width="11.25" height="3.75"/>
<rect x="515.5" y="270.75" fill="none" stroke="#231F20" stroke-miterlimit="10" width="18.75" height="3.75"/>
<rect x="515.5" y="274.5" fill="none" stroke="#231F20" stroke-miterlimit="10" width="30" height="3.75"/>
<rect x="515.5" y="278.25" fill="none" stroke="#231F20" stroke-miterlimit="10" width="37.5" height="7.5"/>
<polygon fill="none" stroke="#231F20" stroke-miterlimit="10" points="508,207 478,237 478,244.5 508,214.5 "/>
<rect x="508" y="203.25" fill="none" stroke="#231F20" stroke-miterlimit="10" width="7.5" height="3.75"/>
<rect x="508" y="207" fill="none" stroke="#231F20" stroke-miterlimit="10" width="7.5" height="7.5"/>
<polygon fill="none" stroke="#231F20" stroke-miterlimit="10" points="478,248.25 508,218.25 508,214.5 478,244.5 "/>
<polygon fill="none" stroke="#231F20" stroke-miterlimit="10" points="478,248.25 508,218.25 508,233.25 478,263.25 "/>
<polygon fill="none" stroke="#231F20" stroke-miterlimit="10" points="500.5,240.75 500.5,289.5 504.25,289.5 504.25,237 "/>
<polygon fill="none" stroke="#231F20" stroke-miterlimit="10" points="485.5,255.75 485.5,289.5 478,289.5 478,263.25 "/>
<polygon fill="none" stroke="#231F20" stroke-miterlimit="10" points="481.75,259.5 481.75,289.5 485.5,289.5 485.5,255.75 "/>
<polygon fill="none" stroke="#231F20" stroke-miterlimit="10" points="478,233.25 504.25,207 508,207 478,237 "/>
<rect x="496.75" y="195.75" fill="none" stroke="#231F20" stroke-miterlimit="10" width="37.5" height="7.5"/>
<rect x="496.75" y="199.5" fill="none" stroke="#231F20" stroke-miterlimit="10" width="22.5" height="3.75"/>
<rect x="470.5" y="218.25" fill="none" stroke="#231F20" stroke-miterlimit="10" width="7.5" height="48.75"/>
<rect x="414.25" y="214.5" fill="none" stroke="#231F20" stroke-miterlimit="10" width="7.5" height="11.25"/>
<rect x="406.75" y="207" fill="none" stroke="#231F20" stroke-miterlimit="10" width="33.75" height="7.5"/>
<rect x="399.25" y="297" fill="none" stroke="#231F20" stroke-miterlimit="10" width="67.5" height="7.5"/>
<polygon fill="none" stroke="#231F20" stroke-miterlimit="10" points="388,297 395.5,304.5 395.5,297 "/>
<polygon fill="none" stroke="#231F20" stroke-miterlimit="10" points="388,297 365.5,297 365.5,304.5 395.5,304.5 "/>
<polygon fill="none" stroke="#231F20" stroke-miterlimit="10" points="384.25,293.25 369.25,293.25 369.25,297 388,297 388,293.25 
	"/>
<rect x="395.5" y="297" fill="none" stroke="#231F20" stroke-miterlimit="10" width="3.75" height="7.5"/>
<polygon fill="none" stroke="#231F20" stroke-miterlimit="10" points="395.5,304.5 403,312 410.5,312 403,304.5 "/>
<polygon fill="none" stroke="#231F20" stroke-miterlimit="10" points="410.5,312 463,312 455.5,304.5 403,304.5 "/>
<polygon fill="none" stroke="#231F20" stroke-miterlimit="10" points="369.25,304.5 369.25,312 403,312 395.5,304.5 "/>
<polygon fill="none" stroke="#231F20" stroke-miterlimit="10" points="455.5,304.5 466.75,304.5 474.25,312 463,312 "/>
<polygon fill="none" stroke="#231F20" stroke-miterlimit="10" points="466.75,304.5 500.5,304.5 508,297 466.75,297 "/>
<polygon fill="none" stroke="#231F20" stroke-miterlimit="10" points="511.75,297 511.75,289.5 549.25,289.5 541.75,297 "/>
<polygon fill="none" stroke="#231F20" stroke-miterlimit="10" points="504.25,300.75 534.25,300.75 538,297 508,297 "/>
<polygon fill="none" stroke="#231F20" stroke-miterlimit="10" points="530.5,300.75 530.5,308.25 496.75,308.25 504.25,300.75 "/>
<polygon fill="none" stroke="#231F20" stroke-miterlimit="10" points="470.5,308.25 496.75,308.25 500.5,304.5 466.75,304.5 "/>
<polygon fill="none" stroke="#231F20" stroke-miterlimit="10" points="470.5,308.25 474.25,312 523,312 526.75,308.25 "/>
<rect x="665.417" y="199.5" fill="none" stroke="#231F20" stroke-miterlimit="10" width="112.5" height="15"/>
<rect x="684.167" y="214.5" fill="none" stroke="#231F20" stroke-miterlimit="10" width="67.5" height="11.25"/>
<rect x="650.417" y="225.75" fill="none" stroke="#231F20" stroke-miterlimit="10" width="90" height="7.5"/>
<rect x="642.917" y="218.25" fill="none" stroke="#231F20" stroke-miterlimit="10" width="41.25" height="7.5"/>
<rect x="627.917" y="214.5" fill="none" stroke="#231F20" stroke-miterlimit="10" width="56.25" height="3.75"/>
<rect x="627.917" y="218.25" fill="none" stroke="#231F20" stroke-miterlimit="10" width="15" height="48.75"/>
<rect x="642.917" y="225.75" fill="none" stroke="#231F20" stroke-miterlimit="10" width="7.5" height="41.25"/>
<polygon fill="none" stroke="#231F20" stroke-miterlimit="10" points="650.417,233.25 650.417,267 684.167,233.25 "/>
<polygon fill="none" stroke="#231F20" stroke-miterlimit="10" points="684.167,233.25 650.417,267 657.917,267 691.667,233.25 "/>
<polygon fill="none" stroke="#231F20" stroke-miterlimit="10" points="691.667,233.25 657.917,267 665.417,267 699.167,233.25 "/>
<polygon fill="none" stroke="#231F20" stroke-miterlimit="10" points="699.167,233.25 665.417,267 672.917,267 706.667,233.25 "/>
<rect x="706.667" y="233.25" fill="none" stroke="#231F20" stroke-miterlimit="10" width="7.5" height="33.75"/>
<polygon fill="none" stroke="#231F20" stroke-miterlimit="10" points="687.917,252 706.667,252 706.667,233.25 "/>
<polygon fill="none" stroke="#231F20" stroke-miterlimit="10" points="687.917,252 680.417,259.5 706.667,259.5 706.667,252 "/>
<polygon fill="none" stroke="#231F20" stroke-miterlimit="10" points="680.417,259.5 672.917,267 706.667,267 706.667,259.5 "/>
<rect x="699.167" y="225.75" fill="none" stroke="#231F20" stroke-miterlimit="10" width="7.5" height="7.5"/>
<rect x="699.167" y="214.5" fill="none" stroke="#231F20" stroke-miterlimit="10" width="7.5" height="11.25"/>
<rect x="699.167" y="199.5" fill="none" stroke="#231F20" stroke-miterlimit="10" width="7.5" height="15"/>
<rect x="650.417" y="267" fill="none" stroke="#231F20" stroke-miterlimit="10" width="7.5" height="15"/>
<rect x="714.167" y="233.25" fill="none" stroke="#231F20" stroke-miterlimit="10" width="3.75" height="63.75"/>
<rect x="627.917" y="199.5" fill="none" stroke="#231F20" stroke-miterlimit="10" width="37.5" height="3.75"/>
<rect x="631.667" y="203.25" fill="none" stroke="#231F20" stroke-miterlimit="10" width="33.75" height="7.5"/>
<rect x="624.167" y="210.75" fill="none" stroke="#231F20" stroke-miterlimit="10" width="41.25" height="3.75"/>
<rect x="717.917" y="233.25" fill="none" stroke="#231F20" stroke-miterlimit="10" width="11.25" height="7.5"/>
<rect x="657.917" y="267" fill="none" stroke="#231F20" stroke-miterlimit="10" width="15" height="15"/>
<rect x="672.917" y="267" fill="none" stroke="#231F20" stroke-miterlimit="10" width="41.25" height="7.5"/>
<rect x="717.917" y="240.75" fill="none" stroke="#231F20" stroke-miterlimit="10" width="3.75" height="52.5"/>
<rect x="702.917" y="274.5" fill="none" stroke="#231F20" stroke-miterlimit="10" width="11.25" height="22.5"/>
<rect x="650.417" y="289.5" fill="none" stroke="#231F20" stroke-miterlimit="10" width="52.5" height="7.5"/>
<polygon fill="none" stroke="#231F20" stroke-miterlimit="10" points="661.667,282 669.167,289.5 680.417,289.5 672.917,282 "/>
<polygon fill="none" stroke="#231F20" stroke-miterlimit="10" points="661.667,282 669.167,289.5 665.417,289.5 657.917,282 "/>
<polygon fill="none" stroke="#231F20" stroke-miterlimit="10" points="657.917,282 665.417,289.5 657.917,289.5 650.417,282 "/>
<rect x="699.167" y="274.5" fill="none" stroke="#231F20" stroke-miterlimit="10" width="3.75" height="15"/>
<rect x="672.917" y="274.5" fill="none" stroke="#231F20" stroke-miterlimit="10" width="26.25" height="7.5"/>
<polygon fill="none" stroke="#231F20" stroke-miterlimit="10" points="672.917,282 680.417,289.5 699.167,289.5 699.167,282 "/>
<rect x="642.917" y="267" fill="none" stroke="#231F20" stroke-miterlimit="10" width="7.5" height="15"/>
<polygon fill="none" stroke="#231F20" stroke-miterlimit="10" points="650.417,282 657.917,289.5 650.417,289.5 642.917,282 "/>
<rect x="627.917" y="267" fill="none" stroke="#231F20" stroke-miterlimit="10" width="15" height="15"/>
<rect x="594.167" y="289.5" fill="none" stroke="#231F20" stroke-miterlimit="10" width="56.25" height="7.5"/>
<rect x="627.917" y="282" fill="none" stroke="#231F20" stroke-miterlimit="10" width="15" height="7.5"/>
<polygon fill="none" stroke="#231F20" stroke-miterlimit="10" points="597.917,289.5 597.917,233.25 601.667,237 601.667,289.5 "/>
<polygon fill="none" stroke="#231F20" stroke-miterlimit="10" points="597.917,237 597.917,207 590.417,207 590.417,289.5 
	597.917,289.5 "/>
<rect x="552.917" y="203.25" fill="none" stroke="#231F20" stroke-miterlimit="10" width="48.75" height="3.75"/>
<rect x="571.667" y="192" fill="none" stroke="#231F20" stroke-miterlimit="10" width="37.5" height="11.25"/>
<rect x="552.917" y="195.75" fill="none" stroke="#231F20" stroke-miterlimit="10" width="18.75" height="3.75"/>
<rect x="556.667" y="199.5" fill="none" stroke="#231F20" stroke-miterlimit="10" width="15" height="3.75"/>
<rect x="582.917" y="207" fill="none" stroke="#231F20" stroke-miterlimit="10" width="7.5" height="52.5"/>
<polygon fill="none" stroke="#231F20" stroke-miterlimit="10" points="571.667,222 571.667,248.25 564.167,248.25 564.167,214.5 "/>
<polygon fill="none" stroke="#231F20" stroke-miterlimit="10" points="571.667,222 571.667,263.25 575.417,263.25 575.417,225.75 
	"/>
<polygon fill="none" stroke="#231F20" stroke-miterlimit="10" points="575.417,225.75 575.417,248.25 582.917,248.25 
	582.917,233.25 "/>
<polygon fill="none" stroke="#231F20" stroke-miterlimit="10" points="564.167,214.5 564.167,263.25 560.417,263.25 560.417,210.75 
	"/>
<rect x="564.167" y="248.25" fill="none" stroke="#231F20" stroke-miterlimit="10" width="7.5" height="26.25"/>
<rect x="575.417" y="248.25" fill="none" stroke="#231F20" stroke-miterlimit="10" width="3.75" height="22.5"/>
<rect x="579.167" y="248.25" fill="none" stroke="#231F20" stroke-miterlimit="10" width="3.75" height="18.75"/>
<rect x="582.917" y="259.5" fill="none" stroke="#231F20" stroke-miterlimit="10" width="7.5" height="7.5"/>
<rect x="579.167" y="267" fill="none" stroke="#231F20" stroke-miterlimit="10" width="11.25" height="3.75"/>
<rect x="571.667" y="270.75" fill="none" stroke="#231F20" stroke-miterlimit="10" width="18.75" height="3.75"/>
<rect x="560.417" y="274.5" fill="none" stroke="#231F20" stroke-miterlimit="10" width="30" height="3.75"/>
<rect x="552.917" y="278.25" fill="none" stroke="#231F20" stroke-miterlimit="10" width="37.5" height="7.5"/>
<polygon fill="none" stroke="#231F20" stroke-miterlimit="10" points="597.917,214.5 627.917,244.5 627.917,237 597.917,207 "/>
<rect x="590.417" y="203.25" fill="none" stroke="#231F20" stroke-miterlimit="10" width="7.5" height="3.75"/>
<rect x="590.417" y="207" fill="none" stroke="#231F20" stroke-miterlimit="10" width="7.5" height="7.5"/>
<polygon fill="none" stroke="#231F20" stroke-miterlimit="10" points="627.917,244.5 597.917,214.5 597.917,218.25 627.917,248.25 
	"/>
<polygon fill="none" stroke="#231F20" stroke-miterlimit="10" points="627.917,263.25 597.917,233.25 597.917,218.25 
	627.917,248.25 "/>
<polygon fill="none" stroke="#231F20" stroke-miterlimit="10" points="601.667,237 601.667,289.5 605.417,289.5 605.417,240.75 "/>
<polygon fill="none" stroke="#231F20" stroke-miterlimit="10" points="627.917,263.25 627.917,289.5 620.417,289.5 620.417,255.75 
	"/>
<polygon fill="none" stroke="#231F20" stroke-miterlimit="10" points="620.417,255.75 620.417,289.5 624.167,289.5 624.167,259.5 
	"/>
<polygon fill="none" stroke="#231F20" stroke-miterlimit="10" points="627.917,237 597.917,207 601.667,207 627.917,233.25 "/>
<rect x="571.667" y="195.75" fill="none" stroke="#231F20" stroke-miterlimit="10" width="37.5" height="7.5"/>
<rect x="586.667" y="199.5" fill="none" stroke="#231F20" stroke-miterlimit="10" width="22.5" height="3.75"/>
<rect x="627.917" y="218.25" fill="none" stroke="#231F20" stroke-miterlimit="10" width="7.5" height="48.75"/>
<rect x="684.167" y="214.5" fill="none" stroke="#231F20" stroke-miterlimit="10" width="7.5" height="11.25"/>
<rect x="665.417" y="207" fill="none" stroke="#231F20" stroke-miterlimit="10" width="33.75" height="7.5"/>
<rect x="639.167" y="297" fill="none" stroke="#231F20" stroke-miterlimit="10" width="67.5" height="7.5"/>
<polygon fill="none" stroke="#231F20" stroke-miterlimit="10" points="710.417,297 710.417,304.5 717.917,297 "/>
<polygon fill="none" stroke="#231F20" stroke-miterlimit="10" points="710.417,304.5 740.417,304.5 740.417,297 717.917,297 "/>
<polygon fill="none" stroke="#231F20" stroke-miterlimit="10" points="717.917,293.25 717.917,297 736.667,297 736.667,293.25 
	721.667,293.25 "/>
<rect x="706.667" y="297" fill="none" stroke="#231F20" stroke-miterlimit="10" width="3.75" height="7.5"/>
<polygon fill="none" stroke="#231F20" stroke-miterlimit="10" points="702.917,304.5 695.417,312 702.917,312 710.417,304.5 "/>
<polygon fill="none" stroke="#231F20" stroke-miterlimit="10" points="702.917,304.5 650.417,304.5 642.917,312 695.417,312 "/>
<polygon fill="none" stroke="#231F20" stroke-miterlimit="10" points="710.417,304.5 702.917,312 736.667,312 736.667,304.5 "/>
<polygon fill="none" stroke="#231F20" stroke-miterlimit="10" points="642.917,312 631.667,312 639.167,304.5 650.417,304.5 "/>
<polygon fill="none" stroke="#231F20" stroke-miterlimit="10" points="639.167,297 597.917,297 605.417,304.5 639.167,304.5 "/>
<polygon fill="none" stroke="#231F20" stroke-miterlimit="10" points="564.167,297 556.667,289.5 594.167,289.5 594.167,297 "/>
<polygon fill="none" stroke="#231F20" stroke-miterlimit="10" points="597.917,297 567.917,297 571.667,300.75 601.667,300.75 "/>
<polygon fill="none" stroke="#231F20" stroke-miterlimit="10" points="601.667,300.75 609.167,308.25 575.417,308.25 
	575.417,300.75 "/>
<polygon fill="none" stroke="#231F20" stroke-miterlimit="10" points="639.167,304.5 605.417,304.5 609.167,308.25 635.417,308.25 
	"/>
<polygon fill="none" stroke="#231F20" stroke-miterlimit="10" points="579.167,308.25 582.917,312 631.667,312 635.417,308.25 "/>
<rect x="665.417" y="412.083" fill="none" stroke="#231F20" stroke-miterlimit="10" width="112.5" height="15"/>
<rect x="684.167" y="400.833" fill="none" stroke="#231F20" stroke-miterlimit="10" width="67.5" height="11.25"/>
<rect x="650.417" y="393.333" fill="none" stroke="#231F20" stroke-miterlimit="10" width="90" height="7.5"/>
<rect x="642.917" y="400.833" fill="none" stroke="#231F20" stroke-miterlimit="10" width="41.25" height="7.5"/>
<rect x="627.917" y="408.333" fill="none" stroke="#231F20" stroke-miterlimit="10" width="56.25" height="3.75"/>
<rect x="627.917" y="359.583" fill="none" stroke="#231F20" stroke-miterlimit="10" width="15" height="48.75"/>
<rect x="642.917" y="359.583" fill="none" stroke="#231F20" stroke-miterlimit="10" width="7.5" height="41.25"/>
<polygon fill="none" stroke="#231F20" stroke-miterlimit="10" points="684.167,393.333 650.417,359.583 650.417,393.333 "/>
<polygon fill="none" stroke="#231F20" stroke-miterlimit="10" points="691.667,393.333 657.917,359.583 650.417,359.583 
	684.167,393.333 "/>
<polygon fill="none" stroke="#231F20" stroke-miterlimit="10" points="699.167,393.333 665.417,359.583 657.917,359.583 
	691.667,393.333 "/>
<polygon fill="none" stroke="#231F20" stroke-miterlimit="10" points="706.667,393.333 672.917,359.583 665.417,359.583 
	699.167,393.333 "/>
<rect x="706.667" y="359.583" fill="none" stroke="#231F20" stroke-miterlimit="10" width="7.5" height="33.75"/>
<polygon fill="none" stroke="#231F20" stroke-miterlimit="10" points="706.667,393.333 706.667,374.583 687.917,374.583 "/>
<polygon fill="none" stroke="#231F20" stroke-miterlimit="10" points="706.667,374.583 706.667,367.083 680.417,367.083 
	687.917,374.583 "/>
<polygon fill="none" stroke="#231F20" stroke-miterlimit="10" points="706.667,367.083 706.667,359.583 672.917,359.583 
	680.417,367.083 "/>
<rect x="699.167" y="393.333" fill="none" stroke="#231F20" stroke-miterlimit="10" width="7.5" height="7.5"/>
<rect x="699.167" y="400.833" fill="none" stroke="#231F20" stroke-miterlimit="10" width="7.5" height="11.25"/>
<rect x="699.167" y="412.083" fill="none" stroke="#231F20" stroke-miterlimit="10" width="7.5" height="15"/>
<rect x="650.417" y="344.583" fill="none" stroke="#231F20" stroke-miterlimit="10" width="7.5" height="15"/>
<rect x="714.167" y="329.583" fill="none" stroke="#231F20" stroke-miterlimit="10" width="3.75" height="63.75"/>
<rect x="627.917" y="423.333" fill="none" stroke="#231F20" stroke-miterlimit="10" width="37.5" height="3.75"/>
<rect x="631.667" y="415.833" fill="none" stroke="#231F20" stroke-miterlimit="10" width="33.75" height="7.5"/>
<rect x="624.167" y="412.083" fill="none" stroke="#231F20" stroke-miterlimit="10" width="41.25" height="3.75"/>
<rect x="717.917" y="385.833" fill="none" stroke="#231F20" stroke-miterlimit="10" width="11.25" height="7.5"/>
<rect x="657.917" y="344.583" fill="none" stroke="#231F20" stroke-miterlimit="10" width="15" height="15"/>
<rect x="672.917" y="352.083" fill="none" stroke="#231F20" stroke-miterlimit="10" width="41.25" height="7.5"/>
<rect x="717.917" y="333.333" fill="none" stroke="#231F20" stroke-miterlimit="10" width="3.75" height="52.5"/>
<rect x="702.917" y="329.583" fill="none" stroke="#231F20" stroke-miterlimit="10" width="11.25" height="22.5"/>
<rect x="650.417" y="329.583" fill="none" stroke="#231F20" stroke-miterlimit="10" width="52.5" height="7.5"/>
<polygon fill="none" stroke="#231F20" stroke-miterlimit="10" points="672.917,344.583 680.417,337.083 669.167,337.083 
	661.667,344.583 "/>
<polygon fill="none" stroke="#231F20" stroke-miterlimit="10" points="657.917,344.583 665.417,337.083 669.167,337.083 
	661.667,344.583 "/>
<polygon fill="none" stroke="#231F20" stroke-miterlimit="10" points="650.417,344.583 657.917,337.083 665.417,337.083 
	657.917,344.583 "/>
<rect x="699.167" y="337.083" fill="none" stroke="#231F20" stroke-miterlimit="10" width="3.75" height="15"/>
<rect x="672.917" y="344.583" fill="none" stroke="#231F20" stroke-miterlimit="10" width="26.25" height="7.5"/>
<polygon fill="none" stroke="#231F20" stroke-miterlimit="10" points="699.167,344.583 699.167,337.083 680.417,337.083 
	672.917,344.583 "/>
<rect x="642.917" y="344.583" fill="none" stroke="#231F20" stroke-miterlimit="10" width="7.5" height="15"/>
<polygon fill="none" stroke="#231F20" stroke-miterlimit="10" points="642.917,344.583 650.417,337.083 657.917,337.083 
	650.417,344.583 "/>
<rect x="627.917" y="344.583" fill="none" stroke="#231F20" stroke-miterlimit="10" width="15" height="15"/>
<rect x="594.167" y="329.583" fill="none" stroke="#231F20" stroke-miterlimit="10" width="56.25" height="7.5"/>
<rect x="627.917" y="337.083" fill="none" stroke="#231F20" stroke-miterlimit="10" width="15" height="7.5"/>
<polygon fill="none" stroke="#231F20" stroke-miterlimit="10" points="601.667,337.083 601.667,389.583 597.917,393.333 
	597.917,337.083 "/>
<polygon fill="none" stroke="#231F20" stroke-miterlimit="10" points="597.917,337.083 590.417,337.083 590.417,419.583 
	597.917,419.583 597.917,389.583 "/>
<rect x="552.917" y="419.583" fill="none" stroke="#231F20" stroke-miterlimit="10" width="48.75" height="3.75"/>
<rect x="571.667" y="423.333" fill="none" stroke="#231F20" stroke-miterlimit="10" width="37.5" height="11.25"/>
<rect x="552.917" y="427.083" fill="none" stroke="#231F20" stroke-miterlimit="10" width="18.75" height="3.75"/>
<rect x="556.667" y="423.333" fill="none" stroke="#231F20" stroke-miterlimit="10" width="15" height="3.75"/>
<rect x="582.917" y="367.083" fill="none" stroke="#231F20" stroke-miterlimit="10" width="7.5" height="52.5"/>
<polygon fill="none" stroke="#231F20" stroke-miterlimit="10" points="564.167,412.083 564.167,378.333 571.667,378.333 
	571.667,404.583 "/>
<polygon fill="none" stroke="#231F20" stroke-miterlimit="10" points="575.417,400.833 575.417,363.333 571.667,363.333 
	571.667,404.583 "/>
<polygon fill="none" stroke="#231F20" stroke-miterlimit="10" points="582.917,393.333 582.917,378.333 575.417,378.333 
	575.417,400.833 "/>
<polygon fill="none" stroke="#231F20" stroke-miterlimit="10" points="560.417,415.833 560.417,363.333 564.167,363.333 
	564.167,412.083 "/>
<rect x="564.167" y="352.083" fill="none" stroke="#231F20" stroke-miterlimit="10" width="7.5" height="26.25"/>
<rect x="575.417" y="355.833" fill="none" stroke="#231F20" stroke-miterlimit="10" width="3.75" height="22.5"/>
<rect x="579.167" y="359.583" fill="none" stroke="#231F20" stroke-miterlimit="10" width="3.75" height="18.75"/>
<rect x="582.917" y="359.583" fill="none" stroke="#231F20" stroke-miterlimit="10" width="7.5" height="7.5"/>
<rect x="579.167" y="355.833" fill="none" stroke="#231F20" stroke-miterlimit="10" width="11.25" height="3.75"/>
<rect x="571.667" y="352.083" fill="none" stroke="#231F20" stroke-miterlimit="10" width="18.75" height="3.75"/>
<rect x="552.917" y="340.833" fill="none" stroke="#231F20" stroke-miterlimit="10" width="37.5" height="7.5"/>
<rect x="552.917" y="337.083" fill="none" stroke="#231F20" stroke-miterlimit="10" width="37.5" height="3.75"/>
<polygon fill="none" stroke="#231F20" stroke-miterlimit="10" points="597.917,419.583 627.917,389.583 627.917,382.083 
	597.917,412.083 "/>
<rect x="590.417" y="419.583" fill="none" stroke="#231F20" stroke-miterlimit="10" width="7.5" height="3.75"/>
<rect x="590.417" y="412.083" fill="none" stroke="#231F20" stroke-miterlimit="10" width="7.5" height="7.5"/>
<polygon fill="none" stroke="#231F20" stroke-miterlimit="10" points="627.917,378.333 597.917,408.333 597.917,412.083 
	627.917,382.083 "/>
<polygon fill="none" stroke="#231F20" stroke-miterlimit="10" points="627.917,378.333 597.917,408.333 597.917,393.333 
	627.917,363.333 "/>
<polygon fill="none" stroke="#231F20" stroke-miterlimit="10" points="605.417,385.833 605.417,337.083 601.667,337.083 
	601.667,389.583 "/>
<polygon fill="none" stroke="#231F20" stroke-miterlimit="10" points="620.417,370.833 620.417,337.083 627.917,337.083 
	627.917,363.333 "/>
<polygon fill="none" stroke="#231F20" stroke-miterlimit="10" points="624.167,367.083 624.167,337.083 620.417,337.083 
	620.417,370.833 "/>
<polygon fill="none" stroke="#231F20" stroke-miterlimit="10" points="627.917,393.333 601.667,419.583 597.917,419.583 
	627.917,389.583 "/>
<rect x="571.667" y="423.333" fill="none" stroke="#231F20" stroke-miterlimit="10" width="37.5" height="7.5"/>
<rect x="586.667" y="423.333" fill="none" stroke="#231F20" stroke-miterlimit="10" width="22.5" height="3.75"/>
<rect x="627.917" y="359.583" fill="none" stroke="#231F20" stroke-miterlimit="10" width="7.5" height="48.75"/>
<rect x="684.167" y="400.833" fill="none" stroke="#231F20" stroke-miterlimit="10" width="7.5" height="11.25"/>
<rect x="665.417" y="412.083" fill="none" stroke="#231F20" stroke-miterlimit="10" width="33.75" height="7.5"/>
<rect x="639.167" y="322.083" fill="none" stroke="#231F20" stroke-miterlimit="10" width="67.5" height="7.5"/>
<polygon fill="none" stroke="#231F20" stroke-miterlimit="10" points="717.917,329.583 710.417,322.083 710.417,329.583 "/>
<polygon fill="none" stroke="#231F20" stroke-miterlimit="10" points="717.917,329.583 740.417,329.583 740.417,322.083 
	710.417,322.083 "/>
<polygon fill="none" stroke="#231F20" stroke-miterlimit="10" points="721.667,333.333 736.667,333.333 736.667,329.583 
	717.917,329.583 717.917,333.333 "/>
<rect x="706.667" y="322.083" fill="none" stroke="#231F20" stroke-miterlimit="10" width="3.75" height="7.5"/>
<polygon fill="none" stroke="#231F20" stroke-miterlimit="10" points="710.417,322.083 702.917,314.583 695.417,314.583 
	702.917,322.083 "/>
<polygon fill="none" stroke="#231F20" stroke-miterlimit="10" points="695.417,314.583 642.917,314.583 650.417,322.083 
	702.917,322.083 "/>
<polygon fill="none" stroke="#231F20" stroke-miterlimit="10" points="736.667,322.083 736.667,314.583 702.917,314.583 
	710.417,322.083 "/>
<polygon fill="none" stroke="#231F20" stroke-miterlimit="10" points="650.417,322.083 639.167,322.083 631.667,314.583 
	642.917,314.583 "/>
<polygon fill="none" stroke="#231F20" stroke-miterlimit="10" points="639.167,322.083 605.417,322.083 597.917,329.583 
	639.167,329.583 "/>
<polygon fill="none" stroke="#231F20" stroke-miterlimit="10" points="594.167,329.583 594.167,337.083 556.667,337.083 
	564.167,329.583 "/>
<polygon fill="none" stroke="#231F20" stroke-miterlimit="10" points="601.667,325.833 571.667,325.833 567.917,329.583 
	597.917,329.583 "/>
<polygon fill="none" stroke="#231F20" stroke-miterlimit="10" points="575.417,325.833 575.417,318.333 609.167,318.333 
	601.667,325.833 "/>
<polygon fill="none" stroke="#231F20" stroke-miterlimit="10" points="635.417,318.333 609.167,318.333 605.417,322.083 
	639.167,322.083 "/>
<polygon fill="none" stroke="#231F20" stroke-miterlimit="10" points="635.417,318.333 631.667,314.583 582.917,314.583 
	579.167,318.333 "/>
<rect x="328" y="412.083" fill="none" stroke="#231F20" stroke-miterlimit="10" width="112.5" height="15"/>
<rect x="354.25" y="400.833" fill="none" stroke="#231F20" stroke-miterlimit="10" width="67.5" height="11.25"/>
<rect x="365.5" y="393.333" fill="none" stroke="#231F20" stroke-miterlimit="10" width="90" height="7.5"/>
<rect x="421.75" y="400.833" fill="none" stroke="#231F20" stroke-miterlimit="10" width="41.25" height="7.5"/>
<rect x="421.75" y="408.333" fill="none" stroke="#231F20" stroke-miterlimit="10" width="56.25" height="3.75"/>
<rect x="463" y="359.583" fill="none" stroke="#231F20" stroke-miterlimit="10" width="15" height="48.75"/>
<rect x="455.5" y="359.583" fill="none" stroke="#231F20" stroke-miterlimit="10" width="7.5" height="41.25"/>
<polygon fill="none" stroke="#231F20" stroke-miterlimit="10" points="455.5,393.333 455.5,359.583 421.75,393.333 "/>
<polygon fill="none" stroke="#231F20" stroke-miterlimit="10" points="421.75,393.333 455.5,359.583 448,359.583 414.25,393.333 "/>
<polygon fill="none" stroke="#231F20" stroke-miterlimit="10" points="414.25,393.333 448,359.583 440.5,359.583 406.75,393.333 "/>
<polygon fill="none" stroke="#231F20" stroke-miterlimit="10" points="406.75,393.333 440.5,359.583 433,359.583 399.25,393.333 "/>
<rect x="391.75" y="359.583" fill="none" stroke="#231F20" stroke-miterlimit="10" width="7.5" height="33.75"/>
<polygon fill="none" stroke="#231F20" stroke-miterlimit="10" points="418,374.583 399.25,374.583 399.25,393.333 "/>
<polygon fill="none" stroke="#231F20" stroke-miterlimit="10" points="418,374.583 425.5,367.083 399.25,367.083 399.25,374.583 "/>
<polygon fill="none" stroke="#231F20" stroke-miterlimit="10" points="425.5,367.083 433,359.583 399.25,359.583 399.25,367.083 "/>
<rect x="399.25" y="393.333" fill="none" stroke="#231F20" stroke-miterlimit="10" width="7.5" height="7.5"/>
<rect x="399.25" y="400.833" fill="none" stroke="#231F20" stroke-miterlimit="10" width="7.5" height="11.25"/>
<rect x="399.25" y="412.083" fill="none" stroke="#231F20" stroke-miterlimit="10" width="7.5" height="15"/>
<rect x="448" y="344.583" fill="none" stroke="#231F20" stroke-miterlimit="10" width="7.5" height="15"/>
<rect x="388" y="329.583" fill="none" stroke="#231F20" stroke-miterlimit="10" width="3.75" height="63.75"/>
<rect x="440.5" y="423.333" fill="none" stroke="#231F20" stroke-miterlimit="10" width="37.5" height="3.75"/>
<rect x="440.5" y="415.833" fill="none" stroke="#231F20" stroke-miterlimit="10" width="33.75" height="7.5"/>
<rect x="440.5" y="412.083" fill="none" stroke="#231F20" stroke-miterlimit="10" width="41.25" height="3.75"/>
<rect x="376.75" y="385.833" fill="none" stroke="#231F20" stroke-miterlimit="10" width="11.25" height="7.5"/>
<rect x="433" y="344.583" fill="none" stroke="#231F20" stroke-miterlimit="10" width="15" height="15"/>
<rect x="391.75" y="352.083" fill="none" stroke="#231F20" stroke-miterlimit="10" width="41.25" height="7.5"/>
<rect x="384.25" y="333.333" fill="none" stroke="#231F20" stroke-miterlimit="10" width="3.75" height="52.5"/>
<rect x="391.75" y="329.583" fill="none" stroke="#231F20" stroke-miterlimit="10" width="11.25" height="22.5"/>
<rect x="403" y="329.583" fill="none" stroke="#231F20" stroke-miterlimit="10" width="52.5" height="7.5"/>
<polygon fill="none" stroke="#231F20" stroke-miterlimit="10" points="444.25,344.583 436.75,337.083 425.5,337.083 433,344.583 "/>
<polygon fill="none" stroke="#231F20" stroke-miterlimit="10" points="444.25,344.583 436.75,337.083 440.5,337.083 448,344.583 "/>
<polygon fill="none" stroke="#231F20" stroke-miterlimit="10" points="448,344.583 440.5,337.083 448,337.083 455.5,344.583 "/>
<rect x="403" y="337.083" fill="none" stroke="#231F20" stroke-miterlimit="10" width="3.75" height="15"/>
<rect x="406.75" y="344.583" fill="none" stroke="#231F20" stroke-miterlimit="10" width="26.25" height="7.5"/>
<polygon fill="none" stroke="#231F20" stroke-miterlimit="10" points="433,344.583 425.5,337.083 406.75,337.083 406.75,344.583 "/>
<rect x="455.5" y="344.583" fill="none" stroke="#231F20" stroke-miterlimit="10" width="7.5" height="15"/>
<polygon fill="none" stroke="#231F20" stroke-miterlimit="10" points="455.5,344.583 448,337.083 455.5,337.083 463,344.583 "/>
<rect x="463" y="344.583" fill="none" stroke="#231F20" stroke-miterlimit="10" width="15" height="15"/>
<rect x="455.5" y="329.583" fill="none" stroke="#231F20" stroke-miterlimit="10" width="56.25" height="7.5"/>
<rect x="463" y="337.083" fill="none" stroke="#231F20" stroke-miterlimit="10" width="15" height="7.5"/>
<polygon fill="none" stroke="#231F20" stroke-miterlimit="10" points="508,337.083 508,393.333 504.25,389.583 504.25,337.083 "/>
<polygon fill="none" stroke="#231F20" stroke-miterlimit="10" points="508,389.583 508,419.583 515.5,419.583 515.5,337.083 
	508,337.083 "/>
<rect x="504.25" y="419.583" fill="none" stroke="#231F20" stroke-miterlimit="10" width="48.75" height="3.75"/>
<rect x="496.75" y="423.333" fill="none" stroke="#231F20" stroke-miterlimit="10" width="37.5" height="11.25"/>
<rect x="534.25" y="427.083" fill="none" stroke="#231F20" stroke-miterlimit="10" width="18.75" height="3.75"/>
<rect x="534.25" y="423.333" fill="none" stroke="#231F20" stroke-miterlimit="10" width="15" height="3.75"/>
<rect x="515.5" y="367.083" fill="none" stroke="#231F20" stroke-miterlimit="10" width="7.5" height="52.5"/>
<g>
	<polygon fill="none" stroke="#231F20" stroke-miterlimit="10" points="523,207 549.25,207 523,233.25 	"/>
	<polygon fill="none" stroke="#231F20" stroke-miterlimit="10" points="582.917,233.25 556.667,207 582.917,207 	"/>
	<polygon fill="none" stroke="#231F20" stroke-miterlimit="10" points="582.917,419.583 556.667,419.583 582.917,393.333 	"/>
	<polygon fill="none" stroke="#231F20" stroke-miterlimit="10" points="523,393.333 549.25,419.583 523,419.583 	"/>
</g>
<polygon fill="none" stroke="#231F20" stroke-miterlimit="10" points="534.25,404.583 534.25,378.333 541.75,378.333 
	541.75,412.083 "/>
<polygon fill="none" stroke="#231F20" stroke-miterlimit="10" points="534.25,404.583 534.25,363.333 530.5,363.333 530.5,400.833 
	"/>
<polygon fill="none" stroke="#231F20" stroke-miterlimit="10" points="530.5,400.833 530.5,378.333 523,378.333 523,393.333 "/>
<polygon fill="none" stroke="#231F20" stroke-miterlimit="10" points="541.75,412.083 541.75,363.333 545.5,363.333 545.5,415.833 
	"/>
<rect x="534.25" y="352.083" fill="none" stroke="#231F20" stroke-miterlimit="10" width="7.5" height="26.25"/>
<rect x="526.75" y="355.833" fill="none" stroke="#231F20" stroke-miterlimit="10" width="3.75" height="22.5"/>
<rect x="523" y="359.583" fill="none" stroke="#231F20" stroke-miterlimit="10" width="3.75" height="18.75"/>
<rect x="515.5" y="359.583" fill="none" stroke="#231F20" stroke-miterlimit="10" width="7.5" height="7.5"/>
<rect x="515.5" y="355.833" fill="none" stroke="#231F20" stroke-miterlimit="10" width="11.25" height="3.75"/>
<rect x="515.5" y="352.083" fill="none" stroke="#231F20" stroke-miterlimit="10" width="18.75" height="3.75"/>
<g>
	<rect x="515.5" y="285.75" fill="none" stroke="#231F20" stroke-miterlimit="10" width="37.5" height="3.75"/>
	<rect x="552.917" y="285.75" fill="none" stroke="#231F20" stroke-miterlimit="10" width="37.5" height="3.75"/>
	<rect x="560.417" y="348.333" fill="none" stroke="#231F20" stroke-miterlimit="10" width="30" height="3.75"/>
	<rect x="515.5" y="348.333" fill="none" stroke="#231F20" stroke-miterlimit="10" width="30" height="3.75"/>
</g>
<rect x="515.5" y="340.833" fill="none" stroke="#231F20" stroke-miterlimit="10" width="37.5" height="7.5"/>
<rect x="515.5" y="337.083" fill="none" stroke="#231F20" stroke-miterlimit="10" width="37.5" height="3.75"/>
<polygon fill="none" stroke="#231F20" stroke-miterlimit="10" points="508,412.083 478,382.083 478,389.583 508,419.583 "/>
<rect x="508" y="419.583" fill="none" stroke="#231F20" stroke-miterlimit="10" width="7.5" height="3.75"/>
<rect x="508" y="412.083" fill="none" stroke="#231F20" stroke-miterlimit="10" width="7.5" height="7.5"/>
<polygon fill="none" stroke="#231F20" stroke-miterlimit="10" points="478,382.083 508,412.083 508,408.333 478,378.333 "/>
<polygon fill="none" stroke="#231F20" stroke-miterlimit="10" points="478,363.333 508,393.333 508,408.333 478,378.333 "/>
<polygon fill="none" stroke="#231F20" stroke-miterlimit="10" points="504.25,389.583 504.25,337.083 500.5,337.083 500.5,385.833 
	"/>
<polygon fill="none" stroke="#231F20" stroke-miterlimit="10" points="478,363.333 478,337.083 485.5,337.083 485.5,370.833 "/>
<polygon fill="none" stroke="#231F20" stroke-miterlimit="10" points="485.5,370.833 485.5,337.083 481.75,337.083 481.75,367.083 
	"/>
<polygon fill="none" stroke="#231F20" stroke-miterlimit="10" points="478,389.583 508,419.583 504.25,419.583 478,393.333 "/>
<rect x="496.75" y="423.333" fill="none" stroke="#231F20" stroke-miterlimit="10" width="37.5" height="7.5"/>
<rect x="496.75" y="423.333" fill="none" stroke="#231F20" stroke-miterlimit="10" width="22.5" height="3.75"/>
<rect x="470.5" y="359.583" fill="none" stroke="#231F20" stroke-miterlimit="10" width="7.5" height="48.75"/>
<rect x="414.25" y="400.833" fill="none" stroke="#231F20" stroke-miterlimit="10" width="7.5" height="11.25"/>
<rect x="406.75" y="412.083" fill="none" stroke="#231F20" stroke-miterlimit="10" width="33.75" height="7.5"/>
<rect x="399.25" y="322.083" fill="none" stroke="#231F20" stroke-miterlimit="10" width="67.5" height="7.5"/>
<polygon fill="none" stroke="#231F20" stroke-miterlimit="10" points="395.5,329.583 395.5,322.083 388,329.583 "/>
<polygon fill="none" stroke="#231F20" stroke-miterlimit="10" points="395.5,322.083 365.5,322.083 365.5,329.583 388,329.583 "/>
<polygon fill="none" stroke="#231F20" stroke-miterlimit="10" points="388,333.333 388,329.583 369.25,329.583 369.25,333.333 
	384.25,333.333 "/>
<rect x="395.5" y="322.083" fill="none" stroke="#231F20" stroke-miterlimit="10" width="3.75" height="7.5"/>
<polygon fill="none" stroke="#231F20" stroke-miterlimit="10" points="403,322.083 410.5,314.583 403,314.583 395.5,322.083 "/>
<polygon fill="none" stroke="#231F20" stroke-miterlimit="10" points="403,322.083 455.5,322.083 463,314.583 410.5,314.583 "/>
<polygon fill="none" stroke="#231F20" stroke-miterlimit="10" points="395.5,322.083 403,314.583 369.25,314.583 369.25,322.083 "/>
<polygon fill="none" stroke="#231F20" stroke-miterlimit="10" points="463,314.583 474.25,314.583 466.75,322.083 455.5,322.083 "/>
<polygon fill="none" stroke="#231F20" stroke-miterlimit="10" points="466.75,329.583 508,329.583 500.5,322.083 466.75,322.083 "/>
<polygon fill="none" stroke="#231F20" stroke-miterlimit="10" points="541.75,329.583 549.25,337.083 511.75,337.083 
	511.75,329.583 "/>
<polygon fill="none" stroke="#231F20" stroke-miterlimit="10" points="508,329.583 538,329.583 534.25,325.833 504.25,325.833 "/>
<polygon fill="none" stroke="#231F20" stroke-miterlimit="10" points="504.25,325.833 496.75,318.333 530.5,318.333 530.5,325.833 
	"/>
<polygon fill="none" stroke="#231F20" stroke-miterlimit="10" points="466.75,322.083 500.5,322.083 496.75,318.333 470.5,318.333 
	"/>
<polygon fill="none" stroke="#231F20" stroke-miterlimit="10" points="526.75,318.333 523,314.583 474.25,314.583 470.5,318.333 "/>
</svg>
