<?xml version="1.0" encoding="utf-8"?>
<!-- Generator: Adobe Illustrator 17.1.0, SVG Export Plug-In . SVG Version: 6.00 Build 0)  -->
<!DOCTYPE svg PUBLIC "-//W3C//DTD SVG 1.1//EN" "http://www.w3.org/Graphics/SVG/1.1/DTD/svg11.dtd">
<svg version="1.1" id="Layer_1" xmlns="http://www.w3.org/2000/svg" xmlns:xlink="http://www.w3.org/1999/xlink" x="0px" y="0px"
	 viewBox="0 0 1000 1000" enable-background="new 0 0 1000 1000" xml:space="preserve">
<polygon fill="#FFFFFF" stroke="#16B34C" stroke-miterlimit="10" points="500,387.5 500,687.5 800,687.5 "/>
<polygon fill="#FFFFFF" stroke="#16B34C" stroke-miterlimit="10" points="450,387.5 450,687.5 750,687.5 "/>
<polygon fill="#FFFFFF" stroke="#16B34C" stroke-miterlimit="10" points="400,387.5 400,687.5 700,687.5 "/>
<polygon fill="#FFFFFF" stroke="#16B34C" stroke-miterlimit="10" points="350,387.5 350,687.5 650,687.5 "/>
<polygon fill="#FFFFFF" stroke="#16B34C" stroke-miterlimit="10" points="300,387.5 300,687.5 600,687.5 "/>
<polygon fill="#FFFFFF" stroke="#16B34C" stroke-miterlimit="10" points="500,200 500,500 800,500 "/>
<polygon fill="#FFFFFF" stroke="#16B34C" stroke-miterlimit="10" points="450,200 450,500 750,500 "/>
<polygon fill="#FFFFFF" stroke="#16B34C" stroke-miterlimit="10" points="400,200 400,500 700,500 "/>
<polygon fill="#FFFFFF" stroke="#16B34C" stroke-miterlimit="10" points="350,200 350,500 650,500 "/>
<polygon fill="#FFFFFF" stroke="#16B34C" stroke-miterlimit="10" points="300,200 300,500 600,500 "/>
<polygon fill="#FFFFFF" stroke="#16B34C" stroke-miterlimit="10" points="250,250 250,350 450,550 450,450 "/>
<polygon fill="#FFFFFF" stroke="#16B34C" stroke-miterlimit="10" points="300,250 300,350 500,550 500,450 "/>
<polygon fill="#FFFFFF" stroke="#16B34C" stroke-miterlimit="10" points="350,250 350,350 550,550 550,450 "/>
<polygon fill="#FFFFFF" stroke="#16B34C" stroke-miterlimit="10" points="400,250 400,350 600,550 600,450 "/>
<polygon fill="#FFFFFF" stroke="#16B34C" stroke-miterlimit="10" points="450,250 450,350 650,550 650,450 "/>
<polygon fill="#FFFFFF" stroke="#16B34C" stroke-miterlimit="10" points="250,550 250,650 450,850 450,750 "/>
<polygon fill="#FFFFFF" stroke="#16B34C" stroke-miterlimit="10" points="300,550 300,650 500,850 500,750 "/>
<polygon fill="#FFFFFF" stroke="#16B34C" stroke-miterlimit="10" points="350,550 350,650 550,850 550,750 "/>
<polygon fill="#FFFFFF" stroke="#16B34C" stroke-miterlimit="10" points="400,550 400,650 600,850 600,750 "/>
<polygon fill="#FFFFFF" stroke="#16B34C" stroke-miterlimit="10" points="450,550 450,650 650,850 650,750 "/>
</svg>
