<?xml version="1.0" encoding="utf-8"?>
<!-- Generator: Adobe Illustrator 17.1.0, SVG Export Plug-In . SVG Version: 6.00 Build 0)  -->
<!DOCTYPE svg PUBLIC "-//W3C//DTD SVG 1.1//EN" "http://www.w3.org/Graphics/SVG/1.1/DTD/svg11.dtd">
<svg version="1.1" id="Layer_1" xmlns="http://www.w3.org/2000/svg" xmlns:xlink="http://www.w3.org/1999/xlink" x="0px" y="0px"
	 viewBox="0 0 1000 1000" enable-background="new 0 0 1000 1000" xml:space="preserve">
<rect x="500" y="104.5" fill="#FFFFFF" stroke="#16B34C" stroke-miterlimit="10" width="150" height="187.5"/>
<polygon fill="#FFFFFF" stroke="#16B34C" stroke-miterlimit="10" points="875,500 650,500 650,275 "/>
<polygon fill="#FFFFFF" stroke="#16B34C" stroke-miterlimit="10" points="650,292 650,264 500,67.1 500,104.6 "/>
<rect x="500" y="170.2" fill="#FFFFFF" stroke="#16B34C" stroke-miterlimit="10" width="150" height="187.5"/>
<polygon fill="#FFFFFF" stroke="#16B34C" stroke-miterlimit="10" points="875,565.6 650,565.6 650,340.6 "/>
<polygon fill="#FFFFFF" stroke="#16B34C" stroke-miterlimit="10" points="650,357.7 650,329.5 500,132.7 500,170.2 "/>
<rect x="500" y="235.8" fill="#FFFFFF" stroke="#16B34C" stroke-miterlimit="10" width="150" height="187.5"/>
<polygon fill="#FFFFFF" stroke="#16B34C" stroke-miterlimit="10" points="875,631.2 650,631.2 650,406.2 "/>
<polygon fill="#FFFFFF" stroke="#16B34C" stroke-miterlimit="10" points="650,423.2 650,395.2 500,198.3 500,235.8 "/>
<rect x="500" y="301.4" fill="#FFFFFF" stroke="#16B34C" stroke-miterlimit="10" width="150" height="187.5"/>
<polygon fill="#FFFFFF" stroke="#16B34C" stroke-miterlimit="10" points="875,696.9 650,696.9 650,471.9 "/>
<polygon fill="#FFFFFF" stroke="#16B34C" stroke-miterlimit="10" points="650,489 650,460.8 500,264 500,301.4 "/>
<rect x="500" y="584.3" fill="#FFFFFF" stroke="#16B34C" stroke-miterlimit="10" width="150" height="187.5"/>
<polygon fill="#FFFFFF" stroke="#16B34C" stroke-miterlimit="10" points="875,771.9 650,771.9 650,546.9 "/>
<polygon fill="#FFFFFF" stroke="#16B34C" stroke-miterlimit="10" points="650,771.9 650,743.7 500,546.9 500,584.3 "/>
<rect x="500" y="668.7" fill="#FFFFFF" stroke="#16B34C" stroke-miterlimit="10" width="150" height="187.5"/>
<polygon fill="#FFFFFF" stroke="#16B34C" stroke-miterlimit="10" points="875,856.2 650,856.2 650,631.2 "/>
<polygon fill="#FFFFFF" stroke="#16B34C" stroke-miterlimit="10" points="650,856.2 650,828.1 500,631.2 500,668.7 "/>
<rect x="350" y="209.4" fill="#FFFFFF" stroke="#16B34C" stroke-miterlimit="10" width="150" height="187.5"/>
<polygon fill="#FFFFFF" stroke="#16B34C" stroke-miterlimit="10" points="125,303.2 350,303.2 350,78.2 "/>
<polygon fill="#FFFFFF" stroke="#16B34C" stroke-miterlimit="10" points="350,396.9 350,368.8 500,171.9 500,209.4 "/>
<rect x="350" y="275" fill="#FFFFFF" stroke="#16B34C" stroke-miterlimit="10" width="150" height="187.5"/>
<polygon fill="#FFFFFF" stroke="#16B34C" stroke-miterlimit="10" points="125,368.8 350,368.8 350,143.8 "/>
<polygon fill="#FFFFFF" stroke="#16B34C" stroke-miterlimit="10" points="350,462.5 350,434.4 500,237.5 500,275 "/>
<rect x="350" y="340.6" fill="#FFFFFF" stroke="#16B34C" stroke-miterlimit="10" width="150" height="187.5"/>
<polygon fill="#FFFFFF" stroke="#16B34C" stroke-miterlimit="10" points="125,434.3 350,434.3 350,209.4 "/>
<polygon fill="#FFFFFF" stroke="#16B34C" stroke-miterlimit="10" points="350,528.1 350,500 500,303.1 500,340.6 "/>
<rect x="350" y="406.2" fill="#FFFFFF" stroke="#16B34C" stroke-miterlimit="10" width="150" height="187.5"/>
<polygon fill="#FFFFFF" stroke="#16B34C" stroke-miterlimit="10" points="125,593.8 350,593.8 350,368.8 "/>
<polygon fill="#FFFFFF" stroke="#16B34C" stroke-miterlimit="10" points="350,593.8 350,565.6 500,368.8 500,406.2 "/>
<rect x="350" y="481.2" fill="#FFFFFF" stroke="#16B34C" stroke-miterlimit="10" width="150" height="187.5"/>
<polygon fill="#FFFFFF" stroke="#16B34C" stroke-miterlimit="10" points="125,668.8 350,668.8 350,443.8 "/>
<polygon fill="#FFFFFF" stroke="#16B34C" stroke-miterlimit="10" points="350,668.8 350,640.6 500,443.8 500,481.2 "/>
<rect x="350" y="565.6" fill="#FFFFFF" stroke="#16B34C" stroke-miterlimit="10" width="150" height="187.5"/>
<polygon fill="#FFFFFF" stroke="#16B34C" stroke-miterlimit="10" points="125,753.1 350,753.1 350,528.1 "/>
<polygon fill="#FFFFFF" stroke="#16B34C" stroke-miterlimit="10" points="350,753.1 350,725 500,528.1 500,565.6 "/>
</svg>
