<?xml version="1.0" encoding="utf-8"?>
<!-- Generator: Adobe Illustrator 17.1.0, SVG Export Plug-In . SVG Version: 6.00 Build 0)  -->
<!DOCTYPE svg PUBLIC "-//W3C//DTD SVG 1.1//EN" "http://www.w3.org/Graphics/SVG/1.1/DTD/svg11.dtd">
<svg version="1.1" id="Layer_1" xmlns="http://www.w3.org/2000/svg" xmlns:xlink="http://www.w3.org/1999/xlink" x="0px" y="0px"
	 viewBox="0 0 300 300" enable-background="new 0 0 300 300" xml:space="preserve">
<rect x="72.6" y="151.6" fill="#FFFFFF" stroke="#16B34C" stroke-miterlimit="10" width="4.1" height="72.9"/>
<polygon fill="#FFFFFF" stroke="#16B34C" stroke-miterlimit="10" points="44.3,229.1 48.3,233.1 48.3,121.4 44.3,121.4 "/>
<rect x="68.6" y="135.5" fill="#FFFFFF" stroke="#16B34C" stroke-miterlimit="10" width="4.1" height="64.7"/>
<rect x="64.3" y="121.4" fill="#FFFFFF" stroke="#16B34C" stroke-miterlimit="10" width="4.2" height="131.8"/>
<polygon fill="#FFFFFF" stroke="#16B34C" stroke-miterlimit="10" points="64.3,216.4 48.2,200.2 48.2,143.6 64.3,159.7 "/>
<polygon fill="#FFFFFF" stroke="#16B34C" stroke-miterlimit="10" points="40.1,75.1 40.1,58.9 68.5,87.3 68.5,95.4 44.2,71.1 
	44.2,79.2 "/>
<polygon fill="#FFFFFF" stroke="#16B34C" stroke-miterlimit="10" points="68.5,107.5 68.5,71.1 56.3,58.9 56.3,50.9 72.5,67.1 
	72.5,107.5 "/>
<polygon fill="#FFFFFF" stroke="#16B34C" stroke-miterlimit="10" points="64.4,83.3 64.4,71.1 44.2,50.9 44.2,46.8 68.5,71.1 
	68.5,87.3 "/>
<polygon fill="#FFFFFF" stroke="#16B34C" stroke-miterlimit="10" points="64.4,83.3 64.4,75.1 36.1,46.8 36.1,54.9 "/>
<rect x="72.7" y="63.1" fill="#FFFFFF" stroke="#16B34C" stroke-miterlimit="10" width="4.1" height="80.9"/>
<rect x="109.3" y="151.6" fill="#FFFFFF" stroke="#16B34C" stroke-miterlimit="10" width="4.1" height="72.9"/>
<polygon fill="#FFFFFF" stroke="#16B34C" stroke-miterlimit="10" points="80.9,229.1 85,233.1 85,121.4 80.9,121.4 "/>
<rect x="105.2" y="135.5" fill="#FFFFFF" stroke="#16B34C" stroke-miterlimit="10" width="4.1" height="64.7"/>
<rect x="101" y="121.4" fill="#FFFFFF" stroke="#16B34C" stroke-miterlimit="10" width="4.2" height="131.8"/>
<polygon fill="#FFFFFF" stroke="#16B34C" stroke-miterlimit="10" points="101,216.4 84.8,200.2 84.8,143.6 101,159.7 "/>
<polygon fill="#FFFFFF" stroke="#16B34C" stroke-miterlimit="10" points="76.8,75.1 76.8,58.9 105.1,87.3 105.1,95.4 80.9,71.1 
	80.9,79.2 "/>
<polygon fill="#FFFFFF" stroke="#16B34C" stroke-miterlimit="10" points="105.1,107.5 105.1,71.1 93,58.9 93,50.9 109.2,67.1 
	109.2,107.5 "/>
<polygon fill="#FFFFFF" stroke="#16B34C" stroke-miterlimit="10" points="101.1,83.3 101.1,71.1 80.9,50.9 80.9,46.8 105.1,71.1 
	105.1,87.3 "/>
<polygon fill="#FFFFFF" stroke="#16B34C" stroke-miterlimit="10" points="101.1,83.3 101.1,75.1 72.7,46.8 72.7,54.9 "/>
<rect x="109.4" y="63.1" fill="#FFFFFF" stroke="#16B34C" stroke-miterlimit="10" width="4.1" height="80.9"/>
<rect x="146" y="151.6" fill="#FFFFFF" stroke="#16B34C" stroke-miterlimit="10" width="4.1" height="72.9"/>
<polygon fill="#FFFFFF" stroke="#16B34C" stroke-miterlimit="10" points="117.6,229.1 121.7,233.1 121.7,121.4 117.6,121.4 "/>
<rect x="141.9" y="135.5" fill="#FFFFFF" stroke="#16B34C" stroke-miterlimit="10" width="4.1" height="64.7"/>
<rect x="137.7" y="121.4" fill="#FFFFFF" stroke="#16B34C" stroke-miterlimit="10" width="4.2" height="131.8"/>
<polygon fill="#FFFFFF" stroke="#16B34C" stroke-miterlimit="10" points="137.7,216.4 121.5,200.2 121.5,143.6 137.7,159.7 "/>
<polygon fill="#FFFFFF" stroke="#16B34C" stroke-miterlimit="10" points="113.5,75.1 113.5,58.9 141.8,87.3 141.8,95.4 117.5,71.1 
	117.5,79.2 "/>
<polygon fill="#FFFFFF" stroke="#16B34C" stroke-miterlimit="10" points="141.8,107.5 141.8,71.1 129.7,58.9 129.7,50.9 145.9,67.1 
	145.9,107.5 "/>
<polygon fill="#FFFFFF" stroke="#16B34C" stroke-miterlimit="10" points="137.7,83.3 137.7,71.1 117.5,50.9 117.5,46.8 141.8,71.1 
	141.8,87.3 "/>
<polygon fill="#FFFFFF" stroke="#16B34C" stroke-miterlimit="10" points="137.7,83.3 137.7,75.1 109.4,46.8 109.4,54.9 "/>
<rect x="146.1" y="63.1" fill="#FFFFFF" stroke="#16B34C" stroke-miterlimit="10" width="4.1" height="80.9"/>
<rect x="223.3" y="151.6" fill="#FFFFFF" stroke="#16B34C" stroke-miterlimit="10" width="4.1" height="72.9"/>
<polygon fill="#FFFFFF" stroke="#16B34C" stroke-miterlimit="10" points="255.7,121.4 251.7,121.4 251.7,233.1 255.7,229.1 "/>
<rect x="227.4" y="135.5" fill="#FFFFFF" stroke="#16B34C" stroke-miterlimit="10" width="4.1" height="64.7"/>
<rect x="231.4" y="121.4" fill="#FFFFFF" stroke="#16B34C" stroke-miterlimit="10" width="4.2" height="131.8"/>
<polygon fill="#FFFFFF" stroke="#16B34C" stroke-miterlimit="10" points="235.7,159.7 251.8,143.6 251.8,200.2 235.7,216.4 "/>
<polygon fill="#FFFFFF" stroke="#16B34C" stroke-miterlimit="10" points="255.8,79.2 255.8,71.1 231.5,95.4 231.5,87.3 259.9,58.9 
	259.9,75.1 "/>
<polygon fill="#FFFFFF" stroke="#16B34C" stroke-miterlimit="10" points="227.5,107.5 227.5,67.1 243.7,50.9 243.7,58.9 231.5,71.1 
	231.5,107.5 "/>
<polygon fill="#FFFFFF" stroke="#16B34C" stroke-miterlimit="10" points="231.5,87.3 231.5,71.1 255.8,46.8 255.8,50.9 235.6,71.1 
	235.6,83.3 "/>
<polygon fill="#FFFFFF" stroke="#16B34C" stroke-miterlimit="10" points="263.9,54.9 263.9,46.8 235.6,75.1 235.6,83.3 "/>
<rect x="223.2" y="63.1" fill="#FFFFFF" stroke="#16B34C" stroke-miterlimit="10" width="4.1" height="80.9"/>
<rect x="186.6" y="151.6" fill="#FFFFFF" stroke="#16B34C" stroke-miterlimit="10" width="4.1" height="72.9"/>
<polygon fill="#FFFFFF" stroke="#16B34C" stroke-miterlimit="10" points="219.1,121.4 215,121.4 215,233.1 219.1,229.1 "/>
<rect x="190.7" y="135.5" fill="#FFFFFF" stroke="#16B34C" stroke-miterlimit="10" width="4.1" height="64.7"/>
<rect x="194.8" y="121.4" fill="#FFFFFF" stroke="#16B34C" stroke-miterlimit="10" width="4.2" height="131.8"/>
<polygon fill="#FFFFFF" stroke="#16B34C" stroke-miterlimit="10" points="199,159.7 215.2,143.6 215.2,200.2 199,216.4 "/>
<polygon fill="#FFFFFF" stroke="#16B34C" stroke-miterlimit="10" points="219.1,79.2 219.1,71.1 194.9,95.4 194.9,87.3 223.2,58.9 
	223.2,75.1 "/>
<polygon fill="#FFFFFF" stroke="#16B34C" stroke-miterlimit="10" points="190.8,107.5 190.8,67.1 207,50.9 207,58.9 194.9,71.1 
	194.9,107.5 "/>
<polygon fill="#FFFFFF" stroke="#16B34C" stroke-miterlimit="10" points="194.9,87.3 194.9,71.1 219.1,46.8 219.1,50.9 198.9,71.1 
	198.9,83.3 "/>
<polygon fill="#FFFFFF" stroke="#16B34C" stroke-miterlimit="10" points="227.3,54.9 227.3,46.8 198.9,75.1 198.9,83.3 "/>
<rect x="186.5" y="63.1" fill="#FFFFFF" stroke="#16B34C" stroke-miterlimit="10" width="4.1" height="80.9"/>
<rect x="150" y="151.6" fill="#FFFFFF" stroke="#16B34C" stroke-miterlimit="10" width="4.1" height="72.9"/>
<polygon fill="#FFFFFF" stroke="#16B34C" stroke-miterlimit="10" points="182.4,121.4 178.3,121.4 178.3,233.1 182.4,229.1 "/>
<rect x="154" y="135.5" fill="#FFFFFF" stroke="#16B34C" stroke-miterlimit="10" width="4.1" height="64.7"/>
<rect x="158.1" y="121.4" fill="#FFFFFF" stroke="#16B34C" stroke-miterlimit="10" width="4.2" height="131.8"/>
<polygon fill="#FFFFFF" stroke="#16B34C" stroke-miterlimit="10" points="162.3,159.7 178.5,143.6 178.5,200.2 162.3,216.4 "/>
<polygon fill="#FFFFFF" stroke="#16B34C" stroke-miterlimit="10" points="182.5,79.2 182.5,71.1 158.2,95.4 158.2,87.3 186.5,58.9 
	186.5,75.1 "/>
<polygon fill="#FFFFFF" stroke="#16B34C" stroke-miterlimit="10" points="154.1,107.5 154.1,67.1 170.3,50.9 170.3,58.9 158.2,71.1 
	158.2,107.5 "/>
<polygon fill="#FFFFFF" stroke="#16B34C" stroke-miterlimit="10" points="158.2,87.3 158.2,71.1 182.5,46.8 182.5,50.9 162.3,71.1 
	162.3,83.3 "/>
<polygon fill="#FFFFFF" stroke="#16B34C" stroke-miterlimit="10" points="190.6,54.9 190.6,46.8 162.3,75.1 162.3,83.3 "/>
<rect x="149.9" y="63.1" fill="#FFFFFF" stroke="#16B34C" stroke-miterlimit="10" width="4.1" height="80.9"/>
</svg>
