<?xml version="1.0" encoding="utf-8"?>
<!-- Generator: Adobe Illustrator 17.1.0, SVG Export Plug-In . SVG Version: 6.00 Build 0)  -->
<!DOCTYPE svg PUBLIC "-//W3C//DTD SVG 1.1//EN" "http://www.w3.org/Graphics/SVG/1.1/DTD/svg11.dtd">
<svg version="1.1" id="Layer_1" xmlns="http://www.w3.org/2000/svg" xmlns:xlink="http://www.w3.org/1999/xlink" x="0px" y="0px"
	 viewBox="0 0 1000 1000" enable-background="new 0 0 1000 1000" xml:space="preserve">
<g>
	<path fill="#231F20" d="M800,632.5c12.4,0,22.5-10.1,22.5-22.5s-10.1-22.5-22.5-22.5c-5.3,0-10.2,1.8-14,4.9L701,507.5H539.4
		l-20.5,10.3l2.2,4.5l19.5-9.7h38.5c0.1,0,0.2,0,0.3,0c0.1,0,0.1,0,0.2,0H699l83.5,83.5c-3.1,3.9-4.9,8.7-4.9,14
		C777.5,622.4,787.6,632.5,800,632.5z M800,592.5c9.6,0,17.5,7.9,17.5,17.5s-7.9,17.5-17.5,17.5s-17.5-7.9-17.5-17.5
		c0-3.9,1.3-7.5,3.5-10.5l12.2,12.2l3.5-3.5L789.5,596C792.5,593.8,796.1,592.5,800,592.5z"/>
	<path fill="#231F20" d="M800,367.5c-12.4,0-22.5,10.1-22.5,22.5c0,5.3,1.8,10.2,4.9,14L699,487.5H580.3c-0.4-0.2-0.8-0.2-1.3-0.2
		c-0.2,0-0.4,0.1-0.6,0.2h-37.8l-19.5-9.7l-2.2,4.5l20.5,10.3H701l84.9-84.9c3.9,3.1,8.7,4.9,14,4.9c12.4,0,22.5-10.1,22.5-22.5
		S812.4,367.5,800,367.5z M800,407.5c-3.9,0-7.5-1.3-10.5-3.5l12.2-12.2l-3.5-3.5L786,400.5c-2.2-2.9-3.5-6.5-3.5-10.5
		c0-9.6,7.9-17.5,17.5-17.5s17.5,7.9,17.5,17.5S809.6,407.5,800,407.5z"/>
	<path fill="#231F20" d="M512.2,499.7c0-6.7-5.5-12.2-12.2-12.2c-6.7,0-12.2,5.5-12.2,12.2c0,6.7,5.5,12.2,12.2,12.2
		C506.7,511.9,512.2,506.4,512.2,499.7z M500,506.9c-4,0-7.2-3.2-7.2-7.2c0-4,3.2-7.2,7.2-7.2c4,0,7.2,3.2,7.2,7.2
		C507.2,503.7,504,506.9,500,506.9z"/>
	<path fill="#231F20" d="M500,382.5c12.4,0,22.5-10.1,22.5-22.5h-5c0,9.6-7.9,17.5-17.5,17.5s-17.5-7.9-17.5-17.5h-5
		C477.5,372.4,487.6,382.5,500,382.5z"/>
	<path fill="#231F20" d="M500,617.5c-12.4,0-22.5,10.1-22.5,22.5h5c0-9.6,7.9-17.5,17.5-17.5s17.5,7.9,17.5,17.5h5
		C522.5,627.6,512.4,617.5,500,617.5z"/>
	<path fill="#231F20" d="M472.9,575.3c-0.4,1.3,0.3,2.7,1.6,3.2c0.3,0.1,0.5,0.1,0.8,0.1c1.1,0,2-0.7,2.4-1.7
		c0.4-1.3-0.3-2.7-1.6-3.1C474.8,573.3,473.4,574,472.9,575.3z"/>
	<path fill="#231F20" d="M433.8,545c-1.1,0.8-1.4,2.4-0.5,3.5c0.5,0.7,1.2,1,2,1c0.5,0,1-0.1,1.5-0.5c1.1-0.8,1.4-2.4,0.5-3.5
		C436.5,544.5,434.9,544.2,433.8,545z"/>
	<path fill="#231F20" d="M425.6,532c0.3,0,0.6-0.1,0.9-0.2c1.3-0.5,1.9-2,1.4-3.2v0c-0.5-1.3-2-1.9-3.2-1.4c-1.3,0.5-1.9,2-1.4,3.2
		C423.7,531.4,424.6,532,425.6,532z"/>
	<path fill="#231F20" d="M424.9,519.4c-0.4-1.3-1.7-2.1-3.1-1.8c-1.3,0.3-2.1,1.7-1.8,3c0.3,1.1,1.3,1.9,2.4,1.9
		c0.2,0,0.4,0,0.6-0.1C424.5,522.1,425.3,520.7,424.9,519.4z"/>
	<path fill="#231F20" d="M458.5,565.5c-1.2-0.7-2.7-0.4-3.4,0.8c-0.7,1.2-0.4,2.7,0.8,3.4c0.4,0.3,0.9,0.4,1.3,0.4
		c0.8,0,1.6-0.4,2.1-1.2C460,567.8,459.7,566.2,458.5,565.5z"/>
	<path fill="#231F20" d="M463.7,571.4c-0.6,1.2-0.1,2.7,1.2,3.3c0.3,0.2,0.7,0.2,1.1,0.2c0.9,0,1.8-0.5,2.3-1.4
		c0.6-1.2,0.1-2.7-1.2-3.3C465.8,569.6,464.3,570.1,463.7,571.4z"/>
	<path fill="#231F20" d="M447.1,560.1c-0.9,1.1-0.7,2.6,0.3,3.5c0.5,0.4,1,0.6,1.6,0.6c0.7,0,1.4-0.3,1.9-0.9
		c0.9-1.1,0.7-2.6-0.3-3.5C449.6,558.9,448,559,447.1,560.1z"/>
	<path fill="#231F20" d="M440,553c-1,1-1.1,2.5-0.1,3.5c0.5,0.5,1.1,0.8,1.8,0.8c0.6,0,1.2-0.2,1.7-0.7c1-0.9,1.1-2.5,0.1-3.5
		C442.6,552.1,441,552,440,553z"/>
	<path fill="#231F20" d="M457,435c0.5,0,0.9-0.1,1.3-0.4c1.2-0.7,1.5-2.3,0.8-3.5c-0.8-1.2-2.3-1.5-3.5-0.8
		c-1.2,0.8-1.5,2.3-0.8,3.5C455.4,434.6,456.2,435,457,435z"/>
	<path fill="#231F20" d="M484.9,423.9c0.2,0,0.3,0,0.5,0c1.4-0.3,2.2-1.6,2-2.9c-0.3-1.4-1.6-2.2-2.9-2c-1.3,0.3-2.2,1.6-2,2.9
		C482.7,423.1,483.7,423.9,484.9,423.9z"/>
	<path fill="#231F20" d="M450.5,440.3c1.1-0.9,1.2-2.5,0.3-3.5c-0.9-1.1-2.5-1.2-3.5-0.3c-1.1,0.9-1.2,2.5-0.3,3.5
		c0.5,0.6,1.2,0.9,1.9,0.9C449.5,440.9,450.1,440.7,450.5,440.3z"/>
	<path fill="#231F20" d="M465.8,430.1c0.4,0,0.7-0.1,1.1-0.2c1.2-0.6,1.8-2.1,1.2-3.3c-0.6-1.2-2.1-1.8-3.3-1.2
		c-1.2,0.6-1.8,2.1-1.2,3.3C464,429.6,464.9,430.1,465.8,430.1z"/>
	<path fill="#231F20" d="M475.2,426.4c0.2,0,0.5,0,0.8-0.1c1.3-0.4,2-1.8,1.6-3.2c-0.4-1.3-1.8-2-3.1-1.6c-1.3,0.4-2,1.8-1.6,3.1
		C473.1,425.8,474.1,426.4,475.2,426.4z"/>
	<path fill="#231F20" d="M443.4,447c0.9-1,0.9-2.6-0.1-3.5c-1-0.9-2.6-0.9-3.5,0.1c-0.9,1-0.9,2.6,0.1,3.5c0.5,0.4,1.1,0.7,1.7,0.7
		C442.3,447.8,442.9,447.5,443.4,447z"/>
	<path fill="#231F20" d="M428.6,463.7c0.4,0.2,0.8,0.3,1.2,0.3c0.9,0,1.7-0.5,2.2-1.3c0.7-1.2,0.2-2.7-1-3.4c-1.2-0.7-2.7-0.2-3.4,1
		C427,461.5,427.4,463.1,428.6,463.7z"/>
	<circle fill="#231F20" cx="420" cy="500.1" r="2.5"/>
	<path fill="#231F20" d="M426.5,468.3c-1.3-0.5-2.7,0.1-3.2,1.4c-0.5,1.3,0.1,2.7,1.4,3.2c0.3,0.1,0.6,0.2,0.9,0.2
		c1,0,1.9-0.6,2.3-1.6C428.4,470.3,427.8,468.8,426.5,468.3z"/>
	<path fill="#231F20" d="M420,479.6c-0.3,1.3,0.5,2.7,1.8,3c0.2,0.1,0.4,0.1,0.6,0.1c1.1,0,2.1-0.8,2.4-1.9c0.3-1.3-0.5-2.7-1.8-3
		C421.8,477.4,420.4,478.2,420,479.6z"/>
	<path fill="#231F20" d="M427.7,539.8c0.4,0.8,1.3,1.3,2.2,1.3c0.4,0,0.8-0.1,1.2-0.3c1.2-0.7,1.7-2.2,1-3.4c-0.7-1.2-2.2-1.6-3.4-1
		C427.5,537.1,427.1,538.6,427.7,539.8C427.7,539.8,427.7,539.8,427.7,539.8z"/>
	<path fill="#231F20" d="M435.2,455.5c0.8,0,1.5-0.4,2-1c0.8-1.1,0.6-2.7-0.5-3.5c-1.1-0.8-2.7-0.6-3.5,0.5
		c-0.8,1.1-0.6,2.7,0.6,3.5C434.2,455.4,434.7,455.5,435.2,455.5z"/>
	<path fill="#231F20" d="M524,573.7c-1.3,0.4-2,1.8-1.6,3.2c0.3,1,1.3,1.7,2.4,1.7c0.2,0,0.5,0,0.8-0.1c1.3-0.4,2-1.8,1.6-3.2
		C526.7,574,525.3,573.3,524,573.7z"/>
	<path fill="#231F20" d="M533,570.1c-1.2,0.6-1.8,2.1-1.2,3.3c0.4,0.9,1.3,1.4,2.3,1.4c0.4,0,0.7-0.1,1.1-0.2
		c1.2-0.6,1.8-2.1,1.2-3.3C535.8,570.1,534.3,569.5,533,570.1z"/>
	<path fill="#231F20" d="M582.5,500C582.5,500,582.5,499.9,582.5,500c0-0.1,0-0.2,0-0.2c0-1.4-1.1-2.5-2.5-2.5
		c-1.4,0-2.5,1.1-2.5,2.5c0,0,0,0.1,0,0.1c0,0,0,0,0,0.1c0,1.4,1.1,2.5,2.5,2.5S582.5,501.4,582.5,500z"/>
	<path fill="#231F20" d="M541.5,565.4c-1.2,0.7-1.5,2.3-0.8,3.5c0.5,0.8,1.3,1.2,2.1,1.2c0.5,0,0.9-0.1,1.3-0.4
		c1.2-0.7,1.5-2.3,0.8-3.4C544.2,565,542.7,564.7,541.5,565.4z"/>
	<path fill="#231F20" d="M541.4,434.5c0.4,0.3,0.9,0.4,1.3,0.4c0.8,0,1.6-0.4,2.1-1.2c0.7-1.2,0.4-2.7-0.8-3.5
		c-1.2-0.7-2.7-0.4-3.5,0.8S540.2,433.7,541.4,434.5z"/>
	<path fill="#231F20" d="M531.7,426.5c-0.6,1.2,0,2.7,1.2,3.3c0.3,0.2,0.7,0.2,1.1,0.2c0.9,0,1.8-0.5,2.3-1.4c0.6-1.2,0-2.7-1.2-3.3
		c0,0,0,0,0,0C533.8,424.7,532.3,425.2,531.7,426.5z"/>
	<path fill="#231F20" d="M484.6,581.1c0.2,0,0.3,0,0.5,0c1.2,0,2.2-0.8,2.4-2c0.2-1.4-0.6-2.7-2-2.9c-1.4-0.3-2.7,0.6-2.9,2
		C482.3,579.5,483.2,580.8,484.6,581.1z"/>
	<path fill="#231F20" d="M524.6,426.3c1.1,0,2-0.7,2.4-1.7c0.4-1.3-0.3-2.7-1.6-3.1c-1.3-0.4-2.7,0.3-3.1,1.6
		c-0.4,1.3,0.3,2.7,1.6,3.2C524.1,426.3,524.3,426.3,524.6,426.3z"/>
	<path fill="#231F20" d="M571.3,536.3c-1.2-0.7-2.7-0.2-3.4,1c-0.7,1.2-0.2,2.7,1,3.4c0.4,0.2,0.8,0.3,1.2,0.3
		c0.9,0,1.7-0.5,2.2-1.3C573,538.5,572.5,537,571.3,536.3z"/>
	<path fill="#231F20" d="M573.5,531.8c0.3,0.1,0.6,0.2,0.9,0.2c1,0,1.9-0.6,2.3-1.6c0.5-1.3-0.1-2.7-1.4-3.2
		c-1.3-0.5-2.7,0.1-3.2,1.4C571.6,529.8,572.2,531.3,573.5,531.8z"/>
	<path fill="#231F20" d="M579.9,520.5c0.3-1.3-0.5-2.7-1.8-3c-1.3-0.3-2.7,0.5-3,1.8c-0.3,1.3,0.5,2.7,1.8,3
		c0.2,0.1,0.4,0.1,0.6,0.1C578.6,522.4,579.6,521.6,579.9,520.5z"/>
	<path fill="#231F20" d="M562.7,545.5c-0.8,1.1-0.6,2.7,0.5,3.5c0.4,0.3,1,0.5,1.5,0.5c0.8,0,1.5-0.4,2-1c0.8-1.1,0.6-2.7-0.5-3.5
		C565.1,544.2,563.5,544.4,562.7,545.5z"/>
	<path fill="#231F20" d="M556.5,553c-1,1-0.9,2.6,0.1,3.5c0.5,0.5,1.1,0.7,1.7,0.7c0.7,0,1.3-0.3,1.8-0.8c0.9-1,0.9-2.6-0.1-3.5
		C559,552,557.4,552,556.5,553z"/>
	<path fill="#231F20" d="M549.4,559.7c-1.1,0.9-1.2,2.5-0.3,3.5c0.5,0.6,1.2,0.9,1.9,0.9c0.6,0,1.1-0.2,1.6-0.6
		c1.1-0.9,1.2-2.5,0.3-3.5C552,559,550.5,558.8,549.4,559.7z"/>
	<path fill="#231F20" d="M514.9,423.9c1.2,0,2.2-0.8,2.5-2c0.3-1.4-0.6-2.7-2-2.9c-1.4-0.3-2.7,0.6-2.9,2c-0.2,1.4,0.6,2.7,2,2.9
		C514.5,423.9,514.7,423.9,514.9,423.9z"/>
	<path fill="#231F20" d="M502.6,580c0.1,1.3,1.2,2.3,2.5,2.3c0,0,0.1,0,0.2,0c1.4-0.1,2.4-1.3,2.3-2.7c-0.1-1.4-1.3-2.4-2.6-2.3
		C503.5,577.4,502.5,578.6,502.6,580z"/>
	<path fill="#231F20" d="M504.7,422.6c0,0,0.1,0,0.1,0c1.3,0,2.4-1,2.5-2.4c0.1-1.4-1-2.6-2.3-2.6s-2.6,1-2.7,2.4
		C502.3,421.4,503.4,422.6,504.7,422.6z"/>
	<path fill="#231F20" d="M550.9,440.8c0.7,0,1.4-0.3,1.9-0.9c0.9-1.1,0.7-2.6-0.3-3.5c-1.1-0.9-2.6-0.7-3.5,0.3
		c-0.9,1.1-0.7,2.6,0.3,3.5h0C549.8,440.6,550.3,440.8,550.9,440.8z"/>
	<path fill="#231F20" d="M495,422.7c1.4-0.1,2.4-1.3,2.3-2.7c-0.1-1.4-1.3-2.4-2.6-2.3c-1.4,0.1-2.4,1.3-2.3,2.6
		c0.1,1.3,1.2,2.3,2.5,2.3C494.9,422.7,494.9,422.7,495,422.7z"/>
	<path fill="#231F20" d="M515,581.1c0.2,0,0.3,0,0.5,0c1.4-0.3,2.2-1.6,2-2.9c-0.2-1.4-1.6-2.2-2.9-2c-1.4,0.3-2.2,1.6-2,2.9
		C512.8,580.2,513.8,581.1,515,581.1z"/>
	<path fill="#231F20" d="M564.6,455.4c0.5,0,1-0.2,1.5-0.5c1.1-0.8,1.4-2.4,0.6-3.5c-0.8-1.1-2.4-1.4-3.5-0.5
		c-1.1,0.8-1.4,2.4-0.5,3.5C563.1,455,563.9,455.4,564.6,455.4z"/>
	<path fill="#231F20" d="M559.9,446.9c1-0.9,1.1-2.5,0.1-3.5c-1-1-2.5-1.1-3.5-0.1c-1,0.9-1,2.5-0.1,3.5c0.5,0.5,1.2,0.8,1.8,0.8
		C558.8,447.6,559.5,447.4,559.9,446.9z"/>
	<path fill="#231F20" d="M568.8,459.1c-1.2,0.7-1.6,2.2-1,3.4c0.5,0.8,1.3,1.3,2.2,1.3c0.4,0,0.8-0.1,1.2-0.3c1.2-0.7,1.6-2.2,1-3.4
		S570,458.5,568.8,459.1z"/>
	<path fill="#231F20" d="M573.4,468.1c-1.3,0.5-1.9,2-1.4,3.2c0.4,1,1.3,1.6,2.3,1.6c0.3,0,0.6-0.1,0.9-0.2c1.3-0.5,1.9-2,1.4-3.2
		C576.1,468.2,574.7,467.5,573.4,468.1z"/>
	<path fill="#231F20" d="M575,480.6c0.3,1.1,1.3,1.9,2.4,1.9c0.2,0,0.4,0,0.6-0.1c1.3-0.3,2.1-1.7,1.8-3c-0.3-1.3-1.7-2.1-3-1.8
		C575.5,477.9,574.7,479.2,575,480.6z"/>
	<path fill="#231F20" d="M495.2,577.3c-1.4-0.1-2.6,1-2.6,2.3c-0.1,1.4,1,2.6,2.3,2.7c0.1,0,0.1,0,0.2,0c1.3,0,2.4-1,2.5-2.3
		C497.6,578.6,496.5,577.4,495.2,577.3z"/>
	<path fill="#231F20" d="M487.3,254.1c0.2,0,0.4,0,0.6-0.1c1.3-0.4,2.1-1.7,1.8-3.1s-1.7-2.1-3-1.8c-1.3,0.4-2.1,1.7-1.8,3.1
		C485.2,253.4,486.2,254.1,487.3,254.1z"/>
	<path fill="#231F20" d="M477.8,257.7c0.4,0,0.8-0.1,1.1-0.3c1.2-0.6,1.8-2.1,1.1-3.4c-0.6-1.2-2.1-1.7-3.4-1.1
		c-1.2,0.6-1.7,2.1-1.1,3.4C476,257.1,476.9,257.7,477.8,257.7z"/>
	<path fill="#231F20" d="M507.6,351.9c0.1,0,0.2,0,0.4,0c0,0,0,0,0,0c1.4-0.2,2.3-1.5,2.1-2.9c-0.2-1.4-1.5-2.3-2.8-2.1
		c-1.4,0.2-2.3,1.5-2.1,2.9C505.3,351,506.4,351.9,507.6,351.9z"/>
	<path fill="#231F20" d="M545,322c0.3,0.1,0.7,0.2,1,0.2c1,0,1.9-0.6,2.3-1.5c0.5-1.3,0-2.7-1.3-3.3c-1.3-0.5-2.7,0-3.3,1.3
		C543.1,320,543.7,321.5,545,322z"/>
	<path fill="#231F20" d="M517.4,349.4c0.3,0,0.6,0,0.9-0.2c1.3-0.5,1.9-1.9,1.5-3.2c-0.5-1.3-1.9-2-3.2-1.5c-1.3,0.5-2,1.9-1.5,3.2
		C515.4,348.8,516.4,349.4,517.4,349.4z"/>
	<path fill="#231F20" d="M516.3,255.4c0.3,0.1,0.6,0.2,0.9,0.2c1,0,2-0.6,2.3-1.6c0.5-1.3-0.2-2.7-1.5-3.2c-1.3-0.5-2.7,0.2-3.2,1.5
		C514.4,253.5,515.1,254.9,516.3,255.4z"/>
	<path fill="#231F20" d="M497.4,252.6c1.4-0.1,2.4-1.2,2.4-2.6c-0.1-1.4-1.2-2.4-2.6-2.4c-1.4,0.1-2.4,1.2-2.4,2.6
		c0.1,1.3,1.2,2.4,2.5,2.4C497.4,252.6,497.4,252.6,497.4,252.6z"/>
	<path fill="#231F20" d="M449.9,284.4c-0.4,1.3,0.3,2.7,1.6,3.1c0.2,0.1,0.5,0.1,0.8,0.1c1.1,0,2-0.7,2.4-1.8
		c0.4-1.3-0.3-2.7-1.6-3.1C451.7,282.3,450.3,283.1,449.9,284.4z"/>
	<path fill="#231F20" d="M507.4,253c1.2,0,2.3-0.9,2.5-2.1c0.2-1.4-0.7-2.6-2.1-2.8c-1.4-0.2-2.6,0.7-2.8,2.1
		c-0.2,1.4,0.7,2.6,2.1,2.8C507.2,253,507.3,253,507.4,253z"/>
	<path fill="#231F20" d="M525,259.6c0.4,0.2,0.9,0.4,1.3,0.4c0.8,0,1.7-0.4,2.1-1.2c0.7-1.2,0.4-2.7-0.8-3.4
		c-1.2-0.7-2.7-0.4-3.4,0.8C523.5,257.3,523.8,258.9,525,259.6z"/>
	<path fill="#231F20" d="M455,278c0.4,0.2,0.8,0.3,1.2,0.3c0.9,0,1.7-0.5,2.2-1.3c0.7-1.2,0.2-2.7-1-3.4c-1.2-0.7-2.7-0.2-3.4,1
		C453.4,275.8,453.8,277.3,455,278z"/>
	<path fill="#231F20" d="M552.5,300c0,0,0-0.1,0-0.1c0,0,0-0.1,0-0.1c0-1.4-1.1-2.5-2.5-2.5c-1.4,0-2.5,1.1-2.5,2.5c0,0,0,0.1,0,0.1
		c0,0,0,0,0,0.1c0,1.4,1.1,2.5,2.5,2.5S552.5,301.4,552.5,300z"/>
	<path fill="#231F20" d="M549,312.6c1.2,0,2.2-0.8,2.4-2c0.3-1.4-0.6-2.7-1.9-3c-1.4-0.3-2.7,0.6-3,2c-0.3,1.3,0.6,2.7,2,2.9
		C548.7,312.5,548.8,312.6,549,312.6z"/>
	<path fill="#231F20" d="M548.9,292.2c0.2,0,0.3,0,0.5-0.1c1.3-0.3,2.2-1.6,1.9-2.9c-0.3-1.4-1.6-2.2-3-1.9c-1.4,0.3-2.2,1.6-1.9,3
		C546.7,291.4,547.8,292.2,548.9,292.2z"/>
	<path fill="#231F20" d="M543.6,281.1c0.4,0.9,1.3,1.5,2.3,1.5c0.3,0,0.7-0.1,1-0.2c1.3-0.5,1.8-2,1.3-3.3c-0.6-1.3-2-1.8-3.3-1.3
		C543.6,278.4,543,279.8,543.6,281.1z"/>
	<path fill="#231F20" d="M480.3,346c0.6-1.2,0.1-2.7-1.1-3.4c-1.2-0.6-2.7-0.1-3.3,1.1c-0.6,1.2-0.1,2.7,1.1,3.4
		c0.4,0.2,0.7,0.2,1.1,0.2C479,347.4,479.8,346.9,480.3,346z"/>
	<path fill="#231F20" d="M487.5,350.9c1.1,0,2.1-0.8,2.4-1.9c0.4-1.3-0.5-2.7-1.8-3c-1.3-0.3-2.7,0.5-3.1,1.8
		c-0.3,1.3,0.5,2.7,1.8,3C487.1,350.9,487.3,350.9,487.5,350.9z"/>
	<path fill="#231F20" d="M497.5,352.4c1.3,0,2.4-1,2.5-2.4c0.1-1.4-1-2.6-2.4-2.6c-1.4-0.1-2.5,1-2.6,2.4c-0.1,1.4,1,2.5,2.4,2.6
		C497.4,352.4,497.5,352.4,497.5,352.4z"/>
	<path fill="#231F20" d="M542.5,326.5c-1.1-0.8-2.7-0.5-3.5,0.6c-0.8,1.1-0.5,2.7,0.6,3.5c0.4,0.3,0.9,0.5,1.4,0.5
		c0.8,0,1.6-0.4,2-1.1C543.9,328.8,543.6,327.3,542.5,326.5z"/>
	<path fill="#231F20" d="M525.1,340.3c-1.2,0.7-1.5,2.3-0.8,3.5c0.5,0.8,1.3,1.2,2.1,1.2c0.5,0,0.9-0.1,1.3-0.4
		c1.2-0.7,1.5-2.3,0.8-3.4C527.9,339.9,526.3,339.6,525.1,340.3z"/>
	<path fill="#231F20" d="M539.5,269.2c-1.1,0.8-1.4,2.4-0.6,3.5c0.5,0.7,1.3,1.1,2,1.1c0.5,0,1-0.1,1.4-0.5c1.1-0.8,1.4-2.4,0.6-3.5
		C542.2,268.7,540.6,268.4,539.5,269.2z"/>
	<path fill="#231F20" d="M454.1,325.6c0.5,0.8,1.3,1.3,2.2,1.3c0.4,0,0.8-0.1,1.2-0.3c1.2-0.7,1.6-2.2,1-3.4c-0.7-1.2-2.2-1.6-3.4-1
		C453.9,322.8,453.5,324.4,454.1,325.6z"/>
	<path fill="#231F20" d="M450,302.7c-1.4,0.1-2.4,1.4-2.2,2.7c0.1,1.3,1.2,2.2,2.5,2.2c0.1,0,0.2,0,0.3,0c1.4-0.1,2.4-1.4,2.2-2.8
		C452.6,303.5,451.4,302.5,450,302.7z"/>
	<path fill="#231F20" d="M451.6,312.7c-1.3,0.4-2.1,1.8-1.6,3.1c0,0,0,0,0,0c0.3,1.1,1.3,1.8,2.4,1.8c0.2,0,0.5,0,0.8-0.1
		c1.3-0.4,2-1.8,1.6-3.1C454.3,313,452.9,312.3,451.6,312.7z"/>
	<path fill="#231F20" d="M460.1,265.9c-0.9,1-0.8,2.6,0.3,3.5c0.5,0.4,1,0.6,1.6,0.6c0.7,0,1.4-0.3,1.9-0.9c0.9-1.1,0.8-2.6-0.3-3.5
		C462.6,264.7,461,264.8,460.1,265.9z"/>
	<path fill="#231F20" d="M460.5,330.7c-1.1,0.9-1.2,2.5-0.3,3.5c0.5,0.6,1.2,0.9,1.9,0.9c0.6,0,1.2-0.2,1.6-0.6
		c1-0.9,1.2-2.5,0.3-3.5C463.1,329.9,461.5,329.8,460.5,330.7z"/>
	<path fill="#231F20" d="M450.5,292.6c-1.4-0.1-2.6,0.9-2.7,2.2c-0.1,1.4,0.9,2.6,2.2,2.7c0.1,0,0.2,0,0.2,0c1.3,0,2.4-1,2.5-2.3
		C452.9,293.9,451.9,292.7,450.5,292.6z"/>
	<path fill="#231F20" d="M494.8,650.2c0.1,1.3,1.2,2.4,2.5,2.4c0,0,0.1,0,0.1,0c1.4-0.1,2.4-1.2,2.4-2.6c-0.1-1.4-1.2-2.4-2.6-2.4
		C495.8,647.6,494.8,648.8,494.8,650.2z"/>
	<path fill="#231F20" d="M454.7,714.3c-0.4-1.3-1.8-2-3.1-1.6c-1.3,0.4-2.1,1.8-1.6,3.1c0.3,1.1,1.3,1.8,2.4,1.8
		c0.2,0,0.5,0,0.8-0.1C454.4,717,455.1,715.6,454.7,714.3z"/>
	<path fill="#231F20" d="M458.5,723.1c-0.7-1.2-2.2-1.6-3.4-1c-1.2,0.7-1.6,2.2-1,3.4c0.5,0.8,1.3,1.3,2.2,1.3
		c0.4,0,0.8-0.1,1.2-0.3C458.7,725.8,459.2,724.3,458.5,723.1z"/>
	<path fill="#231F20" d="M475.6,656.3c0.4,0.9,1.3,1.4,2.2,1.4c0.4,0,0.8-0.1,1.1-0.3c1.2-0.6,1.8-2.1,1.1-3.3
		c-0.6-1.2-2.1-1.7-3.4-1.1C475.5,653.5,475,655,475.6,656.3z"/>
	<path fill="#231F20" d="M542.5,726.5c-1.1-0.8-2.7-0.5-3.5,0.6s-0.5,2.7,0.6,3.5c0.4,0.3,0.9,0.5,1.4,0.5c0.8,0,1.6-0.4,2-1.1
		C543.9,728.8,543.6,727.3,542.5,726.5z"/>
	<path fill="#231F20" d="M486.7,649.2c-1.3,0.3-2.1,1.7-1.8,3c0.3,1.1,1.3,1.9,2.4,1.9c0.2,0,0.4,0,0.6-0.1c1.3-0.4,2.1-1.7,1.8-3
		C489.4,649.6,488,648.8,486.7,649.2z"/>
	<path fill="#231F20" d="M526.3,660c0.8,0,1.7-0.4,2.1-1.2c0.7-1.2,0.4-2.7-0.8-3.4c-1.2-0.7-2.7-0.4-3.4,0.8
		c-0.7,1.2-0.4,2.7,0.8,3.4C525.4,659.8,525.8,660,526.3,660z"/>
	<path fill="#231F20" d="M539.5,669.2c-1.1,0.8-1.4,2.3-0.6,3.5c0.5,0.7,1.3,1.1,2,1.1c0.5,0,1-0.2,1.4-0.5c1.1-0.8,1.4-2.4,0.6-3.5
		C542.2,668.7,540.6,668.4,539.5,669.2z"/>
	<path fill="#231F20" d="M545.9,682.6c0.3,0,0.7-0.1,1-0.2c1.3-0.5,1.8-2,1.3-3.3c-0.6-1.3-2-1.8-3.3-1.3c-1.3,0.5-1.8,2-1.3,3.3
		C544,682,544.9,682.6,545.9,682.6z"/>
	<path fill="#231F20" d="M548.5,712.5c0.2,0,0.3,0,0.5,0c1.2,0,2.2-0.8,2.4-2c0.3-1.3-0.6-2.7-1.9-3c-1.4-0.3-2.7,0.6-3,2
		C546.3,710.9,547.1,712.2,548.5,712.5z"/>
	<path fill="#231F20" d="M519.8,746c-0.5-1.3-1.9-2-3.2-1.5c-1.3,0.5-2,1.9-1.5,3.2c0.4,1,1.3,1.6,2.3,1.6c0.3,0,0.6,0,0.9-0.2
		C519.6,748.8,520.2,747.3,519.8,746z"/>
	<path fill="#231F20" d="M528.6,741.1c-0.7-1.2-2.3-1.5-3.5-0.8s-1.5,2.3-0.8,3.5c0.5,0.8,1.3,1.2,2.1,1.2c0.5,0,0.9-0.1,1.3-0.4
		C529,743.8,529.3,742.3,528.6,741.1z"/>
	<path fill="#231F20" d="M486.9,750.8c0.2,0,0.4,0.1,0.6,0.1c1.1,0,2.1-0.8,2.4-1.9c0.4-1.3-0.5-2.7-1.8-3c-1.3-0.3-2.7,0.5-3.1,1.8
		C484.8,749.1,485.6,750.5,486.9,750.8z"/>
	<path fill="#231F20" d="M480.3,746c0.6-1.2,0.1-2.7-1.1-3.4c-1.2-0.6-2.7-0.1-3.3,1.2c-0.6,1.2-0.1,2.7,1.1,3.3
		c0.4,0.2,0.7,0.3,1.1,0.3C479,747.4,479.8,746.9,480.3,746z"/>
	<path fill="#231F20" d="M549.5,692.2c1.4-0.3,2.2-1.6,1.9-3c-0.3-1.3-1.6-2.2-3-1.9c-1.4,0.3-2.2,1.6-1.9,3c0.2,1.2,1.3,2,2.4,2
		C549.1,692.2,549.3,692.2,549.5,692.2z"/>
	<path fill="#231F20" d="M504.9,650.2c-0.2,1.4,0.7,2.6,2.1,2.8c0.1,0,0.2,0,0.4,0c1.2,0,2.3-0.9,2.5-2.1c0.2-1.4-0.7-2.6-2.1-2.8
		C506.4,647.9,505.1,648.8,504.9,650.2z"/>
	<path fill="#231F20" d="M514.9,652.2c-0.5,1.3,0.2,2.7,1.5,3.2c0.3,0.1,0.6,0.2,0.9,0.2c1,0,2-0.6,2.3-1.6c0.5-1.3-0.2-2.7-1.5-3.2
		C516.8,650.2,515.3,650.9,514.9,652.2z"/>
	<path fill="#231F20" d="M471.3,659c-0.8-1-2.3-1.3-3.4-0.5l-26.6-38.9H400v5h38.7l51.5,75.5l-32.2,47.2l4.1,2.8l5.8-8.5
		c0,0,0,0,0,0c0.5,0.4,1,0.5,1.5,0.5c0.8,0,1.5-0.3,2-1c0.8-1.1,0.6-2.7-0.4-3.5c-0.1-0.1-0.2-0.1-0.3-0.2l22.5-33l6.8,10l6.8-10
		l31.1,45.6l4.1-2.8l-6.1-9c0.1-0.1,0.2-0.1,0.3-0.2c1-1,1-2.5,0.1-3.5c-0.8-0.9-2.2-1-3.2-0.4L509.8,700l23.3-34.2
		c0.4,0.2,0.8,0.3,1.2,0.3c0.7,0,1.3-0.3,1.8-0.8c0.9-1,0.9-2.6-0.1-3.5c0,0-0.1,0-0.1-0.1l25.4-37.2H600v-5h-41.3l-51.9,76l-6.8-10
		l-6.8,10l-22.5-33c0,0,0.1-0.1,0.1-0.1C471.9,661.7,472.1,660.1,471.3,659z M500,694.4l3.8,5.6l-3.8,5.6l-3.8-5.6L500,694.4z"/>
	<path fill="#231F20" d="M460.5,730.7c-1.1,0.9-1.2,2.5-0.3,3.5c0.5,0.6,1.2,0.9,1.9,0.9c0.6,0,1.2-0.2,1.6-0.6
		c1.1-0.9,1.2-2.5,0.3-3.5l0,0C463.1,730,461.5,729.8,460.5,730.7z"/>
	<path fill="#231F20" d="M548.3,720.7c0.5-1.3,0-2.7-1.3-3.3c-1.3-0.5-2.7,0-3.3,1.3c-0.5,1.3,0,2.7,1.3,3.3c0.3,0.1,0.7,0.2,1,0.2
		C546.9,722.2,547.8,721.6,548.3,720.7z"/>
	<path fill="#231F20" d="M507.2,747c-1.4,0.2-2.3,1.5-2.1,2.8c0.2,1.2,1.2,2.1,2.5,2.1c0.1,0,0.3,0,0.4,0c0,0,0,0,0,0
		c1.4-0.2,2.3-1.5,2.1-2.8C509.9,747.7,508.6,746.7,507.2,747z"/>
	<path fill="#231F20" d="M550,697.3c-1.4,0-2.5,1.1-2.5,2.5c0,0,0,0.1,0,0.1c0,0,0,0,0,0.1c0,1.4,1.1,2.5,2.5,2.5s2.5-1.1,2.5-2.5
		c0,0,0-0.1,0-0.1c0,0,0-0.1,0-0.1C552.5,698.4,551.4,697.3,550,697.3z"/>
	<path fill="#231F20" d="M460.1,665.9c-0.9,1.1-0.8,2.6,0.3,3.5c0.5,0.4,1,0.6,1.6,0.6c0.7,0,1.4-0.3,1.9-0.9c0.9-1,0.8-2.6-0.3-3.5
		C462.6,664.7,461,664.8,460.1,665.9z"/>
	<path fill="#231F20" d="M454.6,685.9c0.4-1.3-0.3-2.7-1.6-3.1c-1.3-0.4-2.7,0.3-3.1,1.6s0.3,2.7,1.6,3.1c0.2,0.1,0.5,0.1,0.8,0.1
		C453.3,687.6,454.3,687,454.6,685.9z"/>
	<path fill="#231F20" d="M456.2,678.3c0.9,0,1.7-0.5,2.2-1.3c0.7-1.2,0.2-2.7-1-3.4c-1.2-0.7-2.7-0.2-3.4,1c-0.7,1.2-0.2,2.7,1,3.4
		C455.4,678.2,455.8,678.3,456.2,678.3z"/>
	<path fill="#231F20" d="M497.6,747.4c-1.4-0.1-2.5,1-2.6,2.4c-0.1,1.4,1,2.6,2.4,2.6c0,0,0.1,0,0.1,0c1.3,0,2.4-1,2.5-2.4
		C500.1,748.7,499,747.5,497.6,747.4z"/>
	<path fill="#231F20" d="M450.3,707.7c0.1,0,0.2,0,0.3,0c1.4-0.1,2.4-1.4,2.2-2.7c-0.1-1.4-1.4-2.4-2.7-2.2s-2.4,1.4-2.2,2.7
		C447.9,706.7,449,707.7,450.3,707.7z"/>
	<path fill="#231F20" d="M450.2,697.5c1.3,0,2.4-1,2.5-2.3c0.1-1.4-0.9-2.6-2.2-2.7c-1.4-0.1-2.6,0.9-2.7,2.2
		c-0.1,1.4,0.9,2.6,2.2,2.7C450.1,697.5,450.2,697.5,450.2,697.5z"/>
	<polygon fill="#231F20" points="701.2,392.5 852,191.5 848,188.5 698.8,387.5 301.2,387.5 152,188.5 148,191.5 298.8,392.5 	"/>
	<path fill="#231F20" d="M478.9,477.8l-19.5,9.7H301L217.6,404c3.1-3.9,4.9-8.7,4.9-14c0-12.4-10.1-22.5-22.5-22.5
		s-22.5,10.1-22.5,22.5s10.1,22.5,22.5,22.5c5.3,0,10.2-1.8,14-4.9l84.9,84.9h121.1c0.1,0,0.1,0,0.2,0c0.1,0,0.2,0,0.3,0
		c0.2,0,0.4,0,0.6-0.1h39.4l20.5-10.3L478.9,477.8z M200,407.5c-9.6,0-17.5-7.9-17.5-17.5s7.9-17.5,17.5-17.5s17.5,7.9,17.5,17.5
		c0,3.9-1.3,7.5-3.5,10.5l-12.2-12.2l-3.5,3.5l12.2,12.2C207.5,406.2,203.9,407.5,200,407.5z"/>
	<polygon fill="#231F20" points="298.8,607.5 148,808.5 152,811.5 301.2,612.5 698.8,612.5 848,811.5 852,808.5 701.2,607.5 	"/>
	<path fill="#231F20" d="M481.1,517.8l-20.5-10.3H299L214,592.4c-3.9-3.1-8.7-4.9-14-4.9c-12.4,0-22.5,10.1-22.5,22.5
		s10.1,22.5,22.5,22.5s22.5-10.1,22.5-22.5c0-5.3-1.8-10.2-4.9-14l83.5-83.5h118.9c0.2,0.1,0.5,0.1,0.7,0.1c0.1,0,0.2,0,0.3,0
		c0.1,0,0.3-0.1,0.4-0.1h38.1l19.5,9.7L481.1,517.8z M217.5,610c0,9.6-7.9,17.5-17.5,17.5s-17.5-7.9-17.5-17.5s7.9-17.5,17.5-17.5
		c3.9,0,7.5,1.3,10.5,3.5l-12.2,12.2l3.5,3.5l12.2-12.2C216.2,602.5,217.5,606.1,217.5,610z"/>
	<rect x="637.5" y="430" fill="#231F20" width="5" height="40"/>
	<rect x="497.5" y="450" fill="#231F20" width="5" height="20"/>
	<rect x="497.5" y="530" fill="#231F20" width="5" height="20"/>
	<rect x="357.5" y="430" fill="#231F20" width="5" height="40"/>
	<rect x="357.5" y="530" fill="#231F20" width="5" height="40"/>
	<rect x="637.5" y="530" fill="#231F20" width="5" height="40"/>
	<path fill="#231F20" d="M506.8,295.6l-6.8-10l-6.8,10l-22.5-33c0,0,0.1-0.1,0.1-0.1c1.1-0.9,1.3-2.4,0.4-3.5
		c-0.8-1-2.3-1.3-3.4-0.5l-5.8-8.5l-4.1,2.8l32.2,47.2l-51.5,75.5H400v5h41.3l26.6-38.9c0,0,0,0,0,0c0.5,0.3,1,0.5,1.5,0.5
		c0.8,0,1.5-0.3,2-1c0.8-1.1,0.6-2.7-0.4-3.5c-0.1-0.1-0.2-0.1-0.3-0.2l22.5-33l6.8,10l6.8-10l51.9,76H600v-5h-38.7l-25.4-37.2
		c0.1-0.1,0.2-0.1,0.3-0.2c1-1,1-2.5,0.1-3.5c-0.8-0.9-2.2-1-3.2-0.4L509.8,300l23.3-34.2c0.4,0.2,0.8,0.3,1.2,0.3
		c0.7,0,1.3-0.3,1.8-0.8c0.9-1,0.9-2.6-0.1-3.5c0,0-0.1,0-0.1-0.1l6.1-9l-4.1-2.8L506.8,295.6z M500,305.6l-3.8-5.6l3.8-5.6l3.8,5.6
		L500,305.6z"/>
	<path fill="#231F20" d="M240,272.5c0.7,0,1.3-0.3,1.8-0.7c0.5-0.5,0.7-1.1,0.7-1.8c0-0.7-0.3-1.3-0.7-1.8c-0.9-0.9-2.6-0.9-3.5,0
		c-0.5,0.5-0.7,1.1-0.7,1.8c0,0.7,0.3,1.3,0.7,1.8C238.7,272.2,239.3,272.5,240,272.5z"/>
	<path fill="#231F20" d="M286.7,218.1c0.7,0,1.4-0.3,1.9-0.9c0.9-1,0.8-2.6-0.3-3.5c-1.1-0.9-2.6-0.8-3.5,0.3
		c-0.9,1.1-0.8,2.6,0.3,3.5C285.5,217.9,286.1,218.1,286.7,218.1z"/>
	<path fill="#231F20" d="M253.3,256.9c0.7,0,1.4-0.3,1.9-0.9c0.9-1,0.8-2.6-0.3-3.5c-1.1-0.9-2.6-0.8-3.5,0.3
		c-0.9,1-0.8,2.6,0.3,3.5C252.2,256.8,252.8,256.9,253.3,256.9z"/>
	<path fill="#231F20" d="M246.7,264.7c0.7,0,1.4-0.3,1.9-0.9c0.9-1,0.8-2.6-0.3-3.5c-1.1-0.9-2.6-0.8-3.5,0.3
		c-0.9,1-0.8,2.6,0.3,3.5C245.5,264.5,246.1,264.7,246.7,264.7z"/>
	<path fill="#231F20" d="M293.3,210.3c0.7,0,1.4-0.3,1.9-0.9c0.9-1,0.8-2.6-0.3-3.5c-1.1-0.9-2.6-0.8-3.5,0.3
		c-0.9,1-0.8,2.6,0.3,3.5C292.2,210.1,292.8,210.3,293.3,210.3z"/>
	<path fill="#231F20" d="M260,249.2c0.7,0,1.4-0.3,1.9-0.9c0.9-1.1,0.8-2.6-0.3-3.5c-1.1-0.9-2.6-0.8-3.5,0.3
		c-0.9,1-0.8,2.6,0.3,3.5C258.8,249,259.4,249.2,260,249.2z"/>
	<path fill="#231F20" d="M266.7,241.4c0.7,0,1.4-0.3,1.9-0.9c0.9-1.1,0.8-2.6-0.3-3.5c-1-0.9-2.6-0.8-3.5,0.3
		c-0.9,1.1-0.8,2.6,0.3,3.5C265.5,241.2,266.1,241.4,266.7,241.4z"/>
	<path fill="#231F20" d="M273.3,233.6c0.7,0,1.4-0.3,1.9-0.9c0.9-1,0.8-2.6-0.3-3.5c-1.1-0.9-2.6-0.8-3.5,0.3
		c-0.9,1-0.8,2.6,0.3,3.5C272.2,233.4,272.8,233.6,273.3,233.6z"/>
	<path fill="#231F20" d="M280,225.8c0.7,0,1.4-0.3,1.9-0.9c0.9-1.1,0.8-2.6-0.3-3.5c-1.1-0.9-2.6-0.8-3.5,0.3
		c-0.9,1-0.8,2.6,0.3,3.5C278.8,225.6,279.4,225.8,280,225.8z"/>
	<path fill="#231F20" d="M300,202.5c0.7,0,1.3-0.3,1.8-0.7c0.5-0.5,0.7-1.1,0.7-1.8c0-0.7-0.3-1.3-0.7-1.8c-0.9-0.9-2.6-0.9-3.5,0
		c-0.5,0.5-0.7,1.1-0.7,1.8c0,0.7,0.3,1.3,0.7,1.8C298.7,202.2,299.3,202.5,300,202.5z"/>
	<circle fill="#231F20" cx="469.7" cy="200" r="2.5"/>
	<circle fill="#231F20" cx="479.6" cy="200" r="2.5"/>
	<circle fill="#231F20" cx="459.7" cy="200" r="2.5"/>
	<circle fill="#231F20" cx="489.6" cy="200" r="2.5"/>
	<circle fill="#231F20" cx="559.5" cy="200" r="2.5"/>
	<circle fill="#231F20" cx="569.5" cy="200" r="2.5"/>
	<circle fill="#231F20" cx="499.6" cy="200" r="2.5"/>
	<path fill="#231F20" d="M762.9,265.4c0.6,0,1.3-0.2,1.8-0.7c1-1,1-2.6,0-3.5c-1-1-2.6-1-3.5,0c-1,1-1,2.6,0,3.5
		C761.7,265.2,762.3,265.4,762.9,265.4z"/>
	<circle fill="#231F20" cx="549.5" cy="200" r="2.5"/>
	<circle fill="#231F20" cx="399.8" cy="200" r="2.5"/>
	<circle fill="#231F20" cx="419.8" cy="200" r="2.5"/>
	<circle fill="#231F20" cx="429.7" cy="200" r="2.5"/>
	<circle fill="#231F20" cx="409.8" cy="200" r="2.5"/>
	<circle fill="#231F20" cx="439.7" cy="200" r="2.5"/>
	<path fill="#231F20" d="M539.5,202.5c1.4,0,2.5-1.1,2.5-2.5c0-1.4-1.1-2.5-2.5-2.5c-1.4,0-2.5,1.1-2.5,2.5
		C537,201.4,538.1,202.5,539.5,202.5z"/>
	<circle fill="#231F20" cx="449.7" cy="200" r="2.5"/>
	<circle fill="#231F20" cx="519.6" cy="200" r="2.5"/>
	<circle fill="#231F20" cx="529.5" cy="200" r="2.5"/>
	<circle fill="#231F20" cx="509.6" cy="200" r="2.5"/>
	<path fill="#231F20" d="M727.7,230.2c0.6,0,1.3-0.2,1.8-0.7c1-1,1-2.6,0-3.5c-1-1-2.6-1-3.5,0c-1,1-1,2.6,0,3.5
		C726.4,229.9,727,230.2,727.7,230.2z"/>
	<path fill="#231F20" d="M649.3,202.5c1.4,0,2.5-1.1,2.5-2.5c0-1.4-1.1-2.5-2.5-2.5c-1.4,0-2.5,1.1-2.5,2.5
		C646.8,201.4,647.9,202.5,649.3,202.5z"/>
	<circle fill="#231F20" cx="659.3" cy="200" r="2.5"/>
	<circle fill="#231F20" cx="679.2" cy="200" r="2.5"/>
	<path fill="#231F20" d="M689.2,202.5c1.4,0,2.5-1.1,2.5-2.5c0-1.4-1.1-2.5-2.5-2.5c-1.4,0-2.5,1.1-2.5,2.5
		C686.7,201.4,687.8,202.5,689.2,202.5z"/>
	<path fill="#231F20" d="M669.3,202.5c1.4,0,2.5-1.1,2.5-2.5c0-1.4-1.1-2.5-2.5-2.5c-1.4,0-2.5,1.1-2.5,2.5
		C666.8,201.4,667.9,202.5,669.3,202.5z"/>
	<circle fill="#231F20" cx="639.3" cy="200" r="2.5"/>
	<circle fill="#231F20" cx="599.4" cy="200" r="2.5"/>
	<circle fill="#231F20" cx="609.4" cy="200" r="2.5"/>
	<circle fill="#231F20" cx="619.4" cy="200" r="2.5"/>
	<path fill="#231F20" d="M629.3,202.5c1.4,0,2.5-1.1,2.5-2.5c0-1.4-1.1-2.5-2.5-2.5c-1.4,0-2.5,1.1-2.5,2.5
		C626.8,201.4,628,202.5,629.3,202.5z"/>
	<path fill="#231F20" d="M713.5,216c0.6,0,1.3-0.2,1.8-0.7c1-1,1-2.6,0-3.5c-1-1-2.6-1-3.5,0c-1,1-1,2.6,0,3.5
		C712.3,215.8,712.9,216,713.5,216z"/>
	<path fill="#231F20" d="M748.8,251.3c0.6,0,1.3-0.2,1.8-0.7c1-1,1-2.6,0-3.5c-1-1-2.6-1-3.5,0c-1,1-1,2.6,0,3.5
		C747.5,251.1,748.2,251.3,748.8,251.3z"/>
	<path fill="#231F20" d="M741.8,244.3c0.6,0,1.3-0.2,1.8-0.7c1-1,1-2.6,0-3.5c-1-1-2.6-1-3.5,0c-1,1-1,2.6,0,3.5
		C740.5,244,741.1,244.3,741.8,244.3z"/>
	<circle fill="#231F20" cx="579.4" cy="200" r="2.5"/>
	<path fill="#231F20" d="M734.7,237.2c0.6,0,1.3-0.2,1.8-0.7c1-1,1-2.6,0-3.5c-1-1-2.6-1-3.5,0c-1,1-1,2.6,0,3.5
		C733.4,237,734.1,237.2,734.7,237.2z"/>
	<path fill="#231F20" d="M755.9,258.4c0.6,0,1.3-0.2,1.8-0.7c1-1,1-2.6,0-3.5c-1-1-2.6-1-3.5,0c-1,1-1,2.6,0,3.5
		C754.6,258.1,755.2,258.4,755.9,258.4z"/>
	<circle fill="#231F20" cx="589.4" cy="200" r="2.5"/>
	<path fill="#231F20" d="M706.5,209c0.6,0,1.3-0.2,1.8-0.7c1-1,1-2.6,0-3.5c-1-1-2.6-1-3.5,0c-1,1-1,2.6,0,3.5
		C705.2,208.7,705.8,209,706.5,209z"/>
	<path fill="#231F20" d="M699.2,202.5c1.4,0,2.5-1.1,2.5-2.5c0-1.4-1.1-2.5-2.5-2.5c-1.4,0-2.5,1.1-2.5,2.5
		C696.7,201.4,697.8,202.5,699.2,202.5z"/>
	<path fill="#231F20" d="M720.6,223.1c0.6,0,1.3-0.2,1.8-0.7c1-1,1-2.6,0-3.5c-1-1-2.6-1-3.5,0c-1,1-1,2.6,0,3.5
		C719.3,222.9,720,223.1,720.6,223.1z"/>
	<circle fill="#231F20" cx="320" cy="200" r="2.5"/>
	<circle fill="#231F20" cx="310" cy="200" r="2.5"/>
	<circle fill="#231F20" cx="339.9" cy="200" r="2.5"/>
	<circle fill="#231F20" cx="329.9" cy="200" r="2.5"/>
	<circle fill="#231F20" cx="389.8" cy="200" r="2.5"/>
	<circle fill="#231F20" cx="369.9" cy="200" r="2.5"/>
	<circle fill="#231F20" cx="379.8" cy="200" r="2.5"/>
	<circle fill="#231F20" cx="359.9" cy="200" r="2.5"/>
	<circle fill="#231F20" cx="349.9" cy="200" r="2.5"/>
	<path fill="#231F20" d="M770,272.5c0.7,0,1.3-0.3,1.8-0.7c0.5-0.5,0.7-1.1,0.7-1.8c0-0.7-0.3-1.3-0.7-1.8c-0.9-0.9-2.6-0.9-3.5,0
		c-0.5,0.5-0.7,1.1-0.7,1.8c0,0.7,0.3,1.3,0.7,1.8C768.7,272.2,769.3,272.5,770,272.5z"/>
	<path fill="#231F20" d="M758.2,728.2c-0.5,0.5-0.7,1.1-0.7,1.8s0.3,1.3,0.7,1.8c0.5,0.5,1.1,0.7,1.8,0.7s1.3-0.3,1.8-0.7
		c0.5-0.5,0.7-1.1,0.7-1.8s-0.3-1.3-0.7-1.8C760.8,727.3,759.2,727.3,758.2,728.2z"/>
	<path fill="#231F20" d="M718.1,775c-0.9,1-0.8,2.6,0.3,3.5c0.5,0.4,1,0.6,1.6,0.6c0.7,0,1.4-0.3,1.9-0.9c0.9-1,0.8-2.6-0.3-3.5
		C720.6,773.9,719,774,718.1,775z"/>
	<path fill="#231F20" d="M711.4,782.8c-0.9,1-0.8,2.6,0.3,3.5c0.5,0.4,1.1,0.6,1.6,0.6c0.7,0,1.4-0.3,1.9-0.9c0.9-1,0.8-2.6-0.3-3.5
		C713.9,781.6,712.3,781.8,711.4,782.8z"/>
	<path fill="#231F20" d="M724.8,767.3c-0.9,1-0.8,2.6,0.3,3.5c0.5,0.4,1,0.6,1.6,0.6c0.7,0,1.4-0.3,1.9-0.9c0.9-1,0.8-2.6-0.3-3.5
		C727.2,766.1,725.7,766.2,724.8,767.3z"/>
	<path fill="#231F20" d="M704.8,790.6c-0.9,1-0.8,2.6,0.3,3.5c0.5,0.4,1,0.6,1.6,0.6c0.7,0,1.4-0.3,1.9-0.9c0.9-1,0.8-2.6-0.3-3.5
		C707.2,789.4,705.7,789.5,704.8,790.6z"/>
	<path fill="#231F20" d="M731.4,759.5c-0.9,1.1-0.8,2.6,0.3,3.5c0.5,0.4,1.1,0.6,1.6,0.6c0.7,0,1.4-0.3,1.9-0.9
		c0.9-1.1,0.8-2.6-0.3-3.5C733.9,758.3,732.3,758.4,731.4,759.5z"/>
	<path fill="#231F20" d="M744.8,743.9c-0.9,1-0.8,2.6,0.3,3.5c0.5,0.4,1,0.6,1.6,0.6c0.7,0,1.4-0.3,1.9-0.9c0.9-1,0.8-2.6-0.3-3.5
		C747.2,742.8,745.7,742.9,744.8,743.9z"/>
	<path fill="#231F20" d="M738.1,751.7c-0.9,1-0.8,2.6,0.3,3.5c0.5,0.4,1,0.6,1.6,0.6c0.7,0,1.4-0.3,1.9-0.9c0.9-1,0.8-2.6-0.3-3.5
		C740.6,750.5,739,750.7,738.1,751.7z"/>
	<path fill="#231F20" d="M751.4,736.1c-0.9,1.1-0.8,2.6,0.3,3.5c0.5,0.4,1.1,0.6,1.6,0.6c0.7,0,1.4-0.3,1.9-0.9
		c0.9-1,0.8-2.6-0.3-3.5S752.3,735.1,751.4,736.1z"/>
	<path fill="#231F20" d="M698.2,798.2c-0.5,0.5-0.7,1.1-0.7,1.8s0.3,1.3,0.7,1.8c0.5,0.5,1.1,0.7,1.8,0.7s1.3-0.3,1.8-0.7
		c0.5-0.5,0.7-1.1,0.7-1.8s-0.3-1.3-0.7-1.8C700.8,797.3,699.2,797.3,698.2,798.2z"/>
	<circle fill="#231F20" cx="560" cy="800" r="2.5"/>
	<circle fill="#231F20" cx="550" cy="800" r="2.5"/>
	<circle fill="#231F20" cx="580" cy="800" r="2.5"/>
	<circle fill="#231F20" cx="490" cy="800" r="2.5"/>
	<circle fill="#231F20" cx="570" cy="800" r="2.5"/>
	<circle fill="#231F20" cx="590" cy="800" r="2.5"/>
	<circle fill="#231F20" cx="500" cy="800" r="2.5"/>
	<circle fill="#231F20" cx="510" cy="800" r="2.5"/>
	<circle fill="#231F20" cx="530" cy="800" r="2.5"/>
	<circle fill="#231F20" cx="520" cy="800" r="2.5"/>
	<circle fill="#231F20" cx="540" cy="800" r="2.5"/>
	<circle fill="#231F20" cx="670" cy="800" r="2.5"/>
	<circle fill="#231F20" cx="680" cy="800" r="2.5"/>
	<circle fill="#231F20" cx="650" cy="800" r="2.5"/>
	<circle fill="#231F20" cx="690" cy="800" r="2.5"/>
	<circle fill="#231F20" cx="620" cy="800" r="2.5"/>
	<circle fill="#231F20" cx="640" cy="800" r="2.5"/>
	<circle fill="#231F20" cx="600" cy="800" r="2.5"/>
	<circle fill="#231F20" cx="610" cy="800" r="2.5"/>
	<circle fill="#231F20" cx="630" cy="800" r="2.5"/>
	<circle fill="#231F20" cx="660" cy="800" r="2.5"/>
	<circle fill="#231F20" cx="360" cy="800" r="2.5"/>
	<circle fill="#231F20" cx="350" cy="800" r="2.5"/>
	<circle fill="#231F20" cx="370" cy="800" r="2.5"/>
	<circle fill="#231F20" cx="390" cy="800" r="2.5"/>
	<circle fill="#231F20" cx="380" cy="800" r="2.5"/>
	<circle fill="#231F20" cx="340" cy="800" r="2.5"/>
	<circle fill="#231F20" cx="400" cy="800" r="2.5"/>
	<circle fill="#231F20" cx="310" cy="800" r="2.5"/>
	<circle fill="#231F20" cx="320" cy="800" r="2.5"/>
	<circle fill="#231F20" cx="330" cy="800" r="2.5"/>
	<circle fill="#231F20" cx="450" cy="800" r="2.5"/>
	<circle fill="#231F20" cx="460" cy="800" r="2.5"/>
	<circle fill="#231F20" cx="410" cy="800" r="2.5"/>
	<circle fill="#231F20" cx="480" cy="800" r="2.5"/>
	<circle fill="#231F20" cx="470" cy="800" r="2.5"/>
	<circle fill="#231F20" cx="420" cy="800" r="2.5"/>
	<circle fill="#231F20" cx="440" cy="800" r="2.5"/>
	<circle fill="#231F20" cx="430" cy="800" r="2.5"/>
	<path fill="#231F20" d="M298.2,798.2c-0.5,0.5-0.7,1.1-0.7,1.8s0.3,1.3,0.7,1.8c0.5,0.5,1.1,0.7,1.8,0.7c0.7,0,1.3-0.3,1.8-0.7
		c0.5-0.5,0.7-1.1,0.7-1.8s-0.3-1.3-0.7-1.8C300.8,797.3,299.2,797.3,298.2,798.2z"/>
	<path fill="#231F20" d="M249.2,749.2c-1,1-1,2.6,0,3.5c0.5,0.5,1.1,0.7,1.8,0.7c0.6,0,1.3-0.2,1.8-0.7c1-1,1-2.6,0-3.5
		C251.8,748.3,250.2,748.3,249.2,749.2z"/>
	<path fill="#231F20" d="M263.2,763.2c-1,1-1,2.6,0,3.5c0.5,0.5,1.1,0.7,1.8,0.7c0.6,0,1.3-0.2,1.8-0.7c1-1,1-2.6,0-3.5
		C265.8,762.3,264.2,762.3,263.2,763.2z"/>
	<path fill="#231F20" d="M270.2,770.2c-1,1-1,2.6,0,3.5c0.5,0.5,1.1,0.7,1.8,0.7c0.6,0,1.3-0.2,1.8-0.7c1-1,1-2.6,0-3.5
		C272.8,769.3,271.2,769.3,270.2,770.2z"/>
	<path fill="#231F20" d="M235.2,735.2c-1,1-1,2.6,0,3.5c0.5,0.5,1.1,0.7,1.8,0.7c0.6,0,1.3-0.2,1.8-0.7c1-1,1-2.6,0-3.5
		C237.8,734.3,236.2,734.3,235.2,735.2z"/>
	<path fill="#231F20" d="M242.2,742.2c-1,1-1,2.6,0,3.5c0.5,0.5,1.1,0.7,1.8,0.7c0.6,0,1.3-0.2,1.8-0.7c1-1,1-2.6,0-3.5
		C244.8,741.3,243.2,741.3,242.2,742.2z"/>
	<path fill="#231F20" d="M256.2,756.2c-1,1-1,2.6,0,3.5c0.5,0.5,1.1,0.7,1.8,0.7c0.6,0,1.3-0.2,1.8-0.7c1-1,1-2.6,0-3.5
		C258.8,755.2,257.2,755.2,256.2,756.2z"/>
	<path fill="#231F20" d="M291.2,791.2c-1,1-1,2.6,0,3.5c0.5,0.5,1.1,0.7,1.8,0.7c0.6,0,1.3-0.2,1.8-0.7c1-1,1-2.6,0-3.5
		C293.8,790.3,292.2,790.3,291.2,791.2z"/>
	<path fill="#231F20" d="M277.2,777.2c-1,1-1,2.6,0,3.5c0.5,0.5,1.1,0.7,1.8,0.7c0.6,0,1.3-0.2,1.8-0.7c1-1,1-2.6,0-3.5
		C279.8,776.3,278.2,776.3,277.2,777.2z"/>
	<path fill="#231F20" d="M284.2,784.2c-1,1-1,2.6,0,3.5c0.5,0.5,1.1,0.7,1.8,0.7c0.6,0,1.3-0.2,1.8-0.7c1-1,1-2.6,0-3.5
		C286.8,783.2,285.2,783.2,284.2,784.2z"/>
	<path fill="#231F20" d="M228.2,728.2c-0.5,0.5-0.7,1.1-0.7,1.8s0.3,1.3,0.7,1.8c0.5,0.5,1.1,0.7,1.8,0.7c0.7,0,1.3-0.3,1.8-0.7
		c0.5-0.5,0.7-1.1,0.7-1.8s-0.3-1.3-0.7-1.8C230.8,727.3,229.2,727.3,228.2,728.2z"/>
	<polygon fill="#231F20" points="500,766.9 488.2,758 485.2,762 500,773.1 514.8,762 511.8,758 	"/>
	<polygon fill="#231F20" points="500,776.9 488.2,768 485.2,772 500,783.1 514.8,772 511.8,768 	"/>
	<polygon fill="#231F20" points="500,233.1 511.8,242 514.8,238 500,226.9 485.2,238 488.2,242 	"/>
	<polygon fill="#231F20" points="500,223.1 511.8,232 514.8,228 500,216.9 485.2,228 488.2,232 	"/>
</g>
</svg>
