<?xml version="1.0" encoding="utf-8"?>
<!-- Generator: Adobe Illustrator 17.1.0, SVG Export Plug-In . SVG Version: 6.00 Build 0)  -->
<!DOCTYPE svg PUBLIC "-//W3C//DTD SVG 1.1//EN" "http://www.w3.org/Graphics/SVG/1.1/DTD/svg11.dtd">
<svg version="1.1" id="Layer_1" xmlns="http://www.w3.org/2000/svg" xmlns:xlink="http://www.w3.org/1999/xlink" x="0px" y="0px"
	 viewBox="0 0 1000 1000" enable-background="new 0 0 1000 1000" xml:space="preserve">
<g>
	<path fill="#231F20" d="M474.3,580.6c-0.5,0.3-0.6,0.9-0.3,1.4c0.2,0.3,0.5,0.5,0.8,0.5c0.2,0,0.4,0,0.6-0.2
		c0.5-0.3,0.6-0.9,0.3-1.4v0C475.4,580.4,474.8,580.3,474.3,580.6z"/>
	<path fill="#231F20" d="M472.5,554c0.4,0,0.8-0.2,0.9-0.6c0.2-0.5,0-1.1-0.5-1.3c-0.5-0.2-1.1,0-1.3,0.5c-0.2,0.5,0,1.1,0.5,1.3
		C472.2,554,472.4,554,472.5,554z"/>
	<path fill="#231F20" d="M505,534.4c-0.5-0.1-1.1,0.3-1.2,0.8c-0.1,0.6,0.3,1.1,0.8,1.2c0,0,0.1,0,0.2,0c0.5,0,0.9-0.3,1-0.8
		C506,535,505.6,534.5,505,534.4z"/>
	<path fill="#231F20" d="M510.8,593c-0.2-0.5-0.8-0.8-1.3-0.6c-0.5,0.2-0.8,0.8-0.6,1.3c0.1,0.4,0.5,0.7,0.9,0.7c0.1,0,0.2,0,0.3,0
		C510.7,594.1,511,593.5,510.8,593z"/>
	<path fill="#231F20" d="M490.6,592.4c-0.5-0.2-1.1,0.1-1.3,0.6c-0.2,0.5,0.1,1.1,0.6,1.3c0.1,0,0.2,0,0.3,0c0.4,0,0.8-0.3,1-0.7
		C491.4,593.2,491.1,592.6,490.6,592.4z"/>
	<path fill="#231F20" d="M482.2,587.9c-0.4-0.3-1.1-0.3-1.4,0.2c-0.3,0.4-0.3,1.1,0.2,1.4c0.2,0.1,0.4,0.2,0.6,0.2
		c0.3,0,0.6-0.1,0.8-0.4C482.7,588.9,482.6,588.2,482.2,587.9z"/>
	<path fill="#231F20" d="M494.8,534.4c-0.5,0.1-0.9,0.6-0.8,1.2c0.1,0.5,0.5,0.8,1,0.8c0.1,0,0.1,0,0.2,0c0.5-0.1,0.9-0.6,0.8-1.1
		C495.9,534.7,495.4,534.3,494.8,534.4z"/>
	<path fill="#231F20" d="M529.3,571.3c-0.5-0.1-1.1,0.2-1.2,0.7c-0.1,0.5,0.2,1.1,0.7,1.2c0.1,0,0.2,0,0.2,0c0.5,0,0.9-0.3,1-0.8
		c0,0,0,0,0,0C530.2,572,529.9,571.4,529.3,571.3z"/>
	<path fill="#231F20" d="M524.3,580.8c-0.3,0.5-0.2,1.1,0.3,1.4c0.2,0.1,0.3,0.2,0.5,0.2c0.3,0,0.6-0.2,0.8-0.4
		c0.3-0.5,0.2-1.1-0.3-1.4C525.2,580.2,524.6,580.3,524.3,580.8z"/>
	<path fill="#231F20" d="M530.9,562.3c0-0.5-0.5-1-1.1-0.9c-0.5,0-1,0.5-0.9,1.1h0c0,0.5,0.5,0.9,1,0.9c0,0,0.1,0,0.1,0
		C530.5,563.4,530.9,562.9,530.9,562.3z"/>
	<path fill="#231F20" d="M521.3,543.9c-0.4,0.4-0.4,1,0,1.4c0.2,0.2,0.5,0.3,0.7,0.3c0.2,0,0.5-0.1,0.7-0.3c0.4-0.4,0.4-1,0-1.4
		C522.4,543.5,521.8,543.5,521.3,543.9z"/>
	<path fill="#231F20" d="M528.4,552.5c-0.2-0.5-0.8-0.7-1.3-0.5c-0.5,0.2-0.7,0.8-0.5,1.3c0.2,0.4,0.5,0.6,0.9,0.6
		c0.1,0,0.3,0,0.4-0.1C528.4,553.6,528.6,553,528.4,552.5z"/>
	<path fill="#231F20" d="M486.6,538.1c-0.3-0.5-0.9-0.7-1.4-0.4c-0.5,0.3-0.7,0.9-0.4,1.4c0.2,0.3,0.5,0.5,0.9,0.5
		c0.2,0,0.3,0,0.5-0.1C486.6,539.2,486.8,538.6,486.6,538.1z"/>
	<path fill="#231F20" d="M477.2,544c-0.4,0.4-0.3,1,0.1,1.4c0.2,0.2,0.4,0.3,0.7,0.3c0.3,0,0.5-0.1,0.7-0.3c0.4-0.4,0.3-1-0.1-1.4
		C478.2,543.6,477.5,543.6,477.2,544z"/>
	<path fill="#231F20" d="M514.7,537.7c-0.5-0.3-1.1-0.1-1.4,0.4c-0.3,0.5-0.1,1.1,0.4,1.4c0.1,0.1,0.3,0.1,0.5,0.1
		c0.3,0,0.7-0.2,0.9-0.5C515.4,538.6,515.2,538,514.7,537.7z"/>
	<path fill="#231F20" d="M518.5,589.6c0.2,0,0.4-0.1,0.6-0.2c0.4-0.3,0.5-1,0.2-1.4c-0.3-0.4-1-0.5-1.4-0.2c-0.4,0.3-0.5,1-0.2,1.4
		C517.9,589.5,518.2,589.6,518.5,589.6z"/>
	<path fill="#231F20" d="M471.1,562.6c0-0.5-0.4-1-0.9-1.1c-0.5,0-1,0.4-1.1,0.9c0,0.5,0.4,1,0.9,1.1c0,0,0,0,0.1,0
		C470.6,563.5,471,563.1,471.1,562.6z"/>
	<path fill="#231F20" d="M470.9,573.4c0.1,0,0.2,0,0.2,0c0.5-0.1,0.9-0.7,0.7-1.2c-0.1-0.5-0.7-0.9-1.2-0.7
		c-0.5,0.1-0.9,0.7-0.7,1.2C470.1,573.1,470.5,573.4,470.9,573.4z"/>
	<path fill="#231F20" d="M483,675.5c-0.5,0.3-0.6,0.9-0.3,1.4c0.2,0.3,0.5,0.4,0.8,0.4c0.2,0,0.4-0.1,0.6-0.2
		c0.5-0.3,0.6-0.9,0.2-1.4C484,675.3,483.4,675.2,483,675.5z"/>
	<path fill="#231F20" d="M480,666.4c-0.5,0.1-0.9,0.6-0.9,1.1c0.1,0.5,0.5,0.9,1,0.9c0,0,0.1,0,0.1,0c0.5-0.1,0.9-0.6,0.9-1.1
		C481.1,666.8,480.6,666.4,480,666.4z"/>
	<path fill="#231F20" d="M481.6,657c-0.5-0.2-1.1,0.1-1.3,0.6c-0.2,0.5,0.1,1.1,0.6,1.3c0.1,0.1,0.2,0.1,0.4,0.1
		c0.4,0,0.8-0.2,0.9-0.6C482.4,657.8,482.2,657.2,481.6,657z"/>
	<path fill="#231F20" d="M519.6,657.5c-0.2-0.5-0.8-0.8-1.3-0.6c-0.5,0.2-0.8,0.8-0.6,1.3c0.1,0.4,0.5,0.6,0.9,0.6
		c0.1,0,0.2,0,0.4-0.1C519.6,658.6,519.8,658,519.6,657.5z"/>
	<path fill="#231F20" d="M512.5,649.3c-0.4,0.4-0.3,1,0.1,1.4c0.2,0.2,0.4,0.2,0.7,0.2c0.3,0,0.6-0.1,0.8-0.3
		c0.4-0.4,0.3-1.1-0.1-1.4C513.5,648.9,512.8,648.9,512.5,649.3z"/>
	<path fill="#231F20" d="M486,649.3c-0.4,0.4-0.5,1-0.1,1.4c0.2,0.2,0.5,0.3,0.8,0.3c0.2,0,0.5-0.1,0.7-0.2c0.4-0.4,0.4-1,0.1-1.4
		C487.1,649,486.5,648.9,486,649.3z"/>
	<path fill="#231F20" d="M519.9,668.3c0.5,0,0.9-0.4,1-0.9c0.1-0.5-0.3-1-0.9-1.1c-0.5-0.1-1,0.3-1.1,0.9c-0.1,0.6,0.3,1.1,0.9,1.1
		C519.8,668.3,519.8,668.3,519.9,668.3z"/>
	<path fill="#231F20" d="M515.7,675.7c-0.3,0.5-0.2,1.1,0.2,1.4c0.2,0.1,0.4,0.2,0.6,0.2c0.3,0,0.6-0.2,0.8-0.4
		c0.3-0.5,0.2-1.1-0.3-1.4C516.6,675.2,516,675.3,515.7,675.7z"/>
	<path fill="#231F20" d="M494.9,644.6c-0.5,0.1-0.9,0.7-0.7,1.2c0.1,0.5,0.5,0.8,1,0.8c0.1,0,0.2,0,0.2,0c0.5-0.1,0.9-0.7,0.7-1.2
		C496,644.8,495.5,644.5,494.9,644.6z"/>
	<path fill="#231F20" d="M505,644.6c-0.5-0.1-1.1,0.2-1.2,0.7s0.2,1.1,0.7,1.2c0.1,0,0.2,0,0.2,0c0.5,0,0.9-0.3,1-0.8
		C505.8,645.3,505.5,644.7,505,644.6z"/>
	<path fill="#231F20" d="M489.8,682.2c-0.2,0.5-0.1,1.1,0.4,1.3c0.1,0.1,0.3,0.1,0.5,0.1c0.4,0,0.7-0.2,0.9-0.5
		c0.3-0.5,0.1-1.1-0.4-1.3C490.7,681.6,490.1,681.8,489.8,682.2z"/>
	<path fill="#231F20" d="M508.5,683.1c0.2,0.3,0.5,0.5,0.9,0.5c0.2,0,0.3,0,0.5-0.1c0.5-0.3,0.7-0.9,0.4-1.3
		c-0.3-0.5-0.9-0.7-1.4-0.4v0C508.4,682,508.2,682.7,508.5,683.1z"/>
	<path fill="#231F20" d="M520.2,251.6c-0.5-0.1-1,0.4-1.1,0.9c0,0.6,0.4,1,0.9,1.1c0,0,0,0,0.1,0c0.5,0,1-0.4,1-0.9h0
		C521.1,252.1,520.7,251.6,520.2,251.6z"/>
	<path fill="#231F20" d="M539.3,283.1c-0.2,0.5,0.1,1.1,0.6,1.3c0.1,0,0.2,0.1,0.3,0.1c0.4,0,0.8-0.3,1-0.7c0.2-0.5-0.1-1.1-0.6-1.3
		C540.1,282.3,539.5,282.5,539.3,283.1z"/>
	<path fill="#231F20" d="M535.7,229.6c0.2,0,0.3,0,0.5-0.1c0.5-0.3,0.7-0.9,0.4-1.4c-0.3-0.5-0.9-0.7-1.4-0.4
		c-0.5,0.3-0.7,0.9-0.4,1.4C535,229.4,535.3,229.6,535.7,229.6z"/>
	<path fill="#231F20" d="M545,226.4c0,0,0.1,0,0.2,0c0.5-0.1,0.9-0.6,0.8-1.1c-0.1-0.6-0.6-0.9-1.2-0.8c-0.5,0.1-0.9,0.6-0.8,1.1
		C544.1,226.1,544.5,226.4,545,226.4z"/>
	<path fill="#231F20" d="M550.1,284C550,284,550,284,550.1,284c-0.6,0-1.1,0.4-1.1,1c0,0.5,0.5,1,1,1c0,0,0,0,0.1,0c0,0,0,0,0.1,0
		c0.6,0,1-0.5,1-1C551.1,284.4,550.7,284,550.1,284C550.1,284,550.1,284,550.1,284z"/>
	<path fill="#231F20" d="M522.1,243.9c0.1,0.1,0.3,0.1,0.4,0.1c0.4,0,0.8-0.2,0.9-0.6c0.2-0.5,0-1.1-0.5-1.3c-0.5-0.2-1.1,0-1.3,0.5
		C521.4,243.1,521.6,243.7,522.1,243.9z"/>
	<path fill="#231F20" d="M559.8,284.3c0.1,0,0.2,0,0.3-0.1c0.5-0.2,0.8-0.8,0.6-1.3c-0.2-0.5-0.8-0.8-1.3-0.6
		c-0.5,0.2-0.8,0.8-0.6,1.3C559,284.1,559.4,284.3,559.8,284.3z"/>
	<path fill="#231F20" d="M524.9,272.4c0.2,0,0.4-0.1,0.5-0.2c0.5-0.3,0.6-0.9,0.3-1.4c-0.3-0.5-0.9-0.6-1.4-0.3
		c-0.5,0.3-0.6,0.9-0.3,1.4C524.2,272.3,524.6,272.4,524.9,272.4z"/>
	<path fill="#231F20" d="M527.9,235.7c0.3,0,0.5-0.1,0.7-0.3c0.4-0.4,0.3-1-0.1-1.4c-0.4-0.4-1-0.4-1.4,0.1c-0.4,0.4-0.3,1,0.1,1.4
		C527.4,235.6,527.7,235.7,527.9,235.7z"/>
	<path fill="#231F20" d="M520.7,261.4c-0.5,0.1-0.9,0.7-0.7,1.2c0.1,0.5,0.5,0.8,1,0.8c0.1,0,0.2,0,0.2,0c0.5-0.1,0.9-0.7,0.7-1.2h0
		C521.8,261.6,521.2,261.3,520.7,261.4z"/>
	<path fill="#231F20" d="M554.7,226.4c0,0,0.1,0,0.2,0c0.5,0,0.9-0.3,1-0.8c0.1-0.5-0.3-1-0.8-1.1c-0.5-0.1-1.1,0.3-1.2,0.8
		C553.8,225.8,554.2,226.3,554.7,226.4z"/>
	<path fill="#231F20" d="M572.8,233.9c-0.4-0.4-1-0.4-1.4-0.1c-0.4,0.4-0.4,1,0,1.4c0.2,0.2,0.5,0.3,0.7,0.3c0.2,0,0.5-0.1,0.7-0.3
		C573.1,235,573.1,234.3,572.8,233.9C572.8,233.9,572.8,233.9,572.8,233.9z"/>
	<path fill="#231F20" d="M575.7,270.5c-0.5-0.3-1.1-0.2-1.4,0.3c-0.3,0.5-0.2,1.1,0.3,1.4c0.2,0.1,0.3,0.2,0.5,0.2
		c0.3,0,0.6-0.2,0.8-0.5C576.3,271.4,576.2,270.8,575.7,270.5z"/>
	<path fill="#231F20" d="M578.4,242.5c-0.2-0.5-0.8-0.7-1.3-0.5c-0.5,0.2-0.7,0.8-0.5,1.3c0.2,0.4,0.5,0.6,0.9,0.6
		c0.1,0,0.3,0,0.4-0.1C578.4,243.6,578.6,243,578.4,242.5z"/>
	<path fill="#231F20" d="M568.5,279.6c0.2,0,0.4-0.1,0.6-0.2c0.4-0.4,0.5-1,0.2-1.4c-0.3-0.4-1-0.5-1.4-0.2c-0.4,0.3-0.5,1-0.2,1.4
		C567.9,279.5,568.2,279.6,568.5,279.6z"/>
	<path fill="#231F20" d="M580.1,262.5C580.1,262.5,580.1,262.5,580.1,262.5c0.1-0.5-0.2-1.1-0.7-1.2c-0.5-0.1-1.1,0.2-1.2,0.7
		c-0.1,0.5,0.2,1.1,0.7,1.2c0.1,0,0.2,0,0.2,0C579.6,263.3,580,263,580.1,262.5z"/>
	<path fill="#231F20" d="M563.7,229.5L563.7,229.5c0.2,0.1,0.3,0.1,0.5,0.1c0.3,0,0.7-0.2,0.9-0.5c0.3-0.5,0.1-1.1-0.4-1.4
		c-0.5-0.3-1.1-0.1-1.3,0.4C563.1,228.6,563.3,229.2,563.7,229.5z"/>
	<path fill="#231F20" d="M579.9,253.4C579.9,253.4,580,253.4,579.9,253.4c0.6,0,1-0.5,1-1.1c0-0.5-0.5-1-1.1-0.9
		c-0.5,0-1,0.5-0.9,1.1C578.9,253,579.4,253.4,579.9,253.4z"/>
	<path fill="#231F20" d="M454.7,226.4c0.1,0,0.1,0,0.2,0c0.5,0,0.9-0.4,1-0.8c0.1-0.6-0.3-1.1-0.8-1.2c-0.6-0.1-1.1,0.3-1.2,0.8
		C453.8,225.8,454.2,226.3,454.7,226.4z"/>
	<path fill="#231F20" d="M439.9,284.3c0.1,0,0.2,0.1,0.3,0.1c0.4,0,0.8-0.3,1-0.7c0.2-0.5-0.1-1.1-0.6-1.3c-0.5-0.2-1.1,0.1-1.3,0.6
		C439.1,283.6,439.4,284.1,439.9,284.3z"/>
	<path fill="#231F20" d="M424.3,270.6c-0.5,0.3-0.6,0.9-0.3,1.4c0.2,0.3,0.5,0.5,0.8,0.5c0.2,0,0.4-0.1,0.6-0.2
		c0.5-0.3,0.6-0.9,0.3-1.4C425.4,270.4,424.8,270.3,424.3,270.6z"/>
	<path fill="#231F20" d="M477.4,243.9c0.1,0,0.3,0,0.4-0.1c0.5-0.2,0.7-0.8,0.5-1.3c-0.2-0.5-0.8-0.7-1.3-0.5
		c-0.5,0.2-0.7,0.8-0.5,1.3C476.7,243.6,477.1,243.9,477.4,243.9z"/>
	<path fill="#231F20" d="M472,235.6c0.2,0,0.5-0.1,0.7-0.3c0.4-0.4,0.4-1,0.1-1.4c-0.4-0.4-1-0.4-1.4-0.1c-0.4,0.4-0.4,1,0,1.4
		C471.5,235.5,471.8,235.6,472,235.6z"/>
	<path fill="#231F20" d="M422.9,242.1c-0.5-0.2-1.1,0-1.3,0.5c-0.2,0.5,0,1.1,0.5,1.3c0.1,0.1,0.3,0.1,0.4,0.1
		c0.4,0,0.8-0.2,0.9-0.6C423.6,242.9,423.4,242.3,422.9,242.1z"/>
	<path fill="#231F20" d="M474.6,272.2c0.2,0.1,0.4,0.2,0.5,0.2c0.3,0,0.6-0.2,0.8-0.5c0.3-0.5,0.2-1.1-0.3-1.4
		c-0.5-0.3-1.1-0.2-1.4,0.3C474,271.2,474.2,271.9,474.6,272.2z"/>
	<path fill="#231F20" d="M450,286C450,286,450,286,450,286c0.1,0,0.1,0,0.1,0c0.5,0,1-0.5,1-1c0-0.6-0.4-1-1-1c0,0,0,0-0.1,0
		c0,0,0,0,0,0c-0.6,0-1,0.4-1,1C449,285.5,449.4,286,450,286z"/>
	<path fill="#231F20" d="M420.7,261.4c-0.5,0.1-0.9,0.7-0.7,1.2c0,0,0,0,0,0c0.1,0.5,0.5,0.8,1,0.8c0.1,0,0.2,0,0.2,0
		c0.5-0.1,0.9-0.7,0.7-1.2C421.8,261.6,421.2,261.3,420.7,261.4z"/>
	<path fill="#231F20" d="M435.7,229.6c0.2,0,0.3,0,0.5-0.1c0.5-0.3,0.7-0.9,0.4-1.4c-0.3-0.5-0.9-0.7-1.4-0.4
		c-0.5,0.3-0.7,0.9-0.4,1.4C435,229.4,435.3,229.6,435.7,229.6z"/>
	<path fill="#231F20" d="M420,253.5C420,253.5,420.1,253.5,420,253.5c0.6,0,1-0.4,1.1-0.9c0-0.6-0.4-1-0.9-1.1
		c-0.5-0.1-1,0.4-1.1,0.9C419.1,253,419.5,253.5,420,253.5z"/>
	<path fill="#231F20" d="M431.6,279.7c0.3,0,0.6-0.1,0.8-0.4c0.3-0.4,0.3-1.1-0.2-1.4c-0.4-0.3-1.1-0.3-1.4,0.2
		c-0.3,0.4-0.3,1.1,0.2,1.4C431.1,279.6,431.4,279.7,431.6,279.7z"/>
	<path fill="#231F20" d="M445,226.4c0.1,0,0.1,0,0.2,0c0.5-0.1,0.9-0.6,0.8-1.1c-0.1-0.6-0.6-0.9-1.1-0.8c-0.5,0.1-0.9,0.6-0.8,1.1
		C444.1,226.1,444.5,226.4,445,226.4z"/>
	<path fill="#231F20" d="M459.5,282.4c-0.5,0.2-0.8,0.8-0.6,1.3c0.1,0.4,0.5,0.7,0.9,0.7c0.1,0,0.2,0,0.3-0.1
		c0.5-0.2,0.8-0.8,0.6-1.3C460.6,282.5,460,282.2,459.5,282.4z"/>
	<path fill="#231F20" d="M479.3,261.3c-0.5-0.1-1.1,0.2-1.2,0.7c-0.1,0.5,0.2,1.1,0.7,1.2c0.1,0,0.2,0,0.2,0c0.5,0,0.9-0.3,1-0.8
		C480.2,262,479.9,261.4,479.3,261.3z"/>
	<path fill="#231F20" d="M463.8,229.5c0.1,0.1,0.3,0.1,0.5,0.1c0.4,0,0.7-0.2,0.9-0.5c0.3-0.5,0.1-1.1-0.4-1.4
		c-0.5-0.3-1.1-0.1-1.4,0.4C463.1,228.6,463.3,229.2,463.8,229.5z"/>
	<path fill="#231F20" d="M427.2,234c-0.4,0.4-0.3,1,0.1,1.4c0.2,0.2,0.4,0.3,0.7,0.3c0.3,0,0.5-0.1,0.7-0.3c0.4-0.4,0.3-1-0.1-1.4
		C428.2,233.6,427.5,233.6,427.2,234z"/>
	<path fill="#231F20" d="M480.9,252.3c0-0.5-0.5-1-1.1-0.9c-0.6,0-1,0.5-0.9,1.1c0,0.5,0.5,0.9,1,0.9c0,0,0.1,0,0.1,0
		C480.5,253.4,480.9,252.9,480.9,252.3z"/>
	<path fill="#231F20" d="M501,794.1V685.4c0.1-0.1,0.1-0.3,0.1-0.4c0-0.1,0-0.3-0.1-0.4v-89.1c0.1-0.1,0.1-0.3,0.1-0.5
		c0-0.2,0-0.3-0.1-0.5V175.9c11.1-0.5,20-9.7,20-20.9c0-11.6-9.4-21-21-21c-11.6,0-21,9.4-21,21c0,11.2,8.9,20.4,20,20.9v618.1
		c-5.6,0.5-10,5.2-10,10.9c0,6.1,4.9,11,11,11s11-4.9,11-11C511,799.3,506.6,794.6,501,794.1z M481,155c0-10.5,8.5-19,19-19
		s19,8.5,19,19c0,10.1-8,18.4-18,18.9V155h-2v18.9C489,173.4,481,165.1,481,155z M500,814c-5,0-9-4-9-9c0-4.6,3.5-8.4,8-8.9v8.9h2
		v-8.9c4.5,0.5,8,4.3,8,8.9C509,810,505,814,500,814z"/>
	<path fill="#231F20" d="M750,274c-17.1,0-31,13.9-31,31c0,8.2,3.2,15.6,8.4,21.2L699,354.6v379.5c-11.1,0.5-20,9.7-20,20.9
		c0,5.4,2.1,10.4,5.5,14.1L607,846.6c-1.9-1.6-4.4-2.6-7-2.6c-6.1,0-11,4.9-11,11s4.9,11,11,11s11-4.9,11-11c0-2.7-1-5.1-2.6-7
		l77.5-77.5c3.7,3.4,8.7,5.5,14.1,5.5c11.6,0,21-9.4,21-21c0-11.2-8.9-20.4-20-20.9V355.4l27.8-27.8c5.5,5.2,13,8.4,21.2,8.4
		c17.1,0,31-13.9,31-31S767.1,274,750,274z M681,755c0-10.1,8-18.4,18-18.9v18.5l-13.1,13.1C682.9,764.3,681,759.9,681,755z
		 M609,855c0,5-4,9-9,9s-9-4-9-9s4-9,9-9c2.1,0,4.1,0.7,5.6,2l-6.3,6.3l1.4,1.4l6.3-6.3C608.3,850.9,609,852.9,609,855z M719,755
		c0,10.5-8.5,19-19,19c-4.9,0-9.3-1.9-12.7-4.9l13.7-13.7v-19.4C711,736.6,719,744.9,719,755z M750,334c-7.6,0-14.6-3-19.8-7.8
		l20.5-20.5l-1.4-1.4l-20.5,20.5c-4.8-5.2-7.8-12.1-7.8-19.8c0-16,13-29,29-29s29,13,29,29S766,334,750,334z"/>
	<path fill="#231F20" d="M599,755h2V375.9c11.1-0.5,20-9.7,20-20.9c0-11.6-9.4-21-21-21s-21,9.4-21,21c0,11.2,8.9,20.4,20,20.9V755z
		 M581,355c0-10.5,8.5-19,19-19s19,8.5,19,19c0,10.1-8,18.4-18,18.9V355h-2v18.9C589,373.4,581,365.1,581,355z"/>
	<path fill="#231F20" d="M400,334c-11.6,0-21,9.4-21,21c0,11.2,8.9,20.4,20,20.9V755h2V375.9c11.1-0.5,20-9.7,20-20.9
		C421,343.4,411.6,334,400,334z M401,373.9V355h-2v18.9c-10-0.5-18-8.8-18-18.9c0-10.5,8.5-19,19-19s19,8.5,19,19
		C419,365.1,411,373.4,401,373.9z"/>
	<rect x="679" y="455" fill="#231F20" width="2" height="100"/>
	<rect x="669" y="455" fill="#231F20" width="2" height="100"/>
	<rect x="659" y="455" fill="#231F20" width="2" height="100"/>
	<polygon fill="#231F20" points="549,799.6 519.2,834.3 520.8,835.7 550.8,800.7 551,800.4 551,455 549,455 	"/>
	<polygon fill="#231F20" points="451,455 449,455 449,800.4 479.2,835.7 480.8,834.3 451,799.6 	"/>
	<path fill="#231F20" d="M519,294.7V335h2v-39.7l29.8-39.7l-1.6-1.2l-17.5,23.3c-0.3,0-0.7,0.1-0.9,0.4c-0.2,0.3-0.3,0.7-0.1,1
		L519,294.7z"/>
	<path fill="#231F20" d="M479,335h2v-40.3l-11.6-15.5c0.2-0.3,0.2-0.8-0.1-1.1c-0.3-0.3-0.7-0.4-1.1-0.3l-17.4-23.2l-1.6,1.2
		l29.8,39.7V335z"/>
	<rect x="460" y="494" fill="#231F20" width="20" height="2"/>
	<rect x="460" y="454" fill="#231F20" width="20" height="2"/>
	<rect x="460" y="414" fill="#231F20" width="20" height="2"/>
	<rect x="460" y="374" fill="#231F20" width="20" height="2"/>
	<rect x="520" y="494" fill="#231F20" width="20" height="2"/>
	<rect x="520" y="454" fill="#231F20" width="20" height="2"/>
	<rect x="520" y="414" fill="#231F20" width="20" height="2"/>
	<rect x="520" y="374" fill="#231F20" width="20" height="2"/>
	<circle fill="#231F20" cx="640" cy="475" r="1"/>
	<path fill="#231F20" d="M640,544c-0.5,0-1,0.4-1,1c0,0.5,0.5,1,1,1s1-0.5,1-1C641,544.4,640.5,544,640,544z"/>
	<circle fill="#231F20" cx="640" cy="535" r="1"/>
	<circle fill="#231F20" cx="640" cy="555" r="1"/>
	<circle fill="#231F20" cx="640" cy="525" r="1"/>
	<circle fill="#231F20" cx="640" cy="485" r="1"/>
	<circle fill="#231F20" cx="640" cy="565" r="1"/>
	<circle fill="#231F20" cx="640" cy="515" r="1"/>
	<circle fill="#231F20" cx="640" cy="495" r="1"/>
	<circle fill="#231F20" cx="640" cy="505" r="1"/>
	<circle fill="#231F20" cx="640" cy="465" r="1"/>
	<circle fill="#231F20" cx="640" cy="625" r="1"/>
	<circle fill="#231F20" cx="640" cy="615" r="1"/>
	<circle fill="#231F20" cx="640" cy="645" r="1"/>
	<circle fill="#231F20" cx="640" cy="275" r="1"/>
	<path fill="#231F20" d="M640,594c-0.5,0-1,0.4-1,1c0,0.5,0.5,1,1,1s1-0.5,1-1C641,594.4,640.5,594,640,594z"/>
	<circle fill="#231F20" cx="640" cy="605" r="1"/>
	<circle fill="#231F20" cx="640" cy="585" r="1"/>
	<circle fill="#231F20" cx="640" cy="575" r="1"/>
	<circle fill="#231F20" cx="640" cy="635" r="1"/>
	<circle fill="#231F20" cx="640" cy="325" r="1"/>
	<circle fill="#231F20" cx="640" cy="335" r="1"/>
	<circle fill="#231F20" cx="640" cy="345" r="1"/>
	<circle fill="#231F20" cx="640" cy="355" r="1"/>
	<circle fill="#231F20" cx="640" cy="455" r="1"/>
	<circle fill="#231F20" cx="640" cy="295" r="1"/>
	<circle fill="#231F20" cx="640" cy="285" r="1"/>
	<circle fill="#231F20" cx="640" cy="305" r="1"/>
	<circle fill="#231F20" cx="640" cy="365" r="1"/>
	<circle fill="#231F20" cx="640" cy="315" r="1"/>
	<circle fill="#231F20" cx="640" cy="435" r="1"/>
	<circle fill="#231F20" cx="640" cy="375" r="1"/>
	<circle fill="#231F20" cx="640" cy="445" r="1"/>
	<circle fill="#231F20" cx="640" cy="415" r="1"/>
	<circle fill="#231F20" cx="640" cy="425" r="1"/>
	<circle fill="#231F20" cx="640" cy="405" r="1"/>
	<circle fill="#231F20" cx="640" cy="385" r="1"/>
	<circle fill="#231F20" cx="640" cy="395" r="1"/>
	<polygon fill="#231F20" points="641.7,238.8 659.4,252 660.6,250.5 641.7,236.2 622.7,250.5 623.9,252 	"/>
	<polygon fill="#231F20" points="358.3,238.8 376.1,252 377.3,250.5 358.3,236.2 339.4,250.5 340.6,252 	"/>
	<polygon fill="#231F20" points="641.7,252.5 659.4,265.8 660.6,264.2 641.7,250 622.7,264.2 623.9,265.8 	"/>
	<path fill="#231F20" d="M400,844c-2.7,0-5.1,1-7,2.6l-77.5-77.5c3.4-3.7,5.5-8.7,5.5-14.1c0-11.2-8.9-20.4-20-20.9V354.6
		l-28.4-28.4c5.2-5.5,8.4-13,8.4-21.2c0-17.1-13.9-31-31-31s-31,13.9-31,31s13.9,31,31,31c8.2,0,15.6-3.2,21.2-8.4l27.8,27.8v378.6
		c-11.1,0.5-20,9.7-20,20.9c0,11.6,9.4,21,21,21c5.4,0,10.4-2.1,14.1-5.5l77.5,77.5c-1.6,1.9-2.6,4.4-2.6,7c0,6.1,4.9,11,11,11
		s11-4.9,11-11S406.1,844,400,844z M250,334c-16,0-29-13-29-29s13-29,29-29s29,13,29,29c0,7.6-3,14.6-7.8,19.8l-20.5-20.5l-1.4,1.4
		l20.5,20.5C264.6,331,257.6,334,250,334z M319,755c0,4.9-1.9,9.3-4.9,12.7L301,754.6v-18.5C311,736.6,319,744.9,319,755z M300,774
		c-10.5,0-19-8.5-19-19c0-10.1,8-18.4,18-18.9v19.4l13.7,13.7C309.3,772.1,304.9,774,300,774z M400,864c-5,0-9-4-9-9
		c0-2.1,0.7-4.1,2-5.6l6.3,6.3l1.4-1.4l-6.3-6.3c1.5-1.2,3.5-2,5.6-2c5,0,9,4,9,9S405,864,400,864z"/>
	<rect x="319" y="455" fill="#231F20" width="2" height="100"/>
	<rect x="329" y="455" fill="#231F20" width="2" height="100"/>
	<rect x="339" y="455" fill="#231F20" width="2" height="100"/>
	<circle fill="#231F20" cx="360" cy="345" r="1"/>
	<circle fill="#231F20" cx="360" cy="375" r="1"/>
	<circle fill="#231F20" cx="360" cy="395" r="1"/>
	<circle fill="#231F20" cx="360" cy="405" r="1"/>
	<circle fill="#231F20" cx="360" cy="385" r="1"/>
	<circle fill="#231F20" cx="360" cy="415" r="1"/>
	<circle fill="#231F20" cx="360" cy="425" r="1"/>
	<circle fill="#231F20" cx="360" cy="455" r="1"/>
	<circle fill="#231F20" cx="360" cy="445" r="1"/>
	<circle fill="#231F20" cx="360" cy="435" r="1"/>
	<circle fill="#231F20" cx="360" cy="325" r="1"/>
	<circle fill="#231F20" cx="360" cy="295" r="1"/>
	<circle fill="#231F20" cx="360" cy="305" r="1"/>
	<circle fill="#231F20" cx="360" cy="365" r="1"/>
	<circle fill="#231F20" cx="360" cy="315" r="1"/>
	<circle fill="#231F20" cx="360" cy="285" r="1"/>
	<circle fill="#231F20" cx="360" cy="465" r="1"/>
	<circle fill="#231F20" cx="360" cy="355" r="1"/>
	<circle fill="#231F20" cx="360" cy="335" r="1"/>
	<circle fill="#231F20" cx="360" cy="485" r="1"/>
	<circle fill="#231F20" cx="360" cy="585" r="1"/>
	<path fill="#231F20" d="M360,594c-0.6,0-1,0.4-1,1c0,0.5,0.4,1,1,1c0.5,0,1-0.5,1-1C361,594.4,360.5,594,360,594z"/>
	<circle fill="#231F20" cx="360" cy="605" r="1"/>
	<circle fill="#231F20" cx="360" cy="575" r="1"/>
	<circle fill="#231F20" cx="360" cy="625" r="1"/>
	<circle fill="#231F20" cx="360" cy="475" r="1"/>
	<circle fill="#231F20" cx="360" cy="615" r="1"/>
	<circle fill="#231F20" cx="360" cy="645" r="1"/>
	<circle fill="#231F20" cx="360" cy="565" r="1"/>
	<circle fill="#231F20" cx="360" cy="635" r="1"/>
	<circle fill="#231F20" cx="360" cy="555" r="1"/>
	<circle fill="#231F20" cx="360" cy="515" r="1"/>
	<circle fill="#231F20" cx="360" cy="505" r="1"/>
	<circle fill="#231F20" cx="360" cy="275" r="1"/>
	<circle fill="#231F20" cx="360" cy="495" r="1"/>
	<path fill="#231F20" d="M360,544c-0.6,0-1,0.4-1,1c0,0.5,0.4,1,1,1c0.5,0,1-0.5,1-1C361,544.4,360.5,544,360,544z"/>
	<circle fill="#231F20" cx="360" cy="525" r="1"/>
	<circle fill="#231F20" cx="360" cy="535" r="1"/>
	<polygon fill="#231F20" points="358.3,252.5 376.1,265.8 377.3,264.2 358.3,250 339.4,264.2 340.6,265.8 	"/>
	<rect x="559" y="375" fill="#231F20" width="2" height="340"/>
	<rect x="439" y="375" fill="#231F20" width="2" height="340"/>
	
		<rect x="421.7" y="334" transform="matrix(0.7071 -0.7071 0.7071 0.7071 -105.0788 416.3173)" fill="#231F20" width="56.6" height="2"/>
	
		<rect x="521.7" y="334" transform="matrix(-0.7071 -0.7071 0.7071 -0.7071 702.028 960.7895)" fill="#231F20" width="56.6" height="2"/>
</g>
</svg>
