<?xml version="1.0" encoding="utf-8"?>
<!-- Generator: Adobe Illustrator 17.1.0, SVG Export Plug-In . SVG Version: 6.00 Build 0)  -->
<!DOCTYPE svg PUBLIC "-//W3C//DTD SVG 1.1//EN" "http://www.w3.org/Graphics/SVG/1.1/DTD/svg11.dtd">
<svg version="1.1" id="Layer_1" xmlns="http://www.w3.org/2000/svg" xmlns:xlink="http://www.w3.org/1999/xlink" x="0px" y="0px"
	 viewBox="0 0 1000 1000" enable-background="new 0 0 1000 1000" xml:space="preserve">
<path fill="#F5C7C7" d="M731.9,435.3c-1.8-13.7-0.6-23.2,0.1-28.3c0.3-2.3,0.5-3.5,0.3-4.5c-0.4-2.1-3.2-6.4-8-9.2
	c-3.8-2.2-10.3-4.1-19.5-1c-7.5,2.6-37.5,2.8-69.7,0.5c-35.3-2.5-61.6-7.2-66.9-11.9c-13.8-12.2-29.4-15.9-30-16.1
	c-0.6-0.2-54.9-14.2-106.2,2.4l-43.6-45.1c-0.6-0.6-1.5-0.9-2.4-0.7l-24.8,5.7c-1.2,0.3-2,1.4-1.9,2.6l4.3,57l-44.6-11.5
	c-0.4-0.1-0.9-0.1-1.3,0l-37.2,10.3c-0.8,0.2-1.5,0.9-1.7,1.7l-10.9,37.2c-0.2,0.6-0.1,1.3,0.2,1.8c0.7,1.3,16.7,31.3,64.8,41.2
	c-0.6,13.7-2.2,84.6,27.5,106c4,2.9,7.9,5.9,12.1,9.1c22.6,17.2,47.5,36.1,81.3,36.1c9,0,18.7-1.4,29.1-4.4c2.5-0.4,23-4,33.3-26.8
	c0.4-0.9,0.2-1.9-0.3-2.6c30.2-7.6,53.6-18.1,69.5-31.1c3.5-2.9,10.7-4.6,16.4-6c2-0.5,3.9-0.9,5.6-1.4c8.1-2.4,16.1-4.3,23.8-5.7
	c1.8-0.3,3.7-0.6,5.7-0.8c6.1-0.8,12.3-1.6,17.6-4.9c3-1.9,5.8-4.2,8.6-6.4c1.6-1.3,3.3-2.6,4.9-3.9l9.6,3.2
	c0.3,0.1,0.5,0.1,0.8,0.1c0.4,0,0.9-0.1,1.3-0.3c4.7-2.8,8.7-6.6,11.9-11.3l8.2,3.2c0.3,0.1,0.6,0.2,0.9,0.2c0.2,0,0.4,0,0.7-0.1
	c30.8-8.4,24.8-45.6,23.2-53C727,463.5,734.2,452.3,731.9,435.3z"/>
<g id="Layer_1_1_">
</g>
<g>
	<path fill="#BF001A" d="M731.9,435.3c-1.8-13.7-0.6-23.2,0.1-28.3c0.3-2.3,0.5-3.5,0.3-4.5c-0.4-2.1-3.2-6.4-8-9.2
		c-3.8-2.2-10.3-4.1-19.5-1c-7.5,2.6-37.5,2.8-69.7,0.5c-35.3-2.5-61.6-7.2-66.9-11.9c-13.8-12.2-29.4-15.9-30-16.1
		c-0.6-0.2-54.9-14.2-106.2,2.4l-43.6-45.1c-0.6-0.6-1.5-0.9-2.4-0.7l-24.8,5.7c-1.2,0.3-2,1.4-1.9,2.6l4.3,57l-44.6-11.5
		c-0.4-0.1-0.9-0.1-1.3,0l-37.2,10.3c-0.8,0.2-1.5,0.9-1.7,1.7l-10.9,37.2c-0.2,0.6-0.1,1.3,0.2,1.8c0.7,1.3,16.7,31.3,64.8,41.2
		c-0.6,13.7-2.2,84.6,27.5,106c4,2.9,7.9,5.9,12.1,9.1c22.6,17.2,47.5,36.1,81.3,36.1c9,0,18.7-1.4,29.1-4.4c2.5-0.4,23-4,33.3-26.8
		c0.4-0.9,0.2-1.9-0.3-2.6c30.2-7.6,53.6-18.1,69.5-31.1c3.5-2.9,10.7-4.6,16.4-6c2-0.5,3.9-0.9,5.6-1.4c8.1-2.4,16.1-4.3,23.8-5.7
		c1.8-0.3,3.7-0.6,5.7-0.8c6.1-0.8,12.3-1.6,17.6-4.9c3-1.9,5.8-4.2,8.6-6.4c1.6-1.3,3.3-2.6,4.9-3.9l9.6,3.2
		c0.3,0.1,0.5,0.1,0.8,0.1c0.4,0,0.9-0.1,1.3-0.3c4.7-2.8,8.7-6.6,11.9-11.3l8.2,3.2c0.3,0.1,0.6,0.2,0.9,0.2c0.2,0,0.4,0,0.7-0.1
		c30.8-8.4,24.8-45.6,23.2-53C727,463.5,734.2,452.3,731.9,435.3z M677.9,522.9l-7.7-2.6l8.5-42.7l16.4-2.9
		C696,483.2,696.9,510.8,677.9,522.9z M720.6,488.3c-1.6,14-8.3,22.9-20,26.4l-6.6-2.5c2.8-5.4,4.8-11.6,5.7-18.7
		c1.2-8.6,0.7-16.1,0.3-19.7l19.6-4.6C720.5,472.9,721.5,480.4,720.6,488.3z M720.3,463.9l-23.4,5.5l-20.6,3.6c-1,0.2-1.8,1-2,2
		l-9.1,45.6c-1.8,1.3-3.6,2.8-5.4,4.2c-2.6,2.1-5.4,4.4-8.1,6c-4.4,2.7-10.1,3.5-15.6,4.2c-2,0.3-4,0.5-6,0.9
		c-7.9,1.4-16.1,3.4-24.3,5.8c-1.5,0.4-3.4,0.9-5.3,1.4c-6.6,1.6-14,3.3-18.4,7c-36.7,30.2-107.6,37.6-108.3,37.7
		c-1.4,0.1-2.4,1.4-2.2,2.7c0.1,1.3,1.2,2.2,2.5,2.2c0.1,0,0.2,0,0.3,0c0.2,0,16.3-1.7,37-6.6c-9.7,20.6-28.5,23.2-29.3,23.3
		c-0.1,0-0.3,0-0.4,0.1c-47.1,14.1-78.4-9.8-106.1-30.8c-4.2-3.2-8.2-6.2-12.2-9.2c-30.1-21.7-25.4-103-25.3-103.9
		c0.1-1.3-0.8-2.4-2-2.6c-24.7-4.7-40.6-15-49.6-22.9c-7.9-6.9-12-13.1-13.3-15.3l10.2-34.9l35.3-9.8l53.7,13.8
		c1.3,0.3,2.7-0.5,3-1.8c0.3-1.3-0.5-2.7-1.8-3l-4.6-1.2l-4.2-56.5l21.4-4.9l41,42.4c-3.1,1.1-6.1,2.4-9.2,3.7
		c-1.3,0.6-1.8,2.1-1.2,3.3c0.6,1.3,2.1,1.8,3.3,1.2c53.4-24.2,116.7-7.8,117.4-7.6c0.1,0,15.1,3.6,27.9,15
		c9.1,8.1,51.9,11.9,69.9,13.2c28.6,2,62.5,2.4,71.7-0.8c5.7-2,10.7-1.9,14.8,0.3c4,2.1,5.8,5.4,6.1,6.1c0,0.5-0.2,1.7-0.3,2.8
		c-0.6,4.4-1.6,12-0.8,22.6H701c-1.4,0-2.5,1.1-2.5,2.5s1.1,2.5,2.5,2.5h25.7c0.1,0.7,0.2,1.3,0.3,2
		C729,451.4,722.2,461.5,720.3,463.9z"/>
	<path fill="#BF001A" d="M520.2,429c-5.7-2.1-12.1-3.2-19.1-3.2c-5.4,0-11.2,0.7-17.3,1.9c-15.2,3.2-25.3,10.6-36.9,19.1
		c-1.3,0.9-2.6,1.9-3.9,2.9c-0.9,0.6-1.2,1.7-0.9,2.7c0.1,0.3,2.4,8.1,8,16.4c7.6,11.1,17.7,17.7,29.2,19c0,0,0.1,0,0.1,0
		c0.1,0,2,0.1,5.1,0.1c0,0,0,0,0,0c12.8,0,55-2.6,59.2-36C544.7,443,536.9,435.2,520.2,429z M538.7,451.4
		c-1.5,12.3-9.2,21.2-23,26.5c-11.6,4.4-24.5,5.1-31.2,5.1c0,0,0,0,0,0c-2.6,0-4.3-0.1-4.7-0.1c-10.1-1.2-18.7-6.9-25.6-16.8
		c-3.8-5.5-5.9-10.8-6.9-13.4c0.8-0.6,1.6-1.2,2.4-1.8c11.1-8.2,20.8-15.3,34.9-18.3c13.1-2.8,24.4-2.4,33.7,1.1
		C528.2,437.3,539.7,443.4,538.7,451.4z"/>
	<path fill="#BF001A" d="M510.2,446.3c-0.2-0.1-4.5-2.1-10.9-2.1c-7.3,0-14.3,2.6-20.7,7.6c-0.7,0.6-1.1,1.5-0.9,2.4
		c0.9,5.2,5.3,15.1,15.3,15.1c0,0,0,0,0,0c2.1,0,4.3-0.4,6.6-1.3c6-2.2,10-5.5,11.8-9.8c2.3-5.5,0.1-10.4,0-10.6
		C511.1,447,510.7,446.6,510.2,446.3z M506.7,456.3c-1.3,2.9-4.2,5.3-8.9,7c-1.8,0.7-3.4,1-4.9,1c0,0,0,0,0,0c-6.5,0-9.2-6.5-10-9.5
		c5.1-3.7,10.6-5.6,16.3-5.6c3.7,0,6.5,0.8,7.9,1.3C507.4,451.7,507.7,454,506.7,456.3z"/>
</g>
</svg>
