<?xml version="1.0" encoding="utf-8"?>
<!-- Generator: Adobe Illustrator 17.1.0, SVG Export Plug-In . SVG Version: 6.00 Build 0)  -->
<!DOCTYPE svg PUBLIC "-//W3C//DTD SVG 1.1//EN" "http://www.w3.org/Graphics/SVG/1.1/DTD/svg11.dtd">
<svg version="1.1" id="Layer_2" xmlns="http://www.w3.org/2000/svg" xmlns:xlink="http://www.w3.org/1999/xlink" x="0px" y="0px"
	 viewBox="0 0 1000 1000" enable-background="new 0 0 1000 1000" xml:space="preserve">
<polygon fill="#00AEEF" points="242.2,853.9 241.9,850.9 114.3,866.1 66.9,786.7 64.3,788.3 125.5,890.8 128.1,889.2 116,868.9 "/>
<rect x="60.1" y="806.9" transform="matrix(-0.4968 -0.8679 0.8679 -0.4968 -575.5324 1283.141)" fill="#00AEEF" width="48.2" height="3"/>
<polygon fill="#00AEEF" points="78.2,632.6 78.4,635.6 169.9,631.3 169.8,628.3 163.3,628.6 103.4,548.3 124.4,544 123.8,541 
	98.1,546.4 150.5,616.4 131.8,622.3 132.7,625.2 152.4,619 159.7,628.8 "/>
<rect x="348.8" y="870.5" transform="matrix(-8.692466e-02 -0.9962 0.9962 -8.692466e-02 -517.6497 1329.1731)" fill="#00AEEF" width="3" height="62.7"/>
<rect x="247.5" y="646.8" fill="#00AEEF" width="18.8" height="3"/>
<path fill="#00AEEF" d="M366.2,812.6l-28.9,5.3l28,36.5l8.1-4.2l7.9,12.4l52.9-60.4l-2.3-2l-50.2,57.4l-5.6-8.9l18.3-9.6
	L366.2,812.6z M342.7,819.9l22.6-4.1l24,22.6l-23.1,12.1L342.7,819.9z"/>
<polygon fill="#00AEEF" points="476.2,126.9 473.7,128.5 547.7,244.2 430.1,264.4 458.8,228.9 471.2,249.5 517,234.7 489.7,175.6 
	486.9,176.8 512.9,232.9 472.6,246 460.8,226.5 460.9,226.3 460.4,225.8 427.7,171.8 425.1,173.3 457.1,226.2 422.7,268.7 
	549.4,246.9 574.3,285.9 576.9,284.2 552.6,246.4 564.3,244.4 563.8,241.4 550.9,243.6 "/>
<rect x="458" y="816" transform="matrix(-0.7609 -0.6489 0.6489 -0.7609 253.1755 1806.5327)" fill="#00AEEF" width="3" height="81.3"/>
<path fill="#00AEEF" d="M467.1,777.7l-25.2-41.6l37.9-6l16.7-23.5l-2.4-1.7l-16,22.5l-37.8,6l-11.4-18.7l37.4-7.3l1.7,1.3l1.5-1.9
	l28.7-5.6L450.6,650l-2.2,2l43.9,47.1l-25.3,4.9l-41.2-31.7l25.5-38.5l-19.5-23.6l-2.3,1.9l18.1,21.9l-24.2,36.4l-79.5-61.2
	l48.7-4.7l-7.5,8.2l-17.2,2.9l0.5,3l16.4-2.7l0.8,0.8l1-1.1l37.2-6.2l-12.9-25.3l73.9-48.9l-11.3-12.6l35.1-7.2l-0.6-2.9l-10.7,2.2
	l15.4-21.4l0.9,0.5l1.4-2.6l-0.5-0.3l5.2-7.3l32.9,34.8l2.2-2.1l-10.3-10.9l40.1-57.6l-64.7-114.8l-2.6,1.5l63.8,113.2l-38.7,55.5
	l-20.9-22.1l34-47.1l-55.7-116.3l14.4-1.2l23.8,31.5l2.4-1.8l-22.6-30l68.9-5.8l-0.3-3l-87.9,7.4l-25.2-52.7l-2.7,1.3l21.5,44.9
	l-19.4,11.7l24.1-2l1.5,3.2l-32.4,10.8l-75.2-96.8l-0.5-0.6h-18.4l32.2,39.6l-40.5,39.2h-71l30.9-43.5l-30.8-34.8l49.5-15.1
	l11.7,23.4l2.7-1.3L345,219.3l14.1-4.3l14.3,45.3l2.9-0.9L362,214.1l10.3-3.2l-0.9-2.9l-10.3,3.2l-17.3-54.6l4.7-4.8l-37.2-2.7
	l-0.2,2.5l-3.5-7.1l17-20.7l124,14.9l-16.3,10.7l1.6,2.5l19.3-12.6l1,0.1l0.1-0.8l46.4-30.4l-1.6-2.5l-46.5,30.4l-125.6-15.1
	l27.1-33.1l-35,4.8l0.4,3l27.5-3.7l-23.5,28.7l-33-4l13.8,27.5l-4.6,5.6l-50.8-56.5l-2.2,2l51.1,56.8l-1,1.3l0-1.8l-106,2.3l23-19.3
	H273l-38.7-26.3l-54.6,26.3h29.1L182,157.2l39.5-0.9l-0.1,0.1l35,55.1l-26,4.8l4,11.3l-39,1.8l-55.7-86.3l20,3.6l0.5-3l-26.8-4.9
	l58.5,90.7l-47.4,2.2l5.1,10.8l-54.5,1.1l49.2-53.2l-2.2-2l-54,58.4l30.2-0.6v8.4l-20.5,1.4l70.8,92l0.5,0.7l24.6-2.4l-57,54.3
	l-7.4,0.2L111,374.3l-2.5,1.7l51.9,75.5l-16.4,0.7l-46.6-69.3l-2.5,1.7l26.4,39.2l-28.5-5.9l6.5,9.4l-11.4,10.2l0.6-1.8l-32.9-10.3
	l79.3,129.7h-6l48.9,72.2v1.1h0.8l47.1,69.5l-32.4,5.7l0.5,3l33.7-6l3.6,5.3l2.5-1.7l-2.9-4.2l20.3-3.6l14.2,16.6l2.3-1.9l-17-19.9
	l13.7-1.8l5.1,6.9h16v-2.3l24.9,24.9l2.1-2.1l-8-8l10.2-2l24.5,19.9l-2.1,4.3l-92.3,6.9l64.7,79.8l-6.1,2.7L250.2,754l4.9-0.8
	l-0.5-3l-6.5,1.1l-4.8-6l-2.3,1.9l3.8,4.7l-24,4l-38.4-54.2h0.4v-3h-2.5l-34-48.1l5.8-0.4l-0.2-3l-56.4,4.3l-9.9-10.5l-2.2,2.1
	l8.2,8.7l-3.5,0.3l0.2,3l5.9-0.4l43.1,45.7v1.4h1.4l11.2,11.9l-7.2,8.9l-9.6,1.4l-7.2-8.8h21.7v-3h-28l87.1,106.8l-43.2,5.2
	L87,708.9h11.7l-3.6,3.5l2.1,2.1l27.2-26.7l-2.1-2.1l-20.6,20.2H81.4l67.8,102.3l-20.8,23l79.2-9.6l-0.2-1.7l19.6,24.1l10.2-17.7
	l-2.6-1.5l-8,13.9l-58.1-71.2l28.7-4.8l64.2,87.2l11.4-15.1l25.2,35.6l14.5-28.4l-2.7-1.4l-12.2,24l-75.1-106.2l24.3-4l76.4,95.6
	l5.4-8.8l40.6,50l-133.8,9.3l0.2,3l135.9-9.4l2.3,2.8l2.3-1.9l-0.9-1.2l35.7-2.5l-0.2-3l-37.8,2.6L314,818.6l22-9.6l-3,4.6l33.7-3.8
	l9.2-18.2l0,0l33.7,31.5l2.1-2.2l-16.5-15.5l15.9-4.2l-0.8-2.9l-17.7,4.7L379,790.3l3.2-1.4l-1.2-2.7l-4.4,1.9l-23.7-22.2l2.1-0.4
	l66,32.8l1.3-2.7l-48-23.9l7.6-8.6l128.7,64l1.3-2.7L451,794L467.1,777.7z M485.1,316.1l8.2-4.9l1.9,4.1L485.1,316.1z M234,111.8
	l29.2,19.8h-70.4L234,111.8z M151,810.9l9,13.6l-23.9,2.9L151,810.9z M142.6,650.8l33.9,47.8h-36.6l-41.9-44.4L142.6,650.8z
	 M142.6,701.7h16.8l-7.8,9.6L142.6,701.7z M135.1,726.5l51.3-7.3l-0.4-3l-39.2,5.6l16.4-20.2h15.2l38.8,54.8l-50.9,8.5L135.1,726.5z
	 M271.1,832.4l-9.6,12.6l-60.9-82.8l18.6-3.1L271.1,832.4z M410.2,673.8l-86.6,14.3l-6-6l61.9-8.3l-29.8-17.2l22.4-4.6l27,19.7
	l5.9-11.5l16.8,13l-44.5,67.1l-9.2-3.7l20-27.2l-43.9,13.3l4.6-9.4l-22.6-22.5l84.5-13.9L410.2,673.8z M311.1,679.9l-31.4,4.2
	l-12.3-12.3l-2.1,2.1l10.7,10.7l-4.2,0.6L238.4,641h46.8v-3h-49.1l-12.8-16.9l39.5-3.8l27.8,24.7l-17.7,17.2l35.1-4.6l28.4,21.9
	l-21.5,2.9l-11.2-11.1l-2.1,2.1L311.1,679.9z M292.8,639.9l-25.9-23l4.7-0.5l22.2,22.5L292.8,639.9z M373.4,649.2l-0.1-0.6l-0.5,0.1
	l-39.3-28.6l6.8-9.7l62.2,47.9l-4.5,8.9L373.4,649.2z M331.7,622.6l30.2,22l-50.3,6.5L331.7,622.6z M365.4,647.1l3.3,2.4l-49.3,10.1
	l-7.2-5.6L365.4,647.1z M340.6,676l-18-13.9l22.6-4.6l25.1,14.5L340.6,676z M307.6,651.6l-26.1,3.4l28-27.2l-2.1-2.2L296,636.8
	L275.4,616l61.4-5.9L307.6,651.6z M340.4,606.7l-0.8-0.6l-0.5,0.7l-66.4,6.4l-8.5-8.6l21.6-15.3l25.5-1.5l0.6,0l13.3-13.8
	l-16.4-16.5l25.4-3.5l27.1,21.2l1.9-2.4L336,551.6l-0.1-0.9l-0.9,0.1l-21.7-17l-1.9,2.4l19.4,15.2l-24.8,3.4l-38-38.1l54.9-3.1
	l-25.7,24.3l44.3-11.3l19.5,17l2-2.3L331,513.2l17.3-1l45.8,89.3L340.4,606.7z M175.4,554.9l-20.7-22.4l10.6-1.7l25,24.1H175.4z
	 M194.7,554.9L169,530.3l5.3-0.8l-0.5-3l-26.4,4.2l87.5-90.1l6.7,14.1l-62,68.1l30.3,19.9l-13.2,12.2H194.7z M243.5,458.2l2.7-1.3
	l-0.9-1.8l11.6-12.7l29.6,70.3l-50.6,2.8l-0.5,0l-8.7,7.4l-41.4-1.8l57.9-63.6L243.5,458.2z M257.9,436.9L257.9,436.9l-8.2-19.4
	l164.2-14.9l45.7-58.8l49.6,69.1L488,429.7l-10.6-3.6l-25.3,35l12.4,6.6l-37.3,46.8l-35.5-52.6l45.3-7.6l-0.5-3l-46.7,7.8l-2.9-4.3
	l50-5.5l-0.3-3l-51.6,5.7l-8.9-13.1l124-23.5l-0.6-2.9l-128.5,24.3l15.5,22.9l-47,7.9l22.7,33.5l-7.8,7.8l-4.5,0.3l-44.9-87.6H323
	l38.2,33.3l2-2.3l-39-34h-23.9l12.9,25.1l-27,3.1l20.3,27.6l-21,2.8l38.2,33.5l-33.8,1.9L259.2,440l1-1.1L257.9,436.9z M532.2,444.9
	l-40.8-14l19.6-15.5L532.2,444.9z M374.8,514.3l-8.7-12.8l0.7-0.7l-2.1-2.1l-0.3,0.3l-19.8-29.2l43.7-7.3l32.6,48.3L374.8,514.3z
	 M351.5,512.1l4.3-0.2l8.2-8.2l7.4,10.9l-17.9,1.4L351.5,512.1z M311,473.7l-1.3,0.2l-18.2-24.8l23-2.7l20.4,39.7l-12.8,4.6
	l-10.7-14.6L311,473.7z M320.9,494.3l15.3-5.5l10.5,20.5l-19,1.1l-35.5-31.1l16.1-2.2L320.9,494.3z M326.7,513.4l12.3,10.7
	l-31.1,7.9l18-17l-1.5-1.6L326.7,513.4z M212.6,544.4l9.6,6.3h-15.5l37.6,38.1l-41.5,2.5L188.2,567L212.6,544.4z M213.9,553.7H236
	v-3h-8.3l-40.3-26.5l78.9,3.4l0.1-3l-35.2-1.5l5.4-4.6l29.9-1.7l-1.3,1.3l55.7,56l-10.4,10.8l-62.2,3.7L213.9,553.7z M280.1,589.7
	l-18,12.8l-10.9-11.1L280.1,589.7z M389.9,612.1l10.2-11.1l-2.9,0.3L355,518.8l18.3-1.4l0.3,0.4l45.7,89.4L389.9,612.1z M493,515.7
	l-39.3,8.1l12.7-13.9l-2.2-2l-18.9,20.7l25-5.1l-0.1,0.1l10.1,11.2l-70.7,46.8l-5.6-11l22.7-2.2l-0.3-3l-23.8,2.3l-25.8-50.4
	l46.3-3.5l4,5.9l18.5-23.1l40.7-7.6l-0.6-2.9l-37.3,7l18.9-23.7l42.9,22.8L493,515.7z M517.7,481.4l-5.8,8.1l-55.3-29.4l22-30.5
	l61.3,21.1L519.4,479l-13.7-14.5l-2.2,2.1L517.7,481.4z M499.5,324L552,433.8l-12.1,16.8l-82.7-115.2h11.1l-0.6-0.7L499.5,324z
	 M388.6,237.7l73.5,94.6h-7.1l-0.1-0.1l-0.1,0L378,237.7H388.6z M360.4,316.6l-37.5,36.3l-38.6-27.9l6-8.4H360.4z M281.9,323.2
	l-9.2-6.6h13.9L281.9,323.2z M290.4,232.9l-0.6-0.7l-1.4,1.3l-28.5,8.7l61.6-62.9l19.1,38.2L290.4,232.9z M358.2,212.1l-14.5,4.4
	L323.8,177l17.6-17.9L358.2,212.1z M341.8,154.4l-19.4,19.8l-11-22L341.8,154.4z M295.4,120.4l25.6,3.1l-14.9,18.2L295.4,120.4z
	 M235.4,230.5l10.7,29.8l2.8-1l-10.3-29l24.8-1.2l-0.1-3l-25.7,1.2l-3.2-8.9l51.1-9.4l-0.5-3l-25.4,4.7l-34.7-54.7l70.7-1.6
	l-7.9,9.7l2.3,1.9l9.7-11.8l1.9,2.2l2.2-2l-2.2-2.5l4-4.9l14.7,29.3l-70.6,72l39.9-12.2l30.1,34l-30.8,43.3h-25.3l16.7,12.1
	l-45,63.1h-13.7l-20.9-44.6l13.4-12.8l-2.1-2.2l-12.7,12.1l-44.9-95.7l47.3-1l19.8,30.7l2.5-1.6l-18.8-29.1l5.2-0.1l-0.1-3l-7.1,0.1
	l-5.9-9.2L235.4,230.5z M149.1,234.6l44.6-2.1l5.9,9.1l-46.8,1L149.1,234.6z M103.6,258.8l49.4-3.4l-0.2-3l-31.5,2.2v-8.3l29.6-0.6
	l45.7,97.5l-26.2,2.5L103.6,258.8z M62.3,430.5l24.7,7.7l-9.6,8.6l2,2.2l21.8-19.4l41.8,59.8l44.2-29.3l-1.7-2.5l-41.7,27.7
	l-44.1-63l22.7,4.7l0.3-1.4l19.9,29.7l65-2.8l-0.1-3l-43.4,1.8l-32.6-47.4l81.6-2.4l-0.1-3l-71.6,2.1l57-54.3l21.3,45.5h17.2
	l45.8-64.4l38.1,27.6l-10.6,10.3l2.1,2.2l52.4-50.9h2.1v-2l39.1-37.9l45.7,56.1l-72.9,10.9l12,13.9l-50.5,24.3l-34.3-17.2l-15.8,5.5
	l26.6,26.1l23.5-11.1l0,0l55.3-26.6l-11-12.8l69.2-10.4l4.1,5.8l-45.5,58.5L225,416.7l47-40.5l-2-2.3L216,420.5l30.6-2.8l9.1,21.6
	l-11.7,12.9l-8.1-16.9L139.1,535l12.1-1.9l20.2,21.9h-32.9L62.3,430.5z M336.7,383.6l-19.5,9.2l-21.6-21.2l10-3.5L336.7,383.6z
	 M228.9,697.2l-46.7-68.9h10.7l55.9,65.4L228.9,697.2z M248.1,688.4l-53.9-63.1h-14.1l-45.6-67.3h2.2l8.8,14.4l2.6-1.6l-7.9-12.9
	h53.3l-9.2,8.5l16.9,27.9l45.9-2.7l12.4,12.6l-0.1,0.1l1.7,2.4l0.5-0.4l7.2,7.3l-47.7,4.6l-7.1-9.4l-2.4,1.8l56.6,75l-2.9,0.4
	l-59.8-81.4l-2.4,1.8l58.8,80.1L248.1,688.4z M270.7,693.2l-3.2-4.4l11.2-1.5l5.9,5.9H270.7z M315.2,703.4l-12.9,2.6l0.2,1
	l-20.2-20.2l31.4-4.2l31.4,31.2l-4.9,9.9L315.2,703.4z M291.2,790.5l54.5-22.5l-0.3-0.8l3.2-0.6l-7.6,14.3l-43.8,17.1L291.2,790.5z
	 M326.6,838.9l-3.7,6.1L305,822.6l6.2-2.7L326.6,838.9z M364.8,807l-25.8,2.9l2-3.1l30.6-13.4L364.8,807z M312.1,816.2l-12.8-15.8
	l43.4-17l0.5-0.2l7.9-15l22.5,21.1L312.1,816.2z M381.2,759.3l-9.7,10.9l-16.1-8l-5.3,1l-16.1-15l-2.1,2.2l14.4,13.5l-25.1,4.5
	l12.5-8.7l-1.7-2.5l-23.8,16.6l27.2-4.9L289.2,788l-38.7-47.8l84.8-6.3l-3.6,7.4l2.7,1.3l8-16.4l37.9-11.5l-16.9,23.1l15.1,6
	l45.7-68.9l38.9,29.9l-39.1,7.6l39.3,64.8l-14.9,15.1l0.7,0.7L381.2,759.3z"/>
<polygon fill="#00AEEF" points="537.4,706.6 504.8,751.5 564.4,739.8 563.8,736.9 511.7,747.1 539.8,708.3 "/>
<polygon fill="#00AEEF" points="571.9,502 554.4,493.7 553.1,496.4 569.6,504.2 584.4,541.6 476.2,555.3 573.1,693.7 517.7,706 
	518.3,708.9 578.1,695.7 481.5,557.6 588.6,544.1 "/>
<polygon fill="#00AEEF" points="572,747.6 514.7,757 515.2,759.9 569.5,751 586.7,847 575.5,858 509.3,798.6 507.3,800.9 
	575.6,862.1 589.9,848 "/>
<polygon fill="#00AEEF" points="749.4,853.9 749.7,850.9 877.3,866.1 924.7,786.7 927.3,788.3 866.1,890.8 863.5,889.2 875.6,868.9 
	"/>
<rect x="883.3" y="806.9" transform="matrix(0.4968 -0.8679 0.8679 0.4968 -245.016 1194.2504)" fill="#00AEEF" width="48.2" height="3"/>
<polygon fill="#00AEEF" points="913.4,632.6 913.2,635.6 821.6,631.3 821.8,628.3 828.3,628.6 888.2,548.3 867.2,544 867.8,541 
	893.5,546.4 841.1,616.4 859.8,622.3 858.9,625.2 839.2,619 831.9,628.8 "/>
<rect x="639.8" y="870.5" transform="matrix(8.692458e-02 -0.9962 0.9962 8.692458e-02 -312.8525 1462.2831)" fill="#00AEEF" width="3" height="62.7"/>
<rect x="725.3" y="646.8" fill="#00AEEF" width="18.8" height="3"/>
<path fill="#00AEEF" d="M597.2,839.1l18.3,9.6l-5.6,8.9l-50.2-57.4l-2.3,2l52.9,60.4l7.9-12.4l8.1,4.2l28-36.5l-28.9-5.3
	L597.2,839.1z M625.4,850.5l-23.1-12.1l24-22.6l22.6,4.1L625.4,850.5z"/>
<polygon fill="#00AEEF" points="515.4,126.9 517.9,128.5 443.9,244.2 561.5,264.4 532.8,228.9 520.4,249.5 474.6,234.7 501.9,175.6 
	504.7,176.8 478.7,232.9 519,246 530.8,226.5 530.7,226.3 531.2,225.8 563.9,171.8 566.5,173.3 534.5,226.2 568.8,268.7 
	442.2,246.9 417.3,285.9 414.7,284.2 438.9,246.4 427.3,244.4 427.8,241.4 440.7,243.6 "/>
<rect x="530.6" y="816" transform="matrix(0.7609 -0.6489 0.6489 0.7609 -428.618 550.1539)" fill="#00AEEF" width="3" height="81.3"/>
<path fill="#00AEEF" d="M540.6,794l-61,30.3l1.3,2.7l128.7-64l7.6,8.6l-48,23.9l1.3,2.7l66-32.8l2.1,0.4L615,788l-4.4-1.9l-1.2,2.7
	l3.2,1.4L599,803l-17.7-4.7l-0.8,2.9l15.9,4.2l-16.5,15.5l2.1,2.2l33.7-31.5l0,0l9.2,18.2l33.7,3.8l-3-4.6l22,9.6l-58.7,72.5
	l-37.8-2.6l-0.2,3l35.7,2.5l-0.9,1.2l2.3,1.9l2.3-2.8l135.9,9.4l0.2-3l-133.8-9.3l40.6-50l5.4,8.8l76.4-95.6l24.3,4L694,864.8
	l-12.2-24l-2.7,1.4l14.5,28.4l25.2-35.6l11.4,15.1l64.2-87.2l28.7,4.8l-58.1,71.2l-8-13.9l-2.6,1.5l10.2,17.7l19.6-24.1l-0.2,1.7
	l79.2,9.6l-20.8-23l67.8-102.3h-20.3l-20.6-20.2l-2.1,2.1l27.2,26.7l2.1-2.1l-3.6-3.5h11.7l-76.3,115.1l-43.2-5.2L872.2,712h-28v3
	h21.7l-7.2,8.8l-9.6-1.4l-7.2-8.9l11.2-11.9h1.4v-1.4l43.1-45.7l5.9,0.4l0.2-3l-3.5-0.3l8.2-8.7l-2.2-2.1l-9.9,10.5l-56.4-4.3
	l-0.2,3l5.8,0.4l-34,48.1H809v3h0.4L771,755.9l-24-4l3.8-4.7l-2.3-1.9l-4.8,6l-6.5-1.1l-0.5,3l4.9,0.8l-52.9,66.2l-6.1-2.7
	l64.7-79.8l-92.3-6.9l-2.1-4.3l24.5-19.9l10.2,2l-8,8l2.1,2.1l24.9-24.9v2.3h16l5.1-6.9l13.7,1.8l-17,19.9l2.3,1.9l14.2-16.6
	l20.3,3.6l-2.9,4.2l2.5,1.7l3.6-5.3l33.7,6l0.5-3l-32.4-5.7l47.1-69.5h0.8v-1.1l48.9-72.2h-6l79.3-129.7l-32.9,10.3l0.6,1.8
	l-11.4-10.2l6.5-9.4l-28.5,5.9l26.4-39.2l-2.5-1.7l-46.6,69.3l-16.4-0.7L883,376l-2.5-1.7l-18.3,26.7l-7.4-0.2l-57-54.3l24.6,2.4
	l0.5-0.7l70.8-92l-20.5-1.4v-8.4l30.2,0.6l-54-58.4l-2.2,2l49.2,53.2l-54.5-1.1l5.1-10.8l-47.4-2.2l58.5-90.7l-26.8,4.9l0.5,3
	l20-3.6l-55.7,86.3l-39-1.8l4-11.3l-26-4.8l35-55.1l-0.1-0.1l39.5,0.9l-26.8-22.5h29.1l-54.6-26.3l-38.7,26.3h59.5l23,19.3l-106-2.3
	l0,1.8l-1-1.3l51.1-56.8l-2.2-2l-50.8,56.5l-4.6-5.6l13.8-27.5l-33,4l-23.5-28.7l27.5,3.7l0.4-3l-35-4.8l27.1,33.1l-125.6,15.1
	l-46.5-30.4l-1.6,2.5l46.4,30.4l0.1,0.8l1-0.1l19.3,12.6l1.6-2.5L543,138.8l124-14.9l17,20.7l-3.5,7.1l-0.2-2.5l-37.2,2.7l4.7,4.8
	l-17.3,54.6l-10.3-3.2l-0.9,2.9l10.3,3.2l-14.3,45.3l2.9,0.9l14.3-45.3l14.1,4.3l-11.5,22.9l2.7,1.3l11.7-23.4l49.5,15.1l-30.8,34.8
	l30.9,43.5h-71l-40.5-39.2l32.2-39.6h-18.4l-0.5,0.6l-75.2,96.8l-32.4-10.8l1.5-3.2l24.1,2l-19.4-11.7l21.5-44.9l-2.7-1.3
	l-25.2,52.7l-87.9-7.4l-0.3,3l68.9,5.8l-22.6,30l2.4,1.8l23.8-31.5l14.4,1.2l-55.7,116.3l34,47.1l-20.9,22.1l-38.7-55.5l63.8-113.2
	l-2.6-1.5L406.9,448l40.1,57.6l-10.3,10.9l2.2,2.1l32.9-34.8l5.2,7.3l-0.5,0.3l1.4,2.6l0.9-0.5l15.4,21.4l-10.7-2.2l-0.6,2.9
	l35.1,7.2l-11.3,12.6l73.9,48.9l-12.9,25.3l37.2,6.2l1,1.1l0.8-0.8l16.4,2.7l0.5-3l-17.2-2.9l-7.5-8.2l48.7,4.7l-79.5,61.2
	L544,634.2l18.1-21.9l-2.3-1.9L540.3,634l25.5,38.5l-41.2,31.7l-25.3-4.9l43.9-47.1l-2.2-2l-47.6,51.1l28.7,5.6l1.5,1.9l1.7-1.3
	l37.4,7.3l-11.4,18.7l-37.8-6l-16-22.5l-2.4,1.7l16.7,23.5l37.9,6l-25.2,41.6L540.6,794z M496.3,315.2l1.9-4.1l8.2,4.9L496.3,315.2z
	 M798.8,131.6h-70.4l29.2-19.8L798.8,131.6z M855.5,827.4l-23.9-2.9l9-13.6L855.5,827.4z M893.7,654.2l-41.9,44.4h-36.6l33.9-47.8
	L893.7,654.2z M840,711.2l-7.8-9.6H849L840,711.2z M825.2,764.9l-50.9-8.5l38.8-54.8h15.2l16.4,20.2l-39.2-5.6l-0.4,3l51.3,7.3
	L825.2,764.9z M772.4,759.2l18.6,3.1L730.1,845l-9.6-12.6L772.4,759.2z M580.9,676.8l84.5,13.9l-22.6,22.5l4.6,9.4l-43.9-13.3
	l20,27.2l-9.2,3.7l-44.5-67.1l16.8-13l5.9,11.5l27-19.7l22.4,4.6l-29.8,17.2l61.9,8.3l-6,6l-86.6-14.3L580.9,676.8z M690,670.5
	l-2.1-2.1l-11.2,11.1l-21.5-2.9l28.4-21.9l35.1,4.6L701,642l27.8-24.7l39.5,3.8L755.5,638h-49.1v3h46.8l-33.4,44.2l-4.2-0.6
	l10.7-10.7l-2.1-2.1l-12.3,12.3l-31.4-4.2L690,670.5z M697.8,638.9l22.2-22.5l4.7,0.5l-25.9,23L697.8,638.9z M593.6,667.2l-4.5-8.9
	l62.2-47.9l6.8,9.7l-39.3,28.6l-0.5-0.1l-0.1,0.6L593.6,667.2z M679.9,651.1l-50.3-6.5l30.2-22L679.9,651.1z M679.4,654.1l-7.2,5.6
	l-49.3-10.1l3.3-2.4L679.4,654.1z M621.3,672l25.1-14.5l22.6,4.6L651,676L621.3,672z M654.7,610.1l61.4,5.9l-20.5,20.8l-11.5-11.1
	l-2.1,2.2l28,27.2l-26.1-3.4L654.7,610.1z M597.5,601.6l45.8-89.3l17.3,1l-32.1,28.2l2,2.3l19.5-17l44.3,11.3l-25.7-24.3l54.9,3.1
	l-38,38.1l-24.8-3.4l19.4-15.2l-1.9-2.4l-21.7,17l-0.9-0.1l-0.1,0.9l-27.1,21.2l1.9,2.4l27.1-21.2l25.4,3.5L666.4,574l13.3,13.8
	l0.6,0l25.5,1.5l21.6,15.3l-8.5,8.6l-66.4-6.4l-0.5-0.7l-0.8,0.6L597.5,601.6z M801.2,554.9l25-24.1l10.6,1.7l-20.7,22.4H801.2z
	 M794.8,554.9l-13.2-12.2l30.3-19.9l-62-68.1l6.7-14.1l87.5,90.1l-26.4-4.2l-0.5,3l5.3,0.8l-25.6,24.7H794.8z M748.4,457.5
	l57.9,63.6l-41.4,1.8l-8.7-7.4l-0.5,0l-50.6-2.8l29.6-70.3l11.6,12.7l-0.9,1.8l2.7,1.3L748.4,457.5z M731.5,438.9l1,1.1l-30.6,72.5
	l-33.8-1.9l38.2-33.5l-21-2.8l20.3-27.6l-27-3.1l12.9-25.1h-23.9l-39,34l2,2.3l38.2-33.3h17.9l-44.9,87.6l-4.5-0.3l-7.8-7.8
	l22.7-33.5l-47-7.9l15.5-22.9l-128.5-24.3l-0.6,2.9l124,23.5l-8.9,13.1l-51.6-5.7l-0.3,3l50,5.5l-2.9,4.3l-46.7-7.8l-0.5,3l45.3,7.6
	l-35.5,52.6l-37.3-46.8l12.4-6.6l-25.3-35l-10.6,3.6l-21.2-16.8l49.6-69.1l45.7,58.8l164.2,14.9l-8.2,19.4l0-0.1L731.5,438.9z
	 M480.6,415.4l19.6,15.5l-40.8,14L480.6,415.4z M570.6,510.8l32.6-48.3l43.7,7.3L627.2,499l-0.3-0.3l-2.1,2.1l0.7,0.7l-8.7,12.8
	L570.6,510.8z M638.1,515.9l-17.9-1.4l7.4-10.9l8.2,8.2l4.3,0.2L638.1,515.9z M680.3,476.1l-10.7,14.6l-12.8-4.6l20.4-39.7l23,2.7
	l-18.2,24.8l-1.3-0.2L680.3,476.1z M683.3,477.1l16.1,2.2l-35.5,31.1l-19-1.1l10.5-20.5l15.3,5.5L683.3,477.1z M667.3,513.6
	l-1.5,1.6l18,17l-31.1-7.9l12.3-10.7L667.3,513.6z M803.4,567l-14.7,24.3l-41.5-2.5l37.6-38.1h-15.5l9.6-6.3L803.4,567z
	 M743.3,588.6l-62.2-3.7L670.6,574l55.7-56l-1.3-1.3l29.9,1.7l5.4,4.6l-35.2,1.5l0.1,3l78.9-3.4l-40.3,26.5h-8.3v3h22.1L743.3,588.6
	z M740.5,591.4l-10.9,11.1l-18-12.8L740.5,591.4z M572.3,607.1l45.7-89.4l0.3-0.4l18.3,1.4l-42.3,82.4l-2.9-0.3l10.2,11.1
	L572.3,607.1z M481.5,492l42.9-22.8l18.9,23.7l-37.3-7l-0.6,2.9l40.7,7.6l18.5,23.1l4-5.9l46.3,3.5l-25.8,50.4l-23.8-2.3l-0.3,3
	l22.7,2.2l-5.6,11l-70.7-46.8l10.1-11.2l-0.1-0.1l25,5.1l-18.9-20.7l-2.2,2l12.7,13.9l-39.3-8.1L481.5,492z M488,466.5l-2.2-2.1
	L472.1,479l-20.4-28.3l61.3-21.1l22,30.5l-55.3,29.4l-5.8-8.1L488,466.5z M523.9,334.6l-0.6,0.7h11.1l-82.7,115.2l-12.1-16.8
	L492.1,324L523.9,334.6z M613.6,237.7l-76.9,94.5l-0.1,0l-0.1,0.1h-7.1l73.5-94.6H613.6z M701.3,316.6l6,8.4l-38.6,27.9l-37.5-36.3
	H701.3z M705,316.6h13.9l-9.2,6.6L705,316.6z M650.9,217.5l19.1-38.2l61.6,62.9l-28.5-8.7l-1.4-1.3l-0.6,0.7L650.9,217.5z
	 M650.2,159.1l17.6,17.9l-19.8,39.6l-14.5-4.4L650.2,159.1z M680.2,152.2l-11,22l-19.4-19.8L680.2,152.2z M685.5,141.7l-14.9-18.2
	l25.6-3.1L685.5,141.7z M794.3,232.3l-5.9,9.2l-7.1-0.1l-0.1,3l5.2,0.1l-18.8,29.1l2.5,1.6l19.8-30.7l47.3,1l-44.9,95.7l-12.7-12.1
	l-2.1,2.2l13.4,12.8l-20.9,44.6h-13.7l-45-63.1l16.7-12.1h-25.3L672,270.3l30.1-34l39.9,12.2l-70.6-72l14.7-29.3l4,4.9l-2.2,2.5
	l2.2,2l1.9-2.2l9.7,11.8l2.3-1.9l-7.9-9.7l70.7,1.6l-34.7,54.7l-25.4-4.7l-0.5,3l51.1,9.4l-3.2,8.9l-25.7-1.2l-0.1,3l24.8,1.2
	l-10.3,29l2.8,1l10.7-29.8L794.3,232.3z M838.7,242.6l-46.8-1l5.9-9.1l44.6,2.1L838.7,242.6z M821,345.6l-26.2-2.5l45.7-97.5
	l29.6,0.6v8.3l-31.5-2.2l-0.2,3l49.4,3.4L821,345.6z M853.2,554.9h-32.9l20.2-21.9l12.1,1.9l-96.8-99.7l-8.1,16.9l-11.7-12.9
	l9.1-21.6l30.6,2.8L721.5,374l-2,2.3l47,40.5l-187.2-16.9l-45.5-58.5l4.1-5.8l69.2,10.4l-11,12.8l55.3,26.6l0,0l23.5,11.1l26.6-26.1
	l-15.8-5.5l-34.3,17.2l-50.5-24.3l12-13.9l-72.9-10.9l45.7-56.1l39.1,37.9v2h2.1l52.4,50.9l2.1-2.2L670.9,355l38.1-27.6l45.8,64.4
	H772l21.3-45.5l57,54.3l-71.6-2.1l-0.1,3l81.6,2.4l-32.6,47.4l-43.4-1.8l-0.1,3l65,2.8l19.9-29.7l0.3,1.4l22.7-4.7l-44.1,63
	l-41.7-27.7l-1.7,2.5l44.2,29.3l41.8-59.8l21.8,19.4l2-2.2l-9.6-8.6l24.7-7.7L853.2,554.9z M686,368l10,3.5l-21.6,21.2l-19.5-9.2
	L686,368z M742.9,693.7l55.9-65.4h10.7l-46.7,68.9L742.9,693.7z M729.5,686.5l58.8-80.1l-2.4-1.8l-59.8,81.4l-2.9-0.4l56.6-75
	l-2.4-1.8l-7.1,9.4l-47.7-4.6l7.2-7.3l0.5,0.4l1.7-2.4l-0.1-0.1l12.4-12.6l45.9,2.7l16.9-27.9l-9.2-8.5h53.3l-7.9,12.9l2.6,1.6
	l8.8-14.4h2.2l-45.6,67.3h-14.1l-53.9,63.1L729.5,686.5z M707.1,693.2l5.9-5.9l11.2,1.5l-3.2,4.4H707.1z M651.3,723.7l-4.9-9.9
	l31.4-31.2l31.4,4.2L689.1,707l0.2-1l-12.9-2.6L651.3,723.7z M694.3,797.9l-43.8-17.1l-7.6-14.3l3.2,0.6l-0.3,0.8l54.5,22.5
	L694.3,797.9z M680.4,819.9l6.2,2.7l-17.9,22.3l-3.7-6.1L680.4,819.9z M619.9,793.5l30.6,13.4l2,3.1l-25.8-2.9L619.9,793.5z
	 M618,789.3l22.5-21.1l7.9,15l0.5,0.2l43.4,17l-12.8,15.8L618,789.3z M542.5,793.1l0.7-0.7l-14.9-15.1l39.3-64.8l-39.1-7.6
	l38.9-29.9l45.7,68.9l15.1-6l-16.9-23.1l37.9,11.5l8,16.4l2.7-1.3l-3.6-7.4l84.8,6.3L702.4,788l-46.3-19.1l27.2,4.9l-23.8-16.6
	l-1.7,2.5l12.5,8.7l-25.1-4.5l14.4-13.5l-2.1-2.2l-16.1,15l-5.3-1l-16.1,8l-9.7-10.9L542.5,793.1z"/>
<polygon fill="#00AEEF" points="454.2,706.6 486.8,751.5 427.2,739.8 427.8,736.9 479.9,747.1 451.8,708.3 "/>
<polygon fill="#00AEEF" points="419.7,502 437.2,493.7 438.5,496.4 422,504.2 407.2,541.6 515.4,555.3 418.5,693.7 473.9,706 
	473.3,708.9 413.5,695.7 510.1,557.6 403,544.1 "/>
<polygon fill="#00AEEF" points="419.6,747.6 476.9,757 476.4,759.9 422.1,751 404.9,847 416,858 482.3,798.6 484.3,800.9 
	415.9,862.1 401.6,848 "/>
</svg>
