<?xml version="1.0" encoding="utf-8"?>
<!-- Generator: Adobe Illustrator 17.1.0, SVG Export Plug-In . SVG Version: 6.00 Build 0)  -->
<!DOCTYPE svg PUBLIC "-//W3C//DTD SVG 1.1//EN" "http://www.w3.org/Graphics/SVG/1.1/DTD/svg11.dtd">
<svg version="1.1" id="Layer_2" xmlns="http://www.w3.org/2000/svg" xmlns:xlink="http://www.w3.org/1999/xlink" x="0px" y="0px"
	 viewBox="0 0 1000 1000" enable-background="new 0 0 1000 1000" xml:space="preserve">
<polygon fill="#00AEEF" points="242.2,853.9 241.9,850.9 114.3,866.1 66.9,786.7 64.3,788.3 125.5,890.8 128.1,889.2 116,868.9 "/>
<rect x="60.1" y="807" transform="matrix(0.4968 0.8679 -0.8679 0.4968 744.0276 333.7085)" fill="#00AEEF" width="48.2" height="3"/>
<polygon fill="#00AEEF" points="78.2,632.6 78.4,635.6 169.9,631.3 169.8,628.3 163.3,628.6 103.4,548.3 124.4,544 123.8,541 
	98.1,546.4 150.5,616.4 131.8,622.3 132.7,625.2 152.4,619 159.7,628.8 "/>
<rect x="348.8" y="870.5" transform="matrix(8.692589e-02 0.9962 -0.9962 8.692589e-02 1218.269 474.423)" fill="#00AEEF" width="3" height="62.7"/>
<rect x="247.5" y="646.8" fill="#00AEEF" width="18.8" height="3"/>
<path fill="#00AEEF" d="M366.2,812.6l-28.9,5.3l28,36.5l8.1-4.2l7.9,12.4l52.9-60.4l-2.3-2l-50.2,57.4l-5.6-8.9l18.3-9.6
	L366.2,812.6z M342.7,819.9l22.6-4.1l24,22.6l-23.1,12.1L342.7,819.9z"/>
<polygon fill="#00AEEF" points="476.2,126.9 473.7,128.5 547.7,244.2 430.1,264.4 458.8,228.9 471.2,249.5 517,234.7 489.7,175.6 
	486.9,176.8 512.9,232.9 472.6,246 460.8,226.5 460.9,226.3 460.4,225.8 427.7,171.8 425.1,173.3 457.1,226.2 422.7,268.7 
	549.4,246.9 574.3,285.9 576.9,284.2 552.6,246.4 564.3,244.4 563.8,241.4 550.9,243.6 "/>
<rect x="457.9" y="815.9" transform="matrix(0.7609 0.6489 -0.6489 0.7609 665.6513 -93.3017)" fill="#00AEEF" width="3" height="81.3"/>
<polygon fill="#00AEEF" points="234,111.8 263.2,131.6 192.8,131.6 "/>
<polygon fill="#00AEEF" points="151,810.9 160,824.5 136.1,827.4 "/>
<polygon fill="#00AEEF" points="142.6,650.8 176.5,698.6 139.9,698.6 98,654.2 "/>
<polygon fill="#00AEEF" points="142.6,701.7 159.4,701.7 151.6,711.3 "/>
<polygon fill="#00AEEF" points="135.1,726.5 186.4,719.2 186,716.2 146.8,721.8 163.2,701.6 178.4,701.6 217.2,756.4 166.3,764.9 
	"/>
<polygon fill="#00AEEF" points="271.1,832.4 261.5,845 200.6,762.2 219.2,759.1 "/>
<polygon fill="#00AEEF" points="410.2,673.8 323.6,688.1 317.6,682.1 379.5,673.8 349.7,656.6 372.1,652 399.1,671.7 405,660.2 
	421.8,673.2 377.3,740.3 368.1,736.6 388.1,709.4 344.2,722.7 348.8,713.3 326.2,690.8 410.7,676.9 "/>
<polygon fill="#00AEEF" points="311.1,679.9 279.7,684.1 267.4,671.8 265.3,673.9 276,684.6 271.8,685.2 238.4,641 285.2,641 
	285.2,638 236.1,638 223.3,621.1 262.8,617.3 290.6,642 272.9,659.2 308,654.6 336.4,676.5 314.9,679.4 303.7,668.3 301.6,670.4 "/>
<polygon fill="#00AEEF" points="292.8,639.9 266.9,616.9 271.6,616.4 293.8,638.9 "/>
<polygon fill="#00AEEF" points="373.4,649.2 373.3,648.6 372.8,648.7 333.5,620.1 340.3,610.4 402.5,658.3 398,667.2 "/>
<polygon fill="#00AEEF" points="331.7,622.6 361.9,644.6 311.6,651.1 "/>
<polygon fill="#00AEEF" points="365.4,647.1 368.7,649.5 319.4,659.6 312.2,654 "/>
<polygon fill="#00AEEF" points="340.6,676 322.6,662.1 345.2,657.5 370.3,672 "/>
<polygon fill="#00AEEF" points="307.6,651.6 281.5,655 309.5,627.8 307.4,625.6 296,636.8 275.4,616 336.8,610.1 "/>
<polygon fill="#00AEEF" points="340.4,606.7 339.6,606.1 339.1,606.8 272.7,613.2 264.2,604.6 285.8,589.3 311.3,587.8 311.9,587.8 
	325.2,574 308.8,557.5 334.2,554 361.3,575.2 363.2,572.8 336,551.6 335.9,550.7 335,550.8 313.3,533.8 311.4,536.2 330.8,551.4 
	306,554.8 268,516.7 322.9,513.6 297.2,537.9 341.5,526.6 361,543.6 363,541.3 331,513.2 348.3,512.2 394.1,601.5 "/>
<polygon fill="#00AEEF" points="175.4,554.9 154.7,532.5 165.3,530.8 190.3,554.9 175.4,554.9 "/>
<polygon fill="#00AEEF" points="194.7,554.9 169,530.3 174.3,529.5 173.8,526.5 147.4,530.7 234.9,440.6 241.6,454.7 179.6,522.8 
	209.9,542.7 196.7,554.9 "/>
<polygon fill="#00AEEF" points="243.5,458.2 246.2,456.9 245.3,455.1 256.9,442.4 286.5,512.7 235.9,515.5 235.4,515.5 226.7,522.9 
	185.3,521.1 243.2,457.5 "/>
<polygon fill="#00AEEF" points="532.2,444.9 491.4,430.9 511,415.4 "/>
<polygon fill="#00AEEF" points="374.8,514.3 366.1,501.5 366.8,500.8 364.7,498.7 364.4,499 344.6,469.8 388.3,462.5 420.9,510.8 
	"/>
<polygon fill="#00AEEF" points="351.5,512.1 355.8,511.9 364,503.7 371.4,514.6 353.5,516 "/>
<polygon fill="#00AEEF" points="311,473.7 309.7,473.9 291.5,449.1 314.5,446.4 334.9,486.1 322.1,490.7 311.4,476.1 "/>
<polygon fill="#00AEEF" points="320.9,494.3 336.2,488.8 346.7,509.3 327.7,510.4 292.2,479.3 308.3,477.1 "/>
<polygon fill="#00AEEF" points="326.7,513.4 339,524.1 307.9,532 325.9,515 324.4,513.4 "/>
<polygon fill="#00AEEF" points="212.6,544.4 222.2,550.7 206.7,550.7 244.3,588.8 202.8,591.3 188.2,567 "/>
<polygon fill="#00AEEF" points="213.9,553.7 236,553.7 236,550.7 227.7,550.7 187.4,524.2 266.3,527.6 266.4,524.6 231.2,523.1 
	236.6,518.5 266.5,516.8 265.2,518.1 320.9,574.1 310.5,584.9 248.3,588.6 "/>
<polygon fill="#00AEEF" points="280.1,589.7 262.1,602.5 251.2,591.4 "/>
<polygon fill="#00AEEF" points="389.9,612.1 400.1,601 397.2,601.3 355,518.8 373.3,517.4 373.6,517.8 419.3,607.2 "/>
<polygon fill="#00AEEF" points="493,515.7 453.7,523.8 466.4,509.9 464.2,507.9 445.3,528.6 470.3,523.5 470.2,523.6 480.3,534.8 
	409.6,581.6 404,570.6 426.7,568.4 426.4,565.4 402.6,567.7 376.8,517.3 423.1,513.8 427.1,519.7 445.6,496.6 486.3,489 
	485.7,486.1 448.4,493.1 467.3,469.4 510.2,492.2 "/>
<polygon fill="#00AEEF" points="499.5,324 552,433.8 539.9,450.6 457.2,335.4 468.3,335.4 467.7,334.7 "/>
<polygon fill="#00AEEF" points="360.4,316.6 322.9,352.9 284.3,325 290.3,316.6 "/>
<polygon fill="#00AEEF" points="281.9,323.2 272.7,316.6 286.6,316.6 "/>
<polygon fill="#00AEEF" points="290.4,232.9 289.8,232.2 288.4,233.5 259.9,242.2 321.5,179.3 340.6,217.5 "/>
<polygon fill="#00AEEF" points="358.2,212.1 343.7,216.5 323.8,177 341.4,159.1 "/>
<polygon fill="#00AEEF" points="341.8,154.4 322.4,174.2 311.4,152.2 "/>
<polygon fill="#00AEEF" points="295.4,120.4 321,123.5 306.1,141.7 "/>
<polygon fill="#00AEEF" points="235.4,230.5 246.1,260.3 248.9,259.3 238.6,230.3 263.4,229.1 263.3,226.1 237.6,227.3 234.4,218.4 
	285.5,209 285,206 259.6,210.7 224.9,156 295.6,154.4 287.7,164.1 290,166 299.7,154.2 301.6,156.4 303.8,154.4 301.6,151.9 
	305.6,147 320.3,176.3 249.7,248.3 289.6,236.1 319.7,270.1 288.9,313.4 263.6,313.4 280.3,325.5 235.3,388.6 221.6,388.6 
	200.7,344 214.1,331.2 212,329 199.3,341.1 154.4,245.4 201.7,244.4 221.5,275.1 224,273.5 205.2,244.4 210.4,244.3 210.3,241.3 
	203.2,241.4 197.3,232.2 "/>
<polygon fill="#00AEEF" points="149.1,234.6 193.7,232.5 199.6,241.6 152.8,242.6 "/>
<polygon fill="#00AEEF" points="103.6,258.8 153,255.4 152.8,252.4 121.3,254.6 121.3,246.3 150.9,245.7 196.6,343.2 170.4,345.7 
	"/>
<polygon fill="#00AEEF" points="62.3,430.5 87,438.2 77.4,446.8 79.4,449 101.2,429.6 143,489.4 187.2,460.1 185.5,457.6 
	143.8,485.3 99.7,422.3 122.4,427 122.7,425.6 142.6,455.3 207.6,452.5 207.5,449.5 164.1,451.3 131.5,403.9 213.1,401.5 213,398.5 
	141.4,400.6 198.4,346.3 219.7,391.8 236.9,391.8 282.7,327.4 320.8,355 310.2,365.3 312.3,367.5 364.7,316.6 366.8,316.6 
	366.8,314.6 405.9,276.7 451.6,332.8 378.7,343.7 390.7,357.6 340.2,381.9 305.9,364.7 290.1,370.2 316.7,396.3 340.2,385.2 
	340.2,385.2 395.5,358.6 384.5,345.8 453.7,335.4 457.8,341.2 412.3,399.7 225,416.7 272,376.2 270,373.9 216,420.5 246.6,417.7 
	255.7,439.3 244,452.2 235.9,435.3 139.1,535 151.2,533.1 171.4,555 138.5,555 "/>
<polygon fill="#00AEEF" points="336.7,383.6 317.2,392.8 295.6,371.6 305.6,368.1 "/>
<polygon fill="#00AEEF" points="228.9,697.2 182.2,628.3 192.9,628.3 248.8,693.7 "/>
<polygon fill="#00AEEF" points="248.1,688.4 194.2,625.3 180.1,625.3 134.5,558 136.7,558 145.5,572.4 148.1,570.8 140.2,557.9 
	193.5,557.9 184.3,566.4 201.2,594.3 247.1,591.6 259.5,604.2 259.4,604.3 261.1,606.7 261.6,606.3 268.8,613.6 221.1,618.2 
	214,608.8 211.6,610.6 268.2,685.6 265.3,686 205.5,604.6 203.1,606.4 261.9,686.5 "/>
<polygon fill="#00AEEF" points="270.7,693.2 267.5,688.8 278.7,687.3 284.6,693.2 "/>
<polygon fill="#00AEEF" points="315.2,703.4 302.3,706 302.5,707 282.3,686.8 313.7,682.6 345.1,713.8 340.2,723.7 "/>
<polygon fill="#00AEEF" points="291.2,790.5 345.7,768 345.4,767.2 348.6,766.6 341,780.9 297.2,798 "/>
<polygon fill="#00AEEF" points="326.6,838.9 322.9,845 305,822.6 311.2,819.9 "/>
<polygon fill="#00AEEF" points="364.8,807 339,809.9 341,806.8 371.6,793.4 "/>
<polygon fill="#00AEEF" points="312.1,816.2 299.3,800.4 342.7,783.4 343.2,783.2 351.1,768.2 373.6,789.3 "/>
<polygon fill="#00AEEF" points="381.2,759.3 371.5,770.2 355.4,762.2 350.1,763.2 334,748.2 331.9,750.4 346.3,763.9 321.2,768.4 
	333.7,759.7 332,757.2 308.2,773.8 335.4,768.9 289.2,788 250.5,740.2 335.3,733.9 331.7,741.3 334.4,742.6 342.4,726.2 
	380.3,714.7 363.4,737.8 378.5,743.8 424.2,674.9 463.1,704.8 424,712.4 463.3,777.2 448.4,792.3 449.1,793 "/>
<polygon fill="#00AEEF" points="537.4,706.6 504.8,751.5 564.4,739.8 563.8,736.9 511.7,747.1 539.8,708.3 "/>
<polygon fill="#00AEEF" points="571.9,502 554.4,493.7 553.1,496.4 569.6,504.2 584.4,541.6 476.2,555.3 573.1,693.7 517.7,706 
	518.3,708.9 578.1,695.7 481.5,557.6 588.6,544.1 "/>
<polygon fill="#00AEEF" points="572,747.6 514.7,757 515.2,759.9 569.5,751 586.7,847 575.5,858 509.3,798.6 507.3,800.9 
	575.6,862.1 589.9,848 "/>
<polygon fill="#00AEEF" points="749.4,853.9 749.7,850.9 877.3,866.1 924.7,786.7 927.3,788.3 866.1,890.8 863.5,889.2 875.6,868.9 
	"/>
<rect x="883.3" y="806.8" transform="matrix(-0.4968 0.8679 -0.8679 -0.4968 2059.698 422.3972)" fill="#00AEEF" width="48.2" height="3"/>
<polygon fill="#00AEEF" points="913.4,632.6 913.2,635.6 821.6,631.3 821.8,628.3 828.3,628.6 888.2,548.3 867.2,544 867.8,541 
	893.5,546.4 841.1,616.4 859.8,622.3 858.9,625.2 839.2,619 831.9,628.8 "/>
<rect x="639.8" y="870.5" transform="matrix(-8.692586e-02 0.9962 -0.9962 -8.692586e-02 1595.4615 341.3161)" fill="#00AEEF" width="3" height="62.7"/>
<rect x="725.3" y="646.8" fill="#00AEEF" width="18.8" height="3"/>
<path fill="#00AEEF" d="M597.2,839.1l18.3,9.6l-5.6,8.9l-50.2-57.4l-2.3,2l52.9,60.4l7.9-12.4l8.1,4.2l28-36.5l-28.9-5.3
	L597.2,839.1z M625.4,850.5l-23.1-12.1l24-22.6l22.6,4.1L625.4,850.5z"/>
<polygon fill="#00AEEF" points="515.4,126.9 517.9,128.5 443.9,244.2 561.5,264.4 532.8,228.9 520.4,249.5 474.6,234.7 501.9,175.6 
	504.7,176.8 478.7,232.9 519,246 530.8,226.5 530.7,226.3 531.2,225.8 563.9,171.8 566.5,173.3 534.5,226.2 568.8,268.7 
	442.2,246.9 417.3,285.9 414.7,284.2 438.9,246.4 427.3,244.4 427.8,241.4 440.7,243.6 "/>
<rect x="530.6" y="816" transform="matrix(-0.7609 0.6489 -0.6489 -0.7609 1492.933 1163.252)" fill="#00AEEF" width="3" height="81.3"/>
<polygon fill="#00AEEF" points="798.8,131.6 728.4,131.6 757.6,111.8 "/>
<polygon fill="#00AEEF" points="855.5,827.4 831.6,824.5 840.6,810.9 "/>
<polygon fill="#00AEEF" points="893.7,654.2 851.8,698.6 815.2,698.6 849.1,650.8 "/>
<polygon fill="#00AEEF" points="840,711.2 832.2,701.6 849,701.6 "/>
<polygon fill="#00AEEF" points="825.2,764.9 774.3,756.4 813.1,701.6 828.3,701.6 844.7,721.8 805.5,716.2 805.1,719.2 856.4,726.5 
	"/>
<polygon fill="#00AEEF" points="772.4,759.2 791,762.3 730.1,845 720.5,832.4 "/>
<polygon fill="#00AEEF" points="580.9,676.8 665.4,690.7 642.8,713.2 647.4,722.6 603.5,709.3 623.5,736.5 614.3,740.2 569.8,673.1 
	586.6,660.1 592.5,671.6 619.5,651.9 641.9,656.5 612.1,673.7 674,682 668,688 581.4,673.7 "/>
<polygon fill="#00AEEF" points="690,670.5 687.9,668.4 676.7,679.5 655.2,676.6 683.6,654.7 718.7,659.3 701,642 728.8,617.3 
	768.3,621.1 755.5,638 706.4,638 706.4,641 753.2,641 719.8,685.2 715.6,684.6 726.3,673.9 724.2,671.8 711.9,684.1 680.5,679.9 "/>
<polygon fill="#00AEEF" points="697.8,638.9 720,616.4 724.7,616.9 698.8,639.9 "/>
<polygon fill="#00AEEF" points="593.6,667.2 589.1,658.3 651.3,610.4 658.1,620.1 618.8,648.7 618.3,648.6 618.2,649.2 "/>
<polygon fill="#00AEEF" points="679.9,651.1 629.6,644.6 659.8,622.6 "/>
<polygon fill="#00AEEF" points="679.4,654.1 672.2,659.7 622.9,649.6 626.2,647.2 "/>
<polygon fill="#00AEEF" points="621.3,672 646.4,657.5 669,662.1 651,676 "/>
<polygon fill="#00AEEF" points="654.7,610.1 716.1,616 695.6,636.8 684.1,625.7 682,627.9 710,655.1 683.9,651.7 "/>
<polygon fill="#00AEEF" points="597.5,601.6 643.3,512.3 660.6,513.3 628.5,541.5 630.5,543.8 650,526.8 694.3,538.1 668.6,513.8 
	723.5,516.9 685.5,555 660.7,551.6 680.1,536.4 678.2,534 656.5,551 655.6,550.9 655.5,551.8 628.4,573 630.3,575.4 657.4,554.2 
	682.8,557.7 666.4,574 679.7,587.8 680.3,587.8 705.8,589.3 727.4,604.6 718.9,613.2 652.5,606.8 652,606.1 651.2,606.7 "/>
<polygon fill="#00AEEF" points="801.2,554.9 826.2,530.8 836.8,532.5 816.1,554.9 801.2,554.9 "/>
<polygon fill="#00AEEF" points="794.8,554.9 781.6,542.7 811.9,522.8 749.9,454.7 756.6,440.6 844.1,530.7 817.7,526.5 817.2,529.5 
	822.5,530.3 796.9,555 794.8,555 "/>
<polygon fill="#00AEEF" points="748.4,457.5 806.3,521.1 764.9,522.9 756.2,515.5 755.7,515.5 705.1,512.7 734.7,442.4 746.3,455.1 
	745.4,456.9 748.1,458.2 "/>
<polygon fill="#00AEEF" points="480.6,415.4 500.2,430.9 459.4,444.9 "/>
<polygon fill="#00AEEF" points="570.6,510.8 603.2,462.5 646.9,469.8 627.2,499 626.9,498.7 624.8,500.8 625.5,501.5 616.8,514.3 
	"/>
<polygon fill="#00AEEF" points="638.1,515.9 620.2,514.5 627.6,503.6 635.8,511.8 640.1,512 "/>
<polygon fill="#00AEEF" points="680.3,476.1 669.6,490.7 656.8,486.1 677.2,446.4 700.2,449.1 682,473.9 680.7,473.7 "/>
<polygon fill="#00AEEF" points="683.3,477.1 699.4,479.3 663.9,510.4 644.9,509.3 655.4,488.8 670.7,494.3 "/>
<polygon fill="#00AEEF" points="667.3,513.6 665.8,515.2 683.8,532.2 652.7,524.3 665,513.6 "/>
<polygon fill="#00AEEF" points="803.4,567 788.7,591.3 747.2,588.8 784.8,550.7 769.3,550.7 778.9,544.4 "/>
<polygon fill="#00AEEF" points="743.3,588.6 681.1,584.9 670.6,574 726.3,518 725,516.7 754.9,518.4 760.3,523 725.1,524.5 
	725.2,527.5 804.1,524.1 763.8,550.6 755.5,550.6 755.5,553.6 777.6,553.6 "/>
<polygon fill="#00AEEF" points="740.5,591.4 729.6,602.5 711.6,589.7 "/>
<polygon fill="#00AEEF" points="572.3,607.1 618,517.7 618.3,517.3 636.6,518.7 594.3,601.1 591.4,600.8 601.6,611.9 "/>
<polygon fill="#00AEEF" points="481.5,492 524.4,469.2 543.3,492.9 506,485.9 505.4,488.8 546.1,496.4 564.6,519.5 568.6,513.6 
	614.9,517.1 589.1,567.5 565.3,565.2 565,568.2 587.7,570.4 582.1,581.4 511.4,534.6 521.5,523.4 521.4,523.3 546.4,528.4 
	527.5,507.7 525.3,509.7 538,523.6 498.7,515.5 "/>
<polygon fill="#00AEEF" points="523.9,334.6 523.3,335.3 534.4,335.3 451.7,450.5 439.6,433.7 492.1,324 "/>
<polygon fill="#00AEEF" points="613.6,237.7 536.7,332.2 536.6,332.2 536.5,332.3 529.4,332.3 602.9,237.7 613.6,237.7 "/>
<polygon fill="#00AEEF" points="701.3,316.6 707.3,325 668.7,352.9 631.2,316.6 "/>
<polygon fill="#00AEEF" points="705,316.6 718.9,316.6 709.7,323.2 "/>
<polygon fill="#00AEEF" points="650.9,217.5 670,179.3 731.6,242.2 703.1,233.5 701.7,232.2 701.1,232.9 "/>
<polygon fill="#00AEEF" points="650.2,159.1 667.8,177 648,216.6 633.5,212.2 "/>
<polygon fill="#00AEEF" points="680.2,152.2 669.2,174.2 649.8,154.4 "/>
<polygon fill="#00AEEF" points="685.5,141.7 670.6,123.5 696.2,120.4 "/>
<polygon fill="#00AEEF" points="794.3,232.3 788.4,241.5 781.3,241.4 781.2,244.4 786.4,244.5 767.6,273.6 770.1,275.2 789.9,244.5 
	837.2,245.5 792.3,341.2 779.6,329.1 777.5,331.3 790.9,344.1 770,388.7 756.3,388.7 711.3,325.6 728,313.5 702.7,313.5 672,270.3 
	702.1,236.3 742,248.5 671.4,176.5 686.1,147.2 690.1,152.1 687.9,154.6 690.1,156.6 692,154.4 701.7,166.2 704,164.3 696.1,154.6 
	766.8,156.2 732.1,210.9 706.7,206.2 706.2,209.2 757.3,218.6 754.1,227.5 728.4,226.3 728.3,229.3 753.1,230.5 742.8,259.5 
	745.6,260.5 756.3,230.7 "/>
<polygon fill="#00AEEF" points="838.7,242.6 791.9,241.6 797.8,232.5 842.4,234.6 "/>
<polygon fill="#00AEEF" points="853.2,554.9 820.3,554.9 840.5,533 852.6,534.9 755.8,435.2 747.7,452.1 736,439.2 745.1,417.6 
	775.7,420.4 721.5,374 719.5,376.3 766.5,416.8 579.3,399.9 533.8,341.4 537.9,335.6 607.1,346 596.1,358.8 651.4,385.4 
	651.4,385.4 674.9,396.5 701.5,370.4 685.7,364.9 651.4,382.1 600.9,357.8 612.9,343.9 540,333 585.7,276.9 624.8,314.8 
	624.8,316.8 626.9,316.8 679.3,367.7 681.4,365.5 670.9,355 709,327.4 754.8,391.8 772,391.8 793.3,346.3 850.3,400.6 778.7,398.5 
	778.6,401.5 860.2,403.9 827.6,451.3 784.2,449.5 784.1,452.5 849.1,455.3 869,425.6 869.3,427 892,422.3 847.9,485.3 806.2,457.6 
	804.5,460.1 848.7,489.4 890.5,429.6 912.3,449 914.3,446.8 904.7,438.2 929.4,430.5 "/>
<polygon fill="#00AEEF" points="686,368 696,371.5 674.4,392.7 654.9,383.5 "/>
<polygon fill="#00AEEF" points="742.9,693.7 798.8,628.3 809.5,628.3 762.8,697.2 "/>
<polygon fill="#00AEEF" points="729.5,686.5 788.3,606.4 785.9,604.6 726.1,686 723.2,685.6 779.8,610.6 777.4,608.8 770.3,618.2 
	722.6,613.6 729.8,606.3 730.3,606.7 732,604.3 731.9,604.2 744.3,591.6 790.2,594.3 807.1,566.4 797.9,557.9 851.2,557.9 
	843.3,570.8 845.9,572.4 854.7,558 856.9,558 811.3,625.3 797.2,625.3 743.3,688.4 "/>
<polygon fill="#00AEEF" points="707.1,693.2 713,687.3 724.2,688.8 721,693.2 "/>
<polygon fill="#00AEEF" points="651.3,723.7 646.4,713.8 677.8,682.6 709.2,686.8 689.1,707 689.3,706 676.4,703.4 "/>
<polygon fill="#00AEEF" points="694.3,797.9 650.5,780.8 642.9,766.5 646.1,767.1 645.8,767.9 700.3,790.4 "/>
<polygon fill="#00AEEF" points="680.4,819.9 686.6,822.6 668.7,844.9 665,838.8 "/>
<polygon fill="#00AEEF" points="619.9,793.5 650.5,806.9 652.5,810 626.7,807.1 "/>
<polygon fill="#00AEEF" points="618,789.3 640.5,768.2 648.4,783.2 648.9,783.4 692.3,800.4 679.5,816.2 "/>
<polygon fill="#00AEEF" points="542.5,793.1 543.2,792.4 528.3,777.3 567.6,712.5 528.5,704.9 567.4,675 613.1,743.9 628.2,737.9 
	611.3,714.8 649.2,726.3 657.2,742.7 659.9,741.4 656.3,734 741.1,740.3 702.4,788 656.1,768.9 683.3,773.8 659.5,757.2 
	657.8,759.7 670.3,768.4 645.2,763.9 659.6,750.4 657.5,748.2 641.4,763.2 636.1,762.2 620,770.2 610.3,759.3 "/>
<polygon fill="#00AEEF" points="454.2,706.6 486.8,751.5 427.2,739.8 427.8,736.9 479.9,747.1 451.8,708.3 "/>
<polygon fill="#00AEEF" points="419.7,502 437.2,493.7 438.5,496.4 422,504.2 407.2,541.6 515.4,555.3 418.5,693.7 473.9,706 
	473.3,708.9 413.5,695.7 510.1,557.6 403,544.1 "/>
<polygon fill="#00AEEF" points="419.6,747.6 476.9,757 476.4,759.9 422.1,751 404.9,847 416,858 482.3,798.6 484.3,800.9 
	415.9,862.1 401.6,848 "/>
</svg>
