<?xml version="1.0" encoding="utf-8"?>
<!-- Generator: Adobe Illustrator 18.0.0, SVG Export Plug-In . SVG Version: 6.00 Build 0)  -->
<!DOCTYPE svg PUBLIC "-//W3C//DTD SVG 1.1//EN" "http://www.w3.org/Graphics/SVG/1.1/DTD/svg11.dtd">
<svg version="1.1" id="Layer_1" xmlns="http://www.w3.org/2000/svg" xmlns:xlink="http://www.w3.org/1999/xlink" x="0px" y="0px"
	 viewBox="1196 764 200 200" enable-background="new 1196 764 200 200" xml:space="preserve">
<rect x="1215" y="783" fill="#FFFFFF" stroke="#000000" stroke-miterlimit="10" width="18" height="63"/>
<rect x="1215" y="837" fill="#FFFFFF" stroke="#000000" stroke-miterlimit="10" width="26.4" height="63"/>
<rect x="1215" y="882" fill="#FFFFFF" stroke="#000000" stroke-miterlimit="10" width="26.4" height="63"/>
<rect x="1224" y="908.2" fill="#FFFFFF" stroke="#000000" stroke-miterlimit="10" width="26.4" height="36.8"/>
<rect x="1242.6" y="917.9" fill="#FFFFFF" stroke="#000000" stroke-miterlimit="10" width="26.4" height="27.1"/>
<rect x="1260.6" y="927.2" fill="#FFFFFF" stroke="#000000" stroke-miterlimit="10" width="26.4" height="8.1"/>
<rect x="1260.6" y="909.9" fill="#FFFFFF" stroke="#000000" stroke-miterlimit="10" width="26.4" height="17.4"/>
<rect x="1287" y="909.9" fill="#FFFFFF" stroke="#000000" stroke-miterlimit="10" width="26.4" height="35.2"/>
<rect x="1296.6" y="917.4" fill="#FFFFFF" stroke="#000000" stroke-miterlimit="10" width="26.4" height="27.7"/>
<rect x="1304.8" y="909" fill="#FFFFFF" stroke="#000000" stroke-miterlimit="10" width="35.6" height="27.7"/>
<rect x="1323.6" y="909" fill="#FFFFFF" stroke="#000000" stroke-miterlimit="10" width="26.4" height="27.7"/>
<rect x="1314.6" y="917.3" fill="#FFFFFF" stroke="#000000" stroke-miterlimit="10" width="43.6" height="27.7"/>
<rect x="1233.6" y="854.6" fill="#FFFFFF" stroke="#000000" stroke-miterlimit="10" width="26.4" height="27.2"/>
<rect x="1251.6" y="846.5" fill="#FFFFFF" stroke="#000000" stroke-miterlimit="10" width="26.4" height="35.3"/>
<rect x="1269" y="856.4" fill="#FFFFFF" stroke="#000000" stroke-miterlimit="10" width="36" height="25.4"/>
<rect x="1233" y="783" fill="#FFFFFF" stroke="#000000" stroke-miterlimit="10" width="18" height="27.3"/>
<rect x="1251" y="791.5" fill="#FFFFFF" stroke="#000000" stroke-miterlimit="10" width="18" height="18.8"/>
<rect x="1260" y="783" fill="#FFFFFF" stroke="#000000" stroke-miterlimit="10" width="18" height="35"/>
<rect x="1269.4" y="791.7" fill="#FFFFFF" stroke="#000000" stroke-miterlimit="10" width="26.6" height="26.4"/>
<rect x="1286.7" y="784.5" fill="#FFFFFF" stroke="#000000" stroke-miterlimit="10" width="44.9" height="33.6"/>
<rect x="1286.7" y="801.2" fill="#FFFFFF" stroke="#000000" stroke-miterlimit="10" width="44.9" height="17.3"/>
<rect x="1314" y="791.8" fill="#FFFFFF" stroke="#000000" stroke-miterlimit="10" width="44.9" height="26.7"/>
<rect x="1287.3" y="855" fill="#FFFFFF" stroke="#000000" stroke-miterlimit="10" width="53.6" height="26.7"/>
<rect x="1295.7" y="846.3" fill="#FFFFFF" stroke="#000000" stroke-miterlimit="10" width="45.3" height="26.7"/>
</svg>
