<?xml version="1.0" encoding="utf-8"?>
<!-- Generator: Adobe Illustrator 18.0.0, SVG Export Plug-In . SVG Version: 6.00 Build 0)  -->
<!DOCTYPE svg PUBLIC "-//W3C//DTD SVG 1.1//EN" "http://www.w3.org/Graphics/SVG/1.1/DTD/svg11.dtd">
<svg version="1.1" id="Layer_1" xmlns="http://www.w3.org/2000/svg" xmlns:xlink="http://www.w3.org/1999/xlink" x="0px" y="0px"
	 viewBox="1196 764 200 200" enable-background="new 1196 764 200 200" xml:space="preserve">
<rect x="1215" y="774" fill="#FFFFFF" stroke="#000000" stroke-miterlimit="10" width="18" height="45"/>
<rect x="1224" y="774" fill="#FFFFFF" stroke="#000000" stroke-miterlimit="10" width="18" height="72.7"/>
<rect x="1233" y="782.7" fill="#FFFFFF" stroke="#000000" stroke-miterlimit="10" width="18" height="72.7"/>
<rect x="1242.1" y="810.2" fill="#FFFFFF" stroke="#000000" stroke-miterlimit="10" width="26.9" height="45.2"/>
<rect x="1215.1" y="846" fill="#FFFFFF" stroke="#000000" stroke-miterlimit="10" width="26.9" height="45.2"/>
<rect x="1232.7" y="864" fill="#FFFFFF" stroke="#000000" stroke-miterlimit="10" width="18.3" height="18.4"/>
<rect x="1224" y="882.5" fill="#FFFFFF" stroke="#000000" stroke-miterlimit="10" width="18.3" height="62.9"/>
<rect x="1260.5" y="828" fill="#FFFFFF" stroke="#000000" stroke-miterlimit="10" width="26.5" height="62.9"/>
<rect x="1269.5" y="855" fill="#FFFFFF" stroke="#000000" stroke-miterlimit="10" width="26.5" height="62.9"/>
<rect x="1277.5" y="837" fill="#FFFFFF" stroke="#000000" stroke-miterlimit="10" width="18.5" height="62.9"/>
<rect x="1296" y="872.9" fill="#FFFFFF" stroke="#000000" stroke-miterlimit="10" width="18.5" height="27.1"/>
<rect x="1295.5" y="908.9" fill="#FFFFFF" stroke="#000000" stroke-miterlimit="10" width="18.5" height="27.1"/>
<rect x="1287" y="890.9" fill="#FFFFFF" stroke="#000000" stroke-miterlimit="10" width="18.5" height="27.1"/>
<rect x="1305" y="863.9" fill="#FFFFFF" stroke="#000000" stroke-miterlimit="10" width="18.5" height="27.1"/>
<rect x="1305" y="890.9" fill="#FFFFFF" stroke="#000000" stroke-miterlimit="10" width="18.5" height="36.6"/>
<rect x="1313.5" y="890.9" fill="#FFFFFF" stroke="#000000" stroke-miterlimit="10" width="18.5" height="36.6"/>
<rect x="1331.8" y="837.3" fill="#FFFFFF" stroke="#000000" stroke-miterlimit="10" width="18.5" height="90.2"/>
<rect x="1322.5" y="809.8" fill="#FFFFFF" stroke="#000000" stroke-miterlimit="10" width="18.5" height="90.2"/>
<rect x="1331.5" y="783" fill="#FFFFFF" stroke="#000000" stroke-miterlimit="10" width="18.5" height="90.2"/>
<rect x="1322.4" y="774.7" fill="#FFFFFF" stroke="#000000" stroke-miterlimit="10" width="28" height="35.4"/>
<rect x="1340" y="792" fill="#FFFFFF" stroke="#000000" stroke-miterlimit="10" width="28" height="35.4"/>
<rect x="1340" y="837.6" fill="#FFFFFF" stroke="#000000" stroke-miterlimit="10" width="28" height="45.3"/>
</svg>
