<?xml version="1.0" encoding="utf-8"?>
<!-- Generator: Adobe Illustrator 18.0.0, SVG Export Plug-In . SVG Version: 6.00 Build 0)  -->
<!DOCTYPE svg PUBLIC "-//W3C//DTD SVG 1.1//EN" "http://www.w3.org/Graphics/SVG/1.1/DTD/svg11.dtd">
<svg version="1.1" id="Layer_1" xmlns="http://www.w3.org/2000/svg" xmlns:xlink="http://www.w3.org/1999/xlink" x="0px" y="0px"
	 viewBox="1196 764 200 200" enable-background="new 1196 764 200 200" xml:space="preserve">
<rect x="1233" y="792" fill="#FFFFFF" stroke="#000000" stroke-miterlimit="10" width="18" height="18"/>
<rect x="1242" y="783" fill="#FFFFFF" stroke="#000000" stroke-miterlimit="10" width="18" height="18"/>
<rect x="1251" y="792" fill="#FFFFFF" stroke="#000000" stroke-miterlimit="10" width="72" height="18"/>
<rect x="1287" y="783" fill="#FFFFFF" stroke="#000000" stroke-miterlimit="10" width="18" height="18"/>
<rect x="1296" y="792" fill="#FFFFFF" stroke="#000000" stroke-miterlimit="10" width="54" height="27"/>
<rect x="1341" y="801" fill="#FFFFFF" stroke="#000000" stroke-miterlimit="10" width="27" height="9"/>
<rect x="1341" y="783" fill="#FFFFFF" stroke="#000000" stroke-miterlimit="10" width="27" height="18"/>
<rect x="1233" y="810" fill="#FFFFFF" stroke="#000000" stroke-miterlimit="10" width="36" height="18"/>
<rect x="1251" y="819" fill="#FFFFFF" stroke="#000000" stroke-miterlimit="10" width="18" height="27"/>
<rect x="1260" y="837" fill="#FFFFFF" stroke="#000000" stroke-miterlimit="10" width="18" height="18"/>
<rect x="1242" y="837" fill="#FFFFFF" stroke="#000000" stroke-miterlimit="10" width="18" height="18"/>
<rect x="1251" y="846" fill="#FFFFFF" stroke="#000000" stroke-miterlimit="10" width="18" height="9"/>
<rect x="1278" y="828" fill="#FFFFFF" stroke="#000000" stroke-miterlimit="10" width="9" height="36"/>
<rect x="1287" y="855" fill="#FFFFFF" stroke="#000000" stroke-miterlimit="10" width="36" height="18"/>
<rect x="1269" y="864" fill="#FFFFFF" stroke="#000000" stroke-miterlimit="10" width="27" height="9"/>
<rect x="1314" y="855" fill="#FFFFFF" stroke="#000000" stroke-miterlimit="10" width="36" height="27"/>
<rect x="1341" y="855" fill="#FFFFFF" stroke="#000000" stroke-miterlimit="10" width="18" height="18"/>
<rect x="1332" y="873" fill="#FFFFFF" stroke="#000000" stroke-miterlimit="10" width="18" height="18"/>
<rect x="1323" y="891" fill="#FFFFFF" stroke="#000000" stroke-miterlimit="10" width="36" height="9"/>
<rect x="1305" y="900" fill="#FFFFFF" stroke="#000000" stroke-miterlimit="10" width="27" height="27"/>
<rect x="1278" y="909" fill="#FFFFFF" stroke="#000000" stroke-miterlimit="10" width="36" height="9"/>
<rect x="1260" y="909" fill="#FFFFFF" stroke="#000000" stroke-miterlimit="10" width="45" height="36"/>
<rect x="1242" y="927" fill="#FFFFFF" stroke="#000000" stroke-miterlimit="10" width="45" height="9"/>
<rect x="1251" y="900" fill="#FFFFFF" stroke="#000000" stroke-miterlimit="10" width="9" height="27"/>
<rect x="1296" y="927" fill="#FFFFFF" stroke="#000000" stroke-miterlimit="10" width="45" height="9"/>
<rect x="1323" y="891" fill="#FFFFFF" stroke="#000000" stroke-miterlimit="10" width="18" height="27"/>
<rect x="1341" y="864" fill="#FFFFFF" stroke="#000000" stroke-miterlimit="10" width="18" height="18"/>
<rect x="1233" y="900" fill="#FFFFFF" stroke="#000000" stroke-miterlimit="10" width="18" height="27"/>
<rect x="1305" y="927" fill="#FFFFFF" stroke="#000000" stroke-miterlimit="10" width="18" height="27"/>
<rect x="1341" y="900" fill="#FFFFFF" stroke="#000000" stroke-miterlimit="10" width="9" height="9"/>
<rect x="1260" y="855" fill="#FFFFFF" stroke="#000000" stroke-miterlimit="10" width="18" height="9"/>
</svg>
